<?xml version="1.0" encoding="UTF-8"?>
<svg id="Layer_2" xmlns="http://www.w3.org/2000/svg" xmlns:xlink="http://www.w3.org/1999/xlink" viewBox="0 0 144.69 143.96">
  <defs>
    <style>
      .cls-1 {
        fill: none;
      }

      .cls-2 {
        fill: #d0cece;
      }

      .cls-3 {
        clip-path: url(#clippath);
      }

      .cls-4 {
        fill: #263885;
      }
    </style>
    <clipPath id="clippath">
      <rect class="cls-1" width="144.69" height="143.96"/>
    </clipPath>
  </defs>
  <g id="Capa_1">
    <g class="cls-3">
      <path class="cls-4" d="M108.88,33.62c20.49,20.12,21.49,53.16,2.28,74.54,19.25-21.36,18.24-54.43-2.28-74.54"/>
      <path class="cls-2" d="M137.3,40.33c-6.74-13.77-17.73-25.03-31.37-32.13C70.51-10.19,26.82,3.4,8.25,38.58.14,53.96-2.08,71.74,1.99,88.62l1.71-.39c-3.98-16.48-1.81-33.84,6.11-48.85C27.93,5.05,70.57-8.21,105.12,9.75c34.51,18.03,47.84,60.45,29.79,94.83-14.8,28.02-46.6,42.76-77.69,36.02l-.23,1.74c31.82,6.83,64.32-8.28,79.46-36.96,10.38-19.73,10.99-43.13,1.64-63.37"/>
      <path class="cls-4" d="M108.56,33.3h0c-10.38-10.02-24.36-15.43-38.79-15.01l.26,9.43c11.89-.35,23.42,4.12,31.98,12.38,17.58,17,18.09,45.03,1.13,62.65-17,17.58-45.03,18.09-62.65,1.13-17.58-17-18.09-45.03-1.13-62.65,1.92-2,4.04-3.79,6.3-5.39l-4.11-8.64c-2.87,1.9-5.55,4.07-8,6.49-.33.32-.65.65-.97.98-.32.33-.64.67-.95,1.01-19.65,21.5-18.62,54.74,2.33,74.98,20.99,20.18,54.22,20.01,75-.39.33-.32.65-.65.97-.98.32-.33.64-.67.95-1.01,19.66-21.5,18.63-54.74-2.31-74.98"/>
    </g>
  </g>
</svg>