<?xml version="1.0" encoding="UTF-8"?>
<svg id="Layer_2" xmlns="http://www.w3.org/2000/svg" xmlns:xlink="http://www.w3.org/1999/xlink" viewBox="0 0 143.96 143.96">
  <defs>
    <style>
      .cls-1 {
        fill: none;
      }

      .cls-2 {
        fill: #d0cece;
      }

      .cls-3 {
        clip-path: url(#clippath);
      }

      .cls-4 {
        fill: #263885;
      }
    </style>
    <clipPath id="clippath">
      <rect class="cls-1" width="143.96" height="143.96"/>
    </clipPath>
  </defs>
  <g id="Capa_1">
    <g class="cls-3">
      <path class="cls-4" d="M107.83,33.31c-10.38-10.02-24.36-15.43-38.79-15.01l.26,9.43c11.89-.35,23.42,4.12,31.98,12.38,17.58,17,18.09,45.03,1.13,62.65-17,17.58-45.02,18.09-62.65,1.13-17.58-17-18.09-45.03-1.13-62.65,2.72-2.82,5.79-5.26,9.15-7.26l-3.96-8.61c-4.02,2.29-7.71,5.09-11.01,8.33-.33.32-.65.65-.97.98-.32.33-.64.67-.95,1.01-19.65,21.51-18.62,54.74,2.33,74.98,20.99,20.18,54.22,20.01,75-.39.33-.32.65-.65.97-.98.32-.33.64-.67.95-1.01,19.65-21.5,18.63-54.74-2.31-74.98"/>
      <path class="cls-2" d="M136.61,40.33c-6.7-13.77-17.65-25.03-31.22-32.13C70.16-10.19,26.69,3.4,8.21,38.58.14,53.96-2.07,71.74,1.98,88.62l1.7-.39c-3.96-16.48-1.8-33.84,6.08-48.85C27.78,5.05,70.21-8.21,104.59,9.75c34.33,18.03,47.59,60.45,29.64,94.83-14.73,28.02-46.36,42.76-77.29,36.02l-.23,1.74c31.66,6.83,64-8.28,79.06-36.96,10.33-19.73,10.93-43.13,1.63-63.37"/>
    </g>
  </g>
</svg>