<?xml version="1.0" encoding="UTF-8"?>
<svg id="Layer_2" xmlns="http://www.w3.org/2000/svg" xmlns:xlink="http://www.w3.org/1999/xlink" viewBox="0 0 143.96 143.96">
  <defs>
    <style>
      .cls-1 {
        fill: none;
      }

      .cls-2 {
        fill: #d0cece;
      }

      .cls-3 {
        clip-path: url(#clippath);
      }

      .cls-4 {
        fill: #263885;
      }
    </style>
    <clipPath id="clippath">
      <rect class="cls-1" width="143.96" height="143.96"/>
    </clipPath>
  </defs>
  <g id="Capa_1">
    <g class="cls-3">
      <path class="cls-4" d="M110.02,33.93c-10.38-9.95-24.36-15.33-38.79-14.91l.26,9.36c11.89-.34,23.42,4.09,31.97,12.3,17.58,16.88,18.09,44.72,1.13,62.22-17,17.47-45.02,17.97-62.65,1.12-17.58-16.88-18.09-44.72-1.13-62.22,4.73-4.88,10.53-8.6,16.95-10.87l-2.71-9c-7.53,2.59-14.39,6.82-20.06,12.37-.33.32-.66.65-.97.98-.32.33-.64.67-.95,1-19.64,21.36-18.61,54.37,2.33,74.48,20.99,20.05,54.22,19.88,75-.39.33-.32.65-.65.97-.97.32-.33.64-.67.95-1,19.65-21.35,18.63-54.36-2.31-74.48"/>
      <path class="cls-2" d="M136.61,40.33c-6.7-13.77-17.65-25.03-31.22-32.13C70.16-10.19,26.69,3.4,8.21,38.58.14,53.96-2.07,71.74,1.98,88.62l1.7-.39c-3.96-16.48-1.8-33.84,6.08-48.85C27.78,5.05,70.21-8.21,104.59,9.75c34.33,18.03,47.59,60.45,29.64,94.83-14.73,28.02-46.36,42.76-77.29,36.02l-.23,1.74c31.66,6.83,64-8.28,79.06-36.96,10.33-19.73,10.93-43.13,1.63-63.37"/>
    </g>
  </g>
</svg>