<?xml version="1.0" encoding="UTF-8"?>
<svg id="Layer_2" xmlns="http://www.w3.org/2000/svg" xmlns:xlink="http://www.w3.org/1999/xlink" viewBox="0 0 143.96 143.96">
  <defs>
    <style>
      .cls-1 {
        fill: none;
      }

      .cls-2 {
        fill: #d0cece;
      }

      .cls-3 {
        clip-path: url(#clippath);
      }

      .cls-4 {
        fill: #263885;
      }
    </style>
    <clipPath id="clippath">
      <rect class="cls-1" width="143.96" height="143.96"/>
    </clipPath>
  </defs>
  <g id="Capa_1">
    <g class="cls-3">
      <path class="cls-4" d="M69.77,19.03l.26,9.36c11.89-.35,23.42,4.08,31.97,12.29,17.58,16.88,18.09,44.71,1.13,62.21-17,17.46-45.02,17.97-62.64,1.12-17.58-16.88-18.09-44.71-1.13-62.21,5.6-5.78,12.69-9.91,20.48-11.96l-2.43-9.05c-9.01,2.36-17.25,7.02-23.88,13.53-.33.32-.66.65-.97.98-.32.33-.63.66-.95,1-19.64,21.36-18.61,54.36,2.33,74.46,20.99,20.06,54.23,19.89,75.01-.39.33-.32.65-.65.97-.98.32-.33.64-.67.95-1,19.65-21.36,18.61-54.36-2.33-74.46-10.38-9.95-24.36-15.32-38.78-14.9"/>
      <path class="cls-2" d="M136.61,40.33c-6.7-13.77-17.65-25.03-31.22-32.13C70.16-10.19,26.69,3.4,8.21,38.58.14,53.96-2.07,71.74,1.98,88.62l1.7-.39c-3.96-16.48-1.8-33.84,6.08-48.85C27.79,5.05,70.21-8.21,104.59,9.75c34.33,18.03,47.59,60.45,29.64,94.83-14.73,28.02-46.36,42.76-77.29,36.02l-.23,1.74c31.66,6.83,64-8.28,79.06-36.96,10.33-19.73,10.93-43.14,1.63-63.37"/>
    </g>
  </g>
</svg>