<?xml version="1.0" encoding="UTF-8"?>
<svg id="Layer_1" xmlns="http://www.w3.org/2000/svg" viewBox="0 0 797.32 361.85">
  <defs>
    <style>
      .cls-1 {
        fill: #fff;
      }

      .cls-2 {
        fill: #211c40;
      }

      .cls-3 {
        fill: #e3057e;
      }
    </style>
  </defs>
  <polygon class="cls-2" points="177.14 293.44 140.71 361.85 760.87 361.85 797.32 293.44 177.14 293.44"/>
  <g>
    <path d="M147.69,131.11s.27.27,0,0h.54-.54Z"/>
    <path d="M150.92,221.9c-.27-2.15-.27-4.03.27-5.91l-.54-3.76c-5.37.27-10.74,0-15.58-1.07l2.69,10.21c6.72.27,12.63,5.64,13.7,12.63v.81s4.3-3.76,4.3-3.76c-2.42-2.42-4.3-5.64-4.84-9.13h0Z"/>
    <path d="M106.06,27.69c-.54,2.69-2.42,5.91.54,6.98,2.15.81,3.76-2.95,3.22-7.25-.54-2.95-2.69-5.37-6.45-5.64-.27,0,3.49,2.95,2.69,5.91Z"/>
    <path d="M93.97,49.45c6.72,9.94,19.34,15.58,31.97,13.16l-1.61-8.86c2.15.27,4.03.27,6.18,0l-16.12-20.15-6.98,12.63c-2.15-.54-4.3-.81-6.72-.27-2.69.54-4.84,1.88-6.72,3.49h0Z"/>
    <path d="M120.83,35.21c1.88-.54,2.95-2.42,2.42-4.3-.54-1.88-2.42-2.95-4.3-2.42-1.88.54-2.95,2.42-2.42,4.3.54,1.88,2.42,2.95,4.3,2.42Z"/>
    <path d="M123.79,22.32c-1.61.27-3.22.81-4.57,1.61l-1.34,2.95c.27-.27.81-.27,1.07-.27,2.15-.54,4.03.54,5.37,2.15l16.39,1.07c-3.22-5.91-9.94-8.86-16.92-7.52Z"/>
    <path d="M143.93,31.99l-18.8-1.34c.54,2.69-1.07,5.64-3.76,6.18-.27,0-.54.27-1.07.27l7.52,9.67,4.57-4.03c.54-.54,1.61-.54,2.15,0,.54.54.54,1.61-.27,2.15l-4.57,4.3,1.88,2.42,6.72-6.18c.54-.54,1.61-.54,2.15,0s.54,1.61-.27,2.15l-6.72,6.18,1.88,2.15,13.16-12.09-4.57-11.82h0ZM129.96,36.29l13.16.81,1.88,5.37-15.04-6.18h0Z"/>
    <path d="M101.22,85.17l15.58,8.33,1.61-.54-27.13-17.19c-2.42,1.34-5.37,2.42-8.33,2.42-.81,0-1.61,0-2.42-.27l18.8,9.13c0-.27,1.88-1.88,1.88-1.88Z"/>
    <polygon points="117.61 106.13 121.1 105.32 128.35 94.04 124.86 91.89 116 95.11 99.34 86.79 92.89 93.5 95.31 104.52 117.61 106.13"/>
    <path d="M108.74,15.07s-6.45-6.45-14.24.27c0,0,8.6-2.42,10.74,2.69,1.88,4.57,5.64,7.79,13.16,4.84,0,0-6.98.54-9.67-7.79h0Z"/>
    <path d="M131.31,89.2l-4.84-24.44c-10.48,2.15-19.88,0-27.13-6.72.54,3.49.81,8.06-2.42,12.89l32.5,21.49,1.88-3.22h0Z"/>
    <path d="M158.17,229.15l19.88-17.19-23.64,3.49c-.81,1.88-1.07,4.03-.54,6.18.27,2.95,1.88,5.64,4.3,7.52Z"/>
    <path d="M48.3,322.63c1.88-3.22,3.22-7.25,2.69-11.28-.54-5.91-4.03-10.74-8.6-13.43q-.27-.27-.54-.54c0-.54.27-.81.81-.81q.27,0,.54.27c5.1,2.95,8.86,8.33,9.67,14.77v2.95c1.61-4.57,5.1-16.92-4.03-29.82l4.3-.27s-1.34-10.74-8.6-15.31c-3.49,3.49-8.06,5.91-13.16,6.72h-.27c-.81,0-1.07-.54-1.07-1.34,0-.54.54-1.07,1.07-1.07,11.55-1.88,19.88-12.36,18.8-24.18-.54-6.45-3.76-11.82-8.6-15.58,0,0-2.15,2.95-8.33,4.57,0,0-1.61.27-1.61-.81s1.34-1.34,1.34-1.34c6.72-1.61,11.55-6.72,10.48-19.88,0,0-4.57,12.09-16.12,12.63h-1.34c-12.36,1.07-21.22,12.09-20.15,24.18.27,3.49,1.34,6.72,3.22,9.4,1.34,2.42,3.49,5.37,2.69,11.01,0,0,.27-6.98-5.37-7.79-1.34,3.22-1.88,6.45-1.61,10.21.81,8.86,7.25,15.85,15.58,18,0,0,16.65,4.03,13.43,15.31-2.15,7.52,2.42,10.21,2.42,10.21-5.91,6.72-13.7,4.03-16.39,1.07-2.69-2.95-2.15-7.25-2.15-7.25,0,0,2.15,4.3,8.06,3.49,4.3-.54,8.06-7.79,2.95-13.43-6.45-6.72-25.25,2.42-16.12,19.34,6.72,14.24,28.47,10.74,35.99,0h0Z"/>
    <path d="M134.8,221.36h-.54c-.81,0-1.34.81-1.07,1.61,0,.81.81,1.34,1.61,1.07h.54c1.07-.27,2.15-.27,3.49,0l-.81-2.95c-1.34,0-2.15.27-3.22.27h0Z"/>
    <path d="M135.6,233.99l-3.76-7.52-1.34,8.06-8.06,1.07,7.25,3.76-1.34,8.06,5.91-5.64,7.25,3.76-3.76-7.52,3.76-3.49c1.07,3.76,1.88,6.98,1.88,6.98l5.64-4.84v-2.95c-.81-5.37-5.1-9.4-10.21-10.21,0,0,1.34,4.57,2.42,9.13l-5.64,1.34h0Z"/>
    <path d="M75.43,100.49l16.92,2.15-2.15-9.67-5.91-1.61c-1.07,4.03-4.57,7.52-9.13,8.33-.27.54.27.81.27.81h0Z"/>
    <path d="M34.07,39.24l34.92,22.3v.27c0,1.07,0,1.88.27,2.95l-6.45,16.65c1.61-2.69,4.3-4.57,7.52-5.1,2.42-.54,4.84-.27,6.98.54-.27,0-.54-.54-.54-1.07s.54-1.07,1.07-1.07h.27c1.61.54,3.22,1.07,5.1,1.07,7.79,0,14.24-6.45,14.24-14.24s-6.45-14.24-14.24-14.24c-5.1,0-9.4,2.69-12.09,6.45l-32.77-21.49-4.3,6.98h0Z"/>
    <path d="M89.4,5.93s13.16-9.67,20.68,5.37c5.91,11.82,10.21,9.67,10.21,9.67-4.84-4.57-2.15-12.36-9.13-17.46-12.09-9.13-21.76,2.42-21.76,2.42h0Z"/>
    <path d="M111.7.83s2.42,1.34,4.03,3.76c0,0,1.07-.81,3.49-.81-1.61-2.15-4.84-3.49-7.52-2.95Z"/>
    <polygon points="232.84 170.6 231.77 189.4 240.9 184.29 240.1 197.19 251.65 185.64 252.19 178.12 241.71 171.4 232.84 170.6"/>
    <path d="M52.6,19.9c-6.72,7.25.54,21.22,8.6,22.03,7.25.54,7.52-4.3,7.52-4.3-2.42.54-3.22-1.07-2.15-2.69,1.61-1.88,2.15-5.1,2.15-5.1,0,0-.81,2.42-4.84,1.07-4.3-1.61-5.37,2.42-5.37,2.42-4.57-2.42-4.57-7.52-3.49-9.67,1.07-2.15,3.76-2.15,3.76-2.15,0,0-1.88,1.88-.54,5.37,1.07,2.42,5.64,3.49,7.79-.54,2.69-4.84-5.64-14.51-13.43-6.45Z"/>
    <path d="M134.26,111.5c-4.03.81-8.06,0-11.28-2.15,0,0-1.07-.54-.81-1.61l-4.03.81-18.8-1.34-10.21,35.73,22.56-.81c-1.34-9.13,4.84-17.46,13.97-18.8,4.57-.54,8.86.54,12.09,2.95l-.27-2.42c3.76,1.61,7.25,4.3,9.94,7.25h.54l-.27.27c3.76,4.03,6.18,9.4,6.98,15.04,1.61,10.48-2.69,20.41-10.21,26.59l5.1,34.38c1.34,0,2.95-.27,4.3-.54,24.98-3.76,42.98-24.98,43.78-49.16l8.06,7.52,11.01-9.67-75.21-48.08c-1.88,2.15-4.3,3.49-7.25,4.03h0Z"/>
    <path d="M241.98,166.83l10.48,6.98,3.22-47.01,5.1-4.3,1.07-14.24-4.3.54c1.07-5.1,1.61-11.55,1.34-16.92l-42.98,38.68s-2.95,2.69-7.25,3.49c-5.91.81-11.01-1.61-13.97-6.45l-4.03-6.72,20.68-21.22c-.81-2.15-1.61-5.1-1.88-7.25-1.34-9.67,1.34-17.46,6.98-24.44,0,0,1.07-1.61,2.15-.81,1.07,1.07,0,2.42,0,2.42-4.84,6.18-7.52,14.24-6.18,22.83.54,2.69,1.07,5.37,2.15,7.79l-20.41,20.68,2.95,5.1c2.15,4.03,6.45,6.45,11.28,5.64,1.88-.27,3.49-1.07,4.84-1.88l60.44-55.07c-4.03-1.34-8.33-1.61-12.89-1.07-2.15.27-4.03.81-5.91,1.34-9.67-26.59-36.53-44.05-66.35-39.76-21.22,2.95-43.78,18-50.5,46.47h0c4.57,2.15,8.33,6.45,9.4,11.82.81,3.49.27,6.98-1.07,10.21l73.87,48.62,23.91-20.95-2.15,35.46h0ZM235.8,89.2c1.61-.27,2.95.81,3.22,2.42.27,1.61-.81,2.95-2.42,3.22-1.61.27-2.95-.81-3.22-2.42s.81-2.95,2.42-3.22Z"/>
    <polygon points="220.49 152.87 217 155.82 241.71 171.4 241.98 166.83 220.49 152.87"/>
    <polygon points="252.19 178.12 307.52 213.31 308.59 211.43 252.45 173.82 252.19 178.12"/>
    <path d="M5.06,219.48s2.69-3.76,6.98-5.91c0,0-.81-2.15-.27-6.45-3.49,2.42-6.72,8.06-6.72,12.36h0Z"/>
    <path d="M62,89.2l-8.86,4.3,9.94-.27c.54.54,1.34,1.07,2.15,1.34.27-.54.27-1.07.27-1.34.27-2.42-.54-4.57-2.42-5.91-.54.27-.81,1.07-1.07,1.88h0Z"/>
    <path d="M134.26,149.11c-6.72,1.34-13.43-2.95-14.77-9.67-.27-1.88-.27-3.49,0-5.1-2.15,1.61-3.49,4.3-3.22,6.98l10.48,38.68c1.07,0,2.42-.27,3.49-.27,5.64-.81,10.74-3.22,14.77-6.72l-4.03-27.67c-1.61,1.88-4.03,3.22-6.72,3.76Z"/>
    <path d="M139.1,131.11c-2.42-2.95-6.72-4.3-10.48-2.95-4.57,1.61-7.25,6.18-6.45,10.74h0c.54-.54,1.07-.81,1.88-1.07,2.42-.81,4.84.54,5.64,2.69.81,2.15-.27,4.3-2.15,5.37,2.15,1.07,4.84,1.34,7.52.54,4.3-1.34,6.72-5.64,6.45-9.94l6.72-5.1-.27-.27h-8.86Z"/>
    <path d="M144.74,102.63c1.07-2.69,1.34-5.37.81-8.33-.81-4.03-3.22-7.25-6.18-9.13,0,0-1.34-.81-2.15.27l-5.64,8.6,13.16,8.6h0Z"/>
    <path d="M140.44,57.78c-4.3,0-7.79,2.42-9.67,5.91l-2.42.81,4.57,22.56,2.95-4.57c1.88-8.6,5.37-16.39,10.21-23.1-1.88-1.07-3.76-1.61-5.64-1.61h0Z"/>
    <path d="M3.44,253.33s-5.1-21.49,20.41-28.2c20.68-5.37,18.53-12.89,18.53-12.89-11.01,6.45-19.34-3.49-30.62,4.84-20.15,14.24-8.33,36.26-8.33,36.26h0Z"/>
    <path d="M120.83,9.42c1.07-.54,2.15-.81,3.22-1.07.81-.27,1.88,0,1.88,0-1.61-2.69-4.57-4.3-7.52-3.76-.81,0-1.34.27-2.15.54,1.88,2.42,2.95,6.18,3.49,10.21.54,2.95,2.42,5.37,2.42,5.37,2.42-.81,4.03-2.95,4.84-5.37,0,1.88-.54,3.49-1.61,4.84,3.49-.54,6.72,0,9.67,1.61.27-1.07.27-2.42,0-3.49-.81-5.37-5.64-9.4-10.74-8.6-.81,0-1.88.54-2.69,1.07h-.27c-.27,0-.54-.27-.81-.54,0-.54.27-.81.27-.81h0Z"/>
    <path d="M71.14,97.8c5.1.54,9.67-2.95,10.48-8.06.54-5.1-2.95-9.67-8.06-10.48-4.03-.54-7.79,1.61-9.4,5.1,0,0,4.84,2.69,4.3,8.86,0,1.07-.54,2.15-.81,2.95.81.81,2.15,1.34,3.49,1.61Z"/>
    <path d="M24.13,196.38c-4.84,1.61-8.6,5.91-9.13,11.55,0,1.34,0,2.69.27,3.76,4.57-2.15,11.01-2.42,17.19-1.61,5.37.81,9.13-1.88,9.13-1.88-.27-4.57-3.22-8.86-6.98-11.01,4.57.81,6.72,3.76,8.6,5.91-.27,2.69,0,5.64.27,8.33,2.15,13.7,11.01,24.71,23.1,29.82-4.84,8.86-11.01,16.65-18.27,23.64l50.77,61.24-1.34,9.94,5.91,14.77-2.69,3.22,2.15,7.25,23.1.54-4.57-9.13c-4.03-5.37-8.33-7.52-10.21-14.51l15.31,8.06v-11.01c-2.69-6.98-4.03-12.09-5.1-19.88-.54-4.03-.81-8.06-1.07-12.09l-29.82-34.92,29.82-27.94c-2.42-2.42-4.03-5.91-4.84-9.4-1.34-9.4,5.1-18.27,14.51-19.61,1.61-.27,3.22-.27,4.57,0l-8.33-30.89c-13.16.27-24.98-8.33-29.01-20.95l5.37-4.03-2.95-4.03c-.54,1.07-1.88,1.61-3.22,1.88-2.69.27-5.1-.81-6.18-2.95h0c-1.34-2.15-3.76-3.49-6.45-3.22-3.49.54-5.64,3.76-5.37,6.98,0,.81.27,1.34.54,2.15h0l7.25,11.28c-3.49-.54-6.98-.54-10.48,0-12.09,1.88-22.03,8.86-27.67,18.8-1.61-.81-3.22-1.07-5.1-1.34-8.86-.81-16.92,5.64-17.73,14.77-.27,1.88,0,3.76.54,5.64v.54c0,.54-.54,1.07-1.07,1.07-.81,0-.81-.81-.81-.81-.54-1.88-.54-4.03-.54-5.91,0-1.88.54-3.76.54-4.03h0ZM109.82,306.52l-1.07,6.98,4.3,13.16-1.88,1.88-27.13-44.86,25.79,22.83h0ZM76.51,257.63l-4.03,7.79-1.61-2.69,5.64-5.1Z"/>
    <path d="M84.84,8.62s-6.45-2.42-9.67,4.84c0,0-6.45-3.22-8.86,4.03,0,0,.81,2.69,4.03,1.07,4.03-1.88,1.07,2.95,1.88,5.64,1.07,3.76,4.57,2.69,4.57,2.69,0,0,0,3.76-5.37,2.95,0,0,.54,6.72,5.91,5.37,0,0-4.3,1.07-5.64,4.84-1.34,3.76-4.57,3.76-6.18,4.03,0,0,9.67,2.42,16.65-6.98l.81,2.42s5.1-1.88,6.45-6.98c-2.42-1.61-4.57-4.3-5.91-7.25v-.27c0-.54,0-1.07.54-1.07s1.07.27,1.07.54c2.42,5.64,8.33,8.86,13.97,7.79,1.61-.27,2.95-.81,4.3-1.61,0,0-.54-1.61-2.69-2.69,0,0,1.34-2.15,2.95-2.95,0,0-.81-2.69-3.76-3.22,0,0,0-4.03-2.42-5.37-2.42-1.34-5.1.81-4.84,3.22,0,0,3.76.54,2.69,3.76-.81,2.69-5.37,1.34-5.37-2.69-.27-5.37,2.95-8.33,9.94-9.67,4.03-.81,7.52,1.88,7.52,1.88,0,0-3.49-7.52-11.28-6.98-7.52.54-8.33,10.74-14.77,7.25,0-.27,3.76-1.07,3.49-4.57h0Z"/>
  </g>
  <g>
    <path class="cls-3" d="M396.05,253.51v-37.33c9.78,6.86,19.78,12.42,30,16.67,10.22,4.26,18.82,6.38,25.81,6.38s13.46-1.78,18.66-5.33c5.21-3.56,7.81-7.81,7.81-12.76s-1.69-9.3-5.05-12.66c-3.37-3.36-10.64-8.22-21.81-14.57-22.35-12.44-36.98-23.07-43.9-31.9-6.92-8.83-10.38-18.45-10.38-28.86,0-13.45,5.24-24.44,15.71-32.95,10.47-8.5,23.97-12.76,40.47-12.76s34.73,4.82,52.76,14.47v34.28c-20.57-12.44-37.4-18.66-50.47-18.66-6.73,0-12.16,1.43-16.28,4.29-4.13,2.86-6.19,6.64-6.19,11.35,0,4.07,1.87,7.95,5.61,11.63,3.74,3.69,10.31,8.13,19.71,13.33l12.38,7.04c29.21,16.51,43.82,34.79,43.82,54.84,0,14.35-5.62,26.12-16.85,35.32-11.24,9.2-25.69,13.81-43.33,13.81-10.41,0-19.69-1.12-27.81-3.34-8.13-2.22-18.35-6.31-30.67-12.28Z"/>
    <path class="cls-3" d="M760.15,90.85h37.17l-77.4,178.28h-11.06l-51.81-122.09-51.17,122.09h-11.25l-78.04-178.28h37.23l45.91,106.28,44.75-106.28h25.71l44.2,106.28,45.78-106.28Z"/>
    <path class="cls-3" d="M332.47,0v94.47c-13.72-4.95-26.41-7.43-38.09-7.43s-22.56,1.9-32.45,5.64c.13,3.96-.13,8.48-.72,12.64l3.92-.49-1.45,19.15-5.09,4.29-.42,6.19c.07-.1.17-.22.32-.39,10.22-11.3,23.97-16.95,41.23-16.95,11.05,0,21.97,2.73,32.76,8.19v111.04h-26.86c-15.49,0-26.22-1.02-32.19-3.05-5.97-2.03-11.62-5.96-16.95-11.81-5.96-6.56-9.92-14.33-11.88-24.58l-7.98,7.98.96-15.32-9.1,5.09,1.55-27.11-13.06-8.23-8.31,7.29c-.36,3.51-.55,5.11-.55,8.98,0,27.56,7.72,49.52,23.14,65.9,15.43,16.38,36.09,24.57,61.99,24.57h74.09V0h-34.85Z"/>
  </g>
  <g>
    <path class="cls-1" d="M208.07,310.44l15.15,34.25h-6.75l-3.95-9.05h-14.6l-3.8,9.05h-6.75l14.75-34.25h5.95ZM200.02,330.75h10.35l-5.3-12.35-5.05,12.35Z"/>
    <path class="cls-1" d="M227.02,310.59l8.65,22,9-22h5.5l9,22,8.65-22h6.65l-14.05,34.4h-2.6l-10.4-25.35-10.55,25.35h-2.6l-13.95-34.4h6.7Z"/>
    <path class="cls-1" d="M292.42,310.44l15.15,34.25h-6.75l-3.95-9.05h-14.6l-3.8,9.05h-6.75l14.75-34.25h5.95ZM284.37,330.75h10.35l-5.3-12.35-5.05,12.35Z"/>
    <path class="cls-1" d="M322.87,310.59c7.4,0,11.2,4.4,11.2,9.85,0,3.85-1.85,6.85-5.65,8.45,2.1,1.25,3.2,2.4,5.95,6.95l5.25,8.85h-7.45l-4.7-8.1c-3.05-5.3-5.05-6.25-7.7-6.25h-1.9v14.35h-6.6v-34.1h11.6ZM317.87,325.5h3.35c3.45,0,6.15-.95,6.15-5,0-3.05-1.85-4.9-5.5-4.9h-4v9.9Z"/>
    <path class="cls-1" d="M357.12,310.59c12,0,18.8,7.1,18.8,16.8,0,10.6-7.05,17.3-18.6,17.3h-13.85v-34.1h13.65ZM356.82,339.45c8,0,12.35-4.3,12.35-11.9,0-7.2-4.3-11.8-12.85-11.8h-6.25v23.7h6.75Z"/>
    <path class="cls-1" d="M388.42,310.59v34.1h-6.6v-34.1h6.6Z"/>
    <path class="cls-1" d="M401.47,310.59l21.15,24.05v-24.05h6.45v34.1h-5.8l-21-23.9v23.9h-6.45v-34.1h5.65Z"/>
    <path class="cls-1" d="M466.37,318.9c-3.8-2.25-7.85-3.35-11.8-3.35-8,0-12.8,5.75-12.8,12.15,0,6.75,5,12,12.55,12,2.3,0,3.55-.25,6.55-1.15v-6.15h-5.9v-5.1h12.1v15.05c-4.6,2-8.85,2.8-13.3,2.8-12.4,0-18.8-8.25-18.8-17.3s7-17.7,18.85-17.7c4.25,0,7.5.65,12.55,2.75v6Z"/>
  </g>
</svg>