<?xml version="1.0" encoding="UTF-8"?>
<svg id="Layer_1" xmlns="http://www.w3.org/2000/svg" version="1.1" viewBox="0 0 500 500">
  <!-- Generator: Adobe Illustrator 30.1.0, SVG Export Plug-In . SVG Version: 2.1.1 Build 136)  -->
  <defs>
    <style>
      .st0 {
        fill: #253885;
      }
    </style>
  </defs>
  <g id="challenge_idea">
    <path class="st0" d="M250,339.1c19.7,0,35.7-16,35.7-35.8s0-32.5,14.6-52.3c20.5-27.8,14.7-67-13.1-87.5s-66.9-14.7-87.4,13.1c-5.9,8.1-9.9,17.4-11.5,27.3-7.1,45.8,26,44.4,26,90.5v8.9c0,19.7,16,35.8,35.7,35.8ZM250,321.2c-9.9,0-17.9-8-17.9-17.9h35.7c0,9.9-8,17.9-17.9,17.9ZM205.9,206.7c4-24.3,27-40.8,51.4-36.8,24.3,4.1,40.8,27.1,36.7,51.4-1.2,7-4,13.7-8.3,19.4-10,12.9-16.2,28.4-17.9,44.7h-35.7c-4.3-44.7-31.5-44.7-26.2-78.8Z"/>
    <path class="st0" d="M426.7,72.7c-3.5-3.5-9.2-3.5-12.7,0-3.5,3.5-3.5,9.2,0,12.7,12.3,12.2,23.1,25.8,32.3,40.5l-30.9,17.9c-7.7-12-16.7-23.1-26.8-33.2-3.5-3.5-9.1-3.5-12.6,0,0,0,0,0,0,0l-31.6,31.8c-33.5-29.6-78.9-41.8-122.7-32.9l-9.4-34.6c43.3-9.4,88.5-2.3,126.9,19.9,4.3,2.5,9.7,1,12.2-3.3,0,0,0,0,0,0,27.7-47.5,28.4-47.5,27.7-52-2.3-17.2-135.6-75.9-254.2-6.5-4.3,2.5-5.7,7.9-3.3,12.2,29,50.1,27.7,50.9,34.5,50.9,4.9,0,8.9-4,9-8.9,0-1.6-.4-3.1-1.2-4.5l-22.2-38.5c67.7-35.9,148.7-35.9,216.4,0l-17.9,30.9c-55.6-29-149.4-27.4-147.7-6.1,0,2.5-1.8-5.5,11.8,44.7-18.1,6.2-34.7,16-48.9,28.8l-69.6-69.7c-3.5-3.5-9.1-3.5-12.6,0,0,0,0,0,0,0C26.3,119.7,0,183.3,0,249.7,0,254.6,4,258.7,8.9,258.7c16,0,2.7-16.5,16.9-69.1,9.6-36.4,28-70,53.6-97.6l63.5,63.2c-38.4,43.6-46.6,106.1-20.8,158.2l-38.9,22.4c-4.3,2.5-5.8,8-3.3,12.2,2.5,4.3,7.9,5.8,12.2,3.3l38.9-22.5c17.6,26.5,43.4,46.3,73.5,56.5-12.4,46.1-13.2,45.9-10.8,50.2,1.3,1.9,3.2,3.4,5.4,4.2,13.7,3.7,27.8,5.9,42,6.6v35.8c-55.4-1.9-108.2-23.8-148.6-61.7l25.2-25.3c7.1,6.5,31.5,26.4,38.7,26.4,4.9,0,9-3.9,9-8.9,0-3.2-1.7-6.2-4.5-7.8-13.5-7.8-26-17.3-37-28.4-3.5-3.5-9.1-3.5-12.6,0,0,0,0,0,0,0l-31.3,31.4c-23.7-25.5-41.4-56.1-51.5-89.4,50.5-13.5,42-11.1,44.6-12.2,16.8-8-25.5-62.6,22.7-146,2.3-4.4.6-9.8-3.8-12.1-4.1-2.2-9.2-.8-11.7,3.1-24.1,41.8-32,91-22.1,138.3.7,3.2,5.1,1.1-42.9,13.9-1.4.4-2.7,1.2-3.7,2.2-2.5,2.2-3.5,5.7-2.7,8.9,29.3,109.3,128.2,185.3,241.2,185.4,4.9,0,8.9-4,8.9-8.9v-53.6c0-4.9-4-8.9-8.9-8.9-12.6,0-25.2-1.4-37.6-4l9.4-34.6c31.1,6.3,63.4,2,91.8-12.1l22.4,39c2.5,4.3,7.9,5.8,12.2,3.3,4.3-2.5,5.8-8,3.3-12.2l-22.5-39c29-19.3,49.9-48.5,59-82.1,1.3-4.8-1.6-9.7-6.3-11-4.8-1.3-9.7,1.6-11,6.3-17.9,66.7-86.4,106.3-153,88.5-115.5-38.5-120.3-177-30.2-229.3,74.6-43.4,166.9,2.8,183.2,76.1,1.3,4.8,6.1,7.6,10.9,6.4,0,0,0,0,0,0,.9,0-6.6,1.7,42.9-11.5,2.6,12.3,4,24.9,4,37.5,0,4.9,4,8.9,8.9,8.9s8.9-4,8.9-8.9c0-17.2-2.2-34.3-6.6-51-1.2-4.8-6.1-7.7-10.9-6.5-.1,0-.3,0-.4.1l-43.1,11.7c-6.1-18.1-15.7-34.7-28.3-49l25.3-25.3c37.2,40.8,10.4,47.6,72.9,11.5,46,87.1,32,193.9-35,266.1l-25.3-25.2c21.2-23.2,36.5-51.2,44.6-81.6,1.3-4.8-1.6-9.7-6.3-11s-9.7,1.6-11,6.3c-18.8,70.9-60,78.8-46.2,92.8l31.3,31.4c-25.4,23.8-56,41.4-89.3,51.5l-11.1-43.2c-1.3-4.8-6.2-7.6-11-6.3s-7.6,6.2-6.3,11c0,.9,13.4,50.9,13.8,51.8,1.3,4.8,6.1,7.6,10.9,6.4,0,0,0,0,0,0,21.1-5.6,41.3-13.9,60.3-24.8,119.6-69.1,160.5-222.2,91.5-341.9-10.9-19-24.3-36.4-39.7-51.9h0Z"/>
  </g>
</svg>