<?xml version="1.0" encoding="UTF-8"?>
<svg xmlns="http://www.w3.org/2000/svg" xmlns:xlink="http://www.w3.org/1999/xlink" version="1.1" viewBox="0 0 152.5 127.6">
  <defs>
    <style>
      .cls-1 {
        fill: none;
      }

      .cls-2 {
        fill: #fff;
        fill-rule: evenodd;
      }

      .cls-3 {
        clip-path: url(#clippath);
      }
    </style>
    <clipPath id="clippath">
      <rect class="cls-1" width="152.5" height="127.6"/>
    </clipPath>
  </defs>
  <!-- Generator: Adobe Illustrator 28.7.1, SVG Export Plug-In . SVG Version: 1.2.0 Build 142)  -->
  <g>
    <g id="Layer_2">
      <g id="Capa_1">
        <g class="cls-3">
          <path class="cls-2" d="M32.2,63.8c0-24.3,19.8-44,44-44s44,19.8,44,44-19.8,44-44,44-44-19.8-44-44ZM69.3,59.4l5.7-5.7c.4-.4.7-.9,1-1.4.2-.5.3-1.1.3-1.7s-.1-1.2-.3-1.7c-.2-.5-.5-1-1-1.4-.4-.4-.9-.7-1.4-1-.5-.2-1.1-.3-1.7-.3s-1.2.1-1.7.3c-.5.2-1,.5-1.4,1l-13.2,13.2c-.4.4-.7.9-1,1.4-.2.5-.3,1.1-.3,1.7s.1,1.2.3,1.7c.2.5.5,1,1,1.4l13.2,13.2c.4.4.9.7,1.4,1,.5.2,1.1.3,1.7.3s1.2-.1,1.7-.3c.5-.2,1-.5,1.4-1,.4-.4.7-.9,1-1.4s.3-1.1.3-1.7-.1-1.2-.3-1.7c-.2-.5-.5-1-1-1.4l-5.7-5.7h24.6c1.2,0,2.3-.5,3.1-1.3.8-.8,1.3-1.9,1.3-3.1s-.5-2.3-1.3-3.1c-.8-.8-1.9-1.3-3.1-1.3h-24.6Z"/>
        </g>
      </g>
    </g>
  </g>
</svg>