<?xml version="1.0" encoding="UTF-8"?>
<svg xmlns="http://www.w3.org/2000/svg" version="1.1" viewBox="0 0 512 512">
  <defs>
    <style>
      .cls-1 {
        fill: #40c1fa;
      }

      .cls-2 {
        fill: #f77026;
      }

      .cls-3 {
        fill: #6a61b4;
      }

      .cls-4 {
        fill: #bc3f2a;
      }

      .cls-5 {
        fill: #ff9100;
      }

      .cls-6 {
        fill: #c1bde0;
      }

      .cls-7 {
        fill: #453d83;
      }

      .cls-8 {
        fill: #ffc14f;
      }

      .cls-9 {
        fill: #958fca;
      }

      .cls-10 {
        fill: #ffcd71;
      }

      .cls-11 {
        fill: #07a9f0;
      }

      .cls-12 {
        fill: #8078bf;
      }

      .cls-13 {
        fill: #0691ce;
      }

      .cls-14 {
        fill: #ffd399;
      }

      .cls-15 {
        fill: #ea552d;
      }

      .cls-16 {
        fill: #aba6d5;
      }

      .cls-17 {
        fill: #72d1fb;
      }

      .cls-18 {
        fill: #d1462a;
      }

      .cls-19 {
        fill: #ffa90b;
      }

      .cls-20 {
        fill: #ffe7c0;
      }
    </style>
  </defs>
  <!-- Generator: Adobe Illustrator 28.7.1, SVG Export Plug-In . SVG Version: 1.2.0 Build 142)  -->
  <g>
    <g id="Capa_1">
      <g>
        <path class="cls-12" d="M434.1,439.9c-22.6,21.9-53,34.1-84.5,34.1h-213.7c-9.6,0-19.1-2.9-27-8.5C43,419.2,0,342.6,0,256,0,114.8,114.4.3,255.5,0c140.9-.3,256.2,114.5,256.5,255.4.2,72.4-29.7,137.8-77.9,184.4Z"/>
        <path class="cls-3" d="M423,269c0,107.1-86.9,194-194,194S35,376.1,35,269,121.9,75,229,75s194,86.9,194,194Z"/>
        <path class="cls-15" d="M434.4,439.6c-42.8,41.6-100,68.4-163.5,72h-29.8c-49.4-2.8-95.1-19.7-133.1-46.7v-10.3c0-8.3,6.7-15,15-15h311.4Z"/>
        <path class="cls-18" d="M375,483.1c-31.4,16.5-66.7,26.7-104.1,28.9h-29.8c-21.2-1.2-41.6-5-61.1-11v-61h195v43.1Z"/>
        <path class="cls-4" d="M374,440v43.2c-9.7,5-19.7,9.5-30,13.2v-56.5h30ZM180,500.5c9.8,3,19.8,5.5,30,7.3v-67.9h-30v60.5Z"/>
        <path class="cls-16" d="M272.4,102.2c0,32.2-26.1,58.2-58.2,58.2s-58.2-26.1-58.2-58.2,26.1-58.2,58.2-58.2,58.2,26.1,58.2,58.2ZM359.5,44c-32.2,0-58.2,26.1-58.2,58.2s26.1,58.2,58.2,58.2,58.2-26.1,58.2-58.2-26.1-58.2-58.2-58.2Z"/>
        <path class="cls-9" d="M243.1,131.4c8.6,0,16.7-1.9,24-5.2-9.2,20.2-29.5,34.2-53,34.2s-58.2-26.1-58.2-58.2,14-43.9,34.2-53c-3.3,7.3-5.2,15.5-5.2,24,0,32.2,26.1,58.2,58.2,58.2ZM388.5,131.4c-32.2,0-58.2-26.1-58.2-58.2s1.9-16.7,5.2-24c-20.2,9.2-34.2,29.5-34.2,53s26.1,58.2,58.2,58.2,43.9-14,53-34.2c-7.3,3.3-15.5,5.2-24,5.2Z"/>
        <path class="cls-10" d="M120.6,116.8c.4,1.5-1,2.9-2.5,2.5l-17.6-5.2c-.4-.1-.8-.1-1.1,0l-17.6,5.2c-1.5.4-2.9-1-2.5-2.5l5.2-17.6c.1-.4.1-.8,0-1.1l-5.2-17.6c-.4-1.5,1-2.9,2.5-2.5l17.6,5.2c.4.1.8.1,1.1,0l17.6-5.2c1.5-.4,2.9,1,2.5,2.5l-5.2,17.6c-.1.4-.1.8,0,1.1l5.2,17.6Z"/>
        <path class="cls-1" d="M380,314.6v42c0,8.3-6.7,15-15,15H75c-8.3,0-15-6.7-15-15v-42c0-8.3,6.7-15,15-15h290c8.3,0,15,6.7,15,15Z"/>
        <path class="cls-17" d="M380,315v42c0,8.3-6.7,15-15,15h-218c-8.3,0-15-6.7-15-15v-42c0-8.3,6.7-15,15-15h218c8.3,0,15,6.7,15,15Z"/>
        <path class="cls-11" d="M326,300v72h-142v-72h142Z"/>
        <path class="cls-13" d="M199,372h-26v-72h26v72ZM334,300h-26v72h26v-72Z"/>
        <path class="cls-19" d="M227.5,193.6c0,19.9-16.1,36-36,36h-96.5c-8.3,0-15-6.7-15-15v-42c0-8.3,6.7-15,15-15h96.5c19.9,0,36,16.1,36,36Z"/>
        <path class="cls-8" d="M438,172.6v42c0,8.3-6.7,15-15,15h-239.5c-19.9,0-36-16.1-36-36s16.1-36,36-36h20.6l10,9.1h122.4l7.9-9.1h78.6c8.3,0,15,6.7,15,15h0Z"/>
        <path class="cls-5" d="M328.5,157.6v72h-108.5v-72h108.5ZM131.9,157.6v72h-20v-72h20ZM398,157.6v72h-20v-72h20Z"/>
        <path class="cls-19" d="M224.1,157.6v72h-20v-72h20ZM344.4,157.6v72h-20v-72h20Z"/>
        <path class="cls-20" d="M103.8,369.6h320.5v72H103.8c-7,0-12.6-6.7-12.6-15v-42c0-8.3,5.6-15,12.6-15ZM180.9,229.6c-16.7,0-30.2,16.1-30.2,36s13.5,36,30.2,36h273.5c-5-23.6-5-48.4,0-72H180.9Z"/>
        <path class="cls-7" d="M359.5,39c-28.7,0-53.1,19.3-60.7,45.6h-23.9c-7.7-26.3-32-45.6-60.7-45.6s-63.2,28.4-63.2,63.2,0,1.6,0,2.3h-19.2c-30.3,0-55,24.7-55,55s2.2,5,5,5,5-2.2,5-5c0-24.8,20.2-45,45-45h20c.1,0,.2,0,.3,0,.9,4.7,2.4,9.2,4.3,13.4-23.1,2.7-40.2,16.5-40.2,33.7s2.2,5,5,5,5-2.2,5-5c0-12.5,16-23.2,35.6-24.1,11.4,16.8,30.6,27.9,52.4,27.9s41.1-11.1,52.5-28h40.4c11.4,16.9,30.6,28,52.5,28,34.9,0,63.2-28.4,63.2-63.2s-28.4-63.2-63.2-63.2h0ZM359.5,49c29.3,0,53.2,23.9,53.2,53.2s-2.3,17.7-6.4,25.3h-93.7c-4.1-7.5-6.4-16.1-6.4-25.3,0-29.3,23.9-53.2,53.2-53.2ZM296.7,94.6c-.3,2.5-.5,5.1-.5,7.7s0,1.6,0,2.3h-19c0-.8,0-1.6,0-2.3,0-2.6-.2-5.1-.5-7.7h19.8ZM214.1,49c29.3,0,53.2,23.9,53.2,53.2s-2.3,17.7-6.4,25.3h-93.7c-4.1-7.5-6.4-16.1-6.4-25.3,0-29.3,23.9-53.2,53.2-53.2ZM214.1,155.4c-15.8,0-30.1-6.9-39.8-18h79.7c-9.8,11-24,18-39.8,18ZM272.1,127.5c1.8-4.1,3.2-8.4,4.1-12.9h21.3c.9,4.5,2.3,8.8,4.1,12.9h-29.4ZM359.5,155.4c-15.8,0-30.1-6.9-39.8-18h79.7c-9.8,11-24,18-39.8,18Z"/>
        <path class="cls-6" d="M240.4,72.9c9,9,12.6,19.9,8.1,24.4s-15.4.8-24.4-8.1-12.6-19.9-8.1-24.4c4.5-4.5,15.4-.8,24.4,8.1ZM363,64.7c-4.5,4.5-.9,15.4,8.1,24.4s19.9,12.6,24.4,8.1.9-15.4-8.1-24.4-19.9-12.6-24.4-8.1Z"/>
        <path class="cls-20" d="M103.5,143.2l4.5,9.7c.1.3.3.6.6.8l8.5,6.4c1.2.9,1,2.8-.4,3.4l-9.7,4.5c-.3.1-.6.3-.8.6l-6.4,8.5c-.9,1.2-2.8,1-3.4-.4l-4.5-9.7c-.1-.3-.3-.6-.6-.8l-8.5-6.4c-1.2-.9-1-2.8.4-3.4l9.7-4.5c.3-.1.6-.3.8-.6l6.4-8.5c.9-1.2,2.8-1,3.4.4ZM50.1,232.9l-6.4,8.5c-.2.3-.5.5-.8.6l-9.7,4.5c-1.4.6-1.6,2.5-.4,3.4l8.5,6.4c.3.2.5.5.6.8l4.5,9.7c.6,1.4,2.5,1.6,3.4.4l6.4-8.5c.2-.3.5-.5.8-.6l9.7-4.5c1.4-.6,1.6-2.5.4-3.4l-8.5-6.4c-.3-.2-.5-.5-.6-.8l-4.5-9.7c-.6-1.4-2.5-1.6-3.4-.4Z"/>
        <path class="cls-7" d="M466.8,343.5l-9.7,4.5c-.3.1-.6.3-.8.6l-6.4,8.5c-.9,1.2-2.8,1-3.4-.4l-4.5-9.7c-.1-.3-.3-.6-.6-.8l-8.5-6.4c-1.2-.9-1-2.8.4-3.4l9.7-4.5c.3-.1.6-.3.8-.6l6.4-8.5c.9-1.2,2.8-1,3.4.4l4.5,9.7c.1.3.3.6.6.8l8.5,6.4c1.2.9,1,2.8-.4,3.4Z"/>
        <path class="cls-14" d="M150.7,265.6c0-19.9,13.5-36,30.2-36h30.2c-9.9,0-18.7,5.7-24.2,14.4h90.8c2.3,0,4.2,2.2,4.2,5s-1.9,5-4.2,5h-95.2c-1,3.6-1.6,7.5-1.6,11.6s.7,8.9,2,12.9h94.8c2.3,0,4.2,2.2,4.2,5s-1.9,5-4.2,5h-89.9c5.5,8,13.9,13.1,23.3,13.1h-30.2c-16.7,0-30.2-16.1-30.2-36ZM418.4,261h-178.3c-2.3,0-4.2,2.2-4.2,5s1.9,5,4.2,5h178.3c2.3,0,4.2-2.2,4.2-5s-1.9-5-4.2-5ZM391,411.5h-101.1c-2.3,0-4.2,2.2-4.2,5s1.9,5,4.2,5h101.1c2.3,0,4.2-2.2,4.2-5s-1.9-5-4.2-5h0ZM223.2,411.5h-96.8v-12h161.9c2.3,0,4.2-2.2,4.2-5s-1.9-5-4.2-5H126.4v-4.5c0-8.3,5.6-15,12.6-15h-35.2c-7,0-12.6,6.7-12.6,15v42c0,8.3,5.6,15,12.6,15h35.2c-7,0-12.6-6.7-12.6-15v-5.5h96.8c2.3,0,4.2-2.2,4.2-5s-1.9-5-4.2-5Z"/>
        <path class="cls-7" d="M95.4,384.6v42c0,5.5,3.8,10,8.4,10h320.5c2.3,0,4.2,2.2,4.2,5s-1.9,5-4.2,5H103.8c-9.3,0-16.8-9-16.8-20v-42c0-11,7.5-20,16.8-20h320.5c2.3,0,4.2,2.2,4.2,5s-1.9,5-4.2,5H103.8c-4.6,0-8.4,4.5-8.4,10ZM454.4,296.6H180.9c-14.3,0-26-13.9-26-31s11.7-31,26-31h273.5c2.3,0,4.2-2.2,4.2-5s-1.9-5-4.2-5H180.9c-19,0-34.4,18.4-34.4,41s15.4,41,34.4,41h273.5c2.3,0,4.2-2.2,4.2-5s-1.9-5-4.2-5Z"/>
        <path class="cls-2" d="M244,311.8v-50.8h66.4v50.8c0,18.3-14.9,33.2-33.2,33.2s-33.2-14.9-33.2-33.2h0Z"/>
        <path class="cls-15" d="M310.4,291.7v107.4c0,1.6-1.8,2.6-3.1,1.6l-30.2-20.8-29.9,20.8c-1.3.9-3.1,0-3.1-1.6v-107.4c0,18.3,14.9,33.2,33.2,33.2s33.2-14.9,33.2-33.2h0Z"/>
      </g>
    </g>
  </g>
</svg>