<svg id="Capa_1" enable-background="new 0 0 512 512" height="512" viewBox="0 0 512 512" width="512" xmlns="http://www.w3.org/2000/svg"><g><g><g><g><g><g><g><circle cx="256" cy="256" fill="#7584f2" r="256"/></g></g></g></g></g></g><path d="m512 256c0-13.988-1.122-27.713-3.281-41.091l-120.013-120.014-12.221 27.809-52.719-52.719-2.476 24.454-41.72-42.894-59.753 25.455-96.522 356.533 70.974 70.974c19.771 4.896 40.447 7.493 61.731 7.493 141.385 0 256-114.615 256-256z" fill="#4253ce"/><g><path d="m123.294 94.895v338.638h132.692l11.228-179.829-10-158.809z" fill="#fff"/></g><g><path d="m255.986 94.895h132.72v338.638h-132.72z" fill="#e9edf5"/></g><g><path d="m256 85.081c-5.962 0-10.795-4.833-10.795-10.795s4.833-10.795 10.795-10.795c.411 0 .815.028 1.214.073l5.786-10.902-5.786-11.1c-.403-.015-.807-.028-1.214-.028-16.631 0-30.366 12.395-32.472 28.451h-35.292v51.639h68.978l5.786-17.497-5.786-19.118c-.399.044-.803.072-1.214.072z" fill="#ffce00"/></g><g><path d="m323.765 69.984h-35.292c-2.107-16.056-15.842-28.451-32.473-28.451-.005 0-.009 0-.014 0v21.958c.005 0 .009-.001.014-.001 5.962 0 10.795 4.833 10.795 10.795s-4.833 10.796-10.795 10.796c-.005 0-.009-.001-.014-.001v36.543h67.779z" fill="#fdba12"/></g><g><path d="m151.382 172.455h40.094v40.094h-40.094z" fill="#e9edf5"/></g><g><path d="m213.218 186.994v25.555h43.996l4.786-12.778-4.786-12.777z" fill="#afb4c8"/></g><g><path d="m255.986 186.994h101.42v25.555h-101.42z" fill="#7e8596"/></g><g><path d="m213.218 264.382v25.555h43.996l8.321-12.778-8.321-12.777z" fill="#afb4c8"/></g><g><path d="m255.986 264.382h101.42v25.555h-101.42z" fill="#7e8596"/></g><g><path d="m213.218 341.77v25.555h43.996l2.744-12.777-2.744-12.778z" fill="#afb4c8"/></g><g><path d="m255.986 341.77h101.42v25.555h-101.42z" fill="#7e8596"/></g><g><path d="m151.382 249.843h40.094v40.094h-40.094z" fill="#e9edf5"/></g><g><path d="m151.382 327.231h40.094v40.094h-40.094z" fill="#e9edf5"/></g><g><path d="m170.932 220.985-35.429-35.43 21.213-21.213 14.216 14.216 41.805-41.805 21.213 21.214z" fill="#ff6c52"/></g></g></svg>