<?xml version="1.0" encoding="UTF-8"?>
<svg id="Layer_2" xmlns="http://www.w3.org/2000/svg" xmlns:xlink="http://www.w3.org/1999/xlink" viewBox="0 0 152.49 127.58">
  <defs>
    <style>
      .cls-1 {
        fill: none;
      }

      .cls-2 {
        fill: #fff;
      }

      .cls-3 {
        clip-path: url(#clippath);
      }
    </style>
    <clipPath id="clippath">
      <rect class="cls-1" width="152.49" height="127.58"/>
    </clipPath>
  </defs>
  <g id="Capa_1">
    <g class="cls-3">
      <path class="cls-2" d="M76.24,37.57l-39.42,32.5s-.01.11-.03.21c-.02.09-.03.16-.03.2v32.91c0,1.19.43,2.22,1.3,3.08.87.87,1.9,1.3,3.08,1.3h26.33v-26.33h17.55v26.33h26.32c1.19,0,2.22-.44,3.09-1.31.87-.87,1.3-1.9,1.3-3.08v-32.91c0-.18-.02-.32-.07-.41l-39.42-32.5Z"/>
      <path class="cls-2" d="M130.75,62.66l-15.01-12.48v-27.97c0-.64-.21-1.16-.62-1.58-.41-.41-.94-.62-1.58-.62h-13.16c-.64,0-1.17.21-1.58.62-.41.41-.62.94-.62,1.58v13.37l-16.73-13.99c-1.46-1.19-3.2-1.78-5.21-1.78s-3.75.59-5.21,1.78L21.74,62.66c-.46.36-.71.86-.75,1.47-.05.62.11,1.16.48,1.61l4.25,5.07c.37.41.85.66,1.44.75.55.05,1.1-.11,1.65-.48l47.44-39.56,47.44,39.56c.37.32.85.48,1.44.48h.21c.59-.09,1.07-.34,1.44-.75l4.25-5.07c.37-.46.53-.99.48-1.61-.05-.61-.3-1.11-.75-1.47"/>
    </g>
  </g>
</svg>