<?xml version="1.0" encoding="UTF-8"?>
<svg id="Layer_2" xmlns="http://www.w3.org/2000/svg" xmlns:xlink="http://www.w3.org/1999/xlink" viewBox="0 0 165.21 169.15">
  <defs>
    <style>
      .cls-1 {
        fill: none;
      }

      .cls-2 {
        fill: #fff;
      }

      .cls-3 {
        clip-path: url(#clippath);
      }
    </style>
    <clipPath id="clippath">
      <rect class="cls-1" y="0" width="165.21" height="169.15"/>
    </clipPath>
  </defs>
  <g id="Capa_1">
    <g class="cls-3">
      <path class="cls-2" d="M142.73,61.53l-3.32,3.33c-.45.44-.89.83-1.33,1.19,3.83,8.57,5.98,18.05,5.98,28.03,0,38.04-30.94,68.98-68.98,68.98S6.09,132.12,6.09,94.08,37.03,25.1,75.07,25.1c7.92,0,15.53,1.36,22.62,3.83h0c.67-1.08,1.47-2.15,2.55-3.23l1.71-1.71c-8.35-3.2-17.4-4.97-26.87-4.97C33.62,19.02,0,52.62,0,94.08s33.62,75.07,75.07,75.07,75.07-33.61,75.07-75.07c0-11.66-2.66-22.7-7.4-32.54"/>
      <path class="cls-2" d="M121.16,70.72h-6.83c3.48,6.36,5.46,13.64,5.46,21.39,0,24.66-20.06,44.71-44.71,44.71s-44.71-20.06-44.71-44.71,20.06-44.71,44.71-44.71c6.93,0,13.5,1.58,19.36,4.41v-6.68c-5.97-2.46-12.5-3.83-19.36-3.83-28.06,0-50.81,22.75-50.81,50.81s22.75,50.81,50.81,50.81,50.81-22.75,50.81-50.81c0-7.64-1.7-14.89-4.72-21.39"/>
      <path class="cls-2" d="M164.74,25.08c-.47-.92-1.24-1.56-2-1.95-.76-.39-1.55-.57-2.35-.66l-14.49-1.45c-.29-.02-.76-.23-1.12-.6-.37-.36-.58-.83-.6-1.12l-1.45-14.49c-.11-1.06-.39-2.11-1.13-3.09-.37-.48-.87-.94-1.48-1.25-.6-.32-1.3-.48-1.96-.47-.85,0-1.6.24-2.23.56-.63.33-1.17.75-1.65,1.24l-29.25,29.24c-1.19,1.21-2.03,2.65-2.69,4.2-.63,1.56-1.06,3.18-1.07,4.87v16.7c0,1.14.3,2.21.78,3.17l-12.59,12.96c-4.08-3.07-9.13-4.92-14.63-4.92-13.45,0-24.35,10.9-24.35,24.34s10.9,24.34,24.35,24.34,24.35-10.9,24.35-24.34c0-5.75-2.01-11.03-5.35-15.19l13.04-13.42c.49.1.98.16,1.5.17h16.71c1.69-.01,3.32-.44,4.87-1.07,1.55-.65,3-1.5,4.21-2.68l29.24-29.23c.48-.49.9-1.02,1.24-1.65.33-.63.57-1.38.57-2.23,0-.66-.16-1.36-.47-1.96M74.83,110.62c-10.07,0-18.27-8.19-18.27-18.25s8.19-18.26,18.27-18.26c3.84,0,7.41,1.2,10.35,3.23l-12.53,12.9c-1.17,1.2-1.14,3.13.06,4.3,1.21,1.17,3.14,1.14,4.31-.06l12.53-12.89c2.22,3.02,3.55,6.74,3.55,10.77,0,10.07-8.19,18.26-18.26,18.26M107.36,54.52v-14.4c-.01-.54.21-1.59.61-2.54.39-.96.97-1.86,1.36-2.23l27.58-27.56,1.21,12.14c.08.82.32,1.58.63,2.28l-31.4,32.32ZM129.86,55.85c-.38.39-1.27.97-2.23,1.36-.96.41-2.01.63-2.54.61h-12.46l30.46-31.35c.69.3,1.42.52,2.21.6l12.14,1.21-27.57,27.56Z"/>
    </g>
  </g>
</svg>