<?xml version="1.0" encoding="UTF-8"?>
<svg id="Layer_2" xmlns="http://www.w3.org/2000/svg" xmlns:xlink="http://www.w3.org/1999/xlink" viewBox="0 0 169.8 169.91">
  <defs>
    <style>
      .cls-1 {
        fill: none;
      }

      .cls-2 {
        clip-path: url(#clippath-1);
      }

      .cls-3 {
        fill: #fff;
      }

      .cls-4 {
        clip-path: url(#clippath);
      }
    </style>
    <clipPath id="clippath">
      <rect class="cls-1" y="0" width="169.8" height="169.91"/>
    </clipPath>
    <clipPath id="clippath-1">
      <rect class="cls-1" y="0" width="169.8" height="169.91"/>
    </clipPath>
  </defs>
  <g id="Capa_1">
    <g class="cls-4">
      <path class="cls-3" d="M167.38,44.65h0s-10.96-1.57-10.96-1.57c-1.54-.22-2.61-1.65-2.39-3.19.1-.74.5-1.41,1.1-1.86l8.86-6.65c1.24-.93,1.5-2.7.56-3.95l-10.14-13.53c-.93-1.24-2.7-1.5-3.94-.56l-8.86,6.65c-1.24.94-3.01.7-3.95-.54-.46-.6-.65-1.36-.54-2.11l1.57-10.97c.22-1.54-.85-2.97-2.39-3.19h0l-16.72-2.39c-1.54-.22-2.97.85-3.19,2.39h0s-1.57,10.97-1.57,10.97c-.22,1.54-1.65,2.61-3.19,2.39-.74-.1-1.41-.5-1.86-1.1l-6.64-8.86c-.93-1.25-2.7-1.5-3.94-.56l-8.47,6.36c-3.83-.41-7.69-.41-11.52,0-25.08,2.87-44.76,22.88-47.2,48.03-.08.8-.1,1.59-.14,2.38h-.85c-1.34,0-2.49.94-2.76,2.25l-1.95,9.26-7.8-5.38c-1.12-.77-2.63-.64-3.59.33l-8.45,8.46c-.96.96-1.1,2.47-.33,3.59l5.35,7.79-9.26,1.95C.92,91.32,0,92.47,0,93.79v11.28c0,1.33.93,2.49,2.24,2.76l9.26,1.95-5.35,7.79c-.77,1.12-.63,2.63.33,3.59l8.45,8.46c.96.96,2.47,1.1,3.59.33l7.78-5.37,1.95,9.27c.27,1.31,1.42,2.25,2.76,2.25h11.27c1.33,0,2.48-.93,2.76-2.24l1.95-9.27,7.78,5.36c1.12.77,2.63.63,3.59-.33l4.38-4.39v8.03c.01,4.01,2.16,7.71,5.64,9.71v15.66c0,6.23,5.05,11.28,11.27,11.28h11.27c6.22,0,11.27-5.05,11.27-11.28v-15.66c3.48-2,5.62-5.7,5.64-9.71v-11.16c.08-4.69,2.53-9.03,6.52-11.51,2.34-1.52,4.56-3.22,6.63-5.07l-3.76-4.2c-1.86,1.67-3.84,3.18-5.94,4.54-5.59,3.51-9.02,9.63-9.09,16.24v11.16c0,3.11-2.52,5.64-5.64,5.64h-22.54c-3.11,0-5.63-2.52-5.63-5.64v-11.39c-.07-6.48-3.44-12.48-8.94-15.91-22.33-14.04-29.06-43.53-15.03-65.88,8.71-13.86,23.9-22.3,40.26-22.36-.04.1-.08.2-.11.31-.1.74.09,1.49.54,2.09l6.64,8.86c.7.91.77,2.15.17,3.13-.58.98-1.69,1.52-2.82,1.36l-10.96-1.57c-1.54-.22-2.97.85-3.19,2.39h0s-2.39,16.75-2.39,16.75c-.22,1.54.85,2.97,2.39,3.19h0l10.96,1.57c1.54.22,2.61,1.65,2.39,3.19-.1.74-.5,1.41-1.1,1.86l-8.86,6.64c-1.24.93-1.5,2.7-.56,3.95l10.14,13.53c.93,1.25,2.7,1.5,3.94.56l8.86-6.64c1.25-.93,3.01-.68,3.94.57.45.6.64,1.35.53,2.08l-1.56,10.97c-.22,1.54.85,2.97,2.39,3.19h0l16.74,2.39c.13.02.26.02.4.02,1.4,0,2.59-1.03,2.79-2.42l1.56-10.97c.22-1.54,1.65-2.61,3.19-2.39.74.11,1.41.5,1.86,1.1l6.64,8.86c.93,1.25,2.7,1.5,3.95.56l13.52-10.15c1.24-.93,1.5-2.7.56-3.95l-6.64-8.86c-.7-.91-.76-2.15-.17-3.13.56-1,1.69-1.54,2.82-1.35l10.96,1.57c1.54.22,2.97-.85,3.19-2.39h0s2.39-16.75,2.39-16.75c.22-1.54-.85-2.97-2.39-3.19M74,144.54h22.54v5.64h-22.54v-5.64ZM74,155.81h22.54v2.82c0,3.11-2.52,5.64-5.63,5.64h-11.27c-3.11,0-5.64-2.52-5.64-5.64v-2.82ZM51.57,107.2c1.54,1.26,3.15,2.43,4.82,3.51,2.66,1.68,4.67,4.23,5.68,7.21l-6.04,6.04-5.85-4.04c-2.56-1.77-6.07-1.12-7.84,1.44-.42.61-.72,1.31-.87,2.04l-1.48,7.04h-6.7l-1.48-7.03c-.64-3.05-3.63-5-6.68-4.36-.73.15-1.42.45-2.04.88l-5.86,4.02-5.13-5.12,4.03-5.85c1.77-2.56,1.12-6.07-1.44-7.84-.61-.43-1.31-.72-2.04-.88l-7.02-1.48v-6.7l7.02-1.48c3.04-.65,4.99-3.64,4.34-6.68-.15-.72-.45-1.41-.86-2.02l-4.04-5.87,5.13-5.12,5.86,4.04c2.56,1.76,6.07,1.12,7.84-1.45.42-.61.72-1.31.87-2.04l.49-2.35c.45,3.25,1.2,6.45,2.23,9.56-9.27,1.11-15.89,9.52-14.79,18.8,1.11,9.28,9.52,15.9,18.79,14.79,5.58-.67,10.47-4.06,13.03-9.06M47.19,103.23c-2.1,5.85-8.55,8.89-14.4,6.78-5.85-2.1-8.88-8.55-6.78-14.41,1.61-4.48,5.86-7.46,10.61-7.45h.11c2.59,5.59,6.13,10.69,10.46,15.07M162.19,60.99l-8.17-1.17c-4.62-.66-8.9,2.55-9.56,7.18-.32,2.22.26,4.48,1.61,6.27l4.95,6.61-9.02,6.77-4.95-6.6c-2.8-3.74-8.1-4.5-11.83-1.69-1.79,1.35-2.98,3.35-3.3,5.57l-1.14,8.19-11.15-1.6,1.17-8.17c.66-4.62-2.55-8.91-7.17-9.57-2.22-.32-4.48.26-6.27,1.61l-6.6,4.95-6.76-9.02,6.6-4.96c3.74-2.8,4.49-8.1,1.69-11.84-1.35-1.79-3.35-2.98-5.57-3.3l-8.17-1.17,1.59-11.16,8.17,1.17c4.62.66,8.9-2.55,9.57-7.17.32-2.22-.26-4.48-1.61-6.27l-4.97-6.61,9.02-6.76,4.95,6.61c2.8,3.74,8.1,4.49,11.83,1.69,1.79-1.35,2.98-3.35,3.3-5.57l1.17-8.17,11.15,1.59-1.17,8.18c-.66,4.62,2.55,8.91,7.17,9.57,2.22.32,4.47-.26,6.27-1.61l6.6-4.95,6.76,9.02-6.6,4.96c-3.74,2.8-4.49,8.1-1.69,11.84,1.35,1.79,3.35,2.98,5.57,3.3l8.17,1.17-1.6,11.16Z"/>
      <path class="cls-3" d="M120.96,26.99c-12.49,0-22.62,9.98-22.62,22.29s10.13,22.29,22.62,22.29,22.62-9.98,22.62-22.29c-.01-12.3-10.13-22.28-22.62-22.29M120.96,65.99c-9.37,0-16.96-7.49-16.96-16.72s7.6-16.72,16.96-16.72,16.96,7.49,16.96,16.72c-.01,9.23-7.6,16.71-16.96,16.72"/>
    </g>
    <rect class="cls-3" x="81.95" y="124.67" width="5.9" height="8.52"/>
    <g class="cls-2">
      <path class="cls-3" d="M72.59,96.83c-17.53-6.77-26.19-26.29-19.34-43.61,2.65-6.71,7.42-12.4,13.59-16.24l-3.04-4.75c-18.57,11.56-24.15,35.82-12.44,54.17,4.53,7.11,11.25,12.59,19.17,15.65,7.01,2.65,11.64,9.3,11.64,16.72h5.68c0-9.73-6.06-18.46-15.26-21.94"/>
    </g>
    <rect class="cls-3" x="138.33" y="105" width="19.67" height="5.24"/>
    <rect class="cls-3" x="141.31" y="117.88" width="5.63" height="22" transform="translate(-47.14 157.14) rotate(-50.21)"/>
    <rect class="cls-3" x="121.29" y="127.29" width="5.9" height="19.67"/>
    <rect class="cls-3" x="2.92" y="45.78" width="23.23" height="5.63" transform="translate(-11.35 4.98) rotate(-14.03)"/>
    <rect class="cls-3" x="15.95" y="12.53" width="5.63" height="24.23" transform="translate(-12.2 25.59) rotate(-54.47)"/>
    <rect class="cls-3" x="34.2" y=".34" width="5.63" height="23.26" transform="translate(-1.81 9.54) rotate(-14.35)"/>
  </g>
</svg>