<?xml version="1.0" encoding="UTF-8"?>
<svg id="Layer_2" xmlns="http://www.w3.org/2000/svg" xmlns:xlink="http://www.w3.org/1999/xlink" viewBox="0 0 156.69 165.21">
  <defs>
    <style>
      .cls-1 {
        fill: none;
      }

      .cls-2 {
        fill: #fff;
      }

      .cls-3 {
        clip-path: url(#clippath);
      }
    </style>
    <clipPath id="clippath">
      <rect class="cls-1" width="156.69" height="165.21"/>
    </clipPath>
  </defs>
  <g id="Capa_1">
    <g class="cls-3">
      <path class="cls-2" d="M136.26,20.39C123.09,7.26,105.6,0,86.98,0s-36.11,7.26-49.28,20.39c-13.04,13.03-20.27,30.29-20.4,48.68L.26,94.43c-.58,1.13-.16,2.52.94,3.16l16.1,7.06v37.42c0,1.32,1.1,2.42,2.42,2.42h23.43v18.26c0,1.32,1.1,2.42,2.42,2.42s2.42-1.1,2.42-2.42v-20.68c0-1.32-1.1-2.42-2.42-2.42h-23.43v-36.36c0-.84-.45-1.65-1.16-2.07l-15.36-6.61,16.3-23.84c.16-.32.26-.71.26-1.1C22.18,33.94,51.25,4.87,87.01,4.87s64.84,31.03,64.84,64.81c0,19.68-9.1,38.71-24.95,51.1-.58.45-.94,1.16-.94,1.9v40.1c0,1.32,1.1,2.42,2.42,2.42s2.42-1.1,2.42-2.42v-38.94c16.46-13.29,25.88-32.97,25.88-54.17s-7.26-36.1-20.4-49.26l-.03-.03Z"/>
      <path class="cls-2" d="M86.87,28.19c-8.48,0-15.41,6.93-15.41,15.41s6.93,15.41,15.41,15.41,15.41-6.93,15.41-15.41-6.93-15.41-15.41-15.41M86.87,54.12c-5.83,0-10.55-4.73-10.55-10.55s4.73-10.55,10.55-10.55,10.55,4.73,10.55,10.55-4.73,10.55-10.55,10.55"/>
      <path class="cls-2" d="M86.87,15.08c-1.29,0-2.29,1.15-2.29,2.54v5.41c0,1.42,1.04,2.54,2.29,2.54s2.29-1.15,2.29-2.54v-5.41c0-1.42-1.04-2.54-2.29-2.54"/>
      <path class="cls-2" d="M78.4,24.61l-2.52-4.4c-.66-1.14-2.11-1.52-3.24-.89-1.13.67-1.51,2.12-.88,3.26l2.51,4.4c.44.76,1.23,1.2,2.04,1.2,1.79,0,2.92-2.03,2.04-3.58h.03Z"/>
      <path class="cls-2" d="M70.2,31.26l-4.73-2.73c-1.23-.72-2.79-.27-3.5.95-.71,1.23-.27,2.8.95,3.51l4.73,2.73c1.29.75,3.03.17,3.61-1.19.51-1.19.03-2.59-1.06-3.24v-.03Z"/>
      <path class="cls-2" d="M65.8,41.3h-5.08c-1.33,0-2.38,1.04-2.38,2.29s1.08,2.29,2.38,2.29h5.08c1.3,0,2.38-1.04,2.38-2.29s-1.08-2.29-2.38-2.29"/>
      <path class="cls-2" d="M71.13,52.98c-.71-1.13-2.28-1.51-3.51-.88l-4.73,2.51c-1.12.6-1.57,1.92-1.06,2.99.61,1.26,2.31,1.79,3.61,1.1l4.73-2.52c1.23-.66,1.63-2.11.95-3.24v.03Z"/>
      <path class="cls-2" d="M77.51,59.35c-1.13-.71-2.57-.27-3.23.95l-2.51,4.73c-.6,1.12-.31,2.58.63,3.33,1.13.88,2.76.51,3.45-.78l2.51-4.73c.66-1.22.25-2.79-.85-3.5"/>
      <path class="cls-2" d="M86.87,62.28c-1.29,0-2.29,1.08-2.29,2.38v5.08c0,1.3,1.04,2.38,2.29,2.38s2.29-1.08,2.29-2.38v-5.08c0-1.3-1.04-2.38-2.29-2.38"/>
      <path class="cls-2" d="M101.97,65.02l-2.74-4.73c-.72-1.23-2.3-1.63-3.53-.95-1.23.71-1.64,2.28-.96,3.51l2.74,4.73c.75,1.29,2.54,1.67,3.77.78,1.03-.75,1.34-2.21.69-3.34h.03Z"/>
      <path class="cls-2" d="M110.28,54.61l-4.41-2.5c-1.14-.66-2.6-.25-3.27.88s-.25,2.56.89,3.22l4.41,2.5c1.21.69,2.83.16,3.36-1.09.48-1.09.03-2.38-.98-2.97v-.03Z"/>
      <path class="cls-2" d="M112.35,41.3h-5.08c-1.33,0-2.38,1.04-2.38,2.29s1.08,2.29,2.38,2.29h5.08c1.33,0,2.38-1.04,2.38-2.29s-1.08-2.29-2.38-2.29"/>
      <path class="cls-2" d="M111.15,29.37c-.67-1.13-2.13-1.51-3.27-.88l-4.42,2.51c-1.05.6-1.46,1.92-.99,2.99.57,1.26,2.16,1.79,3.37,1.1l4.42-2.52c1.14-.66,1.53-2.11.89-3.24v.03Z"/>
      <path class="cls-2" d="M101.01,19.33c-1.23-.66-2.81-.25-3.53.89l-2.74,4.4c-.96,1.55.27,3.58,2.23,3.58s1.75-.41,2.22-1.2l2.74-4.4c.72-1.14.27-2.59-.96-3.26h.03Z"/>
      <path class="cls-2" d="M133.77,104.38l-15.12-15.28c-8.39-8.49-21.74-9.04-30.78-1.62l-11.13-11.25c-2.93-2.96-7.78-2.96-10.71,0-2.93,2.96-1.19,1.46-1.58,2.31l-4.12-4.16c-2.96-2.99-7.75-2.99-10.71,0-2.96,2.99-1.19,1.46-1.58,2.31l-2.28-2.31c-2.96-2.99-7.75-2.99-10.71,0-2.93,2.96-2.93,7.87,0,10.83l2.22,2.24c-.74.32-1.42.75-2.06,1.33-3.15,2.89-3.28,8.03-.26,11.09l3.76,3.81,9.1,9.2,7.3,7.38c.45.46,1.06.72,1.71.72h32.81c.16,0,.32,0,.48-.03l16.95-3.42,6.91,6.99c1,1.01,2.64.94,3.54-.13.8-.94.74-2.44-.13-3.32l-7.82-7.9c-.58-.59-1.38-.81-2.19-.68l-18.01,3.64h-31.58l-6.59-6.67-9.1-9.2-3.76-3.81c-1.13-1.14-1.03-3.12.23-4.13,1.13-.88,2.77-.68,3.73.32l10.84,10.96.26.26c.29,3.93,3.54,7.06,7.49,7.09l19.49.16c1.32,0,2.41-1.07,2.41-2.44s-1.06-2.44-2.41-2.47l-19.49-.16c-1.51,0-2.73-1.27-2.73-2.8s1.22-2.76,2.73-2.76l18.94.13c.8.19,1.67,0,2.28-.65l7.3-7.38c7.11-7.19,18.65-7.19,25.76,0l15.12,15.28c1,1.01,2.64.94,3.54-.13.8-.94.74-2.44-.13-3.32h.07v-.03ZM55.04,98.46l-16.56-16.75c-1.06-1.07-1.06-2.86,0-3.9,1.06-1.07,2.8-1.07,3.86,0l17.59,17.79c-1.99.29-3.73,1.33-4.92,2.86h.03ZM66.75,95.56c-.03-.06-.1-.1-.13-.16l-13.57-13.72c-1.06-1.07-1.06-2.86,0-3.9,1.06-1.07,2.8-1.07,3.86,0l9.1,9.2,8.52,8.62-7.81-.06.03.03ZM80.51,94.72l-11.06-11.19c-.51-.52-.8-1.2-.8-1.95,0-2.41,2.99-3.67,4.66-1.95l11.06,11.19-3.86,3.9Z"/>
    </g>
  </g>
</svg>