<?xml version="1.0" encoding="UTF-8"?>
<svg id="Layer_2" xmlns="http://www.w3.org/2000/svg" xmlns:xlink="http://www.w3.org/1999/xlink" viewBox="0 0 169.15 169.15">
  <defs>
    <style>
      .cls-1 {
        fill: none;
      }

      .cls-2 {
        fill: #fff;
      }

      .cls-3 {
        clip-path: url(#clippath);
      }
    </style>
    <clipPath id="clippath">
      <rect class="cls-1" width="169.15" height="169.15"/>
    </clipPath>
  </defs>
  <g id="Capa_1">
    <g class="cls-3">
      <path class="cls-2" d="M168.86,103.14h.03s-27.77-60.6-27.77-60.6l6.74-3.35-2.52-5.05-6.57,3.27-.89-1.94c-.65-1.42-2.32-2.04-3.74-1.39-.61.28-1.11.77-1.39,1.39l-.79,1.73c-4.78-2.22-9.98-3.37-15.25-3.38h-23.68v-5.64h5.64v-5.64h-4.85l2.03-8.11c1.56-6.23-2.23-12.54-8.46-14.09-6.23-1.56-12.54,2.23-14.1,8.46-.46,1.85-.46,3.79,0,5.63l2.03,8.11h-4.85v5.64h5.64v5.64h-23.67c-5.27,0-10.48,1.16-15.27,3.38l-.79-1.73c-.65-1.41-2.32-2.04-3.74-1.39-.61.28-1.11.77-1.39,1.39l-.89,1.94-6.57-3.28-2.52,5.05,6.73,3.37L.26,103.13c-.17.37-.26.77-.26,1.18.01,10.89,8.84,19.72,19.73,19.73h28.19c10.89-.01,19.72-8.84,19.73-19.73,0-.4-.1-.8-.28-1.17l-27.85-60.82c4.05-1.88,8.46-2.85,12.92-2.85h23.67v103.14l-9.62,9.62h-10.11c-7.78,0-14.09,6.32-14.1,14.1,0,1.56,1.26,2.82,2.82,2.82h78.93c1.56,0,2.82-1.26,2.82-2.82,0-7.78-6.31-14.09-14.09-14.1h-10.11l-9.62-9.62V39.47h23.68c4.46,0,8.87.97,12.92,2.85l-27.89,60.81c-.17.37-.26.77-.26,1.18.01,10.89,8.84,19.72,19.73,19.73h28.19c10.89-.01,19.72-8.84,19.73-19.73,0-.4-.1-.8-.28-1.17M47.92,118.4h-28.19c-6.7,0-12.46-4.72-13.81-11.28h55.82c-1.35,6.56-7.12,11.27-13.81,11.28M60.45,101.49H7.21l25.9-56.5c.47.13.97.13,1.44,0l25.9,56.5ZM79.86,7.94c2.2-2.61,6.09-2.94,8.69-.74.27.23.51.47.74.74,1.14,1.45,1.54,3.35,1.09,5.14l-2.37,9.48h-6.87l-2.37-9.48c-.45-1.79-.05-3.69,1.09-5.14M81.75,28.19h5.64v5.64h-5.64v-5.64ZM87.39,140.95h-5.64V39.47h5.64v101.49ZM112.76,157.87c3.58,0,6.78,2.26,7.97,5.64H48.41c1.2-3.38,4.39-5.63,7.98-5.64h56.38ZM94.68,152.23h-20.22l5.64-5.64h8.94l5.64,5.64ZM134.59,45c.47.16.98.14,1.43-.06l25.92,56.55h-53.24l25.89-56.49ZM149.41,118.4h-28.19c-6.7,0-12.47-4.72-13.81-11.28h55.82c-1.35,6.56-7.12,11.27-13.81,11.28"/>
    </g>
  </g>
</svg>