<?xml version="1.0" standalone="no"?><!DOCTYPE svg PUBLIC "-//W3C//DTD SVG 1.1//EN" "http://www.w3.org/Graphics/SVG/1.1/DTD/svg11.dtd"><svg xmlns="http://www.w3.org/2000/svg" version="1.1" width="400.1px" height="39.1px" viewBox="0 -8 400.1 39.1" style="top:-8px">  <desc>Response Times</desc>  <defs/>  <g id="Polygon8832">    <path d="M 1.9 17.5 L 1.9 0.3 C 1.9 0.3 9.5 0.29 9.5 0.3 C 11 0.3 12.2 0.4 13 0.8 C 13.8 1.1 14.4 1.6 14.9 2.4 C 15.4 3.2 15.6 4 15.6 5 C 15.6 6.2 15.2 7.2 14.4 8.1 C 13.6 8.9 12.4 9.4 10.8 9.7 C 11.4 9.9 11.8 10.2 12.2 10.5 C 12.8 11.1 13.4 11.9 14 12.8 C 14.04 12.8 17 17.5 17 17.5 L 14.2 17.5 C 14.2 17.5 11.89 13.9 11.9 13.9 C 11.2 12.9 10.7 12.1 10.3 11.5 C 9.8 11 9.4 10.6 9.1 10.4 C 8.8 10.2 8.4 10 8.1 9.9 C 7.8 9.9 7.4 9.8 6.8 9.8 C 6.8 9.84 4.2 9.8 4.2 9.8 L 4.2 17.5 L 1.9 17.5 Z M 4.2 7.9 C 4.2 7.9 9.05 7.87 9 7.9 C 10.1 7.9 10.9 7.8 11.5 7.6 C 12.1 7.3 12.5 7 12.8 6.5 C 13.1 6 13.3 5.5 13.3 5 C 13.3 4.2 13 3.5 12.4 3 C 11.8 2.5 10.9 2.2 9.6 2.2 C 9.6 2.19 4.2 2.2 4.2 2.2 L 4.2 7.9 Z M 27.4 13.5 C 27.4 13.5 29.6 13.7 29.6 13.7 C 29.3 15 28.6 16 27.7 16.7 C 26.8 17.4 25.6 17.8 24.1 17.8 C 22.3 17.8 20.9 17.2 19.8 16.1 C 18.7 15 18.2 13.4 18.2 11.4 C 18.2 9.3 18.8 7.6 19.8 6.5 C 20.9 5.3 22.3 4.7 24 4.7 C 25.7 4.7 27 5.3 28.1 6.4 C 29.2 7.6 29.7 9.2 29.7 11.2 C 29.7 11.4 29.7 11.5 29.7 11.8 C 29.7 11.8 20.4 11.8 20.4 11.8 C 20.5 13.2 20.9 14.2 21.6 14.9 C 22.2 15.7 23.1 16 24.2 16 C 24.9 16 25.6 15.8 26.1 15.4 C 26.7 15 27.1 14.4 27.4 13.5 Z M 20.5 10.1 C 20.5 10.1 27.5 10.1 27.5 10.1 C 27.4 9 27.1 8.2 26.7 7.7 C 26 6.9 25.1 6.5 24 6.5 C 23.1 6.5 22.3 6.8 21.6 7.5 C 20.9 8.1 20.6 9 20.5 10.1 Z M 31.4 13.8 C 31.4 13.8 33.5 13.4 33.5 13.4 C 33.6 14.3 33.9 14.9 34.5 15.4 C 35 15.8 35.8 16 36.7 16 C 37.7 16 38.4 15.8 38.9 15.4 C 39.4 15 39.6 14.6 39.6 14 C 39.6 13.6 39.4 13.2 39 12.9 C 38.7 12.7 38 12.5 36.8 12.2 C 35.3 11.8 34.2 11.5 33.6 11.2 C 33 10.9 32.5 10.5 32.2 10 C 31.9 9.5 31.8 8.9 31.8 8.3 C 31.8 7.8 31.9 7.3 32.2 6.8 C 32.4 6.3 32.7 5.9 33.2 5.6 C 33.5 5.4 34 5.2 34.5 5 C 35.1 4.8 35.7 4.7 36.4 4.7 C 37.3 4.7 38.2 4.9 38.9 5.2 C 39.7 5.4 40.2 5.8 40.6 6.3 C 40.9 6.8 41.2 7.4 41.3 8.2 C 41.3 8.2 39.2 8.5 39.2 8.5 C 39.1 7.9 38.9 7.4 38.4 7 C 38 6.7 37.3 6.5 36.5 6.5 C 35.5 6.5 34.8 6.6 34.4 7 C 34 7.3 33.8 7.7 33.8 8.1 C 33.8 8.4 33.9 8.6 34.1 8.8 C 34.2 9.1 34.5 9.2 34.9 9.4 C 35.1 9.5 35.7 9.6 36.7 9.9 C 38.2 10.3 39.3 10.7 39.9 10.9 C 40.5 11.2 40.9 11.5 41.3 12 C 41.6 12.5 41.8 13.1 41.8 13.8 C 41.8 14.5 41.5 15.2 41.1 15.8 C 40.7 16.4 40.1 16.9 39.4 17.2 C 38.6 17.6 37.7 17.8 36.7 17.8 C 35.1 17.8 33.9 17.4 33 16.7 C 32.2 16.1 31.7 15.1 31.4 13.8 Z M 44.3 22.2 L 44.3 5 L 46.2 5 C 46.2 5 46.18 6.64 46.2 6.6 C 46.6 6 47.1 5.5 47.7 5.2 C 48.3 4.9 49 4.7 49.8 4.7 C 50.9 4.7 51.8 5 52.6 5.6 C 53.4 6.1 54 6.9 54.4 7.9 C 54.9 8.9 55.1 10 55.1 11.2 C 55.1 12.4 54.8 13.6 54.4 14.6 C 53.9 15.6 53.3 16.4 52.4 16.9 C 51.5 17.5 50.6 17.8 49.6 17.8 C 48.9 17.8 48.3 17.6 47.7 17.3 C 47.2 17 46.7 16.6 46.4 16.2 C 46.37 16.18 46.4 22.2 46.4 22.2 L 44.3 22.2 Z M 46.2 11.3 C 46.2 12.9 46.5 14.1 47.1 14.9 C 47.8 15.6 48.6 16 49.5 16 C 50.4 16 51.2 15.6 51.9 14.8 C 52.6 14 52.9 12.8 52.9 11.1 C 52.9 9.6 52.6 8.4 51.9 7.6 C 51.3 6.8 50.5 6.4 49.6 6.4 C 48.7 6.4 47.9 6.8 47.2 7.7 C 46.5 8.5 46.2 9.7 46.2 11.3 Z M 56.8 11.2 C 56.8 8.9 57.5 7.2 58.7 6.1 C 59.8 5.2 61.1 4.7 62.7 4.7 C 64.4 4.7 65.8 5.3 66.9 6.4 C 67.9 7.5 68.5 9.1 68.5 11.1 C 68.5 12.7 68.2 13.9 67.8 14.9 C 67.3 15.8 66.6 16.5 65.7 17 C 64.7 17.5 63.7 17.8 62.7 17.8 C 60.9 17.8 59.5 17.2 58.4 16.1 C 57.4 15 56.8 13.4 56.8 11.2 Z M 59 11.2 C 59 12.8 59.3 14 60 14.8 C 60.7 15.6 61.6 16 62.7 16 C 63.7 16 64.6 15.6 65.3 14.8 C 66 14 66.3 12.8 66.3 11.2 C 66.3 9.6 66 8.5 65.3 7.7 C 64.6 6.9 63.7 6.5 62.7 6.5 C 61.6 6.5 60.7 6.9 60 7.7 C 59.3 8.5 59 9.7 59 11.2 Z M 71 17.5 L 71 5 L 72.9 5 C 72.9 5 72.86 6.8 72.9 6.8 C 73.8 5.4 75.1 4.7 76.8 4.7 C 77.6 4.7 78.3 4.9 78.9 5.2 C 79.5 5.4 80 5.8 80.3 6.2 C 80.6 6.6 80.8 7.2 81 7.8 C 81 8.2 81.1 8.8 81.1 9.8 C 81.07 9.82 81.1 17.5 81.1 17.5 L 79 17.5 C 79 17.5 78.96 9.9 79 9.9 C 79 9 78.9 8.4 78.7 8 C 78.6 7.5 78.3 7.2 77.8 7 C 77.4 6.7 76.9 6.6 76.4 6.6 C 75.5 6.6 74.7 6.9 74 7.4 C 73.4 8 73.1 9.1 73.1 10.7 C 73.07 10.68 73.1 17.5 73.1 17.5 L 71 17.5 Z M 83.5 13.8 C 83.5 13.8 85.5 13.4 85.5 13.4 C 85.7 14.3 86 14.9 86.5 15.4 C 87.1 15.8 87.8 16 88.8 16 C 89.7 16 90.5 15.8 90.9 15.4 C 91.4 15 91.6 14.6 91.6 14 C 91.6 13.6 91.4 13.2 91 12.9 C 90.7 12.7 90 12.5 88.9 12.2 C 87.3 11.8 86.2 11.5 85.6 11.2 C 85 10.9 84.6 10.5 84.3 10 C 84 9.5 83.8 8.9 83.8 8.3 C 83.8 7.8 83.9 7.3 84.2 6.8 C 84.4 6.3 84.8 5.9 85.2 5.6 C 85.6 5.4 86 5.2 86.6 5 C 87.1 4.8 87.7 4.7 88.4 4.7 C 89.4 4.7 90.2 4.9 91 5.2 C 91.7 5.4 92.3 5.8 92.6 6.3 C 93 6.8 93.2 7.4 93.3 8.2 C 93.3 8.2 91.3 8.5 91.3 8.5 C 91.2 7.9 90.9 7.4 90.5 7 C 90 6.7 89.4 6.5 88.5 6.5 C 87.6 6.5 86.9 6.6 86.5 7 C 86.1 7.3 85.9 7.7 85.9 8.1 C 85.9 8.4 85.9 8.6 86.1 8.8 C 86.3 9.1 86.6 9.2 86.9 9.4 C 87.1 9.5 87.8 9.6 88.8 9.9 C 90.3 10.3 91.3 10.7 91.9 10.9 C 92.5 11.2 93 11.5 93.3 12 C 93.6 12.5 93.8 13.1 93.8 13.8 C 93.8 14.5 93.6 15.2 93.2 15.8 C 92.8 16.4 92.2 16.9 91.4 17.2 C 90.6 17.6 89.8 17.8 88.8 17.8 C 87.2 17.8 85.9 17.4 85.1 16.7 C 84.2 16.1 83.7 15.1 83.5 13.8 Z M 104.8 13.5 C 104.8 13.5 107 13.7 107 13.7 C 106.7 15 106 16 105.1 16.7 C 104.2 17.4 103 17.8 101.5 17.8 C 99.7 17.8 98.3 17.2 97.2 16.1 C 96.1 15 95.6 13.4 95.6 11.4 C 95.6 9.3 96.1 7.6 97.2 6.5 C 98.3 5.3 99.7 4.7 101.4 4.7 C 103.1 4.7 104.4 5.3 105.5 6.4 C 106.5 7.6 107.1 9.2 107.1 11.2 C 107.1 11.4 107.1 11.5 107.1 11.8 C 107.1 11.8 97.8 11.8 97.8 11.8 C 97.9 13.2 98.2 14.2 98.9 14.9 C 99.6 15.7 100.5 16 101.5 16 C 102.3 16 103 15.8 103.5 15.4 C 104.1 15 104.5 14.4 104.8 13.5 Z M 97.9 10.1 C 97.9 10.1 104.8 10.1 104.8 10.1 C 104.8 9 104.5 8.2 104.1 7.7 C 103.4 6.9 102.5 6.5 101.4 6.5 C 100.5 6.5 99.7 6.8 99 7.5 C 98.3 8.1 98 9 97.9 10.1 Z M 120.5 17.5 L 120.5 2.3 L 114.9 2.3 L 114.9 0.3 L 128.5 0.3 L 128.5 2.3 L 122.8 2.3 L 122.8 17.5 L 120.5 17.5 Z M 129.7 2.7 L 129.7 0.3 L 131.8 0.3 L 131.8 2.7 L 129.7 2.7 Z M 129.7 17.5 L 129.7 5 L 131.8 5 L 131.8 17.5 L 129.7 17.5 Z M 135 17.5 L 135 5 L 136.9 5 C 136.9 5 136.88 6.77 136.9 6.8 C 137.3 6.2 137.8 5.7 138.4 5.3 C 139.1 4.9 139.8 4.7 140.6 4.7 C 141.6 4.7 142.3 4.9 142.9 5.3 C 143.5 5.7 143.9 6.2 144.2 6.9 C 145.1 5.5 146.4 4.7 148 4.7 C 149.2 4.7 150.2 5.1 150.9 5.8 C 151.5 6.5 151.9 7.5 151.9 8.9 C 151.85 8.93 151.9 17.5 151.9 17.5 L 149.8 17.5 C 149.8 17.5 149.75 9.63 149.8 9.6 C 149.8 8.8 149.7 8.2 149.5 7.8 C 149.4 7.4 149.2 7.1 148.8 6.9 C 148.4 6.7 148 6.6 147.5 6.6 C 146.7 6.6 145.9 6.9 145.4 7.4 C 144.8 8 144.5 9 144.5 10.2 C 144.49 10.24 144.5 17.5 144.5 17.5 L 142.4 17.5 C 142.4 17.5 142.38 9.39 142.4 9.4 C 142.4 8.4 142.2 7.7 141.9 7.3 C 141.5 6.8 141 6.6 140.2 6.6 C 139.6 6.6 139 6.7 138.5 7 C 138 7.4 137.7 7.8 137.4 8.4 C 137.2 9 137.1 9.9 137.1 11 C 137.1 11.02 137.1 17.5 137.1 17.5 L 135 17.5 Z M 163.5 13.5 C 163.5 13.5 165.7 13.7 165.7 13.7 C 165.3 15 164.7 16 163.8 16.7 C 162.8 17.4 161.7 17.8 160.2 17.8 C 158.4 17.8 156.9 17.2 155.9 16.1 C 154.8 15 154.3 13.4 154.3 11.4 C 154.3 9.3 154.8 7.6 155.9 6.5 C 157 5.3 158.4 4.7 160.1 4.7 C 161.8 4.7 163.1 5.3 164.2 6.4 C 165.2 7.6 165.8 9.2 165.8 11.2 C 165.8 11.4 165.7 11.5 165.7 11.8 C 165.7 11.8 156.5 11.8 156.5 11.8 C 156.5 13.2 156.9 14.2 157.6 14.9 C 158.3 15.7 159.2 16 160.2 16 C 161 16 161.7 15.8 162.2 15.4 C 162.7 15 163.2 14.4 163.5 13.5 Z M 156.6 10.1 C 156.6 10.1 163.5 10.1 163.5 10.1 C 163.4 9 163.2 8.2 162.7 7.7 C 162.1 6.9 161.2 6.5 160.1 6.5 C 159.1 6.5 158.3 6.8 157.7 7.5 C 157 8.1 156.6 9 156.6 10.1 Z M 167.5 13.8 C 167.5 13.8 169.6 13.4 169.6 13.4 C 169.7 14.3 170 14.9 170.5 15.4 C 171.1 15.8 171.8 16 172.8 16 C 173.8 16 174.5 15.8 174.9 15.4 C 175.4 15 175.7 14.6 175.7 14 C 175.7 13.6 175.4 13.2 175 12.9 C 174.7 12.7 174 12.5 172.9 12.2 C 171.3 11.8 170.3 11.5 169.7 11.2 C 169.1 10.9 168.6 10.5 168.3 10 C 168 9.5 167.8 8.9 167.8 8.3 C 167.8 7.8 168 7.3 168.2 6.8 C 168.5 6.3 168.8 5.9 169.3 5.6 C 169.6 5.4 170 5.2 170.6 5 C 171.2 4.8 171.8 4.7 172.4 4.7 C 173.4 4.7 174.3 4.9 175 5.2 C 175.7 5.4 176.3 5.8 176.6 6.3 C 177 6.8 177.2 7.4 177.4 8.2 C 177.4 8.2 175.3 8.5 175.3 8.5 C 175.2 7.9 174.9 7.4 174.5 7 C 174 6.7 173.4 6.5 172.6 6.5 C 171.6 6.5 170.9 6.6 170.5 7 C 170.1 7.3 169.9 7.7 169.9 8.1 C 169.9 8.4 170 8.6 170.1 8.8 C 170.3 9.1 170.6 9.2 170.9 9.4 C 171.2 9.5 171.8 9.6 172.8 9.9 C 174.3 10.3 175.3 10.7 175.9 10.9 C 176.5 11.2 177 11.5 177.3 12 C 177.7 12.5 177.8 13.1 177.8 13.8 C 177.8 14.5 177.6 15.2 177.2 15.8 C 176.8 16.4 176.2 16.9 175.4 17.2 C 174.7 17.6 173.8 17.8 172.8 17.8 C 171.2 17.8 170 17.4 169.1 16.7 C 168.3 16.1 167.7 15.1 167.5 13.8 Z " stroke="none" fill="#000"/>  </g></svg>