<?xml version="1.0" standalone="no"?><!DOCTYPE svg PUBLIC "-//W3C//DTD SVG 1.1//EN" "http://www.w3.org/Graphics/SVG/1.1/DTD/svg11.dtd"><svg xmlns="http://www.w3.org/2000/svg" version="1.1" width="126px" height="56.7px" viewBox="0 -1 126 56.7" style="top:-1px">  <desc>96%</desc>  <defs/>  <g id="Polygon23692">    <path d="M 32.4 30.5 C 32.4 30.5 36.7 30 36.7 30 C 36.8 30.9 37 31.5 37.5 31.9 C 37.9 32.3 38.5 32.6 39.2 32.6 C 40.1 32.6 40.9 32.1 41.5 31.3 C 42.1 30.5 42.6 28.7 42.7 26.1 C 41.6 27.4 40.2 28 38.6 28 C 36.8 28 35.2 27.3 33.9 25.9 C 32.6 24.6 32 22.7 32 20.5 C 32 18.2 32.7 16.3 34 14.9 C 35.4 13.5 37.2 12.8 39.3 12.8 C 41.6 12.8 43.5 13.7 45 15.5 C 46.5 17.3 47.3 20.2 47.3 24.3 C 47.3 28.5 46.5 31.5 44.9 33.4 C 43.4 35.2 41.4 36.2 38.9 36.2 C 37.1 36.2 35.6 35.7 34.5 34.7 C 33.4 33.8 32.7 32.4 32.4 30.5 Z M 42.3 20.9 C 42.3 19.5 42 18.4 41.4 17.6 C 40.7 16.8 40 16.4 39.1 16.4 C 38.3 16.4 37.6 16.7 37.1 17.4 C 36.5 18 36.3 19.1 36.3 20.5 C 36.3 22 36.6 23.1 37.2 23.8 C 37.7 24.5 38.5 24.8 39.3 24.8 C 40.2 24.8 40.9 24.5 41.5 23.8 C 42 23.1 42.3 22.2 42.3 20.9 Z M 65 18.5 C 65 18.5 60.7 18.9 60.7 18.9 C 60.6 18.1 60.4 17.4 59.9 17 C 59.5 16.6 58.9 16.4 58.2 16.4 C 57.3 16.4 56.5 16.8 55.9 17.6 C 55.2 18.5 54.8 20.2 54.7 22.8 C 55.7 21.5 57.1 20.9 58.7 20.9 C 60.6 20.9 62.1 21.6 63.4 23 C 64.7 24.4 65.4 26.2 65.4 28.4 C 65.4 30.7 64.7 32.6 63.3 34 C 62 35.5 60.2 36.2 58 36.2 C 55.7 36.2 53.8 35.3 52.3 33.5 C 50.8 31.7 50.1 28.7 50.1 24.6 C 50.1 20.4 50.9 17.4 52.4 15.6 C 54 13.7 56 12.8 58.5 12.8 C 60.2 12.8 61.7 13.3 62.8 14.2 C 63.9 15.2 64.7 16.6 65 18.5 Z M 55 28.1 C 55 29.5 55.4 30.6 56 31.4 C 56.7 32.1 57.4 32.5 58.3 32.5 C 59.1 32.5 59.7 32.2 60.3 31.6 C 60.8 30.9 61.1 29.9 61.1 28.4 C 61.1 27 60.8 25.9 60.2 25.2 C 59.6 24.5 58.9 24.1 58 24.1 C 57.2 24.1 56.5 24.5 55.9 25.1 C 55.3 25.8 55 26.8 55 28.1 Z M 67.9 18.5 C 67.9 16.5 68.4 14.9 69.3 14 C 70.2 13 71.4 12.5 72.9 12.5 C 74.5 12.5 75.8 13 76.7 13.9 C 77.6 14.9 78 16.5 78 18.5 C 78 20.6 77.6 22.1 76.7 23.1 C 75.8 24.1 74.6 24.6 73 24.6 C 71.4 24.6 70.2 24.1 69.3 23.1 C 68.4 22.1 67.9 20.6 67.9 18.5 Z M 71.9 15.5 C 71.5 16 71.4 17 71.4 18.5 C 71.4 20 71.5 21 71.9 21.5 C 72.1 21.9 72.5 22.1 72.9 22.1 C 73.4 22.1 73.8 21.9 74 21.5 C 74.4 21 74.5 20 74.5 18.5 C 74.5 17 74.4 16 74 15.5 C 73.8 15.1 73.4 14.9 72.9 14.9 C 72.5 14.9 72.1 15.1 71.9 15.5 C 71.9 15.5 71.9 15.5 71.9 15.5 Z M 76.3 36.6 L 73 36.6 L 85.2 12.5 L 88.4 12.5 L 76.3 36.6 Z M 83.4 30.6 C 83.4 28.6 83.8 27.1 84.7 26.1 C 85.6 25.1 86.9 24.6 88.4 24.6 C 90 24.6 91.2 25.1 92.1 26.1 C 93 27.1 93.5 28.6 93.5 30.6 C 93.5 32.7 93 34.2 92.1 35.2 C 91.2 36.2 90 36.7 88.5 36.7 C 86.9 36.7 85.6 36.2 84.7 35.2 C 83.8 34.2 83.4 32.7 83.4 30.6 Z M 87.3 27.6 C 87 28.1 86.8 29.1 86.8 30.6 C 86.8 32.1 87 33.1 87.3 33.6 C 87.6 34 87.9 34.2 88.4 34.2 C 88.9 34.2 89.2 34 89.5 33.6 C 89.8 33.1 90 32.1 90 30.6 C 90 29.1 89.8 28.1 89.5 27.6 C 89.2 27.2 88.9 27.1 88.4 27.1 C 87.9 27.1 87.6 27.2 87.3 27.6 C 87.3 27.6 87.3 27.6 87.3 27.6 Z " stroke="none" fill="#000"/>  </g></svg>