<?xml version="1.0" standalone="no"?><!DOCTYPE svg PUBLIC "-//W3C//DTD SVG 1.1//EN" "http://www.w3.org/Graphics/SVG/1.1/DTD/svg11.dtd"><svg xmlns="http://www.w3.org/2000/svg" version="1.1" width="807.3px" height="46.1px" viewBox="0 -8 807.3 46.1" style="top:-8px">  <desc>Delivering Value &amp; Flexibility with Managed Services</desc>  <defs/>  <g id="Polygon48088">    <path d="M 2.3 1.4 C 2.3 1.4 9.84 1.41 9.8 1.4 C 16.5 1.4 20.9 5.6 20.9 11.4 C 20.9 17.8 16.4 21.9 9.8 21.9 C 9.84 21.87 2.3 21.9 2.3 21.9 L 2.3 1.4 Z M 9.8 19.8 C 15.2 19.8 18.5 16.6 18.5 11.6 C 18.5 6.7 15.3 3.4 9.5 3.4 C 9.48 3.42 4.6 3.4 4.6 3.4 L 4.6 19.8 C 4.6 19.8 9.81 19.83 9.8 19.8 Z M 35.8 1.4 L 35.8 3.4 L 26.8 3.4 L 26.8 10.6 L 35.5 10.6 L 35.5 12.6 L 26.8 12.6 L 26.8 19.8 L 36 19.8 L 36 21.9 L 24.6 21.9 L 24.6 1.4 L 35.8 1.4 Z M 41.9 1.4 L 41.9 19.8 L 51.5 19.8 L 51.5 21.9 L 39.7 21.9 L 39.7 1.4 L 41.9 1.4 Z M 56.4 1.4 L 56.4 21.9 L 54.1 21.9 L 54.1 1.4 L 56.4 1.4 Z M 58.7 1.4 L 61 1.4 L 67.6 17.3 L 67.7 17.3 L 74.3 1.4 L 76.6 1.4 L 67.9 22.1 L 67.4 22.1 L 58.7 1.4 Z M 90.1 1.4 L 90.1 3.4 L 81.1 3.4 L 81.1 10.6 L 89.8 10.6 L 89.8 12.6 L 81.1 12.6 L 81.1 19.8 L 90.3 19.8 L 90.3 21.9 L 78.9 21.9 L 78.9 1.4 L 90.1 1.4 Z M 94 1.4 C 94 1.4 99.33 1.41 99.3 1.4 C 103.4 1.4 105.6 3.8 105.6 6.9 C 105.6 9.4 104.2 11.2 101.7 11.9 C 103 12.6 103.6 13.2 105.3 15.7 C 105.3 15.75 109.3 21.9 109.3 21.9 L 106.6 21.9 C 106.6 21.9 102.99 16.23 103 16.2 C 101.1 13.2 99.8 12.6 98.1 12.6 C 98.1 12.57 96.2 12.6 96.2 12.6 L 96.2 21.9 L 94 21.9 L 94 1.4 Z M 98.3 10.6 C 101.1 10.6 103.3 9.9 103.3 6.9 C 103.3 4.4 101.6 3.4 99 3.4 C 99.03 3.39 96.2 3.4 96.2 3.4 L 96.2 10.6 C 96.2 10.6 98.31 10.59 98.3 10.6 Z M 113.8 1.4 L 113.8 21.9 L 111.5 21.9 L 111.5 1.4 L 113.8 1.4 Z M 120.2 1.4 L 134.7 18.3 L 134.7 1.4 L 136.9 1.4 L 136.9 21.9 L 134.9 21.9 L 120.5 5 L 120.5 21.9 L 118.3 21.9 L 118.3 1.4 L 120.2 1.4 Z M 158.3 5.2 C 156.1 3.8 153.6 3.1 151.3 3.1 C 146.5 3.1 142.9 6.7 142.9 11.5 C 142.9 16.6 146.4 20.1 151.5 20.1 C 153.2 20.1 154.4 19.9 156.5 19.1 C 156.51 19.08 156.5 14.1 156.5 14.1 L 152.3 14.1 L 152.3 12.1 L 158.8 12.1 C 158.8 12.1 158.76 20.46 158.8 20.5 C 156.4 21.6 154.1 22.1 151.5 22.1 C 144.1 22.1 140.5 17 140.5 11.8 C 140.5 5.9 144.8 1.1 151.4 1.1 C 153.7 1.1 155.6 1.6 158.3 2.8 C 158.3 2.8 158.3 5.2 158.3 5.2 Z M 169.1 1.4 L 171.4 1.4 L 178 17.3 L 178.1 17.3 L 184.7 1.4 L 187 1.4 L 178.3 22.1 L 177.8 22.1 L 169.1 1.4 Z M 195.8 1.3 L 204.9 21.9 L 202.6 21.9 L 199.7 15.4 L 190.4 15.4 L 187.6 21.9 L 185.3 21.9 L 194.2 1.3 L 195.8 1.3 Z M 191.3 13.4 L 198.8 13.4 L 194.9 4.7 L 191.3 13.4 Z M 209.5 1.4 L 209.5 19.8 L 219.1 19.8 L 219.1 21.9 L 207.2 21.9 L 207.2 1.4 L 209.5 1.4 Z M 222.7 1.4 C 222.7 1.4 222.75 13.2 222.7 13.2 C 222.7 17.7 224.9 20.1 229.1 20.1 C 233.3 20.1 235.4 17.6 235.4 13.2 C 235.41 13.2 235.4 1.4 235.4 1.4 L 237.7 1.4 C 237.7 1.4 237.66 13.2 237.7 13.2 C 237.7 18.6 234.8 22.1 229.1 22.1 C 223.5 22.1 220.5 18.9 220.5 13.2 C 220.5 13.2 220.5 1.4 220.5 1.4 L 222.7 1.4 Z M 253.2 1.4 L 253.2 3.4 L 244.3 3.4 L 244.3 10.6 L 252.9 10.6 L 252.9 12.6 L 244.3 12.6 L 244.3 19.8 L 253.4 19.8 L 253.4 21.9 L 242 21.9 L 242 1.4 L 253.2 1.4 Z M 275.9 15.6 C 276.8 14.5 277.6 13.1 278.2 11.7 C 278.2 11.7 280.4 11.7 280.4 11.7 C 279.8 13.4 278.8 15.3 277.3 17.2 C 277.7 17.5 278 18 278.4 18.3 C 278.37 18.33 281.6 21.9 281.6 21.9 L 278.7 21.9 C 278.7 21.9 275.85 18.72 275.8 18.7 C 274.1 20.5 271.8 22.1 269.2 22.1 C 266.3 22.1 263.9 20.1 263.9 17.3 C 263.9 14.7 266 12.8 268.9 11.2 C 267.2 9.4 266.3 7.8 266.3 6.4 C 266.2 6.1 266.2 5.7 266.3 5.4 C 266.6 3.4 268.1 1.6 271.2 1.6 C 274.4 1.6 276.1 3.8 276.1 6 C 276.1 7.9 275.1 9.5 272.1 11.5 C 272.1 11.5 275.9 15.6 275.9 15.6 Z M 270.2 12.6 C 270.2 12.6 268.86 13.53 268.9 13.5 C 267.1 14.7 266.2 15.8 266.1 17.2 C 266.1 18.6 267.2 19.8 268.9 19.9 C 269.1 20 269.4 20 269.7 20 C 271.7 19.8 273.1 18.7 274.5 17.2 C 274.47 17.19 270.2 12.6 270.2 12.6 Z M 274 6.1 C 274 4.6 272.8 3.5 271.2 3.5 C 269.6 3.5 268.4 4.5 268.4 5.9 C 268.4 7.4 269.8 9 270.8 10 C 273.1 8.6 274 7.5 274 6.1 Z M 302.8 1.4 L 302.8 3.4 L 294.5 3.4 L 294.5 10 L 302.5 10 L 302.5 12.1 L 294.5 12.1 L 294.5 21.9 L 292.3 21.9 L 292.3 1.4 L 302.8 1.4 Z M 308 1.4 L 308 19.8 L 317.6 19.8 L 317.6 21.9 L 305.8 21.9 L 305.8 1.4 L 308 1.4 Z M 331.4 1.4 L 331.4 3.4 L 322.5 3.4 L 322.5 10.6 L 331.1 10.6 L 331.1 12.6 L 322.5 12.6 L 322.5 19.8 L 331.7 19.8 L 331.7 21.9 L 320.2 21.9 L 320.2 1.4 L 331.4 1.4 Z M 337.1 1.4 C 340.3 5.2 341.2 6.3 344.1 9.7 C 346.3 7.2 348.5 4.6 351.1 1.4 C 351.12 1.41 353.8 1.4 353.8 1.4 L 345.5 11.3 L 354.4 21.9 L 351.7 21.9 L 344.1 12.9 L 336.5 21.9 L 333.7 21.9 L 342.7 11.3 L 334.3 1.4 C 334.3 1.4 337.08 1.41 337.1 1.4 Z M 359 1.4 L 359 21.9 L 356.8 21.9 L 356.8 1.4 L 359 1.4 Z M 368.9 1.4 C 372.7 1.4 375.2 3.4 375.2 6.6 C 375.2 8.8 374 10.4 371.8 11.1 C 375 11.6 376.9 13.7 376.9 16.4 C 376.9 20.2 373.6 21.9 369.8 21.9 C 369.84 21.87 363.6 21.9 363.6 21.9 L 363.6 1.4 C 363.6 1.4 368.88 1.41 368.9 1.4 Z M 365.8 10.5 C 365.8 10.5 368.07 10.5 368.1 10.5 C 371.4 10.5 372.9 8.9 372.9 6.8 C 372.9 4.5 371.5 3.4 368.4 3.4 C 368.43 3.39 365.8 3.4 365.8 3.4 L 365.8 10.5 Z M 369.4 19.9 C 372.7 19.9 374.6 18.8 374.6 16.2 C 374.6 13.8 373 12.4 369.1 12.4 C 369.09 12.45 365.8 12.4 365.8 12.4 L 365.8 19.9 C 365.8 19.9 369.42 19.89 369.4 19.9 Z M 382.6 1.4 L 382.6 21.9 L 380.3 21.9 L 380.3 1.4 L 382.6 1.4 Z M 389.4 1.4 L 389.4 19.8 L 399 19.8 L 399 21.9 L 387.1 21.9 L 387.1 1.4 L 389.4 1.4 Z M 403.9 1.4 L 403.9 21.9 L 401.6 21.9 L 401.6 1.4 L 403.9 1.4 Z M 423.4 1.4 L 423.4 3.4 L 416.1 3.4 L 416.1 21.9 L 413.8 21.9 L 413.8 3.4 L 406.6 3.4 L 406.6 1.4 L 423.4 1.4 Z M 427 1.4 L 433 9 L 439.1 1.4 L 441.8 1.4 L 434.2 10.9 L 434.2 21.9 L 431.9 21.9 L 431.9 10.9 L 424.3 1.4 L 427 1.4 Z M 450.3 1.4 L 452.5 1.4 L 458.7 17 L 458.7 17 L 464.8 1.4 L 466.8 1.4 L 473 16.9 L 473 16.9 L 479 1.4 L 481.3 1.4 L 473.2 22 L 472.7 22 L 465.8 4.6 L 458.9 22 L 458.5 22 L 450.3 1.4 Z M 485.9 1.4 L 485.9 21.9 L 483.7 21.9 L 483.7 1.4 L 485.9 1.4 Z M 505.4 1.4 L 505.4 3.4 L 498.1 3.4 L 498.1 21.9 L 495.9 21.9 L 495.9 3.4 L 488.6 3.4 L 488.6 1.4 L 505.4 1.4 Z M 510.4 1.4 L 510.4 10.5 L 522.9 10.5 L 522.9 1.4 L 525.1 1.4 L 525.1 21.9 L 522.9 21.9 L 522.9 12.6 L 510.4 12.6 L 510.4 21.9 L 508.2 21.9 L 508.2 1.4 L 510.4 1.4 Z M 538 1.4 L 540.2 1.4 L 547.4 10.4 L 554.6 1.4 L 556.7 1.4 L 556.7 21.9 L 554.5 21.9 L 554.5 5 L 554.4 5 L 547.6 13.5 L 547.2 13.5 L 540.4 5 L 540.3 5 L 540.3 21.9 L 538 21.9 L 538 1.4 Z M 569.5 1.3 L 578.7 21.9 L 576.4 21.9 L 573.5 15.4 L 564.2 15.4 L 561.4 21.9 L 559.1 21.9 L 568 1.3 L 569.5 1.3 Z M 565 13.4 L 572.6 13.4 L 568.7 4.7 L 565 13.4 Z M 582.9 1.4 L 597.4 18.3 L 597.4 1.4 L 599.5 1.4 L 599.5 21.9 L 597.5 21.9 L 583.2 5 L 583.2 21.9 L 581 21.9 L 581 1.4 L 582.9 1.4 Z M 612.3 1.3 L 621.4 21.9 L 619.1 21.9 L 616.2 15.4 L 606.9 15.4 L 604.2 21.9 L 601.9 21.9 L 610.7 1.3 L 612.3 1.3 Z M 607.8 13.4 L 615.3 13.4 L 611.5 4.7 L 607.8 13.4 Z M 639.7 5.2 C 637.5 3.8 635 3.1 632.7 3.1 C 628 3.1 624.3 6.7 624.3 11.5 C 624.3 16.6 627.8 20.1 632.9 20.1 C 634.6 20.1 635.8 19.9 637.9 19.1 C 637.91 19.08 637.9 14.1 637.9 14.1 L 633.7 14.1 L 633.7 12.1 L 640.2 12.1 C 640.2 12.1 640.16 20.46 640.2 20.5 C 637.8 21.6 635.5 22.1 632.9 22.1 C 625.6 22.1 622 17 622 11.8 C 622 5.9 626.2 1.1 632.8 1.1 C 635.1 1.1 637 1.6 639.7 2.8 C 639.7 2.8 639.7 5.2 639.7 5.2 Z M 655.6 1.4 L 655.6 3.4 L 646.7 3.4 L 646.7 10.6 L 655.3 10.6 L 655.3 12.6 L 646.7 12.6 L 646.7 19.8 L 655.9 19.8 L 655.9 21.9 L 644.5 21.9 L 644.5 1.4 L 655.6 1.4 Z M 659.5 1.4 C 659.5 1.4 667.04 1.41 667 1.4 C 673.7 1.4 678.1 5.6 678.1 11.4 C 678.1 17.8 673.6 21.9 667 21.9 C 667.04 21.87 659.5 21.9 659.5 21.9 L 659.5 1.4 Z M 667 19.8 C 672.4 19.8 675.7 16.6 675.7 11.6 C 675.7 6.7 672.5 3.4 666.7 3.4 C 666.68 3.42 661.8 3.4 661.8 3.4 L 661.8 19.8 C 661.8 19.8 667.01 19.83 667 19.8 Z M 699.6 2.5 C 699.6 2.5 699.6 5 699.6 5 C 698.2 3.8 696.7 3.2 695 3.2 C 692.8 3.2 691.4 4.4 691.4 6.1 C 691.4 7.5 691.8 8.7 695.2 10.4 C 699.4 12.6 700.4 14 700.4 16.8 C 700.4 19.9 698.1 22.1 694.6 22.1 C 692.6 22.1 690.8 21.5 689.2 20.3 C 689.2 20.3 689.2 17.5 689.2 17.5 C 690.8 19.2 692.6 20.1 694.6 20.1 C 696.6 20.1 698.1 18.8 698.1 16.9 C 698.1 15.1 697.6 14.1 693.6 12 C 690.4 10.4 689.2 8.8 689.2 6.2 C 689.2 3.3 691.6 1.1 695.1 1.1 C 696.7 1.1 698.2 1.6 699.6 2.5 Z M 715.1 1.4 L 715.1 3.4 L 706.2 3.4 L 706.2 10.6 L 714.8 10.6 L 714.8 12.6 L 706.2 12.6 L 706.2 19.8 L 715.3 19.8 L 715.3 21.9 L 703.9 21.9 L 703.9 1.4 L 715.1 1.4 Z M 719 1.4 C 719 1.4 724.34 1.41 724.3 1.4 C 728.5 1.4 730.6 3.8 730.6 6.9 C 730.6 9.4 729.2 11.2 726.7 11.9 C 728 12.6 728.6 13.2 730.3 15.7 C 730.31 15.75 734.3 21.9 734.3 21.9 L 731.6 21.9 C 731.6 21.9 728 16.23 728 16.2 C 726.1 13.2 724.9 12.6 723.1 12.6 C 723.11 12.57 721.2 12.6 721.2 12.6 L 721.2 21.9 L 719 21.9 L 719 1.4 Z M 723.3 10.6 C 726.1 10.6 728.3 9.9 728.3 6.9 C 728.3 4.4 726.7 3.4 724 3.4 C 724.04 3.39 721.2 3.4 721.2 3.4 L 721.2 10.6 C 721.2 10.6 723.32 10.59 723.3 10.6 Z M 733.2 1.4 L 735.5 1.4 L 742.1 17.3 L 742.2 17.3 L 748.8 1.4 L 751 1.4 L 742.4 22.1 L 741.9 22.1 L 733.2 1.4 Z M 755.6 1.4 L 755.6 21.9 L 753.4 21.9 L 753.4 1.4 L 755.6 1.4 Z M 777.1 2.8 C 777.1 2.8 777.1 5.2 777.1 5.2 C 775 4 772.6 3.2 770.2 3.2 C 765 3.2 761.7 7.2 761.7 11.7 C 761.7 16.3 764.9 20 770.2 20 C 772.7 20 775.1 19.3 777.3 17.9 C 777.3 17.9 777.3 20.4 777.3 20.4 C 775 21.6 772.6 22.1 770.1 22.1 C 763 22.1 759.3 16.8 759.3 11.7 C 759.3 5.6 764 1.1 770.2 1.1 C 772.5 1.1 774.8 1.7 777.1 2.8 Z M 792 1.4 L 792 3.4 L 783.1 3.4 L 783.1 10.6 L 791.7 10.6 L 791.7 12.6 L 783.1 12.6 L 783.1 19.8 L 792.2 19.8 L 792.2 21.9 L 780.8 21.9 L 780.8 1.4 L 792 1.4 Z M 805.3 2.5 C 805.3 2.5 805.3 5 805.3 5 C 803.9 3.8 802.4 3.2 800.7 3.2 C 798.6 3.2 797.2 4.4 797.2 6.1 C 797.2 7.5 797.5 8.7 800.9 10.4 C 805.1 12.6 806.1 14 806.1 16.8 C 806.1 19.9 803.8 22.1 800.3 22.1 C 798.3 22.1 796.5 21.5 795 20.3 C 795 20.3 795 17.5 795 17.5 C 796.5 19.2 798.3 20.1 800.3 20.1 C 802.3 20.1 803.8 18.8 803.8 16.9 C 803.8 15.1 803.3 14.1 799.3 12 C 796.1 10.4 794.9 8.8 794.9 6.2 C 794.9 3.3 797.4 1.1 800.8 1.1 C 802.4 1.1 804 1.6 805.3 2.5 Z " stroke="none" fill="#000000"/>  </g></svg>