<?xml version="1.0" standalone="no"?><!DOCTYPE svg PUBLIC "-//W3C//DTD SVG 1.1//EN" "http://www.w3.org/Graphics/SVG/1.1/DTD/svg11.dtd"><svg xmlns="http://www.w3.org/2000/svg" version="1.1" width="204px" height="39.1px" viewBox="0 -8 204 39.1" style="top:-8px">  <desc>Authenticity</desc>  <defs/>  <g id="Polygon23512">    <path d="M 39.8 17.5 L 46.4 0.3 L 48.9 0.3 L 55.9 17.5 L 53.3 17.5 L 51.3 12.3 L 44.1 12.3 L 42.2 17.5 L 39.8 17.5 Z M 44.8 10.4 L 50.6 10.4 C 50.6 10.4 48.8 5.66 48.8 5.7 C 48.3 4.2 47.8 3 47.6 2.1 C 47.4 3.2 47.1 4.3 46.7 5.4 C 46.65 5.38 44.8 10.4 44.8 10.4 Z M 65.6 17.5 C 65.6 17.5 65.59 15.64 65.6 15.6 C 64.6 17.1 63.3 17.8 61.6 17.8 C 60.9 17.8 60.2 17.6 59.6 17.3 C 58.9 17.1 58.5 16.7 58.2 16.3 C 57.9 15.8 57.6 15.3 57.5 14.7 C 57.4 14.3 57.4 13.6 57.4 12.7 C 57.39 12.74 57.4 5 57.4 5 L 59.5 5 C 59.5 5 59.5 11.93 59.5 11.9 C 59.5 13 59.5 13.8 59.6 14.2 C 59.8 14.7 60 15.1 60.5 15.5 C 60.9 15.8 61.4 15.9 62.1 15.9 C 62.7 15.9 63.3 15.8 63.8 15.5 C 64.4 15.1 64.8 14.7 65 14.1 C 65.3 13.6 65.4 12.8 65.4 11.7 C 65.37 11.7 65.4 5 65.4 5 L 67.5 5 L 67.5 17.5 L 65.6 17.5 Z M 74.5 15.7 C 74.7 15.7 75 15.6 75.4 15.6 C 75.4 15.6 75.7 17.4 75.7 17.4 C 75.1 17.6 74.6 17.6 74.1 17.6 C 73.3 17.6 72.7 17.5 72.3 17.3 C 71.9 17 71.6 16.7 71.4 16.3 C 71.3 15.9 71.2 15.1 71.2 13.8 C 71.17 13.83 71.2 6.7 71.2 6.7 L 69.6 6.7 L 69.6 5 L 71.2 5 L 71.2 1.9 L 73.3 0.7 L 73.3 5 L 75.4 5 L 75.4 6.7 L 73.3 6.7 C 73.3 6.7 73.27 13.95 73.3 13.9 C 73.3 14.5 73.3 14.9 73.4 15.1 C 73.5 15.3 73.6 15.4 73.7 15.5 C 73.9 15.6 74.2 15.7 74.5 15.7 C 74.5 15.7 74.5 15.7 74.5 15.7 Z M 77.5 17.5 L 77.5 0.3 L 79.6 0.3 C 79.6 0.3 79.56 6.46 79.6 6.5 C 80.5 5.3 81.8 4.7 83.3 4.7 C 84.2 4.7 85 4.9 85.7 5.3 C 86.4 5.7 86.9 6.2 87.1 6.8 C 87.4 7.4 87.6 8.4 87.6 9.6 C 87.59 9.59 87.6 17.5 87.6 17.5 L 85.5 17.5 C 85.5 17.5 85.48 9.59 85.5 9.6 C 85.5 8.5 85.3 7.8 84.8 7.3 C 84.3 6.8 83.7 6.6 82.9 6.6 C 82.2 6.6 81.6 6.7 81.1 7 C 80.5 7.4 80.1 7.8 79.9 8.4 C 79.7 8.9 79.6 9.7 79.6 10.7 C 79.56 10.66 79.6 17.5 79.6 17.5 L 77.5 17.5 Z M 99.3 13.5 C 99.3 13.5 101.5 13.7 101.5 13.7 C 101.2 15 100.5 16 99.6 16.7 C 98.7 17.4 97.5 17.8 96 17.8 C 94.2 17.8 92.8 17.2 91.7 16.1 C 90.6 15 90.1 13.4 90.1 11.4 C 90.1 9.3 90.6 7.6 91.7 6.5 C 92.8 5.3 94.2 4.7 95.9 4.7 C 97.6 4.7 98.9 5.3 100 6.4 C 101 7.6 101.6 9.2 101.6 11.2 C 101.6 11.4 101.6 11.5 101.6 11.8 C 101.6 11.8 92.3 11.8 92.3 11.8 C 92.4 13.2 92.7 14.2 93.4 14.9 C 94.1 15.7 95 16 96 16 C 96.8 16 97.5 15.8 98 15.4 C 98.6 15 99 14.4 99.3 13.5 Z M 92.4 10.1 C 92.4 10.1 99.3 10.1 99.3 10.1 C 99.2 9 99 8.2 98.5 7.7 C 97.9 6.9 97 6.5 95.9 6.5 C 95 6.5 94.1 6.8 93.5 7.5 C 92.8 8.1 92.5 9 92.4 10.1 Z M 104.1 17.5 L 104.1 5 L 106 5 C 106 5 106.05 6.8 106 6.8 C 107 5.4 108.3 4.7 110 4.7 C 110.8 4.7 111.4 4.9 112.1 5.2 C 112.7 5.4 113.2 5.8 113.5 6.2 C 113.8 6.6 114 7.2 114.1 7.8 C 114.2 8.2 114.3 8.8 114.3 9.8 C 114.26 9.82 114.3 17.5 114.3 17.5 L 112.2 17.5 C 112.2 17.5 112.15 9.9 112.2 9.9 C 112.2 9 112.1 8.4 111.9 8 C 111.7 7.5 111.4 7.2 111 7 C 110.6 6.7 110.1 6.6 109.6 6.6 C 108.7 6.6 107.9 6.9 107.2 7.4 C 106.6 8 106.3 9.1 106.3 10.7 C 106.26 10.68 106.3 17.5 106.3 17.5 L 104.1 17.5 Z M 121.2 15.7 C 121.4 15.7 121.7 15.6 122.1 15.6 C 122.1 15.6 122.4 17.4 122.4 17.4 C 121.8 17.6 121.3 17.6 120.8 17.6 C 120 17.6 119.5 17.5 119 17.3 C 118.6 17 118.3 16.7 118.1 16.3 C 118 15.9 117.9 15.1 117.9 13.8 C 117.88 13.83 117.9 6.7 117.9 6.7 L 116.3 6.7 L 116.3 5 L 117.9 5 L 117.9 1.9 L 120 0.7 L 120 5 L 122.1 5 L 122.1 6.7 L 120 6.7 C 120 6.7 119.98 13.95 120 13.9 C 120 14.5 120 14.9 120.1 15.1 C 120.2 15.3 120.3 15.4 120.5 15.5 C 120.6 15.6 120.9 15.7 121.2 15.7 C 121.2 15.7 121.2 15.7 121.2 15.7 Z M 124.2 2.7 L 124.2 0.3 L 126.3 0.3 L 126.3 2.7 L 124.2 2.7 Z M 124.2 17.5 L 124.2 5 L 126.3 5 L 126.3 17.5 L 124.2 17.5 Z M 137.6 12.9 C 137.6 12.9 139.7 13.2 139.7 13.2 C 139.5 14.6 138.9 15.7 137.9 16.5 C 137 17.3 135.9 17.8 134.5 17.8 C 132.8 17.8 131.4 17.2 130.4 16.1 C 129.4 15 128.8 13.4 128.8 11.3 C 128.8 10 129.1 8.8 129.5 7.8 C 130 6.8 130.6 6 131.6 5.5 C 132.5 5 133.5 4.7 134.5 4.7 C 135.9 4.7 137 5.1 137.8 5.8 C 138.7 6.5 139.2 7.4 139.5 8.7 C 139.5 8.7 137.4 9 137.4 9 C 137.2 8.2 136.9 7.5 136.4 7.1 C 135.9 6.7 135.3 6.5 134.6 6.5 C 133.5 6.5 132.7 6.9 132 7.6 C 131.3 8.4 131 9.6 131 11.2 C 131 12.9 131.3 14.1 132 14.9 C 132.6 15.6 133.5 16 134.5 16 C 135.3 16 136 15.8 136.6 15.3 C 137.1 14.8 137.5 14 137.6 12.9 Z M 141.5 2.7 L 141.5 0.3 L 143.6 0.3 L 143.6 2.7 L 141.5 2.7 Z M 141.5 17.5 L 141.5 5 L 143.6 5 L 143.6 17.5 L 141.5 17.5 Z M 150.5 15.7 C 150.7 15.7 151 15.6 151.4 15.6 C 151.4 15.6 151.7 17.4 151.7 17.4 C 151.1 17.6 150.6 17.6 150.1 17.6 C 149.4 17.6 148.8 17.5 148.4 17.3 C 147.9 17 147.6 16.7 147.5 16.3 C 147.3 15.9 147.2 15.1 147.2 13.8 C 147.21 13.83 147.2 6.7 147.2 6.7 L 145.7 6.7 L 145.7 5 L 147.2 5 L 147.2 1.9 L 149.3 0.7 L 149.3 5 L 151.4 5 L 151.4 6.7 L 149.3 6.7 C 149.3 6.7 149.31 13.95 149.3 13.9 C 149.3 14.5 149.3 14.9 149.4 15.1 C 149.5 15.3 149.6 15.4 149.8 15.5 C 150 15.6 150.2 15.7 150.5 15.7 C 150.5 15.7 150.5 15.7 150.5 15.7 Z M 154.8 22.5 C 154.4 22.5 153.9 22.4 153.4 22.3 C 153.4 22.3 153.2 20.3 153.2 20.3 C 153.6 20.4 154 20.5 154.4 20.5 C 154.8 20.5 155.2 20.4 155.5 20.2 C 155.8 20.1 156 19.9 156.2 19.6 C 156.3 19.4 156.5 18.8 156.8 18 C 156.9 17.9 156.9 17.7 157 17.5 C 157.02 17.5 152.3 5 152.3 5 L 154.6 5 C 154.6 5 157.16 12.23 157.2 12.2 C 157.5 13.1 157.8 14.1 158.1 15.1 C 158.3 14.1 158.6 13.2 158.9 12.3 C 158.93 12.28 161.6 5 161.6 5 L 163.7 5 C 163.7 5 158.97 17.68 159 17.7 C 158.5 19.1 158.1 20 157.8 20.5 C 157.4 21.2 157 21.7 156.5 22 C 156 22.4 155.4 22.5 154.8 22.5 C 154.8 22.5 154.8 22.5 154.8 22.5 Z " stroke="none" fill="#000"/>  </g></svg>