<?xml version="1.0" standalone="no"?><!DOCTYPE svg PUBLIC "-//W3C//DTD SVG 1.1//EN" "http://www.w3.org/Graphics/SVG/1.1/DTD/svg11.dtd"><svg xmlns="http://www.w3.org/2000/svg" version="1.1" width="200px" height="20.5px" viewBox="0 -4 200 20.5" style="top:-4px">  <desc>Toolkits</desc>  <defs/>  <g id="Polygon49145">    <path d="M 3.1 8.7 L 3.1 1.2 L 0.3 1.2 L 0.3 0.1 L 7.1 0.1 L 7.1 1.2 L 4.2 1.2 L 4.2 8.7 L 3.1 8.7 Z M 6.4 5.6 C 6.4 4.5 6.7 3.6 7.4 3.1 C 7.9 2.6 8.5 2.4 9.3 2.4 C 10.2 2.4 10.9 2.7 11.4 3.2 C 12 3.8 12.2 4.5 12.2 5.5 C 12.2 6.3 12.1 7 11.9 7.4 C 11.6 7.9 11.3 8.2 10.8 8.5 C 10.4 8.7 9.9 8.9 9.3 8.9 C 8.4 8.9 7.7 8.6 7.2 8 C 6.7 7.5 6.4 6.7 6.4 5.6 Z M 7.5 5.6 C 7.5 6.4 7.7 7 8 7.4 C 8.4 7.8 8.8 8 9.3 8 C 9.8 8 10.3 7.8 10.6 7.4 C 11 7 11.1 6.4 11.1 5.6 C 11.1 4.8 11 4.2 10.6 3.8 C 10.3 3.4 9.8 3.2 9.3 3.2 C 8.8 3.2 8.4 3.4 8 3.8 C 7.7 4.2 7.5 4.8 7.5 5.6 Z M 13.1 5.6 C 13.1 4.5 13.4 3.6 14 3.1 C 14.6 2.6 15.2 2.4 16 2.4 C 16.8 2.4 17.5 2.7 18.1 3.2 C 18.6 3.8 18.9 4.5 18.9 5.5 C 18.9 6.3 18.8 7 18.5 7.4 C 18.3 7.9 18 8.2 17.5 8.5 C 17 8.7 16.5 8.9 16 8.9 C 15.1 8.9 14.4 8.6 13.9 8 C 13.3 7.5 13.1 6.7 13.1 5.6 Z M 14.2 5.6 C 14.2 6.4 14.3 7 14.7 7.4 C 15 7.8 15.5 8 16 8 C 16.5 8 16.9 7.8 17.3 7.4 C 17.6 7 17.8 6.4 17.8 5.6 C 17.8 4.8 17.6 4.2 17.3 3.8 C 16.9 3.4 16.5 3.2 16 3.2 C 15.5 3.2 15 3.4 14.7 3.8 C 14.3 4.2 14.2 4.8 14.2 5.6 Z M 20.1 8.7 L 20.1 0.1 L 21.2 0.1 L 21.2 8.7 L 20.1 8.7 Z M 22.8 8.7 L 22.8 0.1 L 23.9 0.1 L 23.9 5 L 26.4 2.5 L 27.7 2.5 L 25.3 4.8 L 28 8.7 L 26.7 8.7 L 24.6 5.6 L 23.9 6.3 L 23.9 8.7 L 22.8 8.7 Z M 28.8 1.4 L 28.8 0.1 L 29.9 0.1 L 29.9 1.4 L 28.8 1.4 Z M 28.8 8.7 L 28.8 2.5 L 29.9 2.5 L 29.9 8.7 L 28.8 8.7 Z M 33.3 7.8 C 33.4 7.8 33.6 7.8 33.8 7.8 C 33.8 7.8 33.9 8.7 33.9 8.7 C 33.6 8.8 33.4 8.8 33.1 8.8 C 32.7 8.8 32.4 8.8 32.2 8.6 C 32 8.5 31.9 8.4 31.8 8.2 C 31.7 8 31.7 7.5 31.7 6.9 C 31.66 6.91 31.7 3.3 31.7 3.3 L 30.9 3.3 L 30.9 2.5 L 31.7 2.5 L 31.7 1 L 32.7 0.3 L 32.7 2.5 L 33.8 2.5 L 33.8 3.3 L 32.7 3.3 C 32.7 3.3 32.71 6.97 32.7 7 C 32.7 7.3 32.7 7.5 32.8 7.6 C 32.8 7.6 32.9 7.7 33 7.8 C 33 7.8 33.2 7.8 33.3 7.8 C 33.3 7.8 33.3 7.8 33.3 7.8 Z M 34.4 6.9 C 34.4 6.9 35.4 6.7 35.4 6.7 C 35.5 7.1 35.6 7.5 35.9 7.7 C 36.2 7.9 36.6 8 37 8 C 37.5 8 37.9 7.9 38.1 7.7 C 38.3 7.5 38.5 7.3 38.5 7 C 38.5 6.8 38.4 6.6 38.2 6.5 C 38 6.4 37.7 6.2 37.1 6.1 C 36.3 5.9 35.8 5.7 35.5 5.6 C 35.2 5.5 34.9 5.3 34.8 5 C 34.6 4.7 34.6 4.5 34.6 4.2 C 34.6 3.9 34.6 3.6 34.7 3.4 C 34.9 3.2 35 3 35.3 2.8 C 35.4 2.7 35.7 2.6 35.9 2.5 C 36.2 2.4 36.5 2.4 36.8 2.4 C 37.3 2.4 37.8 2.4 38.1 2.6 C 38.5 2.7 38.8 2.9 39 3.2 C 39.1 3.4 39.2 3.7 39.3 4.1 C 39.3 4.1 38.3 4.3 38.3 4.3 C 38.2 3.9 38.1 3.7 37.9 3.5 C 37.7 3.3 37.3 3.2 36.9 3.2 C 36.4 3.2 36.1 3.3 35.9 3.5 C 35.7 3.6 35.6 3.8 35.6 4 C 35.6 4.2 35.6 4.3 35.7 4.4 C 35.8 4.5 35.9 4.6 36.1 4.7 C 36.2 4.7 36.5 4.8 37 5 C 37.8 5.2 38.3 5.3 38.6 5.5 C 38.9 5.6 39.1 5.8 39.3 6 C 39.5 6.2 39.6 6.5 39.6 6.9 C 39.6 7.3 39.4 7.6 39.2 7.9 C 39 8.2 38.7 8.5 38.4 8.6 C 38 8.8 37.5 8.9 37 8.9 C 36.2 8.9 35.6 8.7 35.2 8.4 C 34.8 8 34.5 7.5 34.4 6.9 Z " stroke="none" fill="#000"/>  </g></svg>