<?xml version="1.0" standalone="no"?><!DOCTYPE svg PUBLIC "-//W3C//DTD SVG 1.1//EN" "http://www.w3.org/Graphics/SVG/1.1/DTD/svg11.dtd"><svg xmlns="http://www.w3.org/2000/svg" version="1.1" width="508px" height="90.3px" viewBox="0 -14 508 90.3" style="top:-14px">  <desc>Client Feedback</desc>  <defs/>  <g id="Polygon5565">    <path d="M 39.2 5.6 C 39.2 5.6 39.2 11.8 39.2 11.8 C 34.8 9.4 30 7.7 25 7.7 C 15 7.7 8.8 15.4 8.8 23.4 C 8.8 31.4 14.8 38.8 25 38.8 C 30.3 38.8 35.2 37.2 39.6 34.3 C 39.6 34.3 39.6 40.7 39.6 40.7 C 34.8 43.3 29.9 44.3 24.7 44.3 C 9.7 44.3 2.7 32.9 2.7 23.3 C 2.7 11.3 12.7 2.3 24.8 2.3 C 29.4 2.3 34.3 3.4 39.2 5.6 Z M 52.7 2.8 L 52.7 38.4 L 71.2 38.4 L 71.2 43.7 L 46.8 43.7 L 46.8 2.8 L 52.7 2.8 Z M 82.1 2.8 L 82.1 43.7 L 76.3 43.7 L 76.3 2.8 L 82.1 2.8 Z M 114.4 2.8 L 114.4 8 L 97 8 L 97 20.5 L 113.8 20.5 L 113.8 25.7 L 97 25.7 L 97 38.5 L 114.9 38.5 L 114.9 43.7 L 91.1 43.7 L 91.1 2.8 L 114.4 2.8 Z M 127.3 2.8 L 154.7 34.6 L 154.7 2.8 L 160.3 2.8 L 160.3 43.7 L 155.2 43.7 L 128 12.2 L 128 43.7 L 122.4 43.7 L 122.4 2.8 L 127.3 2.8 Z M 200 2.8 L 200 8 L 185.8 8 L 185.8 43.7 L 179.9 43.7 L 179.9 8 L 165.8 8 L 165.8 2.8 L 200 2.8 Z M 244.1 2.8 L 244.1 8.1 L 228.1 8.1 L 228.1 19.4 L 244.1 19.4 L 244.1 24.7 L 228.1 24.7 L 228.1 43.7 L 222.2 43.7 L 222.2 2.8 L 244.1 2.8 Z M 273.5 2.8 L 273.5 8 L 256.2 8 L 256.2 20.5 L 272.9 20.5 L 272.9 25.7 L 256.2 25.7 L 256.2 38.5 L 274.1 38.5 L 274.1 43.7 L 250.3 43.7 L 250.3 2.8 L 273.5 2.8 Z M 304.8 2.8 L 304.8 8 L 287.5 8 L 287.5 20.5 L 304.2 20.5 L 304.2 25.7 L 287.5 25.7 L 287.5 38.5 L 305.3 38.5 L 305.3 43.7 L 281.6 43.7 L 281.6 2.8 L 304.8 2.8 Z M 328.4 2.8 C 342.1 2.8 350.5 11.3 350.5 22.8 C 350.5 35.5 341.4 43.7 328.4 43.7 C 328.44 43.74 312.8 43.7 312.8 43.7 L 312.8 2.8 C 312.8 2.8 328.38 2.82 328.4 2.8 Z M 328.1 38.5 C 338.5 38.5 344.4 32.7 344.4 23 C 344.4 14.2 338.9 8 327.3 8 C 327.3 8.04 318.7 8 318.7 8 L 318.7 38.5 C 318.7 38.5 328.14 38.46 328.1 38.5 Z M 369.5 2.8 C 377.8 2.8 382.1 7.3 382.1 13.4 C 382.1 17.5 379.9 20.4 375.9 22.1 C 382 23.2 385.7 27.5 385.7 32.6 C 385.7 40.7 378 43.7 370.7 43.7 C 370.74 43.74 357.7 43.7 357.7 43.7 L 357.7 2.8 C 357.7 2.8 369.48 2.82 369.5 2.8 Z M 363.5 20.5 C 363.5 20.5 367.62 20.46 367.6 20.5 C 373.8 20.5 376.1 17.3 376.1 13.9 C 376.1 9.8 373.9 8 368.5 8 C 368.52 7.98 363.5 8 363.5 8 L 363.5 20.5 Z M 369.7 38.6 C 376.4 38.6 379.6 36.5 379.6 32 C 379.6 28.1 376.9 25.5 369.4 25.5 C 369.42 25.5 363.5 25.5 363.5 25.5 L 363.5 38.6 C 363.5 38.6 369.66 38.58 369.7 38.6 Z M 409.7 2.6 L 428 43.7 L 422 43.7 L 416.5 31.7 L 399.1 31.7 L 394 43.7 L 388 43.7 L 405.5 2.6 L 409.7 2.6 Z M 401.3 26.4 L 414.2 26.4 L 407.6 10.6 L 401.3 26.4 Z M 465.4 5.6 C 465.4 5.6 465.4 11.8 465.4 11.8 C 461 9.4 456.2 7.7 451.2 7.7 C 441.2 7.7 435 15.4 435 23.4 C 435 31.4 440.9 38.8 451.1 38.8 C 456.5 38.8 461.3 37.2 465.8 34.3 C 465.8 34.3 465.8 40.7 465.8 40.7 C 461 43.3 456.1 44.3 450.9 44.3 C 435.8 44.3 428.9 32.9 428.9 23.3 C 428.9 11.3 438.8 2.3 451 2.3 C 455.6 2.3 460.4 3.4 465.4 5.6 Z M 478.9 2.8 L 478.9 21.5 L 496.1 2.8 L 503.5 2.8 L 485.7 22.2 L 507.8 43.7 L 499.8 43.7 L 478.9 23.5 L 478.9 43.7 L 473 43.7 L 473 2.8 L 478.9 2.8 Z " stroke="none" fill="#010102"/>  </g></svg>