<?xml version="1.0" standalone="no"?><!DOCTYPE svg PUBLIC "-//W3C//DTD SVG 1.1//EN" "http://www.w3.org/Graphics/SVG/1.1/DTD/svg11.dtd"><svg xmlns="http://www.w3.org/2000/svg" version="1.1" width="147px" height="103.4px" viewBox="0 -5 147 103.4" style="top:-5px">  <desc>Training Developing Sales Excellence</desc>  <defs/>  <g id="Polygon47047">    <path d="M 9 72.9 L 9 74.3 L 3 74.3 L 3 79 L 8.8 79 L 8.8 80.4 L 3 80.4 L 3 85.2 L 9.2 85.2 L 9.2 86.6 L 1.5 86.6 L 1.5 72.9 L 9 72.9 Z M 12.8 72.9 C 14.9 75.5 15.5 76.2 17.5 78.5 C 18.9 76.8 20.4 75.1 22.1 72.9 C 22.12 72.94 23.9 72.9 23.9 72.9 L 18.4 79.5 L 24.3 86.6 L 22.5 86.6 L 17.5 80.6 L 12.4 86.6 L 10.5 86.6 L 16.5 79.5 L 10.9 72.9 C 10.9 72.9 12.76 72.94 12.8 72.9 Z M 36.3 73.8 C 36.3 73.8 36.3 75.5 36.3 75.5 C 34.9 74.6 33.3 74.2 31.7 74.2 C 28.2 74.2 26 76.8 26 79.8 C 26 82.8 28.2 85.4 31.7 85.4 C 33.4 85.4 35 84.9 36.4 84 C 36.4 84 36.4 85.6 36.4 85.6 C 34.9 86.4 33.3 86.8 31.6 86.8 C 26.9 86.8 24.5 83.2 24.5 79.8 C 24.5 75.8 27.6 72.8 31.7 72.8 C 33.2 72.8 34.8 73.1 36.3 73.8 Z M 46.2 72.9 L 46.2 74.3 L 40.3 74.3 L 40.3 79 L 46 79 L 46 80.4 L 40.3 80.4 L 40.3 85.2 L 46.4 85.2 L 46.4 86.6 L 38.8 86.6 L 38.8 72.9 L 46.2 72.9 Z M 50.3 72.9 L 50.3 85.2 L 56.7 85.2 L 56.7 86.6 L 48.8 86.6 L 48.8 72.9 L 50.3 72.9 Z M 60 72.9 L 60 85.2 L 66.4 85.2 L 66.4 86.6 L 58.5 86.6 L 58.5 72.9 L 60 72.9 Z M 75.6 72.9 L 75.6 74.3 L 69.6 74.3 L 69.6 79 L 75.4 79 L 75.4 80.4 L 69.6 80.4 L 69.6 85.2 L 75.8 85.2 L 75.8 86.6 L 68.1 86.6 L 68.1 72.9 L 75.6 72.9 Z M 79.4 72.9 L 89.1 84.2 L 89.1 72.9 L 90.5 72.9 L 90.5 86.6 L 89.2 86.6 L 79.6 75.3 L 79.6 86.6 L 78.2 86.6 L 78.2 72.9 L 79.4 72.9 Z M 104.8 73.8 C 104.8 73.8 104.8 75.5 104.8 75.5 C 103.4 74.6 101.8 74.2 100.2 74.2 C 96.7 74.2 94.5 76.8 94.5 79.8 C 94.5 82.8 96.7 85.4 100.2 85.4 C 101.9 85.4 103.5 84.9 104.9 84 C 104.9 84 104.9 85.6 104.9 85.6 C 103.4 86.4 101.8 86.8 100.2 86.8 C 95.4 86.8 93 83.2 93 79.8 C 93 75.8 96.1 72.8 100.2 72.8 C 101.7 72.8 103.3 73.1 104.8 73.8 Z M 114.8 72.9 L 114.8 74.3 L 108.8 74.3 L 108.8 79 L 114.6 79 L 114.6 80.4 L 108.8 80.4 L 108.8 85.2 L 114.9 85.2 L 114.9 86.6 L 107.3 86.6 L 107.3 72.9 L 114.8 72.9 Z " stroke="none" fill="#000000"/>  </g>  <g id="Polygon47046">    <path d="M 7.9 49.6 C 7.9 49.6 7.9 51.3 7.9 51.3 C 6.9 50.5 5.9 50.1 4.8 50.1 C 3.3 50.1 2.4 50.9 2.4 52.1 C 2.4 53 2.6 53.8 4.9 54.9 C 7.7 56.4 8.4 57.4 8.4 59.2 C 8.4 61.2 6.8 62.8 4.5 62.8 C 3.2 62.8 2 62.3 0.9 61.6 C 0.9 61.6 0.9 59.7 0.9 59.7 C 2 60.8 3.2 61.4 4.5 61.4 C 5.9 61.4 6.9 60.6 6.9 59.2 C 6.9 58.1 6.5 57.4 3.8 56 C 1.7 54.9 0.9 53.9 0.9 52.1 C 0.9 50.2 2.5 48.8 4.8 48.8 C 5.9 48.8 6.9 49.1 7.9 49.6 Z M 16.2 48.9 L 22.3 62.6 L 20.7 62.6 L 18.8 58.3 L 12.6 58.3 L 10.8 62.6 L 9.2 62.6 L 15.1 48.9 L 16.2 48.9 Z M 13.2 57 L 18.2 57 L 15.6 51.2 L 13.2 57 Z M 25.3 48.9 L 25.3 61.2 L 31.7 61.2 L 31.7 62.6 L 23.8 62.6 L 23.8 48.9 L 25.3 48.9 Z M 40.9 48.9 L 40.9 50.3 L 35 50.3 L 35 55 L 40.7 55 L 40.7 56.4 L 35 56.4 L 35 61.2 L 41.1 61.2 L 41.1 62.6 L 33.5 62.6 L 33.5 48.9 L 40.9 48.9 Z M 49.8 49.6 C 49.8 49.6 49.8 51.3 49.8 51.3 C 48.9 50.5 47.9 50.1 46.8 50.1 C 45.3 50.1 44.4 50.9 44.4 52.1 C 44.4 53 44.6 53.8 46.9 54.9 C 49.7 56.4 50.4 57.4 50.4 59.2 C 50.4 61.2 48.8 62.8 46.5 62.8 C 45.2 62.8 44 62.3 42.9 61.6 C 42.9 61.6 42.9 59.7 42.9 59.7 C 43.9 60.8 45.1 61.4 46.5 61.4 C 47.8 61.4 48.8 60.6 48.8 59.2 C 48.8 58.1 48.5 57.4 45.8 56 C 43.7 54.9 42.9 53.9 42.9 52.1 C 42.9 50.2 44.5 48.8 46.8 48.8 C 47.9 48.8 48.9 49.1 49.8 49.6 Z " stroke="none" fill="#000000"/>  </g>  <g id="Polygon47045">    <path d="M 1.5 24.9 C 1.5 24.9 6.56 24.94 6.6 24.9 C 11 24.9 13.9 27.7 13.9 31.6 C 13.9 35.9 10.9 38.6 6.6 38.6 C 6.56 38.58 1.5 38.6 1.5 38.6 L 1.5 24.9 Z M 6.5 37.2 C 10.1 37.2 12.3 35.1 12.3 31.7 C 12.3 28.4 10.2 26.3 6.3 26.3 C 6.32 26.28 3 26.3 3 26.3 L 3 37.2 C 3 37.2 6.54 37.22 6.5 37.2 Z M 23.9 24.9 L 23.9 26.3 L 17.9 26.3 L 17.9 31 L 23.7 31 L 23.7 32.4 L 17.9 32.4 L 17.9 37.2 L 24 37.2 L 24 38.6 L 16.4 38.6 L 16.4 24.9 L 23.9 24.9 Z M 25.3 24.9 L 26.8 24.9 L 31.2 35.6 L 31.2 35.6 L 35.6 24.9 L 37.1 24.9 L 31.4 38.7 L 31 38.7 L 25.3 24.9 Z M 46.2 24.9 L 46.2 26.3 L 40.2 26.3 L 40.2 31 L 46 31 L 46 32.4 L 40.2 32.4 L 40.2 37.2 L 46.3 37.2 L 46.3 38.6 L 38.7 38.6 L 38.7 24.9 L 46.2 24.9 Z M 50.2 24.9 L 50.2 37.2 L 56.7 37.2 L 56.7 38.6 L 48.7 38.6 L 48.7 24.9 L 50.2 24.9 Z M 71.4 31.7 C 71.4 35.5 68.6 38.8 64.1 38.8 C 59.9 38.8 57 35.5 57 31.8 C 57 28 59.7 24.8 64.2 24.8 C 68.5 24.8 71.4 27.9 71.4 31.7 Z M 58.6 31.8 C 58.6 35 61.1 37.4 64.1 37.3 C 68.2 37.3 69.8 34.2 69.8 31.7 C 69.8 29 67.8 26.2 64.2 26.2 C 60.5 26.2 58.6 29 58.6 31.8 Z M 77.7 24.9 C 80.5 24.9 82.1 26.3 82.1 28.7 C 82.1 31.2 80.4 32.4 77.5 32.4 C 77.48 32.44 75.4 32.4 75.4 32.4 L 75.4 38.6 L 73.9 38.6 L 73.9 24.9 C 73.9 24.9 77.74 24.94 77.7 24.9 Z M 75.4 31.1 C 75.4 31.1 77.44 31.12 77.4 31.1 C 79.7 31.1 80.6 30.2 80.6 28.7 C 80.6 27.1 79.7 26.3 77.4 26.3 C 77.44 26.26 75.4 26.3 75.4 26.3 L 75.4 31.1 Z M 85.7 24.9 L 85.7 38.6 L 84.2 38.6 L 84.2 24.9 L 85.7 24.9 Z M 90 24.9 L 99.7 36.2 L 99.7 24.9 L 101.1 24.9 L 101.1 38.6 L 99.8 38.6 L 90.2 27.3 L 90.2 38.6 L 88.8 38.6 L 88.8 24.9 L 90 24.9 Z M 115.5 27.4 C 114 26.6 112.3 26.1 110.8 26.1 C 107.6 26.1 105.2 28.5 105.2 31.7 C 105.2 35.1 107.5 37.4 110.9 37.4 C 112 37.4 112.8 37.2 114.2 36.7 C 114.24 36.72 114.2 33.4 114.2 33.4 L 111.5 33.4 L 111.5 32.1 L 115.7 32.1 C 115.7 32.1 115.74 37.64 115.7 37.6 C 114.2 38.4 112.7 38.8 110.9 38.8 C 106 38.8 103.6 35.3 103.6 31.8 C 103.6 28 106.5 24.8 110.8 24.8 C 112.4 24.8 113.7 25.1 115.5 25.9 C 115.5 25.9 115.5 27.4 115.5 27.4 Z " stroke="none" fill="#000000"/>  </g>  <g id="Polygon47044">    <path d="M 8.6 4.3 L 8.6 5.3 L 5 5.3 L 5 14.6 L 3.8 14.6 L 3.8 5.3 L 0.2 5.3 L 0.2 4.3 L 8.6 4.3 Z M 10 4.3 C 10 4.3 12.69 4.35 12.7 4.3 C 14.7 4.3 15.8 5.5 15.8 7.1 C 15.8 8.4 15.1 9.2 13.9 9.6 C 14.5 10 14.8 10.2 15.7 11.5 C 15.67 11.52 17.7 14.6 17.7 14.6 L 16.3 14.6 C 16.3 14.6 14.52 11.76 14.5 11.8 C 13.6 10.3 12.9 9.9 12.1 9.9 C 12.07 9.93 11.1 9.9 11.1 9.9 L 11.1 14.6 L 10 14.6 L 10 4.3 Z M 12.2 8.9 C 13.6 8.9 14.7 8.6 14.7 7.1 C 14.7 5.8 13.8 5.3 12.5 5.3 C 12.54 5.34 11.1 5.3 11.1 5.3 L 11.1 8.9 C 11.1 8.9 12.18 8.94 12.2 8.9 Z M 22.9 4.3 L 27.4 14.6 L 26.3 14.6 L 24.8 11.4 L 20.2 11.4 L 18.8 14.6 L 17.7 14.6 L 22.1 4.3 L 22.9 4.3 Z M 20.6 10.4 L 24.4 10.4 L 22.5 6 L 20.6 10.4 Z M 29.7 4.3 L 29.7 14.6 L 28.6 14.6 L 28.6 4.3 L 29.7 4.3 Z M 33 4.3 L 40.2 12.8 L 40.2 4.3 L 41.3 4.3 L 41.3 14.6 L 40.3 14.6 L 33.1 6.1 L 33.1 14.6 L 32 14.6 L 32 4.3 L 33 4.3 Z M 44.7 4.3 L 44.7 14.6 L 43.6 14.6 L 43.6 4.3 L 44.7 4.3 Z M 47.9 4.3 L 55.2 12.8 L 55.2 4.3 L 56.2 4.3 L 56.2 14.6 L 55.3 14.6 L 48.1 6.1 L 48.1 14.6 L 47 14.6 L 47 4.3 L 47.9 4.3 Z M 67 6.2 C 65.9 5.6 64.6 5.2 63.5 5.2 C 61.1 5.2 59.3 7 59.3 9.4 C 59.3 11.9 61 13.7 63.6 13.7 C 64.4 13.7 65 13.6 66.1 13.2 C 66.07 13.18 66.1 10.7 66.1 10.7 L 64 10.7 L 64 9.7 L 67.2 9.7 C 67.2 9.7 67.2 13.87 67.2 13.9 C 66 14.4 64.9 14.7 63.6 14.7 C 59.9 14.7 58.1 12.1 58.1 9.5 C 58.1 6.6 60.2 4.2 63.5 4.2 C 64.7 4.2 65.6 4.5 67 5.1 C 67 5.1 67 6.2 67 6.2 Z " stroke="none" fill="#f28620"/>  </g></svg>