<?xml version="1.0" standalone="no"?><!DOCTYPE svg PUBLIC "-//W3C//DTD SVG 1.1//EN" "http://www.w3.org/Graphics/SVG/1.1/DTD/svg11.dtd"><svg xmlns="http://www.w3.org/2000/svg" version="1.1" width="545.4px" height="120.1px" viewBox="0 -10 545.4 120.1" style="top:-10px">  <desc>Inspiring Authentic, enthusiastic, committed, supportive, ambassadorial and encouraging</desc>  <defs/>  <g id="Polygon16425">    <path d="M 10.1 96 C 9.9 95.5 9.8 95 9.7 94.4 C 8.9 95.1 8.2 95.6 7.4 95.8 C 6.7 96.1 5.9 96.2 5.1 96.2 C 3.8 96.2 2.7 95.9 2 95.2 C 1.2 94.6 0.9 93.7 0.9 92.7 C 0.9 92.1 1 91.5 1.3 91 C 1.6 90.5 1.9 90.1 2.4 89.8 C 2.8 89.5 3.3 89.3 3.9 89.1 C 4.3 89 4.9 88.9 5.8 88.8 C 7.5 88.6 8.7 88.3 9.5 88.1 C 9.5 87.8 9.5 87.6 9.5 87.5 C 9.5 86.7 9.3 86 8.9 85.7 C 8.4 85.2 7.6 85 6.5 85 C 5.5 85 4.8 85.2 4.3 85.5 C 3.9 85.8 3.5 86.5 3.3 87.3 C 3.3 87.3 1.2 87.1 1.2 87.1 C 1.4 86.2 1.7 85.5 2.2 84.9 C 2.6 84.4 3.2 84 4 83.7 C 4.8 83.4 5.8 83.2 6.8 83.2 C 7.9 83.2 8.8 83.4 9.4 83.6 C 10.1 83.9 10.6 84.2 10.9 84.6 C 11.2 84.9 11.4 85.4 11.6 86 C 11.6 86.3 11.7 87 11.7 87.9 C 11.7 87.9 11.7 90.7 11.7 90.7 C 11.7 92.7 11.7 93.9 11.8 94.5 C 11.9 95 12.1 95.5 12.3 96 C 12.33 95.96 10.1 96 10.1 96 C 10.1 96 10.13 95.96 10.1 96 Z M 9.5 89.7 C 8.8 90 7.6 90.3 6.1 90.5 C 5.2 90.6 4.6 90.8 4.2 90.9 C 3.9 91.1 3.6 91.3 3.4 91.6 C 3.2 91.9 3.1 92.3 3.1 92.6 C 3.1 93.2 3.3 93.7 3.8 94 C 4.2 94.4 4.8 94.6 5.6 94.6 C 6.4 94.6 7.2 94.4 7.8 94.1 C 8.4 93.7 8.9 93.2 9.2 92.6 C 9.4 92.1 9.5 91.4 9.5 90.5 C 9.5 90.5 9.5 89.7 9.5 89.7 Z M 14.9 96 L 14.9 83.5 L 16.8 83.5 C 16.8 83.5 16.82 85.26 16.8 85.3 C 17.2 84.7 17.7 84.2 18.4 83.8 C 19 83.4 19.8 83.2 20.6 83.2 C 21.5 83.2 22.3 83.4 22.9 83.8 C 23.4 84.2 23.9 84.7 24.1 85.4 C 25.1 84 26.4 83.2 27.9 83.2 C 29.2 83.2 30.1 83.6 30.8 84.3 C 31.5 84.9 31.8 86 31.8 87.4 C 31.79 87.42 31.8 96 31.8 96 L 29.7 96 C 29.7 96 29.7 88.12 29.7 88.1 C 29.7 87.3 29.6 86.7 29.5 86.3 C 29.4 85.9 29.1 85.6 28.7 85.4 C 28.4 85.2 28 85.1 27.5 85.1 C 26.6 85.1 25.9 85.4 25.3 85.9 C 24.7 86.5 24.4 87.4 24.4 88.7 C 24.43 88.73 24.4 96 24.4 96 L 22.3 96 C 22.3 96 22.32 87.87 22.3 87.9 C 22.3 86.9 22.2 86.2 21.8 85.8 C 21.5 85.3 20.9 85.1 20.1 85.1 C 19.5 85.1 19 85.2 18.5 85.5 C 18 85.8 17.6 86.3 17.4 86.9 C 17.2 87.5 17 88.4 17 89.5 C 17.04 89.5 17 96 17 96 L 14.9 96 Z M 36.9 96 L 34.9 96 L 34.9 78.8 L 37 78.8 C 37 78.8 37.02 84.91 37 84.9 C 37.9 83.8 39 83.2 40.4 83.2 C 41.2 83.2 41.9 83.4 42.6 83.7 C 43.3 84 43.8 84.4 44.3 85 C 44.7 85.6 45.1 86.2 45.3 87 C 45.6 87.8 45.7 88.7 45.7 89.5 C 45.7 91.7 45.2 93.3 44.1 94.5 C 43.1 95.7 41.8 96.2 40.3 96.2 C 38.9 96.2 37.7 95.6 36.9 94.4 C 36.87 94.4 36.9 96 36.9 96 Z M 36.8 89.6 C 36.8 91.1 37 92.2 37.5 92.9 C 38.1 94 39 94.5 40.1 94.5 C 41.1 94.5 41.9 94.1 42.5 93.3 C 43.2 92.5 43.5 91.3 43.5 89.7 C 43.5 88.1 43.2 86.9 42.6 86.1 C 41.9 85.4 41.2 85 40.2 85 C 39.3 85 38.5 85.4 37.9 86.2 C 37.2 87 36.8 88.1 36.8 89.6 Z M 56.8 96 C 56.6 95.5 56.5 95 56.4 94.4 C 55.6 95.1 54.9 95.6 54.1 95.8 C 53.4 96.1 52.6 96.2 51.8 96.2 C 50.4 96.2 49.4 95.9 48.7 95.2 C 47.9 94.6 47.6 93.7 47.6 92.7 C 47.6 92.1 47.7 91.5 48 91 C 48.2 90.5 48.6 90.1 49.1 89.8 C 49.5 89.5 50 89.3 50.6 89.1 C 51 89 51.6 88.9 52.5 88.8 C 54.2 88.6 55.4 88.3 56.2 88.1 C 56.2 87.8 56.2 87.6 56.2 87.5 C 56.2 86.7 56 86 55.6 85.7 C 55.1 85.2 54.3 85 53.2 85 C 52.2 85 51.5 85.2 51 85.5 C 50.6 85.8 50.2 86.5 50 87.3 C 50 87.3 47.9 87.1 47.9 87.1 C 48.1 86.2 48.4 85.5 48.8 84.9 C 49.3 84.4 49.9 84 50.7 83.7 C 51.5 83.4 52.5 83.2 53.5 83.2 C 54.6 83.2 55.5 83.4 56.1 83.6 C 56.8 83.9 57.3 84.2 57.6 84.6 C 57.9 84.9 58.1 85.4 58.2 86 C 58.3 86.3 58.3 87 58.3 87.9 C 58.3 87.9 58.3 90.7 58.3 90.7 C 58.3 92.7 58.4 93.9 58.5 94.5 C 58.6 95 58.7 95.5 59 96 C 59.02 95.96 56.8 96 56.8 96 C 56.8 96 56.81 95.96 56.8 96 Z M 56.2 89.7 C 55.4 90 54.3 90.3 52.8 90.5 C 51.9 90.6 51.3 90.8 50.9 90.9 C 50.6 91.1 50.3 91.3 50.1 91.6 C 49.9 91.9 49.8 92.3 49.8 92.6 C 49.8 93.2 50 93.7 50.4 94 C 50.9 94.4 51.5 94.6 52.3 94.6 C 53.1 94.6 53.8 94.4 54.5 94.1 C 55.1 93.7 55.6 93.2 55.9 92.6 C 56.1 92.1 56.2 91.4 56.2 90.5 C 56.2 90.5 56.2 89.7 56.2 89.7 Z M 60.8 92.2 C 60.8 92.2 62.9 91.9 62.9 91.9 C 63 92.8 63.3 93.4 63.8 93.8 C 64.4 94.3 65.1 94.5 66.1 94.5 C 67.1 94.5 67.8 94.3 68.2 93.9 C 68.7 93.5 68.9 93.1 68.9 92.5 C 68.9 92 68.7 91.7 68.3 91.4 C 68 91.2 67.3 91 66.2 90.7 C 64.6 90.3 63.5 90 62.9 89.7 C 62.3 89.4 61.9 89 61.6 88.5 C 61.3 88 61.1 87.4 61.1 86.8 C 61.1 86.3 61.3 85.8 61.5 85.3 C 61.8 84.8 62.1 84.4 62.5 84.1 C 62.9 83.9 63.3 83.7 63.9 83.5 C 64.5 83.3 65.1 83.2 65.7 83.2 C 66.7 83.2 67.5 83.4 68.3 83.7 C 69 83.9 69.6 84.3 69.9 84.8 C 70.3 85.3 70.5 85.9 70.6 86.7 C 70.6 86.7 68.6 87 68.6 87 C 68.5 86.4 68.2 85.9 67.8 85.5 C 67.3 85.1 66.7 85 65.9 85 C 64.9 85 64.2 85.1 63.8 85.4 C 63.4 85.8 63.2 86.1 63.2 86.6 C 63.2 86.8 63.2 87.1 63.4 87.3 C 63.6 87.5 63.9 87.7 64.2 87.9 C 64.4 88 65.1 88.1 66.1 88.4 C 67.6 88.8 68.6 89.1 69.2 89.4 C 69.8 89.6 70.3 90 70.6 90.5 C 70.9 91 71.1 91.6 71.1 92.3 C 71.1 93 70.9 93.7 70.5 94.3 C 70.1 94.9 69.5 95.4 68.7 95.7 C 67.9 96.1 67.1 96.2 66.1 96.2 C 64.5 96.2 63.2 95.9 62.4 95.2 C 61.5 94.6 61 93.6 60.8 92.2 Z M 72.8 92.2 C 72.8 92.2 74.9 91.9 74.9 91.9 C 75 92.8 75.3 93.4 75.8 93.8 C 76.4 94.3 77.1 94.5 78.1 94.5 C 79.1 94.5 79.8 94.3 80.2 93.9 C 80.7 93.5 80.9 93.1 80.9 92.5 C 80.9 92 80.7 91.7 80.3 91.4 C 80 91.2 79.3 91 78.2 90.7 C 76.6 90.3 75.5 90 74.9 89.7 C 74.3 89.4 73.9 89 73.6 88.5 C 73.3 88 73.1 87.4 73.1 86.8 C 73.1 86.3 73.3 85.8 73.5 85.3 C 73.8 84.8 74.1 84.4 74.5 84.1 C 74.9 83.9 75.3 83.7 75.9 83.5 C 76.5 83.3 77.1 83.2 77.7 83.2 C 78.7 83.2 79.5 83.4 80.3 83.7 C 81 83.9 81.6 84.3 81.9 84.8 C 82.3 85.3 82.5 85.9 82.6 86.7 C 82.6 86.7 80.6 87 80.6 87 C 80.5 86.4 80.2 85.9 79.8 85.5 C 79.3 85.1 78.7 85 77.9 85 C 76.9 85 76.2 85.1 75.8 85.4 C 75.4 85.8 75.2 86.1 75.2 86.6 C 75.2 86.8 75.2 87.1 75.4 87.3 C 75.6 87.5 75.9 87.7 76.2 87.9 C 76.4 88 77.1 88.1 78.1 88.4 C 79.6 88.8 80.6 89.1 81.2 89.4 C 81.8 89.6 82.3 90 82.6 90.5 C 82.9 91 83.1 91.6 83.1 92.3 C 83.1 93 82.9 93.7 82.5 94.3 C 82.1 94.9 81.5 95.4 80.7 95.7 C 79.9 96.1 79.1 96.2 78.1 96.2 C 76.5 96.2 75.2 95.9 74.4 95.2 C 73.5 94.6 73 93.6 72.8 92.2 Z M 94.2 96 C 93.9 95.5 93.8 95 93.7 94.4 C 93 95.1 92.2 95.6 91.5 95.8 C 90.8 96.1 90 96.2 89.2 96.2 C 87.8 96.2 86.7 95.9 86 95.2 C 85.3 94.6 84.9 93.7 84.9 92.7 C 84.9 92.1 85 91.5 85.3 91 C 85.6 90.5 86 90.1 86.4 89.8 C 86.9 89.5 87.4 89.3 87.9 89.1 C 88.3 89 89 88.9 89.8 88.8 C 91.5 88.6 92.8 88.3 93.6 88.1 C 93.6 87.8 93.6 87.6 93.6 87.5 C 93.6 86.7 93.4 86 93 85.7 C 92.4 85.2 91.6 85 90.6 85 C 89.6 85 88.8 85.2 88.4 85.5 C 87.9 85.8 87.6 86.5 87.3 87.3 C 87.3 87.3 85.3 87.1 85.3 87.1 C 85.5 86.2 85.8 85.5 86.2 84.9 C 86.6 84.4 87.2 84 88.1 83.7 C 88.9 83.4 89.8 83.2 90.9 83.2 C 91.9 83.2 92.8 83.4 93.5 83.6 C 94.1 83.9 94.6 84.2 94.9 84.6 C 95.2 84.9 95.5 85.4 95.6 86 C 95.7 86.3 95.7 87 95.7 87.9 C 95.7 87.9 95.7 90.7 95.7 90.7 C 95.7 92.7 95.7 93.9 95.8 94.5 C 95.9 95 96.1 95.5 96.4 96 C 96.36 95.96 94.2 96 94.2 96 C 94.2 96 94.16 95.96 94.2 96 Z M 93.6 89.7 C 92.8 90 91.6 90.3 90.1 90.5 C 89.3 90.6 88.6 90.8 88.3 90.9 C 87.9 91.1 87.6 91.3 87.4 91.6 C 87.2 91.9 87.2 92.3 87.2 92.6 C 87.2 93.2 87.4 93.7 87.8 94 C 88.2 94.4 88.8 94.6 89.7 94.6 C 90.5 94.6 91.2 94.4 91.8 94.1 C 92.5 93.7 92.9 93.2 93.2 92.6 C 93.4 92.1 93.6 91.4 93.6 90.5 C 93.6 90.5 93.6 89.7 93.6 89.7 Z M 107 96 C 107 96 107.04 94.39 107 94.4 C 106.2 95.6 105.1 96.2 103.6 96.2 C 102.6 96.2 101.7 96 100.8 95.4 C 100 94.9 99.3 94.1 98.9 93.1 C 98.4 92.1 98.2 91 98.2 89.7 C 98.2 88.5 98.4 87.4 98.8 86.4 C 99.2 85.4 99.9 84.6 100.7 84 C 101.5 83.5 102.4 83.2 103.5 83.2 C 104.2 83.2 104.9 83.4 105.5 83.7 C 106.1 84 106.5 84.4 106.9 84.9 C 106.9 84.94 106.9 78.8 106.9 78.8 L 109 78.8 L 109 96 L 107 96 Z M 100.4 89.7 C 100.4 91.3 100.7 92.5 101.4 93.3 C 102.1 94.1 102.8 94.5 103.8 94.5 C 104.7 94.5 105.5 94.1 106.1 93.4 C 106.8 92.6 107.1 91.5 107.1 89.9 C 107.1 88.2 106.7 87 106.1 86.2 C 105.4 85.4 104.6 85 103.7 85 C 102.7 85 101.9 85.4 101.3 86.1 C 100.7 86.9 100.4 88.1 100.4 89.7 Z M 111.5 89.7 C 111.5 87.4 112.2 85.7 113.4 84.6 C 114.5 83.7 115.8 83.2 117.4 83.2 C 119.1 83.2 120.5 83.8 121.6 84.9 C 122.6 86 123.2 87.6 123.2 89.6 C 123.2 91.2 122.9 92.4 122.5 93.3 C 122 94.3 121.3 95 120.4 95.5 C 119.5 96 118.4 96.2 117.4 96.2 C 115.6 96.2 114.2 95.7 113.1 94.6 C 112.1 93.4 111.5 91.8 111.5 89.7 Z M 113.7 89.7 C 113.7 91.3 114 92.5 114.7 93.3 C 115.4 94.1 116.3 94.5 117.4 94.5 C 118.4 94.5 119.3 94.1 120 93.3 C 120.7 92.5 121 91.3 121 89.7 C 121 88.1 120.7 87 120 86.2 C 119.3 85.4 118.4 85 117.4 85 C 116.3 85 115.4 85.4 114.7 86.2 C 114 87 113.7 88.1 113.7 89.7 Z M 125.6 96 L 125.6 83.5 L 127.5 83.5 C 127.5 83.5 127.54 85.4 127.5 85.4 C 128 84.5 128.5 83.9 128.9 83.7 C 129.3 83.4 129.7 83.2 130.2 83.2 C 130.9 83.2 131.7 83.5 132.4 83.9 C 132.4 83.9 131.7 85.9 131.7 85.9 C 131.2 85.6 130.6 85.4 130.1 85.4 C 129.7 85.4 129.2 85.6 128.9 85.8 C 128.5 86.1 128.3 86.5 128.1 87 C 127.9 87.7 127.7 88.6 127.7 89.4 C 127.75 89.44 127.7 96 127.7 96 L 125.6 96 Z M 133.7 81.2 L 133.7 78.8 L 135.8 78.8 L 135.8 81.2 L 133.7 81.2 Z M 133.7 96 L 133.7 83.5 L 135.8 83.5 L 135.8 96 L 133.7 96 Z M 147.5 96 C 147.3 95.5 147.2 95 147.1 94.4 C 146.3 95.1 145.6 95.6 144.8 95.8 C 144.1 96.1 143.4 96.2 142.5 96.2 C 141.2 96.2 140.1 95.9 139.4 95.2 C 138.6 94.6 138.3 93.7 138.3 92.7 C 138.3 92.1 138.4 91.5 138.7 91 C 139 90.5 139.3 90.1 139.8 89.8 C 140.2 89.5 140.7 89.3 141.3 89.1 C 141.7 89 142.3 88.9 143.2 88.8 C 144.9 88.6 146.1 88.3 146.9 88.1 C 146.9 87.8 146.9 87.6 146.9 87.5 C 146.9 86.7 146.7 86 146.3 85.7 C 145.8 85.2 145 85 143.9 85 C 142.9 85 142.2 85.2 141.7 85.5 C 141.3 85.8 140.9 86.5 140.7 87.3 C 140.7 87.3 138.6 87.1 138.6 87.1 C 138.8 86.2 139.1 85.5 139.6 84.9 C 140 84.4 140.6 84 141.4 83.7 C 142.2 83.4 143.2 83.2 144.2 83.2 C 145.3 83.2 146.2 83.4 146.8 83.6 C 147.5 83.9 148 84.2 148.3 84.6 C 148.6 84.9 148.8 85.4 149 86 C 149 86.3 149.1 87 149.1 87.9 C 149.1 87.9 149.1 90.7 149.1 90.7 C 149.1 92.7 149.1 93.9 149.2 94.5 C 149.3 95 149.5 95.5 149.7 96 C 149.73 95.96 147.5 96 147.5 96 C 147.5 96 147.53 95.96 147.5 96 Z M 146.9 89.7 C 146.2 90 145 90.3 143.5 90.5 C 142.6 90.6 142 90.8 141.6 90.9 C 141.3 91.1 141 91.3 140.8 91.6 C 140.6 91.9 140.5 92.3 140.5 92.6 C 140.5 93.2 140.7 93.7 141.2 94 C 141.6 94.4 142.2 94.6 143 94.6 C 143.8 94.6 144.6 94.4 145.2 94.1 C 145.8 93.7 146.3 93.2 146.6 92.6 C 146.8 92.1 146.9 91.4 146.9 90.5 C 146.9 90.5 146.9 89.7 146.9 89.7 Z M 152.3 96 L 152.3 78.8 L 154.4 78.8 L 154.4 96 L 152.3 96 Z M 172.9 96 C 172.7 95.5 172.5 95 172.5 94.4 C 171.7 95.1 170.9 95.6 170.2 95.8 C 169.5 96.1 168.7 96.2 167.9 96.2 C 166.5 96.2 165.5 95.9 164.7 95.2 C 164 94.6 163.6 93.7 163.6 92.7 C 163.6 92.1 163.8 91.5 164 91 C 164.3 90.5 164.7 90.1 165.1 89.8 C 165.6 89.5 166.1 89.3 166.6 89.1 C 167.1 89 167.7 88.9 168.5 88.8 C 170.2 88.6 171.5 88.3 172.3 88.1 C 172.3 87.8 172.3 87.6 172.3 87.5 C 172.3 86.7 172.1 86 171.7 85.7 C 171.2 85.2 170.4 85 169.3 85 C 168.3 85 167.6 85.2 167.1 85.5 C 166.6 85.8 166.3 86.5 166 87.3 C 166 87.3 164 87.1 164 87.1 C 164.2 86.2 164.5 85.5 164.9 84.9 C 165.3 84.4 166 84 166.8 83.7 C 167.6 83.4 168.5 83.2 169.6 83.2 C 170.7 83.2 171.5 83.4 172.2 83.6 C 172.8 83.9 173.3 84.2 173.6 84.6 C 174 84.9 174.2 85.4 174.3 86 C 174.4 86.3 174.4 87 174.4 87.9 C 174.4 87.9 174.4 90.7 174.4 90.7 C 174.4 92.7 174.5 93.9 174.5 94.5 C 174.6 95 174.8 95.5 175.1 96 C 175.08 95.96 172.9 96 172.9 96 C 172.9 96 172.88 95.96 172.9 96 Z M 172.3 89.7 C 171.5 90 170.4 90.3 168.8 90.5 C 168 90.6 167.4 90.8 167 90.9 C 166.6 91.1 166.4 91.3 166.2 91.6 C 166 91.9 165.9 92.3 165.9 92.6 C 165.9 93.2 166.1 93.7 166.5 94 C 166.9 94.4 167.6 94.6 168.4 94.6 C 169.2 94.6 169.9 94.4 170.5 94.1 C 171.2 93.7 171.6 93.2 171.9 92.6 C 172.2 92.1 172.3 91.4 172.3 90.5 C 172.3 90.5 172.3 89.7 172.3 89.7 Z M 177.7 96 L 177.7 83.5 L 179.6 83.5 C 179.6 83.5 179.58 85.28 179.6 85.3 C 180.5 83.9 181.8 83.2 183.5 83.2 C 184.3 83.2 185 83.4 185.6 83.6 C 186.2 83.9 186.7 84.3 187 84.7 C 187.3 85.1 187.6 85.7 187.7 86.3 C 187.8 86.6 187.8 87.3 187.8 88.3 C 187.79 88.31 187.8 96 187.8 96 L 185.7 96 C 185.7 96 185.68 88.39 185.7 88.4 C 185.7 87.5 185.6 86.9 185.4 86.5 C 185.3 86 185 85.7 184.6 85.4 C 184.1 85.2 183.7 85.1 183.1 85.1 C 182.2 85.1 181.4 85.3 180.8 85.9 C 180.1 86.5 179.8 87.6 179.8 89.2 C 179.79 89.16 179.8 96 179.8 96 L 177.7 96 Z M 199.1 96 C 199.1 96 199.1 94.39 199.1 94.4 C 198.3 95.6 197.2 96.2 195.6 96.2 C 194.6 96.2 193.7 96 192.9 95.4 C 192.1 94.9 191.4 94.1 191 93.1 C 190.5 92.1 190.3 91 190.3 89.7 C 190.3 88.5 190.5 87.4 190.9 86.4 C 191.3 85.4 191.9 84.6 192.8 84 C 193.6 83.5 194.5 83.2 195.5 83.2 C 196.3 83.2 196.9 83.4 197.5 83.7 C 198.1 84 198.6 84.4 199 84.9 C 198.96 84.94 199 78.8 199 78.8 L 201.1 78.8 L 201.1 96 L 199.1 96 Z M 192.4 89.7 C 192.4 91.3 192.8 92.5 193.4 93.3 C 194.1 94.1 194.9 94.5 195.8 94.5 C 196.7 94.5 197.5 94.1 198.2 93.4 C 198.8 92.6 199.1 91.5 199.1 89.9 C 199.1 88.2 198.8 87 198.2 86.2 C 197.5 85.4 196.7 85 195.7 85 C 194.8 85 194 85.4 193.4 86.1 C 192.7 86.9 192.4 88.1 192.4 89.7 Z M 219.6 92 C 219.6 92 221.7 92.2 221.7 92.2 C 221.4 93.5 220.8 94.5 219.8 95.2 C 218.9 95.9 217.7 96.2 216.3 96.2 C 214.4 96.2 213 95.7 211.9 94.6 C 210.9 93.4 210.3 91.9 210.3 89.8 C 210.3 87.7 210.9 86.1 212 85 C 213 83.8 214.4 83.2 216.2 83.2 C 217.8 83.2 219.2 83.8 220.2 84.9 C 221.3 86.1 221.8 87.7 221.8 89.7 C 221.8 89.8 221.8 90 221.8 90.3 C 221.8 90.3 212.5 90.3 212.5 90.3 C 212.6 91.6 213 92.7 213.7 93.4 C 214.4 94.1 215.2 94.5 216.3 94.5 C 217.1 94.5 217.7 94.3 218.3 93.9 C 218.8 93.5 219.2 92.8 219.6 92 Z M 212.6 88.5 C 212.6 88.5 219.6 88.5 219.6 88.5 C 219.5 87.5 219.2 86.7 218.8 86.2 C 218.1 85.4 217.2 85 216.2 85 C 215.2 85 214.4 85.3 213.7 85.9 C 213.1 86.6 212.7 87.5 212.6 88.5 Z M 224.4 96 L 224.4 83.5 L 226.3 83.5 C 226.3 83.5 226.29 85.28 226.3 85.3 C 227.2 83.9 228.5 83.2 230.3 83.2 C 231 83.2 231.7 83.4 232.3 83.6 C 232.9 83.9 233.4 84.3 233.7 84.7 C 234 85.1 234.3 85.7 234.4 86.3 C 234.5 86.6 234.5 87.3 234.5 88.3 C 234.5 88.31 234.5 96 234.5 96 L 232.4 96 C 232.4 96 232.39 88.39 232.4 88.4 C 232.4 87.5 232.3 86.9 232.1 86.5 C 232 86 231.7 85.7 231.3 85.4 C 230.9 85.2 230.4 85.1 229.8 85.1 C 228.9 85.1 228.1 85.3 227.5 85.9 C 226.8 86.5 226.5 87.6 226.5 89.2 C 226.5 89.16 226.5 96 226.5 96 L 224.4 96 Z M 245.9 91.4 C 245.9 91.4 247.9 91.7 247.9 91.7 C 247.7 93.1 247.1 94.2 246.2 95 C 245.3 95.8 244.1 96.2 242.8 96.2 C 241.1 96.2 239.7 95.7 238.6 94.6 C 237.6 93.5 237.1 91.9 237.1 89.8 C 237.1 88.4 237.3 87.3 237.8 86.3 C 238.2 85.2 238.9 84.5 239.8 84 C 240.7 83.5 241.7 83.2 242.8 83.2 C 244.1 83.2 245.2 83.6 246.1 84.3 C 246.9 84.9 247.5 85.9 247.7 87.2 C 247.7 87.2 245.7 87.5 245.7 87.5 C 245.5 86.7 245.1 86 244.6 85.6 C 244.2 85.2 243.6 85 242.8 85 C 241.8 85 240.9 85.3 240.3 86.1 C 239.6 86.9 239.3 88.1 239.3 89.7 C 239.3 91.4 239.6 92.6 240.2 93.4 C 240.9 94.1 241.7 94.5 242.7 94.5 C 243.6 94.5 244.2 94.3 244.8 93.7 C 245.4 93.2 245.7 92.5 245.9 91.4 Z M 249 89.7 C 249 87.4 249.6 85.7 250.9 84.6 C 251.9 83.7 253.2 83.2 254.8 83.2 C 256.5 83.2 257.9 83.8 259 84.9 C 260.1 86 260.6 87.6 260.6 89.6 C 260.6 91.2 260.4 92.4 259.9 93.3 C 259.4 94.3 258.7 95 257.8 95.5 C 256.9 96 255.9 96.2 254.8 96.2 C 253 96.2 251.6 95.7 250.6 94.6 C 249.5 93.4 249 91.8 249 89.7 Z M 251.1 89.7 C 251.1 91.3 251.5 92.5 252.2 93.3 C 252.9 94.1 253.7 94.5 254.8 94.5 C 255.8 94.5 256.7 94.1 257.4 93.3 C 258.1 92.5 258.4 91.3 258.4 89.7 C 258.4 88.1 258.1 87 257.4 86.2 C 256.7 85.4 255.8 85 254.8 85 C 253.7 85 252.9 85.4 252.2 86.2 C 251.5 87 251.1 88.1 251.1 89.7 Z M 271.2 96 C 271.2 96 271.24 94.13 271.2 94.1 C 270.3 95.5 269 96.2 267.3 96.2 C 266.6 96.2 265.9 96.1 265.2 95.8 C 264.6 95.5 264.1 95.2 263.8 94.8 C 263.5 94.3 263.3 93.8 263.2 93.2 C 263.1 92.8 263 92.1 263 91.2 C 263.04 91.23 263 83.5 263 83.5 L 265.1 83.5 C 265.1 83.5 265.15 90.42 265.1 90.4 C 265.1 91.5 265.2 92.3 265.3 92.6 C 265.4 93.2 265.7 93.6 266.1 93.9 C 266.6 94.3 267.1 94.4 267.7 94.4 C 268.3 94.4 268.9 94.3 269.5 93.9 C 270.1 93.6 270.4 93.2 270.7 92.6 C 270.9 92.1 271 91.2 271 90.2 C 271.02 90.18 271 83.5 271 83.5 L 273.1 83.5 L 273.1 96 L 271.2 96 Z M 276.4 96 L 276.4 83.5 L 278.3 83.5 C 278.3 83.5 278.31 85.4 278.3 85.4 C 278.8 84.5 279.2 83.9 279.7 83.7 C 280.1 83.4 280.5 83.2 281 83.2 C 281.7 83.2 282.4 83.5 283.2 83.9 C 283.2 83.9 282.4 85.9 282.4 85.9 C 281.9 85.6 281.4 85.4 280.9 85.4 C 280.4 85.4 280 85.6 279.7 85.8 C 279.3 86.1 279 86.5 278.9 87 C 278.6 87.7 278.5 88.6 278.5 89.4 C 278.52 89.44 278.5 96 278.5 96 L 276.4 96 Z M 293 96 C 292.7 95.5 292.6 95 292.5 94.4 C 291.8 95.1 291 95.6 290.3 95.8 C 289.6 96.1 288.8 96.2 288 96.2 C 286.6 96.2 285.5 95.9 284.8 95.2 C 284.1 94.6 283.7 93.7 283.7 92.7 C 283.7 92.1 283.8 91.5 284.1 91 C 284.4 90.5 284.8 90.1 285.2 89.8 C 285.7 89.5 286.2 89.3 286.7 89.1 C 287.1 89 287.8 88.9 288.6 88.8 C 290.3 88.6 291.6 88.3 292.4 88.1 C 292.4 87.8 292.4 87.6 292.4 87.5 C 292.4 86.7 292.2 86 291.8 85.7 C 291.2 85.2 290.4 85 289.4 85 C 288.4 85 287.7 85.2 287.2 85.5 C 286.7 85.8 286.4 86.5 286.1 87.3 C 286.1 87.3 284.1 87.1 284.1 87.1 C 284.3 86.2 284.6 85.5 285 84.9 C 285.4 84.4 286.1 84 286.9 83.7 C 287.7 83.4 288.6 83.2 289.7 83.2 C 290.7 83.2 291.6 83.4 292.3 83.6 C 292.9 83.9 293.4 84.2 293.7 84.6 C 294.1 84.9 294.3 85.4 294.4 86 C 294.5 86.3 294.5 87 294.5 87.9 C 294.5 87.9 294.5 90.7 294.5 90.7 C 294.5 92.7 294.5 93.9 294.6 94.5 C 294.7 95 294.9 95.5 295.2 96 C 295.17 95.96 293 96 293 96 C 293 96 292.97 95.96 293 96 Z M 292.4 89.7 C 291.6 90 290.5 90.3 288.9 90.5 C 288.1 90.6 287.4 90.8 287.1 90.9 C 286.7 91.1 286.4 91.3 286.3 91.6 C 286.1 91.9 286 92.3 286 92.6 C 286 93.2 286.2 93.7 286.6 94 C 287 94.4 287.6 94.6 288.5 94.6 C 289.3 94.6 290 94.4 290.6 94.1 C 291.3 93.7 291.7 93.2 292 92.6 C 292.3 92.1 292.4 91.4 292.4 90.5 C 292.4 90.5 292.4 89.7 292.4 89.7 Z M 297.4 97 C 297.4 97 299.4 97.3 299.4 97.3 C 299.5 97.9 299.8 98.4 300.2 98.7 C 300.7 99.1 301.4 99.3 302.3 99.3 C 303.3 99.3 304 99.1 304.6 98.7 C 305.1 98.3 305.4 97.7 305.6 97 C 305.7 96.6 305.8 95.7 305.8 94.3 C 304.9 95.4 303.7 96 302.3 96 C 300.6 96 299.3 95.3 298.4 94.1 C 297.4 92.9 297 91.4 297 89.7 C 297 88.5 297.2 87.4 297.6 86.4 C 298 85.4 298.7 84.6 299.5 84.1 C 300.3 83.5 301.3 83.2 302.4 83.2 C 303.8 83.2 305 83.8 306 85 C 305.99 85.01 306 83.5 306 83.5 L 307.9 83.5 C 307.9 83.5 307.93 94.27 307.9 94.3 C 307.9 96.2 307.7 97.6 307.3 98.4 C 306.9 99.2 306.3 99.8 305.5 100.3 C 304.6 100.8 303.6 101 302.3 101 C 300.8 101 299.6 100.7 298.7 100 C 297.8 99.3 297.4 98.3 297.4 97 Z M 299.1 89.5 C 299.1 91.1 299.5 92.3 300.1 93.1 C 300.8 93.8 301.6 94.2 302.5 94.2 C 303.5 94.2 304.3 93.8 305 93.1 C 305.6 92.3 306 91.2 306 89.6 C 306 88.1 305.6 86.9 305 86.1 C 304.3 85.4 303.5 85 302.5 85 C 301.6 85 300.8 85.4 300.1 86.1 C 299.5 86.9 299.1 88 299.1 89.5 Z M 311.1 81.2 L 311.1 78.8 L 313.2 78.8 L 313.2 81.2 L 311.1 81.2 Z M 311.1 96 L 311.1 83.5 L 313.2 83.5 L 313.2 96 L 311.1 96 Z M 316.5 96 L 316.5 83.5 L 318.4 83.5 C 318.4 83.5 318.35 85.28 318.4 85.3 C 319.3 83.9 320.6 83.2 322.3 83.2 C 323.1 83.2 323.8 83.4 324.4 83.6 C 325 83.9 325.5 84.3 325.8 84.7 C 326.1 85.1 326.3 85.7 326.4 86.3 C 326.5 86.6 326.6 87.3 326.6 88.3 C 326.57 88.31 326.6 96 326.6 96 L 324.5 96 C 324.5 96 324.46 88.39 324.5 88.4 C 324.5 87.5 324.4 86.9 324.2 86.5 C 324 86 323.8 85.7 323.3 85.4 C 322.9 85.2 322.4 85.1 321.9 85.1 C 321 85.1 320.2 85.3 319.5 85.9 C 318.9 86.5 318.6 87.6 318.6 89.2 C 318.56 89.16 318.6 96 318.6 96 L 316.5 96 Z M 329.4 97 C 329.4 97 331.5 97.3 331.5 97.3 C 331.6 97.9 331.8 98.4 332.2 98.7 C 332.7 99.1 333.4 99.3 334.3 99.3 C 335.3 99.3 336.1 99.1 336.6 98.7 C 337.1 98.3 337.5 97.7 337.7 97 C 337.8 96.6 337.8 95.7 337.8 94.3 C 336.9 95.4 335.7 96 334.4 96 C 332.7 96 331.3 95.3 330.4 94.1 C 329.5 92.9 329 91.4 329 89.7 C 329 88.5 329.2 87.4 329.6 86.4 C 330.1 85.4 330.7 84.6 331.5 84.1 C 332.3 83.5 333.3 83.2 334.4 83.2 C 335.9 83.2 337.1 83.8 338 85 C 338.02 85.01 338 83.5 338 83.5 L 340 83.5 C 340 83.5 339.96 94.27 340 94.3 C 340 96.2 339.8 97.6 339.4 98.4 C 339 99.2 338.3 99.8 337.5 100.3 C 336.6 100.8 335.6 101 334.3 101 C 332.9 101 331.7 100.7 330.7 100 C 329.8 99.3 329.4 98.3 329.4 97 Z M 331.2 89.5 C 331.2 91.1 331.5 92.3 332.1 93.1 C 332.8 93.8 333.6 94.2 334.6 94.2 C 335.5 94.2 336.4 93.8 337 93.1 C 337.7 92.3 338 91.2 338 89.6 C 338 88.1 337.7 86.9 337 86.1 C 336.3 85.4 335.5 85 334.5 85 C 333.6 85 332.8 85.4 332.1 86.1 C 331.5 86.9 331.2 88 331.2 89.5 Z " stroke="none" fill="#ffffff"/>  </g>  <g id="Polygon16424">    <path d="M 0 67.2 L 6.6 50 L 9 50 L 16 67.2 L 13.5 67.2 L 11.4 62 L 4.3 62 L 2.4 67.2 L 0 67.2 Z M 4.9 60.1 L 10.7 60.1 C 10.7 60.1 8.95 55.35 9 55.3 C 8.4 53.9 8 52.7 7.7 51.8 C 7.5 52.9 7.2 54 6.8 55.1 C 6.81 55.07 4.9 60.1 4.9 60.1 Z M 25.7 67.2 C 25.7 67.2 25.75 65.33 25.7 65.3 C 24.8 66.7 23.5 67.4 21.8 67.4 C 21.1 67.4 20.4 67.3 19.7 67 C 19.1 66.7 18.6 66.4 18.3 66 C 18 65.5 17.8 65 17.7 64.4 C 17.6 64 17.5 63.3 17.5 62.4 C 17.54 62.43 17.5 54.7 17.5 54.7 L 19.7 54.7 C 19.7 54.7 19.65 61.62 19.7 61.6 C 19.7 62.7 19.7 63.5 19.8 63.8 C 19.9 64.4 20.2 64.8 20.6 65.1 C 21.1 65.5 21.6 65.6 22.2 65.6 C 22.9 65.6 23.4 65.5 24 65.1 C 24.6 64.8 24.9 64.4 25.2 63.8 C 25.4 63.3 25.5 62.4 25.5 61.4 C 25.52 61.38 25.5 54.7 25.5 54.7 L 27.6 54.7 L 27.6 67.2 L 25.7 67.2 Z M 34.6 65.4 C 34.9 65.4 35.2 65.3 35.5 65.3 C 35.5 65.3 35.8 67.1 35.8 67.1 C 35.3 67.3 34.7 67.3 34.3 67.3 C 33.5 67.3 32.9 67.2 32.5 67 C 32.1 66.7 31.8 66.4 31.6 66 C 31.4 65.6 31.3 64.8 31.3 63.5 C 31.32 63.52 31.3 56.4 31.3 56.4 L 29.8 56.4 L 29.8 54.7 L 31.3 54.7 L 31.3 51.6 L 33.4 50.4 L 33.4 54.7 L 35.5 54.7 L 35.5 56.4 L 33.4 56.4 C 33.4 56.4 33.42 63.63 33.4 63.6 C 33.4 64.2 33.5 64.6 33.5 64.8 C 33.6 65 33.7 65.1 33.9 65.2 C 34.1 65.3 34.3 65.4 34.6 65.4 C 34.6 65.4 34.6 65.4 34.6 65.4 Z M 37.6 67.2 L 37.6 50 L 39.7 50 C 39.7 50 39.71 56.14 39.7 56.1 C 40.7 55 41.9 54.4 43.4 54.4 C 44.4 54.4 45.2 54.6 45.8 55 C 46.5 55.3 47 55.8 47.3 56.5 C 47.6 57.1 47.7 58.1 47.7 59.3 C 47.74 59.27 47.7 67.2 47.7 67.2 L 45.6 67.2 C 45.6 67.2 45.63 59.27 45.6 59.3 C 45.6 58.2 45.4 57.5 44.9 57 C 44.5 56.5 43.8 56.2 43 56.2 C 42.4 56.2 41.8 56.4 41.2 56.7 C 40.7 57.1 40.3 57.5 40.1 58.1 C 39.8 58.6 39.7 59.4 39.7 60.4 C 39.71 60.35 39.7 67.2 39.7 67.2 L 37.6 67.2 Z M 59.5 63.2 C 59.5 63.2 61.7 63.4 61.7 63.4 C 61.3 64.7 60.7 65.7 59.7 66.4 C 58.8 67.1 57.6 67.4 56.2 67.4 C 54.4 67.4 52.9 66.9 51.8 65.8 C 50.8 64.6 50.3 63.1 50.3 61 C 50.3 58.9 50.8 57.3 51.9 56.2 C 52.9 55 54.3 54.4 56.1 54.4 C 57.7 54.4 59.1 55 60.1 56.1 C 61.2 57.3 61.7 58.9 61.7 60.9 C 61.7 61 61.7 61.2 61.7 61.5 C 61.7 61.5 52.4 61.5 52.4 61.5 C 52.5 62.8 52.9 63.9 53.6 64.6 C 54.3 65.3 55.2 65.7 56.2 65.7 C 57 65.7 57.6 65.5 58.2 65.1 C 58.7 64.7 59.2 64 59.5 63.2 Z M 52.5 59.7 C 52.5 59.7 59.5 59.7 59.5 59.7 C 59.4 58.7 59.1 57.9 58.7 57.4 C 58 56.6 57.2 56.2 56.1 56.2 C 55.1 56.2 54.3 56.5 53.6 57.1 C 53 57.8 52.6 58.7 52.5 59.7 Z M 64.3 67.2 L 64.3 54.7 L 66.2 54.7 C 66.2 54.7 66.2 56.48 66.2 56.5 C 67.1 55.1 68.4 54.4 70.2 54.4 C 70.9 54.4 71.6 54.6 72.2 54.8 C 72.9 55.1 73.3 55.5 73.6 55.9 C 74 56.3 74.2 56.9 74.3 57.5 C 74.4 57.8 74.4 58.5 74.4 59.5 C 74.41 59.51 74.4 67.2 74.4 67.2 L 72.3 67.2 C 72.3 67.2 72.3 59.59 72.3 59.6 C 72.3 58.7 72.2 58.1 72.1 57.7 C 71.9 57.2 71.6 56.9 71.2 56.6 C 70.8 56.4 70.3 56.3 69.7 56.3 C 68.8 56.3 68 56.5 67.4 57.1 C 66.7 57.7 66.4 58.8 66.4 60.4 C 66.41 60.36 66.4 67.2 66.4 67.2 L 64.3 67.2 Z M 81.3 65.4 C 81.6 65.4 81.9 65.3 82.3 65.3 C 82.3 65.3 82.6 67.1 82.6 67.1 C 82 67.3 81.4 67.3 81 67.3 C 80.2 67.3 79.6 67.2 79.2 67 C 78.8 66.7 78.5 66.4 78.3 66 C 78.1 65.6 78 64.8 78 63.5 C 78.04 63.52 78 56.4 78 56.4 L 76.5 56.4 L 76.5 54.7 L 78 54.7 L 78 51.6 L 80.1 50.4 L 80.1 54.7 L 82.3 54.7 L 82.3 56.4 L 80.1 56.4 C 80.1 56.4 80.13 63.63 80.1 63.6 C 80.1 64.2 80.2 64.6 80.2 64.8 C 80.3 65 80.4 65.1 80.6 65.2 C 80.8 65.3 81 65.4 81.3 65.4 C 81.3 65.4 81.3 65.4 81.3 65.4 Z M 84.3 52.4 L 84.3 50 L 86.4 50 L 86.4 52.4 L 84.3 52.4 Z M 84.3 67.2 L 84.3 54.7 L 86.4 54.7 L 86.4 67.2 L 84.3 67.2 Z M 97.8 62.6 C 97.8 62.6 99.8 62.9 99.8 62.9 C 99.6 64.3 99 65.4 98.1 66.2 C 97.2 67 96 67.4 94.7 67.4 C 93 67.4 91.6 66.9 90.6 65.8 C 89.5 64.7 89 63.1 89 61 C 89 59.6 89.2 58.5 89.7 57.5 C 90.1 56.4 90.8 55.7 91.7 55.2 C 92.6 54.7 93.6 54.4 94.7 54.4 C 96 54.4 97.1 54.8 98 55.5 C 98.9 56.1 99.4 57.1 99.6 58.4 C 99.6 58.4 97.6 58.7 97.6 58.7 C 97.4 57.9 97.1 57.2 96.6 56.8 C 96.1 56.4 95.5 56.2 94.8 56.2 C 93.7 56.2 92.8 56.5 92.2 57.3 C 91.5 58.1 91.2 59.3 91.2 60.9 C 91.2 62.6 91.5 63.8 92.1 64.6 C 92.8 65.3 93.6 65.7 94.6 65.7 C 95.5 65.7 96.2 65.5 96.7 64.9 C 97.3 64.4 97.6 63.7 97.8 62.6 Z M 102.2 67.2 L 102.2 64.8 L 104.6 64.8 C 104.6 64.8 104.6 67.16 104.6 67.2 C 104.6 68 104.4 68.8 104.1 69.3 C 103.8 69.8 103.3 70.3 102.6 70.6 C 102.6 70.6 102.1 69.7 102.1 69.7 C 102.5 69.5 102.8 69.2 103 68.8 C 103.3 68.4 103.4 67.9 103.4 67.2 C 103.39 67.16 102.2 67.2 102.2 67.2 Z M 123.5 63.2 C 123.5 63.2 125.7 63.4 125.7 63.4 C 125.3 64.7 124.7 65.7 123.8 66.4 C 122.8 67.1 121.7 67.4 120.2 67.4 C 118.4 67.4 116.9 66.9 115.9 65.8 C 114.8 64.6 114.3 63.1 114.3 61 C 114.3 58.9 114.8 57.3 115.9 56.2 C 117 55 118.4 54.4 120.1 54.4 C 121.8 54.4 123.1 55 124.2 56.1 C 125.2 57.3 125.8 58.9 125.8 60.9 C 125.8 61 125.7 61.2 125.7 61.5 C 125.7 61.5 116.5 61.5 116.5 61.5 C 116.5 62.8 116.9 63.9 117.6 64.6 C 118.3 65.3 119.2 65.7 120.2 65.7 C 121 65.7 121.7 65.5 122.2 65.1 C 122.7 64.7 123.2 64 123.5 63.2 Z M 116.6 59.7 C 116.6 59.7 123.5 59.7 123.5 59.7 C 123.4 58.7 123.2 57.9 122.7 57.4 C 122.1 56.6 121.2 56.2 120.1 56.2 C 119.1 56.2 118.3 56.5 117.7 57.1 C 117 57.8 116.6 58.7 116.6 59.7 Z M 128.3 67.2 L 128.3 54.7 L 130.2 54.7 C 130.2 54.7 130.23 56.48 130.2 56.5 C 131.1 55.1 132.5 54.4 134.2 54.4 C 134.9 54.4 135.6 54.6 136.3 54.8 C 136.9 55.1 137.4 55.5 137.7 55.9 C 138 56.3 138.2 56.9 138.3 57.5 C 138.4 57.8 138.4 58.5 138.4 59.5 C 138.45 59.51 138.4 67.2 138.4 67.2 L 136.3 67.2 C 136.3 67.2 136.34 59.59 136.3 59.6 C 136.3 58.7 136.3 58.1 136.1 57.7 C 135.9 57.2 135.6 56.9 135.2 56.6 C 134.8 56.4 134.3 56.3 133.7 56.3 C 132.8 56.3 132.1 56.5 131.4 57.1 C 130.8 57.7 130.4 58.8 130.4 60.4 C 130.44 60.36 130.4 67.2 130.4 67.2 L 128.3 67.2 Z M 145.4 65.4 C 145.6 65.4 145.9 65.3 146.3 65.3 C 146.3 65.3 146.6 67.1 146.6 67.1 C 146 67.3 145.5 67.3 145 67.3 C 144.2 67.3 143.6 67.2 143.2 67 C 142.8 66.7 142.5 66.4 142.3 66 C 142.2 65.6 142.1 64.8 142.1 63.5 C 142.07 63.52 142.1 56.4 142.1 56.4 L 140.5 56.4 L 140.5 54.7 L 142.1 54.7 L 142.1 51.6 L 144.2 50.4 L 144.2 54.7 L 146.3 54.7 L 146.3 56.4 L 144.2 56.4 C 144.2 56.4 144.16 63.63 144.2 63.6 C 144.2 64.2 144.2 64.6 144.3 64.8 C 144.3 65 144.5 65.1 144.6 65.2 C 144.8 65.3 145 65.4 145.4 65.4 C 145.4 65.4 145.4 65.4 145.4 65.4 Z M 148.3 67.2 L 148.3 50 L 150.5 50 C 150.5 50 150.46 56.14 150.5 56.1 C 151.4 55 152.7 54.4 154.2 54.4 C 155.1 54.4 155.9 54.6 156.6 55 C 157.3 55.3 157.8 55.8 158 56.5 C 158.3 57.1 158.5 58.1 158.5 59.3 C 158.48 59.27 158.5 67.2 158.5 67.2 L 156.4 67.2 C 156.4 67.2 156.38 59.27 156.4 59.3 C 156.4 58.2 156.1 57.5 155.7 57 C 155.2 56.5 154.6 56.2 153.8 56.2 C 153.1 56.2 152.5 56.4 152 56.7 C 151.4 57.1 151 57.5 150.8 58.1 C 150.6 58.6 150.5 59.4 150.5 60.4 C 150.46 60.35 150.5 67.2 150.5 67.2 L 148.3 67.2 Z M 169.9 67.2 C 169.9 67.2 169.85 65.33 169.9 65.3 C 168.9 66.7 167.6 67.4 165.9 67.4 C 165.2 67.4 164.5 67.3 163.8 67 C 163.2 66.7 162.7 66.4 162.4 66 C 162.1 65.5 161.9 65 161.8 64.4 C 161.7 64 161.6 63.3 161.6 62.4 C 161.65 62.43 161.6 54.7 161.6 54.7 L 163.8 54.7 C 163.8 54.7 163.76 61.62 163.8 61.6 C 163.8 62.7 163.8 63.5 163.9 63.8 C 164 64.4 164.3 64.8 164.7 65.1 C 165.2 65.5 165.7 65.6 166.3 65.6 C 167 65.6 167.6 65.5 168.1 65.1 C 168.7 64.8 169.1 64.4 169.3 63.8 C 169.5 63.3 169.6 62.4 169.6 61.4 C 169.63 61.38 169.6 54.7 169.6 54.7 L 171.7 54.7 L 171.7 67.2 L 169.9 67.2 Z M 174.2 63.4 C 174.2 63.4 176.3 63.1 176.3 63.1 C 176.4 64 176.7 64.6 177.3 65 C 177.8 65.5 178.5 65.7 179.5 65.7 C 180.5 65.7 181.2 65.5 181.7 65.1 C 182.1 64.7 182.4 64.3 182.4 63.7 C 182.4 63.2 182.2 62.9 181.7 62.6 C 181.5 62.4 180.7 62.2 179.6 61.9 C 178 61.5 177 61.2 176.4 60.9 C 175.8 60.6 175.3 60.2 175 59.7 C 174.7 59.2 174.6 58.6 174.6 58 C 174.6 57.5 174.7 57 174.9 56.5 C 175.2 56 175.5 55.6 176 55.3 C 176.3 55.1 176.7 54.9 177.3 54.7 C 177.9 54.5 178.5 54.4 179.1 54.4 C 180.1 54.4 181 54.6 181.7 54.9 C 182.4 55.1 183 55.5 183.3 56 C 183.7 56.5 183.9 57.1 184.1 57.9 C 184.1 57.9 182 58.2 182 58.2 C 181.9 57.6 181.6 57.1 181.2 56.7 C 180.7 56.3 180.1 56.2 179.3 56.2 C 178.3 56.2 177.6 56.3 177.2 56.6 C 176.8 57 176.6 57.3 176.6 57.8 C 176.6 58 176.7 58.3 176.8 58.5 C 177 58.7 177.3 58.9 177.7 59.1 C 177.9 59.2 178.5 59.3 179.5 59.6 C 181 60 182.1 60.3 182.6 60.6 C 183.2 60.8 183.7 61.2 184 61.7 C 184.4 62.2 184.5 62.8 184.5 63.5 C 184.5 64.2 184.3 64.9 183.9 65.5 C 183.5 66.1 182.9 66.6 182.1 66.9 C 181.4 67.3 180.5 67.4 179.5 67.4 C 177.9 67.4 176.7 67.1 175.8 66.4 C 175 65.8 174.4 64.8 174.2 63.4 Z M 187.1 52.4 L 187.1 50 L 189.2 50 L 189.2 52.4 L 187.1 52.4 Z M 187.1 67.2 L 187.1 54.7 L 189.2 54.7 L 189.2 67.2 L 187.1 67.2 Z M 200.9 67.2 C 200.7 66.7 200.6 66.2 200.5 65.6 C 199.7 66.3 199 66.8 198.2 67 C 197.5 67.3 196.7 67.4 195.9 67.4 C 194.5 67.4 193.5 67.1 192.8 66.4 C 192 65.8 191.7 64.9 191.7 63.9 C 191.7 63.3 191.8 62.7 192.1 62.2 C 192.4 61.7 192.7 61.3 193.2 61 C 193.6 60.7 194.1 60.5 194.7 60.3 C 195.1 60.2 195.7 60.1 196.6 60 C 198.3 59.8 199.5 59.5 200.3 59.3 C 200.3 59 200.3 58.8 200.3 58.7 C 200.3 57.9 200.1 57.2 199.7 56.9 C 199.2 56.4 198.4 56.2 197.3 56.2 C 196.3 56.2 195.6 56.4 195.1 56.7 C 194.7 57 194.3 57.7 194.1 58.5 C 194.1 58.5 192 58.3 192 58.3 C 192.2 57.4 192.5 56.7 192.9 56.1 C 193.4 55.6 194 55.2 194.8 54.9 C 195.6 54.6 196.6 54.4 197.6 54.4 C 198.7 54.4 199.6 54.6 200.2 54.8 C 200.9 55.1 201.4 55.4 201.7 55.8 C 202 56.1 202.2 56.6 202.3 57.2 C 202.4 57.5 202.5 58.2 202.5 59.1 C 202.5 59.1 202.5 61.9 202.5 61.9 C 202.5 63.9 202.5 65.1 202.6 65.7 C 202.7 66.2 202.9 66.7 203.1 67.2 C 203.12 67.16 200.9 67.2 200.9 67.2 C 200.9 67.2 200.92 67.16 200.9 67.2 Z M 200.3 60.9 C 199.6 61.2 198.4 61.5 196.9 61.7 C 196 61.8 195.4 62 195 62.1 C 194.7 62.3 194.4 62.5 194.2 62.8 C 194 63.1 193.9 63.5 193.9 63.8 C 193.9 64.4 194.1 64.9 194.5 65.2 C 195 65.6 195.6 65.8 196.4 65.8 C 197.2 65.8 198 65.6 198.6 65.3 C 199.2 64.9 199.7 64.4 200 63.8 C 200.2 63.3 200.3 62.6 200.3 61.7 C 200.3 61.7 200.3 60.9 200.3 60.9 Z M 204.9 63.4 C 204.9 63.4 207 63.1 207 63.1 C 207.1 64 207.4 64.6 207.9 65 C 208.5 65.5 209.2 65.7 210.2 65.7 C 211.2 65.7 211.9 65.5 212.3 65.1 C 212.8 64.7 213 64.3 213 63.7 C 213 63.2 212.8 62.9 212.4 62.6 C 212.1 62.4 211.4 62.2 210.3 61.9 C 208.7 61.5 207.7 61.2 207.1 60.9 C 206.5 60.6 206 60.2 205.7 59.7 C 205.4 59.2 205.2 58.6 205.2 58 C 205.2 57.5 205.4 57 205.6 56.5 C 205.9 56 206.2 55.6 206.6 55.3 C 207 55.1 207.4 54.9 208 54.7 C 208.6 54.5 209.2 54.4 209.8 54.4 C 210.8 54.4 211.6 54.6 212.4 54.9 C 213.1 55.1 213.7 55.5 214 56 C 214.4 56.5 214.6 57.1 214.7 57.9 C 214.7 57.9 212.7 58.2 212.7 58.2 C 212.6 57.6 212.3 57.1 211.9 56.7 C 211.4 56.3 210.8 56.2 210 56.2 C 209 56.2 208.3 56.3 207.9 56.6 C 207.5 57 207.3 57.3 207.3 57.8 C 207.3 58 207.4 58.3 207.5 58.5 C 207.7 58.7 208 58.9 208.3 59.1 C 208.5 59.2 209.2 59.3 210.2 59.6 C 211.7 60 212.7 60.3 213.3 60.6 C 213.9 60.8 214.4 61.2 214.7 61.7 C 215 62.2 215.2 62.8 215.2 63.5 C 215.2 64.2 215 64.9 214.6 65.5 C 214.2 66.1 213.6 66.6 212.8 66.9 C 212.1 67.3 211.2 67.4 210.2 67.4 C 208.6 67.4 207.3 67.1 206.5 66.4 C 205.7 65.8 205.1 64.8 204.9 63.4 Z M 221.4 65.4 C 221.6 65.4 221.9 65.3 222.3 65.3 C 222.3 65.3 222.6 67.1 222.6 67.1 C 222 67.3 221.5 67.3 221 67.3 C 220.3 67.3 219.7 67.2 219.3 67 C 218.8 66.7 218.5 66.4 218.4 66 C 218.2 65.6 218.1 64.8 218.1 63.5 C 218.11 63.52 218.1 56.4 218.1 56.4 L 216.6 56.4 L 216.6 54.7 L 218.1 54.7 L 218.1 51.6 L 220.2 50.4 L 220.2 54.7 L 222.3 54.7 L 222.3 56.4 L 220.2 56.4 C 220.2 56.4 220.21 63.63 220.2 63.6 C 220.2 64.2 220.2 64.6 220.3 64.8 C 220.4 65 220.5 65.1 220.7 65.2 C 220.8 65.3 221.1 65.4 221.4 65.4 C 221.4 65.4 221.4 65.4 221.4 65.4 Z M 224.4 52.4 L 224.4 50 L 226.5 50 L 226.5 52.4 L 224.4 52.4 Z M 224.4 67.2 L 224.4 54.7 L 226.5 54.7 L 226.5 67.2 L 224.4 67.2 Z M 237.8 62.6 C 237.8 62.6 239.9 62.9 239.9 62.9 C 239.7 64.3 239.1 65.4 238.2 66.2 C 237.2 67 236.1 67.4 234.7 67.4 C 233 67.4 231.7 66.9 230.6 65.8 C 229.6 64.7 229.1 63.1 229.1 61 C 229.1 59.6 229.3 58.5 229.7 57.5 C 230.2 56.4 230.9 55.7 231.8 55.2 C 232.7 54.7 233.7 54.4 234.8 54.4 C 236.1 54.4 237.2 54.8 238.1 55.5 C 238.9 56.1 239.5 57.1 239.7 58.4 C 239.7 58.4 237.7 58.7 237.7 58.7 C 237.5 57.9 237.1 57.2 236.6 56.8 C 236.1 56.4 235.5 56.2 234.8 56.2 C 233.8 56.2 232.9 56.5 232.2 57.3 C 231.6 58.1 231.2 59.3 231.2 60.9 C 231.2 62.6 231.6 63.8 232.2 64.6 C 232.8 65.3 233.7 65.7 234.7 65.7 C 235.5 65.7 236.2 65.5 236.8 64.9 C 237.3 64.4 237.7 63.7 237.8 62.6 Z M 242.3 67.2 L 242.3 64.8 L 244.7 64.8 C 244.7 64.8 244.68 67.16 244.7 67.2 C 244.7 68 244.5 68.8 244.2 69.3 C 243.9 69.8 243.4 70.3 242.7 70.6 C 242.7 70.6 242.1 69.7 242.1 69.7 C 242.6 69.5 242.9 69.2 243.1 68.8 C 243.3 68.4 243.4 67.9 243.5 67.2 C 243.47 67.16 242.3 67.2 242.3 67.2 Z M 263.2 62.6 C 263.2 62.6 265.3 62.9 265.3 62.9 C 265 64.3 264.4 65.4 263.5 66.2 C 262.6 67 261.4 67.4 260.1 67.4 C 258.4 67.4 257 66.9 256 65.8 C 254.9 64.7 254.4 63.1 254.4 61 C 254.4 59.6 254.6 58.5 255.1 57.5 C 255.5 56.4 256.2 55.7 257.1 55.2 C 258 54.7 259 54.4 260.1 54.4 C 261.4 54.4 262.5 54.8 263.4 55.5 C 264.3 56.1 264.8 57.1 265.1 58.4 C 265.1 58.4 263 58.7 263 58.7 C 262.8 57.9 262.5 57.2 262 56.8 C 261.5 56.4 260.9 56.2 260.2 56.2 C 259.1 56.2 258.2 56.5 257.6 57.3 C 256.9 58.1 256.6 59.3 256.6 60.9 C 256.6 62.6 256.9 63.8 257.5 64.6 C 258.2 65.3 259 65.7 260.1 65.7 C 260.9 65.7 261.6 65.5 262.1 64.9 C 262.7 64.4 263 63.7 263.2 62.6 Z M 266.3 60.9 C 266.3 58.6 266.9 56.9 268.2 55.8 C 269.3 54.9 270.6 54.4 272.1 54.4 C 273.8 54.4 275.2 55 276.3 56.1 C 277.4 57.2 277.9 58.8 277.9 60.8 C 277.9 62.4 277.7 63.6 277.2 64.5 C 276.7 65.5 276 66.2 275.1 66.7 C 274.2 67.2 273.2 67.4 272.1 67.4 C 270.4 67.4 269 66.9 267.9 65.8 C 266.8 64.6 266.3 63 266.3 60.9 Z M 268.4 60.9 C 268.4 62.5 268.8 63.7 269.5 64.5 C 270.2 65.3 271.1 65.7 272.1 65.7 C 273.2 65.7 274 65.3 274.7 64.5 C 275.4 63.7 275.8 62.5 275.8 60.9 C 275.8 59.3 275.4 58.2 274.7 57.4 C 274 56.6 273.1 56.2 272.1 56.2 C 271.1 56.2 270.2 56.6 269.5 57.4 C 268.8 58.2 268.4 59.3 268.4 60.9 Z M 280.4 67.2 L 280.4 54.7 L 282.3 54.7 C 282.3 54.7 282.29 56.46 282.3 56.5 C 282.7 55.9 283.2 55.4 283.9 55 C 284.5 54.6 285.2 54.4 286.1 54.4 C 287 54.4 287.7 54.6 288.3 55 C 288.9 55.4 289.3 55.9 289.6 56.6 C 290.6 55.2 291.8 54.4 293.4 54.4 C 294.7 54.4 295.6 54.8 296.3 55.5 C 296.9 56.1 297.3 57.2 297.3 58.6 C 297.27 58.62 297.3 67.2 297.3 67.2 L 295.2 67.2 C 295.2 67.2 295.17 59.32 295.2 59.3 C 295.2 58.5 295.1 57.9 295 57.5 C 294.8 57.1 294.6 56.8 294.2 56.6 C 293.9 56.4 293.4 56.3 293 56.3 C 292.1 56.3 291.4 56.6 290.8 57.1 C 290.2 57.7 289.9 58.6 289.9 59.9 C 289.91 59.93 289.9 67.2 289.9 67.2 L 287.8 67.2 C 287.8 67.2 287.8 59.07 287.8 59.1 C 287.8 58.1 287.6 57.4 287.3 57 C 286.9 56.5 286.4 56.3 285.6 56.3 C 285 56.3 284.5 56.4 284 56.7 C 283.4 57 283.1 57.5 282.9 58.1 C 282.6 58.7 282.5 59.6 282.5 60.7 C 282.52 60.7 282.5 67.2 282.5 67.2 L 280.4 67.2 Z M 300.4 67.2 L 300.4 54.7 L 302.3 54.7 C 302.3 54.7 302.29 56.46 302.3 56.5 C 302.7 55.9 303.2 55.4 303.8 55 C 304.5 54.6 305.2 54.4 306.1 54.4 C 307 54.4 307.7 54.6 308.3 55 C 308.9 55.4 309.3 55.9 309.6 56.6 C 310.6 55.2 311.8 54.4 313.4 54.4 C 314.7 54.4 315.6 54.8 316.3 55.5 C 316.9 56.1 317.3 57.2 317.3 58.6 C 317.26 58.62 317.3 67.2 317.3 67.2 L 315.2 67.2 C 315.2 67.2 315.16 59.32 315.2 59.3 C 315.2 58.5 315.1 57.9 315 57.5 C 314.8 57.1 314.6 56.8 314.2 56.6 C 313.9 56.4 313.4 56.3 312.9 56.3 C 312.1 56.3 311.3 56.6 310.8 57.1 C 310.2 57.7 309.9 58.6 309.9 59.9 C 309.9 59.93 309.9 67.2 309.9 67.2 L 307.8 67.2 C 307.8 67.2 307.79 59.07 307.8 59.1 C 307.8 58.1 307.6 57.4 307.3 57 C 306.9 56.5 306.4 56.3 305.6 56.3 C 305 56.3 304.4 56.4 303.9 56.7 C 303.4 57 303.1 57.5 302.8 58.1 C 302.6 58.7 302.5 59.6 302.5 60.7 C 302.51 60.7 302.5 67.2 302.5 67.2 L 300.4 67.2 Z M 320.4 52.4 L 320.4 50 L 322.5 50 L 322.5 52.4 L 320.4 52.4 Z M 320.4 67.2 L 320.4 54.7 L 322.5 54.7 L 322.5 67.2 L 320.4 67.2 Z M 329.4 65.4 C 329.6 65.4 329.9 65.3 330.3 65.3 C 330.3 65.3 330.6 67.1 330.6 67.1 C 330 67.3 329.5 67.3 329 67.3 C 328.3 67.3 327.7 67.2 327.3 67 C 326.8 66.7 326.5 66.4 326.4 66 C 326.2 65.6 326.1 64.8 326.1 63.5 C 326.11 63.52 326.1 56.4 326.1 56.4 L 324.6 56.4 L 324.6 54.7 L 326.1 54.7 L 326.1 51.6 L 328.2 50.4 L 328.2 54.7 L 330.3 54.7 L 330.3 56.4 L 328.2 56.4 C 328.2 56.4 328.21 63.63 328.2 63.6 C 328.2 64.2 328.2 64.6 328.3 64.8 C 328.4 65 328.5 65.1 328.7 65.2 C 328.8 65.3 329.1 65.4 329.4 65.4 C 329.4 65.4 329.4 65.4 329.4 65.4 Z M 336.1 65.4 C 336.3 65.4 336.6 65.3 337 65.3 C 337 65.3 337.3 67.1 337.3 67.1 C 336.7 67.3 336.2 67.3 335.7 67.3 C 334.9 67.3 334.3 67.2 333.9 67 C 333.5 66.7 333.2 66.4 333 66 C 332.9 65.6 332.8 64.8 332.8 63.5 C 332.78 63.52 332.8 56.4 332.8 56.4 L 331.2 56.4 L 331.2 54.7 L 332.8 54.7 L 332.8 51.6 L 334.9 50.4 L 334.9 54.7 L 337 54.7 L 337 56.4 L 334.9 56.4 C 334.9 56.4 334.88 63.63 334.9 63.6 C 334.9 64.2 334.9 64.6 335 64.8 C 335.1 65 335.2 65.1 335.3 65.2 C 335.5 65.3 335.8 65.4 336.1 65.4 C 336.1 65.4 336.1 65.4 336.1 65.4 Z M 347.6 63.2 C 347.6 63.2 349.8 63.4 349.8 63.4 C 349.4 64.7 348.8 65.7 347.8 66.4 C 346.9 67.1 345.7 67.4 344.3 67.4 C 342.5 67.4 341 66.9 340 65.8 C 338.9 64.6 338.4 63.1 338.4 61 C 338.4 58.9 338.9 57.3 340 56.2 C 341.1 55 342.4 54.4 344.2 54.4 C 345.8 54.4 347.2 55 348.2 56.1 C 349.3 57.3 349.8 58.9 349.8 60.9 C 349.8 61 349.8 61.2 349.8 61.5 C 349.8 61.5 340.5 61.5 340.5 61.5 C 340.6 62.8 341 63.9 341.7 64.6 C 342.4 65.3 343.3 65.7 344.3 65.7 C 345.1 65.7 345.7 65.5 346.3 65.1 C 346.8 64.7 347.3 64 347.6 63.2 Z M 340.7 59.7 C 340.7 59.7 347.6 59.7 347.6 59.7 C 347.5 58.7 347.2 57.9 346.8 57.4 C 346.1 56.6 345.3 56.2 344.2 56.2 C 343.2 56.2 342.4 56.5 341.7 57.1 C 341.1 57.8 340.7 58.7 340.7 59.7 Z M 360.5 67.2 C 360.5 67.2 360.48 65.59 360.5 65.6 C 359.7 66.8 358.5 67.4 357 67.4 C 356 67.4 355.1 67.2 354.3 66.6 C 353.4 66.1 352.8 65.3 352.3 64.3 C 351.9 63.3 351.6 62.2 351.6 60.9 C 351.6 59.7 351.9 58.6 352.3 57.6 C 352.7 56.6 353.3 55.8 354.1 55.2 C 355 54.7 355.9 54.4 356.9 54.4 C 357.7 54.4 358.3 54.6 358.9 54.9 C 359.5 55.2 360 55.6 360.3 56.1 C 360.34 56.14 360.3 50 360.3 50 L 362.4 50 L 362.4 67.2 L 360.5 67.2 Z M 353.8 60.9 C 353.8 62.5 354.1 63.7 354.8 64.5 C 355.5 65.3 356.3 65.7 357.2 65.7 C 358.1 65.7 358.9 65.3 359.5 64.6 C 360.2 63.8 360.5 62.7 360.5 61.1 C 360.5 59.4 360.2 58.2 359.5 57.4 C 358.9 56.6 358.1 56.2 357.1 56.2 C 356.2 56.2 355.4 56.6 354.8 57.3 C 354.1 58.1 353.8 59.3 353.8 60.9 Z M 366.3 67.2 L 366.3 64.8 L 368.7 64.8 C 368.7 64.8 368.71 67.16 368.7 67.2 C 368.7 68 368.6 68.8 368.2 69.3 C 367.9 69.8 367.4 70.3 366.8 70.6 C 366.8 70.6 366.2 69.7 366.2 69.7 C 366.6 69.5 366.9 69.2 367.1 68.8 C 367.4 68.4 367.5 67.9 367.5 67.2 C 367.5 67.16 366.3 67.2 366.3 67.2 Z M 378.2 63.4 C 378.2 63.4 380.3 63.1 380.3 63.1 C 380.4 64 380.8 64.6 381.3 65 C 381.8 65.5 382.6 65.7 383.6 65.7 C 384.5 65.7 385.2 65.5 385.7 65.1 C 386.2 64.7 386.4 64.3 386.4 63.7 C 386.4 63.2 386.2 62.9 385.8 62.6 C 385.5 62.4 384.8 62.2 383.6 61.9 C 382.1 61.5 381 61.2 380.4 60.9 C 379.8 60.6 379.4 60.2 379.1 59.7 C 378.8 59.2 378.6 58.6 378.6 58 C 378.6 57.5 378.7 57 379 56.5 C 379.2 56 379.6 55.6 380 55.3 C 380.3 55.1 380.8 54.9 381.4 54.7 C 381.9 54.5 382.5 54.4 383.2 54.4 C 384.2 54.4 385 54.6 385.8 54.9 C 386.5 55.1 387 55.5 387.4 56 C 387.7 56.5 388 57.1 388.1 57.9 C 388.1 57.9 386.1 58.2 386.1 58.2 C 386 57.6 385.7 57.1 385.2 56.7 C 384.8 56.3 384.2 56.2 383.3 56.2 C 382.4 56.2 381.7 56.3 381.3 56.6 C 380.8 57 380.6 57.3 380.6 57.8 C 380.6 58 380.7 58.3 380.9 58.5 C 381.1 58.7 381.3 58.9 381.7 59.1 C 381.9 59.2 382.5 59.3 383.6 59.6 C 385.1 60 386.1 60.3 386.7 60.6 C 387.3 60.8 387.7 61.2 388.1 61.7 C 388.4 62.2 388.6 62.8 388.6 63.5 C 388.6 64.2 388.4 64.9 388 65.5 C 387.6 66.1 387 66.6 386.2 66.9 C 385.4 67.3 384.5 67.4 383.6 67.4 C 381.9 67.4 380.7 67.1 379.9 66.4 C 379 65.8 378.5 64.8 378.2 63.4 Z M 399.2 67.2 C 399.2 67.2 399.25 65.33 399.2 65.3 C 398.3 66.7 397 67.4 395.3 67.4 C 394.6 67.4 393.9 67.3 393.2 67 C 392.6 66.7 392.1 66.4 391.8 66 C 391.5 65.5 391.3 65 391.2 64.4 C 391.1 64 391 63.3 391 62.4 C 391.04 62.43 391 54.7 391 54.7 L 393.2 54.7 C 393.2 54.7 393.15 61.62 393.2 61.6 C 393.2 62.7 393.2 63.5 393.3 63.8 C 393.4 64.4 393.7 64.8 394.1 65.1 C 394.6 65.5 395.1 65.6 395.7 65.6 C 396.4 65.6 396.9 65.5 397.5 65.1 C 398.1 64.8 398.4 64.4 398.7 63.8 C 398.9 63.3 399 62.4 399 61.4 C 399.02 61.38 399 54.7 399 54.7 L 401.1 54.7 L 401.1 67.2 L 399.2 67.2 Z M 404.4 71.9 L 404.4 54.7 L 406.4 54.7 C 406.4 54.7 406.36 56.33 406.4 56.3 C 406.8 55.7 407.3 55.2 407.9 54.9 C 408.5 54.6 409.2 54.4 410 54.4 C 411 54.4 412 54.7 412.8 55.3 C 413.6 55.8 414.2 56.6 414.6 57.6 C 415 58.6 415.2 59.7 415.2 60.8 C 415.2 62.1 415 63.3 414.6 64.3 C 414.1 65.3 413.4 66.1 412.6 66.6 C 411.7 67.2 410.8 67.4 409.8 67.4 C 409.1 67.4 408.5 67.3 407.9 67 C 407.4 66.7 406.9 66.3 406.5 65.9 C 406.55 65.87 406.5 71.9 406.5 71.9 L 404.4 71.9 Z M 406.3 61 C 406.3 62.6 406.7 63.8 407.3 64.6 C 408 65.3 408.8 65.7 409.7 65.7 C 410.6 65.7 411.4 65.3 412.1 64.5 C 412.8 63.7 413.1 62.5 413.1 60.8 C 413.1 59.2 412.8 58.1 412.1 57.3 C 411.5 56.5 410.7 56.1 409.8 56.1 C 408.9 56.1 408.1 56.5 407.4 57.3 C 406.7 58.2 406.3 59.4 406.3 61 Z M 417.8 71.9 L 417.8 54.7 L 419.7 54.7 C 419.7 54.7 419.71 56.33 419.7 56.3 C 420.2 55.7 420.7 55.2 421.2 54.9 C 421.8 54.6 422.5 54.4 423.3 54.4 C 424.4 54.4 425.3 54.7 426.1 55.3 C 426.9 55.8 427.6 56.6 428 57.6 C 428.4 58.6 428.6 59.7 428.6 60.8 C 428.6 62.1 428.4 63.3 427.9 64.3 C 427.4 65.3 426.8 66.1 425.9 66.6 C 425 67.2 424.1 67.4 423.2 67.4 C 422.5 67.4 421.8 67.3 421.3 67 C 420.7 66.7 420.3 66.3 419.9 65.9 C 419.89 65.87 419.9 71.9 419.9 71.9 L 417.8 71.9 Z M 419.7 61 C 419.7 62.6 420 63.8 420.7 64.6 C 421.3 65.3 422.1 65.7 423 65.7 C 424 65.7 424.8 65.3 425.4 64.5 C 426.1 63.7 426.4 62.5 426.4 60.8 C 426.4 59.2 426.1 58.1 425.5 57.3 C 424.8 56.5 424 56.1 423.1 56.1 C 422.2 56.1 421.4 56.5 420.7 57.3 C 420 58.2 419.7 59.4 419.7 61 Z M 430.3 60.9 C 430.3 58.6 431 56.9 432.3 55.8 C 433.3 54.9 434.6 54.4 436.2 54.4 C 437.9 54.4 439.3 55 440.4 56.1 C 441.5 57.2 442 58.8 442 60.8 C 442 62.4 441.8 63.6 441.3 64.5 C 440.8 65.5 440.1 66.2 439.2 66.7 C 438.3 67.2 437.3 67.4 436.2 67.4 C 434.4 67.4 433 66.9 432 65.8 C 430.9 64.6 430.3 63 430.3 60.9 Z M 432.5 60.9 C 432.5 62.5 432.9 63.7 433.6 64.5 C 434.3 65.3 435.1 65.7 436.2 65.7 C 437.2 65.7 438.1 65.3 438.8 64.5 C 439.5 63.7 439.8 62.5 439.8 60.9 C 439.8 59.3 439.5 58.2 438.8 57.4 C 438.1 56.6 437.2 56.2 436.2 56.2 C 435.1 56.2 434.3 56.6 433.6 57.4 C 432.9 58.2 432.5 59.3 432.5 60.9 Z M 444.5 67.2 L 444.5 54.7 L 446.4 54.7 C 446.4 54.7 446.36 56.6 446.4 56.6 C 446.8 55.7 447.3 55.1 447.7 54.9 C 448.1 54.6 448.6 54.4 449.1 54.4 C 449.8 54.4 450.5 54.7 451.2 55.1 C 451.2 55.1 450.5 57.1 450.5 57.1 C 450 56.8 449.5 56.6 448.9 56.6 C 448.5 56.6 448.1 56.8 447.7 57 C 447.3 57.3 447.1 57.7 446.9 58.2 C 446.7 58.9 446.6 59.8 446.6 60.6 C 446.57 60.64 446.6 67.2 446.6 67.2 L 444.5 67.2 Z M 456.2 65.4 C 456.4 65.4 456.7 65.3 457.1 65.3 C 457.1 65.3 457.4 67.1 457.4 67.1 C 456.8 67.3 456.3 67.3 455.8 67.3 C 455 67.3 454.4 67.2 454 67 C 453.6 66.7 453.3 66.4 453.1 66 C 452.9 65.6 452.9 64.8 452.9 63.5 C 452.86 63.52 452.9 56.4 452.9 56.4 L 451.3 56.4 L 451.3 54.7 L 452.9 54.7 L 452.9 51.6 L 455 50.4 L 455 54.7 L 457.1 54.7 L 457.1 56.4 L 455 56.4 C 455 56.4 454.96 63.63 455 63.6 C 455 64.2 455 64.6 455.1 64.8 C 455.1 65 455.3 65.1 455.4 65.2 C 455.6 65.3 455.8 65.4 456.2 65.4 C 456.2 65.4 456.2 65.4 456.2 65.4 Z M 459.2 52.4 L 459.2 50 L 461.3 50 L 461.3 52.4 L 459.2 52.4 Z M 459.2 67.2 L 459.2 54.7 L 461.3 54.7 L 461.3 67.2 L 459.2 67.2 Z M 467.9 67.2 L 463.2 54.7 L 465.4 54.7 C 465.4 54.7 468.09 62.17 468.1 62.2 C 468.4 63 468.6 63.8 468.9 64.7 C 469.1 64 469.3 63.2 469.7 62.3 C 469.68 62.31 472.4 54.7 472.4 54.7 L 474.6 54.7 L 469.9 67.2 L 467.9 67.2 Z M 485 63.2 C 485 63.2 487.2 63.4 487.2 63.4 C 486.8 64.7 486.2 65.7 485.3 66.4 C 484.3 67.1 483.1 67.4 481.7 67.4 C 479.9 67.4 478.4 66.9 477.4 65.8 C 476.3 64.6 475.8 63.1 475.8 61 C 475.8 58.9 476.3 57.3 477.4 56.2 C 478.5 55 479.9 54.4 481.6 54.4 C 483.2 54.4 484.6 55 485.7 56.1 C 486.7 57.3 487.2 58.9 487.2 60.9 C 487.2 61 487.2 61.2 487.2 61.5 C 487.2 61.5 477.9 61.5 477.9 61.5 C 478 62.8 478.4 63.9 479.1 64.6 C 479.8 65.3 480.7 65.7 481.7 65.7 C 482.5 65.7 483.1 65.5 483.7 65.1 C 484.2 64.7 484.7 64 485 63.2 Z M 478.1 59.7 C 478.1 59.7 485 59.7 485 59.7 C 484.9 58.7 484.7 57.9 484.2 57.4 C 483.5 56.6 482.7 56.2 481.6 56.2 C 480.6 56.2 479.8 56.5 479.2 57.1 C 478.5 57.8 478.1 58.7 478.1 59.7 Z M 490.4 67.2 L 490.4 64.8 L 492.8 64.8 C 492.8 64.8 492.77 67.16 492.8 67.2 C 492.8 68 492.6 68.8 492.3 69.3 C 492 69.8 491.5 70.3 490.8 70.6 C 490.8 70.6 490.2 69.7 490.2 69.7 C 490.7 69.5 491 69.2 491.2 68.8 C 491.4 68.4 491.5 67.9 491.6 67.2 C 491.57 67.16 490.4 67.2 490.4 67.2 Z " stroke="none" fill="#ffffff"/>  </g>  <g id="Polygon16423">    <path d="M 6.1 1.9 L 6.1 29.2 L 3.1 29.2 L 3.1 1.9 L 6.1 1.9 Z M 14.7 1.9 L 34 24.4 L 34 1.9 L 36.9 1.9 L 36.9 29.2 L 34.2 29.2 L 15.1 6.7 L 15.1 29.2 L 12.2 29.2 L 12.2 1.9 L 14.7 1.9 Z M 56.1 3.3 C 56.1 3.3 56.1 6.7 56.1 6.7 C 54.2 5.1 52.2 4.2 50 4.2 C 47.1 4.2 45.2 5.8 45.2 8.2 C 45.2 10 45.6 11.6 50.2 13.8 C 55.8 16.8 57.2 18.7 57.2 22.4 C 57.2 26.5 54 29.5 49.4 29.5 C 46.8 29.5 44.4 28.7 42.3 27.1 C 42.3 27.1 42.3 23.4 42.3 23.4 C 44.3 25.6 46.7 26.8 49.4 26.8 C 52.1 26.8 54.1 25.1 54.1 22.5 C 54.1 20.2 53.4 18.8 48.1 16 C 43.8 13.8 42.2 11.8 42.2 8.3 C 42.2 4.4 45.5 1.5 50 1.5 C 52.2 1.5 54.3 2.1 56.1 3.3 Z M 69.6 1.9 C 75 1.9 78.4 4.6 78.4 9.4 C 78.4 14.5 74.9 16.9 69.1 16.9 C 69.08 16.88 64.8 16.9 64.8 16.9 L 64.8 29.2 L 61.8 29.2 L 61.8 1.9 C 61.8 1.9 69.6 1.88 69.6 1.9 Z M 64.8 14.2 C 64.8 14.2 69 14.24 69 14.2 C 73.6 14.2 75.3 12.4 75.3 9.3 C 75.3 6.2 73.4 4.5 69 4.5 C 69 4.52 64.8 4.5 64.8 4.5 L 64.8 14.2 Z M 85.6 1.9 L 85.6 29.2 L 82.6 29.2 L 82.6 1.9 L 85.6 1.9 Z M 91.7 1.9 C 91.7 1.9 98.88 1.88 98.9 1.9 C 104.4 1.9 107.2 5 107.2 9.2 C 107.2 12.6 105.4 14.9 102 15.9 C 103.8 16.8 104.6 17.6 106.8 21 C 106.84 21 112.1 29.2 112.1 29.2 L 108.6 29.2 C 108.6 29.2 103.76 21.64 103.8 21.6 C 101.2 17.6 99.6 16.8 97.2 16.8 C 97.24 16.76 94.7 16.8 94.7 16.8 L 94.7 29.2 L 91.7 29.2 L 91.7 1.9 Z M 97.5 14.1 C 101.3 14.1 104.1 13.2 104.1 9.2 C 104.1 5.9 102 4.5 98.5 4.5 C 98.48 4.52 94.7 4.5 94.7 4.5 L 94.7 14.1 C 94.7 14.1 97.52 14.12 97.5 14.1 Z M 118.1 1.9 L 118.1 29.2 L 115.1 29.2 L 115.1 1.9 L 118.1 1.9 Z M 126.7 1.9 L 146 24.4 L 146 1.9 L 148.9 1.9 L 148.9 29.2 L 146.3 29.2 L 127.1 6.7 L 127.1 29.2 L 124.2 29.2 L 124.2 1.9 L 126.7 1.9 Z M 177.6 6.9 C 174.6 5.1 171.2 4.2 168.2 4.2 C 161.8 4.2 157 9 157 15.4 C 157 22.1 161.6 26.8 168.4 26.8 C 170.7 26.8 172.3 26.5 175.1 25.4 C 175.12 25.44 175.1 18.8 175.1 18.8 L 169.6 18.8 L 169.6 16.2 L 178.1 16.2 C 178.1 16.2 178.12 27.28 178.1 27.3 C 175 28.8 172 29.5 168.4 29.5 C 158.6 29.5 153.8 22.7 153.8 15.7 C 153.8 7.9 159.6 1.5 168.3 1.5 C 171.4 1.5 174 2.2 177.6 3.8 C 177.6 3.8 177.6 6.9 177.6 6.9 Z " stroke="none" fill="#ffffff"/>  </g></svg>