<?xml version="1.0" standalone="no"?><!DOCTYPE svg PUBLIC "-//W3C//DTD SVG 1.1//EN" "http://www.w3.org/Graphics/SVG/1.1/DTD/svg11.dtd"><svg xmlns="http://www.w3.org/2000/svg" version="1.1" width="126px" height="54.1px" viewBox="0 -1 126 54.1" style="top:-1px">  <desc>Reliability</desc>  <defs/>  <g id="Polygon10388">    <path d="M 13.5 32.2 L 13.5 15 C 13.5 15 21.12 14.98 21.1 15 C 22.7 15 23.8 15.1 24.6 15.4 C 25.4 15.8 26 16.3 26.5 17.1 C 27 17.9 27.2 18.7 27.2 19.7 C 27.2 20.9 26.8 21.9 26.1 22.8 C 25.3 23.6 24 24.1 22.4 24.3 C 23 24.6 23.5 24.9 23.8 25.2 C 24.4 25.8 25.1 26.6 25.7 27.5 C 25.66 27.49 28.6 32.2 28.6 32.2 L 25.8 32.2 C 25.8 32.2 23.51 28.59 23.5 28.6 C 22.8 27.6 22.3 26.8 21.9 26.2 C 21.4 25.7 21.1 25.3 20.7 25.1 C 20.4 24.9 20 24.7 19.7 24.6 C 19.4 24.6 19 24.5 18.4 24.5 C 18.42 24.54 15.8 24.5 15.8 24.5 L 15.8 32.2 L 13.5 32.2 Z M 15.8 22.6 C 15.8 22.6 20.67 22.57 20.7 22.6 C 21.7 22.6 22.5 22.5 23.1 22.2 C 23.7 22 24.1 21.7 24.4 21.2 C 24.7 20.7 24.9 20.2 24.9 19.7 C 24.9 18.9 24.6 18.2 24 17.7 C 23.4 17.1 22.5 16.9 21.2 16.9 C 21.22 16.88 15.8 16.9 15.8 16.9 L 15.8 22.6 Z M 39.1 28.2 C 39.1 28.2 41.2 28.4 41.2 28.4 C 40.9 29.7 40.3 30.7 39.3 31.4 C 38.4 32.1 37.2 32.4 35.8 32.4 C 33.9 32.4 32.5 31.9 31.4 30.8 C 30.4 29.6 29.8 28.1 29.8 26 C 29.8 24 30.4 22.3 31.4 21.2 C 32.5 20 33.9 19.4 35.6 19.4 C 37.3 19.4 38.7 20 39.7 21.1 C 40.8 22.3 41.3 23.9 41.3 25.9 C 41.3 26 41.3 26.2 41.3 26.5 C 41.3 26.5 32 26.5 32 26.5 C 32.1 27.8 32.5 28.9 33.2 29.6 C 33.9 30.3 34.7 30.7 35.8 30.7 C 36.5 30.7 37.2 30.5 37.8 30.1 C 38.3 29.7 38.7 29 39.1 28.2 Z M 32.1 24.7 C 32.1 24.7 39.1 24.7 39.1 24.7 C 39 23.7 38.7 22.9 38.3 22.4 C 37.6 21.6 36.7 21.2 35.7 21.2 C 34.7 21.2 33.9 21.5 33.2 22.1 C 32.6 22.8 32.2 23.7 32.1 24.7 Z M 43.8 32.2 L 43.8 15 L 45.9 15 L 45.9 32.2 L 43.8 32.2 Z M 49.2 17.4 L 49.2 15 L 51.3 15 L 51.3 17.4 L 49.2 17.4 Z M 49.2 32.2 L 49.2 19.7 L 51.3 19.7 L 51.3 32.2 L 49.2 32.2 Z M 63.1 32.2 C 62.9 31.7 62.7 31.2 62.7 30.6 C 61.9 31.3 61.1 31.8 60.4 32 C 59.7 32.3 58.9 32.4 58.1 32.4 C 56.7 32.4 55.7 32.1 54.9 31.4 C 54.2 30.8 53.8 29.9 53.8 28.9 C 53.8 28.3 54 27.7 54.2 27.2 C 54.5 26.7 54.9 26.3 55.3 26 C 55.8 25.7 56.3 25.5 56.9 25.3 C 57.3 25.2 57.9 25.1 58.7 25 C 60.4 24.8 61.7 24.5 62.5 24.3 C 62.5 24 62.5 23.8 62.5 23.7 C 62.5 22.9 62.3 22.2 61.9 21.9 C 61.4 21.4 60.6 21.2 59.5 21.2 C 58.5 21.2 57.8 21.4 57.3 21.7 C 56.8 22.1 56.5 22.7 56.3 23.6 C 56.3 23.6 54.2 23.3 54.2 23.3 C 54.4 22.4 54.7 21.7 55.1 21.1 C 55.5 20.6 56.2 20.2 57 19.9 C 57.8 19.6 58.7 19.4 59.8 19.4 C 60.9 19.4 61.7 19.6 62.4 19.8 C 63.1 20.1 63.5 20.4 63.9 20.8 C 64.2 21.1 64.4 21.6 64.5 22.2 C 64.6 22.6 64.6 23.2 64.6 24.1 C 64.6 24.1 64.6 26.9 64.6 26.9 C 64.6 28.9 64.7 30.2 64.8 30.7 C 64.8 31.2 65 31.7 65.3 32.2 C 65.29 32.16 63.1 32.2 63.1 32.2 C 63.1 32.2 63.09 32.16 63.1 32.2 Z M 62.5 25.9 C 61.7 26.2 60.6 26.5 59 26.7 C 58.2 26.8 57.6 27 57.2 27.1 C 56.8 27.3 56.6 27.5 56.4 27.8 C 56.2 28.1 56.1 28.5 56.1 28.8 C 56.1 29.4 56.3 29.9 56.7 30.2 C 57.1 30.6 57.8 30.8 58.6 30.8 C 59.4 30.8 60.1 30.6 60.8 30.3 C 61.4 29.9 61.9 29.4 62.2 28.8 C 62.4 28.3 62.5 27.6 62.5 26.7 C 62.5 26.7 62.5 25.9 62.5 25.9 Z M 69.8 32.2 L 67.9 32.2 L 67.9 15 L 70 15 C 70 15 69.99 21.11 70 21.1 C 70.9 20 72 19.4 73.4 19.4 C 74.2 19.4 74.9 19.6 75.6 19.9 C 76.3 20.2 76.8 20.6 77.3 21.2 C 77.7 21.8 78 22.4 78.3 23.2 C 78.5 24 78.7 24.9 78.7 25.8 C 78.7 27.9 78.1 29.5 77.1 30.7 C 76 31.9 74.8 32.4 73.3 32.4 C 71.8 32.4 70.7 31.8 69.8 30.6 C 69.84 30.61 69.8 32.2 69.8 32.2 Z M 69.8 25.8 C 69.8 27.3 70 28.4 70.4 29.1 C 71.1 30.2 72 30.7 73.1 30.7 C 74 30.7 74.8 30.3 75.5 29.5 C 76.2 28.7 76.5 27.5 76.5 25.9 C 76.5 24.3 76.2 23.1 75.6 22.3 C 74.9 21.6 74.1 21.2 73.2 21.2 C 72.3 21.2 71.5 21.6 70.8 22.4 C 70.2 23.2 69.8 24.3 69.8 25.8 Z M 81.3 17.4 L 81.3 15 L 83.4 15 L 83.4 17.4 L 81.3 17.4 Z M 81.3 32.2 L 81.3 19.7 L 83.4 19.7 L 83.4 32.2 L 81.3 32.2 Z M 86.5 32.2 L 86.5 15 L 88.6 15 L 88.6 32.2 L 86.5 32.2 Z M 91.9 17.4 L 91.9 15 L 94 15 L 94 17.4 L 91.9 17.4 Z M 91.9 32.2 L 91.9 19.7 L 94 19.7 L 94 32.2 L 91.9 32.2 Z M 100.9 30.4 C 101.2 30.4 101.5 30.3 101.8 30.3 C 101.8 30.3 102.1 32.1 102.1 32.1 C 101.6 32.3 101 32.3 100.6 32.3 C 99.8 32.3 99.2 32.2 98.8 32 C 98.3 31.7 98.1 31.4 97.9 31 C 97.7 30.6 97.6 29.8 97.6 28.5 C 97.62 28.52 97.6 21.4 97.6 21.4 L 96.1 21.4 L 96.1 19.7 L 97.6 19.7 L 97.6 16.6 L 99.7 15.4 L 99.7 19.7 L 101.8 19.7 L 101.8 21.4 L 99.7 21.4 C 99.7 21.4 99.72 28.64 99.7 28.6 C 99.7 29.2 99.8 29.6 99.8 29.8 C 99.9 30 100 30.1 100.2 30.2 C 100.4 30.3 100.6 30.4 100.9 30.4 C 100.9 30.4 100.9 30.4 100.9 30.4 Z M 105.2 37.2 C 104.8 37.2 104.3 37.1 103.8 37 C 103.8 37 103.6 35 103.6 35 C 104 35.1 104.4 35.2 104.8 35.2 C 105.3 35.2 105.6 35.1 105.9 34.9 C 106.2 34.8 106.4 34.6 106.6 34.3 C 106.7 34.1 106.9 33.5 107.2 32.7 C 107.3 32.6 107.3 32.4 107.4 32.2 C 107.43 32.19 102.7 19.7 102.7 19.7 L 105 19.7 C 105 19.7 107.57 26.93 107.6 26.9 C 107.9 27.8 108.2 28.8 108.5 29.8 C 108.7 28.8 109 27.9 109.3 27 C 109.34 26.97 112 19.7 112 19.7 L 114.1 19.7 C 114.1 19.7 109.38 32.37 109.4 32.4 C 108.9 33.7 108.5 34.7 108.2 35.2 C 107.8 35.9 107.4 36.4 106.9 36.7 C 106.4 37.1 105.8 37.2 105.2 37.2 C 105.2 37.2 105.2 37.2 105.2 37.2 Z " stroke="none" fill="#000"/>  </g></svg>