<?xml version="1.0" standalone="no"?><!DOCTYPE svg PUBLIC "-//W3C//DTD SVG 1.1//EN" "http://www.w3.org/Graphics/SVG/1.1/DTD/svg11.dtd"><svg xmlns="http://www.w3.org/2000/svg" version="1.1" width="88.1px" height="39.1px" viewBox="0 -8 88.1 39.1" style="top:-8px">  <desc>71 100</desc>  <defs/>  <g id="Polygon7712">    <path d="M 1.1 2.5 L 1.1 0.5 L 12.3 0.5 C 12.3 0.5 12.26 2.16 12.3 2.2 C 11.2 3.3 10.1 4.9 9 6.8 C 7.9 8.7 7.1 10.7 6.5 12.8 C 6.1 14.2 5.8 15.8 5.7 17.5 C 5.7 17.5 3.5 17.5 3.5 17.5 C 3.6 16.1 3.8 14.5 4.3 12.6 C 4.8 10.7 5.6 8.8 6.5 7 C 7.5 5.3 8.5 3.8 9.6 2.5 C 9.55 2.54 1.1 2.5 1.1 2.5 Z M 22.3 17.5 L 20.2 17.5 C 20.2 17.5 20.18 4.03 20.2 4 C 19.7 4.5 19 5 18.2 5.5 C 17.4 6 16.6 6.3 16 6.6 C 16 6.6 16 4.5 16 4.5 C 17.1 4 18.2 3.3 19.1 2.5 C 19.9 1.7 20.6 1 20.9 0.2 C 20.93 0.22 22.3 0.2 22.3 0.2 L 22.3 17.5 Z M 34.1 12.3 L 34.1 10.2 L 40.6 10.2 L 40.6 12.3 L 34.1 12.3 Z M 57 17.5 L 54.9 17.5 C 54.9 17.5 54.86 4.03 54.9 4 C 54.3 4.5 53.7 5 52.9 5.5 C 52 6 51.3 6.3 50.6 6.6 C 50.6 6.6 50.6 4.5 50.6 4.5 C 51.8 4 52.8 3.3 53.7 2.5 C 54.6 1.7 55.2 1 55.6 0.2 C 55.61 0.22 57 0.2 57 0.2 L 57 17.5 Z M 64.1 16 C 62.9 14.6 62.4 12.2 62.4 9 C 62.4 7 62.6 5.3 63 4.1 C 63.4 2.9 64 1.9 64.9 1.2 C 65.7 0.6 66.7 0.2 68 0.2 C 68.9 0.2 69.7 0.4 70.4 0.8 C 71.1 1.2 71.7 1.7 72.1 2.4 C 72.6 3.1 72.9 3.9 73.2 4.9 C 73.4 5.9 73.6 7.3 73.6 9 C 73.6 11 73.4 12.6 72.9 13.9 C 72.5 15.1 71.9 16.1 71.1 16.8 C 70.3 17.4 69.2 17.8 68 17.8 C 66.3 17.8 65 17.2 64.1 16 C 64.1 16 64.1 16 64.1 16 Z M 65.6 3.2 C 64.9 4.2 64.5 6.2 64.5 9 C 64.5 11.8 64.9 13.7 65.5 14.6 C 66.2 15.6 67 16 68 16 C 68.9 16 69.8 15.6 70.4 14.6 C 71.1 13.7 71.4 11.8 71.4 9 C 71.4 6.2 71.1 4.3 70.4 3.4 C 69.8 2.4 68.9 2 67.9 2 C 67 2 66.2 2.4 65.6 3.2 C 65.6 3.2 65.6 3.2 65.6 3.2 Z M 77.4 16 C 76.3 14.6 75.7 12.2 75.7 9 C 75.7 7 75.9 5.3 76.3 4.1 C 76.8 2.9 77.4 1.9 78.2 1.2 C 79 0.6 80.1 0.2 81.3 0.2 C 82.2 0.2 83 0.4 83.7 0.8 C 84.4 1.2 85 1.7 85.5 2.4 C 85.9 3.1 86.3 3.9 86.5 4.9 C 86.8 5.9 86.9 7.3 86.9 9 C 86.9 11 86.7 12.6 86.3 13.9 C 85.9 15.1 85.3 16.1 84.4 16.8 C 83.6 17.4 82.6 17.8 81.3 17.8 C 79.7 17.8 78.4 17.2 77.4 16 C 77.4 16 77.4 16 77.4 16 Z M 79 3.2 C 78.2 4.2 77.9 6.2 77.9 9 C 77.9 11.8 78.2 13.7 78.9 14.6 C 79.5 15.6 80.3 16 81.3 16 C 82.3 16 83.1 15.6 83.8 14.6 C 84.4 13.7 84.8 11.8 84.8 9 C 84.8 6.2 84.4 4.3 83.8 3.4 C 83.1 2.4 82.3 2 81.3 2 C 80.3 2 79.6 2.4 79 3.2 C 79 3.2 79 3.2 79 3.2 Z " stroke="none" fill="#000"/>  </g></svg>