<?xml version="1.0" standalone="no"?><!DOCTYPE svg PUBLIC "-//W3C//DTD SVG 1.1//EN" "http://www.w3.org/Graphics/SVG/1.1/DTD/svg11.dtd"><svg xmlns="http://www.w3.org/2000/svg" version="1.1" width="74px" height="34.5px" viewBox="0 -4 74 34.5" style="top:-4px">  <desc>Honesty &amp; Integrity</desc>  <defs/>  <g id="Polygon50532">    <path d="M 16.6 23.3 L 16.6 14.7 L 17.7 14.7 L 17.7 23.3 L 16.6 23.3 Z M 19.6 23.3 L 19.6 17.1 L 20.6 17.1 C 20.6 17.1 20.56 17.94 20.6 17.9 C 21 17.3 21.7 16.9 22.5 16.9 C 22.9 16.9 23.3 17 23.6 17.1 C 23.9 17.3 24.1 17.4 24.3 17.7 C 24.4 17.9 24.6 18.1 24.6 18.4 C 24.7 18.6 24.7 19 24.7 19.5 C 24.67 19.46 24.7 23.3 24.7 23.3 L 23.6 23.3 C 23.6 23.3 23.62 19.5 23.6 19.5 C 23.6 19.1 23.6 18.7 23.5 18.5 C 23.4 18.3 23.3 18.2 23.1 18 C 22.8 17.9 22.6 17.8 22.3 17.8 C 21.9 17.8 21.5 18 21.2 18.3 C 20.8 18.5 20.7 19.1 20.7 19.9 C 20.67 19.88 20.7 23.3 20.7 23.3 L 19.6 23.3 Z M 28.1 22.4 C 28.2 22.4 28.4 22.4 28.6 22.3 C 28.6 22.3 28.7 23.3 28.7 23.3 C 28.4 23.3 28.2 23.4 27.9 23.4 C 27.6 23.4 27.3 23.3 27.1 23.2 C 26.8 23.1 26.7 22.9 26.6 22.7 C 26.5 22.5 26.5 22.1 26.5 21.5 C 26.48 21.46 26.5 17.9 26.5 17.9 L 25.7 17.9 L 25.7 17.1 L 26.5 17.1 L 26.5 15.5 L 27.5 14.9 L 27.5 17.1 L 28.6 17.1 L 28.6 17.9 L 27.5 17.9 C 27.5 17.9 27.53 21.52 27.5 21.5 C 27.5 21.8 27.5 22 27.6 22.1 C 27.6 22.2 27.7 22.3 27.8 22.3 C 27.9 22.4 28 22.4 28.1 22.4 C 28.1 22.4 28.1 22.4 28.1 22.4 Z M 33.9 21.3 C 33.9 21.3 35 21.4 35 21.4 C 34.8 22 34.5 22.5 34 22.9 C 33.6 23.2 33 23.4 32.2 23.4 C 31.3 23.4 30.6 23.1 30.1 22.6 C 29.5 22 29.3 21.2 29.3 20.2 C 29.3 19.2 29.5 18.4 30.1 17.8 C 30.6 17.2 31.3 16.9 32.2 16.9 C 33 16.9 33.7 17.2 34.2 17.8 C 34.7 18.3 35 19.1 35 20.2 C 35 20.2 35 20.3 35 20.4 C 35 20.4 30.4 20.4 30.4 20.4 C 30.4 21.1 30.6 21.6 30.9 22 C 31.3 22.4 31.7 22.6 32.2 22.6 C 32.6 22.6 33 22.5 33.2 22.3 C 33.5 22 33.7 21.7 33.9 21.3 Z M 30.4 19.6 C 30.4 19.6 33.9 19.6 33.9 19.6 C 33.8 19 33.7 18.7 33.5 18.4 C 33.2 18 32.7 17.8 32.2 17.8 C 31.7 17.8 31.3 17.9 31 18.3 C 30.6 18.6 30.5 19 30.4 19.6 Z M 36.1 23.8 C 36.1 23.8 37.1 23.9 37.1 23.9 C 37.2 24.3 37.3 24.5 37.5 24.6 C 37.7 24.8 38.1 24.9 38.6 24.9 C 39 24.9 39.4 24.8 39.7 24.6 C 40 24.4 40.1 24.2 40.2 23.8 C 40.3 23.6 40.3 23.2 40.3 22.5 C 39.8 23 39.3 23.3 38.6 23.3 C 37.7 23.3 37.1 23 36.6 22.4 C 36.1 21.7 35.9 21 35.9 20.1 C 35.9 19.5 36 19 36.2 18.5 C 36.4 18 36.7 17.6 37.1 17.3 C 37.6 17.1 38 16.9 38.6 16.9 C 39.3 16.9 39.9 17.2 40.4 17.8 C 40.4 17.81 40.4 17.1 40.4 17.1 L 41.4 17.1 C 41.4 17.1 41.38 22.44 41.4 22.4 C 41.4 23.4 41.3 24.1 41.1 24.5 C 40.9 24.9 40.6 25.2 40.1 25.5 C 39.7 25.7 39.2 25.8 38.6 25.8 C 37.8 25.8 37.2 25.6 36.8 25.3 C 36.3 25 36.1 24.5 36.1 23.8 Z M 37 20.1 C 37 20.9 37.1 21.5 37.5 21.8 C 37.8 22.2 38.2 22.4 38.7 22.4 C 39.2 22.4 39.6 22.2 39.9 21.8 C 40.2 21.5 40.4 20.9 40.4 20.1 C 40.4 19.3 40.2 18.8 39.9 18.4 C 39.5 18 39.1 17.8 38.7 17.8 C 38.2 17.8 37.8 18 37.5 18.4 C 37.1 18.7 37 19.3 37 20.1 Z M 43 23.3 L 43 17.1 L 43.9 17.1 C 43.9 17.1 43.91 18 43.9 18 C 44.1 17.6 44.4 17.3 44.6 17.1 C 44.8 17 45 16.9 45.3 16.9 C 45.6 16.9 46 17 46.3 17.3 C 46.3 17.3 46 18.2 46 18.2 C 45.7 18.1 45.5 18 45.2 18 C 45 18 44.8 18.1 44.6 18.2 C 44.4 18.4 44.3 18.5 44.2 18.8 C 44.1 19.2 44 19.6 44 20 C 44.01 20.02 44 23.3 44 23.3 L 43 23.3 Z M 47 15.9 L 47 14.7 L 48 14.7 L 48 15.9 L 47 15.9 Z M 47 23.3 L 47 17.1 L 48 17.1 L 48 23.3 L 47 23.3 Z M 51.5 22.4 C 51.6 22.4 51.7 22.4 51.9 22.3 C 51.9 22.3 52.1 23.3 52.1 23.3 C 51.8 23.3 51.5 23.4 51.3 23.4 C 50.9 23.4 50.6 23.3 50.4 23.2 C 50.2 23.1 50 22.9 50 22.7 C 49.9 22.5 49.8 22.1 49.8 21.5 C 49.83 21.46 49.8 17.9 49.8 17.9 L 49.1 17.9 L 49.1 17.1 L 49.8 17.1 L 49.8 15.5 L 50.9 14.9 L 50.9 17.1 L 51.9 17.1 L 51.9 17.9 L 50.9 17.9 C 50.9 17.9 50.87 21.52 50.9 21.5 C 50.9 21.8 50.9 22 50.9 22.1 C 51 22.2 51 22.3 51.1 22.3 C 51.2 22.4 51.3 22.4 51.5 22.4 C 51.5 22.4 51.5 22.4 51.5 22.4 Z M 53.6 25.8 C 53.4 25.8 53.2 25.8 52.9 25.7 C 52.9 25.7 52.8 24.7 52.8 24.7 C 53 24.8 53.2 24.8 53.4 24.8 C 53.6 24.8 53.8 24.7 54 24.7 C 54.1 24.6 54.2 24.5 54.3 24.3 C 54.4 24.2 54.5 24 54.6 23.6 C 54.7 23.5 54.7 23.4 54.7 23.3 C 54.73 23.29 52.4 17.1 52.4 17.1 L 53.5 17.1 C 53.5 17.1 54.8 20.66 54.8 20.7 C 55 21.1 55.1 21.6 55.3 22.1 C 55.4 21.6 55.5 21.1 55.7 20.7 C 55.69 20.69 57 17.1 57 17.1 L 58.1 17.1 C 58.1 17.1 55.7 23.39 55.7 23.4 C 55.4 24.1 55.3 24.5 55.1 24.8 C 54.9 25.1 54.7 25.4 54.5 25.6 C 54.2 25.7 53.9 25.8 53.6 25.8 C 53.6 25.8 53.6 25.8 53.6 25.8 Z " stroke="none" fill="#000"/>  </g>  <g id="Polygon50531">    <path d="M 10.1 8.9 L 10.1 0.3 L 11.3 0.3 L 11.3 3.8 L 15.7 3.8 L 15.7 0.3 L 16.9 0.3 L 16.9 8.9 L 15.7 8.9 L 15.7 4.8 L 11.3 4.8 L 11.3 8.9 L 10.1 8.9 Z M 18.2 5.8 C 18.2 4.6 18.5 3.8 19.2 3.2 C 19.7 2.7 20.4 2.5 21.1 2.5 C 22 2.5 22.7 2.8 23.2 3.4 C 23.8 3.9 24 4.7 24 5.7 C 24 6.5 23.9 7.1 23.7 7.6 C 23.4 8 23.1 8.4 22.6 8.6 C 22.2 8.9 21.7 9 21.1 9 C 20.3 9 19.6 8.7 19 8.2 C 18.5 7.6 18.2 6.8 18.2 5.8 Z M 19.3 5.8 C 19.3 6.6 19.5 7.2 19.8 7.6 C 20.2 8 20.6 8.2 21.1 8.2 C 21.7 8.2 22.1 8 22.4 7.6 C 22.8 7.2 23 6.6 23 5.7 C 23 5 22.8 4.4 22.4 4 C 22.1 3.6 21.7 3.4 21.1 3.4 C 20.6 3.4 20.2 3.6 19.8 4 C 19.5 4.4 19.3 5 19.3 5.8 Z M 25.3 8.9 L 25.3 2.7 L 26.2 2.7 C 26.2 2.7 26.23 3.54 26.2 3.5 C 26.7 2.9 27.4 2.5 28.2 2.5 C 28.6 2.5 28.9 2.6 29.2 2.7 C 29.6 2.9 29.8 3 30 3.3 C 30.1 3.5 30.2 3.7 30.3 4 C 30.3 4.2 30.3 4.6 30.3 5.1 C 30.34 5.06 30.3 8.9 30.3 8.9 L 29.3 8.9 C 29.3 8.9 29.29 5.1 29.3 5.1 C 29.3 4.7 29.2 4.3 29.2 4.1 C 29.1 3.9 28.9 3.8 28.7 3.6 C 28.5 3.5 28.3 3.4 28 3.4 C 27.5 3.4 27.2 3.6 26.8 3.9 C 26.5 4.1 26.3 4.7 26.3 5.5 C 26.34 5.48 26.3 8.9 26.3 8.9 L 25.3 8.9 Z M 36.2 6.9 C 36.2 6.9 37.3 7 37.3 7 C 37.1 7.6 36.8 8.1 36.4 8.5 C 35.9 8.8 35.3 9 34.6 9 C 33.7 9 32.9 8.7 32.4 8.2 C 31.9 7.6 31.6 6.8 31.6 5.8 C 31.6 4.8 31.9 4 32.4 3.4 C 33 2.8 33.7 2.5 34.5 2.5 C 35.3 2.5 36 2.8 36.6 3.4 C 37.1 3.9 37.3 4.7 37.3 5.8 C 37.3 5.8 37.3 5.9 37.3 6 C 37.3 6 32.7 6 32.7 6 C 32.7 6.7 32.9 7.2 33.3 7.6 C 33.6 8 34.1 8.2 34.6 8.2 C 35 8.2 35.3 8.1 35.6 7.9 C 35.8 7.6 36.1 7.3 36.2 6.9 Z M 32.8 5.2 C 32.8 5.2 36.2 5.2 36.2 5.2 C 36.2 4.6 36 4.3 35.8 4 C 35.5 3.6 35.1 3.4 34.5 3.4 C 34 3.4 33.6 3.5 33.3 3.9 C 33 4.2 32.8 4.6 32.8 5.2 Z M 38.2 7 C 38.2 7 39.3 6.9 39.3 6.9 C 39.3 7.3 39.5 7.6 39.7 7.8 C 40 8 40.4 8.2 40.9 8.2 C 41.3 8.2 41.7 8.1 41.9 7.9 C 42.2 7.7 42.3 7.4 42.3 7.2 C 42.3 6.9 42.2 6.7 42 6.6 C 41.8 6.5 41.5 6.4 40.9 6.2 C 40.1 6 39.6 5.9 39.3 5.7 C 39 5.6 38.8 5.4 38.6 5.1 C 38.5 4.9 38.4 4.6 38.4 4.3 C 38.4 4 38.4 3.8 38.6 3.5 C 38.7 3.3 38.9 3.1 39.1 3 C 39.3 2.8 39.5 2.7 39.8 2.6 C 40 2.6 40.4 2.5 40.7 2.5 C 41.2 2.5 41.6 2.6 42 2.7 C 42.3 2.9 42.6 3.1 42.8 3.3 C 43 3.5 43.1 3.9 43.1 4.3 C 43.1 4.3 42.1 4.4 42.1 4.4 C 42.1 4.1 41.9 3.8 41.7 3.7 C 41.5 3.5 41.2 3.4 40.8 3.4 C 40.3 3.4 39.9 3.5 39.7 3.6 C 39.5 3.8 39.4 4 39.4 4.2 C 39.4 4.3 39.4 4.4 39.5 4.6 C 39.6 4.7 39.8 4.8 39.9 4.8 C 40 4.9 40.4 5 40.9 5.1 C 41.6 5.3 42.1 5.5 42.4 5.6 C 42.7 5.7 43 5.9 43.1 6.2 C 43.3 6.4 43.4 6.7 43.4 7.1 C 43.4 7.4 43.3 7.7 43.1 8 C 42.9 8.4 42.6 8.6 42.2 8.8 C 41.8 8.9 41.4 9 40.9 9 C 40.1 9 39.4 8.9 39 8.5 C 38.6 8.2 38.3 7.7 38.2 7 Z M 46.5 8 C 46.6 8 46.7 8 46.9 7.9 C 46.9 7.9 47.1 8.9 47.1 8.9 C 46.8 8.9 46.5 9 46.3 9 C 45.9 9 45.6 8.9 45.4 8.8 C 45.2 8.7 45 8.5 45 8.3 C 44.9 8.1 44.8 7.7 44.8 7.1 C 44.82 7.06 44.8 3.5 44.8 3.5 L 44.1 3.5 L 44.1 2.7 L 44.8 2.7 L 44.8 1.1 L 45.9 0.5 L 45.9 2.7 L 46.9 2.7 L 46.9 3.5 L 45.9 3.5 C 45.9 3.5 45.87 7.12 45.9 7.1 C 45.9 7.4 45.9 7.6 45.9 7.7 C 46 7.8 46 7.9 46.1 7.9 C 46.2 8 46.3 8 46.5 8 C 46.5 8 46.5 8 46.5 8 Z M 48.6 11.4 C 48.4 11.4 48.2 11.4 47.9 11.3 C 47.9 11.3 47.8 10.3 47.8 10.3 C 48 10.4 48.2 10.4 48.4 10.4 C 48.6 10.4 48.8 10.3 49 10.3 C 49.1 10.2 49.2 10.1 49.3 9.9 C 49.4 9.8 49.5 9.6 49.6 9.2 C 49.7 9.1 49.7 9 49.7 8.9 C 49.73 8.89 47.4 2.7 47.4 2.7 L 48.5 2.7 C 48.5 2.7 49.8 6.26 49.8 6.3 C 50 6.7 50.1 7.2 50.3 7.7 C 50.4 7.2 50.5 6.7 50.7 6.3 C 50.68 6.29 52 2.7 52 2.7 L 53.1 2.7 C 53.1 2.7 50.7 8.99 50.7 9 C 50.4 9.7 50.3 10.1 50.1 10.4 C 49.9 10.7 49.7 11 49.5 11.2 C 49.2 11.3 48.9 11.4 48.6 11.4 C 48.6 11.4 48.6 11.4 48.6 11.4 Z M 63.5 9.1 C 63.1 8.8 62.7 8.4 62.2 7.9 C 61.9 8.3 61.5 8.5 61.1 8.7 C 60.7 8.9 60.2 9 59.7 9 C 58.9 9 58.2 8.7 57.7 8.1 C 57.2 7.7 57 7.1 57 6.5 C 57 6 57.2 5.5 57.5 5.1 C 57.9 4.6 58.4 4.3 59.1 3.9 C 58.7 3.5 58.4 3.1 58.3 2.9 C 58.2 2.6 58.1 2.3 58.1 2.1 C 58.1 1.5 58.3 1.1 58.7 0.7 C 59.1 0.3 59.6 0.1 60.2 0.1 C 60.8 0.1 61.3 0.3 61.7 0.7 C 62 1 62.2 1.5 62.2 2 C 62.2 2.8 61.7 3.5 60.6 4.1 C 60.6 4.1 62.2 6 62.2 6 C 62.3 5.7 62.5 5.3 62.6 4.8 C 62.6 4.8 63.7 5.1 63.7 5.1 C 63.5 5.8 63.2 6.4 62.9 6.9 C 63.3 7.4 63.7 7.9 64.2 8.2 C 64.24 8.24 63.5 9.1 63.5 9.1 C 63.5 9.1 63.53 9.08 63.5 9.1 Z M 60.1 3.4 C 60.5 3.1 60.8 2.9 61 2.7 C 61.1 2.5 61.2 2.3 61.2 2 C 61.2 1.7 61.1 1.5 60.9 1.3 C 60.7 1.1 60.5 1 60.2 1 C 59.9 1 59.7 1.1 59.5 1.3 C 59.3 1.5 59.2 1.7 59.2 2 C 59.2 2.1 59.2 2.2 59.3 2.4 C 59.4 2.5 59.5 2.7 59.6 2.8 C 59.6 2.8 60.1 3.4 60.1 3.4 Z M 61.5 7 C 61.5 7 59.6 4.6 59.6 4.6 C 59 5 58.7 5.3 58.5 5.6 C 58.3 5.9 58.2 6.2 58.2 6.5 C 58.2 6.8 58.3 7.2 58.6 7.5 C 58.9 7.9 59.2 8.1 59.8 8.1 C 60.1 8.1 60.4 8 60.7 7.8 C 61.1 7.6 61.3 7.3 61.5 7 Z " stroke="none" fill="#000"/>  </g></svg>