<?xml version="1.0" standalone="no"?><!DOCTYPE svg PUBLIC "-//W3C//DTD SVG 1.1//EN" "http://www.w3.org/Graphics/SVG/1.1/DTD/svg11.dtd"><svg xmlns="http://www.w3.org/2000/svg" version="1.1" width="702.1px" height="181.5px" viewBox="0 -1 702.1 181.5" style="top:-1px">  <desc>Survey</desc>  <defs/>  <g id="Polygon15231">    <path d="M 199.6 68.8 C 199.6 68.8 199.6 73.1 199.6 73.1 C 197.3 71.1 194.7 70 191.9 70 C 188.4 70 186 72 186 75 C 186 77.2 186.6 79.2 192.2 82 C 199.2 85.7 201 88.1 201 92.8 C 201 97.8 197.1 101.6 191.2 101.6 C 188 101.6 185 100.6 182.4 98.6 C 182.4 98.6 182.4 93.9 182.4 93.9 C 184.9 96.7 187.9 98.3 191.2 98.3 C 194.7 98.3 197.1 96.1 197.1 92.8 C 197.1 89.9 196.2 88.2 189.6 84.8 C 184.2 82 182.2 79.4 182.2 75.1 C 182.2 70.2 186.3 66.6 192.1 66.6 C 194.7 66.6 197.4 67.4 199.6 68.8 Z M 210.1 67.1 C 210.1 67.1 210.1 86.73 210.1 86.7 C 210.1 94.3 213.6 98.3 220.6 98.3 C 227.7 98.3 231.2 94.1 231.2 86.7 C 231.2 86.73 231.2 67.1 231.2 67.1 L 234.9 67.1 C 234.9 67.1 234.95 86.73 234.9 86.7 C 234.9 95.7 230.2 101.6 220.7 101.6 C 211.3 101.6 206.3 96.3 206.3 86.7 C 206.35 86.73 206.3 67.1 206.3 67.1 L 210.1 67.1 Z M 242.2 67.1 C 242.2 67.1 251.15 67.08 251.1 67.1 C 258 67.1 261.5 71 261.5 76.2 C 261.5 80.5 259.2 83.4 255.1 84.6 C 257.3 85.8 258.3 86.7 261.1 91 C 261.1 90.98 267.7 101.2 267.7 101.2 L 263.2 101.2 C 263.2 101.2 257.25 91.78 257.2 91.8 C 254.1 86.8 252 85.7 249.1 85.7 C 249.1 85.68 245.9 85.7 245.9 85.7 L 245.9 101.2 L 242.2 101.2 L 242.2 67.1 Z M 249.4 82.4 C 254.1 82.4 257.7 81.2 257.7 76.3 C 257.7 72.1 255 70.4 250.6 70.4 C 250.65 70.38 245.9 70.4 245.9 70.4 L 245.9 82.4 C 245.9 82.4 249.45 82.38 249.4 82.4 Z M 265.9 67.1 L 269.7 67.1 L 280.8 93.6 L 280.8 93.6 L 291.9 67.1 L 295.6 67.1 L 281.2 101.5 L 280.4 101.5 L 265.9 67.1 Z M 318.2 67.1 L 318.2 70.4 L 303.3 70.4 L 303.3 82.3 L 317.7 82.3 L 317.7 85.7 L 303.3 85.7 L 303.3 97.8 L 318.6 97.8 L 318.6 101.2 L 299.5 101.2 L 299.5 67.1 L 318.2 67.1 Z M 326.3 67.1 L 336.5 79.7 L 346.6 67.1 L 351.1 67.1 L 338.4 83 L 338.4 101.2 L 334.6 101.2 L 334.6 83 L 321.8 67.1 L 326.3 67.1 Z " stroke="none" fill="#010102"/>  </g></svg>