<?xml version="1.0" standalone="no"?><!DOCTYPE svg PUBLIC "-//W3C//DTD SVG 1.1//EN" "http://www.w3.org/Graphics/SVG/1.1/DTD/svg11.dtd"><svg xmlns="http://www.w3.org/2000/svg" version="1.1" width="1030px" height="110.1px" viewBox="0 -10 1030 110.1" style="top:-10px">  <desc>SERVICE Using a scale of 1 5, clients rated our service performance as follows:</desc>  <defs/>  <g id="Polygon10703">    <path d="M 13.1 69.6 L 15.4 69.6 C 15.4 69.6 15.4 79.51 15.4 79.5 C 15.4 81.2 15.2 82.6 14.8 83.6 C 14.4 84.6 13.7 85.5 12.7 86.1 C 11.7 86.7 10.3 87.1 8.7 87.1 C 7.1 87.1 5.8 86.8 4.7 86.2 C 3.7 85.7 3 84.9 2.5 83.8 C 2.1 82.8 1.9 81.3 1.9 79.5 C 1.89 79.51 1.9 69.6 1.9 69.6 L 4.2 69.6 C 4.2 69.6 4.16 79.49 4.2 79.5 C 4.2 81 4.3 82.1 4.6 82.8 C 4.9 83.5 5.3 84 6 84.4 C 6.7 84.8 7.5 85 8.5 85 C 10.2 85 11.3 84.6 12.1 83.9 C 12.8 83.1 13.1 81.7 13.1 79.5 C 13.13 79.49 13.1 69.6 13.1 69.6 Z M 18.1 83 C 18.1 83 20.2 82.7 20.2 82.7 C 20.3 83.6 20.6 84.2 21.1 84.6 C 21.7 85.1 22.4 85.3 23.4 85.3 C 24.3 85.3 25.1 85.1 25.5 84.7 C 26 84.3 26.2 83.9 26.2 83.3 C 26.2 82.8 26 82.5 25.6 82.2 C 25.3 82 24.6 81.8 23.5 81.5 C 21.9 81.1 20.8 80.8 20.2 80.5 C 19.6 80.2 19.2 79.8 18.9 79.3 C 18.6 78.8 18.4 78.2 18.4 77.6 C 18.4 77.1 18.5 76.6 18.8 76.1 C 19.1 75.6 19.4 75.2 19.8 74.9 C 20.2 74.7 20.6 74.5 21.2 74.3 C 21.7 74.1 22.4 74 23 74 C 24 74 24.8 74.2 25.6 74.5 C 26.3 74.7 26.9 75.1 27.2 75.6 C 27.6 76.1 27.8 76.7 27.9 77.5 C 27.9 77.5 25.9 77.8 25.9 77.8 C 25.8 77.2 25.5 76.7 25.1 76.3 C 24.6 75.9 24 75.8 23.2 75.8 C 22.2 75.8 21.5 75.9 21.1 76.2 C 20.7 76.6 20.5 76.9 20.5 77.4 C 20.5 77.6 20.5 77.9 20.7 78.1 C 20.9 78.3 21.2 78.5 21.5 78.7 C 21.7 78.8 22.4 78.9 23.4 79.2 C 24.9 79.6 25.9 79.9 26.5 80.2 C 27.1 80.4 27.6 80.8 27.9 81.3 C 28.2 81.8 28.4 82.4 28.4 83.1 C 28.4 83.8 28.2 84.5 27.8 85.1 C 27.4 85.7 26.8 86.2 26 86.5 C 25.2 86.9 24.4 87 23.4 87 C 21.8 87 20.5 86.7 19.7 86 C 18.8 85.4 18.3 84.4 18.1 83 Z M 30.9 72 L 30.9 69.6 L 33 69.6 L 33 72 L 30.9 72 Z M 30.9 86.8 L 30.9 74.3 L 33 74.3 L 33 86.8 L 30.9 86.8 Z M 36.2 86.8 L 36.2 74.3 L 38.1 74.3 C 38.1 74.3 38.14 76.08 38.1 76.1 C 39.1 74.7 40.4 74 42.1 74 C 42.9 74 43.5 74.2 44.2 74.4 C 44.8 74.7 45.3 75.1 45.6 75.5 C 45.9 75.9 46.1 76.5 46.2 77.1 C 46.3 77.4 46.4 78.1 46.4 79.1 C 46.36 79.11 46.4 86.8 46.4 86.8 L 44.3 86.8 C 44.3 86.8 44.25 79.19 44.3 79.2 C 44.3 78.3 44.2 77.7 44 77.3 C 43.8 76.8 43.5 76.5 43.1 76.2 C 42.7 76 42.2 75.9 41.7 75.9 C 40.8 75.9 40 76.1 39.3 76.7 C 38.7 77.3 38.4 78.4 38.4 80 C 38.36 79.96 38.4 86.8 38.4 86.8 L 36.2 86.8 Z M 49.2 87.8 C 49.2 87.8 51.3 88.1 51.3 88.1 C 51.3 88.7 51.6 89.2 52 89.5 C 52.5 89.9 53.2 90.1 54.1 90.1 C 55.1 90.1 55.8 89.9 56.4 89.5 C 56.9 89.1 57.3 88.5 57.5 87.8 C 57.6 87.4 57.6 86.5 57.6 85.1 C 56.7 86.2 55.5 86.8 54.2 86.8 C 52.5 86.8 51.1 86.1 50.2 84.9 C 49.3 83.7 48.8 82.2 48.8 80.5 C 48.8 79.3 49 78.2 49.4 77.2 C 49.9 76.2 50.5 75.4 51.3 74.9 C 52.1 74.3 53.1 74 54.2 74 C 55.6 74 56.9 74.6 57.8 75.8 C 57.81 75.81 57.8 74.3 57.8 74.3 L 59.8 74.3 C 59.8 74.3 59.75 85.07 59.8 85.1 C 59.8 87 59.6 88.4 59.2 89.2 C 58.8 90 58.1 90.6 57.3 91.1 C 56.4 91.6 55.4 91.8 54.1 91.8 C 52.6 91.8 51.4 91.5 50.5 90.8 C 49.6 90.1 49.2 89.1 49.2 87.8 Z M 51 80.3 C 51 81.9 51.3 83.1 51.9 83.9 C 52.6 84.6 53.4 85 54.4 85 C 55.3 85 56.1 84.6 56.8 83.9 C 57.5 83.1 57.8 82 57.8 80.4 C 57.8 78.9 57.4 77.7 56.8 76.9 C 56.1 76.2 55.3 75.8 54.3 75.8 C 53.4 75.8 52.6 76.2 51.9 76.9 C 51.3 77.7 51 78.8 51 80.3 Z M 78.2 86.8 C 77.9 86.3 77.8 85.8 77.7 85.2 C 76.9 85.9 76.2 86.4 75.5 86.6 C 74.8 86.9 74 87 73.1 87 C 71.8 87 70.7 86.7 70 86 C 69.3 85.4 68.9 84.5 68.9 83.5 C 68.9 82.9 69 82.3 69.3 81.8 C 69.6 81.3 70 80.9 70.4 80.6 C 70.8 80.3 71.4 80.1 71.9 79.9 C 72.3 79.8 73 79.7 73.8 79.6 C 75.5 79.4 76.7 79.1 77.6 78.9 C 77.6 78.6 77.6 78.4 77.6 78.3 C 77.6 77.5 77.4 76.8 77 76.5 C 76.4 76 75.6 75.8 74.6 75.8 C 73.6 75.8 72.8 76 72.4 76.3 C 71.9 76.6 71.5 77.3 71.3 78.1 C 71.3 78.1 69.3 77.9 69.3 77.9 C 69.4 77 69.8 76.3 70.2 75.7 C 70.6 75.2 71.2 74.8 72 74.5 C 72.9 74.2 73.8 74 74.9 74 C 75.9 74 76.8 74.2 77.5 74.4 C 78.1 74.7 78.6 75 78.9 75.4 C 79.2 75.7 79.5 76.2 79.6 76.8 C 79.7 77.1 79.7 77.8 79.7 78.7 C 79.7 78.7 79.7 81.5 79.7 81.5 C 79.7 83.5 79.7 84.7 79.8 85.3 C 79.9 85.8 80.1 86.3 80.4 86.8 C 80.36 86.76 78.2 86.8 78.2 86.8 C 78.2 86.8 78.15 86.76 78.2 86.8 Z M 77.6 80.5 C 76.8 80.8 75.6 81.1 74.1 81.3 C 73.2 81.4 72.6 81.6 72.3 81.7 C 71.9 81.9 71.6 82.1 71.4 82.4 C 71.2 82.7 71.1 83.1 71.1 83.4 C 71.1 84 71.4 84.5 71.8 84.8 C 72.2 85.2 72.8 85.4 73.7 85.4 C 74.5 85.4 75.2 85.2 75.8 84.9 C 76.5 84.5 76.9 84 77.2 83.4 C 77.4 82.9 77.6 82.2 77.6 81.3 C 77.6 81.3 77.6 80.5 77.6 80.5 Z M 88.8 83 C 88.8 83 90.9 82.7 90.9 82.7 C 91 83.6 91.3 84.2 91.8 84.6 C 92.4 85.1 93.1 85.3 94.1 85.3 C 95.1 85.3 95.8 85.1 96.2 84.7 C 96.7 84.3 96.9 83.9 96.9 83.3 C 96.9 82.8 96.7 82.5 96.3 82.2 C 96 82 95.3 81.8 94.2 81.5 C 92.6 81.1 91.6 80.8 91 80.5 C 90.4 80.2 89.9 79.8 89.6 79.3 C 89.3 78.8 89.1 78.2 89.1 77.6 C 89.1 77.1 89.3 76.6 89.5 76.1 C 89.8 75.6 90.1 75.2 90.6 74.9 C 90.9 74.7 91.3 74.5 91.9 74.3 C 92.5 74.1 93.1 74 93.7 74 C 94.7 74 95.5 74.2 96.3 74.5 C 97 74.7 97.6 75.1 97.9 75.6 C 98.3 76.1 98.5 76.7 98.6 77.5 C 98.6 77.5 96.6 77.8 96.6 77.8 C 96.5 77.2 96.2 76.7 95.8 76.3 C 95.3 75.9 94.7 75.8 93.9 75.8 C 92.9 75.8 92.2 75.9 91.8 76.2 C 91.4 76.6 91.2 76.9 91.2 77.4 C 91.2 77.6 91.3 77.9 91.4 78.1 C 91.6 78.3 91.9 78.5 92.2 78.7 C 92.4 78.8 93.1 78.9 94.1 79.2 C 95.6 79.6 96.6 79.9 97.2 80.2 C 97.8 80.4 98.3 80.8 98.6 81.3 C 98.9 81.8 99.1 82.4 99.1 83.1 C 99.1 83.8 98.9 84.5 98.5 85.1 C 98.1 85.7 97.5 86.2 96.7 86.5 C 96 86.9 95.1 87 94.1 87 C 92.5 87 91.3 86.7 90.4 86 C 89.6 85.4 89 84.4 88.8 83 Z M 109.7 82.2 C 109.7 82.2 111.8 82.5 111.8 82.5 C 111.6 83.9 111 85 110.1 85.8 C 109.1 86.6 108 87 106.6 87 C 104.9 87 103.6 86.5 102.5 85.4 C 101.5 84.3 101 82.7 101 80.6 C 101 79.2 101.2 78.1 101.6 77.1 C 102.1 76 102.8 75.3 103.7 74.8 C 104.6 74.3 105.6 74 106.7 74 C 108 74 109.1 74.4 110 75.1 C 110.8 75.7 111.4 76.7 111.6 78 C 111.6 78 109.6 78.3 109.6 78.3 C 109.4 77.5 109 76.8 108.5 76.4 C 108 76 107.4 75.8 106.7 75.8 C 105.7 75.8 104.8 76.1 104.1 76.9 C 103.5 77.7 103.1 78.9 103.1 80.5 C 103.1 82.2 103.5 83.4 104.1 84.2 C 104.7 84.9 105.6 85.3 106.6 85.3 C 107.4 85.3 108.1 85.1 108.7 84.5 C 109.2 84 109.6 83.3 109.7 82.2 Z M 122.2 86.8 C 121.9 86.3 121.8 85.8 121.7 85.2 C 121 85.9 120.2 86.4 119.5 86.6 C 118.8 86.9 118 87 117.2 87 C 115.8 87 114.7 86.7 114 86 C 113.3 85.4 112.9 84.5 112.9 83.5 C 112.9 82.9 113 82.3 113.3 81.8 C 113.6 81.3 114 80.9 114.4 80.6 C 114.9 80.3 115.4 80.1 115.9 79.9 C 116.3 79.8 117 79.7 117.8 79.6 C 119.5 79.4 120.8 79.1 121.6 78.9 C 121.6 78.6 121.6 78.4 121.6 78.3 C 121.6 77.5 121.4 76.8 121 76.5 C 120.4 76 119.6 75.8 118.6 75.8 C 117.6 75.8 116.9 76 116.4 76.3 C 115.9 76.6 115.6 77.3 115.3 78.1 C 115.3 78.1 113.3 77.9 113.3 77.9 C 113.5 77 113.8 76.3 114.2 75.7 C 114.6 75.2 115.2 74.8 116.1 74.5 C 116.9 74.2 117.8 74 118.9 74 C 119.9 74 120.8 74.2 121.5 74.4 C 122.1 74.7 122.6 75 122.9 75.4 C 123.3 75.7 123.5 76.2 123.6 76.8 C 123.7 77.1 123.7 77.8 123.7 78.7 C 123.7 78.7 123.7 81.5 123.7 81.5 C 123.7 83.5 123.7 84.7 123.8 85.3 C 123.9 85.8 124.1 86.3 124.4 86.8 C 124.37 86.76 122.2 86.8 122.2 86.8 C 122.2 86.8 122.17 86.76 122.2 86.8 Z M 121.6 80.5 C 120.8 80.8 119.7 81.1 118.1 81.3 C 117.3 81.4 116.6 81.6 116.3 81.7 C 115.9 81.9 115.6 82.1 115.5 82.4 C 115.3 82.7 115.2 83.1 115.2 83.4 C 115.2 84 115.4 84.5 115.8 84.8 C 116.2 85.2 116.8 85.4 117.7 85.4 C 118.5 85.4 119.2 85.2 119.8 84.9 C 120.5 84.5 120.9 84 121.2 83.4 C 121.5 82.9 121.6 82.2 121.6 81.3 C 121.6 81.3 121.6 80.5 121.6 80.5 Z M 126.9 86.8 L 126.9 69.6 L 129 69.6 L 129 86.8 L 126.9 86.8 Z M 140.8 82.8 C 140.8 82.8 143 83 143 83 C 142.7 84.3 142 85.3 141.1 86 C 140.2 86.7 139 87 137.5 87 C 135.7 87 134.3 86.5 133.2 85.4 C 132.1 84.2 131.6 82.7 131.6 80.6 C 131.6 78.5 132.1 76.9 133.2 75.8 C 134.3 74.6 135.7 74 137.4 74 C 139.1 74 140.4 74.6 141.5 75.7 C 142.5 76.9 143.1 78.5 143.1 80.5 C 143.1 80.6 143.1 80.8 143.1 81.1 C 143.1 81.1 133.8 81.1 133.8 81.1 C 133.9 82.4 134.2 83.5 134.9 84.2 C 135.6 84.9 136.5 85.3 137.5 85.3 C 138.3 85.3 139 85.1 139.5 84.7 C 140.1 84.3 140.5 83.6 140.8 82.8 Z M 133.9 79.3 C 133.9 79.3 140.8 79.3 140.8 79.3 C 140.8 78.3 140.5 77.5 140.1 77 C 139.4 76.2 138.5 75.8 137.4 75.8 C 136.5 75.8 135.7 76.1 135 76.7 C 134.3 77.4 134 78.3 133.9 79.3 Z M 151.5 80.5 C 151.5 78.2 152.2 76.5 153.5 75.4 C 154.5 74.5 155.8 74 157.4 74 C 159.1 74 160.5 74.6 161.6 75.7 C 162.7 76.8 163.2 78.4 163.2 80.4 C 163.2 82 163 83.2 162.5 84.1 C 162 85.1 161.3 85.8 160.4 86.3 C 159.5 86.8 158.5 87 157.4 87 C 155.6 87 154.2 86.5 153.1 85.4 C 152.1 84.2 151.5 82.6 151.5 80.5 Z M 153.7 80.5 C 153.7 82.1 154.1 83.3 154.7 84.1 C 155.4 84.9 156.3 85.3 157.4 85.3 C 158.4 85.3 159.3 84.9 160 84.1 C 160.7 83.3 161 82.1 161 80.5 C 161 78.9 160.7 77.8 160 77 C 159.3 76.2 158.4 75.8 157.4 75.8 C 156.3 75.8 155.4 76.2 154.7 77 C 154.1 77.8 153.7 78.9 153.7 80.5 Z M 166.2 86.8 L 166.2 76 L 164.3 76 L 164.3 74.3 L 166.2 74.3 C 166.2 74.3 166.17 72.99 166.2 73 C 166.2 72.2 166.2 71.5 166.4 71.1 C 166.6 70.6 167 70.1 167.5 69.8 C 168 69.5 168.7 69.3 169.6 69.3 C 170.2 69.3 170.9 69.4 171.6 69.5 C 171.6 69.5 171.3 71.3 171.3 71.3 C 170.8 71.3 170.4 71.2 170 71.2 C 169.4 71.2 168.9 71.4 168.7 71.6 C 168.4 71.9 168.3 72.4 168.3 73.2 C 168.27 73.17 168.3 74.3 168.3 74.3 L 170.7 74.3 L 170.7 76 L 168.3 76 L 168.3 86.8 L 166.2 86.8 Z M 186.4 86.8 L 184.3 86.8 C 184.3 86.8 184.25 73.32 184.3 73.3 C 183.7 73.8 183.1 74.3 182.3 74.8 C 181.4 75.3 180.7 75.6 180 75.9 C 180 75.9 180 73.8 180 73.8 C 181.2 73.3 182.2 72.6 183.1 71.8 C 184 71 184.6 70.3 185 69.5 C 185 69.51 186.4 69.5 186.4 69.5 L 186.4 86.8 Z M 198.2 81.6 L 198.2 79.5 L 204.7 79.5 L 204.7 81.6 L 198.2 81.6 Z M 213.1 82.3 C 213.1 82.3 215.3 82.1 215.3 82.1 C 215.5 83.2 215.9 84 216.5 84.5 C 217 85 217.8 85.3 218.6 85.3 C 219.6 85.3 220.5 84.9 221.2 84.2 C 221.9 83.4 222.2 82.4 222.2 81.1 C 222.2 79.9 221.9 79 221.2 78.3 C 220.6 77.6 219.7 77.2 218.6 77.2 C 217.9 77.2 217.3 77.4 216.7 77.7 C 216.2 78 215.8 78.4 215.4 78.9 C 215.45 78.9 213.5 78.6 213.5 78.6 L 215.1 69.8 L 223.7 69.8 L 223.7 71.8 L 216.8 71.8 C 216.8 71.8 215.89 76.45 215.9 76.4 C 216.9 75.7 218 75.4 219.1 75.4 C 220.6 75.4 221.9 75.9 222.9 76.9 C 224 78 224.5 79.3 224.5 80.9 C 224.5 82.5 224 83.8 223.1 85 C 222 86.4 220.5 87.1 218.6 87.1 C 217.1 87.1 215.8 86.6 214.8 85.7 C 213.8 84.9 213.2 83.7 213.1 82.3 Z M 227.6 86.8 L 227.6 84.4 L 230 84.4 C 230 84.4 229.98 86.76 230 86.8 C 230 87.6 229.8 88.4 229.5 88.9 C 229.2 89.4 228.7 89.9 228 90.2 C 228 90.2 227.4 89.3 227.4 89.3 C 227.9 89.1 228.2 88.8 228.4 88.4 C 228.6 88 228.8 87.5 228.8 86.8 C 228.77 86.76 227.6 86.8 227.6 86.8 Z M 248.5 82.2 C 248.5 82.2 250.6 82.5 250.6 82.5 C 250.3 83.9 249.8 85 248.8 85.8 C 247.9 86.6 246.7 87 245.4 87 C 243.7 87 242.3 86.5 241.3 85.4 C 240.2 84.3 239.7 82.7 239.7 80.6 C 239.7 79.2 239.9 78.1 240.4 77.1 C 240.8 76 241.5 75.3 242.4 74.8 C 243.3 74.3 244.3 74 245.4 74 C 246.7 74 247.8 74.4 248.7 75.1 C 249.6 75.7 250.1 76.7 250.4 78 C 250.4 78 248.3 78.3 248.3 78.3 C 248.1 77.5 247.8 76.8 247.3 76.4 C 246.8 76 246.2 75.8 245.5 75.8 C 244.4 75.8 243.5 76.1 242.9 76.9 C 242.2 77.7 241.9 78.9 241.9 80.5 C 241.9 82.2 242.2 83.4 242.8 84.2 C 243.5 84.9 244.3 85.3 245.4 85.3 C 246.2 85.3 246.9 85.1 247.4 84.5 C 248 84 248.3 83.3 248.5 82.2 Z M 252.3 86.8 L 252.3 69.6 L 254.4 69.6 L 254.4 86.8 L 252.3 86.8 Z M 257.7 72 L 257.7 69.6 L 259.8 69.6 L 259.8 72 L 257.7 72 Z M 257.7 86.8 L 257.7 74.3 L 259.8 74.3 L 259.8 86.8 L 257.7 86.8 Z M 271.5 82.8 C 271.5 82.8 273.7 83 273.7 83 C 273.4 84.3 272.7 85.3 271.8 86 C 270.9 86.7 269.7 87 268.3 87 C 266.4 87 265 86.5 263.9 85.4 C 262.9 84.2 262.3 82.7 262.3 80.6 C 262.3 78.5 262.9 76.9 263.9 75.8 C 265 74.6 266.4 74 268.1 74 C 269.8 74 271.2 74.6 272.2 75.7 C 273.3 76.9 273.8 78.5 273.8 80.5 C 273.8 80.6 273.8 80.8 273.8 81.1 C 273.8 81.1 264.5 81.1 264.5 81.1 C 264.6 82.4 265 83.5 265.7 84.2 C 266.4 84.9 267.2 85.3 268.3 85.3 C 269 85.3 269.7 85.1 270.2 84.7 C 270.8 84.3 271.2 83.6 271.5 82.8 Z M 264.6 79.3 C 264.6 79.3 271.6 79.3 271.6 79.3 C 271.5 78.3 271.2 77.5 270.8 77 C 270.1 76.2 269.2 75.8 268.2 75.8 C 267.2 75.8 266.4 76.1 265.7 76.7 C 265.1 77.4 264.7 78.3 264.6 79.3 Z M 276.4 86.8 L 276.4 74.3 L 278.3 74.3 C 278.3 74.3 278.27 76.08 278.3 76.1 C 279.2 74.7 280.5 74 282.2 74 C 283 74 283.7 74.2 284.3 74.4 C 284.9 74.7 285.4 75.1 285.7 75.5 C 286 75.9 286.2 76.5 286.4 77.1 C 286.4 77.4 286.5 78.1 286.5 79.1 C 286.49 79.11 286.5 86.8 286.5 86.8 L 284.4 86.8 C 284.4 86.8 284.38 79.19 284.4 79.2 C 284.4 78.3 284.3 77.7 284.1 77.3 C 284 76.8 283.7 76.5 283.3 76.2 C 282.8 76 282.4 75.9 281.8 75.9 C 280.9 75.9 280.1 76.1 279.5 76.7 C 278.8 77.3 278.5 78.4 278.5 80 C 278.48 79.96 278.5 86.8 278.5 86.8 L 276.4 86.8 Z M 293.4 85 C 293.6 85 293.9 84.9 294.3 84.9 C 294.3 84.9 294.6 86.7 294.6 86.7 C 294 86.9 293.5 86.9 293 86.9 C 292.3 86.9 291.7 86.8 291.3 86.6 C 290.8 86.3 290.5 86 290.4 85.6 C 290.2 85.2 290.1 84.4 290.1 83.1 C 290.11 83.12 290.1 76 290.1 76 L 288.6 76 L 288.6 74.3 L 290.1 74.3 L 290.1 71.2 L 292.2 70 L 292.2 74.3 L 294.3 74.3 L 294.3 76 L 292.2 76 C 292.2 76 292.21 83.23 292.2 83.2 C 292.2 83.8 292.2 84.2 292.3 84.4 C 292.4 84.6 292.5 84.7 292.7 84.8 C 292.8 84.9 293.1 85 293.4 85 C 293.4 85 293.4 85 293.4 85 Z M 295.5 83 C 295.5 83 297.6 82.7 297.6 82.7 C 297.8 83.6 298.1 84.2 298.6 84.6 C 299.1 85.1 299.9 85.3 300.9 85.3 C 301.8 85.3 302.5 85.1 303 84.7 C 303.5 84.3 303.7 83.9 303.7 83.3 C 303.7 82.8 303.5 82.5 303.1 82.2 C 302.8 82 302.1 81.8 300.9 81.5 C 299.4 81.1 298.3 80.8 297.7 80.5 C 297.1 80.2 296.7 79.8 296.4 79.3 C 296.1 78.8 295.9 78.2 295.9 77.6 C 295.9 77.1 296 76.6 296.3 76.1 C 296.5 75.6 296.9 75.2 297.3 74.9 C 297.6 74.7 298.1 74.5 298.7 74.3 C 299.2 74.1 299.8 74 300.5 74 C 301.5 74 302.3 74.2 303.1 74.5 C 303.8 74.7 304.3 75.1 304.7 75.6 C 305 76.1 305.3 76.7 305.4 77.5 C 305.4 77.5 303.4 77.8 303.4 77.8 C 303.3 77.2 303 76.7 302.5 76.3 C 302.1 75.9 301.5 75.8 300.6 75.8 C 299.7 75.8 299 75.9 298.6 76.2 C 298.1 76.6 297.9 76.9 297.9 77.4 C 297.9 77.6 298 77.9 298.2 78.1 C 298.4 78.3 298.6 78.5 299 78.7 C 299.2 78.8 299.8 78.9 300.9 79.2 C 302.4 79.6 303.4 79.9 304 80.2 C 304.6 80.4 305 80.8 305.4 81.3 C 305.7 81.8 305.9 82.4 305.9 83.1 C 305.9 83.8 305.7 84.5 305.3 85.1 C 304.9 85.7 304.3 86.2 303.5 86.5 C 302.7 86.9 301.8 87 300.9 87 C 299.3 87 298 86.7 297.2 86 C 296.3 85.4 295.8 84.4 295.5 83 Z M 315 86.8 L 315 74.3 L 316.9 74.3 C 316.9 74.3 316.93 76.2 316.9 76.2 C 317.4 75.3 317.9 74.7 318.3 74.5 C 318.7 74.2 319.1 74 319.6 74 C 320.3 74 321.1 74.3 321.8 74.7 C 321.8 74.7 321.1 76.7 321.1 76.7 C 320.6 76.4 320 76.2 319.5 76.2 C 319.1 76.2 318.6 76.4 318.3 76.6 C 317.9 76.9 317.7 77.3 317.5 77.8 C 317.3 78.5 317.1 79.4 317.1 80.2 C 317.14 80.24 317.1 86.8 317.1 86.8 L 315 86.8 Z M 331.6 86.8 C 331.4 86.3 331.2 85.8 331.2 85.2 C 330.4 85.9 329.6 86.4 328.9 86.6 C 328.2 86.9 327.4 87 326.6 87 C 325.2 87 324.2 86.7 323.4 86 C 322.7 85.4 322.3 84.5 322.3 83.5 C 322.3 82.9 322.5 82.3 322.8 81.8 C 323 81.3 323.4 80.9 323.8 80.6 C 324.3 80.3 324.8 80.1 325.4 79.9 C 325.8 79.8 326.4 79.7 327.2 79.6 C 328.9 79.4 330.2 79.1 331 78.9 C 331 78.6 331 78.4 331 78.3 C 331 77.5 330.8 76.8 330.4 76.5 C 329.9 76 329.1 75.8 328 75.8 C 327 75.8 326.3 76 325.8 76.3 C 325.3 76.6 325 77.3 324.8 78.1 C 324.8 78.1 322.7 77.9 322.7 77.9 C 322.9 77 323.2 76.3 323.6 75.7 C 324.1 75.2 324.7 74.8 325.5 74.5 C 326.3 74.2 327.2 74 328.3 74 C 329.4 74 330.2 74.2 330.9 74.4 C 331.6 74.7 332.1 75 332.4 75.4 C 332.7 75.7 332.9 76.2 333 76.8 C 333.1 77.1 333.1 77.8 333.1 78.7 C 333.1 78.7 333.1 81.5 333.1 81.5 C 333.1 83.5 333.2 84.7 333.3 85.3 C 333.4 85.8 333.5 86.3 333.8 86.8 C 333.8 86.76 331.6 86.8 331.6 86.8 C 331.6 86.8 331.59 86.76 331.6 86.8 Z M 331 80.5 C 330.2 80.8 329.1 81.1 327.6 81.3 C 326.7 81.4 326.1 81.6 325.7 81.7 C 325.4 81.9 325.1 82.1 324.9 82.4 C 324.7 82.7 324.6 83.1 324.6 83.4 C 324.6 84 324.8 84.5 325.2 84.8 C 325.7 85.2 326.3 85.4 327.1 85.4 C 327.9 85.4 328.6 85.2 329.3 84.9 C 329.9 84.5 330.4 84 330.7 83.4 C 330.9 82.9 331 82.2 331 81.3 C 331 81.3 331 80.5 331 80.5 Z M 340.1 85 C 340.3 85 340.6 84.9 341 84.9 C 341 84.9 341.3 86.7 341.3 86.7 C 340.7 86.9 340.2 86.9 339.7 86.9 C 338.9 86.9 338.4 86.8 337.9 86.6 C 337.5 86.3 337.2 86 337 85.6 C 336.9 85.2 336.8 84.4 336.8 83.1 C 336.79 83.12 336.8 76 336.8 76 L 335.2 76 L 335.2 74.3 L 336.8 74.3 L 336.8 71.2 L 338.9 70 L 338.9 74.3 L 341 74.3 L 341 76 L 338.9 76 C 338.9 76 338.88 83.23 338.9 83.2 C 338.9 83.8 338.9 84.2 339 84.4 C 339.1 84.6 339.2 84.7 339.4 84.8 C 339.5 84.9 339.8 85 340.1 85 C 340.1 85 340.1 85 340.1 85 Z M 351.6 82.8 C 351.6 82.8 353.8 83 353.8 83 C 353.4 84.3 352.8 85.3 351.9 86 C 350.9 86.7 349.7 87 348.3 87 C 346.5 87 345 86.5 344 85.4 C 342.9 84.2 342.4 82.7 342.4 80.6 C 342.4 78.5 342.9 76.9 344 75.8 C 345.1 74.6 346.5 74 348.2 74 C 349.8 74 351.2 74.6 352.3 75.7 C 353.3 76.9 353.8 78.5 353.8 80.5 C 353.8 80.6 353.8 80.8 353.8 81.1 C 353.8 81.1 344.5 81.1 344.5 81.1 C 344.6 82.4 345 83.5 345.7 84.2 C 346.4 84.9 347.3 85.3 348.3 85.3 C 349.1 85.3 349.7 85.1 350.3 84.7 C 350.8 84.3 351.3 83.6 351.6 82.8 Z M 344.7 79.3 C 344.7 79.3 351.6 79.3 351.6 79.3 C 351.5 78.3 351.2 77.5 350.8 77 C 350.1 76.2 349.3 75.8 348.2 75.8 C 347.2 75.8 346.4 76.1 345.8 76.7 C 345.1 77.4 344.7 78.3 344.7 79.3 Z M 364.5 86.8 C 364.5 86.8 364.49 85.19 364.5 85.2 C 363.7 86.4 362.5 87 361 87 C 360 87 359.1 86.8 358.3 86.2 C 357.4 85.7 356.8 84.9 356.3 83.9 C 355.9 82.9 355.7 81.8 355.7 80.5 C 355.7 79.3 355.9 78.2 356.3 77.2 C 356.7 76.2 357.3 75.4 358.1 74.8 C 359 74.3 359.9 74 360.9 74 C 361.7 74 362.3 74.2 362.9 74.5 C 363.5 74.8 364 75.2 364.3 75.7 C 364.35 75.74 364.3 69.6 364.3 69.6 L 366.4 69.6 L 366.4 86.8 L 364.5 86.8 Z M 357.8 80.5 C 357.8 82.1 358.2 83.3 358.8 84.1 C 359.5 84.9 360.3 85.3 361.2 85.3 C 362.1 85.3 362.9 84.9 363.6 84.2 C 364.2 83.4 364.5 82.3 364.5 80.7 C 364.5 79 364.2 77.8 363.5 77 C 362.9 76.2 362.1 75.8 361.1 75.8 C 360.2 75.8 359.4 76.2 358.8 76.9 C 358.1 77.7 357.8 78.9 357.8 80.5 Z M 375.6 80.5 C 375.6 78.2 376.3 76.5 377.6 75.4 C 378.6 74.5 379.9 74 381.5 74 C 383.2 74 384.6 74.6 385.7 75.7 C 386.8 76.8 387.3 78.4 387.3 80.4 C 387.3 82 387.1 83.2 386.6 84.1 C 386.1 85.1 385.4 85.8 384.5 86.3 C 383.6 86.8 382.6 87 381.5 87 C 379.7 87 378.3 86.5 377.3 85.4 C 376.2 84.2 375.6 82.6 375.6 80.5 Z M 377.8 80.5 C 377.8 82.1 378.2 83.3 378.9 84.1 C 379.6 84.9 380.4 85.3 381.5 85.3 C 382.5 85.3 383.4 84.9 384.1 84.1 C 384.8 83.3 385.1 82.1 385.1 80.5 C 385.1 78.9 384.8 77.8 384.1 77 C 383.4 76.2 382.5 75.8 381.5 75.8 C 380.4 75.8 379.6 76.2 378.9 77 C 378.2 77.8 377.8 78.9 377.8 80.5 Z M 397.9 86.8 C 397.9 86.8 397.93 84.93 397.9 84.9 C 397 86.3 395.6 87 394 87 C 393.2 87 392.6 86.9 391.9 86.6 C 391.3 86.3 390.8 86 390.5 85.6 C 390.2 85.1 390 84.6 389.9 84 C 389.8 83.6 389.7 82.9 389.7 82 C 389.73 82.03 389.7 74.3 389.7 74.3 L 391.8 74.3 C 391.8 74.3 391.84 81.22 391.8 81.2 C 391.8 82.3 391.9 83.1 392 83.4 C 392.1 84 392.4 84.4 392.8 84.7 C 393.2 85.1 393.8 85.2 394.4 85.2 C 395 85.2 395.6 85.1 396.2 84.7 C 396.7 84.4 397.1 84 397.4 83.4 C 397.6 82.9 397.7 82 397.7 81 C 397.71 80.98 397.7 74.3 397.7 74.3 L 399.8 74.3 L 399.8 86.8 L 397.9 86.8 Z M 403.1 86.8 L 403.1 74.3 L 405 74.3 C 405 74.3 405 76.2 405 76.2 C 405.5 75.3 405.9 74.7 406.3 74.5 C 406.8 74.2 407.2 74 407.7 74 C 408.4 74 409.1 74.3 409.9 74.7 C 409.9 74.7 409.1 76.7 409.1 76.7 C 408.6 76.4 408.1 76.2 407.6 76.2 C 407.1 76.2 406.7 76.4 406.3 76.6 C 406 76.9 405.7 77.3 405.6 77.8 C 405.3 78.5 405.2 79.4 405.2 80.2 C 405.21 80.24 405.2 86.8 405.2 86.8 L 403.1 86.8 Z M 416.9 83 C 416.9 83 419 82.7 419 82.7 C 419.1 83.6 419.5 84.2 420 84.6 C 420.5 85.1 421.3 85.3 422.3 85.3 C 423.2 85.3 423.9 85.1 424.4 84.7 C 424.9 84.3 425.1 83.9 425.1 83.3 C 425.1 82.8 424.9 82.5 424.5 82.2 C 424.2 82 423.5 81.8 422.3 81.5 C 420.8 81.1 419.7 80.8 419.1 80.5 C 418.5 80.2 418.1 79.8 417.8 79.3 C 417.4 78.8 417.3 78.2 417.3 77.6 C 417.3 77.1 417.4 76.6 417.7 76.1 C 417.9 75.6 418.3 75.2 418.7 74.9 C 419 74.7 419.5 74.5 420.1 74.3 C 420.6 74.1 421.2 74 421.9 74 C 422.9 74 423.7 74.2 424.4 74.5 C 425.2 74.7 425.7 75.1 426.1 75.6 C 426.4 76.1 426.7 76.7 426.8 77.5 C 426.8 77.5 424.7 77.8 424.7 77.8 C 424.7 77.2 424.4 76.7 423.9 76.3 C 423.5 75.9 422.8 75.8 422 75.8 C 421.1 75.8 420.4 75.9 420 76.2 C 419.5 76.6 419.3 76.9 419.3 77.4 C 419.3 77.6 419.4 77.9 419.6 78.1 C 419.8 78.3 420 78.5 420.4 78.7 C 420.6 78.8 421.2 78.9 422.3 79.2 C 423.8 79.6 424.8 79.9 425.4 80.2 C 426 80.4 426.4 80.8 426.8 81.3 C 427.1 81.8 427.3 82.4 427.3 83.1 C 427.3 83.8 427.1 84.5 426.7 85.1 C 426.3 85.7 425.7 86.2 424.9 86.5 C 424.1 86.9 423.2 87 422.3 87 C 420.6 87 419.4 86.7 418.6 86 C 417.7 85.4 417.2 84.4 416.9 83 Z M 438.3 82.8 C 438.3 82.8 440.5 83 440.5 83 C 440.1 84.3 439.5 85.3 438.6 86 C 437.6 86.7 436.5 87 435 87 C 433.2 87 431.7 86.5 430.7 85.4 C 429.6 84.2 429.1 82.7 429.1 80.6 C 429.1 78.5 429.6 76.9 430.7 75.8 C 431.8 74.6 433.2 74 434.9 74 C 436.6 74 437.9 74.6 439 75.7 C 440 76.9 440.6 78.5 440.6 80.5 C 440.6 80.6 440.6 80.8 440.5 81.1 C 440.5 81.1 431.3 81.1 431.3 81.1 C 431.3 82.4 431.7 83.5 432.4 84.2 C 433.1 84.9 434 85.3 435 85.3 C 435.8 85.3 436.5 85.1 437 84.7 C 437.6 84.3 438 83.6 438.3 82.8 Z M 431.4 79.3 C 431.4 79.3 438.3 79.3 438.3 79.3 C 438.2 78.3 438 77.5 437.5 77 C 436.9 76.2 436 75.8 434.9 75.8 C 433.9 75.8 433.1 76.1 432.5 76.7 C 431.8 77.4 431.4 78.3 431.4 79.3 Z M 443.1 86.8 L 443.1 74.3 L 445 74.3 C 445 74.3 445.01 76.2 445 76.2 C 445.5 75.3 445.9 74.7 446.3 74.5 C 446.8 74.2 447.2 74 447.7 74 C 448.4 74 449.1 74.3 449.9 74.7 C 449.9 74.7 449.1 76.7 449.1 76.7 C 448.6 76.4 448.1 76.2 447.6 76.2 C 447.1 76.2 446.7 76.4 446.4 76.6 C 446 76.9 445.7 77.3 445.6 77.8 C 445.3 78.5 445.2 79.4 445.2 80.2 C 445.22 80.24 445.2 86.8 445.2 86.8 L 443.1 86.8 Z M 454.6 86.8 L 449.8 74.3 L 452.1 74.3 C 452.1 74.3 454.75 81.77 454.7 81.8 C 455 82.6 455.3 83.4 455.5 84.3 C 455.7 83.6 456 82.8 456.3 81.9 C 456.33 81.91 459.1 74.3 459.1 74.3 L 461.3 74.3 L 456.6 86.8 L 454.6 86.8 Z M 463.1 72 L 463.1 69.6 L 465.2 69.6 L 465.2 72 L 463.1 72 Z M 463.1 86.8 L 463.1 74.3 L 465.2 74.3 L 465.2 86.8 L 463.1 86.8 Z M 476.6 82.2 C 476.6 82.2 478.7 82.5 478.7 82.5 C 478.4 83.9 477.8 85 476.9 85.8 C 476 86.6 474.8 87 473.5 87 C 471.8 87 470.4 86.5 469.4 85.4 C 468.3 84.3 467.8 82.7 467.8 80.6 C 467.8 79.2 468 78.1 468.5 77.1 C 468.9 76 469.6 75.3 470.5 74.8 C 471.4 74.3 472.4 74 473.5 74 C 474.8 74 475.9 74.4 476.8 75.1 C 477.7 75.7 478.2 76.7 478.5 78 C 478.5 78 476.4 78.3 476.4 78.3 C 476.2 77.5 475.9 76.8 475.4 76.4 C 474.9 76 474.3 75.8 473.6 75.8 C 472.5 75.8 471.6 76.1 471 76.9 C 470.3 77.7 470 78.9 470 80.5 C 470 82.2 470.3 83.4 470.9 84.2 C 471.6 84.9 472.4 85.3 473.4 85.3 C 474.3 85.3 475 85.1 475.5 84.5 C 476.1 84 476.4 83.3 476.6 82.2 Z M 489 82.8 C 489 82.8 491.2 83 491.2 83 C 490.8 84.3 490.2 85.3 489.2 86 C 488.3 86.7 487.1 87 485.7 87 C 483.9 87 482.4 86.5 481.4 85.4 C 480.3 84.2 479.8 82.7 479.8 80.6 C 479.8 78.5 480.3 76.9 481.4 75.8 C 482.4 74.6 483.8 74 485.6 74 C 487.2 74 488.6 74.6 489.6 75.7 C 490.7 76.9 491.2 78.5 491.2 80.5 C 491.2 80.6 491.2 80.8 491.2 81.1 C 491.2 81.1 481.9 81.1 481.9 81.1 C 482 82.4 482.4 83.5 483.1 84.2 C 483.8 84.9 484.7 85.3 485.7 85.3 C 486.5 85.3 487.1 85.1 487.7 84.7 C 488.2 84.3 488.7 83.6 489 82.8 Z M 482.1 79.3 C 482.1 79.3 489 79.3 489 79.3 C 488.9 78.3 488.6 77.5 488.2 77 C 487.5 76.2 486.7 75.8 485.6 75.8 C 484.6 75.8 483.8 76.1 483.1 76.7 C 482.5 77.4 482.1 78.3 482.1 79.3 Z M 500.5 91.5 L 500.5 74.3 L 502.4 74.3 C 502.4 74.3 502.39 75.93 502.4 75.9 C 502.8 75.3 503.4 74.8 503.9 74.5 C 504.5 74.2 505.2 74 506 74 C 507.1 74 508 74.3 508.8 74.9 C 509.6 75.4 510.2 76.2 510.7 77.2 C 511.1 78.2 511.3 79.3 511.3 80.4 C 511.3 81.7 511 82.9 510.6 83.9 C 510.1 84.9 509.5 85.7 508.6 86.2 C 507.7 86.8 506.8 87 505.9 87 C 505.1 87 504.5 86.9 504 86.6 C 503.4 86.3 502.9 85.9 502.6 85.5 C 502.58 85.47 502.6 91.5 502.6 91.5 L 500.5 91.5 Z M 502.4 80.6 C 502.4 82.2 502.7 83.4 503.4 84.2 C 504 84.9 504.8 85.3 505.7 85.3 C 506.6 85.3 507.5 84.9 508.1 84.1 C 508.8 83.3 509.1 82.1 509.1 80.4 C 509.1 78.8 508.8 77.7 508.1 76.9 C 507.5 76.1 506.7 75.7 505.8 75.7 C 504.9 75.7 504.1 76.1 503.4 76.9 C 502.7 77.8 502.4 79 502.4 80.6 Z M 522.3 82.8 C 522.3 82.8 524.5 83 524.5 83 C 524.2 84.3 523.5 85.3 522.6 86 C 521.7 86.7 520.5 87 519 87 C 517.2 87 515.8 86.5 514.7 85.4 C 513.7 84.2 513.1 82.7 513.1 80.6 C 513.1 78.5 513.7 76.9 514.7 75.8 C 515.8 74.6 517.2 74 518.9 74 C 520.6 74 522 74.6 523 75.7 C 524.1 76.9 524.6 78.5 524.6 80.5 C 524.6 80.6 524.6 80.8 524.6 81.1 C 524.6 81.1 515.3 81.1 515.3 81.1 C 515.4 82.4 515.8 83.5 516.5 84.2 C 517.2 84.9 518 85.3 519.1 85.3 C 519.8 85.3 520.5 85.1 521 84.7 C 521.6 84.3 522 83.6 522.3 82.8 Z M 515.4 79.3 C 515.4 79.3 522.4 79.3 522.4 79.3 C 522.3 78.3 522 77.5 521.6 77 C 520.9 76.2 520 75.8 519 75.8 C 518 75.8 517.2 76.1 516.5 76.7 C 515.8 77.4 515.5 78.3 515.4 79.3 Z M 527.1 86.8 L 527.1 74.3 L 529 74.3 C 529 74.3 529.04 76.2 529 76.2 C 529.5 75.3 530 74.7 530.4 74.5 C 530.8 74.2 531.2 74 531.7 74 C 532.4 74 533.2 74.3 533.9 74.7 C 533.9 74.7 533.2 76.7 533.2 76.7 C 532.7 76.4 532.1 76.2 531.6 76.2 C 531.2 76.2 530.8 76.4 530.4 76.6 C 530 76.9 529.8 77.3 529.6 77.8 C 529.4 78.5 529.3 79.4 529.3 80.2 C 529.25 80.24 529.3 86.8 529.3 86.8 L 527.1 86.8 Z M 535.7 86.8 L 535.7 76 L 533.8 76 L 533.8 74.3 L 535.7 74.3 C 535.7 74.3 535.66 72.99 535.7 73 C 535.7 72.2 535.7 71.5 535.9 71.1 C 536.1 70.6 536.4 70.1 537 69.8 C 537.5 69.5 538.2 69.3 539.1 69.3 C 539.7 69.3 540.4 69.4 541.1 69.5 C 541.1 69.5 540.8 71.3 540.8 71.3 C 540.3 71.3 539.9 71.2 539.5 71.2 C 538.9 71.2 538.4 71.4 538.2 71.6 C 537.9 71.9 537.8 72.4 537.8 73.2 C 537.76 73.17 537.8 74.3 537.8 74.3 L 540.2 74.3 L 540.2 76 L 537.8 76 L 537.8 86.8 L 535.7 86.8 Z M 541 80.5 C 541 78.2 541.7 76.5 543 75.4 C 544 74.5 545.3 74 546.9 74 C 548.6 74 550 74.6 551.1 75.7 C 552.2 76.8 552.7 78.4 552.7 80.4 C 552.7 82 552.5 83.2 552 84.1 C 551.5 85.1 550.8 85.8 549.9 86.3 C 549 86.8 548 87 546.9 87 C 545.1 87 543.7 86.5 542.7 85.4 C 541.6 84.2 541 82.6 541 80.5 Z M 543.2 80.5 C 543.2 82.1 543.6 83.3 544.3 84.1 C 544.9 84.9 545.8 85.3 546.9 85.3 C 547.9 85.3 548.8 84.9 549.5 84.1 C 550.2 83.3 550.5 82.1 550.5 80.5 C 550.5 78.9 550.2 77.8 549.5 77 C 548.8 76.2 547.9 75.8 546.9 75.8 C 545.8 75.8 544.9 76.2 544.3 77 C 543.6 77.8 543.2 78.9 543.2 80.5 Z M 555.2 86.8 L 555.2 74.3 L 557.1 74.3 C 557.1 74.3 557.05 76.2 557.1 76.2 C 557.5 75.3 558 74.7 558.4 74.5 C 558.8 74.2 559.3 74 559.7 74 C 560.5 74 561.2 74.3 561.9 74.7 C 561.9 74.7 561.2 76.7 561.2 76.7 C 560.7 76.4 560.2 76.2 559.6 76.2 C 559.2 76.2 558.8 76.4 558.4 76.6 C 558 76.9 557.8 77.3 557.6 77.8 C 557.4 78.5 557.3 79.4 557.3 80.2 C 557.26 80.24 557.3 86.8 557.3 86.8 L 555.2 86.8 Z M 563.2 86.8 L 563.2 74.3 L 565.1 74.3 C 565.1 74.3 565.05 76.06 565.1 76.1 C 565.4 75.5 566 75 566.6 74.6 C 567.3 74.2 568 74 568.8 74 C 569.7 74 570.5 74.2 571.1 74.6 C 571.7 75 572.1 75.5 572.3 76.2 C 573.3 74.8 574.6 74 576.2 74 C 577.4 74 578.4 74.4 579 75.1 C 579.7 75.7 580 76.8 580 78.2 C 580.03 78.22 580 86.8 580 86.8 L 577.9 86.8 C 577.9 86.8 577.93 78.92 577.9 78.9 C 577.9 78.1 577.9 77.5 577.7 77.1 C 577.6 76.7 577.3 76.4 577 76.2 C 576.6 76 576.2 75.9 575.7 75.9 C 574.8 75.9 574.1 76.2 573.5 76.7 C 573 77.3 572.7 78.2 572.7 79.5 C 572.67 79.53 572.7 86.8 572.7 86.8 L 570.6 86.8 C 570.6 86.8 570.56 78.67 570.6 78.7 C 570.6 77.7 570.4 77 570 76.6 C 569.7 76.1 569.1 75.9 568.4 75.9 C 567.8 75.9 567.2 76 566.7 76.3 C 566.2 76.6 565.8 77.1 565.6 77.7 C 565.4 78.3 565.3 79.2 565.3 80.3 C 565.28 80.3 565.3 86.8 565.3 86.8 L 563.2 86.8 Z M 591.7 86.8 C 591.5 86.3 591.3 85.8 591.3 85.2 C 590.5 85.9 589.7 86.4 589 86.6 C 588.3 86.9 587.5 87 586.7 87 C 585.3 87 584.3 86.7 583.5 86 C 582.8 85.4 582.4 84.5 582.4 83.5 C 582.4 82.9 582.6 82.3 582.9 81.8 C 583.1 81.3 583.5 80.9 584 80.6 C 584.4 80.3 584.9 80.1 585.5 79.9 C 585.9 79.8 586.5 79.7 587.3 79.6 C 589 79.4 590.3 79.1 591.1 78.9 C 591.1 78.6 591.1 78.4 591.1 78.3 C 591.1 77.5 590.9 76.8 590.5 76.5 C 590 76 589.2 75.8 588.1 75.8 C 587.1 75.8 586.4 76 585.9 76.3 C 585.4 76.6 585.1 77.3 584.9 78.1 C 584.9 78.1 582.8 77.9 582.8 77.9 C 583 77 583.3 76.3 583.7 75.7 C 584.2 75.2 584.8 74.8 585.6 74.5 C 586.4 74.2 587.4 74 588.4 74 C 589.5 74 590.3 74.2 591 74.4 C 591.7 74.7 592.2 75 592.5 75.4 C 592.8 75.7 593 76.2 593.1 76.8 C 593.2 77.1 593.2 77.8 593.2 78.7 C 593.2 78.7 593.2 81.5 593.2 81.5 C 593.2 83.5 593.3 84.7 593.4 85.3 C 593.5 85.8 593.6 86.3 593.9 86.8 C 593.91 86.76 591.7 86.8 591.7 86.8 C 591.7 86.8 591.7 86.76 591.7 86.8 Z M 591.1 80.5 C 590.3 80.8 589.2 81.1 587.7 81.3 C 586.8 81.4 586.2 81.6 585.8 81.7 C 585.5 81.9 585.2 82.1 585 82.4 C 584.8 82.7 584.7 83.1 584.7 83.4 C 584.7 84 584.9 84.5 585.3 84.8 C 585.8 85.2 586.4 85.4 587.2 85.4 C 588 85.4 588.7 85.2 589.4 84.9 C 590 84.5 590.5 84 590.8 83.4 C 591 82.9 591.1 82.2 591.1 81.3 C 591.1 81.3 591.1 80.5 591.1 80.5 Z M 596.5 86.8 L 596.5 74.3 L 598.4 74.3 C 598.4 74.3 598.41 76.08 598.4 76.1 C 599.3 74.7 600.6 74 602.4 74 C 603.1 74 603.8 74.2 604.4 74.4 C 605.1 74.7 605.5 75.1 605.8 75.5 C 606.2 75.9 606.4 76.5 606.5 77.1 C 606.6 77.4 606.6 78.1 606.6 79.1 C 606.62 79.11 606.6 86.8 606.6 86.8 L 604.5 86.8 C 604.5 86.8 604.51 79.19 604.5 79.2 C 604.5 78.3 604.4 77.7 604.3 77.3 C 604.1 76.8 603.8 76.5 603.4 76.2 C 603 76 602.5 75.9 601.9 75.9 C 601 75.9 600.2 76.1 599.6 76.7 C 598.9 77.3 598.6 78.4 598.6 80 C 598.62 79.96 598.6 86.8 598.6 86.8 L 596.5 86.8 Z M 618 82.2 C 618 82.2 620.1 82.5 620.1 82.5 C 619.8 83.9 619.2 85 618.3 85.8 C 617.4 86.6 616.2 87 614.9 87 C 613.2 87 611.8 86.5 610.8 85.4 C 609.7 84.3 609.2 82.7 609.2 80.6 C 609.2 79.2 609.4 78.1 609.9 77.1 C 610.3 76 611 75.3 611.9 74.8 C 612.8 74.3 613.8 74 614.9 74 C 616.2 74 617.3 74.4 618.2 75.1 C 619.1 75.7 619.6 76.7 619.9 78 C 619.9 78 617.8 78.3 617.8 78.3 C 617.6 77.5 617.3 76.8 616.8 76.4 C 616.3 76 615.7 75.8 615 75.8 C 613.9 75.8 613 76.1 612.4 76.9 C 611.7 77.7 611.4 78.9 611.4 80.5 C 611.4 82.2 611.7 83.4 612.3 84.2 C 613 84.9 613.8 85.3 614.8 85.3 C 615.7 85.3 616.4 85.1 616.9 84.5 C 617.5 84 617.8 83.3 618 82.2 Z M 630.4 82.8 C 630.4 82.8 632.6 83 632.6 83 C 632.2 84.3 631.6 85.3 630.6 86 C 629.7 86.7 628.5 87 627.1 87 C 625.3 87 623.8 86.5 622.8 85.4 C 621.7 84.2 621.2 82.7 621.2 80.6 C 621.2 78.5 621.7 76.9 622.8 75.8 C 623.8 74.6 625.2 74 627 74 C 628.6 74 630 74.6 631 75.7 C 632.1 76.9 632.6 78.5 632.6 80.5 C 632.6 80.6 632.6 80.8 632.6 81.1 C 632.6 81.1 623.3 81.1 623.3 81.1 C 623.4 82.4 623.8 83.5 624.5 84.2 C 625.2 84.9 626.1 85.3 627.1 85.3 C 627.9 85.3 628.5 85.1 629.1 84.7 C 629.6 84.3 630.1 83.6 630.4 82.8 Z M 623.4 79.3 C 623.4 79.3 630.4 79.3 630.4 79.3 C 630.3 78.3 630 77.5 629.6 77 C 628.9 76.2 628.1 75.8 627 75.8 C 626 75.8 625.2 76.1 624.5 76.7 C 623.9 77.4 623.5 78.3 623.4 79.3 Z M 650.4 86.8 C 650.2 86.3 650.1 85.8 650 85.2 C 649.2 85.9 648.5 86.4 647.7 86.6 C 647 86.9 646.2 87 645.4 87 C 644 87 643 86.7 642.3 86 C 641.5 85.4 641.2 84.5 641.2 83.5 C 641.2 82.9 641.3 82.3 641.6 81.8 C 641.8 81.3 642.2 80.9 642.7 80.6 C 643.1 80.3 643.6 80.1 644.2 79.9 C 644.6 79.8 645.2 79.7 646.1 79.6 C 647.8 79.4 649 79.1 649.8 78.9 C 649.8 78.6 649.8 78.4 649.8 78.3 C 649.8 77.5 649.6 76.8 649.2 76.5 C 648.7 76 647.9 75.8 646.8 75.8 C 645.8 75.8 645.1 76 644.6 76.3 C 644.2 76.6 643.8 77.3 643.6 78.1 C 643.6 78.1 641.5 77.9 641.5 77.9 C 641.7 77 642 76.3 642.4 75.7 C 642.9 75.2 643.5 74.8 644.3 74.5 C 645.1 74.2 646.1 74 647.1 74 C 648.2 74 649.1 74.2 649.7 74.4 C 650.4 74.7 650.9 75 651.2 75.4 C 651.5 75.7 651.7 76.2 651.8 76.8 C 651.9 77.1 651.9 77.8 651.9 78.7 C 651.9 78.7 651.9 81.5 651.9 81.5 C 651.9 83.5 652 84.7 652.1 85.3 C 652.2 85.8 652.4 86.3 652.6 86.8 C 652.62 86.76 650.4 86.8 650.4 86.8 C 650.4 86.8 650.41 86.76 650.4 86.8 Z M 649.8 80.5 C 649.1 80.8 647.9 81.1 646.4 81.3 C 645.5 81.4 644.9 81.6 644.5 81.7 C 644.2 81.9 643.9 82.1 643.7 82.4 C 643.5 82.7 643.4 83.1 643.4 83.4 C 643.4 84 643.6 84.5 644 84.8 C 644.5 85.2 645.1 85.4 645.9 85.4 C 646.7 85.4 647.4 85.2 648.1 84.9 C 648.7 84.5 649.2 84 649.5 83.4 C 649.7 82.9 649.8 82.2 649.8 81.3 C 649.8 81.3 649.8 80.5 649.8 80.5 Z M 654.4 83 C 654.4 83 656.5 82.7 656.5 82.7 C 656.6 83.6 656.9 84.2 657.4 84.6 C 658 85.1 658.7 85.3 659.7 85.3 C 660.7 85.3 661.4 85.1 661.8 84.7 C 662.3 84.3 662.5 83.9 662.5 83.3 C 662.5 82.8 662.3 82.5 661.9 82.2 C 661.6 82 660.9 81.8 659.8 81.5 C 658.2 81.1 657.1 80.8 656.5 80.5 C 656 80.2 655.5 79.8 655.2 79.3 C 654.9 78.8 654.7 78.2 654.7 77.6 C 654.7 77.1 654.9 76.6 655.1 76.1 C 655.4 75.6 655.7 75.2 656.1 74.9 C 656.5 74.7 656.9 74.5 657.5 74.3 C 658.1 74.1 658.7 74 659.3 74 C 660.3 74 661.1 74.2 661.9 74.5 C 662.6 74.7 663.2 75.1 663.5 75.6 C 663.9 76.1 664.1 76.7 664.2 77.5 C 664.2 77.5 662.2 77.8 662.2 77.8 C 662.1 77.2 661.8 76.7 661.4 76.3 C 660.9 75.9 660.3 75.8 659.5 75.8 C 658.5 75.8 657.8 75.9 657.4 76.2 C 657 76.6 656.8 76.9 656.8 77.4 C 656.8 77.6 656.9 77.9 657 78.1 C 657.2 78.3 657.5 78.5 657.8 78.7 C 658 78.8 658.7 78.9 659.7 79.2 C 661.2 79.6 662.2 79.9 662.8 80.2 C 663.4 80.4 663.9 80.8 664.2 81.3 C 664.5 81.8 664.7 82.4 664.7 83.1 C 664.7 83.8 664.5 84.5 664.1 85.1 C 663.7 85.7 663.1 86.2 662.3 86.5 C 661.5 86.9 660.7 87 659.7 87 C 658.1 87 656.8 86.7 656 86 C 655.2 85.4 654.6 84.4 654.4 83 Z M 674.4 86.8 L 674.4 76 L 672.5 76 L 672.5 74.3 L 674.4 74.3 C 674.4 74.3 674.39 72.99 674.4 73 C 674.4 72.2 674.5 71.5 674.6 71.1 C 674.8 70.6 675.2 70.1 675.7 69.8 C 676.2 69.5 676.9 69.3 677.8 69.3 C 678.4 69.3 679.1 69.4 679.8 69.5 C 679.8 69.5 679.5 71.3 679.5 71.3 C 679.1 71.3 678.6 71.2 678.2 71.2 C 677.6 71.2 677.2 71.4 676.9 71.6 C 676.6 71.9 676.5 72.4 676.5 73.2 C 676.49 73.17 676.5 74.3 676.5 74.3 L 678.9 74.3 L 678.9 76 L 676.5 76 L 676.5 86.8 L 674.4 86.8 Z M 679.8 80.5 C 679.8 78.2 680.4 76.5 681.7 75.4 C 682.8 74.5 684.1 74 685.6 74 C 687.3 74 688.7 74.6 689.8 75.7 C 690.9 76.8 691.4 78.4 691.4 80.4 C 691.4 82 691.2 83.2 690.7 84.1 C 690.2 85.1 689.5 85.8 688.6 86.3 C 687.7 86.8 686.7 87 685.6 87 C 683.9 87 682.5 86.5 681.4 85.4 C 680.3 84.2 679.8 82.6 679.8 80.5 Z M 681.9 80.5 C 681.9 82.1 682.3 83.3 683 84.1 C 683.7 84.9 684.6 85.3 685.6 85.3 C 686.7 85.3 687.5 84.9 688.2 84.1 C 688.9 83.3 689.3 82.1 689.3 80.5 C 689.3 78.9 688.9 77.8 688.2 77 C 687.5 76.2 686.6 75.8 685.6 75.8 C 684.6 75.8 683.7 76.2 683 77 C 682.3 77.8 681.9 78.9 681.9 80.5 Z M 693.9 86.8 L 693.9 69.6 L 696 69.6 L 696 86.8 L 693.9 86.8 Z M 699.2 86.8 L 699.2 69.6 L 701.3 69.6 L 701.3 86.8 L 699.2 86.8 Z M 703.8 80.5 C 703.8 78.2 704.4 76.5 705.7 75.4 C 706.8 74.5 708.1 74 709.6 74 C 711.3 74 712.7 74.6 713.8 75.7 C 714.9 76.8 715.4 78.4 715.4 80.4 C 715.4 82 715.2 83.2 714.7 84.1 C 714.2 85.1 713.5 85.8 712.6 86.3 C 711.7 86.8 710.7 87 709.6 87 C 707.9 87 706.5 86.5 705.4 85.4 C 704.3 84.2 703.8 82.6 703.8 80.5 Z M 705.9 80.5 C 705.9 82.1 706.3 83.3 707 84.1 C 707.7 84.9 708.6 85.3 709.6 85.3 C 710.7 85.3 711.5 84.9 712.2 84.1 C 712.9 83.3 713.3 82.1 713.3 80.5 C 713.3 78.9 712.9 77.8 712.2 77 C 711.5 76.2 710.7 75.8 709.6 75.8 C 708.6 75.8 707.7 76.2 707 77 C 706.3 77.8 705.9 78.9 705.9 80.5 Z M 720.2 86.8 L 716.4 74.3 L 718.6 74.3 L 720.6 81.5 C 720.6 81.5 721.3 84.17 721.3 84.2 C 721.3 84 721.5 83.2 721.9 81.6 C 721.95 81.6 723.9 74.3 723.9 74.3 L 726.1 74.3 L 728 81.5 L 728.6 83.9 L 729.3 81.5 L 731.4 74.3 L 733.5 74.3 L 729.6 86.8 L 727.4 86.8 L 725.4 79.3 L 724.9 77.2 L 722.4 86.8 L 720.2 86.8 Z M 734.4 83 C 734.4 83 736.5 82.7 736.5 82.7 C 736.6 83.6 736.9 84.2 737.5 84.6 C 738 85.1 738.8 85.3 739.7 85.3 C 740.7 85.3 741.4 85.1 741.9 84.7 C 742.3 84.3 742.6 83.9 742.6 83.3 C 742.6 82.8 742.4 82.5 741.9 82.2 C 741.7 82 740.9 81.8 739.8 81.5 C 738.2 81.1 737.2 80.8 736.6 80.5 C 736 80.2 735.5 79.8 735.2 79.3 C 734.9 78.8 734.8 78.2 734.8 77.6 C 734.8 77.1 734.9 76.6 735.1 76.1 C 735.4 75.6 735.7 75.2 736.2 74.9 C 736.5 74.7 736.9 74.5 737.5 74.3 C 738.1 74.1 738.7 74 739.3 74 C 740.3 74 741.2 74.2 741.9 74.5 C 742.6 74.7 743.2 75.1 743.5 75.6 C 743.9 76.1 744.1 76.7 744.3 77.5 C 744.3 77.5 742.2 77.8 742.2 77.8 C 742.1 77.2 741.8 76.7 741.4 76.3 C 740.9 75.9 740.3 75.8 739.5 75.8 C 738.5 75.8 737.8 75.9 737.4 76.2 C 737 76.6 736.8 76.9 736.8 77.4 C 736.8 77.6 736.9 77.9 737.1 78.1 C 737.2 78.3 737.5 78.5 737.9 78.7 C 738.1 78.8 738.7 78.9 739.7 79.2 C 741.2 79.6 742.3 79.9 742.8 80.2 C 743.4 80.4 743.9 80.8 744.2 81.3 C 744.6 81.8 744.7 82.4 744.7 83.1 C 744.7 83.8 744.5 84.5 744.1 85.1 C 743.7 85.7 743.1 86.2 742.3 86.5 C 741.6 86.9 740.7 87 739.7 87 C 738.1 87 736.9 86.7 736 86 C 735.2 85.4 734.6 84.4 734.4 83 Z M 747.8 76.7 L 747.8 74.3 L 750.2 74.3 L 750.2 76.7 L 747.8 76.7 Z M 747.8 86.8 L 747.8 84.4 L 750.2 84.4 L 750.2 86.8 L 747.8 86.8 Z " stroke="none" fill="#000"/>  </g>  <g id="Polygon10702">    <path d="M 15.7 3.3 C 15.7 3.3 15.7 6.7 15.7 6.7 C 13.8 5.1 11.8 4.2 9.6 4.2 C 6.7 4.2 4.8 5.8 4.8 8.2 C 4.8 10 5.2 11.6 9.8 13.8 C 15.4 16.8 16.8 18.7 16.8 22.4 C 16.8 26.5 13.6 29.5 9 29.5 C 6.4 29.5 4 28.7 1.9 27.1 C 1.9 27.1 1.9 23.4 1.9 23.4 C 3.9 25.6 6.3 26.8 9 26.8 C 11.7 26.8 13.7 25.1 13.7 22.5 C 13.7 20.2 13 18.8 7.7 16 C 3.4 13.8 1.8 11.8 1.8 8.3 C 1.8 4.4 5.1 1.5 9.6 1.5 C 11.8 1.5 13.9 2.1 15.7 3.3 Z M 36.4 1.9 L 36.4 4.6 L 24.4 4.6 L 24.4 14.1 L 36 14.1 L 36 16.8 L 24.4 16.8 L 24.4 26.4 L 36.7 26.4 L 36.7 29.2 L 21.4 29.2 L 21.4 1.9 L 36.4 1.9 Z M 41.5 1.9 C 41.5 1.9 48.68 1.88 48.7 1.9 C 54.2 1.9 57 5 57 9.2 C 57 12.6 55.2 14.9 51.8 15.9 C 53.6 16.8 54.4 17.6 56.6 21 C 56.64 21 61.9 29.2 61.9 29.2 L 58.4 29.2 C 58.4 29.2 53.56 21.64 53.6 21.6 C 51 17.6 49.4 16.8 47 16.8 C 47.04 16.76 44.5 16.8 44.5 16.8 L 44.5 29.2 L 41.5 29.2 L 41.5 1.9 Z M 47.3 14.1 C 51.1 14.1 53.9 13.2 53.9 9.2 C 53.9 5.9 51.8 4.5 48.3 4.5 C 48.28 4.52 44.5 4.5 44.5 4.5 L 44.5 14.1 C 44.5 14.1 47.32 14.12 47.3 14.1 Z M 60.5 1.9 L 63.5 1.9 L 72.4 23.1 L 72.4 23.1 L 81.3 1.9 L 84.3 1.9 L 72.8 29.4 L 72.1 29.4 L 60.5 1.9 Z M 90.4 1.9 L 90.4 29.2 L 87.4 29.2 L 87.4 1.9 L 90.4 1.9 Z M 119 3.7 C 119 3.7 119 6.9 119 6.9 C 116.2 5.3 113 4.3 109.8 4.3 C 102.8 4.3 98.4 9.6 98.4 15.6 C 98.4 21.7 102.8 26.7 109.8 26.7 C 113.2 26.7 116.3 25.8 119.2 23.9 C 119.2 23.9 119.2 27.2 119.2 27.2 C 116.2 28.8 113 29.5 109.7 29.5 C 100.2 29.5 95.3 22.4 95.3 15.6 C 95.3 7.5 101.6 1.5 109.8 1.5 C 112.8 1.5 116 2.3 119 3.7 Z M 138.9 1.9 L 138.9 4.6 L 127 4.6 L 127 14.1 L 138.5 14.1 L 138.5 16.8 L 127 16.8 L 127 26.4 L 139.2 26.4 L 139.2 29.2 L 124 29.2 L 124 1.9 L 138.9 1.9 Z " stroke="none" fill="#f28620"/>  </g></svg>