<?xml version="1.0" standalone="no"?><!DOCTYPE svg PUBLIC "-//W3C//DTD SVG 1.1//EN" "http://www.w3.org/Graphics/SVG/1.1/DTD/svg11.dtd"><svg xmlns="http://www.w3.org/2000/svg" version="1.1" width="84px" height="27.5px" viewBox="0 -1 84 27.5" style="top:-1px">  <desc>Authenticity</desc>  <defs/>  <g id="Polygon7121">    <path d="M 10.8 16.1 L 14.1 7.5 L 15.3 7.5 L 18.8 16.1 L 17.5 16.1 L 16.5 13.5 L 12.9 13.5 L 12 16.1 L 10.8 16.1 Z M 13.2 12.6 L 16.2 12.6 C 16.2 12.6 15.26 10.18 15.3 10.2 C 15 9.5 14.8 8.9 14.6 8.4 C 14.5 9 14.4 9.5 14.2 10 C 14.19 10.04 13.2 12.6 13.2 12.6 Z M 23.7 16.1 C 23.7 16.1 23.66 15.17 23.7 15.2 C 23.2 15.9 22.5 16.2 21.7 16.2 C 21.3 16.2 21 16.2 20.7 16 C 20.3 15.9 20.1 15.7 19.9 15.5 C 19.8 15.3 19.7 15 19.6 14.7 C 19.6 14.5 19.6 14.2 19.6 13.7 C 19.55 13.72 19.6 9.9 19.6 9.9 L 20.6 9.9 C 20.6 9.9 20.61 13.32 20.6 13.3 C 20.6 13.9 20.6 14.2 20.7 14.4 C 20.7 14.7 20.9 14.9 21.1 15.1 C 21.3 15.2 21.6 15.3 21.9 15.3 C 22.2 15.3 22.5 15.2 22.8 15.1 C 23.1 14.9 23.3 14.7 23.4 14.4 C 23.5 14.1 23.5 13.7 23.5 13.2 C 23.54 13.2 23.5 9.9 23.5 9.9 L 24.6 9.9 L 24.6 16.1 L 23.7 16.1 Z M 28.1 15.2 C 28.2 15.2 28.4 15.2 28.6 15.1 C 28.6 15.1 28.7 16.1 28.7 16.1 C 28.4 16.1 28.1 16.2 27.9 16.2 C 27.5 16.2 27.2 16.1 27 16 C 26.8 15.9 26.7 15.7 26.6 15.5 C 26.5 15.3 26.4 14.9 26.4 14.3 C 26.44 14.27 26.4 10.7 26.4 10.7 L 25.7 10.7 L 25.7 9.9 L 26.4 9.9 L 26.4 8.3 L 27.5 7.7 L 27.5 9.9 L 28.6 9.9 L 28.6 10.7 L 27.5 10.7 C 27.5 10.7 27.49 14.32 27.5 14.3 C 27.5 14.6 27.5 14.8 27.5 14.9 C 27.6 15 27.6 15.1 27.7 15.1 C 27.8 15.2 27.9 15.2 28.1 15.2 C 28.1 15.2 28.1 15.2 28.1 15.2 Z M 29.6 16.1 L 29.6 7.5 L 30.6 7.5 C 30.6 7.5 30.64 10.58 30.6 10.6 C 31.1 10 31.8 9.7 32.5 9.7 C 33 9.7 33.4 9.8 33.7 10 C 34 10.2 34.3 10.4 34.4 10.7 C 34.6 11.1 34.7 11.5 34.7 12.1 C 34.65 12.14 34.7 16.1 34.7 16.1 L 33.6 16.1 C 33.6 16.1 33.6 12.14 33.6 12.1 C 33.6 11.6 33.5 11.2 33.3 11 C 33 10.8 32.7 10.6 32.3 10.6 C 32 10.6 31.7 10.7 31.4 10.9 C 31.1 11 30.9 11.3 30.8 11.5 C 30.7 11.8 30.6 12.2 30.6 12.7 C 30.64 12.68 30.6 16.1 30.6 16.1 L 29.6 16.1 Z M 40.5 14.1 C 40.5 14.1 41.6 14.2 41.6 14.2 C 41.4 14.9 41.1 15.3 40.7 15.7 C 40.2 16.1 39.6 16.2 38.9 16.2 C 38 16.2 37.2 15.9 36.7 15.4 C 36.2 14.8 35.9 14 35.9 13 C 35.9 12 36.2 11.2 36.7 10.6 C 37.3 10 38 9.7 38.8 9.7 C 39.6 9.7 40.3 10 40.9 10.6 C 41.4 11.1 41.6 11.9 41.6 13 C 41.6 13 41.6 13.1 41.6 13.2 C 41.6 13.2 37 13.2 37 13.2 C 37 13.9 37.2 14.5 37.6 14.8 C 37.9 15.2 38.4 15.4 38.9 15.4 C 39.3 15.4 39.6 15.3 39.9 15.1 C 40.1 14.9 40.4 14.5 40.5 14.1 Z M 37.1 12.4 C 37.1 12.4 40.5 12.4 40.5 12.4 C 40.5 11.9 40.4 11.5 40.1 11.2 C 39.8 10.8 39.4 10.6 38.8 10.6 C 38.3 10.6 37.9 10.8 37.6 11.1 C 37.3 11.4 37.1 11.8 37.1 12.4 Z M 42.9 16.1 L 42.9 9.9 L 43.9 9.9 C 43.9 9.9 43.88 10.75 43.9 10.7 C 44.3 10.1 45 9.7 45.9 9.7 C 46.2 9.7 46.6 9.8 46.9 9.9 C 47.2 10.1 47.4 10.2 47.6 10.5 C 47.8 10.7 47.9 10.9 47.9 11.2 C 48 11.4 48 11.8 48 12.3 C 47.99 12.26 48 16.1 48 16.1 L 46.9 16.1 C 46.9 16.1 46.94 12.3 46.9 12.3 C 46.9 11.9 46.9 11.6 46.8 11.3 C 46.7 11.1 46.6 11 46.4 10.8 C 46.2 10.7 45.9 10.6 45.6 10.6 C 45.2 10.6 44.8 10.8 44.5 11.1 C 44.2 11.4 44 11.9 44 12.7 C 43.99 12.69 44 16.1 44 16.1 L 42.9 16.1 Z M 51.4 15.2 C 51.6 15.2 51.7 15.2 51.9 15.1 C 51.9 15.1 52.1 16.1 52.1 16.1 C 51.8 16.1 51.5 16.2 51.3 16.2 C 50.9 16.2 50.6 16.1 50.4 16 C 50.2 15.9 50 15.7 49.9 15.5 C 49.8 15.3 49.8 14.9 49.8 14.3 C 49.8 14.27 49.8 10.7 49.8 10.7 L 49 10.7 L 49 9.9 L 49.8 9.9 L 49.8 8.3 L 50.8 7.7 L 50.8 9.9 L 51.9 9.9 L 51.9 10.7 L 50.8 10.7 C 50.8 10.7 50.85 14.32 50.8 14.3 C 50.8 14.6 50.9 14.8 50.9 14.9 C 50.9 15 51 15.1 51.1 15.1 C 51.2 15.2 51.3 15.2 51.4 15.2 C 51.4 15.2 51.4 15.2 51.4 15.2 Z M 52.9 8.7 L 52.9 7.5 L 54 7.5 L 54 8.7 L 52.9 8.7 Z M 52.9 16.1 L 52.9 9.9 L 54 9.9 L 54 16.1 L 52.9 16.1 Z M 59.7 13.8 C 59.7 13.8 60.7 13.9 60.7 13.9 C 60.6 14.7 60.3 15.2 59.8 15.6 C 59.4 16 58.8 16.2 58.1 16.2 C 57.3 16.2 56.6 15.9 56.1 15.4 C 55.5 14.8 55.3 14 55.3 13 C 55.3 12.3 55.4 11.7 55.6 11.2 C 55.8 10.7 56.2 10.4 56.6 10.1 C 57.1 9.9 57.6 9.7 58.1 9.7 C 58.8 9.7 59.3 9.9 59.8 10.2 C 60.2 10.6 60.5 11.1 60.6 11.7 C 60.6 11.7 59.6 11.9 59.6 11.9 C 59.5 11.4 59.3 11.1 59.1 10.9 C 58.8 10.7 58.5 10.6 58.2 10.6 C 57.6 10.6 57.2 10.8 56.9 11.2 C 56.5 11.5 56.4 12.1 56.4 13 C 56.4 13.8 56.5 14.4 56.8 14.8 C 57.2 15.2 57.6 15.4 58.1 15.4 C 58.5 15.4 58.9 15.2 59.1 15 C 59.4 14.7 59.6 14.3 59.7 13.8 Z M 61.6 8.7 L 61.6 7.5 L 62.7 7.5 L 62.7 8.7 L 61.6 8.7 Z M 61.6 16.1 L 61.6 9.9 L 62.7 9.9 L 62.7 16.1 L 61.6 16.1 Z M 66.1 15.2 C 66.2 15.2 66.4 15.2 66.6 15.1 C 66.6 15.1 66.7 16.1 66.7 16.1 C 66.4 16.1 66.2 16.2 65.9 16.2 C 65.5 16.2 65.3 16.1 65 16 C 64.8 15.9 64.7 15.7 64.6 15.5 C 64.5 15.3 64.5 14.9 64.5 14.3 C 64.47 14.27 64.5 10.7 64.5 10.7 L 63.7 10.7 L 63.7 9.9 L 64.5 9.9 L 64.5 8.3 L 65.5 7.7 L 65.5 9.9 L 66.6 9.9 L 66.6 10.7 L 65.5 10.7 C 65.5 10.7 65.52 14.32 65.5 14.3 C 65.5 14.6 65.5 14.8 65.6 14.9 C 65.6 15 65.7 15.1 65.8 15.1 C 65.8 15.2 66 15.2 66.1 15.2 C 66.1 15.2 66.1 15.2 66.1 15.2 Z M 68.2 18.6 C 68 18.6 67.8 18.6 67.6 18.5 C 67.6 18.5 67.4 17.5 67.4 17.5 C 67.7 17.6 67.9 17.6 68 17.6 C 68.3 17.6 68.5 17.5 68.6 17.5 C 68.7 17.4 68.9 17.3 69 17.1 C 69 17 69.1 16.8 69.3 16.4 C 69.3 16.3 69.3 16.2 69.4 16.1 C 69.37 16.1 67 9.9 67 9.9 L 68.1 9.9 C 68.1 9.9 69.44 13.47 69.4 13.5 C 69.6 13.9 69.8 14.4 69.9 14.9 C 70 14.4 70.2 14 70.3 13.5 C 70.33 13.49 71.7 9.9 71.7 9.9 L 72.7 9.9 C 72.7 9.9 70.34 16.19 70.3 16.2 C 70.1 16.9 69.9 17.3 69.8 17.6 C 69.6 18 69.3 18.2 69.1 18.4 C 68.9 18.5 68.6 18.6 68.2 18.6 C 68.2 18.6 68.2 18.6 68.2 18.6 Z " stroke="none" fill="#000"/>  </g></svg>