<?xml version="1.0" standalone="no"?><!DOCTYPE svg PUBLIC "-//W3C//DTD SVG 1.1//EN" "http://www.w3.org/Graphics/SVG/1.1/DTD/svg11.dtd"><svg xmlns="http://www.w3.org/2000/svg" version="1.1" width="205.4px" height="38.8px" viewBox="0 -7 205.4 38.8" style="top:-7px">  <desc>Client Feedback</desc>  <defs/>  <g id="Polygon38470">    <path d="M 16 2.3 C 16 2.3 16 4.3 16 4.3 C 14.2 3.3 12.2 2.7 10.2 2.7 C 5.9 2.7 3.1 6 3.1 9.7 C 3.1 13.5 5.8 16.7 10.2 16.7 C 12.3 16.7 14.3 16.1 16.1 14.9 C 16.1 14.9 16.1 17 16.1 17 C 14.2 18 12.3 18.4 10.2 18.4 C 4.3 18.4 1.2 14 1.2 9.8 C 1.2 4.7 5.1 0.9 10.2 0.9 C 12.1 0.9 14.1 1.4 16 2.3 Z M 20.9 1.2 L 20.9 16.5 L 29 16.5 L 29 18.2 L 19.1 18.2 L 19.1 1.2 L 20.9 1.2 Z M 33 1.2 L 33 18.2 L 31.1 18.2 L 31.1 1.2 L 33 1.2 Z M 46.2 1.2 L 46.2 2.8 L 38.7 2.8 L 38.7 8.8 L 45.9 8.8 L 45.9 10.5 L 38.7 10.5 L 38.7 16.5 L 46.4 16.5 L 46.4 18.2 L 36.8 18.2 L 36.8 1.2 L 46.2 1.2 Z M 50.9 1.2 L 63 15.3 L 63 1.2 L 64.8 1.2 L 64.8 18.2 L 63.2 18.2 L 51.2 4.2 L 51.2 18.2 L 49.4 18.2 L 49.4 1.2 L 50.9 1.2 Z M 81.1 1.2 L 81.1 2.8 L 75 2.8 L 75 18.2 L 73.1 18.2 L 73.1 2.8 L 67.1 2.8 L 67.1 1.2 L 81.1 1.2 Z M 99.1 1.2 L 99.1 2.9 L 92.2 2.9 L 92.2 8.4 L 98.9 8.4 L 98.9 10.1 L 92.2 10.1 L 92.2 18.2 L 90.3 18.2 L 90.3 1.2 L 99.1 1.2 Z M 110.9 1.2 L 110.9 2.8 L 103.5 2.8 L 103.5 8.8 L 110.7 8.8 L 110.7 10.5 L 103.5 10.5 L 103.5 16.5 L 111.1 16.5 L 111.1 18.2 L 101.6 18.2 L 101.6 1.2 L 110.9 1.2 Z M 123.5 1.2 L 123.5 2.8 L 116 2.8 L 116 8.8 L 123.2 8.8 L 123.2 10.5 L 116 10.5 L 116 16.5 L 123.7 16.5 L 123.7 18.2 L 114.1 18.2 L 114.1 1.2 L 123.5 1.2 Z M 126.7 1.2 C 126.7 1.2 132.97 1.17 133 1.2 C 138.5 1.2 142.1 4.6 142.1 9.5 C 142.1 14.8 138.4 18.2 133 18.2 C 132.97 18.22 126.7 18.2 126.7 18.2 L 126.7 1.2 Z M 132.9 16.5 C 137.4 16.5 140.2 13.9 140.2 9.7 C 140.2 5.5 137.5 2.8 132.7 2.8 C 132.67 2.85 128.6 2.8 128.6 2.8 L 128.6 16.5 C 128.6 16.5 132.95 16.52 132.9 16.5 Z M 149.7 1.2 C 152.8 1.2 154.9 2.8 154.9 5.5 C 154.9 7.3 153.9 8.6 152.1 9.3 C 154.8 9.6 156.4 11.4 156.4 13.6 C 156.4 16.8 153.6 18.2 150.5 18.2 C 150.47 18.22 145.3 18.2 145.3 18.2 L 145.3 1.2 C 145.3 1.2 149.67 1.17 149.7 1.2 Z M 147.1 8.7 C 147.1 8.7 149 8.75 149 8.7 C 151.8 8.7 153 7.4 153 5.7 C 153 3.7 151.8 2.8 149.3 2.8 C 149.3 2.82 147.1 2.8 147.1 2.8 L 147.1 8.7 Z M 150.1 16.6 C 152.8 16.6 154.4 15.6 154.4 13.5 C 154.4 11.5 153.1 10.4 149.8 10.4 C 149.85 10.37 147.1 10.4 147.1 10.4 L 147.1 16.6 C 147.1 16.6 150.12 16.57 150.1 16.6 Z M 166.3 1.1 L 173.9 18.2 L 172 18.2 L 169.6 12.9 L 161.8 12.9 L 159.5 18.2 L 157.6 18.2 L 165 1.1 L 166.3 1.1 Z M 162.6 11.2 L 168.8 11.2 L 165.6 3.9 L 162.6 11.2 Z M 189.2 2.3 C 189.2 2.3 189.2 4.3 189.2 4.3 C 187.4 3.3 185.4 2.7 183.4 2.7 C 179.1 2.7 176.3 6 176.3 9.7 C 176.3 13.5 179 16.7 183.4 16.7 C 185.5 16.7 187.5 16.1 189.3 14.9 C 189.3 14.9 189.3 17 189.3 17 C 187.4 18 185.4 18.4 183.3 18.4 C 177.4 18.4 174.4 14 174.4 9.8 C 174.4 4.7 178.3 0.9 183.4 0.9 C 185.3 0.9 187.3 1.4 189.2 2.3 Z M 194.1 1.2 L 194.1 9.2 L 201.6 1.2 L 204 1.2 L 196.3 9.4 L 205.5 18.2 L 202.9 18.2 L 194.1 9.7 L 194.1 18.2 L 192.3 18.2 L 192.3 1.2 L 194.1 1.2 Z " stroke="none" fill="#000000"/>  </g></svg>