<?xml version="1.0" standalone="no"?><!DOCTYPE svg PUBLIC "-//W3C//DTD SVG 1.1//EN" "http://www.w3.org/Graphics/SVG/1.1/DTD/svg11.dtd"><svg xmlns="http://www.w3.org/2000/svg" version="1.1" width="63px" height="27.5px" viewBox="0 -1 63 27.5" style="top:-1px">  <desc>Knowledge</desc>  <defs/>  <g id="Polygon44833">    <path d="M 2.7 16.1 L 2.7 7.5 L 3.8 7.5 L 3.8 11.8 L 8.1 7.5 L 9.6 7.5 L 6 11 L 9.8 16.1 L 8.3 16.1 L 5.2 11.7 L 3.8 13.1 L 3.8 16.1 L 2.7 16.1 Z M 10.6 16.1 L 10.6 9.9 L 11.5 9.9 C 11.5 9.9 11.54 10.74 11.5 10.7 C 12 10.1 12.7 9.7 13.5 9.7 C 13.9 9.7 14.2 9.8 14.6 9.9 C 14.9 10.1 15.1 10.2 15.3 10.5 C 15.4 10.7 15.5 10.9 15.6 11.2 C 15.6 11.4 15.6 11.8 15.6 12.3 C 15.65 12.26 15.6 16.1 15.6 16.1 L 14.6 16.1 C 14.6 16.1 14.59 12.3 14.6 12.3 C 14.6 11.9 14.6 11.5 14.5 11.3 C 14.4 11.1 14.2 11 14 10.8 C 13.8 10.7 13.6 10.6 13.3 10.6 C 12.8 10.6 12.5 10.8 12.1 11.1 C 11.8 11.3 11.6 11.9 11.6 12.7 C 11.65 12.68 11.6 16.1 11.6 16.1 L 10.6 16.1 Z M 16.9 13 C 16.9 11.8 17.2 11 17.8 10.4 C 18.4 9.9 19 9.7 19.8 9.7 C 20.6 9.7 21.3 10 21.9 10.6 C 22.4 11.1 22.7 11.9 22.7 12.9 C 22.7 13.7 22.6 14.3 22.3 14.8 C 22.1 15.2 21.8 15.6 21.3 15.8 C 20.8 16.1 20.3 16.2 19.8 16.2 C 18.9 16.2 18.2 15.9 17.7 15.4 C 17.1 14.8 16.9 14 16.9 13 Z M 18 13 C 18 13.8 18.1 14.4 18.5 14.8 C 18.8 15.2 19.3 15.4 19.8 15.4 C 20.3 15.4 20.7 15.2 21.1 14.8 C 21.4 14.4 21.6 13.8 21.6 12.9 C 21.6 12.2 21.4 11.6 21.1 11.2 C 20.7 10.8 20.3 10.6 19.8 10.6 C 19.3 10.6 18.8 10.8 18.5 11.2 C 18.1 11.6 18 12.2 18 13 Z M 25.1 16.1 L 23.2 9.9 L 24.3 9.9 L 25.3 13.5 C 25.3 13.5 25.63 14.79 25.6 14.8 C 25.6 14.7 25.8 14.3 26 13.5 C 25.95 13.5 26.9 9.9 26.9 9.9 L 28 9.9 L 29 13.5 L 29.3 14.7 L 29.6 13.5 L 30.7 9.9 L 31.7 9.9 L 29.8 16.1 L 28.7 16.1 L 27.7 12.4 L 27.4 11.3 L 26.2 16.1 L 25.1 16.1 Z M 32.6 16.1 L 32.6 7.5 L 33.6 7.5 L 33.6 16.1 L 32.6 16.1 Z M 39.5 14.1 C 39.5 14.1 40.6 14.2 40.6 14.2 C 40.4 14.8 40.1 15.3 39.7 15.7 C 39.2 16 38.6 16.2 37.9 16.2 C 37 16.2 36.3 15.9 35.7 15.4 C 35.2 14.8 34.9 14 34.9 13 C 34.9 12 35.2 11.2 35.7 10.6 C 36.3 10 37 9.7 37.8 9.7 C 38.7 9.7 39.3 10 39.9 10.6 C 40.4 11.1 40.7 11.9 40.7 13 C 40.7 13 40.7 13.1 40.6 13.2 C 40.6 13.2 36 13.2 36 13.2 C 36 13.9 36.2 14.4 36.6 14.8 C 36.9 15.2 37.4 15.4 37.9 15.4 C 38.3 15.4 38.6 15.3 38.9 15.1 C 39.2 14.8 39.4 14.5 39.5 14.1 Z M 36.1 12.4 C 36.1 12.4 39.5 12.4 39.5 12.4 C 39.5 11.8 39.4 11.5 39.1 11.2 C 38.8 10.8 38.4 10.6 37.8 10.6 C 37.4 10.6 36.9 10.7 36.6 11.1 C 36.3 11.4 36.1 11.8 36.1 12.4 Z M 46 16.1 C 46 16.1 45.98 15.3 46 15.3 C 45.6 15.9 45 16.2 44.2 16.2 C 43.7 16.2 43.3 16.1 42.9 15.8 C 42.5 15.5 42.1 15.2 41.9 14.7 C 41.7 14.2 41.6 13.6 41.6 13 C 41.6 12.4 41.7 11.8 41.9 11.3 C 42.1 10.8 42.4 10.4 42.8 10.1 C 43.2 9.9 43.7 9.7 44.2 9.7 C 44.6 9.7 44.9 9.8 45.2 10 C 45.5 10.1 45.7 10.3 45.9 10.6 C 45.91 10.57 45.9 7.5 45.9 7.5 L 47 7.5 L 47 16.1 L 46 16.1 Z M 42.6 13 C 42.6 13.8 42.8 14.4 43.2 14.8 C 43.5 15.2 43.9 15.4 44.3 15.4 C 44.8 15.4 45.2 15.2 45.5 14.8 C 45.8 14.4 46 13.8 46 13.1 C 46 12.2 45.8 11.6 45.5 11.2 C 45.2 10.8 44.8 10.6 44.3 10.6 C 43.8 10.6 43.4 10.8 43.1 11.2 C 42.8 11.5 42.6 12.2 42.6 13 Z M 48.4 16.6 C 48.4 16.6 49.5 16.7 49.5 16.7 C 49.5 17.1 49.6 17.3 49.8 17.4 C 50.1 17.6 50.4 17.7 50.9 17.7 C 51.4 17.7 51.7 17.6 52 17.4 C 52.3 17.2 52.5 17 52.5 16.6 C 52.6 16.4 52.6 16 52.6 15.3 C 52.2 15.8 51.6 16.1 50.9 16.1 C 50 16.1 49.4 15.8 48.9 15.2 C 48.4 14.5 48.2 13.8 48.2 12.9 C 48.2 12.3 48.3 11.8 48.5 11.3 C 48.8 10.8 49.1 10.4 49.5 10.1 C 49.9 9.9 50.4 9.7 50.9 9.7 C 51.6 9.7 52.2 10 52.7 10.6 C 52.73 10.61 52.7 9.9 52.7 9.9 L 53.7 9.9 C 53.7 9.9 53.7 15.24 53.7 15.2 C 53.7 16.2 53.6 16.9 53.4 17.3 C 53.2 17.7 52.9 18 52.5 18.3 C 52 18.5 51.5 18.6 50.9 18.6 C 50.1 18.6 49.5 18.4 49.1 18.1 C 48.6 17.8 48.4 17.3 48.4 16.6 Z M 49.3 12.9 C 49.3 13.7 49.5 14.3 49.8 14.6 C 50.1 15 50.5 15.2 51 15.2 C 51.5 15.2 51.9 15 52.2 14.6 C 52.5 14.3 52.7 13.7 52.7 12.9 C 52.7 12.1 52.5 11.6 52.2 11.2 C 51.9 10.8 51.5 10.6 51 10.6 C 50.5 10.6 50.1 10.8 49.8 11.2 C 49.5 11.5 49.3 12.1 49.3 12.9 Z M 59.6 14.1 C 59.6 14.1 60.6 14.2 60.6 14.2 C 60.5 14.8 60.2 15.3 59.7 15.7 C 59.2 16 58.6 16.2 57.9 16.2 C 57 16.2 56.3 15.9 55.7 15.4 C 55.2 14.8 54.9 14 54.9 13 C 54.9 12 55.2 11.2 55.7 10.6 C 56.3 10 57 9.7 57.8 9.7 C 58.7 9.7 59.4 10 59.9 10.6 C 60.4 11.1 60.7 11.9 60.7 13 C 60.7 13 60.7 13.1 60.7 13.2 C 60.7 13.2 56 13.2 56 13.2 C 56.1 13.9 56.3 14.4 56.6 14.8 C 57 15.2 57.4 15.4 57.9 15.4 C 58.3 15.4 58.6 15.3 58.9 15.1 C 59.2 14.8 59.4 14.5 59.6 14.1 Z M 56.1 12.4 C 56.1 12.4 59.6 12.4 59.6 12.4 C 59.5 11.8 59.4 11.5 59.2 11.2 C 58.8 10.8 58.4 10.6 57.9 10.6 C 57.4 10.6 57 10.7 56.6 11.1 C 56.3 11.4 56.1 11.8 56.1 12.4 Z " stroke="none" fill="#000"/>  </g></svg>