<?xml version="1.0" standalone="no"?><!DOCTYPE svg PUBLIC "-//W3C//DTD SVG 1.1//EN" "http://www.w3.org/Graphics/SVG/1.1/DTD/svg11.dtd"><svg xmlns="http://www.w3.org/2000/svg" version="1.1" width="84px" height="27.5px" viewBox="0 -1 84 27.5" style="top:-1px">  <desc>Flexibility</desc>  <defs/>  <g id="Polygon7280">    <path d="M 18.1 16.1 L 18.1 7.5 L 23.9 7.5 L 23.9 8.5 L 19.2 8.5 L 19.2 11.2 L 23.3 11.2 L 23.3 12.2 L 19.2 12.2 L 19.2 16.1 L 18.1 16.1 Z M 25.2 16.1 L 25.2 7.5 L 26.3 7.5 L 26.3 16.1 L 25.2 16.1 Z M 32.2 14.1 C 32.2 14.1 33.3 14.2 33.3 14.2 C 33.1 14.9 32.8 15.3 32.3 15.7 C 31.8 16.1 31.3 16.2 30.5 16.2 C 29.6 16.2 28.9 15.9 28.4 15.4 C 27.8 14.8 27.6 14 27.6 13 C 27.6 12 27.8 11.2 28.4 10.6 C 28.9 10 29.6 9.7 30.5 9.7 C 31.3 9.7 32 10 32.5 10.6 C 33 11.1 33.3 11.9 33.3 13 C 33.3 13 33.3 13.1 33.3 13.2 C 33.3 13.2 28.7 13.2 28.7 13.2 C 28.7 13.9 28.9 14.5 29.2 14.8 C 29.6 15.2 30 15.4 30.5 15.4 C 30.9 15.4 31.3 15.3 31.5 15.1 C 31.8 14.9 32 14.5 32.2 14.1 Z M 28.7 12.4 C 28.7 12.4 32.2 12.4 32.2 12.4 C 32.1 11.9 32 11.5 31.8 11.2 C 31.5 10.8 31 10.6 30.5 10.6 C 30 10.6 29.6 10.8 29.3 11.1 C 28.9 11.4 28.7 11.8 28.7 12.4 Z M 33.9 16.1 L 36.2 12.9 L 34.1 9.9 L 35.4 9.9 C 35.4 9.9 36.33 11.32 36.3 11.3 C 36.5 11.6 36.7 11.8 36.8 12 C 36.9 11.8 37.1 11.5 37.2 11.3 C 37.24 11.34 38.3 9.9 38.3 9.9 L 39.5 9.9 L 37.4 12.8 L 39.7 16.1 L 38.4 16.1 L 37.1 14.2 L 36.8 13.6 L 35.2 16.1 L 33.9 16.1 Z M 40.6 8.7 L 40.6 7.5 L 41.6 7.5 L 41.6 8.7 L 40.6 8.7 Z M 40.6 16.1 L 40.6 9.9 L 41.6 9.9 L 41.6 16.1 L 40.6 16.1 Z M 44.2 16.1 L 43.2 16.1 L 43.2 7.5 L 44.3 7.5 C 44.3 7.5 44.3 10.56 44.3 10.6 C 44.7 10 45.3 9.7 46 9.7 C 46.4 9.7 46.8 9.8 47.1 10 C 47.4 10.1 47.7 10.3 47.9 10.6 C 48.2 10.9 48.3 11.2 48.5 11.6 C 48.6 12 48.6 12.4 48.6 12.9 C 48.6 13.9 48.4 14.8 47.9 15.4 C 47.3 15.9 46.7 16.2 46 16.2 C 45.2 16.2 44.6 15.9 44.2 15.3 C 44.23 15.31 44.2 16.1 44.2 16.1 Z M 44.2 12.9 C 44.2 13.7 44.3 14.2 44.5 14.5 C 44.9 15.1 45.3 15.4 45.9 15.4 C 46.3 15.4 46.7 15.2 47.1 14.8 C 47.4 14.4 47.6 13.8 47.6 13 C 47.6 12.2 47.4 11.6 47.1 11.2 C 46.8 10.8 46.4 10.6 45.9 10.6 C 45.5 10.6 45.1 10.8 44.7 11.2 C 44.4 11.6 44.2 12.2 44.2 12.9 Z M 49.9 8.7 L 49.9 7.5 L 51 7.5 L 51 8.7 L 49.9 8.7 Z M 49.9 16.1 L 49.9 9.9 L 51 9.9 L 51 16.1 L 49.9 16.1 Z M 52.6 16.1 L 52.6 7.5 L 53.6 7.5 L 53.6 16.1 L 52.6 16.1 Z M 55.3 8.7 L 55.3 7.5 L 56.3 7.5 L 56.3 8.7 L 55.3 8.7 Z M 55.3 16.1 L 55.3 9.9 L 56.3 9.9 L 56.3 16.1 L 55.3 16.1 Z M 59.8 15.2 C 59.9 15.2 60 15.2 60.2 15.1 C 60.2 15.1 60.4 16.1 60.4 16.1 C 60.1 16.1 59.8 16.2 59.6 16.2 C 59.2 16.2 58.9 16.1 58.7 16 C 58.5 15.9 58.3 15.7 58.2 15.5 C 58.2 15.3 58.1 14.9 58.1 14.3 C 58.12 14.27 58.1 10.7 58.1 10.7 L 57.3 10.7 L 57.3 9.9 L 58.1 9.9 L 58.1 8.3 L 59.2 7.7 L 59.2 9.9 L 60.2 9.9 L 60.2 10.7 L 59.2 10.7 C 59.2 10.7 59.17 14.32 59.2 14.3 C 59.2 14.6 59.2 14.8 59.2 14.9 C 59.3 15 59.3 15.1 59.4 15.1 C 59.5 15.2 59.6 15.2 59.8 15.2 C 59.8 15.2 59.8 15.2 59.8 15.2 Z M 61.9 18.6 C 61.7 18.6 61.5 18.6 61.2 18.5 C 61.2 18.5 61.1 17.5 61.1 17.5 C 61.3 17.6 61.5 17.6 61.7 17.6 C 61.9 17.6 62.1 17.5 62.3 17.5 C 62.4 17.4 62.5 17.3 62.6 17.1 C 62.7 17 62.8 16.8 62.9 16.4 C 63 16.3 63 16.2 63 16.1 C 63.02 16.1 60.7 9.9 60.7 9.9 L 61.8 9.9 C 61.8 9.9 63.1 13.47 63.1 13.5 C 63.3 13.9 63.4 14.4 63.5 14.9 C 63.7 14.4 63.8 14 64 13.5 C 63.98 13.49 65.3 9.9 65.3 9.9 L 66.4 9.9 C 66.4 9.9 64 16.19 64 16.2 C 63.7 16.9 63.5 17.3 63.4 17.6 C 63.2 18 63 18.2 62.8 18.4 C 62.5 18.5 62.2 18.6 61.9 18.6 C 61.9 18.6 61.9 18.6 61.9 18.6 Z " stroke="none" fill="#000"/>  </g></svg>