<?xml version="1.0" standalone="no"?><!DOCTYPE svg PUBLIC "-//W3C//DTD SVG 1.1//EN" "http://www.w3.org/Graphics/SVG/1.1/DTD/svg11.dtd"><svg xmlns="http://www.w3.org/2000/svg" version="1.1" width="850.1px" height="253.5px" viewBox="0 -1 850.1 253.5" style="top:-1px">  <desc>Client Feedback</desc>  <defs/>  <g id="Polygon5662">    <path d="M 212 105.3 C 212 105.3 212 109.3 212 109.3 C 208.4 107.3 204.5 106.1 200.5 106.1 C 191.8 106.1 186.3 112.6 186.3 120.1 C 186.3 127.8 191.7 134.1 200.4 134.1 C 204.6 134.1 208.6 132.9 212.3 130.6 C 212.3 130.6 212.3 134.7 212.3 134.7 C 208.5 136.7 204.5 137.6 200.3 137.6 C 188.5 137.6 182.4 128.7 182.4 120.2 C 182.4 110.1 190.2 102.6 200.4 102.6 C 204.3 102.6 208.1 103.5 212 105.3 Z M 221.9 103 L 221.9 133.7 L 237.9 133.7 L 237.9 137.1 L 218.1 137.1 L 218.1 103 L 221.9 103 Z M 246 103 L 246 137.1 L 242.3 137.1 L 242.3 103 L 246 103 Z M 272.3 103 L 272.3 106.4 L 257.4 106.4 L 257.4 118.3 L 271.8 118.3 L 271.8 121.6 L 257.4 121.6 L 257.4 133.7 L 272.7 133.7 L 272.7 137.1 L 253.7 137.1 L 253.7 103 L 272.3 103 Z M 281.9 103 L 306 131.2 L 306 103 L 309.6 103 L 309.6 137.1 L 306.3 137.1 L 282.4 109 L 282.4 137.1 L 278.8 137.1 L 278.8 103 L 281.9 103 Z M 342.2 103 L 342.2 106.3 L 330 106.3 L 330 137.1 L 326.2 137.1 L 326.2 106.3 L 314.2 106.3 L 314.2 103 L 342.2 103 Z M 378.2 103 L 378.2 106.4 L 364.4 106.4 L 364.4 117.4 L 377.7 117.4 L 377.7 120.8 L 364.4 120.8 L 364.4 137.1 L 360.7 137.1 L 360.7 103 L 378.2 103 Z M 401.8 103 L 401.8 106.4 L 386.9 106.4 L 386.9 118.3 L 401.3 118.3 L 401.3 121.6 L 386.9 121.6 L 386.9 133.7 L 402.2 133.7 L 402.2 137.1 L 383.2 137.1 L 383.2 103 L 401.8 103 Z M 426.9 103 L 426.9 106.4 L 412 106.4 L 412 118.3 L 426.4 118.3 L 426.4 121.6 L 412 121.6 L 412 133.7 L 427.3 133.7 L 427.3 137.1 L 408.3 137.1 L 408.3 103 L 426.9 103 Z M 433.4 103 C 433.4 103 445.95 103.04 445.9 103 C 457.1 103 464.3 110 464.3 119.7 C 464.3 130.3 456.8 137.1 445.9 137.1 C 445.95 137.14 433.4 137.1 433.4 137.1 L 433.4 103 Z M 445.9 133.7 C 454.8 133.7 460.4 128.4 460.4 120 C 460.4 111.8 455 106.4 445.3 106.4 C 445.35 106.39 437.1 106.4 437.1 106.4 L 437.1 133.7 C 437.1 133.7 445.9 133.74 445.9 133.7 Z M 479.3 103 C 485.7 103 489.9 106.3 489.9 111.7 C 489.9 115.4 487.9 118 484.2 119.2 C 489.5 120 492.8 123.5 492.8 128 C 492.8 134.3 487.2 137.1 480.9 137.1 C 480.95 137.14 470.5 137.1 470.5 137.1 L 470.5 103 C 470.5 103 479.35 103.04 479.3 103 Z M 474.2 118.2 C 474.2 118.2 478 118.19 478 118.2 C 483.6 118.2 486 115.6 486 112.1 C 486 108.1 483.6 106.3 478.6 106.3 C 478.6 106.34 474.2 106.3 474.2 106.3 L 474.2 118.2 Z M 480.2 133.8 C 485.7 133.8 488.9 132 488.9 127.7 C 488.9 123.7 486.1 121.4 479.7 121.4 C 479.7 121.44 474.2 121.4 474.2 121.4 L 474.2 133.8 C 474.2 133.8 480.25 133.84 480.2 133.8 Z M 512.6 102.8 L 527.8 137.1 L 524 137.1 L 519.2 126.4 L 503.7 126.4 L 499.1 137.1 L 495.2 137.1 L 510 102.8 L 512.6 102.8 Z M 505.1 123.1 L 517.7 123.1 L 511.2 108.6 L 505.1 123.1 Z M 558.4 105.3 C 558.4 105.3 558.4 109.3 558.4 109.3 C 554.8 107.3 550.8 106.1 546.8 106.1 C 538.1 106.1 532.6 112.6 532.6 120.1 C 532.6 127.8 538.1 134.1 546.8 134.1 C 551 134.1 555 132.9 558.6 130.6 C 558.6 130.6 558.6 134.7 558.6 134.7 C 554.8 136.7 550.9 137.6 546.7 137.6 C 534.9 137.6 528.7 128.7 528.7 120.2 C 528.7 110.1 536.5 102.6 546.8 102.6 C 550.6 102.6 554.5 103.5 558.4 105.3 Z M 568.3 103 L 568.3 119 L 583.2 103 L 587.9 103 L 572.7 119.4 L 590.9 137.1 L 585.8 137.1 L 568.3 120.2 L 568.3 137.1 L 564.5 137.1 L 564.5 103 L 568.3 103 Z " stroke="none" fill="#010102"/>  </g></svg>