<?xml version="1.0" standalone="no"?><!DOCTYPE svg PUBLIC "-//W3C//DTD SVG 1.1//EN" "http://www.w3.org/Graphics/SVG/1.1/DTD/svg11.dtd"><svg xmlns="http://www.w3.org/2000/svg" version="1.1" width="73.5px" height="27.5px" viewBox="0 -1 73.5 27.5" style="top:-1px">  <desc>Credibility</desc>  <defs/>  <g id="Polygon52553">    <path d="M 17.5 12.9 C 17.5 12.9 18.6 13.2 18.6 13.2 C 18.4 14.1 17.9 14.9 17.3 15.3 C 16.7 15.8 15.9 16.1 15 16.1 C 14.1 16.1 13.4 15.9 12.8 15.5 C 12.2 15.1 11.8 14.6 11.5 13.9 C 11.2 13.2 11 12.4 11 11.6 C 11 10.7 11.2 9.9 11.5 9.2 C 11.9 8.6 12.3 8.1 13 7.7 C 13.6 7.4 14.3 7.2 15.1 7.2 C 15.9 7.2 16.6 7.4 17.2 7.9 C 17.8 8.3 18.2 8.9 18.4 9.7 C 18.4 9.7 17.3 10 17.3 10 C 17.1 9.3 16.8 8.9 16.5 8.6 C 16.1 8.3 15.6 8.2 15 8.2 C 14.4 8.2 13.8 8.3 13.4 8.6 C 12.9 9 12.6 9.4 12.4 9.9 C 12.3 10.5 12.2 11 12.2 11.6 C 12.2 12.3 12.3 12.9 12.5 13.5 C 12.7 14 13 14.4 13.5 14.7 C 13.9 15 14.4 15.1 14.9 15.1 C 15.6 15.1 16.1 14.9 16.6 14.6 C 17 14.2 17.3 13.6 17.5 12.9 Z M 19.8 15.9 L 19.8 9.7 L 20.8 9.7 C 20.8 9.7 20.8 10.66 20.8 10.7 C 21 10.2 21.3 9.9 21.5 9.8 C 21.7 9.6 21.9 9.6 22.1 9.6 C 22.5 9.6 22.9 9.7 23.2 9.9 C 23.2 9.9 22.9 10.9 22.9 10.9 C 22.6 10.7 22.3 10.7 22.1 10.7 C 21.9 10.7 21.7 10.7 21.5 10.9 C 21.3 11 21.2 11.2 21.1 11.4 C 21 11.8 20.9 12.2 20.9 12.7 C 20.9 12.68 20.9 15.9 20.9 15.9 L 19.8 15.9 Z M 28.1 13.9 C 28.1 13.9 29.2 14.1 29.2 14.1 C 29 14.7 28.7 15.2 28.2 15.5 C 27.8 15.9 27.2 16.1 26.5 16.1 C 25.6 16.1 24.8 15.8 24.3 15.2 C 23.8 14.7 23.5 13.9 23.5 12.9 C 23.5 11.8 23.8 11 24.3 10.4 C 24.9 9.9 25.5 9.6 26.4 9.6 C 27.2 9.6 27.9 9.9 28.4 10.4 C 29 11 29.2 11.8 29.2 12.8 C 29.2 12.9 29.2 13 29.2 13.1 C 29.2 13.1 24.6 13.1 24.6 13.1 C 24.6 13.8 24.8 14.3 25.2 14.7 C 25.5 15 26 15.2 26.5 15.2 C 26.9 15.2 27.2 15.1 27.5 14.9 C 27.7 14.7 28 14.4 28.1 13.9 Z M 24.7 12.2 C 24.7 12.2 28.1 12.2 28.1 12.2 C 28.1 11.7 27.9 11.3 27.7 11 C 27.4 10.6 27 10.4 26.4 10.4 C 25.9 10.4 25.5 10.6 25.2 10.9 C 24.9 11.3 24.7 11.7 24.7 12.2 Z M 34.6 15.9 C 34.6 15.9 34.57 15.15 34.6 15.2 C 34.2 15.8 33.6 16.1 32.8 16.1 C 32.3 16.1 31.9 15.9 31.5 15.7 C 31 15.4 30.7 15 30.5 14.5 C 30.3 14 30.1 13.5 30.1 12.8 C 30.1 12.2 30.3 11.6 30.5 11.1 C 30.7 10.6 31 10.2 31.4 10 C 31.8 9.7 32.3 9.6 32.8 9.6 C 33.2 9.6 33.5 9.7 33.8 9.8 C 34.1 10 34.3 10.2 34.5 10.4 C 34.5 10.43 34.5 7.3 34.5 7.3 L 35.5 7.3 L 35.5 15.9 L 34.6 15.9 Z M 31.2 12.8 C 31.2 13.6 31.4 14.2 31.7 14.6 C 32.1 15 32.5 15.2 32.9 15.2 C 33.4 15.2 33.8 15 34.1 14.6 C 34.4 14.3 34.6 13.7 34.6 12.9 C 34.6 12.1 34.4 11.4 34.1 11 C 33.8 10.6 33.4 10.4 32.9 10.4 C 32.4 10.4 32 10.6 31.7 11 C 31.4 11.4 31.2 12 31.2 12.8 Z M 37.2 8.6 L 37.2 7.3 L 38.3 7.3 L 38.3 8.6 L 37.2 8.6 Z M 37.2 15.9 L 37.2 9.7 L 38.3 9.7 L 38.3 15.9 L 37.2 15.9 Z M 40.8 15.9 L 39.9 15.9 L 39.9 7.3 L 40.9 7.3 C 40.9 7.3 40.92 10.41 40.9 10.4 C 41.4 9.9 41.9 9.6 42.6 9.6 C 43 9.6 43.4 9.7 43.7 9.8 C 44.1 10 44.3 10.2 44.6 10.5 C 44.8 10.7 44.9 11.1 45.1 11.5 C 45.2 11.9 45.3 12.3 45.3 12.7 C 45.3 13.8 45 14.6 44.5 15.2 C 43.9 15.8 43.3 16.1 42.6 16.1 C 41.8 16.1 41.3 15.8 40.8 15.2 C 40.84 15.16 40.8 15.9 40.8 15.9 Z M 40.8 12.8 C 40.8 13.5 40.9 14.1 41.1 14.4 C 41.5 14.9 41.9 15.2 42.5 15.2 C 42.9 15.2 43.3 15 43.7 14.6 C 44 14.2 44.2 13.6 44.2 12.8 C 44.2 12 44 11.4 43.7 11 C 43.4 10.6 43 10.4 42.5 10.4 C 42.1 10.4 41.7 10.6 41.3 11 C 41 11.4 40.8 12 40.8 12.8 Z M 46.5 8.6 L 46.5 7.3 L 47.6 7.3 L 47.6 8.6 L 46.5 8.6 Z M 46.5 15.9 L 46.5 9.7 L 47.6 9.7 L 47.6 15.9 L 46.5 15.9 Z M 49.2 15.9 L 49.2 7.3 L 50.2 7.3 L 50.2 15.9 L 49.2 15.9 Z M 51.9 8.6 L 51.9 7.3 L 52.9 7.3 L 52.9 8.6 L 51.9 8.6 Z M 51.9 15.9 L 51.9 9.7 L 52.9 9.7 L 52.9 15.9 L 51.9 15.9 Z M 56.4 15 C 56.5 15 56.7 15 56.8 15 C 56.8 15 57 15.9 57 15.9 C 56.7 16 56.4 16 56.2 16 C 55.8 16 55.5 16 55.3 15.8 C 55.1 15.7 54.9 15.6 54.9 15.4 C 54.8 15.2 54.7 14.7 54.7 14.1 C 54.73 14.11 54.7 10.5 54.7 10.5 L 54 10.5 L 54 9.7 L 54.7 9.7 L 54.7 8.2 L 55.8 7.5 L 55.8 9.7 L 56.8 9.7 L 56.8 10.5 L 55.8 10.5 C 55.8 10.5 55.78 14.17 55.8 14.2 C 55.8 14.5 55.8 14.7 55.8 14.8 C 55.9 14.8 55.9 14.9 56 15 C 56.1 15 56.2 15 56.4 15 C 56.4 15 56.4 15 56.4 15 Z M 58.5 18.5 C 58.3 18.5 58.1 18.4 57.8 18.3 C 57.8 18.3 57.7 17.3 57.7 17.3 C 57.9 17.4 58.1 17.4 58.3 17.4 C 58.5 17.4 58.7 17.4 58.9 17.3 C 59 17.2 59.1 17.1 59.2 17 C 59.3 16.9 59.4 16.6 59.5 16.2 C 59.6 16.1 59.6 16.1 59.6 15.9 C 59.64 15.95 57.3 9.7 57.3 9.7 L 58.4 9.7 C 58.4 9.7 59.71 13.32 59.7 13.3 C 59.9 13.8 60 14.3 60.2 14.8 C 60.3 14.3 60.4 13.8 60.6 13.3 C 60.59 13.34 61.9 9.7 61.9 9.7 L 63 9.7 C 63 9.7 60.61 16.04 60.6 16 C 60.4 16.7 60.2 17.2 60 17.5 C 59.8 17.8 59.6 18.1 59.4 18.2 C 59.1 18.4 58.8 18.5 58.5 18.5 C 58.5 18.5 58.5 18.5 58.5 18.5 Z " stroke="none" fill="#000"/>  </g></svg>