<?xml version="1.0" standalone="no"?><!DOCTYPE svg PUBLIC "-//W3C//DTD SVG 1.1//EN" "http://www.w3.org/Graphics/SVG/1.1/DTD/svg11.dtd"><svg xmlns="http://www.w3.org/2000/svg" version="1.1" width="134px" height="79.4px" viewBox="0 -5 134 79.4" style="top:-5px">  <desc>EPA Human Resources</desc>  <defs/>  <g id="Polygon42109">    <path d="M 1.5 48.9 C 1.5 48.9 5.12 48.94 5.1 48.9 C 7.9 48.9 9.3 50.5 9.3 52.6 C 9.3 54.3 8.4 55.5 6.7 56 C 7.6 56.4 8 56.8 9.1 58.5 C 9.1 58.5 11.7 62.6 11.7 62.6 L 10 62.6 C 10 62.6 7.56 58.82 7.6 58.8 C 6.3 56.8 5.5 56.4 4.3 56.4 C 4.3 56.38 3 56.4 3 56.4 L 3 62.6 L 1.5 62.6 L 1.5 48.9 Z M 4.4 55.1 C 6.3 55.1 7.7 54.6 7.7 52.6 C 7.7 50.9 6.7 50.3 4.9 50.3 C 4.92 50.26 3 50.3 3 50.3 L 3 55.1 C 3 55.1 4.44 55.06 4.4 55.1 Z M 20.7 48.9 L 20.7 50.3 L 14.7 50.3 L 14.7 55 L 20.5 55 L 20.5 56.4 L 14.7 56.4 L 14.7 61.2 L 20.9 61.2 L 20.9 62.6 L 13.2 62.6 L 13.2 48.9 L 20.7 48.9 Z M 29.6 49.6 C 29.6 49.6 29.6 51.3 29.6 51.3 C 28.7 50.5 27.6 50.1 26.5 50.1 C 25.1 50.1 24.1 50.9 24.1 52.1 C 24.1 53 24.4 53.8 26.6 54.9 C 29.4 56.4 30.1 57.4 30.1 59.2 C 30.1 61.2 28.6 62.8 26.2 62.8 C 24.9 62.8 23.7 62.3 22.7 61.6 C 22.7 61.6 22.7 59.7 22.7 59.7 C 23.7 60.8 24.9 61.4 26.2 61.4 C 27.6 61.4 28.6 60.6 28.6 59.2 C 28.6 58.1 28.2 57.4 25.6 56 C 23.4 54.9 22.6 53.9 22.6 52.1 C 22.6 50.2 24.3 48.8 26.6 48.8 C 27.6 48.8 28.7 49.1 29.6 49.6 Z M 46.2 55.7 C 46.2 59.5 43.4 62.8 38.9 62.8 C 34.7 62.8 31.9 59.5 31.9 55.8 C 31.9 52 34.6 48.8 39 48.8 C 43.4 48.8 46.2 51.9 46.2 55.7 Z M 33.4 55.8 C 33.4 59 35.9 61.4 39 61.3 C 43 61.3 44.7 58.2 44.7 55.7 C 44.7 53 42.6 50.2 39.1 50.2 C 35.4 50.2 33.4 53 33.4 55.8 Z M 50 48.9 C 50 48.9 50.02 56.8 50 56.8 C 50 59.8 51.4 61.4 54.2 61.4 C 57.1 61.4 58.5 59.8 58.5 56.8 C 58.46 56.8 58.5 48.9 58.5 48.9 L 60 48.9 C 60 48.9 59.96 56.8 60 56.8 C 60 60.4 58.1 62.8 54.3 62.8 C 50.5 62.8 48.5 60.6 48.5 56.8 C 48.52 56.8 48.5 48.9 48.5 48.9 L 50 48.9 Z M 62.9 48.9 C 62.9 48.9 66.44 48.94 66.4 48.9 C 69.2 48.9 70.6 50.5 70.6 52.6 C 70.6 54.3 69.7 55.5 68 56 C 68.9 56.4 69.3 56.8 70.4 58.5 C 70.42 58.5 73.1 62.6 73.1 62.6 L 71.3 62.6 C 71.3 62.6 68.88 58.82 68.9 58.8 C 67.6 56.8 66.8 56.4 65.6 56.4 C 65.62 56.38 64.4 56.4 64.4 56.4 L 64.4 62.6 L 62.9 62.6 L 62.9 48.9 Z M 65.8 55.1 C 67.6 55.1 69.1 54.6 69.1 52.6 C 69.1 50.9 68 50.3 66.2 50.3 C 66.24 50.26 64.4 50.3 64.4 50.3 L 64.4 55.1 C 64.4 55.1 65.76 55.06 65.8 55.1 Z M 85.4 49.8 C 85.4 49.8 85.4 51.5 85.4 51.5 C 84 50.6 82.4 50.2 80.8 50.2 C 77.3 50.2 75.1 52.8 75.1 55.8 C 75.1 58.8 77.3 61.4 80.8 61.4 C 82.5 61.4 84.1 60.9 85.5 60 C 85.5 60 85.5 61.6 85.5 61.6 C 84 62.4 82.4 62.8 80.7 62.8 C 76 62.8 73.6 59.2 73.6 55.8 C 73.6 51.8 76.7 48.8 80.8 48.8 C 82.3 48.8 83.9 49.1 85.4 49.8 Z M 95.3 48.9 L 95.3 50.3 L 89.4 50.3 L 89.4 55 L 95.1 55 L 95.1 56.4 L 89.4 56.4 L 89.4 61.2 L 95.5 61.2 L 95.5 62.6 L 87.9 62.6 L 87.9 48.9 L 95.3 48.9 Z M 104.2 49.6 C 104.2 49.6 104.2 51.3 104.2 51.3 C 103.3 50.5 102.3 50.1 101.2 50.1 C 99.7 50.1 98.8 50.9 98.8 52.1 C 98.8 53 99 53.8 101.3 54.9 C 104.1 56.4 104.8 57.4 104.8 59.2 C 104.8 61.2 103.2 62.8 100.9 62.8 C 99.6 62.8 98.4 62.3 97.3 61.6 C 97.3 61.6 97.3 59.7 97.3 59.7 C 98.3 60.8 99.5 61.4 100.9 61.4 C 102.2 61.4 103.2 60.6 103.2 59.2 C 103.2 58.1 102.9 57.4 100.2 56 C 98.1 54.9 97.3 53.9 97.3 52.1 C 97.3 50.2 98.9 48.8 101.2 48.8 C 102.3 48.8 103.3 49.1 104.2 49.6 Z " stroke="none" fill="#000000"/>  </g>  <g id="Polygon42108">    <path d="M 3 24.9 L 3 31 L 11.3 31 L 11.3 24.9 L 12.8 24.9 L 12.8 38.6 L 11.3 38.6 L 11.3 32.4 L 3 32.4 L 3 38.6 L 1.5 38.6 L 1.5 24.9 L 3 24.9 Z M 17.2 24.9 C 17.2 24.9 17.2 32.8 17.2 32.8 C 17.2 35.8 18.6 37.4 21.4 37.4 C 24.3 37.4 25.6 35.8 25.6 32.8 C 25.64 32.8 25.6 24.9 25.6 24.9 L 27.1 24.9 C 27.1 24.9 27.14 32.8 27.1 32.8 C 27.1 36.4 25.2 38.8 21.5 38.8 C 17.7 38.8 15.7 36.6 15.7 32.8 C 15.7 32.8 15.7 24.9 15.7 24.9 L 17.2 24.9 Z M 30 24.9 L 31.5 24.9 L 36.3 30.9 L 41.1 24.9 L 42.5 24.9 L 42.5 38.6 L 41 38.6 L 41 27.3 L 41 27.3 L 36.4 33 L 36.1 33 L 31.6 27.3 L 31.5 27.3 L 31.5 38.6 L 30 38.6 L 30 24.9 Z M 51 24.9 L 57.1 38.6 L 55.6 38.6 L 53.7 34.3 L 47.5 34.3 L 45.6 38.6 L 44.1 38.6 L 50 24.9 L 51 24.9 Z M 48 33 L 53.1 33 L 50.5 27.2 L 48 33 Z M 59.9 24.9 L 69.6 36.2 L 69.6 24.9 L 71 24.9 L 71 38.6 L 69.7 38.6 L 60.1 27.3 L 60.1 38.6 L 58.7 38.6 L 58.7 24.9 L 59.9 24.9 Z " stroke="none" fill="#000000"/>  </g>  <g id="Polygon42107">    <path d="M 6.8 4.3 L 6.8 5.4 L 2.3 5.4 L 2.3 8.9 L 6.6 8.9 L 6.6 9.9 L 2.3 9.9 L 2.3 13.6 L 6.9 13.6 L 6.9 14.6 L 1.2 14.6 L 1.2 4.3 L 6.8 4.3 Z M 11.6 4.3 C 13.6 4.3 14.9 5.4 14.9 7.2 C 14.9 9.1 13.6 10 11.4 10 C 11.4 9.97 9.8 10 9.8 10 L 9.8 14.6 L 8.7 14.6 L 8.7 4.3 C 8.7 4.3 11.59 4.35 11.6 4.3 Z M 9.8 9 C 9.8 9 11.37 8.98 11.4 9 C 13.1 9 13.7 8.3 13.7 7.1 C 13.7 6 13 5.3 11.4 5.3 C 11.37 5.34 9.8 5.3 9.8 5.3 L 9.8 9 Z M 19.7 4.3 L 24.2 14.6 L 23.1 14.6 L 21.6 11.4 L 17 11.4 L 15.6 14.6 L 14.5 14.6 L 18.9 4.3 L 19.7 4.3 Z M 17.4 10.4 L 21.2 10.4 L 19.3 6 L 17.4 10.4 Z " stroke="none" fill="#f28620"/>  </g></svg>