<?xml version="1.0" standalone="no"?><!DOCTYPE svg PUBLIC "-//W3C//DTD SVG 1.1//EN" "http://www.w3.org/Graphics/SVG/1.1/DTD/svg11.dtd"><svg xmlns="http://www.w3.org/2000/svg" version="1.1" width="1006px" height="46.1px" viewBox="0 -8 1006 46.1" style="top:-8px">  <desc>Nationwide Empowers Leaders with People Manager Programme</desc>  <defs/>  <g id="Polygon36179">    <path d="M 4.2 1.4 L 18.7 18.3 L 18.7 1.4 L 20.8 1.4 L 20.8 21.9 L 18.8 21.9 L 4.5 5 L 4.5 21.9 L 2.3 21.9 L 2.3 1.4 L 4.2 1.4 Z M 33.6 1.3 L 42.7 21.9 L 40.4 21.9 L 37.5 15.4 L 28.2 15.4 L 25.5 21.9 L 23.2 21.9 L 32 1.3 L 33.6 1.3 Z M 29.1 13.4 L 36.6 13.4 L 32.8 4.7 L 29.1 13.4 Z M 57.5 1.4 L 57.5 3.4 L 50.2 3.4 L 50.2 21.9 L 47.9 21.9 L 47.9 3.4 L 40.7 3.4 L 40.7 1.4 L 57.5 1.4 Z M 62.5 1.4 L 62.5 21.9 L 60.2 21.9 L 60.2 1.4 L 62.5 1.4 Z M 87.7 11.5 C 87.7 17.3 83.5 22.1 76.8 22.1 C 70.4 22.1 66.2 17.3 66.2 11.8 C 66.2 6.1 70.3 1.1 76.9 1.1 C 83.4 1.1 87.7 5.9 87.7 11.5 Z M 68.5 11.7 C 68.5 16.5 72.2 20 76.8 20 C 82.9 20 85.4 15.3 85.4 11.6 C 85.4 7.5 82.3 3.3 77 3.3 C 71.4 3.3 68.5 7.5 68.5 11.7 Z M 93.3 1.4 L 107.8 18.3 L 107.8 1.4 L 109.9 1.4 L 109.9 21.9 L 108 21.9 L 93.6 5 L 93.6 21.9 L 91.4 21.9 L 91.4 1.4 L 93.3 1.4 Z M 112.3 1.4 L 114.5 1.4 L 120.7 17 L 120.7 17 L 126.8 1.4 L 128.8 1.4 L 135 16.9 L 135 16.9 L 141 1.4 L 143.3 1.4 L 135.1 22 L 134.7 22 L 127.8 4.6 L 120.9 22 L 120.4 22 L 112.3 1.4 Z M 147.9 1.4 L 147.9 21.9 L 145.6 21.9 L 145.6 1.4 L 147.9 1.4 Z M 152.5 1.4 C 152.5 1.4 160.02 1.41 160 1.4 C 166.7 1.4 171 5.6 171 11.4 C 171 17.8 166.5 21.9 160 21.9 C 160.02 21.87 152.5 21.9 152.5 21.9 L 152.5 1.4 Z M 160 19.8 C 165.4 19.8 168.7 16.6 168.7 11.6 C 168.7 6.7 165.4 3.4 159.7 3.4 C 159.66 3.42 154.7 3.4 154.7 3.4 L 154.7 19.8 C 154.7 19.8 159.99 19.83 160 19.8 Z M 186 1.4 L 186 3.4 L 177 3.4 L 177 10.6 L 185.7 10.6 L 185.7 12.6 L 177 12.6 L 177 19.8 L 186.2 19.8 L 186.2 21.9 L 174.8 21.9 L 174.8 1.4 L 186 1.4 Z M 209.4 1.4 L 209.4 3.4 L 200.4 3.4 L 200.4 10.6 L 209.1 10.6 L 209.1 12.6 L 200.4 12.6 L 200.4 19.8 L 209.6 19.8 L 209.6 21.9 L 198.2 21.9 L 198.2 1.4 L 209.4 1.4 Z M 213.2 1.4 L 215.4 1.4 L 222.6 10.4 L 229.8 1.4 L 231.9 1.4 L 231.9 21.9 L 229.7 21.9 L 229.7 5 L 229.6 5 L 222.8 13.5 L 222.4 13.5 L 215.5 5 L 215.5 5 L 215.5 21.9 L 213.2 21.9 L 213.2 1.4 Z M 242.4 1.4 C 246.4 1.4 248.9 3.5 248.9 7 C 248.9 10.9 246.4 12.7 242 12.7 C 241.98 12.66 238.8 12.7 238.8 12.7 L 238.8 21.9 L 236.5 21.9 L 236.5 1.4 C 236.5 1.4 242.37 1.41 242.4 1.4 Z M 238.8 10.7 C 238.8 10.7 241.92 10.68 241.9 10.7 C 245.4 10.7 246.6 9.3 246.6 7 C 246.6 4.7 245.2 3.4 241.9 3.4 C 241.92 3.39 238.8 3.4 238.8 3.4 L 238.8 10.7 Z M 272.8 11.5 C 272.8 17.3 268.6 22.1 261.8 22.1 C 255.5 22.1 251.2 17.3 251.2 11.8 C 251.2 6.1 255.3 1.1 261.9 1.1 C 268.5 1.1 272.8 5.9 272.8 11.5 Z M 253.5 11.7 C 253.5 16.5 257.3 20 261.9 20 C 268 20 270.4 15.3 270.4 11.6 C 270.4 7.5 267.4 3.3 262 3.3 C 256.5 3.3 253.5 7.5 253.5 11.7 Z M 273.4 1.4 L 275.7 1.4 L 281.8 17 L 281.9 17 L 287.9 1.4 L 289.9 1.4 L 296.1 16.9 L 296.2 16.9 L 302.2 1.4 L 304.4 1.4 L 296.3 22 L 295.8 22 L 288.9 4.6 L 282.1 22 L 281.6 22 L 273.4 1.4 Z M 318 1.4 L 318 3.4 L 309.1 3.4 L 309.1 10.6 L 317.7 10.6 L 317.7 12.6 L 309.1 12.6 L 309.1 19.8 L 318.2 19.8 L 318.2 21.9 L 306.8 21.9 L 306.8 1.4 L 318 1.4 Z M 321.9 1.4 C 321.9 1.4 327.24 1.41 327.2 1.4 C 331.3 1.4 333.5 3.8 333.5 6.9 C 333.5 9.4 332.1 11.2 329.6 11.9 C 330.9 12.6 331.5 13.2 333.2 15.7 C 333.21 15.75 337.2 21.9 337.2 21.9 L 334.5 21.9 C 334.5 21.9 330.9 16.23 330.9 16.2 C 329 13.2 327.7 12.6 326 12.6 C 326.01 12.57 324.1 12.6 324.1 12.6 L 324.1 21.9 L 321.9 21.9 L 321.9 1.4 Z M 326.2 10.6 C 329 10.6 331.2 9.9 331.2 6.9 C 331.2 4.4 329.5 3.4 326.9 3.4 C 326.94 3.39 324.1 3.4 324.1 3.4 L 324.1 10.6 C 324.1 10.6 326.22 10.59 326.2 10.6 Z M 349.4 2.5 C 349.4 2.5 349.4 5 349.4 5 C 348 3.8 346.4 3.2 344.8 3.2 C 342.6 3.2 341.2 4.4 341.2 6.1 C 341.2 7.5 341.5 8.7 344.9 10.4 C 349.1 12.6 350.2 14 350.2 16.8 C 350.2 19.9 347.8 22.1 344.3 22.1 C 342.4 22.1 340.6 21.5 339 20.3 C 339 20.3 339 17.5 339 17.5 C 340.5 19.2 342.3 20.1 344.3 20.1 C 346.4 20.1 347.9 18.8 347.9 16.9 C 347.9 15.1 347.3 14.1 343.3 12 C 340.1 10.4 338.9 8.8 338.9 6.2 C 338.9 3.3 341.4 1.1 344.8 1.1 C 346.4 1.1 348 1.6 349.4 2.5 Z M 364.3 1.4 L 364.3 19.8 L 373.9 19.8 L 373.9 21.9 L 362 21.9 L 362 1.4 L 364.3 1.4 Z M 387.7 1.4 L 387.7 3.4 L 378.7 3.4 L 378.7 10.6 L 387.4 10.6 L 387.4 12.6 L 378.7 12.6 L 378.7 19.8 L 387.9 19.8 L 387.9 21.9 L 376.5 21.9 L 376.5 1.4 L 387.7 1.4 Z M 400.4 1.3 L 409.6 21.9 L 407.2 21.9 L 404.4 15.4 L 395.1 15.4 L 392.3 21.9 L 390 21.9 L 398.8 1.3 L 400.4 1.3 Z M 395.9 13.4 L 403.5 13.4 L 399.6 4.7 L 395.9 13.4 Z M 411.9 1.4 C 411.9 1.4 419.43 1.41 419.4 1.4 C 426.1 1.4 430.4 5.6 430.4 11.4 C 430.4 17.8 425.9 21.9 419.4 21.9 C 419.43 21.87 411.9 21.9 411.9 21.9 L 411.9 1.4 Z M 419.4 19.8 C 424.8 19.8 428.1 16.6 428.1 11.6 C 428.1 6.7 424.9 3.4 419.1 3.4 C 419.07 3.42 414.1 3.4 414.1 3.4 L 414.1 19.8 C 414.1 19.8 419.4 19.83 419.4 19.8 Z M 445.4 1.4 L 445.4 3.4 L 436.4 3.4 L 436.4 10.6 L 445.1 10.6 L 445.1 12.6 L 436.4 12.6 L 436.4 19.8 L 445.6 19.8 L 445.6 21.9 L 434.2 21.9 L 434.2 1.4 L 445.4 1.4 Z M 449.2 1.4 C 449.2 1.4 454.62 1.41 454.6 1.4 C 458.7 1.4 460.9 3.8 460.9 6.9 C 460.9 9.4 459.5 11.2 457 11.9 C 458.3 12.6 458.9 13.2 460.6 15.7 C 460.59 15.75 464.5 21.9 464.5 21.9 L 461.9 21.9 C 461.9 21.9 458.28 16.23 458.3 16.2 C 456.4 13.2 455.1 12.6 453.4 12.6 C 453.39 12.57 451.5 12.6 451.5 12.6 L 451.5 21.9 L 449.2 21.9 L 449.2 1.4 Z M 453.6 10.6 C 456.4 10.6 458.5 9.9 458.5 6.9 C 458.5 4.4 456.9 3.4 454.3 3.4 C 454.32 3.39 451.5 3.4 451.5 3.4 L 451.5 10.6 C 451.5 10.6 453.6 10.59 453.6 10.6 Z M 476.8 2.5 C 476.8 2.5 476.8 5 476.8 5 C 475.3 3.8 473.8 3.2 472.1 3.2 C 470 3.2 468.6 4.4 468.6 6.1 C 468.6 7.5 468.9 8.7 472.3 10.4 C 476.5 12.6 477.5 14 477.5 16.8 C 477.5 19.9 475.2 22.1 471.7 22.1 C 469.7 22.1 467.9 21.5 466.4 20.3 C 466.4 20.3 466.4 17.5 466.4 17.5 C 467.9 19.2 469.7 20.1 471.7 20.1 C 473.8 20.1 475.3 18.8 475.3 16.9 C 475.3 15.1 474.7 14.1 470.7 12 C 467.5 10.4 466.3 8.8 466.3 6.2 C 466.3 3.3 468.8 1.1 472.2 1.1 C 473.8 1.1 475.4 1.6 476.8 2.5 Z M 487.1 1.4 L 489.4 1.4 L 495.5 17 L 495.6 17 L 501.6 1.4 L 503.6 1.4 L 509.8 16.9 L 509.8 16.9 L 515.8 1.4 L 518.1 1.4 L 510 22 L 509.5 22 L 502.6 4.6 L 495.8 22 L 495.3 22 L 487.1 1.4 Z M 522.7 1.4 L 522.7 21.9 L 520.5 21.9 L 520.5 1.4 L 522.7 1.4 Z M 542.3 1.4 L 542.3 3.4 L 535 3.4 L 535 21.9 L 532.7 21.9 L 532.7 3.4 L 525.5 3.4 L 525.5 1.4 L 542.3 1.4 Z M 547.3 1.4 L 547.3 10.5 L 559.7 10.5 L 559.7 1.4 L 562 1.4 L 562 21.9 L 559.7 21.9 L 559.7 12.6 L 547.3 12.6 L 547.3 21.9 L 545 21.9 L 545 1.4 L 547.3 1.4 Z M 580.7 1.4 C 584.8 1.4 587.3 3.5 587.3 7 C 587.3 10.9 584.7 12.7 580.3 12.7 C 580.32 12.66 577.1 12.7 577.1 12.7 L 577.1 21.9 L 574.9 21.9 L 574.9 1.4 C 574.9 1.4 580.71 1.41 580.7 1.4 Z M 577.1 10.7 C 577.1 10.7 580.26 10.68 580.3 10.7 C 583.7 10.7 585 9.3 585 7 C 585 4.7 583.6 3.4 580.3 3.4 C 580.26 3.39 577.1 3.4 577.1 3.4 L 577.1 10.7 Z M 601.6 1.4 L 601.6 3.4 L 592.7 3.4 L 592.7 10.6 L 601.3 10.6 L 601.3 12.6 L 592.7 12.6 L 592.7 19.8 L 601.9 19.8 L 601.9 21.9 L 590.5 21.9 L 590.5 1.4 L 601.6 1.4 Z M 626.2 11.5 C 626.2 17.3 622 22.1 615.2 22.1 C 608.9 22.1 604.6 17.3 604.6 11.8 C 604.6 6.1 608.7 1.1 615.3 1.1 C 621.9 1.1 626.2 5.9 626.2 11.5 Z M 606.9 11.7 C 606.9 16.5 610.7 20 615.3 20 C 621.4 20 623.8 15.3 623.8 11.6 C 623.8 7.5 620.8 3.3 615.4 3.3 C 609.9 3.3 606.9 7.5 606.9 11.7 Z M 635.7 1.4 C 639.8 1.4 642.3 3.5 642.3 7 C 642.3 10.9 639.7 12.7 635.3 12.7 C 635.31 12.66 632.1 12.7 632.1 12.7 L 632.1 21.9 L 629.9 21.9 L 629.9 1.4 C 629.9 1.4 635.7 1.41 635.7 1.4 Z M 632.1 10.7 C 632.1 10.7 635.25 10.68 635.2 10.7 C 638.7 10.7 640 9.3 640 7 C 640 4.7 638.6 3.4 635.2 3.4 C 635.25 3.39 632.1 3.4 632.1 3.4 L 632.1 10.7 Z M 647.7 1.4 L 647.7 19.8 L 657.3 19.8 L 657.3 21.9 L 645.4 21.9 L 645.4 1.4 L 647.7 1.4 Z M 671.1 1.4 L 671.1 3.4 L 662.2 3.4 L 662.2 10.6 L 670.8 10.6 L 670.8 12.6 L 662.2 12.6 L 662.2 19.8 L 671.4 19.8 L 671.4 21.9 L 659.9 21.9 L 659.9 1.4 L 671.1 1.4 Z M 683.3 1.4 L 685.5 1.4 L 692.7 10.4 L 699.9 1.4 L 702 1.4 L 702 21.9 L 699.8 21.9 L 699.8 5 L 699.7 5 L 692.9 13.5 L 692.5 13.5 L 685.6 5 L 685.6 5 L 685.6 21.9 L 683.3 21.9 L 683.3 1.4 Z M 714.8 1.3 L 724 21.9 L 721.6 21.9 L 718.8 15.4 L 709.5 15.4 L 706.7 21.9 L 704.4 21.9 L 713.2 1.3 L 714.8 1.3 Z M 710.3 13.4 L 717.9 13.4 L 714 4.7 L 710.3 13.4 Z M 728.2 1.4 L 742.6 18.3 L 742.6 1.4 L 744.8 1.4 L 744.8 21.9 L 742.8 21.9 L 728.5 5 L 728.5 21.9 L 726.3 21.9 L 726.3 1.4 L 728.2 1.4 Z M 757.6 1.3 L 766.7 21.9 L 764.4 21.9 L 761.5 15.4 L 752.2 15.4 L 749.5 21.9 L 747.1 21.9 L 756 1.3 L 757.6 1.3 Z M 753.1 13.4 L 760.6 13.4 L 756.7 4.7 L 753.1 13.4 Z M 785 5.2 C 782.8 3.8 780.3 3.1 778 3.1 C 773.2 3.1 769.6 6.7 769.6 11.5 C 769.6 16.6 773.1 20.1 778.2 20.1 C 779.9 20.1 781.1 19.9 783.2 19.1 C 783.2 19.08 783.2 14.1 783.2 14.1 L 779 14.1 L 779 12.1 L 785.5 12.1 C 785.5 12.1 785.45 20.46 785.5 20.5 C 783.1 21.6 780.8 22.1 778.2 22.1 C 770.8 22.1 767.2 17 767.2 11.8 C 767.2 5.9 771.5 1.1 778.1 1.1 C 780.4 1.1 782.3 1.6 785 2.8 C 785 2.8 785 5.2 785 5.2 Z M 800.9 1.4 L 800.9 3.4 L 792 3.4 L 792 10.6 L 800.6 10.6 L 800.6 12.6 L 792 12.6 L 792 19.8 L 801.2 19.8 L 801.2 21.9 L 789.7 21.9 L 789.7 1.4 L 800.9 1.4 Z M 804.8 1.4 C 804.8 1.4 810.17 1.41 810.2 1.4 C 814.3 1.4 816.4 3.8 816.4 6.9 C 816.4 9.4 815 11.2 812.5 11.9 C 813.9 12.6 814.5 13.2 816.1 15.7 C 816.14 15.75 820.1 21.9 820.1 21.9 L 817.4 21.9 C 817.4 21.9 813.83 16.23 813.8 16.2 C 811.9 13.2 810.7 12.6 808.9 12.6 C 808.94 12.57 807.1 12.6 807.1 12.6 L 807.1 21.9 L 804.8 21.9 L 804.8 1.4 Z M 809.2 10.6 C 812 10.6 814.1 9.9 814.1 6.9 C 814.1 4.4 812.5 3.4 809.9 3.4 C 809.87 3.39 807.1 3.4 807.1 3.4 L 807.1 10.6 C 807.1 10.6 809.15 10.59 809.2 10.6 Z M 836.5 1.4 C 840.6 1.4 843.1 3.5 843.1 7 C 843.1 10.9 840.5 12.7 836.1 12.7 C 836.12 12.66 832.9 12.7 832.9 12.7 L 832.9 21.9 L 830.7 21.9 L 830.7 1.4 C 830.7 1.4 836.51 1.41 836.5 1.4 Z M 832.9 10.7 C 832.9 10.7 836.06 10.68 836.1 10.7 C 839.5 10.7 840.8 9.3 840.8 7 C 840.8 4.7 839.4 3.4 836.1 3.4 C 836.06 3.39 832.9 3.4 832.9 3.4 L 832.9 10.7 Z M 846.3 1.4 C 846.3 1.4 851.63 1.41 851.6 1.4 C 855.7 1.4 857.9 3.8 857.9 6.9 C 857.9 9.4 856.5 11.2 854 11.9 C 855.3 12.6 855.9 13.2 857.6 15.7 C 857.6 15.75 861.6 21.9 861.6 21.9 L 858.9 21.9 C 858.9 21.9 855.29 16.23 855.3 16.2 C 853.4 13.2 852.1 12.6 850.4 12.6 C 850.4 12.57 848.5 12.6 848.5 12.6 L 848.5 21.9 L 846.3 21.9 L 846.3 1.4 Z M 850.6 10.6 C 853.4 10.6 855.6 9.9 855.6 6.9 C 855.6 4.4 853.9 3.4 851.3 3.4 C 851.33 3.39 848.5 3.4 848.5 3.4 L 848.5 10.6 C 848.5 10.6 850.61 10.59 850.6 10.6 Z M 883.9 11.5 C 883.9 17.3 879.7 22.1 872.9 22.1 C 866.6 22.1 862.3 17.3 862.3 11.8 C 862.3 6.1 866.4 1.1 873 1.1 C 879.6 1.1 883.9 5.9 883.9 11.5 Z M 864.6 11.7 C 864.6 16.5 868.4 20 873 20 C 879.1 20 881.5 15.3 881.5 11.6 C 881.5 7.5 878.5 3.3 873.1 3.3 C 867.6 3.3 864.6 7.5 864.6 11.7 Z M 904.5 5.2 C 902.2 3.8 899.7 3.1 897.4 3.1 C 892.7 3.1 889 6.7 889 11.5 C 889 16.6 892.5 20.1 897.6 20.1 C 899.3 20.1 900.5 19.9 902.6 19.1 C 902.63 19.08 902.6 14.1 902.6 14.1 L 898.5 14.1 L 898.5 12.1 L 904.9 12.1 C 904.9 12.1 904.88 20.46 904.9 20.5 C 902.5 21.6 900.3 22.1 897.6 22.1 C 890.3 22.1 886.7 17 886.7 11.8 C 886.7 5.9 891 1.1 897.5 1.1 C 899.8 1.1 901.8 1.6 904.5 2.8 C 904.5 2.8 904.5 5.2 904.5 5.2 Z M 909.2 1.4 C 909.2 1.4 914.54 1.41 914.5 1.4 C 918.7 1.4 920.8 3.8 920.8 6.9 C 920.8 9.4 919.4 11.2 916.9 11.9 C 918.2 12.6 918.8 13.2 920.5 15.7 C 920.51 15.75 924.5 21.9 924.5 21.9 L 921.8 21.9 C 921.8 21.9 918.2 16.23 918.2 16.2 C 916.3 13.2 915.1 12.6 913.3 12.6 C 913.31 12.57 911.4 12.6 911.4 12.6 L 911.4 21.9 L 909.2 21.9 L 909.2 1.4 Z M 913.5 10.6 C 916.3 10.6 918.5 9.9 918.5 6.9 C 918.5 4.4 916.9 3.4 914.2 3.4 C 914.24 3.39 911.4 3.4 911.4 3.4 L 911.4 10.6 C 911.4 10.6 913.52 10.59 913.5 10.6 Z M 934.9 1.3 L 944 21.9 L 941.7 21.9 L 938.8 15.4 L 929.5 15.4 L 926.8 21.9 L 924.5 21.9 L 933.3 1.3 L 934.9 1.3 Z M 930.4 13.4 L 937.9 13.4 L 934.1 4.7 L 930.4 13.4 Z M 946.4 1.4 L 948.5 1.4 L 955.7 10.4 L 962.9 1.4 L 965.1 1.4 L 965.1 21.9 L 962.8 21.9 L 962.8 5 L 962.8 5 L 955.9 13.5 L 955.5 13.5 L 948.7 5 L 948.6 5 L 948.6 21.9 L 946.4 21.9 L 946.4 1.4 Z M 969.7 1.4 L 971.8 1.4 L 979 10.4 L 986.2 1.4 L 988.4 1.4 L 988.4 21.9 L 986.1 21.9 L 986.1 5 L 986.1 5 L 979.2 13.5 L 978.8 13.5 L 972 5 L 971.9 5 L 971.9 21.9 L 969.7 21.9 L 969.7 1.4 Z M 1004.2 1.4 L 1004.2 3.4 L 995.2 3.4 L 995.2 10.6 L 1003.9 10.6 L 1003.9 12.6 L 995.2 12.6 L 995.2 19.8 L 1004.4 19.8 L 1004.4 21.9 L 993 21.9 L 993 1.4 L 1004.2 1.4 Z " stroke="none" fill="#010102"/>  </g></svg>