<?xml version="1.0" standalone="no"?><!DOCTYPE svg PUBLIC "-//W3C//DTD SVG 1.1//EN" "http://www.w3.org/Graphics/SVG/1.1/DTD/svg11.dtd"><svg xmlns="http://www.w3.org/2000/svg" version="1.1" width="61.2px" height="27.5px" viewBox="0 -1 61.2 27.5" style="top:-1px">  <desc>Reliability</desc>  <defs/>  <g id="Polygon7015">    <path d="M 5.9 16.1 L 5.9 7.5 C 5.9 7.5 9.67 7.5 9.7 7.5 C 10.4 7.5 11 7.6 11.4 7.7 C 11.8 7.9 12.1 8.2 12.4 8.5 C 12.6 8.9 12.7 9.4 12.7 9.8 C 12.7 10.5 12.5 11 12.1 11.4 C 11.7 11.8 11.1 12.1 10.3 12.2 C 10.6 12.3 10.8 12.5 11 12.6 C 11.3 12.9 11.6 13.3 11.9 13.7 C 11.94 13.75 13.4 16.1 13.4 16.1 L 12 16.1 C 12 16.1 10.87 14.3 10.9 14.3 C 10.5 13.8 10.3 13.4 10 13.1 C 9.8 12.8 9.6 12.7 9.5 12.5 C 9.3 12.4 9.1 12.4 9 12.3 C 8.8 12.3 8.6 12.3 8.3 12.3 C 8.32 12.27 7 12.3 7 12.3 L 7 16.1 L 5.9 16.1 Z M 7 11.3 C 7 11.3 9.44 11.29 9.4 11.3 C 10 11.3 10.4 11.2 10.7 11.1 C 11 11 11.2 10.8 11.3 10.6 C 11.5 10.4 11.6 10.1 11.6 9.8 C 11.6 9.4 11.4 9.1 11.1 8.8 C 10.8 8.6 10.4 8.4 9.7 8.4 C 9.72 8.45 7 8.4 7 8.4 L 7 11.3 Z M 18.6 14.1 C 18.6 14.1 19.7 14.2 19.7 14.2 C 19.6 14.9 19.2 15.3 18.8 15.7 C 18.3 16.1 17.7 16.2 17 16.2 C 16.1 16.2 15.4 15.9 14.8 15.4 C 14.3 14.8 14 14 14 13 C 14 12 14.3 11.2 14.8 10.6 C 15.4 10 16.1 9.7 16.9 9.7 C 17.8 9.7 18.4 10 19 10.6 C 19.5 11.1 19.8 11.9 19.8 13 C 19.8 13 19.8 13.1 19.8 13.2 C 19.8 13.2 15.1 13.2 15.1 13.2 C 15.2 13.9 15.3 14.5 15.7 14.8 C 16 15.2 16.5 15.4 17 15.4 C 17.4 15.4 17.7 15.3 18 15.1 C 18.3 14.9 18.5 14.5 18.6 14.1 Z M 15.2 12.4 C 15.2 12.4 18.6 12.4 18.6 12.4 C 18.6 11.9 18.5 11.5 18.2 11.2 C 17.9 10.8 17.5 10.6 16.9 10.6 C 16.5 10.6 16.1 10.8 15.7 11.1 C 15.4 11.4 15.2 11.8 15.2 12.4 Z M 21 16.1 L 21 7.5 L 22.1 7.5 L 22.1 16.1 L 21 16.1 Z M 23.7 8.7 L 23.7 7.5 L 24.8 7.5 L 24.8 8.7 L 23.7 8.7 Z M 23.7 16.1 L 23.7 9.9 L 24.8 9.9 L 24.8 16.1 L 23.7 16.1 Z M 30.7 16.1 C 30.5 15.9 30.5 15.6 30.4 15.3 C 30.1 15.7 29.7 15.9 29.3 16 C 29 16.2 28.6 16.2 28.2 16.2 C 27.5 16.2 26.9 16.1 26.6 15.7 C 26.2 15.4 26 15 26 14.4 C 26 14.1 26.1 13.9 26.2 13.6 C 26.4 13.4 26.6 13.2 26.8 13 C 27 12.9 27.3 12.7 27.5 12.7 C 27.7 12.6 28.1 12.6 28.5 12.5 C 29.3 12.4 30 12.3 30.4 12.1 C 30.4 12 30.4 11.9 30.4 11.9 C 30.4 11.4 30.3 11.1 30.1 11 C 29.8 10.7 29.4 10.6 28.9 10.6 C 28.4 10.6 28 10.7 27.8 10.9 C 27.5 11 27.4 11.3 27.2 11.8 C 27.2 11.8 26.2 11.6 26.2 11.6 C 26.3 11.2 26.5 10.8 26.7 10.6 C 26.9 10.3 27.2 10.1 27.6 9.9 C 28 9.8 28.5 9.7 29 9.7 C 29.5 9.7 30 9.8 30.3 9.9 C 30.6 10 30.9 10.2 31 10.4 C 31.2 10.6 31.3 10.8 31.4 11.1 C 31.4 11.3 31.4 11.6 31.4 12.1 C 31.4 12.1 31.4 13.5 31.4 13.5 C 31.4 14.5 31.4 15.1 31.5 15.3 C 31.5 15.6 31.6 15.8 31.8 16.1 C 31.75 16.09 30.7 16.1 30.7 16.1 C 30.7 16.1 30.65 16.09 30.7 16.1 Z M 30.4 13 C 30 13.1 29.4 13.3 28.6 13.4 C 28.2 13.4 27.9 13.5 27.7 13.6 C 27.5 13.7 27.4 13.8 27.3 13.9 C 27.2 14.1 27.1 14.2 27.1 14.4 C 27.1 14.7 27.3 14.9 27.5 15.1 C 27.7 15.3 28 15.4 28.4 15.4 C 28.8 15.4 29.2 15.3 29.5 15.1 C 29.8 15 30 14.7 30.2 14.4 C 30.3 14.2 30.4 13.8 30.4 13.4 C 30.4 13.4 30.4 13 30.4 13 Z M 34 16.1 L 33 16.1 L 33 7.5 L 34.1 7.5 C 34.1 7.5 34.1 10.56 34.1 10.6 C 34.5 10 35.1 9.7 35.8 9.7 C 36.2 9.7 36.6 9.8 36.9 10 C 37.2 10.1 37.5 10.3 37.7 10.6 C 38 10.9 38.1 11.2 38.3 11.6 C 38.4 12 38.4 12.4 38.4 12.9 C 38.4 13.9 38.2 14.8 37.7 15.4 C 37.1 15.9 36.5 16.2 35.8 16.2 C 35 16.2 34.4 15.9 34 15.3 C 34.03 15.31 34 16.1 34 16.1 Z M 34 12.9 C 34 13.7 34.1 14.2 34.3 14.5 C 34.7 15.1 35.1 15.4 35.7 15.4 C 36.1 15.4 36.5 15.2 36.9 14.8 C 37.2 14.4 37.4 13.8 37.4 13 C 37.4 12.2 37.2 11.6 36.9 11.2 C 36.6 10.8 36.2 10.6 35.7 10.6 C 35.3 10.6 34.9 10.8 34.5 11.2 C 34.2 11.6 34 12.2 34 12.9 Z M 39.7 8.7 L 39.7 7.5 L 40.8 7.5 L 40.8 8.7 L 39.7 8.7 Z M 39.7 16.1 L 39.7 9.9 L 40.8 9.9 L 40.8 16.1 L 39.7 16.1 Z M 42.4 16.1 L 42.4 7.5 L 43.4 7.5 L 43.4 16.1 L 42.4 16.1 Z M 45.1 8.7 L 45.1 7.5 L 46.1 7.5 L 46.1 8.7 L 45.1 8.7 Z M 45.1 16.1 L 45.1 9.9 L 46.1 9.9 L 46.1 16.1 L 45.1 16.1 Z M 49.6 15.2 C 49.7 15.2 49.8 15.2 50 15.1 C 50 15.1 50.2 16.1 50.2 16.1 C 49.9 16.1 49.6 16.2 49.4 16.2 C 49 16.2 48.7 16.1 48.5 16 C 48.3 15.9 48.1 15.7 48 15.5 C 48 15.3 47.9 14.9 47.9 14.3 C 47.92 14.27 47.9 10.7 47.9 10.7 L 47.1 10.7 L 47.1 9.9 L 47.9 9.9 L 47.9 8.3 L 49 7.7 L 49 9.9 L 50 9.9 L 50 10.7 L 49 10.7 C 49 10.7 48.97 14.32 49 14.3 C 49 14.6 49 14.8 49 14.9 C 49.1 15 49.1 15.1 49.2 15.1 C 49.3 15.2 49.4 15.2 49.6 15.2 C 49.6 15.2 49.6 15.2 49.6 15.2 Z M 51.7 18.6 C 51.5 18.6 51.3 18.6 51 18.5 C 51 18.5 50.9 17.5 50.9 17.5 C 51.1 17.6 51.3 17.6 51.5 17.6 C 51.7 17.6 51.9 17.5 52.1 17.5 C 52.2 17.4 52.3 17.3 52.4 17.1 C 52.5 17 52.6 16.8 52.7 16.4 C 52.8 16.3 52.8 16.2 52.8 16.1 C 52.83 16.1 50.5 9.9 50.5 9.9 L 51.6 9.9 C 51.6 9.9 52.9 13.47 52.9 13.5 C 53.1 13.9 53.2 14.4 53.3 14.9 C 53.5 14.4 53.6 14 53.8 13.5 C 53.78 13.49 55.1 9.9 55.1 9.9 L 56.2 9.9 C 56.2 9.9 53.8 16.19 53.8 16.2 C 53.5 16.9 53.3 17.3 53.2 17.6 C 53 18 52.8 18.2 52.6 18.4 C 52.3 18.5 52 18.6 51.7 18.6 C 51.7 18.6 51.7 18.6 51.7 18.6 Z " stroke="none" fill="#000"/>  </g></svg>