<?xml version="1.0" standalone="no"?><!DOCTYPE svg PUBLIC "-//W3C//DTD SVG 1.1//EN" "http://www.w3.org/Graphics/SVG/1.1/DTD/svg11.dtd"><svg xmlns="http://www.w3.org/2000/svg" version="1.1" width="254px" height="46.1px" viewBox="0 -8 254 46.1" style="top:-8px">  <desc>Case Studies</desc>  <defs/>  <g id="Polygon46392">    <path d="M 19.2 2.8 C 19.2 2.8 19.2 5.2 19.2 5.2 C 17 4 14.7 3.2 12.3 3.2 C 7 3.2 3.8 7.2 3.8 11.7 C 3.8 16.3 7 20 12.2 20 C 14.8 20 17.2 19.3 19.4 17.9 C 19.4 17.9 19.4 20.4 19.4 20.4 C 17.1 21.6 14.7 22.1 12.2 22.1 C 5.1 22.1 1.4 16.8 1.4 11.7 C 1.4 5.6 6.1 1.1 12.2 1.1 C 14.5 1.1 16.9 1.7 19.2 2.8 Z M 31.6 1.3 L 40.7 21.9 L 38.4 21.9 L 35.5 15.4 L 26.2 15.4 L 23.4 21.9 L 21.1 21.9 L 30 1.3 L 31.6 1.3 Z M 27.1 13.4 L 34.6 13.4 L 30.7 4.7 L 27.1 13.4 Z M 53 2.5 C 53 2.5 53 5 53 5 C 51.6 3.8 50 3.2 48.4 3.2 C 46.2 3.2 44.8 4.4 44.8 6.1 C 44.8 7.5 45.1 8.7 48.5 10.4 C 52.7 12.6 53.8 14 53.8 16.8 C 53.8 19.9 51.4 22.1 47.9 22.1 C 46 22.1 44.2 21.5 42.6 20.3 C 42.6 20.3 42.6 17.5 42.6 17.5 C 44.1 19.2 45.9 20.1 47.9 20.1 C 50 20.1 51.5 18.8 51.5 16.9 C 51.5 15.1 50.9 14.1 46.9 12 C 43.7 10.4 42.5 8.8 42.5 6.2 C 42.5 3.3 45 1.1 48.4 1.1 C 50 1.1 51.6 1.6 53 2.5 Z M 68.5 1.4 L 68.5 3.4 L 59.5 3.4 L 59.5 10.6 L 68.2 10.6 L 68.2 12.6 L 59.5 12.6 L 59.5 19.8 L 68.7 19.8 L 68.7 21.9 L 57.3 21.9 L 57.3 1.4 L 68.5 1.4 Z M 90.1 2.5 C 90.1 2.5 90.1 5 90.1 5 C 88.7 3.8 87.2 3.2 85.5 3.2 C 83.4 3.2 82 4.4 82 6.1 C 82 7.5 82.3 8.7 85.7 10.4 C 89.9 12.6 90.9 14 90.9 16.8 C 90.9 19.9 88.6 22.1 85.1 22.1 C 83.1 22.1 81.3 21.5 79.8 20.3 C 79.8 20.3 79.8 17.5 79.8 17.5 C 81.3 19.2 83.1 20.1 85.1 20.1 C 87.1 20.1 88.6 18.8 88.6 16.9 C 88.6 15.1 88.1 14.1 84.1 12 C 80.9 10.4 79.7 8.8 79.7 6.2 C 79.7 3.3 82.2 1.1 85.6 1.1 C 87.2 1.1 88.8 1.6 90.1 2.5 Z M 109.4 1.4 L 109.4 3.4 L 102.1 3.4 L 102.1 21.9 L 99.8 21.9 L 99.8 3.4 L 92.6 3.4 L 92.6 1.4 L 109.4 1.4 Z M 114.1 1.4 C 114.1 1.4 114.12 13.2 114.1 13.2 C 114.1 17.7 116.2 20.1 120.4 20.1 C 124.7 20.1 126.8 17.6 126.8 13.2 C 126.78 13.2 126.8 1.4 126.8 1.4 L 129 1.4 C 129 1.4 129.03 13.2 129 13.2 C 129 18.6 126.2 22.1 120.5 22.1 C 114.9 22.1 111.9 18.9 111.9 13.2 C 111.87 13.2 111.9 1.4 111.9 1.4 L 114.1 1.4 Z M 133.4 1.4 C 133.4 1.4 140.91 1.41 140.9 1.4 C 147.6 1.4 151.9 5.6 151.9 11.4 C 151.9 17.8 147.4 21.9 140.9 21.9 C 140.91 21.87 133.4 21.9 133.4 21.9 L 133.4 1.4 Z M 140.9 19.8 C 146.2 19.8 149.6 16.6 149.6 11.6 C 149.6 6.7 146.3 3.4 140.5 3.4 C 140.55 3.42 135.6 3.4 135.6 3.4 L 135.6 19.8 C 135.6 19.8 140.88 19.83 140.9 19.8 Z M 157.9 1.4 L 157.9 21.9 L 155.7 21.9 L 155.7 1.4 L 157.9 1.4 Z M 173.7 1.4 L 173.7 3.4 L 164.8 3.4 L 164.8 10.6 L 173.4 10.6 L 173.4 12.6 L 164.8 12.6 L 164.8 19.8 L 173.9 19.8 L 173.9 21.9 L 162.5 21.9 L 162.5 1.4 L 173.7 1.4 Z M 187 2.5 C 187 2.5 187 5 187 5 C 185.6 3.8 184.1 3.2 182.4 3.2 C 180.3 3.2 178.9 4.4 178.9 6.1 C 178.9 7.5 179.2 8.7 182.6 10.4 C 186.8 12.6 187.8 14 187.8 16.8 C 187.8 19.9 185.5 22.1 182 22.1 C 180 22.1 178.2 21.5 176.7 20.3 C 176.7 20.3 176.7 17.5 176.7 17.5 C 178.2 19.2 180 20.1 182 20.1 C 184 20.1 185.5 18.8 185.5 16.9 C 185.5 15.1 185 14.1 181 12 C 177.8 10.4 176.6 8.8 176.6 6.2 C 176.6 3.3 179.1 1.1 182.5 1.1 C 184.1 1.1 185.7 1.6 187 2.5 Z " stroke="none" fill="#000000"/>  </g></svg>