<?xml version="1.0" standalone="no"?><!DOCTYPE svg PUBLIC "-//W3C//DTD SVG 1.1//EN" "http://www.w3.org/Graphics/SVG/1.1/DTD/svg11.dtd"><svg xmlns="http://www.w3.org/2000/svg" version="1.1" width="294px" height="195.8px" viewBox="0 -8 294 195.8" style="top:-8px">  <desc>Training Equality, Diversion and Inclusion 01</desc>  <defs/>  <g id="Polygon17227">    <path d="M 6.1 138.6 L 6.1 165.9 L 3.1 165.9 L 3.1 138.6 L 6.1 138.6 Z M 14.7 138.6 L 34 161.1 L 34 138.6 L 36.9 138.6 L 36.9 165.9 L 34.2 165.9 L 15.1 143.4 L 15.1 165.9 L 12.2 165.9 L 12.2 138.6 L 14.7 138.6 Z M 65.5 140.4 C 65.5 140.4 65.5 143.6 65.5 143.6 C 62.6 142 59.5 141 56.3 141 C 49.3 141 44.9 146.3 44.9 152.3 C 44.9 158.4 49.3 163.4 56.2 163.4 C 59.6 163.4 62.8 162.5 65.7 160.6 C 65.7 160.6 65.7 163.9 65.7 163.9 C 62.7 165.5 59.5 166.2 56.2 166.2 C 46.7 166.2 41.8 159.1 41.8 152.3 C 41.8 144.2 48 138.2 56.2 138.2 C 59.3 138.2 62.4 139 65.5 140.4 Z M 73.4 138.6 L 73.4 163.1 L 86.3 163.1 L 86.3 165.9 L 70.4 165.9 L 70.4 138.6 L 73.4 138.6 Z M 91.1 138.6 C 91.1 138.6 91.12 154.31 91.1 154.3 C 91.1 160.3 94 163.5 99.6 163.5 C 105.2 163.5 108 160.2 108 154.3 C 108 154.31 108 138.6 108 138.6 L 111 138.6 C 111 138.6 111 154.31 111 154.3 C 111 161.5 107.2 166.2 99.6 166.2 C 92.1 166.2 88.1 161.9 88.1 154.3 C 88.12 154.31 88.1 138.6 88.1 138.6 L 91.1 138.6 Z M 129.4 140 C 129.4 140 129.4 143.4 129.4 143.4 C 127.6 141.8 125.5 140.9 123.3 140.9 C 120.4 140.9 118.5 142.5 118.5 144.9 C 118.5 146.7 119 148.3 123.5 150.5 C 129.1 153.5 130.5 155.4 130.5 159.1 C 130.5 163.2 127.4 166.2 122.7 166.2 C 120.1 166.2 117.7 165.4 115.6 163.8 C 115.6 163.8 115.6 160.1 115.6 160.1 C 117.6 162.3 120 163.5 122.7 163.5 C 125.4 163.5 127.4 161.8 127.4 159.2 C 127.4 156.9 126.7 155.5 121.4 152.7 C 117.1 150.5 115.5 148.5 115.5 145 C 115.5 141.1 118.8 138.2 123.4 138.2 C 125.5 138.2 127.6 138.8 129.4 140 Z M 138.2 138.6 L 138.2 165.9 L 135.2 165.9 L 135.2 138.6 L 138.2 138.6 Z M 171.8 152.1 C 171.8 159.7 166.2 166.2 157.2 166.2 C 148.8 166.2 143.1 159.8 143.1 152.4 C 143.1 144.8 148.5 138.2 157.4 138.2 C 166.1 138.2 171.8 144.5 171.8 152.1 Z M 146.2 152.3 C 146.2 158.7 151.2 163.4 157.3 163.4 C 165.4 163.4 168.7 157.1 168.7 152.2 C 168.7 146.7 164.6 141.1 157.5 141.1 C 150.1 141.1 146.2 146.7 146.2 152.3 Z M 179.2 138.6 L 198.6 161.1 L 198.6 138.6 L 201.4 138.6 L 201.4 165.9 L 198.8 165.9 L 179.6 143.4 L 179.6 165.9 L 176.8 165.9 L 176.8 138.6 L 179.2 138.6 Z M 216.8 152.2 C 216.8 143.2 221 138.2 225.7 138.2 C 231 138.2 234.4 144.1 234.4 152.2 C 234.4 160.8 230.7 166.2 225.6 166.2 C 220.2 166.2 216.8 160.6 216.8 152.2 Z M 231.3 152.3 C 231.3 145.1 229 141 225.6 141 C 222.2 141 219.9 145 219.9 152.2 C 219.9 159.3 222 163.5 225.6 163.5 C 229.1 163.5 231.3 159.3 231.3 152.3 Z M 248.6 138.2 L 248.6 165.9 L 245.6 165.9 L 245.6 143.3 L 240.3 147.5 L 238.6 145.4 L 247.4 138.2 L 248.6 138.2 Z " stroke="none" fill="#010102"/>  </g>  <g id="Polygon17226">    <path d="M 3.1 90.6 C 3.1 90.6 13.12 90.59 13.1 90.6 C 22 90.6 27.8 96.1 27.8 103.9 C 27.8 112.4 21.8 117.9 13.1 117.9 C 13.12 117.87 3.1 117.9 3.1 117.9 L 3.1 90.6 Z M 13.1 115.1 C 20.2 115.1 24.7 110.9 24.7 104.2 C 24.7 97.6 20.4 93.3 12.6 93.3 C 12.64 93.27 6.1 93.3 6.1 93.3 L 6.1 115.1 C 6.1 115.1 13.08 115.15 13.1 115.1 Z M 35.8 90.6 L 35.8 117.9 L 32.8 117.9 L 32.8 90.6 L 35.8 90.6 Z M 38.9 90.6 L 41.9 90.6 L 50.8 111.8 L 50.8 111.8 L 59.7 90.6 L 62.7 90.6 L 51.2 118.1 L 50.5 118.1 L 38.9 90.6 Z M 80.7 90.6 L 80.7 93.3 L 68.8 93.3 L 68.8 102.8 L 80.3 102.8 L 80.3 105.5 L 68.8 105.5 L 68.8 115.1 L 81 115.1 L 81 117.9 L 65.8 117.9 L 65.8 90.6 L 80.7 90.6 Z M 85.9 90.6 C 85.9 90.6 93.04 90.59 93 90.6 C 98.5 90.6 101.4 93.7 101.4 97.9 C 101.4 101.3 99.5 103.6 96.2 104.6 C 98 105.5 98.8 106.3 101 109.7 C 101 109.71 106.3 117.9 106.3 117.9 L 102.7 117.9 C 102.7 117.9 97.92 110.35 97.9 110.3 C 95.4 106.3 93.7 105.5 91.4 105.5 C 91.4 105.47 88.9 105.5 88.9 105.5 L 88.9 117.9 L 85.9 117.9 L 85.9 90.6 Z M 91.7 102.8 C 95.4 102.8 98.3 101.9 98.3 97.9 C 98.3 94.6 96.1 93.2 92.6 93.2 C 92.64 93.23 88.9 93.2 88.9 93.2 L 88.9 102.8 C 88.9 102.8 91.68 102.83 91.7 102.8 Z M 122.6 92 C 122.6 92 122.6 95.4 122.6 95.4 C 120.7 93.8 118.6 92.9 116.4 92.9 C 113.5 92.9 111.6 94.5 111.6 96.9 C 111.6 98.7 112.1 100.3 116.6 102.5 C 122.2 105.5 123.6 107.4 123.6 111.1 C 123.6 115.2 120.5 118.2 115.8 118.2 C 113.2 118.2 110.8 117.4 108.7 115.8 C 108.7 115.8 108.7 112.1 108.7 112.1 C 110.8 114.3 113.2 115.5 115.8 115.5 C 118.6 115.5 120.6 113.8 120.6 111.2 C 120.6 108.9 119.8 107.5 114.5 104.7 C 110.2 102.5 108.6 100.5 108.6 97 C 108.6 93.1 111.9 90.2 116.5 90.2 C 118.6 90.2 120.7 90.8 122.6 92 Z M 131.3 90.6 L 131.3 117.9 L 128.3 117.9 L 128.3 90.6 L 131.3 90.6 Z M 165 104.1 C 165 111.7 159.4 118.2 150.4 118.2 C 141.9 118.2 136.2 111.8 136.2 104.4 C 136.2 96.8 141.6 90.2 150.5 90.2 C 159.2 90.2 165 96.5 165 104.1 Z M 139.3 104.3 C 139.3 110.7 144.3 115.4 150.4 115.4 C 158.5 115.4 161.8 109.1 161.8 104.2 C 161.8 98.7 157.8 93.1 150.6 93.1 C 143.2 93.1 139.3 98.7 139.3 104.3 Z M 172.4 90.6 L 191.7 113.1 L 191.7 90.6 L 194.6 90.6 L 194.6 117.9 L 191.9 117.9 L 172.8 95.4 L 172.8 117.9 L 169.9 117.9 L 169.9 90.6 L 172.4 90.6 Z M 220.9 90.4 L 233.1 117.9 L 230 117.9 L 226.1 109.3 L 213.7 109.3 L 210.1 117.9 L 207 117.9 L 218.8 90.4 L 220.9 90.4 Z M 214.9 106.6 L 224.9 106.6 L 219.8 95 L 214.9 106.6 Z M 238.7 90.6 L 258 113.1 L 258 90.6 L 260.9 90.6 L 260.9 117.9 L 258.2 117.9 L 239.1 95.4 L 239.1 117.9 L 236.2 117.9 L 236.2 90.6 L 238.7 90.6 Z M 267 90.6 C 267 90.6 277.03 90.59 277 90.6 C 285.9 90.6 291.7 96.1 291.7 103.9 C 291.7 112.4 285.7 117.9 277 117.9 C 277.03 117.87 267 117.9 267 117.9 L 267 90.6 Z M 277 115.1 C 284.1 115.1 288.6 110.9 288.6 104.2 C 288.6 97.6 284.3 93.3 276.5 93.3 C 276.55 93.27 270 93.3 270 93.3 L 270 115.1 C 270 115.1 276.99 115.15 277 115.1 Z " stroke="none" fill="#010102"/>  </g>  <g id="Polygon17225">    <path d="M 18 42.6 L 18 45.3 L 6.1 45.3 L 6.1 54.8 L 17.6 54.8 L 17.6 57.5 L 6.1 57.5 L 6.1 67.1 L 18.3 67.1 L 18.3 69.9 L 3.1 69.9 L 3.1 42.6 L 18 42.6 Z M 49.9 72.2 C 49.9 72.2 46.64 75.43 46.6 75.4 C 42.2 75 37 72.7 32 69.5 C 25.7 67.7 22 62.5 22 56.4 C 22 47.9 28.3 42.2 36.3 42.2 C 45.7 42.2 50.7 49.3 50.7 56.1 C 50.7 63.1 45.9 68.9 38.8 69.9 C 41.8 71.7 45.2 72.8 47.3 72.8 C 48.1 72.8 48.8 72.5 49.7 71.9 C 49.72 71.95 49.9 72.2 49.9 72.2 Z M 47.6 56.3 C 47.6 50.5 43.6 45.1 36.3 45.1 C 28.9 45.1 25 50.7 25 56.3 C 25 62.5 29.8 67.4 36.2 67.4 C 42.9 67.4 47.6 62.7 47.6 56.3 Z M 58.3 42.6 C 58.3 42.6 58.28 58.31 58.3 58.3 C 58.3 64.3 61.1 67.5 66.7 67.5 C 72.4 67.5 75.2 64.2 75.2 58.3 C 75.16 58.31 75.2 42.6 75.2 42.6 L 78.2 42.6 C 78.2 42.6 78.16 58.31 78.2 58.3 C 78.2 65.5 74.4 70.2 66.8 70.2 C 59.3 70.2 55.3 65.9 55.3 58.3 C 55.28 58.31 55.3 42.6 55.3 42.6 L 58.3 42.6 Z M 93.8 42.4 L 106 69.9 L 102.9 69.9 L 99.1 61.3 L 86.7 61.3 L 83 69.9 L 79.9 69.9 L 91.7 42.4 L 93.8 42.4 Z M 87.8 58.6 L 97.9 58.6 L 92.7 47 L 87.8 58.6 Z M 112.1 42.6 L 112.1 67.1 L 125 67.1 L 125 69.9 L 109.1 69.9 L 109.1 42.6 L 112.1 42.6 Z M 131.4 42.6 L 131.4 69.9 L 128.4 69.9 L 128.4 42.6 L 131.4 42.6 Z M 157.5 42.6 L 157.5 45.2 L 147.7 45.2 L 147.7 69.9 L 144.7 69.9 L 144.7 45.2 L 135.1 45.2 L 135.1 42.6 L 157.5 42.6 Z M 162.2 42.6 L 170.3 52.7 L 178.4 42.6 L 182 42.6 L 171.9 55.3 L 171.9 69.9 L 168.8 69.9 L 168.8 55.3 L 158.6 42.6 L 162.2 42.6 Z M 181.2 73.6 C 182.1 72.9 182.6 71.7 182.6 69.9 C 182.6 69.87 181.4 69.9 181.4 69.9 L 181.4 66 L 184.8 66 C 184.8 66 184.84 68.95 184.8 68.9 C 184.8 72.5 183.4 74.1 181.2 74.9 C 181.2 74.9 181.2 73.6 181.2 73.6 Z " stroke="none" fill="#010102"/>  </g>  <g id="Polygon17224">    <path d="M 17.3 1.4 L 17.3 3.4 L 9.9 3.4 L 9.9 21.9 L 7.7 21.9 L 7.7 3.4 L 0.4 3.4 L 0.4 1.4 L 17.3 1.4 Z M 20 1.4 C 20 1.4 25.38 1.41 25.4 1.4 C 29.5 1.4 31.6 3.8 31.6 6.9 C 31.6 9.4 30.2 11.2 27.7 11.9 C 29.1 12.6 29.7 13.2 31.3 15.7 C 31.35 15.75 35.3 21.9 35.3 21.9 L 32.6 21.9 C 32.6 21.9 29.04 16.23 29 16.2 C 27.1 13.2 25.9 12.6 24.1 12.6 C 24.15 12.57 22.3 12.6 22.3 12.6 L 22.3 21.9 L 20 21.9 L 20 1.4 Z M 24.4 10.6 C 27.2 10.6 29.3 9.9 29.3 6.9 C 29.3 4.4 27.7 3.4 25.1 3.4 C 25.08 3.39 22.3 3.4 22.3 3.4 L 22.3 10.6 C 22.3 10.6 24.36 10.59 24.4 10.6 Z M 45.7 1.3 L 54.9 21.9 L 52.6 21.9 L 49.7 15.4 L 40.4 15.4 L 37.6 21.9 L 35.3 21.9 L 44.2 1.3 L 45.7 1.3 Z M 41.2 13.4 L 48.8 13.4 L 44.9 4.7 L 41.2 13.4 Z M 59.5 1.4 L 59.5 21.9 L 57.2 21.9 L 57.2 1.4 L 59.5 1.4 Z M 65.9 1.4 L 80.4 18.3 L 80.4 1.4 L 82.6 1.4 L 82.6 21.9 L 80.6 21.9 L 66.2 5 L 66.2 21.9 L 64 21.9 L 64 1.4 L 65.9 1.4 Z M 89.4 1.4 L 89.4 21.9 L 87.1 21.9 L 87.1 1.4 L 89.4 1.4 Z M 95.8 1.4 L 110.3 18.3 L 110.3 1.4 L 112.5 1.4 L 112.5 21.9 L 110.5 21.9 L 96.1 5 L 96.1 21.9 L 94 21.9 L 94 1.4 L 95.8 1.4 Z M 134 5.2 C 131.7 3.8 129.2 3.1 126.9 3.1 C 122.2 3.1 118.5 6.7 118.5 11.5 C 118.5 16.6 122 20.1 127.1 20.1 C 128.8 20.1 130 19.9 132.1 19.1 C 132.15 19.08 132.1 14.1 132.1 14.1 L 128 14.1 L 128 12.1 L 134.4 12.1 C 134.4 12.1 134.4 20.46 134.4 20.5 C 132.1 21.6 129.8 22.1 127.1 22.1 C 119.8 22.1 116.2 17 116.2 11.8 C 116.2 5.9 120.5 1.1 127 1.1 C 129.4 1.1 131.3 1.6 134 2.8 C 134 2.8 134 5.2 134 5.2 Z " stroke="none" fill="#f28620"/>  </g></svg>