<?xml version="1.0" standalone="no"?><!DOCTYPE svg PUBLIC "-//W3C//DTD SVG 1.1//EN" "http://www.w3.org/Graphics/SVG/1.1/DTD/svg11.dtd"><svg xmlns="http://www.w3.org/2000/svg" version="1.1" width="278px" height="204.8px" viewBox="0 -10 278 204.8" style="top:-10px">  <desc>Managed SERVICES Delivering Value and Flexibility</desc>  <defs/>  <g id="Polygon18000">    <path d="M 17.1 145.9 L 17.1 148.6 L 6.1 148.6 L 6.1 157.4 L 16.7 157.4 L 16.7 160.1 L 6.1 160.1 L 6.1 173.2 L 3.1 173.2 L 3.1 145.9 L 17.1 145.9 Z M 24.1 145.9 L 24.1 170.4 L 36.9 170.4 L 36.9 173.2 L 21.1 173.2 L 21.1 145.9 L 24.1 145.9 Z M 55.3 145.9 L 55.3 148.6 L 43.4 148.6 L 43.4 158.1 L 54.9 158.1 L 54.9 160.8 L 43.4 160.8 L 43.4 170.4 L 55.6 170.4 L 55.6 173.2 L 40.4 173.2 L 40.4 145.9 L 55.3 145.9 Z M 62.8 145.9 C 67.2 151 68.4 152.4 72.2 157 C 75.1 153.6 78 150.1 81.6 145.9 C 81.56 145.88 85.2 145.9 85.2 145.9 L 74 159.1 L 85.9 173.2 L 82.3 173.2 L 72.2 161.2 L 62.1 173.2 L 58.4 173.2 L 70.4 159.1 L 59.2 145.9 C 59.2 145.9 62.84 145.88 62.8 145.9 Z M 92.1 145.9 L 92.1 173.2 L 89.1 173.2 L 89.1 145.9 L 92.1 145.9 Z M 105.2 145.9 C 110.3 145.9 113.7 148.5 113.7 152.8 C 113.7 155.8 112.1 157.8 109.2 158.8 C 113.4 159.4 116 162.2 116 165.8 C 116 170.9 111.5 173.2 106.5 173.2 C 106.52 173.16 98.2 173.2 98.2 173.2 L 98.2 145.9 C 98.2 145.9 105.24 145.88 105.2 145.9 Z M 101.2 158 C 101.2 158 104.16 158 104.2 158 C 108.6 158 110.6 155.9 110.6 153.1 C 110.6 150 108.7 148.5 104.6 148.5 C 104.64 148.52 101.2 148.5 101.2 148.5 L 101.2 158 Z M 106 170.5 C 110.3 170.5 112.9 169 112.9 165.6 C 112.9 162.4 110.7 160.6 105.5 160.6 C 105.52 160.6 101.2 160.6 101.2 160.6 L 101.2 170.5 C 101.2 170.5 105.96 170.52 106 170.5 Z M 123.5 145.9 L 123.5 173.2 L 120.5 173.2 L 120.5 145.9 L 123.5 145.9 Z M 132.6 145.9 L 132.6 170.4 L 145.4 170.4 L 145.4 173.2 L 129.6 173.2 L 129.6 145.9 L 132.6 145.9 Z M 151.9 145.9 L 151.9 173.2 L 148.9 173.2 L 148.9 145.9 L 151.9 145.9 Z M 178 145.9 L 178 148.5 L 168.2 148.5 L 168.2 173.2 L 165.2 173.2 L 165.2 148.5 L 155.6 148.5 L 155.6 145.9 L 178 145.9 Z M 182.7 145.9 L 190.8 156 L 198.9 145.9 L 202.5 145.9 L 192.4 158.6 L 192.4 173.2 L 189.3 173.2 L 189.3 158.6 L 179.1 145.9 L 182.7 145.9 Z " stroke="none" fill="#010102"/>  </g>  <g id="Polygon17999">    <path d="M 0.1 97.9 L 3.1 97.9 L 12 119.1 L 12 119.1 L 20.8 97.9 L 23.8 97.9 L 12.3 125.4 L 11.6 125.4 L 0.1 97.9 Z M 35.6 97.7 L 47.8 125.2 L 44.7 125.2 L 40.8 116.6 L 28.4 116.6 L 24.8 125.2 L 21.7 125.2 L 33.5 97.7 L 35.6 97.7 Z M 29.6 113.9 L 39.6 113.9 L 34.5 102.3 L 29.6 113.9 Z M 53.9 97.9 L 53.9 122.4 L 66.7 122.4 L 66.7 125.2 L 50.9 125.2 L 50.9 97.9 L 53.9 97.9 Z M 71.6 97.9 C 71.6 97.9 71.56 113.6 71.6 113.6 C 71.6 119.6 74.4 122.8 80 122.8 C 85.7 122.8 88.4 119.5 88.4 113.6 C 88.44 113.6 88.4 97.9 88.4 97.9 L 91.4 97.9 C 91.4 97.9 91.44 113.6 91.4 113.6 C 91.4 120.8 87.6 125.5 80.1 125.5 C 72.6 125.5 68.6 121.2 68.6 113.6 C 68.56 113.6 68.6 97.9 68.6 97.9 L 71.6 97.9 Z M 112.2 97.9 L 112.2 100.6 L 100.2 100.6 L 100.2 110.1 L 111.8 110.1 L 111.8 112.8 L 100.2 112.8 L 100.2 122.4 L 112.5 122.4 L 112.5 125.2 L 97.2 125.2 L 97.2 97.9 L 112.2 97.9 Z M 139.4 97.7 L 151.5 125.2 L 148.4 125.2 L 144.6 116.6 L 132.2 116.6 L 128.5 125.2 L 125.4 125.2 L 137.2 97.7 L 139.4 97.7 Z M 133.4 113.9 L 143.4 113.9 L 138.2 102.3 L 133.4 113.9 Z M 157.1 97.9 L 176.4 120.4 L 176.4 97.9 L 179.3 97.9 L 179.3 125.2 L 176.7 125.2 L 157.5 102.7 L 157.5 125.2 L 154.6 125.2 L 154.6 97.9 L 157.1 97.9 Z M 185.4 97.9 C 185.4 97.9 195.48 97.88 195.5 97.9 C 204.4 97.9 210.2 103.4 210.2 111.2 C 210.2 119.7 204.2 125.2 195.5 125.2 C 195.48 125.16 185.4 125.2 185.4 125.2 L 185.4 97.9 Z M 195.4 122.4 C 202.6 122.4 207 118.2 207 111.5 C 207 104.9 202.7 100.6 195 100.6 C 195 100.56 188.4 100.6 188.4 100.6 L 188.4 122.4 C 188.4 122.4 195.44 122.44 195.4 122.4 Z " stroke="none" fill="#010102"/>  </g>  <g id="Polygon17998">    <path d="M 3.1 49.9 C 3.1 49.9 13.12 49.88 13.1 49.9 C 22 49.9 27.8 55.4 27.8 63.2 C 27.8 71.7 21.8 77.2 13.1 77.2 C 13.12 77.16 3.1 77.2 3.1 77.2 L 3.1 49.9 Z M 13.1 74.4 C 20.2 74.4 24.7 70.2 24.7 63.5 C 24.7 56.9 20.4 52.6 12.6 52.6 C 12.64 52.56 6.1 52.6 6.1 52.6 L 6.1 74.4 C 6.1 74.4 13.08 74.44 13.1 74.4 Z M 47.7 49.9 L 47.7 52.6 L 35.8 52.6 L 35.8 62.1 L 47.3 62.1 L 47.3 64.8 L 35.8 64.8 L 35.8 74.4 L 48 74.4 L 48 77.2 L 32.8 77.2 L 32.8 49.9 L 47.7 49.9 Z M 55.9 49.9 L 55.9 74.4 L 68.7 74.4 L 68.7 77.2 L 52.9 77.2 L 52.9 49.9 L 55.9 49.9 Z M 75.2 49.9 L 75.2 77.2 L 72.2 77.2 L 72.2 49.9 L 75.2 49.9 Z M 78.3 49.9 L 81.3 49.9 L 90.2 71.1 L 90.2 71.1 L 99.1 49.9 L 102.1 49.9 L 90.6 77.4 L 89.9 77.4 L 78.3 49.9 Z M 120.1 49.9 L 120.1 52.6 L 108.2 52.6 L 108.2 62.1 L 119.7 62.1 L 119.7 64.8 L 108.2 64.8 L 108.2 74.4 L 120.4 74.4 L 120.4 77.2 L 105.2 77.2 L 105.2 49.9 L 120.1 49.9 Z M 125.3 49.9 C 125.3 49.9 132.44 49.88 132.4 49.9 C 137.9 49.9 140.8 53 140.8 57.2 C 140.8 60.6 138.9 62.9 135.6 63.9 C 137.4 64.8 138.2 65.6 140.4 69 C 140.4 69 145.7 77.2 145.7 77.2 L 142.1 77.2 C 142.1 77.2 137.32 69.64 137.3 69.6 C 134.8 65.6 133.1 64.8 130.8 64.8 C 130.8 64.76 128.3 64.8 128.3 64.8 L 128.3 77.2 L 125.3 77.2 L 125.3 49.9 Z M 131.1 62.1 C 134.8 62.1 137.7 61.2 137.7 57.2 C 137.7 53.9 135.5 52.5 132 52.5 C 132.04 52.52 128.3 52.5 128.3 52.5 L 128.3 62.1 C 128.3 62.1 131.08 62.12 131.1 62.1 Z M 151.7 49.9 L 151.7 77.2 L 148.7 77.2 L 148.7 49.9 L 151.7 49.9 Z M 160.3 49.9 L 179.6 72.4 L 179.6 49.9 L 182.5 49.9 L 182.5 77.2 L 179.8 77.2 L 160.7 54.7 L 160.7 77.2 L 157.8 77.2 L 157.8 49.9 L 160.3 49.9 Z M 211.1 54.9 C 208.1 53.1 204.8 52.2 201.7 52.2 C 195.4 52.2 190.5 57 190.5 63.4 C 190.5 70.1 195.2 74.8 202 74.8 C 204.2 74.8 205.9 74.5 208.7 73.4 C 208.68 73.44 208.7 66.8 208.7 66.8 L 203.1 66.8 L 203.1 64.2 L 211.7 64.2 C 211.7 64.2 211.68 75.28 211.7 75.3 C 208.6 76.8 205.5 77.5 202 77.5 C 192.2 77.5 187.4 70.7 187.4 63.7 C 187.4 55.9 193.1 49.5 201.8 49.5 C 205 49.5 207.5 50.2 211.1 51.8 C 211.1 51.8 211.1 54.9 211.1 54.9 Z " stroke="none" fill="#010102"/>  </g>  <g id="Polygon17997">    <path d="M 2.3 8.7 L 4.4 8.7 L 11.7 17.7 L 18.9 8.7 L 21 8.7 L 21 29.2 L 18.8 29.2 L 18.8 12.3 L 18.7 12.3 L 11.8 20.8 L 11.5 20.8 L 4.6 12.3 L 4.6 12.3 L 4.6 29.2 L 2.3 29.2 L 2.3 8.7 Z M 33.8 8.6 L 42.9 29.2 L 40.6 29.2 L 37.7 22.7 L 28.4 22.7 L 25.7 29.2 L 23.4 29.2 L 32.2 8.6 L 33.8 8.6 Z M 29.3 20.7 L 36.8 20.7 L 33 12 L 29.3 20.7 Z M 47.1 8.7 L 61.6 25.6 L 61.6 8.7 L 63.8 8.7 L 63.8 29.2 L 61.8 29.2 L 47.4 12.3 L 47.4 29.2 L 45.3 29.2 L 45.3 8.7 L 47.1 8.7 Z M 76.6 8.6 L 85.7 29.2 L 83.4 29.2 L 80.5 22.7 L 71.2 22.7 L 68.4 29.2 L 66.1 29.2 L 75 8.6 L 76.6 8.6 Z M 72.1 20.7 L 79.6 20.7 L 75.7 12 L 72.1 20.7 Z M 104 12.4 C 101.8 11.1 99.3 10.4 97 10.4 C 92.2 10.4 88.6 14 88.6 18.8 C 88.6 23.9 92 27.4 97.1 27.4 C 98.8 27.4 100.1 27.1 102.2 26.4 C 102.18 26.37 102.2 21.4 102.2 21.4 L 98 21.4 L 98 19.4 L 104.4 19.4 C 104.4 19.4 104.43 27.75 104.4 27.7 C 102.1 28.9 99.8 29.4 97.1 29.4 C 89.8 29.4 86.2 24.3 86.2 19 C 86.2 13.2 90.5 8.4 97 8.4 C 99.4 8.4 101.3 8.9 104 10.1 C 104 10.1 104 12.4 104 12.4 Z M 119.9 8.7 L 119.9 10.7 L 111 10.7 L 111 17.8 L 119.6 17.8 L 119.6 19.9 L 111 19.9 L 111 27.1 L 120.1 27.1 L 120.1 29.2 L 108.7 29.2 L 108.7 8.7 L 119.9 8.7 Z M 123.8 8.7 C 123.8 8.7 131.31 8.7 131.3 8.7 C 138 8.7 142.3 12.9 142.3 18.7 C 142.3 25.1 137.8 29.2 131.3 29.2 C 131.31 29.16 123.8 29.2 123.8 29.2 L 123.8 8.7 Z M 131.3 27.1 C 136.6 27.1 140 23.9 140 18.9 C 140 13.9 136.7 10.7 130.9 10.7 C 130.95 10.71 126 10.7 126 10.7 L 126 27.1 C 126 27.1 131.28 27.12 131.3 27.1 Z M 163.9 9.7 C 163.9 9.7 163.9 12.3 163.9 12.3 C 162.5 11.1 160.9 10.5 159.3 10.5 C 157.1 10.5 155.7 11.7 155.7 13.4 C 155.7 14.8 156 16 159.4 17.7 C 163.6 19.9 164.7 21.3 164.7 24.1 C 164.7 27.1 162.3 29.4 158.8 29.4 C 156.9 29.4 155.1 28.8 153.5 27.6 C 153.5 27.6 153.5 24.8 153.5 24.8 C 155 26.5 156.8 27.4 158.8 27.4 C 160.9 27.4 162.4 26.1 162.4 24.1 C 162.4 22.4 161.8 21.4 157.9 19.3 C 154.6 17.7 153.4 16.1 153.4 13.5 C 153.4 10.6 155.9 8.4 159.3 8.4 C 160.9 8.4 162.5 8.9 163.9 9.7 Z M 179.4 8.7 L 179.4 10.7 L 170.4 10.7 L 170.4 17.8 L 179.1 17.8 L 179.1 19.9 L 170.4 19.9 L 170.4 27.1 L 179.6 27.1 L 179.6 29.2 L 168.2 29.2 L 168.2 8.7 L 179.4 8.7 Z M 183.2 8.7 C 183.2 8.7 188.61 8.7 188.6 8.7 C 192.7 8.7 194.8 11.1 194.8 14.2 C 194.8 16.7 193.5 18.5 191 19.2 C 192.3 19.9 192.9 20.5 194.6 23 C 194.58 23.04 198.5 29.2 198.5 29.2 L 195.9 29.2 C 195.9 29.2 192.27 23.52 192.3 23.5 C 190.4 20.5 189.1 19.9 187.4 19.9 C 187.38 19.86 185.5 19.9 185.5 19.9 L 185.5 29.2 L 183.2 29.2 L 183.2 8.7 Z M 187.6 17.9 C 190.4 17.9 192.5 17.2 192.5 14.2 C 192.5 11.7 190.9 10.7 188.3 10.7 C 188.31 10.68 185.5 10.7 185.5 10.7 L 185.5 17.9 C 185.5 17.9 187.59 17.88 187.6 17.9 Z M 197.5 8.7 L 199.7 8.7 L 206.4 24.6 L 206.4 24.6 L 213.1 8.7 L 215.3 8.7 L 206.7 29.4 L 206.2 29.4 L 197.5 8.7 Z M 219.9 8.7 L 219.9 29.2 L 217.6 29.2 L 217.6 8.7 L 219.9 8.7 Z M 241.4 10 C 241.4 10 241.4 12.5 241.4 12.5 C 239.2 11.2 236.8 10.5 234.4 10.5 C 229.2 10.5 225.9 14.5 225.9 19 C 225.9 23.5 229.2 27.3 234.4 27.3 C 237 27.3 239.3 26.6 241.5 25.2 C 241.5 25.2 241.5 27.7 241.5 27.7 C 239.2 28.9 236.9 29.4 234.4 29.4 C 227.3 29.4 223.6 24.1 223.6 19 C 223.6 12.9 228.3 8.4 234.4 8.4 C 236.7 8.4 239.1 9 241.4 10 Z M 256.3 8.7 L 256.3 10.7 L 247.3 10.7 L 247.3 17.8 L 256 17.8 L 256 19.9 L 247.3 19.9 L 247.3 27.1 L 256.5 27.1 L 256.5 29.2 L 245.1 29.2 L 245.1 8.7 L 256.3 8.7 Z M 269.6 9.7 C 269.6 9.7 269.6 12.3 269.6 12.3 C 268.2 11.1 266.7 10.5 265 10.5 C 262.8 10.5 261.4 11.7 261.4 13.4 C 261.4 14.8 261.7 16 265.1 17.7 C 269.4 19.9 270.4 21.3 270.4 24.1 C 270.4 27.1 268 29.4 264.5 29.4 C 262.6 29.4 260.8 28.8 259.2 27.6 C 259.2 27.6 259.2 24.8 259.2 24.8 C 260.8 26.5 262.6 27.4 264.5 27.4 C 266.6 27.4 268.1 26.1 268.1 24.1 C 268.1 22.4 267.5 21.4 263.6 19.3 C 260.4 17.7 259.1 16.1 259.1 13.5 C 259.1 10.6 261.6 8.4 265 8.4 C 266.6 8.4 268.2 8.9 269.6 9.7 Z " stroke="none" fill="#f28620"/>  </g></svg>