<?xml version="1.0" standalone="no"?><!DOCTYPE svg PUBLIC "-//W3C//DTD SVG 1.1//EN" "http://www.w3.org/Graphics/SVG/1.1/DTD/svg11.dtd"><svg xmlns="http://www.w3.org/2000/svg" version="1.1" width="1007px" height="302.5px" viewBox="-39 -26 1007 302.5" style="left:-39px;top:-26px">  <desc>Client Feedback</desc>  <defs/>  <g id="Polygon4921">    <path d="M 429.4 98.3 C 429.4 98.3 429.4 104.8 429.4 104.8 C 425.7 102.5 421.9 101.3 417.8 101.3 C 409.8 101.3 405.2 107 405.2 113.2 C 405.2 119.5 409.8 125 417.7 125 C 422 125 426 123.7 429.7 121.2 C 429.7 121.2 429.7 127.6 429.7 127.6 C 425.8 129.7 421.6 130.6 417 130.6 C 404.7 130.6 398.4 122 398.4 113.2 C 398.4 102.8 406.6 95.6 417.1 95.6 C 421 95.6 425.1 96.5 429.4 98.3 Z M 442.4 96.1 L 442.4 124.5 L 457.8 124.5 L 457.8 130.2 L 435.8 130.2 L 435.8 96.1 L 442.4 96.1 Z M 469 96.1 L 469 130.2 L 462.4 130.2 L 462.4 96.1 L 469 96.1 Z M 497.6 96.1 L 497.6 101.2 L 483 101.2 L 483 110.3 L 497 110.3 L 497 115.4 L 483 115.4 L 483 125 L 498 125 L 498 130.2 L 476.4 130.2 L 476.4 96.1 L 497.6 96.1 Z M 509.9 96.1 L 531 120.1 L 531 96.1 L 537.5 96.1 L 537.5 130.2 L 531.7 130.2 L 510.7 106.3 L 510.7 130.2 L 504.2 130.2 L 504.2 96.1 L 509.9 96.1 Z M 572.6 96.1 L 572.6 101.7 L 560.6 101.7 L 560.6 130.2 L 554 130.2 L 554 101.7 L 542 101.7 L 542 96.1 L 572.6 96.1 Z M 611.5 96.1 L 611.5 101.3 L 598 101.3 L 598 109.8 L 611.5 109.8 L 611.5 115 L 598 115 L 598 130.2 L 591.4 130.2 L 591.4 96.1 L 611.5 96.1 Z M 638.2 96.1 L 638.2 101.2 L 623.6 101.2 L 623.6 110.3 L 637.7 110.3 L 637.7 115.4 L 623.6 115.4 L 623.6 125 L 638.7 125 L 638.7 130.2 L 617 130.2 L 617 96.1 L 638.2 96.1 Z M 666.1 96.1 L 666.1 101.2 L 651.5 101.2 L 651.5 110.3 L 665.5 110.3 L 665.5 115.4 L 651.5 115.4 L 651.5 125 L 666.5 125 L 666.5 130.2 L 644.9 130.2 L 644.9 96.1 L 666.1 96.1 Z M 686.4 96.1 C 698.4 96.1 705.2 103.2 705.2 112.9 C 705.2 123.5 698.1 130.2 686.6 130.2 C 686.56 130.17 672.7 130.2 672.7 130.2 L 672.7 96.1 C 672.7 96.1 686.36 96.07 686.4 96.1 Z M 686.1 124.9 C 694.1 124.9 698.4 120.6 698.4 113 C 698.4 105.8 694.1 101.2 685.6 101.2 C 685.56 101.22 679.3 101.2 679.3 101.2 L 679.3 124.9 C 679.3 124.9 686.06 124.92 686.1 124.9 Z M 723.1 96.1 C 730.1 96.1 734.1 99.6 734.1 104.7 C 734.1 108.1 732.2 110.6 729 111.9 C 734.1 113.2 736.8 116.6 736.8 120.8 C 736.8 127.9 730.6 130.2 723.8 130.2 C 723.76 130.17 711.1 130.2 711.1 130.2 L 711.1 96.1 C 711.1 96.1 723.06 96.07 723.1 96.1 Z M 717.6 110.5 C 717.6 110.5 721.16 110.52 721.2 110.5 C 725.6 110.5 727.6 108.5 727.6 105.5 C 727.6 102.3 725.8 100.8 721.8 100.8 C 721.76 100.82 717.6 100.8 717.6 100.8 L 717.6 110.5 Z M 722.5 125.4 C 727.6 125.4 730.1 123.8 730.1 120.3 C 730.1 117.1 727.8 115.2 722.4 115.2 C 722.36 115.22 717.6 115.2 717.6 115.2 L 717.6 125.4 C 717.6 125.4 722.51 125.42 722.5 125.4 Z M 759.5 95.9 L 774.6 130.2 L 767.9 130.2 L 763.9 121.1 L 749.3 121.1 L 745.5 130.2 L 738.8 130.2 L 753.5 95.9 L 759.5 95.9 Z M 751.4 116.2 L 761.8 116.2 L 756.5 103.9 L 751.4 116.2 Z M 806.4 98.3 C 806.4 98.3 806.4 104.8 806.4 104.8 C 802.6 102.5 798.8 101.3 794.8 101.3 C 786.7 101.3 782.1 107 782.1 113.2 C 782.1 119.5 786.7 125 794.7 125 C 799 125 802.9 123.7 806.6 121.2 C 806.6 121.2 806.6 127.6 806.6 127.6 C 802.7 129.7 798.5 130.6 793.9 130.6 C 781.7 130.6 775.3 122 775.3 113.2 C 775.3 102.8 783.5 95.6 794 95.6 C 797.9 95.6 802 96.5 806.4 98.3 Z M 819.4 96.1 L 819.4 111.7 L 833 96.1 L 840.7 96.1 L 826.6 112.2 L 843.9 130.2 L 835.3 130.2 L 819.4 113.5 L 819.4 130.2 L 812.7 130.2 L 812.7 96.1 L 819.4 96.1 Z " stroke="none" fill="#f28620"/>  </g></svg>