<?xml version="1.0" standalone="no"?><!DOCTYPE svg PUBLIC "-//W3C//DTD SVG 1.1//EN" "http://www.w3.org/Graphics/SVG/1.1/DTD/svg11.dtd"><svg xmlns="http://www.w3.org/2000/svg" version="1.1" width="73.5px" height="27.5px" viewBox="0 -1 73.5 27.5" style="top:-1px">  <desc>Helpful</desc>  <defs/>  <g id="Polygon49834">    <path d="M 19 16.1 L 19 7.5 L 20.2 7.5 L 20.2 11 L 24.6 11 L 24.6 7.5 L 25.8 7.5 L 25.8 16.1 L 24.6 16.1 L 24.6 12 L 20.2 12 L 20.2 16.1 L 19 16.1 Z M 31.8 14.1 C 31.8 14.1 32.9 14.2 32.9 14.2 C 32.7 14.8 32.4 15.3 31.9 15.7 C 31.5 16 30.9 16.2 30.1 16.2 C 29.2 16.2 28.5 15.9 28 15.4 C 27.4 14.8 27.2 14 27.2 13 C 27.2 12 27.4 11.2 28 10.6 C 28.5 10 29.2 9.7 30.1 9.7 C 30.9 9.7 31.6 10 32.1 10.6 C 32.6 11.1 32.9 11.9 32.9 13 C 32.9 13 32.9 13.1 32.9 13.2 C 32.9 13.2 28.3 13.2 28.3 13.2 C 28.3 13.9 28.5 14.4 28.8 14.8 C 29.2 15.2 29.6 15.4 30.1 15.4 C 30.5 15.4 30.9 15.3 31.1 15.1 C 31.4 14.8 31.6 14.5 31.8 14.1 Z M 28.3 12.4 C 28.3 12.4 31.8 12.4 31.8 12.4 C 31.7 11.8 31.6 11.5 31.4 11.2 C 31.1 10.8 30.6 10.6 30.1 10.6 C 29.6 10.6 29.2 10.7 28.9 11.1 C 28.5 11.4 28.4 11.8 28.3 12.4 Z M 34.2 16.1 L 34.2 7.5 L 35.2 7.5 L 35.2 16.1 L 34.2 16.1 Z M 36.9 18.5 L 36.9 9.9 L 37.8 9.9 C 37.8 9.9 37.82 10.67 37.8 10.7 C 38 10.4 38.3 10.1 38.6 10 C 38.9 9.8 39.2 9.7 39.6 9.7 C 40.2 9.7 40.6 9.9 41 10.1 C 41.4 10.4 41.7 10.8 42 11.3 C 42.2 11.8 42.3 12.3 42.3 12.9 C 42.3 13.6 42.2 14.1 41.9 14.6 C 41.7 15.2 41.4 15.5 40.9 15.8 C 40.5 16.1 40 16.2 39.6 16.2 C 39.2 16.2 38.9 16.1 38.6 16 C 38.3 15.9 38.1 15.7 37.9 15.4 C 37.92 15.44 37.9 18.5 37.9 18.5 L 36.9 18.5 Z M 37.8 13 C 37.8 13.8 38 14.4 38.3 14.8 C 38.6 15.2 39 15.4 39.5 15.4 C 40 15.4 40.4 15.2 40.7 14.8 C 41 14.4 41.2 13.7 41.2 12.9 C 41.2 12.1 41 11.5 40.7 11.1 C 40.4 10.7 40 10.5 39.5 10.5 C 39.1 10.5 38.7 10.8 38.3 11.2 C 38 11.6 37.8 12.2 37.8 13 Z M 43.8 16.1 L 43.8 10.7 L 42.9 10.7 L 42.9 9.9 L 43.8 9.9 C 43.8 9.9 43.79 9.2 43.8 9.2 C 43.8 8.8 43.8 8.5 43.9 8.3 C 44 8 44.2 7.8 44.4 7.6 C 44.7 7.4 45 7.3 45.5 7.3 C 45.8 7.3 46.1 7.4 46.5 7.5 C 46.5 7.5 46.3 8.4 46.3 8.4 C 46.1 8.3 45.9 8.3 45.7 8.3 C 45.4 8.3 45.2 8.4 45 8.5 C 44.9 8.7 44.8 8.9 44.8 9.3 C 44.84 9.29 44.8 9.9 44.8 9.9 L 46 9.9 L 46 10.7 L 44.8 10.7 L 44.8 16.1 L 43.8 16.1 Z M 50.9 16.1 C 50.9 16.1 50.95 15.17 50.9 15.2 C 50.5 15.9 49.8 16.2 49 16.2 C 48.6 16.2 48.3 16.2 47.9 16 C 47.6 15.9 47.4 15.7 47.2 15.5 C 47.1 15.3 47 15 46.9 14.7 C 46.9 14.5 46.8 14.2 46.8 13.7 C 46.85 13.71 46.8 9.9 46.8 9.9 L 47.9 9.9 C 47.9 9.9 47.9 13.31 47.9 13.3 C 47.9 13.9 47.9 14.2 48 14.4 C 48 14.7 48.2 14.9 48.4 15.1 C 48.6 15.2 48.9 15.3 49.2 15.3 C 49.5 15.3 49.8 15.2 50.1 15.1 C 50.4 14.9 50.5 14.7 50.7 14.4 C 50.8 14.1 50.8 13.7 50.8 13.2 C 50.84 13.19 50.8 9.9 50.8 9.9 L 51.9 9.9 L 51.9 16.1 L 50.9 16.1 Z M 53.5 16.1 L 53.5 7.5 L 54.6 7.5 L 54.6 16.1 L 53.5 16.1 Z " stroke="none" fill="#000"/>  </g></svg>