<?xml version="1.0" standalone="no"?><!DOCTYPE svg PUBLIC "-//W3C//DTD SVG 1.1//EN" "http://www.w3.org/Graphics/SVG/1.1/DTD/svg11.dtd"><svg xmlns="http://www.w3.org/2000/svg" version="1.1" width="714.1px" height="119.5px" viewBox="0 -1 714.1 119.5" style="top:-1px">  <desc>Survey</desc>  <defs/>  <g id="Polygon4083">    <path d="M 326 48.4 C 326 48.4 326 49.8 326 49.8 C 324.9 49 323.7 48.6 322.5 48.6 C 320.5 48.6 319.2 49.8 319.2 51.4 C 319.2 52.7 319.5 53.8 322.4 55.1 C 325.7 56.6 326.6 57.8 326.6 60 C 326.6 62.5 324.8 64.3 322 64.3 C 320.5 64.3 319.1 63.8 317.9 62.9 C 317.9 62.9 317.9 61.4 317.9 61.4 C 319.2 62.5 320.6 63.1 322 63.1 C 324 63.1 325.3 61.9 325.3 60 C 325.3 58.4 324.7 57.5 321.7 56.1 C 318.9 54.8 317.9 53.6 317.9 51.5 C 317.9 49.2 319.8 47.5 322.5 47.5 C 323.7 47.5 324.9 47.8 326 48.4 Z M 330.4 47.7 C 330.4 47.7 330.44 57.08 330.4 57.1 C 330.4 60.7 332.3 63.1 335.9 63.1 C 339.5 63.1 341.3 60.6 341.3 57.1 C 341.33 57.08 341.3 47.7 341.3 47.7 L 342.6 47.7 C 342.6 47.7 342.58 57.08 342.6 57.1 C 342.6 61.2 340.3 64.3 336 64.3 C 331.4 64.3 329.2 61.4 329.2 57.1 C 329.19 57.05 329.2 47.7 329.2 47.7 L 330.4 47.7 Z M 346.1 47.7 C 346.1 47.7 350.24 47.67 350.2 47.7 C 353.5 47.7 355.2 49.3 355.2 51.9 C 355.2 54.1 354 55.5 351.8 55.9 C 352.9 56.4 353.4 56.9 354.5 58.6 C 354.51 58.59 358 64 358 64 L 356.5 64 C 356.5 64 353.33 59.02 353.3 59 C 351.9 56.8 351 56.3 349.4 56.3 C 349.35 56.31 347.4 56.3 347.4 56.3 L 347.4 64 L 346.1 64 L 346.1 47.7 Z M 349.3 55.2 C 352 55.2 353.9 54.5 353.9 51.9 C 353.9 49.5 352.3 48.8 349.9 48.8 C 349.93 48.8 347.4 48.8 347.4 48.8 L 347.4 55.2 C 347.4 55.2 349.25 55.16 349.3 55.2 Z M 357.1 47.7 L 358.4 47.7 L 364.2 61.6 L 364.2 61.6 L 369.9 47.7 L 371.2 47.7 L 364.3 64.3 L 364 64.3 L 357.1 47.7 Z M 381.7 47.7 L 381.7 48.8 L 374.4 48.8 L 374.4 55.2 L 381.5 55.2 L 381.5 56.4 L 374.4 56.4 L 374.4 62.9 L 381.9 62.9 L 381.9 64 L 373.1 64 L 373.1 47.7 L 381.7 47.7 Z M 385 47.7 L 390.3 54.1 L 395.6 47.7 L 397.1 47.7 L 390.9 55.2 L 390.9 64 L 389.7 64 L 389.7 55.2 L 383.5 47.7 L 385 47.7 Z " stroke="none" fill="#000000"/>  </g></svg>