<?xml version="1.0" standalone="no"?><!DOCTYPE svg PUBLIC "-//W3C//DTD SVG 1.1//EN" "http://www.w3.org/Graphics/SVG/1.1/DTD/svg11.dtd"><svg xmlns="http://www.w3.org/2000/svg" version="1.1" width="17px" height="21.5px" viewBox="0 -4 17 21.5" style="top:-4px">  <desc>4.3</desc>  <defs/>  <g id="Polygon45782">    <path d="M 3.7 8.7 L 3.7 7 L 0.2 7 L 0.2 5.6 L 3.9 0.1 L 5.3 0.1 L 5.3 5.6 L 6.4 5.6 L 6.4 7 L 5.3 7 L 5.3 8.7 L 3.7 8.7 Z M 3.7 5.6 L 3.7 2.6 L 1.8 5.6 L 3.7 5.6 Z M 7.5 8.7 L 7.5 7.1 L 9.2 7.1 L 9.2 8.7 L 7.5 8.7 Z M 10.5 6.5 C 10.5 6.5 12.1 6.3 12.1 6.3 C 12.1 6.7 12.2 7 12.5 7.2 C 12.7 7.4 13 7.5 13.3 7.5 C 13.6 7.5 13.9 7.4 14.1 7.1 C 14.4 6.9 14.5 6.5 14.5 6.1 C 14.5 5.7 14.4 5.3 14.1 5.1 C 13.9 4.9 13.7 4.7 13.3 4.7 C 13.1 4.7 12.9 4.8 12.6 4.9 C 12.6 4.9 12.8 3.5 12.8 3.5 C 13.2 3.5 13.5 3.4 13.8 3.2 C 14 3 14.1 2.8 14.1 2.4 C 14.1 2.1 14 1.9 13.9 1.7 C 13.7 1.6 13.5 1.5 13.2 1.5 C 12.9 1.5 12.7 1.6 12.5 1.8 C 12.3 2 12.1 2.2 12.1 2.6 C 12.1 2.6 10.6 2.4 10.6 2.4 C 10.7 1.8 10.8 1.4 11.1 1.1 C 11.3 0.8 11.6 0.6 12 0.4 C 12.3 0.2 12.8 0.1 13.2 0.1 C 14 0.1 14.7 0.4 15.2 0.9 C 15.6 1.3 15.8 1.8 15.8 2.3 C 15.8 3.1 15.4 3.7 14.5 4.1 C 15 4.2 15.4 4.5 15.7 4.8 C 16 5.2 16.2 5.6 16.2 6.2 C 16.2 6.9 15.9 7.6 15.3 8.1 C 14.8 8.6 14.1 8.9 13.3 8.9 C 12.5 8.9 11.9 8.7 11.3 8.2 C 10.8 7.8 10.5 7.2 10.5 6.5 Z " stroke="none" fill="#000"/>  </g></svg>