<?xml version="1.0" standalone="no"?><!DOCTYPE svg PUBLIC "-//W3C//DTD SVG 1.1//EN" "http://www.w3.org/Graphics/SVG/1.1/DTD/svg11.dtd"><svg xmlns="http://www.w3.org/2000/svg" version="1.1" width="1537.2px" height="162.3px" viewBox="0 -14 1537.2 162.3" style="top:-14px">  <desc>Developing Sales Excellence for Private Bankers &amp; Corporate / Commercial Relationship Managers</desc>  <defs/>  <g id="Polygon19270">    <path d="M 25.7 103.2 C 27.5 101 29 98.2 30.2 95.4 C 30.2 95.4 34.7 95.4 34.7 95.4 C 33.5 98.9 31.5 102.6 28.4 106.3 C 29.2 107.1 29.8 107.9 30.5 108.7 C 30.54 108.66 37 115.7 37 115.7 L 31.3 115.7 C 31.3 115.7 25.5 109.44 25.5 109.4 C 22 113 17.4 116.3 12.1 116.3 C 6.4 116.3 1.6 112.3 1.6 106.7 C 1.6 101.5 5.8 97.7 11.7 94.3 C 8.2 90.8 6.5 87.6 6.4 84.8 C 6.3 84.1 6.3 83.5 6.5 82.8 C 7 78.9 10 75.2 16.1 75.2 C 22.7 75.2 26 79.6 26 84.1 C 26 87.8 24.1 91.1 18 95 C 18 95 25.7 103.2 25.7 103.2 Z M 14.3 97.3 C 14.3 97.3 11.52 99.06 11.5 99.1 C 7.9 101.5 6.1 103.7 6.1 106.3 C 6.1 109.3 8.3 111.6 11.6 111.9 C 12.1 112 12.7 112 13.3 112 C 17.2 111.5 20 109.4 22.7 106.4 C 22.74 106.38 14.3 97.3 14.3 97.3 Z M 21.8 84.2 C 21.8 81.2 19.5 79 16.1 79 C 13.1 79 10.7 81 10.7 83.8 C 10.7 86.9 13.4 89.9 15.5 92 C 20 89.3 21.8 86.9 21.8 84.2 Z M 91.6 77.5 C 91.6 77.5 91.6 82.4 91.6 82.4 C 87.3 79.9 82.5 78.5 77.7 78.5 C 67.3 78.5 60.7 86.3 60.7 95.3 C 60.7 104.5 67.2 112.1 77.7 112.1 C 82.8 112.1 87.5 110.6 91.9 107.9 C 91.9 107.9 91.9 112.9 91.9 112.9 C 87.3 115.2 82.6 116.3 77.5 116.3 C 63.4 116.3 56 105.7 56 95.5 C 56 83.3 65.4 74.3 77.7 74.3 C 82.3 74.3 87 75.4 91.6 77.5 Z M 138.9 95.1 C 138.9 106.6 130.5 116.3 117 116.3 C 104.2 116.3 95.7 106.6 95.7 95.5 C 95.7 84.1 103.9 74.3 117.1 74.3 C 130.2 74.3 138.9 83.8 138.9 95.1 Z M 100.3 95.3 C 100.3 105 107.8 112.1 117 112 C 129.2 112 134.2 102.6 134.2 95.2 C 134.2 86.9 128.1 78.5 117.4 78.5 C 106.2 78.5 100.3 87 100.3 95.3 Z M 146.2 74.8 C 146.2 74.8 156.97 74.82 157 74.8 C 165.2 74.8 169.5 79.6 169.5 85.8 C 169.5 90.9 166.7 94.4 161.7 95.9 C 164.4 97.3 165.6 98.3 168.9 103.5 C 168.91 103.5 176.8 115.7 176.8 115.7 L 171.5 115.7 C 171.5 115.7 164.29 104.46 164.3 104.5 C 160.5 98.5 158 97.1 154.5 97.1 C 154.51 97.14 150.7 97.1 150.7 97.1 L 150.7 115.7 L 146.2 115.7 L 146.2 74.8 Z M 154.9 93.2 C 160.6 93.2 164.8 91.8 164.8 85.9 C 164.8 80.8 161.6 78.8 156.4 78.8 C 156.37 78.78 150.7 78.8 150.7 78.8 L 150.7 93.2 C 150.7 93.2 154.93 93.18 154.9 93.2 Z M 193 74.8 C 201.1 74.8 206.1 79 206.1 86.1 C 206.1 93.7 201 97.3 192.2 97.3 C 192.19 97.32 185.8 97.3 185.8 97.3 L 185.8 115.7 L 181.3 115.7 L 181.3 74.8 C 181.3 74.8 192.97 74.82 193 74.8 Z M 185.8 93.4 C 185.8 93.4 192.07 93.36 192.1 93.4 C 199 93.4 201.5 90.7 201.5 86 C 201.5 81.4 198.7 78.8 192.1 78.8 C 192.07 78.78 185.8 78.8 185.8 78.8 L 185.8 93.4 Z M 253.8 95.1 C 253.8 106.6 245.4 116.3 231.9 116.3 C 219.2 116.3 210.7 106.6 210.7 95.5 C 210.7 84.1 218.8 74.3 232.1 74.3 C 245.2 74.3 253.8 83.8 253.8 95.1 Z M 215.3 95.3 C 215.3 105 222.8 112.1 232 112 C 244.2 112 249.1 102.6 249.1 95.2 C 249.1 86.9 243 78.5 232.3 78.5 C 221.2 78.5 215.3 87 215.3 95.3 Z M 261.2 74.8 C 261.2 74.8 271.93 74.82 271.9 74.8 C 280.2 74.8 284.4 79.6 284.4 85.8 C 284.4 90.9 281.7 94.4 276.7 95.9 C 279.3 97.3 280.5 98.3 283.9 103.5 C 283.87 103.5 291.8 115.7 291.8 115.7 L 286.5 115.7 C 286.5 115.7 279.25 104.46 279.3 104.5 C 275.5 98.5 273 97.1 269.5 97.1 C 269.47 97.14 265.7 97.1 265.7 97.1 L 265.7 115.7 L 261.2 115.7 L 261.2 74.8 Z M 269.9 93.2 C 275.5 93.2 279.8 91.8 279.8 85.9 C 279.8 80.8 276.6 78.8 271.3 78.8 C 271.33 78.78 265.7 78.8 265.7 78.8 L 265.7 93.2 C 265.7 93.2 269.89 93.18 269.9 93.2 Z M 312.7 74.6 L 330.9 115.7 L 326.3 115.7 L 320.5 102.9 L 301.9 102.9 L 296.4 115.7 L 291.8 115.7 L 309.5 74.6 L 312.7 74.6 Z M 303.7 98.9 L 318.7 98.9 L 311 81.5 L 303.7 98.9 Z M 360.4 74.8 L 360.4 78.8 L 345.8 78.8 L 345.8 115.7 L 341.3 115.7 L 341.3 78.8 L 326.8 78.8 L 326.8 74.8 L 360.4 74.8 Z M 388.3 74.8 L 388.3 78.8 L 370.4 78.8 L 370.4 93.1 L 387.7 93.1 L 387.7 97.1 L 370.4 97.1 L 370.4 111.7 L 388.8 111.7 L 388.8 115.7 L 365.9 115.7 L 365.9 74.8 L 388.3 74.8 Z M 423.4 74.3 L 411.3 116.3 L 408 116.3 L 420.2 74.3 L 423.4 74.3 Z M 478.4 77.5 C 478.4 77.5 478.4 82.4 478.4 82.4 C 474.1 79.9 469.4 78.5 464.6 78.5 C 454.1 78.5 447.5 86.3 447.5 95.3 C 447.5 104.5 454.1 112.1 464.5 112.1 C 469.6 112.1 474.3 110.6 478.7 107.9 C 478.7 107.9 478.7 112.9 478.7 112.9 C 474.2 115.2 469.4 116.3 464.4 116.3 C 450.2 116.3 442.8 105.7 442.8 95.5 C 442.8 83.3 452.2 74.3 464.5 74.3 C 469.1 74.3 473.8 75.4 478.4 77.5 Z M 525.7 95.1 C 525.7 106.6 517.3 116.3 503.8 116.3 C 491.1 116.3 482.6 106.6 482.6 95.5 C 482.6 84.1 490.7 74.3 504 74.3 C 517.1 74.3 525.7 83.8 525.7 95.1 Z M 487.2 95.3 C 487.2 105 494.7 112.1 503.9 112 C 516 112 521 102.6 521 95.2 C 521 86.9 514.9 78.5 504.2 78.5 C 493.1 78.5 487.2 87 487.2 95.3 Z M 533.1 74.8 L 537.3 74.8 L 551.8 92.8 L 566.2 74.8 L 570.5 74.8 L 570.5 115.7 L 566 115.7 L 566 82 L 565.8 82 L 552.2 99.1 L 551.4 99.1 L 537.7 82 L 537.6 82 L 537.6 115.7 L 533.1 115.7 L 533.1 74.8 Z M 579.7 74.8 L 584 74.8 L 598.4 92.8 L 612.8 74.8 L 617.1 74.8 L 617.1 115.7 L 612.6 115.7 L 612.6 82 L 612.5 82 L 598.8 99.1 L 598 99.1 L 584.3 82 L 584.2 82 L 584.2 115.7 L 579.7 115.7 L 579.7 74.8 Z M 648.7 74.8 L 648.7 78.8 L 630.8 78.8 L 630.8 93.1 L 648.1 93.1 L 648.1 97.1 L 630.8 97.1 L 630.8 111.7 L 649.2 111.7 L 649.2 115.7 L 626.3 115.7 L 626.3 74.8 L 648.7 74.8 Z M 656.4 74.8 C 656.4 74.8 667.17 74.82 667.2 74.8 C 675.4 74.8 679.7 79.6 679.7 85.8 C 679.7 90.9 676.9 94.4 671.9 95.9 C 674.6 97.3 675.8 98.3 679.1 103.5 C 679.11 103.5 687 115.7 687 115.7 L 681.7 115.7 C 681.7 115.7 674.49 104.46 674.5 104.5 C 670.7 98.5 668.2 97.1 664.7 97.1 C 664.71 97.14 660.9 97.1 660.9 97.1 L 660.9 115.7 L 656.4 115.7 L 656.4 74.8 Z M 665.1 93.2 C 670.8 93.2 675 91.8 675 85.9 C 675 80.8 671.8 78.8 666.6 78.8 C 666.57 78.78 660.9 78.8 660.9 78.8 L 660.9 93.2 C 660.9 93.2 665.13 93.18 665.1 93.2 Z M 724.1 77.5 C 724.1 77.5 724.1 82.4 724.1 82.4 C 719.8 79.9 715.1 78.5 710.3 78.5 C 699.8 78.5 693.2 86.3 693.2 95.3 C 693.2 104.5 699.8 112.1 710.2 112.1 C 715.3 112.1 720 110.6 724.4 107.9 C 724.4 107.9 724.4 112.9 724.4 112.9 C 719.9 115.2 715.1 116.3 710.1 116.3 C 695.9 116.3 688.5 105.7 688.5 95.5 C 688.5 83.3 697.9 74.3 710.2 74.3 C 714.8 74.3 719.5 75.4 724.1 77.5 Z M 736 74.8 L 736 115.7 L 731.5 115.7 L 731.5 74.8 L 736 74.8 Z M 761.6 74.6 L 779.8 115.7 L 775.2 115.7 L 769.4 102.9 L 750.8 102.9 L 745.3 115.7 L 740.7 115.7 L 758.4 74.6 L 761.6 74.6 Z M 752.6 98.9 L 767.6 98.9 L 759.9 81.5 L 752.6 98.9 Z M 789 74.8 L 789 111.6 L 808.2 111.6 L 808.2 115.7 L 784.5 115.7 L 784.5 74.8 L 789 74.8 Z M 829.6 74.8 C 829.6 74.8 840.34 74.82 840.3 74.8 C 848.6 74.8 852.8 79.6 852.8 85.8 C 852.8 90.9 850.1 94.4 845.1 95.9 C 847.7 97.3 848.9 98.3 852.3 103.5 C 852.28 103.5 860.2 115.7 860.2 115.7 L 854.9 115.7 C 854.9 115.7 847.66 104.46 847.7 104.5 C 843.9 98.5 841.4 97.1 837.9 97.1 C 837.88 97.14 834.1 97.1 834.1 97.1 L 834.1 115.7 L 829.6 115.7 L 829.6 74.8 Z M 838.3 93.2 C 843.9 93.2 848.2 91.8 848.2 85.9 C 848.2 80.8 845 78.8 839.7 78.8 C 839.74 78.78 834.1 78.8 834.1 78.8 L 834.1 93.2 C 834.1 93.2 838.3 93.18 838.3 93.2 Z M 887.1 74.8 L 887.1 78.8 L 869.2 78.8 L 869.2 93.1 L 886.5 93.1 L 886.5 97.1 L 869.2 97.1 L 869.2 111.7 L 887.6 111.7 L 887.6 115.7 L 864.7 115.7 L 864.7 74.8 L 887.1 74.8 Z M 899.3 74.8 L 899.3 111.6 L 918.6 111.6 L 918.6 115.7 L 894.8 115.7 L 894.8 74.8 L 899.3 74.8 Z M 941.1 74.6 L 959.4 115.7 L 954.8 115.7 L 949 102.9 L 930.4 102.9 L 924.9 115.7 L 920.3 115.7 L 938 74.6 L 941.1 74.6 Z M 932.1 98.9 L 947.2 98.9 L 939.5 81.5 L 932.1 98.9 Z M 988.9 74.8 L 988.9 78.8 L 974.3 78.8 L 974.3 115.7 L 969.8 115.7 L 969.8 78.8 L 955.3 78.8 L 955.3 74.8 L 988.9 74.8 Z M 998.9 74.8 L 998.9 115.7 L 994.4 115.7 L 994.4 74.8 L 998.9 74.8 Z M 1049.4 95.1 C 1049.4 106.6 1041 116.3 1027.5 116.3 C 1014.8 116.3 1006.3 106.6 1006.3 95.5 C 1006.3 84.1 1014.5 74.3 1027.7 74.3 C 1040.8 74.3 1049.4 83.8 1049.4 95.1 Z M 1010.9 95.3 C 1010.9 105 1018.4 112.1 1027.6 112 C 1039.8 112 1044.8 102.6 1044.8 95.2 C 1044.8 86.9 1038.6 78.5 1028 78.5 C 1016.8 78.5 1010.9 87 1010.9 95.3 Z M 1060.5 74.8 L 1089.5 108.7 L 1089.5 74.8 L 1093.8 74.8 L 1093.8 115.7 L 1089.9 115.7 L 1061.1 82 L 1061.1 115.7 L 1056.8 115.7 L 1056.8 74.8 L 1060.5 74.8 Z M 1122.7 76.9 C 1122.7 76.9 1122.7 82 1122.7 82 C 1119.9 79.6 1116.8 78.4 1113.5 78.4 C 1109.1 78.4 1106.3 80.8 1106.3 84.3 C 1106.3 87 1107 89.3 1113.8 92.8 C 1122.2 97.1 1124.3 100.1 1124.3 105.7 C 1124.3 111.7 1119.6 116.3 1112.6 116.3 C 1108.7 116.3 1105.1 115 1101.9 112.7 C 1101.9 112.7 1101.9 107 1101.9 107 C 1105 110.4 1108.6 112.3 1112.6 112.3 C 1116.7 112.3 1119.7 109.7 1119.7 105.7 C 1119.7 102.2 1118.6 100.2 1110.6 96.1 C 1104.2 92.8 1101.8 89.6 1101.8 84.4 C 1101.8 78.6 1106.7 74.3 1113.6 74.3 C 1116.8 74.3 1119.9 75.2 1122.7 76.9 Z M 1135.8 74.8 L 1135.8 93.1 L 1160.6 93.1 L 1160.6 74.8 L 1165.1 74.8 L 1165.1 115.7 L 1160.6 115.7 L 1160.6 97.2 L 1135.8 97.2 L 1135.8 115.7 L 1131.3 115.7 L 1131.3 74.8 L 1135.8 74.8 Z M 1178.8 74.8 L 1178.8 115.7 L 1174.3 115.7 L 1174.3 74.8 L 1178.8 74.8 Z M 1199.6 74.8 C 1207.8 74.8 1212.8 79 1212.8 86.1 C 1212.8 93.7 1207.6 97.3 1198.8 97.3 C 1198.84 97.32 1192.5 97.3 1192.5 97.3 L 1192.5 115.7 L 1188 115.7 L 1188 74.8 C 1188 74.8 1199.62 74.82 1199.6 74.8 Z M 1192.5 93.4 C 1192.5 93.4 1198.72 93.36 1198.7 93.4 C 1205.6 93.4 1208.1 90.7 1208.1 86 C 1208.1 81.4 1205.4 78.8 1198.7 78.8 C 1198.72 78.78 1192.5 78.8 1192.5 78.8 L 1192.5 93.4 Z M 1235.3 74.8 L 1239.5 74.8 L 1254 92.8 L 1268.4 74.8 L 1272.7 74.8 L 1272.7 115.7 L 1268.2 115.7 L 1268.2 82 L 1268 82 L 1254.4 99.1 L 1253.6 99.1 L 1239.9 82 L 1239.8 82 L 1239.8 115.7 L 1235.3 115.7 L 1235.3 74.8 Z M 1298.3 74.6 L 1316.5 115.7 L 1311.9 115.7 L 1306.1 102.9 L 1287.5 102.9 L 1282 115.7 L 1277.4 115.7 L 1295.1 74.6 L 1298.3 74.6 Z M 1289.3 98.9 L 1304.3 98.9 L 1296.6 81.5 L 1289.3 98.9 Z M 1324.9 74.8 L 1353.9 108.7 L 1353.9 74.8 L 1358.2 74.8 L 1358.2 115.7 L 1354.3 115.7 L 1325.5 82 L 1325.5 115.7 L 1321.2 115.7 L 1321.2 74.8 L 1324.9 74.8 Z M 1383.8 74.6 L 1402 115.7 L 1397.4 115.7 L 1391.6 102.9 L 1373 102.9 L 1367.5 115.7 L 1362.9 115.7 L 1380.6 74.6 L 1383.8 74.6 Z M 1374.8 98.9 L 1389.8 98.9 L 1382.1 81.5 L 1374.8 98.9 Z M 1438.7 82.3 C 1434.2 79.7 1429.2 78.3 1424.6 78.3 C 1415.1 78.3 1407.8 85.5 1407.8 95.1 C 1407.8 105.2 1414.7 112.3 1424.9 112.3 C 1428.4 112.3 1430.8 111.7 1435 110.2 C 1435.01 110.16 1435 100.2 1435 100.2 L 1426.7 100.2 L 1426.7 96.2 L 1439.5 96.2 C 1439.5 96.2 1439.51 112.92 1439.5 112.9 C 1434.8 115.2 1430.3 116.3 1424.9 116.3 C 1410.3 116.3 1403.1 106 1403.1 95.5 C 1403.1 83.9 1411.7 74.3 1424.8 74.3 C 1429.4 74.3 1433.3 75.2 1438.7 77.6 C 1438.7 77.6 1438.7 82.3 1438.7 82.3 Z M 1470.5 74.8 L 1470.5 78.8 L 1452.6 78.8 L 1452.6 93.1 L 1469.9 93.1 L 1469.9 97.1 L 1452.6 97.1 L 1452.6 111.7 L 1470.9 111.7 L 1470.9 115.7 L 1448.1 115.7 L 1448.1 74.8 L 1470.5 74.8 Z M 1478.2 74.8 C 1478.2 74.8 1488.95 74.82 1488.9 74.8 C 1497.2 74.8 1501.4 79.6 1501.4 85.8 C 1501.4 90.9 1498.7 94.4 1493.7 95.9 C 1496.3 97.3 1497.5 98.3 1500.9 103.5 C 1500.89 103.5 1508.8 115.7 1508.8 115.7 L 1503.5 115.7 C 1503.5 115.7 1496.27 104.46 1496.3 104.5 C 1492.5 98.5 1490 97.1 1486.5 97.1 C 1486.49 97.14 1482.7 97.1 1482.7 97.1 L 1482.7 115.7 L 1478.2 115.7 L 1478.2 74.8 Z M 1486.9 93.2 C 1492.5 93.2 1496.8 91.8 1496.8 85.9 C 1496.8 80.8 1493.6 78.8 1488.3 78.8 C 1488.35 78.78 1482.7 78.8 1482.7 78.8 L 1482.7 93.2 C 1482.7 93.2 1486.91 93.18 1486.9 93.2 Z M 1533.2 76.9 C 1533.2 76.9 1533.2 82 1533.2 82 C 1530.4 79.6 1527.3 78.4 1524 78.4 C 1519.7 78.4 1516.8 80.8 1516.8 84.3 C 1516.8 87 1517.5 89.3 1524.3 92.8 C 1532.7 97.1 1534.8 100.1 1534.8 105.7 C 1534.8 111.7 1530.1 116.3 1523.1 116.3 C 1519.2 116.3 1515.6 115 1512.5 112.7 C 1512.5 112.7 1512.5 107 1512.5 107 C 1515.5 110.4 1519.1 112.3 1523.1 112.3 C 1527.2 112.3 1530.2 109.7 1530.2 105.7 C 1530.2 102.2 1529.1 100.2 1521.2 96.1 C 1514.7 92.8 1512.3 89.6 1512.3 84.4 C 1512.3 78.6 1517.3 74.3 1524.1 74.3 C 1527.3 74.3 1530.5 75.2 1533.2 76.9 Z " stroke="none" fill="#010102"/>  </g>  <g id="Polygon19269">    <path d="M 4.6 2.8 C 4.6 2.8 19.68 2.82 19.7 2.8 C 33.1 2.8 41.7 11.2 41.7 22.9 C 41.7 35.6 32.7 43.7 19.7 43.7 C 19.68 43.74 4.6 43.7 4.6 43.7 L 4.6 2.8 Z M 19.6 39.7 C 30.4 39.7 37 33.3 37 23.2 C 37 13.3 30.5 6.8 19 6.8 C 18.96 6.84 9.1 6.8 9.1 6.8 L 9.1 39.7 C 9.1 39.7 19.62 39.66 19.6 39.7 Z M 71.6 2.8 L 71.6 6.8 L 53.7 6.8 L 53.7 21.1 L 71 21.1 L 71 25.1 L 53.7 25.1 L 53.7 39.7 L 72.1 39.7 L 72.1 43.7 L 49.2 43.7 L 49.2 2.8 L 71.6 2.8 Z M 75.8 2.8 L 80.3 2.8 L 93.6 34.7 L 93.7 34.7 L 106.9 2.8 L 111.4 2.8 L 94.1 44.2 L 93.1 44.2 L 75.8 2.8 Z M 138.5 2.8 L 138.5 6.8 L 120.6 6.8 L 120.6 21.1 L 137.9 21.1 L 137.9 25.1 L 120.6 25.1 L 120.6 39.7 L 139 39.7 L 139 43.7 L 116.1 43.7 L 116.1 2.8 L 138.5 2.8 Z M 150.7 2.8 L 150.7 39.6 L 170 39.6 L 170 43.7 L 146.2 43.7 L 146.2 2.8 L 150.7 2.8 Z M 214.2 23.1 C 214.2 34.6 205.8 44.3 192.3 44.3 C 179.6 44.3 171.1 34.6 171.1 23.5 C 171.1 12.1 179.2 2.3 192.5 2.3 C 205.6 2.3 214.2 11.8 214.2 23.1 Z M 175.7 23.3 C 175.7 33 183.2 40.1 192.4 40 C 204.5 40 209.5 30.6 209.5 23.2 C 209.5 14.9 203.4 6.5 192.7 6.5 C 181.6 6.5 175.7 15 175.7 23.3 Z M 233.2 2.8 C 241.4 2.8 246.4 7 246.4 14.1 C 246.4 21.7 241.2 25.3 232.4 25.3 C 232.44 25.32 226.1 25.3 226.1 25.3 L 226.1 43.7 L 221.6 43.7 L 221.6 2.8 C 221.6 2.8 233.22 2.82 233.2 2.8 Z M 226.1 21.4 C 226.1 21.4 232.32 21.36 232.3 21.4 C 239.2 21.4 241.7 18.7 241.7 14 C 241.7 9.4 239 6.8 232.3 6.8 C 232.32 6.78 226.1 6.8 226.1 6.8 L 226.1 21.4 Z M 257.2 2.8 L 257.2 43.7 L 252.7 43.7 L 252.7 2.8 L 257.2 2.8 Z M 270.1 2.8 L 299.1 36.7 L 299.1 2.8 L 303.4 2.8 L 303.4 43.7 L 299.5 43.7 L 270.7 10 L 270.7 43.7 L 266.4 43.7 L 266.4 2.8 L 270.1 2.8 Z M 346.4 10.3 C 341.9 7.7 336.9 6.3 332.3 6.3 C 322.8 6.3 315.5 13.5 315.5 23.1 C 315.5 33.2 322.4 40.3 332.6 40.3 C 336.1 40.3 338.5 39.7 342.7 38.2 C 342.72 38.16 342.7 28.2 342.7 28.2 L 334.4 28.2 L 334.4 24.2 L 347.2 24.2 C 347.2 24.2 347.22 40.92 347.2 40.9 C 342.5 43.2 338 44.3 332.6 44.3 C 318 44.3 310.8 34 310.8 23.5 C 310.8 11.9 319.4 2.3 332.5 2.3 C 337.1 2.3 341 3.2 346.4 5.6 C 346.4 5.6 346.4 10.3 346.4 10.3 Z M 391.4 4.9 C 391.4 4.9 391.4 10 391.4 10 C 388.6 7.6 385.6 6.4 382.2 6.4 C 377.9 6.4 375.1 8.8 375.1 12.3 C 375.1 15 375.7 17.3 382.5 20.8 C 391 25.1 393 28.1 393 33.7 C 393 39.7 388.3 44.3 381.3 44.3 C 377.4 44.3 373.8 43 370.7 40.7 C 370.7 40.7 370.7 35 370.7 35 C 373.7 38.4 377.3 40.3 381.3 40.3 C 385.4 40.3 388.4 37.7 388.4 33.7 C 388.4 30.2 387.3 28.2 379.4 24.1 C 373 20.8 370.5 17.6 370.5 12.4 C 370.5 6.6 375.5 2.3 382.3 2.3 C 385.5 2.3 388.7 3.2 391.4 4.9 Z M 416.4 2.6 L 434.6 43.7 L 430 43.7 L 424.3 30.9 L 405.7 30.9 L 400.1 43.7 L 395.5 43.7 L 413.2 2.6 L 416.4 2.6 Z M 407.4 26.9 L 422.5 26.9 L 414.7 9.5 L 407.4 26.9 Z M 443.8 2.8 L 443.8 39.6 L 463.1 39.6 L 463.1 43.7 L 439.3 43.7 L 439.3 2.8 L 443.8 2.8 Z M 490.7 2.8 L 490.7 6.8 L 472.8 6.8 L 472.8 21.1 L 490.1 21.1 L 490.1 25.1 L 472.8 25.1 L 472.8 39.7 L 491.2 39.7 L 491.2 43.7 L 468.3 43.7 L 468.3 2.8 L 490.7 2.8 Z M 517.4 4.9 C 517.4 4.9 517.4 10 517.4 10 C 514.6 7.6 511.5 6.4 508.1 6.4 C 503.8 6.4 501 8.8 501 12.3 C 501 15 501.7 17.3 508.4 20.8 C 516.9 25.1 518.9 28.1 518.9 33.7 C 518.9 39.7 514.3 44.3 507.2 44.3 C 503.3 44.3 499.7 43 496.6 40.7 C 496.6 40.7 496.6 35 496.6 35 C 499.7 38.4 503.3 40.3 507.2 40.3 C 511.4 40.3 514.4 37.7 514.4 33.7 C 514.4 30.2 513.2 28.2 505.3 24.1 C 498.9 20.8 496.4 17.6 496.4 12.4 C 496.4 6.6 501.4 2.3 508.3 2.3 C 511.4 2.3 514.6 3.2 517.4 4.9 Z M 565 2.8 L 565 6.8 L 547.1 6.8 L 547.1 21.1 L 564.4 21.1 L 564.4 25.1 L 547.1 25.1 L 547.1 39.7 L 565.5 39.7 L 565.5 43.7 L 542.6 43.7 L 542.6 2.8 L 565 2.8 Z M 576.3 2.8 C 582.8 10.5 584.6 12.6 590.4 19.5 C 594.7 14.3 599.1 9.2 604.4 2.8 C 604.37 2.82 609.8 2.8 609.8 2.8 L 593.1 22.6 L 610.9 43.7 L 605.5 43.7 L 590.4 25.9 L 575.2 43.7 L 569.6 43.7 L 587.6 22.6 L 570.8 2.8 C 570.8 2.8 576.29 2.82 576.3 2.8 Z M 647 5.5 C 647 5.5 647 10.4 647 10.4 C 642.7 7.9 637.9 6.5 633.1 6.5 C 622.7 6.5 616.1 14.3 616.1 23.3 C 616.1 32.5 622.6 40.1 633.1 40.1 C 638.2 40.1 642.9 38.6 647.3 35.9 C 647.3 35.9 647.3 40.9 647.3 40.9 C 642.7 43.2 638 44.3 632.9 44.3 C 618.8 44.3 611.4 33.7 611.4 23.5 C 611.4 11.3 620.8 2.3 633.1 2.3 C 637.7 2.3 642.4 3.4 647 5.5 Z M 676.7 2.8 L 676.7 6.8 L 658.9 6.8 L 658.9 21.1 L 676.1 21.1 L 676.1 25.1 L 658.9 25.1 L 658.9 39.7 L 677.2 39.7 L 677.2 43.7 L 654.4 43.7 L 654.4 2.8 L 676.7 2.8 Z M 689 2.8 L 689 39.6 L 708.2 39.6 L 708.2 43.7 L 684.5 43.7 L 684.5 2.8 L 689 2.8 Z M 718 2.8 L 718 39.6 L 737.2 39.6 L 737.2 43.7 L 713.5 43.7 L 713.5 2.8 L 718 2.8 Z M 764.8 2.8 L 764.8 6.8 L 746.9 6.8 L 746.9 21.1 L 764.2 21.1 L 764.2 25.1 L 746.9 25.1 L 746.9 39.7 L 765.3 39.7 L 765.3 43.7 L 742.4 43.7 L 742.4 2.8 L 764.8 2.8 Z M 776.3 2.8 L 805.3 36.7 L 805.3 2.8 L 809.6 2.8 L 809.6 43.7 L 805.6 43.7 L 776.9 10 L 776.9 43.7 L 772.6 43.7 L 772.6 2.8 L 776.3 2.8 Z M 852.5 5.5 C 852.5 5.5 852.5 10.4 852.5 10.4 C 848.2 7.9 843.5 6.5 838.7 6.5 C 828.2 6.5 821.6 14.3 821.6 23.3 C 821.6 32.5 828.2 40.1 838.6 40.1 C 843.7 40.1 848.5 38.6 852.8 35.9 C 852.8 35.9 852.8 40.9 852.8 40.9 C 848.3 43.2 843.5 44.3 838.5 44.3 C 824.3 44.3 817 33.7 817 23.5 C 817 11.3 826.3 2.3 838.6 2.3 C 843.2 2.3 847.9 3.4 852.5 5.5 Z M 882.3 2.8 L 882.3 6.8 L 864.4 6.8 L 864.4 21.1 L 881.7 21.1 L 881.7 25.1 L 864.4 25.1 L 864.4 39.7 L 882.8 39.7 L 882.8 43.7 L 859.9 43.7 L 859.9 2.8 L 882.3 2.8 Z M 927.7 2.8 L 927.7 6.9 L 911.2 6.9 L 911.2 20.1 L 927.2 20.1 L 927.2 24.2 L 911.2 24.2 L 911.2 43.7 L 906.7 43.7 L 906.7 2.8 L 927.7 2.8 Z M 975.1 23.1 C 975.1 34.6 966.7 44.3 953.2 44.3 C 940.4 44.3 931.9 34.6 931.9 23.5 C 931.9 12.1 940.1 2.3 953.3 2.3 C 966.4 2.3 975.1 11.8 975.1 23.1 Z M 936.5 23.3 C 936.5 33 944 40.1 953.2 40 C 965.4 40 970.4 30.6 970.4 23.2 C 970.4 14.9 964.3 6.5 953.6 6.5 C 942.4 6.5 936.5 15 936.5 23.3 Z M 982.4 2.8 C 982.4 2.8 993.17 2.82 993.2 2.8 C 1001.4 2.8 1005.7 7.6 1005.7 13.8 C 1005.7 18.9 1002.9 22.4 997.9 23.9 C 1000.6 25.3 1001.8 26.3 1005.1 31.5 C 1005.11 31.5 1013 43.7 1013 43.7 L 1007.7 43.7 C 1007.7 43.7 1000.49 32.46 1000.5 32.5 C 996.7 26.5 994.2 25.1 990.7 25.1 C 990.71 25.14 986.9 25.1 986.9 25.1 L 986.9 43.7 L 982.4 43.7 L 982.4 2.8 Z M 991.1 21.2 C 996.8 21.2 1001 19.8 1001 13.9 C 1001 8.8 997.8 6.8 992.6 6.8 C 992.57 6.78 986.9 6.8 986.9 6.8 L 986.9 21.2 C 986.9 21.2 991.13 21.18 991.1 21.2 Z M 1045.9 2.8 C 1054 2.8 1059 7 1059 14.1 C 1059 21.7 1053.8 25.3 1045.1 25.3 C 1045.07 25.32 1038.7 25.3 1038.7 25.3 L 1038.7 43.7 L 1034.2 43.7 L 1034.2 2.8 C 1034.2 2.8 1045.85 2.82 1045.9 2.8 Z M 1038.7 21.4 C 1038.7 21.4 1044.95 21.36 1045 21.4 C 1051.9 21.4 1054.4 18.7 1054.4 14 C 1054.4 9.4 1051.6 6.8 1045 6.8 C 1044.95 6.78 1038.7 6.8 1038.7 6.8 L 1038.7 21.4 Z M 1065.3 2.8 C 1065.3 2.8 1076.09 2.82 1076.1 2.8 C 1084.3 2.8 1088.6 7.6 1088.6 13.8 C 1088.6 18.9 1085.8 22.4 1080.8 23.9 C 1083.5 25.3 1084.7 26.3 1088 31.5 C 1088.03 31.5 1095.9 43.7 1095.9 43.7 L 1090.6 43.7 C 1090.6 43.7 1083.41 32.46 1083.4 32.5 C 1079.6 26.5 1077.1 25.1 1073.6 25.1 C 1073.63 25.14 1069.8 25.1 1069.8 25.1 L 1069.8 43.7 L 1065.3 43.7 L 1065.3 2.8 Z M 1074 21.2 C 1079.7 21.2 1083.9 19.8 1083.9 13.9 C 1083.9 8.8 1080.7 6.8 1075.5 6.8 C 1075.49 6.78 1069.8 6.8 1069.8 6.8 L 1069.8 21.2 C 1069.8 21.2 1074.05 21.18 1074 21.2 Z M 1104.9 2.8 L 1104.9 43.7 L 1100.4 43.7 L 1100.4 2.8 L 1104.9 2.8 Z M 1109.6 2.8 L 1114.1 2.8 L 1127.4 34.7 L 1127.5 34.7 L 1140.8 2.8 L 1145.3 2.8 L 1128 44.2 L 1127 44.2 L 1109.6 2.8 Z M 1162.9 2.6 L 1181.1 43.7 L 1176.5 43.7 L 1170.8 30.9 L 1152.2 30.9 L 1146.6 43.7 L 1142 43.7 L 1159.7 2.6 L 1162.9 2.6 Z M 1153.9 26.9 L 1169 26.9 L 1161.2 9.5 L 1153.9 26.9 Z M 1210.7 2.8 L 1210.7 6.8 L 1196 6.8 L 1196 43.7 L 1191.5 43.7 L 1191.5 6.8 L 1177.1 6.8 L 1177.1 2.8 L 1210.7 2.8 Z M 1238.6 2.8 L 1238.6 6.8 L 1220.7 6.8 L 1220.7 21.1 L 1238 21.1 L 1238 25.1 L 1220.7 25.1 L 1220.7 39.7 L 1239 39.7 L 1239 43.7 L 1216.2 43.7 L 1216.2 2.8 L 1238.6 2.8 Z M 1273.5 2.8 C 1281.2 2.8 1286.2 6.7 1286.2 13.3 C 1286.2 17.6 1283.8 20.8 1279.4 22.3 C 1285.8 23.2 1289.7 27.4 1289.7 32.8 C 1289.7 40.3 1283 43.7 1275.5 43.7 C 1275.47 43.74 1263 43.7 1263 43.7 L 1263 2.8 C 1263 2.8 1273.55 2.82 1273.5 2.8 Z M 1267.4 21 C 1267.4 21 1271.93 21 1271.9 21 C 1278.6 21 1281.5 17.9 1281.5 13.7 C 1281.5 8.9 1278.7 6.8 1272.6 6.8 C 1272.65 6.78 1267.4 6.8 1267.4 6.8 L 1267.4 21 Z M 1274.6 39.8 C 1281.2 39.8 1285 37.6 1285 32.4 C 1285 27.7 1281.7 24.9 1274 24.9 C 1273.97 24.9 1267.4 24.9 1267.4 24.9 L 1267.4 39.8 C 1267.4 39.8 1274.63 39.78 1274.6 39.8 Z M 1313.5 2.6 L 1331.7 43.7 L 1327.1 43.7 L 1321.4 30.9 L 1302.8 30.9 L 1297.2 43.7 L 1292.6 43.7 L 1310.3 2.6 L 1313.5 2.6 Z M 1304.5 26.9 L 1319.6 26.9 L 1311.8 9.5 L 1304.5 26.9 Z M 1340.1 2.8 L 1369.1 36.7 L 1369.1 2.8 L 1373.4 2.8 L 1373.4 43.7 L 1369.5 43.7 L 1340.7 10 L 1340.7 43.7 L 1336.4 43.7 L 1336.4 2.8 L 1340.1 2.8 Z M 1387.1 2.8 L 1387.1 22 L 1405.1 2.8 L 1410.7 2.8 L 1392.4 22.5 L 1414.3 43.7 L 1408.1 43.7 L 1387.1 23.4 L 1387.1 43.7 L 1382.6 43.7 L 1382.6 2.8 L 1387.1 2.8 Z M 1441.1 2.8 L 1441.1 6.8 L 1423.2 6.8 L 1423.2 21.1 L 1440.5 21.1 L 1440.5 25.1 L 1423.2 25.1 L 1423.2 39.7 L 1441.6 39.7 L 1441.6 43.7 L 1418.7 43.7 L 1418.7 2.8 L 1441.1 2.8 Z M 1448.9 2.8 C 1448.9 2.8 1459.61 2.82 1459.6 2.8 C 1467.8 2.8 1472.1 7.6 1472.1 13.8 C 1472.1 18.9 1469.3 22.4 1464.3 23.9 C 1467 25.3 1468.2 26.3 1471.5 31.5 C 1471.55 31.5 1479.5 43.7 1479.5 43.7 L 1474.1 43.7 C 1474.1 43.7 1466.93 32.46 1466.9 32.5 C 1463.1 26.5 1460.6 25.1 1457.1 25.1 C 1457.15 25.14 1453.4 25.1 1453.4 25.1 L 1453.4 43.7 L 1448.9 43.7 L 1448.9 2.8 Z M 1457.6 21.2 C 1463.2 21.2 1467.5 19.8 1467.5 13.9 C 1467.5 8.8 1464.2 6.8 1459 6.8 C 1459.01 6.78 1453.4 6.8 1453.4 6.8 L 1453.4 21.2 C 1453.4 21.2 1457.57 21.18 1457.6 21.2 Z M 1503.9 4.9 C 1503.9 4.9 1503.9 10 1503.9 10 C 1501.1 7.6 1498 6.4 1494.6 6.4 C 1490.3 6.4 1487.5 8.8 1487.5 12.3 C 1487.5 15 1488.2 17.3 1494.9 20.8 C 1503.4 25.1 1505.4 28.1 1505.4 33.7 C 1505.4 39.7 1500.8 44.3 1493.7 44.3 C 1489.8 44.3 1486.2 43 1483.1 40.7 C 1483.1 40.7 1483.1 35 1483.1 35 C 1486.2 38.4 1489.8 40.3 1493.7 40.3 C 1497.9 40.3 1500.9 37.7 1500.9 33.7 C 1500.9 30.2 1499.7 28.2 1491.8 24.1 C 1485.4 20.8 1482.9 17.6 1482.9 12.4 C 1482.9 6.6 1487.9 2.3 1494.8 2.3 C 1497.9 2.3 1501.1 3.2 1503.9 4.9 Z " stroke="none" fill="#010102"/>  </g></svg>