<?xml version="1.0" standalone="no"?><!DOCTYPE svg PUBLIC "-//W3C//DTD SVG 1.1//EN" "http://www.w3.org/Graphics/SVG/1.1/DTD/svg11.dtd"><svg xmlns="http://www.w3.org/2000/svg" version="1.1" width="61.2px" height="27.5px" viewBox="0 -1 61.2 27.5" style="top:-1px">  <desc>Knowledge</desc>  <defs/>  <g id="Polygon6962">    <path d="M 1.8 16.1 L 1.8 7.5 L 2.9 7.5 L 2.9 11.8 L 7.2 7.5 L 8.7 7.5 L 5.1 11 L 8.9 16.1 L 7.4 16.1 L 4.3 11.7 L 2.9 13.1 L 2.9 16.1 L 1.8 16.1 Z M 9.7 16.1 L 9.7 9.9 L 10.6 9.9 C 10.6 9.9 10.65 10.75 10.6 10.7 C 11.1 10.1 11.8 9.7 12.6 9.7 C 13 9.7 13.3 9.8 13.7 9.9 C 14 10.1 14.2 10.2 14.4 10.5 C 14.5 10.7 14.6 10.9 14.7 11.2 C 14.7 11.4 14.8 11.8 14.8 12.3 C 14.76 12.26 14.8 16.1 14.8 16.1 L 13.7 16.1 C 13.7 16.1 13.7 12.3 13.7 12.3 C 13.7 11.9 13.7 11.6 13.6 11.3 C 13.5 11.1 13.4 11 13.1 10.8 C 12.9 10.7 12.7 10.6 12.4 10.6 C 12 10.6 11.6 10.8 11.2 11.1 C 10.9 11.4 10.8 11.9 10.8 12.7 C 10.75 12.69 10.8 16.1 10.8 16.1 L 9.7 16.1 Z M 16 13 C 16 11.8 16.3 11 16.9 10.4 C 17.5 10 18.1 9.7 18.9 9.7 C 19.8 9.7 20.5 10 21 10.6 C 21.5 11.1 21.8 11.9 21.8 12.9 C 21.8 13.7 21.7 14.3 21.5 14.8 C 21.2 15.2 20.9 15.6 20.4 15.8 C 19.9 16.1 19.4 16.2 18.9 16.2 C 18 16.2 17.3 15.9 16.8 15.4 C 16.2 14.8 16 14 16 13 Z M 17.1 13 C 17.1 13.8 17.2 14.4 17.6 14.8 C 17.9 15.2 18.4 15.4 18.9 15.4 C 19.4 15.4 19.9 15.2 20.2 14.8 C 20.6 14.4 20.7 13.8 20.7 12.9 C 20.7 12.2 20.6 11.6 20.2 11.2 C 19.9 10.8 19.4 10.6 18.9 10.6 C 18.4 10.6 17.9 10.8 17.6 11.2 C 17.2 11.6 17.1 12.2 17.1 13 Z M 24.2 16.1 L 22.3 9.9 L 23.4 9.9 L 24.4 13.5 C 24.4 13.5 24.74 14.79 24.7 14.8 C 24.8 14.7 24.9 14.3 25.1 13.5 C 25.06 13.51 26.1 9.9 26.1 9.9 L 27.1 9.9 L 28.1 13.5 L 28.4 14.7 L 28.7 13.5 L 29.8 9.9 L 30.8 9.9 L 28.9 16.1 L 27.8 16.1 L 26.8 12.4 L 26.6 11.3 L 25.3 16.1 L 24.2 16.1 Z M 31.7 16.1 L 31.7 7.5 L 32.7 7.5 L 32.7 16.1 L 31.7 16.1 Z M 38.6 14.1 C 38.6 14.1 39.7 14.2 39.7 14.2 C 39.6 14.9 39.2 15.3 38.8 15.7 C 38.3 16.1 37.7 16.2 37 16.2 C 36.1 16.2 35.4 15.9 34.8 15.4 C 34.3 14.8 34 14 34 13 C 34 12 34.3 11.2 34.8 10.6 C 35.4 10 36.1 9.7 36.9 9.7 C 37.8 9.7 38.4 10 39 10.6 C 39.5 11.1 39.8 11.9 39.8 13 C 39.8 13 39.8 13.1 39.8 13.2 C 39.8 13.2 35.1 13.2 35.1 13.2 C 35.2 13.9 35.4 14.5 35.7 14.8 C 36 15.2 36.5 15.4 37 15.4 C 37.4 15.4 37.7 15.3 38 15.1 C 38.3 14.9 38.5 14.5 38.6 14.1 Z M 35.2 12.4 C 35.2 12.4 38.7 12.4 38.7 12.4 C 38.6 11.9 38.5 11.5 38.3 11.2 C 37.9 10.8 37.5 10.6 36.9 10.6 C 36.5 10.6 36.1 10.8 35.7 11.1 C 35.4 11.4 35.2 11.8 35.2 12.4 Z M 45.1 16.1 C 45.1 16.1 45.09 15.3 45.1 15.3 C 44.7 15.9 44.1 16.2 43.4 16.2 C 42.9 16.2 42.4 16.1 42 15.8 C 41.6 15.5 41.2 15.2 41 14.7 C 40.8 14.2 40.7 13.6 40.7 13 C 40.7 12.4 40.8 11.8 41 11.3 C 41.2 10.8 41.5 10.4 41.9 10.1 C 42.3 9.9 42.8 9.7 43.3 9.7 C 43.7 9.7 44 9.8 44.3 10 C 44.6 10.1 44.8 10.3 45 10.6 C 45.02 10.58 45 7.5 45 7.5 L 46.1 7.5 L 46.1 16.1 L 45.1 16.1 Z M 41.8 13 C 41.8 13.8 41.9 14.4 42.3 14.8 C 42.6 15.2 43 15.4 43.5 15.4 C 43.9 15.4 44.3 15.2 44.6 14.8 C 44.9 14.4 45.1 13.8 45.1 13.1 C 45.1 12.2 44.9 11.6 44.6 11.2 C 44.3 10.8 43.9 10.6 43.4 10.6 C 42.9 10.6 42.5 10.8 42.2 11.2 C 41.9 11.6 41.8 12.2 41.8 13 Z M 47.5 16.6 C 47.5 16.6 48.6 16.8 48.6 16.8 C 48.6 17.1 48.7 17.3 48.9 17.4 C 49.2 17.6 49.5 17.7 50 17.7 C 50.5 17.7 50.9 17.6 51.1 17.4 C 51.4 17.3 51.6 17 51.7 16.6 C 51.7 16.4 51.7 16 51.7 15.3 C 51.3 15.8 50.7 16.1 50 16.1 C 49.2 16.1 48.5 15.8 48 15.2 C 47.6 14.5 47.3 13.8 47.3 12.9 C 47.3 12.3 47.4 11.8 47.6 11.3 C 47.9 10.8 48.2 10.4 48.6 10.1 C 49 9.9 49.5 9.7 50 9.7 C 50.8 9.7 51.4 10 51.8 10.6 C 51.83 10.61 51.8 9.9 51.8 9.9 L 52.8 9.9 C 52.8 9.9 52.81 15.24 52.8 15.2 C 52.8 16.2 52.7 16.9 52.5 17.3 C 52.3 17.7 52 18 51.6 18.3 C 51.1 18.5 50.6 18.6 50 18.6 C 49.3 18.6 48.7 18.4 48.2 18.1 C 47.7 17.8 47.5 17.3 47.5 16.6 Z M 48.4 12.9 C 48.4 13.7 48.6 14.3 48.9 14.7 C 49.2 15 49.6 15.2 50.1 15.2 C 50.6 15.2 51 15 51.3 14.7 C 51.7 14.3 51.8 13.7 51.8 12.9 C 51.8 12.1 51.7 11.6 51.3 11.2 C 51 10.8 50.6 10.6 50.1 10.6 C 49.6 10.6 49.2 10.8 48.9 11.2 C 48.6 11.5 48.4 12.1 48.4 12.9 Z M 58.7 14.1 C 58.7 14.1 59.8 14.2 59.8 14.2 C 59.6 14.9 59.3 15.3 58.8 15.7 C 58.3 16.1 57.7 16.2 57 16.2 C 56.1 16.2 55.4 15.9 54.8 15.4 C 54.3 14.8 54 14 54 13 C 54 12 54.3 11.2 54.9 10.6 C 55.4 10 56.1 9.7 57 9.7 C 57.8 9.7 58.5 10 59 10.6 C 59.5 11.1 59.8 11.9 59.8 13 C 59.8 13 59.8 13.1 59.8 13.2 C 59.8 13.2 55.1 13.2 55.1 13.2 C 55.2 13.9 55.4 14.5 55.7 14.8 C 56.1 15.2 56.5 15.4 57 15.4 C 57.4 15.4 57.7 15.3 58 15.1 C 58.3 14.9 58.5 14.5 58.7 14.1 Z M 55.2 12.4 C 55.2 12.4 58.7 12.4 58.7 12.4 C 58.6 11.9 58.5 11.5 58.3 11.2 C 57.9 10.8 57.5 10.6 57 10.6 C 56.5 10.6 56.1 10.8 55.7 11.1 C 55.4 11.4 55.2 11.8 55.2 12.4 Z " stroke="none" fill="#000"/>  </g></svg>