<?xml version="1.0" standalone="no"?><!DOCTYPE svg PUBLIC "-//W3C//DTD SVG 1.1//EN" "http://www.w3.org/Graphics/SVG/1.1/DTD/svg11.dtd"><svg xmlns="http://www.w3.org/2000/svg" version="1.1" width="452px" height="161.1px" viewBox="0 -10 452 161.1" style="top:-10px">  <desc>Managed Services Training Design and Delivery Learning Specialist Talent</desc>  <defs/>  <g id="Polygon17590">    <path d="M 37.8 92 L 37.8 74.8 L 40 74.8 L 40 90 L 48.5 90 L 48.5 92 L 37.8 92 Z M 59.4 88 C 59.4 88 61.6 88.3 61.6 88.3 C 61.3 89.5 60.6 90.5 59.7 91.2 C 58.8 91.9 57.6 92.3 56.2 92.3 C 54.3 92.3 52.9 91.7 51.8 90.6 C 50.8 89.5 50.2 87.9 50.2 85.9 C 50.2 83.8 50.8 82.2 51.8 81 C 52.9 79.9 54.3 79.3 56 79.3 C 57.7 79.3 59.1 79.8 60.1 81 C 61.2 82.1 61.7 83.7 61.7 85.8 C 61.7 85.9 61.7 86.1 61.7 86.3 C 61.7 86.3 52.4 86.3 52.4 86.3 C 52.5 87.7 52.9 88.7 53.6 89.5 C 54.3 90.2 55.1 90.5 56.2 90.5 C 56.9 90.5 57.6 90.3 58.1 89.9 C 58.7 89.5 59.1 88.9 59.4 88 Z M 52.5 84.6 C 52.5 84.6 59.5 84.6 59.5 84.6 C 59.4 83.5 59.1 82.8 58.7 82.2 C 58 81.4 57.1 81 56.1 81 C 55.1 81 54.3 81.3 53.6 82 C 53 82.6 52.6 83.5 52.5 84.6 Z M 72.8 92 C 72.6 91.6 72.5 91.1 72.4 90.5 C 71.6 91.1 70.9 91.6 70.1 91.9 C 69.4 92.1 68.6 92.3 67.8 92.3 C 66.4 92.3 65.4 91.9 64.7 91.3 C 63.9 90.6 63.6 89.8 63.6 88.7 C 63.6 88.1 63.7 87.6 64 87 C 64.3 86.5 64.6 86.1 65.1 85.8 C 65.5 85.5 66 85.3 66.6 85.1 C 67 85 67.6 84.9 68.5 84.8 C 70.2 84.6 71.4 84.4 72.2 84.1 C 72.2 83.8 72.2 83.6 72.2 83.6 C 72.2 82.7 72 82.1 71.6 81.7 C 71.1 81.3 70.3 81 69.2 81 C 68.2 81 67.5 81.2 67 81.5 C 66.6 81.9 66.2 82.5 66 83.4 C 66 83.4 63.9 83.1 63.9 83.1 C 64.1 82.2 64.4 81.5 64.9 81 C 65.3 80.4 65.9 80 66.7 79.7 C 67.5 79.4 68.5 79.3 69.5 79.3 C 70.6 79.3 71.5 79.4 72.1 79.6 C 72.8 79.9 73.3 80.2 73.6 80.6 C 73.9 81 74.1 81.4 74.3 82 C 74.3 82.4 74.4 83 74.4 84 C 74.4 84 74.4 86.8 74.4 86.8 C 74.4 88.7 74.4 90 74.5 90.5 C 74.6 91 74.8 91.5 75 92 C 75.02 92 72.8 92 72.8 92 C 72.8 92 72.82 92 72.8 92 Z M 72.2 85.8 C 71.5 86.1 70.3 86.3 68.8 86.6 C 67.9 86.7 67.3 86.8 66.9 87 C 66.6 87.1 66.3 87.4 66.1 87.7 C 65.9 88 65.8 88.3 65.8 88.7 C 65.8 89.2 66 89.7 66.5 90.1 C 66.9 90.4 67.5 90.6 68.3 90.6 C 69.1 90.6 69.9 90.5 70.5 90.1 C 71.1 89.7 71.6 89.3 71.9 88.6 C 72.1 88.2 72.2 87.5 72.2 86.5 C 72.2 86.5 72.2 85.8 72.2 85.8 Z M 77.6 92 L 77.6 79.6 L 79.5 79.6 C 79.5 79.6 79.5 81.44 79.5 81.4 C 80 80.6 80.4 80 80.8 79.7 C 81.3 79.4 81.7 79.3 82.2 79.3 C 82.9 79.3 83.6 79.5 84.4 80 C 84.4 80 83.6 81.9 83.6 81.9 C 83.1 81.6 82.6 81.5 82.1 81.5 C 81.6 81.5 81.2 81.6 80.8 81.9 C 80.5 82.1 80.2 82.5 80.1 83 C 79.8 83.8 79.7 84.6 79.7 85.5 C 79.71 85.48 79.7 92 79.7 92 L 77.6 92 Z M 85.6 92 L 85.6 79.6 L 87.5 79.6 C 87.5 79.6 87.52 81.32 87.5 81.3 C 88.4 80 89.7 79.3 91.5 79.3 C 92.2 79.3 92.9 79.4 93.5 79.7 C 94.2 79.9 94.6 80.3 95 80.7 C 95.3 81.2 95.5 81.7 95.6 82.3 C 95.7 82.7 95.7 83.4 95.7 84.3 C 95.73 84.35 95.7 92 95.7 92 L 93.6 92 C 93.6 92 93.62 84.43 93.6 84.4 C 93.6 83.6 93.5 82.9 93.4 82.5 C 93.2 82.1 92.9 81.7 92.5 81.5 C 92.1 81.2 91.6 81.1 91 81.1 C 90.1 81.1 89.4 81.4 88.7 82 C 88.1 82.5 87.7 83.6 87.7 85.2 C 87.73 85.2 87.7 92 87.7 92 L 85.6 92 Z M 99 77.2 L 99 74.8 L 101.1 74.8 L 101.1 77.2 L 99 77.2 Z M 99 92 L 99 79.6 L 101.1 79.6 L 101.1 92 L 99 92 Z M 104.3 92 L 104.3 79.6 L 106.2 79.6 C 106.2 79.6 106.2 81.32 106.2 81.3 C 107.1 80 108.4 79.3 110.2 79.3 C 110.9 79.3 111.6 79.4 112.2 79.7 C 112.9 79.9 113.3 80.3 113.6 80.7 C 113.9 81.2 114.2 81.7 114.3 82.3 C 114.4 82.7 114.4 83.4 114.4 84.3 C 114.41 84.35 114.4 92 114.4 92 L 112.3 92 C 112.3 92 112.3 84.43 112.3 84.4 C 112.3 83.6 112.2 82.9 112.1 82.5 C 111.9 82.1 111.6 81.7 111.2 81.5 C 110.8 81.2 110.3 81.1 109.7 81.1 C 108.8 81.1 108 81.4 107.4 82 C 106.7 82.5 106.4 83.6 106.4 85.2 C 106.41 85.2 106.4 92 106.4 92 L 104.3 92 Z M 117.3 93 C 117.3 93 119.3 93.3 119.3 93.3 C 119.4 94 119.6 94.4 120 94.7 C 120.5 95.1 121.3 95.3 122.2 95.3 C 123.1 95.3 123.9 95.1 124.4 94.7 C 125 94.3 125.3 93.8 125.5 93.1 C 125.6 92.6 125.7 91.7 125.7 90.4 C 124.7 91.5 123.6 92 122.2 92 C 120.5 92 119.2 91.4 118.2 90.1 C 117.3 88.9 116.8 87.4 116.8 85.7 C 116.8 84.5 117.1 83.4 117.5 82.4 C 117.9 81.4 118.5 80.6 119.3 80.1 C 120.2 79.5 121.1 79.3 122.2 79.3 C 123.7 79.3 124.9 79.9 125.9 81.1 C 125.86 81.05 125.9 79.6 125.9 79.6 L 127.8 79.6 C 127.8 79.6 127.8 90.31 127.8 90.3 C 127.8 92.2 127.6 93.6 127.2 94.4 C 126.8 95.2 126.2 95.9 125.3 96.3 C 124.5 96.8 123.4 97.1 122.2 97.1 C 120.7 97.1 119.5 96.7 118.6 96 C 117.7 95.4 117.2 94.4 117.3 93 Z M 119 85.6 C 119 87.2 119.3 88.4 120 89.1 C 120.6 89.9 121.4 90.3 122.4 90.3 C 123.4 90.3 124.2 89.9 124.9 89.1 C 125.5 88.4 125.8 87.2 125.8 85.6 C 125.8 84.1 125.5 83 124.8 82.2 C 124.1 81.4 123.3 81 122.4 81 C 121.4 81 120.6 81.4 120 82.2 C 119.3 82.9 119 84.1 119 85.6 Z M 137.2 86.5 C 137.2 86.5 139.3 86.3 139.3 86.3 C 139.4 87.2 139.6 87.9 140 88.4 C 140.4 89 141 89.4 141.7 89.7 C 142.5 90.1 143.4 90.3 144.4 90.3 C 145.2 90.3 146 90.1 146.7 89.9 C 147.3 89.6 147.8 89.3 148.2 88.8 C 148.5 88.4 148.6 87.9 148.6 87.3 C 148.6 86.8 148.5 86.3 148.2 85.9 C 147.9 85.5 147.3 85.2 146.6 84.9 C 146.2 84.7 145.1 84.5 143.6 84.1 C 142 83.7 140.9 83.3 140.3 83 C 139.4 82.6 138.8 82 138.4 81.4 C 138 80.8 137.8 80.1 137.8 79.3 C 137.8 78.4 138.1 77.6 138.6 76.8 C 139 76.1 139.8 75.5 140.7 75.1 C 141.7 74.7 142.7 74.5 143.9 74.5 C 145.1 74.5 146.3 74.7 147.2 75.1 C 148.2 75.6 148.9 76.2 149.5 77 C 150 77.8 150.3 78.7 150.3 79.7 C 150.3 79.7 148.1 79.8 148.1 79.8 C 148 78.7 147.6 77.9 146.9 77.4 C 146.3 76.8 145.3 76.5 144 76.5 C 142.6 76.5 141.6 76.8 140.9 77.3 C 140.3 77.8 140 78.4 140 79.1 C 140 79.7 140.2 80.2 140.7 80.6 C 141.1 81 142.3 81.4 144.1 81.9 C 145.9 82.3 147.2 82.6 147.9 83 C 148.9 83.4 149.6 84 150.1 84.7 C 150.6 85.4 150.8 86.2 150.8 87.1 C 150.8 88.1 150.6 88.9 150 89.7 C 149.5 90.5 148.8 91.2 147.8 91.6 C 146.8 92.1 145.7 92.3 144.5 92.3 C 142.9 92.3 141.6 92.1 140.6 91.6 C 139.5 91.2 138.7 90.5 138.1 89.6 C 137.5 88.7 137.2 87.6 137.2 86.5 Z M 153.7 96.8 L 153.7 79.6 L 155.6 79.6 C 155.6 79.6 155.59 81.17 155.6 81.2 C 156 80.5 156.6 80.1 157.1 79.7 C 157.7 79.4 158.4 79.3 159.2 79.3 C 160.3 79.3 161.2 79.5 162 80.1 C 162.8 80.6 163.4 81.4 163.9 82.4 C 164.3 83.4 164.5 84.5 164.5 85.7 C 164.5 87 164.2 88.1 163.8 89.1 C 163.3 90.1 162.7 90.9 161.8 91.5 C 160.9 92 160 92.3 159 92.3 C 158.3 92.3 157.7 92.1 157.2 91.8 C 156.6 91.5 156.1 91.2 155.8 90.7 C 155.78 90.71 155.8 96.8 155.8 96.8 L 153.7 96.8 Z M 155.6 85.8 C 155.6 87.4 155.9 88.6 156.6 89.4 C 157.2 90.2 158 90.5 158.9 90.5 C 159.8 90.5 160.6 90.2 161.3 89.4 C 162 88.6 162.3 87.3 162.3 85.7 C 162.3 84.1 162 82.9 161.3 82.1 C 160.7 81.3 159.9 80.9 159 80.9 C 158.1 80.9 157.3 81.3 156.6 82.2 C 155.9 83 155.6 84.2 155.6 85.8 Z M 175.5 88 C 175.5 88 177.7 88.3 177.7 88.3 C 177.4 89.5 176.7 90.5 175.8 91.2 C 174.9 91.9 173.7 92.3 172.2 92.3 C 170.4 92.3 169 91.7 167.9 90.6 C 166.8 89.5 166.3 87.9 166.3 85.9 C 166.3 83.8 166.9 82.2 167.9 81 C 169 79.9 170.4 79.3 172.1 79.3 C 173.8 79.3 175.1 79.8 176.2 81 C 177.3 82.1 177.8 83.7 177.8 85.8 C 177.8 85.9 177.8 86.1 177.8 86.3 C 177.8 86.3 168.5 86.3 168.5 86.3 C 168.6 87.7 169 88.7 169.7 89.5 C 170.3 90.2 171.2 90.5 172.3 90.5 C 173 90.5 173.7 90.3 174.2 89.9 C 174.8 89.5 175.2 88.9 175.5 88 Z M 168.6 84.6 C 168.6 84.6 175.6 84.6 175.6 84.6 C 175.5 83.5 175.2 82.8 174.8 82.2 C 174.1 81.4 173.2 81 172.1 81 C 171.2 81 170.4 81.3 169.7 82 C 169 82.6 168.7 83.5 168.6 84.6 Z M 188.5 87.4 C 188.5 87.4 190.6 87.7 190.6 87.7 C 190.3 89.1 189.8 90.3 188.8 91.1 C 187.9 91.9 186.7 92.3 185.4 92.3 C 183.7 92.3 182.3 91.7 181.3 90.6 C 180.2 89.5 179.7 87.9 179.7 85.8 C 179.7 84.5 179.9 83.3 180.4 82.3 C 180.8 81.3 181.5 80.5 182.4 80 C 183.3 79.5 184.3 79.3 185.4 79.3 C 186.7 79.3 187.8 79.6 188.7 80.3 C 189.6 81 190.1 82 190.4 83.2 C 190.4 83.2 188.3 83.5 188.3 83.5 C 188.1 82.7 187.8 82.1 187.3 81.6 C 186.8 81.2 186.2 81 185.5 81 C 184.4 81 183.5 81.4 182.9 82.2 C 182.2 82.9 181.9 84.1 181.9 85.8 C 181.9 87.4 182.2 88.7 182.8 89.4 C 183.5 90.2 184.3 90.5 185.4 90.5 C 186.2 90.5 186.9 90.3 187.4 89.8 C 188 89.3 188.3 88.5 188.5 87.4 Z M 192.4 77.2 L 192.4 74.8 L 194.5 74.8 L 194.5 77.2 L 192.4 77.2 Z M 192.4 92 L 192.4 79.6 L 194.5 79.6 L 194.5 92 L 192.4 92 Z M 206.2 92 C 206 91.6 205.9 91.1 205.8 90.5 C 205 91.1 204.3 91.6 203.6 91.9 C 202.8 92.1 202.1 92.3 201.2 92.3 C 199.9 92.3 198.8 91.9 198.1 91.3 C 197.3 90.6 197 89.8 197 88.7 C 197 88.1 197.1 87.6 197.4 87 C 197.7 86.5 198 86.1 198.5 85.8 C 198.9 85.5 199.4 85.3 200 85.1 C 200.4 85 201 84.9 201.9 84.8 C 203.6 84.6 204.8 84.4 205.6 84.1 C 205.6 83.8 205.7 83.6 205.7 83.6 C 205.7 82.7 205.5 82.1 205.1 81.7 C 204.5 81.3 203.7 81 202.7 81 C 201.7 81 200.9 81.2 200.5 81.5 C 200 81.9 199.6 82.5 199.4 83.4 C 199.4 83.4 197.3 83.1 197.3 83.1 C 197.5 82.2 197.8 81.5 198.3 81 C 198.7 80.4 199.3 80 200.1 79.7 C 200.9 79.4 201.9 79.3 203 79.3 C 204 79.3 204.9 79.4 205.5 79.6 C 206.2 79.9 206.7 80.2 207 80.6 C 207.3 81 207.5 81.4 207.7 82 C 207.7 82.4 207.8 83 207.8 84 C 207.8 84 207.8 86.8 207.8 86.8 C 207.8 88.7 207.8 90 207.9 90.5 C 208 91 208.2 91.5 208.4 92 C 208.44 92 206.2 92 206.2 92 C 206.2 92 206.24 92 206.2 92 Z M 205.6 85.8 C 204.9 86.1 203.7 86.3 202.2 86.6 C 201.3 86.7 200.7 86.8 200.4 87 C 200 87.1 199.7 87.4 199.5 87.7 C 199.3 88 199.2 88.3 199.2 88.7 C 199.2 89.2 199.4 89.7 199.9 90.1 C 200.3 90.4 200.9 90.6 201.7 90.6 C 202.6 90.6 203.3 90.5 203.9 90.1 C 204.5 89.7 205 89.3 205.3 88.6 C 205.5 88.2 205.6 87.5 205.6 86.5 C 205.6 86.5 205.6 85.8 205.6 85.8 Z M 211 92 L 211 74.8 L 213.1 74.8 L 213.1 92 L 211 92 Z M 216.4 77.2 L 216.4 74.8 L 218.5 74.8 L 218.5 77.2 L 216.4 77.2 Z M 216.4 92 L 216.4 79.6 L 218.5 79.6 L 218.5 92 L 216.4 92 Z M 220.9 88.3 C 220.9 88.3 222.9 88 222.9 88 C 223.1 88.8 223.4 89.4 223.9 89.9 C 224.5 90.3 225.2 90.5 226.2 90.5 C 227.1 90.5 227.9 90.3 228.3 90 C 228.8 89.6 229 89.1 229 88.6 C 229 88.1 228.8 87.7 228.4 87.4 C 228.1 87.3 227.4 87 226.3 86.7 C 224.7 86.3 223.6 86 223 85.7 C 222.4 85.4 222 85 221.7 84.5 C 221.4 84 221.2 83.5 221.2 82.9 C 221.2 82.3 221.3 81.8 221.6 81.3 C 221.8 80.8 222.2 80.5 222.6 80.1 C 223 79.9 223.4 79.7 224 79.5 C 224.5 79.4 225.1 79.3 225.8 79.3 C 226.8 79.3 227.6 79.4 228.4 79.7 C 229.1 80 229.7 80.4 230 80.8 C 230.4 81.3 230.6 82 230.7 82.8 C 230.7 82.8 228.7 83 228.7 83 C 228.6 82.4 228.3 81.9 227.9 81.5 C 227.4 81.2 226.8 81 225.9 81 C 225 81 224.3 81.2 223.9 81.5 C 223.5 81.8 223.3 82.2 223.3 82.6 C 223.3 82.9 223.3 83.1 223.5 83.4 C 223.7 83.6 224 83.8 224.3 83.9 C 224.5 84 225.2 84.2 226.2 84.5 C 227.7 84.9 228.7 85.2 229.3 85.4 C 229.9 85.7 230.4 86.1 230.7 86.5 C 231 87 231.2 87.6 231.2 88.3 C 231.2 89 231 89.7 230.6 90.3 C 230.2 91 229.6 91.4 228.8 91.8 C 228 92.1 227.2 92.3 226.2 92.3 C 224.6 92.3 223.3 91.9 222.5 91.3 C 221.6 90.6 221.1 89.6 220.9 88.3 Z M 237.4 90.2 C 237.6 90.2 237.9 90.2 238.3 90.1 C 238.3 90.1 238.6 92 238.6 92 C 238 92.1 237.5 92.2 237 92.2 C 236.3 92.2 235.7 92 235.2 91.8 C 234.8 91.6 234.5 91.2 234.4 90.8 C 234.2 90.5 234.1 89.6 234.1 88.4 C 234.09 88.36 234.1 81.2 234.1 81.2 L 232.5 81.2 L 232.5 79.6 L 234.1 79.6 L 234.1 76.5 L 236.2 75.2 L 236.2 79.6 L 238.3 79.6 L 238.3 81.2 L 236.2 81.2 C 236.2 81.2 236.19 88.47 236.2 88.5 C 236.2 89.1 236.2 89.5 236.3 89.6 C 236.4 89.8 236.5 89.9 236.7 90 C 236.8 90.1 237.1 90.2 237.4 90.2 C 237.4 90.2 237.4 90.2 237.4 90.2 Z M 251.3 92 L 251.3 76.8 L 245.6 76.8 L 245.6 74.8 L 259.2 74.8 L 259.2 76.8 L 253.5 76.8 L 253.5 92 L 251.3 92 Z M 267.2 92 C 266.9 91.6 266.8 91.1 266.7 90.5 C 265.9 91.1 265.2 91.6 264.5 91.9 C 263.8 92.1 263 92.3 262.1 92.3 C 260.8 92.3 259.7 91.9 259 91.3 C 258.3 90.6 257.9 89.8 257.9 88.7 C 257.9 88.1 258 87.6 258.3 87 C 258.6 86.5 259 86.1 259.4 85.8 C 259.8 85.5 260.4 85.3 260.9 85.1 C 261.3 85 262 84.9 262.8 84.8 C 264.5 84.6 265.7 84.4 266.6 84.1 C 266.6 83.8 266.6 83.6 266.6 83.6 C 266.6 82.7 266.4 82.1 266 81.7 C 265.4 81.3 264.6 81 263.6 81 C 262.6 81 261.8 81.2 261.4 81.5 C 260.9 81.9 260.5 82.5 260.3 83.4 C 260.3 83.4 258.3 83.1 258.3 83.1 C 258.4 82.2 258.8 81.5 259.2 81 C 259.6 80.4 260.2 80 261 79.7 C 261.9 79.4 262.8 79.3 263.9 79.3 C 264.9 79.3 265.8 79.4 266.5 79.6 C 267.1 79.9 267.6 80.2 267.9 80.6 C 268.2 81 268.5 81.4 268.6 82 C 268.7 82.4 268.7 83 268.7 84 C 268.7 84 268.7 86.8 268.7 86.8 C 268.7 88.7 268.7 90 268.8 90.5 C 268.9 91 269.1 91.5 269.4 92 C 269.36 92 267.2 92 267.2 92 C 267.2 92 267.15 92 267.2 92 Z M 266.6 85.8 C 265.8 86.1 264.6 86.3 263.1 86.6 C 262.2 86.7 261.6 86.8 261.3 87 C 260.9 87.1 260.6 87.4 260.4 87.7 C 260.2 88 260.1 88.3 260.1 88.7 C 260.1 89.2 260.4 89.7 260.8 90.1 C 261.2 90.4 261.8 90.6 262.7 90.6 C 263.5 90.6 264.2 90.5 264.8 90.1 C 265.5 89.7 265.9 89.3 266.2 88.6 C 266.4 88.2 266.6 87.5 266.6 86.5 C 266.6 86.5 266.6 85.8 266.6 85.8 Z M 271.9 92 L 271.9 74.8 L 274 74.8 L 274 92 L 271.9 92 Z M 285.8 88 C 285.8 88 288 88.3 288 88.3 C 287.6 89.5 287 90.5 286.1 91.2 C 285.1 91.9 284 92.3 282.5 92.3 C 280.7 92.3 279.3 91.7 278.2 90.6 C 277.1 89.5 276.6 87.9 276.6 85.9 C 276.6 83.8 277.1 82.2 278.2 81 C 279.3 79.9 280.7 79.3 282.4 79.3 C 284.1 79.3 285.4 79.8 286.5 81 C 287.5 82.1 288.1 83.7 288.1 85.8 C 288.1 85.9 288.1 86.1 288 86.3 C 288 86.3 278.8 86.3 278.8 86.3 C 278.8 87.7 279.2 88.7 279.9 89.5 C 280.6 90.2 281.5 90.5 282.5 90.5 C 283.3 90.5 284 90.3 284.5 89.9 C 285.1 89.5 285.5 88.9 285.8 88 Z M 278.9 84.6 C 278.9 84.6 285.8 84.6 285.8 84.6 C 285.7 83.5 285.5 82.8 285 82.2 C 284.4 81.4 283.5 81 282.4 81 C 281.5 81 280.6 81.3 280 82 C 279.3 82.6 279 83.5 278.9 84.6 Z M 290.6 92 L 290.6 79.6 L 292.5 79.6 C 292.5 79.6 292.54 81.32 292.5 81.3 C 293.4 80 294.8 79.3 296.5 79.3 C 297.2 79.3 297.9 79.4 298.6 79.7 C 299.2 79.9 299.7 80.3 300 80.7 C 300.3 81.2 300.5 81.7 300.6 82.3 C 300.7 82.7 300.8 83.4 300.8 84.3 C 300.75 84.35 300.8 92 300.8 92 L 298.6 92 C 298.6 92 298.64 84.43 298.6 84.4 C 298.6 83.6 298.6 82.9 298.4 82.5 C 298.2 82.1 297.9 81.7 297.5 81.5 C 297.1 81.2 296.6 81.1 296.1 81.1 C 295.2 81.1 294.4 81.4 293.7 82 C 293.1 82.5 292.7 83.6 292.7 85.2 C 292.75 85.2 292.7 92 292.7 92 L 290.6 92 Z M 307.7 90.2 C 307.9 90.2 308.2 90.2 308.6 90.1 C 308.6 90.1 308.9 92 308.9 92 C 308.3 92.1 307.8 92.2 307.3 92.2 C 306.5 92.2 305.9 92 305.5 91.8 C 305.1 91.6 304.8 91.2 304.6 90.8 C 304.5 90.5 304.4 89.6 304.4 88.4 C 304.37 88.36 304.4 81.2 304.4 81.2 L 302.8 81.2 L 302.8 79.6 L 304.4 79.6 L 304.4 76.5 L 306.5 75.2 L 306.5 79.6 L 308.6 79.6 L 308.6 81.2 L 306.5 81.2 C 306.5 81.2 306.47 88.47 306.5 88.5 C 306.5 89.1 306.5 89.5 306.6 89.6 C 306.7 89.8 306.8 89.9 306.9 90 C 307.1 90.1 307.4 90.2 307.7 90.2 C 307.7 90.2 307.7 90.2 307.7 90.2 Z " stroke="none" fill="#000"/>  </g>  <g id="Polygon17589">    <path d="M 1.6 84.2 C 1.6 83.7 1.7 83.2 1.9 82.7 C 2.1 82.2 2.4 81.8 2.8 81.5 C 3.1 81.1 3.5 80.8 4 80.6 C 4.5 80.4 5 80.3 5.5 80.3 C 6 80.3 6.5 80.4 7 80.6 C 7.5 80.8 7.9 81.1 8.3 81.5 C 8.6 81.8 8.9 82.2 9.1 82.7 C 9.3 83.2 9.4 83.7 9.4 84.2 C 9.4 84.8 9.3 85.3 9.1 85.7 C 8.9 86.2 8.6 86.6 8.3 87 C 7.9 87.3 7.5 87.6 7 87.8 C 6.5 88 6 88.1 5.5 88.1 C 5 88.1 4.5 88 4 87.8 C 3.5 87.6 3.1 87.3 2.8 87 C 2.4 86.6 2.1 86.2 1.9 85.7 C 1.7 85.3 1.6 84.8 1.6 84.2 Z " stroke="none" fill="#f28620"/>  </g>  <g id="Polygon17588">    <path d="M 42.2 57 L 42.2 41.8 L 36.6 41.8 L 36.6 39.8 L 50.2 39.8 L 50.2 41.8 L 44.5 41.8 L 44.5 57 L 42.2 57 Z M 51.3 57 L 51.3 44.6 L 53.2 44.6 C 53.2 44.6 53.23 46.44 53.2 46.4 C 53.7 45.6 54.2 45 54.6 44.7 C 55 44.4 55.4 44.3 55.9 44.3 C 56.6 44.3 57.4 44.5 58.1 45 C 58.1 45 57.4 46.9 57.4 46.9 C 56.8 46.6 56.3 46.5 55.8 46.5 C 55.4 46.5 54.9 46.6 54.6 46.9 C 54.2 47.1 53.9 47.5 53.8 48 C 53.6 48.8 53.4 49.6 53.4 50.5 C 53.44 50.48 53.4 57 53.4 57 L 51.3 57 Z M 67.9 57 C 67.7 56.6 67.5 56.1 67.5 55.5 C 66.7 56.1 65.9 56.6 65.2 56.9 C 64.5 57.1 63.7 57.3 62.9 57.3 C 61.5 57.3 60.5 56.9 59.7 56.3 C 59 55.6 58.6 54.8 58.6 53.7 C 58.6 53.1 58.8 52.6 59 52 C 59.3 51.5 59.7 51.1 60.1 50.8 C 60.6 50.5 61.1 50.3 61.7 50.1 C 62.1 50 62.7 49.9 63.5 49.8 C 65.2 49.6 66.5 49.4 67.3 49.1 C 67.3 48.8 67.3 48.6 67.3 48.6 C 67.3 47.7 67.1 47.1 66.7 46.7 C 66.2 46.3 65.4 46 64.3 46 C 63.3 46 62.6 46.2 62.1 46.5 C 61.6 46.9 61.3 47.5 61.1 48.4 C 61.1 48.4 59 48.1 59 48.1 C 59.2 47.2 59.5 46.5 59.9 46 C 60.3 45.4 61 45 61.8 44.7 C 62.6 44.4 63.5 44.3 64.6 44.3 C 65.7 44.3 66.5 44.4 67.2 44.6 C 67.9 44.9 68.3 45.2 68.7 45.6 C 69 46 69.2 46.4 69.3 47 C 69.4 47.4 69.4 48 69.4 49 C 69.4 49 69.4 51.8 69.4 51.8 C 69.4 53.7 69.5 55 69.6 55.5 C 69.6 56 69.8 56.5 70.1 57 C 70.09 57 67.9 57 67.9 57 C 67.9 57 67.89 57 67.9 57 Z M 67.3 50.8 C 66.5 51.1 65.4 51.3 63.8 51.6 C 63 51.7 62.4 51.8 62 52 C 61.6 52.1 61.4 52.4 61.2 52.7 C 61 53 60.9 53.3 60.9 53.7 C 60.9 54.2 61.1 54.7 61.5 55.1 C 61.9 55.4 62.6 55.6 63.4 55.6 C 64.2 55.6 64.9 55.5 65.6 55.1 C 66.2 54.7 66.7 54.3 66.9 53.6 C 67.2 53.2 67.3 52.5 67.3 51.5 C 67.3 51.5 67.3 50.8 67.3 50.8 Z M 72.7 42.2 L 72.7 39.8 L 74.8 39.8 L 74.8 42.2 L 72.7 42.2 Z M 72.7 57 L 72.7 44.6 L 74.8 44.6 L 74.8 57 L 72.7 57 Z M 78 57 L 78 44.6 L 79.9 44.6 C 79.9 44.6 79.92 46.32 79.9 46.3 C 80.8 45 82.2 44.3 83.9 44.3 C 84.6 44.3 85.3 44.4 86 44.7 C 86.6 44.9 87.1 45.3 87.4 45.7 C 87.7 46.2 87.9 46.7 88 47.3 C 88.1 47.7 88.1 48.4 88.1 49.3 C 88.14 49.35 88.1 57 88.1 57 L 86 57 C 86 57 86.03 49.43 86 49.4 C 86 48.6 85.9 47.9 85.8 47.5 C 85.6 47.1 85.3 46.7 84.9 46.5 C 84.5 46.2 84 46.1 83.4 46.1 C 82.5 46.1 81.8 46.4 81.1 47 C 80.5 47.5 80.1 48.6 80.1 50.2 C 80.13 50.2 80.1 57 80.1 57 L 78 57 Z M 91.4 42.2 L 91.4 39.8 L 93.5 39.8 L 93.5 42.2 L 91.4 42.2 Z M 91.4 57 L 91.4 44.6 L 93.5 44.6 L 93.5 57 L 91.4 57 Z M 96.7 57 L 96.7 44.6 L 98.6 44.6 C 98.6 44.6 98.6 46.32 98.6 46.3 C 99.5 45 100.8 44.3 102.6 44.3 C 103.3 44.3 104 44.4 104.6 44.7 C 105.3 44.9 105.7 45.3 106 45.7 C 106.4 46.2 106.6 46.7 106.7 47.3 C 106.8 47.7 106.8 48.4 106.8 49.3 C 106.82 49.35 106.8 57 106.8 57 L 104.7 57 C 104.7 57 104.71 49.43 104.7 49.4 C 104.7 48.6 104.6 47.9 104.5 47.5 C 104.3 47.1 104 46.7 103.6 46.5 C 103.2 46.2 102.7 46.1 102.1 46.1 C 101.2 46.1 100.4 46.4 99.8 47 C 99.1 47.5 98.8 48.6 98.8 50.2 C 98.81 50.2 98.8 57 98.8 57 L 96.7 57 Z M 109.7 58 C 109.7 58 111.7 58.3 111.7 58.3 C 111.8 59 112 59.4 112.4 59.7 C 113 60.1 113.7 60.3 114.6 60.3 C 115.6 60.3 116.3 60.1 116.8 59.7 C 117.4 59.3 117.7 58.8 117.9 58.1 C 118 57.6 118.1 56.7 118.1 55.4 C 117.1 56.5 116 57 114.6 57 C 112.9 57 111.6 56.4 110.6 55.1 C 109.7 53.9 109.2 52.4 109.2 50.7 C 109.2 49.5 109.5 48.4 109.9 47.4 C 110.3 46.4 110.9 45.6 111.8 45.1 C 112.6 44.5 113.5 44.3 114.6 44.3 C 116.1 44.3 117.3 44.9 118.3 46.1 C 118.27 46.05 118.3 44.6 118.3 44.6 L 120.2 44.6 C 120.2 44.6 120.21 55.31 120.2 55.3 C 120.2 57.2 120 58.6 119.6 59.4 C 119.2 60.2 118.6 60.9 117.7 61.3 C 116.9 61.8 115.8 62.1 114.6 62.1 C 113.1 62.1 111.9 61.7 111 61 C 110.1 60.4 109.6 59.4 109.7 58 Z M 111.4 50.6 C 111.4 52.2 111.7 53.4 112.4 54.1 C 113 54.9 113.8 55.3 114.8 55.3 C 115.8 55.3 116.6 54.9 117.3 54.1 C 117.9 53.4 118.2 52.2 118.2 50.6 C 118.2 49.1 117.9 48 117.2 47.2 C 116.6 46.4 115.7 46 114.8 46 C 113.8 46 113.1 46.4 112.4 47.2 C 111.7 47.9 111.4 49.1 111.4 50.6 Z M 130.3 57 L 130.3 39.8 C 130.3 39.8 136.25 39.82 136.3 39.8 C 137.6 39.8 138.6 39.9 139.3 40.1 C 140.3 40.3 141.1 40.7 141.8 41.3 C 142.7 42.1 143.4 43 143.9 44.2 C 144.3 45.4 144.5 46.8 144.5 48.3 C 144.5 49.6 144.4 50.8 144.1 51.8 C 143.8 52.8 143.4 53.6 142.9 54.3 C 142.4 54.9 141.9 55.5 141.3 55.8 C 140.8 56.2 140.1 56.5 139.3 56.7 C 138.5 56.9 137.6 57 136.5 57 C 136.54 57 130.3 57 130.3 57 Z M 132.6 55 C 132.6 55 136.28 54.97 136.3 55 C 137.4 55 138.3 54.9 138.9 54.7 C 139.6 54.4 140.1 54.1 140.5 53.8 C 141 53.2 141.4 52.5 141.7 51.6 C 142 50.7 142.2 49.6 142.2 48.3 C 142.2 46.5 141.9 45.1 141.3 44.1 C 140.7 43.2 140 42.5 139.2 42.2 C 138.6 42 137.6 41.8 136.2 41.8 C 136.22 41.85 132.6 41.8 132.6 41.8 L 132.6 55 Z M 155.9 53 C 155.9 53 158.1 53.3 158.1 53.3 C 157.8 54.5 157.1 55.5 156.2 56.2 C 155.3 56.9 154.1 57.3 152.6 57.3 C 150.8 57.3 149.4 56.7 148.3 55.6 C 147.2 54.5 146.7 52.9 146.7 50.9 C 146.7 48.8 147.2 47.2 148.3 46 C 149.4 44.9 150.8 44.3 152.5 44.3 C 154.2 44.3 155.5 44.8 156.6 46 C 157.6 47.1 158.2 48.7 158.2 50.8 C 158.2 50.9 158.2 51.1 158.2 51.3 C 158.2 51.3 148.9 51.3 148.9 51.3 C 149 52.7 149.3 53.7 150 54.5 C 150.7 55.2 151.6 55.5 152.6 55.5 C 153.4 55.5 154.1 55.3 154.6 54.9 C 155.2 54.5 155.6 53.9 155.9 53 Z M 149 49.6 C 149 49.6 155.9 49.6 155.9 49.6 C 155.8 48.5 155.6 47.8 155.1 47.2 C 154.5 46.4 153.6 46 152.5 46 C 151.6 46 150.7 46.3 150.1 47 C 149.4 47.6 149.1 48.5 149 49.6 Z M 159.9 53.3 C 159.9 53.3 162 53 162 53 C 162.1 53.8 162.4 54.4 163 54.9 C 163.5 55.3 164.3 55.5 165.2 55.5 C 166.2 55.5 166.9 55.3 167.4 55 C 167.8 54.6 168.1 54.1 168.1 53.6 C 168.1 53.1 167.9 52.7 167.4 52.4 C 167.2 52.3 166.4 52 165.3 51.7 C 163.7 51.3 162.7 51 162.1 50.7 C 161.5 50.4 161 50 160.7 49.5 C 160.4 49 160.3 48.5 160.3 47.9 C 160.3 47.3 160.4 46.8 160.6 46.3 C 160.9 45.8 161.2 45.5 161.7 45.1 C 162 44.9 162.4 44.7 163 44.5 C 163.6 44.4 164.2 44.3 164.8 44.3 C 165.8 44.3 166.7 44.4 167.4 44.7 C 168.1 45 168.7 45.4 169 45.8 C 169.4 46.3 169.6 47 169.8 47.8 C 169.8 47.8 167.7 48 167.7 48 C 167.6 47.4 167.3 46.9 166.9 46.5 C 166.4 46.2 165.8 46 165 46 C 164 46 163.3 46.2 162.9 46.5 C 162.5 46.8 162.3 47.2 162.3 47.6 C 162.3 47.9 162.4 48.1 162.6 48.4 C 162.7 48.6 163 48.8 163.4 48.9 C 163.6 49 164.2 49.2 165.2 49.5 C 166.7 49.9 167.8 50.2 168.3 50.4 C 168.9 50.7 169.4 51.1 169.7 51.5 C 170.1 52 170.2 52.6 170.2 53.3 C 170.2 54 170 54.7 169.6 55.3 C 169.2 56 168.6 56.4 167.8 56.8 C 167.1 57.1 166.2 57.3 165.2 57.3 C 163.6 57.3 162.4 56.9 161.5 56.3 C 160.7 55.6 160.1 54.6 159.9 53.3 Z M 172.8 42.2 L 172.8 39.8 L 174.9 39.8 L 174.9 42.2 L 172.8 42.2 Z M 172.8 57 L 172.8 44.6 L 174.9 44.6 L 174.9 57 L 172.8 57 Z M 177.7 58 C 177.7 58 179.7 58.3 179.7 58.3 C 179.8 59 180.1 59.4 180.5 59.7 C 181 60.1 181.7 60.3 182.6 60.3 C 183.6 60.3 184.3 60.1 184.9 59.7 C 185.4 59.3 185.8 58.8 185.9 58.1 C 186.1 57.6 186.1 56.7 186.1 55.4 C 185.2 56.5 184 57 182.6 57 C 180.9 57 179.6 56.4 178.7 55.1 C 177.7 53.9 177.3 52.4 177.3 50.7 C 177.3 49.5 177.5 48.4 177.9 47.4 C 178.3 46.4 179 45.6 179.8 45.1 C 180.6 44.5 181.6 44.3 182.7 44.3 C 184.1 44.3 185.3 44.9 186.3 46.1 C 186.29 46.05 186.3 44.6 186.3 44.6 L 188.2 44.6 C 188.2 44.6 188.24 55.31 188.2 55.3 C 188.2 57.2 188 58.6 187.6 59.4 C 187.3 60.2 186.6 60.9 185.8 61.3 C 184.9 61.8 183.9 62.1 182.6 62.1 C 181.1 62.1 179.9 61.7 179 61 C 178.1 60.4 177.7 59.4 177.7 58 Z M 179.4 50.6 C 179.4 52.2 179.8 53.4 180.4 54.1 C 181.1 54.9 181.9 55.3 182.8 55.3 C 183.8 55.3 184.6 54.9 185.3 54.1 C 185.9 53.4 186.3 52.2 186.3 50.6 C 186.3 49.1 185.9 48 185.3 47.2 C 184.6 46.4 183.8 46 182.8 46 C 181.9 46 181.1 46.4 180.4 47.2 C 179.8 47.9 179.4 49.1 179.4 50.6 Z M 191.4 57 L 191.4 44.6 L 193.3 44.6 C 193.3 44.6 193.32 46.32 193.3 46.3 C 194.2 45 195.6 44.3 197.3 44.3 C 198 44.3 198.7 44.4 199.4 44.7 C 200 44.9 200.5 45.3 200.8 45.7 C 201.1 46.2 201.3 46.7 201.4 47.3 C 201.5 47.7 201.5 48.4 201.5 49.3 C 201.54 49.35 201.5 57 201.5 57 L 199.4 57 C 199.4 57 199.43 49.43 199.4 49.4 C 199.4 48.6 199.3 47.9 199.2 47.5 C 199 47.1 198.7 46.7 198.3 46.5 C 197.9 46.2 197.4 46.1 196.8 46.1 C 195.9 46.1 195.2 46.4 194.5 47 C 193.9 47.5 193.5 48.6 193.5 50.2 C 193.54 50.2 193.5 57 193.5 57 L 191.4 57 Z M 220 57 C 219.8 56.6 219.6 56.1 219.6 55.5 C 218.8 56.1 218 56.6 217.3 56.9 C 216.6 57.1 215.8 57.3 215 57.3 C 213.6 57.3 212.6 56.9 211.8 56.3 C 211.1 55.6 210.7 54.8 210.7 53.7 C 210.7 53.1 210.9 52.6 211.1 52 C 211.4 51.5 211.8 51.1 212.2 50.8 C 212.7 50.5 213.2 50.3 213.8 50.1 C 214.2 50 214.8 49.9 215.6 49.8 C 217.3 49.6 218.6 49.4 219.4 49.1 C 219.4 48.8 219.4 48.6 219.4 48.6 C 219.4 47.7 219.2 47.1 218.8 46.7 C 218.3 46.3 217.5 46 216.4 46 C 215.4 46 214.7 46.2 214.2 46.5 C 213.7 46.9 213.4 47.5 213.2 48.4 C 213.2 48.4 211.1 48.1 211.1 48.1 C 211.3 47.2 211.6 46.5 212 46 C 212.4 45.4 213.1 45 213.9 44.7 C 214.7 44.4 215.6 44.3 216.7 44.3 C 217.8 44.3 218.6 44.4 219.3 44.6 C 220 44.9 220.4 45.2 220.8 45.6 C 221.1 46 221.3 46.4 221.4 47 C 221.5 47.4 221.5 48 221.5 49 C 221.5 49 221.5 51.8 221.5 51.8 C 221.5 53.7 221.6 55 221.7 55.5 C 221.7 56 221.9 56.5 222.2 57 C 222.19 57 220 57 220 57 C 220 57 219.98 57 220 57 Z M 219.4 50.8 C 218.6 51.1 217.5 51.3 215.9 51.6 C 215.1 51.7 214.5 51.8 214.1 52 C 213.7 52.1 213.5 52.4 213.3 52.7 C 213.1 53 213 53.3 213 53.7 C 213 54.2 213.2 54.7 213.6 55.1 C 214 55.4 214.7 55.6 215.5 55.6 C 216.3 55.6 217 55.5 217.7 55.1 C 218.3 54.7 218.7 54.3 219 53.6 C 219.3 53.2 219.4 52.5 219.4 51.5 C 219.4 51.5 219.4 50.8 219.4 50.8 Z M 224.8 57 L 224.8 44.6 L 226.7 44.6 C 226.7 44.6 226.69 46.32 226.7 46.3 C 227.6 45 228.9 44.3 230.6 44.3 C 231.4 44.3 232.1 44.4 232.7 44.7 C 233.3 44.9 233.8 45.3 234.1 45.7 C 234.4 46.2 234.7 46.7 234.8 47.3 C 234.9 47.7 234.9 48.4 234.9 49.3 C 234.9 49.35 234.9 57 234.9 57 L 232.8 57 C 232.8 57 232.79 49.43 232.8 49.4 C 232.8 48.6 232.7 47.9 232.5 47.5 C 232.4 47.1 232.1 46.7 231.7 46.5 C 231.3 46.2 230.8 46.1 230.2 46.1 C 229.3 46.1 228.5 46.4 227.9 47 C 227.2 47.5 226.9 48.6 226.9 50.2 C 226.9 50.2 226.9 57 226.9 57 L 224.8 57 Z M 246.2 57 C 246.2 57 246.21 55.43 246.2 55.4 C 245.4 56.7 244.3 57.3 242.7 57.3 C 241.7 57.3 240.8 57 240 56.5 C 239.2 55.9 238.5 55.2 238.1 54.2 C 237.6 53.2 237.4 52.1 237.4 50.8 C 237.4 49.5 237.6 48.4 238 47.4 C 238.4 46.4 239 45.6 239.9 45.1 C 240.7 44.5 241.6 44.3 242.6 44.3 C 243.4 44.3 244.1 44.4 244.6 44.7 C 245.2 45.1 245.7 45.5 246.1 46 C 246.07 45.98 246.1 39.8 246.1 39.8 L 248.2 39.8 L 248.2 57 L 246.2 57 Z M 239.5 50.8 C 239.5 52.4 239.9 53.6 240.6 54.4 C 241.2 55.2 242 55.5 242.9 55.5 C 243.9 55.5 244.6 55.2 245.3 54.4 C 245.9 53.7 246.2 52.5 246.2 51 C 246.2 49.3 245.9 48 245.3 47.2 C 244.6 46.4 243.8 46 242.8 46 C 241.9 46 241.1 46.4 240.5 47.2 C 239.9 47.9 239.5 49.1 239.5 50.8 Z M 258.4 57 L 258.4 39.8 C 258.4 39.8 264.34 39.82 264.3 39.8 C 265.7 39.8 266.7 39.9 267.4 40.1 C 268.4 40.3 269.2 40.7 269.9 41.3 C 270.8 42.1 271.5 43 272 44.2 C 272.4 45.4 272.6 46.8 272.6 48.3 C 272.6 49.6 272.5 50.8 272.2 51.8 C 271.9 52.8 271.5 53.6 271 54.3 C 270.5 54.9 270 55.5 269.4 55.8 C 268.9 56.2 268.2 56.5 267.4 56.7 C 266.6 56.9 265.7 57 264.6 57 C 264.62 57 258.4 57 258.4 57 Z M 260.7 55 C 260.7 55 264.36 54.97 264.4 55 C 265.5 55 266.4 54.9 267 54.7 C 267.7 54.4 268.2 54.1 268.6 53.8 C 269.1 53.2 269.5 52.5 269.8 51.6 C 270.1 50.7 270.3 49.6 270.3 48.3 C 270.3 46.5 270 45.1 269.4 44.1 C 268.8 43.2 268.1 42.5 267.2 42.2 C 266.6 42 265.7 41.8 264.3 41.8 C 264.3 41.85 260.7 41.8 260.7 41.8 L 260.7 55 Z M 284 53 C 284 53 286.2 53.3 286.2 53.3 C 285.8 54.5 285.2 55.5 284.3 56.2 C 283.3 56.9 282.2 57.3 280.7 57.3 C 278.9 57.3 277.4 56.7 276.4 55.6 C 275.3 54.5 274.8 52.9 274.8 50.9 C 274.8 48.8 275.3 47.2 276.4 46 C 277.5 44.9 278.9 44.3 280.6 44.3 C 282.3 44.3 283.6 44.8 284.7 46 C 285.7 47.1 286.3 48.7 286.3 50.8 C 286.3 50.9 286.2 51.1 286.2 51.3 C 286.2 51.3 277 51.3 277 51.3 C 277 52.7 277.4 53.7 278.1 54.5 C 278.8 55.2 279.7 55.5 280.7 55.5 C 281.5 55.5 282.2 55.3 282.7 54.9 C 283.2 54.5 283.7 53.9 284 53 Z M 277.1 49.6 C 277.1 49.6 284 49.6 284 49.6 C 283.9 48.5 283.7 47.8 283.2 47.2 C 282.6 46.4 281.7 46 280.6 46 C 279.6 46 278.8 46.3 278.2 47 C 277.5 47.6 277.1 48.5 277.1 49.6 Z M 288.8 57 L 288.8 39.8 L 290.9 39.8 L 290.9 57 L 288.8 57 Z M 294.2 42.2 L 294.2 39.8 L 296.3 39.8 L 296.3 42.2 L 294.2 42.2 Z M 294.2 57 L 294.2 44.6 L 296.3 44.6 L 296.3 57 L 294.2 57 Z M 303 57 L 298.2 44.6 L 300.4 44.6 C 300.4 44.6 303.12 52.01 303.1 52 C 303.4 52.8 303.7 53.6 303.9 54.5 C 304.1 53.9 304.4 53.1 304.7 52.1 C 304.7 52.15 307.5 44.6 307.5 44.6 L 309.6 44.6 L 304.9 57 L 303 57 Z M 320 53 C 320 53 322.2 53.3 322.2 53.3 C 321.9 54.5 321.2 55.5 320.3 56.2 C 319.4 56.9 318.2 57.3 316.7 57.3 C 314.9 57.3 313.5 56.7 312.4 55.6 C 311.3 54.5 310.8 52.9 310.8 50.9 C 310.8 48.8 311.3 47.2 312.4 46 C 313.5 44.9 314.9 44.3 316.6 44.3 C 318.3 44.3 319.6 44.8 320.7 46 C 321.7 47.1 322.3 48.7 322.3 50.8 C 322.3 50.9 322.3 51.1 322.3 51.3 C 322.3 51.3 313 51.3 313 51.3 C 313.1 52.7 313.4 53.7 314.1 54.5 C 314.8 55.2 315.7 55.5 316.7 55.5 C 317.5 55.5 318.2 55.3 318.7 54.9 C 319.3 54.5 319.7 53.9 320 53 Z M 313.1 49.6 C 313.1 49.6 320 49.6 320 49.6 C 319.9 48.5 319.7 47.8 319.2 47.2 C 318.6 46.4 317.7 46 316.6 46 C 315.7 46 314.8 46.3 314.2 47 C 313.5 47.6 313.2 48.5 313.1 49.6 Z M 324.8 57 L 324.8 44.6 L 326.7 44.6 C 326.7 44.6 326.72 46.44 326.7 46.4 C 327.2 45.6 327.7 45 328.1 44.7 C 328.5 44.4 328.9 44.3 329.4 44.3 C 330.1 44.3 330.8 44.5 331.6 45 C 331.6 45 330.9 46.9 330.9 46.9 C 330.3 46.6 329.8 46.5 329.3 46.5 C 328.8 46.5 328.4 46.6 328.1 46.9 C 327.7 47.1 327.4 47.5 327.3 48 C 327 48.8 326.9 49.6 326.9 50.5 C 326.93 50.48 326.9 57 326.9 57 L 324.8 57 Z M 334.1 62.1 C 333.7 62.1 333.2 62 332.7 61.8 C 332.7 61.8 332.5 59.8 332.5 59.8 C 333 59.9 333.4 60 333.7 60 C 334.2 60 334.6 59.9 334.8 59.8 C 335.1 59.6 335.4 59.4 335.5 59.1 C 335.7 58.9 335.9 58.4 336.2 57.5 C 336.2 57.4 336.3 57.2 336.4 57 C 336.36 57.02 331.6 44.6 331.6 44.6 L 333.9 44.6 C 333.9 44.6 336.5 51.76 336.5 51.8 C 336.8 52.7 337.1 53.6 337.4 54.6 C 337.6 53.7 337.9 52.7 338.3 51.8 C 338.27 51.81 340.9 44.6 340.9 44.6 L 343 44.6 C 343 44.6 338.31 57.21 338.3 57.2 C 337.8 58.6 337.4 59.5 337.1 60 C 336.8 60.7 336.3 61.2 335.8 61.6 C 335.4 61.9 334.8 62.1 334.1 62.1 C 334.1 62.1 334.1 62.1 334.1 62.1 Z " stroke="none" fill="#000"/>  </g>  <g id="Polygon17587">    <path d="M 1.6 49.2 C 1.6 48.7 1.7 48.2 1.9 47.7 C 2.1 47.2 2.4 46.8 2.8 46.5 C 3.1 46.1 3.5 45.8 4 45.6 C 4.5 45.4 5 45.3 5.5 45.3 C 6 45.3 6.5 45.4 7 45.6 C 7.5 45.8 7.9 46.1 8.3 46.5 C 8.6 46.8 8.9 47.2 9.1 47.7 C 9.3 48.2 9.4 48.7 9.4 49.2 C 9.4 49.8 9.3 50.3 9.1 50.7 C 8.9 51.2 8.6 51.6 8.3 52 C 7.9 52.3 7.5 52.6 7 52.8 C 6.5 53 6 53.1 5.5 53.1 C 5 53.1 4.5 53 4 52.8 C 3.5 52.6 3.1 52.3 2.8 52 C 2.4 51.6 2.1 51.2 1.9 50.7 C 1.7 50.3 1.6 49.8 1.6 49.2 Z " stroke="none" fill="#f28620"/>  </g>  <g id="Polygon17586">    <path d="M 37.8 22 L 37.8 4.8 L 41.2 4.8 C 41.2 4.8 45.27 16.98 45.3 17 C 45.6 18.1 45.9 19 46.1 19.5 C 46.3 18.9 46.6 18 47 16.8 C 47 16.77 51.1 4.8 51.1 4.8 L 54.2 4.8 L 54.2 22 L 52 22 L 52 7.6 L 47 22 L 44.9 22 L 40 7.4 L 40 22 L 37.8 22 Z M 66.1 22 C 65.9 21.6 65.8 21.1 65.7 20.5 C 64.9 21.1 64.2 21.6 63.4 21.9 C 62.7 22.1 61.9 22.3 61.1 22.3 C 59.7 22.3 58.7 21.9 58 21.3 C 57.2 20.6 56.9 19.8 56.9 18.7 C 56.9 18.1 57 17.6 57.3 17 C 57.6 16.5 57.9 16.1 58.4 15.8 C 58.8 15.5 59.3 15.3 59.9 15.1 C 60.3 15 60.9 14.9 61.8 14.8 C 63.5 14.6 64.7 14.4 65.5 14.1 C 65.5 13.8 65.5 13.6 65.5 13.6 C 65.5 12.7 65.3 12.1 64.9 11.7 C 64.4 11.3 63.6 11 62.5 11 C 61.5 11 60.8 11.2 60.3 11.5 C 59.9 11.9 59.5 12.5 59.3 13.4 C 59.3 13.4 57.2 13.1 57.2 13.1 C 57.4 12.2 57.7 11.5 58.1 11 C 58.6 10.4 59.2 10 60 9.7 C 60.8 9.4 61.8 9.3 62.8 9.3 C 63.9 9.3 64.8 9.4 65.4 9.6 C 66.1 9.9 66.6 10.2 66.9 10.6 C 67.2 11 67.4 11.4 67.5 12 C 67.6 12.4 67.7 13 67.7 14 C 67.7 14 67.7 16.8 67.7 16.8 C 67.7 18.7 67.7 20 67.8 20.5 C 67.9 21 68.1 21.5 68.3 22 C 68.32 22 66.1 22 66.1 22 C 66.1 22 66.12 22 66.1 22 Z M 65.5 15.8 C 64.8 16.1 63.6 16.3 62.1 16.6 C 61.2 16.7 60.6 16.8 60.2 17 C 59.9 17.1 59.6 17.4 59.4 17.7 C 59.2 18 59.1 18.3 59.1 18.7 C 59.1 19.2 59.3 19.7 59.7 20.1 C 60.2 20.4 60.8 20.6 61.6 20.6 C 62.4 20.6 63.2 20.5 63.8 20.1 C 64.4 19.7 64.9 19.3 65.2 18.6 C 65.4 18.2 65.5 17.5 65.5 16.5 C 65.5 16.5 65.5 15.8 65.5 15.8 Z M 70.9 22 L 70.9 9.6 L 72.8 9.6 C 72.8 9.6 72.82 11.32 72.8 11.3 C 73.7 10 75.1 9.3 76.8 9.3 C 77.5 9.3 78.2 9.4 78.8 9.7 C 79.5 9.9 79.9 10.3 80.3 10.7 C 80.6 11.2 80.8 11.7 80.9 12.3 C 81 12.7 81 13.4 81 14.3 C 81.04 14.35 81 22 81 22 L 78.9 22 C 78.9 22 78.93 14.43 78.9 14.4 C 78.9 13.6 78.8 12.9 78.7 12.5 C 78.5 12.1 78.2 11.7 77.8 11.5 C 77.4 11.2 76.9 11.1 76.3 11.1 C 75.4 11.1 74.7 11.4 74 12 C 73.4 12.5 73 13.6 73 15.2 C 73.03 15.2 73 22 73 22 L 70.9 22 Z M 92.8 22 C 92.6 21.6 92.5 21.1 92.4 20.5 C 91.6 21.1 90.9 21.6 90.1 21.9 C 89.4 22.1 88.6 22.3 87.8 22.3 C 86.4 22.3 85.4 21.9 84.7 21.3 C 83.9 20.6 83.6 19.8 83.6 18.7 C 83.6 18.1 83.7 17.6 84 17 C 84.2 16.5 84.6 16.1 85.1 15.8 C 85.5 15.5 86 15.3 86.6 15.1 C 87 15 87.6 14.9 88.5 14.8 C 90.2 14.6 91.4 14.4 92.2 14.1 C 92.2 13.8 92.2 13.6 92.2 13.6 C 92.2 12.7 92 12.1 91.6 11.7 C 91.1 11.3 90.3 11 89.2 11 C 88.2 11 87.5 11.2 87 11.5 C 86.6 11.9 86.2 12.5 86 13.4 C 86 13.4 83.9 13.1 83.9 13.1 C 84.1 12.2 84.4 11.5 84.8 11 C 85.3 10.4 85.9 10 86.7 9.7 C 87.5 9.4 88.5 9.3 89.5 9.3 C 90.6 9.3 91.5 9.4 92.1 9.6 C 92.8 9.9 93.3 10.2 93.6 10.6 C 93.9 11 94.1 11.4 94.2 12 C 94.3 12.4 94.3 13 94.3 14 C 94.3 14 94.3 16.8 94.3 16.8 C 94.3 18.7 94.4 20 94.5 20.5 C 94.6 21 94.7 21.5 95 22 C 95.02 22 92.8 22 92.8 22 C 92.8 22 92.81 22 92.8 22 Z M 92.2 15.8 C 91.4 16.1 90.3 16.3 88.8 16.6 C 87.9 16.7 87.3 16.8 86.9 17 C 86.6 17.1 86.3 17.4 86.1 17.7 C 85.9 18 85.8 18.3 85.8 18.7 C 85.8 19.2 86 19.7 86.4 20.1 C 86.9 20.4 87.5 20.6 88.3 20.6 C 89.1 20.6 89.8 20.5 90.5 20.1 C 91.1 19.7 91.6 19.3 91.9 18.6 C 92.1 18.2 92.2 17.5 92.2 16.5 C 92.2 16.5 92.2 15.8 92.2 15.8 Z M 97.2 23 C 97.2 23 99.3 23.3 99.3 23.3 C 99.4 24 99.6 24.4 100 24.7 C 100.5 25.1 101.2 25.3 102.1 25.3 C 103.1 25.3 103.9 25.1 104.4 24.7 C 104.9 24.3 105.3 23.8 105.5 23.1 C 105.6 22.6 105.6 21.7 105.6 20.4 C 104.7 21.5 103.6 22 102.2 22 C 100.5 22 99.2 21.4 98.2 20.1 C 97.3 18.9 96.8 17.4 96.8 15.7 C 96.8 14.5 97 13.4 97.5 12.4 C 97.9 11.4 98.5 10.6 99.3 10.1 C 100.1 9.5 101.1 9.3 102.2 9.3 C 103.7 9.3 104.9 9.9 105.8 11.1 C 105.83 11.05 105.8 9.6 105.8 9.6 L 107.8 9.6 C 107.8 9.6 107.78 20.31 107.8 20.3 C 107.8 22.2 107.6 23.6 107.2 24.4 C 106.8 25.2 106.2 25.9 105.3 26.3 C 104.5 26.8 103.4 27.1 102.2 27.1 C 100.7 27.1 99.5 26.7 98.6 26 C 97.6 25.4 97.2 24.4 97.2 23 Z M 99 15.6 C 99 17.2 99.3 18.4 99.9 19.1 C 100.6 19.9 101.4 20.3 102.4 20.3 C 103.4 20.3 104.2 19.9 104.8 19.1 C 105.5 18.4 105.8 17.2 105.8 15.6 C 105.8 14.1 105.5 13 104.8 12.2 C 104.1 11.4 103.3 11 102.4 11 C 101.4 11 100.6 11.4 100 12.2 C 99.3 12.9 99 14.1 99 15.6 Z M 119.5 18 C 119.5 18 121.7 18.3 121.7 18.3 C 121.3 19.5 120.7 20.5 119.8 21.2 C 118.8 21.9 117.6 22.3 116.2 22.3 C 114.4 22.3 112.9 21.7 111.9 20.6 C 110.8 19.5 110.3 17.9 110.3 15.9 C 110.3 13.8 110.8 12.2 111.9 11 C 113 9.9 114.4 9.3 116.1 9.3 C 117.7 9.3 119.1 9.8 120.2 11 C 121.2 12.1 121.7 13.7 121.7 15.8 C 121.7 15.9 121.7 16.1 121.7 16.3 C 121.7 16.3 112.4 16.3 112.4 16.3 C 112.5 17.7 112.9 18.7 113.6 19.5 C 114.3 20.2 115.2 20.5 116.2 20.5 C 117 20.5 117.6 20.3 118.2 19.9 C 118.7 19.5 119.2 18.9 119.5 18 Z M 112.6 14.6 C 112.6 14.6 119.5 14.6 119.5 14.6 C 119.4 13.5 119.1 12.8 118.7 12.2 C 118 11.4 117.2 11 116.1 11 C 115.1 11 114.3 11.3 113.7 12 C 113 12.6 112.6 13.5 112.6 14.6 Z M 132.4 22 C 132.4 22 132.39 20.43 132.4 20.4 C 131.6 21.7 130.4 22.3 128.9 22.3 C 127.9 22.3 127 22 126.2 21.5 C 125.3 20.9 124.7 20.2 124.2 19.2 C 123.8 18.2 123.6 17.1 123.6 15.8 C 123.6 14.5 123.8 13.4 124.2 12.4 C 124.6 11.4 125.2 10.6 126 10.1 C 126.9 9.5 127.8 9.3 128.8 9.3 C 129.6 9.3 130.2 9.4 130.8 9.7 C 131.4 10.1 131.9 10.5 132.2 11 C 132.25 10.98 132.2 4.8 132.2 4.8 L 134.3 4.8 L 134.3 22 L 132.4 22 Z M 125.7 15.8 C 125.7 17.4 126.1 18.6 126.7 19.4 C 127.4 20.2 128.2 20.5 129.1 20.5 C 130 20.5 130.8 20.2 131.5 19.4 C 132.1 18.7 132.4 17.5 132.4 16 C 132.4 14.3 132.1 13 131.4 12.2 C 130.8 11.4 130 11 129 11 C 128.1 11 127.3 11.4 126.7 12.2 C 126 12.9 125.7 14.1 125.7 15.8 Z M 143.8 16.5 C 143.8 16.5 146 16.3 146 16.3 C 146.1 17.2 146.3 17.9 146.7 18.4 C 147 19 147.6 19.4 148.4 19.7 C 149.2 20.1 150.1 20.3 151 20.3 C 151.9 20.3 152.7 20.1 153.3 19.9 C 154 19.6 154.5 19.3 154.8 18.8 C 155.1 18.4 155.3 17.9 155.3 17.3 C 155.3 16.8 155.2 16.3 154.8 15.9 C 154.5 15.5 154 15.2 153.3 14.9 C 152.8 14.7 151.8 14.5 150.2 14.1 C 148.7 13.7 147.6 13.3 146.9 13 C 146.1 12.6 145.5 12 145.1 11.4 C 144.7 10.8 144.5 10.1 144.5 9.3 C 144.5 8.4 144.7 7.6 145.2 6.8 C 145.7 6.1 146.4 5.5 147.4 5.1 C 148.3 4.7 149.4 4.5 150.5 4.5 C 151.8 4.5 152.9 4.7 153.9 5.1 C 154.9 5.6 155.6 6.2 156.1 7 C 156.7 7.8 156.9 8.7 157 9.7 C 157 9.7 154.8 9.8 154.8 9.8 C 154.7 8.7 154.3 7.9 153.6 7.4 C 152.9 6.8 151.9 6.5 150.6 6.5 C 149.2 6.5 148.2 6.8 147.6 7.3 C 147 7.8 146.7 8.4 146.7 9.1 C 146.7 9.7 146.9 10.2 147.3 10.6 C 147.8 11 148.9 11.4 150.8 11.9 C 152.6 12.3 153.9 12.6 154.6 13 C 155.6 13.4 156.3 14 156.8 14.7 C 157.3 15.4 157.5 16.2 157.5 17.1 C 157.5 18.1 157.2 18.9 156.7 19.7 C 156.2 20.5 155.4 21.2 154.5 21.6 C 153.5 22.1 152.4 22.3 151.1 22.3 C 149.6 22.3 148.3 22.1 147.2 21.6 C 146.2 21.2 145.4 20.5 144.8 19.6 C 144.2 18.7 143.9 17.6 143.8 16.5 Z M 168.9 18 C 168.9 18 171 18.3 171 18.3 C 170.7 19.5 170.1 20.5 169.1 21.2 C 168.2 21.9 167 22.3 165.6 22.3 C 163.7 22.3 162.3 21.7 161.2 20.6 C 160.2 19.5 159.6 17.9 159.6 15.9 C 159.6 13.8 160.2 12.2 161.3 11 C 162.3 9.9 163.7 9.3 165.4 9.3 C 167.1 9.3 168.5 9.8 169.5 11 C 170.6 12.1 171.1 13.7 171.1 15.8 C 171.1 15.9 171.1 16.1 171.1 16.3 C 171.1 16.3 161.8 16.3 161.8 16.3 C 161.9 17.7 162.3 18.7 163 19.5 C 163.7 20.2 164.5 20.5 165.6 20.5 C 166.3 20.5 167 20.3 167.6 19.9 C 168.1 19.5 168.5 18.9 168.9 18 Z M 161.9 14.6 C 161.9 14.6 168.9 14.6 168.9 14.6 C 168.8 13.5 168.5 12.8 168.1 12.2 C 167.4 11.4 166.5 11 165.5 11 C 164.5 11 163.7 11.3 163 12 C 162.4 12.6 162 13.5 161.9 14.6 Z M 173.7 22 L 173.7 9.6 L 175.6 9.6 C 175.6 9.6 175.56 11.44 175.6 11.4 C 176 10.6 176.5 10 176.9 9.7 C 177.3 9.4 177.8 9.3 178.3 9.3 C 179 9.3 179.7 9.5 180.4 10 C 180.4 10 179.7 11.9 179.7 11.9 C 179.2 11.6 178.7 11.5 178.1 11.5 C 177.7 11.5 177.3 11.6 176.9 11.9 C 176.5 12.1 176.3 12.5 176.1 13 C 175.9 13.8 175.8 14.6 175.8 15.5 C 175.77 15.48 175.8 22 175.8 22 L 173.7 22 Z M 185.1 22 L 180.4 9.6 L 182.6 9.6 C 182.6 9.6 185.3 17.01 185.3 17 C 185.6 17.8 185.9 18.6 186.1 19.5 C 186.3 18.9 186.5 18.1 186.9 17.1 C 186.88 17.15 189.6 9.6 189.6 9.6 L 191.8 9.6 L 187.1 22 L 185.1 22 Z M 193.7 7.2 L 193.7 4.8 L 195.8 4.8 L 195.8 7.2 L 193.7 7.2 Z M 193.7 22 L 193.7 9.6 L 195.8 9.6 L 195.8 22 L 193.7 22 Z M 207.1 17.4 C 207.1 17.4 209.2 17.7 209.2 17.7 C 209 19.1 208.4 20.3 207.5 21.1 C 206.5 21.9 205.4 22.3 204 22.3 C 202.3 22.3 201 21.7 199.9 20.6 C 198.9 19.5 198.4 17.9 198.4 15.8 C 198.4 14.5 198.6 13.3 199 12.3 C 199.5 11.3 200.2 10.5 201.1 10 C 202 9.5 203 9.3 204 9.3 C 205.4 9.3 206.5 9.6 207.4 10.3 C 208.2 11 208.8 12 209 13.2 C 209 13.2 207 13.5 207 13.5 C 206.8 12.7 206.4 12.1 205.9 11.6 C 205.4 11.2 204.8 11 204.1 11 C 203.1 11 202.2 11.4 201.5 12.2 C 200.9 12.9 200.5 14.1 200.5 15.8 C 200.5 17.4 200.9 18.7 201.5 19.4 C 202.1 20.2 203 20.5 204 20.5 C 204.8 20.5 205.5 20.3 206.1 19.8 C 206.6 19.3 207 18.5 207.1 17.4 Z M 219.5 18 C 219.5 18 221.7 18.3 221.7 18.3 C 221.4 19.5 220.7 20.5 219.8 21.2 C 218.9 21.9 217.7 22.3 216.2 22.3 C 214.4 22.3 213 21.7 211.9 20.6 C 210.8 19.5 210.3 17.9 210.3 15.9 C 210.3 13.8 210.8 12.2 211.9 11 C 213 9.9 214.4 9.3 216.1 9.3 C 217.8 9.3 219.1 9.8 220.2 11 C 221.3 12.1 221.8 13.7 221.8 15.8 C 221.8 15.9 221.8 16.1 221.8 16.3 C 221.8 16.3 212.5 16.3 212.5 16.3 C 212.6 17.7 212.9 18.7 213.6 19.5 C 214.3 20.2 215.2 20.5 216.2 20.5 C 217 20.5 217.7 20.3 218.2 19.9 C 218.8 19.5 219.2 18.9 219.5 18 Z M 212.6 14.6 C 212.6 14.6 219.6 14.6 219.6 14.6 C 219.5 13.5 219.2 12.8 218.8 12.2 C 218.1 11.4 217.2 11 216.1 11 C 215.2 11 214.4 11.3 213.7 12 C 213 12.6 212.7 13.5 212.6 14.6 Z M 223.5 18.3 C 223.5 18.3 225.6 18 225.6 18 C 225.7 18.8 226 19.4 226.6 19.9 C 227.1 20.3 227.9 20.5 228.8 20.5 C 229.8 20.5 230.5 20.3 231 20 C 231.4 19.6 231.7 19.1 231.7 18.6 C 231.7 18.1 231.5 17.7 231.1 17.4 C 230.8 17.3 230.1 17 228.9 16.7 C 227.4 16.3 226.3 16 225.7 15.7 C 225.1 15.4 224.6 15 224.3 14.5 C 224 14 223.9 13.5 223.9 12.9 C 223.9 12.3 224 11.8 224.2 11.3 C 224.5 10.8 224.8 10.5 225.3 10.1 C 225.6 9.9 226.1 9.7 226.6 9.5 C 227.2 9.4 227.8 9.3 228.4 9.3 C 229.4 9.3 230.3 9.4 231 9.7 C 231.8 10 232.3 10.4 232.7 10.8 C 233 11.3 233.2 12 233.4 12.8 C 233.4 12.8 231.3 13 231.3 13 C 231.2 12.4 231 11.9 230.5 11.5 C 230.1 11.2 229.4 11 228.6 11 C 227.6 11 226.9 11.2 226.5 11.5 C 226.1 11.8 225.9 12.2 225.9 12.6 C 225.9 12.9 226 13.1 226.2 13.4 C 226.3 13.6 226.6 13.8 227 13.9 C 227.2 14 227.8 14.2 228.8 14.5 C 230.3 14.9 231.4 15.2 232 15.4 C 232.5 15.7 233 16.1 233.3 16.5 C 233.7 17 233.8 17.6 233.8 18.3 C 233.8 19 233.6 19.7 233.2 20.3 C 232.8 21 232.2 21.4 231.5 21.8 C 230.7 22.1 229.8 22.3 228.8 22.3 C 227.2 22.3 226 21.9 225.1 21.3 C 224.3 20.6 223.7 19.6 223.5 18.3 Z " stroke="none" fill="#000"/>  </g>  <g id="Polygon17585">    <path d="M 1.6 14.2 C 1.6 13.7 1.7 13.2 1.9 12.7 C 2.1 12.2 2.4 11.8 2.8 11.5 C 3.1 11.1 3.5 10.8 4 10.6 C 4.5 10.4 5 10.3 5.5 10.3 C 6 10.3 6.5 10.4 7 10.6 C 7.5 10.8 7.9 11.1 8.3 11.5 C 8.6 11.8 8.9 12.2 9.1 12.7 C 9.3 13.2 9.4 13.7 9.4 14.2 C 9.4 14.8 9.3 15.3 9.1 15.7 C 8.9 16.2 8.6 16.6 8.3 17 C 7.9 17.3 7.5 17.6 7 17.8 C 6.5 18 6 18.1 5.5 18.1 C 5 18.1 4.5 18 4 17.8 C 3.5 17.6 3.1 17.3 2.8 17 C 2.4 16.6 2.1 16.2 1.9 15.7 C 1.7 15.3 1.6 14.8 1.6 14.2 Z " stroke="none" fill="#f28620"/>  </g></svg>