<?xml version="1.0" standalone="no"?><!DOCTYPE svg PUBLIC "-//W3C//DTD SVG 1.1//EN" "http://www.w3.org/Graphics/SVG/1.1/DTD/svg11.dtd"><svg xmlns="http://www.w3.org/2000/svg" version="1.1" width="17px" height="21.5px" viewBox="0 -4 17 21.5" style="top:-4px">  <desc>4.8</desc>  <defs/>  <g id="Polygon48772">    <path d="M 3.7 8.7 L 3.7 7 L 0.2 7 L 0.2 5.6 L 3.9 0.1 L 5.3 0.1 L 5.3 5.6 L 6.4 5.6 L 6.4 7 L 5.3 7 L 5.3 8.7 L 3.7 8.7 Z M 3.7 5.6 L 3.7 2.6 L 1.8 5.6 L 3.7 5.6 Z M 7.5 8.7 L 7.5 7.1 L 9.2 7.1 L 9.2 8.7 L 7.5 8.7 Z M 11.9 4.1 C 11.5 3.9 11.2 3.7 11 3.4 C 10.8 3 10.7 2.7 10.7 2.3 C 10.7 1.7 10.9 1.2 11.4 0.7 C 11.8 0.3 12.5 0.1 13.3 0.1 C 14.1 0.1 14.7 0.3 15.2 0.7 C 15.6 1.2 15.9 1.7 15.9 2.3 C 15.9 2.7 15.8 3.1 15.6 3.4 C 15.3 3.7 15.1 3.9 14.7 4.1 C 15.2 4.3 15.5 4.6 15.8 4.9 C 16 5.3 16.1 5.7 16.1 6.2 C 16.1 7 15.9 7.6 15.4 8.1 C 14.9 8.6 14.2 8.9 13.4 8.9 C 12.6 8.9 11.9 8.7 11.4 8.3 C 10.8 7.8 10.5 7.1 10.5 6.3 C 10.5 5.8 10.6 5.4 10.8 5 C 11.1 4.6 11.4 4.3 11.9 4.1 Z M 12.3 2.4 C 12.3 2.8 12.4 3 12.5 3.2 C 12.7 3.4 13 3.5 13.3 3.5 C 13.6 3.5 13.9 3.4 14 3.2 C 14.2 3 14.3 2.8 14.3 2.4 C 14.3 2.1 14.2 1.9 14 1.7 C 13.9 1.5 13.6 1.4 13.3 1.4 C 13 1.4 12.7 1.5 12.6 1.7 C 12.4 1.9 12.3 2.1 12.3 2.4 Z M 12.1 6.1 C 12.1 6.6 12.2 6.9 12.5 7.2 C 12.7 7.4 13 7.6 13.3 7.6 C 13.7 7.6 14 7.4 14.2 7.2 C 14.4 7 14.5 6.6 14.5 6.1 C 14.5 5.7 14.4 5.4 14.2 5.2 C 13.9 4.9 13.7 4.8 13.3 4.8 C 12.9 4.8 12.6 4.9 12.4 5.2 C 12.2 5.5 12.1 5.8 12.1 6.1 Z " stroke="none" fill="#000"/>  </g></svg>