<?xml version="1.0" standalone="no"?><!DOCTYPE svg PUBLIC "-//W3C//DTD SVG 1.1//EN" "http://www.w3.org/Graphics/SVG/1.1/DTD/svg11.dtd"><svg xmlns="http://www.w3.org/2000/svg" version="1.1" width="254px" height="46.1px" viewBox="0 -8 254 46.1" style="top:-8px">  <desc>About Us</desc>  <defs/>  <g id="Polygon32441">    <path d="M 10.5 1.3 L 19.6 21.9 L 17.3 21.9 L 14.4 15.4 L 5.1 15.4 L 2.4 21.9 L 0.1 21.9 L 8.9 1.3 L 10.5 1.3 Z M 6 13.4 L 13.5 13.4 L 9.7 4.7 L 6 13.4 Z M 27.2 1.4 C 31 1.4 33.6 3.4 33.6 6.6 C 33.6 8.8 32.4 10.4 30.2 11.1 C 33.4 11.6 35.3 13.7 35.3 16.4 C 35.3 20.2 31.9 21.9 28.2 21.9 C 28.2 21.87 22 21.9 22 21.9 L 22 1.4 C 22 1.4 27.24 1.41 27.2 1.4 Z M 24.2 10.5 C 24.2 10.5 26.43 10.5 26.4 10.5 C 29.8 10.5 31.2 8.9 31.2 6.8 C 31.2 4.5 29.8 3.4 26.8 3.4 C 26.79 3.39 24.2 3.4 24.2 3.4 L 24.2 10.5 Z M 27.8 19.9 C 31 19.9 33 18.8 33 16.2 C 33 13.8 31.3 12.4 27.4 12.4 C 27.45 12.45 24.2 12.4 24.2 12.4 L 24.2 19.9 C 24.2 19.9 27.78 19.89 27.8 19.9 Z M 59 11.5 C 59 17.3 54.8 22.1 48 22.1 C 41.7 22.1 37.4 17.3 37.4 11.8 C 37.4 6.1 41.5 1.1 48.1 1.1 C 54.7 1.1 59 5.9 59 11.5 Z M 39.7 11.7 C 39.7 16.5 43.5 20 48.1 20 C 54.1 20 56.6 15.3 56.6 11.6 C 56.6 7.5 53.6 3.3 48.2 3.3 C 42.7 3.3 39.7 7.5 39.7 11.7 Z M 64.6 1.4 C 64.6 1.4 64.65 13.2 64.6 13.2 C 64.6 17.7 66.8 20.1 71 20.1 C 75.2 20.1 77.3 17.6 77.3 13.2 C 77.31 13.2 77.3 1.4 77.3 1.4 L 79.6 1.4 C 79.6 1.4 79.56 13.2 79.6 13.2 C 79.6 18.6 76.7 22.1 71 22.1 C 65.4 22.1 62.4 18.9 62.4 13.2 C 62.4 13.2 62.4 1.4 62.4 1.4 L 64.6 1.4 Z M 98.8 1.4 L 98.8 3.4 L 91.5 3.4 L 91.5 21.9 L 89.3 21.9 L 89.3 3.4 L 82 3.4 L 82 1.4 L 98.8 1.4 Z M 111.9 1.4 C 111.9 1.4 111.93 13.2 111.9 13.2 C 111.9 17.7 114.1 20.1 118.3 20.1 C 122.5 20.1 124.6 17.6 124.6 13.2 C 124.59 13.2 124.6 1.4 124.6 1.4 L 126.8 1.4 C 126.8 1.4 126.84 13.2 126.8 13.2 C 126.8 18.6 124 22.1 118.3 22.1 C 112.7 22.1 109.7 18.9 109.7 13.2 C 109.68 13.2 109.7 1.4 109.7 1.4 L 111.9 1.4 Z M 140.7 2.5 C 140.7 2.5 140.7 5 140.7 5 C 139.3 3.8 137.7 3.2 136 3.2 C 133.9 3.2 132.5 4.4 132.5 6.1 C 132.5 7.5 132.8 8.7 136.2 10.4 C 140.4 12.6 141.4 14 141.4 16.8 C 141.4 19.9 139.1 22.1 135.6 22.1 C 133.6 22.1 131.8 21.5 130.3 20.3 C 130.3 20.3 130.3 17.5 130.3 17.5 C 131.8 19.2 133.6 20.1 135.6 20.1 C 137.7 20.1 139.2 18.8 139.2 16.9 C 139.2 15.1 138.6 14.1 134.6 12 C 131.4 10.4 130.2 8.8 130.2 6.2 C 130.2 3.3 132.7 1.1 136.1 1.1 C 137.7 1.1 139.3 1.6 140.7 2.5 Z " stroke="none" fill="#010102"/>  </g></svg>