<?xml version="1.0" standalone="no"?><!DOCTYPE svg PUBLIC "-//W3C//DTD SVG 1.1//EN" "http://www.w3.org/Graphics/SVG/1.1/DTD/svg11.dtd"><svg xmlns="http://www.w3.org/2000/svg" version="1.1" width="34px" height="40.1px" viewBox="0 -8 34 40.1" style="top:-8px">  <desc>4.4</desc>  <defs/>  <g id="Polygon5485">    <path d="M 7.5 17.5 L 7.5 14 L 0.4 14 L 0.4 11.1 L 7.9 0.2 L 10.7 0.2 L 10.7 11.1 L 12.8 11.1 L 12.8 14 L 10.7 14 L 10.7 17.5 L 7.5 17.5 Z M 7.5 11.1 L 7.5 5.3 L 3.5 11.1 L 7.5 11.1 Z M 15.1 17.5 L 15.1 14.2 L 18.4 14.2 L 18.4 17.5 L 15.1 17.5 Z M 27.5 17.5 L 27.5 14 L 20.5 14 L 20.5 11.1 L 27.9 0.2 L 30.7 0.2 L 30.7 11.1 L 32.8 11.1 L 32.8 14 L 30.7 14 L 30.7 17.5 L 27.5 17.5 Z M 27.5 11.1 L 27.5 5.3 L 23.5 11.1 L 27.5 11.1 Z " stroke="none" fill="#000"/>  </g></svg>