<?xml version="1.0" standalone="no"?><!DOCTYPE svg PUBLIC "-//W3C//DTD SVG 1.1//EN" "http://www.w3.org/Graphics/SVG/1.1/DTD/svg11.dtd"><svg xmlns="http://www.w3.org/2000/svg" version="1.1" width="17px" height="21.5px" viewBox="0 -4 17 21.5" style="top:-4px">  <desc>4.6</desc>  <defs/>  <g id="Polygon57003">    <path d="M 3.7 8.7 L 3.7 7 L 0.2 7 L 0.2 5.6 L 3.9 0.1 L 5.3 0.1 L 5.3 5.6 L 6.4 5.6 L 6.4 7 L 5.3 7 L 5.3 8.7 L 3.7 8.7 Z M 3.7 5.6 L 3.7 2.6 L 1.8 5.6 L 3.7 5.6 Z M 7.5 8.7 L 7.5 7.1 L 9.2 7.1 L 9.2 8.7 L 7.5 8.7 Z M 16.1 2.3 C 16.1 2.3 14.5 2.4 14.5 2.4 C 14.5 2.1 14.4 1.9 14.2 1.7 C 14 1.5 13.8 1.5 13.6 1.5 C 13.2 1.5 12.9 1.6 12.7 1.9 C 12.4 2.2 12.3 2.9 12.2 3.9 C 12.6 3.4 13.1 3.2 13.8 3.2 C 14.4 3.2 15 3.4 15.5 3.9 C 16 4.5 16.3 5.1 16.3 6 C 16.3 6.8 16 7.6 15.5 8.1 C 15 8.6 14.3 8.9 13.5 8.9 C 12.6 8.9 11.9 8.5 11.4 7.9 C 10.8 7.2 10.5 6.1 10.5 4.6 C 10.5 3 10.8 1.8 11.4 1.2 C 12 0.5 12.7 0.1 13.7 0.1 C 14.3 0.1 14.9 0.3 15.3 0.7 C 15.7 1 16 1.6 16.1 2.3 Z M 12.4 5.8 C 12.4 6.4 12.5 6.8 12.7 7.1 C 13 7.4 13.3 7.5 13.6 7.5 C 13.9 7.5 14.1 7.4 14.3 7.2 C 14.5 6.9 14.6 6.5 14.6 6 C 14.6 5.4 14.5 5 14.3 4.8 C 14.1 4.5 13.8 4.4 13.5 4.4 C 13.2 4.4 12.9 4.5 12.7 4.7 C 12.5 5 12.4 5.4 12.4 5.8 Z " stroke="none" fill="#000"/>  </g></svg>