<?xml version="1.0" standalone="no"?><!DOCTYPE svg PUBLIC "-//W3C//DTD SVG 1.1//EN" "http://www.w3.org/Graphics/SVG/1.1/DTD/svg11.dtd"><svg xmlns="http://www.w3.org/2000/svg" version="1.1" width="204px" height="54.1px" viewBox="0 -1 204 54.1" style="top:-1px">  <desc>Helpfulness</desc>  <defs/>  <g id="Polygon7647">    <path d="M 41.1 32.2 L 41.1 15 L 43.4 15 L 43.4 22.1 L 52.3 22.1 L 52.3 15 L 54.6 15 L 54.6 32.2 L 52.3 32.2 L 52.3 24.1 L 43.4 24.1 L 43.4 32.2 L 41.1 32.2 Z M 66.6 28.2 C 66.6 28.2 68.8 28.5 68.8 28.5 C 68.4 29.7 67.8 30.7 66.9 31.4 C 66 32.1 64.8 32.5 63.3 32.5 C 61.5 32.5 60.1 31.9 59 30.8 C 57.9 29.7 57.4 28.1 57.4 26.1 C 57.4 24 57.9 22.4 59 21.2 C 60.1 20 61.5 19.5 63.2 19.5 C 64.9 19.5 66.2 20 67.3 21.2 C 68.3 22.3 68.9 23.9 68.9 26 C 68.9 26.1 68.9 26.3 68.8 26.5 C 68.8 26.5 59.6 26.5 59.6 26.5 C 59.6 27.9 60 28.9 60.7 29.7 C 61.4 30.4 62.3 30.7 63.3 30.7 C 64.1 30.7 64.8 30.5 65.3 30.1 C 65.9 29.7 66.3 29.1 66.6 28.2 Z M 59.7 24.8 C 59.7 24.8 66.6 24.8 66.6 24.8 C 66.5 23.7 66.3 22.9 65.8 22.4 C 65.2 21.6 64.3 21.2 63.2 21.2 C 62.3 21.2 61.4 21.5 60.8 22.2 C 60.1 22.8 59.8 23.7 59.7 24.8 Z M 71.4 32.2 L 71.4 15 L 73.5 15 L 73.5 32.2 L 71.4 32.2 Z M 76.8 37 L 76.8 19.8 L 78.7 19.8 C 78.7 19.8 78.69 21.37 78.7 21.4 C 79.1 20.7 79.7 20.3 80.2 19.9 C 80.8 19.6 81.5 19.5 82.3 19.5 C 83.4 19.5 84.3 19.7 85.1 20.3 C 85.9 20.8 86.5 21.6 87 22.6 C 87.4 23.6 87.6 24.7 87.6 25.9 C 87.6 27.2 87.3 28.3 86.9 29.3 C 86.4 30.3 85.8 31.1 84.9 31.7 C 84 32.2 83.1 32.5 82.2 32.5 C 81.4 32.5 80.8 32.3 80.3 32 C 79.7 31.7 79.2 31.4 78.9 30.9 C 78.88 30.91 78.9 37 78.9 37 L 76.8 37 Z M 78.7 26 C 78.7 27.6 79 28.8 79.7 29.6 C 80.3 30.4 81.1 30.7 82 30.7 C 82.9 30.7 83.8 30.3 84.4 29.6 C 85.1 28.8 85.4 27.5 85.4 25.9 C 85.4 24.3 85.1 23.1 84.4 22.3 C 83.8 21.5 83 21.1 82.1 21.1 C 81.2 21.1 80.4 21.5 79.7 22.4 C 79 23.2 78.7 24.4 78.7 26 Z M 90.6 32.2 L 90.6 21.4 L 88.8 21.4 L 88.8 19.8 L 90.6 19.8 C 90.6 19.8 90.62 18.43 90.6 18.4 C 90.6 17.6 90.7 17 90.8 16.6 C 91 16 91.4 15.6 91.9 15.2 C 92.4 14.9 93.1 14.7 94.1 14.7 C 94.7 14.7 95.3 14.8 96 14.9 C 96 14.9 95.7 16.8 95.7 16.8 C 95.3 16.7 94.9 16.7 94.5 16.7 C 93.8 16.7 93.4 16.8 93.1 17.1 C 92.9 17.3 92.7 17.9 92.7 18.6 C 92.72 18.6 92.7 19.8 92.7 19.8 L 95.1 19.8 L 95.1 21.4 L 92.7 21.4 L 92.7 32.2 L 90.6 32.2 Z M 104.9 32.2 C 104.9 32.2 104.94 30.37 104.9 30.4 C 104 31.8 102.7 32.5 101 32.5 C 100.3 32.5 99.6 32.3 98.9 32.1 C 98.3 31.8 97.8 31.4 97.5 31 C 97.2 30.6 97 30 96.9 29.4 C 96.8 29 96.7 28.4 96.7 27.5 C 96.74 27.46 96.7 19.8 96.7 19.8 L 98.8 19.8 C 98.8 19.8 98.85 26.65 98.8 26.7 C 98.8 27.8 98.9 28.5 99 28.9 C 99.1 29.4 99.4 29.9 99.8 30.2 C 100.3 30.5 100.8 30.7 101.4 30.7 C 102 30.7 102.6 30.5 103.2 30.2 C 103.8 29.9 104.1 29.4 104.4 28.9 C 104.6 28.3 104.7 27.5 104.7 26.4 C 104.72 26.42 104.7 19.8 104.7 19.8 L 106.8 19.8 L 106.8 32.2 L 104.9 32.2 Z M 110.1 32.2 L 110.1 15 L 112.2 15 L 112.2 32.2 L 110.1 32.2 Z M 115.5 32.2 L 115.5 19.8 L 117.4 19.8 C 117.4 19.8 117.37 21.52 117.4 21.5 C 118.3 20.2 119.6 19.5 121.3 19.5 C 122.1 19.5 122.8 19.6 123.4 19.9 C 124 20.1 124.5 20.5 124.8 20.9 C 125.1 21.4 125.3 21.9 125.5 22.5 C 125.5 22.9 125.6 23.6 125.6 24.5 C 125.58 24.54 125.6 32.2 125.6 32.2 L 123.5 32.2 C 123.5 32.2 123.47 24.63 123.5 24.6 C 123.5 23.8 123.4 23.1 123.2 22.7 C 123.1 22.3 122.8 21.9 122.4 21.7 C 121.9 21.4 121.4 21.3 120.9 21.3 C 120 21.3 119.2 21.6 118.6 22.2 C 117.9 22.7 117.6 23.8 117.6 25.4 C 117.58 25.4 117.6 32.2 117.6 32.2 L 115.5 32.2 Z M 137.3 28.2 C 137.3 28.2 139.5 28.5 139.5 28.5 C 139.2 29.7 138.5 30.7 137.6 31.4 C 136.7 32.1 135.5 32.5 134 32.5 C 132.2 32.5 130.8 31.9 129.7 30.8 C 128.6 29.7 128.1 28.1 128.1 26.1 C 128.1 24 128.7 22.4 129.7 21.2 C 130.8 20 132.2 19.5 133.9 19.5 C 135.6 19.5 136.9 20 138 21.2 C 139.1 22.3 139.6 23.9 139.6 26 C 139.6 26.1 139.6 26.3 139.6 26.5 C 139.6 26.5 130.3 26.5 130.3 26.5 C 130.4 27.9 130.8 28.9 131.5 29.7 C 132.1 30.4 133 30.7 134.1 30.7 C 134.8 30.7 135.5 30.5 136 30.1 C 136.6 29.7 137 29.1 137.3 28.2 Z M 130.4 24.8 C 130.4 24.8 137.4 24.8 137.4 24.8 C 137.3 23.7 137 22.9 136.6 22.4 C 135.9 21.6 135 21.2 133.9 21.2 C 133 21.2 132.2 21.5 131.5 22.2 C 130.8 22.8 130.5 23.7 130.4 24.8 Z M 141.3 28.5 C 141.3 28.5 143.4 28.2 143.4 28.2 C 143.5 29 143.8 29.6 144.4 30.1 C 144.9 30.5 145.7 30.7 146.6 30.7 C 147.6 30.7 148.3 30.5 148.8 30.2 C 149.3 29.8 149.5 29.3 149.5 28.8 C 149.5 28.3 149.3 27.9 148.9 27.6 C 148.6 27.5 147.9 27.2 146.7 26.9 C 145.2 26.5 144.1 26.2 143.5 25.9 C 142.9 25.6 142.4 25.2 142.1 24.7 C 141.8 24.2 141.7 23.7 141.7 23.1 C 141.7 22.5 141.8 22 142.1 21.5 C 142.3 21 142.7 20.6 143.1 20.3 C 143.4 20.1 143.9 19.9 144.4 19.7 C 145 19.6 145.6 19.5 146.3 19.5 C 147.2 19.5 148.1 19.6 148.8 19.9 C 149.6 20.2 150.1 20.6 150.5 21 C 150.8 21.5 151.1 22.2 151.2 23 C 151.2 23 149.1 23.2 149.1 23.2 C 149 22.6 148.8 22.1 148.3 21.7 C 147.9 21.4 147.2 21.2 146.4 21.2 C 145.4 21.2 144.7 21.4 144.3 21.7 C 143.9 22 143.7 22.4 143.7 22.8 C 143.7 23.1 143.8 23.3 144 23.5 C 144.1 23.8 144.4 24 144.8 24.1 C 145 24.2 145.6 24.4 146.6 24.6 C 148.1 25 149.2 25.4 149.8 25.6 C 150.4 25.9 150.8 26.3 151.2 26.7 C 151.5 27.2 151.7 27.8 151.7 28.5 C 151.7 29.2 151.4 29.9 151 30.5 C 150.6 31.1 150 31.6 149.3 32 C 148.5 32.3 147.6 32.5 146.6 32.5 C 145 32.5 143.8 32.1 142.9 31.5 C 142.1 30.8 141.6 29.8 141.3 28.5 Z M 153.3 28.5 C 153.3 28.5 155.4 28.2 155.4 28.2 C 155.5 29 155.8 29.6 156.4 30.1 C 156.9 30.5 157.7 30.7 158.6 30.7 C 159.6 30.7 160.3 30.5 160.8 30.2 C 161.3 29.8 161.5 29.3 161.5 28.8 C 161.5 28.3 161.3 27.9 160.9 27.6 C 160.6 27.5 159.9 27.2 158.7 26.9 C 157.2 26.5 156.1 26.2 155.5 25.9 C 154.9 25.6 154.4 25.2 154.1 24.7 C 153.8 24.2 153.7 23.7 153.7 23.1 C 153.7 22.5 153.8 22 154.1 21.5 C 154.3 21 154.7 20.6 155.1 20.3 C 155.4 20.1 155.9 19.9 156.4 19.7 C 157 19.6 157.6 19.5 158.3 19.5 C 159.2 19.5 160.1 19.6 160.8 19.9 C 161.6 20.2 162.1 20.6 162.5 21 C 162.8 21.5 163.1 22.2 163.2 23 C 163.2 23 161.1 23.2 161.1 23.2 C 161 22.6 160.8 22.1 160.3 21.7 C 159.9 21.4 159.2 21.2 158.4 21.2 C 157.4 21.2 156.7 21.4 156.3 21.7 C 155.9 22 155.7 22.4 155.7 22.8 C 155.7 23.1 155.8 23.3 156 23.5 C 156.1 23.8 156.4 24 156.8 24.1 C 157 24.2 157.6 24.4 158.6 24.6 C 160.1 25 161.2 25.4 161.8 25.6 C 162.4 25.9 162.8 26.3 163.2 26.7 C 163.5 27.2 163.7 27.8 163.7 28.5 C 163.7 29.2 163.4 29.9 163 30.5 C 162.6 31.1 162 31.6 161.3 32 C 160.5 32.3 159.6 32.5 158.6 32.5 C 157 32.5 155.8 32.1 154.9 31.5 C 154.1 30.8 153.6 29.8 153.3 28.5 Z " stroke="none" fill="#000"/>  </g></svg>