<?xml version="1.0" standalone="no"?><!DOCTYPE svg PUBLIC "-//W3C//DTD SVG 1.1//EN" "http://www.w3.org/Graphics/SVG/1.1/DTD/svg11.dtd"><svg xmlns="http://www.w3.org/2000/svg" version="1.1" width="152.1px" height="59.4px" viewBox="0 -1 152.1 59.4" style="top:-1px">  <desc>Client Feedback</desc>  <defs/>  <g id="Polygon45561">    <path d="M 27.6 28.9 C 27.6 28.9 29.1 29.3 29.1 29.3 C 28.8 30.5 28.3 31.5 27.4 32.1 C 26.6 32.8 25.6 33.1 24.4 33.1 C 23.2 33.1 22.2 32.9 21.4 32.4 C 20.6 31.9 20 31.1 19.6 30.2 C 19.2 29.2 19 28.2 19 27.1 C 19 25.9 19.2 24.9 19.7 24 C 20.2 23.1 20.8 22.4 21.7 22 C 22.5 21.5 23.4 21.3 24.4 21.3 C 25.6 21.3 26.5 21.6 27.3 22.1 C 28.1 22.7 28.6 23.5 29 24.6 C 29 24.6 27.5 25 27.5 25 C 27.2 24.1 26.8 23.5 26.3 23.1 C 25.8 22.8 25.2 22.6 24.4 22.6 C 23.5 22.6 22.8 22.8 22.2 23.2 C 21.6 23.6 21.2 24.2 20.9 24.9 C 20.7 25.6 20.6 26.3 20.6 27.1 C 20.6 28.1 20.7 28.9 21 29.6 C 21.3 30.4 21.7 30.9 22.3 31.3 C 22.9 31.6 23.6 31.8 24.3 31.8 C 25.1 31.8 25.8 31.6 26.4 31.1 C 27 30.6 27.4 29.9 27.6 28.9 Z M 30.8 32.9 L 30.8 21.5 L 32.2 21.5 L 32.2 32.9 L 30.8 32.9 Z M 34.4 23.1 L 34.4 21.5 L 35.8 21.5 L 35.8 23.1 L 34.4 23.1 Z M 34.4 32.9 L 34.4 24.6 L 35.8 24.6 L 35.8 32.9 L 34.4 32.9 Z M 43.6 30.2 C 43.6 30.2 45.1 30.4 45.1 30.4 C 44.8 31.3 44.4 31.9 43.8 32.4 C 43.2 32.9 42.4 33.1 41.4 33.1 C 40.2 33.1 39.3 32.7 38.5 32 C 37.8 31.2 37.5 30.2 37.5 28.8 C 37.5 27.4 37.8 26.4 38.6 25.6 C 39.3 24.8 40.2 24.4 41.4 24.4 C 42.5 24.4 43.4 24.8 44.1 25.6 C 44.8 26.3 45.1 27.4 45.1 28.8 C 45.1 28.8 45.1 29 45.1 29.1 C 45.1 29.1 38.9 29.1 38.9 29.1 C 39 30 39.2 30.7 39.7 31.2 C 40.2 31.7 40.7 31.9 41.4 31.9 C 42 31.9 42.4 31.8 42.8 31.5 C 43.1 31.3 43.4 30.8 43.6 30.2 Z M 39 28 C 39 28 43.6 28 43.6 28 C 43.6 27.3 43.4 26.8 43.1 26.4 C 42.7 25.9 42.1 25.6 41.4 25.6 C 40.7 25.6 40.2 25.8 39.7 26.2 C 39.3 26.7 39.1 27.2 39 28 Z M 46.8 32.9 L 46.8 24.6 L 48.1 24.6 C 48.1 24.6 48.11 25.8 48.1 25.8 C 48.7 24.9 49.6 24.4 50.7 24.4 C 51.2 24.4 51.7 24.5 52.1 24.7 C 52.5 24.9 52.9 25.1 53.1 25.4 C 53.3 25.7 53.4 26 53.5 26.4 C 53.6 26.7 53.6 27.2 53.6 27.8 C 53.58 27.82 53.6 32.9 53.6 32.9 L 52.2 32.9 C 52.2 32.9 52.18 27.87 52.2 27.9 C 52.2 27.3 52.1 26.9 52 26.6 C 51.9 26.3 51.7 26.1 51.4 25.9 C 51.2 25.7 50.8 25.7 50.5 25.7 C 49.9 25.7 49.3 25.8 48.9 26.2 C 48.5 26.6 48.2 27.3 48.2 28.4 C 48.25 28.39 48.2 32.9 48.2 32.9 L 46.8 32.9 Z M 58.2 31.7 C 58.4 31.7 58.6 31.7 58.8 31.7 C 58.8 31.7 59 32.9 59 32.9 C 58.6 33 58.3 33 58 33 C 57.4 33 57 32.9 56.8 32.8 C 56.5 32.6 56.3 32.4 56.2 32.1 C 56.1 31.9 56 31.3 56 30.5 C 56 30.49 56 25.7 56 25.7 L 55 25.7 L 55 24.6 L 56 24.6 L 56 22.6 L 57.4 21.7 L 57.4 24.6 L 58.8 24.6 L 58.8 25.7 L 57.4 25.7 C 57.4 25.7 57.4 30.57 57.4 30.6 C 57.4 31 57.4 31.2 57.5 31.3 C 57.5 31.5 57.6 31.5 57.7 31.6 C 57.8 31.7 58 31.7 58.2 31.7 C 58.2 31.7 58.2 31.7 58.2 31.7 Z M 64.9 32.9 L 64.9 21.5 L 72.6 21.5 L 72.6 22.8 L 66.4 22.8 L 66.4 26.4 L 71.8 26.4 L 71.8 27.7 L 66.4 27.7 L 66.4 32.9 L 64.9 32.9 Z M 80.1 30.2 C 80.1 30.2 81.5 30.4 81.5 30.4 C 81.3 31.3 80.9 31.9 80.3 32.4 C 79.6 32.9 78.9 33.1 77.9 33.1 C 76.7 33.1 75.7 32.7 75 32 C 74.3 31.2 73.9 30.2 73.9 28.8 C 73.9 27.4 74.3 26.4 75 25.6 C 75.7 24.8 76.7 24.4 77.8 24.4 C 78.9 24.4 79.8 24.8 80.5 25.6 C 81.2 26.3 81.6 27.4 81.6 28.8 C 81.6 28.8 81.6 29 81.6 29.1 C 81.6 29.1 75.4 29.1 75.4 29.1 C 75.4 30 75.7 30.7 76.2 31.2 C 76.6 31.7 77.2 31.9 77.9 31.9 C 78.4 31.9 78.9 31.8 79.2 31.5 C 79.6 31.3 79.9 30.8 80.1 30.2 Z M 75.5 28 C 75.5 28 80.1 28 80.1 28 C 80 27.3 79.9 26.8 79.6 26.4 C 79.1 25.9 78.5 25.6 77.8 25.6 C 77.2 25.6 76.6 25.8 76.2 26.2 C 75.8 26.7 75.5 27.2 75.5 28 Z M 89 30.2 C 89 30.2 90.4 30.4 90.4 30.4 C 90.2 31.3 89.8 31.9 89.2 32.4 C 88.5 32.9 87.8 33.1 86.8 33.1 C 85.6 33.1 84.6 32.7 83.9 32 C 83.2 31.2 82.8 30.2 82.8 28.8 C 82.8 27.4 83.2 26.4 83.9 25.6 C 84.6 24.8 85.6 24.4 86.7 24.4 C 87.8 24.4 88.7 24.8 89.4 25.6 C 90.1 26.3 90.5 27.4 90.5 28.8 C 90.5 28.8 90.5 29 90.5 29.1 C 90.5 29.1 84.3 29.1 84.3 29.1 C 84.3 30 84.6 30.7 85.1 31.2 C 85.5 31.7 86.1 31.9 86.8 31.9 C 87.3 31.9 87.8 31.8 88.1 31.5 C 88.5 31.3 88.8 30.8 89 30.2 Z M 84.4 28 C 84.4 28 89 28 89 28 C 88.9 27.3 88.8 26.8 88.5 26.4 C 88 25.9 87.4 25.6 86.7 25.6 C 86.1 25.6 85.5 25.8 85.1 26.2 C 84.7 26.7 84.4 27.2 84.4 28 Z M 97.6 32.9 C 97.6 32.9 97.58 31.87 97.6 31.9 C 97.1 32.7 96.3 33.1 95.3 33.1 C 94.6 33.1 94 32.9 93.4 32.6 C 92.9 32.2 92.5 31.7 92.2 31 C 91.8 30.4 91.7 29.6 91.7 28.8 C 91.7 27.9 91.8 27.2 92.1 26.5 C 92.4 25.8 92.8 25.3 93.4 25 C 93.9 24.6 94.5 24.4 95.2 24.4 C 95.7 24.4 96.1 24.5 96.5 24.7 C 96.9 25 97.2 25.2 97.5 25.6 C 97.49 25.57 97.5 21.5 97.5 21.5 L 98.9 21.5 L 98.9 32.9 L 97.6 32.9 Z M 93.1 28.8 C 93.1 29.8 93.4 30.6 93.8 31.2 C 94.3 31.7 94.8 31.9 95.4 31.9 C 96 31.9 96.5 31.7 97 31.2 C 97.4 30.7 97.6 29.9 97.6 28.9 C 97.6 27.8 97.4 26.9 97 26.4 C 96.5 25.9 96 25.6 95.3 25.6 C 94.7 25.6 94.2 25.9 93.8 26.4 C 93.3 26.9 93.1 27.7 93.1 28.8 Z M 102.4 32.9 L 101.1 32.9 L 101.1 21.5 L 102.5 21.5 C 102.5 21.5 102.5 25.55 102.5 25.6 C 103.1 24.8 103.9 24.4 104.8 24.4 C 105.3 24.4 105.8 24.5 106.2 24.7 C 106.7 24.9 107.1 25.2 107.3 25.6 C 107.6 26 107.9 26.4 108 27 C 108.2 27.5 108.3 28 108.3 28.6 C 108.3 30.1 107.9 31.2 107.2 31.9 C 106.5 32.7 105.7 33.1 104.7 33.1 C 103.7 33.1 103 32.7 102.4 31.9 C 102.4 31.88 102.4 32.9 102.4 32.9 Z M 102.4 28.7 C 102.4 29.7 102.5 30.4 102.8 30.9 C 103.2 31.6 103.8 31.9 104.6 31.9 C 105.2 31.9 105.7 31.7 106.2 31.1 C 106.6 30.6 106.9 29.8 106.9 28.8 C 106.9 27.7 106.6 26.9 106.2 26.4 C 105.8 25.8 105.3 25.6 104.6 25.6 C 104 25.6 103.5 25.9 103.1 26.4 C 102.6 26.9 102.4 27.7 102.4 28.7 Z M 115.7 32.9 C 115.5 32.6 115.5 32.3 115.4 31.9 C 114.9 32.3 114.4 32.6 113.9 32.8 C 113.4 33 112.9 33.1 112.4 33.1 C 111.4 33.1 110.7 32.9 110.3 32.4 C 109.8 32 109.5 31.4 109.5 30.7 C 109.5 30.3 109.6 30 109.8 29.6 C 110 29.3 110.2 29 110.5 28.8 C 110.8 28.6 111.2 28.5 111.5 28.3 C 111.8 28.3 112.2 28.2 112.8 28.1 C 113.9 28 114.8 27.8 115.3 27.7 C 115.3 27.5 115.3 27.3 115.3 27.3 C 115.3 26.7 115.2 26.3 114.9 26.1 C 114.5 25.8 114 25.6 113.3 25.6 C 112.6 25.6 112.2 25.7 111.8 25.9 C 111.5 26.2 111.3 26.6 111.1 27.2 C 111.1 27.2 109.8 27 109.8 27 C 109.9 26.4 110.1 25.9 110.4 25.6 C 110.7 25.2 111.1 24.9 111.6 24.7 C 112.2 24.5 112.8 24.4 113.5 24.4 C 114.2 24.4 114.8 24.5 115.2 24.7 C 115.7 24.8 116 25.1 116.2 25.3 C 116.4 25.6 116.6 25.9 116.6 26.3 C 116.7 26.5 116.7 26.9 116.7 27.6 C 116.7 27.6 116.7 29.4 116.7 29.4 C 116.7 30.7 116.7 31.6 116.8 31.9 C 116.9 32.3 117 32.6 117.2 32.9 C 117.16 32.92 115.7 32.9 115.7 32.9 C 115.7 32.9 115.69 32.92 115.7 32.9 Z M 115.3 28.8 C 114.8 29 114 29.1 113 29.3 C 112.4 29.4 112 29.5 111.8 29.6 C 111.5 29.7 111.3 29.8 111.2 30 C 111.1 30.2 111 30.4 111 30.7 C 111 31.1 111.2 31.4 111.4 31.6 C 111.7 31.9 112.1 32 112.7 32 C 113.2 32 113.7 31.9 114.1 31.6 C 114.6 31.4 114.9 31.1 115.1 30.7 C 115.2 30.4 115.3 29.9 115.3 29.3 C 115.3 29.3 115.3 28.8 115.3 28.8 Z M 124.3 29.9 C 124.3 29.9 125.7 30.1 125.7 30.1 C 125.5 31 125.2 31.8 124.5 32.3 C 123.9 32.8 123.1 33.1 122.2 33.1 C 121.1 33.1 120.2 32.7 119.5 32 C 118.8 31.2 118.5 30.2 118.5 28.8 C 118.5 27.9 118.6 27.1 118.9 26.4 C 119.2 25.8 119.7 25.3 120.3 24.9 C 120.9 24.6 121.5 24.4 122.2 24.4 C 123.1 24.4 123.9 24.7 124.5 25.1 C 125 25.6 125.4 26.2 125.6 27.1 C 125.6 27.1 124.2 27.3 124.2 27.3 C 124.1 26.7 123.8 26.3 123.5 26 C 123.2 25.7 122.8 25.6 122.3 25.6 C 121.6 25.6 121 25.8 120.6 26.4 C 120.1 26.9 119.9 27.7 119.9 28.8 C 119.9 29.9 120.1 30.7 120.6 31.2 C 121 31.7 121.5 31.9 122.2 31.9 C 122.8 31.9 123.2 31.8 123.6 31.4 C 124 31.1 124.2 30.6 124.3 29.9 Z M 126.9 32.9 L 126.9 21.5 L 128.3 21.5 L 128.3 28 L 131.6 24.6 L 133.5 24.6 L 130.3 27.7 L 133.8 32.9 L 132 32.9 L 129.3 28.7 L 128.3 29.6 L 128.3 32.9 L 126.9 32.9 Z " stroke="none" fill="#fff"/>  </g></svg>