<?xml version="1.0" standalone="no"?><!DOCTYPE svg PUBLIC "-//W3C//DTD SVG 1.1//EN" "http://www.w3.org/Graphics/SVG/1.1/DTD/svg11.dtd"><svg xmlns="http://www.w3.org/2000/svg" version="1.1" width="63px" height="27.5px" viewBox="0 -1 63 27.5" style="top:-1px">  <desc>Reliability</desc>  <defs/>  <g id="Polygon47168">    <path d="M 6.8 16.1 L 6.8 7.5 C 6.8 7.5 10.56 7.49 10.6 7.5 C 11.3 7.5 11.9 7.6 12.3 7.7 C 12.7 7.9 13 8.2 13.3 8.5 C 13.5 8.9 13.6 9.4 13.6 9.8 C 13.6 10.4 13.4 11 13 11.4 C 12.6 11.8 12 12.1 11.2 12.2 C 11.5 12.3 11.7 12.5 11.9 12.6 C 12.2 12.9 12.5 13.3 12.8 13.7 C 12.83 13.74 14.3 16.1 14.3 16.1 L 12.9 16.1 C 12.9 16.1 11.76 14.29 11.8 14.3 C 11.4 13.8 11.2 13.4 10.9 13.1 C 10.7 12.8 10.5 12.6 10.4 12.5 C 10.2 12.4 10 12.4 9.8 12.3 C 9.7 12.3 9.5 12.3 9.2 12.3 C 9.21 12.27 7.9 12.3 7.9 12.3 L 7.9 16.1 L 6.8 16.1 Z M 7.9 11.3 C 7.9 11.3 10.33 11.28 10.3 11.3 C 10.9 11.3 11.3 11.2 11.6 11.1 C 11.8 11 12.1 10.8 12.2 10.6 C 12.4 10.4 12.4 10.1 12.4 9.8 C 12.4 9.4 12.3 9.1 12 8.8 C 11.7 8.6 11.2 8.4 10.6 8.4 C 10.61 8.44 7.9 8.4 7.9 8.4 L 7.9 11.3 Z M 19.5 14.1 C 19.5 14.1 20.6 14.2 20.6 14.2 C 20.4 14.8 20.1 15.3 19.7 15.7 C 19.2 16 18.6 16.2 17.9 16.2 C 17 16.2 16.2 15.9 15.7 15.4 C 15.2 14.8 14.9 14 14.9 13 C 14.9 12 15.2 11.2 15.7 10.6 C 16.3 10 17 9.7 17.8 9.7 C 18.7 9.7 19.3 10 19.9 10.6 C 20.4 11.1 20.7 11.9 20.7 13 C 20.7 13 20.6 13.1 20.6 13.2 C 20.6 13.2 16 13.2 16 13.2 C 16 13.9 16.2 14.4 16.6 14.8 C 16.9 15.2 17.4 15.4 17.9 15.4 C 18.3 15.4 18.6 15.3 18.9 15.1 C 19.1 14.8 19.4 14.5 19.5 14.1 Z M 16.1 12.4 C 16.1 12.4 19.5 12.4 19.5 12.4 C 19.5 11.8 19.4 11.5 19.1 11.2 C 18.8 10.8 18.4 10.6 17.8 10.6 C 17.3 10.6 16.9 10.7 16.6 11.1 C 16.3 11.4 16.1 11.8 16.1 12.4 Z M 21.9 16.1 L 21.9 7.5 L 23 7.5 L 23 16.1 L 21.9 16.1 Z M 24.6 8.7 L 24.6 7.5 L 25.7 7.5 L 25.7 8.7 L 24.6 8.7 Z M 24.6 16.1 L 24.6 9.9 L 25.7 9.9 L 25.7 16.1 L 24.6 16.1 Z M 31.5 16.1 C 31.4 15.9 31.4 15.6 31.3 15.3 C 30.9 15.6 30.6 15.9 30.2 16 C 29.8 16.2 29.5 16.2 29 16.2 C 28.4 16.2 27.8 16.1 27.5 15.7 C 27.1 15.4 26.9 15 26.9 14.4 C 26.9 14.1 27 13.9 27.1 13.6 C 27.3 13.4 27.4 13.2 27.7 13 C 27.9 12.8 28.1 12.7 28.4 12.7 C 28.6 12.6 28.9 12.5 29.4 12.5 C 30.2 12.4 30.8 12.3 31.2 12.1 C 31.2 12 31.3 11.9 31.3 11.9 C 31.3 11.4 31.2 11.1 31 10.9 C 30.7 10.7 30.3 10.6 29.8 10.6 C 29.3 10.6 28.9 10.7 28.7 10.9 C 28.4 11 28.2 11.3 28.1 11.8 C 28.1 11.8 27.1 11.6 27.1 11.6 C 27.2 11.2 27.3 10.8 27.6 10.6 C 27.8 10.3 28.1 10.1 28.5 9.9 C 28.9 9.8 29.4 9.7 29.9 9.7 C 30.4 9.7 30.9 9.8 31.2 9.9 C 31.5 10 31.8 10.2 31.9 10.4 C 32.1 10.6 32.2 10.8 32.3 11.1 C 32.3 11.3 32.3 11.6 32.3 12.1 C 32.3 12.1 32.3 13.5 32.3 13.5 C 32.3 14.5 32.3 15.1 32.4 15.3 C 32.4 15.6 32.5 15.8 32.6 16.1 C 32.65 16.08 31.5 16.1 31.5 16.1 C 31.5 16.1 31.54 16.08 31.5 16.1 Z M 31.2 13 C 30.9 13.1 30.3 13.2 29.5 13.4 C 29.1 13.4 28.8 13.5 28.6 13.6 C 28.4 13.6 28.3 13.8 28.2 13.9 C 28.1 14.1 28 14.2 28 14.4 C 28 14.7 28.1 14.9 28.4 15.1 C 28.6 15.3 28.9 15.4 29.3 15.4 C 29.7 15.4 30.1 15.3 30.4 15.1 C 30.7 15 30.9 14.7 31.1 14.4 C 31.2 14.2 31.2 13.8 31.2 13.3 C 31.2 13.3 31.2 13 31.2 13 Z M 34.9 16.1 L 33.9 16.1 L 33.9 7.5 L 35 7.5 C 35 7.5 35 10.56 35 10.6 C 35.4 10 36 9.7 36.7 9.7 C 37.1 9.7 37.4 9.8 37.8 10 C 38.1 10.1 38.4 10.3 38.6 10.6 C 38.9 10.9 39 11.2 39.1 11.6 C 39.3 12 39.3 12.4 39.3 12.9 C 39.3 13.9 39.1 14.8 38.5 15.3 C 38 15.9 37.4 16.2 36.6 16.2 C 35.9 16.2 35.3 15.9 34.9 15.3 C 34.92 15.3 34.9 16.1 34.9 16.1 Z M 34.9 12.9 C 34.9 13.7 35 14.2 35.2 14.5 C 35.5 15.1 36 15.4 36.6 15.4 C 37 15.4 37.4 15.2 37.8 14.8 C 38.1 14.4 38.3 13.8 38.3 13 C 38.3 12.2 38.1 11.6 37.8 11.2 C 37.5 10.8 37.1 10.6 36.6 10.6 C 36.1 10.6 35.7 10.8 35.4 11.2 C 35.1 11.6 34.9 12.2 34.9 12.9 Z M 40.6 8.7 L 40.6 7.5 L 41.7 7.5 L 41.7 8.7 L 40.6 8.7 Z M 40.6 16.1 L 40.6 9.9 L 41.7 9.9 L 41.7 16.1 L 40.6 16.1 Z M 43.3 16.1 L 43.3 7.5 L 44.3 7.5 L 44.3 16.1 L 43.3 16.1 Z M 46 8.7 L 46 7.5 L 47 7.5 L 47 8.7 L 46 8.7 Z M 46 16.1 L 46 9.9 L 47 9.9 L 47 16.1 L 46 16.1 Z M 50.5 15.2 C 50.6 15.2 50.7 15.2 50.9 15.1 C 50.9 15.1 51.1 16.1 51.1 16.1 C 50.8 16.1 50.5 16.2 50.3 16.2 C 49.9 16.2 49.6 16.1 49.4 16 C 49.2 15.9 49 15.7 48.9 15.5 C 48.9 15.3 48.8 14.9 48.8 14.3 C 48.81 14.26 48.8 10.7 48.8 10.7 L 48 10.7 L 48 9.9 L 48.8 9.9 L 48.8 8.3 L 49.9 7.7 L 49.9 9.9 L 50.9 9.9 L 50.9 10.7 L 49.9 10.7 C 49.9 10.7 49.86 14.32 49.9 14.3 C 49.9 14.6 49.9 14.8 49.9 14.9 C 50 15 50 15.1 50.1 15.1 C 50.2 15.2 50.3 15.2 50.5 15.2 C 50.5 15.2 50.5 15.2 50.5 15.2 Z M 52.6 18.6 C 52.4 18.6 52.2 18.6 51.9 18.5 C 51.9 18.5 51.8 17.5 51.8 17.5 C 52 17.6 52.2 17.6 52.4 17.6 C 52.6 17.6 52.8 17.5 53 17.5 C 53.1 17.4 53.2 17.3 53.3 17.1 C 53.4 17 53.5 16.8 53.6 16.4 C 53.6 16.3 53.7 16.2 53.7 16.1 C 53.72 16.09 51.4 9.9 51.4 9.9 L 52.5 9.9 C 52.5 9.9 53.79 13.46 53.8 13.5 C 54 13.9 54.1 14.4 54.2 14.9 C 54.4 14.4 54.5 13.9 54.7 13.5 C 54.67 13.49 56 9.9 56 9.9 L 57.1 9.9 C 57.1 9.9 54.69 16.19 54.7 16.2 C 54.4 16.9 54.2 17.3 54.1 17.6 C 53.9 17.9 53.7 18.2 53.5 18.4 C 53.2 18.5 52.9 18.6 52.6 18.6 C 52.6 18.6 52.6 18.6 52.6 18.6 Z " stroke="none" fill="#000"/>  </g></svg>