<?xml version="1.0" standalone="no"?><!DOCTYPE svg PUBLIC "-//W3C//DTD SVG 1.1//EN" "http://www.w3.org/Graphics/SVG/1.1/DTD/svg11.dtd"><svg xmlns="http://www.w3.org/2000/svg" version="1.1" width="61.4px" height="39.1px" viewBox="0 -8 61.4 39.1" style="top:-8px">  <desc>1 30</desc>  <defs/>  <g id="Polygon10867">    <path d="M 8.9 17.5 L 6.8 17.5 C 6.8 17.5 6.83 4.03 6.8 4 C 6.3 4.5 5.7 5 4.8 5.5 C 4 6 3.3 6.3 2.6 6.6 C 2.6 6.6 2.6 4.5 2.6 4.5 C 3.8 4 4.8 3.3 5.7 2.5 C 6.6 1.7 7.2 1 7.6 0.2 C 7.58 0.22 8.9 0.2 8.9 0.2 L 8.9 17.5 Z M 20.8 12.3 L 20.8 10.2 L 27.3 10.2 L 27.3 12.3 L 20.8 12.3 Z M 35.7 12.9 C 35.7 12.9 37.8 12.7 37.8 12.7 C 38 13.9 38.4 14.7 39 15.2 C 39.6 15.8 40.3 16 41.2 16 C 42.1 16 43 15.7 43.7 15 C 44.4 14.3 44.7 13.5 44.7 12.4 C 44.7 11.5 44.4 10.7 43.7 10 C 43.1 9.4 42.3 9.1 41.3 9.1 C 40.9 9.1 40.4 9.2 39.8 9.3 C 39.8 9.3 40.1 7.5 40.1 7.5 C 40.2 7.5 40.3 7.5 40.4 7.5 C 41.3 7.5 42.1 7.3 42.8 6.8 C 43.6 6.3 43.9 5.6 43.9 4.6 C 43.9 3.9 43.7 3.2 43.1 2.7 C 42.6 2.2 41.9 2 41.1 2 C 40.3 2 39.6 2.2 39.1 2.7 C 38.5 3.2 38.2 4 38 5.1 C 38 5.1 35.9 4.7 35.9 4.7 C 36.2 3.3 36.7 2.2 37.7 1.4 C 38.6 0.6 39.7 0.2 41.1 0.2 C 42 0.2 42.9 0.4 43.7 0.8 C 44.4 1.2 45 1.8 45.5 2.5 C 45.9 3.2 46.1 3.9 46.1 4.7 C 46.1 5.4 45.9 6.1 45.5 6.7 C 45.1 7.3 44.5 7.8 43.7 8.2 C 44.7 8.4 45.5 8.9 46.1 9.6 C 46.7 10.4 46.9 11.3 46.9 12.4 C 46.9 13.9 46.4 15.2 45.3 16.2 C 44.2 17.3 42.8 17.8 41.1 17.8 C 39.6 17.8 38.4 17.3 37.4 16.4 C 36.4 15.5 35.8 14.4 35.7 12.9 Z M 50.7 16 C 49.6 14.6 49 12.2 49 9 C 49 7 49.2 5.3 49.6 4.1 C 50.1 2.9 50.7 1.9 51.5 1.2 C 52.3 0.6 53.4 0.2 54.6 0.2 C 55.5 0.2 56.4 0.4 57 0.8 C 57.7 1.2 58.3 1.7 58.8 2.4 C 59.2 3.1 59.6 3.9 59.8 4.9 C 60.1 5.9 60.2 7.3 60.2 9 C 60.2 11 60 12.6 59.6 13.9 C 59.2 15.1 58.6 16.1 57.7 16.8 C 56.9 17.4 55.9 17.8 54.6 17.8 C 53 17.8 51.7 17.2 50.7 16 C 50.7 16 50.7 16 50.7 16 Z M 52.3 3.2 C 51.6 4.2 51.2 6.2 51.2 9 C 51.2 11.8 51.5 13.7 52.2 14.6 C 52.8 15.6 53.7 16 54.6 16 C 55.6 16 56.4 15.6 57.1 14.6 C 57.7 13.7 58.1 11.8 58.1 9 C 58.1 6.2 57.7 4.3 57.1 3.4 C 56.4 2.4 55.6 2 54.6 2 C 53.6 2 52.9 2.4 52.3 3.2 C 52.3 3.2 52.3 3.2 52.3 3.2 Z " stroke="none" fill="#000"/>  </g></svg>