<?xml version="1.0" standalone="no"?><!DOCTYPE svg PUBLIC "-//W3C//DTD SVG 1.1//EN" "http://www.w3.org/Graphics/SVG/1.1/DTD/svg11.dtd"><svg xmlns="http://www.w3.org/2000/svg" version="1.1" width="1079.2px" height="36.4px" viewBox="0 -6 1079.2 36.4" style="top:-6px">  <desc>“when services are perceived to be similar, it is the people and the way of working that make all the difference”</desc>  <defs/>  <g id="Polygon51333">    <path d="M 9.1 4.5 C 9.1 2.9 10.1 1.4 11.9 0.9 C 11.9 0.9 11.9 1.3 11.9 1.3 C 11.2 2 10.9 2.5 10.9 3.7 C 11.6 3.9 12.1 4.4 12.1 5.2 C 12.1 6 11.5 6.7 10.7 6.7 C 9.7 6.7 9.1 5.7 9.1 4.5 Z M 13.8 4.5 C 13.8 3 14.7 1.4 16.6 0.9 C 16.6 0.9 16.6 1.3 16.6 1.3 C 15.9 2 15.6 2.6 15.6 3.7 C 16.3 3.9 16.8 4.3 16.8 5.2 C 16.8 5.9 16.2 6.7 15.4 6.7 C 14.4 6.7 13.8 5.7 13.8 4.5 Z M 20.3 6.6 L 23 13 L 25.7 6.6 L 27.3 6.6 L 29.9 13 L 32.7 6.6 L 34.9 6.6 L 30.3 17.3 L 29.6 17.3 L 26.5 10 L 23.4 17.3 L 22.7 17.3 L 18 6.6 L 20.3 6.6 Z M 45.3 10.5 C 45.33 10.53 45.3 17.1 45.3 17.1 L 43.2 17.1 C 43.2 17.1 43.24 10.57 43.2 10.6 C 43.2 8.9 42.5 8.1 41.2 8.1 C 40.2 8.1 39.5 8.5 38.5 9.6 C 38.54 9.56 38.5 17.1 38.5 17.1 L 36.5 17.1 L 36.5 1.1 L 38.5 1.1 C 38.5 1.1 38.54 7.97 38.5 8 C 39.4 7 40.5 6.4 41.8 6.4 C 44.2 6.4 45.3 8 45.3 10.5 Z M 57.1 11.8 C 57.13 11.82 57.1 12 57.1 12 C 57.1 12 49.71 12.03 49.7 12 C 49.8 14 51.1 15.3 53.1 15.3 C 54.5 15.3 55.8 14.9 56.9 14.1 C 56.9 14.1 56.9 16.1 56.9 16.1 C 55.6 17 54.3 17.3 52.8 17.3 C 50 17.3 47.6 15.3 47.6 11.8 C 47.6 8.7 49.5 6.4 52.5 6.4 C 55.2 6.4 57.1 8.4 57.1 11.8 Z M 55.1 10.8 C 55 9.2 54.1 8.2 52.5 8.2 C 51 8.2 49.9 9.3 49.8 10.8 C 49.8 10.8 55.1 10.8 55.1 10.8 Z M 68.4 10.8 C 68.41 10.76 68.4 17.1 68.4 17.1 L 66.3 17.1 C 66.3 17.1 66.32 10.81 66.3 10.8 C 66.3 8.6 65.3 8.1 64.2 8.1 C 63.2 8.1 62.3 8.7 61.6 9.6 C 61.62 9.59 61.6 17.1 61.6 17.1 L 59.5 17.1 L 59.5 6.6 L 61.6 6.6 C 61.6 6.6 61.62 7.92 61.6 7.9 C 62.6 6.8 63.9 6.4 64.8 6.4 C 67.1 6.4 68.4 8 68.4 10.8 Z M 80.7 6.4 C 81.8 6.4 82.9 6.7 83.9 7.2 C 83.9 7.2 83.9 9.3 83.9 9.3 C 82.7 8.6 81.9 8.2 80.9 8.2 C 79.9 8.2 79.5 8.6 79.5 9 C 79.5 9.5 79.7 9.8 81.6 10.9 C 82.9 11.7 84.5 12.6 84.5 14.3 C 84.5 15.6 83.5 17.3 80.8 17.3 C 79.7 17.3 78.9 17.2 77.3 16.4 C 77.3 16.4 77.3 14.1 77.3 14.1 C 78.3 14.9 79.7 15.5 80.7 15.5 C 81.9 15.5 82.3 15 82.3 14.5 C 82.3 13.9 82.1 13.7 79.8 12.3 C 78.4 11.4 77.4 10.6 77.4 9.1 C 77.4 7.5 78.8 6.4 80.7 6.4 Z M 95.8 11.8 C 95.79 11.82 95.8 12 95.8 12 C 95.8 12 88.36 12.03 88.4 12 C 88.5 14 89.8 15.3 91.8 15.3 C 93.1 15.3 94.5 14.9 95.6 14.1 C 95.6 14.1 95.6 16.1 95.6 16.1 C 94.2 17 93 17.3 91.5 17.3 C 88.7 17.3 86.2 15.3 86.2 11.8 C 86.2 8.7 88.2 6.4 91.2 6.4 C 93.8 6.4 95.8 8.4 95.8 11.8 Z M 93.7 10.8 C 93.6 9.2 92.7 8.2 91.2 8.2 C 89.7 8.2 88.5 9.3 88.4 10.8 C 88.4 10.8 93.7 10.8 93.7 10.8 Z M 105.8 7.6 C 105.8 7.6 104.6 9.4 104.6 9.4 C 104 8.8 103.2 8.4 102.6 8.4 C 101.6 8.4 100.1 9.5 100.1 11.5 C 100.14 11.51 100.1 17.1 100.1 17.1 L 98 17.1 L 98 6.6 L 100.1 6.6 C 100.1 6.6 100.14 9 100.1 9 C 101.3 7 102.3 6.4 103.3 6.4 C 104.2 6.4 105 6.9 105.8 7.6 Z M 108.8 6.6 L 111.6 13.1 L 114.4 6.6 L 116.6 6.6 L 112 17.3 L 111.3 17.3 L 106.5 6.6 L 108.8 6.6 Z M 120.4 3.4 C 120.4 4 119.9 4.6 119.2 4.6 C 118.5 4.6 118 4 118 3.4 C 118 2.7 118.5 2.1 119.2 2.1 C 119.9 2.1 120.4 2.7 120.4 3.4 Z M 120.3 6.6 L 120.3 17.1 L 118.2 17.1 L 118.2 6.6 L 120.3 6.6 Z M 130.9 7.1 C 130.9 7.1 130.9 9.3 130.9 9.3 C 129.8 8.6 129 8.3 128 8.3 C 125.9 8.3 124.8 10.1 124.8 11.8 C 124.8 13.3 125.5 15.4 128.4 15.4 C 129.5 15.4 130.3 15 131.1 14.7 C 131.1 14.7 131.1 16.7 131.1 16.7 C 130.1 17.1 129.1 17.3 128.1 17.3 C 124 17.3 122.6 14.3 122.6 12 C 122.6 8.5 124.8 6.4 127.8 6.4 C 128.8 6.4 129.7 6.6 130.9 7.1 Z M 142.4 11.8 C 142.41 11.82 142.4 12 142.4 12 C 142.4 12 134.99 12.03 135 12 C 135.1 14 136.4 15.3 138.4 15.3 C 139.8 15.3 141.1 14.9 142.2 14.1 C 142.2 14.1 142.2 16.1 142.2 16.1 C 140.8 17 139.6 17.3 138.1 17.3 C 135.3 17.3 132.9 15.3 132.9 11.8 C 132.9 8.7 134.8 6.4 137.8 6.4 C 140.4 6.4 142.4 8.4 142.4 11.8 Z M 140.3 10.8 C 140.2 9.2 139.4 8.2 137.8 8.2 C 136.3 8.2 135.1 9.3 135 10.8 C 135 10.8 140.3 10.8 140.3 10.8 Z M 147.7 6.4 C 148.8 6.4 149.8 6.7 150.9 7.2 C 150.9 7.2 150.9 9.3 150.9 9.3 C 149.7 8.6 148.8 8.2 147.8 8.2 C 146.9 8.2 146.5 8.6 146.5 9 C 146.5 9.5 146.6 9.8 148.6 10.9 C 149.8 11.7 151.4 12.6 151.4 14.3 C 151.4 15.6 150.4 17.3 147.8 17.3 C 146.6 17.3 145.8 17.2 144.2 16.4 C 144.2 16.4 144.2 14.1 144.2 14.1 C 145.2 14.9 146.6 15.5 147.6 15.5 C 148.8 15.5 149.2 15 149.2 14.5 C 149.2 13.9 149 13.7 146.7 12.3 C 145.3 11.4 144.3 10.6 144.3 9.1 C 144.3 7.5 145.7 6.4 147.7 6.4 Z M 167.1 9.8 C 167.1 9.8 167.1 15.1 167.1 15.1 C 167.1 15.4 167.2 15.6 167.5 15.6 C 167.7 15.6 168.1 15.4 168.6 15 C 168.6 15 168.6 16.5 168.6 16.5 C 167.8 17.1 167.1 17.3 166.4 17.3 C 165.7 17.3 165.2 17 165 16.3 C 164.1 17 163.1 17.3 162.2 17.3 C 160.6 17.3 159.6 16.1 159.6 14.8 C 159.6 12.8 160.9 12.1 165 10.8 C 165 10.8 165 10.2 165 10.2 C 165 8.9 164.4 8.3 163.1 8.3 C 162 8.3 160.8 8.9 159.8 10.1 C 159.8 10.1 159.8 7.8 159.8 7.8 C 160.6 6.8 161.8 6.4 163.3 6.4 C 165.7 6.4 167.1 7.8 167.1 9.8 Z M 163.2 15.9 C 163.8 15.9 164.5 15.5 165 15 C 165 15 165 11.9 165 11.9 C 162.6 12.7 161.7 13.4 161.7 14.4 C 161.7 15.2 162.3 15.9 163.2 15.9 Z M 177.9 7.6 C 177.9 7.6 176.8 9.4 176.8 9.4 C 176.2 8.8 175.4 8.4 174.8 8.4 C 173.7 8.4 172.3 9.5 172.3 11.5 C 172.28 11.51 172.3 17.1 172.3 17.1 L 170.2 17.1 L 170.2 6.6 L 172.3 6.6 C 172.3 6.6 172.28 9 172.3 9 C 173.5 7 174.4 6.4 175.4 6.4 C 176.3 6.4 177.2 6.9 177.9 7.6 Z M 187.8 11.8 C 187.79 11.82 187.8 12 187.8 12 C 187.8 12 180.36 12.03 180.4 12 C 180.5 14 181.8 15.3 183.8 15.3 C 185.1 15.3 186.5 14.9 187.6 14.1 C 187.6 14.1 187.6 16.1 187.6 16.1 C 186.2 17 185 17.3 183.5 17.3 C 180.7 17.3 178.2 15.3 178.2 11.8 C 178.2 8.7 180.2 6.4 183.2 6.4 C 185.8 6.4 187.8 8.4 187.8 11.8 Z M 185.7 10.8 C 185.6 9.2 184.7 8.2 183.2 8.2 C 181.7 8.2 180.5 9.3 180.4 10.8 C 180.4 10.8 185.7 10.8 185.7 10.8 Z M 201.1 17.3 C 200.3 17.3 199.9 17.3 198.8 16.9 C 198.81 16.87 198.8 22.5 198.8 22.5 L 196.7 22.5 L 196.7 6.6 C 196.7 6.6 200.64 6.58 200.6 6.6 C 204.1 6.6 206.3 8.4 206.3 11.9 C 206.3 14.9 204.2 17.3 201.1 17.3 Z M 198.8 15 C 199.3 15.3 200.1 15.5 200.9 15.5 C 202.8 15.5 204.2 14 204.2 11.9 C 204.2 9.7 203 8.4 200.5 8.4 C 200.55 8.41 198.8 8.4 198.8 8.4 C 198.8 8.4 198.81 15.02 198.8 15 Z M 217.6 11.8 C 217.56 11.82 217.6 12 217.6 12 C 217.6 12 210.14 12.03 210.1 12 C 210.3 14 211.6 15.3 213.5 15.3 C 214.9 15.3 216.2 14.9 217.4 14.1 C 217.4 14.1 217.4 16.1 217.4 16.1 C 216 17 214.8 17.3 213.3 17.3 C 210.4 17.3 208 15.3 208 11.8 C 208 8.7 209.9 6.4 213 6.4 C 215.6 6.4 217.6 8.4 217.6 11.8 Z M 215.5 10.8 C 215.4 9.2 214.5 8.2 212.9 8.2 C 211.4 8.2 210.3 9.3 210.2 10.8 C 210.2 10.8 215.5 10.8 215.5 10.8 Z M 227.5 7.6 C 227.5 7.6 226.4 9.4 226.4 9.4 C 225.8 8.8 225 8.4 224.4 8.4 C 223.4 8.4 221.9 9.5 221.9 11.5 C 221.91 11.51 221.9 17.1 221.9 17.1 L 219.8 17.1 L 219.8 6.6 L 221.9 6.6 C 221.9 6.6 221.91 9 221.9 9 C 223.1 7 224.1 6.4 225.1 6.4 C 225.9 6.4 226.8 6.9 227.5 7.6 Z M 236.2 7.1 C 236.2 7.1 236.2 9.3 236.2 9.3 C 235.1 8.6 234.2 8.3 233.2 8.3 C 231.1 8.3 230 10.1 230 11.8 C 230 13.3 230.8 15.4 233.6 15.4 C 234.7 15.4 235.6 15 236.4 14.7 C 236.4 14.7 236.4 16.7 236.4 16.7 C 235.4 17.1 234.3 17.3 233.3 17.3 C 229.2 17.3 227.9 14.3 227.9 12 C 227.9 8.5 230.1 6.4 233.1 6.4 C 234.1 6.4 235 6.6 236.2 7.1 Z M 247.7 11.8 C 247.67 11.82 247.7 12 247.7 12 C 247.7 12 240.24 12.03 240.2 12 C 240.4 14 241.7 15.3 243.6 15.3 C 245 15.3 246.3 14.9 247.5 14.1 C 247.5 14.1 247.5 16.1 247.5 16.1 C 246.1 17 244.9 17.3 243.4 17.3 C 240.5 17.3 238.1 15.3 238.1 11.8 C 238.1 8.7 240 6.4 243.1 6.4 C 245.7 6.4 247.7 8.4 247.7 11.8 Z M 245.6 10.8 C 245.5 9.2 244.6 8.2 243 8.2 C 241.5 8.2 240.4 9.3 240.3 10.8 C 240.3 10.8 245.6 10.8 245.6 10.8 Z M 252.3 3.4 C 252.3 4 251.8 4.6 251.1 4.6 C 250.4 4.6 249.9 4 249.9 3.4 C 249.9 2.7 250.4 2.1 251.1 2.1 C 251.8 2.1 252.3 2.7 252.3 3.4 Z M 252.2 6.6 L 252.2 17.1 L 250.1 17.1 L 250.1 6.6 L 252.2 6.6 Z M 256 6.6 L 258.8 13.1 L 261.6 6.6 L 263.8 6.6 L 259.2 17.3 L 258.5 17.3 L 253.7 6.6 L 256 6.6 Z M 273.8 11.8 C 273.8 11.82 273.8 12 273.8 12 C 273.8 12 266.37 12.03 266.4 12 C 266.5 14 267.8 15.3 269.8 15.3 C 271.1 15.3 272.5 14.9 273.6 14.1 C 273.6 14.1 273.6 16.1 273.6 16.1 C 272.2 17 271 17.3 269.5 17.3 C 266.7 17.3 264.3 15.3 264.3 11.8 C 264.3 8.7 266.2 6.4 269.2 6.4 C 271.8 6.4 273.8 8.4 273.8 11.8 Z M 271.7 10.8 C 271.6 9.2 270.7 8.2 269.2 8.2 C 267.7 8.2 266.5 9.3 266.4 10.8 C 266.4 10.8 271.7 10.8 271.7 10.8 Z M 281.4 15.3 C 281.36 15.3 283 15.3 283 15.3 C 283 15.3 283.01 8.69 283 8.7 C 282.4 8.3 281.7 8.2 280.9 8.2 C 279 8.2 277.6 9.5 277.6 11.9 C 277.6 14.1 279 15.3 281.4 15.3 Z M 285.1 1.1 L 285.1 17.1 C 285.1 17.1 280.94 17.13 280.9 17.1 C 276.9 17.1 275.5 14.2 275.5 11.9 C 275.5 8.3 278 6.4 280.7 6.4 C 281.6 6.4 282.4 6.6 283 6.8 C 283.01 6.79 283 1.1 283 1.1 L 285.1 1.1 Z M 297 4.4 L 297.1 4.4 L 297.1 6.6 L 300.4 6.6 L 300.4 8.5 L 297.1 8.5 C 297.1 8.5 297.09 13.37 297.1 13.4 C 297.1 14.4 297.2 15.4 298.6 15.4 C 299.4 15.4 300.3 15.1 301 14.7 C 301 14.7 301 16.6 301 16.6 C 300.2 17.1 299.1 17.3 298.3 17.3 C 296.2 17.3 295 16.3 295 13.4 C 294.99 13.37 295 8.5 295 8.5 L 293.2 8.5 L 293.2 8.2 L 297 4.4 Z M 304.3 11.9 C 304.3 14.1 305.8 15.5 307.8 15.5 C 309.9 15.5 311.3 13.9 311.3 11.8 C 311.3 9.4 309.5 8.2 307.7 8.2 C 305.8 8.2 304.3 9.6 304.3 11.9 Z M 313.4 11.9 C 313.4 15.7 310.3 17.3 307.8 17.3 C 304 17.3 302.2 14.5 302.2 11.9 C 302.2 8.8 304.4 6.4 307.8 6.4 C 311 6.4 313.4 8.6 313.4 11.9 Z M 326.4 17.4 C 325 17.4 323.7 17.1 322.3 16.5 C 322.35 16.54 322.3 1.1 322.3 1.1 L 324.4 1.1 C 324.4 1.1 324.44 7.33 324.4 7.3 C 325.3 6.7 326.3 6.4 327.4 6.4 C 330 6.4 331.9 8.6 331.9 11.7 C 331.9 15.3 329.5 17.4 326.4 17.4 Z M 324.4 15.2 C 325.1 15.4 325.7 15.5 326.5 15.5 C 328.3 15.5 329.8 14.2 329.8 11.8 C 329.8 9.6 328.6 8.2 326.8 8.2 C 326 8.2 325.2 8.6 324.4 9.2 C 324.4 9.2 324.4 15.2 324.4 15.2 Z M 343.1 11.8 C 343.12 11.82 343.1 12 343.1 12 C 343.1 12 335.69 12.03 335.7 12 C 335.8 14 337.1 15.3 339.1 15.3 C 340.5 15.3 341.8 14.9 342.9 14.1 C 342.9 14.1 342.9 16.1 342.9 16.1 C 341.5 17 340.3 17.3 338.8 17.3 C 336 17.3 333.6 15.3 333.6 11.8 C 333.6 8.7 335.5 6.4 338.5 6.4 C 341.1 6.4 343.1 8.4 343.1 11.8 Z M 341.1 10.8 C 341 9.2 340.1 8.2 338.5 8.2 C 337 8.2 335.9 9.3 335.7 10.8 C 335.7 10.8 341.1 10.8 341.1 10.8 Z M 354.9 6.4 C 356 6.4 357.1 6.7 358.1 7.2 C 358.1 7.2 358.1 9.3 358.1 9.3 C 356.9 8.6 356 8.2 355.1 8.2 C 354.1 8.2 353.7 8.6 353.7 9 C 353.7 9.5 353.9 9.8 355.8 10.9 C 357.1 11.7 358.6 12.6 358.6 14.3 C 358.6 15.6 357.7 17.3 355 17.3 C 353.9 17.3 353.1 17.2 351.5 16.4 C 351.5 16.4 351.5 14.1 351.5 14.1 C 352.5 14.9 353.9 15.5 354.8 15.5 C 356 15.5 356.5 15 356.5 14.5 C 356.5 13.9 356.3 13.7 354 12.3 C 352.6 11.4 351.6 10.6 351.6 9.1 C 351.6 7.5 353 6.4 354.9 6.4 Z M 363.4 3.4 C 363.4 4 362.8 4.6 362.1 4.6 C 361.4 4.6 360.9 4 360.9 3.4 C 360.9 2.7 361.4 2.1 362.1 2.1 C 362.8 2.1 363.4 2.7 363.4 3.4 Z M 363.2 6.6 L 363.2 17.1 L 361.1 17.1 L 361.1 6.6 L 363.2 6.6 Z M 374.6 8.3 C 375.9 6.9 376.8 6.4 378 6.4 C 380.3 6.4 381.6 7.9 381.6 10.5 C 381.57 10.5 381.6 17.1 381.6 17.1 L 379.5 17.1 C 379.5 17.1 379.5 10.67 379.5 10.7 C 379.5 9 378.7 8.2 377.3 8.2 C 376.6 8.2 375.6 8.6 374.9 9.5 C 374.94 9.47 374.9 17.1 374.9 17.1 L 372.9 17.1 C 372.9 17.1 372.87 10.81 372.9 10.8 C 372.9 9 372.2 8.1 370.8 8.1 C 369.8 8.1 369 8.6 368.3 9.5 C 368.31 9.47 368.3 17.1 368.3 17.1 L 366.2 17.1 L 366.2 6.6 L 368.3 6.6 C 368.3 6.6 368.31 7.97 368.3 8 C 369.4 6.8 370.3 6.4 371.5 6.4 C 372.7 6.4 373.9 6.9 374.6 8.3 Z M 386.8 3.4 C 386.8 4 386.2 4.6 385.5 4.6 C 384.8 4.6 384.3 4 384.3 3.4 C 384.3 2.7 384.8 2.1 385.5 2.1 C 386.2 2.1 386.8 2.7 386.8 3.4 Z M 386.6 6.6 L 386.6 17.1 L 384.5 17.1 L 384.5 6.6 L 386.6 6.6 Z M 391.7 1.1 L 391.7 17.1 L 389.7 17.1 L 389.7 1.1 L 391.7 1.1 Z M 401.5 9.8 C 401.5 9.8 401.5 15.1 401.5 15.1 C 401.5 15.4 401.6 15.6 401.9 15.6 C 402.1 15.6 402.5 15.4 403 15 C 403 15 403 16.5 403 16.5 C 402.2 17.1 401.5 17.3 400.8 17.3 C 400.1 17.3 399.6 17 399.4 16.3 C 398.5 17 397.5 17.3 396.6 17.3 C 395.1 17.3 394 16.1 394 14.8 C 394 12.8 395.3 12.1 399.4 10.8 C 399.4 10.8 399.4 10.2 399.4 10.2 C 399.4 8.9 398.8 8.3 397.5 8.3 C 396.4 8.3 395.2 8.9 394.2 10.1 C 394.2 10.1 394.2 7.8 394.2 7.8 C 395 6.8 396.2 6.4 397.7 6.4 C 400.1 6.4 401.5 7.8 401.5 9.8 Z M 397.6 15.9 C 398.3 15.9 398.9 15.5 399.4 15 C 399.4 15 399.4 11.9 399.4 11.9 C 397 12.7 396.1 13.4 396.1 14.4 C 396.1 15.2 396.7 15.9 397.6 15.9 Z M 412.3 7.6 C 412.3 7.6 411.2 9.4 411.2 9.4 C 410.6 8.8 409.8 8.4 409.2 8.4 C 408.1 8.4 406.7 9.5 406.7 11.5 C 406.69 11.51 406.7 17.1 406.7 17.1 L 404.6 17.1 L 404.6 6.6 L 406.7 6.6 C 406.7 6.6 406.69 9 406.7 9 C 407.9 7 408.8 6.4 409.8 6.4 C 410.7 6.4 411.6 6.9 412.3 7.6 Z M 414.3 16.3 C 414.3 17.9 413.3 19.4 411.5 19.9 C 411.5 19.9 411.5 19.5 411.5 19.5 C 412.1 18.9 412.5 18.3 412.5 17.1 C 411.8 16.9 411.3 16.4 411.3 15.6 C 411.3 14.8 411.9 14.1 412.7 14.1 C 413.7 14.1 414.3 15.2 414.3 16.3 Z M 425.9 3.4 C 425.9 4 425.3 4.6 424.6 4.6 C 423.9 4.6 423.4 4 423.4 3.4 C 423.4 2.7 423.9 2.1 424.6 2.1 C 425.3 2.1 425.9 2.7 425.9 3.4 Z M 425.7 6.6 L 425.7 17.1 L 423.6 17.1 L 423.6 6.6 L 425.7 6.6 Z M 431.1 4.4 L 431.1 4.4 L 431.1 6.6 L 434.5 6.6 L 434.5 8.5 L 431.1 8.5 C 431.1 8.5 431.13 13.37 431.1 13.4 C 431.1 14.4 431.3 15.4 432.6 15.4 C 433.5 15.4 434.3 15.1 435 14.7 C 435 14.7 435 16.6 435 16.6 C 434.3 17.1 433.1 17.3 432.3 17.3 C 430.2 17.3 429 16.3 429 13.4 C 429.04 13.37 429 8.5 429 8.5 L 427.2 8.5 L 427.2 8.2 L 431.1 4.4 Z M 445.7 3.4 C 445.7 4 445.1 4.6 444.5 4.6 C 443.7 4.6 443.2 4 443.2 3.4 C 443.2 2.7 443.7 2.1 444.5 2.1 C 445.1 2.1 445.7 2.7 445.7 3.4 Z M 445.5 6.6 L 445.5 17.1 L 443.4 17.1 L 443.4 6.6 L 445.5 6.6 Z M 451.4 6.4 C 452.5 6.4 453.6 6.7 454.6 7.2 C 454.6 7.2 454.6 9.3 454.6 9.3 C 453.4 8.6 452.5 8.2 451.6 8.2 C 450.6 8.2 450.2 8.6 450.2 9 C 450.2 9.5 450.4 9.8 452.3 10.9 C 453.6 11.7 455.1 12.6 455.1 14.3 C 455.1 15.6 454.2 17.3 451.5 17.3 C 450.4 17.3 449.6 17.2 448 16.4 C 448 16.4 448 14.1 448 14.1 C 449 14.9 450.4 15.5 451.4 15.5 C 452.5 15.5 453 15 453 14.5 C 453 13.9 452.8 13.7 450.5 12.3 C 449.1 11.4 448.1 10.6 448.1 9.1 C 448.1 7.5 449.5 6.4 451.4 6.4 Z M 466.5 4.4 L 466.5 4.4 L 466.5 6.6 L 469.9 6.6 L 469.9 8.5 L 466.5 8.5 C 466.5 8.5 466.54 13.37 466.5 13.4 C 466.5 14.4 466.7 15.4 468 15.4 C 468.9 15.4 469.8 15.1 470.4 14.7 C 470.4 14.7 470.4 16.6 470.4 16.6 C 469.7 17.1 468.5 17.3 467.7 17.3 C 465.6 17.3 464.4 16.3 464.4 13.4 C 464.45 13.37 464.4 8.5 464.4 8.5 L 462.6 8.5 L 462.6 8.2 L 466.5 4.4 Z M 481.2 10.5 C 481.18 10.53 481.2 17.1 481.2 17.1 L 479.1 17.1 C 479.1 17.1 479.09 10.57 479.1 10.6 C 479.1 8.9 478.4 8.1 477 8.1 C 476.1 8.1 475.3 8.5 474.4 9.6 C 474.39 9.56 474.4 17.1 474.4 17.1 L 472.3 17.1 L 472.3 1.1 L 474.4 1.1 C 474.4 1.1 474.39 7.97 474.4 8 C 475.2 7 476.4 6.4 477.6 6.4 C 480 6.4 481.2 8 481.2 10.5 Z M 493 11.8 C 492.98 11.82 493 12 493 12 C 493 12 485.55 12.03 485.6 12 C 485.7 14 487 15.3 489 15.3 C 490.3 15.3 491.7 14.9 492.8 14.1 C 492.8 14.1 492.8 16.1 492.8 16.1 C 491.4 17 490.2 17.3 488.7 17.3 C 485.9 17.3 483.4 15.3 483.4 11.8 C 483.4 8.7 485.3 6.4 488.4 6.4 C 491 6.4 493 8.4 493 11.8 Z M 490.9 10.8 C 490.8 9.2 489.9 8.2 488.3 8.2 C 486.8 8.2 485.7 9.3 485.6 10.8 C 485.6 10.8 490.9 10.8 490.9 10.8 Z M 506.3 17.3 C 505.5 17.3 505.1 17.3 504 16.9 C 504 16.87 504 22.5 504 22.5 L 501.9 22.5 L 501.9 6.6 C 501.9 6.6 505.83 6.58 505.8 6.6 C 509.3 6.6 511.5 8.4 511.5 11.9 C 511.5 14.9 509.4 17.3 506.3 17.3 Z M 504 15 C 504.5 15.3 505.3 15.5 506.1 15.5 C 508 15.5 509.4 14 509.4 11.9 C 509.4 9.7 508.2 8.4 505.7 8.4 C 505.74 8.41 504 8.4 504 8.4 C 504 8.4 504 15.02 504 15 Z M 522.8 11.8 C 522.75 11.82 522.8 12 522.8 12 C 522.8 12 515.33 12.03 515.3 12 C 515.5 14 516.8 15.3 518.7 15.3 C 520.1 15.3 521.4 14.9 522.6 14.1 C 522.6 14.1 522.6 16.1 522.6 16.1 C 521.2 17 520 17.3 518.5 17.3 C 515.6 17.3 513.2 15.3 513.2 11.8 C 513.2 8.7 515.1 6.4 518.1 6.4 C 520.8 6.4 522.8 8.4 522.8 11.8 Z M 520.7 10.8 C 520.6 9.2 519.7 8.2 518.1 8.2 C 516.6 8.2 515.5 9.3 515.4 10.8 C 515.4 10.8 520.7 10.8 520.7 10.8 Z M 526.6 11.9 C 526.6 14.1 528.1 15.5 530.1 15.5 C 532.2 15.5 533.6 13.9 533.6 11.8 C 533.6 9.4 531.8 8.2 530 8.2 C 528.1 8.2 526.6 9.6 526.6 11.9 Z M 535.7 11.9 C 535.7 15.7 532.6 17.3 530.1 17.3 C 526.3 17.3 524.5 14.5 524.5 11.9 C 524.5 8.8 526.7 6.4 530.2 6.4 C 533.3 6.4 535.7 8.6 535.7 11.9 Z M 542.5 17.3 C 541.7 17.3 541.3 17.3 540.2 16.9 C 540.21 16.87 540.2 22.5 540.2 22.5 L 538.1 22.5 L 538.1 6.6 C 538.1 6.6 542.04 6.58 542 6.6 C 545.5 6.6 547.7 8.4 547.7 11.9 C 547.7 14.9 545.6 17.3 542.5 17.3 Z M 540.2 15 C 540.7 15.3 541.5 15.5 542.3 15.5 C 544.2 15.5 545.6 14 545.6 11.9 C 545.6 9.7 544.4 8.4 542 8.4 C 541.95 8.41 540.2 8.4 540.2 8.4 C 540.2 8.4 540.21 15.02 540.2 15 Z M 552.2 1.1 L 552.2 17.1 L 550.1 17.1 L 550.1 1.1 L 552.2 1.1 Z M 564.1 11.8 C 564.11 11.82 564.1 12 564.1 12 C 564.1 12 556.68 12.03 556.7 12 C 556.8 14 558.1 15.3 560.1 15.3 C 561.5 15.3 562.8 14.9 563.9 14.1 C 563.9 14.1 563.9 16.1 563.9 16.1 C 562.5 17 561.3 17.3 559.8 17.3 C 557 17.3 554.6 15.3 554.6 11.8 C 554.6 8.7 556.5 6.4 559.5 6.4 C 562.1 6.4 564.1 8.4 564.1 11.8 Z M 562 10.8 C 561.9 9.2 561.1 8.2 559.5 8.2 C 558 8.2 556.8 9.3 556.7 10.8 C 556.7 10.8 562 10.8 562 10.8 Z M 579.8 9.8 C 579.8 9.8 579.8 15.1 579.8 15.1 C 579.8 15.4 579.9 15.6 580.2 15.6 C 580.4 15.6 580.8 15.4 581.3 15 C 581.3 15 581.3 16.5 581.3 16.5 C 580.5 17.1 579.8 17.3 579.1 17.3 C 578.3 17.3 577.8 17 577.6 16.3 C 576.7 17 575.8 17.3 574.8 17.3 C 573.3 17.3 572.2 16.1 572.2 14.8 C 572.2 12.8 573.5 12.1 577.7 10.8 C 577.7 10.8 577.7 10.2 577.7 10.2 C 577.7 8.9 577 8.3 575.8 8.3 C 574.6 8.3 573.4 8.9 572.4 10.1 C 572.4 10.1 572.4 7.8 572.4 7.8 C 573.3 6.8 574.5 6.4 575.9 6.4 C 578.4 6.4 579.8 7.8 579.8 9.8 Z M 575.8 15.9 C 576.5 15.9 577.1 15.5 577.7 15 C 577.7 15 577.7 11.9 577.7 11.9 C 575.2 12.7 574.3 13.4 574.3 14.4 C 574.3 15.2 574.9 15.9 575.8 15.9 Z M 591.9 10.8 C 591.86 10.76 591.9 17.1 591.9 17.1 L 589.8 17.1 C 589.8 17.1 589.77 10.81 589.8 10.8 C 589.8 8.6 588.7 8.1 587.6 8.1 C 586.6 8.1 585.7 8.7 585.1 9.6 C 585.07 9.59 585.1 17.1 585.1 17.1 L 583 17.1 L 583 6.6 L 585.1 6.6 C 585.1 6.6 585.07 7.92 585.1 7.9 C 586 6.8 587.3 6.4 588.3 6.4 C 590.5 6.4 591.9 8 591.9 10.8 Z M 600 15.3 C 599.97 15.3 601.6 15.3 601.6 15.3 C 601.6 15.3 601.62 8.69 601.6 8.7 C 601 8.3 600.3 8.2 599.5 8.2 C 597.6 8.2 596.2 9.5 596.2 11.9 C 596.2 14.1 597.6 15.3 600 15.3 Z M 603.7 1.1 L 603.7 17.1 C 603.7 17.1 599.55 17.13 599.5 17.1 C 595.5 17.1 594.1 14.2 594.1 11.9 C 594.1 8.3 596.6 6.4 599.3 6.4 C 600.3 6.4 601 6.6 601.6 6.8 C 601.62 6.79 601.6 1.1 601.6 1.1 L 603.7 1.1 Z M 615.6 4.4 L 615.7 4.4 L 615.7 6.6 L 619 6.6 L 619 8.5 L 615.7 8.5 C 615.7 8.5 615.69 13.37 615.7 13.4 C 615.7 14.4 615.9 15.4 617.2 15.4 C 618 15.4 618.9 15.1 619.6 14.7 C 619.6 14.7 619.6 16.6 619.6 16.6 C 618.8 17.1 617.7 17.3 616.9 17.3 C 614.8 17.3 613.6 16.3 613.6 13.4 C 613.6 13.37 613.6 8.5 613.6 8.5 L 611.8 8.5 L 611.8 8.2 L 615.6 4.4 Z M 630.3 10.5 C 630.33 10.53 630.3 17.1 630.3 17.1 L 628.2 17.1 C 628.2 17.1 628.24 10.57 628.2 10.6 C 628.2 8.9 627.5 8.1 626.2 8.1 C 625.2 8.1 624.5 8.5 623.5 9.6 C 623.54 9.56 623.5 17.1 623.5 17.1 L 621.4 17.1 L 621.4 1.1 L 623.5 1.1 C 623.5 1.1 623.54 7.97 623.5 8 C 624.4 7 625.5 6.4 626.8 6.4 C 629.2 6.4 630.3 8 630.3 10.5 Z M 642.1 11.8 C 642.13 11.82 642.1 12 642.1 12 C 642.1 12 634.7 12.03 634.7 12 C 634.8 14 636.1 15.3 638.1 15.3 C 639.5 15.3 640.8 14.9 641.9 14.1 C 641.9 14.1 641.9 16.1 641.9 16.1 C 640.6 17 639.3 17.3 637.8 17.3 C 635 17.3 632.6 15.3 632.6 11.8 C 632.6 8.7 634.5 6.4 637.5 6.4 C 640.2 6.4 642.1 8.4 642.1 11.8 Z M 640.1 10.8 C 640 9.2 639.1 8.2 637.5 8.2 C 636 8.2 634.9 9.3 634.7 10.8 C 634.7 10.8 640.1 10.8 640.1 10.8 Z M 651.8 6.6 L 654.5 13 L 657.2 6.6 L 658.8 6.6 L 661.4 13 L 664.2 6.6 L 666.4 6.6 L 661.8 17.3 L 661.1 17.3 L 658 10 L 654.9 17.3 L 654.2 17.3 L 649.5 6.6 L 651.8 6.6 Z M 674.7 9.8 C 674.7 9.8 674.7 15.1 674.7 15.1 C 674.7 15.4 674.8 15.6 675.1 15.6 C 675.3 15.6 675.7 15.4 676.2 15 C 676.2 15 676.2 16.5 676.2 16.5 C 675.4 17.1 674.7 17.3 674 17.3 C 673.2 17.3 672.7 17 672.6 16.3 C 671.6 17 670.7 17.3 669.7 17.3 C 668.2 17.3 667.1 16.1 667.1 14.8 C 667.1 12.8 668.4 12.1 672.6 10.8 C 672.6 10.8 672.6 10.2 672.6 10.2 C 672.6 8.9 671.9 8.3 670.7 8.3 C 669.5 8.3 668.4 8.9 667.3 10.1 C 667.3 10.1 667.3 7.8 667.3 7.8 C 668.2 6.8 669.4 6.4 670.8 6.4 C 673.3 6.4 674.7 7.8 674.7 9.8 Z M 670.8 15.9 C 671.4 15.9 672 15.5 672.6 15 C 672.6 15 672.6 11.9 672.6 11.9 C 670.2 12.7 669.2 13.4 669.2 14.4 C 669.2 15.2 669.9 15.9 670.8 15.9 Z M 678.3 6.6 L 681.3 12.5 L 684 6.6 L 686.2 6.6 L 678.8 22.5 L 676.5 22.5 L 680.1 14.9 L 675.9 6.6 L 678.3 6.6 Z M 695.8 11.9 C 695.8 14.1 697.3 15.5 699.3 15.5 C 701.4 15.5 702.8 13.9 702.8 11.8 C 702.8 9.4 701 8.2 699.2 8.2 C 697.2 8.2 695.8 9.6 695.8 11.9 Z M 704.9 11.9 C 704.9 15.7 701.7 17.3 699.2 17.3 C 695.5 17.3 693.6 14.5 693.6 11.9 C 693.6 8.8 695.8 6.4 699.3 6.4 C 702.5 6.4 704.9 8.6 704.9 11.9 Z M 712.7 1.1 C 712.7 1.1 712.7 3.1 712.7 3.1 C 712.3 2.9 711.9 2.9 711.5 2.9 C 710.2 2.9 709.5 3.6 709.5 5.8 C 709.55 5.76 709.5 6.6 709.5 6.6 L 711.4 6.6 L 711.4 8.5 L 709.5 8.5 L 709.5 17.1 L 707.4 17.1 L 707.4 8.5 L 706 8.5 L 706 6.6 L 707.4 6.6 C 707.4 6.6 707.43 5.73 707.4 5.7 C 707.4 2.6 708.9 0.9 711.1 0.9 C 711.7 0.9 712.2 1 712.7 1.1 Z M 720.6 6.6 L 723.4 13 L 726.1 6.6 L 727.6 6.6 L 730.3 13 L 733 6.6 L 735.3 6.6 L 730.6 17.3 L 730 17.3 L 726.8 10 L 723.8 17.3 L 723.1 17.3 L 718.4 6.6 L 720.6 6.6 Z M 737.9 11.9 C 737.9 14.1 739.4 15.5 741.4 15.5 C 743.5 15.5 744.9 13.9 744.9 11.8 C 744.9 9.4 743.2 8.2 741.3 8.2 C 739.4 8.2 737.9 9.6 737.9 11.9 Z M 747.1 11.9 C 747.1 15.7 743.9 17.3 741.4 17.3 C 737.7 17.3 735.8 14.5 735.8 11.9 C 735.8 8.8 738 6.4 741.5 6.4 C 744.6 6.4 747.1 8.6 747.1 11.9 Z M 757 7.6 C 757 7.6 755.9 9.4 755.9 9.4 C 755.3 8.8 754.5 8.4 753.9 8.4 C 752.8 8.4 751.4 9.5 751.4 11.5 C 751.38 11.51 751.4 17.1 751.4 17.1 L 749.3 17.1 L 749.3 6.6 L 751.4 6.6 C 751.4 6.6 751.38 9 751.4 9 C 752.6 7 753.5 6.4 754.5 6.4 C 755.4 6.4 756.3 6.9 757 7.6 Z M 760.6 1.1 L 760.6 17.1 L 758.5 17.1 L 758.5 1.1 L 760.6 1.1 Z M 767.9 6.6 L 763.3 11.7 L 768.8 17.1 L 766 17.1 L 760.7 11.7 L 765.4 6.6 L 767.9 6.6 Z M 772.1 3.4 C 772.1 4 771.5 4.6 770.9 4.6 C 770.2 4.6 769.6 4 769.6 3.4 C 769.6 2.7 770.2 2.1 770.9 2.1 C 771.5 2.1 772.1 2.7 772.1 3.4 Z M 771.9 6.6 L 771.9 17.1 L 769.8 17.1 L 769.8 6.6 L 771.9 6.6 Z M 783.9 10.8 C 783.86 10.76 783.9 17.1 783.9 17.1 L 781.8 17.1 C 781.8 17.1 781.76 10.81 781.8 10.8 C 781.8 8.6 780.7 8.1 779.6 8.1 C 778.6 8.1 777.7 8.7 777.1 9.6 C 777.06 9.59 777.1 17.1 777.1 17.1 L 775 17.1 L 775 6.6 L 777.1 6.6 C 777.1 6.6 777.06 7.92 777.1 7.9 C 778 6.8 779.3 6.4 780.3 6.4 C 782.5 6.4 783.9 8 783.9 10.8 Z M 795.2 8.2 C 795.2 8.2 793 8.2 793 8.2 C 793.8 8.8 794.1 9.6 794.1 10.5 C 794.1 12.5 792.7 13.6 790.9 13.9 C 790 14.1 788.8 14.2 788.8 14.9 C 788.8 15.4 789.9 15.9 791.6 16.2 C 794.5 16.7 795.1 18 795.1 19.2 C 795.1 21.4 793.1 22.6 790.1 22.6 C 786.8 22.6 785.3 21.1 785.3 19.4 C 785.3 18 785.8 17 787.9 16.4 C 787.2 16 786.9 15.6 786.9 15.1 C 786.9 14.4 787.4 13.9 788.5 13.5 C 786.8 12.8 786.2 11.6 786.2 10.2 C 786.2 8.1 787.9 6.6 791 6.6 C 790.98 6.58 795.2 6.6 795.2 6.6 L 795.2 8.2 Z M 790.2 12.2 C 791.3 12.2 792.2 11.6 792.2 10.2 C 792.2 9.2 791.4 8.4 790.2 8.4 C 789 8.4 788.1 9.2 788.1 10.3 C 788.1 11.6 789.1 12.2 790.2 12.2 Z M 790.2 20.9 C 792 20.9 793.1 20.4 793.1 19.3 C 793.1 18.2 791.6 17.7 789.6 17.7 C 788.3 17.7 787.2 18.2 787.2 19.3 C 787.2 20.4 788.3 20.9 790.2 20.9 Z M 805.7 4.4 L 805.8 4.4 L 805.8 6.6 L 809.1 6.6 L 809.1 8.5 L 805.8 8.5 C 805.8 8.5 805.76 13.37 805.8 13.4 C 805.8 14.4 805.9 15.4 807.2 15.4 C 808.1 15.4 809 15.1 809.6 14.7 C 809.6 14.7 809.6 16.6 809.6 16.6 C 808.9 17.1 807.7 17.3 806.9 17.3 C 804.9 17.3 803.7 16.3 803.7 13.4 C 803.67 13.37 803.7 8.5 803.7 8.5 L 801.8 8.5 L 801.8 8.2 L 805.7 4.4 Z M 820.4 10.5 C 820.4 10.53 820.4 17.1 820.4 17.1 L 818.3 17.1 C 818.3 17.1 818.31 10.57 818.3 10.6 C 818.3 8.9 817.6 8.1 816.3 8.1 C 815.3 8.1 814.5 8.5 813.6 9.6 C 813.61 9.56 813.6 17.1 813.6 17.1 L 811.5 17.1 L 811.5 1.1 L 813.6 1.1 C 813.6 1.1 813.61 7.97 813.6 8 C 814.5 7 815.6 6.4 816.8 6.4 C 819.2 6.4 820.4 8 820.4 10.5 Z M 830.1 9.8 C 830.1 9.8 830.1 15.1 830.1 15.1 C 830.1 15.4 830.2 15.6 830.5 15.6 C 830.7 15.6 831.1 15.4 831.6 15 C 831.6 15 831.6 16.5 831.6 16.5 C 830.8 17.1 830.1 17.3 829.4 17.3 C 828.6 17.3 828.1 17 827.9 16.3 C 827 17 826.1 17.3 825.1 17.3 C 823.6 17.3 822.5 16.1 822.5 14.8 C 822.5 12.8 823.8 12.1 828 10.8 C 828 10.8 828 10.2 828 10.2 C 828 8.9 827.3 8.3 826.1 8.3 C 824.9 8.3 823.7 8.9 822.7 10.1 C 822.7 10.1 822.7 7.8 822.7 7.8 C 823.5 6.8 824.7 6.4 826.2 6.4 C 828.6 6.4 830.1 7.8 830.1 9.8 Z M 826.1 15.9 C 826.8 15.9 827.4 15.5 828 15 C 828 15 828 11.9 828 11.9 C 825.5 12.7 824.6 13.4 824.6 14.4 C 824.6 15.2 825.2 15.9 826.1 15.9 Z M 835.6 4.4 L 835.7 4.4 L 835.7 6.6 L 839 6.6 L 839 8.5 L 835.7 8.5 C 835.7 8.5 835.67 13.37 835.7 13.4 C 835.7 14.4 835.8 15.4 837.2 15.4 C 838 15.4 838.9 15.1 839.5 14.7 C 839.5 14.7 839.5 16.6 839.5 16.6 C 838.8 17.1 837.6 17.3 836.8 17.3 C 834.8 17.3 833.6 16.3 833.6 13.4 C 833.58 13.37 833.6 8.5 833.6 8.5 L 831.7 8.5 L 831.7 8.2 L 835.6 4.4 Z M 856.3 8.3 C 857.6 6.9 858.5 6.4 859.8 6.4 C 862.1 6.4 863.3 7.9 863.3 10.5 C 863.28 10.5 863.3 17.1 863.3 17.1 L 861.2 17.1 C 861.2 17.1 861.22 10.67 861.2 10.7 C 861.2 9 860.4 8.2 859 8.2 C 858.3 8.2 857.4 8.6 856.7 9.5 C 856.66 9.47 856.7 17.1 856.7 17.1 L 854.6 17.1 C 854.6 17.1 854.59 10.81 854.6 10.8 C 854.6 9 853.9 8.1 852.5 8.1 C 851.5 8.1 850.7 8.6 850 9.5 C 850.03 9.47 850 17.1 850 17.1 L 848 17.1 L 848 6.6 L 850 6.6 C 850 6.6 850.03 7.97 850 8 C 851.1 6.8 852 6.4 853.2 6.4 C 854.4 6.4 855.6 6.9 856.3 8.3 Z M 872.9 9.8 C 872.9 9.8 872.9 15.1 872.9 15.1 C 872.9 15.4 873.1 15.6 873.3 15.6 C 873.6 15.6 874 15.4 874.4 15 C 874.4 15 874.4 16.5 874.4 16.5 C 873.6 17.1 872.9 17.3 872.3 17.3 C 871.5 17.3 871 17 870.8 16.3 C 869.9 17 868.9 17.3 868 17.3 C 866.5 17.3 865.4 16.1 865.4 14.8 C 865.4 12.8 866.7 12.1 870.9 10.8 C 870.9 10.8 870.9 10.2 870.9 10.2 C 870.9 8.9 870.2 8.3 868.9 8.3 C 867.8 8.3 866.6 8.9 865.6 10.1 C 865.6 10.1 865.6 7.8 865.6 7.8 C 866.4 6.8 867.6 6.4 869.1 6.4 C 871.5 6.4 872.9 7.8 872.9 9.8 Z M 869 15.9 C 869.7 15.9 870.3 15.5 870.9 15 C 870.9 15 870.9 11.9 870.9 11.9 C 868.4 12.7 867.5 13.4 867.5 14.4 C 867.5 15.2 868.1 15.9 869 15.9 Z M 878.3 1.1 L 878.3 17.1 L 876.2 17.1 L 876.2 1.1 L 878.3 1.1 Z M 885.5 6.6 L 881 11.7 L 886.5 17.1 L 883.7 17.1 L 878.4 11.7 L 883 6.6 L 885.5 6.6 Z M 895.9 11.8 C 895.95 11.82 895.9 12 895.9 12 C 895.9 12 888.52 12.03 888.5 12 C 888.7 14 890 15.3 891.9 15.3 C 893.3 15.3 894.6 14.9 895.8 14.1 C 895.8 14.1 895.8 16.1 895.8 16.1 C 894.4 17 893.2 17.3 891.6 17.3 C 888.8 17.3 886.4 15.3 886.4 11.8 C 886.4 8.7 888.3 6.4 891.3 6.4 C 894 6.4 895.9 8.4 895.9 11.8 Z M 893.9 10.8 C 893.8 9.2 892.9 8.2 891.3 8.2 C 889.8 8.2 888.7 9.3 888.6 10.8 C 888.6 10.8 893.9 10.8 893.9 10.8 Z M 911.6 9.8 C 911.6 9.8 911.6 15.1 911.6 15.1 C 911.6 15.4 911.7 15.6 912 15.6 C 912.2 15.6 912.6 15.4 913.1 15 C 913.1 15 913.1 16.5 913.1 16.5 C 912.3 17.1 911.6 17.3 910.9 17.3 C 910.2 17.3 909.7 17 909.5 16.3 C 908.6 17 907.6 17.3 906.6 17.3 C 905.1 17.3 904.1 16.1 904.1 14.8 C 904.1 12.8 905.4 12.1 909.5 10.8 C 909.5 10.8 909.5 10.2 909.5 10.2 C 909.5 8.9 908.8 8.3 907.6 8.3 C 906.5 8.3 905.3 8.9 904.3 10.1 C 904.3 10.1 904.3 7.8 904.3 7.8 C 905.1 6.8 906.3 6.4 907.8 6.4 C 910.2 6.4 911.6 7.8 911.6 9.8 Z M 907.7 15.9 C 908.3 15.9 908.9 15.5 909.5 15 C 909.5 15 909.5 11.9 909.5 11.9 C 907.1 12.7 906.2 13.4 906.2 14.4 C 906.2 15.2 906.8 15.9 907.7 15.9 Z M 916.9 1.1 L 916.9 17.1 L 914.8 17.1 L 914.8 1.1 L 916.9 1.1 Z M 922.1 1.1 L 922.1 17.1 L 920 17.1 L 920 1.1 L 922.1 1.1 Z M 934 4.4 L 934 4.4 L 934 6.6 L 937.4 6.6 L 937.4 8.5 L 934 8.5 C 934 8.5 934.04 13.37 934 13.4 C 934 14.4 934.2 15.4 935.5 15.4 C 936.4 15.4 937.3 15.1 937.9 14.7 C 937.9 14.7 937.9 16.6 937.9 16.6 C 937.2 17.1 936 17.3 935.2 17.3 C 933.1 17.3 931.9 16.3 931.9 13.4 C 931.95 13.37 931.9 8.5 931.9 8.5 L 930.1 8.5 L 930.1 8.2 L 934 4.4 Z M 948.7 10.5 C 948.68 10.53 948.7 17.1 948.7 17.1 L 946.6 17.1 C 946.6 17.1 946.59 10.57 946.6 10.6 C 946.6 8.9 945.9 8.1 944.5 8.1 C 943.6 8.1 942.8 8.5 941.9 9.6 C 941.89 9.56 941.9 17.1 941.9 17.1 L 939.8 17.1 L 939.8 1.1 L 941.9 1.1 C 941.9 1.1 941.89 7.97 941.9 8 C 942.7 7 943.9 6.4 945.1 6.4 C 947.5 6.4 948.7 8 948.7 10.5 Z M 960.5 11.8 C 960.48 11.82 960.5 12 960.5 12 C 960.5 12 953.05 12.03 953.1 12 C 953.2 14 954.5 15.3 956.5 15.3 C 957.8 15.3 959.2 14.9 960.3 14.1 C 960.3 14.1 960.3 16.1 960.3 16.1 C 958.9 17 957.7 17.3 956.2 17.3 C 953.4 17.3 950.9 15.3 950.9 11.8 C 950.9 8.7 952.8 6.4 955.9 6.4 C 958.5 6.4 960.5 8.4 960.5 11.8 Z M 958.4 10.8 C 958.3 9.2 957.4 8.2 955.8 8.2 C 954.3 8.2 953.2 9.3 953.1 10.8 C 953.1 10.8 958.4 10.8 958.4 10.8 Z M 974.6 15.3 C 974.58 15.3 976.2 15.3 976.2 15.3 C 976.2 15.3 976.22 8.69 976.2 8.7 C 975.6 8.3 974.9 8.2 974.1 8.2 C 972.3 8.2 970.8 9.5 970.8 11.9 C 970.8 14.1 972.2 15.3 974.6 15.3 Z M 978.3 1.1 L 978.3 17.1 C 978.3 17.1 974.15 17.13 974.2 17.1 C 970.1 17.1 968.7 14.2 968.7 11.9 C 968.7 8.3 971.2 6.4 973.9 6.4 C 974.9 6.4 975.6 6.6 976.2 6.8 C 976.22 6.79 976.2 1.1 976.2 1.1 L 978.3 1.1 Z M 983.6 3.4 C 983.6 4 983.1 4.6 982.4 4.6 C 981.7 4.6 981.2 4 981.2 3.4 C 981.2 2.7 981.7 2.1 982.4 2.1 C 983.1 2.1 983.6 2.7 983.6 3.4 Z M 983.5 6.6 L 983.5 17.1 L 981.4 17.1 L 981.4 6.6 L 983.5 6.6 Z M 991.9 1.1 C 991.9 1.1 991.9 3 991.9 3 C 991.7 2.9 991.3 2.9 990.9 2.9 C 989.3 2.9 988.8 3.7 988.8 5.8 C 988.79 5.8 988.8 6.6 988.8 6.6 L 993 6.6 C 993 6.6 992.95 5.26 993 5.3 C 993 2.7 994.4 0.9 996.9 0.9 C 997.3 0.9 997.6 1 998.1 1.1 C 998.1 1.1 998.1 3 998.1 3 C 997.7 2.9 997.3 2.9 997 2.9 C 995.9 2.9 995.1 3.6 995.1 5.3 C 995.07 5.33 995.1 6.6 995.1 6.6 L 996.9 6.6 L 996.9 8.5 L 995.1 8.5 L 995.1 17.1 L 993 17.1 L 993 8.5 L 988.8 8.5 L 988.8 17.1 L 986.7 17.1 L 986.7 8.5 L 985.2 8.5 L 985.2 6.6 L 986.7 6.6 C 986.7 6.6 986.68 5.31 986.7 5.3 C 986.7 2.5 988.4 0.9 990.7 0.9 C 991.2 0.9 991.6 1 991.9 1.1 Z M 1007.4 11.8 C 1007.41 11.82 1007.4 12 1007.4 12 C 1007.4 12 999.98 12.03 1000 12 C 1000.1 14 1001.4 15.3 1003.4 15.3 C 1004.8 15.3 1006.1 14.9 1007.2 14.1 C 1007.2 14.1 1007.2 16.1 1007.2 16.1 C 1005.8 17 1004.6 17.3 1003.1 17.3 C 1000.3 17.3 997.9 15.3 997.9 11.8 C 997.9 8.7 999.8 6.4 1002.8 6.4 C 1005.4 6.4 1007.4 8.4 1007.4 11.8 Z M 1005.3 10.8 C 1005.2 9.2 1004.4 8.2 1002.8 8.2 C 1001.3 8.2 1000.1 9.3 1000 10.8 C 1000 10.8 1005.3 10.8 1005.3 10.8 Z M 1017.4 7.6 C 1017.4 7.6 1016.3 9.4 1016.3 9.4 C 1015.7 8.8 1014.8 8.4 1014.2 8.4 C 1013.2 8.4 1011.8 9.5 1011.8 11.5 C 1011.75 11.51 1011.8 17.1 1011.8 17.1 L 1009.7 17.1 L 1009.7 6.6 L 1011.8 6.6 C 1011.8 6.6 1011.75 9 1011.8 9 C 1013 7 1013.9 6.4 1014.9 6.4 C 1015.8 6.4 1016.7 6.9 1017.4 7.6 Z M 1027.3 11.8 C 1027.26 11.82 1027.3 12 1027.3 12 C 1027.3 12 1019.84 12.03 1019.8 12 C 1020 14 1021.3 15.3 1023.2 15.3 C 1024.6 15.3 1025.9 14.9 1027.1 14.1 C 1027.1 14.1 1027.1 16.1 1027.1 16.1 C 1025.7 17 1024.5 17.3 1023 17.3 C 1020.1 17.3 1017.7 15.3 1017.7 11.8 C 1017.7 8.7 1019.6 6.4 1022.7 6.4 C 1025.3 6.4 1027.3 8.4 1027.3 11.8 Z M 1025.2 10.8 C 1025.1 9.2 1024.2 8.2 1022.6 8.2 C 1021.1 8.2 1020 9.3 1019.9 10.8 C 1019.9 10.8 1025.2 10.8 1025.2 10.8 Z M 1038.5 10.8 C 1038.54 10.76 1038.5 17.1 1038.5 17.1 L 1036.5 17.1 C 1036.5 17.1 1036.45 10.81 1036.5 10.8 C 1036.5 8.6 1035.4 8.1 1034.3 8.1 C 1033.3 8.1 1032.4 8.7 1031.8 9.6 C 1031.75 9.59 1031.8 17.1 1031.8 17.1 L 1029.7 17.1 L 1029.7 6.6 L 1031.8 6.6 C 1031.8 6.6 1031.75 7.92 1031.8 7.9 C 1032.7 6.8 1034 6.4 1035 6.4 C 1037.2 6.4 1038.5 8 1038.5 10.8 Z M 1049.1 7.1 C 1049.1 7.1 1049.1 9.3 1049.1 9.3 C 1048 8.6 1047.1 8.3 1046.1 8.3 C 1044 8.3 1042.9 10.1 1042.9 11.8 C 1042.9 13.3 1043.7 15.4 1046.5 15.4 C 1047.6 15.4 1048.5 15 1049.3 14.7 C 1049.3 14.7 1049.3 16.7 1049.3 16.7 C 1048.3 17.1 1047.3 17.3 1046.2 17.3 C 1042.2 17.3 1040.8 14.3 1040.8 12 C 1040.8 8.5 1043 6.4 1046 6.4 C 1047 6.4 1047.9 6.6 1049.1 7.1 Z M 1060.6 11.8 C 1060.59 11.82 1060.6 12 1060.6 12 C 1060.6 12 1053.16 12.03 1053.2 12 C 1053.3 14 1054.6 15.3 1056.6 15.3 C 1057.9 15.3 1059.3 14.9 1060.4 14.1 C 1060.4 14.1 1060.4 16.1 1060.4 16.1 C 1059 17 1057.8 17.3 1056.3 17.3 C 1053.5 17.3 1051 15.3 1051 11.8 C 1051 8.7 1052.9 6.4 1056 6.4 C 1058.6 6.4 1060.6 8.4 1060.6 11.8 Z M 1058.5 10.8 C 1058.4 9.2 1057.5 8.2 1056 8.2 C 1054.5 8.2 1053.3 9.3 1053.2 10.8 C 1053.2 10.8 1058.5 10.8 1058.5 10.8 Z M 1065.4 3.1 C 1065.4 4.7 1064.4 6.2 1062.6 6.7 C 1062.6 6.7 1062.6 6.3 1062.6 6.3 C 1063.2 5.7 1063.5 5.3 1063.6 3.9 C 1062.9 3.7 1062.4 3.2 1062.4 2.4 C 1062.4 1.6 1063 0.9 1063.8 0.9 C 1064.8 0.9 1065.4 1.9 1065.4 3.1 Z M 1070.1 3.1 C 1070.1 4.7 1069.1 6.2 1067.3 6.7 C 1067.3 6.7 1067.3 6.3 1067.3 6.3 C 1067.8 5.7 1068.2 5.4 1068.3 3.9 C 1067.5 3.7 1067 3.2 1067 2.4 C 1067 1.6 1067.7 0.9 1068.5 0.9 C 1069.4 0.9 1070.1 1.9 1070.1 3.1 Z " stroke="none" fill="#ffffff"/>  </g></svg>