<?xml version="1.0" standalone="no"?><!DOCTYPE svg PUBLIC "-//W3C//DTD SVG 1.1//EN" "http://www.w3.org/Graphics/SVG/1.1/DTD/svg11.dtd"><svg xmlns="http://www.w3.org/2000/svg" version="1.1" width="400.1px" height="39.1px" viewBox="0 -8 400.1 39.1" style="top:-8px">  <desc>Administration Portal</desc>  <defs/>  <g id="Polygon22382">    <path d="M 0 17.5 L 6.6 0.3 L 9 0.3 L 16 17.5 L 13.5 17.5 L 11.4 12.3 L 4.3 12.3 L 2.4 17.5 L 0 17.5 Z M 4.9 10.4 L 10.7 10.4 C 10.7 10.4 8.95 5.66 9 5.7 C 8.4 4.2 8 3 7.7 2.1 C 7.5 3.2 7.2 4.3 6.8 5.4 C 6.81 5.38 4.9 10.4 4.9 10.4 Z M 25.7 17.5 C 25.7 17.5 25.66 15.9 25.7 15.9 C 24.9 17.1 23.7 17.8 22.2 17.8 C 21.2 17.8 20.3 17.5 19.4 16.9 C 18.6 16.4 18 15.6 17.5 14.6 C 17.1 13.7 16.8 12.5 16.8 11.3 C 16.8 10 17 8.9 17.4 7.9 C 17.9 6.9 18.5 6.1 19.3 5.6 C 20.1 5 21.1 4.7 22.1 4.7 C 22.8 4.7 23.5 4.9 24.1 5.2 C 24.7 5.5 25.2 5.9 25.5 6.5 C 25.52 6.46 25.5 0.3 25.5 0.3 L 27.6 0.3 L 27.6 17.5 L 25.7 17.5 Z M 19 11.3 C 19 12.9 19.3 14 20 14.8 C 20.7 15.6 21.5 16 22.4 16 C 23.3 16 24.1 15.6 24.7 14.9 C 25.4 14.1 25.7 13 25.7 11.4 C 25.7 9.7 25.4 8.5 24.7 7.7 C 24.1 6.9 23.3 6.5 22.3 6.5 C 21.4 6.5 20.6 6.9 19.9 7.6 C 19.3 8.4 19 9.6 19 11.3 Z M 30.9 17.5 L 30.9 5 L 32.8 5 C 32.8 5 32.82 6.77 32.8 6.8 C 33.2 6.2 33.7 5.7 34.4 5.3 C 35 4.9 35.8 4.7 36.6 4.7 C 37.5 4.7 38.3 4.9 38.9 5.3 C 39.5 5.7 39.9 6.2 40.1 6.9 C 41.1 5.5 42.4 4.7 44 4.7 C 45.2 4.7 46.1 5.1 46.8 5.8 C 47.5 6.5 47.8 7.5 47.8 8.9 C 47.8 8.93 47.8 17.5 47.8 17.5 L 45.7 17.5 C 45.7 17.5 45.7 9.63 45.7 9.6 C 45.7 8.8 45.6 8.2 45.5 7.8 C 45.4 7.4 45.1 7.1 44.8 6.9 C 44.4 6.7 44 6.6 43.5 6.6 C 42.6 6.6 41.9 6.9 41.3 7.4 C 40.7 8 40.4 9 40.4 10.2 C 40.44 10.24 40.4 17.5 40.4 17.5 L 38.3 17.5 C 38.3 17.5 38.33 9.39 38.3 9.4 C 38.3 8.4 38.2 7.7 37.8 7.3 C 37.5 6.8 36.9 6.6 36.1 6.6 C 35.5 6.6 35 6.7 34.5 7 C 34 7.4 33.6 7.8 33.4 8.4 C 33.2 9 33 9.9 33 11 C 33.05 11.02 33 17.5 33 17.5 L 30.9 17.5 Z M 50.9 2.7 L 50.9 0.3 L 53.1 0.3 L 53.1 2.7 L 50.9 2.7 Z M 50.9 17.5 L 50.9 5 L 53.1 5 L 53.1 17.5 L 50.9 17.5 Z M 56.3 17.5 L 56.3 5 L 58.2 5 C 58.2 5 58.16 6.8 58.2 6.8 C 59.1 5.4 60.4 4.7 62.1 4.7 C 62.9 4.7 63.6 4.9 64.2 5.2 C 64.8 5.4 65.3 5.8 65.6 6.2 C 65.9 6.6 66.1 7.2 66.3 7.8 C 66.3 8.2 66.4 8.8 66.4 9.8 C 66.38 9.82 66.4 17.5 66.4 17.5 L 64.3 17.5 C 64.3 17.5 64.27 9.9 64.3 9.9 C 64.3 9 64.2 8.4 64 8 C 63.9 7.5 63.6 7.2 63.1 7 C 62.7 6.7 62.2 6.6 61.7 6.6 C 60.8 6.6 60 6.9 59.3 7.4 C 58.7 8 58.4 9.1 58.4 10.7 C 58.37 10.68 58.4 17.5 58.4 17.5 L 56.3 17.5 Z M 69.6 2.7 L 69.6 0.3 L 71.7 0.3 L 71.7 2.7 L 69.6 2.7 Z M 69.6 17.5 L 69.6 5 L 71.7 5 L 71.7 17.5 L 69.6 17.5 Z M 74.1 13.8 C 74.1 13.8 76.2 13.4 76.2 13.4 C 76.3 14.3 76.6 14.9 77.2 15.4 C 77.7 15.8 78.4 16 79.4 16 C 80.4 16 81.1 15.8 81.6 15.4 C 82 15 82.3 14.6 82.3 14 C 82.3 13.6 82.1 13.2 81.6 12.9 C 81.4 12.7 80.6 12.5 79.5 12.2 C 77.9 11.8 76.9 11.5 76.3 11.2 C 75.7 10.9 75.2 10.5 74.9 10 C 74.6 9.5 74.4 8.9 74.4 8.3 C 74.4 7.8 74.6 7.3 74.8 6.8 C 75.1 6.3 75.4 5.9 75.9 5.6 C 76.2 5.4 76.6 5.2 77.2 5 C 77.8 4.8 78.4 4.7 79 4.7 C 80 4.7 80.9 4.9 81.6 5.2 C 82.3 5.4 82.9 5.8 83.2 6.3 C 83.6 6.8 83.8 7.4 84 8.2 C 84 8.2 81.9 8.5 81.9 8.5 C 81.8 7.9 81.5 7.4 81.1 7 C 80.6 6.7 80 6.5 79.2 6.5 C 78.2 6.5 77.5 6.6 77.1 7 C 76.7 7.3 76.5 7.7 76.5 8.1 C 76.5 8.4 76.6 8.6 76.7 8.8 C 76.9 9.1 77.2 9.2 77.6 9.4 C 77.8 9.5 78.4 9.6 79.4 9.9 C 80.9 10.3 82 10.7 82.5 10.9 C 83.1 11.2 83.6 11.5 83.9 12 C 84.3 12.5 84.4 13.1 84.4 13.8 C 84.4 14.5 84.2 15.2 83.8 15.8 C 83.4 16.4 82.8 16.9 82 17.2 C 81.3 17.6 80.4 17.8 79.4 17.8 C 77.8 17.8 76.6 17.4 75.7 16.7 C 74.9 16.1 74.3 15.1 74.1 13.8 Z M 90.6 15.7 C 90.9 15.7 91.2 15.6 91.5 15.6 C 91.5 15.6 91.9 17.4 91.9 17.4 C 91.3 17.6 90.7 17.6 90.3 17.6 C 89.5 17.6 88.9 17.5 88.5 17.3 C 88.1 17 87.8 16.7 87.6 16.3 C 87.4 15.9 87.3 15.1 87.3 13.8 C 87.33 13.83 87.3 6.7 87.3 6.7 L 85.8 6.7 L 85.8 5 L 87.3 5 L 87.3 1.9 L 89.4 0.7 L 89.4 5 L 91.5 5 L 91.5 6.7 L 89.4 6.7 C 89.4 6.7 89.43 13.95 89.4 13.9 C 89.4 14.5 89.5 14.9 89.5 15.1 C 89.6 15.3 89.7 15.4 89.9 15.5 C 90.1 15.6 90.3 15.7 90.6 15.7 C 90.6 15.7 90.6 15.7 90.6 15.7 Z M 93.6 17.5 L 93.6 5 L 95.5 5 C 95.5 5 95.48 6.91 95.5 6.9 C 96 6 96.4 5.4 96.8 5.2 C 97.2 4.9 97.7 4.7 98.2 4.7 C 98.9 4.7 99.6 5 100.3 5.4 C 100.3 5.4 99.6 7.4 99.6 7.4 C 99.1 7.1 98.6 6.9 98.1 6.9 C 97.6 6.9 97.2 7.1 96.8 7.3 C 96.5 7.6 96.2 8 96 8.5 C 95.8 9.2 95.7 10.1 95.7 11 C 95.7 10.96 95.7 17.5 95.7 17.5 L 93.6 17.5 Z M 110.1 17.5 C 109.9 17 109.8 16.5 109.7 15.9 C 108.9 16.6 108.2 17.1 107.5 17.3 C 106.7 17.6 106 17.8 105.1 17.8 C 103.8 17.8 102.7 17.4 102 16.8 C 101.3 16.1 100.9 15.2 100.9 14.2 C 100.9 13.6 101 13 101.3 12.5 C 101.6 12 101.9 11.6 102.4 11.3 C 102.8 11 103.3 10.8 103.9 10.6 C 104.3 10.5 104.9 10.4 105.8 10.3 C 107.5 10.1 108.7 9.9 109.5 9.6 C 109.6 9.3 109.6 9.1 109.6 9 C 109.6 8.2 109.4 7.6 109 7.2 C 108.4 6.7 107.6 6.5 106.6 6.5 C 105.6 6.5 104.8 6.7 104.4 7 C 103.9 7.4 103.5 8 103.3 8.9 C 103.3 8.9 101.3 8.6 101.3 8.6 C 101.4 7.7 101.7 7 102.2 6.4 C 102.6 5.9 103.2 5.5 104 5.2 C 104.9 4.9 105.8 4.7 106.9 4.7 C 107.9 4.7 108.8 4.9 109.5 5.1 C 110.1 5.4 110.6 5.7 110.9 6.1 C 111.2 6.4 111.4 6.9 111.6 7.5 C 111.6 7.9 111.7 8.5 111.7 9.4 C 111.7 9.4 111.7 12.3 111.7 12.3 C 111.7 14.2 111.7 15.5 111.8 16 C 111.9 16.5 112.1 17 112.3 17.5 C 112.35 17.47 110.1 17.5 110.1 17.5 C 110.1 17.5 110.14 17.47 110.1 17.5 Z M 109.5 11.2 C 108.8 11.5 107.6 11.8 106.1 12 C 105.2 12.1 104.6 12.3 104.3 12.4 C 103.9 12.6 103.6 12.8 103.4 13.1 C 103.2 13.4 103.1 13.8 103.1 14.1 C 103.1 14.7 103.3 15.2 103.8 15.5 C 104.2 15.9 104.8 16.1 105.6 16.1 C 106.5 16.1 107.2 15.9 107.8 15.6 C 108.4 15.2 108.9 14.7 109.2 14.1 C 109.4 13.6 109.5 12.9 109.5 12 C 109.5 12 109.5 11.2 109.5 11.2 Z M 118.6 15.7 C 118.9 15.7 119.2 15.6 119.6 15.6 C 119.6 15.6 119.9 17.4 119.9 17.4 C 119.3 17.6 118.7 17.6 118.3 17.6 C 117.5 17.6 116.9 17.5 116.5 17.3 C 116.1 17 115.8 16.7 115.6 16.3 C 115.4 15.9 115.3 15.1 115.3 13.8 C 115.34 13.83 115.3 6.7 115.3 6.7 L 113.8 6.7 L 113.8 5 L 115.3 5 L 115.3 1.9 L 117.4 0.7 L 117.4 5 L 119.6 5 L 119.6 6.7 L 117.4 6.7 C 117.4 6.7 117.43 13.95 117.4 13.9 C 117.4 14.5 117.5 14.9 117.5 15.1 C 117.6 15.3 117.7 15.4 117.9 15.5 C 118.1 15.6 118.3 15.7 118.6 15.7 C 118.6 15.7 118.6 15.7 118.6 15.7 Z M 121.6 2.7 L 121.6 0.3 L 123.7 0.3 L 123.7 2.7 L 121.6 2.7 Z M 121.6 17.5 L 121.6 5 L 123.7 5 L 123.7 17.5 L 121.6 17.5 Z M 126.2 11.3 C 126.2 8.9 126.8 7.2 128.1 6.1 C 129.2 5.2 130.5 4.7 132 4.7 C 133.7 4.7 135.1 5.3 136.2 6.4 C 137.3 7.5 137.8 9.1 137.8 11.1 C 137.8 12.7 137.6 13.9 137.1 14.9 C 136.6 15.8 135.9 16.5 135 17 C 134.1 17.5 133.1 17.8 132 17.8 C 130.3 17.8 128.8 17.2 127.8 16.1 C 126.7 15 126.2 13.4 126.2 11.3 Z M 128.3 11.3 C 128.3 12.8 128.7 14 129.4 14.8 C 130.1 15.6 130.9 16 132 16 C 133 16 133.9 15.6 134.6 14.8 C 135.3 14 135.7 12.8 135.7 11.2 C 135.7 9.6 135.3 8.5 134.6 7.7 C 133.9 6.9 133 6.5 132 6.5 C 130.9 6.5 130.1 6.9 129.4 7.7 C 128.7 8.5 128.3 9.7 128.3 11.3 Z M 140.3 17.5 L 140.3 5 L 142.2 5 C 142.2 5 142.2 6.8 142.2 6.8 C 143.1 5.4 144.4 4.7 146.2 4.7 C 146.9 4.7 147.6 4.9 148.2 5.2 C 148.9 5.4 149.3 5.8 149.6 6.2 C 149.9 6.6 150.2 7.2 150.3 7.8 C 150.4 8.2 150.4 8.8 150.4 9.8 C 150.41 9.82 150.4 17.5 150.4 17.5 L 148.3 17.5 C 148.3 17.5 148.3 9.9 148.3 9.9 C 148.3 9 148.2 8.4 148.1 8 C 147.9 7.5 147.6 7.2 147.2 7 C 146.8 6.7 146.3 6.6 145.7 6.6 C 144.8 6.6 144 6.9 143.4 7.4 C 142.7 8 142.4 9.1 142.4 10.7 C 142.41 10.68 142.4 17.5 142.4 17.5 L 140.3 17.5 Z M 160.6 17.5 L 160.6 0.3 C 160.6 0.3 167.06 0.29 167.1 0.3 C 168.2 0.3 169.1 0.3 169.7 0.5 C 170.5 0.6 171.2 0.9 171.8 1.3 C 172.4 1.7 172.8 2.2 173.2 2.9 C 173.5 3.6 173.7 4.4 173.7 5.3 C 173.7 6.7 173.2 8 172.3 9 C 171.4 10 169.7 10.5 167.3 10.5 C 167.26 10.49 162.9 10.5 162.9 10.5 L 162.9 17.5 L 160.6 17.5 Z M 162.9 8.5 C 162.9 8.5 167.3 8.46 167.3 8.5 C 168.8 8.5 169.8 8.2 170.4 7.6 C 171 7.1 171.4 6.3 171.4 5.3 C 171.4 4.6 171.2 4 170.8 3.5 C 170.4 3 170 2.6 169.4 2.5 C 169 2.4 168.3 2.3 167.3 2.3 C 167.25 2.32 162.9 2.3 162.9 2.3 L 162.9 8.5 Z M 175.5 11.3 C 175.5 8.9 176.2 7.2 177.5 6.1 C 178.5 5.2 179.8 4.7 181.4 4.7 C 183.1 4.7 184.5 5.3 185.6 6.4 C 186.7 7.5 187.2 9.1 187.2 11.1 C 187.2 12.7 187 13.9 186.5 14.9 C 186 15.8 185.3 16.5 184.4 17 C 183.5 17.5 182.5 17.8 181.4 17.8 C 179.6 17.8 178.2 17.2 177.1 16.1 C 176.1 15 175.5 13.4 175.5 11.3 Z M 177.7 11.3 C 177.7 12.8 178.1 14 178.7 14.8 C 179.4 15.6 180.3 16 181.4 16 C 182.4 16 183.3 15.6 184 14.8 C 184.7 14 185 12.8 185 11.2 C 185 9.6 184.7 8.5 184 7.7 C 183.3 6.9 182.4 6.5 181.4 6.5 C 180.3 6.5 179.4 6.9 178.7 7.7 C 178.1 8.5 177.7 9.7 177.7 11.3 Z M 189.6 17.5 L 189.6 5 L 191.5 5 C 191.5 5 191.54 6.91 191.5 6.9 C 192 6 192.5 5.4 192.9 5.2 C 193.3 4.9 193.7 4.7 194.2 4.7 C 194.9 4.7 195.7 5 196.4 5.4 C 196.4 5.4 195.7 7.4 195.7 7.4 C 195.2 7.1 194.6 6.9 194.1 6.9 C 193.7 6.9 193.3 7.1 192.9 7.3 C 192.5 7.6 192.3 8 192.1 8.5 C 191.9 9.2 191.8 10.1 191.8 11 C 191.75 10.96 191.8 17.5 191.8 17.5 L 189.6 17.5 Z M 201.3 15.7 C 201.6 15.7 201.9 15.6 202.3 15.6 C 202.3 15.6 202.6 17.4 202.6 17.4 C 202 17.6 201.4 17.6 201 17.6 C 200.2 17.6 199.6 17.5 199.2 17.3 C 198.8 17 198.5 16.7 198.3 16.3 C 198.1 15.9 198 15.1 198 13.8 C 198.05 13.83 198 6.7 198 6.7 L 196.5 6.7 L 196.5 5 L 198 5 L 198 1.9 L 200.1 0.7 L 200.1 5 L 202.3 5 L 202.3 6.7 L 200.1 6.7 C 200.1 6.7 200.14 13.95 200.1 13.9 C 200.1 14.5 200.2 14.9 200.3 15.1 C 200.3 15.3 200.5 15.4 200.6 15.5 C 200.8 15.6 201 15.7 201.3 15.7 C 201.3 15.7 201.3 15.7 201.3 15.7 Z M 212.9 17.5 C 212.7 17 212.5 16.5 212.4 15.9 C 211.7 16.6 210.9 17.1 210.2 17.3 C 209.5 17.6 208.7 17.8 207.9 17.8 C 206.5 17.8 205.4 17.4 204.7 16.8 C 204 16.1 203.6 15.2 203.6 14.2 C 203.6 13.6 203.8 13 204 12.5 C 204.3 12 204.7 11.6 205.1 11.3 C 205.6 11 206.1 10.8 206.6 10.6 C 207.1 10.5 207.7 10.4 208.5 10.3 C 210.2 10.1 211.5 9.9 212.3 9.6 C 212.3 9.3 212.3 9.1 212.3 9 C 212.3 8.2 212.1 7.6 211.7 7.2 C 211.1 6.7 210.3 6.5 209.3 6.5 C 208.3 6.5 207.6 6.7 207.1 7 C 206.6 7.4 206.3 8 206 8.9 C 206 8.9 204 8.6 204 8.6 C 204.2 7.7 204.5 7 204.9 6.4 C 205.3 5.9 206 5.5 206.8 5.2 C 207.6 4.9 208.5 4.7 209.6 4.7 C 210.7 4.7 211.5 4.9 212.2 5.1 C 212.8 5.4 213.3 5.7 213.6 6.1 C 214 6.4 214.2 6.9 214.3 7.5 C 214.4 7.9 214.4 8.5 214.4 9.4 C 214.4 9.4 214.4 12.3 214.4 12.3 C 214.4 14.2 214.5 15.5 214.5 16 C 214.6 16.5 214.8 17 215.1 17.5 C 215.07 17.47 212.9 17.5 212.9 17.5 C 212.9 17.5 212.87 17.47 212.9 17.5 Z M 212.3 11.2 C 211.5 11.5 210.4 11.8 208.8 12 C 208 12.1 207.3 12.3 207 12.4 C 206.6 12.6 206.4 12.8 206.2 13.1 C 206 13.4 205.9 13.8 205.9 14.1 C 205.9 14.7 206.1 15.2 206.5 15.5 C 206.9 15.9 207.6 16.1 208.4 16.1 C 209.2 16.1 209.9 15.9 210.5 15.6 C 211.2 15.2 211.6 14.7 211.9 14.1 C 212.2 13.6 212.3 12.9 212.3 12 C 212.3 12 212.3 11.2 212.3 11.2 Z M 217.6 17.5 L 217.6 0.3 L 219.7 0.3 L 219.7 17.5 L 217.6 17.5 Z " stroke="none" fill="#000"/>  </g></svg>