<?xml version="1.0" standalone="no"?><!DOCTYPE svg PUBLIC "-//W3C//DTD SVG 1.1//EN" "http://www.w3.org/Graphics/SVG/1.1/DTD/svg11.dtd"><svg xmlns="http://www.w3.org/2000/svg" version="1.1" width="61.2px" height="34.5px" viewBox="0 -4 61.2 34.5" style="top:-4px">  <desc>Easy to Work With</desc>  <defs/>  <g id="Polygon6903">    <path d="M 5.5 23.1 L 3.2 14.5 L 4.4 14.5 C 4.4 14.5 5.66 20.18 5.7 20.2 C 5.8 20.8 5.9 21.4 6 21.9 C 6.2 21 6.4 20.5 6.4 20.3 C 6.41 20.35 8 14.5 8 14.5 L 9.4 14.5 C 9.4 14.5 10.64 18.89 10.6 18.9 C 11 20 11.2 21 11.3 21.9 C 11.4 21.4 11.6 20.8 11.7 20.1 C 11.74 20.07 13.1 14.5 13.1 14.5 L 14.2 14.5 L 11.9 23.1 L 10.8 23.1 C 10.8 23.1 8.97 16.59 9 16.6 C 8.8 16 8.7 15.7 8.7 15.6 C 8.6 16 8.5 16.3 8.4 16.6 C 8.45 16.59 6.6 23.1 6.6 23.1 L 5.5 23.1 Z M 14.5 20 C 14.5 18.9 14.9 18 15.5 17.5 C 16 17 16.7 16.8 17.5 16.8 C 18.3 16.8 19 17.1 19.6 17.6 C 20.1 18.2 20.4 18.9 20.4 19.9 C 20.4 20.7 20.3 21.4 20 21.8 C 19.8 22.3 19.4 22.6 19 22.9 C 18.5 23.1 18 23.3 17.5 23.3 C 16.6 23.3 15.9 23 15.4 22.4 C 14.8 21.9 14.5 21.1 14.5 20 Z M 15.6 20 C 15.6 20.8 15.8 21.4 16.2 21.8 C 16.5 22.2 16.9 22.4 17.5 22.4 C 18 22.4 18.4 22.2 18.8 21.8 C 19.1 21.4 19.3 20.8 19.3 20 C 19.3 19.2 19.1 18.6 18.8 18.2 C 18.4 17.8 18 17.6 17.5 17.6 C 16.9 17.6 16.5 17.8 16.2 18.2 C 15.8 18.6 15.6 19.2 15.6 20 Z M 21.6 23.1 L 21.6 16.9 L 22.5 16.9 C 22.5 16.9 22.55 17.86 22.5 17.9 C 22.8 17.4 23 17.1 23.2 17 C 23.4 16.8 23.7 16.8 23.9 16.8 C 24.3 16.8 24.6 16.9 25 17.1 C 25 17.1 24.6 18.1 24.6 18.1 C 24.4 17.9 24.1 17.9 23.8 17.9 C 23.6 17.9 23.4 17.9 23.2 18.1 C 23 18.2 22.9 18.4 22.8 18.6 C 22.7 19 22.7 19.4 22.7 19.9 C 22.66 19.88 22.7 23.1 22.7 23.1 L 21.6 23.1 Z M 25.6 23.1 L 25.6 14.5 L 26.7 14.5 L 26.7 19.4 L 29.2 16.9 L 30.5 16.9 L 28.2 19.2 L 30.8 23.1 L 29.5 23.1 L 27.4 20 L 26.7 20.7 L 26.7 23.1 L 25.6 23.1 Z M 36.6 23.1 L 34.3 14.5 L 35.5 14.5 C 35.5 14.5 36.77 20.18 36.8 20.2 C 36.9 20.8 37 21.4 37.1 21.9 C 37.4 21 37.5 20.5 37.5 20.3 C 37.52 20.35 39.2 14.5 39.2 14.5 L 40.5 14.5 C 40.5 14.5 41.76 18.89 41.8 18.9 C 42.1 20 42.3 21 42.4 21.9 C 42.5 21.4 42.7 20.8 42.9 20.1 C 42.85 20.07 44.2 14.5 44.2 14.5 L 45.3 14.5 L 43 23.1 L 41.9 23.1 C 41.9 23.1 40.08 16.59 40.1 16.6 C 39.9 16 39.8 15.7 39.8 15.6 C 39.7 16 39.6 16.3 39.6 16.6 C 39.56 16.59 37.7 23.1 37.7 23.1 L 36.6 23.1 Z M 46.3 15.8 L 46.3 14.5 L 47.3 14.5 L 47.3 15.8 L 46.3 15.8 Z M 46.3 23.1 L 46.3 16.9 L 47.3 16.9 L 47.3 23.1 L 46.3 23.1 Z M 50.8 22.2 C 50.9 22.2 51 22.2 51.2 22.2 C 51.2 22.2 51.4 23.1 51.4 23.1 C 51.1 23.2 50.8 23.2 50.6 23.2 C 50.2 23.2 49.9 23.2 49.7 23 C 49.5 22.9 49.3 22.8 49.3 22.6 C 49.2 22.4 49.1 21.9 49.1 21.3 C 49.13 21.31 49.1 17.7 49.1 17.7 L 48.4 17.7 L 48.4 16.9 L 49.1 16.9 L 49.1 15.4 L 50.2 14.7 L 50.2 16.9 L 51.2 16.9 L 51.2 17.7 L 50.2 17.7 C 50.2 17.7 50.18 21.37 50.2 21.4 C 50.2 21.7 50.2 21.9 50.2 22 C 50.3 22 50.3 22.1 50.4 22.2 C 50.5 22.2 50.6 22.2 50.8 22.2 C 50.8 22.2 50.8 22.2 50.8 22.2 Z M 52.3 23.1 L 52.3 14.5 L 53.3 14.5 C 53.3 14.5 53.32 17.63 53.3 17.6 C 53.8 17.1 54.4 16.8 55.2 16.8 C 55.6 16.8 56 16.9 56.4 17 C 56.7 17.2 57 17.5 57.1 17.8 C 57.3 18.1 57.3 18.6 57.3 19.2 C 57.34 19.19 57.3 23.1 57.3 23.1 L 56.3 23.1 C 56.3 23.1 56.28 19.19 56.3 19.2 C 56.3 18.7 56.2 18.3 55.9 18 C 55.7 17.8 55.4 17.7 55 17.7 C 54.7 17.7 54.4 17.8 54.1 17.9 C 53.8 18.1 53.6 18.3 53.5 18.6 C 53.4 18.9 53.3 19.2 53.3 19.7 C 53.32 19.73 53.3 23.1 53.3 23.1 L 52.3 23.1 Z " stroke="none" fill="#000"/>  </g>  <g id="Polygon6902">    <path d="M 11.5 8.7 L 11.5 0.1 L 17.7 0.1 L 17.7 1.2 L 12.7 1.2 L 12.7 3.8 L 17.4 3.8 L 17.4 4.8 L 12.7 4.8 L 12.7 7.7 L 17.9 7.7 L 17.9 8.7 L 11.5 8.7 Z M 23.7 8.7 C 23.5 8.5 23.5 8.3 23.4 8 C 23 8.3 22.7 8.5 22.3 8.7 C 22 8.8 21.6 8.9 21.1 8.9 C 20.5 8.9 19.9 8.7 19.6 8.4 C 19.2 8 19 7.6 19 7.1 C 19 6.8 19.1 6.5 19.2 6.3 C 19.4 6 19.6 5.8 19.8 5.7 C 20 5.5 20.3 5.4 20.5 5.3 C 20.7 5.3 21.1 5.2 21.5 5.2 C 22.3 5 23 4.9 23.4 4.8 C 23.4 4.6 23.4 4.6 23.4 4.5 C 23.4 4.1 23.3 3.8 23.1 3.6 C 22.8 3.4 22.4 3.2 21.9 3.2 C 21.4 3.2 21 3.3 20.8 3.5 C 20.5 3.7 20.3 4 20.2 4.4 C 20.2 4.4 19.2 4.3 19.2 4.3 C 19.3 3.8 19.5 3.5 19.7 3.2 C 19.9 2.9 20.2 2.7 20.6 2.6 C 21 2.4 21.5 2.4 22 2.4 C 22.5 2.4 23 2.4 23.3 2.6 C 23.6 2.7 23.9 2.8 24 3 C 24.2 3.2 24.3 3.5 24.4 3.8 C 24.4 3.9 24.4 4.3 24.4 4.7 C 24.4 4.7 24.4 6.1 24.4 6.1 C 24.4 7.1 24.4 7.7 24.5 8 C 24.5 8.2 24.6 8.5 24.8 8.7 C 24.75 8.74 23.7 8.7 23.7 8.7 C 23.7 8.7 23.65 8.74 23.7 8.7 Z M 23.4 5.6 C 23 5.8 22.4 5.9 21.6 6 C 21.2 6.1 20.9 6.1 20.7 6.2 C 20.5 6.3 20.4 6.4 20.3 6.6 C 20.2 6.7 20.1 6.9 20.1 7.1 C 20.1 7.3 20.3 7.6 20.5 7.8 C 20.7 8 21 8.1 21.4 8.1 C 21.8 8.1 22.2 8 22.5 7.8 C 22.8 7.6 23 7.4 23.2 7.1 C 23.3 6.8 23.4 6.5 23.4 6 C 23.4 6 23.4 5.6 23.4 5.6 Z M 25.6 6.9 C 25.6 6.9 26.7 6.7 26.7 6.7 C 26.7 7.1 26.9 7.5 27.2 7.7 C 27.4 7.9 27.8 8 28.3 8 C 28.8 8 29.1 7.9 29.4 7.7 C 29.6 7.5 29.7 7.3 29.7 7 C 29.7 6.8 29.6 6.6 29.4 6.5 C 29.3 6.4 28.9 6.2 28.3 6.1 C 27.6 5.9 27 5.7 26.7 5.6 C 26.4 5.5 26.2 5.3 26 5 C 25.9 4.7 25.8 4.5 25.8 4.2 C 25.8 3.9 25.9 3.6 26 3.4 C 26.1 3.2 26.3 3 26.5 2.8 C 26.7 2.7 26.9 2.6 27.2 2.5 C 27.5 2.4 27.8 2.4 28.1 2.4 C 28.6 2.4 29 2.4 29.4 2.6 C 29.8 2.7 30 2.9 30.2 3.2 C 30.4 3.4 30.5 3.7 30.6 4.1 C 30.6 4.1 29.5 4.3 29.5 4.3 C 29.5 3.9 29.4 3.7 29.1 3.5 C 28.9 3.3 28.6 3.2 28.2 3.2 C 27.7 3.2 27.3 3.3 27.1 3.5 C 26.9 3.6 26.8 3.8 26.8 4 C 26.8 4.2 26.9 4.3 27 4.4 C 27 4.5 27.2 4.6 27.4 4.7 C 27.5 4.7 27.8 4.8 28.3 5 C 29 5.2 29.6 5.3 29.9 5.5 C 30.1 5.6 30.4 5.8 30.5 6 C 30.7 6.2 30.8 6.5 30.8 6.9 C 30.8 7.3 30.7 7.6 30.5 7.9 C 30.3 8.2 30 8.5 29.6 8.6 C 29.2 8.8 28.8 8.9 28.3 8.9 C 27.5 8.9 26.9 8.7 26.4 8.4 C 26 8 25.7 7.5 25.6 6.9 Z M 32.7 11.3 C 32.5 11.3 32.3 11.2 32 11.1 C 32 11.1 31.9 10.1 31.9 10.1 C 32.1 10.2 32.3 10.2 32.5 10.2 C 32.7 10.2 32.9 10.2 33.1 10.1 C 33.2 10 33.3 9.9 33.4 9.8 C 33.5 9.7 33.6 9.4 33.7 9 C 33.7 8.9 33.8 8.9 33.8 8.7 C 33.82 8.75 31.5 2.5 31.5 2.5 L 32.6 2.5 C 32.6 2.5 33.89 6.12 33.9 6.1 C 34.1 6.6 34.2 7.1 34.3 7.6 C 34.5 7.1 34.6 6.6 34.8 6.1 C 34.77 6.14 36.1 2.5 36.1 2.5 L 37.2 2.5 C 37.2 2.5 34.79 8.84 34.8 8.8 C 34.5 9.5 34.3 10 34.2 10.3 C 34 10.6 33.8 10.9 33.6 11 C 33.3 11.2 33 11.3 32.7 11.3 C 32.7 11.3 32.7 11.3 32.7 11.3 Z M 43.2 7.8 C 43.3 7.8 43.5 7.8 43.7 7.8 C 43.7 7.8 43.8 8.7 43.8 8.7 C 43.5 8.8 43.3 8.8 43 8.8 C 42.7 8.8 42.4 8.8 42.2 8.6 C 41.9 8.5 41.8 8.4 41.7 8.2 C 41.6 8 41.6 7.5 41.6 6.9 C 41.58 6.91 41.6 3.3 41.6 3.3 L 40.8 3.3 L 40.8 2.5 L 41.6 2.5 L 41.6 1 L 42.6 0.3 L 42.6 2.5 L 43.7 2.5 L 43.7 3.3 L 42.6 3.3 C 42.6 3.3 42.63 6.97 42.6 7 C 42.6 7.3 42.6 7.5 42.7 7.6 C 42.7 7.6 42.8 7.7 42.9 7.8 C 43 7.8 43.1 7.8 43.2 7.8 C 43.2 7.8 43.2 7.8 43.2 7.8 Z M 44.3 5.6 C 44.3 4.5 44.6 3.6 45.3 3.1 C 45.8 2.6 46.5 2.4 47.2 2.4 C 48.1 2.4 48.8 2.7 49.3 3.2 C 49.9 3.8 50.2 4.5 50.2 5.5 C 50.2 6.3 50 7 49.8 7.4 C 49.6 7.9 49.2 8.2 48.7 8.5 C 48.3 8.7 47.8 8.9 47.2 8.9 C 46.4 8.9 45.7 8.6 45.1 8 C 44.6 7.5 44.3 6.7 44.3 5.6 Z M 45.4 5.6 C 45.4 6.4 45.6 7 45.9 7.4 C 46.3 7.8 46.7 8 47.2 8 C 47.8 8 48.2 7.8 48.6 7.4 C 48.9 7 49.1 6.4 49.1 5.6 C 49.1 4.8 48.9 4.2 48.6 3.8 C 48.2 3.4 47.8 3.2 47.2 3.2 C 46.7 3.2 46.3 3.4 45.9 3.8 C 45.6 4.2 45.4 4.8 45.4 5.6 Z " stroke="none" fill="#000"/>  </g></svg>