<?xml version="1.0" standalone="no"?><!DOCTYPE svg PUBLIC "-//W3C//DTD SVG 1.1//EN" "http://www.w3.org/Graphics/SVG/1.1/DTD/svg11.dtd"><svg xmlns="http://www.w3.org/2000/svg" version="1.1" width="126px" height="54.1px" viewBox="0 -1 126 54.1" style="top:-1px">  <desc>Knowledge</desc>  <defs/>  <g id="Polygon8445">    <path d="M 5.3 32.2 L 5.3 15 L 7.6 15 L 7.6 23.5 L 16.2 15 L 19.2 15 L 12 21.9 L 19.6 32.2 L 16.6 32.2 L 10.4 23.5 L 7.6 26.2 L 7.6 32.2 L 5.3 32.2 Z M 21.2 32.2 L 21.2 19.7 L 23.1 19.7 C 23.1 19.7 23.08 21.49 23.1 21.5 C 24 20.1 25.3 19.4 27 19.4 C 27.8 19.4 28.5 19.6 29.1 19.8 C 29.7 20.1 30.2 20.5 30.5 20.9 C 30.8 21.3 31.1 21.9 31.2 22.5 C 31.3 22.9 31.3 23.5 31.3 24.5 C 31.29 24.51 31.3 32.2 31.3 32.2 L 29.2 32.2 C 29.2 32.2 29.19 24.59 29.2 24.6 C 29.2 23.7 29.1 23.1 28.9 22.7 C 28.8 22.2 28.5 21.9 28.1 21.6 C 27.6 21.4 27.2 21.3 26.6 21.3 C 25.7 21.3 24.9 21.6 24.3 22.1 C 23.6 22.7 23.3 23.8 23.3 25.4 C 23.29 25.37 23.3 32.2 23.3 32.2 L 21.2 32.2 Z M 33.7 25.9 C 33.7 23.6 34.4 21.9 35.7 20.8 C 36.7 19.9 38 19.4 39.6 19.4 C 41.3 19.4 42.7 20 43.8 21.1 C 44.9 22.2 45.4 23.8 45.4 25.8 C 45.4 27.4 45.2 28.6 44.7 29.5 C 44.2 30.5 43.5 31.2 42.6 31.7 C 41.7 32.2 40.7 32.4 39.6 32.4 C 37.8 32.4 36.4 31.9 35.4 30.8 C 34.3 29.7 33.7 28 33.7 25.9 Z M 35.9 25.9 C 35.9 27.5 36.3 28.7 37 29.5 C 37.7 30.3 38.5 30.7 39.6 30.7 C 40.6 30.7 41.5 30.3 42.2 29.5 C 42.9 28.7 43.2 27.5 43.2 25.9 C 43.2 24.3 42.9 23.2 42.2 22.4 C 41.5 21.6 40.6 21.2 39.6 21.2 C 38.5 21.2 37.7 21.6 37 22.4 C 36.3 23.2 35.9 24.3 35.9 25.9 Z M 50.2 32.2 L 46.4 19.7 L 48.5 19.7 L 50.5 26.9 C 50.5 26.9 51.26 29.57 51.3 29.6 C 51.3 29.4 51.5 28.6 51.9 27 C 51.91 27.01 53.9 19.7 53.9 19.7 L 56.1 19.7 L 57.9 26.9 L 58.5 29.3 L 59.3 26.9 L 61.4 19.7 L 63.4 19.7 L 59.5 32.2 L 57.4 32.2 L 55.4 24.7 L 54.9 22.6 L 52.4 32.2 L 50.2 32.2 Z M 65.2 32.2 L 65.2 15 L 67.3 15 L 67.3 32.2 L 65.2 32.2 Z M 79.1 28.2 C 79.1 28.2 81.2 28.4 81.2 28.4 C 80.9 29.7 80.3 30.7 79.3 31.4 C 78.4 32.1 77.2 32.4 75.8 32.4 C 73.9 32.4 72.5 31.9 71.4 30.8 C 70.4 29.6 69.8 28.1 69.8 26 C 69.8 24 70.4 22.3 71.5 21.2 C 72.5 20 73.9 19.4 75.7 19.4 C 77.3 19.4 78.7 20 79.7 21.1 C 80.8 22.3 81.3 23.9 81.3 25.9 C 81.3 26 81.3 26.2 81.3 26.5 C 81.3 26.5 72 26.5 72 26.5 C 72.1 27.8 72.5 28.9 73.2 29.6 C 73.9 30.3 74.7 30.7 75.8 30.7 C 76.6 30.7 77.2 30.5 77.8 30.1 C 78.3 29.7 78.7 29 79.1 28.2 Z M 72.1 24.7 C 72.1 24.7 79.1 24.7 79.1 24.7 C 79 23.7 78.7 22.9 78.3 22.4 C 77.6 21.6 76.7 21.2 75.7 21.2 C 74.7 21.2 73.9 21.5 73.2 22.1 C 72.6 22.8 72.2 23.7 72.1 24.7 Z M 92 32.2 C 92 32.2 91.96 30.59 92 30.6 C 91.2 31.8 90 32.4 88.5 32.4 C 87.5 32.4 86.6 32.2 85.7 31.6 C 84.9 31.1 84.3 30.3 83.8 29.3 C 83.4 28.4 83.1 27.2 83.1 26 C 83.1 24.7 83.3 23.6 83.7 22.6 C 84.2 21.6 84.8 20.8 85.6 20.2 C 86.4 19.7 87.4 19.4 88.4 19.4 C 89.1 19.4 89.8 19.6 90.4 19.9 C 91 20.2 91.5 20.6 91.8 21.1 C 91.82 21.15 91.8 15 91.8 15 L 93.9 15 L 93.9 32.2 L 92 32.2 Z M 85.3 26 C 85.3 27.5 85.6 28.7 86.3 29.5 C 87 30.3 87.8 30.7 88.7 30.7 C 89.6 30.7 90.4 30.3 91 29.6 C 91.7 28.8 92 27.7 92 26.1 C 92 24.4 91.7 23.2 91 22.4 C 90.4 21.6 89.5 21.2 88.6 21.2 C 87.7 21.2 86.9 21.6 86.2 22.3 C 85.6 23.1 85.3 24.3 85.3 26 Z M 96.8 33.2 C 96.8 33.2 98.9 33.5 98.9 33.5 C 99 34.1 99.2 34.6 99.6 34.9 C 100.1 35.3 100.9 35.5 101.8 35.5 C 102.7 35.5 103.5 35.3 104 34.9 C 104.6 34.5 104.9 33.9 105.1 33.2 C 105.2 32.8 105.3 31.9 105.3 30.5 C 104.3 31.6 103.2 32.2 101.8 32.2 C 100.1 32.2 98.8 31.5 97.8 30.3 C 96.9 29.1 96.4 27.6 96.4 25.9 C 96.4 24.7 96.6 23.6 97.1 22.6 C 97.5 21.6 98.1 20.8 98.9 20.3 C 99.8 19.7 100.7 19.4 101.8 19.4 C 103.3 19.4 104.5 20 105.5 21.2 C 105.45 21.22 105.5 19.7 105.5 19.7 L 107.4 19.7 C 107.4 19.7 107.4 30.48 107.4 30.5 C 107.4 32.4 107.2 33.8 106.8 34.6 C 106.4 35.4 105.8 36 104.9 36.5 C 104.1 37 103 37.2 101.8 37.2 C 100.3 37.2 99.1 36.9 98.2 36.2 C 97.3 35.5 96.8 34.5 96.8 33.2 Z M 98.6 25.7 C 98.6 27.4 98.9 28.5 99.6 29.3 C 100.2 30 101 30.4 102 30.4 C 103 30.4 103.8 30 104.4 29.3 C 105.1 28.6 105.4 27.4 105.4 25.8 C 105.4 24.3 105.1 23.1 104.4 22.3 C 103.7 21.6 102.9 21.2 102 21.2 C 101 21.2 100.2 21.6 99.6 22.3 C 98.9 23.1 98.6 24.2 98.6 25.7 Z M 119.1 28.2 C 119.1 28.2 121.3 28.4 121.3 28.4 C 120.9 29.7 120.3 30.7 119.4 31.4 C 118.4 32.1 117.3 32.4 115.8 32.4 C 114 32.4 112.5 31.9 111.5 30.8 C 110.4 29.6 109.9 28.1 109.9 26 C 109.9 24 110.4 22.3 111.5 21.2 C 112.6 20 114 19.4 115.7 19.4 C 117.4 19.4 118.7 20 119.8 21.1 C 120.8 22.3 121.4 23.9 121.4 25.9 C 121.4 26 121.3 26.2 121.3 26.5 C 121.3 26.5 112.1 26.5 112.1 26.5 C 112.1 27.8 112.5 28.9 113.2 29.6 C 113.9 30.3 114.8 30.7 115.8 30.7 C 116.6 30.7 117.3 30.5 117.8 30.1 C 118.3 29.7 118.8 29 119.1 28.2 Z M 112.2 24.7 C 112.2 24.7 119.1 24.7 119.1 24.7 C 119 23.7 118.8 22.9 118.3 22.4 C 117.7 21.6 116.8 21.2 115.7 21.2 C 114.7 21.2 113.9 21.5 113.3 22.1 C 112.6 22.8 112.2 23.7 112.2 24.7 Z " stroke="none" fill="#000"/>  </g></svg>