<?xml version="1.0" standalone="no"?><!DOCTYPE svg PUBLIC "-//W3C//DTD SVG 1.1//EN" "http://www.w3.org/Graphics/SVG/1.1/DTD/svg11.dtd"><svg xmlns="http://www.w3.org/2000/svg" version="1.1" width="83px" height="39.1px" viewBox="0 -8 83 39.1" style="top:-8px">  <desc>100 0</desc>  <defs/>  <g id="Polygon8020">    <path d="M 0.8 12.3 L 0.8 10.2 L 7.2 10.2 L 7.2 12.3 L 0.8 12.3 Z M 16.9 17.5 L 14.8 17.5 C 14.8 17.5 14.82 4.03 14.8 4 C 14.3 4.5 13.7 5 12.8 5.5 C 12 6 11.3 6.3 10.6 6.6 C 10.6 6.6 10.6 4.5 10.6 4.5 C 11.8 4 12.8 3.3 13.7 2.5 C 14.6 1.7 15.2 1 15.6 0.2 C 15.57 0.22 16.9 0.2 16.9 0.2 L 16.9 17.5 Z M 24 16 C 22.9 14.6 22.3 12.2 22.3 9 C 22.3 7 22.5 5.3 23 4.1 C 23.4 2.9 24 1.9 24.8 1.2 C 25.7 0.6 26.7 0.2 27.9 0.2 C 28.9 0.2 29.7 0.4 30.4 0.8 C 31.1 1.2 31.6 1.7 32.1 2.4 C 32.5 3.1 32.9 3.9 33.2 4.9 C 33.4 5.9 33.5 7.3 33.5 9 C 33.5 11 33.3 12.6 32.9 13.9 C 32.5 15.1 31.9 16.1 31.1 16.8 C 30.2 17.4 29.2 17.8 27.9 17.8 C 26.3 17.8 25 17.2 24 16 C 24 16 24 16 24 16 Z M 25.6 3.2 C 24.9 4.2 24.5 6.2 24.5 9 C 24.5 11.8 24.8 13.7 25.5 14.6 C 26.2 15.6 27 16 27.9 16 C 28.9 16 29.7 15.6 30.4 14.6 C 31 13.7 31.4 11.8 31.4 9 C 31.4 6.2 31 4.3 30.4 3.4 C 29.7 2.4 28.9 2 27.9 2 C 26.9 2 26.2 2.4 25.6 3.2 C 25.6 3.2 25.6 3.2 25.6 3.2 Z M 37.4 16 C 36.2 14.6 35.7 12.2 35.7 9 C 35.7 7 35.9 5.3 36.3 4.1 C 36.7 2.9 37.3 1.9 38.2 1.2 C 39 0.6 40 0.2 41.3 0.2 C 42.2 0.2 43 0.4 43.7 0.8 C 44.4 1.2 45 1.7 45.4 2.4 C 45.9 3.1 46.2 3.9 46.5 4.9 C 46.8 5.9 46.9 7.3 46.9 9 C 46.9 11 46.7 12.6 46.3 13.9 C 45.9 15.1 45.2 16.1 44.4 16.8 C 43.6 17.4 42.5 17.8 41.3 17.8 C 39.6 17.8 38.3 17.2 37.4 16 C 37.4 16 37.4 16 37.4 16 Z M 38.9 3.2 C 38.2 4.2 37.9 6.2 37.9 9 C 37.9 11.8 38.2 13.7 38.8 14.6 C 39.5 15.6 40.3 16 41.3 16 C 42.3 16 43.1 15.6 43.7 14.6 C 44.4 13.7 44.7 11.8 44.7 9 C 44.7 6.2 44.4 4.3 43.7 3.4 C 43.1 2.4 42.2 2 41.3 2 C 40.3 2 39.5 2.4 38.9 3.2 C 38.9 3.2 38.9 3.2 38.9 3.2 Z M 55.5 12.3 L 55.5 10.2 L 61.9 10.2 L 61.9 12.3 L 55.5 12.3 Z M 72.1 16 C 70.9 14.6 70.4 12.2 70.4 9 C 70.4 7 70.6 5.3 71 4.1 C 71.4 2.9 72 1.9 72.8 1.2 C 73.7 0.6 74.7 0.2 76 0.2 C 76.9 0.2 77.7 0.4 78.4 0.8 C 79.1 1.2 79.7 1.7 80.1 2.4 C 80.6 3.1 80.9 3.9 81.2 4.9 C 81.4 5.9 81.6 7.3 81.6 9 C 81.6 11 81.4 12.6 80.9 13.9 C 80.5 15.1 79.9 16.1 79.1 16.8 C 78.3 17.4 77.2 17.8 76 17.8 C 74.3 17.8 73 17.2 72.1 16 C 72.1 16 72.1 16 72.1 16 Z M 73.6 3.2 C 72.9 4.2 72.5 6.2 72.5 9 C 72.5 11.8 72.9 13.7 73.5 14.6 C 74.2 15.6 75 16 76 16 C 76.9 16 77.7 15.6 78.4 14.6 C 79.1 13.7 79.4 11.8 79.4 9 C 79.4 6.2 79.1 4.3 78.4 3.4 C 77.7 2.4 76.9 2 75.9 2 C 75 2 74.2 2.4 73.6 3.2 C 73.6 3.2 73.6 3.2 73.6 3.2 Z " stroke="none" fill="#000"/>  </g></svg>