<?xml version="1.0" standalone="no"?><!DOCTYPE svg PUBLIC "-//W3C//DTD SVG 1.1//EN" "http://www.w3.org/Graphics/SVG/1.1/DTD/svg11.dtd"><svg xmlns="http://www.w3.org/2000/svg" version="1.1" width="126px" height="68.1px" viewBox="0 -8 126 68.1" style="top:-8px">  <desc>Honesty &amp; Integrity</desc>  <defs/>  <g id="Polygon23426">    <path d="M 23 46.7 C 22.1 46.1 21.3 45.3 20.3 44.2 C 19.7 45 18.9 45.6 18.1 46 C 17.3 46.4 16.4 46.6 15.4 46.6 C 13.7 46.6 12.3 46 11.2 44.8 C 10.4 43.8 10 42.7 10 41.5 C 10 40.5 10.3 39.5 11 38.7 C 11.7 37.8 12.7 37.1 14.1 36.4 C 13.3 35.5 12.8 34.8 12.5 34.2 C 12.3 33.7 12.1 33.1 12.1 32.6 C 12.1 31.6 12.5 30.7 13.3 29.9 C 14.2 29.2 15.2 28.8 16.4 28.8 C 17.6 28.8 18.5 29.2 19.3 29.9 C 20 30.6 20.4 31.5 20.4 32.5 C 20.4 34.1 19.3 35.5 17.2 36.7 C 17.2 36.7 20.2 40.6 20.2 40.6 C 20.6 39.9 20.9 39.1 21.1 38.2 C 21.1 38.2 23.2 38.7 23.2 38.7 C 22.9 40.2 22.4 41.4 21.7 42.4 C 22.5 43.4 23.4 44.3 24.4 45 C 24.4 45 23 46.7 23 46.7 C 23 46.7 22.99 46.67 23 46.7 Z M 16.1 35.3 C 17 34.8 17.6 34.3 17.8 33.9 C 18.1 33.5 18.2 33 18.2 32.5 C 18.2 31.9 18.1 31.5 17.7 31.1 C 17.3 30.7 16.8 30.5 16.3 30.5 C 15.7 30.5 15.3 30.7 14.9 31.1 C 14.5 31.5 14.3 31.9 14.3 32.4 C 14.3 32.7 14.4 33 14.5 33.3 C 14.6 33.6 14.8 33.9 15.1 34.2 C 15.1 34.2 16.1 35.3 16.1 35.3 Z M 19 42.6 C 19 42.6 15.2 37.8 15.2 37.8 C 14 38.5 13.2 39.1 12.8 39.7 C 12.5 40.3 12.3 40.8 12.3 41.4 C 12.3 42.1 12.5 42.8 13.1 43.6 C 13.6 44.3 14.4 44.7 15.4 44.7 C 16.1 44.7 16.7 44.5 17.4 44.1 C 18.1 43.7 18.6 43.2 19 42.6 Z M 33.9 46.3 L 33.9 29.1 L 36.1 29.1 L 36.1 46.3 L 33.9 46.3 Z M 39.9 46.3 L 39.9 33.8 L 41.8 33.8 C 41.8 33.8 41.77 35.6 41.8 35.6 C 42.7 34.2 44 33.5 45.7 33.5 C 46.5 33.5 47.2 33.7 47.8 34 C 48.4 34.2 48.9 34.6 49.2 35 C 49.5 35.4 49.7 36 49.9 36.6 C 49.9 37 50 37.6 50 38.6 C 49.99 38.62 50 46.3 50 46.3 L 47.9 46.3 C 47.9 46.3 47.88 38.7 47.9 38.7 C 47.9 37.8 47.8 37.2 47.6 36.8 C 47.5 36.3 47.2 36 46.8 35.8 C 46.3 35.5 45.8 35.4 45.3 35.4 C 44.4 35.4 43.6 35.7 43 36.2 C 42.3 36.8 42 37.9 42 39.5 C 41.98 39.48 42 46.3 42 46.3 L 39.9 46.3 Z M 56.9 44.5 C 57.1 44.5 57.4 44.4 57.8 44.4 C 57.8 44.4 58.1 46.2 58.1 46.2 C 57.5 46.4 57 46.4 56.5 46.4 C 55.8 46.4 55.2 46.3 54.8 46.1 C 54.3 45.8 54 45.5 53.9 45.1 C 53.7 44.7 53.6 43.9 53.6 42.6 C 53.61 42.63 53.6 35.5 53.6 35.5 L 52.1 35.5 L 52.1 33.8 L 53.6 33.8 L 53.6 30.7 L 55.7 29.5 L 55.7 33.8 L 57.8 33.8 L 57.8 35.5 L 55.7 35.5 C 55.7 35.5 55.71 42.75 55.7 42.7 C 55.7 43.3 55.7 43.7 55.8 43.9 C 55.9 44.1 56 44.2 56.2 44.3 C 56.3 44.4 56.6 44.5 56.9 44.5 C 56.9 44.5 56.9 44.5 56.9 44.5 Z M 68.4 42.3 C 68.4 42.3 70.6 42.5 70.6 42.5 C 70.2 43.8 69.6 44.8 68.7 45.5 C 67.7 46.2 66.6 46.6 65.1 46.6 C 63.3 46.6 61.9 46 60.8 44.9 C 59.7 43.8 59.2 42.2 59.2 40.2 C 59.2 38.1 59.7 36.4 60.8 35.3 C 61.9 34.1 63.3 33.5 65 33.5 C 66.7 33.5 68 34.1 69.1 35.2 C 70.1 36.4 70.7 38 70.7 40 C 70.7 40.2 70.7 40.3 70.6 40.6 C 70.6 40.6 61.4 40.6 61.4 40.6 C 61.4 42 61.8 43 62.5 43.7 C 63.2 44.5 64.1 44.8 65.1 44.8 C 65.9 44.8 66.6 44.6 67.1 44.2 C 67.7 43.8 68.1 43.2 68.4 42.3 Z M 61.5 38.9 C 61.5 38.9 68.4 38.9 68.4 38.9 C 68.3 37.8 68.1 37 67.6 36.5 C 67 35.7 66.1 35.3 65 35.3 C 64.1 35.3 63.2 35.6 62.6 36.3 C 61.9 36.9 61.6 37.8 61.5 38.9 Z M 72.8 47.3 C 72.8 47.3 74.9 47.6 74.9 47.6 C 75 48.2 75.2 48.7 75.6 49 C 76.1 49.4 76.9 49.6 77.8 49.6 C 78.7 49.6 79.5 49.4 80 49 C 80.6 48.6 80.9 48.1 81.1 47.4 C 81.2 46.9 81.3 46 81.3 44.6 C 80.3 45.7 79.2 46.3 77.8 46.3 C 76.1 46.3 74.8 45.7 73.8 44.4 C 72.9 43.2 72.4 41.7 72.4 40 C 72.4 38.8 72.6 37.7 73.1 36.7 C 73.5 35.7 74.1 34.9 74.9 34.4 C 75.8 33.8 76.7 33.5 77.8 33.5 C 79.3 33.5 80.5 34.1 81.5 35.3 C 81.45 35.33 81.5 33.8 81.5 33.8 L 83.4 33.8 C 83.4 33.8 83.4 44.59 83.4 44.6 C 83.4 46.5 83.2 47.9 82.8 48.7 C 82.4 49.5 81.8 50.2 80.9 50.6 C 80.1 51.1 79 51.3 77.8 51.3 C 76.3 51.3 75.1 51 74.2 50.3 C 73.3 49.7 72.8 48.6 72.8 47.3 Z M 74.6 39.8 C 74.6 41.5 74.9 42.7 75.6 43.4 C 76.2 44.2 77 44.5 78 44.5 C 79 44.5 79.8 44.2 80.4 43.4 C 81.1 42.7 81.4 41.5 81.4 39.9 C 81.4 38.4 81.1 37.2 80.4 36.5 C 79.7 35.7 78.9 35.3 78 35.3 C 77 35.3 76.2 35.7 75.6 36.4 C 74.9 37.2 74.6 38.3 74.6 39.8 Z M 86.6 46.3 L 86.6 33.8 L 88.5 33.8 C 88.5 33.8 88.46 35.71 88.5 35.7 C 88.9 34.8 89.4 34.2 89.8 34 C 90.2 33.7 90.7 33.5 91.2 33.5 C 91.9 33.5 92.6 33.8 93.3 34.2 C 93.3 34.2 92.6 36.2 92.6 36.2 C 92.1 35.9 91.6 35.7 91 35.7 C 90.6 35.7 90.2 35.9 89.8 36.1 C 89.4 36.4 89.2 36.8 89 37.3 C 88.8 38 88.7 38.9 88.7 39.8 C 88.67 39.76 88.7 46.3 88.7 46.3 L 86.6 46.3 Z M 94.6 31.5 L 94.6 29.1 L 96.7 29.1 L 96.7 31.5 L 94.6 31.5 Z M 94.6 46.3 L 94.6 33.8 L 96.7 33.8 L 96.7 46.3 L 94.6 46.3 Z M 103.6 44.5 C 103.8 44.5 104.1 44.4 104.5 44.4 C 104.5 44.4 104.8 46.2 104.8 46.2 C 104.2 46.4 103.7 46.4 103.2 46.4 C 102.5 46.4 101.9 46.3 101.4 46.1 C 101 45.8 100.7 45.5 100.6 45.1 C 100.4 44.7 100.3 43.9 100.3 42.6 C 100.29 42.63 100.3 35.5 100.3 35.5 L 98.7 35.5 L 98.7 33.8 L 100.3 33.8 L 100.3 30.7 L 102.4 29.5 L 102.4 33.8 L 104.5 33.8 L 104.5 35.5 L 102.4 35.5 C 102.4 35.5 102.39 42.75 102.4 42.7 C 102.4 43.3 102.4 43.7 102.5 43.9 C 102.6 44.1 102.7 44.2 102.9 44.3 C 103 44.4 103.3 44.5 103.6 44.5 C 103.6 44.5 103.6 44.5 103.6 44.5 Z M 107.8 51.3 C 107.4 51.3 107 51.2 106.5 51.1 C 106.5 51.1 106.2 49.1 106.2 49.1 C 106.7 49.2 107.1 49.3 107.5 49.3 C 107.9 49.3 108.3 49.2 108.6 49 C 108.9 48.9 109.1 48.7 109.3 48.4 C 109.4 48.2 109.6 47.6 109.9 46.8 C 110 46.7 110 46.5 110.1 46.3 C 110.1 46.3 105.4 33.8 105.4 33.8 L 107.7 33.8 C 107.7 33.8 110.24 41.03 110.2 41 C 110.6 41.9 110.9 42.9 111.1 43.9 C 111.4 42.9 111.7 42 112 41.1 C 112.01 41.08 114.7 33.8 114.7 33.8 L 116.8 33.8 C 116.8 33.8 112.05 46.48 112 46.5 C 111.5 47.9 111.1 48.8 110.9 49.3 C 110.5 50 110.1 50.5 109.6 50.8 C 109.1 51.2 108.5 51.3 107.8 51.3 C 107.8 51.3 107.8 51.3 107.8 51.3 Z " stroke="none" fill="#000"/>  </g>  <g id="Polygon23425">    <path d="M 20.9 17.5 L 20.9 0.3 L 23.1 0.3 L 23.1 7.3 L 32.1 7.3 L 32.1 0.3 L 34.3 0.3 L 34.3 17.5 L 32.1 17.5 L 32.1 9.4 L 23.1 9.4 L 23.1 17.5 L 20.9 17.5 Z M 37.1 11.3 C 37.1 8.9 37.7 7.2 39 6.1 C 40.1 5.2 41.4 4.7 42.9 4.7 C 44.6 4.7 46 5.3 47.1 6.4 C 48.2 7.5 48.7 9.1 48.7 11.1 C 48.7 12.7 48.5 13.9 48 14.9 C 47.5 15.8 46.8 16.5 45.9 17 C 45 17.5 44 17.8 42.9 17.8 C 41.2 17.8 39.8 17.2 38.7 16.1 C 37.6 15 37.1 13.4 37.1 11.3 Z M 39.2 11.3 C 39.2 12.8 39.6 14 40.3 14.8 C 41 15.6 41.9 16 42.9 16 C 44 16 44.8 15.6 45.5 14.8 C 46.2 14 46.6 12.8 46.6 11.2 C 46.6 9.6 46.2 8.5 45.5 7.7 C 44.8 6.9 44 6.5 42.9 6.5 C 41.9 6.5 41 6.9 40.3 7.7 C 39.6 8.5 39.2 9.7 39.2 11.3 Z M 51.2 17.5 L 51.2 5 L 53.1 5 C 53.1 5 53.11 6.8 53.1 6.8 C 54 5.4 55.3 4.7 57.1 4.7 C 57.8 4.7 58.5 4.9 59.1 5.2 C 59.8 5.4 60.2 5.8 60.6 6.2 C 60.9 6.6 61.1 7.2 61.2 7.8 C 61.3 8.2 61.3 8.8 61.3 9.8 C 61.32 9.82 61.3 17.5 61.3 17.5 L 59.2 17.5 C 59.2 17.5 59.21 9.9 59.2 9.9 C 59.2 9 59.1 8.4 59 8 C 58.8 7.5 58.5 7.2 58.1 7 C 57.7 6.7 57.2 6.6 56.6 6.6 C 55.7 6.6 55 6.9 54.3 7.4 C 53.6 8 53.3 9.1 53.3 10.7 C 53.32 10.68 53.3 17.5 53.3 17.5 L 51.2 17.5 Z M 73.1 13.5 C 73.1 13.5 75.3 13.7 75.3 13.7 C 74.9 15 74.3 16 73.3 16.7 C 72.4 17.4 71.2 17.8 69.8 17.8 C 68 17.8 66.5 17.2 65.5 16.1 C 64.4 15 63.9 13.4 63.9 11.4 C 63.9 9.3 64.4 7.6 65.5 6.5 C 66.6 5.3 67.9 4.7 69.7 4.7 C 71.3 4.7 72.7 5.3 73.7 6.4 C 74.8 7.6 75.3 9.2 75.3 11.2 C 75.3 11.4 75.3 11.5 75.3 11.8 C 75.3 11.8 66 11.8 66 11.8 C 66.1 13.2 66.5 14.2 67.2 14.9 C 67.9 15.7 68.8 16 69.8 16 C 70.6 16 71.2 15.8 71.8 15.4 C 72.3 15 72.8 14.4 73.1 13.5 Z M 66.2 10.1 C 66.2 10.1 73.1 10.1 73.1 10.1 C 73 9 72.7 8.2 72.3 7.7 C 71.6 6.9 70.8 6.5 69.7 6.5 C 68.7 6.5 67.9 6.8 67.2 7.5 C 66.6 8.1 66.2 9 66.2 10.1 Z M 77.1 13.8 C 77.1 13.8 79.1 13.4 79.1 13.4 C 79.3 14.3 79.6 14.9 80.1 15.4 C 80.7 15.8 81.4 16 82.4 16 C 83.3 16 84.1 15.8 84.5 15.4 C 85 15 85.2 14.6 85.2 14 C 85.2 13.6 85 13.2 84.6 12.9 C 84.3 12.7 83.6 12.5 82.5 12.2 C 80.9 11.8 79.8 11.5 79.2 11.2 C 78.6 10.9 78.2 10.5 77.9 10 C 77.6 9.5 77.4 8.9 77.4 8.3 C 77.4 7.8 77.5 7.3 77.8 6.8 C 78 6.3 78.4 5.9 78.8 5.6 C 79.2 5.4 79.6 5.2 80.2 5 C 80.7 4.8 81.3 4.7 82 4.7 C 83 4.7 83.8 4.9 84.6 5.2 C 85.3 5.4 85.9 5.8 86.2 6.3 C 86.6 6.8 86.8 7.4 86.9 8.2 C 86.9 8.2 84.9 8.5 84.9 8.5 C 84.8 7.9 84.5 7.4 84.1 7 C 83.6 6.7 83 6.5 82.1 6.5 C 81.2 6.5 80.5 6.6 80.1 7 C 79.7 7.3 79.5 7.7 79.5 8.1 C 79.5 8.4 79.5 8.6 79.7 8.8 C 79.9 9.1 80.2 9.2 80.5 9.4 C 80.7 9.5 81.4 9.6 82.4 9.9 C 83.9 10.3 84.9 10.7 85.5 10.9 C 86.1 11.2 86.6 11.5 86.9 12 C 87.2 12.5 87.4 13.1 87.4 13.8 C 87.4 14.5 87.2 15.2 86.8 15.8 C 86.4 16.4 85.8 16.9 85 17.2 C 84.2 17.6 83.4 17.8 82.4 17.8 C 80.8 17.8 79.5 17.4 78.7 16.7 C 77.8 16.1 77.3 15.1 77.1 13.8 Z M 93.6 15.7 C 93.8 15.7 94.1 15.6 94.5 15.6 C 94.5 15.6 94.8 17.4 94.8 17.4 C 94.2 17.6 93.7 17.6 93.2 17.6 C 92.5 17.6 91.9 17.5 91.4 17.3 C 91 17 90.7 16.7 90.6 16.3 C 90.4 15.9 90.3 15.1 90.3 13.8 C 90.29 13.83 90.3 6.7 90.3 6.7 L 88.7 6.7 L 88.7 5 L 90.3 5 L 90.3 1.9 L 92.4 0.7 L 92.4 5 L 94.5 5 L 94.5 6.7 L 92.4 6.7 C 92.4 6.7 92.39 13.95 92.4 13.9 C 92.4 14.5 92.4 14.9 92.5 15.1 C 92.6 15.3 92.7 15.4 92.9 15.5 C 93 15.6 93.3 15.7 93.6 15.7 C 93.6 15.7 93.6 15.7 93.6 15.7 Z M 97.8 22.5 C 97.4 22.5 97 22.4 96.5 22.3 C 96.5 22.3 96.2 20.3 96.2 20.3 C 96.7 20.4 97.1 20.5 97.5 20.5 C 97.9 20.5 98.3 20.4 98.6 20.2 C 98.9 20.1 99.1 19.9 99.3 19.6 C 99.4 19.4 99.6 18.8 99.9 18 C 100 17.9 100 17.7 100.1 17.5 C 100.1 17.5 95.4 5 95.4 5 L 97.7 5 C 97.7 5 100.24 12.23 100.2 12.2 C 100.6 13.1 100.9 14.1 101.1 15.1 C 101.4 14.1 101.7 13.2 102 12.3 C 102.01 12.28 104.7 5 104.7 5 L 106.8 5 C 106.8 5 102.05 17.68 102 17.7 C 101.5 19.1 101.1 20 100.9 20.5 C 100.5 21.2 100.1 21.7 99.6 22 C 99.1 22.4 98.5 22.5 97.8 22.5 C 97.8 22.5 97.8 22.5 97.8 22.5 Z " stroke="none" fill="#000"/>  </g></svg>