<?xml version="1.0" standalone="no"?><!DOCTYPE svg PUBLIC "-//W3C//DTD SVG 1.1//EN" "http://www.w3.org/Graphics/SVG/1.1/DTD/svg11.dtd"><svg xmlns="http://www.w3.org/2000/svg" version="1.1" width="478.3px" height="46.1px" viewBox="0 -8 478.3 46.1" style="top:-8px">  <desc>Delivering Excellence at Scale</desc>  <defs/>  <g id="Polygon50834">    <path d="M 2.3 1.4 C 2.3 1.4 9.84 1.41 9.8 1.4 C 16.5 1.4 20.9 5.6 20.9 11.4 C 20.9 17.8 16.4 21.9 9.8 21.9 C 9.84 21.87 2.3 21.9 2.3 21.9 L 2.3 1.4 Z M 9.8 19.8 C 15.2 19.8 18.5 16.6 18.5 11.6 C 18.5 6.7 15.3 3.4 9.5 3.4 C 9.48 3.42 4.6 3.4 4.6 3.4 L 4.6 19.8 C 4.6 19.8 9.81 19.83 9.8 19.8 Z M 35.8 1.4 L 35.8 3.4 L 26.8 3.4 L 26.8 10.6 L 35.5 10.6 L 35.5 12.6 L 26.8 12.6 L 26.8 19.8 L 36 19.8 L 36 21.9 L 24.6 21.9 L 24.6 1.4 L 35.8 1.4 Z M 41.9 1.4 L 41.9 19.8 L 51.5 19.8 L 51.5 21.9 L 39.7 21.9 L 39.7 1.4 L 41.9 1.4 Z M 56.4 1.4 L 56.4 21.9 L 54.1 21.9 L 54.1 1.4 L 56.4 1.4 Z M 58.7 1.4 L 61 1.4 L 67.6 17.3 L 67.7 17.3 L 74.3 1.4 L 76.6 1.4 L 67.9 22.1 L 67.4 22.1 L 58.7 1.4 Z M 90.1 1.4 L 90.1 3.4 L 81.1 3.4 L 81.1 10.6 L 89.8 10.6 L 89.8 12.6 L 81.1 12.6 L 81.1 19.8 L 90.3 19.8 L 90.3 21.9 L 78.9 21.9 L 78.9 1.4 L 90.1 1.4 Z M 94 1.4 C 94 1.4 99.33 1.41 99.3 1.4 C 103.4 1.4 105.6 3.8 105.6 6.9 C 105.6 9.4 104.2 11.2 101.7 11.9 C 103 12.6 103.6 13.2 105.3 15.7 C 105.3 15.75 109.3 21.9 109.3 21.9 L 106.6 21.9 C 106.6 21.9 102.99 16.23 103 16.2 C 101.1 13.2 99.8 12.6 98.1 12.6 C 98.1 12.57 96.2 12.6 96.2 12.6 L 96.2 21.9 L 94 21.9 L 94 1.4 Z M 98.3 10.6 C 101.1 10.6 103.3 9.9 103.3 6.9 C 103.3 4.4 101.6 3.4 99 3.4 C 99.03 3.39 96.2 3.4 96.2 3.4 L 96.2 10.6 C 96.2 10.6 98.31 10.59 98.3 10.6 Z M 113.8 1.4 L 113.8 21.9 L 111.5 21.9 L 111.5 1.4 L 113.8 1.4 Z M 120.2 1.4 L 134.7 18.3 L 134.7 1.4 L 136.9 1.4 L 136.9 21.9 L 134.9 21.9 L 120.5 5 L 120.5 21.9 L 118.3 21.9 L 118.3 1.4 L 120.2 1.4 Z M 158.3 5.2 C 156.1 3.8 153.6 3.1 151.3 3.1 C 146.5 3.1 142.9 6.7 142.9 11.5 C 142.9 16.6 146.4 20.1 151.5 20.1 C 153.2 20.1 154.4 19.9 156.5 19.1 C 156.51 19.08 156.5 14.1 156.5 14.1 L 152.3 14.1 L 152.3 12.1 L 158.8 12.1 C 158.8 12.1 158.76 20.46 158.8 20.5 C 156.4 21.6 154.1 22.1 151.5 22.1 C 144.1 22.1 140.5 17 140.5 11.8 C 140.5 5.9 144.8 1.1 151.4 1.1 C 153.7 1.1 155.6 1.6 158.3 2.8 C 158.3 2.8 158.3 5.2 158.3 5.2 Z M 182.6 1.4 L 182.6 3.4 L 173.6 3.4 L 173.6 10.6 L 182.3 10.6 L 182.3 12.6 L 173.6 12.6 L 173.6 19.8 L 182.8 19.8 L 182.8 21.9 L 171.4 21.9 L 171.4 1.4 L 182.6 1.4 Z M 188.2 1.4 C 191.5 5.2 192.4 6.3 195.3 9.7 C 197.4 7.2 199.6 4.6 202.3 1.4 C 202.26 1.41 205 1.4 205 1.4 L 196.6 11.3 L 205.5 21.9 L 202.8 21.9 L 195.3 12.9 L 187.6 21.9 L 184.9 21.9 L 193.9 11.3 L 185.5 1.4 C 185.5 1.4 188.22 1.41 188.2 1.4 Z M 223.6 2.8 C 223.6 2.8 223.6 5.2 223.6 5.2 C 221.4 4 219 3.2 216.6 3.2 C 211.4 3.2 208.1 7.2 208.1 11.7 C 208.1 16.3 211.4 20 216.6 20 C 219.1 20 221.5 19.3 223.7 17.9 C 223.7 17.9 223.7 20.4 223.7 20.4 C 221.4 21.6 219.1 22.1 216.5 22.1 C 209.5 22.1 205.8 16.8 205.8 11.7 C 205.8 5.6 210.4 1.1 216.6 1.1 C 218.9 1.1 221.2 1.7 223.6 2.8 Z M 238.4 1.4 L 238.4 3.4 L 229.5 3.4 L 229.5 10.6 L 238.1 10.6 L 238.1 12.6 L 229.5 12.6 L 229.5 19.8 L 238.7 19.8 L 238.7 21.9 L 227.2 21.9 L 227.2 1.4 L 238.4 1.4 Z M 244.6 1.4 L 244.6 19.8 L 254.2 19.8 L 254.2 21.9 L 242.3 21.9 L 242.3 1.4 L 244.6 1.4 Z M 259 1.4 L 259 19.8 L 268.7 19.8 L 268.7 21.9 L 256.8 21.9 L 256.8 1.4 L 259 1.4 Z M 282.5 1.4 L 282.5 3.4 L 273.5 3.4 L 273.5 10.6 L 282.2 10.6 L 282.2 12.6 L 273.5 12.6 L 273.5 19.8 L 282.7 19.8 L 282.7 21.9 L 271.3 21.9 L 271.3 1.4 L 282.5 1.4 Z M 288.2 1.4 L 302.7 18.3 L 302.7 1.4 L 304.9 1.4 L 304.9 21.9 L 302.9 21.9 L 288.5 5 L 288.5 21.9 L 286.3 21.9 L 286.3 1.4 L 288.2 1.4 Z M 326.3 2.8 C 326.3 2.8 326.3 5.2 326.3 5.2 C 324.2 4 321.8 3.2 319.4 3.2 C 314.2 3.2 310.9 7.2 310.9 11.7 C 310.9 16.3 314.2 20 319.4 20 C 321.9 20 324.3 19.3 326.5 17.9 C 326.5 17.9 326.5 20.4 326.5 20.4 C 324.2 21.6 321.8 22.1 319.3 22.1 C 312.2 22.1 308.5 16.8 308.5 11.7 C 308.5 5.6 313.2 1.1 319.4 1.1 C 321.7 1.1 324 1.7 326.3 2.8 Z M 341.2 1.4 L 341.2 3.4 L 332.3 3.4 L 332.3 10.6 L 340.9 10.6 L 340.9 12.6 L 332.3 12.6 L 332.3 19.8 L 341.5 19.8 L 341.5 21.9 L 330 21.9 L 330 1.4 L 341.2 1.4 Z M 361.6 1.3 L 370.7 21.9 L 368.4 21.9 L 365.5 15.4 L 356.2 15.4 L 353.5 21.9 L 351.2 21.9 L 360 1.3 L 361.6 1.3 Z M 357.1 13.4 L 364.6 13.4 L 360.8 4.7 L 357.1 13.4 Z M 385.5 1.4 L 385.5 3.4 L 378.2 3.4 L 378.2 21.9 L 375.9 21.9 L 375.9 3.4 L 368.7 3.4 L 368.7 1.4 L 385.5 1.4 Z M 406.1 2.5 C 406.1 2.5 406.1 5 406.1 5 C 404.7 3.8 403.1 3.2 401.5 3.2 C 399.3 3.2 397.9 4.4 397.9 6.1 C 397.9 7.5 398.2 8.7 401.6 10.4 C 405.8 12.6 406.9 14 406.9 16.8 C 406.9 19.9 404.5 22.1 401 22.1 C 399.1 22.1 397.3 21.5 395.7 20.3 C 395.7 20.3 395.7 17.5 395.7 17.5 C 397.2 19.2 399 20.1 401 20.1 C 403.1 20.1 404.6 18.8 404.6 16.9 C 404.6 15.1 404 14.1 400 12 C 396.8 10.4 395.6 8.8 395.6 6.2 C 395.6 3.3 398.1 1.1 401.5 1.1 C 403.1 1.1 404.7 1.6 406.1 2.5 Z M 427.3 2.8 C 427.3 2.8 427.3 5.2 427.3 5.2 C 425.1 4 422.7 3.2 420.3 3.2 C 415.1 3.2 411.8 7.2 411.8 11.7 C 411.8 16.3 415.1 20 420.3 20 C 422.8 20 425.2 19.3 427.4 17.9 C 427.4 17.9 427.4 20.4 427.4 20.4 C 425.1 21.6 422.8 22.1 420.2 22.1 C 413.2 22.1 409.5 16.8 409.5 11.7 C 409.5 5.6 414.1 1.1 420.3 1.1 C 422.6 1.1 424.9 1.7 427.3 2.8 Z M 439.6 1.3 L 448.7 21.9 L 446.4 21.9 L 443.5 15.4 L 434.2 15.4 L 431.5 21.9 L 429.2 21.9 L 438 1.3 L 439.6 1.3 Z M 435.1 13.4 L 442.6 13.4 L 438.8 4.7 L 435.1 13.4 Z M 453.3 1.4 L 453.3 19.8 L 463 19.8 L 463 21.9 L 451.1 21.9 L 451.1 1.4 L 453.3 1.4 Z M 476.8 1.4 L 476.8 3.4 L 467.8 3.4 L 467.8 10.6 L 476.5 10.6 L 476.5 12.6 L 467.8 12.6 L 467.8 19.8 L 477 19.8 L 477 21.9 L 465.6 21.9 L 465.6 1.4 L 476.8 1.4 Z " stroke="none" fill="#000000"/>  </g></svg>