<?xml version="1.0" standalone="no"?><!DOCTYPE svg PUBLIC "-//W3C//DTD SVG 1.1//EN" "http://www.w3.org/Graphics/SVG/1.1/DTD/svg11.dtd"><svg xmlns="http://www.w3.org/2000/svg" version="1.1" width="1020px" height="46.1px" viewBox="0 -8 1020 46.1" style="top:-8px">  <desc>Working in Partnership to Deliver Efficient End Point Assessment</desc>  <defs/>  <g id="Polygon46724">    <path d="M 0 1.4 L 2.3 1.4 L 8.5 17 L 8.5 17 L 14.5 1.4 L 16.6 1.4 L 22.7 16.9 L 22.8 16.9 L 28.8 1.4 L 31 1.4 L 22.9 22 L 22.4 22 L 15.5 4.6 L 8.7 22 L 8.2 22 L 0 1.4 Z M 53.3 11.5 C 53.3 17.3 49.1 22.1 42.4 22.1 C 36 22.1 31.7 17.3 31.7 11.8 C 31.7 6.1 35.8 1.1 42.5 1.1 C 49 1.1 53.3 5.9 53.3 11.5 Z M 34.1 11.7 C 34.1 16.5 37.8 20 42.4 20 C 48.5 20 51 15.3 51 11.6 C 51 7.5 47.9 3.3 42.6 3.3 C 37 3.3 34.1 7.5 34.1 11.7 Z M 57 1.4 C 57 1.4 62.37 1.41 62.4 1.4 C 66.5 1.4 68.6 3.8 68.6 6.9 C 68.6 9.4 67.2 11.2 64.7 11.9 C 66.1 12.6 66.7 13.2 68.3 15.7 C 68.34 15.75 72.3 21.9 72.3 21.9 L 69.6 21.9 C 69.6 21.9 66.03 16.23 66 16.2 C 64.1 13.2 62.9 12.6 61.1 12.6 C 61.14 12.57 59.2 12.6 59.2 12.6 L 59.2 21.9 L 57 21.9 L 57 1.4 Z M 61.3 10.6 C 64.2 10.6 66.3 9.9 66.3 6.9 C 66.3 4.4 64.7 3.4 62.1 3.4 C 62.07 3.39 59.2 3.4 59.2 3.4 L 59.2 10.6 C 59.2 10.6 61.35 10.59 61.3 10.6 Z M 76.8 1.4 L 76.8 11 L 85.8 1.4 L 88.6 1.4 L 79.4 11.2 L 90.4 21.9 L 87.3 21.9 L 76.8 11.7 L 76.8 21.9 L 74.5 21.9 L 74.5 1.4 L 76.8 1.4 Z M 94.9 1.4 L 94.9 21.9 L 92.6 21.9 L 92.6 1.4 L 94.9 1.4 Z M 101.3 1.4 L 115.8 18.3 L 115.8 1.4 L 118 1.4 L 118 21.9 L 116 21.9 L 101.6 5 L 101.6 21.9 L 99.4 21.9 L 99.4 1.4 L 101.3 1.4 Z M 139.4 5.2 C 137.2 3.8 134.7 3.1 132.4 3.1 C 127.6 3.1 124 6.7 124 11.5 C 124 16.6 127.5 20.1 132.6 20.1 C 134.3 20.1 135.5 19.9 137.6 19.1 C 137.61 19.08 137.6 14.1 137.6 14.1 L 133.4 14.1 L 133.4 12.1 L 139.9 12.1 C 139.9 12.1 139.86 20.46 139.9 20.5 C 137.5 21.6 135.2 22.1 132.6 22.1 C 125.2 22.1 121.6 17 121.6 11.8 C 121.6 5.9 125.9 1.1 132.5 1.1 C 134.8 1.1 136.7 1.6 139.4 2.8 C 139.4 2.8 139.4 5.2 139.4 5.2 Z M 154.5 1.4 L 154.5 21.9 L 152.3 21.9 L 152.3 1.4 L 154.5 1.4 Z M 161 1.4 L 175.4 18.3 L 175.4 1.4 L 177.6 1.4 L 177.6 21.9 L 175.6 21.9 L 161.3 5 L 161.3 21.9 L 159.1 21.9 L 159.1 1.4 L 161 1.4 Z M 196.1 1.4 C 200.2 1.4 202.7 3.5 202.7 7 C 202.7 10.9 200.1 12.7 195.7 12.7 C 195.73 12.66 192.5 12.7 192.5 12.7 L 192.5 21.9 L 190.3 21.9 L 190.3 1.4 C 190.3 1.4 196.12 1.41 196.1 1.4 Z M 192.5 10.7 C 192.5 10.7 195.67 10.68 195.7 10.7 C 199.1 10.7 200.4 9.3 200.4 7 C 200.4 4.7 199 3.4 195.7 3.4 C 195.67 3.39 192.5 3.4 192.5 3.4 L 192.5 10.7 Z M 212.3 1.3 L 221.4 21.9 L 219.1 21.9 L 216.2 15.4 L 206.9 15.4 L 204.2 21.9 L 201.8 21.9 L 210.7 1.3 L 212.3 1.3 Z M 207.8 13.4 L 215.3 13.4 L 211.4 4.7 L 207.8 13.4 Z M 223.7 1.4 C 223.7 1.4 229.12 1.41 229.1 1.4 C 233.2 1.4 235.4 3.8 235.4 6.9 C 235.4 9.4 234 11.2 231.5 11.9 C 232.8 12.6 233.4 13.2 235.1 15.7 C 235.09 15.75 239 21.9 239 21.9 L 236.4 21.9 C 236.4 21.9 232.78 16.23 232.8 16.2 C 230.9 13.2 229.6 12.6 227.9 12.6 C 227.89 12.57 226 12.6 226 12.6 L 226 21.9 L 223.7 21.9 L 223.7 1.4 Z M 228.1 10.6 C 230.9 10.6 233 9.9 233 6.9 C 233 4.4 231.4 3.4 228.8 3.4 C 228.82 3.39 226 3.4 226 3.4 L 226 10.6 C 226 10.6 228.1 10.59 228.1 10.6 Z M 254.7 1.4 L 254.7 3.4 L 247.4 3.4 L 247.4 21.9 L 245.1 21.9 L 245.1 3.4 L 237.9 3.4 L 237.9 1.4 L 254.7 1.4 Z M 259.3 1.4 L 273.8 18.3 L 273.8 1.4 L 276 1.4 L 276 21.9 L 274 21.9 L 259.6 5 L 259.6 21.9 L 257.5 21.9 L 257.5 1.4 L 259.3 1.4 Z M 291.8 1.4 L 291.8 3.4 L 282.8 3.4 L 282.8 10.6 L 291.5 10.6 L 291.5 12.6 L 282.8 12.6 L 282.8 19.8 L 292 19.8 L 292 21.9 L 280.6 21.9 L 280.6 1.4 L 291.8 1.4 Z M 295.6 1.4 C 295.6 1.4 301 1.41 301 1.4 C 305.1 1.4 307.2 3.8 307.2 6.9 C 307.2 9.4 305.9 11.2 303.4 11.9 C 304.7 12.6 305.3 13.2 307 15.7 C 306.97 15.75 310.9 21.9 310.9 21.9 L 308.3 21.9 C 308.3 21.9 304.66 16.23 304.7 16.2 C 302.8 13.2 301.5 12.6 299.8 12.6 C 299.77 12.57 297.9 12.6 297.9 12.6 L 297.9 21.9 L 295.6 21.9 L 295.6 1.4 Z M 300 10.6 C 302.8 10.6 304.9 9.9 304.9 6.9 C 304.9 4.4 303.3 3.4 300.7 3.4 C 300.7 3.39 297.9 3.4 297.9 3.4 L 297.9 10.6 C 297.9 10.6 299.98 10.59 300 10.6 Z M 323.1 2.5 C 323.1 2.5 323.1 5 323.1 5 C 321.7 3.8 320.2 3.2 318.5 3.2 C 316.4 3.2 314.9 4.4 314.9 6.1 C 314.9 7.5 315.3 8.7 318.7 10.4 C 322.9 12.6 323.9 14 323.9 16.8 C 323.9 19.9 321.6 22.1 318.1 22.1 C 316.1 22.1 314.3 21.5 312.8 20.3 C 312.8 20.3 312.8 17.5 312.8 17.5 C 314.3 19.2 316.1 20.1 318.1 20.1 C 320.1 20.1 321.6 18.8 321.6 16.9 C 321.6 15.1 321.1 14.1 317.1 12 C 313.9 10.4 312.7 8.8 312.7 6.2 C 312.7 3.3 315.2 1.1 318.6 1.1 C 320.2 1.1 321.8 1.6 323.1 2.5 Z M 329.7 1.4 L 329.7 10.5 L 342.1 10.5 L 342.1 1.4 L 344.3 1.4 L 344.3 21.9 L 342.1 21.9 L 342.1 12.6 L 329.7 12.6 L 329.7 21.9 L 327.4 21.9 L 327.4 1.4 L 329.7 1.4 Z M 351.2 1.4 L 351.2 21.9 L 348.9 21.9 L 348.9 1.4 L 351.2 1.4 Z M 361.6 1.4 C 365.7 1.4 368.2 3.5 368.2 7 C 368.2 10.9 365.6 12.7 361.2 12.7 C 361.2 12.66 358 12.7 358 12.7 L 358 21.9 L 355.8 21.9 L 355.8 1.4 C 355.8 1.4 361.59 1.41 361.6 1.4 Z M 358 10.7 C 358 10.7 361.14 10.68 361.1 10.7 C 364.6 10.7 365.9 9.3 365.9 7 C 365.9 4.7 364.5 3.4 361.1 3.4 C 361.14 3.39 358 3.4 358 3.4 L 358 10.7 Z M 394.4 1.4 L 394.4 3.4 L 387.1 3.4 L 387.1 21.9 L 384.8 21.9 L 384.8 3.4 L 377.6 3.4 L 377.6 1.4 L 394.4 1.4 Z M 416.5 11.5 C 416.5 17.3 412.3 22.1 405.5 22.1 C 399.2 22.1 394.9 17.3 394.9 11.8 C 394.9 6.1 399 1.1 405.6 1.1 C 412.2 1.1 416.5 5.9 416.5 11.5 Z M 397.2 11.7 C 397.2 16.5 401 20 405.6 20 C 411.7 20 414.2 15.3 414.2 11.6 C 414.2 7.5 411.1 3.3 405.8 3.3 C 400.2 3.3 397.2 7.5 397.2 11.7 Z M 428.3 1.4 C 428.3 1.4 435.82 1.41 435.8 1.4 C 442.5 1.4 446.8 5.6 446.8 11.4 C 446.8 17.8 442.3 21.9 435.8 21.9 C 435.82 21.87 428.3 21.9 428.3 21.9 L 428.3 1.4 Z M 435.8 19.8 C 441.2 19.8 444.5 16.6 444.5 11.6 C 444.5 6.7 441.3 3.4 435.5 3.4 C 435.46 3.42 430.5 3.4 430.5 3.4 L 430.5 19.8 C 430.5 19.8 435.79 19.83 435.8 19.8 Z M 461.8 1.4 L 461.8 3.4 L 452.8 3.4 L 452.8 10.6 L 461.5 10.6 L 461.5 12.6 L 452.8 12.6 L 452.8 19.8 L 462 19.8 L 462 21.9 L 450.6 21.9 L 450.6 1.4 L 461.8 1.4 Z M 467.9 1.4 L 467.9 19.8 L 477.5 19.8 L 477.5 21.9 L 465.6 21.9 L 465.6 1.4 L 467.9 1.4 Z M 482.4 1.4 L 482.4 21.9 L 480.1 21.9 L 480.1 1.4 L 482.4 1.4 Z M 484.7 1.4 L 487 1.4 L 493.6 17.3 L 493.7 17.3 L 500.3 1.4 L 502.5 1.4 L 493.9 22.1 L 493.4 22.1 L 484.7 1.4 Z M 516.1 1.4 L 516.1 3.4 L 507.1 3.4 L 507.1 10.6 L 515.8 10.6 L 515.8 12.6 L 507.1 12.6 L 507.1 19.8 L 516.3 19.8 L 516.3 21.9 L 504.9 21.9 L 504.9 1.4 L 516.1 1.4 Z M 519.9 1.4 C 519.9 1.4 525.31 1.41 525.3 1.4 C 529.4 1.4 531.6 3.8 531.6 6.9 C 531.6 9.4 530.2 11.2 527.7 11.9 C 529 12.6 529.6 13.2 531.3 15.7 C 531.28 15.75 535.2 21.9 535.2 21.9 L 532.6 21.9 C 532.6 21.9 528.97 16.23 529 16.2 C 527.1 13.2 525.8 12.6 524.1 12.6 C 524.08 12.57 522.2 12.6 522.2 12.6 L 522.2 21.9 L 519.9 21.9 L 519.9 1.4 Z M 524.3 10.6 C 527.1 10.6 529.2 9.9 529.2 6.9 C 529.2 4.4 527.6 3.4 525 3.4 C 525.01 3.39 522.2 3.4 522.2 3.4 L 522.2 10.6 C 522.2 10.6 524.29 10.59 524.3 10.6 Z M 556.8 1.4 L 556.8 3.4 L 547.8 3.4 L 547.8 10.6 L 556.5 10.6 L 556.5 12.6 L 547.8 12.6 L 547.8 19.8 L 557 19.8 L 557 21.9 L 545.6 21.9 L 545.6 1.4 L 556.8 1.4 Z M 571.2 1.4 L 571.2 3.4 L 562.9 3.4 L 562.9 10 L 570.9 10 L 570.9 12.1 L 562.9 12.1 L 562.9 21.9 L 560.7 21.9 L 560.7 1.4 L 571.2 1.4 Z M 584.7 1.4 L 584.7 3.4 L 576.4 3.4 L 576.4 10 L 584.4 10 L 584.4 12.1 L 576.4 12.1 L 576.4 21.9 L 574.2 21.9 L 574.2 1.4 L 584.7 1.4 Z M 589.9 1.4 L 589.9 21.9 L 587.7 21.9 L 587.7 1.4 L 589.9 1.4 Z M 611.4 2.8 C 611.4 2.8 611.4 5.2 611.4 5.2 C 609.2 4 606.9 3.2 604.5 3.2 C 599.2 3.2 595.9 7.2 595.9 11.7 C 595.9 16.3 599.2 20 604.4 20 C 607 20 609.3 19.3 611.5 17.9 C 611.5 17.9 611.5 20.4 611.5 20.4 C 609.3 21.6 606.9 22.1 604.4 22.1 C 597.3 22.1 593.6 16.8 593.6 11.7 C 593.6 5.6 598.3 1.1 604.4 1.1 C 606.7 1.1 609.1 1.7 611.4 2.8 Z M 617.3 1.4 L 617.3 21.9 L 615.1 21.9 L 615.1 1.4 L 617.3 1.4 Z M 633.1 1.4 L 633.1 3.4 L 624.2 3.4 L 624.2 10.6 L 632.8 10.6 L 632.8 12.6 L 624.2 12.6 L 624.2 19.8 L 633.3 19.8 L 633.3 21.9 L 621.9 21.9 L 621.9 1.4 L 633.1 1.4 Z M 638.8 1.4 L 653.3 18.3 L 653.3 1.4 L 655.5 1.4 L 655.5 21.9 L 653.5 21.9 L 639.1 5 L 639.1 21.9 L 637 21.9 L 637 1.4 L 638.8 1.4 Z M 675 1.4 L 675 3.4 L 667.7 3.4 L 667.7 21.9 L 665.4 21.9 L 665.4 3.4 L 658.2 3.4 L 658.2 1.4 L 675 1.4 Z M 697.1 1.4 L 697.1 3.4 L 688.1 3.4 L 688.1 10.6 L 696.8 10.6 L 696.8 12.6 L 688.1 12.6 L 688.1 19.8 L 697.3 19.8 L 697.3 21.9 L 685.9 21.9 L 685.9 1.4 L 697.1 1.4 Z M 702.8 1.4 L 717.3 18.3 L 717.3 1.4 L 719.4 1.4 L 719.4 21.9 L 717.5 21.9 L 703.1 5 L 703.1 21.9 L 700.9 21.9 L 700.9 1.4 L 702.8 1.4 Z M 724 1.4 C 724 1.4 731.57 1.41 731.6 1.4 C 738.3 1.4 742.6 5.6 742.6 11.4 C 742.6 17.8 738.1 21.9 731.6 21.9 C 731.57 21.87 724 21.9 724 21.9 L 724 1.4 Z M 731.5 19.8 C 736.9 19.8 740.2 16.6 740.2 11.6 C 740.2 6.7 737 3.4 731.2 3.4 C 731.21 3.42 726.3 3.4 726.3 3.4 L 726.3 19.8 C 726.3 19.8 731.54 19.83 731.5 19.8 Z M 753.2 14 L 753.2 16.2 L 745.9 16.2 L 745.9 14 L 753.2 14 Z M 762.9 1.4 C 767 1.4 769.5 3.5 769.5 7 C 769.5 10.9 766.9 12.7 762.6 12.7 C 762.56 12.66 759.4 12.7 759.4 12.7 L 759.4 21.9 L 757.1 21.9 L 757.1 1.4 C 757.1 1.4 762.95 1.41 762.9 1.4 Z M 759.4 10.7 C 759.4 10.7 762.5 10.68 762.5 10.7 C 765.9 10.7 767.2 9.3 767.2 7 C 767.2 4.7 765.8 3.4 762.5 3.4 C 762.5 3.39 759.4 3.4 759.4 3.4 L 759.4 10.7 Z M 793.4 11.5 C 793.4 17.3 789.2 22.1 782.4 22.1 C 776.1 22.1 771.8 17.3 771.8 11.8 C 771.8 6.1 775.9 1.1 782.5 1.1 C 789 1.1 793.4 5.9 793.4 11.5 Z M 774.1 11.7 C 774.1 16.5 777.9 20 782.4 20 C 788.5 20 791 15.3 791 11.6 C 791 7.5 788 3.3 782.6 3.3 C 777 3.3 774.1 7.5 774.1 11.7 Z M 799.3 1.4 L 799.3 21.9 L 797.1 21.9 L 797.1 1.4 L 799.3 1.4 Z M 805.8 1.4 L 820.2 18.3 L 820.2 1.4 L 822.4 1.4 L 822.4 21.9 L 820.4 21.9 L 806.1 5 L 806.1 21.9 L 803.9 21.9 L 803.9 1.4 L 805.8 1.4 Z M 841.9 1.4 L 841.9 3.4 L 834.6 3.4 L 834.6 21.9 L 832.4 21.9 L 832.4 3.4 L 825.1 3.4 L 825.1 1.4 L 841.9 1.4 Z M 861 1.3 L 870.1 21.9 L 867.8 21.9 L 864.9 15.4 L 855.6 15.4 L 852.9 21.9 L 850.5 21.9 L 859.4 1.3 L 861 1.3 Z M 856.5 13.4 L 864 13.4 L 860.1 4.7 L 856.5 13.4 Z M 882.4 2.5 C 882.4 2.5 882.4 5 882.4 5 C 881 3.8 879.5 3.2 877.8 3.2 C 875.6 3.2 874.2 4.4 874.2 6.1 C 874.2 7.5 874.5 8.7 877.9 10.4 C 882.2 12.6 883.2 14 883.2 16.8 C 883.2 19.9 880.8 22.1 877.3 22.1 C 875.4 22.1 873.6 21.5 872 20.3 C 872 20.3 872 17.5 872 17.5 C 873.6 19.2 875.4 20.1 877.3 20.1 C 879.4 20.1 880.9 18.8 880.9 16.9 C 880.9 15.1 880.3 14.1 876.4 12 C 873.2 10.4 871.9 8.8 871.9 6.2 C 871.9 3.3 874.4 1.1 877.8 1.1 C 879.4 1.1 881 1.6 882.4 2.5 Z M 896.2 2.5 C 896.2 2.5 896.2 5 896.2 5 C 894.8 3.8 893.2 3.2 891.6 3.2 C 889.4 3.2 888 4.4 888 6.1 C 888 7.5 888.3 8.7 891.7 10.4 C 895.9 12.6 897 14 897 16.8 C 897 19.9 894.6 22.1 891.1 22.1 C 889.2 22.1 887.4 21.5 885.8 20.3 C 885.8 20.3 885.8 17.5 885.8 17.5 C 887.3 19.2 889.1 20.1 891.1 20.1 C 893.2 20.1 894.7 18.8 894.7 16.9 C 894.7 15.1 894.1 14.1 890.1 12 C 886.9 10.4 885.7 8.8 885.7 6.2 C 885.7 3.3 888.2 1.1 891.6 1.1 C 893.2 1.1 894.8 1.6 896.2 2.5 Z M 911.7 1.4 L 911.7 3.4 L 902.7 3.4 L 902.7 10.6 L 911.4 10.6 L 911.4 12.6 L 902.7 12.6 L 902.7 19.8 L 911.9 19.8 L 911.9 21.9 L 900.5 21.9 L 900.5 1.4 L 911.7 1.4 Z M 925 2.5 C 925 2.5 925 5 925 5 C 923.6 3.8 922.1 3.2 920.4 3.2 C 918.2 3.2 916.8 4.4 916.8 6.1 C 916.8 7.5 917.1 8.7 920.5 10.4 C 924.8 12.6 925.8 14 925.8 16.8 C 925.8 19.9 923.4 22.1 919.9 22.1 C 918 22.1 916.2 21.5 914.6 20.3 C 914.6 20.3 914.6 17.5 914.6 17.5 C 916.2 19.2 918 20.1 919.9 20.1 C 922 20.1 923.5 18.8 923.5 16.9 C 923.5 15.1 922.9 14.1 919 12 C 915.8 10.4 914.5 8.8 914.5 6.2 C 914.5 3.3 917 1.1 920.4 1.1 C 922 1.1 923.6 1.6 925 2.5 Z M 938.8 2.5 C 938.8 2.5 938.8 5 938.8 5 C 937.4 3.8 935.8 3.2 934.2 3.2 C 932 3.2 930.6 4.4 930.6 6.1 C 930.6 7.5 930.9 8.7 934.3 10.4 C 938.5 12.6 939.6 14 939.6 16.8 C 939.6 19.9 937.2 22.1 933.7 22.1 C 931.8 22.1 930 21.5 928.4 20.3 C 928.4 20.3 928.4 17.5 928.4 17.5 C 929.9 19.2 931.7 20.1 933.7 20.1 C 935.8 20.1 937.3 18.8 937.3 16.9 C 937.3 15.1 936.7 14.1 932.7 12 C 929.5 10.4 928.3 8.8 928.3 6.2 C 928.3 3.3 930.8 1.1 934.2 1.1 C 935.8 1.1 937.4 1.6 938.8 2.5 Z M 943.1 1.4 L 945.2 1.4 L 952.4 10.4 L 959.6 1.4 L 961.8 1.4 L 961.8 21.9 L 959.5 21.9 L 959.5 5 L 959.4 5 L 952.6 13.5 L 952.2 13.5 L 945.4 5 L 945.3 5 L 945.3 21.9 L 943.1 21.9 L 943.1 1.4 Z M 977.6 1.4 L 977.6 3.4 L 968.6 3.4 L 968.6 10.6 L 977.3 10.6 L 977.3 12.6 L 968.6 12.6 L 968.6 19.8 L 977.8 19.8 L 977.8 21.9 L 966.4 21.9 L 966.4 1.4 L 977.6 1.4 Z M 983.3 1.4 L 997.8 18.3 L 997.8 1.4 L 999.9 1.4 L 999.9 21.9 L 998 21.9 L 983.6 5 L 983.6 21.9 L 981.4 21.9 L 981.4 1.4 L 983.3 1.4 Z M 1019.5 1.4 L 1019.5 3.4 L 1012.2 3.4 L 1012.2 21.9 L 1009.9 21.9 L 1009.9 3.4 L 1002.7 3.4 L 1002.7 1.4 L 1019.5 1.4 Z " stroke="none" fill="#000000"/>  </g></svg>