<?xml version="1.0" standalone="no"?><!DOCTYPE svg PUBLIC "-//W3C//DTD SVG 1.1//EN" "http://www.w3.org/Graphics/SVG/1.1/DTD/svg11.dtd"><svg xmlns="http://www.w3.org/2000/svg" version="1.1" width="207px" height="118.1px" viewBox="0 -8 207 118.1" style="top:-8px">  <desc>Net Promoter Score</desc>  <defs/>  <g id="Polygon60073">    <path d="M 11.8 74.5 C 11.8 74.5 11.8 77 11.8 77 C 10.4 75.8 8.8 75.2 7.2 75.2 C 5 75.2 3.6 76.4 3.6 78.1 C 3.6 79.5 3.9 80.7 7.3 82.4 C 11.6 84.6 12.6 86 12.6 88.8 C 12.6 91.9 10.2 94.1 6.7 94.1 C 4.8 94.1 3 93.5 1.4 92.3 C 1.4 92.3 1.4 89.5 1.4 89.5 C 2.9 91.2 4.7 92.1 6.7 92.1 C 8.8 92.1 10.3 90.8 10.3 88.9 C 10.3 87.1 9.7 86.1 5.8 84 C 2.5 82.4 1.3 80.8 1.3 78.2 C 1.3 75.3 3.8 73.1 7.2 73.1 C 8.8 73.1 10.4 73.6 11.8 74.5 Z M 33 74.8 C 33 74.8 33 77.2 33 77.2 C 30.8 76 28.4 75.2 26 75.2 C 20.8 75.2 17.5 79.2 17.5 83.7 C 17.5 88.3 20.8 92 26 92 C 28.6 92 30.9 91.3 33.1 89.9 C 33.1 89.9 33.1 92.4 33.1 92.4 C 30.8 93.6 28.5 94.1 25.9 94.1 C 18.9 94.1 15.2 88.8 15.2 83.7 C 15.2 77.6 19.9 73.1 26 73.1 C 28.3 73.1 30.7 73.7 33 74.8 Z M 56.6 83.5 C 56.6 89.3 52.4 94.1 45.7 94.1 C 39.3 94.1 35 89.3 35 83.8 C 35 78.1 39.1 73.1 45.8 73.1 C 52.3 73.1 56.6 77.9 56.6 83.5 Z M 37.4 83.7 C 37.4 88.5 41.1 92 45.7 92 C 51.8 92 54.3 87.3 54.3 83.6 C 54.3 79.5 51.2 75.3 45.9 75.3 C 40.3 75.3 37.4 79.5 37.4 83.7 Z M 60.3 73.4 C 60.3 73.4 65.67 73.41 65.7 73.4 C 69.8 73.4 71.9 75.8 71.9 78.9 C 71.9 81.4 70.5 83.2 68 83.9 C 69.4 84.6 70 85.2 71.6 87.7 C 71.64 87.75 75.6 93.9 75.6 93.9 L 72.9 93.9 C 72.9 93.9 69.33 88.23 69.3 88.2 C 67.4 85.2 66.2 84.6 64.4 84.6 C 64.44 84.57 62.5 84.6 62.5 84.6 L 62.5 93.9 L 60.3 93.9 L 60.3 73.4 Z M 64.6 82.6 C 67.5 82.6 69.6 81.9 69.6 78.9 C 69.6 76.4 68 75.4 65.4 75.4 C 65.37 75.39 62.5 75.4 62.5 75.4 L 62.5 82.6 C 62.5 82.6 64.65 82.59 64.6 82.6 Z M 89 73.4 L 89 75.4 L 80.1 75.4 L 80.1 82.6 L 88.7 82.6 L 88.7 84.6 L 80.1 84.6 L 80.1 91.8 L 89.3 91.8 L 89.3 93.9 L 77.8 93.9 L 77.8 73.4 L 89 73.4 Z " stroke="none" fill="#000000"/>  </g>  <g id="Polygon60072">    <path d="M 8.1 37.4 C 12.2 37.4 14.7 39.5 14.7 43 C 14.7 46.9 12.1 48.7 7.7 48.7 C 7.74 48.66 4.6 48.7 4.6 48.7 L 4.6 57.9 L 2.3 57.9 L 2.3 37.4 C 2.3 37.4 8.13 37.41 8.1 37.4 Z M 4.6 46.7 C 4.6 46.7 7.68 46.68 7.7 46.7 C 11.1 46.7 12.4 45.3 12.4 43 C 12.4 40.7 11 39.4 7.7 39.4 C 7.68 39.39 4.6 39.4 4.6 39.4 L 4.6 46.7 Z M 17.9 37.4 C 17.9 37.4 23.25 37.41 23.2 37.4 C 27.4 37.4 29.5 39.8 29.5 42.9 C 29.5 45.4 28.1 47.2 25.6 47.9 C 26.9 48.6 27.5 49.2 29.2 51.7 C 29.22 51.75 33.2 57.9 33.2 57.9 L 30.5 57.9 C 30.5 57.9 26.91 52.23 26.9 52.2 C 25 49.2 23.8 48.6 22 48.6 C 22.02 48.57 20.1 48.6 20.1 48.6 L 20.1 57.9 L 17.9 57.9 L 17.9 37.4 Z M 22.2 46.6 C 25 46.6 27.2 45.9 27.2 42.9 C 27.2 40.4 25.6 39.4 22.9 39.4 C 22.95 39.39 20.1 39.4 20.1 39.4 L 20.1 46.6 C 20.1 46.6 22.23 46.59 22.2 46.6 Z M 55.5 47.5 C 55.5 53.3 51.3 58.1 44.5 58.1 C 38.2 58.1 33.9 53.3 33.9 47.8 C 33.9 42.1 38 37.1 44.6 37.1 C 51.2 37.1 55.5 41.9 55.5 47.5 Z M 36.2 47.7 C 36.2 52.5 40 56 44.6 56 C 50.7 56 53.2 51.3 53.2 47.6 C 53.2 43.5 50.1 39.3 44.8 39.3 C 39.2 39.3 36.2 43.5 36.2 47.7 Z M 59.2 37.4 L 61.3 37.4 L 68.5 46.4 L 75.7 37.4 L 77.9 37.4 L 77.9 57.9 L 75.6 57.9 L 75.6 41 L 75.6 41 L 68.7 49.5 L 68.3 49.5 L 61.5 41 L 61.4 41 L 61.4 57.9 L 59.2 57.9 L 59.2 37.4 Z M 103.2 47.5 C 103.2 53.3 99 58.1 92.2 58.1 C 85.9 58.1 81.6 53.3 81.6 47.8 C 81.6 42.1 85.7 37.1 92.3 37.1 C 98.8 37.1 103.2 41.9 103.2 47.5 Z M 83.9 47.7 C 83.9 52.5 87.7 56 92.2 56 C 98.3 56 100.8 51.3 100.8 47.6 C 100.8 43.5 97.8 39.3 92.4 39.3 C 86.8 39.3 83.9 43.5 83.9 47.7 Z M 120.5 37.4 L 120.5 39.4 L 113.2 39.4 L 113.2 57.9 L 110.9 57.9 L 110.9 39.4 L 103.7 39.4 L 103.7 37.4 L 120.5 37.4 Z M 134.4 37.4 L 134.4 39.4 L 125.5 39.4 L 125.5 46.6 L 134.1 46.6 L 134.1 48.6 L 125.5 48.6 L 125.5 55.8 L 134.7 55.8 L 134.7 57.9 L 123.2 57.9 L 123.2 37.4 L 134.4 37.4 Z M 138.3 37.4 C 138.3 37.4 143.67 37.41 143.7 37.4 C 147.8 37.4 149.9 39.8 149.9 42.9 C 149.9 45.4 148.5 47.2 146 47.9 C 147.4 48.6 148 49.2 149.6 51.7 C 149.64 51.75 153.6 57.9 153.6 57.9 L 150.9 57.9 C 150.9 57.9 147.33 52.23 147.3 52.2 C 145.4 49.2 144.2 48.6 142.4 48.6 C 142.44 48.57 140.5 48.6 140.5 48.6 L 140.5 57.9 L 138.3 57.9 L 138.3 37.4 Z M 142.6 46.6 C 145.5 46.6 147.6 45.9 147.6 42.9 C 147.6 40.4 146 39.4 143.4 39.4 C 143.37 39.39 140.5 39.4 140.5 39.4 L 140.5 46.6 C 140.5 46.6 142.65 46.59 142.6 46.6 Z " stroke="none" fill="#000000"/>  </g>  <g id="Polygon60071">    <path d="M 4.2 1.4 L 18.7 18.3 L 18.7 1.4 L 20.8 1.4 L 20.8 21.9 L 18.8 21.9 L 4.5 5 L 4.5 21.9 L 2.3 21.9 L 2.3 1.4 L 4.2 1.4 Z M 36.6 1.4 L 36.6 3.4 L 27.7 3.4 L 27.7 10.6 L 36.3 10.6 L 36.3 12.6 L 27.7 12.6 L 27.7 19.8 L 36.8 19.8 L 36.8 21.9 L 25.4 21.9 L 25.4 1.4 L 36.6 1.4 Z M 55.8 1.4 L 55.8 3.4 L 48.4 3.4 L 48.4 21.9 L 46.2 21.9 L 46.2 3.4 L 39 3.4 L 39 1.4 L 55.8 1.4 Z " stroke="none" fill="#000000"/>  </g></svg>