<?xml version="1.0" standalone="no"?><!DOCTYPE svg PUBLIC "-//W3C//DTD SVG 1.1//EN" "http://www.w3.org/Graphics/SVG/1.1/DTD/svg11.dtd"><svg xmlns="http://www.w3.org/2000/svg" version="1.1" width="100px" height="59.4px" viewBox="0 -1 100 59.4" style="top:-1px">  <desc>Survey</desc>  <defs/>  <g id="Polygon42972">    <path d="M 25.6 29.2 C 25.6 29.2 27.1 29.1 27.1 29.1 C 27.1 29.7 27.3 30.2 27.5 30.5 C 27.8 30.9 28.2 31.2 28.7 31.4 C 29.2 31.6 29.8 31.8 30.4 31.8 C 31 31.8 31.5 31.7 32 31.5 C 32.4 31.3 32.8 31.1 33 30.8 C 33.2 30.5 33.3 30.2 33.3 29.8 C 33.3 29.4 33.2 29.1 33 28.9 C 32.8 28.6 32.4 28.4 31.9 28.2 C 31.6 28.1 31 27.9 29.9 27.6 C 28.9 27.4 28.1 27.1 27.7 26.9 C 27.2 26.6 26.7 26.3 26.5 25.9 C 26.2 25.4 26.1 25 26.1 24.4 C 26.1 23.8 26.2 23.3 26.6 22.8 C 26.9 22.3 27.4 21.9 28 21.7 C 28.6 21.4 29.3 21.3 30.1 21.3 C 31 21.3 31.7 21.4 32.3 21.7 C 33 22 33.5 22.4 33.8 22.9 C 34.2 23.4 34.4 24 34.4 24.7 C 34.4 24.7 33 24.8 33 24.8 C 32.9 24.1 32.6 23.5 32.2 23.2 C 31.7 22.8 31 22.6 30.2 22.6 C 29.2 22.6 28.6 22.8 28.2 23.1 C 27.7 23.4 27.5 23.8 27.5 24.3 C 27.5 24.7 27.7 25.1 28 25.3 C 28.3 25.6 29 25.9 30.3 26.2 C 31.5 26.4 32.3 26.7 32.8 26.9 C 33.5 27.2 34 27.6 34.3 28.1 C 34.6 28.5 34.8 29.1 34.8 29.7 C 34.8 30.3 34.6 30.9 34.2 31.4 C 33.9 31.9 33.4 32.4 32.7 32.7 C 32.1 33 31.3 33.1 30.5 33.1 C 29.5 33.1 28.6 33 27.9 32.7 C 27.2 32.4 26.7 31.9 26.3 31.3 C 25.9 30.7 25.7 30 25.6 29.2 Z M 42.1 32.9 C 42.1 32.9 42.08 31.7 42.1 31.7 C 41.4 32.6 40.6 33.1 39.4 33.1 C 39 33.1 38.5 33 38.1 32.8 C 37.7 32.6 37.3 32.4 37.1 32.1 C 36.9 31.8 36.8 31.5 36.7 31.1 C 36.6 30.8 36.6 30.4 36.6 29.8 C 36.61 29.76 36.6 24.6 36.6 24.6 L 38 24.6 C 38 24.6 38.02 29.22 38 29.2 C 38 30 38 30.5 38.1 30.7 C 38.2 31.1 38.4 31.4 38.7 31.6 C 39 31.8 39.3 31.9 39.7 31.9 C 40.2 31.9 40.5 31.8 40.9 31.6 C 41.3 31.4 41.5 31.1 41.7 30.7 C 41.9 30.3 41.9 29.8 41.9 29.1 C 41.93 29.07 41.9 24.6 41.9 24.6 L 43.3 24.6 L 43.3 32.9 L 42.1 32.9 Z M 45.5 32.9 L 45.5 24.6 L 46.8 24.6 C 46.8 24.6 46.79 25.88 46.8 25.9 C 47.1 25.3 47.4 24.9 47.7 24.7 C 48 24.5 48.3 24.4 48.6 24.4 C 49.1 24.4 49.5 24.6 50 24.9 C 50 24.9 49.5 26.2 49.5 26.2 C 49.2 26 48.9 25.9 48.5 25.9 C 48.2 25.9 47.9 26 47.7 26.2 C 47.4 26.3 47.3 26.6 47.2 26.9 C 47 27.4 46.9 28 46.9 28.6 C 46.93 28.57 46.9 32.9 46.9 32.9 L 45.5 32.9 Z M 53.2 32.9 L 50 24.6 L 51.5 24.6 C 51.5 24.6 53.28 29.59 53.3 29.6 C 53.5 30.1 53.7 30.7 53.8 31.3 C 53.9 30.8 54.1 30.3 54.3 29.7 C 54.34 29.68 56.2 24.6 56.2 24.6 L 57.6 24.6 L 54.5 32.9 L 53.2 32.9 Z M 64.5 30.2 C 64.5 30.2 66 30.4 66 30.4 C 65.8 31.3 65.3 31.9 64.7 32.4 C 64.1 32.9 63.3 33.1 62.4 33.1 C 61.1 33.1 60.2 32.7 59.5 32 C 58.8 31.2 58.4 30.2 58.4 28.8 C 58.4 27.4 58.8 26.4 59.5 25.6 C 60.2 24.8 61.1 24.4 62.3 24.4 C 63.4 24.4 64.3 24.8 65 25.6 C 65.7 26.3 66 27.4 66 28.8 C 66 28.8 66 29 66 29.1 C 66 29.1 59.9 29.1 59.9 29.1 C 59.9 30 60.2 30.7 60.6 31.2 C 61.1 31.7 61.7 31.9 62.4 31.9 C 62.9 31.9 63.3 31.8 63.7 31.5 C 64 31.3 64.3 30.8 64.5 30.2 Z M 59.9 28 C 59.9 28 64.6 28 64.6 28 C 64.5 27.3 64.3 26.8 64 26.4 C 63.6 25.9 63 25.6 62.3 25.6 C 61.6 25.6 61.1 25.8 60.7 26.2 C 60.2 26.7 60 27.2 59.9 28 Z M 68.6 36.3 C 68.3 36.3 68 36.2 67.7 36.1 C 67.7 36.1 67.5 34.8 67.5 34.8 C 67.9 34.9 68.1 34.9 68.4 34.9 C 68.7 34.9 68.9 34.9 69.1 34.8 C 69.3 34.7 69.4 34.5 69.6 34.3 C 69.7 34.2 69.8 33.8 70 33.3 C 70 33.2 70.1 33.1 70.1 32.9 C 70.12 32.93 67 24.6 67 24.6 L 68.5 24.6 C 68.5 24.6 70.21 29.43 70.2 29.4 C 70.4 30 70.6 30.7 70.8 31.3 C 71 30.7 71.2 30.1 71.4 29.5 C 71.39 29.46 73.2 24.6 73.2 24.6 L 74.6 24.6 C 74.6 24.6 71.42 33.06 71.4 33.1 C 71.1 34 70.8 34.6 70.6 34.9 C 70.4 35.4 70.1 35.7 69.8 36 C 69.4 36.2 69.1 36.3 68.6 36.3 C 68.6 36.3 68.6 36.3 68.6 36.3 Z " stroke="none" fill="#fff"/>  </g></svg>