<?xml version="1.0" standalone="no"?><!DOCTYPE svg PUBLIC "-//W3C//DTD SVG 1.1//EN" "http://www.w3.org/Graphics/SVG/1.1/DTD/svg11.dtd"><svg xmlns="http://www.w3.org/2000/svg" version="1.1" width="769px" height="82.1px" viewBox="0 -8 769 82.1" style="top:-8px">  <desc>Developing Sales Excellence for Private Bankers &amp; Corporate / Commercial Relationship Managers</desc>  <defs/>  <g id="Polygon44525">    <path d="M 12.8 51.6 C 13.7 50.5 14.5 49.1 15.1 47.7 C 15.1 47.7 17.3 47.7 17.3 47.7 C 16.7 49.4 15.8 51.3 14.2 53.2 C 14.6 53.5 14.9 54 15.3 54.3 C 15.27 54.33 18.5 57.9 18.5 57.9 L 15.6 57.9 C 15.6 57.9 12.75 54.72 12.8 54.7 C 11 56.5 8.7 58.1 6.1 58.1 C 3.2 58.1 0.8 56.1 0.8 53.3 C 0.8 50.7 2.9 48.8 5.8 47.2 C 4.1 45.4 3.2 43.8 3.2 42.4 C 3.1 42.1 3.1 41.7 3.2 41.4 C 3.5 39.4 5 37.6 8.1 37.6 C 11.3 37.6 13 39.8 13 42 C 13 43.9 12 45.5 9 47.5 C 9 47.5 12.8 51.6 12.8 51.6 Z M 7.1 48.6 C 7.1 48.6 5.76 49.53 5.8 49.5 C 4 50.7 3.1 51.8 3 53.2 C 3 54.6 4.1 55.8 5.8 55.9 C 6 56 6.3 56 6.6 56 C 8.6 55.8 10 54.7 11.4 53.2 C 11.37 53.19 7.1 48.6 7.1 48.6 Z M 10.9 42.1 C 10.9 40.6 9.8 39.5 8.1 39.5 C 6.5 39.5 5.3 40.5 5.3 41.9 C 5.3 43.4 6.7 45 7.7 46 C 10 44.6 10.9 43.5 10.9 42.1 Z M 45.8 38.8 C 45.8 38.8 45.8 41.2 45.8 41.2 C 43.6 40 41.3 39.2 38.9 39.2 C 33.6 39.2 30.3 43.2 30.3 47.7 C 30.3 52.3 33.6 56 38.8 56 C 41.4 56 43.7 55.3 45.9 53.9 C 45.9 53.9 45.9 56.4 45.9 56.4 C 43.7 57.6 41.3 58.1 38.8 58.1 C 31.7 58.1 28 52.8 28 47.7 C 28 41.6 32.7 37.1 38.8 37.1 C 41.1 37.1 43.5 37.7 45.8 38.8 Z M 69.4 47.5 C 69.4 53.3 65.2 58.1 58.5 58.1 C 52.1 58.1 47.9 53.3 47.9 47.8 C 47.9 42.1 51.9 37.1 58.6 37.1 C 65.1 37.1 69.4 41.9 69.4 47.5 Z M 50.2 47.7 C 50.2 52.5 53.9 56 58.5 56 C 64.6 56 67.1 51.3 67.1 47.6 C 67.1 43.5 64 39.3 58.7 39.3 C 53.1 39.3 50.2 43.5 50.2 47.7 Z M 73.1 37.4 C 73.1 37.4 78.49 37.41 78.5 37.4 C 82.6 37.4 84.7 39.8 84.7 42.9 C 84.7 45.4 83.3 47.2 80.9 47.9 C 82.2 48.6 82.8 49.2 84.5 51.7 C 84.46 51.75 88.4 57.9 88.4 57.9 L 85.7 57.9 C 85.7 57.9 82.15 52.23 82.1 52.2 C 80.3 49.2 79 48.6 77.3 48.6 C 77.26 48.57 75.4 48.6 75.4 48.6 L 75.4 57.9 L 73.1 57.9 L 73.1 37.4 Z M 77.5 46.6 C 80.3 46.6 82.4 45.9 82.4 42.9 C 82.4 40.4 80.8 39.4 78.2 39.4 C 78.19 39.39 75.4 39.4 75.4 39.4 L 75.4 46.6 C 75.4 46.6 77.47 46.59 77.5 46.6 Z M 96.5 37.4 C 100.6 37.4 103.1 39.5 103.1 43 C 103.1 46.9 100.5 48.7 96.1 48.7 C 96.1 48.66 92.9 48.7 92.9 48.7 L 92.9 57.9 L 90.7 57.9 L 90.7 37.4 C 90.7 37.4 96.49 37.41 96.5 37.4 Z M 92.9 46.7 C 92.9 46.7 96.04 46.68 96 46.7 C 99.5 46.7 100.7 45.3 100.7 43 C 100.7 40.7 99.4 39.4 96 39.4 C 96.04 39.39 92.9 39.4 92.9 39.4 L 92.9 46.7 Z M 126.9 47.5 C 126.9 53.3 122.7 58.1 116 58.1 C 109.6 58.1 105.3 53.3 105.3 47.8 C 105.3 42.1 109.4 37.1 116 37.1 C 122.6 37.1 126.9 41.9 126.9 47.5 Z M 107.6 47.7 C 107.6 52.5 111.4 56 116 56 C 122.1 56 124.6 51.3 124.6 47.6 C 124.6 43.5 121.5 39.3 116.2 39.3 C 110.6 39.3 107.6 43.5 107.6 47.7 Z M 130.6 37.4 C 130.6 37.4 135.97 37.41 136 37.4 C 140.1 37.4 142.2 39.8 142.2 42.9 C 142.2 45.4 140.8 47.2 138.3 47.9 C 139.7 48.6 140.3 49.2 141.9 51.7 C 141.94 51.75 145.9 57.9 145.9 57.9 L 143.2 57.9 C 143.2 57.9 139.63 52.23 139.6 52.2 C 137.7 49.2 136.5 48.6 134.7 48.6 C 134.74 48.57 132.8 48.6 132.8 48.6 L 132.8 57.9 L 130.6 57.9 L 130.6 37.4 Z M 134.9 46.6 C 137.8 46.6 139.9 45.9 139.9 42.9 C 139.9 40.4 138.3 39.4 135.7 39.4 C 135.67 39.39 132.8 39.4 132.8 39.4 L 132.8 46.6 C 132.8 46.6 134.95 46.59 134.9 46.6 Z M 156.3 37.3 L 165.5 57.9 L 163.1 57.9 L 160.3 51.4 L 151 51.4 L 148.2 57.9 L 145.9 57.9 L 154.7 37.3 L 156.3 37.3 Z M 151.8 49.4 L 159.4 49.4 L 155.5 40.7 L 151.8 49.4 Z M 180.2 37.4 L 180.2 39.4 L 172.9 39.4 L 172.9 57.9 L 170.6 57.9 L 170.6 39.4 L 163.4 39.4 L 163.4 37.4 L 180.2 37.4 Z M 194.2 37.4 L 194.2 39.4 L 185.2 39.4 L 185.2 46.6 L 193.9 46.6 L 193.9 48.6 L 185.2 48.6 L 185.2 55.8 L 194.4 55.8 L 194.4 57.9 L 183 57.9 L 183 37.4 L 194.2 37.4 Z M 211.7 37.1 L 205.6 58.1 L 204 58.1 L 210.1 37.1 L 211.7 37.1 Z M 239.2 38.8 C 239.2 38.8 239.2 41.2 239.2 41.2 C 237 40 234.7 39.2 232.3 39.2 C 227.1 39.2 223.8 43.2 223.8 47.7 C 223.8 52.3 227 56 232.2 56 C 234.8 56 237.2 55.3 239.4 53.9 C 239.4 53.9 239.4 56.4 239.4 56.4 C 237.1 57.6 234.7 58.1 232.2 58.1 C 225.1 58.1 221.4 52.8 221.4 47.7 C 221.4 41.6 226.1 37.1 232.2 37.1 C 234.6 37.1 236.9 37.7 239.2 38.8 Z M 262.8 47.5 C 262.8 53.3 258.6 58.1 251.9 58.1 C 245.5 58.1 241.3 53.3 241.3 47.8 C 241.3 42.1 245.4 37.1 252 37.1 C 258.5 37.1 262.8 41.9 262.8 47.5 Z M 243.6 47.7 C 243.6 52.5 247.3 56 251.9 56 C 258 56 260.5 51.3 260.5 47.6 C 260.5 43.5 257.4 39.3 252.1 39.3 C 246.5 39.3 243.6 43.5 243.6 47.7 Z M 266.5 37.4 L 268.7 37.4 L 275.9 46.4 L 283.1 37.4 L 285.2 37.4 L 285.2 57.9 L 283 57.9 L 283 41 L 282.9 41 L 276.1 49.5 L 275.7 49.5 L 268.8 41 L 268.8 41 L 268.8 57.9 L 266.5 57.9 L 266.5 37.4 Z M 289.8 37.4 L 292 37.4 L 299.2 46.4 L 306.4 37.4 L 308.5 37.4 L 308.5 57.9 L 306.3 57.9 L 306.3 41 L 306.2 41 L 299.4 49.5 L 299 49.5 L 292.2 41 L 292.1 41 L 292.1 57.9 L 289.8 57.9 L 289.8 37.4 Z M 324.3 37.4 L 324.3 39.4 L 315.4 39.4 L 315.4 46.6 L 324 46.6 L 324 48.6 L 315.4 48.6 L 315.4 55.8 L 324.6 55.8 L 324.6 57.9 L 313.2 57.9 L 313.2 37.4 L 324.3 37.4 Z M 328.2 37.4 C 328.2 37.4 333.59 37.41 333.6 37.4 C 337.7 37.4 339.8 39.8 339.8 42.9 C 339.8 45.4 338.4 47.2 336 47.9 C 337.3 48.6 337.9 49.2 339.6 51.7 C 339.56 51.75 343.5 57.9 343.5 57.9 L 340.8 57.9 C 340.8 57.9 337.25 52.23 337.2 52.2 C 335.4 49.2 334.1 48.6 332.4 48.6 C 332.36 48.57 330.5 48.6 330.5 48.6 L 330.5 57.9 L 328.2 57.9 L 328.2 37.4 Z M 332.6 46.6 C 335.4 46.6 337.5 45.9 337.5 42.9 C 337.5 40.4 335.9 39.4 333.3 39.4 C 333.29 39.39 330.5 39.4 330.5 39.4 L 330.5 46.6 C 330.5 46.6 332.57 46.59 332.6 46.6 Z M 362.1 38.8 C 362.1 38.8 362.1 41.2 362.1 41.2 C 359.9 40 357.5 39.2 355.1 39.2 C 349.9 39.2 346.6 43.2 346.6 47.7 C 346.6 52.3 349.9 56 355.1 56 C 357.6 56 360 55.3 362.2 53.9 C 362.2 53.9 362.2 56.4 362.2 56.4 C 359.9 57.6 357.6 58.1 355 58.1 C 348 58.1 344.3 52.8 344.3 47.7 C 344.3 41.6 348.9 37.1 355.1 37.1 C 357.4 37.1 359.7 37.7 362.1 38.8 Z M 368 37.4 L 368 57.9 L 365.7 57.9 L 365.7 37.4 L 368 37.4 Z M 380.8 37.3 L 389.9 57.9 L 387.6 57.9 L 384.7 51.4 L 375.4 51.4 L 372.6 57.9 L 370.3 57.9 L 379.2 37.3 L 380.8 37.3 Z M 376.3 49.4 L 383.8 49.4 L 379.9 40.7 L 376.3 49.4 Z M 394.5 37.4 L 394.5 55.8 L 404.1 55.8 L 404.1 57.9 L 392.2 57.9 L 392.2 37.4 L 394.5 37.4 Z M 414.8 37.4 C 414.8 37.4 420.17 37.41 420.2 37.4 C 424.3 37.4 426.4 39.8 426.4 42.9 C 426.4 45.4 425 47.2 422.5 47.9 C 423.9 48.6 424.5 49.2 426.1 51.7 C 426.14 51.75 430.1 57.9 430.1 57.9 L 427.4 57.9 C 427.4 57.9 423.83 52.23 423.8 52.2 C 421.9 49.2 420.7 48.6 418.9 48.6 C 418.94 48.57 417.1 48.6 417.1 48.6 L 417.1 57.9 L 414.8 57.9 L 414.8 37.4 Z M 419.2 46.6 C 422 46.6 424.1 45.9 424.1 42.9 C 424.1 40.4 422.5 39.4 419.9 39.4 C 419.87 39.39 417.1 39.4 417.1 39.4 L 417.1 46.6 C 417.1 46.6 419.15 46.59 419.2 46.6 Z M 443.5 37.4 L 443.5 39.4 L 434.6 39.4 L 434.6 46.6 L 443.2 46.6 L 443.2 48.6 L 434.6 48.6 L 434.6 55.8 L 443.8 55.8 L 443.8 57.9 L 432.4 57.9 L 432.4 37.4 L 443.5 37.4 Z M 449.7 37.4 L 449.7 55.8 L 459.3 55.8 L 459.3 57.9 L 447.4 57.9 L 447.4 37.4 L 449.7 37.4 Z M 470.6 37.3 L 479.7 57.9 L 477.4 57.9 L 474.5 51.4 L 465.2 51.4 L 462.4 57.9 L 460.1 57.9 L 469 37.3 L 470.6 37.3 Z M 466.1 49.4 L 473.6 49.4 L 469.7 40.7 L 466.1 49.4 Z M 494.5 37.4 L 494.5 39.4 L 487.1 39.4 L 487.1 57.9 L 484.9 57.9 L 484.9 39.4 L 477.7 39.4 L 477.7 37.4 L 494.5 37.4 Z M 499.5 37.4 L 499.5 57.9 L 497.2 57.9 L 497.2 37.4 L 499.5 37.4 Z M 524.7 47.5 C 524.7 53.3 520.5 58.1 513.8 58.1 C 507.4 58.1 503.2 53.3 503.2 47.8 C 503.2 42.1 507.2 37.1 513.9 37.1 C 520.4 37.1 524.7 41.9 524.7 47.5 Z M 505.5 47.7 C 505.5 52.5 509.2 56 513.8 56 C 519.9 56 522.4 51.3 522.4 47.6 C 522.4 43.5 519.3 39.3 514 39.3 C 508.4 39.3 505.5 43.5 505.5 47.7 Z M 530.3 37.4 L 544.8 54.3 L 544.8 37.4 L 546.9 37.4 L 546.9 57.9 L 544.9 57.9 L 530.6 41 L 530.6 57.9 L 528.4 57.9 L 528.4 37.4 L 530.3 37.4 Z M 561.3 38.5 C 561.3 38.5 561.3 41 561.3 41 C 559.9 39.8 558.4 39.2 556.7 39.2 C 554.6 39.2 553.2 40.4 553.2 42.1 C 553.2 43.5 553.5 44.7 556.9 46.4 C 561.1 48.6 562.1 50 562.1 52.8 C 562.1 55.9 559.8 58.1 556.3 58.1 C 554.3 58.1 552.5 57.5 551 56.3 C 551 56.3 551 53.5 551 53.5 C 552.5 55.2 554.3 56.1 556.3 56.1 C 558.3 56.1 559.8 54.8 559.8 52.9 C 559.8 51.1 559.3 50.1 555.3 48 C 552.1 46.4 550.9 44.8 550.9 42.2 C 550.9 39.3 553.4 37.1 556.8 37.1 C 558.4 37.1 560 37.6 561.3 38.5 Z M 567.9 37.4 L 567.9 46.5 L 580.3 46.5 L 580.3 37.4 L 582.6 37.4 L 582.6 57.9 L 580.3 57.9 L 580.3 48.6 L 567.9 48.6 L 567.9 57.9 L 565.6 57.9 L 565.6 37.4 L 567.9 37.4 Z M 589.4 37.4 L 589.4 57.9 L 587.1 57.9 L 587.1 37.4 L 589.4 37.4 Z M 599.8 37.4 C 603.9 37.4 606.4 39.5 606.4 43 C 606.4 46.9 603.8 48.7 599.4 48.7 C 599.42 48.66 596.2 48.7 596.2 48.7 L 596.2 57.9 L 594 57.9 L 594 37.4 C 594 37.4 599.81 37.41 599.8 37.4 Z M 596.2 46.7 C 596.2 46.7 599.36 46.68 599.4 46.7 C 602.8 46.7 604.1 45.3 604.1 43 C 604.1 40.7 602.7 39.4 599.4 39.4 C 599.36 39.39 596.2 39.4 596.2 39.4 L 596.2 46.7 Z M 617.6 37.4 L 619.8 37.4 L 627 46.4 L 634.2 37.4 L 636.3 37.4 L 636.3 57.9 L 634.1 57.9 L 634.1 41 L 634 41 L 627.2 49.5 L 626.8 49.5 L 619.9 41 L 619.9 41 L 619.9 57.9 L 617.6 57.9 L 617.6 37.4 Z M 649.1 37.3 L 658.3 57.9 L 655.9 57.9 L 653.1 51.4 L 643.8 51.4 L 641 57.9 L 638.7 57.9 L 647.5 37.3 L 649.1 37.3 Z M 644.6 49.4 L 652.2 49.4 L 648.3 40.7 L 644.6 49.4 Z M 662.5 37.4 L 676.9 54.3 L 676.9 37.4 L 679.1 37.4 L 679.1 57.9 L 677.1 57.9 L 662.8 41 L 662.8 57.9 L 660.6 57.9 L 660.6 37.4 L 662.5 37.4 Z M 691.9 37.3 L 701 57.9 L 698.7 57.9 L 695.8 51.4 L 686.5 51.4 L 683.8 57.9 L 681.4 57.9 L 690.3 37.3 L 691.9 37.3 Z M 687.4 49.4 L 694.9 49.4 L 691 40.7 L 687.4 49.4 Z M 719.3 41.2 C 717.1 39.8 714.6 39.1 712.3 39.1 C 707.5 39.1 703.9 42.7 703.9 47.5 C 703.9 52.6 707.4 56.1 712.5 56.1 C 714.2 56.1 715.4 55.9 717.5 55.1 C 717.51 55.08 717.5 50.1 717.5 50.1 L 713.3 50.1 L 713.3 48.1 L 719.8 48.1 C 719.8 48.1 719.76 56.46 719.8 56.5 C 717.4 57.6 715.1 58.1 712.5 58.1 C 705.1 58.1 701.5 53 701.5 47.8 C 701.5 41.9 705.8 37.1 712.4 37.1 C 714.7 37.1 716.6 37.6 719.3 38.8 C 719.3 38.8 719.3 41.2 719.3 41.2 Z M 735.2 37.4 L 735.2 39.4 L 726.3 39.4 L 726.3 46.6 L 734.9 46.6 L 734.9 48.6 L 726.3 48.6 L 726.3 55.8 L 735.5 55.8 L 735.5 57.9 L 724 57.9 L 724 37.4 L 735.2 37.4 Z M 739.1 37.4 C 739.1 37.4 744.47 37.41 744.5 37.4 C 748.6 37.4 750.7 39.8 750.7 42.9 C 750.7 45.4 749.3 47.2 746.8 47.9 C 748.2 48.6 748.8 49.2 750.4 51.7 C 750.44 51.75 754.4 57.9 754.4 57.9 L 751.7 57.9 C 751.7 57.9 748.13 52.23 748.1 52.2 C 746.2 49.2 745 48.6 743.2 48.6 C 743.24 48.57 741.4 48.6 741.4 48.6 L 741.4 57.9 L 739.1 57.9 L 739.1 37.4 Z M 743.5 46.6 C 746.3 46.6 748.4 45.9 748.4 42.9 C 748.4 40.4 746.8 39.4 744.2 39.4 C 744.17 39.39 741.4 39.4 741.4 39.4 L 741.4 46.6 C 741.4 46.6 743.45 46.59 743.5 46.6 Z M 766.6 38.5 C 766.6 38.5 766.6 41 766.6 41 C 765.2 39.8 763.7 39.2 762 39.2 C 759.8 39.2 758.4 40.4 758.4 42.1 C 758.4 43.5 758.8 44.7 762.1 46.4 C 766.4 48.6 767.4 50 767.4 52.8 C 767.4 55.9 765.1 58.1 761.5 58.1 C 759.6 58.1 757.8 57.5 756.2 56.3 C 756.2 56.3 756.2 53.5 756.2 53.5 C 757.8 55.2 759.6 56.1 761.5 56.1 C 763.6 56.1 765.1 54.8 765.1 52.9 C 765.1 51.1 764.5 50.1 760.6 48 C 757.4 46.4 756.1 44.8 756.1 42.2 C 756.1 39.3 758.6 37.1 762.1 37.1 C 763.6 37.1 765.2 37.6 766.6 38.5 Z " stroke="none" fill="#000000"/>  </g>  <g id="Polygon44524">    <path d="M 2.3 1.4 C 2.3 1.4 9.84 1.41 9.8 1.4 C 16.5 1.4 20.9 5.6 20.9 11.4 C 20.9 17.8 16.4 21.9 9.8 21.9 C 9.84 21.87 2.3 21.9 2.3 21.9 L 2.3 1.4 Z M 9.8 19.8 C 15.2 19.8 18.5 16.6 18.5 11.6 C 18.5 6.7 15.3 3.4 9.5 3.4 C 9.48 3.42 4.6 3.4 4.6 3.4 L 4.6 19.8 C 4.6 19.8 9.81 19.83 9.8 19.8 Z M 35.8 1.4 L 35.8 3.4 L 26.8 3.4 L 26.8 10.6 L 35.5 10.6 L 35.5 12.6 L 26.8 12.6 L 26.8 19.8 L 36 19.8 L 36 21.9 L 24.6 21.9 L 24.6 1.4 L 35.8 1.4 Z M 37.9 1.4 L 40.1 1.4 L 46.8 17.3 L 46.8 17.3 L 53.5 1.4 L 55.7 1.4 L 47.1 22.1 L 46.6 22.1 L 37.9 1.4 Z M 69.2 1.4 L 69.2 3.4 L 60.3 3.4 L 60.3 10.6 L 68.9 10.6 L 68.9 12.6 L 60.3 12.6 L 60.3 19.8 L 69.5 19.8 L 69.5 21.9 L 58 21.9 L 58 1.4 L 69.2 1.4 Z M 75.4 1.4 L 75.4 19.8 L 85 19.8 L 85 21.9 L 73.1 21.9 L 73.1 1.4 L 75.4 1.4 Z M 107.1 11.5 C 107.1 17.3 102.9 22.1 96.1 22.1 C 89.8 22.1 85.5 17.3 85.5 11.8 C 85.5 6.1 89.6 1.1 96.2 1.1 C 102.8 1.1 107.1 5.9 107.1 11.5 Z M 87.8 11.7 C 87.8 16.5 91.6 20 96.2 20 C 102.3 20 104.8 15.3 104.8 11.6 C 104.8 7.5 101.7 3.3 96.4 3.3 C 90.8 3.3 87.8 7.5 87.8 11.7 Z M 116.6 1.4 C 120.7 1.4 123.2 3.5 123.2 7 C 123.2 10.9 120.6 12.7 116.2 12.7 C 116.22 12.66 113 12.7 113 12.7 L 113 21.9 L 110.8 21.9 L 110.8 1.4 C 110.8 1.4 116.61 1.41 116.6 1.4 Z M 113 10.7 C 113 10.7 116.16 10.68 116.2 10.7 C 119.6 10.7 120.9 9.3 120.9 7 C 120.9 4.7 119.5 3.4 116.2 3.4 C 116.16 3.39 113 3.4 113 3.4 L 113 10.7 Z M 128.6 1.4 L 128.6 21.9 L 126.4 21.9 L 126.4 1.4 L 128.6 1.4 Z M 135.1 1.4 L 149.5 18.3 L 149.5 1.4 L 151.7 1.4 L 151.7 21.9 L 149.7 21.9 L 135.4 5 L 135.4 21.9 L 133.2 21.9 L 133.2 1.4 L 135.1 1.4 Z M 173.2 5.2 C 170.9 3.8 168.4 3.1 166.1 3.1 C 161.4 3.1 157.7 6.7 157.7 11.5 C 157.7 16.6 161.2 20.1 166.3 20.1 C 168 20.1 169.3 19.9 171.4 19.1 C 171.36 19.08 171.4 14.1 171.4 14.1 L 167.2 14.1 L 167.2 12.1 L 173.6 12.1 C 173.6 12.1 173.61 20.46 173.6 20.5 C 171.3 21.6 169 22.1 166.3 22.1 C 159 22.1 155.4 17 155.4 11.8 C 155.4 5.9 159.7 1.1 166.2 1.1 C 168.6 1.1 170.5 1.6 173.2 2.8 C 173.2 2.8 173.2 5.2 173.2 5.2 Z M 195.7 2.5 C 195.7 2.5 195.7 5 195.7 5 C 194.3 3.8 192.8 3.2 191.1 3.2 C 188.9 3.2 187.5 4.4 187.5 6.1 C 187.5 7.5 187.9 8.7 191.2 10.4 C 195.5 12.6 196.5 14 196.5 16.8 C 196.5 19.9 194.2 22.1 190.6 22.1 C 188.7 22.1 186.9 21.5 185.3 20.3 C 185.3 20.3 185.3 17.5 185.3 17.5 C 186.9 19.2 188.7 20.1 190.6 20.1 C 192.7 20.1 194.2 18.8 194.2 16.9 C 194.2 15.1 193.6 14.1 189.7 12 C 186.5 10.4 185.2 8.8 185.2 6.2 C 185.2 3.3 187.7 1.1 191.2 1.1 C 192.7 1.1 194.3 1.6 195.7 2.5 Z M 208.2 1.3 L 217.3 21.9 L 215 21.9 L 212.1 15.4 L 202.8 15.4 L 200.1 21.9 L 197.8 21.9 L 206.6 1.3 L 208.2 1.3 Z M 203.7 13.4 L 211.2 13.4 L 207.4 4.7 L 203.7 13.4 Z M 221.9 1.4 L 221.9 19.8 L 231.5 19.8 L 231.5 21.9 L 219.7 21.9 L 219.7 1.4 L 221.9 1.4 Z M 245.3 1.4 L 245.3 3.4 L 236.4 3.4 L 236.4 10.6 L 245 10.6 L 245 12.6 L 236.4 12.6 L 236.4 19.8 L 245.6 19.8 L 245.6 21.9 L 234.1 21.9 L 234.1 1.4 L 245.3 1.4 Z M 258.7 2.5 C 258.7 2.5 258.7 5 258.7 5 C 257.3 3.8 255.7 3.2 254.1 3.2 C 251.9 3.2 250.5 4.4 250.5 6.1 C 250.5 7.5 250.8 8.7 254.2 10.4 C 258.4 12.6 259.5 14 259.5 16.8 C 259.5 19.9 257.1 22.1 253.6 22.1 C 251.7 22.1 249.9 21.5 248.3 20.3 C 248.3 20.3 248.3 17.5 248.3 17.5 C 249.8 19.2 251.6 20.1 253.6 20.1 C 255.7 20.1 257.2 18.8 257.2 16.9 C 257.2 15.1 256.6 14.1 252.7 12 C 249.4 10.4 248.2 8.8 248.2 6.2 C 248.2 3.3 250.7 1.1 254.1 1.1 C 255.7 1.1 257.3 1.6 258.7 2.5 Z M 282.5 1.4 L 282.5 3.4 L 273.6 3.4 L 273.6 10.6 L 282.2 10.6 L 282.2 12.6 L 273.6 12.6 L 273.6 19.8 L 282.7 19.8 L 282.7 21.9 L 271.3 21.9 L 271.3 1.4 L 282.5 1.4 Z M 288.1 1.4 C 291.4 5.2 292.3 6.3 295.2 9.7 C 297.4 7.2 299.5 4.6 302.2 1.4 C 302.19 1.41 304.9 1.4 304.9 1.4 L 296.5 11.3 L 305.4 21.9 L 302.7 21.9 L 295.2 12.9 L 287.6 21.9 L 284.8 21.9 L 293.8 11.3 L 285.4 1.4 C 285.4 1.4 288.15 1.41 288.1 1.4 Z M 323.5 2.8 C 323.5 2.8 323.5 5.2 323.5 5.2 C 321.3 4 319 3.2 316.6 3.2 C 311.3 3.2 308 7.2 308 11.7 C 308 16.3 311.3 20 316.5 20 C 319.1 20 321.4 19.3 323.6 17.9 C 323.6 17.9 323.6 20.4 323.6 20.4 C 321.4 21.6 319 22.1 316.5 22.1 C 309.4 22.1 305.7 16.8 305.7 11.7 C 305.7 5.6 310.4 1.1 316.5 1.1 C 318.8 1.1 321.2 1.7 323.5 2.8 Z M 338.4 1.4 L 338.4 3.4 L 329.4 3.4 L 329.4 10.6 L 338.1 10.6 L 338.1 12.6 L 329.4 12.6 L 329.4 19.8 L 338.6 19.8 L 338.6 21.9 L 327.2 21.9 L 327.2 1.4 L 338.4 1.4 Z M 344.5 1.4 L 344.5 19.8 L 354.1 19.8 L 354.1 21.9 L 342.2 21.9 L 342.2 1.4 L 344.5 1.4 Z M 359 1.4 L 359 19.8 L 368.6 19.8 L 368.6 21.9 L 356.7 21.9 L 356.7 1.4 L 359 1.4 Z M 382.4 1.4 L 382.4 3.4 L 373.5 3.4 L 373.5 10.6 L 382.1 10.6 L 382.1 12.6 L 373.5 12.6 L 373.5 19.8 L 382.6 19.8 L 382.6 21.9 L 371.2 21.9 L 371.2 1.4 L 382.4 1.4 Z M 388.1 1.4 L 402.6 18.3 L 402.6 1.4 L 404.8 1.4 L 404.8 21.9 L 402.8 21.9 L 388.4 5 L 388.4 21.9 L 386.3 21.9 L 386.3 1.4 L 388.1 1.4 Z M 426.3 2.8 C 426.3 2.8 426.3 5.2 426.3 5.2 C 424.1 4 421.7 3.2 419.3 3.2 C 414.1 3.2 410.8 7.2 410.8 11.7 C 410.8 16.3 414.1 20 419.3 20 C 421.9 20 424.2 19.3 426.4 17.9 C 426.4 17.9 426.4 20.4 426.4 20.4 C 424.1 21.6 421.8 22.1 419.2 22.1 C 412.2 22.1 408.5 16.8 408.5 11.7 C 408.5 5.6 413.2 1.1 419.3 1.1 C 421.6 1.1 424 1.7 426.3 2.8 Z M 441.1 1.4 L 441.1 3.4 L 432.2 3.4 L 432.2 10.6 L 440.8 10.6 L 440.8 12.6 L 432.2 12.6 L 432.2 19.8 L 441.4 19.8 L 441.4 21.9 L 430 21.9 L 430 1.4 L 441.1 1.4 Z M 463.9 1.4 L 463.9 3.4 L 455.6 3.4 L 455.6 10 L 463.6 10 L 463.6 12.1 L 455.6 12.1 L 455.6 21.9 L 453.4 21.9 L 453.4 1.4 L 463.9 1.4 Z M 487.5 11.5 C 487.5 17.3 483.3 22.1 476.6 22.1 C 470.2 22.1 466 17.3 466 11.8 C 466 6.1 470 1.1 476.7 1.1 C 483.2 1.1 487.5 5.9 487.5 11.5 Z M 468.3 11.7 C 468.3 16.5 472 20 476.6 20 C 482.7 20 485.2 15.3 485.2 11.6 C 485.2 7.5 482.1 3.3 476.8 3.3 C 471.2 3.3 468.3 7.5 468.3 11.7 Z M 491.2 1.4 C 491.2 1.4 496.59 1.41 496.6 1.4 C 500.7 1.4 502.8 3.8 502.8 6.9 C 502.8 9.4 501.4 11.2 499 11.9 C 500.3 12.6 500.9 13.2 502.6 15.7 C 502.56 15.75 506.5 21.9 506.5 21.9 L 503.8 21.9 C 503.8 21.9 500.25 16.23 500.2 16.2 C 498.4 13.2 497.1 12.6 495.4 12.6 C 495.36 12.57 493.5 12.6 493.5 12.6 L 493.5 21.9 L 491.2 21.9 L 491.2 1.4 Z M 495.6 10.6 C 498.4 10.6 500.5 9.9 500.5 6.9 C 500.5 4.4 498.9 3.4 496.3 3.4 C 496.29 3.39 493.5 3.4 493.5 3.4 L 493.5 10.6 C 493.5 10.6 495.57 10.59 495.6 10.6 Z M 522.9 1.4 C 527 1.4 529.5 3.5 529.5 7 C 529.5 10.9 526.9 12.7 522.5 12.7 C 522.54 12.66 519.4 12.7 519.4 12.7 L 519.4 21.9 L 517.1 21.9 L 517.1 1.4 C 517.1 1.4 522.93 1.41 522.9 1.4 Z M 519.4 10.7 C 519.4 10.7 522.48 10.68 522.5 10.7 C 525.9 10.7 527.2 9.3 527.2 7 C 527.2 4.7 525.8 3.4 522.5 3.4 C 522.48 3.39 519.4 3.4 519.4 3.4 L 519.4 10.7 Z M 532.7 1.4 C 532.7 1.4 538.04 1.41 538 1.4 C 542.2 1.4 544.3 3.8 544.3 6.9 C 544.3 9.4 542.9 11.2 540.4 11.9 C 541.7 12.6 542.3 13.2 544 15.7 C 544.02 15.75 548 21.9 548 21.9 L 545.3 21.9 C 545.3 21.9 541.71 16.23 541.7 16.2 C 539.8 13.2 538.6 12.6 536.8 12.6 C 536.82 12.57 534.9 12.6 534.9 12.6 L 534.9 21.9 L 532.7 21.9 L 532.7 1.4 Z M 537 10.6 C 539.8 10.6 542 9.9 542 6.9 C 542 4.4 540.4 3.4 537.7 3.4 C 537.74 3.39 534.9 3.4 534.9 3.4 L 534.9 10.6 C 534.9 10.6 537.02 10.59 537 10.6 Z M 552.5 1.4 L 552.5 21.9 L 550.2 21.9 L 550.2 1.4 L 552.5 1.4 Z M 554.8 1.4 L 557.1 1.4 L 563.7 17.3 L 563.8 17.3 L 570.4 1.4 L 572.6 1.4 L 564 22.1 L 563.5 22.1 L 554.8 1.4 Z M 581.5 1.3 L 590.6 21.9 L 588.3 21.9 L 585.4 15.4 L 576.1 15.4 L 573.3 21.9 L 571 21.9 L 579.9 1.3 L 581.5 1.3 Z M 577 13.4 L 584.5 13.4 L 580.6 4.7 L 577 13.4 Z M 605.3 1.4 L 605.3 3.4 L 598 3.4 L 598 21.9 L 595.8 21.9 L 595.8 3.4 L 588.5 3.4 L 588.5 1.4 L 605.3 1.4 Z M 619.3 1.4 L 619.3 3.4 L 610.3 3.4 L 610.3 10.6 L 619 10.6 L 619 12.6 L 610.3 12.6 L 610.3 19.8 L 619.5 19.8 L 619.5 21.9 L 608.1 21.9 L 608.1 1.4 L 619.3 1.4 Z M 636.8 1.4 C 640.6 1.4 643.1 3.4 643.1 6.6 C 643.1 8.8 641.9 10.4 639.7 11.1 C 642.9 11.6 644.8 13.7 644.8 16.4 C 644.8 20.2 641.5 21.9 637.7 21.9 C 637.73 21.87 631.5 21.9 631.5 21.9 L 631.5 1.4 C 631.5 1.4 636.77 1.41 636.8 1.4 Z M 633.7 10.5 C 633.7 10.5 635.96 10.5 636 10.5 C 639.3 10.5 640.8 8.9 640.8 6.8 C 640.8 4.5 639.4 3.4 636.3 3.4 C 636.32 3.39 633.7 3.4 633.7 3.4 L 633.7 10.5 Z M 637.3 19.9 C 640.6 19.9 642.5 18.8 642.5 16.2 C 642.5 13.8 640.9 12.4 637 12.4 C 636.98 12.45 633.7 12.4 633.7 12.4 L 633.7 19.9 C 633.7 19.9 637.31 19.89 637.3 19.9 Z M 656.8 1.3 L 665.9 21.9 L 663.6 21.9 L 660.7 15.4 L 651.4 15.4 L 648.6 21.9 L 646.3 21.9 L 655.2 1.3 L 656.8 1.3 Z M 652.3 13.4 L 659.8 13.4 L 655.9 4.7 L 652.3 13.4 Z M 670.1 1.4 L 684.6 18.3 L 684.6 1.4 L 686.7 1.4 L 686.7 21.9 L 684.7 21.9 L 670.4 5 L 670.4 21.9 L 668.2 21.9 L 668.2 1.4 L 670.1 1.4 Z M 693.6 1.4 L 693.6 11 L 702.5 1.4 L 705.4 1.4 L 696.2 11.2 L 707.2 21.9 L 704.1 21.9 L 693.6 11.7 L 693.6 21.9 L 691.3 21.9 L 691.3 1.4 L 693.6 1.4 Z M 720.6 1.4 L 720.6 3.4 L 711.6 3.4 L 711.6 10.6 L 720.3 10.6 L 720.3 12.6 L 711.6 12.6 L 711.6 19.8 L 720.8 19.8 L 720.8 21.9 L 709.4 21.9 L 709.4 1.4 L 720.6 1.4 Z M 724.4 1.4 C 724.4 1.4 729.8 1.41 729.8 1.4 C 733.9 1.4 736 3.8 736 6.9 C 736 9.4 734.7 11.2 732.2 11.9 C 733.5 12.6 734.1 13.2 735.8 15.7 C 735.77 15.75 739.7 21.9 739.7 21.9 L 737.1 21.9 C 737.1 21.9 733.46 16.23 733.5 16.2 C 731.6 13.2 730.3 12.6 728.6 12.6 C 728.57 12.57 726.7 12.6 726.7 12.6 L 726.7 21.9 L 724.4 21.9 L 724.4 1.4 Z M 728.8 10.6 C 731.6 10.6 733.7 9.9 733.7 6.9 C 733.7 4.4 732.1 3.4 729.5 3.4 C 729.5 3.39 726.7 3.4 726.7 3.4 L 726.7 10.6 C 726.7 10.6 728.78 10.59 728.8 10.6 Z M 751.9 2.5 C 751.9 2.5 751.9 5 751.9 5 C 750.5 3.8 749 3.2 747.3 3.2 C 745.2 3.2 743.8 4.4 743.8 6.1 C 743.8 7.5 744.1 8.7 747.5 10.4 C 751.7 12.6 752.7 14 752.7 16.8 C 752.7 19.9 750.4 22.1 746.9 22.1 C 744.9 22.1 743.1 21.5 741.6 20.3 C 741.6 20.3 741.6 17.5 741.6 17.5 C 743.1 19.2 744.9 20.1 746.9 20.1 C 748.9 20.1 750.4 18.8 750.4 16.9 C 750.4 15.1 749.9 14.1 745.9 12 C 742.7 10.4 741.5 8.8 741.5 6.2 C 741.5 3.3 744 1.1 747.4 1.1 C 749 1.1 750.6 1.6 751.9 2.5 Z " stroke="none" fill="#000000"/>  </g></svg>