<?xml version="1.0" standalone="no"?><!DOCTYPE svg PUBLIC "-//W3C//DTD SVG 1.1//EN" "http://www.w3.org/Graphics/SVG/1.1/DTD/svg11.dtd"><svg xmlns="http://www.w3.org/2000/svg" version="1.1" width="192px" height="38.8px" viewBox="0 -7 192 38.8" style="top:-7px">  <desc>Case Studies</desc>  <defs/>  <g id="Polygon44321">    <path d="M 16 2.3 C 16 2.3 16 4.3 16 4.3 C 14.2 3.3 12.2 2.7 10.2 2.7 C 5.9 2.7 3.1 6 3.1 9.7 C 3.1 13.5 5.8 16.7 10.2 16.7 C 12.3 16.7 14.3 16.1 16.1 14.9 C 16.1 14.9 16.1 17 16.1 17 C 14.2 18 12.3 18.4 10.2 18.4 C 4.3 18.4 1.2 14 1.2 9.8 C 1.2 4.7 5.1 0.9 10.2 0.9 C 12.1 0.9 14.1 1.4 16 2.3 Z M 26.3 1.1 L 33.9 18.2 L 32 18.2 L 29.6 12.9 L 21.8 12.9 L 19.5 18.2 L 17.6 18.2 L 25 1.1 L 26.3 1.1 Z M 22.5 11.2 L 28.8 11.2 L 25.6 3.9 L 22.5 11.2 Z M 44.1 2 C 44.1 2 44.1 4.2 44.1 4.2 C 43 3.2 41.7 2.6 40.3 2.6 C 38.5 2.6 37.3 3.6 37.3 5.1 C 37.3 6.2 37.6 7.2 40.4 8.6 C 43.9 10.5 44.8 11.7 44.8 14 C 44.8 16.5 42.8 18.4 39.9 18.4 C 38.3 18.4 36.8 17.9 35.5 16.9 C 35.5 16.9 35.5 14.6 35.5 14.6 C 36.8 16 38.3 16.8 39.9 16.8 C 41.6 16.8 42.9 15.7 42.9 14 C 42.9 12.6 42.4 11.7 39.1 10 C 36.4 8.6 35.4 7.3 35.4 5.2 C 35.4 2.7 37.5 0.9 40.3 0.9 C 41.7 0.9 43 1.3 44.1 2 Z M 57 1.2 L 57 2.8 L 49.6 2.8 L 49.6 8.8 L 56.8 8.8 L 56.8 10.5 L 49.6 10.5 L 49.6 16.5 L 57.2 16.5 L 57.2 18.2 L 47.7 18.2 L 47.7 1.2 L 57 1.2 Z M 75.1 2 C 75.1 2 75.1 4.2 75.1 4.2 C 73.9 3.2 72.7 2.6 71.3 2.6 C 69.5 2.6 68.3 3.6 68.3 5.1 C 68.3 6.2 68.6 7.2 71.4 8.6 C 74.9 10.5 75.8 11.7 75.8 14 C 75.8 16.5 73.8 18.4 70.9 18.4 C 69.3 18.4 67.8 17.9 66.5 16.9 C 66.5 16.9 66.5 14.6 66.5 14.6 C 67.7 16 69.2 16.8 70.9 16.8 C 72.6 16.8 73.9 15.7 73.9 14 C 73.9 12.6 73.4 11.7 70.1 10 C 67.4 8.6 66.4 7.3 66.4 5.2 C 66.4 2.7 68.5 0.9 71.3 0.9 C 72.6 0.9 74 1.3 75.1 2 Z M 91.1 1.2 L 91.1 2.8 L 85 2.8 L 85 18.2 L 83.2 18.2 L 83.2 2.8 L 77.1 2.8 L 77.1 1.2 L 91.1 1.2 Z M 95.1 1.2 C 95.1 1.2 95.1 11 95.1 11 C 95.1 14.8 96.9 16.8 100.4 16.8 C 103.9 16.8 105.6 14.7 105.6 11 C 105.65 11 105.6 1.2 105.6 1.2 L 107.5 1.2 C 107.5 1.2 107.52 11 107.5 11 C 107.5 15.5 105.1 18.4 100.4 18.4 C 95.7 18.4 93.2 15.8 93.2 11 C 93.22 11 93.2 1.2 93.2 1.2 L 95.1 1.2 Z M 111.1 1.2 C 111.1 1.2 117.42 1.17 117.4 1.2 C 123 1.2 126.6 4.6 126.6 9.5 C 126.6 14.8 122.8 18.2 117.4 18.2 C 117.42 18.22 111.1 18.2 111.1 18.2 L 111.1 1.2 Z M 117.4 16.5 C 121.9 16.5 124.6 13.9 124.6 9.7 C 124.6 5.5 121.9 2.8 117.1 2.8 C 117.12 2.85 113 2.8 113 2.8 L 113 16.5 C 113 16.5 117.4 16.52 117.4 16.5 Z M 131.6 1.2 L 131.6 18.2 L 129.7 18.2 L 129.7 1.2 L 131.6 1.2 Z M 144.7 1.2 L 144.7 2.8 L 137.3 2.8 L 137.3 8.8 L 144.5 8.8 L 144.5 10.5 L 137.3 10.5 L 137.3 16.5 L 144.9 16.5 L 144.9 18.2 L 135.4 18.2 L 135.4 1.2 L 144.7 1.2 Z M 155.9 2 C 155.9 2 155.9 4.2 155.9 4.2 C 154.7 3.2 153.4 2.6 152 2.6 C 150.2 2.6 149 3.6 149 5.1 C 149 6.2 149.3 7.2 152.1 8.6 C 155.7 10.5 156.5 11.7 156.5 14 C 156.5 16.5 154.6 18.4 151.6 18.4 C 150 18.4 148.5 17.9 147.2 16.9 C 147.2 16.9 147.2 14.6 147.2 14.6 C 148.5 16 150 16.8 151.6 16.8 C 153.4 16.8 154.6 15.7 154.6 14 C 154.6 12.6 154.1 11.7 150.8 10 C 148.2 8.6 147.1 7.3 147.1 5.2 C 147.1 2.7 149.2 0.9 152.1 0.9 C 153.4 0.9 154.7 1.3 155.9 2 Z " stroke="none" fill="#000000"/>  </g></svg>