<?xml version="1.0" standalone="no"?><!DOCTYPE svg PUBLIC "-//W3C//DTD SVG 1.1//EN" "http://www.w3.org/Graphics/SVG/1.1/DTD/svg11.dtd"><svg xmlns="http://www.w3.org/2000/svg" version="1.1" width="234.5px" height="204.8px" viewBox="0 -10 234.5 204.8" style="top:-10px">  <desc>Training Supporting Vulnerable Customers</desc>  <defs/>  <g id="Polygon17737">    <path d="M 25.6 147.7 C 25.6 147.7 25.6 150.9 25.6 150.9 C 22.7 149.3 19.6 148.3 16.4 148.3 C 9.4 148.3 5 153.6 5 159.6 C 5 165.7 9.4 170.7 16.3 170.7 C 19.7 170.7 22.9 169.8 25.8 167.9 C 25.8 167.9 25.8 171.2 25.8 171.2 C 22.8 172.8 19.6 173.5 16.2 173.5 C 6.8 173.5 1.9 166.4 1.9 159.6 C 1.9 151.5 8.1 145.5 16.3 145.5 C 19.4 145.5 22.5 146.3 25.6 147.7 Z M 33.2 145.9 C 33.2 145.9 33.16 161.6 33.2 161.6 C 33.2 167.6 36 170.8 41.6 170.8 C 47.3 170.8 50 167.5 50 161.6 C 50.04 161.6 50 145.9 50 145.9 L 53 145.9 C 53 145.9 53.04 161.6 53 161.6 C 53 168.8 49.2 173.5 41.7 173.5 C 34.2 173.5 30.2 169.2 30.2 161.6 C 30.16 161.6 30.2 145.9 30.2 145.9 L 33.2 145.9 Z M 71.5 147.3 C 71.5 147.3 71.5 150.7 71.5 150.7 C 69.6 149.1 67.6 148.2 65.3 148.2 C 62.4 148.2 60.6 149.8 60.6 152.2 C 60.6 154 61 155.6 65.5 157.8 C 71.2 160.8 72.5 162.7 72.5 166.4 C 72.5 170.5 69.4 173.5 64.7 173.5 C 62.1 173.5 59.7 172.7 57.6 171.1 C 57.6 171.1 57.6 167.4 57.6 167.4 C 59.7 169.6 62.1 170.8 64.7 170.8 C 67.5 170.8 69.5 169.1 69.5 166.5 C 69.5 164.2 68.7 162.8 63.4 160 C 59.2 157.8 57.5 155.8 57.5 152.3 C 57.5 148.4 60.8 145.5 65.4 145.5 C 67.5 145.5 69.6 146.1 71.5 147.3 Z M 97.1 145.9 L 97.1 148.5 L 87.4 148.5 L 87.4 173.2 L 84.4 173.2 L 84.4 148.5 L 74.7 148.5 L 74.7 145.9 L 97.1 145.9 Z M 126.6 159.4 C 126.6 167 121 173.5 112 173.5 C 103.5 173.5 97.8 167.1 97.8 159.7 C 97.8 152.1 103.3 145.5 112.1 145.5 C 120.8 145.5 126.6 151.8 126.6 159.4 Z M 100.9 159.6 C 100.9 166 105.9 170.7 112 170.7 C 120.2 170.7 123.5 164.4 123.5 159.5 C 123.5 154 119.4 148.4 112.3 148.4 C 104.8 148.4 100.9 154 100.9 159.6 Z M 131.5 145.9 L 134.4 145.9 L 144 157.8 L 153.6 145.9 L 156.4 145.9 L 156.4 173.2 L 153.4 173.2 L 153.4 150.6 L 153.4 150.6 L 144.2 162 L 143.7 162 L 134.6 150.6 L 134.5 150.6 L 134.5 173.2 L 131.5 173.2 L 131.5 145.9 Z M 177.5 145.9 L 177.5 148.6 L 165.6 148.6 L 165.6 158.1 L 177.1 158.1 L 177.1 160.8 L 165.6 160.8 L 165.6 170.4 L 177.8 170.4 L 177.8 173.2 L 162.6 173.2 L 162.6 145.9 L 177.5 145.9 Z M 182.7 145.9 C 182.7 145.9 189.84 145.88 189.8 145.9 C 195.3 145.9 198.2 149 198.2 153.2 C 198.2 156.6 196.3 158.9 193 159.9 C 194.8 160.8 195.6 161.6 197.8 165 C 197.8 165 203.1 173.2 203.1 173.2 L 199.5 173.2 C 199.5 173.2 194.72 165.64 194.7 165.6 C 192.2 161.6 190.5 160.8 188.2 160.8 C 188.2 160.76 185.7 160.8 185.7 160.8 L 185.7 173.2 L 182.7 173.2 L 182.7 145.9 Z M 188.5 158.1 C 192.2 158.1 195.1 157.2 195.1 153.2 C 195.1 149.9 192.9 148.5 189.4 148.5 C 189.44 148.52 185.7 148.5 185.7 148.5 L 185.7 158.1 C 185.7 158.1 188.48 158.12 188.5 158.1 Z M 219.4 147.3 C 219.4 147.3 219.4 150.7 219.4 150.7 C 217.5 149.1 215.4 148.2 213.2 148.2 C 210.3 148.2 208.4 149.8 208.4 152.2 C 208.4 154 208.9 155.6 213.4 157.8 C 219 160.8 220.4 162.7 220.4 166.4 C 220.4 170.5 217.3 173.5 212.6 173.5 C 210 173.5 207.6 172.7 205.5 171.1 C 205.5 171.1 205.5 167.4 205.5 167.4 C 207.6 169.6 210 170.8 212.6 170.8 C 215.4 170.8 217.4 169.1 217.4 166.5 C 217.4 164.2 216.6 162.8 211.3 160 C 207 157.8 205.4 155.8 205.4 152.3 C 205.4 148.4 208.7 145.5 213.3 145.5 C 215.4 145.5 217.5 146.1 219.4 147.3 Z " stroke="none" fill="#010102"/>  </g>  <g id="Polygon17736">    <path d="M 0.1 97.9 L 3.1 97.9 L 12 119.1 L 12 119.1 L 20.8 97.9 L 23.8 97.9 L 12.3 125.4 L 11.6 125.4 L 0.1 97.9 Z M 29.6 97.9 C 29.6 97.9 29.6 113.6 29.6 113.6 C 29.6 119.6 32.4 122.8 38 122.8 C 43.7 122.8 46.5 119.5 46.5 113.6 C 46.48 113.6 46.5 97.9 46.5 97.9 L 49.5 97.9 C 49.5 97.9 49.48 113.6 49.5 113.6 C 49.5 120.8 45.7 125.5 38.1 125.5 C 30.6 125.5 26.6 121.2 26.6 113.6 C 26.6 113.6 26.6 97.9 26.6 97.9 L 29.6 97.9 Z M 58.3 97.9 L 58.3 122.4 L 71.1 122.4 L 71.1 125.2 L 55.3 125.2 L 55.3 97.9 L 58.3 97.9 Z M 77.1 97.9 L 96.4 120.4 L 96.4 97.9 L 99.3 97.9 L 99.3 125.2 L 96.6 125.2 L 77.5 102.7 L 77.5 125.2 L 74.6 125.2 L 74.6 97.9 L 77.1 97.9 Z M 120.3 97.9 L 120.3 100.6 L 108.4 100.6 L 108.4 110.1 L 119.9 110.1 L 119.9 112.8 L 108.4 112.8 L 108.4 122.4 L 120.6 122.4 L 120.6 125.2 L 105.4 125.2 L 105.4 97.9 L 120.3 97.9 Z M 125.5 97.9 C 125.5 97.9 132.64 97.88 132.6 97.9 C 138.1 97.9 141 101 141 105.2 C 141 108.6 139.1 110.9 135.8 111.9 C 137.6 112.8 138.4 113.6 140.6 117 C 140.6 117 145.9 125.2 145.9 125.2 L 142.3 125.2 C 142.3 125.2 137.52 117.64 137.5 117.6 C 135 113.6 133.3 112.8 131 112.8 C 131 112.76 128.5 112.8 128.5 112.8 L 128.5 125.2 L 125.5 125.2 L 125.5 97.9 Z M 131.3 110.1 C 135 110.1 137.9 109.2 137.9 105.2 C 137.9 101.9 135.7 100.5 132.2 100.5 C 132.24 100.52 128.5 100.5 128.5 100.5 L 128.5 110.1 C 128.5 110.1 131.28 110.12 131.3 110.1 Z M 159.8 97.7 L 172 125.2 L 168.9 125.2 L 165 116.6 L 152.6 116.6 L 149 125.2 L 145.9 125.2 L 157.7 97.7 L 159.8 97.7 Z M 153.8 113.9 L 163.8 113.9 L 158.7 102.3 L 153.8 113.9 Z M 182.1 97.9 C 187.2 97.9 190.6 100.5 190.6 104.8 C 190.6 107.8 189 109.8 186 110.8 C 190.3 111.4 192.9 114.2 192.9 117.8 C 192.9 122.9 188.4 125.2 183.4 125.2 C 183.4 125.16 175.1 125.2 175.1 125.2 L 175.1 97.9 C 175.1 97.9 182.12 97.88 182.1 97.9 Z M 178 110 C 178 110 181.04 110 181 110 C 185.5 110 187.4 107.9 187.4 105.1 C 187.4 102 185.6 100.5 181.5 100.5 C 181.52 100.52 178 100.5 178 100.5 L 178 110 Z M 182.8 122.5 C 187.2 122.5 189.8 121 189.8 117.6 C 189.8 114.4 187.6 112.6 182.4 112.6 C 182.4 112.6 178 112.6 178 112.6 L 178 122.5 C 178 122.5 182.84 122.52 182.8 122.5 Z M 200.4 97.9 L 200.4 122.4 L 213.2 122.4 L 213.2 125.2 L 197.4 125.2 L 197.4 97.9 L 200.4 97.9 Z M 231.6 97.9 L 231.6 100.6 L 219.7 100.6 L 219.7 110.1 L 231.2 110.1 L 231.2 112.8 L 219.7 112.8 L 219.7 122.4 L 231.9 122.4 L 231.9 125.2 L 216.7 125.2 L 216.7 97.9 L 231.6 97.9 Z " stroke="none" fill="#010102"/>  </g>  <g id="Polygon17735">    <path d="M 15.7 51.3 C 15.7 51.3 15.7 54.7 15.7 54.7 C 13.8 53.1 11.8 52.2 9.6 52.2 C 6.7 52.2 4.8 53.8 4.8 56.2 C 4.8 58 5.2 59.6 9.8 61.8 C 15.4 64.8 16.8 66.7 16.8 70.4 C 16.8 74.5 13.6 77.5 9 77.5 C 6.4 77.5 4 76.7 1.9 75.1 C 1.9 75.1 1.9 71.4 1.9 71.4 C 3.9 73.6 6.3 74.8 9 74.8 C 11.7 74.8 13.7 73.1 13.7 70.5 C 13.7 68.2 13 66.8 7.7 64 C 3.4 61.8 1.8 59.8 1.8 56.3 C 1.8 52.4 5.1 49.5 9.6 49.5 C 11.8 49.5 13.9 50.1 15.7 51.3 Z M 24.1 49.9 C 24.1 49.9 24.08 65.6 24.1 65.6 C 24.1 71.6 26.9 74.8 32.5 74.8 C 38.2 74.8 41 71.5 41 65.6 C 40.96 65.6 41 49.9 41 49.9 L 44 49.9 C 44 49.9 43.96 65.6 44 65.6 C 44 72.8 40.2 77.5 32.6 77.5 C 25.1 77.5 21.1 73.2 21.1 65.6 C 21.08 65.6 21.1 49.9 21.1 49.9 L 24.1 49.9 Z M 57.5 49.9 C 63 49.9 66.3 52.6 66.3 57.4 C 66.3 62.5 62.8 64.9 57 64.9 C 57 64.88 52.8 64.9 52.8 64.9 L 52.8 77.2 L 49.8 77.2 L 49.8 49.9 C 49.8 49.9 57.52 49.88 57.5 49.9 Z M 52.8 62.2 C 52.8 62.2 56.92 62.24 56.9 62.2 C 61.5 62.2 63.2 60.4 63.2 57.3 C 63.2 54.2 61.4 52.5 56.9 52.5 C 56.92 52.52 52.8 52.5 52.8 52.5 L 52.8 62.2 Z M 78.3 49.9 C 83.7 49.9 87 52.6 87 57.4 C 87 62.5 83.6 64.9 77.8 64.9 C 77.76 64.88 73.5 64.9 73.5 64.9 L 73.5 77.2 L 70.5 77.2 L 70.5 49.9 C 70.5 49.9 78.28 49.88 78.3 49.9 Z M 73.5 62.2 C 73.5 62.2 77.68 62.24 77.7 62.2 C 82.3 62.2 84 60.4 84 57.3 C 84 54.2 82.1 52.5 77.7 52.5 C 77.68 52.52 73.5 52.5 73.5 52.5 L 73.5 62.2 Z M 118.8 63.4 C 118.8 71 113.2 77.5 104.2 77.5 C 95.8 77.5 90.1 71.1 90.1 63.7 C 90.1 56.1 95.5 49.5 104.4 49.5 C 113.1 49.5 118.8 55.8 118.8 63.4 Z M 93.2 63.6 C 93.2 70 98.2 74.7 104.3 74.7 C 112.4 74.7 115.7 68.4 115.7 63.5 C 115.7 58 111.6 52.4 104.5 52.4 C 97.1 52.4 93.2 58 93.2 63.6 Z M 123.8 49.9 C 123.8 49.9 130.92 49.88 130.9 49.9 C 136.4 49.9 139.2 53 139.2 57.2 C 139.2 60.6 137.4 62.9 134.1 63.9 C 135.8 64.8 136.6 65.6 138.9 69 C 138.88 69 144.2 77.2 144.2 77.2 L 140.6 77.2 C 140.6 77.2 135.8 69.64 135.8 69.6 C 133.3 65.6 131.6 64.8 129.3 64.8 C 129.28 64.76 126.8 64.8 126.8 64.8 L 126.8 77.2 L 123.8 77.2 L 123.8 49.9 Z M 129.6 62.1 C 133.3 62.1 136.2 61.2 136.2 57.2 C 136.2 53.9 134 52.5 130.5 52.5 C 130.52 52.52 126.8 52.5 126.8 52.5 L 126.8 62.1 C 126.8 62.1 129.56 62.12 129.6 62.1 Z M 165 49.9 L 165 52.5 L 155.3 52.5 L 155.3 77.2 L 152.3 77.2 L 152.3 52.5 L 142.6 52.5 L 142.6 49.9 L 165 49.9 Z M 171.7 49.9 L 171.7 77.2 L 168.7 77.2 L 168.7 49.9 L 171.7 49.9 Z M 180.3 49.9 L 199.6 72.4 L 199.6 49.9 L 202.5 49.9 L 202.5 77.2 L 199.9 77.2 L 180.7 54.7 L 180.7 77.2 L 177.8 77.2 L 177.8 49.9 L 180.3 49.9 Z M 231.2 54.9 C 228.2 53.1 224.8 52.2 221.8 52.2 C 215.4 52.2 210.6 57 210.6 63.4 C 210.6 70.1 215.2 74.8 222 74.8 C 224.3 74.8 225.9 74.5 228.7 73.4 C 228.72 73.44 228.7 66.8 228.7 66.8 L 223.2 66.8 L 223.2 64.2 L 231.7 64.2 C 231.7 64.2 231.72 75.28 231.7 75.3 C 228.6 76.8 225.6 77.5 222 77.5 C 212.2 77.5 207.4 70.7 207.4 63.7 C 207.4 55.9 213.2 49.5 221.9 49.5 C 225 49.5 227.6 50.2 231.2 51.8 C 231.2 51.8 231.2 54.9 231.2 54.9 Z " stroke="none" fill="#010102"/>  </g>  <g id="Polygon17734">    <path d="M 17.3 8.7 L 17.3 10.7 L 9.9 10.7 L 9.9 29.2 L 7.7 29.2 L 7.7 10.7 L 0.4 10.7 L 0.4 8.7 L 17.3 8.7 Z M 20 8.7 C 20 8.7 25.38 8.7 25.4 8.7 C 29.5 8.7 31.6 11.1 31.6 14.2 C 31.6 16.7 30.2 18.5 27.7 19.2 C 29.1 19.9 29.7 20.5 31.3 23 C 31.35 23.04 35.3 29.2 35.3 29.2 L 32.6 29.2 C 32.6 29.2 29.04 23.52 29 23.5 C 27.1 20.5 25.9 19.9 24.1 19.9 C 24.15 19.86 22.3 19.9 22.3 19.9 L 22.3 29.2 L 20 29.2 L 20 8.7 Z M 24.4 17.9 C 27.2 17.9 29.3 17.2 29.3 14.2 C 29.3 11.7 27.7 10.7 25.1 10.7 C 25.08 10.68 22.3 10.7 22.3 10.7 L 22.3 17.9 C 22.3 17.9 24.36 17.88 24.4 17.9 Z M 45.7 8.6 L 54.9 29.2 L 52.6 29.2 L 49.7 22.7 L 40.4 22.7 L 37.6 29.2 L 35.3 29.2 L 44.2 8.6 L 45.7 8.6 Z M 41.2 20.7 L 48.8 20.7 L 44.9 12 L 41.2 20.7 Z M 59.5 8.7 L 59.5 29.2 L 57.2 29.2 L 57.2 8.7 L 59.5 8.7 Z M 65.9 8.7 L 80.4 25.6 L 80.4 8.7 L 82.6 8.7 L 82.6 29.2 L 80.6 29.2 L 66.2 12.3 L 66.2 29.2 L 64 29.2 L 64 8.7 L 65.9 8.7 Z M 89.4 8.7 L 89.4 29.2 L 87.1 29.2 L 87.1 8.7 L 89.4 8.7 Z M 95.8 8.7 L 110.3 25.6 L 110.3 8.7 L 112.5 8.7 L 112.5 29.2 L 110.5 29.2 L 96.1 12.3 L 96.1 29.2 L 94 29.2 L 94 8.7 L 95.8 8.7 Z M 134 12.4 C 131.7 11.1 129.2 10.4 126.9 10.4 C 122.2 10.4 118.5 14 118.5 18.8 C 118.5 23.9 122 27.4 127.1 27.4 C 128.8 27.4 130 27.1 132.1 26.4 C 132.15 26.37 132.1 21.4 132.1 21.4 L 128 21.4 L 128 19.4 L 134.4 19.4 C 134.4 19.4 134.4 27.75 134.4 27.7 C 132.1 28.9 129.8 29.4 127.1 29.4 C 119.8 29.4 116.2 24.3 116.2 19 C 116.2 13.2 120.5 8.4 127 8.4 C 129.4 8.4 131.3 8.9 134 10.1 C 134 10.1 134 12.4 134 12.4 Z " stroke="none" fill="#f28620"/>  </g></svg>