<?xml version="1.0" standalone="no"?><!DOCTYPE svg PUBLIC "-//W3C//DTD SVG 1.1//EN" "http://www.w3.org/Graphics/SVG/1.1/DTD/svg11.dtd"><svg xmlns="http://www.w3.org/2000/svg" version="1.1" width="17px" height="21.5px" viewBox="0 -4 17 21.5" style="top:-4px">  <desc>4.5</desc>  <defs/>  <g id="Polygon5417">    <path d="M 3.7 8.7 L 3.7 7 L 0.2 7 L 0.2 5.6 L 3.9 0.1 L 5.3 0.1 L 5.3 5.6 L 6.4 5.6 L 6.4 7 L 5.3 7 L 5.3 8.7 L 3.7 8.7 Z M 3.7 5.6 L 3.7 2.6 L 1.8 5.6 L 3.7 5.6 Z M 7.5 8.7 L 7.5 7.1 L 9.2 7.1 L 9.2 8.7 L 7.5 8.7 Z M 10.5 6.5 C 10.5 6.5 12.2 6.4 12.2 6.4 C 12.2 6.7 12.4 7 12.6 7.2 C 12.8 7.5 13.1 7.6 13.4 7.6 C 13.7 7.6 14 7.4 14.3 7.1 C 14.5 6.9 14.6 6.4 14.6 5.9 C 14.6 5.4 14.5 5 14.3 4.7 C 14 4.4 13.7 4.3 13.3 4.3 C 12.9 4.3 12.5 4.5 12.1 4.9 C 12.08 4.93 10.7 4.7 10.7 4.7 L 11.6 0.3 L 15.9 0.3 L 15.9 1.8 L 12.8 1.8 C 12.8 1.8 12.57 3.26 12.6 3.3 C 12.9 3.1 13.3 3 13.7 3 C 14.4 3 15 3.3 15.6 3.8 C 16.1 4.3 16.3 5 16.3 5.9 C 16.3 6.6 16.1 7.2 15.7 7.7 C 15.1 8.5 14.4 8.9 13.4 8.9 C 12.6 8.9 11.9 8.7 11.4 8.2 C 10.9 7.8 10.6 7.2 10.5 6.5 Z " stroke="none" fill="#000"/>  </g></svg>