<?xml version="1.0" standalone="no"?><!DOCTYPE svg PUBLIC "-//W3C//DTD SVG 1.1//EN" "http://www.w3.org/Graphics/SVG/1.1/DTD/svg11.dtd"><svg xmlns="http://www.w3.org/2000/svg" version="1.1" width="17px" height="21.5px" viewBox="0 -4 17 21.5" style="top:-4px">  <desc>4.7</desc>  <defs/>  <g id="Polygon56643">    <path d="M 3.7 8.7 L 3.7 7 L 0.2 7 L 0.2 5.6 L 3.9 0.1 L 5.3 0.1 L 5.3 5.6 L 6.4 5.6 L 6.4 7 L 5.3 7 L 5.3 8.7 L 3.7 8.7 Z M 3.7 5.6 L 3.7 2.6 L 1.8 5.6 L 3.7 5.6 Z M 7.5 8.7 L 7.5 7.1 L 9.2 7.1 L 9.2 8.7 L 7.5 8.7 Z M 10.5 1.8 L 10.5 0.3 L 16.1 0.3 C 16.1 0.3 16.15 1.46 16.1 1.5 C 15.7 1.9 15.2 2.6 14.7 3.4 C 14.3 4.3 13.9 5.2 13.6 6.2 C 13.4 7.1 13.3 8 13.3 8.7 C 13.3 8.7 11.7 8.7 11.7 8.7 C 11.7 7.5 11.9 6.3 12.4 5.1 C 12.9 3.9 13.5 2.8 14.3 1.8 C 14.26 1.79 10.5 1.8 10.5 1.8 Z " stroke="none" fill="#000"/>  </g></svg>