<?xml version="1.0" standalone="no"?><!DOCTYPE svg PUBLIC "-//W3C//DTD SVG 1.1//EN" "http://www.w3.org/Graphics/SVG/1.1/DTD/svg11.dtd"><svg xmlns="http://www.w3.org/2000/svg" version="1.1" width="226px" height="58.5px" viewBox="0 -7 226 58.5" style="top:-7px">  <desc>Managed Services Training Design and Delivery Learning Specialist Talent</desc>  <defs/>  <g id="Polygon45174">    <path d="M 21.1 29.5 L 21.1 21.9 L 18.3 21.9 L 18.3 20.9 L 25.1 20.9 L 25.1 21.9 L 22.2 21.9 L 22.2 29.5 L 21.1 29.5 Z M 25.7 29.5 L 25.7 23.3 L 26.6 23.3 C 26.6 23.3 26.61 24.22 26.6 24.2 C 26.9 23.8 27.1 23.5 27.3 23.3 C 27.5 23.2 27.7 23.1 28 23.1 C 28.3 23.1 28.7 23.3 29 23.5 C 29 23.5 28.7 24.5 28.7 24.5 C 28.4 24.3 28.2 24.2 27.9 24.2 C 27.7 24.2 27.5 24.3 27.3 24.4 C 27.1 24.6 27 24.8 26.9 25 C 26.8 25.4 26.7 25.8 26.7 26.2 C 26.72 26.24 26.7 29.5 26.7 29.5 L 25.7 29.5 Z M 33.9 29.5 C 33.8 29.3 33.8 29 33.7 28.7 C 33.3 29.1 33 29.3 32.6 29.4 C 32.2 29.6 31.9 29.6 31.4 29.6 C 30.8 29.6 30.2 29.5 29.9 29.1 C 29.5 28.8 29.3 28.4 29.3 27.9 C 29.3 27.6 29.4 27.3 29.5 27 C 29.7 26.8 29.8 26.6 30.1 26.4 C 30.3 26.3 30.5 26.2 30.8 26.1 C 31 26 31.3 26 31.8 25.9 C 32.6 25.8 33.2 25.7 33.6 25.6 C 33.6 25.4 33.7 25.3 33.7 25.3 C 33.7 24.8 33.6 24.5 33.4 24.4 C 33.1 24.1 32.7 24 32.2 24 C 31.7 24 31.3 24.1 31.1 24.3 C 30.8 24.4 30.6 24.8 30.5 25.2 C 30.5 25.2 29.5 25.1 29.5 25.1 C 29.6 24.6 29.7 24.3 30 24 C 30.2 23.7 30.5 23.5 30.9 23.4 C 31.3 23.2 31.8 23.1 32.3 23.1 C 32.8 23.1 33.3 23.2 33.6 23.3 C 33.9 23.4 34.2 23.6 34.3 23.8 C 34.5 24 34.6 24.2 34.7 24.5 C 34.7 24.7 34.7 25 34.7 25.5 C 34.7 25.5 34.7 26.9 34.7 26.9 C 34.7 27.9 34.7 28.5 34.8 28.8 C 34.8 29 34.9 29.3 35 29.5 C 35.04 29.5 33.9 29.5 33.9 29.5 C 33.9 29.5 33.94 29.5 33.9 29.5 Z M 33.6 26.4 C 33.3 26.5 32.7 26.7 31.9 26.8 C 31.5 26.8 31.2 26.9 31 27 C 30.8 27.1 30.7 27.2 30.6 27.3 C 30.5 27.5 30.4 27.6 30.4 27.8 C 30.4 28.1 30.5 28.3 30.8 28.5 C 31 28.7 31.3 28.8 31.7 28.8 C 32.1 28.8 32.5 28.7 32.8 28.5 C 33.1 28.4 33.3 28.1 33.5 27.8 C 33.6 27.6 33.6 27.2 33.6 26.8 C 33.6 26.8 33.6 26.4 33.6 26.4 Z M 36.4 22.1 L 36.4 20.9 L 37.4 20.9 L 37.4 22.1 L 36.4 22.1 Z M 36.4 29.5 L 36.4 23.3 L 37.4 23.3 L 37.4 29.5 L 36.4 29.5 Z M 39 29.5 L 39 23.3 L 40 23.3 C 40 23.3 39.96 24.16 40 24.2 C 40.4 23.5 41.1 23.1 41.9 23.1 C 42.3 23.1 42.7 23.2 43 23.3 C 43.3 23.5 43.5 23.7 43.7 23.9 C 43.8 24.1 43.9 24.3 44 24.6 C 44 24.8 44.1 25.2 44.1 25.7 C 44.07 25.67 44.1 29.5 44.1 29.5 L 43 29.5 C 43 29.5 43.01 25.71 43 25.7 C 43 25.3 43 25 42.9 24.8 C 42.8 24.5 42.7 24.4 42.5 24.2 C 42.2 24.1 42 24.1 41.7 24.1 C 41.3 24.1 40.9 24.2 40.6 24.5 C 40.2 24.8 40.1 25.3 40.1 26.1 C 40.07 26.1 40.1 29.5 40.1 29.5 L 39 29.5 Z M 45.7 22.1 L 45.7 20.9 L 46.7 20.9 L 46.7 22.1 L 45.7 22.1 Z M 45.7 29.5 L 45.7 23.3 L 46.7 23.3 L 46.7 29.5 L 45.7 29.5 Z M 48.4 29.5 L 48.4 23.3 L 49.3 23.3 C 49.3 23.3 49.3 24.16 49.3 24.2 C 49.8 23.5 50.4 23.1 51.3 23.1 C 51.7 23.1 52 23.2 52.3 23.3 C 52.6 23.5 52.9 23.7 53 23.9 C 53.2 24.1 53.3 24.3 53.3 24.6 C 53.4 24.8 53.4 25.2 53.4 25.7 C 53.41 25.67 53.4 29.5 53.4 29.5 L 52.4 29.5 C 52.4 29.5 52.35 25.71 52.4 25.7 C 52.4 25.3 52.3 25 52.2 24.8 C 52.1 24.5 52 24.4 51.8 24.2 C 51.6 24.1 51.3 24.1 51.1 24.1 C 50.6 24.1 50.2 24.2 49.9 24.5 C 49.6 24.8 49.4 25.3 49.4 26.1 C 49.41 26.1 49.4 29.5 49.4 29.5 L 48.4 29.5 Z M 54.8 30 C 54.8 30 55.9 30.2 55.9 30.2 C 55.9 30.5 56 30.7 56.2 30.9 C 56.5 31.1 56.8 31.2 57.3 31.2 C 57.8 31.2 58.2 31.1 58.4 30.9 C 58.7 30.7 58.9 30.4 59 30 C 59 29.8 59 29.4 59 28.7 C 58.6 29.2 58 29.5 57.3 29.5 C 56.5 29.5 55.8 29.2 55.3 28.6 C 54.9 28 54.6 27.2 54.6 26.4 C 54.6 25.8 54.7 25.2 54.9 24.7 C 55.2 24.2 55.5 23.8 55.9 23.5 C 56.3 23.3 56.8 23.1 57.3 23.1 C 58.1 23.1 58.7 23.4 59.1 24 C 59.13 24.03 59.1 23.3 59.1 23.3 L 60.1 23.3 C 60.1 23.3 60.11 28.66 60.1 28.7 C 60.1 29.6 60 30.3 59.8 30.7 C 59.6 31.1 59.3 31.4 58.9 31.7 C 58.4 31.9 57.9 32 57.3 32 C 56.6 32 56 31.9 55.5 31.5 C 55 31.2 54.8 30.7 54.8 30 Z M 55.7 26.3 C 55.7 27.1 55.9 27.7 56.2 28.1 C 56.5 28.4 56.9 28.6 57.4 28.6 C 57.9 28.6 58.3 28.4 58.6 28.1 C 59 27.7 59.1 27.1 59.1 26.3 C 59.1 25.6 59 25 58.6 24.6 C 58.3 24.2 57.9 24 57.4 24 C 56.9 24 56.5 24.2 56.2 24.6 C 55.9 25 55.7 25.5 55.7 26.3 Z M 65.2 29.5 L 65.2 20.9 C 65.2 20.9 68.13 20.91 68.1 20.9 C 68.8 20.9 69.3 21 69.7 21 C 70.1 21.1 70.6 21.4 70.9 21.6 C 71.4 22 71.7 22.5 71.9 23.1 C 72.2 23.7 72.3 24.4 72.3 25.2 C 72.3 25.8 72.2 26.4 72 26.9 C 71.9 27.4 71.7 27.8 71.5 28.1 C 71.2 28.5 71 28.7 70.7 28.9 C 70.4 29.1 70 29.3 69.6 29.4 C 69.2 29.5 68.8 29.5 68.3 29.5 C 68.27 29.5 65.2 29.5 65.2 29.5 Z M 66.3 28.5 C 66.3 28.5 68.14 28.49 68.1 28.5 C 68.7 28.5 69.1 28.4 69.5 28.3 C 69.8 28.2 70.1 28.1 70.2 27.9 C 70.5 27.6 70.7 27.3 70.9 26.8 C 71 26.3 71.1 25.8 71.1 25.1 C 71.1 24.2 71 23.6 70.7 23.1 C 70.4 22.6 70 22.3 69.6 22.1 C 69.3 22 68.8 21.9 68.1 21.9 C 68.11 21.92 66.3 21.9 66.3 21.9 L 66.3 28.5 Z M 78 27.5 C 78 27.5 79 27.6 79 27.6 C 78.9 28.3 78.6 28.8 78.1 29.1 C 77.6 29.5 77 29.6 76.3 29.6 C 75.4 29.6 74.7 29.4 74.1 28.8 C 73.6 28.2 73.3 27.5 73.3 26.4 C 73.3 25.4 73.6 24.6 74.2 24 C 74.7 23.4 75.4 23.1 76.3 23.1 C 77.1 23.1 77.8 23.4 78.3 24 C 78.8 24.6 79.1 25.3 79.1 26.4 C 79.1 26.4 79.1 26.5 79.1 26.7 C 79.1 26.7 74.4 26.7 74.4 26.7 C 74.5 27.3 74.7 27.9 75 28.2 C 75.4 28.6 75.8 28.8 76.3 28.8 C 76.7 28.8 77 28.7 77.3 28.5 C 77.6 28.3 77.8 27.9 78 27.5 Z M 74.5 25.8 C 74.5 25.8 78 25.8 78 25.8 C 77.9 25.3 77.8 24.9 77.6 24.6 C 77.2 24.2 76.8 24 76.3 24 C 75.8 24 75.4 24.2 75 24.5 C 74.7 24.8 74.5 25.2 74.5 25.8 Z M 80 27.6 C 80 27.6 81 27.5 81 27.5 C 81.1 27.9 81.2 28.2 81.5 28.4 C 81.8 28.7 82.1 28.8 82.6 28.8 C 83.1 28.8 83.4 28.7 83.7 28.5 C 83.9 28.3 84 28 84 27.8 C 84 27.5 83.9 27.4 83.7 27.2 C 83.6 27.1 83.2 27 82.6 26.9 C 81.9 26.7 81.3 26.5 81 26.4 C 80.7 26.2 80.5 26 80.4 25.8 C 80.2 25.5 80.1 25.2 80.1 24.9 C 80.1 24.7 80.2 24.4 80.3 24.2 C 80.4 23.9 80.6 23.7 80.8 23.6 C 81 23.4 81.2 23.3 81.5 23.3 C 81.8 23.2 82.1 23.1 82.4 23.1 C 82.9 23.1 83.3 23.2 83.7 23.3 C 84.1 23.5 84.3 23.7 84.5 23.9 C 84.7 24.2 84.8 24.5 84.9 24.9 C 84.9 24.9 83.9 25 83.9 25 C 83.8 24.7 83.7 24.5 83.4 24.3 C 83.2 24.1 82.9 24 82.5 24 C 82 24 81.7 24.1 81.5 24.2 C 81.2 24.4 81.1 24.6 81.1 24.8 C 81.1 24.9 81.2 25.1 81.3 25.2 C 81.4 25.3 81.5 25.4 81.7 25.5 C 81.8 25.5 82.1 25.6 82.6 25.7 C 83.4 25.9 83.9 26.1 84.2 26.2 C 84.5 26.3 84.7 26.5 84.9 26.8 C 85 27 85.1 27.3 85.1 27.7 C 85.1 28 85 28.4 84.8 28.7 C 84.6 29 84.3 29.2 83.9 29.4 C 83.5 29.6 83.1 29.6 82.6 29.6 C 81.8 29.6 81.2 29.5 80.8 29.1 C 80.3 28.8 80.1 28.3 80 27.6 Z M 86.4 22.1 L 86.4 20.9 L 87.4 20.9 L 87.4 22.1 L 86.4 22.1 Z M 86.4 29.5 L 86.4 23.3 L 87.4 23.3 L 87.4 29.5 L 86.4 29.5 Z M 88.8 30 C 88.8 30 89.9 30.2 89.9 30.2 C 89.9 30.5 90 30.7 90.2 30.9 C 90.5 31.1 90.8 31.2 91.3 31.2 C 91.8 31.2 92.2 31.1 92.4 30.9 C 92.7 30.7 92.9 30.4 93 30 C 93 29.8 93.1 29.4 93 28.7 C 92.6 29.2 92 29.5 91.3 29.5 C 90.5 29.5 89.8 29.2 89.3 28.6 C 88.9 28 88.6 27.2 88.6 26.4 C 88.6 25.8 88.7 25.2 89 24.7 C 89.2 24.2 89.5 23.8 89.9 23.5 C 90.3 23.3 90.8 23.1 91.3 23.1 C 92.1 23.1 92.7 23.4 93.1 24 C 93.15 24.03 93.1 23.3 93.1 23.3 L 94.1 23.3 C 94.1 23.3 94.12 28.66 94.1 28.7 C 94.1 29.6 94 30.3 93.8 30.7 C 93.6 31.1 93.3 31.4 92.9 31.7 C 92.5 31.9 91.9 32 91.3 32 C 90.6 32 90 31.9 89.5 31.5 C 89.1 31.2 88.8 30.7 88.8 30 Z M 89.7 26.3 C 89.7 27.1 89.9 27.7 90.2 28.1 C 90.5 28.4 90.9 28.6 91.4 28.6 C 91.9 28.6 92.3 28.4 92.6 28.1 C 93 27.7 93.1 27.1 93.1 26.3 C 93.1 25.6 93 25 92.6 24.6 C 92.3 24.2 91.9 24 91.4 24 C 90.9 24 90.5 24.2 90.2 24.6 C 89.9 25 89.7 25.5 89.7 26.3 Z M 95.7 29.5 L 95.7 23.3 L 96.7 23.3 C 96.7 23.3 96.66 24.16 96.7 24.2 C 97.1 23.5 97.8 23.1 98.6 23.1 C 99 23.1 99.4 23.2 99.7 23.3 C 100 23.5 100.2 23.7 100.4 23.9 C 100.5 24.1 100.6 24.3 100.7 24.6 C 100.7 24.8 100.8 25.2 100.8 25.7 C 100.77 25.67 100.8 29.5 100.8 29.5 L 99.7 29.5 C 99.7 29.5 99.71 25.71 99.7 25.7 C 99.7 25.3 99.7 25 99.6 24.8 C 99.5 24.5 99.4 24.4 99.2 24.2 C 98.9 24.1 98.7 24.1 98.4 24.1 C 98 24.1 97.6 24.2 97.3 24.5 C 96.9 24.8 96.8 25.3 96.8 26.1 C 96.77 26.1 96.8 29.5 96.8 29.5 L 95.7 29.5 Z M 110 29.5 C 109.9 29.3 109.8 29 109.8 28.7 C 109.4 29.1 109 29.3 108.7 29.4 C 108.3 29.6 107.9 29.6 107.5 29.6 C 106.8 29.6 106.3 29.5 105.9 29.1 C 105.5 28.8 105.4 28.4 105.4 27.9 C 105.4 27.6 105.4 27.3 105.6 27 C 105.7 26.8 105.9 26.6 106.1 26.4 C 106.3 26.3 106.6 26.2 106.9 26.1 C 107.1 26 107.4 26 107.8 25.9 C 108.7 25.8 109.3 25.7 109.7 25.6 C 109.7 25.4 109.7 25.3 109.7 25.3 C 109.7 24.8 109.6 24.5 109.4 24.4 C 109.1 24.1 108.7 24 108.2 24 C 107.7 24 107.3 24.1 107.1 24.3 C 106.9 24.4 106.7 24.8 106.6 25.2 C 106.6 25.2 105.5 25.1 105.5 25.1 C 105.6 24.6 105.8 24.3 106 24 C 106.2 23.7 106.5 23.5 106.9 23.4 C 107.3 23.2 107.8 23.1 108.4 23.1 C 108.9 23.1 109.3 23.2 109.6 23.3 C 110 23.4 110.2 23.6 110.4 23.8 C 110.5 24 110.6 24.2 110.7 24.5 C 110.7 24.7 110.8 25 110.8 25.5 C 110.8 25.5 110.8 26.9 110.8 26.9 C 110.8 27.9 110.8 28.5 110.8 28.8 C 110.9 29 111 29.3 111.1 29.5 C 111.09 29.5 110 29.5 110 29.5 C 110 29.5 109.99 29.5 110 29.5 Z M 109.7 26.4 C 109.3 26.5 108.7 26.7 108 26.8 C 107.5 26.8 107.2 26.9 107.1 27 C 106.9 27.1 106.7 27.2 106.6 27.3 C 106.5 27.5 106.5 27.6 106.5 27.8 C 106.5 28.1 106.6 28.3 106.8 28.5 C 107 28.7 107.3 28.8 107.7 28.8 C 108.1 28.8 108.5 28.7 108.8 28.5 C 109.1 28.4 109.4 28.1 109.5 27.8 C 109.6 27.6 109.7 27.2 109.7 26.8 C 109.7 26.8 109.7 26.4 109.7 26.4 Z M 112.4 29.5 L 112.4 23.3 L 113.3 23.3 C 113.3 23.3 113.34 24.16 113.3 24.2 C 113.8 23.5 114.5 23.1 115.3 23.1 C 115.7 23.1 116 23.2 116.4 23.3 C 116.7 23.5 116.9 23.7 117.1 23.9 C 117.2 24.1 117.3 24.3 117.4 24.6 C 117.4 24.8 117.5 25.2 117.5 25.7 C 117.45 25.67 117.5 29.5 117.5 29.5 L 116.4 29.5 C 116.4 29.5 116.4 25.71 116.4 25.7 C 116.4 25.3 116.4 25 116.3 24.8 C 116.2 24.5 116 24.4 115.8 24.2 C 115.6 24.1 115.4 24.1 115.1 24.1 C 114.7 24.1 114.3 24.2 113.9 24.5 C 113.6 24.8 113.4 25.3 113.4 26.1 C 113.45 26.1 113.4 29.5 113.4 29.5 L 112.4 29.5 Z M 123.1 29.5 C 123.1 29.5 123.11 28.71 123.1 28.7 C 122.7 29.3 122.1 29.6 121.4 29.6 C 120.9 29.6 120.4 29.5 120 29.2 C 119.6 29 119.3 28.6 119 28.1 C 118.8 27.6 118.7 27 118.7 26.4 C 118.7 25.8 118.8 25.2 119 24.7 C 119.2 24.2 119.5 23.8 119.9 23.5 C 120.3 23.3 120.8 23.1 121.3 23.1 C 121.7 23.1 122 23.2 122.3 23.4 C 122.6 23.5 122.9 23.7 123 24 C 123.04 23.99 123 20.9 123 20.9 L 124.1 20.9 L 124.1 29.5 L 123.1 29.5 Z M 119.8 26.4 C 119.8 27.2 119.9 27.8 120.3 28.2 C 120.6 28.6 121 28.8 121.5 28.8 C 121.9 28.8 122.3 28.6 122.6 28.2 C 123 27.8 123.1 27.3 123.1 26.5 C 123.1 25.6 123 25 122.6 24.6 C 122.3 24.2 121.9 24 121.4 24 C 120.9 24 120.6 24.2 120.2 24.6 C 119.9 25 119.8 25.6 119.8 26.4 Z M 129.2 29.5 L 129.2 20.9 C 129.2 20.9 132.17 20.91 132.2 20.9 C 132.8 20.9 133.3 21 133.7 21 C 134.2 21.1 134.6 21.4 135 21.6 C 135.4 22 135.8 22.5 136 23.1 C 136.2 23.7 136.3 24.4 136.3 25.2 C 136.3 25.8 136.2 26.4 136.1 26.9 C 135.9 27.4 135.7 27.8 135.5 28.1 C 135.3 28.5 135 28.7 134.7 28.9 C 134.4 29.1 134.1 29.3 133.7 29.4 C 133.3 29.5 132.8 29.5 132.3 29.5 C 132.31 29.5 129.2 29.5 129.2 29.5 Z M 130.3 28.5 C 130.3 28.5 132.18 28.49 132.2 28.5 C 132.7 28.5 133.2 28.4 133.5 28.3 C 133.8 28.2 134.1 28.1 134.3 27.9 C 134.6 27.6 134.8 27.3 134.9 26.8 C 135.1 26.3 135.1 25.8 135.1 25.1 C 135.1 24.2 135 23.6 134.7 23.1 C 134.4 22.6 134 22.3 133.6 22.1 C 133.3 22 132.8 21.9 132.2 21.9 C 132.15 21.92 130.3 21.9 130.3 21.9 L 130.3 28.5 Z M 142 27.5 C 142 27.5 143.1 27.6 143.1 27.6 C 142.9 28.3 142.6 28.8 142.1 29.1 C 141.7 29.5 141.1 29.6 140.4 29.6 C 139.4 29.6 138.7 29.4 138.2 28.8 C 137.7 28.2 137.4 27.5 137.4 26.4 C 137.4 25.4 137.7 24.6 138.2 24 C 138.7 23.4 139.4 23.1 140.3 23.1 C 141.1 23.1 141.8 23.4 142.3 24 C 142.9 24.6 143.1 25.3 143.1 26.4 C 143.1 26.4 143.1 26.5 143.1 26.7 C 143.1 26.7 138.5 26.7 138.5 26.7 C 138.5 27.3 138.7 27.9 139.1 28.2 C 139.4 28.6 139.8 28.8 140.4 28.8 C 140.7 28.8 141.1 28.7 141.4 28.5 C 141.6 28.3 141.8 27.9 142 27.5 Z M 138.5 25.8 C 138.5 25.8 142 25.8 142 25.8 C 142 25.3 141.8 24.9 141.6 24.6 C 141.3 24.2 140.8 24 140.3 24 C 139.8 24 139.4 24.2 139.1 24.5 C 138.8 24.8 138.6 25.2 138.5 25.8 Z M 144.4 29.5 L 144.4 20.9 L 145.4 20.9 L 145.4 29.5 L 144.4 29.5 Z M 147.1 22.1 L 147.1 20.9 L 148.1 20.9 L 148.1 22.1 L 147.1 22.1 Z M 147.1 29.5 L 147.1 23.3 L 148.1 23.3 L 148.1 29.5 L 147.1 29.5 Z M 151.5 29.5 L 149.1 23.3 L 150.2 23.3 C 150.2 23.3 151.56 27 151.6 27 C 151.7 27.4 151.8 27.8 152 28.3 C 152.1 27.9 152.2 27.5 152.3 27.1 C 152.35 27.07 153.7 23.3 153.7 23.3 L 154.8 23.3 L 152.5 29.5 L 151.5 29.5 Z M 160 27.5 C 160 27.5 161.1 27.6 161.1 27.6 C 160.9 28.3 160.6 28.8 160.1 29.1 C 159.7 29.5 159.1 29.6 158.4 29.6 C 157.5 29.6 156.7 29.4 156.2 28.8 C 155.7 28.2 155.4 27.5 155.4 26.4 C 155.4 25.4 155.7 24.6 156.2 24 C 156.7 23.4 157.4 23.1 158.3 23.1 C 159.1 23.1 159.8 23.4 160.3 24 C 160.9 24.6 161.1 25.3 161.1 26.4 C 161.1 26.4 161.1 26.5 161.1 26.7 C 161.1 26.7 156.5 26.7 156.5 26.7 C 156.5 27.3 156.7 27.9 157.1 28.2 C 157.4 28.6 157.8 28.8 158.4 28.8 C 158.8 28.8 159.1 28.7 159.4 28.5 C 159.6 28.3 159.8 27.9 160 27.5 Z M 156.5 25.8 C 156.5 25.8 160 25.8 160 25.8 C 160 25.3 159.8 24.9 159.6 24.6 C 159.3 24.2 158.8 24 158.3 24 C 157.8 24 157.4 24.2 157.1 24.5 C 156.8 24.8 156.6 25.2 156.5 25.8 Z M 162.4 29.5 L 162.4 23.3 L 163.4 23.3 C 163.4 23.3 163.36 24.22 163.4 24.2 C 163.6 23.8 163.8 23.5 164 23.3 C 164.2 23.2 164.5 23.1 164.7 23.1 C 165.1 23.1 165.4 23.3 165.8 23.5 C 165.8 23.5 165.4 24.5 165.4 24.5 C 165.2 24.3 164.9 24.2 164.7 24.2 C 164.4 24.2 164.2 24.3 164 24.4 C 163.8 24.6 163.7 24.8 163.6 25 C 163.5 25.4 163.5 25.8 163.5 26.2 C 163.46 26.24 163.5 29.5 163.5 29.5 L 162.4 29.5 Z M 167.1 32 C 166.8 32 166.6 32 166.4 31.9 C 166.4 31.9 166.3 30.9 166.3 30.9 C 166.5 31 166.7 31 166.9 31 C 167.1 31 167.3 31 167.4 30.9 C 167.6 30.8 167.7 30.7 167.8 30.6 C 167.8 30.4 167.9 30.2 168.1 29.8 C 168.1 29.7 168.1 29.6 168.2 29.5 C 168.18 29.51 165.8 23.3 165.8 23.3 L 167 23.3 C 167 23.3 168.25 26.88 168.3 26.9 C 168.4 27.3 168.6 27.8 168.7 28.3 C 168.8 27.8 169 27.4 169.1 26.9 C 169.14 26.9 170.5 23.3 170.5 23.3 L 171.5 23.3 C 171.5 23.3 169.15 29.61 169.2 29.6 C 168.9 30.3 168.7 30.8 168.6 31 C 168.4 31.4 168.2 31.6 167.9 31.8 C 167.7 31.9 167.4 32 167.1 32 C 167.1 32 167.1 32 167.1 32 Z " stroke="none" fill="#000"/>  </g>  <g id="Polygon45173">    <path d="M 0.9 25.3 C 0.9 25 0.9 24.7 1 24.4 C 1.2 24.2 1.3 23.9 1.5 23.8 C 1.7 23.6 1.9 23.4 2.2 23.3 C 2.4 23.2 2.7 23.1 3 23.1 C 3.3 23.1 3.6 23.2 3.8 23.3 C 4.1 23.4 4.3 23.6 4.5 23.8 C 4.7 23.9 4.8 24.2 5 24.4 C 5.1 24.7 5.1 25 5.1 25.3 C 5.1 25.5 5.1 25.8 5 26.1 C 4.8 26.3 4.7 26.6 4.5 26.8 C 4.3 26.9 4.1 27.1 3.8 27.2 C 3.6 27.3 3.3 27.4 3 27.4 C 2.7 27.4 2.4 27.3 2.2 27.2 C 1.9 27.1 1.7 26.9 1.5 26.8 C 1.3 26.6 1.2 26.3 1 26.1 C 0.9 25.8 0.9 25.5 0.9 25.3 Z " stroke="none" fill="#f28620"/>  </g>  <g id="Polygon45172">    <path d="M 18.9 12 L 18.9 3.4 L 20.6 3.4 C 20.6 3.4 22.63 9.49 22.6 9.5 C 22.8 10.1 23 10.5 23 10.8 C 23.1 10.5 23.3 10 23.5 9.4 C 23.5 9.39 25.6 3.4 25.6 3.4 L 27.1 3.4 L 27.1 12 L 26 12 L 26 4.8 L 23.5 12 L 22.5 12 L 20 4.7 L 20 12 L 18.9 12 Z M 33.1 12 C 32.9 11.8 32.9 11.5 32.8 11.2 C 32.5 11.6 32.1 11.8 31.7 11.9 C 31.4 12.1 31 12.1 30.6 12.1 C 29.9 12.1 29.3 12 29 11.6 C 28.6 11.3 28.4 10.9 28.4 10.4 C 28.4 10.1 28.5 9.8 28.6 9.5 C 28.8 9.3 29 9.1 29.2 8.9 C 29.4 8.8 29.7 8.7 29.9 8.6 C 30.1 8.5 30.5 8.5 30.9 8.4 C 31.7 8.3 32.4 8.2 32.8 8.1 C 32.8 7.9 32.8 7.8 32.8 7.8 C 32.8 7.3 32.7 7 32.5 6.9 C 32.2 6.6 31.8 6.5 31.3 6.5 C 30.8 6.5 30.4 6.6 30.2 6.8 C 29.9 6.9 29.8 7.3 29.6 7.7 C 29.6 7.7 28.6 7.6 28.6 7.6 C 28.7 7.1 28.9 6.8 29.1 6.5 C 29.3 6.2 29.6 6 30 5.9 C 30.4 5.7 30.9 5.6 31.4 5.6 C 31.9 5.6 32.4 5.7 32.7 5.8 C 33 5.9 33.3 6.1 33.4 6.3 C 33.6 6.5 33.7 6.7 33.8 7 C 33.8 7.2 33.8 7.5 33.8 8 C 33.8 8 33.8 9.4 33.8 9.4 C 33.8 10.4 33.8 11 33.9 11.3 C 33.9 11.5 34 11.8 34.2 12 C 34.16 12 33.1 12 33.1 12 C 33.1 12 33.06 12 33.1 12 Z M 32.8 8.9 C 32.4 9 31.8 9.2 31 9.3 C 30.6 9.3 30.3 9.4 30.1 9.5 C 29.9 9.6 29.8 9.7 29.7 9.8 C 29.6 10 29.6 10.1 29.6 10.3 C 29.6 10.6 29.7 10.8 29.9 11 C 30.1 11.2 30.4 11.3 30.8 11.3 C 31.2 11.3 31.6 11.2 31.9 11 C 32.2 10.9 32.4 10.6 32.6 10.3 C 32.7 10.1 32.8 9.7 32.8 9.3 C 32.8 9.3 32.8 8.9 32.8 8.9 Z M 35.5 12 L 35.5 5.8 L 36.4 5.8 C 36.4 5.8 36.41 6.66 36.4 6.7 C 36.9 6 37.5 5.6 38.4 5.6 C 38.8 5.6 39.1 5.7 39.4 5.8 C 39.7 6 40 6.2 40.1 6.4 C 40.3 6.6 40.4 6.8 40.5 7.1 C 40.5 7.3 40.5 7.7 40.5 8.2 C 40.52 8.17 40.5 12 40.5 12 L 39.5 12 C 39.5 12 39.46 8.21 39.5 8.2 C 39.5 7.8 39.4 7.5 39.3 7.3 C 39.3 7 39.1 6.9 38.9 6.7 C 38.7 6.6 38.4 6.6 38.2 6.6 C 37.7 6.6 37.3 6.7 37 7 C 36.7 7.3 36.5 7.8 36.5 8.6 C 36.52 8.6 36.5 12 36.5 12 L 35.5 12 Z M 46.4 12 C 46.3 11.8 46.2 11.5 46.2 11.2 C 45.8 11.6 45.4 11.8 45.1 11.9 C 44.7 12.1 44.3 12.1 43.9 12.1 C 43.2 12.1 42.7 12 42.3 11.6 C 42 11.3 41.8 10.9 41.8 10.4 C 41.8 10.1 41.8 9.8 42 9.5 C 42.1 9.3 42.3 9.1 42.5 8.9 C 42.8 8.8 43 8.7 43.3 8.6 C 43.5 8.5 43.8 8.5 44.2 8.4 C 45.1 8.3 45.7 8.2 46.1 8.1 C 46.1 7.9 46.1 7.8 46.1 7.8 C 46.1 7.3 46 7 45.8 6.9 C 45.5 6.6 45.1 6.5 44.6 6.5 C 44.1 6.5 43.8 6.6 43.5 6.8 C 43.3 6.9 43.1 7.3 43 7.7 C 43 7.7 42 7.6 42 7.6 C 42.1 7.1 42.2 6.8 42.4 6.5 C 42.6 6.2 42.9 6 43.4 5.9 C 43.8 5.7 44.2 5.6 44.8 5.6 C 45.3 5.6 45.7 5.7 46.1 5.8 C 46.4 5.9 46.6 6.1 46.8 6.3 C 46.9 6.5 47.1 6.7 47.1 7 C 47.2 7.2 47.2 7.5 47.2 8 C 47.2 8 47.2 9.4 47.2 9.4 C 47.2 10.4 47.2 11 47.2 11.3 C 47.3 11.5 47.4 11.8 47.5 12 C 47.51 12 46.4 12 46.4 12 C 46.4 12 46.41 12 46.4 12 Z M 46.1 8.9 C 45.7 9 45.2 9.2 44.4 9.3 C 44 9.3 43.6 9.4 43.5 9.5 C 43.3 9.6 43.1 9.7 43 9.8 C 43 10 42.9 10.1 42.9 10.3 C 42.9 10.6 43 10.8 43.2 11 C 43.4 11.2 43.7 11.3 44.2 11.3 C 44.6 11.3 44.9 11.2 45.2 11 C 45.6 10.9 45.8 10.6 45.9 10.3 C 46.1 10.1 46.1 9.7 46.1 9.3 C 46.1 9.3 46.1 8.9 46.1 8.9 Z M 48.6 12.5 C 48.6 12.5 49.6 12.7 49.6 12.7 C 49.7 13 49.8 13.2 50 13.4 C 50.3 13.6 50.6 13.7 51.1 13.7 C 51.6 13.7 51.9 13.6 52.2 13.4 C 52.5 13.2 52.6 12.9 52.7 12.5 C 52.8 12.3 52.8 11.9 52.8 11.2 C 52.4 11.7 51.8 12 51.1 12 C 50.2 12 49.6 11.7 49.1 11.1 C 48.6 10.5 48.4 9.7 48.4 8.9 C 48.4 8.3 48.5 7.7 48.7 7.2 C 48.9 6.7 49.3 6.3 49.7 6 C 50.1 5.8 50.5 5.6 51.1 5.6 C 51.8 5.6 52.4 5.9 52.9 6.5 C 52.92 6.53 52.9 5.8 52.9 5.8 L 53.9 5.8 C 53.9 5.8 53.89 11.16 53.9 11.2 C 53.9 12.1 53.8 12.8 53.6 13.2 C 53.4 13.6 53.1 13.9 52.7 14.2 C 52.2 14.4 51.7 14.5 51.1 14.5 C 50.3 14.5 49.7 14.4 49.3 14 C 48.8 13.7 48.6 13.2 48.6 12.5 Z M 49.5 8.8 C 49.5 9.6 49.7 10.2 50 10.6 C 50.3 10.9 50.7 11.1 51.2 11.1 C 51.7 11.1 52.1 10.9 52.4 10.6 C 52.7 10.2 52.9 9.6 52.9 8.8 C 52.9 8.1 52.7 7.5 52.4 7.1 C 52.1 6.7 51.7 6.5 51.2 6.5 C 50.7 6.5 50.3 6.7 50 7.1 C 49.7 7.5 49.5 8 49.5 8.8 Z M 59.7 10 C 59.7 10 60.8 10.1 60.8 10.1 C 60.7 10.8 60.3 11.3 59.9 11.6 C 59.4 12 58.8 12.1 58.1 12.1 C 57.2 12.1 56.5 11.9 55.9 11.3 C 55.4 10.7 55.1 10 55.1 8.9 C 55.1 7.9 55.4 7.1 55.9 6.5 C 56.5 5.9 57.2 5.6 58 5.6 C 58.9 5.6 59.5 5.9 60.1 6.5 C 60.6 7.1 60.9 7.8 60.9 8.9 C 60.9 8.9 60.9 9 60.9 9.2 C 60.9 9.2 56.2 9.2 56.2 9.2 C 56.3 9.8 56.5 10.4 56.8 10.7 C 57.1 11.1 57.6 11.3 58.1 11.3 C 58.5 11.3 58.8 11.2 59.1 11 C 59.4 10.8 59.6 10.4 59.7 10 Z M 56.3 8.3 C 56.3 8.3 59.8 8.3 59.8 8.3 C 59.7 7.8 59.6 7.4 59.4 7.1 C 59 6.7 58.6 6.5 58 6.5 C 57.6 6.5 57.2 6.7 56.8 7 C 56.5 7.3 56.3 7.7 56.3 8.3 Z M 66.2 12 C 66.2 12 66.19 11.21 66.2 11.2 C 65.8 11.8 65.2 12.1 64.5 12.1 C 64 12.1 63.5 12 63.1 11.7 C 62.7 11.5 62.3 11.1 62.1 10.6 C 61.9 10.1 61.8 9.5 61.8 8.9 C 61.8 8.3 61.9 7.7 62.1 7.2 C 62.3 6.7 62.6 6.3 63 6 C 63.4 5.8 63.9 5.6 64.4 5.6 C 64.8 5.6 65.1 5.7 65.4 5.9 C 65.7 6 65.9 6.2 66.1 6.5 C 66.12 6.49 66.1 3.4 66.1 3.4 L 67.2 3.4 L 67.2 12 L 66.2 12 Z M 62.9 8.9 C 62.9 9.7 63 10.3 63.4 10.7 C 63.7 11.1 64.1 11.3 64.6 11.3 C 65 11.3 65.4 11.1 65.7 10.7 C 66 10.3 66.2 9.8 66.2 9 C 66.2 8.1 66 7.5 65.7 7.1 C 65.4 6.7 65 6.5 64.5 6.5 C 64 6.5 63.6 6.7 63.3 7.1 C 63 7.5 62.9 8.1 62.9 8.9 Z M 71.9 9.2 C 71.9 9.2 73 9.1 73 9.1 C 73 9.6 73.2 9.9 73.3 10.2 C 73.5 10.5 73.8 10.7 74.2 10.9 C 74.6 11 75 11.1 75.5 11.1 C 76 11.1 76.3 11.1 76.7 10.9 C 77 10.8 77.2 10.6 77.4 10.4 C 77.6 10.2 77.7 9.9 77.7 9.7 C 77.7 9.4 77.6 9.2 77.4 9 C 77.3 8.8 77 8.6 76.6 8.5 C 76.4 8.4 75.9 8.2 75.1 8 C 74.3 7.8 73.8 7.7 73.5 7.5 C 73 7.3 72.7 7 72.5 6.7 C 72.3 6.4 72.2 6 72.2 5.6 C 72.2 5.2 72.4 4.8 72.6 4.4 C 72.9 4 73.2 3.8 73.7 3.6 C 74.2 3.4 74.7 3.3 75.3 3.3 C 75.9 3.3 76.5 3.4 76.9 3.6 C 77.4 3.8 77.8 4.1 78.1 4.5 C 78.3 4.9 78.5 5.3 78.5 5.8 C 78.5 5.8 77.4 5.9 77.4 5.9 C 77.3 5.4 77.1 5 76.8 4.7 C 76.5 4.4 76 4.3 75.3 4.3 C 74.6 4.3 74.1 4.4 73.8 4.6 C 73.5 4.9 73.3 5.2 73.3 5.6 C 73.3 5.9 73.4 6.1 73.7 6.3 C 73.9 6.5 74.5 6.7 75.4 6.9 C 76.3 7.1 76.9 7.3 77.3 7.5 C 77.8 7.7 78.2 8 78.4 8.4 C 78.6 8.7 78.8 9.1 78.8 9.6 C 78.8 10 78.6 10.5 78.4 10.9 C 78.1 11.3 77.7 11.6 77.2 11.8 C 76.7 12 76.2 12.1 75.6 12.1 C 74.8 12.1 74.1 12 73.6 11.8 C 73.1 11.6 72.7 11.2 72.4 10.8 C 72.1 10.3 71.9 9.8 71.9 9.2 Z M 84.4 10 C 84.4 10 85.5 10.1 85.5 10.1 C 85.3 10.8 85 11.3 84.6 11.6 C 84.1 12 83.5 12.1 82.8 12.1 C 81.9 12.1 81.1 11.9 80.6 11.3 C 80.1 10.7 79.8 10 79.8 8.9 C 79.8 7.9 80.1 7.1 80.6 6.5 C 81.2 5.9 81.9 5.6 82.7 5.6 C 83.6 5.6 84.2 5.9 84.8 6.5 C 85.3 7.1 85.6 7.8 85.6 8.9 C 85.6 8.9 85.6 9 85.5 9.2 C 85.5 9.2 80.9 9.2 80.9 9.2 C 80.9 9.8 81.1 10.4 81.5 10.7 C 81.8 11.1 82.3 11.3 82.8 11.3 C 83.2 11.3 83.5 11.2 83.8 11 C 84.1 10.8 84.3 10.4 84.4 10 Z M 81 8.3 C 81 8.3 84.4 8.3 84.4 8.3 C 84.4 7.8 84.3 7.4 84 7.1 C 83.7 6.7 83.3 6.5 82.7 6.5 C 82.2 6.5 81.8 6.7 81.5 7 C 81.2 7.3 81 7.7 81 8.3 Z M 86.8 12 L 86.8 5.8 L 87.8 5.8 C 87.8 5.8 87.78 6.72 87.8 6.7 C 88 6.3 88.2 6 88.5 5.8 C 88.7 5.7 88.9 5.6 89.1 5.6 C 89.5 5.6 89.8 5.8 90.2 6 C 90.2 6 89.8 7 89.8 7 C 89.6 6.8 89.3 6.7 89.1 6.7 C 88.8 6.7 88.6 6.8 88.5 6.9 C 88.3 7.1 88.1 7.3 88.1 7.5 C 87.9 7.9 87.9 8.3 87.9 8.7 C 87.88 8.74 87.9 12 87.9 12 L 86.8 12 Z M 92.6 12 L 90.2 5.8 L 91.3 5.8 C 91.3 5.8 92.65 9.5 92.6 9.5 C 92.8 9.9 92.9 10.3 93 10.8 C 93.1 10.4 93.3 10 93.4 9.6 C 93.44 9.57 94.8 5.8 94.8 5.8 L 95.9 5.8 L 93.6 12 L 92.6 12 Z M 96.8 4.6 L 96.8 3.4 L 97.9 3.4 L 97.9 4.6 L 96.8 4.6 Z M 96.8 12 L 96.8 5.8 L 97.9 5.8 L 97.9 12 L 96.8 12 Z M 103.6 9.7 C 103.6 9.7 104.6 9.9 104.6 9.9 C 104.5 10.6 104.2 11.1 103.7 11.5 C 103.3 11.9 102.7 12.1 102 12.1 C 101.2 12.1 100.5 11.9 100 11.3 C 99.4 10.7 99.2 10 99.2 8.9 C 99.2 8.2 99.3 7.7 99.5 7.1 C 99.7 6.6 100.1 6.3 100.5 6 C 101 5.8 101.5 5.6 102 5.6 C 102.7 5.6 103.2 5.8 103.7 6.1 C 104.1 6.5 104.4 7 104.5 7.6 C 104.5 7.6 103.5 7.8 103.5 7.8 C 103.4 7.3 103.2 7 103 6.8 C 102.7 6.6 102.4 6.5 102.1 6.5 C 101.5 6.5 101.1 6.7 100.8 7.1 C 100.4 7.5 100.3 8.1 100.3 8.9 C 100.3 9.7 100.4 10.3 100.7 10.7 C 101.1 11.1 101.5 11.3 102 11.3 C 102.4 11.3 102.8 11.1 103 10.9 C 103.3 10.6 103.5 10.2 103.6 9.7 Z M 109.8 10 C 109.8 10 110.9 10.1 110.9 10.1 C 110.7 10.8 110.4 11.3 109.9 11.6 C 109.4 12 108.8 12.1 108.1 12.1 C 107.2 12.1 106.5 11.9 106 11.3 C 105.4 10.7 105.2 10 105.2 8.9 C 105.2 7.9 105.4 7.1 106 6.5 C 106.5 5.9 107.2 5.6 108.1 5.6 C 108.9 5.6 109.6 5.9 110.1 6.5 C 110.6 7.1 110.9 7.8 110.9 8.9 C 110.9 8.9 110.9 9 110.9 9.2 C 110.9 9.2 106.2 9.2 106.2 9.2 C 106.3 9.8 106.5 10.4 106.8 10.7 C 107.2 11.1 107.6 11.3 108.1 11.3 C 108.5 11.3 108.8 11.2 109.1 11 C 109.4 10.8 109.6 10.4 109.8 10 Z M 106.3 8.3 C 106.3 8.3 109.8 8.3 109.8 8.3 C 109.7 7.8 109.6 7.4 109.4 7.1 C 109 6.7 108.6 6.5 108.1 6.5 C 107.6 6.5 107.2 6.7 106.8 7 C 106.5 7.3 106.3 7.7 106.3 8.3 Z M 111.8 10.1 C 111.8 10.1 112.8 10 112.8 10 C 112.9 10.4 113 10.7 113.3 10.9 C 113.6 11.2 113.9 11.3 114.4 11.3 C 114.9 11.3 115.3 11.2 115.5 11 C 115.7 10.8 115.8 10.5 115.8 10.3 C 115.8 10 115.7 9.9 115.5 9.7 C 115.4 9.6 115 9.5 114.5 9.4 C 113.7 9.2 113.1 9 112.8 8.9 C 112.5 8.7 112.3 8.5 112.2 8.3 C 112 8 111.9 7.7 111.9 7.4 C 111.9 7.2 112 6.9 112.1 6.7 C 112.2 6.4 112.4 6.2 112.6 6.1 C 112.8 5.9 113 5.8 113.3 5.8 C 113.6 5.7 113.9 5.6 114.2 5.6 C 114.7 5.6 115.1 5.7 115.5 5.8 C 115.9 6 116.2 6.2 116.3 6.4 C 116.5 6.7 116.6 7 116.7 7.4 C 116.7 7.4 115.7 7.5 115.7 7.5 C 115.6 7.2 115.5 7 115.3 6.8 C 115 6.6 114.7 6.5 114.3 6.5 C 113.8 6.5 113.5 6.6 113.3 6.7 C 113.1 6.9 113 7.1 113 7.3 C 113 7.4 113 7.6 113.1 7.7 C 113.2 7.8 113.3 7.9 113.5 8 C 113.6 8 113.9 8.1 114.4 8.2 C 115.2 8.4 115.7 8.6 116 8.7 C 116.3 8.8 116.5 9 116.7 9.3 C 116.8 9.5 116.9 9.8 116.9 10.2 C 116.9 10.5 116.8 10.9 116.6 11.2 C 116.4 11.5 116.1 11.7 115.7 11.9 C 115.3 12.1 114.9 12.1 114.4 12.1 C 113.6 12.1 113 12 112.6 11.6 C 112.1 11.3 111.9 10.8 111.8 10.1 Z " stroke="none" fill="#000"/>  </g>  <g id="Polygon45171">    <path d="M 0.9 7.8 C 0.9 7.5 0.9 7.2 1 6.9 C 1.2 6.7 1.3 6.4 1.5 6.3 C 1.7 6.1 1.9 5.9 2.2 5.8 C 2.4 5.7 2.7 5.6 3 5.6 C 3.3 5.6 3.6 5.7 3.8 5.8 C 4.1 5.9 4.3 6.1 4.5 6.3 C 4.7 6.4 4.8 6.7 5 6.9 C 5.1 7.2 5.1 7.5 5.1 7.8 C 5.1 8 5.1 8.3 5 8.6 C 4.8 8.8 4.7 9.1 4.5 9.3 C 4.3 9.4 4.1 9.6 3.8 9.7 C 3.6 9.8 3.3 9.9 3 9.9 C 2.7 9.9 2.4 9.8 2.2 9.7 C 1.9 9.6 1.7 9.4 1.5 9.3 C 1.3 9.1 1.2 8.8 1 8.6 C 0.9 8.3 0.9 8 0.9 7.8 Z " stroke="none" fill="#f28620"/>  </g></svg>