<?xml version="1.0" standalone="no"?><!DOCTYPE svg PUBLIC "-//W3C//DTD SVG 1.1//EN" "http://www.w3.org/Graphics/SVG/1.1/DTD/svg11.dtd"><svg xmlns="http://www.w3.org/2000/svg" version="1.1" width="84px" height="27.5px" viewBox="0 -1 84 27.5" style="top:-1px">  <desc>Helpfulness</desc>  <defs/>  <g id="Polygon7063">    <path d="M 11.4 16.1 L 11.4 7.5 L 12.5 7.5 L 12.5 11 L 17 11 L 17 7.5 L 18.1 7.5 L 18.1 16.1 L 17 16.1 L 17 12 L 12.5 12 L 12.5 16.1 L 11.4 16.1 Z M 24.2 14.1 C 24.2 14.1 25.3 14.2 25.3 14.2 C 25.1 14.9 24.8 15.3 24.3 15.7 C 23.8 16.1 23.2 16.2 22.5 16.2 C 21.6 16.2 20.9 15.9 20.4 15.4 C 19.8 14.8 19.6 14 19.6 13 C 19.6 12 19.8 11.2 20.4 10.6 C 20.9 10 21.6 9.7 22.5 9.7 C 23.3 9.7 24 10 24.5 10.6 C 25 11.1 25.3 11.9 25.3 13 C 25.3 13 25.3 13.1 25.3 13.2 C 25.3 13.2 20.6 13.2 20.6 13.2 C 20.7 13.9 20.9 14.5 21.2 14.8 C 21.6 15.2 22 15.4 22.5 15.4 C 22.9 15.4 23.2 15.3 23.5 15.1 C 23.8 14.9 24 14.5 24.2 14.1 Z M 20.7 12.4 C 20.7 12.4 24.2 12.4 24.2 12.4 C 24.1 11.9 24 11.5 23.8 11.2 C 23.4 10.8 23 10.6 22.5 10.6 C 22 10.6 21.6 10.8 21.3 11.1 C 20.9 11.4 20.7 11.8 20.7 12.4 Z M 26.6 16.1 L 26.6 7.5 L 27.6 7.5 L 27.6 16.1 L 26.6 16.1 Z M 29.2 18.5 L 29.2 9.9 L 30.2 9.9 C 30.2 9.9 30.21 10.67 30.2 10.7 C 30.4 10.4 30.7 10.1 31 10 C 31.3 9.8 31.6 9.7 32 9.7 C 32.5 9.7 33 9.9 33.4 10.1 C 33.8 10.4 34.1 10.8 34.3 11.3 C 34.5 11.8 34.6 12.3 34.6 12.9 C 34.6 13.6 34.5 14.1 34.3 14.6 C 34.1 15.2 33.7 15.5 33.3 15.8 C 32.9 16.1 32.4 16.2 31.9 16.2 C 31.6 16.2 31.3 16.2 31 16 C 30.7 15.9 30.5 15.7 30.3 15.4 C 30.3 15.44 30.3 18.5 30.3 18.5 L 29.2 18.5 Z M 30.2 13 C 30.2 13.8 30.4 14.4 30.7 14.8 C 31 15.2 31.4 15.4 31.9 15.4 C 32.3 15.4 32.7 15.2 33.1 14.8 C 33.4 14.4 33.6 13.8 33.6 12.9 C 33.6 12.1 33.4 11.5 33.1 11.1 C 32.8 10.7 32.4 10.6 31.9 10.6 C 31.5 10.6 31.1 10.8 30.7 11.2 C 30.4 11.6 30.2 12.2 30.2 13 Z M 36.2 16.1 L 36.2 10.7 L 35.2 10.7 L 35.2 9.9 L 36.2 9.9 C 36.2 9.9 36.17 9.2 36.2 9.2 C 36.2 8.8 36.2 8.5 36.3 8.3 C 36.4 8 36.6 7.8 36.8 7.6 C 37.1 7.4 37.4 7.4 37.9 7.4 C 38.2 7.4 38.5 7.4 38.9 7.5 C 38.9 7.5 38.7 8.4 38.7 8.4 C 38.5 8.3 38.3 8.3 38.1 8.3 C 37.8 8.3 37.6 8.4 37.4 8.5 C 37.3 8.7 37.2 8.9 37.2 9.3 C 37.22 9.29 37.2 9.9 37.2 9.9 L 38.4 9.9 L 38.4 10.7 L 37.2 10.7 L 37.2 16.1 L 36.2 16.1 Z M 43.3 16.1 C 43.3 16.1 43.33 15.17 43.3 15.2 C 42.8 15.9 42.2 16.2 41.4 16.2 C 41 16.2 40.6 16.2 40.3 16 C 40 15.9 39.8 15.7 39.6 15.5 C 39.5 15.3 39.4 15 39.3 14.7 C 39.3 14.5 39.2 14.2 39.2 13.7 C 39.23 13.72 39.2 9.9 39.2 9.9 L 40.3 9.9 C 40.3 9.9 40.28 13.32 40.3 13.3 C 40.3 13.9 40.3 14.2 40.3 14.4 C 40.4 14.7 40.6 14.9 40.8 15.1 C 41 15.2 41.3 15.3 41.6 15.3 C 41.9 15.3 42.2 15.2 42.5 15.1 C 42.7 14.9 42.9 14.7 43 14.4 C 43.2 14.1 43.2 13.7 43.2 13.2 C 43.22 13.2 43.2 9.9 43.2 9.9 L 44.3 9.9 L 44.3 16.1 L 43.3 16.1 Z M 45.9 16.1 L 45.9 7.5 L 47 7.5 L 47 16.1 L 45.9 16.1 Z M 48.6 16.1 L 48.6 9.9 L 49.5 9.9 C 49.5 9.9 49.54 10.75 49.5 10.7 C 50 10.1 50.7 9.7 51.5 9.7 C 51.9 9.7 52.2 9.8 52.6 9.9 C 52.9 10.1 53.1 10.2 53.3 10.5 C 53.4 10.7 53.5 10.9 53.6 11.2 C 53.6 11.4 53.6 11.8 53.6 12.3 C 53.65 12.26 53.6 16.1 53.6 16.1 L 52.6 16.1 C 52.6 16.1 52.6 12.3 52.6 12.3 C 52.6 11.9 52.6 11.6 52.5 11.3 C 52.4 11.1 52.2 11 52 10.8 C 51.8 10.7 51.6 10.6 51.3 10.6 C 50.9 10.6 50.5 10.8 50.1 11.1 C 49.8 11.4 49.6 11.9 49.6 12.7 C 49.65 12.69 49.6 16.1 49.6 16.1 L 48.6 16.1 Z M 59.5 14.1 C 59.5 14.1 60.6 14.2 60.6 14.2 C 60.4 14.9 60.1 15.3 59.7 15.7 C 59.2 16.1 58.6 16.2 57.9 16.2 C 57 16.2 56.2 15.9 55.7 15.4 C 55.2 14.8 54.9 14 54.9 13 C 54.9 12 55.2 11.2 55.7 10.6 C 56.3 10 57 9.7 57.8 9.7 C 58.7 9.7 59.3 10 59.9 10.6 C 60.4 11.1 60.7 11.9 60.7 13 C 60.7 13 60.6 13.1 60.6 13.2 C 60.6 13.2 56 13.2 56 13.2 C 56 13.9 56.2 14.5 56.6 14.8 C 56.9 15.2 57.4 15.4 57.9 15.4 C 58.3 15.4 58.6 15.3 58.9 15.1 C 59.1 14.9 59.4 14.5 59.5 14.1 Z M 56.1 12.4 C 56.1 12.4 59.5 12.4 59.5 12.4 C 59.5 11.9 59.4 11.5 59.1 11.2 C 58.8 10.8 58.4 10.6 57.8 10.6 C 57.3 10.6 56.9 10.8 56.6 11.1 C 56.3 11.4 56.1 11.8 56.1 12.4 Z M 61.5 14.2 C 61.5 14.2 62.6 14.1 62.6 14.1 C 62.6 14.5 62.8 14.8 63.1 15 C 63.3 15.2 63.7 15.4 64.2 15.4 C 64.7 15.4 65 15.3 65.3 15.1 C 65.5 14.9 65.6 14.6 65.6 14.4 C 65.6 14.1 65.5 13.9 65.3 13.8 C 65.1 13.7 64.8 13.6 64.2 13.5 C 63.4 13.3 62.9 13.1 62.6 12.9 C 62.3 12.8 62.1 12.6 61.9 12.4 C 61.8 12.1 61.7 11.8 61.7 11.5 C 61.7 11.2 61.8 11 61.9 10.7 C 62 10.5 62.2 10.3 62.4 10.2 C 62.6 10 62.8 9.9 63.1 9.9 C 63.4 9.8 63.7 9.7 64 9.7 C 64.5 9.7 64.9 9.8 65.3 9.9 C 65.6 10.1 65.9 10.3 66.1 10.5 C 66.3 10.7 66.4 11.1 66.5 11.5 C 66.5 11.5 65.4 11.6 65.4 11.6 C 65.4 11.3 65.2 11 65 10.9 C 64.8 10.7 64.5 10.6 64.1 10.6 C 63.6 10.6 63.2 10.7 63 10.8 C 62.8 11 62.7 11.2 62.7 11.4 C 62.7 11.5 62.8 11.7 62.8 11.8 C 62.9 11.9 63.1 12 63.2 12 C 63.4 12.1 63.7 12.2 64.2 12.3 C 64.9 12.5 65.4 12.7 65.7 12.8 C 66 12.9 66.3 13.1 66.4 13.4 C 66.6 13.6 66.7 13.9 66.7 14.3 C 66.7 14.6 66.6 14.9 66.4 15.3 C 66.2 15.6 65.9 15.8 65.5 16 C 65.1 16.1 64.7 16.2 64.2 16.2 C 63.4 16.2 62.8 16.1 62.3 15.7 C 61.9 15.4 61.6 14.9 61.5 14.2 Z M 67.5 14.2 C 67.5 14.2 68.6 14.1 68.6 14.1 C 68.6 14.5 68.8 14.8 69.1 15 C 69.3 15.2 69.7 15.4 70.2 15.4 C 70.7 15.4 71 15.3 71.3 15.1 C 71.5 14.9 71.6 14.6 71.6 14.4 C 71.6 14.1 71.5 13.9 71.3 13.8 C 71.1 13.7 70.8 13.6 70.2 13.5 C 69.4 13.3 68.9 13.1 68.6 12.9 C 68.3 12.8 68.1 12.6 67.9 12.4 C 67.8 12.1 67.7 11.8 67.7 11.5 C 67.7 11.2 67.8 11 67.9 10.7 C 68 10.5 68.2 10.3 68.4 10.2 C 68.6 10 68.8 9.9 69.1 9.9 C 69.4 9.8 69.7 9.7 70 9.7 C 70.5 9.7 70.9 9.8 71.3 9.9 C 71.6 10.1 71.9 10.3 72.1 10.5 C 72.3 10.7 72.4 11.1 72.5 11.5 C 72.5 11.5 71.4 11.6 71.4 11.6 C 71.4 11.3 71.2 11 71 10.9 C 70.8 10.7 70.5 10.6 70.1 10.6 C 69.6 10.6 69.2 10.7 69 10.8 C 68.8 11 68.7 11.2 68.7 11.4 C 68.7 11.5 68.8 11.7 68.8 11.8 C 68.9 11.9 69.1 12 69.2 12 C 69.4 12.1 69.7 12.2 70.2 12.3 C 70.9 12.5 71.4 12.7 71.7 12.8 C 72 12.9 72.3 13.1 72.4 13.4 C 72.6 13.6 72.7 13.9 72.7 14.3 C 72.7 14.6 72.6 14.9 72.4 15.3 C 72.2 15.6 71.9 15.8 71.5 16 C 71.1 16.1 70.7 16.2 70.2 16.2 C 69.4 16.2 68.8 16.1 68.3 15.7 C 67.9 15.4 67.6 14.9 67.5 14.2 Z " stroke="none" fill="#000"/>  </g></svg>