<?xml version="1.0" standalone="no"?><!DOCTYPE svg PUBLIC "-//W3C//DTD SVG 1.1//EN" "http://www.w3.org/Graphics/SVG/1.1/DTD/svg11.dtd"><svg xmlns="http://www.w3.org/2000/svg" version="1.1" width="582.2px" height="46.1px" viewBox="0 -8 582.2 46.1" style="top:-8px">  <desc>Understanding EDI In The Workplace</desc>  <defs/>  <g id="Polygon39891">    <path d="M 4.3 1.4 C 4.3 1.4 4.29 13.2 4.3 13.2 C 4.3 17.7 6.4 20.1 10.6 20.1 C 14.9 20.1 16.9 17.6 16.9 13.2 C 16.95 13.2 16.9 1.4 16.9 1.4 L 19.2 1.4 C 19.2 1.4 19.2 13.2 19.2 13.2 C 19.2 18.6 16.4 22.1 10.7 22.1 C 5 22.1 2 18.9 2 13.2 C 2.04 13.2 2 1.4 2 1.4 L 4.3 1.4 Z M 25.4 1.4 L 39.9 18.3 L 39.9 1.4 L 42.1 1.4 L 42.1 21.9 L 40.1 21.9 L 25.7 5 L 25.7 21.9 L 23.5 21.9 L 23.5 1.4 L 25.4 1.4 Z M 46.6 1.4 C 46.6 1.4 54.18 1.41 54.2 1.4 C 60.9 1.4 65.2 5.6 65.2 11.4 C 65.2 17.8 60.7 21.9 54.2 21.9 C 54.18 21.87 46.6 21.9 46.6 21.9 L 46.6 1.4 Z M 54.1 19.8 C 59.5 19.8 62.8 16.6 62.8 11.6 C 62.8 6.7 59.6 3.4 53.8 3.4 C 53.82 3.42 48.9 3.4 48.9 3.4 L 48.9 19.8 C 48.9 19.8 54.15 19.83 54.1 19.8 Z M 80.1 1.4 L 80.1 3.4 L 71.2 3.4 L 71.2 10.6 L 79.8 10.6 L 79.8 12.6 L 71.2 12.6 L 71.2 19.8 L 80.4 19.8 L 80.4 21.9 L 68.9 21.9 L 68.9 1.4 L 80.1 1.4 Z M 84 1.4 C 84 1.4 89.37 1.41 89.4 1.4 C 93.5 1.4 95.6 3.8 95.6 6.9 C 95.6 9.4 94.2 11.2 91.7 11.9 C 93.1 12.6 93.7 13.2 95.3 15.7 C 95.34 15.75 99.3 21.9 99.3 21.9 L 96.6 21.9 C 96.6 21.9 93.03 16.23 93 16.2 C 91.1 13.2 89.9 12.6 88.1 12.6 C 88.14 12.57 86.2 12.6 86.2 12.6 L 86.2 21.9 L 84 21.9 L 84 1.4 Z M 88.3 10.6 C 91.2 10.6 93.3 9.9 93.3 6.9 C 93.3 4.4 91.7 3.4 89.1 3.4 C 89.07 3.39 86.2 3.4 86.2 3.4 L 86.2 10.6 C 86.2 10.6 88.35 10.59 88.3 10.6 Z M 111.5 2.5 C 111.5 2.5 111.5 5 111.5 5 C 110.1 3.8 108.6 3.2 106.9 3.2 C 104.7 3.2 103.3 4.4 103.3 6.1 C 103.3 7.5 103.6 8.7 107 10.4 C 111.3 12.6 112.3 14 112.3 16.8 C 112.3 19.9 109.9 22.1 106.4 22.1 C 104.5 22.1 102.7 21.5 101.1 20.3 C 101.1 20.3 101.1 17.5 101.1 17.5 C 102.7 19.2 104.5 20.1 106.4 20.1 C 108.5 20.1 110 18.8 110 16.9 C 110 15.1 109.4 14.1 105.5 12 C 102.3 10.4 101 8.8 101 6.2 C 101 3.3 103.5 1.1 106.9 1.1 C 108.5 1.1 110.1 1.6 111.5 2.5 Z M 130.7 1.4 L 130.7 3.4 L 123.4 3.4 L 123.4 21.9 L 121.2 21.9 L 121.2 3.4 L 113.9 3.4 L 113.9 1.4 L 130.7 1.4 Z M 139.2 1.3 L 148.3 21.9 L 146 21.9 L 143.1 15.4 L 133.8 15.4 L 131 21.9 L 128.7 21.9 L 137.6 1.3 L 139.2 1.3 Z M 134.7 13.4 L 142.2 13.4 L 138.3 4.7 L 134.7 13.4 Z M 152.5 1.4 L 167 18.3 L 167 1.4 L 169.1 1.4 L 169.1 21.9 L 167.2 21.9 L 152.8 5 L 152.8 21.9 L 150.6 21.9 L 150.6 1.4 L 152.5 1.4 Z M 173.7 1.4 C 173.7 1.4 181.26 1.41 181.3 1.4 C 187.9 1.4 192.3 5.6 192.3 11.4 C 192.3 17.8 187.8 21.9 181.3 21.9 C 181.26 21.87 173.7 21.9 173.7 21.9 L 173.7 1.4 Z M 181.2 19.8 C 186.6 19.8 189.9 16.6 189.9 11.6 C 189.9 6.7 186.7 3.4 180.9 3.4 C 180.9 3.42 176 3.4 176 3.4 L 176 19.8 C 176 19.8 181.23 19.83 181.2 19.8 Z M 198.3 1.4 L 198.3 21.9 L 196 21.9 L 196 1.4 L 198.3 1.4 Z M 204.7 1.4 L 219.2 18.3 L 219.2 1.4 L 221.4 1.4 L 221.4 21.9 L 219.4 21.9 L 205 5 L 205 21.9 L 202.9 21.9 L 202.9 1.4 L 204.7 1.4 Z M 242.8 5.2 C 240.6 3.8 238.1 3.1 235.8 3.1 C 231.1 3.1 227.4 6.7 227.4 11.5 C 227.4 16.6 230.9 20.1 236 20.1 C 237.7 20.1 238.9 19.9 241 19.1 C 241.02 19.08 241 14.1 241 14.1 L 236.8 14.1 L 236.8 12.1 L 243.3 12.1 C 243.3 12.1 243.27 20.46 243.3 20.5 C 240.9 21.6 238.6 22.1 236 22.1 C 228.7 22.1 225.1 17 225.1 11.8 C 225.1 5.9 229.3 1.1 235.9 1.1 C 238.2 1.1 240.1 1.6 242.8 2.8 C 242.8 2.8 242.8 5.2 242.8 5.2 Z M 267.1 1.4 L 267.1 3.4 L 258.1 3.4 L 258.1 10.6 L 266.8 10.6 L 266.8 12.6 L 258.1 12.6 L 258.1 19.8 L 267.3 19.8 L 267.3 21.9 L 255.9 21.9 L 255.9 1.4 L 267.1 1.4 Z M 271 1.4 C 271 1.4 278.49 1.41 278.5 1.4 C 285.2 1.4 289.5 5.6 289.5 11.4 C 289.5 17.8 285 21.9 278.5 21.9 C 278.49 21.87 271 21.9 271 21.9 L 271 1.4 Z M 278.5 19.8 C 283.8 19.8 287.2 16.6 287.2 11.6 C 287.2 6.7 283.9 3.4 278.1 3.4 C 278.13 3.42 273.2 3.4 273.2 3.4 L 273.2 19.8 C 273.2 19.8 278.46 19.83 278.5 19.8 Z M 295.5 1.4 L 295.5 21.9 L 293.2 21.9 L 293.2 1.4 L 295.5 1.4 Z M 310.7 1.4 L 310.7 21.9 L 308.4 21.9 L 308.4 1.4 L 310.7 1.4 Z M 317.1 1.4 L 331.6 18.3 L 331.6 1.4 L 333.8 1.4 L 333.8 21.9 L 331.8 21.9 L 317.4 5 L 317.4 21.9 L 315.3 21.9 L 315.3 1.4 L 317.1 1.4 Z M 361.6 1.4 L 361.6 3.4 L 354.3 3.4 L 354.3 21.9 L 352.1 21.9 L 352.1 3.4 L 344.8 3.4 L 344.8 1.4 L 361.6 1.4 Z M 366.7 1.4 L 366.7 10.5 L 379.1 10.5 L 379.1 1.4 L 381.3 1.4 L 381.3 21.9 L 379.1 21.9 L 379.1 12.6 L 366.7 12.6 L 366.7 21.9 L 364.4 21.9 L 364.4 1.4 L 366.7 1.4 Z M 397.1 1.4 L 397.1 3.4 L 388.2 3.4 L 388.2 10.6 L 396.8 10.6 L 396.8 12.6 L 388.2 12.6 L 388.2 19.8 L 397.3 19.8 L 397.3 21.9 L 385.9 21.9 L 385.9 1.4 L 397.1 1.4 Z M 407 1.4 L 409.3 1.4 L 415.5 17 L 415.5 17 L 421.6 1.4 L 423.6 1.4 L 429.7 16.9 L 429.8 16.9 L 435.8 1.4 L 438.1 1.4 L 429.9 22 L 429.4 22 L 422.5 4.6 L 415.7 22 L 415.2 22 L 407 1.4 Z M 460.3 11.5 C 460.3 17.3 456.1 22.1 449.4 22.1 C 443 22.1 438.7 17.3 438.7 11.8 C 438.7 6.1 442.8 1.1 449.5 1.1 C 456 1.1 460.3 5.9 460.3 11.5 Z M 441.1 11.7 C 441.1 16.5 444.8 20 449.4 20 C 455.5 20 458 15.3 458 11.6 C 458 7.5 454.9 3.3 449.6 3.3 C 444 3.3 441.1 7.5 441.1 11.7 Z M 464 1.4 C 464 1.4 469.38 1.41 469.4 1.4 C 473.5 1.4 475.6 3.8 475.6 6.9 C 475.6 9.4 474.2 11.2 471.7 11.9 C 473.1 12.6 473.7 13.2 475.3 15.7 C 475.35 15.75 479.3 21.9 479.3 21.9 L 476.6 21.9 C 476.6 21.9 473.04 16.23 473 16.2 C 471.1 13.2 469.9 12.6 468.1 12.6 C 468.15 12.57 466.3 12.6 466.3 12.6 L 466.3 21.9 L 464 21.9 L 464 1.4 Z M 468.4 10.6 C 471.2 10.6 473.3 9.9 473.3 6.9 C 473.3 4.4 471.7 3.4 469.1 3.4 C 469.08 3.39 466.3 3.4 466.3 3.4 L 466.3 10.6 C 466.3 10.6 468.36 10.59 468.4 10.6 Z M 483.8 1.4 L 483.8 11 L 492.8 1.4 L 495.6 1.4 L 486.4 11.2 L 497.4 21.9 L 494.3 21.9 L 483.8 11.7 L 483.8 21.9 L 481.6 21.9 L 481.6 1.4 L 483.8 1.4 Z M 505.4 1.4 C 509.5 1.4 512 3.5 512 7 C 512 10.9 509.4 12.7 505 12.7 C 505.05 12.66 501.9 12.7 501.9 12.7 L 501.9 21.9 L 499.6 21.9 L 499.6 1.4 C 499.6 1.4 505.44 1.41 505.4 1.4 Z M 501.9 10.7 C 501.9 10.7 504.99 10.68 505 10.7 C 508.4 10.7 509.7 9.3 509.7 7 C 509.7 4.7 508.3 3.4 505 3.4 C 504.99 3.39 501.9 3.4 501.9 3.4 L 501.9 10.7 Z M 517.4 1.4 L 517.4 19.8 L 527.1 19.8 L 527.1 21.9 L 515.2 21.9 L 515.2 1.4 L 517.4 1.4 Z M 538.3 1.3 L 547.5 21.9 L 545.2 21.9 L 542.3 15.4 L 533 15.4 L 530.2 21.9 L 527.9 21.9 L 536.8 1.3 L 538.3 1.3 Z M 533.8 13.4 L 541.4 13.4 L 537.5 4.7 L 533.8 13.4 Z M 565.8 2.8 C 565.8 2.8 565.8 5.2 565.8 5.2 C 563.6 4 561.3 3.2 558.9 3.2 C 553.6 3.2 550.3 7.2 550.3 11.7 C 550.3 16.3 553.6 20 558.8 20 C 561.4 20 563.8 19.3 565.9 17.9 C 565.9 17.9 565.9 20.4 565.9 20.4 C 563.7 21.6 561.3 22.1 558.8 22.1 C 551.7 22.1 548 16.8 548 11.7 C 548 5.6 552.7 1.1 558.8 1.1 C 561.1 1.1 563.5 1.7 565.8 2.8 Z M 580.7 1.4 L 580.7 3.4 L 571.7 3.4 L 571.7 10.6 L 580.4 10.6 L 580.4 12.6 L 571.7 12.6 L 571.7 19.8 L 580.9 19.8 L 580.9 21.9 L 569.5 21.9 L 569.5 1.4 L 580.7 1.4 Z " stroke="none" fill="#010102"/>  </g></svg>