<?xml version="1.0" standalone="no"?><!DOCTYPE svg PUBLIC "-//W3C//DTD SVG 1.1//EN" "http://www.w3.org/Graphics/SVG/1.1/DTD/svg11.dtd"><svg xmlns="http://www.w3.org/2000/svg" version="1.1" width="850.1px" height="253.5px" viewBox="0 -1 850.1 253.5" style="top:-1px">  <desc>Case Studies</desc>  <defs/>  <g id="Polygon5341">    <path d="M 212.7 105.4 C 212.7 105.4 212.7 110.5 212.7 110.5 C 209 108.5 205 107.1 200.9 107.1 C 192.5 107.1 187.3 113.5 187.3 120.2 C 187.3 126.9 192.3 133 200.8 133 C 205.3 133 209.3 131.7 213 129.2 C 213 129.2 213 134.6 213 134.6 C 209 136.7 204.9 137.6 200.6 137.6 C 188.1 137.6 182.3 128.1 182.3 120.1 C 182.3 110.1 190.6 102.6 200.7 102.6 C 204.5 102.6 208.6 103.5 212.7 105.4 Z M 233.9 102.8 L 249.2 137.1 L 244.2 137.1 L 239.6 127.1 L 225.1 127.1 L 220.8 137.1 L 215.8 137.1 L 230.5 102.8 L 233.9 102.8 Z M 227 122.7 L 237.7 122.7 L 232.2 109.5 L 227 122.7 Z M 270.1 105 C 270.1 105 270.1 110.5 270.1 110.5 C 267.8 108.3 265.1 107 262.1 107 C 259 107 257.1 108.6 257.1 110.9 C 257.1 112.8 257.5 114.5 262.7 117.5 C 269.9 121.6 271.4 124 271.4 128.7 C 271.4 133.7 267.5 137.6 261.5 137.6 C 258.2 137.6 255 136.4 252.3 134.4 C 252.3 134.4 252.3 128.2 252.3 128.2 C 254.7 131.4 258 133.2 261.5 133.2 C 264.4 133.2 266.5 131.4 266.5 128.7 C 266.5 126.4 265.9 124.9 259.1 120.9 C 254.1 118 252.2 115.3 252.2 111.1 C 252.2 106.2 256.4 102.6 262.2 102.6 C 265 102.6 267.7 103.4 270.1 105 Z M 296.7 103 L 296.7 107.4 L 282.3 107.4 L 282.3 117.8 L 296.2 117.8 L 296.2 122.1 L 282.3 122.1 L 282.3 132.7 L 297.2 132.7 L 297.2 137.1 L 277.4 137.1 L 277.4 103 L 296.7 103 Z M 333.9 105 C 333.9 105 333.9 110.5 333.9 110.5 C 331.6 108.3 328.9 107 325.9 107 C 322.8 107 320.9 108.6 320.9 110.9 C 320.9 112.8 321.3 114.5 326.5 117.5 C 333.7 121.6 335.2 124 335.2 128.7 C 335.2 133.7 331.3 137.6 325.3 137.6 C 322 137.6 318.8 136.4 316.1 134.4 C 316.1 134.4 316.1 128.2 316.1 128.2 C 318.5 131.4 321.8 133.2 325.3 133.2 C 328.2 133.2 330.3 131.4 330.3 128.7 C 330.3 126.4 329.7 124.9 322.9 120.9 C 317.9 118 316 115.3 316 111.1 C 316 106.2 320.2 102.6 326 102.6 C 328.8 102.6 331.5 103.4 333.9 105 Z M 366.8 103 L 366.8 107.3 L 354.9 107.3 L 354.9 137.1 L 350 137.1 L 350 107.3 L 338.3 107.3 L 338.3 103 L 366.8 103 Z M 375.8 103 C 375.8 103 375.85 122.79 375.8 122.8 C 375.8 130.3 379.1 133.2 385.6 133.2 C 392.1 133.2 395.3 130.2 395.3 122.7 C 395.35 122.74 395.3 103 395.3 103 L 400.2 103 C 400.2 103 400.25 122.74 400.2 122.7 C 400.2 132 395.5 137.6 385.6 137.6 C 376.2 137.6 370.9 132.8 370.9 122.8 C 370.95 122.79 370.9 103 370.9 103 L 375.8 103 Z M 420.2 103 C 431.6 103 438.6 110.1 438.6 119.7 C 438.6 130.2 431.1 137.1 420.3 137.1 C 420.3 137.14 407.3 137.1 407.3 137.1 L 407.3 103 C 407.3 103 420.25 103.04 420.2 103 Z M 420 132.7 C 428.6 132.7 433.6 127.9 433.6 119.8 C 433.6 112.5 429 107.4 419.3 107.4 C 419.35 107.39 412.2 107.4 412.2 107.4 L 412.2 132.7 C 412.2 132.7 420.05 132.74 420 132.7 Z M 449.5 103 L 449.5 137.1 L 444.6 137.1 L 444.6 103 L 449.5 103 Z M 476.4 103 L 476.4 107.4 L 461.9 107.4 L 461.9 117.8 L 475.9 117.8 L 475.9 122.1 L 461.9 122.1 L 461.9 132.7 L 476.8 132.7 L 476.8 137.1 L 457 137.1 L 457 103 L 476.4 103 Z M 499.6 105 C 499.6 105 499.6 110.5 499.6 110.5 C 497.3 108.3 494.7 107 491.6 107 C 488.5 107 486.6 108.6 486.6 110.9 C 486.6 112.8 487 114.5 492.2 117.5 C 499.4 121.6 501 124 501 128.7 C 501 133.7 497 137.6 491.1 137.6 C 487.7 137.6 484.6 136.4 481.9 134.4 C 481.9 134.4 481.9 128.2 481.9 128.2 C 484.3 131.4 487.5 133.2 491.1 133.2 C 493.9 133.2 496.1 131.4 496.1 128.7 C 496.1 126.4 495.4 124.9 488.7 120.9 C 483.6 118 481.7 115.3 481.7 111.1 C 481.7 106.2 485.9 102.6 491.8 102.6 C 494.6 102.6 497.3 103.4 499.6 105 Z " stroke="none" fill="#010102"/>  </g></svg>