<?xml version="1.0" standalone="no"?><!DOCTYPE svg PUBLIC "-//W3C//DTD SVG 1.1//EN" "http://www.w3.org/Graphics/SVG/1.1/DTD/svg11.dtd"><svg xmlns="http://www.w3.org/2000/svg" version="1.1" width="2040px" height="90.3px" viewBox="0 -14 2040 90.3" style="top:-14px">  <desc>Working in Partnership to Deliver Efficient End Point Assessment</desc>  <defs/>  <g id="Polygon20271">    <path d="M 0.1 2.8 L 4.6 2.8 L 16.9 34 L 17 34 L 29.1 2.8 L 33.1 2.8 L 45.5 33.8 L 45.5 33.8 L 57.5 2.8 L 62.1 2.8 L 45.8 44 L 44.9 44 L 31.1 9.2 L 17.4 44 L 16.4 44 L 0.1 2.8 Z M 106.6 23.1 C 106.6 34.6 98.2 44.3 84.7 44.3 C 72 44.3 63.5 34.6 63.5 23.5 C 63.5 12.1 71.6 2.3 84.9 2.3 C 98 2.3 106.6 11.8 106.6 23.1 Z M 68.1 23.3 C 68.1 33 75.6 40.1 84.8 40 C 97 40 101.9 30.6 101.9 23.2 C 101.9 14.9 95.8 6.5 85.1 6.5 C 74 6.5 68.1 15 68.1 23.3 Z M 114 2.8 C 114 2.8 124.74 2.82 124.7 2.8 C 133 2.8 137.2 7.6 137.2 13.8 C 137.2 18.9 134.5 22.4 129.5 23.9 C 132.1 25.3 133.3 26.3 136.7 31.5 C 136.68 31.5 144.6 43.7 144.6 43.7 L 139.3 43.7 C 139.3 43.7 132.06 32.46 132.1 32.5 C 128.3 26.5 125.8 25.1 122.3 25.1 C 122.28 25.14 118.5 25.1 118.5 25.1 L 118.5 43.7 L 114 43.7 L 114 2.8 Z M 122.7 21.2 C 128.3 21.2 132.6 19.8 132.6 13.9 C 132.6 8.8 129.4 6.8 124.1 6.8 C 124.14 6.78 118.5 6.8 118.5 6.8 L 118.5 21.2 C 118.5 21.2 122.7 21.18 122.7 21.2 Z M 153.6 2.8 L 153.6 22 L 171.5 2.8 L 177.2 2.8 L 158.9 22.5 L 180.8 43.7 L 174.6 43.7 L 153.6 23.4 L 153.6 43.7 L 149.1 43.7 L 149.1 2.8 L 153.6 2.8 Z M 189.7 2.8 L 189.7 43.7 L 185.2 43.7 L 185.2 2.8 L 189.7 2.8 Z M 202.6 2.8 L 231.6 36.7 L 231.6 2.8 L 235.9 2.8 L 235.9 43.7 L 232 43.7 L 203.2 10 L 203.2 43.7 L 198.9 43.7 L 198.9 2.8 L 202.6 2.8 Z M 278.9 10.3 C 274.4 7.7 269.4 6.3 264.8 6.3 C 255.3 6.3 248 13.5 248 23.1 C 248 33.2 254.9 40.3 265.1 40.3 C 268.6 40.3 271 39.7 275.2 38.2 C 275.22 38.16 275.2 28.2 275.2 28.2 L 266.9 28.2 L 266.9 24.2 L 279.7 24.2 C 279.7 24.2 279.72 40.92 279.7 40.9 C 275 43.2 270.5 44.3 265.1 44.3 C 250.5 44.3 243.3 34 243.3 23.5 C 243.3 11.9 251.9 2.3 265 2.3 C 269.6 2.3 273.5 3.2 278.9 5.6 C 278.9 5.6 278.9 10.3 278.9 10.3 Z M 309 2.8 L 309 43.7 L 304.5 43.7 L 304.5 2.8 L 309 2.8 Z M 321.9 2.8 L 350.9 36.7 L 350.9 2.8 L 355.2 2.8 L 355.2 43.7 L 351.2 43.7 L 322.5 10 L 322.5 43.7 L 318.2 43.7 L 318.2 2.8 L 321.9 2.8 Z M 392.2 2.8 C 400.4 2.8 405.4 7 405.4 14.1 C 405.4 21.7 400.2 25.3 391.5 25.3 C 391.45 25.32 385.1 25.3 385.1 25.3 L 385.1 43.7 L 380.6 43.7 L 380.6 2.8 C 380.6 2.8 392.23 2.82 392.2 2.8 Z M 385.1 21.4 C 385.1 21.4 391.33 21.36 391.3 21.4 C 398.2 21.4 400.8 18.7 400.8 14 C 400.8 9.4 398 6.8 391.3 6.8 C 391.33 6.78 385.1 6.8 385.1 6.8 L 385.1 21.4 Z M 424.6 2.6 L 442.8 43.7 L 438.2 43.7 L 432.4 30.9 L 413.8 30.9 L 408.3 43.7 L 403.7 43.7 L 421.4 2.6 L 424.6 2.6 Z M 415.6 26.9 L 430.6 26.9 L 422.9 9.5 L 415.6 26.9 Z M 447.5 2.8 C 447.5 2.8 458.23 2.82 458.2 2.8 C 466.5 2.8 470.7 7.6 470.7 13.8 C 470.7 18.9 468 22.4 463 23.9 C 465.6 25.3 466.8 26.3 470.2 31.5 C 470.17 31.5 478.1 43.7 478.1 43.7 L 472.8 43.7 C 472.8 43.7 465.55 32.46 465.6 32.5 C 461.8 26.5 459.3 25.1 455.8 25.1 C 455.77 25.14 452 25.1 452 25.1 L 452 43.7 L 447.5 43.7 L 447.5 2.8 Z M 456.2 21.2 C 461.8 21.2 466.1 19.8 466.1 13.9 C 466.1 8.8 462.9 6.8 457.6 6.8 C 457.63 6.78 452 6.8 452 6.8 L 452 21.2 C 452 21.2 456.19 21.18 456.2 21.2 Z M 509.4 2.8 L 509.4 6.8 L 494.8 6.8 L 494.8 43.7 L 490.3 43.7 L 490.3 6.8 L 475.8 6.8 L 475.8 2.8 L 509.4 2.8 Z M 518.7 2.8 L 547.6 36.7 L 547.6 2.8 L 552 2.8 L 552 43.7 L 548 43.7 L 519.3 10 L 519.3 43.7 L 514.9 43.7 L 514.9 2.8 L 518.7 2.8 Z M 583.5 2.8 L 583.5 6.8 L 565.6 6.8 L 565.6 21.1 L 582.9 21.1 L 582.9 25.1 L 565.6 25.1 L 565.6 39.7 L 584 39.7 L 584 43.7 L 561.1 43.7 L 561.1 2.8 L 583.5 2.8 Z M 591.3 2.8 C 591.3 2.8 601.99 2.82 602 2.8 C 610.2 2.8 614.5 7.6 614.5 13.8 C 614.5 18.9 611.7 22.4 606.7 23.9 C 609.4 25.3 610.6 26.3 613.9 31.5 C 613.93 31.5 621.9 43.7 621.9 43.7 L 616.5 43.7 C 616.5 43.7 609.31 32.46 609.3 32.5 C 605.5 26.5 603 25.1 599.5 25.1 C 599.53 25.14 595.8 25.1 595.8 25.1 L 595.8 43.7 L 591.3 43.7 L 591.3 2.8 Z M 600 21.2 C 605.6 21.2 609.9 19.8 609.9 13.9 C 609.9 8.8 606.6 6.8 601.4 6.8 C 601.39 6.78 595.8 6.8 595.8 6.8 L 595.8 21.2 C 595.8 21.2 599.95 21.18 600 21.2 Z M 646.3 4.9 C 646.3 4.9 646.3 10 646.3 10 C 643.5 7.6 640.4 6.4 637 6.4 C 632.7 6.4 629.9 8.8 629.9 12.3 C 629.9 15 630.6 17.3 637.3 20.8 C 645.8 25.1 647.8 28.1 647.8 33.7 C 647.8 39.7 643.2 44.3 636.1 44.3 C 632.2 44.3 628.6 43 625.5 40.7 C 625.5 40.7 625.5 35 625.5 35 C 628.6 38.4 632.2 40.3 636.1 40.3 C 640.3 40.3 643.3 37.7 643.3 33.7 C 643.3 30.2 642.1 28.2 634.2 24.1 C 627.8 20.8 625.3 17.6 625.3 12.4 C 625.3 6.6 630.3 2.3 637.2 2.3 C 640.3 2.3 643.5 3.2 646.3 4.9 Z M 659.4 2.8 L 659.4 21.1 L 684.2 21.1 L 684.2 2.8 L 688.7 2.8 L 688.7 43.7 L 684.2 43.7 L 684.2 25.2 L 659.4 25.2 L 659.4 43.7 L 654.9 43.7 L 654.9 2.8 L 659.4 2.8 Z M 702.4 2.8 L 702.4 43.7 L 697.9 43.7 L 697.9 2.8 L 702.4 2.8 Z M 723.2 2.8 C 731.3 2.8 736.3 7 736.3 14.1 C 736.3 21.7 731.2 25.3 722.4 25.3 C 722.41 25.32 716 25.3 716 25.3 L 716 43.7 L 711.5 43.7 L 711.5 2.8 C 711.5 2.8 723.19 2.82 723.2 2.8 Z M 716 21.4 C 716 21.4 722.29 21.36 722.3 21.4 C 729.2 21.4 731.7 18.7 731.7 14 C 731.7 9.4 728.9 6.8 722.3 6.8 C 722.29 6.78 716 6.8 716 6.8 L 716 21.4 Z M 788.8 2.8 L 788.8 6.8 L 774.1 6.8 L 774.1 43.7 L 769.6 43.7 L 769.6 6.8 L 755.2 6.8 L 755.2 2.8 L 788.8 2.8 Z M 833 23.1 C 833 34.6 824.6 44.3 811.1 44.3 C 798.4 44.3 789.9 34.6 789.9 23.5 C 789.9 12.1 798 2.3 811.3 2.3 C 824.4 2.3 833 11.8 833 23.1 Z M 794.5 23.3 C 794.5 33 802 40.1 811.2 40 C 823.3 40 828.3 30.6 828.3 23.2 C 828.3 14.9 822.2 6.5 811.5 6.5 C 800.4 6.5 794.5 15 794.5 23.3 Z M 856.6 2.8 C 856.6 2.8 871.65 2.82 871.6 2.8 C 885 2.8 893.7 11.2 893.7 22.9 C 893.7 35.6 884.7 43.7 871.6 43.7 C 871.65 43.74 856.6 43.7 856.6 43.7 L 856.6 2.8 Z M 871.6 39.7 C 882.3 39.7 889 33.3 889 23.2 C 889 13.3 882.5 6.8 870.9 6.8 C 870.93 6.84 861.1 6.8 861.1 6.8 L 861.1 39.7 C 861.1 39.7 871.59 39.66 871.6 39.7 Z M 923.5 2.8 L 923.5 6.8 L 905.7 6.8 L 905.7 21.1 L 922.9 21.1 L 922.9 25.1 L 905.7 25.1 L 905.7 39.7 L 924 39.7 L 924 43.7 L 901.2 43.7 L 901.2 2.8 L 923.5 2.8 Z M 935.8 2.8 L 935.8 39.6 L 955 39.6 L 955 43.7 L 931.3 43.7 L 931.3 2.8 L 935.8 2.8 Z M 964.8 2.8 L 964.8 43.7 L 960.3 43.7 L 960.3 2.8 L 964.8 2.8 Z M 969.4 2.8 L 973.9 2.8 L 987.3 34.7 L 987.3 34.7 L 1000.6 2.8 L 1005.1 2.8 L 987.8 44.2 L 986.8 44.2 L 969.4 2.8 Z M 1032.1 2.8 L 1032.1 6.8 L 1014.3 6.8 L 1014.3 21.1 L 1031.5 21.1 L 1031.5 25.1 L 1014.3 25.1 L 1014.3 39.7 L 1032.6 39.7 L 1032.6 43.7 L 1009.8 43.7 L 1009.8 2.8 L 1032.1 2.8 Z M 1039.9 2.8 C 1039.9 2.8 1050.62 2.82 1050.6 2.8 C 1058.8 2.8 1063.1 7.6 1063.1 13.8 C 1063.1 18.9 1060.3 22.4 1055.4 23.9 C 1058 25.3 1059.2 26.3 1062.6 31.5 C 1062.56 31.5 1070.5 43.7 1070.5 43.7 L 1065.1 43.7 C 1065.1 43.7 1057.94 32.46 1057.9 32.5 C 1054.2 26.5 1051.6 25.1 1048.2 25.1 C 1048.16 25.14 1044.4 25.1 1044.4 25.1 L 1044.4 43.7 L 1039.9 43.7 L 1039.9 2.8 Z M 1048.6 21.2 C 1054.2 21.2 1058.5 19.8 1058.5 13.9 C 1058.5 8.8 1055.2 6.8 1050 6.8 C 1050.02 6.78 1044.4 6.8 1044.4 6.8 L 1044.4 21.2 C 1044.4 21.2 1048.58 21.18 1048.6 21.2 Z M 1113.6 2.8 L 1113.6 6.8 L 1095.7 6.8 L 1095.7 21.1 L 1113 21.1 L 1113 25.1 L 1095.7 25.1 L 1095.7 39.7 L 1114.1 39.7 L 1114.1 43.7 L 1091.2 43.7 L 1091.2 2.8 L 1113.6 2.8 Z M 1142.3 2.8 L 1142.3 6.9 L 1125.8 6.9 L 1125.8 20.1 L 1141.8 20.1 L 1141.8 24.2 L 1125.8 24.2 L 1125.8 43.7 L 1121.3 43.7 L 1121.3 2.8 L 1142.3 2.8 Z M 1169.3 2.8 L 1169.3 6.9 L 1152.8 6.9 L 1152.8 20.1 L 1168.8 20.1 L 1168.8 24.2 L 1152.8 24.2 L 1152.8 43.7 L 1148.3 43.7 L 1148.3 2.8 L 1169.3 2.8 Z M 1179.8 2.8 L 1179.8 43.7 L 1175.3 43.7 L 1175.3 2.8 L 1179.8 2.8 Z M 1222.8 5.5 C 1222.8 5.5 1222.8 10.4 1222.8 10.4 C 1218.4 7.9 1213.7 6.5 1208.9 6.5 C 1198.5 6.5 1191.9 14.3 1191.9 23.3 C 1191.9 32.5 1198.4 40.1 1208.8 40.1 C 1213.9 40.1 1218.7 38.6 1223.1 35.9 C 1223.1 35.9 1223.1 40.9 1223.1 40.9 C 1218.5 43.2 1213.8 44.3 1208.7 44.3 C 1194.6 44.3 1187.2 33.7 1187.2 23.5 C 1187.2 11.3 1196.5 2.3 1208.8 2.3 C 1213.5 2.3 1218.1 3.4 1222.8 5.5 Z M 1234.6 2.8 L 1234.6 43.7 L 1230.1 43.7 L 1230.1 2.8 L 1234.6 2.8 Z M 1266.2 2.8 L 1266.2 6.8 L 1248.3 6.8 L 1248.3 21.1 L 1265.6 21.1 L 1265.6 25.1 L 1248.3 25.1 L 1248.3 39.7 L 1266.7 39.7 L 1266.7 43.7 L 1243.8 43.7 L 1243.8 2.8 L 1266.2 2.8 Z M 1277.7 2.8 L 1306.6 36.7 L 1306.6 2.8 L 1311 2.8 L 1311 43.7 L 1307 43.7 L 1278.3 10 L 1278.3 43.7 L 1273.9 43.7 L 1273.9 2.8 L 1277.7 2.8 Z M 1350 2.8 L 1350 6.8 L 1335.4 6.8 L 1335.4 43.7 L 1330.9 43.7 L 1330.9 6.8 L 1316.4 6.8 L 1316.4 2.8 L 1350 2.8 Z M 1394.1 2.8 L 1394.1 6.8 L 1376.3 6.8 L 1376.3 21.1 L 1393.5 21.1 L 1393.5 25.1 L 1376.3 25.1 L 1376.3 39.7 L 1394.6 39.7 L 1394.6 43.7 L 1371.8 43.7 L 1371.8 2.8 L 1394.1 2.8 Z M 1405.6 2.8 L 1434.6 36.7 L 1434.6 2.8 L 1438.9 2.8 L 1438.9 43.7 L 1434.9 43.7 L 1406.2 10 L 1406.2 43.7 L 1401.9 43.7 L 1401.9 2.8 L 1405.6 2.8 Z M 1448.1 2.8 C 1448.1 2.8 1463.14 2.82 1463.1 2.8 C 1476.5 2.8 1485.2 11.2 1485.2 22.9 C 1485.2 35.6 1476.2 43.7 1463.1 43.7 C 1463.14 43.74 1448.1 43.7 1448.1 43.7 L 1448.1 2.8 Z M 1463.1 39.7 C 1473.8 39.7 1480.5 33.3 1480.5 23.2 C 1480.5 13.3 1474 6.8 1462.4 6.8 C 1462.42 6.84 1452.6 6.8 1452.6 6.8 L 1452.6 39.7 C 1452.6 39.7 1463.08 39.66 1463.1 39.7 Z M 1506.3 28.1 L 1506.3 32.4 L 1491.8 32.4 L 1491.8 28.1 L 1506.3 28.1 Z M 1525.9 2.8 C 1534.1 2.8 1539 7 1539 14.1 C 1539 21.7 1533.9 25.3 1525.1 25.3 C 1525.11 25.32 1518.8 25.3 1518.8 25.3 L 1518.8 43.7 L 1514.3 43.7 L 1514.3 2.8 C 1514.3 2.8 1525.89 2.82 1525.9 2.8 Z M 1518.8 21.4 C 1518.8 21.4 1524.99 21.36 1525 21.4 C 1531.9 21.4 1534.4 18.7 1534.4 14 C 1534.4 9.4 1531.7 6.8 1525 6.8 C 1524.99 6.78 1518.8 6.8 1518.8 6.8 L 1518.8 21.4 Z M 1586.7 23.1 C 1586.7 34.6 1578.3 44.3 1564.8 44.3 C 1552.1 44.3 1543.6 34.6 1543.6 23.5 C 1543.6 12.1 1551.8 2.3 1565 2.3 C 1578.1 2.3 1586.7 11.8 1586.7 23.1 Z M 1548.2 23.3 C 1548.2 33 1555.7 40.1 1564.9 40 C 1577.1 40 1582.1 30.6 1582.1 23.2 C 1582.1 14.9 1575.9 6.5 1565.3 6.5 C 1554.1 6.5 1548.2 15 1548.2 23.3 Z M 1598.6 2.8 L 1598.6 43.7 L 1594.1 43.7 L 1594.1 2.8 L 1598.6 2.8 Z M 1611.5 2.8 L 1640.5 36.7 L 1640.5 2.8 L 1644.8 2.8 L 1644.8 43.7 L 1640.9 43.7 L 1612.1 10 L 1612.1 43.7 L 1607.8 43.7 L 1607.8 2.8 L 1611.5 2.8 Z M 1683.9 2.8 L 1683.9 6.8 L 1669.2 6.8 L 1669.2 43.7 L 1664.7 43.7 L 1664.7 6.8 L 1650.3 6.8 L 1650.3 2.8 L 1683.9 2.8 Z M 1722 2.6 L 1740.2 43.7 L 1735.6 43.7 L 1729.8 30.9 L 1711.2 30.9 L 1705.7 43.7 L 1701.1 43.7 L 1718.8 2.6 L 1722 2.6 Z M 1713 26.9 L 1728 26.9 L 1720.3 9.5 L 1713 26.9 Z M 1764.8 4.9 C 1764.8 4.9 1764.8 10 1764.8 10 C 1762 7.6 1758.9 6.4 1755.6 6.4 C 1751.3 6.4 1748.4 8.8 1748.4 12.3 C 1748.4 15 1749.1 17.3 1755.9 20.8 C 1764.3 25.1 1766.4 28.1 1766.4 33.7 C 1766.4 39.7 1761.7 44.3 1754.7 44.3 C 1750.8 44.3 1747.2 43 1744.1 40.7 C 1744.1 40.7 1744.1 35 1744.1 35 C 1747.1 38.4 1750.7 40.3 1754.7 40.3 C 1758.8 40.3 1761.8 37.7 1761.8 33.7 C 1761.8 30.2 1760.7 28.2 1752.8 24.1 C 1746.3 20.8 1743.9 17.6 1743.9 12.4 C 1743.9 6.6 1748.9 2.3 1755.7 2.3 C 1758.9 2.3 1762.1 3.2 1764.8 4.9 Z M 1792.4 4.9 C 1792.4 4.9 1792.4 10 1792.4 10 C 1789.5 7.6 1786.5 6.4 1783.1 6.4 C 1778.8 6.4 1776 8.8 1776 12.3 C 1776 15 1776.6 17.3 1783.4 20.8 C 1791.9 25.1 1793.9 28.1 1793.9 33.7 C 1793.9 39.7 1789.2 44.3 1782.2 44.3 C 1778.3 44.3 1774.7 43 1771.6 40.7 C 1771.6 40.7 1771.6 35 1771.6 35 C 1774.7 38.4 1778.3 40.3 1782.2 40.3 C 1786.4 40.3 1789.4 37.7 1789.4 33.7 C 1789.4 30.2 1788.2 28.2 1780.3 24.1 C 1773.9 20.8 1771.4 17.6 1771.4 12.4 C 1771.4 6.6 1776.4 2.3 1783.2 2.3 C 1786.4 2.3 1789.6 3.2 1792.4 4.9 Z M 1823.3 2.8 L 1823.3 6.8 L 1805.4 6.8 L 1805.4 21.1 L 1822.7 21.1 L 1822.7 25.1 L 1805.4 25.1 L 1805.4 39.7 L 1823.8 39.7 L 1823.8 43.7 L 1800.9 43.7 L 1800.9 2.8 L 1823.3 2.8 Z M 1850 4.9 C 1850 4.9 1850 10 1850 10 C 1847.2 7.6 1844.1 6.4 1840.8 6.4 C 1836.5 6.4 1833.6 8.8 1833.6 12.3 C 1833.6 15 1834.3 17.3 1841.1 20.8 C 1849.5 25.1 1851.6 28.1 1851.6 33.7 C 1851.6 39.7 1846.9 44.3 1839.9 44.3 C 1836 44.3 1832.4 43 1829.3 40.7 C 1829.3 40.7 1829.3 35 1829.3 35 C 1832.3 38.4 1835.9 40.3 1839.9 40.3 C 1844 40.3 1847 37.7 1847 33.7 C 1847 30.2 1845.9 28.2 1838 24.1 C 1831.5 20.8 1829.1 17.6 1829.1 12.4 C 1829.1 6.6 1834.1 2.3 1840.9 2.3 C 1844.1 2.3 1847.3 3.2 1850 4.9 Z M 1877.6 4.9 C 1877.6 4.9 1877.6 10 1877.6 10 C 1874.7 7.6 1871.7 6.4 1868.3 6.4 C 1864 6.4 1861.2 8.8 1861.2 12.3 C 1861.2 15 1861.8 17.3 1868.6 20.8 C 1877.1 25.1 1879.1 28.1 1879.1 33.7 C 1879.1 39.7 1874.4 44.3 1867.4 44.3 C 1863.5 44.3 1859.9 43 1856.8 40.7 C 1856.8 40.7 1856.8 35 1856.8 35 C 1859.9 38.4 1863.5 40.3 1867.4 40.3 C 1871.6 40.3 1874.6 37.7 1874.6 33.7 C 1874.6 30.2 1873.4 28.2 1865.5 24.1 C 1859.1 20.8 1856.6 17.6 1856.6 12.4 C 1856.6 6.6 1861.6 2.3 1868.4 2.3 C 1871.6 2.3 1874.8 3.2 1877.6 4.9 Z M 1886.1 2.8 L 1890.4 2.8 L 1904.9 20.8 L 1919.3 2.8 L 1923.5 2.8 L 1923.5 43.7 L 1919 43.7 L 1919 10 L 1918.9 10 L 1905.2 27.1 L 1904.4 27.1 L 1890.8 10 L 1890.6 10 L 1890.6 43.7 L 1886.1 43.7 L 1886.1 2.8 Z M 1955.1 2.8 L 1955.1 6.8 L 1937.3 6.8 L 1937.3 21.1 L 1954.5 21.1 L 1954.5 25.1 L 1937.3 25.1 L 1937.3 39.7 L 1955.6 39.7 L 1955.6 43.7 L 1932.8 43.7 L 1932.8 2.8 L 1955.1 2.8 Z M 1966.6 2.8 L 1995.6 36.7 L 1995.6 2.8 L 1999.9 2.8 L 1999.9 43.7 L 1995.9 43.7 L 1967.2 10 L 1967.2 43.7 L 1962.9 43.7 L 1962.9 2.8 L 1966.6 2.8 Z M 2039 2.8 L 2039 6.8 L 2024.3 6.8 L 2024.3 43.7 L 2019.8 43.7 L 2019.8 6.8 L 2005.4 6.8 L 2005.4 2.8 L 2039 2.8 Z " stroke="none" fill="#010102"/>  </g></svg>