<?xml version="1.0" standalone="no"?><!DOCTYPE svg PUBLIC "-//W3C//DTD SVG 1.1//EN" "http://www.w3.org/Graphics/SVG/1.1/DTD/svg11.dtd"><svg xmlns="http://www.w3.org/2000/svg" version="1.1" width="2040px" height="90.3px" viewBox="0 -14 2040 90.3" style="top:-14px">  <desc>Apprentices In Capable Hands</desc>  <defs/>  <g id="Polygon20973">    <path d="M 21 2.6 L 39.2 43.7 L 34.6 43.7 L 28.9 30.9 L 10.3 30.9 L 4.7 43.7 L 0.1 43.7 L 17.8 2.6 L 21 2.6 Z M 12 26.9 L 27.1 26.9 L 19.3 9.5 L 12 26.9 Z M 55.6 2.8 C 63.7 2.8 68.7 7 68.7 14.1 C 68.7 21.7 63.5 25.3 54.8 25.3 C 54.78 25.32 48.4 25.3 48.4 25.3 L 48.4 43.7 L 43.9 43.7 L 43.9 2.8 C 43.9 2.8 55.56 2.82 55.6 2.8 Z M 48.4 21.4 C 48.4 21.4 54.66 21.36 54.7 21.4 C 61.6 21.4 64.1 18.7 64.1 14 C 64.1 9.4 61.3 6.8 54.7 6.8 C 54.66 6.78 48.4 6.8 48.4 6.8 L 48.4 21.4 Z M 86.7 2.8 C 94.9 2.8 99.8 7 99.8 14.1 C 99.8 21.7 94.7 25.3 85.9 25.3 C 85.92 25.32 79.6 25.3 79.6 25.3 L 79.6 43.7 L 75.1 43.7 L 75.1 2.8 C 75.1 2.8 86.7 2.82 86.7 2.8 Z M 79.6 21.4 C 79.6 21.4 85.8 21.36 85.8 21.4 C 92.7 21.4 95.2 18.7 95.2 14 C 95.2 9.4 92.5 6.8 85.8 6.8 C 85.8 6.78 79.6 6.8 79.6 6.8 L 79.6 21.4 Z M 106.2 2.8 C 106.2 2.8 116.94 2.82 116.9 2.8 C 125.2 2.8 129.4 7.6 129.4 13.8 C 129.4 18.9 126.7 22.4 121.7 23.9 C 124.3 25.3 125.5 26.3 128.9 31.5 C 128.88 31.5 136.8 43.7 136.8 43.7 L 131.5 43.7 C 131.5 43.7 124.26 32.46 124.3 32.5 C 120.5 26.5 118 25.1 114.5 25.1 C 114.48 25.14 110.7 25.1 110.7 25.1 L 110.7 43.7 L 106.2 43.7 L 106.2 2.8 Z M 114.9 21.2 C 120.5 21.2 124.8 19.8 124.8 13.9 C 124.8 8.8 121.6 6.8 116.3 6.8 C 116.34 6.78 110.7 6.8 110.7 6.8 L 110.7 21.2 C 110.7 21.2 114.9 21.18 114.9 21.2 Z M 163.7 2.8 L 163.7 6.8 L 145.8 6.8 L 145.8 21.1 L 163.1 21.1 L 163.1 25.1 L 145.8 25.1 L 145.8 39.7 L 164.2 39.7 L 164.2 43.7 L 141.3 43.7 L 141.3 2.8 L 163.7 2.8 Z M 175.1 2.8 L 204.1 36.7 L 204.1 2.8 L 208.4 2.8 L 208.4 43.7 L 204.5 43.7 L 175.7 10 L 175.7 43.7 L 171.4 43.7 L 171.4 2.8 L 175.1 2.8 Z M 247.5 2.8 L 247.5 6.8 L 232.9 6.8 L 232.9 43.7 L 228.4 43.7 L 228.4 6.8 L 213.9 6.8 L 213.9 2.8 L 247.5 2.8 Z M 257.5 2.8 L 257.5 43.7 L 253 43.7 L 253 2.8 L 257.5 2.8 Z M 300.5 5.5 C 300.5 5.5 300.5 10.4 300.5 10.4 C 296.2 7.9 291.4 6.5 286.6 6.5 C 276.2 6.5 269.6 14.3 269.6 23.3 C 269.6 32.5 276.1 40.1 286.6 40.1 C 291.7 40.1 296.4 38.6 300.8 35.9 C 300.8 35.9 300.8 40.9 300.8 40.9 C 296.2 43.2 291.5 44.3 286.4 44.3 C 272.3 44.3 264.9 33.7 264.9 23.5 C 264.9 11.3 274.3 2.3 286.6 2.3 C 291.2 2.3 295.9 3.4 300.5 5.5 Z M 330.2 2.8 L 330.2 6.8 L 312.4 6.8 L 312.4 21.1 L 329.6 21.1 L 329.6 25.1 L 312.4 25.1 L 312.4 39.7 L 330.7 39.7 L 330.7 43.7 L 307.9 43.7 L 307.9 2.8 L 330.2 2.8 Z M 356.9 4.9 C 356.9 4.9 356.9 10 356.9 10 C 354.1 7.6 351.1 6.4 347.7 6.4 C 343.4 6.4 340.6 8.8 340.6 12.3 C 340.6 15 341.2 17.3 348 20.8 C 356.5 25.1 358.5 28.1 358.5 33.7 C 358.5 39.7 353.8 44.3 346.8 44.3 C 342.9 44.3 339.3 43 336.2 40.7 C 336.2 40.7 336.2 35 336.2 35 C 339.2 38.4 342.8 40.3 346.8 40.3 C 350.9 40.3 353.9 37.7 353.9 33.7 C 353.9 30.2 352.8 28.2 344.9 24.1 C 338.5 20.8 336 17.6 336 12.4 C 336 6.6 341 2.3 347.8 2.3 C 351 2.3 354.2 3.2 356.9 4.9 Z M 386.7 2.8 L 386.7 43.7 L 382.2 43.7 L 382.2 2.8 L 386.7 2.8 Z M 399.6 2.8 L 428.6 36.7 L 428.6 2.8 L 432.9 2.8 L 432.9 43.7 L 428.9 43.7 L 400.2 10 L 400.2 43.7 L 395.9 43.7 L 395.9 2.8 L 399.6 2.8 Z M 492.5 5.5 C 492.5 5.5 492.5 10.4 492.5 10.4 C 488.2 7.9 483.5 6.5 478.7 6.5 C 468.2 6.5 461.6 14.3 461.6 23.3 C 461.6 32.5 468.2 40.1 478.6 40.1 C 483.7 40.1 488.5 38.6 492.8 35.9 C 492.8 35.9 492.8 40.9 492.8 40.9 C 488.3 43.2 483.5 44.3 478.5 44.3 C 464.3 44.3 457 33.7 457 23.5 C 457 11.3 466.3 2.3 478.6 2.3 C 483.2 2.3 487.9 3.4 492.5 5.5 Z M 517.3 2.6 L 535.5 43.7 L 530.9 43.7 L 525.1 30.9 L 506.5 30.9 L 501 43.7 L 496.4 43.7 L 514.1 2.6 L 517.3 2.6 Z M 508.3 26.9 L 523.3 26.9 L 515.6 9.5 L 508.3 26.9 Z M 551.8 2.8 C 560 2.8 565 7 565 14.1 C 565 21.7 559.8 25.3 551 25.3 C 551.04 25.32 544.7 25.3 544.7 25.3 L 544.7 43.7 L 540.2 43.7 L 540.2 2.8 C 540.2 2.8 551.82 2.82 551.8 2.8 Z M 544.7 21.4 C 544.7 21.4 550.92 21.36 550.9 21.4 C 557.8 21.4 560.3 18.7 560.3 14 C 560.3 9.4 557.6 6.8 550.9 6.8 C 550.92 6.78 544.7 6.8 544.7 6.8 L 544.7 21.4 Z M 584.2 2.6 L 602.4 43.7 L 597.8 43.7 L 592 30.9 L 573.4 30.9 L 567.9 43.7 L 563.3 43.7 L 581 2.6 L 584.2 2.6 Z M 575.2 26.9 L 590.2 26.9 L 582.5 9.5 L 575.2 26.9 Z M 617.6 2.8 C 625.3 2.8 630.3 6.7 630.3 13.3 C 630.3 17.6 627.9 20.8 623.5 22.3 C 629.9 23.2 633.8 27.4 633.8 32.8 C 633.8 40.3 627.1 43.7 619.6 43.7 C 619.56 43.74 607.1 43.7 607.1 43.7 L 607.1 2.8 C 607.1 2.8 617.64 2.82 617.6 2.8 Z M 611.5 21 C 611.5 21 616.02 21 616 21 C 622.7 21 625.6 17.9 625.6 13.7 C 625.6 8.9 622.8 6.8 616.7 6.8 C 616.74 6.78 611.5 6.8 611.5 6.8 L 611.5 21 Z M 618.7 39.8 C 625.3 39.8 629.1 37.6 629.1 32.4 C 629.1 27.7 625.8 24.9 618.1 24.9 C 618.06 24.9 611.5 24.9 611.5 24.9 L 611.5 39.8 C 611.5 39.8 618.72 39.78 618.7 39.8 Z M 645 2.8 L 645 39.6 L 664.3 39.6 L 664.3 43.7 L 640.5 43.7 L 640.5 2.8 L 645 2.8 Z M 691.9 2.8 L 691.9 6.8 L 674 6.8 L 674 21.1 L 691.3 21.1 L 691.3 25.1 L 674 25.1 L 674 39.7 L 692.3 39.7 L 692.3 43.7 L 669.5 43.7 L 669.5 2.8 L 691.9 2.8 Z M 720.8 2.8 L 720.8 21.1 L 745.6 21.1 L 745.6 2.8 L 750.1 2.8 L 750.1 43.7 L 745.6 43.7 L 745.6 25.2 L 720.8 25.2 L 720.8 43.7 L 716.3 43.7 L 716.3 2.8 L 720.8 2.8 Z M 775.7 2.6 L 793.9 43.7 L 789.3 43.7 L 783.5 30.9 L 764.9 30.9 L 759.4 43.7 L 754.8 43.7 L 772.5 2.6 L 775.7 2.6 Z M 766.7 26.9 L 781.7 26.9 L 774 9.5 L 766.7 26.9 Z M 802.3 2.8 L 831.3 36.7 L 831.3 2.8 L 835.6 2.8 L 835.6 43.7 L 831.7 43.7 L 802.9 10 L 802.9 43.7 L 798.6 43.7 L 798.6 2.8 L 802.3 2.8 Z M 844.8 2.8 C 844.8 2.8 859.85 2.82 859.9 2.8 C 873.2 2.8 881.9 11.2 881.9 22.9 C 881.9 35.6 872.9 43.7 859.9 43.7 C 859.85 43.74 844.8 43.7 844.8 43.7 L 844.8 2.8 Z M 859.8 39.7 C 870.5 39.7 877.2 33.3 877.2 23.2 C 877.2 13.3 870.7 6.8 859.1 6.8 C 859.13 6.84 849.3 6.8 849.3 6.8 L 849.3 39.7 C 849.3 39.7 859.79 39.66 859.8 39.7 Z M 908.3 4.9 C 908.3 4.9 908.3 10 908.3 10 C 905.5 7.6 902.5 6.4 899.1 6.4 C 894.8 6.4 892 8.8 892 12.3 C 892 15 892.6 17.3 899.4 20.8 C 907.9 25.1 909.9 28.1 909.9 33.7 C 909.9 39.7 905.2 44.3 898.2 44.3 C 894.3 44.3 890.7 43 887.6 40.7 C 887.6 40.7 887.6 35 887.6 35 C 890.6 38.4 894.2 40.3 898.2 40.3 C 902.3 40.3 905.3 37.7 905.3 33.7 C 905.3 30.2 904.2 28.2 896.3 24.1 C 889.9 20.8 887.4 17.6 887.4 12.4 C 887.4 6.6 892.4 2.3 899.2 2.3 C 902.4 2.3 905.6 3.2 908.3 4.9 Z " stroke="none" fill="#010102"/>  </g></svg>