<?xml version="1.0" standalone="no"?><!DOCTYPE svg PUBLIC "-//W3C//DTD SVG 1.1//EN" "http://www.w3.org/Graphics/SVG/1.1/DTD/svg11.dtd"><svg xmlns="http://www.w3.org/2000/svg" version="1.1" width="711.4px" height="82.1px" viewBox="0 -8 711.4 82.1" style="top:-8px">  <desc>Advanced Problem Solving &amp; Decision Making When Dealing With Customers In Arrears</desc>  <defs/>  <g id="Polygon49909">    <path d="M 0 37.4 L 2.3 37.4 L 8.5 53 L 8.5 53 L 14.5 37.4 L 16.6 37.4 L 22.7 52.9 L 22.8 52.9 L 28.8 37.4 L 31 37.4 L 22.9 58 L 22.4 58 L 15.5 40.6 L 8.7 58 L 8.2 58 L 0 37.4 Z M 35.7 37.4 L 35.7 46.5 L 48.1 46.5 L 48.1 37.4 L 50.3 37.4 L 50.3 57.9 L 48.1 57.9 L 48.1 48.6 L 35.7 48.6 L 35.7 57.9 L 33.4 57.9 L 33.4 37.4 L 35.7 37.4 Z M 66.1 37.4 L 66.1 39.4 L 57.2 39.4 L 57.2 46.6 L 65.8 46.6 L 65.8 48.6 L 57.2 48.6 L 57.2 55.8 L 66.4 55.8 L 66.4 57.9 L 54.9 57.9 L 54.9 37.4 L 66.1 37.4 Z M 71.8 37.4 L 86.3 54.3 L 86.3 37.4 L 88.5 37.4 L 88.5 57.9 L 86.5 57.9 L 72.1 41 L 72.1 57.9 L 70 57.9 L 70 37.4 L 71.8 37.4 Z M 101.4 37.4 C 101.4 37.4 108.96 37.41 109 37.4 C 115.6 37.4 120 41.6 120 47.4 C 120 53.8 115.5 57.9 109 57.9 C 108.96 57.87 101.4 57.9 101.4 57.9 L 101.4 37.4 Z M 108.9 55.8 C 114.3 55.8 117.6 52.6 117.6 47.6 C 117.6 42.7 114.4 39.4 108.6 39.4 C 108.6 39.42 103.7 39.4 103.7 39.4 L 103.7 55.8 C 103.7 55.8 108.93 55.83 108.9 55.8 Z M 134.9 37.4 L 134.9 39.4 L 126 39.4 L 126 46.6 L 134.6 46.6 L 134.6 48.6 L 126 48.6 L 126 55.8 L 135.1 55.8 L 135.1 57.9 L 123.7 57.9 L 123.7 37.4 L 134.9 37.4 Z M 147.7 37.3 L 156.8 57.9 L 154.5 57.9 L 151.6 51.4 L 142.3 51.4 L 139.5 57.9 L 137.2 57.9 L 146.1 37.3 L 147.7 37.3 Z M 143.2 49.4 L 150.7 49.4 L 146.8 40.7 L 143.2 49.4 Z M 161.4 37.4 L 161.4 55.8 L 171 55.8 L 171 57.9 L 159.1 57.9 L 159.1 37.4 L 161.4 37.4 Z M 175.9 37.4 L 175.9 57.9 L 173.6 57.9 L 173.6 37.4 L 175.9 37.4 Z M 182.3 37.4 L 196.8 54.3 L 196.8 37.4 L 199 37.4 L 199 57.9 L 197 57.9 L 182.6 41 L 182.6 57.9 L 180.4 57.9 L 180.4 37.4 L 182.3 37.4 Z M 220.4 41.2 C 218.2 39.8 215.7 39.1 213.4 39.1 C 208.6 39.1 205 42.7 205 47.5 C 205 52.6 208.5 56.1 213.6 56.1 C 215.3 56.1 216.5 55.9 218.6 55.1 C 218.61 55.08 218.6 50.1 218.6 50.1 L 214.4 50.1 L 214.4 48.1 L 220.9 48.1 C 220.9 48.1 220.86 56.46 220.9 56.5 C 218.5 57.6 216.2 58.1 213.6 58.1 C 206.2 58.1 202.6 53 202.6 47.8 C 202.6 41.9 206.9 37.1 213.5 37.1 C 215.8 37.1 217.7 37.6 220.4 38.8 C 220.4 38.8 220.4 41.2 220.4 41.2 Z M 231.2 37.4 L 233.5 37.4 L 239.6 53 L 239.7 53 L 245.7 37.4 L 247.7 37.4 L 253.9 52.9 L 253.9 52.9 L 259.9 37.4 L 262.2 37.4 L 254.1 58 L 253.6 58 L 246.7 40.6 L 239.9 58 L 239.4 58 L 231.2 37.4 Z M 266.8 37.4 L 266.8 57.9 L 264.6 57.9 L 264.6 37.4 L 266.8 37.4 Z M 286.4 37.4 L 286.4 39.4 L 279.1 39.4 L 279.1 57.9 L 276.8 57.9 L 276.8 39.4 L 269.6 39.4 L 269.6 37.4 L 286.4 37.4 Z M 291.4 37.4 L 291.4 46.5 L 303.8 46.5 L 303.8 37.4 L 306.1 37.4 L 306.1 57.9 L 303.8 57.9 L 303.8 48.6 L 291.4 48.6 L 291.4 57.9 L 289.1 57.9 L 289.1 37.4 L 291.4 37.4 Z M 335.9 38.8 C 335.9 38.8 335.9 41.2 335.9 41.2 C 333.7 40 331.3 39.2 328.9 39.2 C 323.7 39.2 320.4 43.2 320.4 47.7 C 320.4 52.3 323.7 56 328.9 56 C 331.5 56 333.8 55.3 336 53.9 C 336 53.9 336 56.4 336 56.4 C 333.7 57.6 331.4 58.1 328.9 58.1 C 321.8 58.1 318.1 52.8 318.1 47.7 C 318.1 41.6 322.8 37.1 328.9 37.1 C 331.2 37.1 333.6 37.7 335.9 38.8 Z M 341.5 37.4 C 341.5 37.4 341.55 49.2 341.5 49.2 C 341.5 53.7 343.7 56.1 347.9 56.1 C 352.1 56.1 354.2 53.6 354.2 49.2 C 354.21 49.2 354.2 37.4 354.2 37.4 L 356.5 37.4 C 356.5 37.4 356.46 49.2 356.5 49.2 C 356.5 54.6 353.6 58.1 347.9 58.1 C 342.3 58.1 339.3 54.9 339.3 49.2 C 339.3 49.2 339.3 37.4 339.3 37.4 L 341.5 37.4 Z M 370.3 38.5 C 370.3 38.5 370.3 41 370.3 41 C 368.9 39.8 367.3 39.2 365.7 39.2 C 363.5 39.2 362.1 40.4 362.1 42.1 C 362.1 43.5 362.4 44.7 365.8 46.4 C 370 48.6 371.1 50 371.1 52.8 C 371.1 55.9 368.7 58.1 365.2 58.1 C 363.3 58.1 361.5 57.5 359.9 56.3 C 359.9 56.3 359.9 53.5 359.9 53.5 C 361.4 55.2 363.2 56.1 365.2 56.1 C 367.3 56.1 368.8 54.8 368.8 52.9 C 368.8 51.1 368.2 50.1 364.3 48 C 361 46.4 359.8 44.8 359.8 42.2 C 359.8 39.3 362.3 37.1 365.7 37.1 C 367.3 37.1 368.9 37.6 370.3 38.5 Z M 389.5 37.4 L 389.5 39.4 L 382.2 39.4 L 382.2 57.9 L 379.9 57.9 L 379.9 39.4 L 372.7 39.4 L 372.7 37.4 L 389.5 37.4 Z M 411.6 47.5 C 411.6 53.3 407.4 58.1 400.7 58.1 C 394.3 58.1 390.1 53.3 390.1 47.8 C 390.1 42.1 394.1 37.1 400.8 37.1 C 407.3 37.1 411.6 41.9 411.6 47.5 Z M 392.4 47.7 C 392.4 52.5 396.1 56 400.7 56 C 406.8 56 409.3 51.3 409.3 47.6 C 409.3 43.5 406.2 39.3 400.9 39.3 C 395.3 39.3 392.4 43.5 392.4 47.7 Z M 415.3 37.4 L 417.4 37.4 L 424.7 46.4 L 431.9 37.4 L 434 37.4 L 434 57.9 L 431.8 57.9 L 431.8 41 L 431.7 41 L 424.9 49.5 L 424.5 49.5 L 417.6 41 L 417.6 41 L 417.6 57.9 L 415.3 57.9 L 415.3 37.4 Z M 449.8 37.4 L 449.8 39.4 L 440.9 39.4 L 440.9 46.6 L 449.5 46.6 L 449.5 48.6 L 440.9 48.6 L 440.9 55.8 L 450.1 55.8 L 450.1 57.9 L 438.6 57.9 L 438.6 37.4 L 449.8 37.4 Z M 453.7 37.4 C 453.7 37.4 459.06 37.41 459.1 37.4 C 463.2 37.4 465.3 39.8 465.3 42.9 C 465.3 45.4 463.9 47.2 461.4 47.9 C 462.7 48.6 463.3 49.2 465 51.7 C 465.03 51.75 469 57.9 469 57.9 L 466.3 57.9 C 466.3 57.9 462.72 52.23 462.7 52.2 C 460.8 49.2 459.6 48.6 457.8 48.6 C 457.83 48.57 455.9 48.6 455.9 48.6 L 455.9 57.9 L 453.7 57.9 L 453.7 37.4 Z M 458 46.6 C 460.9 46.6 463 45.9 463 42.9 C 463 40.4 461.4 39.4 458.8 39.4 C 458.76 39.39 455.9 39.4 455.9 39.4 L 455.9 46.6 C 455.9 46.6 458.04 46.59 458 46.6 Z M 481.2 38.5 C 481.2 38.5 481.2 41 481.2 41 C 479.8 39.8 478.3 39.2 476.6 39.2 C 474.4 39.2 473 40.4 473 42.1 C 473 43.5 473.3 44.7 476.7 46.4 C 481 48.6 482 50 482 52.8 C 482 55.9 479.6 58.1 476.1 58.1 C 474.2 58.1 472.4 57.5 470.8 56.3 C 470.8 56.3 470.8 53.5 470.8 53.5 C 472.3 55.2 474.1 56.1 476.1 56.1 C 478.2 56.1 479.7 54.8 479.7 52.9 C 479.7 51.1 479.1 50.1 475.2 48 C 472 46.4 470.7 44.8 470.7 42.2 C 470.7 39.3 473.2 37.1 476.6 37.1 C 478.2 37.1 479.8 37.6 481.2 38.5 Z M 496.1 37.4 L 496.1 57.9 L 493.8 57.9 L 493.8 37.4 L 496.1 37.4 Z M 502.5 37.4 L 517 54.3 L 517 37.4 L 519.2 37.4 L 519.2 57.9 L 517.2 57.9 L 502.8 41 L 502.8 57.9 L 500.7 57.9 L 500.7 37.4 L 502.5 37.4 Z M 540.3 37.3 L 549.4 57.9 L 547.1 57.9 L 544.2 51.4 L 534.9 51.4 L 532.2 57.9 L 529.9 57.9 L 538.7 37.3 L 540.3 37.3 Z M 535.8 49.4 L 543.3 49.4 L 539.5 40.7 L 535.8 49.4 Z M 551.8 37.4 C 551.8 37.4 557.13 37.41 557.1 37.4 C 561.2 37.4 563.4 39.8 563.4 42.9 C 563.4 45.4 562 47.2 559.5 47.9 C 560.8 48.6 561.4 49.2 563.1 51.7 C 563.1 51.75 567.1 57.9 567.1 57.9 L 564.4 57.9 C 564.4 57.9 560.79 52.23 560.8 52.2 C 558.9 49.2 557.6 48.6 555.9 48.6 C 555.9 48.57 554 48.6 554 48.6 L 554 57.9 L 551.8 57.9 L 551.8 37.4 Z M 556.1 46.6 C 558.9 46.6 561.1 45.9 561.1 42.9 C 561.1 40.4 559.4 39.4 556.8 39.4 C 556.83 39.39 554 39.4 554 39.4 L 554 46.6 C 554 46.6 556.11 46.59 556.1 46.6 Z M 569.3 37.4 C 569.3 37.4 574.67 37.41 574.7 37.4 C 578.8 37.4 580.9 39.8 580.9 42.9 C 580.9 45.4 579.5 47.2 577 47.9 C 578.4 48.6 579 49.2 580.6 51.7 C 580.64 51.75 584.6 57.9 584.6 57.9 L 581.9 57.9 C 581.9 57.9 578.33 52.23 578.3 52.2 C 576.4 49.2 575.2 48.6 573.4 48.6 C 573.44 48.57 571.6 48.6 571.6 48.6 L 571.6 57.9 L 569.3 57.9 L 569.3 37.4 Z M 573.7 46.6 C 576.5 46.6 578.6 45.9 578.6 42.9 C 578.6 40.4 577 39.4 574.4 39.4 C 574.37 39.39 571.6 39.4 571.6 39.4 L 571.6 46.6 C 571.6 46.6 573.65 46.59 573.7 46.6 Z M 598 37.4 L 598 39.4 L 589.1 39.4 L 589.1 46.6 L 597.7 46.6 L 597.7 48.6 L 589.1 48.6 L 589.1 55.8 L 598.3 55.8 L 598.3 57.9 L 586.9 57.9 L 586.9 37.4 L 598 37.4 Z M 610.8 37.3 L 619.9 57.9 L 617.6 57.9 L 614.7 51.4 L 605.4 51.4 L 602.7 57.9 L 600.4 57.9 L 609.2 37.3 L 610.8 37.3 Z M 606.3 49.4 L 613.8 49.4 L 610 40.7 L 606.3 49.4 Z M 622.3 37.4 C 622.3 37.4 627.62 37.41 627.6 37.4 C 631.7 37.4 633.9 39.8 633.9 42.9 C 633.9 45.4 632.5 47.2 630 47.9 C 631.3 48.6 631.9 49.2 633.6 51.7 C 633.59 51.75 637.6 57.9 637.6 57.9 L 634.9 57.9 C 634.9 57.9 631.28 52.23 631.3 52.2 C 629.4 49.2 628.1 48.6 626.4 48.6 C 626.39 48.57 624.5 48.6 624.5 48.6 L 624.5 57.9 L 622.3 57.9 L 622.3 37.4 Z M 626.6 46.6 C 629.4 46.6 631.6 45.9 631.6 42.9 C 631.6 40.4 629.9 39.4 627.3 39.4 C 627.32 39.39 624.5 39.4 624.5 39.4 L 624.5 46.6 C 624.5 46.6 626.6 46.59 626.6 46.6 Z M 649.8 38.5 C 649.8 38.5 649.8 41 649.8 41 C 648.4 39.8 646.8 39.2 645.1 39.2 C 643 39.2 641.6 40.4 641.6 42.1 C 641.6 43.5 641.9 44.7 645.3 46.4 C 649.5 48.6 650.5 50 650.5 52.8 C 650.5 55.9 648.2 58.1 644.7 58.1 C 642.7 58.1 640.9 57.5 639.4 56.3 C 639.4 56.3 639.4 53.5 639.4 53.5 C 640.9 55.2 642.7 56.1 644.7 56.1 C 646.8 56.1 648.3 54.8 648.3 52.9 C 648.3 51.1 647.7 50.1 643.7 48 C 640.5 46.4 639.3 44.8 639.3 42.2 C 639.3 39.3 641.8 37.1 645.2 37.1 C 646.8 37.1 648.4 37.6 649.8 38.5 Z " stroke="none" fill="#000000"/>  </g>  <g id="Polygon49908">    <path d="M 10.5 1.3 L 19.6 21.9 L 17.3 21.9 L 14.4 15.4 L 5.1 15.4 L 2.4 21.9 L 0.1 21.9 L 8.9 1.3 L 10.5 1.3 Z M 6 13.4 L 13.5 13.4 L 9.7 4.7 L 6 13.4 Z M 22 1.4 C 22 1.4 29.49 1.41 29.5 1.4 C 36.2 1.4 40.5 5.6 40.5 11.4 C 40.5 17.8 36 21.9 29.5 21.9 C 29.49 21.87 22 21.9 22 21.9 L 22 1.4 Z M 29.5 19.8 C 34.8 19.8 38.2 16.6 38.2 11.6 C 38.2 6.7 34.9 3.4 29.1 3.4 C 29.13 3.42 24.2 3.4 24.2 3.4 L 24.2 19.8 C 24.2 19.8 29.46 19.83 29.5 19.8 Z M 41.1 1.4 L 43.3 1.4 L 50 17.3 L 50 17.3 L 56.7 1.4 L 58.9 1.4 L 50.3 22.1 L 49.8 22.1 L 41.1 1.4 Z M 67.7 1.3 L 76.9 21.9 L 74.5 21.9 L 71.7 15.4 L 62.4 15.4 L 59.6 21.9 L 57.3 21.9 L 66.1 1.3 L 67.7 1.3 Z M 63.2 13.4 L 70.8 13.4 L 66.9 4.7 L 63.2 13.4 Z M 81.1 1.4 L 95.5 18.3 L 95.5 1.4 L 97.7 1.4 L 97.7 21.9 L 95.7 21.9 L 81.4 5 L 81.4 21.9 L 79.2 21.9 L 79.2 1.4 L 81.1 1.4 Z M 119.2 2.8 C 119.2 2.8 119.2 5.2 119.2 5.2 C 117 4 114.7 3.2 112.3 3.2 C 107 3.2 103.7 7.2 103.7 11.7 C 103.7 16.3 107 20 112.2 20 C 114.8 20 117.1 19.3 119.3 17.9 C 119.3 17.9 119.3 20.4 119.3 20.4 C 117.1 21.6 114.7 22.1 112.2 22.1 C 105.1 22.1 101.4 16.8 101.4 11.7 C 101.4 5.6 106.1 1.1 112.2 1.1 C 114.5 1.1 116.9 1.7 119.2 2.8 Z M 134.1 1.4 L 134.1 3.4 L 125.1 3.4 L 125.1 10.6 L 133.8 10.6 L 133.8 12.6 L 125.1 12.6 L 125.1 19.8 L 134.3 19.8 L 134.3 21.9 L 122.9 21.9 L 122.9 1.4 L 134.1 1.4 Z M 137.9 1.4 C 137.9 1.4 145.47 1.41 145.5 1.4 C 152.2 1.4 156.5 5.6 156.5 11.4 C 156.5 17.8 152 21.9 145.5 21.9 C 145.47 21.87 137.9 21.9 137.9 21.9 L 137.9 1.4 Z M 145.4 19.8 C 150.8 19.8 154.1 16.6 154.1 11.6 C 154.1 6.7 150.9 3.4 145.1 3.4 C 145.11 3.42 140.2 3.4 140.2 3.4 L 140.2 19.8 C 140.2 19.8 145.44 19.83 145.4 19.8 Z M 174.2 1.4 C 178.3 1.4 180.8 3.5 180.8 7 C 180.8 10.9 178.2 12.7 173.8 12.7 C 173.83 12.66 170.7 12.7 170.7 12.7 L 170.7 21.9 L 168.4 21.9 L 168.4 1.4 C 168.4 1.4 174.22 1.41 174.2 1.4 Z M 170.7 10.7 C 170.7 10.7 173.77 10.68 173.8 10.7 C 177.2 10.7 178.5 9.3 178.5 7 C 178.5 4.7 177.1 3.4 173.8 3.4 C 173.77 3.39 170.7 3.4 170.7 3.4 L 170.7 10.7 Z M 184 1.4 C 184 1.4 189.34 1.41 189.3 1.4 C 193.5 1.4 195.6 3.8 195.6 6.9 C 195.6 9.4 194.2 11.2 191.7 11.9 C 193 12.6 193.6 13.2 195.3 15.7 C 195.31 15.75 199.3 21.9 199.3 21.9 L 196.6 21.9 C 196.6 21.9 193 16.23 193 16.2 C 191.1 13.2 189.9 12.6 188.1 12.6 C 188.11 12.57 186.2 12.6 186.2 12.6 L 186.2 21.9 L 184 21.9 L 184 1.4 Z M 188.3 10.6 C 191.1 10.6 193.3 9.9 193.3 6.9 C 193.3 4.4 191.7 3.4 189 3.4 C 189.04 3.39 186.2 3.4 186.2 3.4 L 186.2 10.6 C 186.2 10.6 188.32 10.59 188.3 10.6 Z M 221.6 11.5 C 221.6 17.3 217.4 22.1 210.6 22.1 C 204.3 22.1 200 17.3 200 11.8 C 200 6.1 204.1 1.1 210.7 1.1 C 217.3 1.1 221.6 5.9 221.6 11.5 Z M 202.3 11.7 C 202.3 16.5 206.1 20 210.7 20 C 216.8 20 219.3 15.3 219.3 11.6 C 219.3 7.5 216.2 3.3 210.9 3.3 C 205.3 3.3 202.3 7.5 202.3 11.7 Z M 230.6 1.4 C 234.4 1.4 236.9 3.4 236.9 6.6 C 236.9 8.8 235.7 10.4 233.5 11.1 C 236.7 11.6 238.6 13.7 238.6 16.4 C 238.6 20.2 235.3 21.9 231.5 21.9 C 231.52 21.87 225.3 21.9 225.3 21.9 L 225.3 1.4 C 225.3 1.4 230.56 1.41 230.6 1.4 Z M 227.5 10.5 C 227.5 10.5 229.75 10.5 229.8 10.5 C 233.1 10.5 234.6 8.9 234.6 6.8 C 234.6 4.5 233.1 3.4 230.1 3.4 C 230.11 3.39 227.5 3.4 227.5 3.4 L 227.5 10.5 Z M 231.1 19.9 C 234.4 19.9 236.3 18.8 236.3 16.2 C 236.3 13.8 234.6 12.4 230.8 12.4 C 230.77 12.45 227.5 12.4 227.5 12.4 L 227.5 19.9 C 227.5 19.9 231.1 19.89 231.1 19.9 Z M 244.2 1.4 L 244.2 19.8 L 253.9 19.8 L 253.9 21.9 L 242 21.9 L 242 1.4 L 244.2 1.4 Z M 267.7 1.4 L 267.7 3.4 L 258.7 3.4 L 258.7 10.6 L 267.4 10.6 L 267.4 12.6 L 258.7 12.6 L 258.7 19.8 L 267.9 19.8 L 267.9 21.9 L 256.5 21.9 L 256.5 1.4 L 267.7 1.4 Z M 271.5 1.4 L 273.7 1.4 L 280.9 10.4 L 288.1 1.4 L 290.2 1.4 L 290.2 21.9 L 288 21.9 L 288 5 L 287.9 5 L 281.1 13.5 L 280.7 13.5 L 273.9 5 L 273.8 5 L 273.8 21.9 L 271.5 21.9 L 271.5 1.4 Z M 312.5 2.5 C 312.5 2.5 312.5 5 312.5 5 C 311.1 3.8 309.6 3.2 307.9 3.2 C 305.7 3.2 304.3 4.4 304.3 6.1 C 304.3 7.5 304.6 8.7 308 10.4 C 312.3 12.6 313.3 14 313.3 16.8 C 313.3 19.9 310.9 22.1 307.4 22.1 C 305.5 22.1 303.7 21.5 302.1 20.3 C 302.1 20.3 302.1 17.5 302.1 17.5 C 303.7 19.2 305.5 20.1 307.4 20.1 C 309.5 20.1 311 18.8 311 16.9 C 311 15.1 310.4 14.1 306.5 12 C 303.3 10.4 302 8.8 302 6.2 C 302 3.3 304.5 1.1 307.9 1.1 C 309.5 1.1 311.1 1.6 312.5 2.5 Z M 337.5 11.5 C 337.5 17.3 333.3 22.1 326.5 22.1 C 320.2 22.1 315.9 17.3 315.9 11.8 C 315.9 6.1 320 1.1 326.6 1.1 C 333.1 1.1 337.5 5.9 337.5 11.5 Z M 318.2 11.7 C 318.2 16.5 322 20 326.5 20 C 332.6 20 335.1 15.3 335.1 11.6 C 335.1 7.5 332.1 3.3 326.7 3.3 C 321.1 3.3 318.2 7.5 318.2 11.7 Z M 343.4 1.4 L 343.4 19.8 L 353 19.8 L 353 21.9 L 341.2 21.9 L 341.2 1.4 L 343.4 1.4 Z M 350.7 1.4 L 353 1.4 L 359.6 17.3 L 359.7 17.3 L 366.3 1.4 L 368.5 1.4 L 359.9 22.1 L 359.4 22.1 L 350.7 1.4 Z M 373.1 1.4 L 373.1 21.9 L 370.9 21.9 L 370.9 1.4 L 373.1 1.4 Z M 379.6 1.4 L 394.1 18.3 L 394.1 1.4 L 396.2 1.4 L 396.2 21.9 L 394.3 21.9 L 379.9 5 L 379.9 21.9 L 377.7 21.9 L 377.7 1.4 L 379.6 1.4 Z M 417.7 5.2 C 415.5 3.8 413 3.1 410.7 3.1 C 405.9 3.1 402.3 6.7 402.3 11.5 C 402.3 16.6 405.7 20.1 410.8 20.1 C 412.6 20.1 413.8 19.9 415.9 19.1 C 415.88 19.08 415.9 14.1 415.9 14.1 L 411.7 14.1 L 411.7 12.1 L 418.1 12.1 C 418.1 12.1 418.13 20.46 418.1 20.5 C 415.8 21.6 413.5 22.1 410.8 22.1 C 403.5 22.1 399.9 17 399.9 11.8 C 399.9 5.9 404.2 1.1 410.8 1.1 C 413.1 1.1 415 1.6 417.7 2.8 C 417.7 2.8 417.7 5.2 417.7 5.2 Z M 441.1 15.6 C 442 14.5 442.8 13.1 443.4 11.7 C 443.4 11.7 445.6 11.7 445.6 11.7 C 445 13.4 444 15.3 442.5 17.2 C 442.9 17.5 443.2 18 443.6 18.3 C 443.55 18.33 446.8 21.9 446.8 21.9 L 443.9 21.9 C 443.9 21.9 441.03 18.72 441 18.7 C 439.3 20.5 437 22.1 434.3 22.1 C 431.5 22.1 429.1 20.1 429.1 17.3 C 429.1 14.7 431.2 12.8 434.1 11.2 C 432.4 9.4 431.5 7.8 431.5 6.4 C 431.4 6.1 431.4 5.7 431.5 5.4 C 431.8 3.4 433.3 1.6 436.4 1.6 C 439.6 1.6 441.3 3.8 441.3 6 C 441.3 7.9 440.3 9.5 437.3 11.5 C 437.3 11.5 441.1 15.6 441.1 15.6 Z M 435.4 12.6 C 435.4 12.6 434.04 13.53 434 13.5 C 432.2 14.7 431.3 15.8 431.3 17.2 C 431.3 18.6 432.4 19.8 434.1 19.9 C 434.3 20 434.6 20 434.9 20 C 436.9 19.8 438.3 18.7 439.7 17.2 C 439.65 17.19 435.4 12.6 435.4 12.6 Z M 439.2 6.1 C 439.2 4.6 438 3.5 436.4 3.5 C 434.8 3.5 433.6 4.5 433.6 5.9 C 433.6 7.4 435 9 436 10 C 438.3 8.6 439.2 7.5 439.2 6.1 Z M 457.3 1.4 C 457.3 1.4 464.81 1.41 464.8 1.4 C 471.5 1.4 475.8 5.6 475.8 11.4 C 475.8 17.8 471.3 21.9 464.8 21.9 C 464.81 21.87 457.3 21.9 457.3 21.9 L 457.3 1.4 Z M 464.8 19.8 C 470.1 19.8 473.5 16.6 473.5 11.6 C 473.5 6.7 470.2 3.4 464.4 3.4 C 464.45 3.42 459.5 3.4 459.5 3.4 L 459.5 19.8 C 459.5 19.8 464.78 19.83 464.8 19.8 Z M 490.8 1.4 L 490.8 3.4 L 481.8 3.4 L 481.8 10.6 L 490.5 10.6 L 490.5 12.6 L 481.8 12.6 L 481.8 19.8 L 491 19.8 L 491 21.9 L 479.6 21.9 L 479.6 1.4 L 490.8 1.4 Z M 511.5 2.8 C 511.5 2.8 511.5 5.2 511.5 5.2 C 509.4 4 507 3.2 504.6 3.2 C 499.4 3.2 496.1 7.2 496.1 11.7 C 496.1 16.3 499.3 20 504.6 20 C 507.1 20 509.5 19.3 511.7 17.9 C 511.7 17.9 511.7 20.4 511.7 20.4 C 509.4 21.6 507 22.1 504.5 22.1 C 497.4 22.1 493.7 16.8 493.7 11.7 C 493.7 5.6 498.4 1.1 504.6 1.1 C 506.9 1.1 509.2 1.7 511.5 2.8 Z M 517.5 1.4 L 517.5 21.9 L 515.2 21.9 L 515.2 1.4 L 517.5 1.4 Z M 531.9 2.5 C 531.9 2.5 531.9 5 531.9 5 C 530.5 3.8 528.9 3.2 527.3 3.2 C 525.1 3.2 523.7 4.4 523.7 6.1 C 523.7 7.5 524 8.7 527.4 10.4 C 531.6 12.6 532.7 14 532.7 16.8 C 532.7 19.9 530.3 22.1 526.8 22.1 C 524.9 22.1 523.1 21.5 521.5 20.3 C 521.5 20.3 521.5 17.5 521.5 17.5 C 523 19.2 524.8 20.1 526.8 20.1 C 528.9 20.1 530.4 18.8 530.4 16.9 C 530.4 15.1 529.8 14.1 525.9 12 C 522.6 10.4 521.4 8.8 521.4 6.2 C 521.4 3.3 523.9 1.1 527.3 1.1 C 528.9 1.1 530.5 1.6 531.9 2.5 Z M 538.4 1.4 L 538.4 21.9 L 536.2 21.9 L 536.2 1.4 L 538.4 1.4 Z M 563.7 11.5 C 563.7 17.3 559.5 22.1 552.7 22.1 C 546.4 22.1 542.1 17.3 542.1 11.8 C 542.1 6.1 546.2 1.1 552.8 1.1 C 559.4 1.1 563.7 5.9 563.7 11.5 Z M 544.4 11.7 C 544.4 16.5 548.2 20 552.8 20 C 558.9 20 561.3 15.3 561.3 11.6 C 561.3 7.5 558.3 3.3 552.9 3.3 C 547.4 3.3 544.4 7.5 544.4 11.7 Z M 569.2 1.4 L 583.7 18.3 L 583.7 1.4 L 585.9 1.4 L 585.9 21.9 L 583.9 21.9 L 569.5 5 L 569.5 21.9 L 567.4 21.9 L 567.4 1.4 L 569.2 1.4 Z M 597.2 14 L 597.2 16.2 L 589.9 16.2 L 589.9 14 L 597.2 14 Z M 601.2 1.4 L 603.3 1.4 L 610.5 10.4 L 617.7 1.4 L 619.8 1.4 L 619.8 21.9 L 617.6 21.9 L 617.6 5 L 617.5 5 L 610.7 13.5 L 610.3 13.5 L 603.5 5 L 603.4 5 L 603.4 21.9 L 601.2 21.9 L 601.2 1.4 Z M 632.7 1.3 L 641.8 21.9 L 639.5 21.9 L 636.6 15.4 L 627.3 15.4 L 624.5 21.9 L 622.2 21.9 L 631.1 1.3 L 632.7 1.3 Z M 628.2 13.4 L 635.7 13.4 L 631.8 4.7 L 628.2 13.4 Z M 646.4 1.4 L 646.4 11 L 655.3 1.4 L 658.2 1.4 L 649 11.2 L 660 21.9 L 656.9 21.9 L 646.4 11.7 L 646.4 21.9 L 644.1 21.9 L 644.1 1.4 L 646.4 1.4 Z M 664.4 1.4 L 664.4 21.9 L 662.2 21.9 L 662.2 1.4 L 664.4 1.4 Z M 670.9 1.4 L 685.4 18.3 L 685.4 1.4 L 687.5 1.4 L 687.5 21.9 L 685.5 21.9 L 671.2 5 L 671.2 21.9 L 669 21.9 L 669 1.4 L 670.9 1.4 Z M 709 5.2 C 706.8 3.8 704.3 3.1 702 3.1 C 697.2 3.1 693.6 6.7 693.6 11.5 C 693.6 16.6 697 20.1 702.1 20.1 C 703.8 20.1 705.1 19.9 707.2 19.1 C 707.17 19.08 707.2 14.1 707.2 14.1 L 703 14.1 L 703 12.1 L 709.4 12.1 C 709.4 12.1 709.42 20.46 709.4 20.5 C 707.1 21.6 704.8 22.1 702.1 22.1 C 694.8 22.1 691.2 17 691.2 11.8 C 691.2 5.9 695.5 1.1 702 1.1 C 704.4 1.1 706.3 1.6 709 2.8 C 709 2.8 709 5.2 709 5.2 Z " stroke="none" fill="#000000"/>  </g></svg>