<?xml version="1.0" standalone="no"?><!DOCTYPE svg PUBLIC "-//W3C//DTD SVG 1.1//EN" "http://www.w3.org/Graphics/SVG/1.1/DTD/svg11.dtd"><svg xmlns="http://www.w3.org/2000/svg" version="1.1" width="713px" height="90.3px" viewBox="0 -14 713 90.3" style="top:-14px">  <desc>Introduction to DSW</desc>  <defs/>  <g id="Polygon15779">    <path d="M 9.1 2.8 L 9.1 43.7 L 4.6 43.7 L 4.6 2.8 L 9.1 2.8 Z M 22 2.8 L 51 36.7 L 51 2.8 L 55.3 2.8 L 55.3 43.7 L 51.4 43.7 L 22.6 10 L 22.6 43.7 L 18.3 43.7 L 18.3 2.8 L 22 2.8 Z M 94.4 2.8 L 94.4 6.8 L 79.7 6.8 L 79.7 43.7 L 75.2 43.7 L 75.2 6.8 L 60.8 6.8 L 60.8 2.8 L 94.4 2.8 Z M 99.9 2.8 C 99.9 2.8 110.64 2.82 110.6 2.8 C 118.9 2.8 123.1 7.6 123.1 13.8 C 123.1 18.9 120.4 22.4 115.4 23.9 C 118 25.3 119.2 26.3 122.6 31.5 C 122.58 31.5 130.5 43.7 130.5 43.7 L 125.2 43.7 C 125.2 43.7 117.96 32.46 118 32.5 C 114.2 26.5 111.7 25.1 108.2 25.1 C 108.18 25.14 104.4 25.1 104.4 25.1 L 104.4 43.7 L 99.9 43.7 L 99.9 2.8 Z M 108.6 21.2 C 114.2 21.2 118.5 19.8 118.5 13.9 C 118.5 8.8 115.3 6.8 110 6.8 C 110.04 6.78 104.4 6.8 104.4 6.8 L 104.4 21.2 C 104.4 21.2 108.6 21.18 108.6 21.2 Z M 175.1 23.1 C 175.1 34.6 166.7 44.3 153.2 44.3 C 140.5 44.3 132 34.6 132 23.5 C 132 12.1 140.2 2.3 153.4 2.3 C 166.5 2.3 175.1 11.8 175.1 23.1 Z M 136.6 23.3 C 136.6 33 144.1 40.1 153.3 40 C 165.5 40 170.5 30.6 170.5 23.2 C 170.5 14.9 164.3 6.5 153.7 6.5 C 142.5 6.5 136.6 15 136.6 23.3 Z M 182.5 2.8 C 182.5 2.8 197.58 2.82 197.6 2.8 C 211 2.8 219.6 11.2 219.6 22.9 C 219.6 35.6 210.6 43.7 197.6 43.7 C 197.58 43.74 182.5 43.7 182.5 43.7 L 182.5 2.8 Z M 197.5 39.7 C 208.3 39.7 214.9 33.3 214.9 23.2 C 214.9 13.3 208.4 6.8 196.9 6.8 C 196.86 6.84 187 6.8 187 6.8 L 187 39.7 C 187 39.7 197.52 39.66 197.5 39.7 Z M 231.1 2.8 C 231.1 2.8 231.06 26.4 231.1 26.4 C 231.1 35.5 235.3 40.3 243.7 40.3 C 252.2 40.3 256.4 35.3 256.4 26.4 C 256.38 26.4 256.4 2.8 256.4 2.8 L 260.9 2.8 C 260.9 2.8 260.88 26.4 260.9 26.4 C 260.9 37.1 255.2 44.3 243.8 44.3 C 232.6 44.3 226.6 37.9 226.6 26.4 C 226.56 26.4 226.6 2.8 226.6 2.8 L 231.1 2.8 Z M 303.4 5.5 C 303.4 5.5 303.4 10.4 303.4 10.4 C 299 7.9 294.3 6.5 289.5 6.5 C 279.1 6.5 272.5 14.3 272.5 23.3 C 272.5 32.5 279 40.1 289.4 40.1 C 294.5 40.1 299.3 38.6 303.7 35.9 C 303.7 35.9 303.7 40.9 303.7 40.9 C 299.1 43.2 294.4 44.3 289.3 44.3 C 275.2 44.3 267.8 33.7 267.8 23.5 C 267.8 11.3 277.1 2.3 289.4 2.3 C 294.1 2.3 298.7 3.4 303.4 5.5 Z M 341.6 2.8 L 341.6 6.8 L 326.9 6.8 L 326.9 43.7 L 322.4 43.7 L 322.4 6.8 L 308 6.8 L 308 2.8 L 341.6 2.8 Z M 351.6 2.8 L 351.6 43.7 L 347.1 43.7 L 347.1 2.8 L 351.6 2.8 Z M 402.1 23.1 C 402.1 34.6 393.7 44.3 380.2 44.3 C 367.5 44.3 359 34.6 359 23.5 C 359 12.1 367.1 2.3 380.4 2.3 C 393.5 2.3 402.1 11.8 402.1 23.1 Z M 363.6 23.3 C 363.6 33 371.1 40.1 380.3 40 C 392.5 40 397.4 30.6 397.4 23.2 C 397.4 14.9 391.3 6.5 380.6 6.5 C 369.5 6.5 363.6 15 363.6 23.3 Z M 413.2 2.8 L 442.2 36.7 L 442.2 2.8 L 446.5 2.8 L 446.5 43.7 L 442.6 43.7 L 413.8 10 L 413.8 43.7 L 409.5 43.7 L 409.5 2.8 L 413.2 2.8 Z M 502.3 2.8 L 502.3 6.8 L 487.6 6.8 L 487.6 43.7 L 483.1 43.7 L 483.1 6.8 L 468.7 6.8 L 468.7 2.8 L 502.3 2.8 Z M 546.5 23.1 C 546.5 34.6 538.1 44.3 524.6 44.3 C 511.9 44.3 503.3 34.6 503.3 23.5 C 503.3 12.1 511.5 2.3 524.8 2.3 C 537.8 2.3 546.5 11.8 546.5 23.1 Z M 508 23.3 C 508 33 515.5 40.1 524.6 40 C 536.8 40 541.8 30.6 541.8 23.2 C 541.8 14.9 535.7 6.5 525 6.5 C 513.8 6.5 508 15 508 23.3 Z M 570.5 2.8 C 570.5 2.8 585.6 2.82 585.6 2.8 C 599 2.8 607.6 11.2 607.6 22.9 C 607.6 35.6 598.6 43.7 585.6 43.7 C 585.6 43.74 570.5 43.7 570.5 43.7 L 570.5 2.8 Z M 585.5 39.7 C 596.3 39.7 602.9 33.3 602.9 23.2 C 602.9 13.3 596.5 6.8 584.9 6.8 C 584.88 6.84 575 6.8 575 6.8 L 575 39.7 C 575 39.7 585.54 39.66 585.5 39.7 Z M 634.1 4.9 C 634.1 4.9 634.1 10 634.1 10 C 631.3 7.6 628.2 6.4 624.8 6.4 C 620.5 6.4 617.7 8.8 617.7 12.3 C 617.7 15 618.4 17.3 625.1 20.8 C 633.6 25.1 635.6 28.1 635.6 33.7 C 635.6 39.7 631 44.3 623.9 44.3 C 620 44.3 616.4 43 613.3 40.7 C 613.3 40.7 613.3 35 613.3 35 C 616.4 38.4 620 40.3 623.9 40.3 C 628.1 40.3 631.1 37.7 631.1 33.7 C 631.1 30.2 629.9 28.2 622 24.1 C 615.6 20.8 613.1 17.6 613.1 12.4 C 613.1 6.6 618.1 2.3 625 2.3 C 628.1 2.3 631.3 3.2 634.1 4.9 Z M 637.9 2.8 L 642.4 2.8 L 654.7 34 L 654.8 34 L 666.9 2.8 L 670.9 2.8 L 683.3 33.8 L 683.3 33.8 L 695.3 2.8 L 699.9 2.8 L 683.6 44 L 682.7 44 L 668.9 9.2 L 655.2 44 L 654.2 44 L 637.9 2.8 Z " stroke="none" fill="#ffffff"/>  </g></svg>