<?xml version="1.0" standalone="no"?><!DOCTYPE svg PUBLIC "-//W3C//DTD SVG 1.1//EN" "http://www.w3.org/Graphics/SVG/1.1/DTD/svg11.dtd"><svg xmlns="http://www.w3.org/2000/svg" version="1.1" width="60px" height="39.1px" viewBox="0 -8 60 39.1" style="top:-8px">  <desc>Good</desc>  <defs/>  <g id="Polygon13141">    <path d="M 11.1 10.7 L 11.1 8.7 L 18.4 8.7 C 18.4 8.7 18.35 15.08 18.4 15.1 C 17.2 16 16.1 16.6 14.9 17.1 C 13.7 17.5 12.5 17.8 11.2 17.8 C 9.6 17.8 8 17.4 6.6 16.7 C 5.3 16 4.2 14.9 3.5 13.5 C 2.8 12.2 2.5 10.7 2.5 9 C 2.5 7.3 2.8 5.7 3.5 4.3 C 4.2 2.8 5.2 1.8 6.5 1.1 C 7.8 0.4 9.4 0 11.1 0 C 12.3 0 13.4 0.2 14.4 0.6 C 15.4 1 16.2 1.6 16.8 2.3 C 17.4 3 17.8 3.9 18.1 5.1 C 18.1 5.1 16 5.7 16 5.7 C 15.8 4.8 15.5 4.1 15.1 3.6 C 14.7 3.1 14.2 2.7 13.4 2.4 C 12.7 2.1 11.9 1.9 11.1 1.9 C 10 1.9 9.1 2.1 8.4 2.4 C 7.6 2.7 7 3.2 6.5 3.7 C 6.1 4.2 5.7 4.8 5.5 5.4 C 5 6.4 4.8 7.6 4.8 8.8 C 4.8 10.4 5.1 11.6 5.6 12.7 C 6.1 13.7 6.9 14.5 7.9 15 C 8.9 15.5 10 15.7 11.1 15.7 C 12.1 15.7 13.1 15.5 14 15.1 C 14.9 14.8 15.6 14.4 16.1 13.9 C 16.13 13.93 16.1 10.7 16.1 10.7 L 11.1 10.7 Z M 20.6 11.3 C 20.6 8.9 21.3 7.2 22.6 6.1 C 23.6 5.2 24.9 4.7 26.5 4.7 C 28.2 4.7 29.6 5.3 30.7 6.4 C 31.8 7.5 32.3 9.1 32.3 11.1 C 32.3 12.7 32.1 13.9 31.6 14.9 C 31.1 15.8 30.4 16.5 29.5 17 C 28.6 17.5 27.6 17.8 26.5 17.8 C 24.7 17.8 23.3 17.2 22.3 16.1 C 21.2 15 20.6 13.4 20.6 11.3 Z M 22.8 11.3 C 22.8 12.8 23.2 14 23.9 14.8 C 24.6 15.6 25.4 16 26.5 16 C 27.5 16 28.4 15.6 29.1 14.8 C 29.8 14 30.1 12.8 30.1 11.2 C 30.1 9.6 29.8 8.5 29.1 7.7 C 28.4 6.9 27.5 6.5 26.5 6.5 C 25.4 6.5 24.6 6.9 23.9 7.7 C 23.2 8.5 22.8 9.7 22.8 11.3 Z M 34 11.3 C 34 8.9 34.6 7.2 35.9 6.1 C 37 5.2 38.3 4.7 39.8 4.7 C 41.5 4.7 42.9 5.3 44 6.4 C 45.1 7.5 45.7 9.1 45.7 11.1 C 45.7 12.7 45.4 13.9 44.9 14.9 C 44.5 15.8 43.8 16.5 42.8 17 C 41.9 17.5 40.9 17.8 39.8 17.8 C 38.1 17.8 36.7 17.2 35.6 16.1 C 34.5 15 34 13.4 34 11.3 Z M 36.2 11.3 C 36.2 12.8 36.5 14 37.2 14.8 C 37.9 15.6 38.8 16 39.8 16 C 40.9 16 41.8 15.6 42.4 14.8 C 43.1 14 43.5 12.8 43.5 11.2 C 43.5 9.6 43.1 8.5 42.4 7.7 C 41.7 6.9 40.9 6.5 39.8 6.5 C 38.8 6.5 37.9 6.9 37.2 7.7 C 36.5 8.5 36.2 9.7 36.2 11.3 Z M 56.2 17.5 C 56.2 17.5 56.2 15.9 56.2 15.9 C 55.4 17.1 54.3 17.8 52.7 17.8 C 51.7 17.8 50.8 17.5 50 16.9 C 49.2 16.4 48.5 15.6 48.1 14.6 C 47.6 13.7 47.4 12.5 47.4 11.3 C 47.4 10 47.6 8.9 48 7.9 C 48.4 6.9 49 6.1 49.9 5.6 C 50.7 5 51.6 4.7 52.6 4.7 C 53.4 4.7 54 4.9 54.6 5.2 C 55.2 5.5 55.7 5.9 56.1 6.5 C 56.06 6.46 56.1 0.3 56.1 0.3 L 58.2 0.3 L 58.2 17.5 L 56.2 17.5 Z M 49.5 11.3 C 49.5 12.9 49.9 14 50.5 14.8 C 51.2 15.6 52 16 52.9 16 C 53.8 16 54.6 15.6 55.3 14.9 C 55.9 14.1 56.2 13 56.2 11.4 C 56.2 9.7 55.9 8.5 55.3 7.7 C 54.6 6.9 53.8 6.5 52.8 6.5 C 51.9 6.5 51.1 6.9 50.5 7.6 C 49.9 8.4 49.5 9.6 49.5 11.3 Z " stroke="none" fill="#000"/>  </g></svg>