<?xml version="1.0" standalone="no"?><!DOCTYPE svg PUBLIC "-//W3C//DTD SVG 1.1//EN" "http://www.w3.org/Graphics/SVG/1.1/DTD/svg11.dtd"><svg xmlns="http://www.w3.org/2000/svg" version="1.1" width="914px" height="63.4px" viewBox="0 -10 914 63.4" style="top:-10px">  <desc>AWARDING I LEARNING I MANAGED SERVICES</desc>  <defs/>  <g id="Polygon20718">    <path d="M 14.7 1.8 L 27.5 30.6 L 24.2 30.6 L 20.2 21.6 L 7.2 21.6 L 3.3 30.6 L 0.1 30.6 L 12.5 1.8 L 14.7 1.8 Z M 8.4 18.8 L 18.9 18.8 L 13.5 6.6 L 8.4 18.8 Z M 25.2 2 L 28.4 2 L 37 23.8 L 37 23.8 L 45.5 2 L 48.3 2 L 57 23.7 L 57 23.7 L 65.4 2 L 68.6 2 L 57.2 30.8 L 56.6 30.8 L 46.9 6.4 L 37.3 30.8 L 36.7 30.8 L 25.2 2 Z M 81.1 1.8 L 93.9 30.6 L 90.6 30.6 L 86.6 21.6 L 73.6 21.6 L 69.7 30.6 L 66.5 30.6 L 78.9 1.8 L 81.1 1.8 Z M 74.8 18.8 L 85.3 18.8 L 79.9 6.6 L 74.8 18.8 Z M 97.1 2 C 97.1 2 104.66 1.97 104.7 2 C 110.4 2 113.4 5.3 113.4 9.7 C 113.4 13.2 111.5 15.7 108 16.7 C 109.8 17.7 110.7 18.4 113 22 C 113.02 22.05 118.6 30.6 118.6 30.6 L 114.8 30.6 C 114.8 30.6 109.79 22.72 109.8 22.7 C 107.1 18.5 105.4 17.6 102.9 17.6 C 102.94 17.6 100.3 17.6 100.3 17.6 L 100.3 30.6 L 97.1 30.6 L 97.1 2 Z M 103.2 14.8 C 107.2 14.8 110.2 13.9 110.2 9.7 C 110.2 6.2 107.9 4.7 104.2 4.7 C 104.24 4.75 100.3 4.7 100.3 4.7 L 100.3 14.8 C 100.3 14.8 103.24 14.83 103.2 14.8 Z M 121.7 2 C 121.7 2 132.26 1.97 132.3 2 C 141.6 2 147.7 7.8 147.7 16 C 147.7 24.9 141.4 30.6 132.3 30.6 C 132.26 30.62 121.7 30.6 121.7 30.6 L 121.7 2 Z M 132.2 27.8 C 139.7 27.8 144.4 23.3 144.4 16.3 C 144.4 9.3 139.9 4.8 131.8 4.8 C 131.75 4.79 124.9 4.8 124.9 4.8 L 124.9 27.8 C 124.9 27.8 132.22 27.76 132.2 27.8 Z M 156.1 2 L 156.1 30.6 L 152.9 30.6 L 152.9 2 L 156.1 2 Z M 165.1 2 L 185.4 25.7 L 185.4 2 L 188.4 2 L 188.4 30.6 L 185.6 30.6 L 165.5 7 L 165.5 30.6 L 162.5 30.6 L 162.5 2 L 165.1 2 Z M 218.5 7.2 C 215.3 5.4 211.8 4.4 208.6 4.4 C 202 4.4 196.9 9.4 196.9 16.2 C 196.9 23.2 201.7 28.2 208.9 28.2 C 211.3 28.2 213 27.8 215.9 26.7 C 215.92 26.71 215.9 19.7 215.9 19.7 L 210.1 19.7 L 210.1 17 L 219.1 17 C 219.1 17 219.07 28.64 219.1 28.6 C 215.8 30.2 212.6 31 208.9 31 C 198.6 31 193.6 23.8 193.6 16.5 C 193.6 8.3 199.6 1.6 208.7 1.6 C 212 1.6 214.7 2.3 218.5 3.9 C 218.5 3.9 218.5 7.2 218.5 7.2 Z M 251.6 2 L 251.6 30.6 L 248.4 30.6 L 248.4 2 L 251.6 2 Z M 284.5 2 L 284.5 27.7 L 298 27.7 L 298 30.6 L 281.4 30.6 L 281.4 2 L 284.5 2 Z M 317.3 2 L 317.3 4.8 L 304.8 4.8 L 304.8 14.8 L 316.9 14.8 L 316.9 17.6 L 304.8 17.6 L 304.8 27.8 L 317.6 27.8 L 317.6 30.6 L 301.6 30.6 L 301.6 2 L 317.3 2 Z M 335.2 1.8 L 347.9 30.6 L 344.7 30.6 L 340.7 21.6 L 327.6 21.6 L 323.8 30.6 L 320.5 30.6 L 332.9 1.8 L 335.2 1.8 Z M 328.9 18.8 L 339.4 18.8 L 334 6.6 L 328.9 18.8 Z M 351.2 2 C 351.2 2 358.72 1.97 358.7 2 C 364.5 2 367.5 5.3 367.5 9.7 C 367.5 13.2 365.5 15.7 362 16.7 C 363.9 17.7 364.7 18.4 367.1 22 C 367.08 22.05 372.6 30.6 372.6 30.6 L 368.9 30.6 C 368.9 30.6 363.84 22.72 363.8 22.7 C 361.2 18.5 359.4 17.6 357 17.6 C 357 17.6 354.4 17.6 354.4 17.6 L 354.4 30.6 L 351.2 30.6 L 351.2 2 Z M 357.3 14.8 C 361.2 14.8 364.2 13.9 364.2 9.7 C 364.2 6.2 362 4.7 358.3 4.7 C 358.3 4.75 354.4 4.7 354.4 4.7 L 354.4 14.8 C 354.4 14.8 357.29 14.83 357.3 14.8 Z M 378.4 2 L 398.7 25.7 L 398.7 2 L 401.7 2 L 401.7 30.6 L 398.9 30.6 L 378.8 7 L 378.8 30.6 L 375.8 30.6 L 375.8 2 L 378.4 2 Z M 411.3 2 L 411.3 30.6 L 408.1 30.6 L 408.1 2 L 411.3 2 Z M 420.3 2 L 440.6 25.7 L 440.6 2 L 443.6 2 L 443.6 30.6 L 440.8 30.6 L 420.7 7 L 420.7 30.6 L 417.7 30.6 L 417.7 2 L 420.3 2 Z M 473.7 7.2 C 470.5 5.4 467 4.4 463.8 4.4 C 457.2 4.4 452 9.4 452 16.2 C 452 23.2 456.9 28.2 464.1 28.2 C 466.4 28.2 468.2 27.8 471.1 26.7 C 471.11 26.71 471.1 19.7 471.1 19.7 L 465.3 19.7 L 465.3 17 L 474.3 17 C 474.3 17 474.26 28.64 474.3 28.6 C 471 30.2 467.8 31 464.1 31 C 453.8 31 448.8 23.8 448.8 16.5 C 448.8 8.3 454.8 1.6 463.9 1.6 C 467.2 1.6 469.9 2.3 473.7 3.9 C 473.7 3.9 473.7 7.2 473.7 7.2 Z M 506.8 2 L 506.8 30.6 L 503.6 30.6 L 503.6 2 L 506.8 2 Z M 536.5 2 L 539.5 2 L 549.6 14.5 L 559.7 2 L 562.7 2 L 562.7 30.6 L 559.6 30.6 L 559.6 7 L 559.5 7 L 549.9 18.9 L 549.4 18.9 L 539.8 7 L 539.7 7 L 539.7 30.6 L 536.5 30.6 L 536.5 2 Z M 580.6 1.8 L 593.4 30.6 L 590.2 30.6 L 586.1 21.6 L 573.1 21.6 L 569.3 30.6 L 566 30.6 L 578.4 1.8 L 580.6 1.8 Z M 574.3 18.8 L 584.9 18.8 L 579.5 6.6 L 574.3 18.8 Z M 599.3 2 L 619.6 25.7 L 619.6 2 L 622.6 2 L 622.6 30.6 L 619.8 30.6 L 599.7 7 L 599.7 30.6 L 596.7 30.6 L 596.7 2 L 599.3 2 Z M 640.5 1.8 L 653.3 30.6 L 650 30.6 L 646 21.6 L 633 21.6 L 629.1 30.6 L 625.9 30.6 L 638.3 1.8 L 640.5 1.8 Z M 634.2 18.8 L 644.7 18.8 L 639.3 6.6 L 634.2 18.8 Z M 678.9 7.2 C 675.8 5.4 672.3 4.4 669.1 4.4 C 662.4 4.4 657.3 9.4 657.3 16.2 C 657.3 23.2 662.2 28.2 669.3 28.2 C 671.7 28.2 673.4 27.8 676.4 26.7 C 676.36 26.71 676.4 19.7 676.4 19.7 L 670.5 19.7 L 670.5 17 L 679.5 17 C 679.5 17 679.51 28.64 679.5 28.6 C 676.2 30.2 673 31 669.3 31 C 659.1 31 654 23.8 654 16.5 C 654 8.3 660 1.6 669.2 1.6 C 672.5 1.6 675.1 2.3 678.9 3.9 C 678.9 3.9 678.9 7.2 678.9 7.2 Z M 701.2 2 L 701.2 4.8 L 688.7 4.8 L 688.7 14.8 L 700.8 14.8 L 700.8 17.6 L 688.7 17.6 L 688.7 27.8 L 701.5 27.8 L 701.5 30.6 L 685.5 30.6 L 685.5 2 L 701.2 2 Z M 706.6 2 C 706.6 2 717.14 1.97 717.1 2 C 726.5 2 732.6 7.8 732.6 16 C 732.6 24.9 726.3 30.6 717.1 30.6 C 717.14 30.62 706.6 30.6 706.6 30.6 L 706.6 2 Z M 717.1 27.8 C 724.6 27.8 729.3 23.3 729.3 16.3 C 729.3 9.3 724.7 4.8 716.6 4.8 C 716.64 4.79 709.8 4.8 709.8 4.8 L 709.8 27.8 C 709.8 27.8 717.1 27.76 717.1 27.8 Z M 762.8 3.4 C 762.8 3.4 762.8 7 762.8 7 C 760.8 5.3 758.6 4.5 756.3 4.5 C 753.3 4.5 751.3 6.1 751.3 8.6 C 751.3 10.5 751.8 12.1 756.5 14.5 C 762.4 17.6 763.8 19.7 763.8 23.6 C 763.8 27.8 760.6 31 755.7 31 C 752.9 31 750.4 30.1 748.2 28.5 C 748.2 28.5 748.2 24.5 748.2 24.5 C 750.4 26.9 752.9 28.2 755.7 28.2 C 758.6 28.2 760.7 26.4 760.7 23.6 C 760.7 21.2 759.9 19.7 754.3 16.8 C 749.8 14.5 748.1 12.3 748.1 8.7 C 748.1 4.6 751.6 1.6 756.4 1.6 C 758.6 1.6 760.8 2.2 762.8 3.4 Z M 784.4 2 L 784.4 4.8 L 771.9 4.8 L 771.9 14.8 L 784 14.8 L 784 17.6 L 771.9 17.6 L 771.9 27.8 L 784.8 27.8 L 784.8 30.6 L 768.8 30.6 L 768.8 2 L 784.4 2 Z M 789.8 2 C 789.8 2 797.36 1.97 797.4 2 C 803.1 2 806.1 5.3 806.1 9.7 C 806.1 13.2 804.2 15.7 800.7 16.7 C 802.5 17.7 803.4 18.4 805.7 22 C 805.72 22.05 811.3 30.6 811.3 30.6 L 807.5 30.6 C 807.5 30.6 802.49 22.72 802.5 22.7 C 799.8 18.5 798.1 17.6 795.6 17.6 C 795.64 17.6 793 17.6 793 17.6 L 793 30.6 L 789.8 30.6 L 789.8 2 Z M 795.9 14.8 C 799.9 14.8 802.9 13.9 802.9 9.7 C 802.9 6.2 800.6 4.7 796.9 4.7 C 796.94 4.75 793 4.7 793 4.7 L 793 14.8 C 793 14.8 795.94 14.83 795.9 14.8 Z M 809.8 2 L 812.9 2 L 822.3 24.3 L 822.3 24.3 L 831.6 2 L 834.7 2 L 822.6 30.9 L 821.9 30.9 L 809.8 2 Z M 841.2 2 L 841.2 30.6 L 838 30.6 L 838 2 L 841.2 2 Z M 871.2 3.9 C 871.2 3.9 871.2 7.3 871.2 7.3 C 868.2 5.5 864.9 4.5 861.5 4.5 C 854.2 4.5 849.6 10 849.6 16.3 C 849.6 22.8 854.2 28.1 861.5 28.1 C 865.1 28.1 868.4 27 871.5 25.1 C 871.5 25.1 871.5 28.6 871.5 28.6 C 868.3 30.2 864.9 31 861.4 31 C 851.5 31 846.3 23.6 846.3 16.4 C 846.3 7.9 852.9 1.6 861.5 1.6 C 864.7 1.6 868 2.4 871.2 3.9 Z M 892.1 2 L 892.1 4.8 L 879.6 4.8 L 879.6 14.8 L 891.7 14.8 L 891.7 17.6 L 879.6 17.6 L 879.6 27.8 L 892.4 27.8 L 892.4 30.6 L 876.4 30.6 L 876.4 2 L 892.1 2 Z M 910.8 3.4 C 910.8 3.4 910.8 7 910.8 7 C 908.8 5.3 906.6 4.5 904.3 4.5 C 901.3 4.5 899.3 6.1 899.3 8.6 C 899.3 10.5 899.8 12.1 904.5 14.5 C 910.4 17.6 911.9 19.7 911.9 23.6 C 911.9 27.8 908.6 31 903.7 31 C 900.9 31 898.4 30.1 896.2 28.5 C 896.2 28.5 896.2 24.5 896.2 24.5 C 898.4 26.9 900.9 28.2 903.7 28.2 C 906.6 28.2 908.7 26.4 908.7 23.6 C 908.7 21.2 907.9 19.7 902.3 16.8 C 897.8 14.5 896.1 12.3 896.1 8.7 C 896.1 4.6 899.6 1.6 904.4 1.6 C 906.6 1.6 908.8 2.2 910.8 3.4 Z " stroke="none" fill="#ffffff"/>  </g></svg>