<?xml version="1.0" standalone="no"?><!DOCTYPE svg PUBLIC "-//W3C//DTD SVG 1.1//EN" "http://www.w3.org/Graphics/SVG/1.1/DTD/svg11.dtd"><svg xmlns="http://www.w3.org/2000/svg" version="1.1" width="850.1px" height="253.5px" viewBox="0 -1 850.1 253.5" style="top:-1px">  <desc>Client Feedback</desc>  <defs/>  <g id="Polygon5130">    <path d="M 212.7 105.4 C 212.7 105.4 212.7 110.5 212.7 110.5 C 209 108.5 205 107.1 200.9 107.1 C 192.5 107.1 187.3 113.5 187.3 120.2 C 187.3 126.9 192.3 133 200.8 133 C 205.3 133 209.3 131.7 213 129.2 C 213 129.2 213 134.6 213 134.6 C 209 136.7 204.9 137.6 200.6 137.6 C 188.1 137.6 182.3 128.1 182.3 120.1 C 182.3 110.1 190.6 102.6 200.7 102.6 C 204.5 102.6 208.6 103.5 212.7 105.4 Z M 223.9 103 L 223.9 132.7 L 239.3 132.7 L 239.3 137.1 L 219 137.1 L 219 103 L 223.9 103 Z M 248.4 103 L 248.4 137.1 L 243.5 137.1 L 243.5 103 L 248.4 103 Z M 275.3 103 L 275.3 107.4 L 260.8 107.4 L 260.8 117.8 L 274.8 117.8 L 274.8 122.1 L 260.8 122.1 L 260.8 132.7 L 275.7 132.7 L 275.7 137.1 L 255.9 137.1 L 255.9 103 L 275.3 103 Z M 286 103 L 308.9 129.5 L 308.9 103 L 313.6 103 L 313.6 137.1 L 309.3 137.1 L 286.7 110.9 L 286.7 137.1 L 282 137.1 L 282 103 L 286 103 Z M 346.7 103 L 346.7 107.3 L 334.8 107.3 L 334.8 137.1 L 329.9 137.1 L 329.9 107.3 L 318.2 107.3 L 318.2 103 L 346.7 103 Z M 383.4 103 L 383.4 107.4 L 370.1 107.4 L 370.1 116.9 L 383.4 116.9 L 383.4 121.3 L 370.1 121.3 L 370.1 137.1 L 365.2 137.1 L 365.2 103 L 383.4 103 Z M 407.9 103 L 407.9 107.4 L 393.5 107.4 L 393.5 117.8 L 407.4 117.8 L 407.4 122.1 L 393.5 122.1 L 393.5 132.7 L 408.4 132.7 L 408.4 137.1 L 388.6 137.1 L 388.6 103 L 407.9 103 Z M 434 103 L 434 107.4 L 419.5 107.4 L 419.5 117.8 L 433.5 117.8 L 433.5 122.1 L 419.5 122.1 L 419.5 132.7 L 434.4 132.7 L 434.4 137.1 L 414.6 137.1 L 414.6 103 L 434 103 Z M 453.6 103 C 465 103 472 110.1 472 119.7 C 472 130.2 464.5 137.1 453.7 137.1 C 453.7 137.14 440.7 137.1 440.7 137.1 L 440.7 103 C 440.7 103 453.65 103.04 453.6 103 Z M 453.4 132.7 C 462 132.7 467 127.9 467 119.8 C 467 112.5 462.4 107.4 452.7 107.4 C 452.75 107.39 445.6 107.4 445.6 107.4 L 445.6 132.7 C 445.6 132.7 453.45 132.74 453.4 132.7 Z M 487.9 103 C 494.8 103 498.4 106.8 498.4 111.9 C 498.4 115.3 496.6 117.7 493.2 119.1 C 498.3 120 501.4 123.6 501.4 127.8 C 501.4 134.6 495 137.1 488.9 137.1 C 488.95 137.14 478 137.1 478 137.1 L 478 103 C 478 103 487.9 103.04 487.9 103 Z M 482.9 117.7 C 482.9 117.7 486.35 117.74 486.3 117.7 C 491.5 117.7 493.4 115.1 493.4 112.3 C 493.4 108.8 491.5 107.3 487.1 107.3 C 487.1 107.34 482.9 107.3 482.9 107.3 L 482.9 117.7 Z M 488 132.8 C 493.7 132.8 496.3 131.1 496.3 127.4 C 496.3 124.1 494 121.9 487.8 121.9 C 487.85 121.94 482.9 121.9 482.9 121.9 L 482.9 132.8 C 482.9 132.8 488.05 132.84 488 132.8 Z M 521.4 102.8 L 536.6 137.1 L 531.6 137.1 L 527.1 127.1 L 512.6 127.1 L 508.3 137.1 L 503.3 137.1 L 517.9 102.8 L 521.4 102.8 Z M 514.4 122.7 L 525.2 122.7 L 519.6 109.5 L 514.4 122.7 Z M 567.8 105.4 C 567.8 105.4 567.8 110.5 567.8 110.5 C 564.1 108.5 560.1 107.1 556 107.1 C 547.6 107.1 542.5 113.5 542.5 120.2 C 542.5 126.9 547.4 133 555.9 133 C 560.4 133 564.4 131.7 568.1 129.2 C 568.1 129.2 568.1 134.6 568.1 134.6 C 564.1 136.7 560 137.6 555.7 137.6 C 543.2 137.6 537.4 128.1 537.4 120.1 C 537.4 110.1 545.7 102.6 555.8 102.6 C 559.6 102.6 563.7 103.5 567.8 105.4 Z M 579.1 103 L 579.1 118.6 L 593.4 103 L 599.5 103 L 584.7 119.2 L 603.2 137.1 L 596.5 137.1 L 579.1 120.3 L 579.1 137.1 L 574.1 137.1 L 574.1 103 L 579.1 103 Z " stroke="none" fill="#010102"/>  </g></svg>