<?xml version="1.0" standalone="no"?><!DOCTYPE svg PUBLIC "-//W3C//DTD SVG 1.1//EN" "http://www.w3.org/Graphics/SVG/1.1/DTD/svg11.dtd"><svg xmlns="http://www.w3.org/2000/svg" version="1.1" width="34px" height="40.1px" viewBox="0 -8 34 40.1" style="top:-8px">  <desc>4.2</desc>  <defs/>  <g id="Polygon21931">    <path d="M 7.5 17.5 L 7.5 14 L 0.4 14 L 0.4 11.1 L 7.9 0.2 L 10.7 0.2 L 10.7 11.1 L 12.8 11.1 L 12.8 14 L 10.7 14 L 10.7 17.5 L 7.5 17.5 Z M 7.5 11.1 L 7.5 5.3 L 3.5 11.1 L 7.5 11.1 Z M 15.1 17.5 L 15.1 14.2 L 18.4 14.2 L 18.4 17.5 L 15.1 17.5 Z M 32.2 14.4 L 32.2 17.5 C 32.2 17.5 20.61 17.47 20.6 17.5 C 20.7 16.3 21.1 15.2 21.7 14.2 C 22.4 13.2 23.6 11.8 25.4 10.1 C 26.9 8.7 27.8 7.7 28.2 7.3 C 28.6 6.6 28.9 5.9 28.9 5.2 C 28.9 4.5 28.7 3.9 28.3 3.5 C 27.9 3.2 27.3 3 26.6 3 C 25.9 3 25.4 3.2 25 3.6 C 24.6 4 24.3 4.7 24.3 5.6 C 24.3 5.6 21 5.3 21 5.3 C 21.2 3.5 21.8 2.2 22.8 1.4 C 23.9 0.6 25.2 0.2 26.7 0.2 C 28.4 0.2 29.7 0.7 30.7 1.6 C 31.7 2.5 32.2 3.6 32.2 5 C 32.2 5.8 32 6.5 31.7 7.2 C 31.5 7.9 31 8.6 30.4 9.4 C 30 9.9 29.3 10.6 28.3 11.6 C 27.2 12.6 26.6 13.2 26.3 13.5 C 26 13.8 25.8 14.1 25.6 14.4 C 25.62 14.41 32.2 14.4 32.2 14.4 Z " stroke="none" fill="#000"/>  </g></svg>