<?xml version="1.0" standalone="no"?><!DOCTYPE svg PUBLIC "-//W3C//DTD SVG 1.1//EN" "http://www.w3.org/Graphics/SVG/1.1/DTD/svg11.dtd"><svg xmlns="http://www.w3.org/2000/svg" version="1.1" width="400.1px" height="39.1px" viewBox="0 -8 400.1 39.1" style="top:-8px">  <desc>Account Management</desc>  <defs/>  <g id="Polygon11446">    <path d="M 0 17.5 L 6.6 0.3 L 9 0.3 L 16 17.5 L 13.5 17.5 L 11.4 12.3 L 4.3 12.3 L 2.4 17.5 L 0 17.5 Z M 4.9 10.4 L 10.7 10.4 C 10.7 10.4 8.95 5.66 9 5.7 C 8.4 4.2 8 3 7.7 2.1 C 7.5 3.2 7.2 4.3 6.8 5.4 C 6.81 5.38 4.9 10.4 4.9 10.4 Z M 25.7 12.9 C 25.7 12.9 27.8 13.2 27.8 13.2 C 27.6 14.6 27 15.7 26 16.5 C 25.1 17.3 24 17.8 22.6 17.8 C 20.9 17.8 19.5 17.2 18.5 16.1 C 17.5 15 16.9 13.4 16.9 11.3 C 16.9 10 17.2 8.8 17.6 7.8 C 18.1 6.8 18.7 6 19.6 5.5 C 20.6 5 21.5 4.7 22.6 4.7 C 24 4.7 25.1 5.1 25.9 5.8 C 26.8 6.5 27.3 7.4 27.6 8.7 C 27.6 8.7 25.5 9 25.5 9 C 25.3 8.2 25 7.5 24.5 7.1 C 24 6.7 23.4 6.5 22.7 6.5 C 21.6 6.5 20.8 6.9 20.1 7.6 C 19.4 8.4 19.1 9.6 19.1 11.2 C 19.1 12.9 19.4 14.1 20.1 14.9 C 20.7 15.6 21.6 16 22.6 16 C 23.4 16 24.1 15.8 24.7 15.3 C 25.2 14.8 25.6 14 25.7 12.9 Z M 37.7 12.9 C 37.7 12.9 39.8 13.2 39.8 13.2 C 39.6 14.6 39 15.7 38 16.5 C 37.1 17.3 36 17.8 34.6 17.8 C 32.9 17.8 31.5 17.2 30.5 16.1 C 29.5 15 28.9 13.4 28.9 11.3 C 28.9 10 29.2 8.8 29.6 7.8 C 30.1 6.8 30.7 6 31.6 5.5 C 32.6 5 33.5 4.7 34.6 4.7 C 36 4.7 37.1 5.1 37.9 5.8 C 38.8 6.5 39.3 7.4 39.6 8.7 C 39.6 8.7 37.5 9 37.5 9 C 37.3 8.2 37 7.5 36.5 7.1 C 36 6.7 35.4 6.5 34.7 6.5 C 33.6 6.5 32.8 6.9 32.1 7.6 C 31.4 8.4 31.1 9.6 31.1 11.2 C 31.1 12.9 31.4 14.1 32.1 14.9 C 32.7 15.6 33.6 16 34.6 16 C 35.4 16 36.1 15.8 36.7 15.3 C 37.2 14.8 37.6 14 37.7 12.9 Z M 40.8 11.3 C 40.8 8.9 41.4 7.2 42.7 6.1 C 43.8 5.2 45.1 4.7 46.6 4.7 C 48.4 4.7 49.7 5.3 50.8 6.4 C 51.9 7.5 52.5 9.1 52.5 11.1 C 52.5 12.7 52.2 13.9 51.7 14.9 C 51.3 15.8 50.6 16.5 49.6 17 C 48.7 17.5 47.7 17.8 46.6 17.8 C 44.9 17.8 43.5 17.2 42.4 16.1 C 41.3 15 40.8 13.4 40.8 11.3 Z M 43 11.3 C 43 12.8 43.3 14 44 14.8 C 44.7 15.6 45.6 16 46.6 16 C 47.7 16 48.6 15.6 49.3 14.8 C 49.9 14 50.3 12.8 50.3 11.2 C 50.3 9.6 49.9 8.5 49.2 7.7 C 48.5 6.9 47.7 6.5 46.6 6.5 C 45.6 6.5 44.7 6.9 44 7.7 C 43.3 8.5 43 9.7 43 11.3 Z M 63.1 17.5 C 63.1 17.5 63.09 15.64 63.1 15.6 C 62.1 17.1 60.8 17.8 59.1 17.8 C 58.4 17.8 57.7 17.6 57.1 17.3 C 56.5 17.1 56 16.7 55.7 16.3 C 55.4 15.8 55.1 15.3 55 14.7 C 54.9 14.3 54.9 13.6 54.9 12.7 C 54.89 12.74 54.9 5 54.9 5 L 57 5 C 57 5 57 11.93 57 11.9 C 57 13 57 13.8 57.1 14.2 C 57.3 14.7 57.5 15.1 58 15.5 C 58.4 15.8 58.9 15.9 59.6 15.9 C 60.2 15.9 60.8 15.8 61.3 15.5 C 61.9 15.1 62.3 14.7 62.5 14.1 C 62.8 13.6 62.9 12.8 62.9 11.7 C 62.87 11.7 62.9 5 62.9 5 L 65 5 L 65 17.5 L 63.1 17.5 Z M 68.3 17.5 L 68.3 5 L 70.2 5 C 70.2 5 70.18 6.8 70.2 6.8 C 71.1 5.4 72.4 4.7 74.1 4.7 C 74.9 4.7 75.6 4.9 76.2 5.2 C 76.8 5.4 77.3 5.8 77.6 6.2 C 77.9 6.6 78.2 7.2 78.3 7.8 C 78.4 8.2 78.4 8.8 78.4 9.8 C 78.4 9.82 78.4 17.5 78.4 17.5 L 76.3 17.5 C 76.3 17.5 76.29 9.9 76.3 9.9 C 76.3 9 76.2 8.4 76 8 C 75.9 7.5 75.6 7.2 75.2 7 C 74.8 6.7 74.3 6.6 73.7 6.6 C 72.8 6.6 72 6.9 71.4 7.4 C 70.7 8 70.4 9.1 70.4 10.7 C 70.39 10.68 70.4 17.5 70.4 17.5 L 68.3 17.5 Z M 85.3 15.7 C 85.5 15.7 85.9 15.6 86.2 15.6 C 86.2 15.6 86.5 17.4 86.5 17.4 C 85.9 17.6 85.4 17.6 84.9 17.6 C 84.2 17.6 83.6 17.5 83.2 17.3 C 82.7 17 82.4 16.7 82.3 16.3 C 82.1 15.9 82 15.1 82 13.8 C 82.02 13.83 82 6.7 82 6.7 L 80.5 6.7 L 80.5 5 L 82 5 L 82 1.9 L 84.1 0.7 L 84.1 5 L 86.2 5 L 86.2 6.7 L 84.1 6.7 C 84.1 6.7 84.12 13.95 84.1 13.9 C 84.1 14.5 84.2 14.9 84.2 15.1 C 84.3 15.3 84.4 15.4 84.6 15.5 C 84.8 15.6 85 15.7 85.3 15.7 C 85.3 15.7 85.3 15.7 85.3 15.7 Z M 95.2 17.5 L 95.2 0.3 L 98.6 0.3 C 98.6 0.3 102.66 12.46 102.7 12.5 C 103 13.6 103.3 14.4 103.5 15 C 103.7 14.4 104 13.5 104.4 12.2 C 104.39 12.25 108.5 0.3 108.5 0.3 L 111.6 0.3 L 111.6 17.5 L 109.4 17.5 L 109.4 3.1 L 104.4 17.5 L 102.3 17.5 L 97.4 2.8 L 97.4 17.5 L 95.2 17.5 Z M 123.5 17.5 C 123.3 17 123.1 16.5 123.1 15.9 C 122.3 16.6 121.5 17.1 120.8 17.3 C 120.1 17.6 119.3 17.8 118.5 17.8 C 117.1 17.8 116.1 17.4 115.3 16.8 C 114.6 16.1 114.2 15.2 114.2 14.2 C 114.2 13.6 114.4 13 114.7 12.5 C 114.9 12 115.3 11.6 115.8 11.3 C 116.2 11 116.7 10.8 117.3 10.6 C 117.7 10.5 118.3 10.4 119.1 10.3 C 120.8 10.1 122.1 9.9 122.9 9.6 C 122.9 9.3 122.9 9.1 122.9 9 C 122.9 8.2 122.7 7.6 122.3 7.2 C 121.8 6.7 121 6.5 119.9 6.5 C 118.9 6.5 118.2 6.7 117.7 7 C 117.2 7.4 116.9 8 116.7 8.9 C 116.7 8.9 114.6 8.6 114.6 8.6 C 114.8 7.7 115.1 7 115.5 6.4 C 116 5.9 116.6 5.5 117.4 5.2 C 118.2 4.9 119.2 4.7 120.2 4.7 C 121.3 4.7 122.1 4.9 122.8 5.1 C 123.5 5.4 124 5.7 124.3 6.1 C 124.6 6.4 124.8 6.9 124.9 7.5 C 125 7.9 125 8.5 125 9.4 C 125 9.4 125 12.3 125 12.3 C 125 14.2 125.1 15.5 125.2 16 C 125.3 16.5 125.4 17 125.7 17.5 C 125.71 17.47 123.5 17.5 123.5 17.5 C 123.5 17.5 123.5 17.47 123.5 17.5 Z M 122.9 11.2 C 122.1 11.5 121 11.8 119.5 12 C 118.6 12.1 118 12.3 117.6 12.4 C 117.3 12.6 117 12.8 116.8 13.1 C 116.6 13.4 116.5 13.8 116.5 14.1 C 116.5 14.7 116.7 15.2 117.1 15.5 C 117.6 15.9 118.2 16.1 119 16.1 C 119.8 16.1 120.5 15.9 121.2 15.6 C 121.8 15.2 122.3 14.7 122.6 14.1 C 122.8 13.6 122.9 12.9 122.9 12 C 122.9 12 122.9 11.2 122.9 11.2 Z M 128.3 17.5 L 128.3 5 L 130.2 5 C 130.2 5 130.21 6.8 130.2 6.8 C 131.1 5.4 132.4 4.7 134.2 4.7 C 134.9 4.7 135.6 4.9 136.2 5.2 C 136.9 5.4 137.3 5.8 137.6 6.2 C 138 6.6 138.2 7.2 138.3 7.8 C 138.4 8.2 138.4 8.8 138.4 9.8 C 138.42 9.82 138.4 17.5 138.4 17.5 L 136.3 17.5 C 136.3 17.5 136.31 9.9 136.3 9.9 C 136.3 9 136.2 8.4 136.1 8 C 135.9 7.5 135.6 7.2 135.2 7 C 134.8 6.7 134.3 6.6 133.7 6.6 C 132.8 6.6 132 6.9 131.4 7.4 C 130.7 8 130.4 9.1 130.4 10.7 C 130.42 10.68 130.4 17.5 130.4 17.5 L 128.3 17.5 Z M 150.2 17.5 C 150 17 149.8 16.5 149.8 15.9 C 149 16.6 148.2 17.1 147.5 17.3 C 146.8 17.6 146 17.8 145.2 17.8 C 143.8 17.8 142.8 17.4 142 16.8 C 141.3 16.1 140.9 15.2 140.9 14.2 C 140.9 13.6 141.1 13 141.4 12.5 C 141.6 12 142 11.6 142.4 11.3 C 142.9 11 143.4 10.8 144 10.6 C 144.4 10.5 145 10.4 145.8 10.3 C 147.5 10.1 148.8 9.9 149.6 9.6 C 149.6 9.3 149.6 9.1 149.6 9 C 149.6 8.2 149.4 7.6 149 7.2 C 148.5 6.7 147.7 6.5 146.6 6.5 C 145.6 6.5 144.9 6.7 144.4 7 C 143.9 7.4 143.6 8 143.4 8.9 C 143.4 8.9 141.3 8.6 141.3 8.6 C 141.5 7.7 141.8 7 142.2 6.4 C 142.7 5.9 143.3 5.5 144.1 5.2 C 144.9 4.9 145.8 4.7 146.9 4.7 C 148 4.7 148.8 4.9 149.5 5.1 C 150.2 5.4 150.7 5.7 151 6.1 C 151.3 6.4 151.5 6.9 151.6 7.5 C 151.7 7.9 151.7 8.5 151.7 9.4 C 151.7 9.4 151.7 12.3 151.7 12.3 C 151.7 14.2 151.8 15.5 151.9 16 C 152 16.5 152.1 17 152.4 17.5 C 152.4 17.47 150.2 17.5 150.2 17.5 C 150.2 17.5 150.2 17.47 150.2 17.5 Z M 149.6 11.2 C 148.8 11.5 147.7 11.8 146.2 12 C 145.3 12.1 144.7 12.3 144.3 12.4 C 144 12.6 143.7 12.8 143.5 13.1 C 143.3 13.4 143.2 13.8 143.2 14.1 C 143.2 14.7 143.4 15.2 143.8 15.5 C 144.3 15.9 144.9 16.1 145.7 16.1 C 146.5 16.1 147.2 15.9 147.9 15.6 C 148.5 15.2 149 14.7 149.3 14.1 C 149.5 13.6 149.6 12.9 149.6 12 C 149.6 12 149.6 11.2 149.6 11.2 Z M 154.6 18.5 C 154.6 18.5 156.7 18.8 156.7 18.8 C 156.8 19.4 157 19.9 157.4 20.2 C 157.9 20.6 158.6 20.8 159.5 20.8 C 160.5 20.8 161.3 20.6 161.8 20.2 C 162.3 19.8 162.7 19.3 162.9 18.6 C 163 18.1 163 17.2 163 15.8 C 162.1 16.9 160.9 17.5 159.6 17.5 C 157.9 17.5 156.5 16.9 155.6 15.6 C 154.7 14.4 154.2 12.9 154.2 11.2 C 154.2 10 154.4 8.9 154.8 7.9 C 155.3 6.9 155.9 6.1 156.7 5.6 C 157.5 5 158.5 4.7 159.6 4.7 C 161.1 4.7 162.3 5.3 163.2 6.5 C 163.22 6.53 163.2 5 163.2 5 L 165.2 5 C 165.2 5 165.16 15.79 165.2 15.8 C 165.2 17.7 165 19.1 164.6 19.9 C 164.2 20.7 163.6 21.4 162.7 21.8 C 161.8 22.3 160.8 22.5 159.5 22.5 C 158.1 22.5 156.9 22.2 155.9 21.5 C 155 20.9 154.6 19.8 154.6 18.5 Z M 156.4 11 C 156.4 12.7 156.7 13.9 157.3 14.6 C 158 15.4 158.8 15.7 159.8 15.7 C 160.7 15.7 161.6 15.4 162.2 14.6 C 162.9 13.9 163.2 12.7 163.2 11.1 C 163.2 9.6 162.9 8.4 162.2 7.7 C 161.5 6.9 160.7 6.5 159.7 6.5 C 158.8 6.5 158 6.9 157.3 7.6 C 156.7 8.4 156.4 9.5 156.4 11 Z M 176.9 13.5 C 176.9 13.5 179.1 13.7 179.1 13.7 C 178.7 15 178.1 16 177.1 16.7 C 176.2 17.4 175 17.8 173.6 17.8 C 171.8 17.8 170.3 17.2 169.2 16.1 C 168.2 15 167.6 13.4 167.6 11.4 C 167.6 9.3 168.2 7.6 169.3 6.5 C 170.3 5.3 171.7 4.7 173.5 4.7 C 175.1 4.7 176.5 5.3 177.5 6.4 C 178.6 7.6 179.1 9.2 179.1 11.2 C 179.1 11.4 179.1 11.5 179.1 11.8 C 179.1 11.8 169.8 11.8 169.8 11.8 C 169.9 13.2 170.3 14.2 171 14.9 C 171.7 15.7 172.6 16 173.6 16 C 174.4 16 175 15.8 175.6 15.4 C 176.1 15 176.6 14.4 176.9 13.5 Z M 169.9 10.1 C 169.9 10.1 176.9 10.1 176.9 10.1 C 176.8 9 176.5 8.2 176.1 7.7 C 175.4 6.9 174.6 6.5 173.5 6.5 C 172.5 6.5 171.7 6.8 171 7.5 C 170.4 8.1 170 9 169.9 10.1 Z M 181.7 17.5 L 181.7 5 L 183.6 5 C 183.6 5 183.59 6.77 183.6 6.8 C 184 6.2 184.5 5.7 185.1 5.3 C 185.8 4.9 186.5 4.7 187.4 4.7 C 188.3 4.7 189 4.9 189.6 5.3 C 190.2 5.7 190.6 6.2 190.9 6.9 C 191.9 5.5 193.1 4.7 194.7 4.7 C 196 4.7 196.9 5.1 197.6 5.8 C 198.2 6.5 198.6 7.5 198.6 8.9 C 198.56 8.93 198.6 17.5 198.6 17.5 L 196.5 17.5 C 196.5 17.5 196.46 9.63 196.5 9.6 C 196.5 8.8 196.4 8.2 196.3 7.8 C 196.1 7.4 195.9 7.1 195.5 6.9 C 195.2 6.7 194.7 6.6 194.3 6.6 C 193.4 6.6 192.6 6.9 192.1 7.4 C 191.5 8 191.2 9 191.2 10.2 C 191.2 10.24 191.2 17.5 191.2 17.5 L 189.1 17.5 C 189.1 17.5 189.09 9.39 189.1 9.4 C 189.1 8.4 188.9 7.7 188.6 7.3 C 188.2 6.8 187.7 6.6 186.9 6.6 C 186.3 6.6 185.7 6.7 185.2 7 C 184.7 7.4 184.4 7.8 184.1 8.4 C 183.9 9 183.8 9.9 183.8 11 C 183.81 11.02 183.8 17.5 183.8 17.5 L 181.7 17.5 Z M 210.2 13.5 C 210.2 13.5 212.4 13.7 212.4 13.7 C 212 15 211.4 16 210.5 16.7 C 209.6 17.4 208.4 17.8 206.9 17.8 C 205.1 17.8 203.7 17.2 202.6 16.1 C 201.5 15 201 13.4 201 11.4 C 201 9.3 201.5 7.6 202.6 6.5 C 203.7 5.3 205.1 4.7 206.8 4.7 C 208.5 4.7 209.8 5.3 210.9 6.4 C 211.9 7.6 212.5 9.2 212.5 11.2 C 212.5 11.4 212.5 11.5 212.4 11.8 C 212.4 11.8 203.2 11.8 203.2 11.8 C 203.2 13.2 203.6 14.2 204.3 14.9 C 205 15.7 205.9 16 206.9 16 C 207.7 16 208.4 15.8 208.9 15.4 C 209.5 15 209.9 14.4 210.2 13.5 Z M 203.3 10.1 C 203.3 10.1 210.2 10.1 210.2 10.1 C 210.1 9 209.9 8.2 209.4 7.7 C 208.8 6.9 207.9 6.5 206.8 6.5 C 205.9 6.5 205 6.8 204.4 7.5 C 203.7 8.1 203.4 9 203.3 10.1 Z M 215 17.5 L 215 5 L 216.9 5 C 216.9 5 216.94 6.8 216.9 6.8 C 217.9 5.4 219.2 4.7 220.9 4.7 C 221.6 4.7 222.3 4.9 223 5.2 C 223.6 5.4 224.1 5.8 224.4 6.2 C 224.7 6.6 224.9 7.2 225 7.8 C 225.1 8.2 225.2 8.8 225.2 9.8 C 225.15 9.82 225.2 17.5 225.2 17.5 L 223 17.5 C 223 17.5 223.04 9.9 223 9.9 C 223 9 223 8.4 222.8 8 C 222.6 7.5 222.3 7.2 221.9 7 C 221.5 6.7 221 6.6 220.5 6.6 C 219.6 6.6 218.8 6.9 218.1 7.4 C 217.5 8 217.1 9.1 217.1 10.7 C 217.15 10.68 217.1 17.5 217.1 17.5 L 215 17.5 Z M 232.1 15.7 C 232.3 15.7 232.6 15.6 233 15.6 C 233 15.6 233.3 17.4 233.3 17.4 C 232.7 17.6 232.2 17.6 231.7 17.6 C 230.9 17.6 230.3 17.5 229.9 17.3 C 229.5 17 229.2 16.7 229 16.3 C 228.9 15.9 228.8 15.1 228.8 13.8 C 228.77 13.83 228.8 6.7 228.8 6.7 L 227.2 6.7 L 227.2 5 L 228.8 5 L 228.8 1.9 L 230.9 0.7 L 230.9 5 L 233 5 L 233 6.7 L 230.9 6.7 C 230.9 6.7 230.87 13.95 230.9 13.9 C 230.9 14.5 230.9 14.9 231 15.1 C 231.1 15.3 231.2 15.4 231.3 15.5 C 231.5 15.6 231.8 15.7 232.1 15.7 C 232.1 15.7 232.1 15.7 232.1 15.7 Z " stroke="none" fill="#000"/>  </g></svg>