<?xml version="1.0" standalone="no"?><!DOCTYPE svg PUBLIC "-//W3C//DTD SVG 1.1//EN" "http://www.w3.org/Graphics/SVG/1.1/DTD/svg11.dtd"><svg xmlns="http://www.w3.org/2000/svg" version="1.1" width="771.4px" height="82.1px" viewBox="0 -8 771.4 82.1" style="top:-8px">  <desc>Advanced Problem Solving And Decision Making When Dealing With Customers In Arrears</desc>  <defs/>  <g id="Polygon45607">    <path d="M 2.3 37.4 L 4.4 37.4 L 11.7 46.4 L 18.9 37.4 L 21 37.4 L 21 57.9 L 18.8 57.9 L 18.8 41 L 18.7 41 L 11.8 49.5 L 11.5 49.5 L 4.6 41 L 4.6 41 L 4.6 57.9 L 2.3 57.9 L 2.3 37.4 Z M 33.8 37.3 L 42.9 57.9 L 40.6 57.9 L 37.7 51.4 L 28.4 51.4 L 25.7 57.9 L 23.4 57.9 L 32.2 37.3 L 33.8 37.3 Z M 29.3 49.4 L 36.8 49.4 L 33 40.7 L 29.3 49.4 Z M 47.5 37.4 L 47.5 47 L 56.5 37.4 L 59.3 37.4 L 50.2 47.2 L 61.1 57.9 L 58 57.9 L 47.5 47.7 L 47.5 57.9 L 45.3 57.9 L 45.3 37.4 L 47.5 37.4 Z M 65.6 37.4 L 65.6 57.9 L 63.3 57.9 L 63.3 37.4 L 65.6 37.4 Z M 72 37.4 L 86.5 54.3 L 86.5 37.4 L 88.7 37.4 L 88.7 57.9 L 86.7 57.9 L 72.3 41 L 72.3 57.9 L 70.2 57.9 L 70.2 37.4 L 72 37.4 Z M 110.2 41.2 C 107.9 39.8 105.4 39.1 103.1 39.1 C 98.4 39.1 94.7 42.7 94.7 47.5 C 94.7 52.6 98.2 56.1 103.3 56.1 C 105 56.1 106.2 55.9 108.3 55.1 C 108.33 55.08 108.3 50.1 108.3 50.1 L 104.2 50.1 L 104.2 48.1 L 110.6 48.1 C 110.6 48.1 110.58 56.46 110.6 56.5 C 108.2 57.6 106 58.1 103.3 58.1 C 96 58.1 92.4 53 92.4 47.8 C 92.4 41.9 96.7 37.1 103.2 37.1 C 105.5 37.1 107.5 37.6 110.2 38.8 C 110.2 38.8 110.2 41.2 110.2 41.2 Z M 120.7 37.4 L 123 37.4 L 129.1 53 L 129.2 53 L 135.2 37.4 L 137.2 37.4 L 143.4 52.9 L 143.5 52.9 L 149.5 37.4 L 151.7 37.4 L 143.6 58 L 143.1 58 L 136.2 40.6 L 129.4 58 L 128.9 58 L 120.7 37.4 Z M 156.4 37.4 L 156.4 46.5 L 168.8 46.5 L 168.8 37.4 L 171 37.4 L 171 57.9 L 168.8 57.9 L 168.8 48.6 L 156.4 48.6 L 156.4 57.9 L 154.1 57.9 L 154.1 37.4 L 156.4 37.4 Z M 186.8 37.4 L 186.8 39.4 L 177.9 39.4 L 177.9 46.6 L 186.5 46.6 L 186.5 48.6 L 177.9 48.6 L 177.9 55.8 L 187 55.8 L 187 57.9 L 175.6 57.9 L 175.6 37.4 L 186.8 37.4 Z M 192.5 37.4 L 207 54.3 L 207 37.4 L 209.2 37.4 L 209.2 57.9 L 207.2 57.9 L 192.8 41 L 192.8 57.9 L 190.7 57.9 L 190.7 37.4 L 192.5 37.4 Z M 221.9 37.4 C 221.9 37.4 229.43 37.41 229.4 37.4 C 236.1 37.4 240.4 41.6 240.4 47.4 C 240.4 53.8 235.9 57.9 229.4 57.9 C 229.43 57.87 221.9 57.9 221.9 57.9 L 221.9 37.4 Z M 229.4 55.8 C 234.8 55.8 238.1 52.6 238.1 47.6 C 238.1 42.7 234.9 39.4 229.1 39.4 C 229.07 39.42 224.2 39.4 224.2 39.4 L 224.2 55.8 C 224.2 55.8 229.4 55.83 229.4 55.8 Z M 255.4 37.4 L 255.4 39.4 L 246.4 39.4 L 246.4 46.6 L 255.1 46.6 L 255.1 48.6 L 246.4 48.6 L 246.4 55.8 L 255.6 55.8 L 255.6 57.9 L 244.2 57.9 L 244.2 37.4 L 255.4 37.4 Z M 268.1 37.3 L 277.3 57.9 L 274.9 57.9 L 272.1 51.4 L 262.8 51.4 L 260 57.9 L 257.7 57.9 L 266.5 37.3 L 268.1 37.3 Z M 263.6 49.4 L 271.2 49.4 L 267.3 40.7 L 263.6 49.4 Z M 281.8 37.4 L 281.8 55.8 L 291.5 55.8 L 291.5 57.9 L 279.6 57.9 L 279.6 37.4 L 281.8 37.4 Z M 296.3 37.4 L 296.3 57.9 L 294.1 57.9 L 294.1 37.4 L 296.3 37.4 Z M 302.8 37.4 L 317.3 54.3 L 317.3 37.4 L 319.4 37.4 L 319.4 57.9 L 317.5 57.9 L 303.1 41 L 303.1 57.9 L 300.9 57.9 L 300.9 37.4 L 302.8 37.4 Z M 340.9 41.2 C 338.7 39.8 336.2 39.1 333.9 39.1 C 329.1 39.1 325.5 42.7 325.5 47.5 C 325.5 52.6 328.9 56.1 334 56.1 C 335.8 56.1 337 55.9 339.1 55.1 C 339.08 55.08 339.1 50.1 339.1 50.1 L 334.9 50.1 L 334.9 48.1 L 341.3 48.1 C 341.3 48.1 341.33 56.46 341.3 56.5 C 339 57.6 336.7 58.1 334 58.1 C 326.7 58.1 323.1 53 323.1 47.8 C 323.1 41.9 327.4 37.1 334 37.1 C 336.3 37.1 338.2 37.6 340.9 38.8 C 340.9 38.8 340.9 41.2 340.9 41.2 Z M 351.5 37.4 L 353.8 37.4 L 359.9 53 L 359.9 53 L 366 37.4 L 368 37.4 L 374.2 52.9 L 374.2 52.9 L 380.2 37.4 L 382.5 37.4 L 374.4 58 L 373.9 58 L 367 40.6 L 360.1 58 L 359.7 58 L 351.5 37.4 Z M 387.1 37.4 L 387.1 57.9 L 384.9 57.9 L 384.9 37.4 L 387.1 37.4 Z M 406.6 37.4 L 406.6 39.4 L 399.3 39.4 L 399.3 57.9 L 397.1 57.9 L 397.1 39.4 L 389.8 39.4 L 389.8 37.4 L 406.6 37.4 Z M 411.7 37.4 L 411.7 46.5 L 424.1 46.5 L 424.1 37.4 L 426.3 37.4 L 426.3 57.9 L 424.1 57.9 L 424.1 48.6 L 411.7 48.6 L 411.7 57.9 L 409.4 57.9 L 409.4 37.4 L 411.7 37.4 Z M 455.9 38.8 C 455.9 38.8 455.9 41.2 455.9 41.2 C 453.8 40 451.4 39.2 449 39.2 C 443.8 39.2 440.5 43.2 440.5 47.7 C 440.5 52.3 443.7 56 449 56 C 451.5 56 453.9 55.3 456.1 53.9 C 456.1 53.9 456.1 56.4 456.1 56.4 C 453.8 57.6 451.4 58.1 448.9 58.1 C 441.8 58.1 438.1 52.8 438.1 47.7 C 438.1 41.6 442.8 37.1 449 37.1 C 451.3 37.1 453.6 37.7 455.9 38.8 Z M 461.6 37.4 C 461.6 37.4 461.6 49.2 461.6 49.2 C 461.6 53.7 463.7 56.1 467.9 56.1 C 472.2 56.1 474.3 53.6 474.3 49.2 C 474.26 49.2 474.3 37.4 474.3 37.4 L 476.5 37.4 C 476.5 37.4 476.51 49.2 476.5 49.2 C 476.5 54.6 473.7 58.1 468 58.1 C 462.3 58.1 459.3 54.9 459.3 49.2 C 459.35 49.2 459.3 37.4 459.3 37.4 L 461.6 37.4 Z M 490.3 38.5 C 490.3 38.5 490.3 41 490.3 41 C 488.9 39.8 487.4 39.2 485.7 39.2 C 483.6 39.2 482.1 40.4 482.1 42.1 C 482.1 43.5 482.5 44.7 485.9 46.4 C 490.1 48.6 491.1 50 491.1 52.8 C 491.1 55.9 488.8 58.1 485.3 58.1 C 483.3 58.1 481.5 57.5 480 56.3 C 480 56.3 480 53.5 480 53.5 C 481.5 55.2 483.3 56.1 485.3 56.1 C 487.3 56.1 488.8 54.8 488.8 52.9 C 488.8 51.1 488.3 50.1 484.3 48 C 481.1 46.4 479.9 44.8 479.9 42.2 C 479.9 39.3 482.4 37.1 485.8 37.1 C 487.4 37.1 489 37.6 490.3 38.5 Z M 509.6 37.4 L 509.6 39.4 L 502.2 39.4 L 502.2 57.9 L 500 57.9 L 500 39.4 L 492.8 39.4 L 492.8 37.4 L 509.6 37.4 Z M 531.7 47.5 C 531.7 53.3 527.5 58.1 520.7 58.1 C 514.4 58.1 510.1 53.3 510.1 47.8 C 510.1 42.1 514.2 37.1 520.8 37.1 C 527.4 37.1 531.7 41.9 531.7 47.5 Z M 512.4 47.7 C 512.4 52.5 516.2 56 520.8 56 C 526.8 56 529.3 51.3 529.3 47.6 C 529.3 43.5 526.3 39.3 520.9 39.3 C 515.4 39.3 512.4 43.5 512.4 47.7 Z M 535.4 37.4 L 537.5 37.4 L 544.7 46.4 L 551.9 37.4 L 554.1 37.4 L 554.1 57.9 L 551.8 57.9 L 551.8 41 L 551.7 41 L 544.9 49.5 L 544.5 49.5 L 537.7 41 L 537.6 41 L 537.6 57.9 L 535.4 57.9 L 535.4 37.4 Z M 569.9 37.4 L 569.9 39.4 L 560.9 39.4 L 560.9 46.6 L 569.6 46.6 L 569.6 48.6 L 560.9 48.6 L 560.9 55.8 L 570.1 55.8 L 570.1 57.9 L 558.7 57.9 L 558.7 37.4 L 569.9 37.4 Z M 573.7 37.4 C 573.7 37.4 579.11 37.41 579.1 37.4 C 583.2 37.4 585.3 39.8 585.3 42.9 C 585.3 45.4 584 47.2 581.5 47.9 C 582.8 48.6 583.4 49.2 585.1 51.7 C 585.08 51.75 589 57.9 589 57.9 L 586.4 57.9 C 586.4 57.9 582.77 52.23 582.8 52.2 C 580.9 49.2 579.6 48.6 577.9 48.6 C 577.88 48.57 576 48.6 576 48.6 L 576 57.9 L 573.7 57.9 L 573.7 37.4 Z M 578.1 46.6 C 580.9 46.6 583 45.9 583 42.9 C 583 40.4 581.4 39.4 578.8 39.4 C 578.81 39.39 576 39.4 576 39.4 L 576 46.6 C 576 46.6 578.09 46.59 578.1 46.6 Z M 601.2 38.5 C 601.2 38.5 601.2 41 601.2 41 C 599.8 39.8 598.3 39.2 596.6 39.2 C 594.5 39.2 593.1 40.4 593.1 42.1 C 593.1 43.5 593.4 44.7 596.8 46.4 C 601 48.6 602 50 602 52.8 C 602 55.9 599.7 58.1 596.2 58.1 C 594.2 58.1 592.4 57.5 590.9 56.3 C 590.9 56.3 590.9 53.5 590.9 53.5 C 592.4 55.2 594.2 56.1 596.2 56.1 C 598.2 56.1 599.7 54.8 599.7 52.9 C 599.7 51.1 599.2 50.1 595.2 48 C 592 46.4 590.8 44.8 590.8 42.2 C 590.8 39.3 593.3 37.1 596.7 37.1 C 598.3 37.1 599.9 37.6 601.2 38.5 Z M 615.9 37.4 L 615.9 57.9 L 613.7 57.9 L 613.7 37.4 L 615.9 37.4 Z M 622.4 37.4 L 636.9 54.3 L 636.9 37.4 L 639 37.4 L 639 57.9 L 637 57.9 L 622.7 41 L 622.7 57.9 L 620.5 57.9 L 620.5 37.4 L 622.4 37.4 Z M 659.9 37.3 L 669 57.9 L 666.7 57.9 L 663.9 51.4 L 654.6 51.4 L 651.8 57.9 L 649.5 57.9 L 658.3 37.3 L 659.9 37.3 Z M 655.4 49.4 L 663 49.4 L 659.1 40.7 L 655.4 49.4 Z M 671.4 37.4 C 671.4 37.4 676.75 37.41 676.8 37.4 C 680.9 37.4 683 39.8 683 42.9 C 683 45.4 681.6 47.2 679.1 47.9 C 680.4 48.6 681 49.2 682.7 51.7 C 682.72 51.75 686.7 57.9 686.7 57.9 L 684 57.9 C 684 57.9 680.41 52.23 680.4 52.2 C 678.5 49.2 677.3 48.6 675.5 48.6 C 675.52 48.57 673.6 48.6 673.6 48.6 L 673.6 57.9 L 671.4 57.9 L 671.4 37.4 Z M 675.7 46.6 C 678.6 46.6 680.7 45.9 680.7 42.9 C 680.7 40.4 679.1 39.4 676.5 39.4 C 676.45 39.39 673.6 39.4 673.6 39.4 L 673.6 46.6 C 673.6 46.6 675.73 46.59 675.7 46.6 Z M 688.9 37.4 C 688.9 37.4 694.3 37.41 694.3 37.4 C 698.4 37.4 700.5 39.8 700.5 42.9 C 700.5 45.4 699.2 47.2 696.7 47.9 C 698 48.6 698.6 49.2 700.3 51.7 C 700.27 51.75 704.2 57.9 704.2 57.9 L 701.6 57.9 C 701.6 57.9 697.96 52.23 698 52.2 C 696.1 49.2 694.8 48.6 693.1 48.6 C 693.07 48.57 691.2 48.6 691.2 48.6 L 691.2 57.9 L 688.9 57.9 L 688.9 37.4 Z M 693.3 46.6 C 696.1 46.6 698.2 45.9 698.2 42.9 C 698.2 40.4 696.6 39.4 694 39.4 C 694 39.39 691.2 39.4 691.2 39.4 L 691.2 46.6 C 691.2 46.6 693.28 46.59 693.3 46.6 Z M 717.7 37.4 L 717.7 39.4 L 708.7 39.4 L 708.7 46.6 L 717.4 46.6 L 717.4 48.6 L 708.7 48.6 L 708.7 55.8 L 717.9 55.8 L 717.9 57.9 L 706.5 57.9 L 706.5 37.4 L 717.7 37.4 Z M 730.4 37.3 L 739.5 57.9 L 737.2 57.9 L 734.4 51.4 L 725.1 51.4 L 722.3 57.9 L 720 57.9 L 728.8 37.3 L 730.4 37.3 Z M 725.9 49.4 L 733.5 49.4 L 729.6 40.7 L 725.9 49.4 Z M 741.9 37.4 C 741.9 37.4 747.25 37.41 747.3 37.4 C 751.4 37.4 753.5 39.8 753.5 42.9 C 753.5 45.4 752.1 47.2 749.6 47.9 C 750.9 48.6 751.5 49.2 753.2 51.7 C 753.22 51.75 757.2 57.9 757.2 57.9 L 754.5 57.9 C 754.5 57.9 750.91 52.23 750.9 52.2 C 749 49.2 747.8 48.6 746 48.6 C 746.02 48.57 744.1 48.6 744.1 48.6 L 744.1 57.9 L 741.9 57.9 L 741.9 37.4 Z M 746.2 46.6 C 749.1 46.6 751.2 45.9 751.2 42.9 C 751.2 40.4 749.6 39.4 747 39.4 C 746.95 39.39 744.1 39.4 744.1 39.4 L 744.1 46.6 C 744.1 46.6 746.23 46.59 746.2 46.6 Z M 769.4 38.5 C 769.4 38.5 769.4 41 769.4 41 C 768 39.8 766.5 39.2 764.8 39.2 C 762.6 39.2 761.2 40.4 761.2 42.1 C 761.2 43.5 761.5 44.7 764.9 46.4 C 769.2 48.6 770.2 50 770.2 52.8 C 770.2 55.9 767.8 58.1 764.3 58.1 C 762.4 58.1 760.6 57.5 759 56.3 C 759 56.3 759 53.5 759 53.5 C 760.5 55.2 762.3 56.1 764.3 56.1 C 766.4 56.1 767.9 54.8 767.9 52.9 C 767.9 51.1 767.3 50.1 763.4 48 C 760.2 46.4 758.9 44.8 758.9 42.2 C 758.9 39.3 761.4 37.1 764.8 37.1 C 766.4 37.1 768 37.6 769.4 38.5 Z " stroke="none" fill="#000000"/>  </g>  <g id="Polygon45606">    <path d="M 10.5 1.3 L 19.6 21.9 L 17.3 21.9 L 14.4 15.4 L 5.1 15.4 L 2.4 21.9 L 0.1 21.9 L 8.9 1.3 L 10.5 1.3 Z M 6 13.4 L 13.5 13.4 L 9.7 4.7 L 6 13.4 Z M 22 1.4 C 22 1.4 29.49 1.41 29.5 1.4 C 36.2 1.4 40.5 5.6 40.5 11.4 C 40.5 17.8 36 21.9 29.5 21.9 C 29.49 21.87 22 21.9 22 21.9 L 22 1.4 Z M 29.5 19.8 C 34.8 19.8 38.2 16.6 38.2 11.6 C 38.2 6.7 34.9 3.4 29.1 3.4 C 29.13 3.42 24.2 3.4 24.2 3.4 L 24.2 19.8 C 24.2 19.8 29.46 19.83 29.5 19.8 Z M 41.1 1.4 L 43.3 1.4 L 50 17.3 L 50 17.3 L 56.7 1.4 L 58.9 1.4 L 50.3 22.1 L 49.8 22.1 L 41.1 1.4 Z M 67.7 1.3 L 76.9 21.9 L 74.5 21.9 L 71.7 15.4 L 62.4 15.4 L 59.6 21.9 L 57.3 21.9 L 66.1 1.3 L 67.7 1.3 Z M 63.2 13.4 L 70.8 13.4 L 66.9 4.7 L 63.2 13.4 Z M 81.1 1.4 L 95.5 18.3 L 95.5 1.4 L 97.7 1.4 L 97.7 21.9 L 95.7 21.9 L 81.4 5 L 81.4 21.9 L 79.2 21.9 L 79.2 1.4 L 81.1 1.4 Z M 119.2 2.8 C 119.2 2.8 119.2 5.2 119.2 5.2 C 117 4 114.7 3.2 112.3 3.2 C 107 3.2 103.7 7.2 103.7 11.7 C 103.7 16.3 107 20 112.2 20 C 114.8 20 117.1 19.3 119.3 17.9 C 119.3 17.9 119.3 20.4 119.3 20.4 C 117.1 21.6 114.7 22.1 112.2 22.1 C 105.1 22.1 101.4 16.8 101.4 11.7 C 101.4 5.6 106.1 1.1 112.2 1.1 C 114.5 1.1 116.9 1.7 119.2 2.8 Z M 134.1 1.4 L 134.1 3.4 L 125.1 3.4 L 125.1 10.6 L 133.8 10.6 L 133.8 12.6 L 125.1 12.6 L 125.1 19.8 L 134.3 19.8 L 134.3 21.9 L 122.9 21.9 L 122.9 1.4 L 134.1 1.4 Z M 137.9 1.4 C 137.9 1.4 145.47 1.41 145.5 1.4 C 152.2 1.4 156.5 5.6 156.5 11.4 C 156.5 17.8 152 21.9 145.5 21.9 C 145.47 21.87 137.9 21.9 137.9 21.9 L 137.9 1.4 Z M 145.4 19.8 C 150.8 19.8 154.1 16.6 154.1 11.6 C 154.1 6.7 150.9 3.4 145.1 3.4 C 145.11 3.42 140.2 3.4 140.2 3.4 L 140.2 19.8 C 140.2 19.8 145.44 19.83 145.4 19.8 Z M 174.4 1.4 C 178.5 1.4 181 3.5 181 7 C 181 10.9 178.4 12.7 174 12.7 C 174 12.66 170.8 12.7 170.8 12.7 L 170.8 21.9 L 168.6 21.9 L 168.6 1.4 C 168.6 1.4 174.39 1.41 174.4 1.4 Z M 170.8 10.7 C 170.8 10.7 173.94 10.68 173.9 10.7 C 177.4 10.7 178.6 9.3 178.6 7 C 178.6 4.7 177.3 3.4 173.9 3.4 C 173.94 3.39 170.8 3.4 170.8 3.4 L 170.8 10.7 Z M 184.1 1.4 C 184.1 1.4 189.51 1.41 189.5 1.4 C 193.6 1.4 195.7 3.8 195.7 6.9 C 195.7 9.4 194.4 11.2 191.9 11.9 C 193.2 12.6 193.8 13.2 195.5 15.7 C 195.48 15.75 199.4 21.9 199.4 21.9 L 196.8 21.9 C 196.8 21.9 193.17 16.23 193.2 16.2 C 191.3 13.2 190 12.6 188.3 12.6 C 188.28 12.57 186.4 12.6 186.4 12.6 L 186.4 21.9 L 184.1 21.9 L 184.1 1.4 Z M 188.5 10.6 C 191.3 10.6 193.4 9.9 193.4 6.9 C 193.4 4.4 191.8 3.4 189.2 3.4 C 189.21 3.39 186.4 3.4 186.4 3.4 L 186.4 10.6 C 186.4 10.6 188.49 10.59 188.5 10.6 Z M 221.8 11.5 C 221.8 17.3 217.6 22.1 210.8 22.1 C 204.4 22.1 200.2 17.3 200.2 11.8 C 200.2 6.1 204.3 1.1 210.9 1.1 C 217.4 1.1 221.8 5.9 221.8 11.5 Z M 202.5 11.7 C 202.5 16.5 206.2 20 210.8 20 C 216.9 20 219.4 15.3 219.4 11.6 C 219.4 7.5 216.4 3.3 211 3.3 C 205.4 3.3 202.5 7.5 202.5 11.7 Z M 230.7 1.4 C 234.5 1.4 237.1 3.4 237.1 6.6 C 237.1 8.8 235.9 10.4 233.7 11.1 C 236.8 11.6 238.8 13.7 238.8 16.4 C 238.8 20.2 235.4 21.9 231.7 21.9 C 231.69 21.87 225.4 21.9 225.4 21.9 L 225.4 1.4 C 225.4 1.4 230.73 1.41 230.7 1.4 Z M 227.7 10.5 C 227.7 10.5 229.92 10.5 229.9 10.5 C 233.3 10.5 234.7 8.9 234.7 6.8 C 234.7 4.5 233.3 3.4 230.3 3.4 C 230.28 3.39 227.7 3.4 227.7 3.4 L 227.7 10.5 Z M 231.3 19.9 C 234.5 19.9 236.5 18.8 236.5 16.2 C 236.5 13.8 234.8 12.4 230.9 12.4 C 230.94 12.45 227.7 12.4 227.7 12.4 L 227.7 19.9 C 227.7 19.9 231.27 19.89 231.3 19.9 Z M 244.4 1.4 L 244.4 19.8 L 254 19.8 L 254 21.9 L 242.2 21.9 L 242.2 1.4 L 244.4 1.4 Z M 267.8 1.4 L 267.8 3.4 L 258.9 3.4 L 258.9 10.6 L 267.5 10.6 L 267.5 12.6 L 258.9 12.6 L 258.9 19.8 L 268.1 19.8 L 268.1 21.9 L 256.6 21.9 L 256.6 1.4 L 267.8 1.4 Z M 271.7 1.4 L 273.8 1.4 L 281.1 10.4 L 288.3 1.4 L 290.4 1.4 L 290.4 21.9 L 288.1 21.9 L 288.1 5 L 288.1 5 L 281.2 13.5 L 280.9 13.5 L 274 5 L 274 5 L 274 21.9 L 271.7 21.9 L 271.7 1.4 Z M 312.8 2.5 C 312.8 2.5 312.8 5 312.8 5 C 311.4 3.8 309.9 3.2 308.2 3.2 C 306.1 3.2 304.6 4.4 304.6 6.1 C 304.6 7.5 305 8.7 308.4 10.4 C 312.6 12.6 313.6 14 313.6 16.8 C 313.6 19.9 311.3 22.1 307.8 22.1 C 305.8 22.1 304 21.5 302.5 20.3 C 302.5 20.3 302.5 17.5 302.5 17.5 C 304 19.2 305.8 20.1 307.8 20.1 C 309.8 20.1 311.3 18.8 311.3 16.9 C 311.3 15.1 310.8 14.1 306.8 12 C 303.6 10.4 302.4 8.8 302.4 6.2 C 302.4 3.3 304.9 1.1 308.3 1.1 C 309.9 1.1 311.5 1.6 312.8 2.5 Z M 337.8 11.5 C 337.8 17.3 333.6 22.1 326.8 22.1 C 320.5 22.1 316.2 17.3 316.2 11.8 C 316.2 6.1 320.3 1.1 326.9 1.1 C 333.5 1.1 337.8 5.9 337.8 11.5 Z M 318.5 11.7 C 318.5 16.5 322.3 20 326.9 20 C 333 20 335.5 15.3 335.5 11.6 C 335.5 7.5 332.4 3.3 327.1 3.3 C 321.5 3.3 318.5 7.5 318.5 11.7 Z M 343.7 1.4 L 343.7 19.8 L 353.4 19.8 L 353.4 21.9 L 341.5 21.9 L 341.5 1.4 L 343.7 1.4 Z M 351.1 1.4 L 353.3 1.4 L 360 17.3 L 360 17.3 L 366.6 1.4 L 368.9 1.4 L 360.2 22.1 L 359.7 22.1 L 351.1 1.4 Z M 373.5 1.4 L 373.5 21.9 L 371.2 21.9 L 371.2 1.4 L 373.5 1.4 Z M 379.9 1.4 L 394.4 18.3 L 394.4 1.4 L 396.6 1.4 L 396.6 21.9 L 394.6 21.9 L 380.2 5 L 380.2 21.9 L 378.1 21.9 L 378.1 1.4 L 379.9 1.4 Z M 418 5.2 C 415.8 3.8 413.3 3.1 411 3.1 C 406.3 3.1 402.6 6.7 402.6 11.5 C 402.6 16.6 406.1 20.1 411.2 20.1 C 412.9 20.1 414.1 19.9 416.2 19.1 C 416.22 19.08 416.2 14.1 416.2 14.1 L 412 14.1 L 412 12.1 L 418.5 12.1 C 418.5 12.1 418.47 20.46 418.5 20.5 C 416.1 21.6 413.8 22.1 411.2 22.1 C 403.9 22.1 400.3 17 400.3 11.8 C 400.3 5.9 404.5 1.1 411.1 1.1 C 413.4 1.1 415.3 1.6 418 2.8 C 418 2.8 418 5.2 418 5.2 Z M 439.3 1.3 L 448.4 21.9 L 446.1 21.9 L 443.2 15.4 L 433.9 15.4 L 431.2 21.9 L 428.8 21.9 L 437.7 1.3 L 439.3 1.3 Z M 434.8 13.4 L 442.3 13.4 L 438.4 4.7 L 434.8 13.4 Z M 452.6 1.4 L 467.1 18.3 L 467.1 1.4 L 469.3 1.4 L 469.3 21.9 L 467.3 21.9 L 452.9 5 L 452.9 21.9 L 450.7 21.9 L 450.7 1.4 L 452.6 1.4 Z M 473.8 1.4 C 473.8 1.4 481.38 1.41 481.4 1.4 C 488.1 1.4 492.4 5.6 492.4 11.4 C 492.4 17.8 487.9 21.9 481.4 21.9 C 481.38 21.87 473.8 21.9 473.8 21.9 L 473.8 1.4 Z M 481.3 19.8 C 486.7 19.8 490 16.6 490 11.6 C 490 6.7 486.8 3.4 481 3.4 C 481.02 3.42 476.1 3.4 476.1 3.4 L 476.1 19.8 C 476.1 19.8 481.35 19.83 481.3 19.8 Z M 504.5 1.4 C 504.5 1.4 512.01 1.41 512 1.4 C 518.7 1.4 523 5.6 523 11.4 C 523 17.8 518.5 21.9 512 21.9 C 512.01 21.87 504.5 21.9 504.5 21.9 L 504.5 1.4 Z M 512 19.8 C 517.3 19.8 520.7 16.6 520.7 11.6 C 520.7 6.7 517.4 3.4 511.6 3.4 C 511.65 3.42 506.7 3.4 506.7 3.4 L 506.7 19.8 C 506.7 19.8 511.98 19.83 512 19.8 Z M 538 1.4 L 538 3.4 L 529 3.4 L 529 10.6 L 537.7 10.6 L 537.7 12.6 L 529 12.6 L 529 19.8 L 538.2 19.8 L 538.2 21.9 L 526.8 21.9 L 526.8 1.4 L 538 1.4 Z M 558.7 2.8 C 558.7 2.8 558.7 5.2 558.7 5.2 C 556.6 4 554.2 3.2 551.8 3.2 C 546.6 3.2 543.3 7.2 543.3 11.7 C 543.3 16.3 546.5 20 551.8 20 C 554.3 20 556.7 19.3 558.9 17.9 C 558.9 17.9 558.9 20.4 558.9 20.4 C 556.6 21.6 554.2 22.1 551.7 22.1 C 544.6 22.1 540.9 16.8 540.9 11.7 C 540.9 5.6 545.6 1.1 551.8 1.1 C 554.1 1.1 556.4 1.7 558.7 2.8 Z M 564.7 1.4 L 564.7 21.9 L 562.4 21.9 L 562.4 1.4 L 564.7 1.4 Z M 579.1 2.5 C 579.1 2.5 579.1 5 579.1 5 C 577.7 3.8 576.1 3.2 574.5 3.2 C 572.3 3.2 570.9 4.4 570.9 6.1 C 570.9 7.5 571.2 8.7 574.6 10.4 C 578.8 12.6 579.9 14 579.9 16.8 C 579.9 19.9 577.5 22.1 574 22.1 C 572.1 22.1 570.3 21.5 568.7 20.3 C 568.7 20.3 568.7 17.5 568.7 17.5 C 570.2 19.2 572 20.1 574 20.1 C 576.1 20.1 577.6 18.8 577.6 16.9 C 577.6 15.1 577 14.1 573.1 12 C 569.8 10.4 568.6 8.8 568.6 6.2 C 568.6 3.3 571.1 1.1 574.5 1.1 C 576.1 1.1 577.7 1.6 579.1 2.5 Z M 585.6 1.4 L 585.6 21.9 L 583.4 21.9 L 583.4 1.4 L 585.6 1.4 Z M 610.9 11.5 C 610.9 17.3 606.7 22.1 599.9 22.1 C 593.6 22.1 589.3 17.3 589.3 11.8 C 589.3 6.1 593.4 1.1 600 1.1 C 606.6 1.1 610.9 5.9 610.9 11.5 Z M 591.6 11.7 C 591.6 16.5 595.4 20 600 20 C 606.1 20 608.5 15.3 608.5 11.6 C 608.5 7.5 605.5 3.3 600.1 3.3 C 594.6 3.3 591.6 7.5 591.6 11.7 Z M 616.4 1.4 L 630.9 18.3 L 630.9 1.4 L 633.1 1.4 L 633.1 21.9 L 631.1 21.9 L 616.7 5 L 616.7 21.9 L 614.6 21.9 L 614.6 1.4 L 616.4 1.4 Z " stroke="none" fill="#000000"/>  </g></svg>