<?xml version="1.0" standalone="no"?><!DOCTYPE svg PUBLIC "-//W3C//DTD SVG 1.1//EN" "http://www.w3.org/Graphics/SVG/1.1/DTD/svg11.dtd"><svg xmlns="http://www.w3.org/2000/svg" version="1.1" width="139px" height="103.4px" viewBox="0 -5 139 103.4" style="top:-5px">  <desc>Managed SERVICES Delivering Value and Flexibility</desc>  <defs/>  <g id="Polygon42676">    <path d="M 8.5 72.9 L 8.5 74.3 L 3 74.3 L 3 78.7 L 8.4 78.7 L 8.4 80.1 L 3 80.1 L 3 86.6 L 1.5 86.6 L 1.5 72.9 L 8.5 72.9 Z M 12 72.9 L 12 85.2 L 18.5 85.2 L 18.5 86.6 L 10.5 86.6 L 10.5 72.9 L 12 72.9 Z M 27.7 72.9 L 27.7 74.3 L 21.7 74.3 L 21.7 79 L 27.5 79 L 27.5 80.4 L 21.7 80.4 L 21.7 85.2 L 27.8 85.2 L 27.8 86.6 L 20.2 86.6 L 20.2 72.9 L 27.7 72.9 Z M 31.4 72.9 C 33.6 75.5 34.2 76.2 36.1 78.5 C 37.6 76.8 39 75.1 40.8 72.9 C 40.78 72.94 42.6 72.9 42.6 72.9 L 37 79.5 L 42.9 86.6 L 41.1 86.6 L 36.1 80.6 L 31 86.6 L 29.2 86.6 L 35.2 79.5 L 29.6 72.9 C 29.6 72.9 31.42 72.94 31.4 72.9 Z M 46 72.9 L 46 86.6 L 44.5 86.6 L 44.5 72.9 L 46 72.9 Z M 52.6 72.9 C 55.2 72.9 56.8 74.2 56.8 76.4 C 56.8 77.9 56 78.9 54.6 79.4 C 56.7 79.7 58 81.1 58 82.9 C 58 85.4 55.8 86.6 53.3 86.6 C 53.26 86.58 49.1 86.6 49.1 86.6 L 49.1 72.9 C 49.1 72.9 52.62 72.94 52.6 72.9 Z M 50.6 79 C 50.6 79 52.08 79 52.1 79 C 54.3 79 55.3 78 55.3 76.6 C 55.3 75 54.3 74.3 52.3 74.3 C 52.32 74.26 50.6 74.3 50.6 74.3 L 50.6 79 Z M 53 85.3 C 55.2 85.3 56.4 84.5 56.4 82.8 C 56.4 81.2 55.3 80.3 52.8 80.3 C 52.76 80.3 50.6 80.3 50.6 80.3 L 50.6 85.3 C 50.6 85.3 52.98 85.26 53 85.3 Z M 61.7 72.9 L 61.7 86.6 L 60.2 86.6 L 60.2 72.9 L 61.7 72.9 Z M 66.3 72.9 L 66.3 85.2 L 72.7 85.2 L 72.7 86.6 L 64.8 86.6 L 64.8 72.9 L 66.3 72.9 Z M 76 72.9 L 76 86.6 L 74.5 86.6 L 74.5 72.9 L 76 72.9 Z M 89 72.9 L 89 74.3 L 84.1 74.3 L 84.1 86.6 L 82.6 86.6 L 82.6 74.3 L 77.8 74.3 L 77.8 72.9 L 89 72.9 Z M 91.3 72.9 L 95.4 78 L 99.5 72.9 L 101.3 72.9 L 96.2 79.3 L 96.2 86.6 L 94.6 86.6 L 94.6 79.3 L 89.5 72.9 L 91.3 72.9 Z " stroke="none" fill="#000000"/>  </g>  <g id="Polygon42675">    <path d="M 0 48.9 L 1.5 48.9 L 6 59.6 L 6 59.6 L 10.4 48.9 L 11.9 48.9 L 6.2 62.7 L 5.8 62.7 L 0 48.9 Z M 17.8 48.9 L 23.9 62.6 L 22.3 62.6 L 20.4 58.3 L 14.2 58.3 L 12.4 62.6 L 10.8 62.6 L 16.7 48.9 L 17.8 48.9 Z M 14.8 57 L 19.8 57 L 17.2 51.2 L 14.8 57 Z M 26.9 48.9 L 26.9 61.2 L 33.4 61.2 L 33.4 62.6 L 25.4 62.6 L 25.4 48.9 L 26.9 48.9 Z M 35.8 48.9 C 35.8 48.9 35.78 56.8 35.8 56.8 C 35.8 59.8 37.2 61.4 40 61.4 C 42.8 61.4 44.2 59.8 44.2 56.8 C 44.22 56.8 44.2 48.9 44.2 48.9 L 45.7 48.9 C 45.7 48.9 45.72 56.8 45.7 56.8 C 45.7 60.4 43.8 62.8 40 62.8 C 36.3 62.8 34.3 60.6 34.3 56.8 C 34.28 56.8 34.3 48.9 34.3 48.9 L 35.8 48.9 Z M 56.1 48.9 L 56.1 50.3 L 50.1 50.3 L 50.1 55 L 55.9 55 L 55.9 56.4 L 50.1 56.4 L 50.1 61.2 L 56.2 61.2 L 56.2 62.6 L 48.6 62.6 L 48.6 48.9 L 56.1 48.9 Z M 69.7 48.9 L 75.8 62.6 L 74.2 62.6 L 72.3 58.3 L 66.1 58.3 L 64.3 62.6 L 62.7 62.6 L 68.6 48.9 L 69.7 48.9 Z M 66.7 57 L 71.7 57 L 69.1 51.2 L 66.7 57 Z M 78.6 48.9 L 88.2 60.2 L 88.2 48.9 L 89.7 48.9 L 89.7 62.6 L 88.3 62.6 L 78.8 51.3 L 78.8 62.6 L 77.3 62.6 L 77.3 48.9 L 78.6 48.9 Z M 92.7 48.9 C 92.7 48.9 97.74 48.94 97.7 48.9 C 102.2 48.9 105.1 51.7 105.1 55.6 C 105.1 59.9 102.1 62.6 97.7 62.6 C 97.74 62.58 92.7 62.6 92.7 62.6 L 92.7 48.9 Z M 97.7 61.2 C 101.3 61.2 103.5 59.1 103.5 55.7 C 103.5 52.4 101.4 50.3 97.5 50.3 C 97.5 50.28 94.2 50.3 94.2 50.3 L 94.2 61.2 C 94.2 61.2 97.72 61.22 97.7 61.2 Z " stroke="none" fill="#000000"/>  </g>  <g id="Polygon42674">    <path d="M 1.5 24.9 C 1.5 24.9 6.56 24.94 6.6 24.9 C 11 24.9 13.9 27.7 13.9 31.6 C 13.9 35.9 10.9 38.6 6.6 38.6 C 6.56 38.58 1.5 38.6 1.5 38.6 L 1.5 24.9 Z M 6.5 37.2 C 10.1 37.2 12.3 35.1 12.3 31.7 C 12.3 28.4 10.2 26.3 6.3 26.3 C 6.32 26.28 3 26.3 3 26.3 L 3 37.2 C 3 37.2 6.54 37.22 6.5 37.2 Z M 23.9 24.9 L 23.9 26.3 L 17.9 26.3 L 17.9 31 L 23.7 31 L 23.7 32.4 L 17.9 32.4 L 17.9 37.2 L 24 37.2 L 24 38.6 L 16.4 38.6 L 16.4 24.9 L 23.9 24.9 Z M 27.9 24.9 L 27.9 37.2 L 34.4 37.2 L 34.4 38.6 L 26.4 38.6 L 26.4 24.9 L 27.9 24.9 Z M 37.6 24.9 L 37.6 38.6 L 36.1 38.6 L 36.1 24.9 L 37.6 24.9 Z M 39.2 24.9 L 40.7 24.9 L 45.1 35.6 L 45.1 35.6 L 49.5 24.9 L 51 24.9 L 45.3 38.7 L 44.9 38.7 L 39.2 24.9 Z M 60.1 24.9 L 60.1 26.3 L 54.1 26.3 L 54.1 31 L 59.9 31 L 59.9 32.4 L 54.1 32.4 L 54.1 37.2 L 60.2 37.2 L 60.2 38.6 L 52.6 38.6 L 52.6 24.9 L 60.1 24.9 Z M 62.6 24.9 C 62.6 24.9 66.22 24.94 66.2 24.9 C 69 24.9 70.4 26.5 70.4 28.6 C 70.4 30.3 69.5 31.5 67.8 32 C 68.7 32.4 69.1 32.8 70.2 34.5 C 70.2 34.5 72.8 38.6 72.8 38.6 L 71.1 38.6 C 71.1 38.6 68.66 34.82 68.7 34.8 C 67.4 32.8 66.6 32.4 65.4 32.4 C 65.4 32.38 64.1 32.4 64.1 32.4 L 64.1 38.6 L 62.6 38.6 L 62.6 24.9 Z M 65.5 31.1 C 67.4 31.1 68.8 30.6 68.8 28.6 C 68.8 26.9 67.8 26.3 66 26.3 C 66.02 26.26 64.1 26.3 64.1 26.3 L 64.1 31.1 C 64.1 31.1 65.54 31.06 65.5 31.1 Z M 75.8 24.9 L 75.8 38.6 L 74.3 38.6 L 74.3 24.9 L 75.8 24.9 Z M 80.1 24.9 L 89.8 36.2 L 89.8 24.9 L 91.2 24.9 L 91.2 38.6 L 89.9 38.6 L 80.3 27.3 L 80.3 38.6 L 78.9 38.6 L 78.9 24.9 L 80.1 24.9 Z M 105.6 27.4 C 104.1 26.6 102.4 26.1 100.9 26.1 C 97.7 26.1 95.3 28.5 95.3 31.7 C 95.3 35.1 97.6 37.4 101 37.4 C 102.1 37.4 102.9 37.2 104.3 36.7 C 104.34 36.72 104.3 33.4 104.3 33.4 L 101.6 33.4 L 101.6 32.1 L 105.8 32.1 C 105.8 32.1 105.84 37.64 105.8 37.6 C 104.3 38.4 102.8 38.8 101 38.8 C 96.1 38.8 93.7 35.3 93.7 31.8 C 93.7 28 96.6 24.8 100.9 24.8 C 102.5 24.8 103.8 25.1 105.6 25.9 C 105.6 25.9 105.6 27.4 105.6 27.4 Z " stroke="none" fill="#000000"/>  </g>  <g id="Polygon42673">    <path d="M 1.2 4.3 L 2.2 4.3 L 5.8 8.8 L 9.4 4.3 L 10.5 4.3 L 10.5 14.6 L 9.4 14.6 L 9.4 6.1 L 9.3 6.1 L 5.9 10.4 L 5.7 10.4 L 2.3 6.1 L 2.3 6.1 L 2.3 14.6 L 1.2 14.6 L 1.2 4.3 Z M 16.9 4.3 L 21.5 14.6 L 20.3 14.6 L 18.9 11.4 L 14.2 11.4 L 12.8 14.6 L 11.7 14.6 L 16.1 4.3 L 16.9 4.3 Z M 14.7 10.4 L 18.4 10.4 L 16.5 6 L 14.7 10.4 Z M 23.6 4.3 L 30.8 12.8 L 30.8 4.3 L 31.9 4.3 L 31.9 14.6 L 30.9 14.6 L 23.7 6.1 L 23.7 14.6 L 22.6 14.6 L 22.6 4.3 L 23.6 4.3 Z M 38.3 4.3 L 42.8 14.6 L 41.7 14.6 L 40.2 11.4 L 35.6 11.4 L 34.2 14.6 L 33.1 14.6 L 37.5 4.3 L 38.3 4.3 Z M 36 10.4 L 39.8 10.4 L 37.9 6 L 36 10.4 Z M 52 6.2 C 50.9 5.6 49.6 5.2 48.5 5.2 C 46.1 5.2 44.3 7 44.3 9.4 C 44.3 11.9 46 13.7 48.6 13.7 C 49.4 13.7 50 13.6 51.1 13.2 C 51.09 13.18 51.1 10.7 51.1 10.7 L 49 10.7 L 49 9.7 L 52.2 9.7 C 52.2 9.7 52.21 13.87 52.2 13.9 C 51 14.4 49.9 14.7 48.6 14.7 C 44.9 14.7 43.1 12.1 43.1 9.5 C 43.1 6.6 45.3 4.2 48.5 4.2 C 49.7 4.2 50.7 4.5 52 5.1 C 52 5.1 52 6.2 52 6.2 Z M 60 4.3 L 60 5.4 L 55.5 5.4 L 55.5 8.9 L 59.8 8.9 L 59.8 9.9 L 55.5 9.9 L 55.5 13.6 L 60.1 13.6 L 60.1 14.6 L 54.4 14.6 L 54.4 4.3 L 60 4.3 Z M 61.9 4.3 C 61.9 4.3 65.65 4.35 65.7 4.3 C 69 4.3 71.2 6.4 71.2 9.4 C 71.2 12.5 68.9 14.6 65.7 14.6 C 65.65 14.58 61.9 14.6 61.9 14.6 L 61.9 4.3 Z M 65.6 13.6 C 68.3 13.6 70 12 70 9.4 C 70 7 68.4 5.4 65.5 5.4 C 65.47 5.35 63 5.4 63 5.4 L 63 13.6 C 63 13.6 65.64 13.56 65.6 13.6 Z M 81.9 4.9 C 81.9 4.9 81.9 6.1 81.9 6.1 C 81.2 5.5 80.5 5.2 79.6 5.2 C 78.6 5.2 77.8 5.8 77.8 6.7 C 77.8 7.4 78 8 79.7 8.8 C 81.8 9.9 82.3 10.7 82.3 12.1 C 82.3 13.6 81.2 14.7 79.4 14.7 C 78.4 14.7 77.5 14.4 76.8 13.8 C 76.8 13.8 76.8 12.4 76.8 12.4 C 77.5 13.2 78.4 13.7 79.4 13.7 C 80.4 13.7 81.2 13.1 81.2 12.1 C 81.2 11.2 80.9 10.7 78.9 9.7 C 77.3 8.8 76.7 8.1 76.7 6.7 C 76.7 5.3 78 4.2 79.7 4.2 C 80.5 4.2 81.3 4.4 81.9 4.9 Z M 89.7 4.3 L 89.7 5.4 L 85.2 5.4 L 85.2 8.9 L 89.5 8.9 L 89.5 9.9 L 85.2 9.9 L 85.2 13.6 L 89.8 13.6 L 89.8 14.6 L 84.1 14.6 L 84.1 4.3 L 89.7 4.3 Z M 91.6 4.3 C 91.6 4.3 94.3 4.35 94.3 4.3 C 96.4 4.3 97.4 5.5 97.4 7.1 C 97.4 8.4 96.7 9.2 95.5 9.6 C 96.1 10 96.4 10.2 97.3 11.5 C 97.29 11.52 99.3 14.6 99.3 14.6 L 97.9 14.6 C 97.9 14.6 96.13 11.76 96.1 11.8 C 95.2 10.3 94.6 9.9 93.7 9.9 C 93.69 9.93 92.7 9.9 92.7 9.9 L 92.7 14.6 L 91.6 14.6 L 91.6 4.3 Z M 93.8 8.9 C 95.2 8.9 96.3 8.6 96.3 7.1 C 96.3 5.8 95.5 5.3 94.2 5.3 C 94.15 5.34 92.7 5.3 92.7 5.3 L 92.7 8.9 C 92.7 8.9 93.79 8.94 93.8 8.9 Z M 98.7 4.3 L 99.9 4.3 L 103.2 12.3 L 103.2 12.3 L 106.5 4.3 L 107.7 4.3 L 103.3 14.7 L 103.1 14.7 L 98.7 4.3 Z M 109.9 4.3 L 109.9 14.6 L 108.8 14.6 L 108.8 4.3 L 109.9 4.3 Z M 120.7 5 C 120.7 5 120.7 6.2 120.7 6.2 C 119.6 5.6 118.4 5.3 117.2 5.3 C 114.6 5.3 113 7.2 113 9.5 C 113 11.8 114.6 13.7 117.2 13.7 C 118.5 13.7 119.7 13.3 120.8 12.6 C 120.8 12.6 120.8 13.9 120.8 13.9 C 119.6 14.4 118.4 14.7 117.2 14.7 C 113.6 14.7 111.8 12.1 111.8 9.5 C 111.8 6.5 114.1 4.2 117.2 4.2 C 118.4 4.2 119.5 4.5 120.7 5 Z M 128.1 4.3 L 128.1 5.4 L 123.7 5.4 L 123.7 8.9 L 128 8.9 L 128 9.9 L 123.7 9.9 L 123.7 13.6 L 128.2 13.6 L 128.2 14.6 L 122.5 14.6 L 122.5 4.3 L 128.1 4.3 Z M 134.8 4.9 C 134.8 4.9 134.8 6.1 134.8 6.1 C 134.1 5.5 133.3 5.2 132.5 5.2 C 131.4 5.2 130.7 5.8 130.7 6.7 C 130.7 7.4 130.9 8 132.6 8.8 C 134.7 9.9 135.2 10.7 135.2 12.1 C 135.2 13.6 134 14.7 132.3 14.7 C 131.3 14.7 130.4 14.4 129.6 13.8 C 129.6 13.8 129.6 12.4 129.6 12.4 C 130.4 13.2 131.3 13.7 132.3 13.7 C 133.3 13.7 134.1 13.1 134.1 12.1 C 134.1 11.2 133.8 10.7 131.8 9.7 C 130.2 8.8 129.6 8.1 129.6 6.7 C 129.6 5.3 130.8 4.2 132.5 4.2 C 133.3 4.2 134.1 4.4 134.8 4.9 Z " stroke="none" fill="#f28620"/>  </g></svg>