<?xml version="1.0" standalone="no"?><!DOCTYPE svg PUBLIC "-//W3C//DTD SVG 1.1//EN" "http://www.w3.org/Graphics/SVG/1.1/DTD/svg11.dtd"><svg xmlns="http://www.w3.org/2000/svg" version="1.1" width="204px" height="39.1px" viewBox="0 -8 204 39.1" style="top:-8px">  <desc>Credibility</desc>  <defs/>  <g id="Polygon12832">    <path d="M 63.3 11.4 C 63.3 11.4 65.6 12 65.6 12 C 65.1 13.9 64.2 15.3 63 16.3 C 61.8 17.3 60.3 17.8 58.5 17.8 C 56.6 17.8 55.1 17.4 53.9 16.6 C 52.8 15.9 51.9 14.8 51.3 13.4 C 50.7 11.9 50.4 10.4 50.4 8.8 C 50.4 7 50.7 5.4 51.4 4.1 C 52.1 2.7 53.1 1.7 54.3 1 C 55.6 0.3 57 0 58.5 0 C 60.2 0 61.7 0.4 62.8 1.3 C 64 2.2 64.8 3.4 65.3 5 C 65.3 5 63 5.5 63 5.5 C 62.7 4.3 62.1 3.4 61.3 2.8 C 60.6 2.2 59.6 1.9 58.5 1.9 C 57.1 1.9 56 2.3 55.1 2.9 C 54.3 3.5 53.6 4.4 53.3 5.4 C 52.9 6.5 52.7 7.6 52.7 8.7 C 52.7 10.2 52.9 11.5 53.4 12.6 C 53.8 13.7 54.5 14.5 55.4 15 C 56.3 15.6 57.2 15.8 58.3 15.8 C 59.6 15.8 60.6 15.5 61.5 14.7 C 62.4 14 63 12.9 63.3 11.4 Z M 68.1 17.5 L 68.1 5 L 70 5 C 70 5 69.99 6.91 70 6.9 C 70.5 6 70.9 5.4 71.3 5.2 C 71.7 4.9 72.2 4.7 72.7 4.7 C 73.4 4.7 74.1 5 74.8 5.4 C 74.8 5.4 74.1 7.4 74.1 7.4 C 73.6 7.1 73.1 6.9 72.6 6.9 C 72.1 6.9 71.7 7.1 71.3 7.3 C 71 7.6 70.7 8 70.5 8.5 C 70.3 9.2 70.2 10.1 70.2 11 C 70.2 10.96 70.2 17.5 70.2 17.5 L 68.1 17.5 Z M 84.6 13.5 C 84.6 13.5 86.8 13.7 86.8 13.7 C 86.5 15 85.8 16 84.9 16.7 C 84 17.4 82.8 17.8 81.3 17.8 C 79.5 17.8 78.1 17.2 77 16.1 C 75.9 15 75.4 13.4 75.4 11.4 C 75.4 9.3 75.9 7.6 77 6.5 C 78.1 5.3 79.5 4.7 81.2 4.7 C 82.9 4.7 84.2 5.3 85.3 6.4 C 86.3 7.6 86.9 9.2 86.9 11.2 C 86.9 11.4 86.9 11.5 86.9 11.8 C 86.9 11.8 77.6 11.8 77.6 11.8 C 77.7 13.2 78 14.2 78.7 14.9 C 79.4 15.7 80.3 16 81.3 16 C 82.1 16 82.8 15.8 83.3 15.4 C 83.9 15 84.3 14.4 84.6 13.5 Z M 77.7 10.1 C 77.7 10.1 84.6 10.1 84.6 10.1 C 84.6 9 84.3 8.2 83.8 7.7 C 83.2 6.9 82.3 6.5 81.2 6.5 C 80.3 6.5 79.5 6.8 78.8 7.5 C 78.1 8.1 77.8 9 77.7 10.1 Z M 97.5 17.5 C 97.5 17.5 97.53 15.9 97.5 15.9 C 96.7 17.1 95.6 17.8 94 17.8 C 93.1 17.8 92.1 17.5 91.3 16.9 C 90.5 16.4 89.8 15.6 89.4 14.6 C 88.9 13.7 88.7 12.5 88.7 11.3 C 88.7 10 88.9 8.9 89.3 7.9 C 89.7 6.9 90.3 6.1 91.2 5.6 C 92 5 92.9 4.7 94 4.7 C 94.7 4.7 95.4 4.9 96 5.2 C 96.5 5.5 97 5.9 97.4 6.5 C 97.39 6.46 97.4 0.3 97.4 0.3 L 99.5 0.3 L 99.5 17.5 L 97.5 17.5 Z M 90.9 11.3 C 90.9 12.9 91.2 14 91.9 14.8 C 92.5 15.6 93.3 16 94.2 16 C 95.2 16 95.9 15.6 96.6 14.9 C 97.2 14.1 97.6 13 97.6 11.4 C 97.6 9.7 97.2 8.5 96.6 7.7 C 95.9 6.9 95.1 6.5 94.2 6.5 C 93.2 6.5 92.4 6.9 91.8 7.6 C 91.2 8.4 90.9 9.6 90.9 11.3 Z M 102.8 2.7 L 102.8 0.3 L 104.9 0.3 L 104.9 2.7 L 102.8 2.7 Z M 102.8 17.5 L 102.8 5 L 104.9 5 L 104.9 17.5 L 102.8 17.5 Z M 110.1 17.5 L 108.1 17.5 L 108.1 0.3 L 110.2 0.3 C 110.2 0.3 110.23 6.42 110.2 6.4 C 111.1 5.3 112.3 4.7 113.6 4.7 C 114.4 4.7 115.1 4.9 115.8 5.2 C 116.5 5.5 117.1 6 117.5 6.5 C 117.9 7.1 118.3 7.7 118.5 8.5 C 118.8 9.3 118.9 10.2 118.9 11.1 C 118.9 13.2 118.4 14.8 117.3 16 C 116.3 17.2 115 17.8 113.5 17.8 C 112.1 17.8 110.9 17.1 110.1 15.9 C 110.08 15.91 110.1 17.5 110.1 17.5 Z M 110.1 11.2 C 110.1 12.6 110.3 13.7 110.7 14.4 C 111.3 15.5 112.2 16 113.4 16 C 114.3 16 115.1 15.6 115.7 14.8 C 116.4 14 116.8 12.8 116.8 11.2 C 116.8 9.6 116.4 8.4 115.8 7.6 C 115.1 6.9 114.4 6.5 113.5 6.5 C 112.5 6.5 111.7 6.9 111.1 7.7 C 110.4 8.5 110.1 9.6 110.1 11.2 Z M 121.5 2.7 L 121.5 0.3 L 123.6 0.3 L 123.6 2.7 L 121.5 2.7 Z M 121.5 17.5 L 121.5 5 L 123.6 5 L 123.6 17.5 L 121.5 17.5 Z M 126.8 17.5 L 126.8 0.3 L 128.9 0.3 L 128.9 17.5 L 126.8 17.5 Z M 132.2 2.7 L 132.2 0.3 L 134.3 0.3 L 134.3 2.7 L 132.2 2.7 Z M 132.2 17.5 L 132.2 5 L 134.3 5 L 134.3 17.5 L 132.2 17.5 Z M 141.2 15.7 C 141.4 15.7 141.7 15.6 142.1 15.6 C 142.1 15.6 142.4 17.4 142.4 17.4 C 141.8 17.6 141.3 17.6 140.8 17.6 C 140 17.6 139.4 17.5 139 17.3 C 138.6 17 138.3 16.7 138.1 16.3 C 137.9 15.9 137.9 15.1 137.9 13.8 C 137.86 13.83 137.9 6.7 137.9 6.7 L 136.3 6.7 L 136.3 5 L 137.9 5 L 137.9 1.9 L 140 0.7 L 140 5 L 142.1 5 L 142.1 6.7 L 140 6.7 C 140 6.7 139.96 13.95 140 13.9 C 140 14.5 140 14.9 140.1 15.1 C 140.1 15.3 140.3 15.4 140.4 15.5 C 140.6 15.6 140.8 15.7 141.2 15.7 C 141.2 15.7 141.2 15.7 141.2 15.7 Z M 145.4 22.5 C 145 22.5 144.5 22.4 144 22.3 C 144 22.3 143.8 20.3 143.8 20.3 C 144.3 20.4 144.7 20.5 145 20.5 C 145.5 20.5 145.9 20.4 146.1 20.2 C 146.4 20.1 146.7 19.9 146.8 19.6 C 147 19.4 147.2 18.8 147.5 18 C 147.5 17.9 147.6 17.7 147.7 17.5 C 147.67 17.5 142.9 5 142.9 5 L 145.2 5 C 145.2 5 147.81 12.23 147.8 12.2 C 148.1 13.1 148.4 14.1 148.7 15.1 C 149 14.1 149.2 13.2 149.6 12.3 C 149.58 12.28 152.2 5 152.2 5 L 154.3 5 C 154.3 5 149.62 17.68 149.6 17.7 C 149.1 19.1 148.7 20 148.4 20.5 C 148.1 21.2 147.6 21.7 147.1 22 C 146.7 22.4 146.1 22.5 145.4 22.5 C 145.4 22.5 145.4 22.5 145.4 22.5 Z " stroke="none" fill="#000"/>  </g></svg>