<?xml version="1.0" standalone="no"?><!DOCTYPE svg PUBLIC "-//W3C//DTD SVG 1.1//EN" "http://www.w3.org/Graphics/SVG/1.1/DTD/svg11.dtd"><svg xmlns="http://www.w3.org/2000/svg" version="1.1" width="163px" height="103.4px" viewBox="0 -5 163 103.4" style="top:-5px">  <desc>Training Equality, Diversion and Inclusion 02</desc>  <defs/>  <g id="Polygon41792">    <path d="M 3 72.9 L 3 86.6 L 1.5 86.6 L 1.5 72.9 L 3 72.9 Z M 7.3 72.9 L 17 84.2 L 17 72.9 L 18.4 72.9 L 18.4 86.6 L 17.1 86.6 L 7.5 75.3 L 7.5 86.6 L 6.1 86.6 L 6.1 72.9 L 7.3 72.9 Z M 32.8 73.8 C 32.8 73.8 32.8 75.5 32.8 75.5 C 31.3 74.6 29.7 74.2 28.1 74.2 C 24.7 74.2 22.5 76.8 22.5 79.8 C 22.5 82.8 24.6 85.4 28.1 85.4 C 29.8 85.4 31.4 84.9 32.9 84 C 32.9 84 32.9 85.6 32.9 85.6 C 31.3 86.4 29.8 86.8 28.1 86.8 C 23.4 86.8 20.9 83.2 20.9 79.8 C 20.9 75.8 24 72.8 28.1 72.8 C 29.7 72.8 31.2 73.1 32.8 73.8 Z M 36.7 72.9 L 36.7 85.2 L 43.1 85.2 L 43.1 86.6 L 35.2 86.6 L 35.2 72.9 L 36.7 72.9 Z M 45.6 72.9 C 45.6 72.9 45.56 80.8 45.6 80.8 C 45.6 83.8 47 85.4 49.8 85.4 C 52.6 85.4 54 83.8 54 80.8 C 54 80.8 54 72.9 54 72.9 L 55.5 72.9 C 55.5 72.9 55.5 80.8 55.5 80.8 C 55.5 84.4 53.6 86.8 49.8 86.8 C 46.1 86.8 44.1 84.6 44.1 80.8 C 44.06 80.8 44.1 72.9 44.1 72.9 L 45.6 72.9 Z M 64.7 73.6 C 64.7 73.6 64.7 75.3 64.7 75.3 C 63.8 74.5 62.8 74.1 61.6 74.1 C 60.2 74.1 59.3 74.9 59.3 76.1 C 59.3 77 59.5 77.8 61.7 78.9 C 64.6 80.4 65.2 81.4 65.2 83.2 C 65.2 85.2 63.7 86.8 61.3 86.8 C 60 86.8 58.8 86.3 57.8 85.6 C 57.8 85.6 57.8 83.7 57.8 83.7 C 58.8 84.8 60 85.4 61.3 85.4 C 62.7 85.4 63.7 84.6 63.7 83.2 C 63.7 82.1 63.3 81.4 60.7 80 C 58.6 78.9 57.7 77.9 57.7 76.1 C 57.7 74.2 59.4 72.8 61.7 72.8 C 62.7 72.8 63.8 73.1 64.7 73.6 Z M 69.1 72.9 L 69.1 86.6 L 67.6 86.6 L 67.6 72.9 L 69.1 72.9 Z M 85.9 79.7 C 85.9 83.5 83.1 86.8 78.6 86.8 C 74.4 86.8 71.5 83.5 71.5 79.8 C 71.5 76 74.3 72.8 78.7 72.8 C 83 72.8 85.9 75.9 85.9 79.7 Z M 73.1 79.8 C 73.1 83 75.6 85.4 78.6 85.3 C 82.7 85.3 84.4 82.2 84.4 79.7 C 84.4 77 82.3 74.2 78.8 74.2 C 75 74.2 73.1 77 73.1 79.8 Z M 89.6 72.9 L 99.3 84.2 L 99.3 72.9 L 100.7 72.9 L 100.7 86.6 L 99.4 86.6 L 89.8 75.3 L 89.8 86.6 L 88.4 86.6 L 88.4 72.9 L 89.6 72.9 Z M 108.4 79.8 C 108.4 75.2 110.5 72.8 112.9 72.8 C 115.5 72.8 117.2 75.7 117.2 79.7 C 117.2 84.1 115.3 86.8 112.8 86.8 C 110.1 86.8 108.4 84 108.4 79.8 Z M 115.7 79.8 C 115.7 76.2 114.5 74.1 112.8 74.1 C 111.1 74.1 109.9 76.2 109.9 79.7 C 109.9 83.3 111 85.4 112.8 85.4 C 114.6 85.4 115.7 83.3 115.7 79.8 Z M 126.2 76.8 C 126.2 79.7 123.7 82.5 121.4 85.1 C 121.36 85.14 127.1 85.1 127.1 85.1 L 127.1 86.6 L 118.7 86.6 C 118.7 86.6 119.04 86.1 119 86.1 C 120.7 84.3 124.7 80.3 124.7 77 C 124.7 74.9 123.2 74.2 122 74.2 C 120.9 74.2 119.8 74.8 118.9 75.9 C 118.9 75.9 118.9 74 118.9 74 C 119.9 73.2 121 72.8 122.2 72.8 C 124.6 72.8 126.2 74.5 126.2 76.8 Z " stroke="none" fill="#000000"/>  </g>  <g id="Polygon41791">    <path d="M 1.5 48.9 C 1.5 48.9 6.56 48.94 6.6 48.9 C 11 48.9 13.9 51.7 13.9 55.6 C 13.9 59.9 10.9 62.6 6.6 62.6 C 6.56 62.58 1.5 62.6 1.5 62.6 L 1.5 48.9 Z M 6.5 61.2 C 10.1 61.2 12.3 59.1 12.3 55.7 C 12.3 52.4 10.2 50.3 6.3 50.3 C 6.32 50.28 3 50.3 3 50.3 L 3 61.2 C 3 61.2 6.54 61.22 6.5 61.2 Z M 17.9 48.9 L 17.9 62.6 L 16.4 62.6 L 16.4 48.9 L 17.9 48.9 Z M 19.5 48.9 L 21 48.9 L 25.4 59.6 L 25.4 59.6 L 29.8 48.9 L 31.3 48.9 L 25.6 62.7 L 25.2 62.7 L 19.5 48.9 Z M 40.4 48.9 L 40.4 50.3 L 34.4 50.3 L 34.4 55 L 40.2 55 L 40.2 56.4 L 34.4 56.4 L 34.4 61.2 L 40.5 61.2 L 40.5 62.6 L 32.9 62.6 L 32.9 48.9 L 40.4 48.9 Z M 42.9 48.9 C 42.9 48.9 46.52 48.94 46.5 48.9 C 49.3 48.9 50.7 50.5 50.7 52.6 C 50.7 54.3 49.8 55.5 48.1 56 C 49 56.4 49.4 56.8 50.5 58.5 C 50.5 58.5 53.1 62.6 53.1 62.6 L 51.4 62.6 C 51.4 62.6 48.96 58.82 49 58.8 C 47.7 56.8 46.9 56.4 45.7 56.4 C 45.7 56.38 44.4 56.4 44.4 56.4 L 44.4 62.6 L 42.9 62.6 L 42.9 48.9 Z M 45.8 55.1 C 47.7 55.1 49.1 54.6 49.1 52.6 C 49.1 50.9 48.1 50.3 46.3 50.3 C 46.32 50.26 44.4 50.3 44.4 50.3 L 44.4 55.1 C 44.4 55.1 45.84 55.06 45.8 55.1 Z M 61.3 49.6 C 61.3 49.6 61.3 51.3 61.3 51.3 C 60.3 50.5 59.3 50.1 58.2 50.1 C 56.8 50.1 55.8 50.9 55.8 52.1 C 55.8 53 56 53.8 58.3 54.9 C 61.1 56.4 61.8 57.4 61.8 59.2 C 61.8 61.2 60.2 62.8 57.9 62.8 C 56.6 62.8 55.4 62.3 54.4 61.6 C 54.4 61.6 54.4 59.7 54.4 59.7 C 55.4 60.8 56.6 61.4 57.9 61.4 C 59.3 61.4 60.3 60.6 60.3 59.2 C 60.3 58.1 59.9 57.4 57.3 56 C 55.1 54.9 54.3 53.9 54.3 52.1 C 54.3 50.2 56 48.8 58.2 48.8 C 59.3 48.8 60.4 49.1 61.3 49.6 Z M 65.6 48.9 L 65.6 62.6 L 64.1 62.6 L 64.1 48.9 L 65.6 48.9 Z M 82.5 55.7 C 82.5 59.5 79.7 62.8 75.2 62.8 C 70.9 62.8 68.1 59.5 68.1 55.8 C 68.1 52 70.8 48.8 75.2 48.8 C 79.6 48.8 82.5 51.9 82.5 55.7 Z M 69.6 55.8 C 69.6 59 72.1 61.4 75.2 61.3 C 79.3 61.3 80.9 58.2 80.9 55.7 C 80.9 53 78.9 50.2 75.3 50.2 C 71.6 50.2 69.6 53 69.6 55.8 Z M 86.2 48.9 L 95.8 60.2 L 95.8 48.9 L 97.3 48.9 L 97.3 62.6 L 96 62.6 L 86.4 51.3 L 86.4 62.6 L 84.9 62.6 L 84.9 48.9 L 86.2 48.9 Z M 111.4 48.9 L 117.4 62.6 L 115.9 62.6 L 114 58.3 L 107.8 58.3 L 105.9 62.6 L 104.4 62.6 L 110.3 48.9 L 111.4 48.9 Z M 108.4 57 L 113.4 57 L 110.8 51.2 L 108.4 57 Z M 120.2 48.9 L 129.9 60.2 L 129.9 48.9 L 131.3 48.9 L 131.3 62.6 L 130 62.6 L 120.4 51.3 L 120.4 62.6 L 119 62.6 L 119 48.9 L 120.2 48.9 Z M 134.4 48.9 C 134.4 48.9 139.42 48.94 139.4 48.9 C 143.9 48.9 146.8 51.7 146.8 55.6 C 146.8 59.9 143.8 62.6 139.4 62.6 C 139.42 62.58 134.4 62.6 134.4 62.6 L 134.4 48.9 Z M 139.4 61.2 C 143 61.2 145.2 59.1 145.2 55.7 C 145.2 52.4 143 50.3 139.2 50.3 C 139.18 50.28 135.9 50.3 135.9 50.3 L 135.9 61.2 C 135.9 61.2 139.4 61.22 139.4 61.2 Z " stroke="none" fill="#000000"/>  </g>  <g id="Polygon41790">    <path d="M 9 24.9 L 9 26.3 L 3 26.3 L 3 31 L 8.8 31 L 8.8 32.4 L 3 32.4 L 3 37.2 L 9.2 37.2 L 9.2 38.6 L 1.5 38.6 L 1.5 24.9 L 9 24.9 Z M 25 39.7 C 25 39.7 23.32 41.36 23.3 41.4 C 21.1 41.1 18.5 40 16 38.4 C 12.8 37.5 11 34.9 11 31.8 C 11 27.6 14.2 24.8 18.1 24.8 C 22.9 24.8 25.4 28.3 25.4 31.7 C 25.4 35.2 22.9 38.1 19.4 38.6 C 20.9 39.5 22.6 40.1 23.6 40.1 C 24 40.1 24.4 39.9 24.9 39.6 C 24.86 39.62 25 39.7 25 39.7 Z M 23.8 31.8 C 23.8 28.9 21.8 26.2 18.2 26.2 C 14.5 26.2 12.5 29 12.5 31.8 C 12.5 34.9 14.9 37.3 18.1 37.3 C 21.4 37.3 23.8 35 23.8 31.8 Z M 29.1 24.9 C 29.1 24.9 29.14 32.8 29.1 32.8 C 29.1 35.8 30.6 37.4 33.4 37.4 C 36.2 37.4 37.6 35.8 37.6 32.8 C 37.58 32.8 37.6 24.9 37.6 24.9 L 39.1 24.9 C 39.1 24.9 39.08 32.8 39.1 32.8 C 39.1 36.4 37.2 38.8 33.4 38.8 C 29.6 38.8 27.6 36.6 27.6 32.8 C 27.64 32.8 27.6 24.9 27.6 24.9 L 29.1 24.9 Z M 46.9 24.9 L 53 38.6 L 51.5 38.6 L 49.5 34.3 L 43.3 34.3 L 41.5 38.6 L 40 38.6 L 45.9 24.9 L 46.9 24.9 Z M 43.9 33 L 48.9 33 L 46.4 27.2 L 43.9 33 Z M 56.1 24.9 L 56.1 37.2 L 62.5 37.2 L 62.5 38.6 L 54.6 38.6 L 54.6 24.9 L 56.1 24.9 Z M 65.7 24.9 L 65.7 38.6 L 64.2 38.6 L 64.2 24.9 L 65.7 24.9 Z M 78.7 24.9 L 78.7 26.3 L 73.9 26.3 L 73.9 38.6 L 72.4 38.6 L 72.4 26.3 L 67.5 26.3 L 67.5 24.9 L 78.7 24.9 Z M 81.1 24.9 L 85.2 30 L 89.2 24.9 L 91 24.9 L 85.9 31.3 L 85.9 38.6 L 84.4 38.6 L 84.4 31.3 L 79.3 24.9 L 81.1 24.9 Z M 90.6 40.4 C 91 40.1 91.3 39.5 91.3 38.6 C 91.3 38.58 90.7 38.6 90.7 38.6 L 90.7 36.7 L 92.4 36.7 C 92.4 36.7 92.42 38.12 92.4 38.1 C 92.4 39.9 91.7 40.7 90.6 41.1 C 90.6 41.1 90.6 40.4 90.6 40.4 Z " stroke="none" fill="#000000"/>  </g>  <g id="Polygon41789">    <path d="M 8.6 4.3 L 8.6 5.3 L 5 5.3 L 5 14.6 L 3.8 14.6 L 3.8 5.3 L 0.2 5.3 L 0.2 4.3 L 8.6 4.3 Z M 10 4.3 C 10 4.3 12.69 4.35 12.7 4.3 C 14.7 4.3 15.8 5.5 15.8 7.1 C 15.8 8.4 15.1 9.2 13.9 9.6 C 14.5 10 14.8 10.2 15.7 11.5 C 15.67 11.52 17.7 14.6 17.7 14.6 L 16.3 14.6 C 16.3 14.6 14.52 11.76 14.5 11.8 C 13.6 10.3 12.9 9.9 12.1 9.9 C 12.07 9.93 11.1 9.9 11.1 9.9 L 11.1 14.6 L 10 14.6 L 10 4.3 Z M 12.2 8.9 C 13.6 8.9 14.7 8.6 14.7 7.1 C 14.7 5.8 13.8 5.3 12.5 5.3 C 12.54 5.34 11.1 5.3 11.1 5.3 L 11.1 8.9 C 11.1 8.9 12.18 8.94 12.2 8.9 Z M 22.9 4.3 L 27.4 14.6 L 26.3 14.6 L 24.8 11.4 L 20.2 11.4 L 18.8 14.6 L 17.7 14.6 L 22.1 4.3 L 22.9 4.3 Z M 20.6 10.4 L 24.4 10.4 L 22.5 6 L 20.6 10.4 Z M 29.7 4.3 L 29.7 14.6 L 28.6 14.6 L 28.6 4.3 L 29.7 4.3 Z M 33 4.3 L 40.2 12.8 L 40.2 4.3 L 41.3 4.3 L 41.3 14.6 L 40.3 14.6 L 33.1 6.1 L 33.1 14.6 L 32 14.6 L 32 4.3 L 33 4.3 Z M 44.7 4.3 L 44.7 14.6 L 43.6 14.6 L 43.6 4.3 L 44.7 4.3 Z M 47.9 4.3 L 55.2 12.8 L 55.2 4.3 L 56.2 4.3 L 56.2 14.6 L 55.3 14.6 L 48.1 6.1 L 48.1 14.6 L 47 14.6 L 47 4.3 L 47.9 4.3 Z M 67 6.2 C 65.9 5.6 64.6 5.2 63.5 5.2 C 61.1 5.2 59.3 7 59.3 9.4 C 59.3 11.9 61 13.7 63.6 13.7 C 64.4 13.7 65 13.6 66.1 13.2 C 66.07 13.18 66.1 10.7 66.1 10.7 L 64 10.7 L 64 9.7 L 67.2 9.7 C 67.2 9.7 67.2 13.87 67.2 13.9 C 66 14.4 64.9 14.7 63.6 14.7 C 59.9 14.7 58.1 12.1 58.1 9.5 C 58.1 6.6 60.2 4.2 63.5 4.2 C 64.7 4.2 65.6 4.5 67 5.1 C 67 5.1 67 6.2 67 6.2 Z " stroke="none" fill="#f28620"/>  </g></svg>