<?xml version="1.0" standalone="no"?><!DOCTYPE svg PUBLIC "-//W3C//DTD SVG 1.1//EN" "http://www.w3.org/Graphics/SVG/1.1/DTD/svg11.dtd"><svg xmlns="http://www.w3.org/2000/svg" version="1.1" width="638.3px" height="46.1px" viewBox="0 -8 638.3 46.1" style="top:-8px">  <desc>AWARDING I LEARNING I MANAGED SERVICES</desc>  <defs/>  <g id="Polygon4400">    <path d="M 10.1 1.3 L 19.2 21.9 L 17.6 21.9 L 14.6 15.1 L 4.7 15.1 L 1.7 21.9 L 0.1 21.9 L 9 1.3 L 10.1 1.3 Z M 5.3 13.7 L 13.9 13.7 L 9.6 3.7 L 5.3 13.7 Z M 17.7 1.4 L 19.4 1.4 L 26 18.4 L 26 18.4 L 32.5 1.4 L 33.8 1.4 L 40.4 18.3 L 40.4 18.3 L 46.9 1.4 L 48.5 1.4 L 40.6 22 L 40.2 22 L 33.2 3.9 L 26.2 22 L 25.9 22 L 17.7 1.4 Z M 57.1 1.3 L 66.2 21.9 L 64.5 21.9 L 61.5 15.1 L 51.6 15.1 L 48.7 21.9 L 47 21.9 L 56 1.3 L 57.1 1.3 Z M 52.2 13.7 L 60.9 13.7 L 56.5 3.7 L 52.2 13.7 Z M 68.6 1.4 C 68.6 1.4 73.77 1.41 73.8 1.4 C 77.8 1.4 80 3.5 80 6.7 C 80 9.4 78.4 11.2 75.7 11.7 C 77.1 12.3 77.8 13 79.1 15.1 C 79.11 15.06 83.5 21.9 83.5 21.9 L 81.6 21.9 C 81.6 21.9 77.64 15.6 77.6 15.6 C 75.9 12.9 74.7 12.2 72.7 12.2 C 72.66 12.21 70.2 12.2 70.2 12.2 L 70.2 21.9 L 68.6 21.9 L 68.6 1.4 Z M 72.5 10.8 C 76 10.8 78.4 10 78.4 6.7 C 78.4 3.7 76.3 2.8 73.4 2.8 C 73.38 2.82 70.2 2.8 70.2 2.8 L 70.2 10.8 C 70.2 10.8 72.54 10.77 72.5 10.8 Z M 85.7 1.4 C 85.7 1.4 92.97 1.41 93 1.4 C 99.5 1.4 103.9 5.5 103.9 11.4 C 103.9 17.8 99.5 21.9 93 21.9 C 93 21.87 85.7 21.9 85.7 21.9 L 85.7 1.4 Z M 93.1 20.4 C 98.6 20.4 102.3 16.9 102.3 11.7 C 102.3 6.2 98.6 2.8 92.8 2.8 C 92.82 2.85 87.2 2.8 87.2 2.8 L 87.2 20.4 C 87.2 20.4 93.06 20.43 93.1 20.4 Z M 109.3 1.4 L 109.3 21.9 L 107.8 21.9 L 107.8 1.4 L 109.3 1.4 Z M 115.3 1.4 L 130.6 19.4 L 130.6 1.4 L 132.1 1.4 L 132.1 21.9 L 130.7 21.9 L 115.5 3.9 L 115.5 21.9 L 114 21.9 L 114 1.4 L 115.3 1.4 Z M 153.2 4.4 C 151 3.2 148.6 2.6 146.4 2.6 C 141.3 2.6 137.5 6.4 137.5 11.5 C 137.5 17 141.1 20.7 146.6 20.7 C 148.5 20.7 150.1 20.3 152.1 19.5 C 152.07 19.47 152.1 13.8 152.1 13.8 L 147.7 13.8 L 147.7 12.4 L 153.6 12.4 C 153.6 12.4 153.63 20.49 153.6 20.5 C 151.5 21.6 149.3 22.1 146.6 22.1 C 139.7 22.1 135.9 17.4 135.9 11.7 C 135.9 5.8 140.1 1.1 146.5 1.1 C 148.8 1.1 150.9 1.6 153.2 2.7 C 153.2 2.7 153.2 4.4 153.2 4.4 Z M 176.1 1.4 L 176.1 21.9 L 174.5 21.9 L 174.5 1.4 L 176.1 1.4 Z M 198.9 1.4 L 198.9 20.4 L 209 20.4 L 209 21.9 L 197.4 21.9 L 197.4 1.4 L 198.9 1.4 Z M 222.4 1.4 L 222.4 2.8 L 213.2 2.8 L 213.2 10.8 L 222.1 10.8 L 222.1 12.3 L 213.2 12.3 L 213.2 20.5 L 222.7 20.5 L 222.7 21.9 L 211.6 21.9 L 211.6 1.4 L 222.4 1.4 Z M 234.7 1.3 L 243.8 21.9 L 242.1 21.9 L 239.1 15.1 L 229.2 15.1 L 226.3 21.9 L 224.6 21.9 L 233.6 1.3 L 234.7 1.3 Z M 229.8 13.7 L 238.5 13.7 L 234.1 3.7 L 229.8 13.7 Z M 246.2 1.4 C 246.2 1.4 251.36 1.41 251.4 1.4 C 255.4 1.4 257.6 3.5 257.6 6.7 C 257.6 9.4 256 11.2 253.3 11.7 C 254.7 12.3 255.3 13 256.7 15.1 C 256.7 15.06 261 21.9 261 21.9 L 259.2 21.9 C 259.2 21.9 255.23 15.6 255.2 15.6 C 253.5 12.9 252.3 12.2 250.2 12.2 C 250.25 12.21 247.8 12.2 247.8 12.2 L 247.8 21.9 L 246.2 21.9 L 246.2 1.4 Z M 250.1 10.8 C 253.6 10.8 256 10 256 6.7 C 256 3.7 253.9 2.8 251 2.8 C 250.97 2.82 247.8 2.8 247.8 2.8 L 247.8 10.8 C 247.8 10.8 250.13 10.77 250.1 10.8 Z M 264.6 1.4 L 279.9 19.4 L 279.9 1.4 L 281.4 1.4 L 281.4 21.9 L 280 21.9 L 264.8 3.9 L 264.8 21.9 L 263.3 21.9 L 263.3 1.4 L 264.6 1.4 Z M 287.6 1.4 L 287.6 21.9 L 286 21.9 L 286 1.4 L 287.6 1.4 Z M 293.6 1.4 L 308.9 19.4 L 308.9 1.4 L 310.4 1.4 L 310.4 21.9 L 309 21.9 L 293.8 3.9 L 293.8 21.9 L 292.3 21.9 L 292.3 1.4 L 293.6 1.4 Z M 331.5 4.4 C 329.3 3.2 326.9 2.6 324.6 2.6 C 319.6 2.6 315.8 6.4 315.8 11.5 C 315.8 17 319.4 20.7 324.9 20.7 C 326.7 20.7 328.4 20.3 330.3 19.5 C 330.35 19.47 330.3 13.8 330.3 13.8 L 325.9 13.8 L 325.9 12.4 L 331.9 12.4 C 331.9 12.4 331.91 20.49 331.9 20.5 C 329.8 21.6 327.6 22.1 324.9 22.1 C 318 22.1 314.1 17.4 314.1 11.7 C 314.1 5.8 318.4 1.1 324.7 1.1 C 327.1 1.1 329.1 1.6 331.5 2.7 C 331.5 2.7 331.5 4.4 331.5 4.4 Z M 354.4 1.4 L 354.4 21.9 L 352.8 21.9 L 352.8 1.4 L 354.4 1.4 Z M 375.6 1.4 L 377.2 1.4 L 384.8 11 L 392.5 1.4 L 394 1.4 L 394 21.9 L 392.4 21.9 L 392.4 3.9 L 392.3 3.9 L 384.9 13.2 L 384.7 13.2 L 377.3 3.9 L 377.2 3.9 L 377.2 21.9 L 375.6 21.9 L 375.6 1.4 Z M 406.4 1.3 L 415.5 21.9 L 413.9 21.9 L 410.9 15.1 L 401 15.1 L 398 21.9 L 396.4 21.9 L 405.3 1.3 L 406.4 1.3 Z M 401.6 13.7 L 410.3 13.7 L 405.9 3.7 L 401.6 13.7 Z M 419.3 1.4 L 434.6 19.4 L 434.6 1.4 L 436.1 1.4 L 436.1 21.9 L 434.7 21.9 L 419.5 3.9 L 419.5 21.9 L 418 21.9 L 418 1.4 L 419.3 1.4 Z M 448.5 1.3 L 457.6 21.9 L 456 21.9 L 453 15.1 L 443 15.1 L 440.1 21.9 L 438.5 21.9 L 447.4 1.3 L 448.5 1.3 Z M 443.7 13.7 L 452.3 13.7 L 448 3.7 L 443.7 13.7 Z M 475.6 4.4 C 473.4 3.2 471 2.6 468.8 2.6 C 463.7 2.6 459.9 6.4 459.9 11.5 C 459.9 17 463.5 20.7 469 20.7 C 470.9 20.7 472.5 20.3 474.5 19.5 C 474.46 19.47 474.5 13.8 474.5 13.8 L 470 13.8 L 470 12.4 L 476 12.4 C 476 12.4 476.02 20.49 476 20.5 C 473.9 21.6 471.7 22.1 469 22.1 C 462.1 22.1 458.3 17.4 458.3 11.7 C 458.3 5.8 462.5 1.1 468.8 1.1 C 471.2 1.1 473.3 1.6 475.6 2.7 C 475.6 2.7 475.6 4.4 475.6 4.4 Z M 491.1 1.4 L 491.1 2.8 L 481.9 2.8 L 481.9 10.8 L 490.8 10.8 L 490.8 12.3 L 481.9 12.3 L 481.9 20.5 L 491.3 20.5 L 491.3 21.9 L 480.3 21.9 L 480.3 1.4 L 491.1 1.4 Z M 494.8 1.4 C 494.8 1.4 502.09 1.41 502.1 1.4 C 508.7 1.4 513.1 5.5 513.1 11.4 C 513.1 17.8 508.6 21.9 502.1 21.9 C 502.12 21.87 494.8 21.9 494.8 21.9 L 494.8 1.4 Z M 502.2 20.4 C 507.7 20.4 511.4 16.9 511.4 11.7 C 511.4 6.2 507.8 2.8 501.9 2.8 C 501.94 2.85 496.4 2.8 496.4 2.8 L 496.4 20.4 C 496.4 20.4 502.18 20.43 502.2 20.4 Z M 534.2 2.3 C 534.2 2.3 534.2 4.1 534.2 4.1 C 532.8 3.1 531.3 2.5 529.8 2.5 C 527.3 2.5 525.7 4 525.7 6.1 C 525.7 7.7 526.1 9.1 529.8 10.7 C 533.9 12.6 535 14.1 535 16.9 C 535 19.9 532.7 22.1 529.2 22.1 C 527.3 22.1 525.6 21.6 524.1 20.5 C 524.1 20.5 524.1 18.5 524.1 18.5 C 525.7 20 527.4 20.7 529.3 20.7 C 531.7 20.7 533.4 19.2 533.4 16.9 C 533.4 14.8 532.6 13.7 528.8 11.9 C 525.4 10.3 524.1 8.8 524.1 6.2 C 524.1 3.3 526.5 1.1 529.8 1.1 C 531.3 1.1 532.9 1.5 534.2 2.3 Z M 549.2 1.4 L 549.2 2.8 L 540 2.8 L 540 10.8 L 548.9 10.8 L 548.9 12.3 L 540 12.3 L 540 20.5 L 549.5 20.5 L 549.5 21.9 L 538.4 21.9 L 538.4 1.4 L 549.2 1.4 Z M 552.9 1.4 C 552.9 1.4 558.09 1.41 558.1 1.4 C 562.2 1.4 564.3 3.5 564.3 6.7 C 564.3 9.4 562.7 11.2 560 11.7 C 561.4 12.3 562.1 13 563.4 15.1 C 563.43 15.06 567.8 21.9 567.8 21.9 L 565.9 21.9 C 565.9 21.9 561.96 15.6 562 15.6 C 560.2 12.9 559 12.2 557 12.2 C 556.98 12.21 554.5 12.2 554.5 12.2 L 554.5 21.9 L 552.9 21.9 L 552.9 1.4 Z M 556.9 10.8 C 560.3 10.8 562.7 10 562.7 6.7 C 562.7 3.7 560.6 2.8 557.7 2.8 C 557.7 2.82 554.5 2.8 554.5 2.8 L 554.5 10.8 C 554.5 10.8 556.86 10.77 556.9 10.8 Z M 566.7 1.4 L 568.3 1.4 L 575.5 18.8 L 575.5 18.8 L 582.7 1.4 L 584.2 1.4 L 575.6 22.2 L 575.3 22.2 L 566.7 1.4 Z M 588.2 1.4 L 588.2 21.9 L 586.7 21.9 L 586.7 1.4 L 588.2 1.4 Z M 609.4 2.7 C 609.4 2.7 609.4 4.5 609.4 4.5 C 607.3 3.3 604.9 2.6 602.6 2.6 C 597.2 2.6 593.7 6.7 593.7 11.7 C 593.7 16.8 597.2 20.7 602.6 20.7 C 605 20.7 607.3 20 609.4 18.7 C 609.4 18.7 609.4 20.5 609.4 20.5 C 607.3 21.6 605.1 22.1 602.6 22.1 C 595.9 22.1 592 17.2 592 11.8 C 592 5.6 596.4 1.1 602.6 1.1 C 605 1.1 607.2 1.7 609.4 2.7 Z M 623.7 1.4 L 623.7 2.8 L 614.5 2.8 L 614.5 10.8 L 623.4 10.8 L 623.4 12.3 L 614.5 12.3 L 614.5 20.5 L 624 20.5 L 624 21.9 L 612.9 21.9 L 612.9 1.4 L 623.7 1.4 Z M 636.4 2.3 C 636.4 2.3 636.4 4.1 636.4 4.1 C 635 3.1 633.5 2.5 632 2.5 C 629.5 2.5 627.9 4 627.9 6.1 C 627.9 7.7 628.3 9.1 632 10.7 C 636.1 12.6 637.2 14.1 637.2 16.9 C 637.2 19.9 634.9 22.1 631.5 22.1 C 629.6 22.1 627.9 21.6 626.4 20.5 C 626.4 20.5 626.4 18.5 626.4 18.5 C 628 20 629.6 20.7 631.5 20.7 C 633.9 20.7 635.6 19.2 635.6 16.9 C 635.6 14.8 634.9 13.7 631 11.9 C 627.6 10.3 626.3 8.8 626.3 6.2 C 626.3 3.3 628.7 1.1 632.1 1.1 C 633.6 1.1 635.1 1.5 636.4 2.3 Z " stroke="none" fill="#ffffff"/>  </g></svg>