<?xml version="1.0" standalone="no"?><!DOCTYPE svg PUBLIC "-//W3C//DTD SVG 1.1//EN" "http://www.w3.org/Graphics/SVG/1.1/DTD/svg11.dtd"><svg xmlns="http://www.w3.org/2000/svg" version="1.1" width="508px" height="90.3px" viewBox="0 -14 508 90.3" style="top:-14px">  <desc>Client Feedback</desc>  <defs/>  <g id="Polygon21377">    <path d="M 38.4 5.5 C 38.4 5.5 38.4 10.4 38.4 10.4 C 34.1 7.9 29.3 6.5 24.5 6.5 C 14.1 6.5 7.5 14.3 7.5 23.3 C 7.5 32.5 14 40.1 24.5 40.1 C 29.6 40.1 34.3 38.6 38.7 35.9 C 38.7 35.9 38.7 40.9 38.7 40.9 C 34.1 43.2 29.4 44.3 24.4 44.3 C 10.2 44.3 2.8 33.7 2.8 23.5 C 2.8 11.3 12.2 2.3 24.5 2.3 C 29.1 2.3 33.8 3.4 38.4 5.5 Z M 50.3 2.8 L 50.3 39.6 L 69.5 39.6 L 69.5 43.7 L 45.8 43.7 L 45.8 2.8 L 50.3 2.8 Z M 79.3 2.8 L 79.3 43.7 L 74.8 43.7 L 74.8 2.8 L 79.3 2.8 Z M 110.8 2.8 L 110.8 6.8 L 92.9 6.8 L 92.9 21.1 L 110.2 21.1 L 110.2 25.1 L 92.9 25.1 L 92.9 39.7 L 111.3 39.7 L 111.3 43.7 L 88.4 43.7 L 88.4 2.8 L 110.8 2.8 Z M 122.3 2.8 L 151.3 36.7 L 151.3 2.8 L 155.6 2.8 L 155.6 43.7 L 151.6 43.7 L 122.9 10 L 122.9 43.7 L 118.6 43.7 L 118.6 2.8 L 122.3 2.8 Z M 194.6 2.8 L 194.6 6.8 L 180 6.8 L 180 43.7 L 175.5 43.7 L 175.5 6.8 L 161 6.8 L 161 2.8 L 194.6 2.8 Z M 237.8 2.8 L 237.8 6.9 L 221.3 6.9 L 221.3 20.1 L 237.3 20.1 L 237.3 24.2 L 221.3 24.2 L 221.3 43.7 L 216.8 43.7 L 216.8 2.8 L 237.8 2.8 Z M 266.2 2.8 L 266.2 6.8 L 248.3 6.8 L 248.3 21.1 L 265.6 21.1 L 265.6 25.1 L 248.3 25.1 L 248.3 39.7 L 266.7 39.7 L 266.7 43.7 L 243.8 43.7 L 243.8 2.8 L 266.2 2.8 Z M 296.3 2.8 L 296.3 6.8 L 278.5 6.8 L 278.5 21.1 L 295.7 21.1 L 295.7 25.1 L 278.5 25.1 L 278.5 39.7 L 296.8 39.7 L 296.8 43.7 L 274 43.7 L 274 2.8 L 296.3 2.8 Z M 304.1 2.8 C 304.1 2.8 319.14 2.82 319.1 2.8 C 332.5 2.8 341.2 11.2 341.2 22.9 C 341.2 35.6 332.2 43.7 319.1 43.7 C 319.14 43.74 304.1 43.7 304.1 43.7 L 304.1 2.8 Z M 319.1 39.7 C 329.8 39.7 336.5 33.3 336.5 23.2 C 336.5 13.3 330 6.8 318.4 6.8 C 318.42 6.84 308.6 6.8 308.6 6.8 L 308.6 39.7 C 308.6 39.7 319.08 39.66 319.1 39.7 Z M 359.2 2.8 C 366.8 2.8 371.9 6.7 371.9 13.3 C 371.9 17.6 369.5 20.8 365.1 22.3 C 371.5 23.2 375.4 27.4 375.4 32.8 C 375.4 40.3 368.6 43.7 361.1 43.7 C 361.14 43.74 348.7 43.7 348.7 43.7 L 348.7 2.8 C 348.7 2.8 359.22 2.82 359.2 2.8 Z M 353.1 21 C 353.1 21 357.6 21 357.6 21 C 364.3 21 367.2 17.9 367.2 13.7 C 367.2 8.9 364.4 6.8 358.3 6.8 C 358.32 6.78 353.1 6.8 353.1 6.8 L 353.1 21 Z M 360.3 39.8 C 366.8 39.8 370.7 37.6 370.7 32.4 C 370.7 27.7 367.4 24.9 359.6 24.9 C 359.64 24.9 353.1 24.9 353.1 24.9 L 353.1 39.8 C 353.1 39.8 360.3 39.78 360.3 39.8 Z M 399.2 2.6 L 417.4 43.7 L 412.8 43.7 L 407 30.9 L 388.4 30.9 L 382.9 43.7 L 378.3 43.7 L 396 2.6 L 399.2 2.6 Z M 390.2 26.9 L 405.2 26.9 L 397.5 9.5 L 390.2 26.9 Z M 454.1 5.5 C 454.1 5.5 454.1 10.4 454.1 10.4 C 449.8 7.9 445 6.5 440.2 6.5 C 429.8 6.5 423.2 14.3 423.2 23.3 C 423.2 32.5 429.7 40.1 440.2 40.1 C 445.3 40.1 450 38.6 454.4 35.9 C 454.4 35.9 454.4 40.9 454.4 40.9 C 449.8 43.2 445.1 44.3 440 44.3 C 425.9 44.3 418.5 33.7 418.5 23.5 C 418.5 11.3 427.9 2.3 440.2 2.3 C 444.8 2.3 449.5 3.4 454.1 5.5 Z M 466 2.8 L 466 22 L 483.9 2.8 L 489.5 2.8 L 471.2 22.5 L 493.1 43.7 L 487 43.7 L 466 23.4 L 466 43.7 L 461.5 43.7 L 461.5 2.8 L 466 2.8 Z " stroke="none" fill="#010102"/>  </g></svg>