<?xml version="1.0" standalone="no"?><!DOCTYPE svg PUBLIC "-//W3C//DTD SVG 1.1//EN" "http://www.w3.org/Graphics/SVG/1.1/DTD/svg11.dtd"><svg xmlns="http://www.w3.org/2000/svg" version="1.1" width="34px" height="40.1px" viewBox="0 -8 34 40.1" style="top:-8px">  <desc>4.5</desc>  <defs/>  <g id="Polygon21666">    <path d="M 7.5 17.5 L 7.5 14 L 0.4 14 L 0.4 11.1 L 7.9 0.2 L 10.7 0.2 L 10.7 11.1 L 12.8 11.1 L 12.8 14 L 10.7 14 L 10.7 17.5 L 7.5 17.5 Z M 7.5 11.1 L 7.5 5.3 L 3.5 11.1 L 7.5 11.1 Z M 15.1 17.5 L 15.1 14.2 L 18.4 14.2 L 18.4 17.5 L 15.1 17.5 Z M 21.1 13.1 C 21.1 13.1 24.4 12.7 24.4 12.7 C 24.5 13.5 24.7 14 25.2 14.5 C 25.7 14.9 26.2 15.1 26.8 15.1 C 27.5 15.1 28.1 14.8 28.5 14.3 C 29 13.7 29.3 12.9 29.3 11.8 C 29.3 10.7 29 9.9 28.5 9.4 C 28.1 8.9 27.5 8.6 26.7 8.6 C 25.7 8.6 24.9 9 24.2 9.9 C 24.15 9.86 21.5 9.5 21.5 9.5 L 23.2 0.5 L 31.9 0.5 L 31.9 3.6 L 25.7 3.6 C 25.7 3.6 25.15 6.53 25.1 6.5 C 25.9 6.2 26.6 6 27.4 6 C 28.9 6 30.1 6.5 31.1 7.6 C 32.1 8.6 32.6 10 32.6 11.7 C 32.6 13.1 32.2 14.4 31.4 15.5 C 30.3 17 28.7 17.8 26.8 17.8 C 25.2 17.8 23.9 17.3 22.9 16.5 C 21.9 15.6 21.3 14.5 21.1 13.1 Z " stroke="none" fill="#000"/>  </g></svg>