<?xml version="1.0" standalone="no"?><!DOCTYPE svg PUBLIC "-//W3C//DTD SVG 1.1//EN" "http://www.w3.org/Graphics/SVG/1.1/DTD/svg11.dtd"><svg xmlns="http://www.w3.org/2000/svg" version="1.1" width="515px" height="54.5px" viewBox="0 -5 515 54.5" style="top:-5px">  <desc>Behaviours Clients rated their satisfaction against our business behaviours as follows:</desc>  <defs/>  <g id="Polygon49732">    <path d="M 7.1 38.9 C 7.1 38.9 8.2 39.2 8.2 39.2 C 8 40.1 7.5 40.8 6.9 41.3 C 6.3 41.8 5.5 42.1 4.6 42.1 C 3.7 42.1 3 41.9 2.4 41.5 C 1.8 41.1 1.4 40.6 1.1 39.9 C 0.7 39.2 0.6 38.4 0.6 37.6 C 0.6 36.7 0.8 35.9 1.1 35.2 C 1.5 34.6 1.9 34 2.6 33.7 C 3.2 33.4 3.9 33.2 4.7 33.2 C 5.5 33.2 6.2 33.4 6.8 33.8 C 7.4 34.3 7.8 34.9 8 35.7 C 8 35.7 6.9 36 6.9 36 C 6.7 35.3 6.4 34.9 6.1 34.6 C 5.7 34.3 5.2 34.2 4.6 34.2 C 4 34.2 3.4 34.3 3 34.6 C 2.5 34.9 2.2 35.4 2 35.9 C 1.9 36.4 1.8 37 1.8 37.6 C 1.8 38.3 1.9 38.9 2.1 39.5 C 2.3 40 2.6 40.4 3.1 40.7 C 3.5 41 4 41.1 4.5 41.1 C 5.2 41.1 5.7 40.9 6.2 40.5 C 6.6 40.2 6.9 39.6 7.1 38.9 Z M 9.4 41.9 L 9.4 33.3 L 10.5 33.3 L 10.5 41.9 L 9.4 41.9 Z M 12.1 34.5 L 12.1 33.3 L 13.2 33.3 L 13.2 34.5 L 12.1 34.5 Z M 12.1 41.9 L 12.1 35.7 L 13.2 35.7 L 13.2 41.9 L 12.1 41.9 Z M 19 39.9 C 19 39.9 20.1 40.1 20.1 40.1 C 20 40.7 19.6 41.2 19.2 41.5 C 18.7 41.9 18.1 42.1 17.4 42.1 C 16.5 42.1 15.8 41.8 15.2 41.2 C 14.7 40.7 14.4 39.9 14.4 38.9 C 14.4 37.8 14.7 37 15.2 36.4 C 15.8 35.8 16.5 35.6 17.3 35.6 C 18.2 35.6 18.9 35.8 19.4 36.4 C 19.9 37 20.2 37.8 20.2 38.8 C 20.2 38.9 20.2 39 20.2 39.1 C 20.2 39.1 15.5 39.1 15.5 39.1 C 15.6 39.8 15.8 40.3 16.1 40.7 C 16.5 41 16.9 41.2 17.4 41.2 C 17.8 41.2 18.1 41.1 18.4 40.9 C 18.7 40.7 18.9 40.4 19 39.9 Z M 15.6 38.2 C 15.6 38.2 19.1 38.2 19.1 38.2 C 19 37.7 18.9 37.3 18.7 37 C 18.3 36.6 17.9 36.4 17.4 36.4 C 16.9 36.4 16.5 36.6 16.1 36.9 C 15.8 37.2 15.6 37.7 15.6 38.2 Z M 21.5 41.9 L 21.5 35.7 L 22.4 35.7 C 22.4 35.7 22.41 36.58 22.4 36.6 C 22.9 35.9 23.5 35.6 24.4 35.6 C 24.8 35.6 25.1 35.6 25.4 35.8 C 25.7 35.9 26 36.1 26.1 36.3 C 26.3 36.5 26.4 36.8 26.5 37.1 C 26.5 37.3 26.5 37.6 26.5 38.1 C 26.52 38.1 26.5 41.9 26.5 41.9 L 25.5 41.9 C 25.5 41.9 25.46 38.14 25.5 38.1 C 25.5 37.7 25.4 37.4 25.3 37.2 C 25.3 37 25.1 36.8 24.9 36.7 C 24.7 36.5 24.5 36.5 24.2 36.5 C 23.7 36.5 23.3 36.6 23 36.9 C 22.7 37.2 22.5 37.7 22.5 38.5 C 22.52 38.52 22.5 41.9 22.5 41.9 L 21.5 41.9 Z M 30 41 C 30.1 41 30.2 41 30.4 41 C 30.4 41 30.6 41.9 30.6 41.9 C 30.3 42 30 42 29.8 42 C 29.4 42 29.1 41.9 28.9 41.8 C 28.7 41.7 28.5 41.5 28.5 41.3 C 28.4 41.1 28.3 40.7 28.3 40.1 C 28.33 40.1 28.3 36.5 28.3 36.5 L 27.6 36.5 L 27.6 35.7 L 28.3 35.7 L 28.3 34.2 L 29.4 33.5 L 29.4 35.7 L 30.4 35.7 L 30.4 36.5 L 29.4 36.5 C 29.4 36.5 29.38 40.16 29.4 40.2 C 29.4 40.5 29.4 40.7 29.4 40.7 C 29.5 40.8 29.5 40.9 29.6 40.9 C 29.7 41 29.8 41 30 41 C 30 41 30 41 30 41 Z M 31 40.1 C 31 40.1 32.1 39.9 32.1 39.9 C 32.2 40.3 32.3 40.6 32.6 40.9 C 32.8 41.1 33.2 41.2 33.7 41.2 C 34.2 41.2 34.5 41.1 34.8 40.9 C 35 40.7 35.1 40.5 35.1 40.2 C 35.1 40 35 39.8 34.8 39.6 C 34.7 39.5 34.3 39.4 33.7 39.3 C 33 39.1 32.4 38.9 32.1 38.8 C 31.8 38.6 31.6 38.4 31.5 38.2 C 31.3 37.9 31.2 37.7 31.2 37.4 C 31.2 37.1 31.3 36.8 31.4 36.6 C 31.5 36.3 31.7 36.1 31.9 36 C 32.1 35.9 32.3 35.8 32.6 35.7 C 32.9 35.6 33.2 35.6 33.5 35.6 C 34 35.6 34.4 35.6 34.8 35.8 C 35.2 35.9 35.4 36.1 35.6 36.3 C 35.8 36.6 35.9 36.9 36 37.3 C 36 37.3 35 37.4 35 37.4 C 34.9 37.1 34.8 36.9 34.5 36.7 C 34.3 36.5 34 36.4 33.6 36.4 C 33.1 36.4 32.8 36.5 32.6 36.7 C 32.3 36.8 32.2 37 32.2 37.2 C 32.2 37.4 32.3 37.5 32.4 37.6 C 32.5 37.7 32.6 37.8 32.8 37.9 C 32.9 37.9 33.2 38 33.7 38.1 C 34.5 38.3 35 38.5 35.3 38.6 C 35.6 38.8 35.8 38.9 36 39.2 C 36.1 39.4 36.2 39.7 36.2 40.1 C 36.2 40.4 36.1 40.8 35.9 41.1 C 35.7 41.4 35.4 41.6 35 41.8 C 34.6 42 34.2 42.1 33.7 42.1 C 32.9 42.1 32.3 41.9 31.9 41.6 C 31.4 41.2 31.2 40.7 31 40.1 Z M 40.8 41.9 L 40.8 35.7 L 41.7 35.7 C 41.7 35.7 41.74 36.64 41.7 36.6 C 42 36.2 42.2 35.9 42.4 35.8 C 42.6 35.6 42.8 35.6 43.1 35.6 C 43.4 35.6 43.8 35.7 44.2 35.9 C 44.2 35.9 43.8 36.9 43.8 36.9 C 43.6 36.7 43.3 36.6 43 36.6 C 42.8 36.6 42.6 36.7 42.4 36.9 C 42.2 37 42.1 37.2 42 37.4 C 41.9 37.8 41.8 38.2 41.8 38.7 C 41.85 38.66 41.8 41.9 41.8 41.9 L 40.8 41.9 Z M 49.1 41.9 C 49 41.7 48.9 41.4 48.9 41.2 C 48.5 41.5 48.1 41.7 47.7 41.9 C 47.4 42 47 42.1 46.6 42.1 C 45.9 42.1 45.4 41.9 45 41.6 C 44.6 41.2 44.4 40.8 44.4 40.3 C 44.4 40 44.5 39.7 44.7 39.4 C 44.8 39.2 45 39 45.2 38.8 C 45.4 38.7 45.7 38.6 46 38.5 C 46.2 38.4 46.5 38.4 46.9 38.3 C 47.7 38.2 48.4 38.1 48.8 38 C 48.8 37.8 48.8 37.7 48.8 37.7 C 48.8 37.3 48.7 37 48.5 36.8 C 48.2 36.6 47.8 36.4 47.3 36.4 C 46.8 36.4 46.4 36.5 46.2 36.7 C 45.9 36.9 45.8 37.2 45.7 37.6 C 45.7 37.6 44.6 37.5 44.6 37.5 C 44.7 37 44.9 36.7 45.1 36.4 C 45.3 36.1 45.6 35.9 46 35.8 C 46.4 35.6 46.9 35.6 47.4 35.6 C 48 35.6 48.4 35.6 48.7 35.7 C 49.1 35.9 49.3 36 49.5 36.2 C 49.6 36.4 49.7 36.6 49.8 36.9 C 49.8 37.1 49.8 37.4 49.8 37.9 C 49.8 37.9 49.8 39.3 49.8 39.3 C 49.8 40.3 49.9 40.9 49.9 41.2 C 50 41.4 50 41.7 50.2 41.9 C 50.17 41.92 49.1 41.9 49.1 41.9 C 49.1 41.9 49.07 41.92 49.1 41.9 Z M 48.8 38.8 C 48.4 39 47.8 39.1 47.1 39.2 C 46.6 39.3 46.3 39.3 46.1 39.4 C 46 39.5 45.8 39.6 45.7 39.8 C 45.6 39.9 45.6 40.1 45.6 40.3 C 45.6 40.5 45.7 40.8 45.9 41 C 46.1 41.1 46.4 41.2 46.8 41.2 C 47.2 41.2 47.6 41.1 47.9 41 C 48.2 40.8 48.5 40.5 48.6 40.2 C 48.7 40 48.8 39.7 48.8 39.2 C 48.8 39.2 48.8 38.8 48.8 38.8 Z M 53.3 41 C 53.4 41 53.6 41 53.8 41 C 53.8 41 53.9 41.9 53.9 41.9 C 53.6 42 53.4 42 53.1 42 C 52.7 42 52.5 41.9 52.2 41.8 C 52 41.7 51.9 41.5 51.8 41.3 C 51.7 41.1 51.7 40.7 51.7 40.1 C 51.67 40.1 51.7 36.5 51.7 36.5 L 50.9 36.5 L 50.9 35.7 L 51.7 35.7 L 51.7 34.2 L 52.7 33.5 L 52.7 35.7 L 53.8 35.7 L 53.8 36.5 L 52.7 36.5 C 52.7 36.5 52.72 40.16 52.7 40.2 C 52.7 40.5 52.7 40.7 52.8 40.7 C 52.8 40.8 52.9 40.9 53 40.9 C 53 41 53.2 41 53.3 41 C 53.3 41 53.3 41 53.3 41 Z M 59.1 39.9 C 59.1 39.9 60.2 40.1 60.2 40.1 C 60 40.7 59.7 41.2 59.2 41.5 C 58.7 41.9 58.1 42.1 57.4 42.1 C 56.5 42.1 55.8 41.8 55.3 41.2 C 54.7 40.7 54.5 39.9 54.5 38.9 C 54.5 37.8 54.7 37 55.3 36.4 C 55.8 35.8 56.5 35.6 57.4 35.6 C 58.2 35.6 58.9 35.8 59.4 36.4 C 59.9 37 60.2 37.8 60.2 38.8 C 60.2 38.9 60.2 39 60.2 39.1 C 60.2 39.1 55.5 39.1 55.5 39.1 C 55.6 39.8 55.8 40.3 56.1 40.7 C 56.5 41 56.9 41.2 57.4 41.2 C 57.8 41.2 58.1 41.1 58.4 40.9 C 58.7 40.7 58.9 40.4 59.1 39.9 Z M 55.6 38.2 C 55.6 38.2 59.1 38.2 59.1 38.2 C 59 37.7 58.9 37.3 58.7 37 C 58.3 36.6 57.9 36.4 57.4 36.4 C 56.9 36.4 56.5 36.6 56.2 36.9 C 55.8 37.2 55.6 37.7 55.6 38.2 Z M 65.5 41.9 C 65.5 41.9 65.52 41.14 65.5 41.1 C 65.1 41.8 64.5 42.1 63.8 42.1 C 63.3 42.1 62.8 41.9 62.4 41.7 C 62 41.4 61.7 41 61.4 40.5 C 61.2 40 61.1 39.5 61.1 38.8 C 61.1 38.2 61.2 37.6 61.4 37.1 C 61.6 36.6 61.9 36.2 62.3 36 C 62.8 35.7 63.2 35.6 63.7 35.6 C 64.1 35.6 64.4 35.6 64.7 35.8 C 65 36 65.3 36.2 65.4 36.4 C 65.45 36.41 65.4 33.3 65.4 33.3 L 66.5 33.3 L 66.5 41.9 L 65.5 41.9 Z M 62.2 38.8 C 62.2 39.6 62.4 40.2 62.7 40.6 C 63 41 63.4 41.2 63.9 41.2 C 64.3 41.2 64.7 41 65.1 40.6 C 65.4 40.3 65.5 39.7 65.5 38.9 C 65.5 38.1 65.4 37.4 65 37 C 64.7 36.6 64.3 36.4 63.8 36.4 C 63.4 36.4 63 36.6 62.7 37 C 62.3 37.4 62.2 38 62.2 38.8 Z M 73.3 41 C 73.4 41 73.6 41 73.8 41 C 73.8 41 73.9 41.9 73.9 41.9 C 73.6 42 73.4 42 73.1 42 C 72.8 42 72.5 41.9 72.3 41.8 C 72 41.7 71.9 41.5 71.8 41.3 C 71.7 41.1 71.7 40.7 71.7 40.1 C 71.68 40.1 71.7 36.5 71.7 36.5 L 70.9 36.5 L 70.9 35.7 L 71.7 35.7 L 71.7 34.2 L 72.7 33.5 L 72.7 35.7 L 73.8 35.7 L 73.8 36.5 L 72.7 36.5 C 72.7 36.5 72.73 40.16 72.7 40.2 C 72.7 40.5 72.8 40.7 72.8 40.7 C 72.8 40.8 72.9 40.9 73 40.9 C 73.1 41 73.2 41 73.3 41 C 73.3 41 73.3 41 73.3 41 Z M 74.8 41.9 L 74.8 33.3 L 75.9 33.3 C 75.9 33.3 75.88 36.41 75.9 36.4 C 76.4 35.8 77 35.6 77.7 35.6 C 78.2 35.6 78.6 35.6 78.9 35.8 C 79.3 36 79.5 36.3 79.7 36.6 C 79.8 36.9 79.9 37.4 79.9 38 C 79.89 37.98 79.9 41.9 79.9 41.9 L 78.8 41.9 C 78.8 41.9 78.84 37.98 78.8 38 C 78.8 37.5 78.7 37.1 78.5 36.8 C 78.3 36.6 77.9 36.5 77.5 36.5 C 77.2 36.5 76.9 36.5 76.6 36.7 C 76.4 36.9 76.2 37.1 76.1 37.4 C 75.9 37.6 75.9 38 75.9 38.5 C 75.88 38.52 75.9 41.9 75.9 41.9 L 74.8 41.9 Z M 85.8 39.9 C 85.8 39.9 86.8 40.1 86.8 40.1 C 86.7 40.7 86.4 41.2 85.9 41.5 C 85.4 41.9 84.8 42.1 84.1 42.1 C 83.2 42.1 82.5 41.8 81.9 41.2 C 81.4 40.7 81.1 39.9 81.1 38.9 C 81.1 37.8 81.4 37 82 36.4 C 82.5 35.8 83.2 35.6 84.1 35.6 C 84.9 35.6 85.6 35.8 86.1 36.4 C 86.6 37 86.9 37.8 86.9 38.8 C 86.9 38.9 86.9 39 86.9 39.1 C 86.9 39.1 82.2 39.1 82.2 39.1 C 82.3 39.8 82.5 40.3 82.8 40.7 C 83.2 41 83.6 41.2 84.1 41.2 C 84.5 41.2 84.8 41.1 85.1 40.9 C 85.4 40.7 85.6 40.4 85.8 39.9 Z M 82.3 38.2 C 82.3 38.2 85.8 38.2 85.8 38.2 C 85.7 37.7 85.6 37.3 85.4 37 C 85 36.6 84.6 36.4 84.1 36.4 C 83.6 36.4 83.2 36.6 82.8 36.9 C 82.5 37.2 82.3 37.7 82.3 38.2 Z M 88.2 34.5 L 88.2 33.3 L 89.2 33.3 L 89.2 34.5 L 88.2 34.5 Z M 88.2 41.9 L 88.2 35.7 L 89.2 35.7 L 89.2 41.9 L 88.2 41.9 Z M 90.8 41.9 L 90.8 35.7 L 91.8 35.7 C 91.8 35.7 91.78 36.64 91.8 36.6 C 92 36.2 92.2 35.9 92.4 35.8 C 92.7 35.6 92.9 35.6 93.1 35.6 C 93.5 35.6 93.8 35.7 94.2 35.9 C 94.2 35.9 93.8 36.9 93.8 36.9 C 93.6 36.7 93.3 36.6 93.1 36.6 C 92.8 36.6 92.6 36.7 92.4 36.9 C 92.3 37 92.1 37.2 92.1 37.4 C 91.9 37.8 91.9 38.2 91.9 38.7 C 91.88 38.66 91.9 41.9 91.9 41.9 L 90.8 41.9 Z M 97.7 40.1 C 97.7 40.1 98.8 39.9 98.8 39.9 C 98.8 40.3 99 40.6 99.3 40.9 C 99.5 41.1 99.9 41.2 100.4 41.2 C 100.9 41.2 101.2 41.1 101.5 40.9 C 101.7 40.7 101.8 40.5 101.8 40.2 C 101.8 40 101.7 39.8 101.5 39.6 C 101.4 39.5 101 39.4 100.4 39.3 C 99.7 39.1 99.1 38.9 98.8 38.8 C 98.5 38.6 98.3 38.4 98.2 38.2 C 98 37.9 97.9 37.7 97.9 37.4 C 97.9 37.1 98 36.8 98.1 36.6 C 98.2 36.3 98.4 36.1 98.6 36 C 98.8 35.9 99 35.8 99.3 35.7 C 99.6 35.6 99.9 35.6 100.2 35.6 C 100.7 35.6 101.1 35.6 101.5 35.8 C 101.9 35.9 102.1 36.1 102.3 36.3 C 102.5 36.6 102.6 36.9 102.7 37.3 C 102.7 37.3 101.6 37.4 101.6 37.4 C 101.6 37.1 101.5 36.9 101.2 36.7 C 101 36.5 100.7 36.4 100.3 36.4 C 99.8 36.4 99.5 36.5 99.3 36.7 C 99 36.8 98.9 37 98.9 37.2 C 98.9 37.4 99 37.5 99.1 37.6 C 99.2 37.7 99.3 37.8 99.5 37.9 C 99.6 37.9 99.9 38 100.4 38.1 C 101.2 38.3 101.7 38.5 102 38.6 C 102.3 38.8 102.5 38.9 102.7 39.2 C 102.8 39.4 102.9 39.7 102.9 40.1 C 102.9 40.4 102.8 40.8 102.6 41.1 C 102.4 41.4 102.1 41.6 101.7 41.8 C 101.3 42 100.9 42.1 100.4 42.1 C 99.6 42.1 99 41.9 98.6 41.6 C 98.1 41.2 97.9 40.7 97.7 40.1 Z M 108.4 41.9 C 108.3 41.7 108.3 41.4 108.2 41.2 C 107.8 41.5 107.5 41.7 107.1 41.9 C 106.7 42 106.4 42.1 105.9 42.1 C 105.3 42.1 104.7 41.9 104.4 41.6 C 104 41.2 103.8 40.8 103.8 40.3 C 103.8 40 103.9 39.7 104 39.4 C 104.2 39.2 104.3 39 104.6 38.8 C 104.8 38.7 105 38.6 105.3 38.5 C 105.5 38.4 105.8 38.4 106.3 38.3 C 107.1 38.2 107.7 38.1 108.1 38 C 108.1 37.8 108.1 37.7 108.1 37.7 C 108.1 37.3 108 37 107.8 36.8 C 107.6 36.6 107.2 36.4 106.6 36.4 C 106.2 36.4 105.8 36.5 105.5 36.7 C 105.3 36.9 105.1 37.2 105 37.6 C 105 37.6 104 37.5 104 37.5 C 104.1 37 104.2 36.7 104.5 36.4 C 104.7 36.1 105 35.9 105.4 35.8 C 105.8 35.6 106.3 35.6 106.8 35.6 C 107.3 35.6 107.8 35.6 108.1 35.7 C 108.4 35.9 108.7 36 108.8 36.2 C 109 36.4 109.1 36.6 109.2 36.9 C 109.2 37.1 109.2 37.4 109.2 37.9 C 109.2 37.9 109.2 39.3 109.2 39.3 C 109.2 40.3 109.2 40.9 109.3 41.2 C 109.3 41.4 109.4 41.7 109.5 41.9 C 109.54 41.92 108.4 41.9 108.4 41.9 C 108.4 41.9 108.44 41.92 108.4 41.9 Z M 108.1 38.8 C 107.8 39 107.2 39.1 106.4 39.2 C 106 39.3 105.7 39.3 105.5 39.4 C 105.3 39.5 105.2 39.6 105.1 39.8 C 105 39.9 104.9 40.1 104.9 40.3 C 104.9 40.5 105 40.8 105.3 41 C 105.5 41.1 105.8 41.2 106.2 41.2 C 106.6 41.2 107 41.1 107.3 41 C 107.6 40.8 107.8 40.5 108 40.2 C 108.1 40 108.1 39.7 108.1 39.2 C 108.1 39.2 108.1 38.8 108.1 38.8 Z M 112.7 41 C 112.8 41 113 41 113.1 41 C 113.1 41 113.3 41.9 113.3 41.9 C 113 42 112.7 42 112.5 42 C 112.1 42 111.8 41.9 111.6 41.8 C 111.4 41.7 111.2 41.5 111.2 41.3 C 111.1 41.1 111 40.7 111 40.1 C 111.04 40.1 111 36.5 111 36.5 L 110.3 36.5 L 110.3 35.7 L 111 35.7 L 111 34.2 L 112.1 33.5 L 112.1 35.7 L 113.1 35.7 L 113.1 36.5 L 112.1 36.5 C 112.1 36.5 112.08 40.16 112.1 40.2 C 112.1 40.5 112.1 40.7 112.1 40.7 C 112.2 40.8 112.2 40.9 112.3 40.9 C 112.4 41 112.5 41 112.7 41 C 112.7 41 112.7 41 112.7 41 Z M 114.2 34.5 L 114.2 33.3 L 115.2 33.3 L 115.2 34.5 L 114.2 34.5 Z M 114.2 41.9 L 114.2 35.7 L 115.2 35.7 L 115.2 41.9 L 114.2 41.9 Z M 116.4 40.1 C 116.4 40.1 117.5 39.9 117.5 39.9 C 117.5 40.3 117.7 40.6 118 40.9 C 118.2 41.1 118.6 41.2 119.1 41.2 C 119.6 41.2 119.9 41.1 120.2 40.9 C 120.4 40.7 120.5 40.5 120.5 40.2 C 120.5 40 120.4 39.8 120.2 39.6 C 120 39.5 119.7 39.4 119.1 39.3 C 118.3 39.1 117.8 38.9 117.5 38.8 C 117.2 38.6 117 38.4 116.8 38.2 C 116.7 37.9 116.6 37.7 116.6 37.4 C 116.6 37.1 116.7 36.8 116.8 36.6 C 116.9 36.3 117.1 36.1 117.3 36 C 117.5 35.9 117.7 35.8 118 35.7 C 118.3 35.6 118.6 35.6 118.9 35.6 C 119.4 35.6 119.8 35.6 120.2 35.8 C 120.5 35.9 120.8 36.1 121 36.3 C 121.2 36.6 121.3 36.9 121.4 37.3 C 121.4 37.3 120.3 37.4 120.3 37.4 C 120.3 37.1 120.1 36.9 119.9 36.7 C 119.7 36.5 119.4 36.4 119 36.4 C 118.5 36.4 118.1 36.5 117.9 36.7 C 117.7 36.8 117.6 37 117.6 37.2 C 117.6 37.4 117.7 37.5 117.7 37.6 C 117.8 37.7 118 37.8 118.1 37.9 C 118.3 37.9 118.6 38 119.1 38.1 C 119.8 38.3 120.3 38.5 120.6 38.6 C 120.9 38.8 121.2 38.9 121.3 39.2 C 121.5 39.4 121.6 39.7 121.6 40.1 C 121.6 40.4 121.5 40.8 121.3 41.1 C 121.1 41.4 120.8 41.6 120.4 41.8 C 120 42 119.6 42.1 119.1 42.1 C 118.3 42.1 117.7 41.9 117.2 41.6 C 116.8 41.2 116.5 40.7 116.4 40.1 Z M 123.1 41.9 L 123.1 36.5 L 122.2 36.5 L 122.2 35.7 L 123.1 35.7 C 123.1 35.7 123.09 35.04 123.1 35 C 123.1 34.6 123.1 34.3 123.2 34.1 C 123.3 33.8 123.5 33.6 123.7 33.4 C 124 33.3 124.4 33.2 124.8 33.2 C 125.1 33.2 125.4 33.2 125.8 33.3 C 125.8 33.3 125.6 34.2 125.6 34.2 C 125.4 34.2 125.2 34.2 125 34.2 C 124.7 34.2 124.5 34.2 124.3 34.4 C 124.2 34.5 124.1 34.7 124.1 35.1 C 124.14 35.12 124.1 35.7 124.1 35.7 L 125.4 35.7 L 125.4 36.5 L 124.1 36.5 L 124.1 41.9 L 123.1 41.9 Z M 130.4 41.9 C 130.3 41.7 130.3 41.4 130.2 41.2 C 129.8 41.5 129.5 41.7 129.1 41.9 C 128.7 42 128.4 42.1 127.9 42.1 C 127.3 42.1 126.7 41.9 126.4 41.6 C 126 41.2 125.8 40.8 125.8 40.3 C 125.8 40 125.9 39.7 126 39.4 C 126.2 39.2 126.3 39 126.6 38.8 C 126.8 38.7 127 38.6 127.3 38.5 C 127.5 38.4 127.8 38.4 128.3 38.3 C 129.1 38.2 129.7 38.1 130.1 38 C 130.2 37.8 130.2 37.7 130.2 37.7 C 130.2 37.3 130.1 37 129.9 36.8 C 129.6 36.6 129.2 36.4 128.7 36.4 C 128.2 36.4 127.8 36.5 127.6 36.7 C 127.3 36.9 127.1 37.2 127 37.6 C 127 37.6 126 37.5 126 37.5 C 126.1 37 126.2 36.7 126.5 36.4 C 126.7 36.1 127 35.9 127.4 35.8 C 127.8 35.6 128.3 35.6 128.8 35.6 C 129.3 35.6 129.8 35.6 130.1 35.7 C 130.4 35.9 130.7 36 130.8 36.2 C 131 36.4 131.1 36.6 131.2 36.9 C 131.2 37.1 131.2 37.4 131.2 37.9 C 131.2 37.9 131.2 39.3 131.2 39.3 C 131.2 40.3 131.2 40.9 131.3 41.2 C 131.3 41.4 131.4 41.7 131.5 41.9 C 131.55 41.92 130.4 41.9 130.4 41.9 C 130.4 41.9 130.45 41.92 130.4 41.9 Z M 130.1 38.8 C 129.8 39 129.2 39.1 128.4 39.2 C 128 39.3 127.7 39.3 127.5 39.4 C 127.3 39.5 127.2 39.6 127.1 39.8 C 127 39.9 126.9 40.1 126.9 40.3 C 126.9 40.5 127 40.8 127.3 41 C 127.5 41.1 127.8 41.2 128.2 41.2 C 128.6 41.2 129 41.1 129.3 41 C 129.6 40.8 129.8 40.5 130 40.2 C 130.1 40 130.1 39.7 130.1 39.2 C 130.1 39.2 130.1 38.8 130.1 38.8 Z M 136.9 39.6 C 136.9 39.6 137.9 39.8 137.9 39.8 C 137.8 40.5 137.5 41.1 137.1 41.5 C 136.6 41.9 136 42.1 135.4 42.1 C 134.5 42.1 133.8 41.8 133.3 41.2 C 132.8 40.7 132.5 39.9 132.5 38.8 C 132.5 38.2 132.6 37.6 132.9 37.1 C 133.1 36.6 133.4 36.2 133.9 35.9 C 134.3 35.7 134.8 35.6 135.4 35.6 C 136 35.6 136.6 35.7 137 36.1 C 137.5 36.4 137.7 36.9 137.8 37.5 C 137.8 37.5 136.8 37.7 136.8 37.7 C 136.7 37.3 136.6 37 136.3 36.7 C 136.1 36.5 135.8 36.4 135.4 36.4 C 134.9 36.4 134.4 36.6 134.1 37 C 133.8 37.4 133.6 38 133.6 38.8 C 133.6 39.6 133.8 40.2 134.1 40.6 C 134.4 41 134.8 41.2 135.3 41.2 C 135.8 41.2 136.1 41.1 136.4 40.8 C 136.7 40.6 136.8 40.2 136.9 39.6 Z M 140.7 41 C 140.8 41 141 41 141.2 41 C 141.2 41 141.3 41.9 141.3 41.9 C 141 42 140.7 42 140.5 42 C 140.1 42 139.8 41.9 139.6 41.8 C 139.4 41.7 139.3 41.5 139.2 41.3 C 139.1 41.1 139 40.7 139 40.1 C 139.04 40.1 139 36.5 139 36.5 L 138.3 36.5 L 138.3 35.7 L 139 35.7 L 139 34.2 L 140.1 33.5 L 140.1 35.7 L 141.2 35.7 L 141.2 36.5 L 140.1 36.5 C 140.1 36.5 140.09 40.16 140.1 40.2 C 140.1 40.5 140.1 40.7 140.1 40.7 C 140.2 40.8 140.2 40.9 140.3 40.9 C 140.4 41 140.5 41 140.7 41 C 140.7 41 140.7 41 140.7 41 Z M 142.2 34.5 L 142.2 33.3 L 143.2 33.3 L 143.2 34.5 L 142.2 34.5 Z M 142.2 41.9 L 142.2 35.7 L 143.2 35.7 L 143.2 41.9 L 142.2 41.9 Z M 144.5 38.8 C 144.5 37.7 144.8 36.8 145.4 36.2 C 146 35.8 146.6 35.6 147.4 35.6 C 148.2 35.6 148.9 35.8 149.5 36.4 C 150 37 150.3 37.7 150.3 38.7 C 150.3 39.5 150.2 40.2 149.9 40.6 C 149.7 41.1 149.3 41.4 148.9 41.7 C 148.4 41.9 147.9 42.1 147.4 42.1 C 146.5 42.1 145.8 41.8 145.3 41.2 C 144.7 40.7 144.5 39.9 144.5 38.8 Z M 145.5 38.8 C 145.5 39.6 145.7 40.2 146.1 40.6 C 146.4 41 146.8 41.2 147.4 41.2 C 147.9 41.2 148.3 41 148.7 40.6 C 149 40.2 149.2 39.6 149.2 38.8 C 149.2 38 149 37.4 148.7 37 C 148.3 36.6 147.9 36.4 147.4 36.4 C 146.8 36.4 146.4 36.6 146.1 37 C 145.7 37.4 145.5 38 145.5 38.8 Z M 151.5 41.9 L 151.5 35.7 L 152.5 35.7 C 152.5 35.7 152.47 36.58 152.5 36.6 C 152.9 35.9 153.6 35.6 154.5 35.6 C 154.8 35.6 155.2 35.6 155.5 35.8 C 155.8 35.9 156 36.1 156.2 36.3 C 156.3 36.5 156.5 36.8 156.5 37.1 C 156.6 37.3 156.6 37.6 156.6 38.1 C 156.58 38.1 156.6 41.9 156.6 41.9 L 155.5 41.9 C 155.5 41.9 155.53 38.14 155.5 38.1 C 155.5 37.7 155.5 37.4 155.4 37.2 C 155.3 37 155.2 36.8 155 36.7 C 154.8 36.5 154.5 36.5 154.2 36.5 C 153.8 36.5 153.4 36.6 153.1 36.9 C 152.7 37.2 152.6 37.7 152.6 38.5 C 152.58 38.52 152.6 41.9 152.6 41.9 L 151.5 41.9 Z M 165.8 41.9 C 165.7 41.7 165.6 41.4 165.6 41.2 C 165.2 41.5 164.8 41.7 164.5 41.9 C 164.1 42 163.7 42.1 163.3 42.1 C 162.6 42.1 162.1 41.9 161.7 41.6 C 161.4 41.2 161.2 40.8 161.2 40.3 C 161.2 40 161.2 39.7 161.4 39.4 C 161.5 39.2 161.7 39 161.9 38.8 C 162.2 38.7 162.4 38.6 162.7 38.5 C 162.9 38.4 163.2 38.4 163.6 38.3 C 164.5 38.2 165.1 38.1 165.5 38 C 165.5 37.8 165.5 37.7 165.5 37.7 C 165.5 37.3 165.4 37 165.2 36.8 C 164.9 36.6 164.5 36.4 164 36.4 C 163.5 36.4 163.1 36.5 162.9 36.7 C 162.7 36.9 162.5 37.2 162.4 37.6 C 162.4 37.6 161.4 37.5 161.4 37.5 C 161.4 37 161.6 36.7 161.8 36.4 C 162 36.1 162.3 35.9 162.8 35.8 C 163.2 35.6 163.6 35.6 164.2 35.6 C 164.7 35.6 165.1 35.6 165.5 35.7 C 165.8 35.9 166 36 166.2 36.2 C 166.3 36.4 166.5 36.6 166.5 36.9 C 166.6 37.1 166.6 37.4 166.6 37.9 C 166.6 37.9 166.6 39.3 166.6 39.3 C 166.6 40.3 166.6 40.9 166.6 41.2 C 166.7 41.4 166.8 41.7 166.9 41.9 C 166.9 41.92 165.8 41.9 165.8 41.9 C 165.8 41.9 165.8 41.92 165.8 41.9 Z M 165.5 38.8 C 165.1 39 164.5 39.1 163.8 39.2 C 163.3 39.3 163 39.3 162.9 39.4 C 162.7 39.5 162.5 39.6 162.4 39.8 C 162.3 39.9 162.3 40.1 162.3 40.3 C 162.3 40.5 162.4 40.8 162.6 41 C 162.8 41.1 163.1 41.2 163.6 41.2 C 164 41.2 164.3 41.1 164.6 41 C 165 40.8 165.2 40.5 165.3 40.2 C 165.4 40 165.5 39.7 165.5 39.2 C 165.5 39.2 165.5 38.8 165.5 38.8 Z M 168 42.4 C 168 42.4 169 42.6 169 42.6 C 169.1 42.9 169.2 43.1 169.4 43.3 C 169.7 43.5 170 43.6 170.5 43.6 C 171 43.6 171.3 43.5 171.6 43.3 C 171.9 43.1 172 42.8 172.1 42.5 C 172.2 42.2 172.2 41.8 172.2 41.1 C 171.8 41.7 171.2 41.9 170.5 41.9 C 169.6 41.9 169 41.6 168.5 41 C 168 40.4 167.8 39.6 167.8 38.8 C 167.8 38.2 167.9 37.6 168.1 37.1 C 168.3 36.6 168.6 36.2 169.1 36 C 169.5 35.7 169.9 35.6 170.5 35.6 C 171.2 35.6 171.8 35.9 172.3 36.4 C 172.31 36.45 172.3 35.7 172.3 35.7 L 173.3 35.7 C 173.3 35.7 173.29 41.08 173.3 41.1 C 173.3 42 173.2 42.7 173 43.1 C 172.8 43.5 172.5 43.9 172.1 44.1 C 171.6 44.3 171.1 44.4 170.5 44.4 C 169.7 44.4 169.1 44.3 168.7 43.9 C 168.2 43.6 168 43.1 168 42.4 Z M 168.9 38.7 C 168.9 39.5 169 40.1 169.4 40.5 C 169.7 40.9 170.1 41 170.6 41 C 171.1 41 171.5 40.9 171.8 40.5 C 172.1 40.1 172.3 39.5 172.3 38.7 C 172.3 38 172.1 37.4 171.8 37 C 171.5 36.6 171 36.4 170.6 36.4 C 170.1 36.4 169.7 36.6 169.4 37 C 169 37.4 168.9 37.9 168.9 38.7 Z M 179.2 41.9 C 179 41.7 179 41.4 178.9 41.2 C 178.5 41.5 178.2 41.7 177.8 41.9 C 177.5 42 177.1 42.1 176.6 42.1 C 176 42.1 175.4 41.9 175.1 41.6 C 174.7 41.2 174.5 40.8 174.5 40.3 C 174.5 40 174.6 39.7 174.7 39.4 C 174.9 39.2 175 39 175.3 38.8 C 175.5 38.7 175.8 38.6 176 38.5 C 176.2 38.4 176.6 38.4 177 38.3 C 177.8 38.2 178.4 38.1 178.9 38 C 178.9 37.8 178.9 37.7 178.9 37.7 C 178.9 37.3 178.8 37 178.6 36.8 C 178.3 36.6 177.9 36.4 177.4 36.4 C 176.9 36.4 176.5 36.5 176.3 36.7 C 176 36.9 175.8 37.2 175.7 37.6 C 175.7 37.6 174.7 37.5 174.7 37.5 C 174.8 37 175 36.7 175.2 36.4 C 175.4 36.1 175.7 35.9 176.1 35.8 C 176.5 35.6 177 35.6 177.5 35.6 C 178 35.6 178.5 35.6 178.8 35.7 C 179.1 35.9 179.4 36 179.5 36.2 C 179.7 36.4 179.8 36.6 179.9 36.9 C 179.9 37.1 179.9 37.4 179.9 37.9 C 179.9 37.9 179.9 39.3 179.9 39.3 C 179.9 40.3 179.9 40.9 180 41.2 C 180 41.4 180.1 41.7 180.3 41.9 C 180.25 41.92 179.2 41.9 179.2 41.9 C 179.2 41.9 179.15 41.92 179.2 41.9 Z M 178.9 38.8 C 178.5 39 177.9 39.1 177.1 39.2 C 176.7 39.3 176.4 39.3 176.2 39.4 C 176 39.5 175.9 39.6 175.8 39.8 C 175.7 39.9 175.6 40.1 175.6 40.3 C 175.6 40.5 175.8 40.8 176 41 C 176.2 41.1 176.5 41.2 176.9 41.2 C 177.3 41.2 177.7 41.1 178 41 C 178.3 40.8 178.5 40.5 178.7 40.2 C 178.8 40 178.9 39.7 178.9 39.2 C 178.9 39.2 178.9 38.8 178.9 38.8 Z M 181.6 34.5 L 181.6 33.3 L 182.6 33.3 L 182.6 34.5 L 181.6 34.5 Z M 181.6 41.9 L 181.6 35.7 L 182.6 35.7 L 182.6 41.9 L 181.6 41.9 Z M 184.2 41.9 L 184.2 35.7 L 185.2 35.7 C 185.2 35.7 185.17 36.58 185.2 36.6 C 185.6 35.9 186.3 35.6 187.1 35.6 C 187.5 35.6 187.9 35.6 188.2 35.8 C 188.5 35.9 188.7 36.1 188.9 36.3 C 189 36.5 189.2 36.8 189.2 37.1 C 189.3 37.3 189.3 37.6 189.3 38.1 C 189.28 38.1 189.3 41.9 189.3 41.9 L 188.2 41.9 C 188.2 41.9 188.22 38.14 188.2 38.1 C 188.2 37.7 188.2 37.4 188.1 37.2 C 188 37 187.9 36.8 187.7 36.7 C 187.5 36.5 187.2 36.5 186.9 36.5 C 186.5 36.5 186.1 36.6 185.8 36.9 C 185.4 37.2 185.3 37.7 185.3 38.5 C 185.27 38.52 185.3 41.9 185.3 41.9 L 184.2 41.9 Z M 190.5 40.1 C 190.5 40.1 191.5 39.9 191.5 39.9 C 191.6 40.3 191.7 40.6 192 40.9 C 192.3 41.1 192.6 41.2 193.1 41.2 C 193.6 41.2 194 41.1 194.2 40.9 C 194.4 40.7 194.6 40.5 194.6 40.2 C 194.6 40 194.5 39.8 194.2 39.6 C 194.1 39.5 193.7 39.4 193.2 39.3 C 192.4 39.1 191.9 38.9 191.6 38.8 C 191.3 38.6 191 38.4 190.9 38.2 C 190.7 37.9 190.6 37.7 190.6 37.4 C 190.6 37.1 190.7 36.8 190.8 36.6 C 191 36.3 191.1 36.1 191.4 36 C 191.5 35.9 191.7 35.8 192 35.7 C 192.3 35.6 192.6 35.6 192.9 35.6 C 193.4 35.6 193.9 35.6 194.2 35.8 C 194.6 35.9 194.9 36.1 195 36.3 C 195.2 36.6 195.3 36.9 195.4 37.3 C 195.4 37.3 194.4 37.4 194.4 37.4 C 194.3 37.1 194.2 36.9 194 36.7 C 193.7 36.5 193.4 36.4 193 36.4 C 192.5 36.4 192.2 36.5 192 36.7 C 191.8 36.8 191.7 37 191.7 37.2 C 191.7 37.4 191.7 37.5 191.8 37.6 C 191.9 37.7 192 37.8 192.2 37.9 C 192.3 37.9 192.6 38 193.1 38.1 C 193.9 38.3 194.4 38.5 194.7 38.6 C 195 38.8 195.2 38.9 195.4 39.2 C 195.6 39.4 195.6 39.7 195.6 40.1 C 195.6 40.4 195.5 40.8 195.3 41.1 C 195.1 41.4 194.8 41.6 194.4 41.8 C 194.1 42 193.6 42.1 193.1 42.1 C 192.3 42.1 191.7 41.9 191.3 41.6 C 190.9 41.2 190.6 40.7 190.5 40.1 Z M 198.7 41 C 198.8 41 199 41 199.2 41 C 199.2 41 199.3 41.9 199.3 41.9 C 199.1 42 198.8 42 198.6 42 C 198.2 42 197.9 41.9 197.7 41.8 C 197.4 41.7 197.3 41.5 197.2 41.3 C 197.1 41.1 197.1 40.7 197.1 40.1 C 197.09 40.1 197.1 36.5 197.1 36.5 L 196.3 36.5 L 196.3 35.7 L 197.1 35.7 L 197.1 34.2 L 198.1 33.5 L 198.1 35.7 L 199.2 35.7 L 199.2 36.5 L 198.1 36.5 C 198.1 36.5 198.13 40.16 198.1 40.2 C 198.1 40.5 198.2 40.7 198.2 40.7 C 198.2 40.8 198.3 40.9 198.4 40.9 C 198.5 41 198.6 41 198.7 41 C 198.7 41 198.7 41 198.7 41 Z M 203.2 38.8 C 203.2 37.7 203.5 36.8 204.1 36.2 C 204.7 35.8 205.3 35.6 206.1 35.6 C 206.9 35.6 207.6 35.8 208.2 36.4 C 208.7 37 209 37.7 209 38.7 C 209 39.5 208.9 40.2 208.6 40.6 C 208.4 41.1 208 41.4 207.6 41.7 C 207.1 41.9 206.6 42.1 206.1 42.1 C 205.2 42.1 204.5 41.8 204 41.2 C 203.4 40.7 203.2 39.9 203.2 38.8 Z M 204.3 38.8 C 204.3 39.6 204.4 40.2 204.8 40.6 C 205.1 41 205.6 41.2 206.1 41.2 C 206.6 41.2 207 41 207.4 40.6 C 207.7 40.2 207.9 39.6 207.9 38.8 C 207.9 38 207.7 37.4 207.4 37 C 207 36.6 206.6 36.4 206.1 36.4 C 205.6 36.4 205.1 36.6 204.8 37 C 204.4 37.4 204.3 38 204.3 38.8 Z M 214.3 41.9 C 214.3 41.9 214.31 41.01 214.3 41 C 213.8 41.7 213.2 42.1 212.3 42.1 C 212 42.1 211.6 42 211.3 41.9 C 211 41.7 210.8 41.5 210.6 41.3 C 210.4 41.1 210.3 40.8 210.3 40.5 C 210.2 40.3 210.2 40 210.2 39.6 C 210.21 39.55 210.2 35.7 210.2 35.7 L 211.3 35.7 C 211.3 35.7 211.27 39.15 211.3 39.2 C 211.3 39.7 211.3 40.1 211.3 40.3 C 211.4 40.5 211.5 40.8 211.8 40.9 C 212 41.1 212.2 41.2 212.5 41.2 C 212.9 41.2 213.2 41.1 213.4 40.9 C 213.7 40.7 213.9 40.5 214 40.2 C 214.1 40 214.2 39.6 214.2 39 C 214.2 39.03 214.2 35.7 214.2 35.7 L 215.3 35.7 L 215.3 41.9 L 214.3 41.9 Z M 216.9 41.9 L 216.9 35.7 L 217.8 35.7 C 217.8 35.7 217.85 36.64 217.8 36.6 C 218.1 36.2 218.3 35.9 218.5 35.8 C 218.7 35.6 218.9 35.6 219.2 35.6 C 219.5 35.6 219.9 35.7 220.3 35.9 C 220.3 35.9 219.9 36.9 219.9 36.9 C 219.7 36.7 219.4 36.6 219.1 36.6 C 218.9 36.6 218.7 36.7 218.5 36.9 C 218.3 37 218.2 37.2 218.1 37.4 C 218 37.8 218 38.2 218 38.7 C 217.95 38.66 218 41.9 218 41.9 L 216.9 41.9 Z M 225.2 41.9 L 224.2 41.9 L 224.2 33.3 L 225.3 33.3 C 225.3 33.3 225.29 36.4 225.3 36.4 C 225.7 35.8 226.3 35.6 227 35.6 C 227.4 35.6 227.7 35.6 228.1 35.8 C 228.4 35.9 228.7 36.2 228.9 36.4 C 229.1 36.7 229.3 37.1 229.4 37.5 C 229.6 37.8 229.6 38.3 229.6 38.7 C 229.6 39.8 229.4 40.6 228.8 41.2 C 228.3 41.8 227.7 42.1 226.9 42.1 C 226.2 42.1 225.6 41.8 225.2 41.1 C 225.21 41.14 225.2 41.9 225.2 41.9 Z M 225.2 38.8 C 225.2 39.5 225.3 40 225.5 40.4 C 225.8 40.9 226.3 41.2 226.9 41.2 C 227.3 41.2 227.7 41 228 40.6 C 228.4 40.2 228.6 39.6 228.6 38.8 C 228.6 38 228.4 37.4 228.1 37 C 227.7 36.6 227.4 36.4 226.9 36.4 C 226.4 36.4 226 36.6 225.7 37 C 225.4 37.4 225.2 38 225.2 38.8 Z M 235 41.9 C 235 41.9 234.99 41.01 235 41 C 234.5 41.7 233.8 42.1 233 42.1 C 232.6 42.1 232.3 42 232 41.9 C 231.7 41.7 231.4 41.5 231.3 41.3 C 231.1 41.1 231 40.8 231 40.5 C 230.9 40.3 230.9 40 230.9 39.6 C 230.89 39.55 230.9 35.7 230.9 35.7 L 231.9 35.7 C 231.9 35.7 231.94 39.15 231.9 39.2 C 231.9 39.7 232 40.1 232 40.3 C 232.1 40.5 232.2 40.8 232.4 40.9 C 232.6 41.1 232.9 41.2 233.2 41.2 C 233.5 41.2 233.8 41.1 234.1 40.9 C 234.4 40.7 234.6 40.5 234.7 40.2 C 234.8 40 234.9 39.6 234.9 39 C 234.88 39.03 234.9 35.7 234.9 35.7 L 235.9 35.7 L 235.9 41.9 L 235 41.9 Z M 237.2 40.1 C 237.2 40.1 238.2 39.9 238.2 39.9 C 238.3 40.3 238.4 40.6 238.7 40.9 C 239 41.1 239.3 41.2 239.8 41.2 C 240.3 41.2 240.7 41.1 240.9 40.9 C 241.1 40.7 241.2 40.5 241.2 40.2 C 241.2 40 241.1 39.8 240.9 39.6 C 240.8 39.5 240.4 39.4 239.9 39.3 C 239.1 39.1 238.5 38.9 238.3 38.8 C 238 38.6 237.7 38.4 237.6 38.2 C 237.4 37.9 237.3 37.7 237.3 37.4 C 237.3 37.1 237.4 36.8 237.5 36.6 C 237.7 36.3 237.8 36.1 238 36 C 238.2 35.9 238.4 35.8 238.7 35.7 C 239 35.6 239.3 35.6 239.6 35.6 C 240.1 35.6 240.5 35.6 240.9 35.8 C 241.3 35.9 241.6 36.1 241.7 36.3 C 241.9 36.6 242 36.9 242.1 37.3 C 242.1 37.3 241.1 37.4 241.1 37.4 C 241 37.1 240.9 36.9 240.7 36.7 C 240.4 36.5 240.1 36.4 239.7 36.4 C 239.2 36.4 238.9 36.5 238.7 36.7 C 238.5 36.8 238.4 37 238.4 37.2 C 238.4 37.4 238.4 37.5 238.5 37.6 C 238.6 37.7 238.7 37.8 238.9 37.9 C 239 37.9 239.3 38 239.8 38.1 C 240.6 38.3 241.1 38.5 241.4 38.6 C 241.7 38.8 241.9 38.9 242.1 39.2 C 242.2 39.4 242.3 39.7 242.3 40.1 C 242.3 40.4 242.2 40.8 242 41.1 C 241.8 41.4 241.5 41.6 241.1 41.8 C 240.8 42 240.3 42.1 239.8 42.1 C 239 42.1 238.4 41.9 238 41.6 C 237.6 41.2 237.3 40.7 237.2 40.1 Z M 243.6 34.5 L 243.6 33.3 L 244.6 33.3 L 244.6 34.5 L 243.6 34.5 Z M 243.6 41.9 L 243.6 35.7 L 244.6 35.7 L 244.6 41.9 L 243.6 41.9 Z M 246.3 41.9 L 246.3 35.7 L 247.2 35.7 C 247.2 35.7 247.2 36.58 247.2 36.6 C 247.7 35.9 248.3 35.6 249.2 35.6 C 249.6 35.6 249.9 35.6 250.2 35.8 C 250.5 35.9 250.8 36.1 250.9 36.3 C 251.1 36.5 251.2 36.8 251.3 37.1 C 251.3 37.3 251.3 37.6 251.3 38.1 C 251.31 38.1 251.3 41.9 251.3 41.9 L 250.3 41.9 C 250.3 41.9 250.25 38.14 250.3 38.1 C 250.3 37.7 250.2 37.4 250.1 37.2 C 250 37 249.9 36.8 249.7 36.7 C 249.5 36.5 249.2 36.5 249 36.5 C 248.5 36.5 248.1 36.6 247.8 36.9 C 247.5 37.2 247.3 37.7 247.3 38.5 C 247.31 38.52 247.3 41.9 247.3 41.9 L 246.3 41.9 Z M 257.2 39.9 C 257.2 39.9 258.3 40.1 258.3 40.1 C 258.1 40.7 257.8 41.2 257.3 41.5 C 256.9 41.9 256.3 42.1 255.5 42.1 C 254.6 42.1 253.9 41.8 253.4 41.2 C 252.8 40.7 252.6 39.9 252.6 38.9 C 252.6 37.8 252.8 37 253.4 36.4 C 253.9 35.8 254.6 35.6 255.5 35.6 C 256.3 35.6 257 35.8 257.5 36.4 C 258 37 258.3 37.8 258.3 38.8 C 258.3 38.9 258.3 39 258.3 39.1 C 258.3 39.1 253.7 39.1 253.7 39.1 C 253.7 39.8 253.9 40.3 254.2 40.7 C 254.6 41 255 41.2 255.5 41.2 C 255.9 41.2 256.3 41.1 256.5 40.9 C 256.8 40.7 257 40.4 257.2 39.9 Z M 253.7 38.2 C 253.7 38.2 257.2 38.2 257.2 38.2 C 257.2 37.7 257 37.3 256.8 37 C 256.5 36.6 256 36.4 255.5 36.4 C 255 36.4 254.6 36.6 254.3 36.9 C 253.9 37.2 253.8 37.7 253.7 38.2 Z M 259.2 40.1 C 259.2 40.1 260.2 39.9 260.2 39.9 C 260.3 40.3 260.4 40.6 260.7 40.9 C 261 41.1 261.4 41.2 261.8 41.2 C 262.3 41.2 262.7 41.1 262.9 40.9 C 263.1 40.7 263.3 40.5 263.3 40.2 C 263.3 40 263.2 39.8 263 39.6 C 262.8 39.5 262.4 39.4 261.9 39.3 C 261.1 39.1 260.6 38.9 260.3 38.8 C 260 38.6 259.7 38.4 259.6 38.2 C 259.4 37.9 259.4 37.7 259.4 37.4 C 259.4 37.1 259.4 36.8 259.5 36.6 C 259.7 36.3 259.8 36.1 260.1 36 C 260.2 35.9 260.5 35.8 260.7 35.7 C 261 35.6 261.3 35.6 261.6 35.6 C 262.1 35.6 262.6 35.6 262.9 35.8 C 263.3 35.9 263.6 36.1 263.7 36.3 C 263.9 36.6 264 36.9 264.1 37.3 C 264.1 37.3 263.1 37.4 263.1 37.4 C 263 37.1 262.9 36.9 262.7 36.7 C 262.4 36.5 262.1 36.4 261.7 36.4 C 261.2 36.4 260.9 36.5 260.7 36.7 C 260.5 36.8 260.4 37 260.4 37.2 C 260.4 37.4 260.4 37.5 260.5 37.6 C 260.6 37.7 260.7 37.8 260.9 37.9 C 261 37.9 261.3 38 261.8 38.1 C 262.6 38.3 263.1 38.5 263.4 38.6 C 263.7 38.8 263.9 38.9 264.1 39.2 C 264.3 39.4 264.3 39.7 264.3 40.1 C 264.3 40.4 264.2 40.8 264 41.1 C 263.8 41.4 263.5 41.6 263.2 41.8 C 262.8 42 262.3 42.1 261.8 42.1 C 261 42.1 260.4 41.9 260 41.6 C 259.6 41.2 259.3 40.7 259.2 40.1 Z M 265.2 40.1 C 265.2 40.1 266.2 39.9 266.2 39.9 C 266.3 40.3 266.4 40.6 266.7 40.9 C 267 41.1 267.4 41.2 267.8 41.2 C 268.3 41.2 268.7 41.1 268.9 40.9 C 269.1 40.7 269.3 40.5 269.3 40.2 C 269.3 40 269.2 39.8 269 39.6 C 268.8 39.5 268.4 39.4 267.9 39.3 C 267.1 39.1 266.6 38.9 266.3 38.8 C 266 38.6 265.7 38.4 265.6 38.2 C 265.4 37.9 265.4 37.7 265.4 37.4 C 265.4 37.1 265.4 36.8 265.5 36.6 C 265.7 36.3 265.8 36.1 266.1 36 C 266.2 35.9 266.5 35.8 266.7 35.7 C 267 35.6 267.3 35.6 267.6 35.6 C 268.1 35.6 268.6 35.6 268.9 35.8 C 269.3 35.9 269.6 36.1 269.7 36.3 C 269.9 36.6 270 36.9 270.1 37.3 C 270.1 37.3 269.1 37.4 269.1 37.4 C 269 37.1 268.9 36.9 268.7 36.7 C 268.4 36.5 268.1 36.4 267.7 36.4 C 267.2 36.4 266.9 36.5 266.7 36.7 C 266.5 36.8 266.4 37 266.4 37.2 C 266.4 37.4 266.4 37.5 266.5 37.6 C 266.6 37.7 266.7 37.8 266.9 37.9 C 267 37.9 267.3 38 267.8 38.1 C 268.6 38.3 269.1 38.5 269.4 38.6 C 269.7 38.8 269.9 38.9 270.1 39.2 C 270.3 39.4 270.3 39.7 270.3 40.1 C 270.3 40.4 270.2 40.8 270 41.1 C 269.8 41.4 269.5 41.6 269.2 41.8 C 268.8 42 268.3 42.1 267.8 42.1 C 267 42.1 266.4 41.9 266 41.6 C 265.6 41.2 265.3 40.7 265.2 40.1 Z M 275.9 41.9 L 274.9 41.9 L 274.9 33.3 L 276 33.3 C 276 33.3 275.98 36.4 276 36.4 C 276.4 35.8 277 35.6 277.7 35.6 C 278.1 35.6 278.4 35.6 278.8 35.8 C 279.1 35.9 279.4 36.2 279.6 36.4 C 279.8 36.7 280 37.1 280.1 37.5 C 280.3 37.8 280.3 38.3 280.3 38.7 C 280.3 39.8 280.1 40.6 279.5 41.2 C 279 41.8 278.4 42.1 277.6 42.1 C 276.9 42.1 276.3 41.8 275.9 41.1 C 275.91 41.14 275.9 41.9 275.9 41.9 Z M 275.9 38.8 C 275.9 39.5 276 40 276.2 40.4 C 276.5 40.9 277 41.2 277.5 41.2 C 278 41.2 278.4 41 278.7 40.6 C 279.1 40.2 279.2 39.6 279.2 38.8 C 279.2 38 279.1 37.4 278.8 37 C 278.4 36.6 278.1 36.4 277.6 36.4 C 277.1 36.4 276.7 36.6 276.4 37 C 276.1 37.4 275.9 38 275.9 38.8 Z M 285.9 39.9 C 285.9 39.9 287 40.1 287 40.1 C 286.8 40.7 286.5 41.2 286 41.5 C 285.5 41.9 284.9 42.1 284.2 42.1 C 283.3 42.1 282.6 41.8 282.1 41.2 C 281.5 40.7 281.3 39.9 281.3 38.9 C 281.3 37.8 281.5 37 282.1 36.4 C 282.6 35.8 283.3 35.6 284.2 35.6 C 285 35.6 285.7 35.8 286.2 36.4 C 286.7 37 287 37.8 287 38.8 C 287 38.9 287 39 287 39.1 C 287 39.1 282.3 39.1 282.3 39.1 C 282.4 39.8 282.6 40.3 282.9 40.7 C 283.3 41 283.7 41.2 284.2 41.2 C 284.6 41.2 284.9 41.1 285.2 40.9 C 285.5 40.7 285.7 40.4 285.9 39.9 Z M 282.4 38.2 C 282.4 38.2 285.9 38.2 285.9 38.2 C 285.8 37.7 285.7 37.3 285.5 37 C 285.1 36.6 284.7 36.4 284.2 36.4 C 283.7 36.4 283.3 36.6 283 36.9 C 282.6 37.2 282.4 37.7 282.4 38.2 Z M 288.3 41.9 L 288.3 33.3 L 289.3 33.3 C 289.3 33.3 289.34 36.41 289.3 36.4 C 289.8 35.8 290.4 35.6 291.2 35.6 C 291.7 35.6 292.1 35.6 292.4 35.8 C 292.7 36 293 36.3 293.1 36.6 C 293.3 36.9 293.3 37.4 293.3 38 C 293.35 37.98 293.3 41.9 293.3 41.9 L 292.3 41.9 C 292.3 41.9 292.29 37.98 292.3 38 C 292.3 37.5 292.2 37.1 292 36.8 C 291.7 36.6 291.4 36.5 291 36.5 C 290.7 36.5 290.4 36.5 290.1 36.7 C 289.8 36.9 289.6 37.1 289.5 37.4 C 289.4 37.6 289.3 38 289.3 38.5 C 289.34 38.52 289.3 41.9 289.3 41.9 L 288.3 41.9 Z M 299.2 41.9 C 299.1 41.7 299 41.4 299 41.2 C 298.6 41.5 298.2 41.7 297.9 41.9 C 297.5 42 297.1 42.1 296.7 42.1 C 296 42.1 295.5 41.9 295.1 41.6 C 294.8 41.2 294.6 40.8 294.6 40.3 C 294.6 40 294.7 39.7 294.8 39.4 C 294.9 39.2 295.1 39 295.4 38.8 C 295.6 38.7 295.8 38.6 296.1 38.5 C 296.3 38.4 296.6 38.4 297 38.3 C 297.9 38.2 298.5 38.1 298.9 38 C 298.9 37.8 298.9 37.7 298.9 37.7 C 298.9 37.3 298.8 37 298.6 36.8 C 298.4 36.6 298 36.4 297.4 36.4 C 296.9 36.4 296.6 36.5 296.3 36.7 C 296.1 36.9 295.9 37.2 295.8 37.6 C 295.8 37.6 294.8 37.5 294.8 37.5 C 294.9 37 295 36.7 295.2 36.4 C 295.5 36.1 295.8 35.9 296.2 35.8 C 296.6 35.6 297.1 35.6 297.6 35.6 C 298.1 35.6 298.5 35.6 298.9 35.7 C 299.2 35.9 299.5 36 299.6 36.2 C 299.8 36.4 299.9 36.6 299.9 36.9 C 300 37.1 300 37.4 300 37.9 C 300 37.9 300 39.3 300 39.3 C 300 40.3 300 40.9 300.1 41.2 C 300.1 41.4 300.2 41.7 300.3 41.9 C 300.33 41.92 299.2 41.9 299.2 41.9 C 299.2 41.9 299.23 41.92 299.2 41.9 Z M 298.9 38.8 C 298.5 39 298 39.1 297.2 39.2 C 296.8 39.3 296.5 39.3 296.3 39.4 C 296.1 39.5 296 39.6 295.9 39.8 C 295.8 39.9 295.7 40.1 295.7 40.3 C 295.7 40.5 295.8 40.8 296 41 C 296.3 41.1 296.6 41.2 297 41.2 C 297.4 41.2 297.7 41.1 298.1 41 C 298.4 40.8 298.6 40.5 298.8 40.2 C 298.9 40 298.9 39.7 298.9 39.2 C 298.9 39.2 298.9 38.8 298.9 38.8 Z M 303.4 41.9 L 301 35.7 L 302.1 35.7 C 302.1 35.7 303.44 39.43 303.4 39.4 C 303.6 39.8 303.7 40.2 303.8 40.7 C 303.9 40.4 304.1 40 304.2 39.5 C 304.23 39.5 305.6 35.7 305.6 35.7 L 306.7 35.7 L 304.3 41.9 L 303.4 41.9 Z M 307.6 34.5 L 307.6 33.3 L 308.7 33.3 L 308.7 34.5 L 307.6 34.5 Z M 307.6 41.9 L 307.6 35.7 L 308.7 35.7 L 308.7 41.9 L 307.6 41.9 Z M 309.9 38.8 C 309.9 37.7 310.2 36.8 310.9 36.2 C 311.4 35.8 312.1 35.6 312.8 35.6 C 313.7 35.6 314.4 35.8 314.9 36.4 C 315.5 37 315.7 37.7 315.7 38.7 C 315.7 39.5 315.6 40.2 315.4 40.6 C 315.1 41.1 314.8 41.4 314.3 41.7 C 313.9 41.9 313.4 42.1 312.8 42.1 C 311.9 42.1 311.2 41.8 310.7 41.2 C 310.2 40.7 309.9 39.9 309.9 38.8 Z M 311 38.8 C 311 39.6 311.2 40.2 311.5 40.6 C 311.9 41 312.3 41.2 312.8 41.2 C 313.3 41.2 313.8 41 314.1 40.6 C 314.5 40.2 314.6 39.6 314.6 38.8 C 314.6 38 314.5 37.4 314.1 37 C 313.8 36.6 313.3 36.4 312.8 36.4 C 312.3 36.4 311.9 36.6 311.5 37 C 311.2 37.4 311 38 311 38.8 Z M 321 41.9 C 321 41.9 321.05 41.01 321 41 C 320.6 41.7 319.9 42.1 319.1 42.1 C 318.7 42.1 318.4 42 318 41.9 C 317.7 41.7 317.5 41.5 317.3 41.3 C 317.2 41.1 317.1 40.8 317 40.5 C 317 40.3 316.9 40 316.9 39.6 C 316.95 39.55 316.9 35.7 316.9 35.7 L 318 35.7 C 318 35.7 318 39.15 318 39.2 C 318 39.7 318 40.1 318.1 40.3 C 318.1 40.5 318.3 40.8 318.5 40.9 C 318.7 41.1 319 41.2 319.3 41.2 C 319.6 41.2 319.9 41.1 320.2 40.9 C 320.5 40.7 320.6 40.5 320.8 40.2 C 320.9 40 320.9 39.6 320.9 39 C 320.94 39.03 320.9 35.7 320.9 35.7 L 322 35.7 L 322 41.9 L 321 41.9 Z M 323.6 41.9 L 323.6 35.7 L 324.6 35.7 C 324.6 35.7 324.58 36.64 324.6 36.6 C 324.8 36.2 325 35.9 325.3 35.8 C 325.5 35.6 325.7 35.6 325.9 35.6 C 326.3 35.6 326.6 35.7 327 35.9 C 327 35.9 326.6 36.9 326.6 36.9 C 326.4 36.7 326.1 36.6 325.9 36.6 C 325.6 36.6 325.4 36.7 325.3 36.9 C 325.1 37 324.9 37.2 324.9 37.4 C 324.7 37.8 324.7 38.2 324.7 38.7 C 324.69 38.66 324.7 41.9 324.7 41.9 L 323.6 41.9 Z M 327.2 40.1 C 327.2 40.1 328.3 39.9 328.3 39.9 C 328.3 40.3 328.5 40.6 328.7 40.9 C 329 41.1 329.4 41.2 329.9 41.2 C 330.4 41.2 330.7 41.1 330.9 40.9 C 331.2 40.7 331.3 40.5 331.3 40.2 C 331.3 40 331.2 39.8 331 39.6 C 330.8 39.5 330.5 39.4 329.9 39.3 C 329.1 39.1 328.6 38.9 328.3 38.8 C 328 38.6 327.8 38.4 327.6 38.2 C 327.5 37.9 327.4 37.7 327.4 37.4 C 327.4 37.1 327.5 36.8 327.6 36.6 C 327.7 36.3 327.9 36.1 328.1 36 C 328.3 35.9 328.5 35.8 328.8 35.7 C 329.1 35.6 329.4 35.6 329.7 35.6 C 330.2 35.6 330.6 35.6 331 35.8 C 331.3 35.9 331.6 36.1 331.8 36.3 C 332 36.6 332.1 36.9 332.2 37.3 C 332.2 37.3 331.1 37.4 331.1 37.4 C 331.1 37.1 330.9 36.9 330.7 36.7 C 330.5 36.5 330.2 36.4 329.8 36.4 C 329.3 36.4 328.9 36.5 328.7 36.7 C 328.5 36.8 328.4 37 328.4 37.2 C 328.4 37.4 328.5 37.5 328.5 37.6 C 328.6 37.7 328.8 37.8 328.9 37.9 C 329.1 37.9 329.4 38 329.9 38.1 C 330.6 38.3 331.1 38.5 331.4 38.6 C 331.7 38.8 332 38.9 332.1 39.2 C 332.3 39.4 332.4 39.7 332.4 40.1 C 332.4 40.4 332.3 40.8 332.1 41.1 C 331.9 41.4 331.6 41.6 331.2 41.8 C 330.8 42 330.4 42.1 329.9 42.1 C 329.1 42.1 328.5 41.9 328 41.6 C 327.6 41.2 327.3 40.7 327.2 40.1 Z M 341.2 41.9 C 341.1 41.7 341.1 41.4 341 41.2 C 340.6 41.5 340.3 41.7 339.9 41.9 C 339.5 42 339.2 42.1 338.7 42.1 C 338.1 42.1 337.5 41.9 337.2 41.6 C 336.8 41.2 336.6 40.8 336.6 40.3 C 336.6 40 336.7 39.7 336.8 39.4 C 337 39.2 337.1 39 337.4 38.8 C 337.6 38.7 337.8 38.6 338.1 38.5 C 338.3 38.4 338.6 38.4 339.1 38.3 C 339.9 38.2 340.5 38.1 340.9 38 C 340.9 37.8 341 37.7 341 37.7 C 341 37.3 340.9 37 340.7 36.8 C 340.4 36.6 340 36.4 339.5 36.4 C 339 36.4 338.6 36.5 338.4 36.7 C 338.1 36.9 337.9 37.2 337.8 37.6 C 337.8 37.6 336.8 37.5 336.8 37.5 C 336.9 37 337 36.7 337.3 36.4 C 337.5 36.1 337.8 35.9 338.2 35.8 C 338.6 35.6 339.1 35.6 339.6 35.6 C 340.1 35.6 340.6 35.6 340.9 35.7 C 341.2 35.9 341.5 36 341.6 36.2 C 341.8 36.4 341.9 36.6 342 36.9 C 342 37.1 342 37.4 342 37.9 C 342 37.9 342 39.3 342 39.3 C 342 40.3 342 40.9 342.1 41.2 C 342.1 41.4 342.2 41.7 342.3 41.9 C 342.35 41.92 341.2 41.9 341.2 41.9 C 341.2 41.9 341.24 41.92 341.2 41.9 Z M 340.9 38.8 C 340.6 39 340 39.1 339.2 39.2 C 338.8 39.3 338.5 39.3 338.3 39.4 C 338.1 39.5 338 39.6 337.9 39.8 C 337.8 39.9 337.7 40.1 337.7 40.3 C 337.7 40.5 337.8 40.8 338.1 41 C 338.3 41.1 338.6 41.2 339 41.2 C 339.4 41.2 339.8 41.1 340.1 41 C 340.4 40.8 340.6 40.5 340.8 40.2 C 340.9 40 340.9 39.7 340.9 39.2 C 340.9 39.2 340.9 38.8 340.9 38.8 Z M 343.2 40.1 C 343.2 40.1 344.3 39.9 344.3 39.9 C 344.3 40.3 344.5 40.6 344.8 40.9 C 345 41.1 345.4 41.2 345.9 41.2 C 346.4 41.2 346.7 41.1 347 40.9 C 347.2 40.7 347.3 40.5 347.3 40.2 C 347.3 40 347.2 39.8 347 39.6 C 346.9 39.5 346.5 39.4 345.9 39.3 C 345.1 39.1 344.6 38.9 344.3 38.8 C 344 38.6 343.8 38.4 343.6 38.2 C 343.5 37.9 343.4 37.7 343.4 37.4 C 343.4 37.1 343.5 36.8 343.6 36.6 C 343.7 36.3 343.9 36.1 344.1 36 C 344.3 35.9 344.5 35.8 344.8 35.7 C 345.1 35.6 345.4 35.6 345.7 35.6 C 346.2 35.6 346.6 35.6 347 35.8 C 347.3 35.9 347.6 36.1 347.8 36.3 C 348 36.6 348.1 36.9 348.2 37.3 C 348.2 37.3 347.1 37.4 347.1 37.4 C 347.1 37.1 346.9 36.9 346.7 36.7 C 346.5 36.5 346.2 36.4 345.8 36.4 C 345.3 36.4 344.9 36.5 344.7 36.7 C 344.5 36.8 344.4 37 344.4 37.2 C 344.4 37.4 344.5 37.5 344.5 37.6 C 344.6 37.7 344.8 37.8 345 37.9 C 345.1 37.9 345.4 38 345.9 38.1 C 346.6 38.3 347.2 38.5 347.4 38.6 C 347.7 38.8 348 38.9 348.1 39.2 C 348.3 39.4 348.4 39.7 348.4 40.1 C 348.4 40.4 348.3 40.8 348.1 41.1 C 347.9 41.4 347.6 41.6 347.2 41.8 C 346.8 42 346.4 42.1 345.9 42.1 C 345.1 42.1 344.5 41.9 344 41.6 C 343.6 41.2 343.3 40.7 343.2 40.1 Z M 353.2 41.9 L 353.2 36.5 L 352.3 36.5 L 352.3 35.7 L 353.2 35.7 C 353.2 35.7 353.23 35.04 353.2 35 C 353.2 34.6 353.3 34.3 353.3 34.1 C 353.4 33.8 353.6 33.6 353.9 33.4 C 354.1 33.3 354.5 33.2 355 33.2 C 355.3 33.2 355.6 33.2 355.9 33.3 C 355.9 33.3 355.8 34.2 355.8 34.2 C 355.6 34.2 355.4 34.2 355.2 34.2 C 354.8 34.2 354.6 34.2 354.5 34.4 C 354.3 34.5 354.3 34.7 354.3 35.1 C 354.28 35.12 354.3 35.7 354.3 35.7 L 355.5 35.7 L 355.5 36.5 L 354.3 36.5 L 354.3 41.9 L 353.2 41.9 Z M 355.9 38.8 C 355.9 37.7 356.2 36.8 356.9 36.2 C 357.4 35.8 358.1 35.6 358.8 35.6 C 359.7 35.6 360.4 35.8 360.9 36.4 C 361.5 37 361.8 37.7 361.8 38.7 C 361.8 39.5 361.6 40.2 361.4 40.6 C 361.2 41.1 360.8 41.4 360.3 41.7 C 359.9 41.9 359.4 42.1 358.8 42.1 C 358 42.1 357.3 41.8 356.7 41.2 C 356.2 40.7 355.9 39.9 355.9 38.8 Z M 357 38.8 C 357 39.6 357.2 40.2 357.5 40.6 C 357.9 41 358.3 41.2 358.8 41.2 C 359.4 41.2 359.8 41 360.1 40.6 C 360.5 40.2 360.7 39.6 360.7 38.8 C 360.7 38 360.5 37.4 360.1 37 C 359.8 36.6 359.4 36.4 358.8 36.4 C 358.3 36.4 357.9 36.6 357.5 37 C 357.2 37.4 357 38 357 38.8 Z M 363 41.9 L 363 33.3 L 364 33.3 L 364 41.9 L 363 41.9 Z M 365.6 41.9 L 365.6 33.3 L 366.7 33.3 L 366.7 41.9 L 365.6 41.9 Z M 367.9 38.8 C 367.9 37.7 368.2 36.8 368.9 36.2 C 369.4 35.8 370.1 35.6 370.8 35.6 C 371.7 35.6 372.4 35.8 372.9 36.4 C 373.5 37 373.8 37.7 373.8 38.7 C 373.8 39.5 373.6 40.2 373.4 40.6 C 373.2 41.1 372.8 41.4 372.3 41.7 C 371.9 41.9 371.4 42.1 370.8 42.1 C 370 42.1 369.3 41.8 368.7 41.2 C 368.2 40.7 367.9 39.9 367.9 38.8 Z M 369 38.8 C 369 39.6 369.2 40.2 369.5 40.6 C 369.9 41 370.3 41.2 370.8 41.2 C 371.4 41.2 371.8 41 372.2 40.6 C 372.5 40.2 372.7 39.6 372.7 38.8 C 372.7 38 372.5 37.4 372.1 37 C 371.8 36.6 371.4 36.4 370.8 36.4 C 370.3 36.4 369.9 36.6 369.5 37 C 369.2 37.4 369 38 369 38.8 Z M 376.1 41.9 L 374.2 35.7 L 375.3 35.7 L 376.3 39.3 C 376.3 39.3 376.69 40.63 376.7 40.6 C 376.7 40.6 376.8 40.1 377 39.3 C 377.01 39.34 378 35.7 378 35.7 L 379.1 35.7 L 380 39.3 L 380.3 40.5 L 380.7 39.3 L 381.8 35.7 L 382.8 35.7 L 380.8 41.9 L 379.7 41.9 L 378.7 38.2 L 378.5 37.1 L 377.2 41.9 L 376.1 41.9 Z M 383.2 40.1 C 383.2 40.1 384.3 39.9 384.3 39.9 C 384.3 40.3 384.5 40.6 384.8 40.9 C 385 41.1 385.4 41.2 385.9 41.2 C 386.4 41.2 386.7 41.1 387 40.9 C 387.2 40.7 387.3 40.5 387.3 40.2 C 387.3 40 387.2 39.8 387 39.6 C 386.9 39.5 386.5 39.4 385.9 39.3 C 385.2 39.1 384.6 38.9 384.3 38.8 C 384 38.6 383.8 38.4 383.6 38.2 C 383.5 37.9 383.4 37.7 383.4 37.4 C 383.4 37.1 383.5 36.8 383.6 36.6 C 383.7 36.3 383.9 36.1 384.1 36 C 384.3 35.9 384.5 35.8 384.8 35.7 C 385.1 35.6 385.4 35.6 385.7 35.6 C 386.2 35.6 386.6 35.6 387 35.8 C 387.4 35.9 387.6 36.1 387.8 36.3 C 388 36.6 388.1 36.9 388.2 37.3 C 388.2 37.3 387.1 37.4 387.1 37.4 C 387.1 37.1 387 36.9 386.7 36.7 C 386.5 36.5 386.2 36.4 385.8 36.4 C 385.3 36.4 385 36.5 384.7 36.7 C 384.5 36.8 384.4 37 384.4 37.2 C 384.4 37.4 384.5 37.5 384.6 37.6 C 384.6 37.7 384.8 37.8 385 37.9 C 385.1 37.9 385.4 38 385.9 38.1 C 386.6 38.3 387.2 38.5 387.5 38.6 C 387.8 38.8 388 38.9 388.2 39.2 C 388.3 39.4 388.4 39.7 388.4 40.1 C 388.4 40.4 388.3 40.8 388.1 41.1 C 387.9 41.4 387.6 41.6 387.2 41.8 C 386.8 42 386.4 42.1 385.9 42.1 C 385.1 42.1 384.5 41.9 384 41.6 C 383.6 41.2 383.4 40.7 383.2 40.1 Z M 390 36.9 L 390 35.7 L 391.2 35.7 L 391.2 36.9 L 390 36.9 Z M 390 41.9 L 390 40.7 L 391.2 40.7 L 391.2 41.9 L 390 41.9 Z " stroke="none" fill="#000"/>  </g>  <g id="Polygon49731">    <path d="M 4.6 0.8 C 6.8 0.8 8.4 2 8.4 4 C 8.4 5.3 7.6 6.2 6.3 6.7 C 8.2 6.9 9.4 8.2 9.4 9.8 C 9.4 12.1 7.4 13.1 5.1 13.1 C 5.13 13.12 1.4 13.1 1.4 13.1 L 1.4 0.8 C 1.4 0.8 4.55 0.85 4.6 0.8 Z M 2.7 6.3 C 2.7 6.3 4.07 6.3 4.1 6.3 C 6.1 6.3 6.9 5.4 6.9 4.1 C 6.9 2.7 6.1 2 4.3 2 C 4.28 2.03 2.7 2 2.7 2 L 2.7 6.3 Z M 4.9 11.9 C 6.8 11.9 8 11.3 8 9.7 C 8 8.3 7 7.5 4.7 7.5 C 4.68 7.47 2.7 7.5 2.7 7.5 L 2.7 11.9 C 2.7 11.9 4.88 11.93 4.9 11.9 Z M 18.1 0.8 L 18.1 2.1 L 12.8 2.1 L 12.8 6.3 L 17.9 6.3 L 17.9 7.5 L 12.8 7.5 L 12.8 11.9 L 18.3 11.9 L 18.3 13.1 L 11.4 13.1 L 11.4 0.8 L 18.1 0.8 Z M 21.8 0.8 L 21.8 6.3 L 29.2 6.3 L 29.2 0.8 L 30.6 0.8 L 30.6 13.1 L 29.2 13.1 L 29.2 7.6 L 21.8 7.6 L 21.8 13.1 L 20.4 13.1 L 20.4 0.8 L 21.8 0.8 Z M 38.3 0.8 L 43.7 13.1 L 42.4 13.1 L 40.6 9.3 L 35 9.3 L 33.4 13.1 L 32 13.1 L 37.3 0.8 L 38.3 0.8 Z M 35.6 8.1 L 40.1 8.1 L 37.8 2.8 L 35.6 8.1 Z M 42.8 0.8 L 44.1 0.8 L 48.1 10.4 L 48.1 10.4 L 52.1 0.8 L 53.5 0.8 L 48.3 13.2 L 48 13.2 L 42.8 0.8 Z M 56.2 0.8 L 56.2 13.1 L 54.9 13.1 L 54.9 0.8 L 56.2 0.8 Z M 71.4 6.9 C 71.4 10.4 68.8 13.3 64.8 13.3 C 61 13.3 58.4 10.4 58.4 7.1 C 58.4 3.6 60.9 0.7 64.9 0.7 C 68.8 0.7 71.4 3.5 71.4 6.9 Z M 59.8 7 C 59.8 9.9 62.1 12 64.8 12 C 68.5 12 70 9.2 70 7 C 70 4.5 68.1 2 64.9 2 C 61.6 2 59.8 4.5 59.8 7 Z M 74.8 0.8 C 74.8 0.8 74.77 7.92 74.8 7.9 C 74.8 10.6 76 12.1 78.6 12.1 C 81.1 12.1 82.4 10.6 82.4 7.9 C 82.37 7.92 82.4 0.8 82.4 0.8 L 83.7 0.8 C 83.7 0.8 83.72 7.92 83.7 7.9 C 83.7 11.1 82 13.3 78.6 13.3 C 75.2 13.3 73.4 11.4 73.4 7.9 C 73.42 7.92 73.4 0.8 73.4 0.8 L 74.8 0.8 Z M 86.3 0.8 C 86.3 0.8 89.55 0.85 89.5 0.8 C 92 0.8 93.3 2.3 93.3 4.1 C 93.3 5.7 92.5 6.7 91 7.2 C 91.8 7.6 92.1 7.9 93.1 9.4 C 93.13 9.45 95.5 13.1 95.5 13.1 L 93.9 13.1 C 93.9 13.1 91.75 9.74 91.7 9.7 C 90.6 7.9 89.9 7.5 88.8 7.5 C 88.81 7.54 87.7 7.5 87.7 7.5 L 87.7 13.1 L 86.3 13.1 L 86.3 0.8 Z M 88.9 6.4 C 90.6 6.4 91.9 5.9 91.9 4.2 C 91.9 2.6 90.9 2 89.4 2 C 89.37 2.03 87.7 2 87.7 2 L 87.7 6.4 C 87.7 6.4 88.94 6.35 88.9 6.4 Z M 102.8 1.5 C 102.8 1.5 102.8 3 102.8 3 C 102 2.3 101.1 1.9 100.1 1.9 C 98.8 1.9 97.9 2.6 97.9 3.7 C 97.9 4.5 98.1 5.2 100.2 6.2 C 102.7 7.5 103.3 8.4 103.3 10.1 C 103.3 11.9 101.9 13.3 99.8 13.3 C 98.6 13.3 97.5 12.9 96.6 12.2 C 96.6 12.2 96.6 10.5 96.6 10.5 C 97.5 11.5 98.6 12.1 99.8 12.1 C 101 12.1 101.9 11.3 101.9 10.1 C 101.9 9.1 101.6 8.5 99.2 7.2 C 97.3 6.2 96.6 5.3 96.6 3.7 C 96.6 2 98 0.7 100.1 0.7 C 101.1 0.7 102 1 102.8 1.5 Z " stroke="none" fill="#f28620"/>  </g></svg>