<?xml version="1.0" standalone="no"?><!DOCTYPE svg PUBLIC "-//W3C//DTD SVG 1.1//EN" "http://www.w3.org/Graphics/SVG/1.1/DTD/svg11.dtd"><svg xmlns="http://www.w3.org/2000/svg" version="1.1" width="204px" height="39.1px" viewBox="0 -8 204 39.1" style="top:-8px">  <desc>Helpfulness</desc>  <defs/>  <g id="Polygon23720">    <path d="M 41.1 17.5 L 41.1 0.3 L 43.4 0.3 L 43.4 7.3 L 52.3 7.3 L 52.3 0.3 L 54.6 0.3 L 54.6 17.5 L 52.3 17.5 L 52.3 9.4 L 43.4 9.4 L 43.4 17.5 L 41.1 17.5 Z M 66.6 13.5 C 66.6 13.5 68.8 13.7 68.8 13.7 C 68.4 15 67.8 16 66.9 16.7 C 66 17.4 64.8 17.8 63.3 17.8 C 61.5 17.8 60.1 17.2 59 16.1 C 57.9 15 57.4 13.4 57.4 11.4 C 57.4 9.3 57.9 7.6 59 6.5 C 60.1 5.3 61.5 4.7 63.2 4.7 C 64.9 4.7 66.2 5.3 67.3 6.4 C 68.3 7.6 68.9 9.2 68.9 11.2 C 68.9 11.4 68.9 11.5 68.8 11.8 C 68.8 11.8 59.6 11.8 59.6 11.8 C 59.6 13.2 60 14.2 60.7 14.9 C 61.4 15.7 62.3 16 63.3 16 C 64.1 16 64.8 15.8 65.3 15.4 C 65.9 15 66.3 14.4 66.6 13.5 Z M 59.7 10.1 C 59.7 10.1 66.6 10.1 66.6 10.1 C 66.5 9 66.3 8.2 65.8 7.7 C 65.2 6.9 64.3 6.5 63.2 6.5 C 62.3 6.5 61.4 6.8 60.8 7.5 C 60.1 8.1 59.8 9 59.7 10.1 Z M 71.4 17.5 L 71.4 0.3 L 73.5 0.3 L 73.5 17.5 L 71.4 17.5 Z M 76.8 22.2 L 76.8 5 L 78.7 5 C 78.7 5 78.69 6.64 78.7 6.6 C 79.1 6 79.7 5.5 80.2 5.2 C 80.8 4.9 81.5 4.7 82.3 4.7 C 83.4 4.7 84.3 5 85.1 5.6 C 85.9 6.1 86.5 6.9 87 7.9 C 87.4 8.9 87.6 10 87.6 11.2 C 87.6 12.4 87.3 13.6 86.9 14.6 C 86.4 15.6 85.8 16.4 84.9 16.9 C 84 17.5 83.1 17.8 82.2 17.8 C 81.4 17.8 80.8 17.6 80.3 17.3 C 79.7 17 79.2 16.6 78.9 16.2 C 78.88 16.18 78.9 22.2 78.9 22.2 L 76.8 22.2 Z M 78.7 11.3 C 78.7 12.9 79 14.1 79.7 14.9 C 80.3 15.6 81.1 16 82 16 C 82.9 16 83.8 15.6 84.4 14.8 C 85.1 14 85.4 12.8 85.4 11.1 C 85.4 9.6 85.1 8.4 84.4 7.6 C 83.8 6.8 83 6.4 82.1 6.4 C 81.2 6.4 80.4 6.8 79.7 7.7 C 79 8.5 78.7 9.7 78.7 11.3 Z M 90.6 17.5 L 90.6 6.7 L 88.8 6.7 L 88.8 5 L 90.6 5 C 90.6 5 90.62 3.7 90.6 3.7 C 90.6 2.9 90.7 2.2 90.8 1.8 C 91 1.3 91.4 0.8 91.9 0.5 C 92.4 0.2 93.1 0 94.1 0 C 94.7 0 95.3 0.1 96 0.2 C 96 0.2 95.7 2.1 95.7 2.1 C 95.3 2 94.9 1.9 94.5 1.9 C 93.8 1.9 93.4 2.1 93.1 2.3 C 92.9 2.6 92.7 3.1 92.7 3.9 C 92.72 3.88 92.7 5 92.7 5 L 95.1 5 L 95.1 6.7 L 92.7 6.7 L 92.7 17.5 L 90.6 17.5 Z M 104.9 17.5 C 104.9 17.5 104.94 15.64 104.9 15.6 C 104 17.1 102.7 17.8 101 17.8 C 100.3 17.8 99.6 17.6 98.9 17.3 C 98.3 17.1 97.8 16.7 97.5 16.3 C 97.2 15.8 97 15.3 96.9 14.7 C 96.8 14.3 96.7 13.6 96.7 12.7 C 96.74 12.74 96.7 5 96.7 5 L 98.8 5 C 98.8 5 98.85 11.93 98.8 11.9 C 98.8 13 98.9 13.8 99 14.2 C 99.1 14.7 99.4 15.1 99.8 15.5 C 100.3 15.8 100.8 15.9 101.4 15.9 C 102 15.9 102.6 15.8 103.2 15.5 C 103.8 15.1 104.1 14.7 104.4 14.1 C 104.6 13.6 104.7 12.8 104.7 11.7 C 104.72 11.7 104.7 5 104.7 5 L 106.8 5 L 106.8 17.5 L 104.9 17.5 Z M 110.1 17.5 L 110.1 0.3 L 112.2 0.3 L 112.2 17.5 L 110.1 17.5 Z M 115.5 17.5 L 115.5 5 L 117.4 5 C 117.4 5 117.37 6.8 117.4 6.8 C 118.3 5.4 119.6 4.7 121.3 4.7 C 122.1 4.7 122.8 4.9 123.4 5.2 C 124 5.4 124.5 5.8 124.8 6.2 C 125.1 6.6 125.3 7.2 125.5 7.8 C 125.5 8.2 125.6 8.8 125.6 9.8 C 125.58 9.82 125.6 17.5 125.6 17.5 L 123.5 17.5 C 123.5 17.5 123.47 9.9 123.5 9.9 C 123.5 9 123.4 8.4 123.2 8 C 123.1 7.5 122.8 7.2 122.4 7 C 121.9 6.7 121.4 6.6 120.9 6.6 C 120 6.6 119.2 6.9 118.6 7.4 C 117.9 8 117.6 9.1 117.6 10.7 C 117.58 10.68 117.6 17.5 117.6 17.5 L 115.5 17.5 Z M 137.3 13.5 C 137.3 13.5 139.5 13.7 139.5 13.7 C 139.2 15 138.5 16 137.6 16.7 C 136.7 17.4 135.5 17.8 134 17.8 C 132.2 17.8 130.8 17.2 129.7 16.1 C 128.6 15 128.1 13.4 128.1 11.4 C 128.1 9.3 128.7 7.6 129.7 6.5 C 130.8 5.3 132.2 4.7 133.9 4.7 C 135.6 4.7 136.9 5.3 138 6.4 C 139.1 7.6 139.6 9.2 139.6 11.2 C 139.6 11.4 139.6 11.5 139.6 11.8 C 139.6 11.8 130.3 11.8 130.3 11.8 C 130.4 13.2 130.8 14.2 131.5 14.9 C 132.1 15.7 133 16 134.1 16 C 134.8 16 135.5 15.8 136 15.4 C 136.6 15 137 14.4 137.3 13.5 Z M 130.4 10.1 C 130.4 10.1 137.4 10.1 137.4 10.1 C 137.3 9 137 8.2 136.6 7.7 C 135.9 6.9 135 6.5 133.9 6.5 C 133 6.5 132.2 6.8 131.5 7.5 C 130.8 8.1 130.5 9 130.4 10.1 Z M 141.3 13.8 C 141.3 13.8 143.4 13.4 143.4 13.4 C 143.5 14.3 143.8 14.9 144.4 15.4 C 144.9 15.8 145.7 16 146.6 16 C 147.6 16 148.3 15.8 148.8 15.4 C 149.3 15 149.5 14.6 149.5 14 C 149.5 13.6 149.3 13.2 148.9 12.9 C 148.6 12.7 147.9 12.5 146.7 12.2 C 145.2 11.8 144.1 11.5 143.5 11.2 C 142.9 10.9 142.4 10.5 142.1 10 C 141.8 9.5 141.7 8.9 141.7 8.3 C 141.7 7.8 141.8 7.3 142.1 6.8 C 142.3 6.3 142.7 5.9 143.1 5.6 C 143.4 5.4 143.9 5.2 144.4 5 C 145 4.8 145.6 4.7 146.3 4.7 C 147.2 4.7 148.1 4.9 148.8 5.2 C 149.6 5.4 150.1 5.8 150.5 6.3 C 150.8 6.8 151.1 7.4 151.2 8.2 C 151.2 8.2 149.1 8.5 149.1 8.5 C 149 7.9 148.8 7.4 148.3 7 C 147.9 6.7 147.2 6.5 146.4 6.5 C 145.4 6.5 144.7 6.6 144.3 7 C 143.9 7.3 143.7 7.7 143.7 8.1 C 143.7 8.4 143.8 8.6 144 8.8 C 144.1 9.1 144.4 9.2 144.8 9.4 C 145 9.5 145.6 9.6 146.6 9.9 C 148.1 10.3 149.2 10.7 149.8 10.9 C 150.4 11.2 150.8 11.5 151.2 12 C 151.5 12.5 151.7 13.1 151.7 13.8 C 151.7 14.5 151.4 15.2 151 15.8 C 150.6 16.4 150 16.9 149.3 17.2 C 148.5 17.6 147.6 17.8 146.6 17.8 C 145 17.8 143.8 17.4 142.9 16.7 C 142.1 16.1 141.6 15.1 141.3 13.8 Z M 153.3 13.8 C 153.3 13.8 155.4 13.4 155.4 13.4 C 155.5 14.3 155.8 14.9 156.4 15.4 C 156.9 15.8 157.7 16 158.6 16 C 159.6 16 160.3 15.8 160.8 15.4 C 161.3 15 161.5 14.6 161.5 14 C 161.5 13.6 161.3 13.2 160.9 12.9 C 160.6 12.7 159.9 12.5 158.7 12.2 C 157.2 11.8 156.1 11.5 155.5 11.2 C 154.9 10.9 154.4 10.5 154.1 10 C 153.8 9.5 153.7 8.9 153.7 8.3 C 153.7 7.8 153.8 7.3 154.1 6.8 C 154.3 6.3 154.7 5.9 155.1 5.6 C 155.4 5.4 155.9 5.2 156.4 5 C 157 4.8 157.6 4.7 158.3 4.7 C 159.2 4.7 160.1 4.9 160.8 5.2 C 161.6 5.4 162.1 5.8 162.5 6.3 C 162.8 6.8 163.1 7.4 163.2 8.2 C 163.2 8.2 161.1 8.5 161.1 8.5 C 161 7.9 160.8 7.4 160.3 7 C 159.9 6.7 159.2 6.5 158.4 6.5 C 157.4 6.5 156.7 6.6 156.3 7 C 155.9 7.3 155.7 7.7 155.7 8.1 C 155.7 8.4 155.8 8.6 156 8.8 C 156.1 9.1 156.4 9.2 156.8 9.4 C 157 9.5 157.6 9.6 158.6 9.9 C 160.1 10.3 161.2 10.7 161.8 10.9 C 162.4 11.2 162.8 11.5 163.2 12 C 163.5 12.5 163.7 13.1 163.7 13.8 C 163.7 14.5 163.4 15.2 163 15.8 C 162.6 16.4 162 16.9 161.3 17.2 C 160.5 17.6 159.6 17.8 158.6 17.8 C 157 17.8 155.8 17.4 154.9 16.7 C 154.1 16.1 153.6 15.1 153.3 13.8 Z " stroke="none" fill="#000"/>  </g></svg>