<?xml version="1.0" standalone="no"?><!DOCTYPE svg PUBLIC "-//W3C//DTD SVG 1.1//EN" "http://www.w3.org/Graphics/SVG/1.1/DTD/svg11.dtd"><svg xmlns="http://www.w3.org/2000/svg" version="1.1" width="51.3px" height="39.1px" viewBox="0 -8 51.3 39.1" style="top:-8px">  <desc>Poor</desc>  <defs/>  <g id="Polygon24285">    <path d="M 2.5 17.5 L 2.5 0.3 C 2.5 0.3 8.97 0.29 9 0.3 C 10.1 0.3 11 0.3 11.6 0.5 C 12.4 0.6 13.1 0.9 13.7 1.3 C 14.3 1.7 14.7 2.2 15.1 2.9 C 15.4 3.6 15.6 4.4 15.6 5.3 C 15.6 6.7 15.1 8 14.2 9 C 13.3 10 11.6 10.5 9.2 10.5 C 9.17 10.49 4.8 10.5 4.8 10.5 L 4.8 17.5 L 2.5 17.5 Z M 4.8 8.5 C 4.8 8.5 9.21 8.46 9.2 8.5 C 10.7 8.5 11.7 8.2 12.3 7.6 C 13 7.1 13.3 6.3 13.3 5.3 C 13.3 4.6 13.1 4 12.7 3.5 C 12.4 3 11.9 2.6 11.3 2.5 C 10.9 2.4 10.2 2.3 9.2 2.3 C 9.16 2.32 4.8 2.3 4.8 2.3 L 4.8 8.5 Z M 17.4 11.2 C 17.4 8.9 18.1 7.2 19.4 6.1 C 20.4 5.2 21.7 4.7 23.3 4.7 C 25 4.7 26.4 5.3 27.5 6.4 C 28.6 7.5 29.1 9.1 29.1 11.1 C 29.1 12.7 28.9 13.9 28.4 14.9 C 27.9 15.8 27.2 16.5 26.3 17 C 25.4 17.5 24.4 17.8 23.3 17.8 C 21.5 17.8 20.1 17.2 19.1 16.1 C 18 15 17.4 13.4 17.4 11.2 Z M 19.6 11.2 C 19.6 12.8 20 14 20.7 14.8 C 21.4 15.6 22.2 16 23.3 16 C 24.3 16 25.2 15.6 25.9 14.8 C 26.6 14 26.9 12.8 26.9 11.2 C 26.9 9.6 26.6 8.5 25.9 7.7 C 25.2 6.9 24.3 6.5 23.3 6.5 C 22.2 6.5 21.4 6.9 20.7 7.7 C 20 8.5 19.6 9.7 19.6 11.2 Z M 30.8 11.2 C 30.8 8.9 31.4 7.2 32.7 6.1 C 33.8 5.2 35.1 4.7 36.6 4.7 C 38.3 4.7 39.7 5.3 40.8 6.4 C 41.9 7.5 42.5 9.1 42.5 11.1 C 42.5 12.7 42.2 13.9 41.7 14.9 C 41.3 15.8 40.6 16.5 39.6 17 C 38.7 17.5 37.7 17.8 36.6 17.8 C 34.9 17.8 33.5 17.2 32.4 16.1 C 31.3 15 30.8 13.4 30.8 11.2 Z M 33 11.2 C 33 12.8 33.3 14 34 14.8 C 34.7 15.6 35.6 16 36.6 16 C 37.7 16 38.5 15.6 39.2 14.8 C 39.9 14 40.3 12.8 40.3 11.2 C 40.3 9.6 39.9 8.5 39.2 7.7 C 38.5 6.9 37.7 6.5 36.6 6.5 C 35.6 6.5 34.7 6.9 34 7.7 C 33.3 8.5 33 9.7 33 11.2 Z M 44.9 17.5 L 44.9 5 L 46.8 5 C 46.8 5 46.8 6.91 46.8 6.9 C 47.3 6 47.7 5.4 48.1 5.2 C 48.6 4.9 49 4.7 49.5 4.7 C 50.2 4.7 50.9 5 51.7 5.4 C 51.7 5.4 50.9 7.4 50.9 7.4 C 50.4 7.1 49.9 6.9 49.4 6.9 C 48.9 6.9 48.5 7.1 48.1 7.3 C 47.8 7.6 47.5 8 47.4 8.5 C 47.1 9.2 47 10.1 47 11 C 47.01 10.96 47 17.5 47 17.5 L 44.9 17.5 Z " stroke="none" fill="#000"/>  </g></svg>