<?xml version="1.0" standalone="no"?><!DOCTYPE svg PUBLIC "-//W3C//DTD SVG 1.1//EN" "http://www.w3.org/Graphics/SVG/1.1/DTD/svg11.dtd"><svg xmlns="http://www.w3.org/2000/svg" version="1.1" width="200px" height="20.5px" viewBox="0 -4 200 20.5" style="top:-4px">  <desc>Webinars</desc>  <defs/>  <g id="Polygon35219">    <path d="M 2.4 8.7 L 0.1 0.1 L 1.3 0.1 C 1.3 0.1 2.62 5.78 2.6 5.8 C 2.8 6.4 2.9 7 3 7.5 C 3.2 6.6 3.3 6.1 3.4 5.9 C 3.37 5.95 5 0.1 5 0.1 L 6.4 0.1 C 6.4 0.1 7.61 4.49 7.6 4.5 C 7.9 5.6 8.1 6.6 8.3 7.5 C 8.4 7 8.5 6.4 8.7 5.7 C 8.7 5.67 10 0.1 10 0.1 L 11.2 0.1 L 8.8 8.7 L 7.7 8.7 C 7.7 8.7 5.93 2.19 5.9 2.2 C 5.8 1.6 5.7 1.3 5.7 1.2 C 5.6 1.6 5.5 1.9 5.4 2.2 C 5.41 2.19 3.6 8.7 3.6 8.7 L 2.4 8.7 Z M 16.2 6.7 C 16.2 6.7 17.3 6.9 17.3 6.9 C 17.1 7.5 16.8 8 16.3 8.3 C 15.8 8.7 15.2 8.9 14.5 8.9 C 13.6 8.9 12.9 8.6 12.3 8 C 11.8 7.5 11.5 6.7 11.5 5.7 C 11.5 4.6 11.8 3.8 12.4 3.2 C 12.9 2.7 13.6 2.4 14.5 2.4 C 15.3 2.4 16 2.7 16.5 3.2 C 17 3.8 17.3 4.6 17.3 5.6 C 17.3 5.7 17.3 5.8 17.3 5.9 C 17.3 5.9 12.6 5.9 12.6 5.9 C 12.7 6.6 12.9 7.1 13.2 7.5 C 13.6 7.8 14 8 14.5 8 C 14.9 8 15.2 7.9 15.5 7.7 C 15.8 7.5 16 7.2 16.2 6.7 Z M 12.7 5 C 12.7 5 16.2 5 16.2 5 C 16.1 4.5 16 4.1 15.8 3.8 C 15.4 3.4 15 3.2 14.5 3.2 C 14 3.2 13.6 3.4 13.2 3.7 C 12.9 4.1 12.7 4.5 12.7 5 Z M 19.5 8.7 L 18.6 8.7 L 18.6 0.1 L 19.6 0.1 C 19.6 0.1 19.62 3.21 19.6 3.2 C 20.1 2.7 20.6 2.4 21.3 2.4 C 21.7 2.4 22.1 2.5 22.4 2.6 C 22.8 2.8 23 3 23.3 3.3 C 23.5 3.5 23.7 3.9 23.8 4.3 C 23.9 4.7 24 5.1 24 5.5 C 24 6.6 23.7 7.4 23.2 8 C 22.6 8.6 22 8.9 21.3 8.9 C 20.5 8.9 20 8.6 19.5 8 C 19.55 7.96 19.5 8.7 19.5 8.7 Z M 19.5 5.6 C 19.5 6.3 19.6 6.9 19.8 7.2 C 20.2 7.7 20.6 8 21.2 8 C 21.6 8 22 7.8 22.4 7.4 C 22.7 7 22.9 6.4 22.9 5.6 C 22.9 4.8 22.7 4.2 22.4 3.8 C 22.1 3.4 21.7 3.2 21.2 3.2 C 20.8 3.2 20.4 3.4 20 3.8 C 19.7 4.2 19.5 4.8 19.5 5.6 Z M 25.3 1.4 L 25.3 0.1 L 26.3 0.1 L 26.3 1.4 L 25.3 1.4 Z M 25.3 8.7 L 25.3 2.5 L 26.3 2.5 L 26.3 8.7 L 25.3 8.7 Z M 27.9 8.7 L 27.9 2.5 L 28.9 2.5 C 28.9 2.5 28.86 3.4 28.9 3.4 C 29.3 2.7 30 2.4 30.8 2.4 C 31.2 2.4 31.6 2.4 31.9 2.6 C 32.2 2.7 32.4 2.9 32.6 3.1 C 32.7 3.3 32.8 3.6 32.9 3.9 C 33 4.1 33 4.4 33 4.9 C 32.97 4.91 33 8.7 33 8.7 L 31.9 8.7 C 31.9 8.7 31.92 4.95 31.9 5 C 31.9 4.5 31.9 4.2 31.8 4 C 31.7 3.8 31.6 3.6 31.4 3.5 C 31.1 3.4 30.9 3.3 30.6 3.3 C 30.2 3.3 29.8 3.4 29.5 3.7 C 29.1 4 29 4.5 29 5.3 C 28.97 5.34 29 8.7 29 8.7 L 27.9 8.7 Z M 38.9 8.7 C 38.7 8.5 38.7 8.3 38.6 8 C 38.3 8.3 37.9 8.5 37.5 8.7 C 37.2 8.8 36.8 8.9 36.4 8.9 C 35.7 8.9 35.1 8.7 34.8 8.4 C 34.4 8 34.2 7.6 34.2 7.1 C 34.2 6.8 34.3 6.5 34.4 6.3 C 34.6 6 34.8 5.8 35 5.7 C 35.2 5.5 35.5 5.4 35.7 5.3 C 35.9 5.3 36.3 5.2 36.7 5.2 C 37.5 5 38.2 4.9 38.6 4.8 C 38.6 4.6 38.6 4.6 38.6 4.5 C 38.6 4.1 38.5 3.8 38.3 3.6 C 38 3.4 37.6 3.2 37.1 3.2 C 36.6 3.2 36.2 3.3 36 3.5 C 35.7 3.7 35.6 4 35.4 4.4 C 35.4 4.4 34.4 4.3 34.4 4.3 C 34.5 3.8 34.7 3.5 34.9 3.2 C 35.1 2.9 35.4 2.7 35.8 2.6 C 36.2 2.4 36.7 2.4 37.2 2.4 C 37.7 2.4 38.2 2.4 38.5 2.6 C 38.8 2.7 39.1 2.8 39.2 3 C 39.4 3.2 39.5 3.5 39.6 3.8 C 39.6 3.9 39.6 4.3 39.6 4.7 C 39.6 4.7 39.6 6.1 39.6 6.1 C 39.6 7.1 39.6 7.7 39.7 8 C 39.7 8.2 39.8 8.5 40 8.7 C 39.96 8.74 38.9 8.7 38.9 8.7 C 38.9 8.7 38.86 8.74 38.9 8.7 Z M 38.6 5.6 C 38.2 5.8 37.6 5.9 36.8 6 C 36.4 6.1 36.1 6.1 35.9 6.2 C 35.7 6.3 35.6 6.4 35.5 6.6 C 35.4 6.7 35.4 6.9 35.4 7.1 C 35.4 7.3 35.5 7.6 35.7 7.8 C 35.9 8 36.2 8.1 36.6 8.1 C 37 8.1 37.4 8 37.7 7.8 C 38 7.6 38.2 7.4 38.4 7.1 C 38.5 6.8 38.6 6.5 38.6 6 C 38.6 6 38.6 5.6 38.6 5.6 Z M 41.3 8.7 L 41.3 2.5 L 42.2 2.5 C 42.2 2.5 42.2 3.46 42.2 3.5 C 42.4 3 42.7 2.7 42.9 2.6 C 43.1 2.4 43.3 2.4 43.5 2.4 C 43.9 2.4 44.3 2.5 44.6 2.7 C 44.6 2.7 44.3 3.7 44.3 3.7 C 44 3.5 43.8 3.5 43.5 3.5 C 43.3 3.5 43.1 3.5 42.9 3.7 C 42.7 3.8 42.6 4 42.5 4.2 C 42.4 4.6 42.3 5 42.3 5.5 C 42.3 5.48 42.3 8.7 42.3 8.7 L 41.3 8.7 Z M 44.8 6.9 C 44.8 6.9 45.9 6.7 45.9 6.7 C 45.9 7.1 46.1 7.5 46.4 7.7 C 46.6 7.9 47 8 47.5 8 C 48 8 48.3 7.9 48.6 7.7 C 48.8 7.5 48.9 7.3 48.9 7 C 48.9 6.8 48.8 6.6 48.6 6.5 C 48.5 6.4 48.1 6.2 47.5 6.1 C 46.8 5.9 46.2 5.7 45.9 5.6 C 45.6 5.5 45.4 5.3 45.2 5 C 45.1 4.7 45 4.5 45 4.2 C 45 3.9 45.1 3.6 45.2 3.4 C 45.3 3.2 45.5 3 45.7 2.8 C 45.9 2.7 46.1 2.6 46.4 2.5 C 46.7 2.4 47 2.4 47.3 2.4 C 47.8 2.4 48.2 2.4 48.6 2.6 C 49 2.7 49.2 2.9 49.4 3.2 C 49.6 3.4 49.7 3.7 49.8 4.1 C 49.8 4.1 48.7 4.3 48.7 4.3 C 48.7 3.9 48.6 3.7 48.3 3.5 C 48.1 3.3 47.8 3.2 47.4 3.2 C 46.9 3.2 46.5 3.3 46.3 3.5 C 46.1 3.6 46 3.8 46 4 C 46 4.2 46.1 4.3 46.2 4.4 C 46.2 4.5 46.4 4.6 46.6 4.7 C 46.7 4.7 47 4.8 47.5 5 C 48.2 5.2 48.8 5.3 49.1 5.5 C 49.4 5.6 49.6 5.8 49.8 6 C 49.9 6.2 50 6.5 50 6.9 C 50 7.3 49.9 7.6 49.7 7.9 C 49.5 8.2 49.2 8.5 48.8 8.6 C 48.4 8.8 48 8.9 47.5 8.9 C 46.7 8.9 46.1 8.7 45.6 8.4 C 45.2 8 45 7.5 44.8 6.9 Z " stroke="none" fill="#000"/>  </g></svg>