<?xml version="1.0" standalone="no"?><!DOCTYPE svg PUBLIC "-//W3C//DTD SVG 1.1//EN" "http://www.w3.org/Graphics/SVG/1.1/DTD/svg11.dtd"><svg xmlns="http://www.w3.org/2000/svg" version="1.1" width="415px" height="58.5px" viewBox="0 -5 415 58.5" style="top:-5px">  <desc>SERVICE Using a scale of 1 5, clients rated our service performance:</desc>  <defs/>  <g id="Polygon4669">    <path d="M 6.6 37.2 L 7.7 37.2 C 7.7 37.2 7.7 42.15 7.7 42.2 C 7.7 43 7.6 43.7 7.4 44.2 C 7.2 44.7 6.9 45.1 6.3 45.4 C 5.8 45.8 5.2 45.9 4.3 45.9 C 3.5 45.9 2.9 45.8 2.4 45.5 C 1.9 45.2 1.5 44.8 1.3 44.3 C 1.1 43.8 0.9 43.1 0.9 42.2 C 0.94 42.15 0.9 37.2 0.9 37.2 L 2.1 37.2 C 2.1 37.2 2.08 42.15 2.1 42.1 C 2.1 42.9 2.1 43.4 2.3 43.8 C 2.4 44.1 2.7 44.4 3 44.6 C 3.3 44.8 3.8 44.9 4.2 44.9 C 5.1 44.9 5.7 44.7 6 44.3 C 6.4 44 6.6 43.2 6.6 42.1 C 6.56 42.15 6.6 37.2 6.6 37.2 Z M 9 43.9 C 9 43.9 10.1 43.8 10.1 43.8 C 10.1 44.2 10.3 44.5 10.6 44.7 C 10.8 44.9 11.2 45.1 11.7 45.1 C 12.2 45.1 12.5 45 12.8 44.8 C 13 44.6 13.1 44.3 13.1 44.1 C 13.1 43.8 13 43.6 12.8 43.5 C 12.7 43.4 12.3 43.3 11.7 43.1 C 11 42.9 10.4 42.8 10.1 42.6 C 9.8 42.5 9.6 42.3 9.4 42 C 9.3 41.8 9.2 41.5 9.2 41.2 C 9.2 40.9 9.3 40.7 9.4 40.4 C 9.5 40.2 9.7 40 9.9 39.9 C 10.1 39.7 10.3 39.6 10.6 39.5 C 10.9 39.5 11.2 39.4 11.5 39.4 C 12 39.4 12.4 39.5 12.8 39.6 C 13.2 39.8 13.4 40 13.6 40.2 C 13.8 40.4 13.9 40.8 14 41.2 C 14 41.2 12.9 41.3 12.9 41.3 C 12.9 41 12.8 40.7 12.5 40.6 C 12.3 40.4 12 40.3 11.6 40.3 C 11.1 40.3 10.7 40.4 10.5 40.5 C 10.3 40.7 10.2 40.9 10.2 41.1 C 10.2 41.2 10.3 41.3 10.4 41.5 C 10.4 41.6 10.6 41.7 10.8 41.7 C 10.9 41.8 11.2 41.9 11.7 42 C 12.4 42.2 13 42.4 13.3 42.5 C 13.6 42.6 13.8 42.8 14 43 C 14.1 43.3 14.2 43.6 14.2 44 C 14.2 44.3 14.1 44.6 13.9 44.9 C 13.7 45.3 13.4 45.5 13 45.7 C 12.6 45.8 12.2 45.9 11.7 45.9 C 10.9 45.9 10.3 45.8 9.8 45.4 C 9.4 45.1 9.2 44.6 9 43.9 Z M 15.5 38.4 L 15.5 37.2 L 16.5 37.2 L 16.5 38.4 L 15.5 38.4 Z M 15.5 45.8 L 15.5 39.6 L 16.5 39.6 L 16.5 45.8 L 15.5 45.8 Z M 18.1 45.8 L 18.1 39.6 L 19.1 39.6 C 19.1 39.6 19.07 40.44 19.1 40.4 C 19.5 39.8 20.2 39.4 21.1 39.4 C 21.4 39.4 21.8 39.5 22.1 39.6 C 22.4 39.8 22.6 39.9 22.8 40.1 C 22.9 40.4 23.1 40.6 23.1 40.9 C 23.2 41.1 23.2 41.5 23.2 42 C 23.18 41.95 23.2 45.8 23.2 45.8 L 22.1 45.8 C 22.1 45.8 22.13 41.99 22.1 42 C 22.1 41.6 22.1 41.2 22 41 C 21.9 40.8 21.8 40.6 21.6 40.5 C 21.4 40.4 21.1 40.3 20.8 40.3 C 20.4 40.3 20 40.5 19.7 40.8 C 19.3 41 19.2 41.6 19.2 42.4 C 19.18 42.38 19.2 45.8 19.2 45.8 L 18.1 45.8 Z M 24.6 46.3 C 24.6 46.3 25.6 46.4 25.6 46.4 C 25.7 46.8 25.8 47 26 47.1 C 26.2 47.3 26.6 47.4 27.1 47.4 C 27.5 47.4 27.9 47.3 28.2 47.1 C 28.5 46.9 28.6 46.7 28.7 46.3 C 28.8 46.1 28.8 45.7 28.8 45 C 28.3 45.5 27.8 45.8 27.1 45.8 C 26.2 45.8 25.6 45.5 25.1 44.9 C 24.6 44.2 24.4 43.5 24.4 42.6 C 24.4 42 24.5 41.5 24.7 41 C 24.9 40.5 25.2 40.1 25.6 39.8 C 26.1 39.6 26.5 39.4 27.1 39.4 C 27.8 39.4 28.4 39.7 28.9 40.3 C 28.9 40.31 28.9 39.6 28.9 39.6 L 29.9 39.6 C 29.9 39.6 29.88 44.94 29.9 44.9 C 29.9 45.9 29.8 46.6 29.6 47 C 29.4 47.4 29.1 47.7 28.6 48 C 28.2 48.2 27.7 48.3 27.1 48.3 C 26.3 48.3 25.7 48.1 25.3 47.8 C 24.8 47.5 24.6 47 24.6 46.3 Z M 25.5 42.6 C 25.5 43.4 25.6 44 26 44.3 C 26.3 44.7 26.7 44.9 27.2 44.9 C 27.7 44.9 28.1 44.7 28.4 44.3 C 28.7 44 28.9 43.4 28.9 42.6 C 28.9 41.8 28.7 41.3 28.4 40.9 C 28 40.5 27.6 40.3 27.2 40.3 C 26.7 40.3 26.3 40.5 26 40.9 C 25.6 41.2 25.5 41.8 25.5 42.6 Z M 39.1 45.8 C 39 45.6 38.9 45.3 38.9 45 C 38.5 45.3 38.1 45.6 37.7 45.7 C 37.4 45.9 37 45.9 36.6 45.9 C 35.9 45.9 35.4 45.8 35 45.4 C 34.6 45.1 34.4 44.7 34.4 44.1 C 34.4 43.8 34.5 43.6 34.7 43.3 C 34.8 43.1 35 42.9 35.2 42.7 C 35.4 42.5 35.7 42.4 36 42.4 C 36.2 42.3 36.5 42.2 36.9 42.2 C 37.7 42.1 38.4 42 38.8 41.8 C 38.8 41.7 38.8 41.6 38.8 41.6 C 38.8 41.1 38.7 40.8 38.5 40.6 C 38.2 40.4 37.8 40.3 37.3 40.3 C 36.8 40.3 36.4 40.4 36.2 40.6 C 35.9 40.7 35.8 41 35.7 41.5 C 35.7 41.5 34.6 41.3 34.6 41.3 C 34.7 40.9 34.9 40.5 35.1 40.3 C 35.3 40 35.6 39.8 36 39.6 C 36.4 39.5 36.9 39.4 37.4 39.4 C 38 39.4 38.4 39.5 38.7 39.6 C 39.1 39.7 39.3 39.9 39.5 40.1 C 39.6 40.3 39.7 40.5 39.8 40.8 C 39.8 41 39.8 41.3 39.8 41.8 C 39.8 41.8 39.8 43.2 39.8 43.2 C 39.8 44.2 39.9 44.8 39.9 45 C 40 45.3 40 45.5 40.2 45.8 C 40.18 45.78 39.1 45.8 39.1 45.8 C 39.1 45.8 39.08 45.78 39.1 45.8 Z M 38.8 42.7 C 38.4 42.8 37.8 42.9 37.1 43.1 C 36.6 43.1 36.3 43.2 36.1 43.3 C 36 43.3 35.8 43.5 35.7 43.6 C 35.6 43.8 35.6 43.9 35.6 44.1 C 35.6 44.4 35.7 44.6 35.9 44.8 C 36.1 45 36.4 45.1 36.8 45.1 C 37.2 45.1 37.6 45 37.9 44.8 C 38.2 44.6 38.5 44.4 38.6 44.1 C 38.7 43.9 38.8 43.5 38.8 43 C 38.8 43 38.8 42.7 38.8 42.7 Z M 44.4 43.9 C 44.4 43.9 45.4 43.8 45.4 43.8 C 45.5 44.2 45.7 44.5 45.9 44.7 C 46.2 44.9 46.6 45.1 47 45.1 C 47.5 45.1 47.9 45 48.1 44.8 C 48.4 44.6 48.5 44.3 48.5 44.1 C 48.5 43.8 48.4 43.6 48.2 43.5 C 48 43.4 47.7 43.3 47.1 43.1 C 46.3 42.9 45.8 42.8 45.5 42.6 C 45.2 42.5 45 42.3 44.8 42 C 44.6 41.8 44.6 41.5 44.6 41.2 C 44.6 40.9 44.6 40.7 44.8 40.4 C 44.9 40.2 45.1 40 45.3 39.9 C 45.4 39.7 45.7 39.6 45.9 39.5 C 46.2 39.5 46.5 39.4 46.9 39.4 C 47.3 39.4 47.8 39.5 48.1 39.6 C 48.5 39.8 48.8 40 49 40.2 C 49.1 40.4 49.3 40.8 49.3 41.2 C 49.3 41.2 48.3 41.3 48.3 41.3 C 48.2 41 48.1 40.7 47.9 40.6 C 47.7 40.4 47.3 40.3 46.9 40.3 C 46.4 40.3 46.1 40.4 45.9 40.5 C 45.7 40.7 45.6 40.9 45.6 41.1 C 45.6 41.2 45.6 41.3 45.7 41.5 C 45.8 41.6 45.9 41.7 46.1 41.7 C 46.2 41.8 46.5 41.9 47.1 42 C 47.8 42.2 48.3 42.4 48.6 42.5 C 48.9 42.6 49.1 42.8 49.3 43 C 49.5 43.3 49.6 43.6 49.6 44 C 49.6 44.3 49.5 44.6 49.3 44.9 C 49 45.3 48.8 45.5 48.4 45.7 C 48 45.8 47.5 45.9 47.1 45.9 C 46.2 45.9 45.6 45.8 45.2 45.4 C 44.8 45.1 44.5 44.6 44.4 43.9 Z M 54.9 43.5 C 54.9 43.5 55.9 43.6 55.9 43.6 C 55.8 44.4 55.5 44.9 55 45.3 C 54.6 45.7 54 45.9 53.3 45.9 C 52.5 45.9 51.8 45.6 51.3 45.1 C 50.7 44.5 50.5 43.7 50.5 42.7 C 50.5 42 50.6 41.4 50.8 40.9 C 51 40.4 51.4 40 51.8 39.8 C 52.3 39.5 52.8 39.4 53.3 39.4 C 54 39.4 54.6 39.6 55 39.9 C 55.4 40.3 55.7 40.8 55.8 41.4 C 55.8 41.4 54.8 41.5 54.8 41.5 C 54.7 41.1 54.5 40.8 54.3 40.6 C 54 40.4 53.7 40.3 53.4 40.3 C 52.8 40.3 52.4 40.5 52.1 40.9 C 51.7 41.2 51.6 41.8 51.6 42.7 C 51.6 43.5 51.7 44.1 52.1 44.5 C 52.4 44.9 52.8 45.1 53.3 45.1 C 53.7 45.1 54.1 44.9 54.3 44.7 C 54.6 44.4 54.8 44 54.9 43.5 Z M 61.1 45.8 C 61 45.6 60.9 45.3 60.9 45 C 60.5 45.3 60.1 45.6 59.7 45.7 C 59.4 45.9 59 45.9 58.6 45.9 C 57.9 45.9 57.4 45.8 57 45.4 C 56.6 45.1 56.5 44.7 56.5 44.1 C 56.5 43.8 56.5 43.6 56.7 43.3 C 56.8 43.1 57 42.9 57.2 42.7 C 57.4 42.5 57.7 42.4 58 42.4 C 58.2 42.3 58.5 42.2 58.9 42.2 C 59.8 42.1 60.4 42 60.8 41.8 C 60.8 41.7 60.8 41.6 60.8 41.6 C 60.8 41.1 60.7 40.8 60.5 40.6 C 60.2 40.4 59.8 40.3 59.3 40.3 C 58.8 40.3 58.4 40.4 58.2 40.6 C 58 40.7 57.8 41 57.7 41.5 C 57.7 41.5 56.6 41.3 56.6 41.3 C 56.7 40.9 56.9 40.5 57.1 40.3 C 57.3 40 57.6 39.8 58 39.6 C 58.4 39.5 58.9 39.4 59.4 39.4 C 60 39.4 60.4 39.5 60.7 39.6 C 61.1 39.7 61.3 39.9 61.5 40.1 C 61.6 40.3 61.7 40.5 61.8 40.8 C 61.8 41 61.9 41.3 61.9 41.8 C 61.9 41.8 61.9 43.2 61.9 43.2 C 61.9 44.2 61.9 44.8 61.9 45 C 62 45.3 62.1 45.5 62.2 45.8 C 62.19 45.78 61.1 45.8 61.1 45.8 C 61.1 45.8 61.08 45.78 61.1 45.8 Z M 60.8 42.7 C 60.4 42.8 59.8 42.9 59.1 43.1 C 58.6 43.1 58.3 43.2 58.1 43.3 C 58 43.3 57.8 43.5 57.7 43.6 C 57.6 43.8 57.6 43.9 57.6 44.1 C 57.6 44.4 57.7 44.6 57.9 44.8 C 58.1 45 58.4 45.1 58.8 45.1 C 59.2 45.1 59.6 45 59.9 44.8 C 60.2 44.6 60.5 44.4 60.6 44.1 C 60.7 43.9 60.8 43.5 60.8 43 C 60.8 43 60.8 42.7 60.8 42.7 Z M 63.5 45.8 L 63.5 37.2 L 64.5 37.2 L 64.5 45.8 L 63.5 45.8 Z M 70.4 43.8 C 70.4 43.8 71.5 43.9 71.5 43.9 C 71.3 44.5 71 45 70.5 45.4 C 70.1 45.7 69.5 45.9 68.8 45.9 C 67.9 45.9 67.1 45.6 66.6 45.1 C 66.1 44.5 65.8 43.7 65.8 42.7 C 65.8 41.7 66.1 40.9 66.6 40.3 C 67.1 39.7 67.8 39.4 68.7 39.4 C 69.5 39.4 70.2 39.7 70.7 40.3 C 71.3 40.8 71.5 41.6 71.5 42.7 C 71.5 42.7 71.5 42.8 71.5 42.9 C 71.5 42.9 66.9 42.9 66.9 42.9 C 66.9 43.6 67.1 44.1 67.5 44.5 C 67.8 44.9 68.3 45.1 68.8 45.1 C 69.2 45.1 69.5 45 69.8 44.7 C 70 44.5 70.3 44.2 70.4 43.8 Z M 66.9 42.1 C 66.9 42.1 70.4 42.1 70.4 42.1 C 70.4 41.5 70.2 41.2 70 40.9 C 69.7 40.5 69.3 40.3 68.7 40.3 C 68.2 40.3 67.8 40.4 67.5 40.8 C 67.2 41.1 67 41.5 66.9 42.1 Z M 75.8 42.7 C 75.8 41.5 76.1 40.7 76.7 40.1 C 77.3 39.6 77.9 39.4 78.7 39.4 C 79.5 39.4 80.2 39.7 80.8 40.3 C 81.3 40.8 81.6 41.6 81.6 42.6 C 81.6 43.4 81.5 44 81.2 44.5 C 81 44.9 80.6 45.3 80.2 45.5 C 79.7 45.8 79.2 45.9 78.7 45.9 C 77.8 45.9 77.1 45.6 76.6 45.1 C 76 44.5 75.8 43.7 75.8 42.7 Z M 76.9 42.7 C 76.9 43.5 77 44.1 77.4 44.5 C 77.7 44.9 78.2 45.1 78.7 45.1 C 79.2 45.1 79.6 44.9 80 44.5 C 80.3 44.1 80.5 43.4 80.5 42.6 C 80.5 41.9 80.3 41.3 80 40.9 C 79.6 40.5 79.2 40.3 78.7 40.3 C 78.2 40.3 77.7 40.5 77.4 40.9 C 77 41.3 76.9 41.9 76.9 42.7 Z M 83.1 45.8 L 83.1 40.4 L 82.2 40.4 L 82.2 39.6 L 83.1 39.6 C 83.1 39.6 83.09 38.9 83.1 38.9 C 83.1 38.5 83.1 38.2 83.2 38 C 83.3 37.7 83.5 37.5 83.7 37.3 C 84 37.1 84.3 37 84.8 37 C 85.1 37 85.4 37.1 85.8 37.1 C 85.8 37.1 85.6 38.1 85.6 38.1 C 85.4 38 85.2 38 85 38 C 84.7 38 84.5 38.1 84.3 38.2 C 84.2 38.4 84.1 38.6 84.1 39 C 84.13 38.98 84.1 39.6 84.1 39.6 L 85.3 39.6 L 85.3 40.4 L 84.1 40.4 L 84.1 45.8 L 83.1 45.8 Z M 93.2 45.8 L 92.1 45.8 C 92.1 45.8 92.13 39.06 92.1 39.1 C 91.9 39.3 91.5 39.5 91.1 39.8 C 90.7 40 90.3 40.2 90 40.3 C 90 40.3 90 39.3 90 39.3 C 90.6 39 91.1 38.7 91.6 38.3 C 92 37.9 92.3 37.5 92.5 37.2 C 92.5 37.15 93.2 37.2 93.2 37.2 L 93.2 45.8 Z M 99.1 43.2 L 99.1 42.1 L 102.3 42.1 L 102.3 43.2 L 99.1 43.2 Z M 106.5 43.5 C 106.5 43.5 107.7 43.4 107.7 43.4 C 107.7 44 107.9 44.4 108.2 44.7 C 108.5 44.9 108.9 45.1 109.3 45.1 C 109.8 45.1 110.2 44.9 110.6 44.5 C 110.9 44.1 111.1 43.6 111.1 43 C 111.1 42.4 111 41.9 110.6 41.5 C 110.3 41.2 109.8 41 109.3 41 C 108.9 41 108.6 41.1 108.4 41.2 C 108.1 41.4 107.9 41.6 107.7 41.8 C 107.72 41.85 106.7 41.7 106.7 41.7 L 107.6 37.3 L 111.8 37.3 L 111.8 38.3 L 108.4 38.3 C 108.4 38.3 107.95 40.62 107.9 40.6 C 108.5 40.3 109 40.1 109.6 40.1 C 110.3 40.1 111 40.3 111.5 40.9 C 112 41.4 112.2 42.1 112.2 42.9 C 112.2 43.6 112 44.3 111.6 44.9 C 111 45.6 110.3 45.9 109.3 45.9 C 108.5 45.9 107.9 45.7 107.4 45.3 C 106.9 44.8 106.6 44.3 106.5 43.5 Z M 113.8 45.8 L 113.8 44.6 L 115 44.6 C 115 44.6 114.99 45.78 115 45.8 C 115 46.2 114.9 46.6 114.8 46.8 C 114.6 47.1 114.4 47.3 114 47.5 C 114 47.5 113.7 47 113.7 47 C 113.9 46.9 114.1 46.8 114.2 46.6 C 114.3 46.4 114.4 46.1 114.4 45.8 C 114.39 45.78 113.8 45.8 113.8 45.8 Z M 124.2 43.5 C 124.2 43.5 125.3 43.6 125.3 43.6 C 125.2 44.4 124.9 44.9 124.4 45.3 C 123.9 45.7 123.4 45.9 122.7 45.9 C 121.8 45.9 121.2 45.6 120.6 45.1 C 120.1 44.5 119.9 43.7 119.9 42.7 C 119.9 42 120 41.4 120.2 40.9 C 120.4 40.4 120.8 40 121.2 39.8 C 121.7 39.5 122.2 39.4 122.7 39.4 C 123.4 39.4 123.9 39.6 124.4 39.9 C 124.8 40.3 125.1 40.8 125.2 41.4 C 125.2 41.4 124.2 41.5 124.2 41.5 C 124.1 41.1 123.9 40.8 123.6 40.6 C 123.4 40.4 123.1 40.3 122.7 40.3 C 122.2 40.3 121.8 40.5 121.4 40.9 C 121.1 41.2 120.9 41.8 120.9 42.7 C 120.9 43.5 121.1 44.1 121.4 44.5 C 121.7 44.9 122.2 45.1 122.7 45.1 C 123.1 45.1 123.4 44.9 123.7 44.7 C 124 44.4 124.2 44 124.2 43.5 Z M 126.2 45.8 L 126.2 37.2 L 127.2 37.2 L 127.2 45.8 L 126.2 45.8 Z M 128.9 38.4 L 128.9 37.2 L 129.9 37.2 L 129.9 38.4 L 128.9 38.4 Z M 128.9 45.8 L 128.9 39.6 L 129.9 39.6 L 129.9 45.8 L 128.9 45.8 Z M 135.8 43.8 C 135.8 43.8 136.9 43.9 136.9 43.9 C 136.7 44.5 136.4 45 135.9 45.4 C 135.4 45.7 134.8 45.9 134.1 45.9 C 133.2 45.9 132.5 45.6 132 45.1 C 131.4 44.5 131.2 43.7 131.2 42.7 C 131.2 41.7 131.4 40.9 132 40.3 C 132.5 39.7 133.2 39.4 134.1 39.4 C 134.9 39.4 135.6 39.7 136.1 40.3 C 136.6 40.8 136.9 41.6 136.9 42.7 C 136.9 42.7 136.9 42.8 136.9 42.9 C 136.9 42.9 132.3 42.9 132.3 42.9 C 132.3 43.6 132.5 44.1 132.8 44.5 C 133.2 44.9 133.6 45.1 134.1 45.1 C 134.5 45.1 134.8 45 135.1 44.7 C 135.4 44.5 135.6 44.2 135.8 43.8 Z M 132.3 42.1 C 132.3 42.1 135.8 42.1 135.8 42.1 C 135.7 41.5 135.6 41.2 135.4 40.9 C 135.1 40.5 134.6 40.3 134.1 40.3 C 133.6 40.3 133.2 40.4 132.9 40.8 C 132.5 41.1 132.3 41.5 132.3 42.1 Z M 138.2 45.8 L 138.2 39.6 L 139.1 39.6 C 139.1 39.6 139.14 40.44 139.1 40.4 C 139.6 39.8 140.3 39.4 141.1 39.4 C 141.5 39.4 141.8 39.5 142.2 39.6 C 142.5 39.8 142.7 39.9 142.9 40.1 C 143 40.4 143.1 40.6 143.2 40.9 C 143.2 41.1 143.2 41.5 143.2 42 C 143.24 41.95 143.2 45.8 143.2 45.8 L 142.2 45.8 C 142.2 45.8 142.19 41.99 142.2 42 C 142.2 41.6 142.1 41.2 142.1 41 C 142 40.8 141.8 40.6 141.6 40.5 C 141.4 40.4 141.2 40.3 140.9 40.3 C 140.4 40.3 140.1 40.5 139.7 40.8 C 139.4 41 139.2 41.6 139.2 42.4 C 139.24 42.38 139.2 45.8 139.2 45.8 L 138.2 45.8 Z M 146.7 44.9 C 146.8 44.9 147 44.9 147.2 44.8 C 147.2 44.8 147.3 45.8 147.3 45.8 C 147 45.8 146.8 45.9 146.5 45.9 C 146.1 45.9 145.8 45.8 145.6 45.7 C 145.4 45.6 145.3 45.4 145.2 45.2 C 145.1 45 145.1 44.6 145.1 44 C 145.05 43.96 145.1 40.4 145.1 40.4 L 144.3 40.4 L 144.3 39.6 L 145.1 39.6 L 145.1 38 L 146.1 37.4 L 146.1 39.6 L 147.2 39.6 L 147.2 40.4 L 146.1 40.4 C 146.1 40.4 146.1 44.02 146.1 44 C 146.1 44.3 146.1 44.5 146.2 44.6 C 146.2 44.7 146.3 44.8 146.3 44.8 C 146.4 44.9 146.5 44.9 146.7 44.9 C 146.7 44.9 146.7 44.9 146.7 44.9 Z M 147.8 43.9 C 147.8 43.9 148.8 43.8 148.8 43.8 C 148.9 44.2 149 44.5 149.3 44.7 C 149.6 44.9 149.9 45.1 150.4 45.1 C 150.9 45.1 151.3 45 151.5 44.8 C 151.7 44.6 151.9 44.3 151.9 44.1 C 151.9 43.8 151.8 43.6 151.5 43.5 C 151.4 43.4 151 43.3 150.5 43.1 C 149.7 42.9 149.2 42.8 148.9 42.6 C 148.6 42.5 148.3 42.3 148.2 42 C 148 41.8 147.9 41.5 147.9 41.2 C 147.9 40.9 148 40.7 148.1 40.4 C 148.3 40.2 148.4 40 148.7 39.9 C 148.8 39.7 149 39.6 149.3 39.5 C 149.6 39.5 149.9 39.4 150.2 39.4 C 150.7 39.4 151.2 39.5 151.5 39.6 C 151.9 39.8 152.2 40 152.3 40.2 C 152.5 40.4 152.6 40.8 152.7 41.2 C 152.7 41.2 151.7 41.3 151.7 41.3 C 151.6 41 151.5 40.7 151.3 40.6 C 151 40.4 150.7 40.3 150.3 40.3 C 149.8 40.3 149.5 40.4 149.3 40.5 C 149.1 40.7 149 40.9 149 41.1 C 149 41.2 149 41.3 149.1 41.5 C 149.2 41.6 149.3 41.7 149.5 41.7 C 149.6 41.8 149.9 41.9 150.4 42 C 151.2 42.2 151.7 42.4 152 42.5 C 152.3 42.6 152.5 42.8 152.7 43 C 152.9 43.3 152.9 43.6 152.9 44 C 152.9 44.3 152.8 44.6 152.6 44.9 C 152.4 45.3 152.1 45.5 151.7 45.7 C 151.4 45.8 150.9 45.9 150.4 45.9 C 149.6 45.9 149 45.8 148.6 45.4 C 148.2 45.1 147.9 44.6 147.8 43.9 Z M 157.5 45.8 L 157.5 39.6 L 158.5 39.6 C 158.5 39.6 158.47 40.5 158.5 40.5 C 158.7 40.1 158.9 39.8 159.1 39.6 C 159.3 39.5 159.6 39.4 159.8 39.4 C 160.2 39.4 160.5 39.5 160.9 39.8 C 160.9 39.8 160.5 40.7 160.5 40.7 C 160.3 40.6 160 40.5 159.8 40.5 C 159.5 40.5 159.3 40.6 159.1 40.7 C 159 40.9 158.8 41 158.7 41.3 C 158.6 41.7 158.6 42.1 158.6 42.5 C 158.57 42.52 158.6 45.8 158.6 45.8 L 157.5 45.8 Z M 165.8 45.8 C 165.7 45.6 165.6 45.3 165.6 45 C 165.2 45.3 164.8 45.6 164.5 45.7 C 164.1 45.9 163.7 45.9 163.3 45.9 C 162.6 45.9 162.1 45.8 161.7 45.4 C 161.4 45.1 161.2 44.7 161.2 44.1 C 161.2 43.8 161.2 43.6 161.4 43.3 C 161.5 43.1 161.7 42.9 161.9 42.7 C 162.1 42.5 162.4 42.4 162.7 42.4 C 162.9 42.3 163.2 42.2 163.6 42.2 C 164.5 42.1 165.1 42 165.5 41.8 C 165.5 41.7 165.5 41.6 165.5 41.6 C 165.5 41.1 165.4 40.8 165.2 40.6 C 164.9 40.4 164.5 40.3 164 40.3 C 163.5 40.3 163.1 40.4 162.9 40.6 C 162.7 40.7 162.5 41 162.4 41.5 C 162.4 41.5 161.3 41.3 161.3 41.3 C 161.4 40.9 161.6 40.5 161.8 40.3 C 162 40 162.3 39.8 162.7 39.6 C 163.2 39.5 163.6 39.4 164.2 39.4 C 164.7 39.4 165.1 39.5 165.5 39.6 C 165.8 39.7 166 39.9 166.2 40.1 C 166.3 40.3 166.4 40.5 166.5 40.8 C 166.5 41 166.6 41.3 166.6 41.8 C 166.6 41.8 166.6 43.2 166.6 43.2 C 166.6 44.2 166.6 44.8 166.6 45 C 166.7 45.3 166.8 45.5 166.9 45.8 C 166.9 45.78 165.8 45.8 165.8 45.8 C 165.8 45.8 165.8 45.78 165.8 45.8 Z M 165.5 42.7 C 165.1 42.8 164.5 42.9 163.8 43.1 C 163.3 43.1 163 43.2 162.9 43.3 C 162.7 43.3 162.5 43.5 162.4 43.6 C 162.3 43.8 162.3 43.9 162.3 44.1 C 162.3 44.4 162.4 44.6 162.6 44.8 C 162.8 45 163.1 45.1 163.5 45.1 C 164 45.1 164.3 45 164.6 44.8 C 164.9 44.6 165.2 44.4 165.3 44.1 C 165.4 43.9 165.5 43.5 165.5 43 C 165.5 43 165.5 42.7 165.5 42.7 Z M 170 44.9 C 170.2 44.9 170.3 44.9 170.5 44.8 C 170.5 44.8 170.7 45.8 170.7 45.8 C 170.4 45.8 170.1 45.9 169.9 45.9 C 169.5 45.9 169.2 45.8 169 45.7 C 168.8 45.6 168.6 45.4 168.5 45.2 C 168.4 45 168.4 44.6 168.4 44 C 168.39 43.96 168.4 40.4 168.4 40.4 L 167.6 40.4 L 167.6 39.6 L 168.4 39.6 L 168.4 38 L 169.4 37.4 L 169.4 39.6 L 170.5 39.6 L 170.5 40.4 L 169.4 40.4 C 169.4 40.4 169.44 44.02 169.4 44 C 169.4 44.3 169.5 44.5 169.5 44.6 C 169.5 44.7 169.6 44.8 169.7 44.8 C 169.8 44.9 169.9 44.9 170 44.9 C 170 44.9 170 44.9 170 44.9 Z M 175.8 43.8 C 175.8 43.8 176.9 43.9 176.9 43.9 C 176.7 44.5 176.4 45 175.9 45.4 C 175.5 45.7 174.9 45.9 174.1 45.9 C 173.2 45.9 172.5 45.6 172 45.1 C 171.4 44.5 171.2 43.7 171.2 42.7 C 171.2 41.7 171.5 40.9 172 40.3 C 172.5 39.7 173.2 39.4 174.1 39.4 C 174.9 39.4 175.6 39.7 176.1 40.3 C 176.7 40.8 176.9 41.6 176.9 42.7 C 176.9 42.7 176.9 42.8 176.9 42.9 C 176.9 42.9 172.3 42.9 172.3 42.9 C 172.3 43.6 172.5 44.1 172.9 44.5 C 173.2 44.9 173.6 45.1 174.2 45.1 C 174.5 45.1 174.9 45 175.1 44.7 C 175.4 44.5 175.6 44.2 175.8 43.8 Z M 172.3 42.1 C 172.3 42.1 175.8 42.1 175.8 42.1 C 175.8 41.5 175.6 41.2 175.4 40.9 C 175.1 40.5 174.6 40.3 174.1 40.3 C 173.6 40.3 173.2 40.4 172.9 40.8 C 172.5 41.1 172.4 41.5 172.3 42.1 Z M 182.2 45.8 C 182.2 45.8 182.24 44.99 182.2 45 C 181.8 45.6 181.3 45.9 180.5 45.9 C 180 45.9 179.6 45.8 179.1 45.5 C 178.7 45.2 178.4 44.9 178.2 44.4 C 177.9 43.9 177.8 43.3 177.8 42.7 C 177.8 42.1 177.9 41.5 178.1 41 C 178.3 40.5 178.7 40.1 179.1 39.8 C 179.5 39.6 179.9 39.4 180.5 39.4 C 180.8 39.4 181.2 39.5 181.5 39.7 C 181.8 39.8 182 40 182.2 40.3 C 182.17 40.27 182.2 37.2 182.2 37.2 L 183.2 37.2 L 183.2 45.8 L 182.2 45.8 Z M 178.9 42.7 C 178.9 43.5 179.1 44.1 179.4 44.5 C 179.7 44.9 180.1 45.1 180.6 45.1 C 181.1 45.1 181.5 44.9 181.8 44.5 C 182.1 44.1 182.3 43.5 182.3 42.8 C 182.3 41.9 182.1 41.3 181.8 40.9 C 181.4 40.5 181 40.3 180.6 40.3 C 180.1 40.3 179.7 40.5 179.4 40.9 C 179.1 41.2 178.9 41.9 178.9 42.7 Z M 187.8 42.7 C 187.8 41.5 188.1 40.7 188.8 40.1 C 189.3 39.6 190 39.4 190.7 39.4 C 191.6 39.4 192.3 39.7 192.8 40.3 C 193.4 40.8 193.7 41.6 193.7 42.6 C 193.7 43.4 193.5 44 193.3 44.5 C 193.1 44.9 192.7 45.3 192.2 45.5 C 191.8 45.8 191.3 45.9 190.7 45.9 C 189.9 45.9 189.2 45.6 188.6 45.1 C 188.1 44.5 187.8 43.7 187.8 42.7 Z M 188.9 42.7 C 188.9 43.5 189.1 44.1 189.4 44.5 C 189.8 44.9 190.2 45.1 190.7 45.1 C 191.3 45.1 191.7 44.9 192 44.5 C 192.4 44.1 192.6 43.4 192.6 42.6 C 192.6 41.9 192.4 41.3 192 40.9 C 191.7 40.5 191.3 40.3 190.7 40.3 C 190.2 40.3 189.8 40.5 189.4 40.9 C 189.1 41.3 188.9 41.9 188.9 42.7 Z M 199 45.8 C 199 45.8 198.97 44.87 199 44.9 C 198.5 45.6 197.8 45.9 197 45.9 C 196.6 45.9 196.3 45.9 196 45.7 C 195.6 45.6 195.4 45.4 195.3 45.2 C 195.1 45 195 44.7 194.9 44.4 C 194.9 44.2 194.9 43.9 194.9 43.4 C 194.87 43.41 194.9 39.6 194.9 39.6 L 195.9 39.6 C 195.9 39.6 195.92 43.01 195.9 43 C 195.9 43.6 195.9 43.9 196 44.1 C 196.1 44.4 196.2 44.6 196.4 44.8 C 196.6 44.9 196.9 45 197.2 45 C 197.5 45 197.8 44.9 198.1 44.8 C 198.4 44.6 198.6 44.4 198.7 44.1 C 198.8 43.8 198.9 43.4 198.9 42.9 C 198.86 42.89 198.9 39.6 198.9 39.6 L 199.9 39.6 L 199.9 45.8 L 199 45.8 Z M 201.6 45.8 L 201.6 39.6 L 202.5 39.6 C 202.5 39.6 202.5 40.5 202.5 40.5 C 202.7 40.1 203 39.8 203.2 39.6 C 203.4 39.5 203.6 39.4 203.8 39.4 C 204.2 39.4 204.6 39.5 204.9 39.8 C 204.9 39.8 204.6 40.7 204.6 40.7 C 204.3 40.6 204.1 40.5 203.8 40.5 C 203.6 40.5 203.4 40.6 203.2 40.7 C 203 40.9 202.9 41 202.8 41.3 C 202.7 41.7 202.6 42.1 202.6 42.5 C 202.61 42.52 202.6 45.8 202.6 45.8 L 201.6 45.8 Z M 208.5 43.9 C 208.5 43.9 209.5 43.8 209.5 43.8 C 209.6 44.2 209.7 44.5 210 44.7 C 210.3 44.9 210.6 45.1 211.1 45.1 C 211.6 45.1 212 45 212.2 44.8 C 212.4 44.6 212.6 44.3 212.6 44.1 C 212.6 43.8 212.5 43.6 212.2 43.5 C 212.1 43.4 211.7 43.3 211.2 43.1 C 210.4 42.9 209.9 42.8 209.6 42.6 C 209.3 42.5 209 42.3 208.9 42 C 208.7 41.8 208.6 41.5 208.6 41.2 C 208.6 40.9 208.7 40.7 208.8 40.4 C 209 40.2 209.1 40 209.4 39.9 C 209.5 39.7 209.7 39.6 210 39.5 C 210.3 39.5 210.6 39.4 210.9 39.4 C 211.4 39.4 211.9 39.5 212.2 39.6 C 212.6 39.8 212.9 40 213 40.2 C 213.2 40.4 213.3 40.8 213.4 41.2 C 213.4 41.2 212.4 41.3 212.4 41.3 C 212.3 41 212.2 40.7 212 40.6 C 211.7 40.4 211.4 40.3 211 40.3 C 210.5 40.3 210.2 40.4 210 40.5 C 209.8 40.7 209.7 40.9 209.7 41.1 C 209.7 41.2 209.7 41.3 209.8 41.5 C 209.9 41.6 210 41.7 210.2 41.7 C 210.3 41.8 210.6 41.9 211.1 42 C 211.9 42.2 212.4 42.4 212.7 42.5 C 213 42.6 213.2 42.8 213.4 43 C 213.6 43.3 213.6 43.6 213.6 44 C 213.6 44.3 213.5 44.6 213.3 44.9 C 213.1 45.3 212.8 45.5 212.4 45.7 C 212.1 45.8 211.6 45.9 211.1 45.9 C 210.3 45.9 209.7 45.8 209.3 45.4 C 208.9 45.1 208.6 44.6 208.5 43.9 Z M 219.2 43.8 C 219.2 43.8 220.2 43.9 220.2 43.9 C 220.1 44.5 219.8 45 219.3 45.4 C 218.8 45.7 218.2 45.9 217.5 45.9 C 216.6 45.9 215.9 45.6 215.3 45.1 C 214.8 44.5 214.5 43.7 214.5 42.7 C 214.5 41.7 214.8 40.9 215.3 40.3 C 215.9 39.7 216.6 39.4 217.4 39.4 C 218.3 39.4 219 39.7 219.5 40.3 C 220 40.8 220.3 41.6 220.3 42.7 C 220.3 42.7 220.3 42.8 220.3 42.9 C 220.3 42.9 215.6 42.9 215.6 42.9 C 215.7 43.6 215.9 44.1 216.2 44.5 C 216.6 44.9 217 45.1 217.5 45.1 C 217.9 45.1 218.2 45 218.5 44.7 C 218.8 44.5 219 44.2 219.2 43.8 Z M 215.7 42.1 C 215.7 42.1 219.2 42.1 219.2 42.1 C 219.1 41.5 219 41.2 218.8 40.9 C 218.4 40.5 218 40.3 217.5 40.3 C 217 40.3 216.6 40.4 216.2 40.8 C 215.9 41.1 215.7 41.5 215.7 42.1 Z M 221.6 45.8 L 221.6 39.6 L 222.5 39.6 C 222.5 39.6 222.5 40.5 222.5 40.5 C 222.7 40.1 223 39.8 223.2 39.6 C 223.4 39.5 223.6 39.4 223.9 39.4 C 224.2 39.4 224.6 39.5 224.9 39.8 C 224.9 39.8 224.6 40.7 224.6 40.7 C 224.3 40.6 224.1 40.5 223.8 40.5 C 223.6 40.5 223.4 40.6 223.2 40.7 C 223 40.9 222.9 41 222.8 41.3 C 222.7 41.7 222.6 42.1 222.6 42.5 C 222.61 42.52 222.6 45.8 222.6 45.8 L 221.6 45.8 Z M 227.3 45.8 L 224.9 39.6 L 226 39.6 C 226 39.6 227.37 43.28 227.4 43.3 C 227.5 43.7 227.7 44.1 227.8 44.5 C 227.9 44.2 228 43.8 228.2 43.4 C 228.16 43.35 229.5 39.6 229.5 39.6 L 230.6 39.6 L 228.3 45.8 L 227.3 45.8 Z M 231.6 38.4 L 231.6 37.2 L 232.6 37.2 L 232.6 38.4 L 231.6 38.4 Z M 231.6 45.8 L 231.6 39.6 L 232.6 39.6 L 232.6 45.8 L 231.6 45.8 Z M 238.3 43.5 C 238.3 43.5 239.3 43.6 239.3 43.6 C 239.2 44.4 238.9 44.9 238.5 45.3 C 238 45.7 237.4 45.9 236.7 45.9 C 235.9 45.9 235.2 45.6 234.7 45.1 C 234.2 44.5 233.9 43.7 233.9 42.7 C 233.9 42 234 41.4 234.2 40.9 C 234.5 40.4 234.8 40 235.3 39.8 C 235.7 39.5 236.2 39.4 236.7 39.4 C 237.4 39.4 238 39.6 238.4 39.9 C 238.8 40.3 239.1 40.8 239.2 41.4 C 239.2 41.4 238.2 41.5 238.2 41.5 C 238.1 41.1 237.9 40.8 237.7 40.6 C 237.4 40.4 237.1 40.3 236.8 40.3 C 236.3 40.3 235.8 40.5 235.5 40.9 C 235.2 41.2 235 41.8 235 42.7 C 235 43.5 235.2 44.1 235.5 44.5 C 235.8 44.9 236.2 45.1 236.7 45.1 C 237.1 45.1 237.5 44.9 237.8 44.7 C 238 44.4 238.2 44 238.3 43.5 Z M 244.5 43.8 C 244.5 43.8 245.6 43.9 245.6 43.9 C 245.4 44.5 245.1 45 244.6 45.4 C 244.2 45.7 243.6 45.9 242.8 45.9 C 241.9 45.9 241.2 45.6 240.7 45.1 C 240.1 44.5 239.9 43.7 239.9 42.7 C 239.9 41.7 240.1 40.9 240.7 40.3 C 241.2 39.7 241.9 39.4 242.8 39.4 C 243.6 39.4 244.3 39.7 244.8 40.3 C 245.3 40.8 245.6 41.6 245.6 42.7 C 245.6 42.7 245.6 42.8 245.6 42.9 C 245.6 42.9 241 42.9 241 42.9 C 241 43.6 241.2 44.1 241.5 44.5 C 241.9 44.9 242.3 45.1 242.8 45.1 C 243.2 45.1 243.6 45 243.8 44.7 C 244.1 44.5 244.3 44.2 244.5 43.8 Z M 241 42.1 C 241 42.1 244.5 42.1 244.5 42.1 C 244.5 41.5 244.3 41.2 244.1 40.9 C 243.8 40.5 243.3 40.3 242.8 40.3 C 242.3 40.3 241.9 40.4 241.6 40.8 C 241.2 41.1 241.1 41.5 241 42.1 Z M 250.2 48.2 L 250.2 39.6 L 251.2 39.6 C 251.2 39.6 251.2 40.37 251.2 40.4 C 251.4 40 251.7 39.8 252 39.7 C 252.2 39.5 252.6 39.4 253 39.4 C 253.5 39.4 254 39.6 254.4 39.8 C 254.8 40.1 255.1 40.5 255.3 41 C 255.5 41.5 255.6 42 255.6 42.6 C 255.6 43.3 255.5 43.8 255.3 44.3 C 255.1 44.9 254.7 45.2 254.3 45.5 C 253.9 45.8 253.4 45.9 252.9 45.9 C 252.6 45.9 252.3 45.8 252 45.7 C 251.7 45.5 251.5 45.4 251.3 45.1 C 251.29 45.14 251.3 48.2 251.3 48.2 L 250.2 48.2 Z M 251.2 42.7 C 251.2 43.5 251.4 44.1 251.7 44.5 C 252 44.9 252.4 45.1 252.9 45.1 C 253.3 45.1 253.7 44.9 254.1 44.5 C 254.4 44.1 254.6 43.4 254.6 42.6 C 254.6 41.8 254.4 41.2 254.1 40.8 C 253.7 40.4 253.4 40.2 252.9 40.2 C 252.5 40.2 252.1 40.5 251.7 40.9 C 251.4 41.3 251.2 41.9 251.2 42.7 Z M 261.2 43.8 C 261.2 43.8 262.3 43.9 262.3 43.9 C 262.1 44.5 261.8 45 261.3 45.4 C 260.8 45.7 260.2 45.9 259.5 45.9 C 258.6 45.9 257.9 45.6 257.4 45.1 C 256.8 44.5 256.6 43.7 256.6 42.7 C 256.6 41.7 256.8 40.9 257.4 40.3 C 257.9 39.7 258.6 39.4 259.5 39.4 C 260.3 39.4 261 39.7 261.5 40.3 C 262 40.8 262.3 41.6 262.3 42.7 C 262.3 42.7 262.3 42.8 262.3 42.9 C 262.3 42.9 257.6 42.9 257.6 42.9 C 257.7 43.6 257.9 44.1 258.2 44.5 C 258.6 44.9 259 45.1 259.5 45.1 C 259.9 45.1 260.2 45 260.5 44.7 C 260.8 44.5 261 44.2 261.2 43.8 Z M 257.7 42.1 C 257.7 42.1 261.2 42.1 261.2 42.1 C 261.1 41.5 261 41.2 260.8 40.9 C 260.4 40.5 260 40.3 259.5 40.3 C 259 40.3 258.6 40.4 258.3 40.8 C 257.9 41.1 257.7 41.5 257.7 42.1 Z M 263.6 45.8 L 263.6 39.6 L 264.5 39.6 C 264.5 39.6 264.52 40.5 264.5 40.5 C 264.8 40.1 265 39.8 265.2 39.6 C 265.4 39.5 265.6 39.4 265.9 39.4 C 266.2 39.4 266.6 39.5 267 39.8 C 267 39.8 266.6 40.7 266.6 40.7 C 266.3 40.6 266.1 40.5 265.8 40.5 C 265.6 40.5 265.4 40.6 265.2 40.7 C 265 40.9 264.9 41 264.8 41.3 C 264.7 41.7 264.6 42.1 264.6 42.5 C 264.63 42.52 264.6 45.8 264.6 45.8 L 263.6 45.8 Z M 267.8 45.8 L 267.8 40.4 L 266.9 40.4 L 266.9 39.6 L 267.8 39.6 C 267.8 39.6 267.83 38.9 267.8 38.9 C 267.8 38.5 267.9 38.2 267.9 38 C 268 37.7 268.2 37.5 268.5 37.3 C 268.7 37.1 269.1 37 269.6 37 C 269.9 37 270.2 37.1 270.5 37.1 C 270.5 37.1 270.4 38.1 270.4 38.1 C 270.2 38 270 38 269.8 38 C 269.4 38 269.2 38.1 269.1 38.2 C 268.9 38.4 268.9 38.6 268.9 39 C 268.88 38.98 268.9 39.6 268.9 39.6 L 270.1 39.6 L 270.1 40.4 L 268.9 40.4 L 268.9 45.8 L 267.8 45.8 Z M 270.5 42.7 C 270.5 41.5 270.8 40.7 271.5 40.1 C 272 39.6 272.7 39.4 273.4 39.4 C 274.3 39.4 275 39.7 275.5 40.3 C 276.1 40.8 276.4 41.6 276.4 42.6 C 276.4 43.4 276.2 44 276 44.5 C 275.8 44.9 275.4 45.3 274.9 45.5 C 274.5 45.8 274 45.9 273.4 45.9 C 272.6 45.9 271.9 45.6 271.3 45.1 C 270.8 44.5 270.5 43.7 270.5 42.7 Z M 271.6 42.7 C 271.6 43.5 271.8 44.1 272.1 44.5 C 272.5 44.9 272.9 45.1 273.4 45.1 C 274 45.1 274.4 44.9 274.7 44.5 C 275.1 44.1 275.3 43.4 275.3 42.6 C 275.3 41.9 275.1 41.3 274.7 40.9 C 274.4 40.5 274 40.3 273.4 40.3 C 272.9 40.3 272.5 40.5 272.1 40.9 C 271.8 41.3 271.6 41.9 271.6 42.7 Z M 277.6 45.8 L 277.6 39.6 L 278.5 39.6 C 278.5 39.6 278.53 40.5 278.5 40.5 C 278.8 40.1 279 39.8 279.2 39.6 C 279.4 39.5 279.6 39.4 279.9 39.4 C 280.2 39.4 280.6 39.5 281 39.8 C 281 39.8 280.6 40.7 280.6 40.7 C 280.3 40.6 280.1 40.5 279.8 40.5 C 279.6 40.5 279.4 40.6 279.2 40.7 C 279 40.9 278.9 41 278.8 41.3 C 278.7 41.7 278.6 42.1 278.6 42.5 C 278.63 42.52 278.6 45.8 278.6 45.8 L 277.6 45.8 Z M 281.6 45.8 L 281.6 39.6 L 282.5 39.6 C 282.5 39.6 282.53 40.43 282.5 40.4 C 282.7 40.1 283 39.9 283.3 39.7 C 283.6 39.5 284 39.4 284.4 39.4 C 284.9 39.4 285.3 39.5 285.5 39.7 C 285.8 39.9 286.1 40.2 286.2 40.5 C 286.7 39.8 287.3 39.4 288.1 39.4 C 288.7 39.4 289.2 39.6 289.5 39.9 C 289.8 40.3 290 40.8 290 41.5 C 290.02 41.51 290 45.8 290 45.8 L 289 45.8 C 289 45.8 288.97 41.86 289 41.9 C 289 41.4 288.9 41.1 288.9 40.9 C 288.8 40.8 288.7 40.6 288.5 40.5 C 288.3 40.4 288.1 40.3 287.9 40.3 C 287.4 40.3 287.1 40.5 286.8 40.8 C 286.5 41.1 286.3 41.5 286.3 42.2 C 286.34 42.16 286.3 45.8 286.3 45.8 L 285.3 45.8 C 285.3 45.8 285.28 41.74 285.3 41.7 C 285.3 41.3 285.2 40.9 285 40.7 C 284.9 40.4 284.6 40.3 284.2 40.3 C 283.9 40.3 283.6 40.4 283.4 40.6 C 283.1 40.7 282.9 40.9 282.8 41.3 C 282.7 41.6 282.6 42 282.6 42.6 C 282.64 42.55 282.6 45.8 282.6 45.8 L 281.6 45.8 Z M 295.9 45.8 C 295.7 45.6 295.7 45.3 295.6 45 C 295.2 45.3 294.9 45.6 294.5 45.7 C 294.2 45.9 293.8 45.9 293.3 45.9 C 292.7 45.9 292.1 45.8 291.8 45.4 C 291.4 45.1 291.2 44.7 291.2 44.1 C 291.2 43.8 291.3 43.6 291.4 43.3 C 291.6 43.1 291.8 42.9 292 42.7 C 292.2 42.5 292.5 42.4 292.7 42.4 C 292.9 42.3 293.3 42.2 293.7 42.2 C 294.5 42.1 295.2 42 295.6 41.8 C 295.6 41.7 295.6 41.6 295.6 41.6 C 295.6 41.1 295.5 40.8 295.3 40.6 C 295 40.4 294.6 40.3 294.1 40.3 C 293.6 40.3 293.2 40.4 293 40.6 C 292.7 40.7 292.5 41 292.4 41.5 C 292.4 41.5 291.4 41.3 291.4 41.3 C 291.5 40.9 291.7 40.5 291.9 40.3 C 292.1 40 292.4 39.8 292.8 39.6 C 293.2 39.5 293.7 39.4 294.2 39.4 C 294.7 39.4 295.2 39.5 295.5 39.6 C 295.8 39.7 296.1 39.9 296.2 40.1 C 296.4 40.3 296.5 40.5 296.6 40.8 C 296.6 41 296.6 41.3 296.6 41.8 C 296.6 41.8 296.6 43.2 296.6 43.2 C 296.6 44.2 296.6 44.8 296.7 45 C 296.7 45.3 296.8 45.5 297 45.8 C 296.95 45.78 295.9 45.8 295.9 45.8 C 295.9 45.8 295.85 45.78 295.9 45.8 Z M 295.6 42.7 C 295.2 42.8 294.6 42.9 293.8 43.1 C 293.4 43.1 293.1 43.2 292.9 43.3 C 292.7 43.3 292.6 43.5 292.5 43.6 C 292.4 43.8 292.3 43.9 292.3 44.1 C 292.3 44.4 292.5 44.6 292.7 44.8 C 292.9 45 293.2 45.1 293.6 45.1 C 294 45.1 294.4 45 294.7 44.8 C 295 44.6 295.2 44.4 295.4 44.1 C 295.5 43.9 295.6 43.5 295.6 43 C 295.6 43 295.6 42.7 295.6 42.7 Z M 298.3 45.8 L 298.3 39.6 L 299.2 39.6 C 299.2 39.6 299.2 40.44 299.2 40.4 C 299.7 39.8 300.3 39.4 301.2 39.4 C 301.6 39.4 301.9 39.5 302.2 39.6 C 302.5 39.8 302.8 39.9 302.9 40.1 C 303.1 40.4 303.2 40.6 303.3 40.9 C 303.3 41.1 303.3 41.5 303.3 42 C 303.31 41.95 303.3 45.8 303.3 45.8 L 302.3 45.8 C 302.3 45.8 302.26 41.99 302.3 42 C 302.3 41.6 302.2 41.2 302.1 41 C 302.1 40.8 301.9 40.6 301.7 40.5 C 301.5 40.4 301.2 40.3 301 40.3 C 300.5 40.3 300.1 40.5 299.8 40.8 C 299.5 41 299.3 41.6 299.3 42.4 C 299.31 42.38 299.3 45.8 299.3 45.8 L 298.3 45.8 Z M 309 43.5 C 309 43.5 310 43.6 310 43.6 C 309.9 44.4 309.6 44.9 309.2 45.3 C 308.7 45.7 308.1 45.9 307.4 45.9 C 306.6 45.9 305.9 45.6 305.4 45.1 C 304.9 44.5 304.6 43.7 304.6 42.7 C 304.6 42 304.7 41.4 304.9 40.9 C 305.2 40.4 305.5 40 306 39.8 C 306.4 39.5 306.9 39.4 307.4 39.4 C 308.1 39.4 308.7 39.6 309.1 39.9 C 309.5 40.3 309.8 40.8 309.9 41.4 C 309.9 41.4 308.9 41.5 308.9 41.5 C 308.8 41.1 308.6 40.8 308.4 40.6 C 308.1 40.4 307.8 40.3 307.5 40.3 C 307 40.3 306.5 40.5 306.2 40.9 C 305.9 41.2 305.7 41.8 305.7 42.7 C 305.7 43.5 305.8 44.1 306.2 44.5 C 306.5 44.9 306.9 45.1 307.4 45.1 C 307.8 45.1 308.2 44.9 308.5 44.7 C 308.7 44.4 308.9 44 309 43.5 Z M 315.2 43.8 C 315.2 43.8 316.3 43.9 316.3 43.9 C 316.1 44.5 315.8 45 315.3 45.4 C 314.9 45.7 314.3 45.9 313.5 45.9 C 312.6 45.9 311.9 45.6 311.4 45.1 C 310.8 44.5 310.6 43.7 310.6 42.7 C 310.6 41.7 310.8 40.9 311.4 40.3 C 311.9 39.7 312.6 39.4 313.5 39.4 C 314.3 39.4 315 39.7 315.5 40.3 C 316 40.8 316.3 41.6 316.3 42.7 C 316.3 42.7 316.3 42.8 316.3 42.9 C 316.3 42.9 311.7 42.9 311.7 42.9 C 311.7 43.6 311.9 44.1 312.2 44.5 C 312.6 44.9 313 45.1 313.5 45.1 C 313.9 45.1 314.3 45 314.5 44.7 C 314.8 44.5 315 44.2 315.2 43.8 Z M 311.7 42.1 C 311.7 42.1 315.2 42.1 315.2 42.1 C 315.2 41.5 315 41.2 314.8 40.9 C 314.5 40.5 314 40.3 313.5 40.3 C 313 40.3 312.6 40.4 312.3 40.8 C 311.9 41.1 311.8 41.5 311.7 42.1 Z M 317.9 40.8 L 317.9 39.6 L 319.1 39.6 L 319.1 40.8 L 317.9 40.8 Z M 317.9 45.8 L 317.9 44.6 L 319.1 44.6 L 319.1 45.8 L 317.9 45.8 Z " stroke="none" fill="#000"/>  </g>  <g id="Polygon4668">    <path d="M 7.6 1.6 C 7.6 1.6 7.6 2.7 7.6 2.7 C 6.6 2.1 5.6 1.7 4.6 1.7 C 3 1.7 1.9 2.7 1.9 4.1 C 1.9 5.2 2.2 6.1 4.6 7.1 C 7.4 8.4 8.1 9.4 8.1 11.2 C 8.1 13.3 6.6 14.8 4.3 14.8 C 3 14.8 1.9 14.4 0.9 13.6 C 0.9 13.6 0.9 12.3 0.9 12.3 C 1.9 13.3 3 13.8 4.3 13.8 C 5.9 13.8 7 12.8 7 11.2 C 7 9.9 6.5 9.1 4 7.9 C 1.7 6.9 0.8 5.9 0.8 4.1 C 0.8 2.2 2.4 0.8 4.7 0.8 C 5.7 0.8 6.7 1 7.6 1.6 Z M 17.6 0.9 L 17.6 1.9 L 11.4 1.9 L 11.4 7.2 L 17.4 7.2 L 17.4 8.2 L 11.4 8.2 L 11.4 13.6 L 17.8 13.6 L 17.8 14.6 L 10.4 14.6 L 10.4 0.9 L 17.6 0.9 Z M 20.1 0.9 C 20.1 0.9 23.5 0.94 23.5 0.9 C 26.2 0.9 27.7 2.3 27.7 4.5 C 27.7 6.3 26.6 7.4 24.8 7.8 C 25.7 8.2 26.2 8.6 27.1 10 C 27.06 10.04 30 14.6 30 14.6 L 28.7 14.6 C 28.7 14.6 26.08 10.4 26.1 10.4 C 24.9 8.6 24.1 8.1 22.8 8.1 C 22.76 8.14 21.1 8.1 21.1 8.1 L 21.1 14.6 L 20.1 14.6 L 20.1 0.9 Z M 22.7 7.2 C 25 7.2 26.6 6.6 26.6 4.5 C 26.6 2.5 25.2 1.9 23.2 1.9 C 23.24 1.88 21.1 1.9 21.1 1.9 L 21.1 7.2 C 21.1 7.2 22.68 7.18 22.7 7.2 Z M 29.2 0.9 L 30.3 0.9 L 35.1 12.5 L 35.1 12.5 L 39.9 0.9 L 40.9 0.9 L 35.2 14.8 L 35 14.8 L 29.2 0.9 Z M 43.6 0.9 L 43.6 14.6 L 42.6 14.6 L 42.6 0.9 L 43.6 0.9 Z M 57.7 1.8 C 57.7 1.8 57.7 3 57.7 3 C 56.3 2.2 54.7 1.7 53.2 1.7 C 49.6 1.7 47.2 4.4 47.2 7.8 C 47.2 11.2 49.6 13.8 53.2 13.8 C 54.8 13.8 56.3 13.3 57.7 12.5 C 57.7 12.5 57.7 13.7 57.7 13.7 C 56.3 14.4 54.8 14.8 53.2 14.8 C 48.7 14.8 46.1 11.5 46.1 7.8 C 46.1 3.8 49.1 0.8 53.2 0.8 C 54.8 0.8 56.3 1.1 57.7 1.8 Z M 67.2 0.9 L 67.2 1.9 L 61.1 1.9 L 61.1 7.2 L 67.1 7.2 L 67.1 8.2 L 61.1 8.2 L 61.1 13.6 L 67.4 13.6 L 67.4 14.6 L 60.1 14.6 L 60.1 0.9 L 67.2 0.9 Z " stroke="none" fill="#f28620"/>  </g></svg>