<?xml version="1.0" standalone="no"?><!DOCTYPE svg PUBLIC "-//W3C//DTD SVG 1.1//EN" "http://www.w3.org/Graphics/SVG/1.1/DTD/svg11.dtd"><svg xmlns="http://www.w3.org/2000/svg" version="1.1" width="200px" height="20.5px" viewBox="0 -4 200 20.5" style="top:-4px">  <desc>Turnaround of Gateway Approval</desc>  <defs/>  <g id="Polygon49672">    <path d="M 3.1 8.7 L 3.1 1.2 L 0.3 1.2 L 0.3 0.1 L 7.1 0.1 L 7.1 1.2 L 4.2 1.2 L 4.2 8.7 L 3.1 8.7 Z M 11.8 8.7 C 11.8 8.7 11.75 7.82 11.8 7.8 C 11.3 8.5 10.6 8.9 9.8 8.9 C 9.4 8.9 9.1 8.8 8.8 8.7 C 8.4 8.5 8.2 8.3 8 8.1 C 7.9 7.9 7.8 7.7 7.7 7.4 C 7.7 7.1 7.7 6.8 7.7 6.4 C 7.65 6.37 7.7 2.5 7.7 2.5 L 8.7 2.5 C 8.7 2.5 8.71 5.96 8.7 6 C 8.7 6.5 8.7 6.9 8.8 7.1 C 8.8 7.4 9 7.6 9.2 7.7 C 9.4 7.9 9.7 8 10 8 C 10.3 8 10.6 7.9 10.9 7.7 C 11.2 7.6 11.4 7.3 11.5 7.1 C 11.6 6.8 11.6 6.4 11.6 5.8 C 11.64 5.85 11.6 2.5 11.6 2.5 L 12.7 2.5 L 12.7 8.7 L 11.8 8.7 Z M 14.3 8.7 L 14.3 2.5 L 15.3 2.5 C 15.3 2.5 15.29 3.46 15.3 3.5 C 15.5 3 15.8 2.7 16 2.6 C 16.2 2.4 16.4 2.4 16.6 2.4 C 17 2.4 17.4 2.5 17.7 2.7 C 17.7 2.7 17.4 3.7 17.4 3.7 C 17.1 3.5 16.8 3.5 16.6 3.5 C 16.4 3.5 16.1 3.5 16 3.7 C 15.8 3.8 15.6 4 15.6 4.2 C 15.5 4.6 15.4 5 15.4 5.5 C 15.39 5.48 15.4 8.7 15.4 8.7 L 14.3 8.7 Z M 18.3 8.7 L 18.3 2.5 L 19.3 2.5 C 19.3 2.5 19.29 3.4 19.3 3.4 C 19.8 2.7 20.4 2.4 21.3 2.4 C 21.7 2.4 22 2.4 22.3 2.6 C 22.6 2.7 22.9 2.9 23 3.1 C 23.2 3.3 23.3 3.6 23.3 3.9 C 23.4 4.1 23.4 4.4 23.4 4.9 C 23.4 4.91 23.4 8.7 23.4 8.7 L 22.3 8.7 C 22.3 8.7 22.35 4.95 22.3 5 C 22.3 4.5 22.3 4.2 22.2 4 C 22.1 3.8 22 3.6 21.8 3.5 C 21.6 3.4 21.3 3.3 21.1 3.3 C 20.6 3.3 20.2 3.4 19.9 3.7 C 19.6 4 19.4 4.5 19.4 5.3 C 19.4 5.34 19.4 8.7 19.4 8.7 L 18.3 8.7 Z M 29.3 8.7 C 29.2 8.5 29.1 8.3 29.1 8 C 28.7 8.3 28.3 8.5 28 8.7 C 27.6 8.8 27.2 8.9 26.8 8.9 C 26.1 8.9 25.6 8.7 25.2 8.4 C 24.8 8 24.7 7.6 24.7 7.1 C 24.7 6.8 24.7 6.5 24.9 6.3 C 25 6 25.2 5.8 25.4 5.7 C 25.6 5.5 25.9 5.4 26.2 5.3 C 26.4 5.3 26.7 5.2 27.1 5.2 C 28 5 28.6 4.9 29 4.8 C 29 4.6 29 4.6 29 4.5 C 29 4.1 28.9 3.8 28.7 3.6 C 28.4 3.4 28 3.2 27.5 3.2 C 27 3.2 26.6 3.3 26.4 3.5 C 26.2 3.7 26 4 25.9 4.4 C 25.9 4.4 24.8 4.3 24.8 4.3 C 24.9 3.8 25.1 3.5 25.3 3.2 C 25.5 2.9 25.8 2.7 26.2 2.6 C 26.6 2.4 27.1 2.4 27.7 2.4 C 28.2 2.4 28.6 2.4 28.9 2.6 C 29.3 2.7 29.5 2.8 29.7 3 C 29.8 3.2 29.9 3.5 30 3.8 C 30 3.9 30.1 4.3 30.1 4.7 C 30.1 4.7 30.1 6.1 30.1 6.1 C 30.1 7.1 30.1 7.7 30.1 8 C 30.2 8.2 30.3 8.5 30.4 8.7 C 30.39 8.74 29.3 8.7 29.3 8.7 C 29.3 8.7 29.29 8.74 29.3 8.7 Z M 29 5.6 C 28.6 5.8 28 5.9 27.3 6 C 26.8 6.1 26.5 6.1 26.3 6.2 C 26.2 6.3 26 6.4 25.9 6.6 C 25.8 6.7 25.8 6.9 25.8 7.1 C 25.8 7.3 25.9 7.6 26.1 7.8 C 26.3 8 26.6 8.1 27 8.1 C 27.4 8.1 27.8 8 28.1 7.8 C 28.4 7.6 28.7 7.4 28.8 7.1 C 28.9 6.8 29 6.5 29 6 C 29 6 29 5.6 29 5.6 Z M 31.7 8.7 L 31.7 2.5 L 32.6 2.5 C 32.6 2.5 32.63 3.46 32.6 3.5 C 32.9 3 33.1 2.7 33.3 2.6 C 33.5 2.4 33.7 2.4 34 2.4 C 34.3 2.4 34.7 2.5 35.1 2.7 C 35.1 2.7 34.7 3.7 34.7 3.7 C 34.4 3.5 34.2 3.5 33.9 3.5 C 33.7 3.5 33.5 3.5 33.3 3.7 C 33.1 3.8 33 4 32.9 4.2 C 32.8 4.6 32.7 5 32.7 5.5 C 32.74 5.48 32.7 8.7 32.7 8.7 L 31.7 8.7 Z M 35.3 5.6 C 35.3 4.5 35.6 3.6 36.3 3.1 C 36.8 2.6 37.4 2.4 38.2 2.4 C 39.1 2.4 39.8 2.7 40.3 3.2 C 40.9 3.8 41.1 4.5 41.1 5.5 C 41.1 6.3 41 7 40.8 7.4 C 40.5 7.9 40.2 8.2 39.7 8.5 C 39.3 8.7 38.8 8.9 38.2 8.9 C 37.3 8.9 36.6 8.6 36.1 8 C 35.6 7.5 35.3 6.7 35.3 5.6 Z M 36.4 5.6 C 36.4 6.4 36.6 7 36.9 7.4 C 37.2 7.8 37.7 8 38.2 8 C 38.7 8 39.2 7.8 39.5 7.4 C 39.9 7 40 6.4 40 5.6 C 40 4.8 39.9 4.2 39.5 3.8 C 39.2 3.4 38.7 3.2 38.2 3.2 C 37.7 3.2 37.2 3.4 36.9 3.8 C 36.6 4.2 36.4 4.8 36.4 5.6 Z M 46.4 8.7 C 46.4 8.7 46.44 7.82 46.4 7.8 C 46 8.5 45.3 8.9 44.5 8.9 C 44.1 8.9 43.8 8.8 43.4 8.7 C 43.1 8.5 42.9 8.3 42.7 8.1 C 42.6 7.9 42.5 7.7 42.4 7.4 C 42.4 7.1 42.3 6.8 42.3 6.4 C 42.34 6.37 42.3 2.5 42.3 2.5 L 43.4 2.5 C 43.4 2.5 43.39 5.96 43.4 6 C 43.4 6.5 43.4 6.9 43.5 7.1 C 43.5 7.4 43.7 7.6 43.9 7.7 C 44.1 7.9 44.4 8 44.7 8 C 45 8 45.3 7.9 45.6 7.7 C 45.8 7.6 46 7.3 46.2 7.1 C 46.3 6.8 46.3 6.4 46.3 5.8 C 46.33 5.85 46.3 2.5 46.3 2.5 L 47.4 2.5 L 47.4 8.7 L 46.4 8.7 Z M 49 8.7 L 49 2.5 L 50 2.5 C 50 2.5 49.99 3.4 50 3.4 C 50.4 2.7 51.1 2.4 52 2.4 C 52.3 2.4 52.7 2.4 53 2.6 C 53.3 2.7 53.6 2.9 53.7 3.1 C 53.9 3.3 54 3.6 54 3.9 C 54.1 4.1 54.1 4.4 54.1 4.9 C 54.09 4.91 54.1 8.7 54.1 8.7 L 53 8.7 C 53 8.7 53.04 4.95 53 5 C 53 4.5 53 4.2 52.9 4 C 52.8 3.8 52.7 3.6 52.5 3.5 C 52.3 3.4 52 3.3 51.7 3.3 C 51.3 3.3 50.9 3.4 50.6 3.7 C 50.3 4 50.1 4.5 50.1 5.3 C 50.09 5.34 50.1 8.7 50.1 8.7 L 49 8.7 Z M 59.7 8.7 C 59.7 8.7 59.75 7.95 59.7 8 C 59.4 8.6 58.8 8.9 58 8.9 C 57.5 8.9 57.1 8.7 56.6 8.5 C 56.2 8.2 55.9 7.8 55.7 7.3 C 55.4 6.8 55.3 6.3 55.3 5.6 C 55.3 5 55.4 4.4 55.6 3.9 C 55.8 3.4 56.2 3 56.6 2.8 C 57 2.5 57.4 2.4 58 2.4 C 58.3 2.4 58.7 2.5 59 2.6 C 59.3 2.8 59.5 3 59.7 3.2 C 59.68 3.23 59.7 0.1 59.7 0.1 L 60.7 0.1 L 60.7 8.7 L 59.7 8.7 Z M 56.4 5.6 C 56.4 6.4 56.6 7 56.9 7.4 C 57.3 7.8 57.7 8 58.1 8 C 58.6 8 59 7.8 59.3 7.4 C 59.6 7.1 59.8 6.5 59.8 5.7 C 59.8 4.9 59.6 4.2 59.3 3.8 C 58.9 3.4 58.5 3.2 58.1 3.2 C 57.6 3.2 57.2 3.4 56.9 3.8 C 56.6 4.2 56.4 4.8 56.4 5.6 Z M 65.3 5.6 C 65.3 4.5 65.6 3.6 66.3 3.1 C 66.8 2.6 67.5 2.4 68.2 2.4 C 69.1 2.4 69.8 2.7 70.3 3.2 C 70.9 3.8 71.2 4.5 71.2 5.5 C 71.2 6.3 71 7 70.8 7.4 C 70.6 7.9 70.2 8.2 69.7 8.5 C 69.3 8.7 68.8 8.9 68.2 8.9 C 67.4 8.9 66.7 8.6 66.1 8 C 65.6 7.5 65.3 6.7 65.3 5.6 Z M 66.4 5.6 C 66.4 6.4 66.6 7 66.9 7.4 C 67.3 7.8 67.7 8 68.2 8 C 68.8 8 69.2 7.8 69.6 7.4 C 69.9 7 70.1 6.4 70.1 5.6 C 70.1 4.8 69.9 4.2 69.5 3.8 C 69.2 3.4 68.8 3.2 68.2 3.2 C 67.7 3.2 67.3 3.4 66.9 3.8 C 66.6 4.2 66.4 4.8 66.4 5.6 Z M 72.6 8.7 L 72.6 3.3 L 71.7 3.3 L 71.7 2.5 L 72.6 2.5 C 72.6 2.5 72.64 1.85 72.6 1.9 C 72.6 1.4 72.7 1.1 72.8 0.9 C 72.9 0.6 73 0.4 73.3 0.3 C 73.5 0.1 73.9 0 74.4 0 C 74.7 0 75 0 75.4 0.1 C 75.4 0.1 75.2 1 75.2 1 C 75 1 74.8 1 74.6 1 C 74.3 1 74 1 73.9 1.2 C 73.8 1.3 73.7 1.6 73.7 1.9 C 73.69 1.94 73.7 2.5 73.7 2.5 L 74.9 2.5 L 74.9 3.3 L 73.7 3.3 L 73.7 8.7 L 72.6 8.7 Z M 83.2 5.4 L 83.2 4.4 L 86.9 4.4 C 86.9 4.4 86.85 7.54 86.9 7.5 C 86.3 8 85.7 8.3 85.1 8.5 C 84.5 8.8 83.9 8.9 83.3 8.9 C 82.5 8.9 81.7 8.7 81 8.3 C 80.3 8 79.8 7.5 79.4 6.8 C 79.1 6.1 78.9 5.3 78.9 4.5 C 78.9 3.6 79.1 2.9 79.4 2.1 C 79.8 1.4 80.3 0.9 80.9 0.5 C 81.6 0.2 82.4 0 83.2 0 C 83.8 0 84.4 0.1 84.9 0.3 C 85.4 0.5 85.8 0.8 86.1 1.1 C 86.4 1.5 86.6 2 86.7 2.5 C 86.7 2.5 85.7 2.8 85.7 2.8 C 85.6 2.4 85.4 2 85.2 1.8 C 85 1.5 84.8 1.3 84.4 1.2 C 84 1 83.6 1 83.2 1 C 82.7 1 82.2 1.1 81.9 1.2 C 81.5 1.4 81.2 1.6 81 1.8 C 80.7 2.1 80.5 2.4 80.4 2.7 C 80.2 3.2 80.1 3.8 80.1 4.4 C 80.1 5.2 80.2 5.8 80.5 6.3 C 80.7 6.8 81.1 7.2 81.6 7.5 C 82.1 7.7 82.7 7.9 83.2 7.9 C 83.7 7.9 84.2 7.8 84.7 7.6 C 85.1 7.4 85.5 7.2 85.7 7 C 85.74 6.97 85.7 5.4 85.7 5.4 L 83.2 5.4 Z M 92.7 8.7 C 92.6 8.5 92.5 8.3 92.5 8 C 92.1 8.3 91.7 8.5 91.3 8.7 C 91 8.8 90.6 8.9 90.2 8.9 C 89.5 8.9 89 8.7 88.6 8.4 C 88.2 8 88 7.6 88 7.1 C 88 6.8 88.1 6.5 88.2 6.3 C 88.4 6 88.6 5.8 88.8 5.7 C 89 5.5 89.3 5.4 89.5 5.3 C 89.8 5.3 90.1 5.2 90.5 5.2 C 91.3 5 92 4.9 92.4 4.8 C 92.4 4.6 92.4 4.6 92.4 4.5 C 92.4 4.1 92.3 3.8 92.1 3.6 C 91.8 3.4 91.4 3.2 90.9 3.2 C 90.4 3.2 90 3.3 89.8 3.5 C 89.5 3.7 89.4 4 89.3 4.4 C 89.3 4.4 88.2 4.3 88.2 4.3 C 88.3 3.8 88.5 3.5 88.7 3.2 C 88.9 2.9 89.2 2.7 89.6 2.6 C 90 2.4 90.5 2.4 91 2.4 C 91.6 2.4 92 2.4 92.3 2.6 C 92.7 2.7 92.9 2.8 93.1 3 C 93.2 3.2 93.3 3.5 93.4 3.8 C 93.4 3.9 93.4 4.3 93.4 4.7 C 93.4 4.7 93.4 6.1 93.4 6.1 C 93.4 7.1 93.5 7.7 93.5 8 C 93.5 8.2 93.6 8.5 93.8 8.7 C 93.77 8.74 92.7 8.7 92.7 8.7 C 92.7 8.7 92.67 8.74 92.7 8.7 Z M 92.4 5.6 C 92 5.8 91.4 5.9 90.6 6 C 90.2 6.1 89.9 6.1 89.7 6.2 C 89.5 6.3 89.4 6.4 89.3 6.6 C 89.2 6.7 89.2 6.9 89.2 7.1 C 89.2 7.3 89.3 7.6 89.5 7.8 C 89.7 8 90 8.1 90.4 8.1 C 90.8 8.1 91.2 8 91.5 7.8 C 91.8 7.6 92 7.4 92.2 7.1 C 92.3 6.8 92.4 6.5 92.4 6 C 92.4 6 92.4 5.6 92.4 5.6 Z M 96.9 7.8 C 97 7.8 97.2 7.8 97.4 7.8 C 97.4 7.8 97.5 8.7 97.5 8.7 C 97.2 8.8 97 8.8 96.7 8.8 C 96.3 8.8 96 8.8 95.8 8.6 C 95.6 8.5 95.5 8.4 95.4 8.2 C 95.3 8 95.3 7.5 95.3 6.9 C 95.26 6.91 95.3 3.3 95.3 3.3 L 94.5 3.3 L 94.5 2.5 L 95.3 2.5 L 95.3 1 L 96.3 0.3 L 96.3 2.5 L 97.4 2.5 L 97.4 3.3 L 96.3 3.3 C 96.3 3.3 96.31 6.97 96.3 7 C 96.3 7.3 96.3 7.5 96.4 7.6 C 96.4 7.6 96.5 7.7 96.5 7.8 C 96.6 7.8 96.8 7.8 96.9 7.8 C 96.9 7.8 96.9 7.8 96.9 7.8 Z M 102.7 6.7 C 102.7 6.7 103.8 6.9 103.8 6.9 C 103.6 7.5 103.3 8 102.8 8.3 C 102.3 8.7 101.7 8.9 101 8.9 C 100.1 8.9 99.4 8.6 98.9 8 C 98.3 7.5 98.1 6.7 98.1 5.7 C 98.1 4.6 98.3 3.8 98.9 3.2 C 99.4 2.7 100.1 2.4 101 2.4 C 101.8 2.4 102.5 2.7 103 3.2 C 103.5 3.8 103.8 4.6 103.8 5.6 C 103.8 5.7 103.8 5.8 103.8 5.9 C 103.8 5.9 99.1 5.9 99.1 5.9 C 99.2 6.6 99.4 7.1 99.7 7.5 C 100.1 7.8 100.5 8 101 8 C 101.4 8 101.7 7.9 102 7.7 C 102.3 7.5 102.5 7.2 102.7 6.7 Z M 99.2 5 C 99.2 5 102.7 5 102.7 5 C 102.6 4.5 102.5 4.1 102.3 3.8 C 101.9 3.4 101.5 3.2 101 3.2 C 100.5 3.2 100.1 3.4 99.7 3.7 C 99.4 4.1 99.2 4.5 99.2 5 Z M 106.2 8.7 L 104.3 2.5 L 105.4 2.5 L 106.4 6.1 C 106.4 6.1 106.77 7.44 106.8 7.4 C 106.8 7.4 106.9 6.9 107.1 6.2 C 107.09 6.16 108.1 2.5 108.1 2.5 L 109.2 2.5 L 110.1 6.1 L 110.4 7.3 L 110.8 6.1 L 111.8 2.5 L 112.9 2.5 L 110.9 8.7 L 109.8 8.7 L 108.8 5 L 108.6 3.9 L 107.3 8.7 L 106.2 8.7 Z M 118 8.7 C 117.9 8.5 117.8 8.3 117.8 8 C 117.4 8.3 117 8.5 116.7 8.7 C 116.3 8.8 115.9 8.9 115.5 8.9 C 114.8 8.9 114.3 8.7 113.9 8.4 C 113.6 8 113.4 7.6 113.4 7.1 C 113.4 6.8 113.5 6.5 113.6 6.3 C 113.7 6 113.9 5.8 114.1 5.7 C 114.4 5.5 114.6 5.4 114.9 5.3 C 115.1 5.3 115.4 5.2 115.8 5.2 C 116.7 5 117.3 4.9 117.7 4.8 C 117.7 4.6 117.7 4.6 117.7 4.5 C 117.7 4.1 117.6 3.8 117.4 3.6 C 117.2 3.4 116.8 3.2 116.2 3.2 C 115.7 3.2 115.4 3.3 115.1 3.5 C 114.9 3.7 114.7 4 114.6 4.4 C 114.6 4.4 113.6 4.3 113.6 4.3 C 113.7 3.8 113.8 3.5 114 3.2 C 114.2 2.9 114.6 2.7 115 2.6 C 115.4 2.4 115.8 2.4 116.4 2.4 C 116.9 2.4 117.3 2.4 117.7 2.6 C 118 2.7 118.2 2.8 118.4 3 C 118.6 3.2 118.7 3.5 118.7 3.8 C 118.8 3.9 118.8 4.3 118.8 4.7 C 118.8 4.7 118.8 6.1 118.8 6.1 C 118.8 7.1 118.8 7.7 118.8 8 C 118.9 8.2 119 8.5 119.1 8.7 C 119.12 8.74 118 8.7 118 8.7 C 118 8.7 118.01 8.74 118 8.7 Z M 117.7 5.6 C 117.3 5.8 116.8 5.9 116 6 C 115.6 6.1 115.3 6.1 115.1 6.2 C 114.9 6.3 114.8 6.4 114.7 6.6 C 114.6 6.7 114.5 6.9 114.5 7.1 C 114.5 7.3 114.6 7.6 114.8 7.8 C 115 8 115.4 8.1 115.8 8.1 C 116.2 8.1 116.5 8 116.8 7.8 C 117.2 7.6 117.4 7.4 117.5 7.1 C 117.7 6.8 117.7 6.5 117.7 6 C 117.7 6 117.7 5.6 117.7 5.6 Z M 121 11.3 C 120.8 11.3 120.6 11.2 120.4 11.1 C 120.4 11.1 120.3 10.1 120.3 10.1 C 120.5 10.2 120.7 10.2 120.9 10.2 C 121.1 10.2 121.3 10.2 121.4 10.1 C 121.6 10 121.7 9.9 121.8 9.8 C 121.8 9.7 121.9 9.4 122.1 9 C 122.1 8.9 122.1 8.9 122.2 8.7 C 122.18 8.75 119.8 2.5 119.8 2.5 L 121 2.5 C 121 2.5 122.25 6.12 122.3 6.1 C 122.4 6.6 122.6 7.1 122.7 7.6 C 122.8 7.1 123 6.6 123.1 6.1 C 123.13 6.14 124.5 2.5 124.5 2.5 L 125.5 2.5 C 125.5 2.5 123.15 8.84 123.2 8.8 C 122.9 9.5 122.7 10 122.6 10.3 C 122.4 10.6 122.2 10.9 121.9 11 C 121.7 11.2 121.4 11.3 121 11.3 C 121 11.3 121 11.3 121 11.3 Z M 128.3 8.7 L 131.6 0.1 L 132.8 0.1 L 136.3 8.7 L 135 8.7 L 134 6.1 L 130.4 6.1 L 129.5 8.7 L 128.3 8.7 Z M 130.8 5.2 L 133.7 5.2 C 133.7 5.2 132.77 2.83 132.8 2.8 C 132.5 2.1 132.3 1.5 132.2 1 C 132.1 1.6 131.9 2.1 131.7 2.7 C 131.7 2.69 130.8 5.2 130.8 5.2 Z M 137.1 11.1 L 137.1 2.5 L 138.1 2.5 C 138.1 2.5 138.05 3.32 138.1 3.3 C 138.3 3 138.5 2.8 138.8 2.6 C 139.1 2.5 139.5 2.4 139.9 2.4 C 140.4 2.4 140.9 2.5 141.3 2.8 C 141.7 3.1 142 3.4 142.2 3.9 C 142.4 4.4 142.5 5 142.5 5.6 C 142.5 6.2 142.4 6.8 142.2 7.3 C 141.9 7.8 141.6 8.2 141.2 8.5 C 140.7 8.7 140.3 8.9 139.8 8.9 C 139.4 8.9 139.1 8.8 138.8 8.7 C 138.6 8.5 138.3 8.3 138.1 8.1 C 138.15 8.09 138.1 11.1 138.1 11.1 L 137.1 11.1 Z M 138 5.7 C 138 6.5 138.2 7.1 138.5 7.4 C 138.9 7.8 139.2 8 139.7 8 C 140.2 8 140.6 7.8 140.9 7.4 C 141.2 7 141.4 6.4 141.4 5.6 C 141.4 4.8 141.3 4.2 140.9 3.8 C 140.6 3.4 140.2 3.2 139.8 3.2 C 139.3 3.2 138.9 3.4 138.6 3.8 C 138.2 4.2 138 4.9 138 5.7 Z M 143.8 11.1 L 143.8 2.5 L 144.7 2.5 C 144.7 2.5 144.73 3.32 144.7 3.3 C 145 3 145.2 2.8 145.5 2.6 C 145.8 2.5 146.1 2.4 146.5 2.4 C 147.1 2.4 147.5 2.5 147.9 2.8 C 148.3 3.1 148.7 3.4 148.9 3.9 C 149.1 4.4 149.2 5 149.2 5.6 C 149.2 6.2 149.1 6.8 148.8 7.3 C 148.6 7.8 148.3 8.2 147.8 8.5 C 147.4 8.7 146.9 8.9 146.5 8.9 C 146.1 8.9 145.8 8.8 145.5 8.7 C 145.2 8.5 145 8.3 144.8 8.1 C 144.82 8.09 144.8 11.1 144.8 11.1 L 143.8 11.1 Z M 144.7 5.7 C 144.7 6.5 144.9 7.1 145.2 7.4 C 145.5 7.8 145.9 8 146.4 8 C 146.9 8 147.3 7.8 147.6 7.4 C 147.9 7 148.1 6.4 148.1 5.6 C 148.1 4.8 147.9 4.2 147.6 3.8 C 147.3 3.4 146.9 3.2 146.4 3.2 C 146 3.2 145.6 3.4 145.2 3.8 C 144.9 4.2 144.7 4.9 144.7 5.7 Z M 150.4 8.7 L 150.4 2.5 L 151.4 2.5 C 151.4 2.5 151.38 3.46 151.4 3.5 C 151.6 3 151.8 2.7 152 2.6 C 152.3 2.4 152.5 2.4 152.7 2.4 C 153.1 2.4 153.4 2.5 153.8 2.7 C 153.8 2.7 153.4 3.7 153.4 3.7 C 153.2 3.5 152.9 3.5 152.7 3.5 C 152.4 3.5 152.2 3.5 152.1 3.7 C 151.9 3.8 151.7 4 151.7 4.2 C 151.5 4.6 151.5 5 151.5 5.5 C 151.48 5.48 151.5 8.7 151.5 8.7 L 150.4 8.7 Z M 154 5.6 C 154 4.5 154.4 3.6 155 3.1 C 155.5 2.6 156.2 2.4 157 2.4 C 157.8 2.4 158.5 2.7 159.1 3.2 C 159.6 3.8 159.9 4.5 159.9 5.5 C 159.9 6.3 159.8 7 159.5 7.4 C 159.3 7.9 158.9 8.2 158.5 8.5 C 158 8.7 157.5 8.9 157 8.9 C 156.1 8.9 155.4 8.6 154.8 8 C 154.3 7.5 154 6.7 154 5.6 Z M 155.1 5.6 C 155.1 6.4 155.3 7 155.6 7.4 C 156 7.8 156.4 8 157 8 C 157.5 8 157.9 7.8 158.3 7.4 C 158.6 7 158.8 6.4 158.8 5.6 C 158.8 4.8 158.6 4.2 158.3 3.8 C 157.9 3.4 157.5 3.2 157 3.2 C 156.4 3.2 156 3.4 155.6 3.8 C 155.3 4.2 155.1 4.8 155.1 5.6 Z M 162.8 8.7 L 160.5 2.5 L 161.6 2.5 C 161.6 2.5 162.92 6.24 162.9 6.2 C 163.1 6.6 163.2 7.1 163.3 7.5 C 163.4 7.2 163.5 6.8 163.7 6.3 C 163.71 6.31 165.1 2.5 165.1 2.5 L 166.2 2.5 L 163.8 8.7 L 162.8 8.7 Z M 171.4 8.7 C 171.3 8.5 171.2 8.3 171.2 8 C 170.8 8.3 170.4 8.5 170 8.7 C 169.7 8.8 169.3 8.9 168.9 8.9 C 168.2 8.9 167.7 8.7 167.3 8.4 C 166.9 8 166.8 7.6 166.8 7.1 C 166.8 6.8 166.8 6.5 167 6.3 C 167.1 6 167.3 5.8 167.5 5.7 C 167.7 5.5 168 5.4 168.3 5.3 C 168.5 5.3 168.8 5.2 169.2 5.2 C 170.1 5 170.7 4.9 171.1 4.8 C 171.1 4.6 171.1 4.6 171.1 4.5 C 171.1 4.1 171 3.8 170.8 3.6 C 170.5 3.4 170.1 3.2 169.6 3.2 C 169.1 3.2 168.7 3.3 168.5 3.5 C 168.3 3.7 168.1 4 168 4.4 C 168 4.4 166.9 4.3 166.9 4.3 C 167 3.8 167.2 3.5 167.4 3.2 C 167.6 2.9 167.9 2.7 168.3 2.6 C 168.7 2.4 169.2 2.4 169.7 2.4 C 170.3 2.4 170.7 2.4 171 2.6 C 171.4 2.7 171.6 2.8 171.8 3 C 171.9 3.2 172 3.5 172.1 3.8 C 172.1 3.9 172.1 4.3 172.1 4.7 C 172.1 4.7 172.1 6.1 172.1 6.1 C 172.1 7.1 172.2 7.7 172.2 8 C 172.3 8.2 172.3 8.5 172.5 8.7 C 172.48 8.74 171.4 8.7 171.4 8.7 C 171.4 8.7 171.38 8.74 171.4 8.7 Z M 171.1 5.6 C 170.7 5.8 170.1 5.9 169.4 6 C 168.9 6.1 168.6 6.1 168.4 6.2 C 168.3 6.3 168.1 6.4 168 6.6 C 167.9 6.7 167.9 6.9 167.9 7.1 C 167.9 7.3 168 7.6 168.2 7.8 C 168.4 8 168.7 8.1 169.1 8.1 C 169.5 8.1 169.9 8 170.2 7.8 C 170.5 7.6 170.8 7.4 170.9 7.1 C 171 6.8 171.1 6.5 171.1 6 C 171.1 6 171.1 5.6 171.1 5.6 Z M 173.8 8.7 L 173.8 0.1 L 174.8 0.1 L 174.8 8.7 L 173.8 8.7 Z " stroke="none" fill="#000"/>  </g></svg>