<?xml version="1.0" standalone="no"?><!DOCTYPE svg PUBLIC "-//W3C//DTD SVG 1.1//EN" "http://www.w3.org/Graphics/SVG/1.1/DTD/svg11.dtd"><svg xmlns="http://www.w3.org/2000/svg" version="1.1" width="457px" height="32.7px" viewBox="0 -6 457 32.7" style="top:-6px">  <desc>AWARDING I LEARNING I MANAGED SERVICES</desc>  <defs/>  <g id="Polygon30945">    <path d="M 7.3 0.9 L 13.7 15.3 L 12.1 15.3 L 10.1 10.8 L 3.6 10.8 L 1.7 15.3 L 0 15.3 L 6.2 0.9 L 7.3 0.9 Z M 4.2 9.4 L 9.5 9.4 L 6.8 3.3 L 4.2 9.4 Z M 12.6 1 L 14.2 1 L 18.5 11.9 L 18.5 11.9 L 22.8 1 L 24.2 1 L 28.5 11.8 L 28.5 11.8 L 32.7 1 L 34.3 1 L 28.6 15.4 L 28.3 15.4 L 23.5 3.2 L 18.7 15.4 L 18.3 15.4 L 12.6 1 Z M 40.6 0.9 L 46.9 15.3 L 45.3 15.3 L 43.3 10.8 L 36.8 10.8 L 34.9 15.3 L 33.2 15.3 L 39.4 0.9 L 40.6 0.9 Z M 37.4 9.4 L 42.7 9.4 L 40 3.3 L 37.4 9.4 Z M 48.6 1 C 48.6 1 52.33 0.99 52.3 1 C 55.2 1 56.7 2.6 56.7 4.8 C 56.7 6.6 55.7 7.8 54 8.4 C 54.9 8.8 55.3 9.2 56.5 11 C 56.51 11.02 59.3 15.3 59.3 15.3 L 57.4 15.3 C 57.4 15.3 54.89 11.36 54.9 11.4 C 53.6 9.3 52.7 8.8 51.5 8.8 C 51.47 8.8 50.1 8.8 50.1 8.8 L 50.1 15.3 L 48.6 15.3 L 48.6 1 Z M 51.6 7.4 C 53.6 7.4 55.1 6.9 55.1 4.9 C 55.1 3.1 53.9 2.4 52.1 2.4 C 52.12 2.37 50.1 2.4 50.1 2.4 L 50.1 7.4 C 50.1 7.4 51.62 7.41 51.6 7.4 Z M 60.9 1 C 60.9 1 66.13 0.99 66.1 1 C 70.8 1 73.8 3.9 73.8 8 C 73.8 12.5 70.7 15.3 66.1 15.3 C 66.13 15.31 60.9 15.3 60.9 15.3 L 60.9 1 Z M 66.1 13.9 C 69.9 13.9 72.2 11.7 72.2 8.1 C 72.2 4.7 69.9 2.4 65.9 2.4 C 65.88 2.39 62.4 2.4 62.4 2.4 L 62.4 13.9 C 62.4 13.9 66.11 13.88 66.1 13.9 Z M 78 1 L 78 15.3 L 76.5 15.3 L 76.5 1 L 78 1 Z M 82.6 1 L 92.7 12.8 L 92.7 1 L 94.2 1 L 94.2 15.3 L 92.8 15.3 L 82.8 3.5 L 82.8 15.3 L 81.2 15.3 L 81.2 1 L 82.6 1 Z M 109.2 3.6 C 107.7 2.7 105.9 2.2 104.3 2.2 C 101 2.2 98.4 4.7 98.4 8.1 C 98.4 11.6 100.9 14.1 104.4 14.1 C 105.6 14.1 106.5 13.9 108 13.4 C 107.96 13.36 108 9.9 108 9.9 L 105 9.9 L 105 8.5 L 109.5 8.5 C 109.5 8.5 109.54 14.32 109.5 14.3 C 107.9 15.1 106.3 15.5 104.4 15.5 C 99.3 15.5 96.8 11.9 96.8 8.2 C 96.8 4.2 99.8 0.8 104.4 0.8 C 106 0.8 107.4 1.1 109.2 2 C 109.2 2 109.2 3.6 109.2 3.6 Z M 125.8 1 L 125.8 15.3 L 124.2 15.3 L 124.2 1 L 125.8 1 Z M 142.3 1 L 142.3 13.9 L 149 13.9 L 149 15.3 L 140.7 15.3 L 140.7 1 L 142.3 1 Z M 158.7 1 L 158.7 2.4 L 152.4 2.4 L 152.4 7.4 L 158.4 7.4 L 158.4 8.8 L 152.4 8.8 L 152.4 13.9 L 158.8 13.9 L 158.8 15.3 L 150.8 15.3 L 150.8 1 L 158.7 1 Z M 167.6 0.9 L 174 15.3 L 172.3 15.3 L 170.3 10.8 L 163.8 10.8 L 161.9 15.3 L 160.3 15.3 L 166.5 0.9 L 167.6 0.9 Z M 164.4 9.4 L 169.7 9.4 L 167 3.3 L 164.4 9.4 Z M 175.6 1 C 175.6 1 179.36 0.99 179.4 1 C 182.2 1 183.7 2.6 183.7 4.8 C 183.7 6.6 182.8 7.8 181 8.4 C 181.9 8.8 182.4 9.2 183.5 11 C 183.54 11.02 186.3 15.3 186.3 15.3 L 184.4 15.3 C 184.4 15.3 181.92 11.36 181.9 11.4 C 180.6 9.3 179.7 8.8 178.5 8.8 C 178.5 8.8 177.2 8.8 177.2 8.8 L 177.2 15.3 L 175.6 15.3 L 175.6 1 Z M 178.6 7.4 C 180.6 7.4 182.1 6.9 182.1 4.9 C 182.1 3.1 181 2.4 179.1 2.4 C 179.15 2.37 177.2 2.4 177.2 2.4 L 177.2 7.4 C 177.2 7.4 178.65 7.41 178.6 7.4 Z M 189.2 1 L 199.3 12.8 L 199.3 1 L 200.8 1 L 200.8 15.3 L 199.5 15.3 L 189.4 3.5 L 189.4 15.3 L 187.9 15.3 L 187.9 1 L 189.2 1 Z M 205.6 1 L 205.6 15.3 L 204.1 15.3 L 204.1 1 L 205.6 1 Z M 210.1 1 L 220.3 12.8 L 220.3 1 L 221.8 1 L 221.8 15.3 L 220.4 15.3 L 210.4 3.5 L 210.4 15.3 L 208.8 15.3 L 208.8 1 L 210.1 1 Z M 236.8 3.6 C 235.3 2.7 233.5 2.2 231.9 2.2 C 228.6 2.2 226 4.7 226 8.1 C 226 11.6 228.5 14.1 232 14.1 C 233.2 14.1 234.1 13.9 235.6 13.4 C 235.55 13.36 235.6 9.9 235.6 9.9 L 232.6 9.9 L 232.6 8.5 L 237.1 8.5 C 237.1 8.5 237.13 14.32 237.1 14.3 C 235.5 15.1 233.9 15.5 232 15.5 C 226.9 15.5 224.4 11.9 224.4 8.2 C 224.4 4.2 227.4 0.8 232 0.8 C 233.6 0.8 234.9 1.1 236.8 2 C 236.8 2 236.8 3.6 236.8 3.6 Z M 253.4 1 L 253.4 15.3 L 251.8 15.3 L 251.8 1 L 253.4 1 Z M 268.3 1 L 269.8 1 L 274.8 7.3 L 279.9 1 L 281.4 1 L 281.4 15.3 L 279.8 15.3 L 279.8 3.5 L 279.7 3.5 L 275 9.5 L 274.7 9.5 L 269.9 3.5 L 269.8 3.5 L 269.8 15.3 L 268.3 15.3 L 268.3 1 Z M 290.3 0.9 L 296.7 15.3 L 295.1 15.3 L 293.1 10.8 L 286.6 10.8 L 284.6 15.3 L 283 15.3 L 289.2 0.9 L 290.3 0.9 Z M 287.2 9.4 L 292.4 9.4 L 289.7 3.3 L 287.2 9.4 Z M 299.6 1 L 309.8 12.8 L 309.8 1 L 311.3 1 L 311.3 15.3 L 309.9 15.3 L 299.9 3.5 L 299.9 15.3 L 298.3 15.3 L 298.3 1 L 299.6 1 Z M 320.2 0.9 L 326.6 15.3 L 325 15.3 L 323 10.8 L 316.5 10.8 L 314.6 15.3 L 312.9 15.3 L 319.1 0.9 L 320.2 0.9 Z M 317.1 9.4 L 322.4 9.4 L 319.7 3.3 L 317.1 9.4 Z M 339.5 3.6 C 337.9 2.7 336.1 2.2 334.5 2.2 C 331.2 2.2 328.6 4.7 328.6 8.1 C 328.6 11.6 331.1 14.1 334.7 14.1 C 335.8 14.1 336.7 13.9 338.2 13.4 C 338.18 13.36 338.2 9.9 338.2 9.9 L 335.3 9.9 L 335.3 8.5 L 339.8 8.5 C 339.8 8.5 339.76 14.32 339.8 14.3 C 338.1 15.1 336.5 15.5 334.7 15.5 C 329.5 15.5 327 11.9 327 8.2 C 327 4.2 330 0.8 334.6 0.8 C 336.2 0.8 337.6 1.1 339.5 2 C 339.5 2 339.5 3.6 339.5 3.6 Z M 350.6 1 L 350.6 2.4 L 344.3 2.4 L 344.3 7.4 L 350.4 7.4 L 350.4 8.8 L 344.3 8.8 L 344.3 13.9 L 350.8 13.9 L 350.8 15.3 L 342.8 15.3 L 342.8 1 L 350.6 1 Z M 353.3 1 C 353.3 1 358.57 0.99 358.6 1 C 363.3 1 366.3 3.9 366.3 8 C 366.3 12.5 363.1 15.3 358.6 15.3 C 358.57 15.31 353.3 15.3 353.3 15.3 L 353.3 1 Z M 358.6 13.9 C 362.3 13.9 364.6 11.7 364.6 8.1 C 364.6 4.7 362.4 2.4 358.3 2.4 C 358.32 2.39 354.9 2.4 354.9 2.4 L 354.9 13.9 C 354.9 13.9 358.55 13.88 358.6 13.9 Z M 381.4 1.7 C 381.4 1.7 381.4 3.5 381.4 3.5 C 380.4 2.7 379.3 2.2 378.1 2.2 C 376.6 2.2 375.6 3.1 375.6 4.3 C 375.6 5.2 375.9 6.1 378.2 7.3 C 381.2 8.8 381.9 9.8 381.9 11.8 C 381.9 13.9 380.3 15.5 377.8 15.5 C 376.5 15.5 375.2 15.1 374.1 14.2 C 374.1 14.2 374.1 12.3 374.1 12.3 C 375.2 13.4 376.4 14.1 377.8 14.1 C 379.3 14.1 380.3 13.2 380.3 11.8 C 380.3 10.6 379.9 9.9 377.2 8.4 C 374.9 7.3 374 6.2 374 4.3 C 374 2.3 375.8 0.8 378.2 0.8 C 379.3 0.8 380.4 1.1 381.4 1.7 Z M 392.2 1 L 392.2 2.4 L 386 2.4 L 386 7.4 L 392 7.4 L 392 8.8 L 386 8.8 L 386 13.9 L 392.4 13.9 L 392.4 15.3 L 384.4 15.3 L 384.4 1 L 392.2 1 Z M 394.9 1 C 394.9 1 398.68 0.99 398.7 1 C 401.6 1 403 2.6 403 4.8 C 403 6.6 402.1 7.8 400.3 8.4 C 401.3 8.8 401.7 9.2 402.9 11 C 402.86 11.02 405.6 15.3 405.6 15.3 L 403.8 15.3 C 403.8 15.3 401.24 11.36 401.2 11.4 C 399.9 9.3 399 8.8 397.8 8.8 C 397.82 8.8 396.5 8.8 396.5 8.8 L 396.5 15.3 L 394.9 15.3 L 394.9 1 Z M 398 7.4 C 399.9 7.4 401.4 6.9 401.4 4.9 C 401.4 3.1 400.3 2.4 398.5 2.4 C 398.47 2.37 396.5 2.4 396.5 2.4 L 396.5 7.4 C 396.5 7.4 397.97 7.41 398 7.4 Z M 404.9 1 L 406.5 1 L 411.1 12.1 L 411.2 12.1 L 415.8 1 L 417.4 1 L 411.3 15.5 L 411 15.5 L 404.9 1 Z M 420.6 1 L 420.6 15.3 L 419 15.3 L 419 1 L 420.6 1 Z M 435.6 1.9 C 435.6 1.9 435.6 3.6 435.6 3.6 C 434.1 2.8 432.4 2.3 430.8 2.3 C 427.1 2.3 424.8 5 424.8 8.2 C 424.8 11.4 427.1 14 430.7 14 C 432.5 14 434.2 13.5 435.7 12.6 C 435.7 12.6 435.7 14.3 435.7 14.3 C 434.1 15.1 432.5 15.5 430.7 15.5 C 425.8 15.5 423.2 11.8 423.2 8.2 C 423.2 3.9 426.4 0.8 430.7 0.8 C 432.4 0.8 434 1.2 435.6 1.9 Z M 446 1 L 446 2.4 L 439.8 2.4 L 439.8 7.4 L 445.8 7.4 L 445.8 8.8 L 439.8 8.8 L 439.8 13.9 L 446.2 13.9 L 446.2 15.3 L 438.2 15.3 L 438.2 1 L 446 1 Z M 455.4 1.7 C 455.4 1.7 455.4 3.5 455.4 3.5 C 454.4 2.7 453.3 2.2 452.1 2.2 C 450.6 2.2 449.6 3.1 449.6 4.3 C 449.6 5.2 449.9 6.1 452.3 7.3 C 455.2 8.8 455.9 9.8 455.9 11.8 C 455.9 13.9 454.3 15.5 451.8 15.5 C 450.5 15.5 449.2 15.1 448.1 14.2 C 448.1 14.2 448.1 12.3 448.1 12.3 C 449.2 13.4 450.4 14.1 451.8 14.1 C 453.3 14.1 454.3 13.2 454.3 11.8 C 454.3 10.6 453.9 9.9 451.2 8.4 C 448.9 7.3 448.1 6.2 448.1 4.3 C 448.1 2.3 449.8 0.8 452.2 0.8 C 453.3 0.8 454.4 1.1 455.4 1.7 Z " stroke="none" fill="#ffffff"/>  </g></svg>