<?xml version="1.0" standalone="no"?><!DOCTYPE svg PUBLIC "-//W3C//DTD SVG 1.1//EN" "http://www.w3.org/Graphics/SVG/1.1/DTD/svg11.dtd"><svg xmlns="http://www.w3.org/2000/svg" version="1.1" width="200px" height="20.5px" viewBox="0 -4 200 20.5" style="top:-4px">  <desc>Response Times</desc>  <defs/>  <g id="Polygon49304">    <path d="M 0.9 8.7 L 0.9 0.1 C 0.9 0.1 4.75 0.15 4.8 0.1 C 5.5 0.1 6.1 0.2 6.5 0.4 C 6.9 0.5 7.2 0.8 7.5 1.2 C 7.7 1.6 7.8 2 7.8 2.5 C 7.8 3.1 7.6 3.6 7.2 4 C 6.8 4.4 6.2 4.7 5.4 4.8 C 5.7 5 5.9 5.1 6.1 5.3 C 6.4 5.6 6.7 5.9 7 6.4 C 7.02 6.4 8.5 8.7 8.5 8.7 L 7.1 8.7 C 7.1 8.7 5.95 6.95 5.9 6.9 C 5.6 6.4 5.3 6 5.1 5.8 C 4.9 5.5 4.7 5.3 4.5 5.2 C 4.4 5.1 4.2 5 4 5 C 3.9 4.9 3.7 4.9 3.4 4.9 C 3.4 4.92 2.1 4.9 2.1 4.9 L 2.1 8.7 L 0.9 8.7 Z M 2.1 3.9 C 2.1 3.9 4.52 3.94 4.5 3.9 C 5 3.9 5.4 3.9 5.7 3.8 C 6 3.7 6.3 3.5 6.4 3.3 C 6.6 3 6.6 2.8 6.6 2.5 C 6.6 2.1 6.5 1.8 6.2 1.5 C 5.9 1.2 5.4 1.1 4.8 1.1 C 4.8 1.1 2.1 1.1 2.1 1.1 L 2.1 3.9 Z M 13.7 6.7 C 13.7 6.7 14.8 6.9 14.8 6.9 C 14.6 7.5 14.3 8 13.9 8.3 C 13.4 8.7 12.8 8.9 12.1 8.9 C 11.2 8.9 10.4 8.6 9.9 8 C 9.4 7.5 9.1 6.7 9.1 5.7 C 9.1 4.6 9.4 3.8 9.9 3.2 C 10.5 2.7 11.2 2.4 12 2.4 C 12.8 2.4 13.5 2.7 14.1 3.2 C 14.6 3.8 14.8 4.6 14.8 5.6 C 14.8 5.7 14.8 5.8 14.8 5.9 C 14.8 5.9 10.2 5.9 10.2 5.9 C 10.2 6.6 10.4 7.1 10.8 7.5 C 11.1 7.8 11.6 8 12.1 8 C 12.5 8 12.8 7.9 13.1 7.7 C 13.3 7.5 13.6 7.2 13.7 6.7 Z M 10.3 5 C 10.3 5 13.7 5 13.7 5 C 13.7 4.5 13.5 4.1 13.3 3.8 C 13 3.4 12.6 3.2 12 3.2 C 11.5 3.2 11.1 3.4 10.8 3.7 C 10.5 4.1 10.3 4.5 10.3 5 Z M 15.7 6.9 C 15.7 6.9 16.8 6.7 16.8 6.7 C 16.8 7.1 17 7.5 17.2 7.7 C 17.5 7.9 17.9 8 18.4 8 C 18.8 8 19.2 7.9 19.4 7.7 C 19.7 7.5 19.8 7.3 19.8 7 C 19.8 6.8 19.7 6.6 19.5 6.5 C 19.3 6.4 19 6.2 18.4 6.1 C 17.6 5.9 17.1 5.7 16.8 5.6 C 16.5 5.5 16.3 5.3 16.1 5 C 16 4.7 15.9 4.5 15.9 4.2 C 15.9 3.9 15.9 3.6 16.1 3.4 C 16.2 3.2 16.4 3 16.6 2.8 C 16.8 2.7 17 2.6 17.3 2.5 C 17.5 2.4 17.9 2.4 18.2 2.4 C 18.7 2.4 19.1 2.4 19.5 2.6 C 19.8 2.7 20.1 2.9 20.3 3.2 C 20.5 3.4 20.6 3.7 20.6 4.1 C 20.6 4.1 19.6 4.3 19.6 4.3 C 19.6 3.9 19.4 3.7 19.2 3.5 C 19 3.3 18.7 3.2 18.3 3.2 C 17.8 3.2 17.4 3.3 17.2 3.5 C 17 3.6 16.9 3.8 16.9 4 C 16.9 4.2 16.9 4.3 17 4.4 C 17.1 4.5 17.3 4.6 17.4 4.7 C 17.5 4.7 17.9 4.8 18.4 5 C 19.1 5.2 19.6 5.3 19.9 5.5 C 20.2 5.6 20.5 5.8 20.6 6 C 20.8 6.2 20.9 6.5 20.9 6.9 C 20.9 7.3 20.8 7.6 20.6 7.9 C 20.4 8.2 20.1 8.5 19.7 8.6 C 19.3 8.8 18.9 8.9 18.4 8.9 C 17.6 8.9 16.9 8.7 16.5 8.4 C 16.1 8 15.8 7.5 15.7 6.9 Z M 22.1 11.1 L 22.1 2.5 L 23.1 2.5 C 23.1 2.5 23.09 3.32 23.1 3.3 C 23.3 3 23.6 2.8 23.9 2.6 C 24.1 2.5 24.5 2.4 24.9 2.4 C 25.4 2.4 25.9 2.5 26.3 2.8 C 26.7 3.1 27 3.4 27.2 3.9 C 27.4 4.4 27.5 5 27.5 5.6 C 27.5 6.2 27.4 6.8 27.2 7.3 C 27 7.8 26.6 8.2 26.2 8.5 C 25.8 8.7 25.3 8.9 24.8 8.9 C 24.5 8.9 24.2 8.8 23.9 8.7 C 23.6 8.5 23.4 8.3 23.2 8.1 C 23.19 8.09 23.2 11.1 23.2 11.1 L 22.1 11.1 Z M 23.1 5.7 C 23.1 6.5 23.2 7.1 23.6 7.4 C 23.9 7.8 24.3 8 24.8 8 C 25.2 8 25.6 7.8 26 7.4 C 26.3 7 26.5 6.4 26.5 5.6 C 26.5 4.8 26.3 4.2 26 3.8 C 25.6 3.4 25.2 3.2 24.8 3.2 C 24.3 3.2 24 3.4 23.6 3.8 C 23.3 4.2 23.1 4.9 23.1 5.7 Z M 28.4 5.6 C 28.4 4.5 28.7 3.6 29.4 3.1 C 29.9 2.6 30.6 2.4 31.3 2.4 C 32.2 2.4 32.9 2.7 33.4 3.2 C 34 3.8 34.2 4.5 34.2 5.5 C 34.2 6.3 34.1 7 33.9 7.4 C 33.6 7.9 33.3 8.2 32.8 8.5 C 32.4 8.7 31.9 8.9 31.3 8.9 C 30.5 8.9 29.8 8.6 29.2 8 C 28.7 7.5 28.4 6.7 28.4 5.6 Z M 29.5 5.6 C 29.5 6.4 29.7 7 30 7.4 C 30.4 7.8 30.8 8 31.3 8 C 31.9 8 32.3 7.8 32.6 7.4 C 33 7 33.2 6.4 33.2 5.6 C 33.2 4.8 33 4.2 32.6 3.8 C 32.3 3.4 31.8 3.2 31.3 3.2 C 30.8 3.2 30.4 3.4 30 3.8 C 29.7 4.2 29.5 4.8 29.5 5.6 Z M 35.5 8.7 L 35.5 2.5 L 36.4 2.5 C 36.4 2.5 36.43 3.4 36.4 3.4 C 36.9 2.7 37.5 2.4 38.4 2.4 C 38.8 2.4 39.1 2.4 39.4 2.6 C 39.8 2.7 40 2.9 40.1 3.1 C 40.3 3.3 40.4 3.6 40.5 3.9 C 40.5 4.1 40.5 4.4 40.5 4.9 C 40.54 4.91 40.5 8.7 40.5 8.7 L 39.5 8.7 C 39.5 8.7 39.48 4.95 39.5 5 C 39.5 4.5 39.4 4.2 39.4 4 C 39.3 3.8 39.1 3.6 38.9 3.5 C 38.7 3.4 38.5 3.3 38.2 3.3 C 37.7 3.3 37.3 3.4 37 3.7 C 36.7 4 36.5 4.5 36.5 5.3 C 36.53 5.34 36.5 8.7 36.5 8.7 L 35.5 8.7 Z M 41.7 6.9 C 41.7 6.9 42.8 6.7 42.8 6.7 C 42.8 7.1 43 7.5 43.3 7.7 C 43.5 7.9 43.9 8 44.4 8 C 44.9 8 45.2 7.9 45.5 7.7 C 45.7 7.5 45.8 7.3 45.8 7 C 45.8 6.8 45.7 6.6 45.5 6.5 C 45.4 6.4 45 6.2 44.4 6.1 C 43.7 5.9 43.1 5.7 42.8 5.6 C 42.5 5.5 42.3 5.3 42.1 5 C 42 4.7 41.9 4.5 41.9 4.2 C 41.9 3.9 42 3.6 42.1 3.4 C 42.2 3.2 42.4 3 42.6 2.8 C 42.8 2.7 43 2.6 43.3 2.5 C 43.6 2.4 43.9 2.4 44.2 2.4 C 44.7 2.4 45.1 2.4 45.5 2.6 C 45.9 2.7 46.1 2.9 46.3 3.2 C 46.5 3.4 46.6 3.7 46.7 4.1 C 46.7 4.1 45.6 4.3 45.6 4.3 C 45.6 3.9 45.5 3.7 45.2 3.5 C 45 3.3 44.7 3.2 44.3 3.2 C 43.8 3.2 43.4 3.3 43.2 3.5 C 43 3.6 42.9 3.8 42.9 4 C 42.9 4.2 43 4.3 43.1 4.4 C 43.1 4.5 43.3 4.6 43.5 4.7 C 43.6 4.7 43.9 4.8 44.4 5 C 45.1 5.2 45.7 5.3 46 5.5 C 46.2 5.6 46.5 5.8 46.6 6 C 46.8 6.2 46.9 6.5 46.9 6.9 C 46.9 7.3 46.8 7.6 46.6 7.9 C 46.4 8.2 46.1 8.5 45.7 8.6 C 45.3 8.8 44.9 8.9 44.4 8.9 C 43.6 8.9 43 8.7 42.5 8.4 C 42.1 8 41.8 7.5 41.7 6.9 Z M 52.4 6.7 C 52.4 6.7 53.5 6.9 53.5 6.9 C 53.3 7.5 53 8 52.5 8.3 C 52.1 8.7 51.5 8.9 50.8 8.9 C 49.9 8.9 49.1 8.6 48.6 8 C 48.1 7.5 47.8 6.7 47.8 5.7 C 47.8 4.6 48.1 3.8 48.6 3.2 C 49.1 2.7 49.8 2.4 50.7 2.4 C 51.5 2.4 52.2 2.7 52.7 3.2 C 53.3 3.8 53.5 4.6 53.5 5.6 C 53.5 5.7 53.5 5.8 53.5 5.9 C 53.5 5.9 48.9 5.9 48.9 5.9 C 48.9 6.6 49.1 7.1 49.5 7.5 C 49.8 7.8 50.3 8 50.8 8 C 51.2 8 51.5 7.9 51.8 7.7 C 52 7.5 52.3 7.2 52.4 6.7 Z M 48.9 5 C 48.9 5 52.4 5 52.4 5 C 52.4 4.5 52.2 4.1 52 3.8 C 51.7 3.4 51.3 3.2 50.7 3.2 C 50.2 3.2 49.8 3.4 49.5 3.7 C 49.2 4.1 49 4.5 48.9 5 Z M 60.3 8.7 L 60.3 1.2 L 57.4 1.2 L 57.4 0.1 L 64.2 0.1 L 64.2 1.2 L 61.4 1.2 L 61.4 8.7 L 60.3 8.7 Z M 64.8 1.4 L 64.8 0.1 L 65.9 0.1 L 65.9 1.4 L 64.8 1.4 Z M 64.8 8.7 L 64.8 2.5 L 65.9 2.5 L 65.9 8.7 L 64.8 8.7 Z M 67.5 8.7 L 67.5 2.5 L 68.4 2.5 C 68.4 2.5 68.44 3.39 68.4 3.4 C 68.6 3.1 68.9 2.8 69.2 2.7 C 69.5 2.5 69.9 2.4 70.3 2.4 C 70.8 2.4 71.2 2.5 71.5 2.7 C 71.8 2.9 72 3.1 72.1 3.5 C 72.6 2.7 73.2 2.4 74 2.4 C 74.6 2.4 75.1 2.5 75.4 2.9 C 75.8 3.2 75.9 3.8 75.9 4.5 C 75.93 4.46 75.9 8.7 75.9 8.7 L 74.9 8.7 C 74.9 8.7 74.88 4.82 74.9 4.8 C 74.9 4.4 74.8 4.1 74.8 3.9 C 74.7 3.7 74.6 3.6 74.4 3.5 C 74.2 3.3 74 3.3 73.8 3.3 C 73.3 3.3 73 3.4 72.7 3.7 C 72.4 4 72.2 4.5 72.2 5.1 C 72.25 5.12 72.2 8.7 72.2 8.7 L 71.2 8.7 C 71.2 8.7 71.19 4.69 71.2 4.7 C 71.2 4.2 71.1 3.9 70.9 3.6 C 70.8 3.4 70.5 3.3 70.1 3.3 C 69.8 3.3 69.5 3.4 69.3 3.5 C 69 3.7 68.8 3.9 68.7 4.2 C 68.6 4.5 68.5 4.9 68.5 5.5 C 68.55 5.51 68.5 8.7 68.5 8.7 L 67.5 8.7 Z M 81.8 6.7 C 81.8 6.7 82.8 6.9 82.8 6.9 C 82.7 7.5 82.3 8 81.9 8.3 C 81.4 8.7 80.8 8.9 80.1 8.9 C 79.2 8.9 78.5 8.6 77.9 8 C 77.4 7.5 77.1 6.7 77.1 5.7 C 77.1 4.6 77.4 3.8 77.9 3.2 C 78.5 2.7 79.2 2.4 80 2.4 C 80.9 2.4 81.6 2.7 82.1 3.2 C 82.6 3.8 82.9 4.6 82.9 5.6 C 82.9 5.7 82.9 5.8 82.9 5.9 C 82.9 5.9 78.2 5.9 78.2 5.9 C 78.3 6.6 78.5 7.1 78.8 7.5 C 79.2 7.8 79.6 8 80.1 8 C 80.5 8 80.8 7.9 81.1 7.7 C 81.4 7.5 81.6 7.2 81.8 6.7 Z M 78.3 5 C 78.3 5 81.8 5 81.8 5 C 81.7 4.5 81.6 4.1 81.4 3.8 C 81 3.4 80.6 3.2 80.1 3.2 C 79.6 3.2 79.2 3.4 78.8 3.7 C 78.5 4.1 78.3 4.5 78.3 5 Z M 83.7 6.9 C 83.7 6.9 84.8 6.7 84.8 6.7 C 84.8 7.1 85 7.5 85.3 7.7 C 85.5 7.9 85.9 8 86.4 8 C 86.9 8 87.2 7.9 87.5 7.7 C 87.7 7.5 87.8 7.3 87.8 7 C 87.8 6.8 87.7 6.6 87.5 6.5 C 87.4 6.4 87 6.2 86.4 6.1 C 85.7 5.9 85.1 5.7 84.8 5.6 C 84.5 5.5 84.3 5.3 84.1 5 C 84 4.7 83.9 4.5 83.9 4.2 C 83.9 3.9 84 3.6 84.1 3.4 C 84.2 3.2 84.4 3 84.6 2.8 C 84.8 2.7 85 2.6 85.3 2.5 C 85.6 2.4 85.9 2.4 86.2 2.4 C 86.7 2.4 87.1 2.4 87.5 2.6 C 87.9 2.7 88.1 2.9 88.3 3.2 C 88.5 3.4 88.6 3.7 88.7 4.1 C 88.7 4.1 87.6 4.3 87.6 4.3 C 87.6 3.9 87.5 3.7 87.2 3.5 C 87 3.3 86.7 3.2 86.3 3.2 C 85.8 3.2 85.5 3.3 85.2 3.5 C 85 3.6 84.9 3.8 84.9 4 C 84.9 4.2 85 4.3 85.1 4.4 C 85.2 4.5 85.3 4.6 85.5 4.7 C 85.6 4.7 85.9 4.8 86.4 5 C 87.1 5.2 87.7 5.3 88 5.5 C 88.3 5.6 88.5 5.8 88.7 6 C 88.8 6.2 88.9 6.5 88.9 6.9 C 88.9 7.3 88.8 7.6 88.6 7.9 C 88.4 8.2 88.1 8.5 87.7 8.6 C 87.3 8.8 86.9 8.9 86.4 8.9 C 85.6 8.9 85 8.7 84.6 8.4 C 84.1 8 83.9 7.5 83.7 6.9 Z " stroke="none" fill="#000"/>  </g></svg>