<?xml version="1.0" standalone="no"?><!DOCTYPE svg PUBLIC "-//W3C//DTD SVG 1.1//EN" "http://www.w3.org/Graphics/SVG/1.1/DTD/svg11.dtd"><svg xmlns="http://www.w3.org/2000/svg" version="1.1" width="1020px" height="46.1px" viewBox="0 -8 1020 46.1" style="top:-8px">  <desc>Apprentices In Capable Hands</desc>  <defs/>  <g id="Polygon53688">    <path d="M 10.5 1.3 L 19.6 21.9 L 17.3 21.9 L 14.4 15.4 L 5.1 15.4 L 2.4 21.9 L 0.1 21.9 L 8.9 1.3 L 10.5 1.3 Z M 6 13.4 L 13.5 13.4 L 9.7 4.7 L 6 13.4 Z M 27.8 1.4 C 31.9 1.4 34.3 3.5 34.3 7 C 34.3 10.9 31.8 12.7 27.4 12.7 C 27.39 12.66 24.2 12.7 24.2 12.7 L 24.2 21.9 L 22 21.9 L 22 1.4 C 22 1.4 27.78 1.41 27.8 1.4 Z M 24.2 10.7 C 24.2 10.7 27.33 10.68 27.3 10.7 C 30.8 10.7 32 9.3 32 7 C 32 4.7 30.7 3.4 27.3 3.4 C 27.33 3.39 24.2 3.4 24.2 3.4 L 24.2 10.7 Z M 43.3 1.4 C 47.4 1.4 49.9 3.5 49.9 7 C 49.9 10.9 47.3 12.7 43 12.7 C 42.96 12.66 39.8 12.7 39.8 12.7 L 39.8 21.9 L 37.5 21.9 L 37.5 1.4 C 37.5 1.4 43.35 1.41 43.3 1.4 Z M 39.8 10.7 C 39.8 10.7 42.9 10.68 42.9 10.7 C 46.3 10.7 47.6 9.3 47.6 7 C 47.6 4.7 46.2 3.4 42.9 3.4 C 42.9 3.39 39.8 3.4 39.8 3.4 L 39.8 10.7 Z M 53.1 1.4 C 53.1 1.4 58.47 1.41 58.5 1.4 C 62.6 1.4 64.7 3.8 64.7 6.9 C 64.7 9.4 63.3 11.2 60.8 11.9 C 62.2 12.6 62.8 13.2 64.4 15.7 C 64.44 15.75 68.4 21.9 68.4 21.9 L 65.7 21.9 C 65.7 21.9 62.13 16.23 62.1 16.2 C 60.2 13.2 59 12.6 57.2 12.6 C 57.24 12.57 55.3 12.6 55.3 12.6 L 55.3 21.9 L 53.1 21.9 L 53.1 1.4 Z M 57.4 10.6 C 60.3 10.6 62.4 9.9 62.4 6.9 C 62.4 4.4 60.8 3.4 58.2 3.4 C 58.17 3.39 55.3 3.4 55.3 3.4 L 55.3 10.6 C 55.3 10.6 57.45 10.59 57.4 10.6 Z M 81.8 1.4 L 81.8 3.4 L 72.9 3.4 L 72.9 10.6 L 81.5 10.6 L 81.5 12.6 L 72.9 12.6 L 72.9 19.8 L 82.1 19.8 L 82.1 21.9 L 70.6 21.9 L 70.6 1.4 L 81.8 1.4 Z M 87.6 1.4 L 102.1 18.3 L 102.1 1.4 L 104.2 1.4 L 104.2 21.9 L 102.2 21.9 L 87.9 5 L 87.9 21.9 L 85.7 21.9 L 85.7 1.4 L 87.6 1.4 Z M 123.7 1.4 L 123.7 3.4 L 116.4 3.4 L 116.4 21.9 L 114.2 21.9 L 114.2 3.4 L 106.9 3.4 L 106.9 1.4 L 123.7 1.4 Z M 128.8 1.4 L 128.8 21.9 L 126.5 21.9 L 126.5 1.4 L 128.8 1.4 Z M 150.2 2.8 C 150.2 2.8 150.2 5.2 150.2 5.2 C 148.1 4 145.7 3.2 143.3 3.2 C 138.1 3.2 134.8 7.2 134.8 11.7 C 134.8 16.3 138.1 20 143.3 20 C 145.8 20 148.2 19.3 150.4 17.9 C 150.4 17.9 150.4 20.4 150.4 20.4 C 148.1 21.6 145.7 22.1 143.2 22.1 C 136.1 22.1 132.4 16.8 132.4 11.7 C 132.4 5.6 137.1 1.1 143.3 1.1 C 145.6 1.1 147.9 1.7 150.2 2.8 Z M 165.1 1.4 L 165.1 3.4 L 156.2 3.4 L 156.2 10.6 L 164.8 10.6 L 164.8 12.6 L 156.2 12.6 L 156.2 19.8 L 165.4 19.8 L 165.4 21.9 L 153.9 21.9 L 153.9 1.4 L 165.1 1.4 Z M 178.5 2.5 C 178.5 2.5 178.5 5 178.5 5 C 177.1 3.8 175.5 3.2 173.8 3.2 C 171.7 3.2 170.3 4.4 170.3 6.1 C 170.3 7.5 170.6 8.7 174 10.4 C 178.2 12.6 179.2 14 179.2 16.8 C 179.2 19.9 176.9 22.1 173.4 22.1 C 171.4 22.1 169.6 21.5 168.1 20.3 C 168.1 20.3 168.1 17.5 168.1 17.5 C 169.6 19.2 171.4 20.1 173.4 20.1 C 175.5 20.1 177 18.8 177 16.9 C 177 15.1 176.4 14.1 172.4 12 C 169.2 10.4 168 8.8 168 6.2 C 168 3.3 170.5 1.1 173.9 1.1 C 175.5 1.1 177.1 1.6 178.5 2.5 Z M 193.3 1.4 L 193.3 21.9 L 191.1 21.9 L 191.1 1.4 L 193.3 1.4 Z M 199.8 1.4 L 214.3 18.3 L 214.3 1.4 L 216.4 1.4 L 216.4 21.9 L 214.5 21.9 L 200.1 5 L 200.1 21.9 L 197.9 21.9 L 197.9 1.4 L 199.8 1.4 Z M 246.3 2.8 C 246.3 2.8 246.3 5.2 246.3 5.2 C 244.1 4 241.7 3.2 239.3 3.2 C 234.1 3.2 230.8 7.2 230.8 11.7 C 230.8 16.3 234.1 20 239.3 20 C 241.9 20 244.2 19.3 246.4 17.9 C 246.4 17.9 246.4 20.4 246.4 20.4 C 244.1 21.6 241.8 22.1 239.2 22.1 C 232.2 22.1 228.5 16.8 228.5 11.7 C 228.5 5.6 233.2 1.1 239.3 1.1 C 241.6 1.1 244 1.7 246.3 2.8 Z M 258.6 1.3 L 267.7 21.9 L 265.4 21.9 L 262.6 15.4 L 253.3 15.4 L 250.5 21.9 L 248.2 21.9 L 257 1.3 L 258.6 1.3 Z M 254.1 13.4 L 261.7 13.4 L 257.8 4.7 L 254.1 13.4 Z M 275.9 1.4 C 280 1.4 282.5 3.5 282.5 7 C 282.5 10.9 279.9 12.7 275.5 12.7 C 275.52 12.66 272.3 12.7 272.3 12.7 L 272.3 21.9 L 270.1 21.9 L 270.1 1.4 C 270.1 1.4 275.91 1.41 275.9 1.4 Z M 272.3 10.7 C 272.3 10.7 275.46 10.68 275.5 10.7 C 278.9 10.7 280.2 9.3 280.2 7 C 280.2 4.7 278.8 3.4 275.5 3.4 C 275.46 3.39 272.3 3.4 272.3 3.4 L 272.3 10.7 Z M 292.1 1.3 L 301.2 21.9 L 298.9 21.9 L 296 15.4 L 286.7 15.4 L 283.9 21.9 L 281.6 21.9 L 290.5 1.3 L 292.1 1.3 Z M 287.6 13.4 L 295.1 13.4 L 291.2 4.7 L 287.6 13.4 Z M 308.8 1.4 C 312.6 1.4 315.1 3.4 315.1 6.6 C 315.1 8.8 313.9 10.4 311.8 11.1 C 314.9 11.6 316.9 13.7 316.9 16.4 C 316.9 20.2 313.5 21.9 309.8 21.9 C 309.78 21.87 303.5 21.9 303.5 21.9 L 303.5 1.4 C 303.5 1.4 308.82 1.41 308.8 1.4 Z M 305.8 10.5 C 305.8 10.5 308.01 10.5 308 10.5 C 311.4 10.5 312.8 8.9 312.8 6.8 C 312.8 4.5 311.4 3.4 308.4 3.4 C 308.37 3.39 305.8 3.4 305.8 3.4 L 305.8 10.5 Z M 309.4 19.9 C 312.6 19.9 314.5 18.8 314.5 16.2 C 314.5 13.8 312.9 12.4 309 12.4 C 309.03 12.45 305.8 12.4 305.8 12.4 L 305.8 19.9 C 305.8 19.9 309.36 19.89 309.4 19.9 Z M 322.5 1.4 L 322.5 19.8 L 332.1 19.8 L 332.1 21.9 L 320.2 21.9 L 320.2 1.4 L 322.5 1.4 Z M 345.9 1.4 L 345.9 3.4 L 337 3.4 L 337 10.6 L 345.6 10.6 L 345.6 12.6 L 337 12.6 L 337 19.8 L 346.2 19.8 L 346.2 21.9 L 334.7 21.9 L 334.7 1.4 L 345.9 1.4 Z M 360.4 1.4 L 360.4 10.5 L 372.8 10.5 L 372.8 1.4 L 375.1 1.4 L 375.1 21.9 L 372.8 21.9 L 372.8 12.6 L 360.4 12.6 L 360.4 21.9 L 358.1 21.9 L 358.1 1.4 L 360.4 1.4 Z M 387.8 1.3 L 397 21.9 L 394.6 21.9 L 391.8 15.4 L 382.5 15.4 L 379.7 21.9 L 377.4 21.9 L 386.2 1.3 L 387.8 1.3 Z M 383.3 13.4 L 390.9 13.4 L 387 4.7 L 383.3 13.4 Z M 401.2 1.4 L 415.6 18.3 L 415.6 1.4 L 417.8 1.4 L 417.8 21.9 L 415.8 21.9 L 401.5 5 L 401.5 21.9 L 399.3 21.9 L 399.3 1.4 L 401.2 1.4 Z M 422.4 1.4 C 422.4 1.4 429.93 1.41 429.9 1.4 C 436.6 1.4 440.9 5.6 440.9 11.4 C 440.9 17.8 436.4 21.9 429.9 21.9 C 429.93 21.87 422.4 21.9 422.4 21.9 L 422.4 1.4 Z M 429.9 19.8 C 435.3 19.8 438.6 16.6 438.6 11.6 C 438.6 6.7 435.4 3.4 429.6 3.4 C 429.57 3.42 424.6 3.4 424.6 3.4 L 424.6 19.8 C 424.6 19.8 429.9 19.83 429.9 19.8 Z M 454.2 2.5 C 454.2 2.5 454.2 5 454.2 5 C 452.8 3.8 451.2 3.2 449.5 3.2 C 447.4 3.2 446 4.4 446 6.1 C 446 7.5 446.3 8.7 449.7 10.4 C 453.9 12.6 454.9 14 454.9 16.8 C 454.9 19.9 452.6 22.1 449.1 22.1 C 447.1 22.1 445.3 21.5 443.8 20.3 C 443.8 20.3 443.8 17.5 443.8 17.5 C 445.3 19.2 447.1 20.1 449.1 20.1 C 451.2 20.1 452.7 18.8 452.7 16.9 C 452.7 15.1 452.1 14.1 448.1 12 C 444.9 10.4 443.7 8.8 443.7 6.2 C 443.7 3.3 446.2 1.1 449.6 1.1 C 451.2 1.1 452.8 1.6 454.2 2.5 Z " stroke="none" fill="#000000"/>  </g></svg>