<?xml version="1.0" standalone="no"?><!DOCTYPE svg PUBLIC "-//W3C//DTD SVG 1.1//EN" "http://www.w3.org/Graphics/SVG/1.1/DTD/svg11.dtd"><svg xmlns="http://www.w3.org/2000/svg" version="1.1" width="200px" height="20.5px" viewBox="0 -4 200 20.5" style="top:-4px">  <desc>Turnaround of Results</desc>  <defs/>  <g id="Polygon49301">    <path d="M 3.1 8.7 L 3.1 1.2 L 0.3 1.2 L 0.3 0.1 L 7.1 0.1 L 7.1 1.2 L 4.2 1.2 L 4.2 8.7 L 3.1 8.7 Z M 11.8 8.7 C 11.8 8.7 11.75 7.82 11.8 7.8 C 11.3 8.5 10.6 8.9 9.8 8.9 C 9.4 8.9 9.1 8.8 8.8 8.7 C 8.4 8.5 8.2 8.3 8 8.1 C 7.9 7.9 7.8 7.7 7.7 7.4 C 7.7 7.1 7.7 6.8 7.7 6.4 C 7.65 6.37 7.7 2.5 7.7 2.5 L 8.7 2.5 C 8.7 2.5 8.71 5.96 8.7 6 C 8.7 6.5 8.7 6.9 8.8 7.1 C 8.8 7.4 9 7.6 9.2 7.7 C 9.4 7.9 9.7 8 10 8 C 10.3 8 10.6 7.9 10.9 7.7 C 11.2 7.6 11.4 7.3 11.5 7.1 C 11.6 6.8 11.6 6.4 11.6 5.8 C 11.64 5.85 11.6 2.5 11.6 2.5 L 12.7 2.5 L 12.7 8.7 L 11.8 8.7 Z M 14.3 8.7 L 14.3 2.5 L 15.3 2.5 C 15.3 2.5 15.29 3.46 15.3 3.5 C 15.5 3 15.8 2.7 16 2.6 C 16.2 2.4 16.4 2.4 16.6 2.4 C 17 2.4 17.4 2.5 17.7 2.7 C 17.7 2.7 17.4 3.7 17.4 3.7 C 17.1 3.5 16.8 3.5 16.6 3.5 C 16.4 3.5 16.1 3.5 16 3.7 C 15.8 3.8 15.6 4 15.6 4.2 C 15.5 4.6 15.4 5 15.4 5.5 C 15.39 5.48 15.4 8.7 15.4 8.7 L 14.3 8.7 Z M 18.3 8.7 L 18.3 2.5 L 19.3 2.5 C 19.3 2.5 19.29 3.4 19.3 3.4 C 19.8 2.7 20.4 2.4 21.3 2.4 C 21.7 2.4 22 2.4 22.3 2.6 C 22.6 2.7 22.9 2.9 23 3.1 C 23.2 3.3 23.3 3.6 23.3 3.9 C 23.4 4.1 23.4 4.4 23.4 4.9 C 23.4 4.91 23.4 8.7 23.4 8.7 L 22.3 8.7 C 22.3 8.7 22.35 4.95 22.3 5 C 22.3 4.5 22.3 4.2 22.2 4 C 22.1 3.8 22 3.6 21.8 3.5 C 21.6 3.4 21.3 3.3 21.1 3.3 C 20.6 3.3 20.2 3.4 19.9 3.7 C 19.6 4 19.4 4.5 19.4 5.3 C 19.4 5.34 19.4 8.7 19.4 8.7 L 18.3 8.7 Z M 29.3 8.7 C 29.2 8.5 29.1 8.3 29.1 8 C 28.7 8.3 28.3 8.5 28 8.7 C 27.6 8.8 27.2 8.9 26.8 8.9 C 26.1 8.9 25.6 8.7 25.2 8.4 C 24.8 8 24.7 7.6 24.7 7.1 C 24.7 6.8 24.7 6.5 24.9 6.3 C 25 6 25.2 5.8 25.4 5.7 C 25.6 5.5 25.9 5.4 26.2 5.3 C 26.4 5.3 26.7 5.2 27.1 5.2 C 28 5 28.6 4.9 29 4.8 C 29 4.6 29 4.6 29 4.5 C 29 4.1 28.9 3.8 28.7 3.6 C 28.4 3.4 28 3.2 27.5 3.2 C 27 3.2 26.6 3.3 26.4 3.5 C 26.2 3.7 26 4 25.9 4.4 C 25.9 4.4 24.8 4.3 24.8 4.3 C 24.9 3.8 25.1 3.5 25.3 3.2 C 25.5 2.9 25.8 2.7 26.2 2.6 C 26.6 2.4 27.1 2.4 27.7 2.4 C 28.2 2.4 28.6 2.4 28.9 2.6 C 29.3 2.7 29.5 2.8 29.7 3 C 29.8 3.2 29.9 3.5 30 3.8 C 30 3.9 30.1 4.3 30.1 4.7 C 30.1 4.7 30.1 6.1 30.1 6.1 C 30.1 7.1 30.1 7.7 30.1 8 C 30.2 8.2 30.3 8.5 30.4 8.7 C 30.39 8.74 29.3 8.7 29.3 8.7 C 29.3 8.7 29.29 8.74 29.3 8.7 Z M 29 5.6 C 28.6 5.8 28 5.9 27.3 6 C 26.8 6.1 26.5 6.1 26.3 6.2 C 26.2 6.3 26 6.4 25.9 6.6 C 25.8 6.7 25.8 6.9 25.8 7.1 C 25.8 7.3 25.9 7.6 26.1 7.8 C 26.3 8 26.6 8.1 27 8.1 C 27.4 8.1 27.8 8 28.1 7.8 C 28.4 7.6 28.7 7.4 28.8 7.1 C 28.9 6.8 29 6.5 29 6 C 29 6 29 5.6 29 5.6 Z M 31.7 8.7 L 31.7 2.5 L 32.6 2.5 C 32.6 2.5 32.63 3.46 32.6 3.5 C 32.9 3 33.1 2.7 33.3 2.6 C 33.5 2.4 33.7 2.4 34 2.4 C 34.3 2.4 34.7 2.5 35.1 2.7 C 35.1 2.7 34.7 3.7 34.7 3.7 C 34.4 3.5 34.2 3.5 33.9 3.5 C 33.7 3.5 33.5 3.5 33.3 3.7 C 33.1 3.8 33 4 32.9 4.2 C 32.8 4.6 32.7 5 32.7 5.5 C 32.74 5.48 32.7 8.7 32.7 8.7 L 31.7 8.7 Z M 35.3 5.6 C 35.3 4.5 35.6 3.6 36.3 3.1 C 36.8 2.6 37.4 2.4 38.2 2.4 C 39.1 2.4 39.8 2.7 40.3 3.2 C 40.9 3.8 41.1 4.5 41.1 5.5 C 41.1 6.3 41 7 40.8 7.4 C 40.5 7.9 40.2 8.2 39.7 8.5 C 39.3 8.7 38.8 8.9 38.2 8.9 C 37.3 8.9 36.6 8.6 36.1 8 C 35.6 7.5 35.3 6.7 35.3 5.6 Z M 36.4 5.6 C 36.4 6.4 36.6 7 36.9 7.4 C 37.2 7.8 37.7 8 38.2 8 C 38.7 8 39.2 7.8 39.5 7.4 C 39.9 7 40 6.4 40 5.6 C 40 4.8 39.9 4.2 39.5 3.8 C 39.2 3.4 38.7 3.2 38.2 3.2 C 37.7 3.2 37.2 3.4 36.9 3.8 C 36.6 4.2 36.4 4.8 36.4 5.6 Z M 46.4 8.7 C 46.4 8.7 46.44 7.82 46.4 7.8 C 46 8.5 45.3 8.9 44.5 8.9 C 44.1 8.9 43.8 8.8 43.4 8.7 C 43.1 8.5 42.9 8.3 42.7 8.1 C 42.6 7.9 42.5 7.7 42.4 7.4 C 42.4 7.1 42.3 6.8 42.3 6.4 C 42.34 6.37 42.3 2.5 42.3 2.5 L 43.4 2.5 C 43.4 2.5 43.39 5.96 43.4 6 C 43.4 6.5 43.4 6.9 43.5 7.1 C 43.5 7.4 43.7 7.6 43.9 7.7 C 44.1 7.9 44.4 8 44.7 8 C 45 8 45.3 7.9 45.6 7.7 C 45.8 7.6 46 7.3 46.2 7.1 C 46.3 6.8 46.3 6.4 46.3 5.8 C 46.33 5.85 46.3 2.5 46.3 2.5 L 47.4 2.5 L 47.4 8.7 L 46.4 8.7 Z M 49 8.7 L 49 2.5 L 50 2.5 C 50 2.5 49.99 3.4 50 3.4 C 50.4 2.7 51.1 2.4 52 2.4 C 52.3 2.4 52.7 2.4 53 2.6 C 53.3 2.7 53.6 2.9 53.7 3.1 C 53.9 3.3 54 3.6 54 3.9 C 54.1 4.1 54.1 4.4 54.1 4.9 C 54.09 4.91 54.1 8.7 54.1 8.7 L 53 8.7 C 53 8.7 53.04 4.95 53 5 C 53 4.5 53 4.2 52.9 4 C 52.8 3.8 52.7 3.6 52.5 3.5 C 52.3 3.4 52 3.3 51.7 3.3 C 51.3 3.3 50.9 3.4 50.6 3.7 C 50.3 4 50.1 4.5 50.1 5.3 C 50.09 5.34 50.1 8.7 50.1 8.7 L 49 8.7 Z M 59.7 8.7 C 59.7 8.7 59.75 7.95 59.7 8 C 59.4 8.6 58.8 8.9 58 8.9 C 57.5 8.9 57.1 8.7 56.6 8.5 C 56.2 8.2 55.9 7.8 55.7 7.3 C 55.4 6.8 55.3 6.3 55.3 5.6 C 55.3 5 55.4 4.4 55.6 3.9 C 55.8 3.4 56.2 3 56.6 2.8 C 57 2.5 57.4 2.4 58 2.4 C 58.3 2.4 58.7 2.5 59 2.6 C 59.3 2.8 59.5 3 59.7 3.2 C 59.68 3.23 59.7 0.1 59.7 0.1 L 60.7 0.1 L 60.7 8.7 L 59.7 8.7 Z M 56.4 5.6 C 56.4 6.4 56.6 7 56.9 7.4 C 57.3 7.8 57.7 8 58.1 8 C 58.6 8 59 7.8 59.3 7.4 C 59.6 7.1 59.8 6.5 59.8 5.7 C 59.8 4.9 59.6 4.2 59.3 3.8 C 58.9 3.4 58.5 3.2 58.1 3.2 C 57.6 3.2 57.2 3.4 56.9 3.8 C 56.6 4.2 56.4 4.8 56.4 5.6 Z M 65.3 5.6 C 65.3 4.5 65.6 3.6 66.3 3.1 C 66.8 2.6 67.5 2.4 68.2 2.4 C 69.1 2.4 69.8 2.7 70.3 3.2 C 70.9 3.8 71.2 4.5 71.2 5.5 C 71.2 6.3 71 7 70.8 7.4 C 70.6 7.9 70.2 8.2 69.7 8.5 C 69.3 8.7 68.8 8.9 68.2 8.9 C 67.4 8.9 66.7 8.6 66.1 8 C 65.6 7.5 65.3 6.7 65.3 5.6 Z M 66.4 5.6 C 66.4 6.4 66.6 7 66.9 7.4 C 67.3 7.8 67.7 8 68.2 8 C 68.8 8 69.2 7.8 69.6 7.4 C 69.9 7 70.1 6.4 70.1 5.6 C 70.1 4.8 69.9 4.2 69.5 3.8 C 69.2 3.4 68.8 3.2 68.2 3.2 C 67.7 3.2 67.3 3.4 66.9 3.8 C 66.6 4.2 66.4 4.8 66.4 5.6 Z M 72.6 8.7 L 72.6 3.3 L 71.7 3.3 L 71.7 2.5 L 72.6 2.5 C 72.6 2.5 72.64 1.85 72.6 1.9 C 72.6 1.4 72.7 1.1 72.8 0.9 C 72.9 0.6 73 0.4 73.3 0.3 C 73.5 0.1 73.9 0 74.4 0 C 74.7 0 75 0 75.4 0.1 C 75.4 0.1 75.2 1 75.2 1 C 75 1 74.8 1 74.6 1 C 74.3 1 74 1 73.9 1.2 C 73.8 1.3 73.7 1.6 73.7 1.9 C 73.69 1.94 73.7 2.5 73.7 2.5 L 74.9 2.5 L 74.9 3.3 L 73.7 3.3 L 73.7 8.7 L 72.6 8.7 Z M 79.2 8.7 L 79.2 0.1 C 79.2 0.1 83.02 0.15 83 0.1 C 83.8 0.1 84.4 0.2 84.8 0.4 C 85.2 0.5 85.5 0.8 85.7 1.2 C 86 1.6 86.1 2 86.1 2.5 C 86.1 3.1 85.9 3.6 85.5 4 C 85.1 4.4 84.5 4.7 83.7 4.8 C 84 5 84.2 5.1 84.3 5.3 C 84.7 5.6 85 5.9 85.3 6.4 C 85.29 6.4 86.8 8.7 86.8 8.7 L 85.4 8.7 C 85.4 8.7 84.22 6.95 84.2 6.9 C 83.9 6.4 83.6 6 83.4 5.8 C 83.2 5.5 83 5.3 82.8 5.2 C 82.6 5.1 82.5 5 82.3 5 C 82.2 4.9 82 4.9 81.7 4.9 C 81.67 4.92 80.3 4.9 80.3 4.9 L 80.3 8.7 L 79.2 8.7 Z M 80.3 3.9 C 80.3 3.9 82.79 3.94 82.8 3.9 C 83.3 3.9 83.7 3.9 84 3.8 C 84.3 3.7 84.5 3.5 84.7 3.3 C 84.8 3 84.9 2.8 84.9 2.5 C 84.9 2.1 84.8 1.8 84.5 1.5 C 84.2 1.2 83.7 1.1 83.1 1.1 C 83.07 1.1 80.3 1.1 80.3 1.1 L 80.3 3.9 Z M 92 6.7 C 92 6.7 93.1 6.9 93.1 6.9 C 92.9 7.5 92.6 8 92.1 8.3 C 91.7 8.7 91.1 8.9 90.3 8.9 C 89.4 8.9 88.7 8.6 88.2 8 C 87.6 7.5 87.4 6.7 87.4 5.7 C 87.4 4.6 87.6 3.8 88.2 3.2 C 88.7 2.7 89.4 2.4 90.3 2.4 C 91.1 2.4 91.8 2.7 92.3 3.2 C 92.8 3.8 93.1 4.6 93.1 5.6 C 93.1 5.7 93.1 5.8 93.1 5.9 C 93.1 5.9 88.5 5.9 88.5 5.9 C 88.5 6.6 88.7 7.1 89 7.5 C 89.4 7.8 89.8 8 90.3 8 C 90.7 8 91.1 7.9 91.3 7.7 C 91.6 7.5 91.8 7.2 92 6.7 Z M 88.5 5 C 88.5 5 92 5 92 5 C 92 4.5 91.8 4.1 91.6 3.8 C 91.3 3.4 90.8 3.2 90.3 3.2 C 89.8 3.2 89.4 3.4 89.1 3.7 C 88.7 4.1 88.6 4.5 88.5 5 Z M 94 6.9 C 94 6.9 95 6.7 95 6.7 C 95.1 7.1 95.2 7.5 95.5 7.7 C 95.8 7.9 96.2 8 96.6 8 C 97.1 8 97.5 7.9 97.7 7.7 C 97.9 7.5 98.1 7.3 98.1 7 C 98.1 6.8 98 6.6 97.8 6.5 C 97.6 6.4 97.2 6.2 96.7 6.1 C 95.9 5.9 95.4 5.7 95.1 5.6 C 94.8 5.5 94.5 5.3 94.4 5 C 94.2 4.7 94.2 4.5 94.2 4.2 C 94.2 3.9 94.2 3.6 94.3 3.4 C 94.5 3.2 94.6 3 94.9 2.8 C 95 2.7 95.3 2.6 95.5 2.5 C 95.8 2.4 96.1 2.4 96.4 2.4 C 96.9 2.4 97.4 2.4 97.7 2.6 C 98.1 2.7 98.4 2.9 98.5 3.2 C 98.7 3.4 98.8 3.7 98.9 4.1 C 98.9 4.1 97.9 4.3 97.9 4.3 C 97.8 3.9 97.7 3.7 97.5 3.5 C 97.2 3.3 96.9 3.2 96.5 3.2 C 96 3.2 95.7 3.3 95.5 3.5 C 95.3 3.6 95.2 3.8 95.2 4 C 95.2 4.2 95.2 4.3 95.3 4.4 C 95.4 4.5 95.5 4.6 95.7 4.7 C 95.8 4.7 96.1 4.8 96.6 5 C 97.4 5.2 97.9 5.3 98.2 5.5 C 98.5 5.6 98.7 5.8 98.9 6 C 99.1 6.2 99.1 6.5 99.1 6.9 C 99.1 7.3 99 7.6 98.8 7.9 C 98.6 8.2 98.3 8.5 98 8.6 C 97.6 8.8 97.1 8.9 96.6 8.9 C 95.8 8.9 95.2 8.7 94.8 8.4 C 94.4 8 94.1 7.5 94 6.9 Z M 104.5 8.7 C 104.5 8.7 104.48 7.82 104.5 7.8 C 104 8.5 103.3 8.9 102.5 8.9 C 102.1 8.9 101.8 8.8 101.5 8.7 C 101.2 8.5 100.9 8.3 100.8 8.1 C 100.6 7.9 100.5 7.7 100.4 7.4 C 100.4 7.1 100.4 6.8 100.4 6.4 C 100.38 6.37 100.4 2.5 100.4 2.5 L 101.4 2.5 C 101.4 2.5 101.43 5.96 101.4 6 C 101.4 6.5 101.5 6.9 101.5 7.1 C 101.6 7.4 101.7 7.6 101.9 7.7 C 102.1 7.9 102.4 8 102.7 8 C 103 8 103.3 7.9 103.6 7.7 C 103.9 7.6 104.1 7.3 104.2 7.1 C 104.3 6.8 104.4 6.4 104.4 5.8 C 104.37 5.85 104.4 2.5 104.4 2.5 L 105.4 2.5 L 105.4 8.7 L 104.5 8.7 Z M 107.1 8.7 L 107.1 0.1 L 108.1 0.1 L 108.1 8.7 L 107.1 8.7 Z M 111.6 7.8 C 111.7 7.8 111.9 7.8 112 7.8 C 112 7.8 112.2 8.7 112.2 8.7 C 111.9 8.8 111.6 8.8 111.4 8.8 C 111 8.8 110.7 8.8 110.5 8.6 C 110.3 8.5 110.1 8.4 110.1 8.2 C 110 8 109.9 7.5 109.9 6.9 C 109.93 6.91 109.9 3.3 109.9 3.3 L 109.2 3.3 L 109.2 2.5 L 109.9 2.5 L 109.9 1 L 111 0.3 L 111 2.5 L 112 2.5 L 112 3.3 L 111 3.3 C 111 3.3 110.98 6.97 111 7 C 111 7.3 111 7.5 111 7.6 C 111.1 7.6 111.1 7.7 111.2 7.8 C 111.3 7.8 111.4 7.8 111.6 7.8 C 111.6 7.8 111.6 7.8 111.6 7.8 Z M 112.7 6.9 C 112.7 6.9 113.7 6.7 113.7 6.7 C 113.8 7.1 113.9 7.5 114.2 7.7 C 114.5 7.9 114.8 8 115.3 8 C 115.8 8 116.2 7.9 116.4 7.7 C 116.6 7.5 116.7 7.3 116.7 7 C 116.7 6.8 116.6 6.6 116.4 6.5 C 116.3 6.4 115.9 6.2 115.3 6.1 C 114.6 5.9 114 5.7 113.7 5.6 C 113.4 5.5 113.2 5.3 113.1 5 C 112.9 4.7 112.8 4.5 112.8 4.2 C 112.8 3.9 112.9 3.6 113 3.4 C 113.1 3.2 113.3 3 113.5 2.8 C 113.7 2.7 113.9 2.6 114.2 2.5 C 114.5 2.4 114.8 2.4 115.1 2.4 C 115.6 2.4 116 2.4 116.4 2.6 C 116.8 2.7 117 2.9 117.2 3.2 C 117.4 3.4 117.5 3.7 117.6 4.1 C 117.6 4.1 116.6 4.3 116.6 4.3 C 116.5 3.9 116.4 3.7 116.1 3.5 C 115.9 3.3 115.6 3.2 115.2 3.2 C 114.7 3.2 114.4 3.3 114.2 3.5 C 114 3.6 113.8 3.8 113.8 4 C 113.8 4.2 113.9 4.3 114 4.4 C 114.1 4.5 114.2 4.6 114.4 4.7 C 114.5 4.7 114.8 4.8 115.3 5 C 116.1 5.2 116.6 5.3 116.9 5.5 C 117.2 5.6 117.4 5.8 117.6 6 C 117.7 6.2 117.8 6.5 117.8 6.9 C 117.8 7.3 117.7 7.6 117.5 7.9 C 117.3 8.2 117 8.5 116.6 8.6 C 116.2 8.8 115.8 8.9 115.3 8.9 C 114.5 8.9 113.9 8.7 113.5 8.4 C 113 8 112.8 7.5 112.7 6.9 Z " stroke="none" fill="#000"/>  </g></svg>