<?xml version="1.0" standalone="no"?><!DOCTYPE svg PUBLIC "-//W3C//DTD SVG 1.1//EN" "http://www.w3.org/Graphics/SVG/1.1/DTD/svg11.dtd"><svg xmlns="http://www.w3.org/2000/svg" version="1.1" width="1174px" height="90.3px" viewBox="0 -14 1174 90.3" style="top:-14px">  <desc>Bespoke and Collaborative Approach</desc>  <defs/>  <g id="Polygon21386">    <path d="M 15.2 2.8 C 22.8 2.8 27.8 6.7 27.8 13.3 C 27.8 17.6 25.4 20.8 21.1 22.3 C 27.4 23.2 31.3 27.4 31.3 32.8 C 31.3 40.3 24.6 43.7 17.1 43.7 C 17.1 43.74 4.6 43.7 4.6 43.7 L 4.6 2.8 C 4.6 2.8 15.18 2.82 15.2 2.8 Z M 9.1 21 C 9.1 21 13.56 21 13.6 21 C 20.3 21 23.2 17.9 23.2 13.7 C 23.2 8.9 20.3 6.8 14.3 6.8 C 14.28 6.78 9.1 6.8 9.1 6.8 L 9.1 21 Z M 16.3 39.8 C 22.8 39.8 26.6 37.6 26.6 32.4 C 26.6 27.7 23.3 24.9 15.6 24.9 C 15.6 24.9 9.1 24.9 9.1 24.9 L 9.1 39.8 C 9.1 39.8 16.26 39.78 16.3 39.8 Z M 60.4 2.8 L 60.4 6.8 L 42.5 6.8 L 42.5 21.1 L 59.8 21.1 L 59.8 25.1 L 42.5 25.1 L 42.5 39.7 L 60.9 39.7 L 60.9 43.7 L 38 43.7 L 38 2.8 L 60.4 2.8 Z M 87.1 4.9 C 87.1 4.9 87.1 10 87.1 10 C 84.3 7.6 81.2 6.4 77.9 6.4 C 73.6 6.4 70.7 8.8 70.7 12.3 C 70.7 15 71.4 17.3 78.2 20.8 C 86.6 25.1 88.7 28.1 88.7 33.7 C 88.7 39.7 84 44.3 77 44.3 C 73.1 44.3 69.5 43 66.4 40.7 C 66.4 40.7 66.4 35 66.4 35 C 69.4 38.4 73 40.3 77 40.3 C 81.1 40.3 84.1 37.7 84.1 33.7 C 84.1 30.2 83 28.2 75.1 24.1 C 68.6 20.8 66.2 17.6 66.2 12.4 C 66.2 6.6 71.2 2.3 78 2.3 C 81.2 2.3 84.4 3.2 87.1 4.9 Z M 107.3 2.8 C 115.5 2.8 120.5 7 120.5 14.1 C 120.5 21.7 115.3 25.3 106.6 25.3 C 106.56 25.32 100.2 25.3 100.2 25.3 L 100.2 43.7 L 95.7 43.7 L 95.7 2.8 C 95.7 2.8 107.34 2.82 107.3 2.8 Z M 100.2 21.4 C 100.2 21.4 106.44 21.36 106.4 21.4 C 113.3 21.4 115.9 18.7 115.9 14 C 115.9 9.4 113.1 6.8 106.4 6.8 C 106.44 6.78 100.2 6.8 100.2 6.8 L 100.2 21.4 Z M 168.2 23.1 C 168.2 34.6 159.8 44.3 146.3 44.3 C 133.6 44.3 125 34.6 125 23.5 C 125 12.1 133.2 2.3 146.5 2.3 C 159.5 2.3 168.2 11.8 168.2 23.1 Z M 129.7 23.3 C 129.7 33 137.2 40.1 146.3 40 C 158.5 40 163.5 30.6 163.5 23.2 C 163.5 14.9 157.4 6.5 146.7 6.5 C 135.5 6.5 129.7 15 129.7 23.3 Z M 180.1 2.8 L 180.1 22 L 198 2.8 L 203.6 2.8 L 185.3 22.5 L 207.2 43.7 L 201.1 43.7 L 180.1 23.4 L 180.1 43.7 L 175.6 43.7 L 175.6 2.8 L 180.1 2.8 Z M 234.1 2.8 L 234.1 6.8 L 216.2 6.8 L 216.2 21.1 L 233.5 21.1 L 233.5 25.1 L 216.2 25.1 L 216.2 39.7 L 234.5 39.7 L 234.5 43.7 L 211.7 43.7 L 211.7 2.8 L 234.1 2.8 Z M 274.9 2.6 L 293.1 43.7 L 288.5 43.7 L 282.7 30.9 L 264.1 30.9 L 258.6 43.7 L 254 43.7 L 271.7 2.6 L 274.9 2.6 Z M 265.9 26.9 L 280.9 26.9 L 273.2 9.5 L 265.9 26.9 Z M 301.5 2.8 L 330.5 36.7 L 330.5 2.8 L 334.8 2.8 L 334.8 43.7 L 330.8 43.7 L 302.1 10 L 302.1 43.7 L 297.8 43.7 L 297.8 2.8 L 301.5 2.8 Z M 344 2.8 C 344 2.8 359.04 2.82 359 2.8 C 372.4 2.8 381.1 11.2 381.1 22.9 C 381.1 35.6 372.1 43.7 359 43.7 C 359.04 43.74 344 43.7 344 43.7 L 344 2.8 Z M 359 39.7 C 369.7 39.7 376.4 33.3 376.4 23.2 C 376.4 13.3 369.9 6.8 358.3 6.8 C 358.32 6.84 348.5 6.8 348.5 6.8 L 348.5 39.7 C 348.5 39.7 358.98 39.66 359 39.7 Z M 439 5.5 C 439 5.5 439 10.4 439 10.4 C 434.7 7.9 430 6.5 425.2 6.5 C 414.7 6.5 408.1 14.3 408.1 23.3 C 408.1 32.5 414.7 40.1 425.1 40.1 C 430.2 40.1 434.9 38.6 439.3 35.9 C 439.3 35.9 439.3 40.9 439.3 40.9 C 434.8 43.2 430 44.3 425 44.3 C 410.8 44.3 403.4 33.7 403.4 23.5 C 403.4 11.3 412.8 2.3 425.1 2.3 C 429.7 2.3 434.4 3.4 439 5.5 Z M 486.3 23.1 C 486.3 34.6 477.9 44.3 464.4 44.3 C 451.7 44.3 443.2 34.6 443.2 23.5 C 443.2 12.1 451.3 2.3 464.6 2.3 C 477.7 2.3 486.3 11.8 486.3 23.1 Z M 447.8 23.3 C 447.8 33 455.3 40.1 464.5 40 C 476.6 40 481.6 30.6 481.6 23.2 C 481.6 14.9 475.5 6.5 464.8 6.5 C 453.7 6.5 447.8 15 447.8 23.3 Z M 498.2 2.8 L 498.2 39.6 L 517.4 39.6 L 517.4 43.7 L 493.7 43.7 L 493.7 2.8 L 498.2 2.8 Z M 527.2 2.8 L 527.2 39.6 L 546.4 39.6 L 546.4 43.7 L 522.7 43.7 L 522.7 2.8 L 527.2 2.8 Z M 569 2.6 L 587.2 43.7 L 582.6 43.7 L 576.8 30.9 L 558.2 30.9 L 552.7 43.7 L 548.1 43.7 L 565.8 2.6 L 569 2.6 Z M 560 26.9 L 575 26.9 L 567.3 9.5 L 560 26.9 Z M 602.5 2.8 C 610.1 2.8 615.1 6.7 615.1 13.3 C 615.1 17.6 612.7 20.8 608.3 22.3 C 614.7 23.2 618.6 27.4 618.6 32.8 C 618.6 40.3 611.9 43.7 604.4 43.7 C 604.38 43.74 591.9 43.7 591.9 43.7 L 591.9 2.8 C 591.9 2.8 602.46 2.82 602.5 2.8 Z M 596.3 21 C 596.3 21 600.84 21 600.8 21 C 607.6 21 610.4 17.9 610.4 13.7 C 610.4 8.9 607.6 6.8 601.6 6.8 C 601.56 6.78 596.3 6.8 596.3 6.8 L 596.3 21 Z M 603.5 39.8 C 610.1 39.8 613.9 37.6 613.9 32.4 C 613.9 27.7 610.6 24.9 602.9 24.9 C 602.88 24.9 596.3 24.9 596.3 24.9 L 596.3 39.8 C 596.3 39.8 603.54 39.78 603.5 39.8 Z M 665.9 23.1 C 665.9 34.6 657.5 44.3 644 44.3 C 631.3 44.3 622.8 34.6 622.8 23.5 C 622.8 12.1 631 2.3 644.2 2.3 C 657.3 2.3 665.9 11.8 665.9 23.1 Z M 627.4 23.3 C 627.4 33 634.9 40.1 644.1 40 C 656.3 40 661.3 30.6 661.3 23.2 C 661.3 14.9 655.1 6.5 644.5 6.5 C 633.3 6.5 627.4 15 627.4 23.3 Z M 673.3 2.8 C 673.3 2.8 684.05 2.82 684.1 2.8 C 692.3 2.8 696.5 7.6 696.5 13.8 C 696.5 18.9 693.8 22.4 688.8 23.9 C 691.4 25.3 692.6 26.3 696 31.5 C 695.99 31.5 703.9 43.7 703.9 43.7 L 698.6 43.7 C 698.6 43.7 691.37 32.46 691.4 32.5 C 687.6 26.5 685.1 25.1 681.6 25.1 C 681.59 25.14 677.8 25.1 677.8 25.1 L 677.8 43.7 L 673.3 43.7 L 673.3 2.8 Z M 682 21.2 C 687.7 21.2 691.9 19.8 691.9 13.9 C 691.9 8.8 688.7 6.8 683.5 6.8 C 683.45 6.78 677.8 6.8 677.8 6.8 L 677.8 21.2 C 677.8 21.2 682.01 21.18 682 21.2 Z M 724.8 2.6 L 743 43.7 L 738.4 43.7 L 732.7 30.9 L 714.1 30.9 L 708.5 43.7 L 703.9 43.7 L 721.6 2.6 L 724.8 2.6 Z M 715.8 26.9 L 730.9 26.9 L 723.1 9.5 L 715.8 26.9 Z M 772.6 2.8 L 772.6 6.8 L 757.9 6.8 L 757.9 43.7 L 753.4 43.7 L 753.4 6.8 L 739 6.8 L 739 2.8 L 772.6 2.8 Z M 782.6 2.8 L 782.6 43.7 L 778.1 43.7 L 778.1 2.8 L 782.6 2.8 Z M 787.3 2.8 L 791.8 2.8 L 805.1 34.7 L 805.1 34.7 L 818.4 2.8 L 822.9 2.8 L 805.6 44.2 L 804.6 44.2 L 787.3 2.8 Z M 850 2.8 L 850 6.8 L 832.1 6.8 L 832.1 21.1 L 849.4 21.1 L 849.4 25.1 L 832.1 25.1 L 832.1 39.7 L 850.4 39.7 L 850.4 43.7 L 827.6 43.7 L 827.6 2.8 L 850 2.8 Z M 890.8 2.6 L 909 43.7 L 904.4 43.7 L 898.6 30.9 L 880 30.9 L 874.5 43.7 L 869.9 43.7 L 887.6 2.6 L 890.8 2.6 Z M 881.8 26.9 L 896.8 26.9 L 889.1 9.5 L 881.8 26.9 Z M 925.3 2.8 C 933.5 2.8 938.5 7 938.5 14.1 C 938.5 21.7 933.3 25.3 924.5 25.3 C 924.53 25.32 918.2 25.3 918.2 25.3 L 918.2 43.7 L 913.7 43.7 L 913.7 2.8 C 913.7 2.8 925.31 2.82 925.3 2.8 Z M 918.2 21.4 C 918.2 21.4 924.41 21.36 924.4 21.4 C 931.3 21.4 933.8 18.7 933.8 14 C 933.8 9.4 931.1 6.8 924.4 6.8 C 924.41 6.78 918.2 6.8 918.2 6.8 L 918.2 21.4 Z M 956.5 2.8 C 964.6 2.8 969.6 7 969.6 14.1 C 969.6 21.7 964.4 25.3 955.7 25.3 C 955.67 25.32 949.3 25.3 949.3 25.3 L 949.3 43.7 L 944.8 43.7 L 944.8 2.8 C 944.8 2.8 956.45 2.82 956.5 2.8 Z M 949.3 21.4 C 949.3 21.4 955.55 21.36 955.6 21.4 C 962.5 21.4 965 18.7 965 14 C 965 9.4 962.2 6.8 955.6 6.8 C 955.55 6.78 949.3 6.8 949.3 6.8 L 949.3 21.4 Z M 976 2.8 C 976 2.8 986.69 2.82 986.7 2.8 C 994.9 2.8 999.2 7.6 999.2 13.8 C 999.2 18.9 996.4 22.4 991.4 23.9 C 994.1 25.3 995.3 26.3 998.6 31.5 C 998.63 31.5 1006.6 43.7 1006.6 43.7 L 1001.2 43.7 C 1001.2 43.7 994.01 32.46 994 32.5 C 990.2 26.5 987.7 25.1 984.2 25.1 C 984.23 25.14 980.5 25.1 980.5 25.1 L 980.5 43.7 L 976 43.7 L 976 2.8 Z M 984.7 21.2 C 990.3 21.2 994.6 19.8 994.6 13.9 C 994.6 8.8 991.3 6.8 986.1 6.8 C 986.09 6.78 980.5 6.8 980.5 6.8 L 980.5 21.2 C 980.5 21.2 984.65 21.18 984.7 21.2 Z M 1051.2 23.1 C 1051.2 34.6 1042.8 44.3 1029.3 44.3 C 1016.6 44.3 1008.1 34.6 1008.1 23.5 C 1008.1 12.1 1016.2 2.3 1029.5 2.3 C 1042.6 2.3 1051.2 11.8 1051.2 23.1 Z M 1012.7 23.3 C 1012.7 33 1020.2 40.1 1029.4 40 C 1041.5 40 1046.5 30.6 1046.5 23.2 C 1046.5 14.9 1040.4 6.5 1029.7 6.5 C 1018.6 6.5 1012.7 15 1012.7 23.3 Z M 1073.2 2.6 L 1091.4 43.7 L 1086.8 43.7 L 1081 30.9 L 1062.4 30.9 L 1056.9 43.7 L 1052.3 43.7 L 1070 2.6 L 1073.2 2.6 Z M 1064.2 26.9 L 1079.2 26.9 L 1071.5 9.5 L 1064.2 26.9 Z M 1128.1 5.5 C 1128.1 5.5 1128.1 10.4 1128.1 10.4 C 1123.7 7.9 1119 6.5 1114.2 6.5 C 1103.8 6.5 1097.2 14.3 1097.2 23.3 C 1097.2 32.5 1103.7 40.1 1114.1 40.1 C 1119.2 40.1 1124 38.6 1128.4 35.9 C 1128.4 35.9 1128.4 40.9 1128.4 40.9 C 1123.8 43.2 1119.1 44.3 1114 44.3 C 1099.9 44.3 1092.5 33.7 1092.5 23.5 C 1092.5 11.3 1101.8 2.3 1114.1 2.3 C 1118.8 2.3 1123.4 3.4 1128.1 5.5 Z M 1139.9 2.8 L 1139.9 21.1 L 1164.8 21.1 L 1164.8 2.8 L 1169.3 2.8 L 1169.3 43.7 L 1164.8 43.7 L 1164.8 25.2 L 1139.9 25.2 L 1139.9 43.7 L 1135.4 43.7 L 1135.4 2.8 L 1139.9 2.8 Z " stroke="none" fill="#010102"/>  </g></svg>