<?xml version="1.0" standalone="no"?><!DOCTYPE svg PUBLIC "-//W3C//DTD SVG 1.1//EN" "http://www.w3.org/Graphics/SVG/1.1/DTD/svg11.dtd"><svg xmlns="http://www.w3.org/2000/svg" version="1.1" width="536px" height="91.3px" viewBox="0 -15 536 91.3" style="top:-15px">  <desc>Client Feedback</desc>  <defs/>  <g id="Polygon5098">    <path d="M 39.9 5.5 C 39.9 5.5 39.9 13.3 39.9 13.3 C 35.4 10.6 30.8 9.1 26 9.1 C 16.3 9.1 10.8 16 10.8 23.4 C 10.8 30.9 16.3 37.5 25.9 37.5 C 31 37.5 35.8 35.9 40.2 33 C 40.2 33 40.2 40.7 40.2 40.7 C 35.5 43.2 30.5 44.3 25 44.3 C 10.3 44.3 2.6 33.9 2.6 23.3 C 2.6 10.9 12.5 2.3 25.1 2.3 C 29.8 2.3 34.7 3.3 39.9 5.5 Z M 55.5 2.8 L 55.5 37 L 74 37 L 74 43.7 L 47.5 43.7 L 47.5 2.8 L 55.5 2.8 Z M 87.4 2.8 L 87.4 43.7 L 79.4 43.7 L 79.4 2.8 L 87.4 2.8 Z M 121.7 2.8 L 121.7 9 L 104.2 9 L 104.2 19.9 L 121 19.9 L 121 26 L 104.2 26 L 104.2 37.5 L 122.2 37.5 L 122.2 43.7 L 96.2 43.7 L 96.2 2.8 L 121.7 2.8 Z M 136.4 2.8 L 161.8 31.7 L 161.8 2.8 L 169.6 2.8 L 169.6 43.7 L 162.6 43.7 L 137.4 15.1 L 137.4 43.7 L 129.7 43.7 L 129.7 2.8 L 136.4 2.8 Z M 211.7 2.8 L 211.7 9.5 L 197.3 9.5 L 197.3 43.7 L 189.4 43.7 L 189.4 9.5 L 175 9.5 L 175 2.8 L 211.7 2.8 Z M 257.2 2.8 L 257.2 9.1 L 240.9 9.1 L 240.9 19.3 L 257.2 19.3 L 257.2 25.5 L 240.9 25.5 L 240.9 43.7 L 233 43.7 L 233 2.8 L 257.2 2.8 Z M 289.2 2.8 L 289.2 9 L 271.7 9 L 271.7 19.9 L 288.5 19.9 L 288.5 26 L 271.7 26 L 271.7 37.5 L 289.7 37.5 L 289.7 43.7 L 263.8 43.7 L 263.8 2.8 L 289.2 2.8 Z M 322.6 2.8 L 322.6 9 L 305.1 9 L 305.1 19.9 L 322 19.9 L 322 26 L 305.1 26 L 305.1 37.5 L 323.2 37.5 L 323.2 43.7 L 297.2 43.7 L 297.2 2.8 L 322.6 2.8 Z M 347 2.8 C 361.4 2.8 369.5 11.3 369.5 23 C 369.5 35.7 361.1 43.7 347.2 43.7 C 347.22 43.74 330.6 43.7 330.6 43.7 L 330.6 2.8 C 330.6 2.8 346.98 2.82 347 2.8 Z M 346.6 37.4 C 356.2 37.4 361.4 32.3 361.4 23.2 C 361.4 14.5 356.3 9 346 9 C 346.02 9 338.5 9 338.5 9 L 338.5 37.4 C 338.5 37.4 346.62 37.44 346.6 37.4 Z M 391 2.8 C 399.5 2.8 404.2 7 404.2 13.1 C 404.2 17.2 401.9 20.3 398.2 21.8 C 404.3 23.3 407.5 27.4 407.5 32.5 C 407.5 41 400 43.7 391.9 43.7 C 391.86 43.74 376.6 43.7 376.6 43.7 L 376.6 2.8 C 376.6 2.8 391.02 2.82 391 2.8 Z M 384.5 20.2 C 384.5 20.2 388.74 20.16 388.7 20.2 C 394.1 20.2 396.4 17.8 396.4 14.2 C 396.4 10.3 394.3 8.5 389.5 8.5 C 389.46 8.52 384.5 8.5 384.5 8.5 L 384.5 20.2 Z M 390.4 38 C 396.5 38 399.5 36.1 399.5 31.9 C 399.5 28.1 396.7 25.8 390.2 25.8 C 390.18 25.8 384.5 25.8 384.5 25.8 L 384.5 38 C 384.5 38 390.36 38.04 390.4 38 Z M 434.7 2.6 L 452.9 43.7 L 444.8 43.7 L 440 32.9 L 422.5 32.9 L 418 43.7 L 409.9 43.7 L 427.6 2.6 L 434.7 2.6 Z M 425 27 L 437.5 27 L 431.1 12.2 L 425 27 Z M 491 5.5 C 491 5.5 491 13.3 491 13.3 C 486.5 10.6 481.9 9.1 477.1 9.1 C 467.4 9.1 461.9 16 461.9 23.4 C 461.9 30.9 467.4 37.5 476.9 37.5 C 482.1 37.5 486.8 35.9 491.3 33 C 491.3 33 491.3 40.7 491.3 40.7 C 486.6 43.2 481.6 44.3 476 44.3 C 461.3 44.3 453.7 33.9 453.7 23.3 C 453.7 10.9 463.6 2.3 476.2 2.3 C 480.8 2.3 485.8 3.3 491 5.5 Z M 506.6 2.8 L 506.6 21.6 L 523 2.8 L 532.2 2.8 L 515.3 22.1 L 536 43.7 L 525.7 43.7 L 506.6 23.7 L 506.6 43.7 L 498.6 43.7 L 498.6 2.8 L 506.6 2.8 Z " stroke="none" fill="#010102"/>  </g></svg>