<?xml version="1.0" standalone="no"?><!DOCTYPE svg PUBLIC "-//W3C//DTD SVG 1.1//EN" "http://www.w3.org/Graphics/SVG/1.1/DTD/svg11.dtd"><svg xmlns="http://www.w3.org/2000/svg" version="1.1" width="73.5px" height="27.5px" viewBox="0 -1 73.5 27.5" style="top:-1px">  <desc>Flexibility</desc>  <defs/>  <g id="Polygon54380">    <path d="M 13.1 15.9 L 13.1 7.3 L 18.9 7.3 L 18.9 8.4 L 14.2 8.4 L 14.2 11 L 18.2 11 L 18.2 12 L 14.2 12 L 14.2 15.9 L 13.1 15.9 Z M 20.2 15.9 L 20.2 7.3 L 21.2 7.3 L 21.2 15.9 L 20.2 15.9 Z M 27.1 13.9 C 27.1 13.9 28.2 14.1 28.2 14.1 C 28 14.7 27.7 15.2 27.3 15.5 C 26.8 15.9 26.2 16.1 25.5 16.1 C 24.6 16.1 23.8 15.8 23.3 15.2 C 22.8 14.7 22.5 13.9 22.5 12.9 C 22.5 11.8 22.8 11 23.3 10.4 C 23.9 9.9 24.6 9.6 25.4 9.6 C 26.2 9.6 26.9 9.9 27.5 10.4 C 28 11 28.2 11.8 28.2 12.8 C 28.2 12.9 28.2 13 28.2 13.1 C 28.2 13.1 23.6 13.1 23.6 13.1 C 23.6 13.8 23.8 14.3 24.2 14.7 C 24.5 15 25 15.2 25.5 15.2 C 25.9 15.2 26.2 15.1 26.5 14.9 C 26.7 14.7 27 14.4 27.1 13.9 Z M 23.7 12.2 C 23.7 12.2 27.1 12.2 27.1 12.2 C 27.1 11.7 27 11.3 26.7 11 C 26.4 10.6 26 10.4 25.4 10.4 C 24.9 10.4 24.5 10.6 24.2 10.9 C 23.9 11.3 23.7 11.7 23.7 12.2 Z M 28.8 15.9 L 31.1 12.7 L 29 9.7 L 30.3 9.7 C 30.3 9.7 31.27 11.17 31.3 11.2 C 31.5 11.5 31.6 11.7 31.7 11.9 C 31.9 11.6 32 11.4 32.2 11.2 C 32.18 11.18 33.2 9.7 33.2 9.7 L 34.5 9.7 L 32.3 12.6 L 34.7 15.9 L 33.4 15.9 L 32.1 14 L 31.7 13.5 L 30.1 15.9 L 28.8 15.9 Z M 35.5 8.6 L 35.5 7.3 L 36.6 7.3 L 36.6 8.6 L 35.5 8.6 Z M 35.5 15.9 L 35.5 9.7 L 36.6 9.7 L 36.6 15.9 L 35.5 15.9 Z M 39.2 15.9 L 38.2 15.9 L 38.2 7.3 L 39.2 7.3 C 39.2 7.3 39.25 10.41 39.2 10.4 C 39.7 9.9 40.3 9.6 41 9.6 C 41.3 9.6 41.7 9.7 42 9.8 C 42.4 10 42.7 10.2 42.9 10.5 C 43.1 10.7 43.3 11.1 43.4 11.5 C 43.5 11.9 43.6 12.3 43.6 12.7 C 43.6 13.8 43.3 14.6 42.8 15.2 C 42.3 15.8 41.6 16.1 40.9 16.1 C 40.2 16.1 39.6 15.8 39.2 15.2 C 39.17 15.16 39.2 15.9 39.2 15.9 Z M 39.2 12.8 C 39.2 13.5 39.3 14.1 39.5 14.4 C 39.8 14.9 40.2 15.2 40.8 15.2 C 41.3 15.2 41.7 15 42 14.6 C 42.3 14.2 42.5 13.6 42.5 12.8 C 42.5 12 42.3 11.4 42 11 C 41.7 10.6 41.3 10.4 40.9 10.4 C 40.4 10.4 40 10.6 39.7 11 C 39.3 11.4 39.2 12 39.2 12.8 Z M 44.9 8.6 L 44.9 7.3 L 45.9 7.3 L 45.9 8.6 L 44.9 8.6 Z M 44.9 15.9 L 44.9 9.7 L 45.9 9.7 L 45.9 15.9 L 44.9 15.9 Z M 47.5 15.9 L 47.5 7.3 L 48.6 7.3 L 48.6 15.9 L 47.5 15.9 Z M 50.2 8.6 L 50.2 7.3 L 51.3 7.3 L 51.3 8.6 L 50.2 8.6 Z M 50.2 15.9 L 50.2 9.7 L 51.3 9.7 L 51.3 15.9 L 50.2 15.9 Z M 54.7 15 C 54.8 15 55 15 55.2 15 C 55.2 15 55.3 15.9 55.3 15.9 C 55 16 54.8 16 54.5 16 C 54.1 16 53.8 16 53.6 15.8 C 53.4 15.7 53.3 15.6 53.2 15.4 C 53.1 15.2 53.1 14.7 53.1 14.1 C 53.06 14.11 53.1 10.5 53.1 10.5 L 52.3 10.5 L 52.3 9.7 L 53.1 9.7 L 53.1 8.2 L 54.1 7.5 L 54.1 9.7 L 55.2 9.7 L 55.2 10.5 L 54.1 10.5 C 54.1 10.5 54.11 14.17 54.1 14.2 C 54.1 14.5 54.1 14.7 54.2 14.8 C 54.2 14.8 54.3 14.9 54.3 15 C 54.4 15 54.6 15 54.7 15 C 54.7 15 54.7 15 54.7 15 Z M 56.8 18.5 C 56.6 18.5 56.4 18.4 56.2 18.3 C 56.2 18.3 56 17.3 56 17.3 C 56.3 17.4 56.5 17.4 56.6 17.4 C 56.9 17.4 57.1 17.4 57.2 17.3 C 57.3 17.2 57.5 17.1 57.6 17 C 57.6 16.9 57.7 16.6 57.9 16.2 C 57.9 16.1 57.9 16.1 58 15.9 C 57.97 15.95 55.6 9.7 55.6 9.7 L 56.7 9.7 C 56.7 9.7 58.04 13.32 58 13.3 C 58.2 13.8 58.4 14.3 58.5 14.8 C 58.6 14.3 58.8 13.8 58.9 13.3 C 58.92 13.34 60.3 9.7 60.3 9.7 L 61.3 9.7 C 61.3 9.7 58.94 16.04 58.9 16 C 58.7 16.7 58.5 17.2 58.3 17.5 C 58.2 17.8 57.9 18.1 57.7 18.2 C 57.5 18.4 57.2 18.5 56.8 18.5 C 56.8 18.5 56.8 18.5 56.8 18.5 Z " stroke="none" fill="#000"/>  </g></svg>