<?xml version="1.0" standalone="no"?><!DOCTYPE svg PUBLIC "-//W3C//DTD SVG 1.1//EN" "http://www.w3.org/Graphics/SVG/1.1/DTD/svg11.dtd"><svg xmlns="http://www.w3.org/2000/svg" version="1.1" width="53px" height="82.1px" viewBox="0 -8 53 82.1" style="top:-8px">  <desc>NPS 81</desc>  <defs/>  <g id="Polygon47487">    <path d="M 1.7 42.7 C 1.7 39.5 4.4 37.1 7.6 37.1 C 10.9 37.1 13.4 39.6 13.4 42.7 C 13.4 44.6 12.5 46.3 10.6 47.4 C 12.6 48.3 13.8 50 13.8 52.3 C 13.8 55.7 11.1 58.1 7.5 58.1 C 3.7 58.1 1.2 55.4 1.2 52.3 C 1.2 50.2 2.3 48.3 4.5 47.4 C 2.4 46 1.7 44.5 1.7 42.7 Z M 7.6 46.3 C 9.5 46.3 11.2 44.9 11.2 42.8 C 11.2 40.8 9.7 39.3 7.5 39.3 C 5.5 39.3 3.9 40.7 3.9 42.7 C 3.9 44.9 5.7 46.3 7.6 46.3 Z M 7.5 56 C 9.9 56 11.5 54.4 11.5 52.2 C 11.5 50.1 9.9 48.5 7.4 48.5 C 5.1 48.5 3.5 50.1 3.5 52.2 C 3.5 54.4 5.1 56 7.5 56 Z M 24.8 37.1 L 24.8 57.9 L 22.5 57.9 L 22.5 40.9 L 18.5 44.1 L 17.3 42.5 L 23.9 37.1 L 24.8 37.1 Z " stroke="none" fill="#010102"/>  </g>  <g id="Polygon47486">    <path d="M 4.2 1.4 L 18.7 18.3 L 18.7 1.4 L 20.8 1.4 L 20.8 21.9 L 18.8 21.9 L 4.5 5 L 4.5 21.9 L 2.3 21.9 L 2.3 1.4 L 4.2 1.4 Z M 31.2 1.4 C 35.3 1.4 37.8 3.5 37.8 7 C 37.8 10.9 35.2 12.7 30.8 12.7 C 30.84 12.66 27.7 12.7 27.7 12.7 L 27.7 21.9 L 25.4 21.9 L 25.4 1.4 C 25.4 1.4 31.23 1.41 31.2 1.4 Z M 27.7 10.7 C 27.7 10.7 30.78 10.68 30.8 10.7 C 34.2 10.7 35.5 9.3 35.5 7 C 35.5 4.7 34.1 3.4 30.8 3.4 C 30.78 3.39 27.7 3.4 27.7 3.4 L 27.7 10.7 Z M 50.5 2.5 C 50.5 2.5 50.5 5 50.5 5 C 49 3.8 47.5 3.2 45.8 3.2 C 43.7 3.2 42.3 4.4 42.3 6.1 C 42.3 7.5 42.6 8.7 46 10.4 C 50.2 12.6 51.2 14 51.2 16.8 C 51.2 19.9 48.9 22.1 45.4 22.1 C 43.4 22.1 41.6 21.5 40.1 20.3 C 40.1 20.3 40.1 17.5 40.1 17.5 C 41.6 19.2 43.4 20.1 45.4 20.1 C 47.5 20.1 49 18.8 49 16.9 C 49 15.1 48.4 14.1 44.4 12 C 41.2 10.4 40 8.8 40 6.2 C 40 3.3 42.5 1.1 45.9 1.1 C 47.5 1.1 49.1 1.6 50.5 2.5 Z " stroke="none" fill="#010102"/>  </g></svg>