<?xml version="1.0" standalone="no"?><!DOCTYPE svg PUBLIC "-//W3C//DTD SVG 1.1//EN" "http://www.w3.org/Graphics/SVG/1.1/DTD/svg11.dtd"><svg xmlns="http://www.w3.org/2000/svg" version="1.1" width="143.4px" height="98.4px" viewBox="0 -4 143.4 98.4" style="top:-4px">  <desc>EPA Timely Delivery Guaranteed</desc>  <defs/>  <g id="Polygon45633">    <path d="M 12.8 71.8 C 11.3 70.9 9.6 70.5 8.1 70.5 C 4.9 70.5 2.5 72.9 2.5 76.1 C 2.5 79.4 4.8 81.8 8.2 81.8 C 9.4 81.8 10.2 81.6 11.6 81.1 C 11.58 81.07 11.6 77.8 11.6 77.8 L 8.8 77.8 L 8.8 76.4 L 13.1 76.4 C 13.1 76.4 13.08 81.99 13.1 82 C 11.5 82.8 10 83.1 8.2 83.1 C 3.3 83.1 0.9 79.7 0.9 76.2 C 0.9 72.3 3.8 69.1 8.2 69.1 C 9.7 69.1 11 69.4 12.8 70.2 C 12.8 70.2 12.8 71.8 12.8 71.8 Z M 17.3 69.3 C 17.3 69.3 17.26 77.15 17.3 77.2 C 17.3 80.2 18.7 81.8 21.5 81.8 C 24.3 81.8 25.7 80.1 25.7 77.2 C 25.7 77.15 25.7 69.3 25.7 69.3 L 27.2 69.3 C 27.2 69.3 27.2 77.15 27.2 77.2 C 27.2 80.7 25.3 83.1 21.5 83.1 C 17.8 83.1 15.8 81 15.8 77.2 C 15.76 77.15 15.8 69.3 15.8 69.3 L 17.3 69.3 Z M 35 69.2 L 41.1 82.9 L 39.6 82.9 L 37.7 78.7 L 31.5 78.7 L 29.6 82.9 L 28.1 82.9 L 34 69.2 L 35 69.2 Z M 32 77.3 L 37.1 77.3 L 34.5 71.5 L 32 77.3 Z M 42.7 69.3 C 42.7 69.3 46.26 69.29 46.3 69.3 C 49 69.3 50.4 70.9 50.4 73 C 50.4 74.7 49.5 75.8 47.8 76.3 C 48.7 76.8 49.1 77.1 50.2 78.9 C 50.24 78.85 52.9 82.9 52.9 82.9 L 51.1 82.9 C 51.1 82.9 48.7 79.17 48.7 79.2 C 47.4 77.2 46.6 76.7 45.4 76.7 C 45.44 76.73 44.2 76.7 44.2 76.7 L 44.2 82.9 L 42.7 82.9 L 42.7 69.3 Z M 45.6 75.4 C 47.5 75.4 48.9 75 48.9 73 C 48.9 71.3 47.8 70.6 46.1 70.6 C 46.06 70.61 44.2 70.6 44.2 70.6 L 44.2 75.4 C 44.2 75.4 45.58 75.41 45.6 75.4 Z M 59.8 69.2 L 65.9 82.9 L 64.4 82.9 L 62.5 78.7 L 56.3 78.7 L 54.4 82.9 L 52.9 82.9 L 58.8 69.2 L 59.8 69.2 Z M 56.8 77.3 L 61.9 77.3 L 59.3 71.5 L 56.8 77.3 Z M 68.7 69.3 L 78.4 80.6 L 78.4 69.3 L 79.8 69.3 L 79.8 82.9 L 78.5 82.9 L 68.9 71.7 L 68.9 82.9 L 67.5 82.9 L 67.5 69.3 L 68.7 69.3 Z M 92.8 69.3 L 92.8 70.6 L 88 70.6 L 88 82.9 L 86.5 82.9 L 86.5 70.6 L 81.6 70.6 L 81.6 69.3 L 92.8 69.3 Z M 102.1 69.3 L 102.1 70.6 L 96.2 70.6 L 96.2 75.4 L 101.9 75.4 L 101.9 76.7 L 96.2 76.7 L 96.2 81.6 L 102.3 81.6 L 102.3 82.9 L 94.7 82.9 L 94.7 69.3 L 102.1 69.3 Z M 112.2 69.3 L 112.2 70.6 L 106.2 70.6 L 106.2 75.4 L 112 75.4 L 112 76.7 L 106.2 76.7 L 106.2 81.6 L 112.3 81.6 L 112.3 82.9 L 104.7 82.9 L 104.7 69.3 L 112.2 69.3 Z M 114.8 69.3 C 114.8 69.3 119.78 69.29 119.8 69.3 C 124.2 69.3 127.1 72.1 127.1 76 C 127.1 80.2 124.1 82.9 119.8 82.9 C 119.78 82.93 114.8 82.9 114.8 82.9 L 114.8 69.3 Z M 119.8 81.6 C 123.3 81.6 125.6 79.5 125.6 76.1 C 125.6 72.8 123.4 70.6 119.5 70.6 C 119.54 70.63 116.3 70.6 116.3 70.6 L 116.3 81.6 C 116.3 81.6 119.76 81.57 119.8 81.6 Z " stroke="none" fill="#000000"/>  </g>  <g id="Polygon45632">    <path d="M 1.5 45.3 C 1.5 45.3 6.56 45.29 6.6 45.3 C 11 45.3 13.9 48.1 13.9 52 C 13.9 56.2 10.9 58.9 6.6 58.9 C 6.56 58.93 1.5 58.9 1.5 58.9 L 1.5 45.3 Z M 6.5 57.6 C 10.1 57.6 12.3 55.5 12.3 52.1 C 12.3 48.8 10.2 46.6 6.3 46.6 C 6.32 46.63 3 46.6 3 46.6 L 3 57.6 C 3 57.6 6.54 57.57 6.5 57.6 Z M 23.9 45.3 L 23.9 46.6 L 17.9 46.6 L 17.9 51.4 L 23.7 51.4 L 23.7 52.7 L 17.9 52.7 L 17.9 57.6 L 24 57.6 L 24 58.9 L 16.4 58.9 L 16.4 45.3 L 23.9 45.3 Z M 27.9 45.3 L 27.9 57.6 L 34.4 57.6 L 34.4 58.9 L 26.4 58.9 L 26.4 45.3 L 27.9 45.3 Z M 37.6 45.3 L 37.6 58.9 L 36.1 58.9 L 36.1 45.3 L 37.6 45.3 Z M 39.2 45.3 L 40.7 45.3 L 45.1 55.9 L 45.1 55.9 L 49.5 45.3 L 51 45.3 L 45.3 59.1 L 44.9 59.1 L 39.2 45.3 Z M 60.1 45.3 L 60.1 46.6 L 54.1 46.6 L 54.1 51.4 L 59.9 51.4 L 59.9 52.7 L 54.1 52.7 L 54.1 57.6 L 60.2 57.6 L 60.2 58.9 L 52.6 58.9 L 52.6 45.3 L 60.1 45.3 Z M 62.6 45.3 C 62.6 45.3 66.22 45.29 66.2 45.3 C 69 45.3 70.4 46.9 70.4 49 C 70.4 50.7 69.5 51.8 67.8 52.3 C 68.7 52.8 69.1 53.1 70.2 54.9 C 70.2 54.85 72.8 58.9 72.8 58.9 L 71.1 58.9 C 71.1 58.9 68.66 55.17 68.7 55.2 C 67.4 53.2 66.6 52.7 65.4 52.7 C 65.4 52.73 64.1 52.7 64.1 52.7 L 64.1 58.9 L 62.6 58.9 L 62.6 45.3 Z M 65.5 51.4 C 67.4 51.4 68.8 51 68.8 49 C 68.8 47.3 67.8 46.6 66 46.6 C 66.02 46.61 64.1 46.6 64.1 46.6 L 64.1 51.4 C 64.1 51.4 65.54 51.41 65.5 51.4 Z M 73.7 45.3 L 77.8 50.3 L 81.8 45.3 L 83.6 45.3 L 78.6 51.7 L 78.6 58.9 L 77 58.9 L 77 51.7 L 71.9 45.3 L 73.7 45.3 Z " stroke="none" fill="#000000"/>  </g>  <g id="Polygon45631">    <path d="M 11.5 21.3 L 11.5 22.6 L 6.6 22.6 L 6.6 34.9 L 5.1 34.9 L 5.1 22.6 L 0.3 22.6 L 0.3 21.3 L 11.5 21.3 Z M 14.8 21.3 L 14.8 34.9 L 13.3 34.9 L 13.3 21.3 L 14.8 21.3 Z M 17.9 21.3 L 19.3 21.3 L 24.1 27.3 L 28.9 21.3 L 30.4 21.3 L 30.4 34.9 L 28.9 34.9 L 28.9 23.7 L 28.8 23.7 L 24.3 29.4 L 24 29.4 L 19.4 23.7 L 19.4 23.7 L 19.4 34.9 L 17.9 34.9 L 17.9 21.3 Z M 40.9 21.3 L 40.9 22.6 L 34.9 22.6 L 34.9 27.4 L 40.7 27.4 L 40.7 28.7 L 34.9 28.7 L 34.9 33.6 L 41.1 33.6 L 41.1 34.9 L 33.4 34.9 L 33.4 21.3 L 40.9 21.3 Z M 45 21.3 L 45 33.6 L 51.4 33.6 L 51.4 34.9 L 43.5 34.9 L 43.5 21.3 L 45 21.3 Z M 51.6 21.3 L 55.6 26.3 L 59.7 21.3 L 61.5 21.3 L 56.4 27.7 L 56.4 34.9 L 54.9 34.9 L 54.9 27.7 L 49.8 21.3 L 51.6 21.3 Z " stroke="none" fill="#000000"/>  </g>  <g id="Polygon45630">    <path d="M 6.8 0.7 L 6.8 1.7 L 2.3 1.7 L 2.3 5.3 L 6.6 5.3 L 6.6 6.3 L 2.3 6.3 L 2.3 9.9 L 6.9 9.9 L 6.9 10.9 L 1.2 10.9 L 1.2 0.7 L 6.8 0.7 Z M 11.6 0.7 C 13.6 0.7 14.9 1.7 14.9 3.5 C 14.9 5.4 13.6 6.3 11.4 6.3 C 11.4 6.33 9.8 6.3 9.8 6.3 L 9.8 10.9 L 8.7 10.9 L 8.7 0.7 C 8.7 0.7 11.59 0.7 11.6 0.7 Z M 9.8 5.3 C 9.8 5.3 11.37 5.34 11.4 5.3 C 13.1 5.3 13.7 4.7 13.7 3.5 C 13.7 2.3 13 1.7 11.4 1.7 C 11.37 1.69 9.8 1.7 9.8 1.7 L 9.8 5.3 Z M 19.7 0.6 L 24.2 10.9 L 23.1 10.9 L 21.6 7.7 L 17 7.7 L 15.6 10.9 L 14.5 10.9 L 18.9 0.6 L 19.7 0.6 Z M 17.4 6.7 L 21.2 6.7 L 19.3 2.4 L 17.4 6.7 Z " stroke="none" fill="#f28620"/>  </g></svg>