<?xml version="1.0" standalone="no"?><!DOCTYPE svg PUBLIC "-//W3C//DTD SVG 1.1//EN" "http://www.w3.org/Graphics/SVG/1.1/DTD/svg11.dtd"><svg xmlns="http://www.w3.org/2000/svg" version="1.1" width="42.3px" height="39.1px" viewBox="0 -8 42.3 39.1" style="top:-8px">  <desc>Fair</desc>  <defs/>  <g id="Polygon8232">    <path d="M 2.9 17.5 L 2.9 0.3 L 14.5 0.3 L 14.5 2.3 L 5.2 2.3 L 5.2 7.6 L 13.2 7.6 L 13.2 9.7 L 5.2 9.7 L 5.2 17.5 L 2.9 17.5 Z M 25.7 17.5 C 25.5 17 25.4 16.5 25.3 15.9 C 24.5 16.6 23.8 17.1 23 17.3 C 22.3 17.6 21.5 17.8 20.7 17.8 C 19.4 17.8 18.3 17.4 17.6 16.8 C 16.8 16.1 16.5 15.2 16.5 14.2 C 16.5 13.6 16.6 13 16.9 12.5 C 17.2 12 17.5 11.6 18 11.3 C 18.4 11 18.9 10.8 19.5 10.6 C 19.9 10.5 20.5 10.4 21.4 10.3 C 23.1 10.1 24.3 9.9 25.1 9.6 C 25.1 9.3 25.1 9.1 25.1 9 C 25.1 8.2 24.9 7.6 24.5 7.2 C 24 6.7 23.2 6.5 22.1 6.5 C 21.1 6.5 20.4 6.7 19.9 7 C 19.5 7.4 19.1 8 18.9 8.9 C 18.9 8.9 16.8 8.6 16.8 8.6 C 17 7.7 17.3 7 17.8 6.4 C 18.2 5.9 18.8 5.5 19.6 5.2 C 20.4 4.9 21.4 4.7 22.4 4.7 C 23.5 4.7 24.4 4.9 25 5.1 C 25.7 5.4 26.2 5.7 26.5 6.1 C 26.8 6.4 27 6.9 27.2 7.5 C 27.2 7.9 27.3 8.5 27.3 9.4 C 27.3 9.4 27.3 12.3 27.3 12.3 C 27.3 14.2 27.3 15.5 27.4 16 C 27.5 16.5 27.7 17 27.9 17.5 C 27.93 17.47 25.7 17.5 25.7 17.5 C 25.7 17.5 25.72 17.47 25.7 17.5 Z M 25.1 11.2 C 24.4 11.5 23.2 11.8 21.7 12 C 20.8 12.1 20.2 12.3 19.8 12.4 C 19.5 12.6 19.2 12.8 19 13.1 C 18.8 13.4 18.7 13.8 18.7 14.1 C 18.7 14.7 18.9 15.2 19.4 15.5 C 19.8 15.9 20.4 16.1 21.2 16.1 C 22 16.1 22.8 15.9 23.4 15.6 C 24 15.2 24.5 14.7 24.8 14.1 C 25 13.6 25.1 12.9 25.1 12 C 25.1 12 25.1 11.2 25.1 11.2 Z M 30.5 2.7 L 30.5 0.3 L 32.6 0.3 L 32.6 2.7 L 30.5 2.7 Z M 30.5 17.5 L 30.5 5 L 32.6 5 L 32.6 17.5 L 30.5 17.5 Z M 35.8 17.5 L 35.8 5 L 37.7 5 C 37.7 5 37.73 6.91 37.7 6.9 C 38.2 6 38.7 5.4 39.1 5.2 C 39.5 4.9 39.9 4.7 40.4 4.7 C 41.1 4.7 41.9 5 42.6 5.4 C 42.6 5.4 41.9 7.4 41.9 7.4 C 41.4 7.1 40.8 6.9 40.3 6.9 C 39.9 6.9 39.4 7.1 39.1 7.3 C 38.7 7.6 38.5 8 38.3 8.5 C 38.1 9.2 37.9 10.1 37.9 11 C 37.95 10.96 37.9 17.5 37.9 17.5 L 35.8 17.5 Z " stroke="none" fill="#000"/>  </g></svg>