<?xml version="1.0" standalone="no"?><!DOCTYPE svg PUBLIC "-//W3C//DTD SVG 1.1//EN" "http://www.w3.org/Graphics/SVG/1.1/DTD/svg11.dtd"><svg xmlns="http://www.w3.org/2000/svg" version="1.1" width="102px" height="20.5px" viewBox="0 -4 102 20.5" style="top:-4px">  <desc>Professional</desc>  <defs/>  <g id="Polygon47327">    <path d="M 18.8 8.7 L 18.8 0.1 C 18.8 0.1 22.09 0.15 22.1 0.1 C 22.7 0.1 23.1 0.2 23.4 0.2 C 23.8 0.3 24.2 0.4 24.5 0.6 C 24.7 0.8 25 1.1 25.1 1.5 C 25.3 1.8 25.4 2.2 25.4 2.6 C 25.4 3.4 25.2 4 24.7 4.5 C 24.2 5 23.4 5.2 22.2 5.2 C 22.19 5.24 20 5.2 20 5.2 L 20 8.7 L 18.8 8.7 Z M 20 4.2 C 20 4.2 22.21 4.23 22.2 4.2 C 22.9 4.2 23.5 4.1 23.8 3.8 C 24.1 3.5 24.2 3.2 24.2 2.7 C 24.2 2.3 24.1 2 24 1.7 C 23.8 1.5 23.5 1.3 23.2 1.2 C 23.1 1.2 22.7 1.2 22.2 1.2 C 22.18 1.16 20 1.2 20 1.2 L 20 4.2 Z M 26.7 8.7 L 26.7 2.5 L 27.7 2.5 C 27.7 2.5 27.65 3.46 27.7 3.5 C 27.9 3 28.1 2.7 28.3 2.6 C 28.5 2.4 28.8 2.4 29 2.4 C 29.4 2.4 29.7 2.5 30.1 2.7 C 30.1 2.7 29.7 3.7 29.7 3.7 C 29.5 3.5 29.2 3.5 28.9 3.5 C 28.7 3.5 28.5 3.5 28.3 3.7 C 28.1 3.8 28 4 27.9 4.2 C 27.8 4.6 27.8 5 27.8 5.5 C 27.76 5.48 27.8 8.7 27.8 8.7 L 26.7 8.7 Z M 30.3 5.6 C 30.3 4.5 30.6 3.6 31.3 3.1 C 31.8 2.6 32.5 2.4 33.2 2.4 C 34.1 2.4 34.8 2.7 35.3 3.2 C 35.9 3.8 36.2 4.5 36.2 5.5 C 36.2 6.3 36 7 35.8 7.4 C 35.5 7.9 35.2 8.2 34.7 8.5 C 34.3 8.7 33.8 8.9 33.2 8.9 C 32.4 8.9 31.7 8.6 31.1 8 C 30.6 7.5 30.3 6.7 30.3 5.6 Z M 31.4 5.6 C 31.4 6.4 31.6 7 31.9 7.4 C 32.3 7.8 32.7 8 33.2 8 C 33.8 8 34.2 7.8 34.5 7.4 C 34.9 7 35.1 6.4 35.1 5.6 C 35.1 4.8 34.9 4.2 34.5 3.8 C 34.2 3.4 33.8 3.2 33.2 3.2 C 32.7 3.2 32.3 3.4 31.9 3.8 C 31.6 4.2 31.4 4.8 31.4 5.6 Z M 37.6 8.7 L 37.6 3.3 L 36.7 3.3 L 36.7 2.5 L 37.6 2.5 C 37.6 2.5 37.64 1.85 37.6 1.9 C 37.6 1.4 37.7 1.1 37.8 0.9 C 37.9 0.6 38 0.4 38.3 0.3 C 38.5 0.1 38.9 0 39.4 0 C 39.7 0 40 0 40.3 0.1 C 40.3 0.1 40.2 1 40.2 1 C 40 1 39.8 1 39.6 1 C 39.2 1 39 1 38.9 1.2 C 38.8 1.3 38.7 1.6 38.7 1.9 C 38.69 1.94 38.7 2.5 38.7 2.5 L 39.9 2.5 L 39.9 3.3 L 38.7 3.3 L 38.7 8.7 L 37.6 8.7 Z M 45 6.7 C 45 6.7 46.1 6.9 46.1 6.9 C 45.9 7.5 45.6 8 45.1 8.3 C 44.7 8.7 44.1 8.9 43.3 8.9 C 42.4 8.9 41.7 8.6 41.2 8 C 40.6 7.5 40.4 6.7 40.4 5.7 C 40.4 4.6 40.6 3.8 41.2 3.2 C 41.7 2.7 42.4 2.4 43.3 2.4 C 44.1 2.4 44.8 2.7 45.3 3.2 C 45.8 3.8 46.1 4.6 46.1 5.6 C 46.1 5.7 46.1 5.8 46.1 5.9 C 46.1 5.9 41.5 5.9 41.5 5.9 C 41.5 6.6 41.7 7.1 42 7.5 C 42.4 7.8 42.8 8 43.3 8 C 43.7 8 44.1 7.9 44.3 7.7 C 44.6 7.5 44.8 7.2 45 6.7 Z M 41.5 5 C 41.5 5 45 5 45 5 C 44.9 4.5 44.8 4.1 44.6 3.8 C 44.3 3.4 43.8 3.2 43.3 3.2 C 42.8 3.2 42.4 3.4 42.1 3.7 C 41.7 4.1 41.6 4.5 41.5 5 Z M 47 6.9 C 47 6.9 48 6.7 48 6.7 C 48.1 7.1 48.2 7.5 48.5 7.7 C 48.8 7.9 49.1 8 49.6 8 C 50.1 8 50.5 7.9 50.7 7.7 C 50.9 7.5 51.1 7.3 51.1 7 C 51.1 6.8 51 6.6 50.7 6.5 C 50.6 6.4 50.2 6.2 49.7 6.1 C 48.9 5.9 48.4 5.7 48.1 5.6 C 47.8 5.5 47.5 5.3 47.4 5 C 47.2 4.7 47.1 4.5 47.1 4.2 C 47.1 3.9 47.2 3.6 47.3 3.4 C 47.5 3.2 47.6 3 47.9 2.8 C 48 2.7 48.2 2.6 48.5 2.5 C 48.8 2.4 49.1 2.4 49.4 2.4 C 49.9 2.4 50.4 2.4 50.7 2.6 C 51.1 2.7 51.4 2.9 51.5 3.2 C 51.7 3.4 51.8 3.7 51.9 4.1 C 51.9 4.1 50.9 4.3 50.9 4.3 C 50.8 3.9 50.7 3.7 50.5 3.5 C 50.2 3.3 49.9 3.2 49.5 3.2 C 49 3.2 48.7 3.3 48.5 3.5 C 48.3 3.6 48.2 3.8 48.2 4 C 48.2 4.2 48.2 4.3 48.3 4.4 C 48.4 4.5 48.5 4.6 48.7 4.7 C 48.8 4.7 49.1 4.8 49.6 5 C 50.4 5.2 50.9 5.3 51.2 5.5 C 51.5 5.6 51.7 5.8 51.9 6 C 52.1 6.2 52.1 6.5 52.1 6.9 C 52.1 7.3 52 7.6 51.8 7.9 C 51.6 8.2 51.3 8.5 50.9 8.6 C 50.6 8.8 50.1 8.9 49.6 8.9 C 48.8 8.9 48.2 8.7 47.8 8.4 C 47.4 8 47.1 7.5 47 6.9 Z M 53 6.9 C 53 6.9 54 6.7 54 6.7 C 54.1 7.1 54.2 7.5 54.5 7.7 C 54.8 7.9 55.1 8 55.6 8 C 56.1 8 56.5 7.9 56.7 7.7 C 56.9 7.5 57.1 7.3 57.1 7 C 57.1 6.8 57 6.6 56.7 6.5 C 56.6 6.4 56.2 6.2 55.7 6.1 C 54.9 5.9 54.4 5.7 54.1 5.6 C 53.8 5.5 53.5 5.3 53.4 5 C 53.2 4.7 53.1 4.5 53.1 4.2 C 53.1 3.9 53.2 3.6 53.3 3.4 C 53.5 3.2 53.6 3 53.9 2.8 C 54 2.7 54.2 2.6 54.5 2.5 C 54.8 2.4 55.1 2.4 55.4 2.4 C 55.9 2.4 56.4 2.4 56.7 2.6 C 57.1 2.7 57.4 2.9 57.5 3.2 C 57.7 3.4 57.8 3.7 57.9 4.1 C 57.9 4.1 56.9 4.3 56.9 4.3 C 56.8 3.9 56.7 3.7 56.5 3.5 C 56.2 3.3 55.9 3.2 55.5 3.2 C 55 3.2 54.7 3.3 54.5 3.5 C 54.3 3.6 54.2 3.8 54.2 4 C 54.2 4.2 54.2 4.3 54.3 4.4 C 54.4 4.5 54.5 4.6 54.7 4.7 C 54.8 4.7 55.1 4.8 55.6 5 C 56.4 5.2 56.9 5.3 57.2 5.5 C 57.5 5.6 57.7 5.8 57.9 6 C 58.1 6.2 58.1 6.5 58.1 6.9 C 58.1 7.3 58 7.6 57.8 7.9 C 57.6 8.2 57.3 8.5 56.9 8.6 C 56.6 8.8 56.1 8.9 55.6 8.9 C 54.8 8.9 54.2 8.7 53.8 8.4 C 53.4 8 53.1 7.5 53 6.9 Z M 59.4 1.4 L 59.4 0.1 L 60.5 0.1 L 60.5 1.4 L 59.4 1.4 Z M 59.4 8.7 L 59.4 2.5 L 60.5 2.5 L 60.5 8.7 L 59.4 8.7 Z M 61.7 5.6 C 61.7 4.5 62 3.6 62.6 3.1 C 63.2 2.6 63.8 2.4 64.6 2.4 C 65.4 2.4 66.1 2.7 66.7 3.2 C 67.2 3.8 67.5 4.5 67.5 5.5 C 67.5 6.3 67.4 7 67.1 7.4 C 66.9 7.9 66.5 8.2 66.1 8.5 C 65.6 8.7 65.1 8.9 64.6 8.9 C 63.7 8.9 63 8.6 62.5 8 C 61.9 7.5 61.7 6.7 61.7 5.6 Z M 62.8 5.6 C 62.8 6.4 62.9 7 63.3 7.4 C 63.6 7.8 64.1 8 64.6 8 C 65.1 8 65.5 7.8 65.9 7.4 C 66.2 7 66.4 6.4 66.4 5.6 C 66.4 4.8 66.2 4.2 65.9 3.8 C 65.5 3.4 65.1 3.2 64.6 3.2 C 64.1 3.2 63.6 3.4 63.3 3.8 C 62.9 4.2 62.8 4.8 62.8 5.6 Z M 68.7 8.7 L 68.7 2.5 L 69.7 2.5 C 69.7 2.5 69.68 3.4 69.7 3.4 C 70.1 2.7 70.8 2.4 71.7 2.4 C 72 2.4 72.4 2.4 72.7 2.6 C 73 2.7 73.2 2.9 73.4 3.1 C 73.6 3.3 73.7 3.6 73.7 3.9 C 73.8 4.1 73.8 4.4 73.8 4.9 C 73.79 4.91 73.8 8.7 73.8 8.7 L 72.7 8.7 C 72.7 8.7 72.74 4.95 72.7 5 C 72.7 4.5 72.7 4.2 72.6 4 C 72.5 3.8 72.4 3.6 72.2 3.5 C 72 3.4 71.7 3.3 71.4 3.3 C 71 3.3 70.6 3.4 70.3 3.7 C 70 4 69.8 4.5 69.8 5.3 C 69.79 5.34 69.8 8.7 69.8 8.7 L 68.7 8.7 Z M 79.7 8.7 C 79.6 8.5 79.5 8.3 79.5 8 C 79.1 8.3 78.7 8.5 78.3 8.7 C 78 8.8 77.6 8.9 77.2 8.9 C 76.5 8.9 76 8.7 75.6 8.4 C 75.2 8 75.1 7.6 75.1 7.1 C 75.1 6.8 75.1 6.5 75.3 6.3 C 75.4 6 75.6 5.8 75.8 5.7 C 76 5.5 76.3 5.4 76.6 5.3 C 76.8 5.3 77.1 5.2 77.5 5.2 C 78.4 5 79 4.9 79.4 4.8 C 79.4 4.6 79.4 4.6 79.4 4.5 C 79.4 4.1 79.3 3.8 79.1 3.6 C 78.8 3.4 78.4 3.2 77.9 3.2 C 77.4 3.2 77 3.3 76.8 3.5 C 76.6 3.7 76.4 4 76.3 4.4 C 76.3 4.4 75.2 4.3 75.2 4.3 C 75.3 3.8 75.5 3.5 75.7 3.2 C 75.9 2.9 76.2 2.7 76.6 2.6 C 77 2.4 77.5 2.4 78 2.4 C 78.6 2.4 79 2.4 79.3 2.6 C 79.7 2.7 79.9 2.8 80.1 3 C 80.2 3.2 80.3 3.5 80.4 3.7 C 80.4 3.9 80.4 4.3 80.4 4.7 C 80.4 4.7 80.4 6.1 80.4 6.1 C 80.4 7.1 80.5 7.7 80.5 8 C 80.6 8.2 80.6 8.5 80.8 8.7 C 80.78 8.74 79.7 8.7 79.7 8.7 C 79.7 8.7 79.68 8.74 79.7 8.7 Z M 79.4 5.6 C 79 5.8 78.4 5.9 77.7 6 C 77.2 6.1 76.9 6.1 76.7 6.2 C 76.6 6.3 76.4 6.4 76.3 6.6 C 76.2 6.7 76.2 6.9 76.2 7.1 C 76.2 7.3 76.3 7.6 76.5 7.8 C 76.7 8 77 8.1 77.4 8.1 C 77.8 8.1 78.2 8 78.5 7.8 C 78.8 7.6 79.1 7.4 79.2 7.1 C 79.3 6.8 79.4 6.5 79.4 6 C 79.4 6 79.4 5.6 79.4 5.6 Z M 82.1 8.7 L 82.1 0.1 L 83.1 0.1 L 83.1 8.7 L 82.1 8.7 Z " stroke="none" fill="#000"/>  </g></svg>