<?xml version="1.0" standalone="no"?><!DOCTYPE svg PUBLIC "-//W3C//DTD SVG 1.1//EN" "http://www.w3.org/Graphics/SVG/1.1/DTD/svg11.dtd"><svg xmlns="http://www.w3.org/2000/svg" version="1.1" width="73.5px" height="27.5px" viewBox="0 -1 73.5 27.5" style="top:-1px">  <desc>Professional</desc>  <defs/>  <g id="Polygon50416">    <path d="M 4.7 16.1 L 4.7 7.5 C 4.7 7.5 7.89 7.49 7.9 7.5 C 8.5 7.5 8.9 7.5 9.2 7.6 C 9.6 7.6 10 7.8 10.3 8 C 10.5 8.2 10.8 8.4 10.9 8.8 C 11.1 9.2 11.2 9.6 11.2 10 C 11.2 10.7 11 11.3 10.5 11.8 C 10 12.3 9.2 12.6 8 12.6 C 7.99 12.59 5.8 12.6 5.8 12.6 L 5.8 16.1 L 4.7 16.1 Z M 5.8 11.6 C 5.8 11.6 8.01 11.58 8 11.6 C 8.7 11.6 9.3 11.4 9.6 11.2 C 9.9 10.9 10 10.5 10 10 C 10 9.7 9.9 9.3 9.8 9.1 C 9.6 8.8 9.3 8.7 9 8.6 C 8.9 8.5 8.5 8.5 8 8.5 C 7.98 8.51 5.8 8.5 5.8 8.5 L 5.8 11.6 Z M 12.5 16.1 L 12.5 9.9 L 13.5 9.9 C 13.5 9.9 13.46 10.8 13.5 10.8 C 13.7 10.4 13.9 10.1 14.1 9.9 C 14.3 9.8 14.6 9.7 14.8 9.7 C 15.2 9.7 15.5 9.8 15.9 10.1 C 15.9 10.1 15.5 11 15.5 11 C 15.3 10.9 15 10.8 14.8 10.8 C 14.5 10.8 14.3 10.9 14.1 11 C 13.9 11.2 13.8 11.3 13.7 11.6 C 13.6 12 13.6 12.4 13.6 12.8 C 13.56 12.82 13.6 16.1 13.6 16.1 L 12.5 16.1 Z M 16.1 13 C 16.1 11.8 16.4 11 17.1 10.4 C 17.6 9.9 18.3 9.7 19 9.7 C 19.9 9.7 20.6 10 21.1 10.6 C 21.7 11.1 22 11.9 22 12.9 C 22 13.7 21.8 14.3 21.6 14.8 C 21.4 15.2 21 15.6 20.5 15.8 C 20.1 16.1 19.6 16.2 19 16.2 C 18.2 16.2 17.5 15.9 16.9 15.4 C 16.4 14.8 16.1 14 16.1 13 Z M 17.2 13 C 17.2 13.8 17.4 14.4 17.7 14.8 C 18.1 15.2 18.5 15.4 19 15.4 C 19.6 15.4 20 15.2 20.3 14.8 C 20.7 14.4 20.9 13.8 20.9 12.9 C 20.9 12.2 20.7 11.6 20.3 11.2 C 20 10.8 19.6 10.6 19 10.6 C 18.5 10.6 18.1 10.8 17.7 11.2 C 17.4 11.6 17.2 12.2 17.2 13 Z M 23.4 16.1 L 23.4 10.7 L 22.5 10.7 L 22.5 9.9 L 23.4 9.9 C 23.4 9.9 23.44 9.2 23.4 9.2 C 23.4 8.8 23.5 8.5 23.6 8.3 C 23.7 8 23.8 7.8 24.1 7.6 C 24.3 7.4 24.7 7.3 25.2 7.3 C 25.5 7.3 25.8 7.4 26.1 7.5 C 26.1 7.5 26 8.4 26 8.4 C 25.8 8.3 25.6 8.3 25.4 8.3 C 25 8.3 24.8 8.4 24.7 8.5 C 24.6 8.7 24.5 8.9 24.5 9.3 C 24.49 9.29 24.5 9.9 24.5 9.9 L 25.7 9.9 L 25.7 10.7 L 24.5 10.7 L 24.5 16.1 L 23.4 16.1 Z M 30.8 14.1 C 30.8 14.1 31.9 14.2 31.9 14.2 C 31.7 14.8 31.4 15.3 30.9 15.7 C 30.5 16 29.9 16.2 29.1 16.2 C 28.2 16.2 27.5 15.9 27 15.4 C 26.4 14.8 26.2 14 26.2 13 C 26.2 12 26.4 11.2 27 10.6 C 27.5 10 28.2 9.7 29.1 9.7 C 29.9 9.7 30.6 10 31.1 10.6 C 31.6 11.1 31.9 11.9 31.9 13 C 31.9 13 31.9 13.1 31.9 13.2 C 31.9 13.2 27.3 13.2 27.3 13.2 C 27.3 13.9 27.5 14.4 27.8 14.8 C 28.2 15.2 28.6 15.4 29.1 15.4 C 29.5 15.4 29.9 15.3 30.1 15.1 C 30.4 14.8 30.6 14.5 30.8 14.1 Z M 27.3 12.4 C 27.3 12.4 30.8 12.4 30.8 12.4 C 30.7 11.8 30.6 11.5 30.4 11.2 C 30.1 10.8 29.6 10.6 29.1 10.6 C 28.6 10.6 28.2 10.7 27.9 11.1 C 27.5 11.4 27.4 11.8 27.3 12.4 Z M 32.8 14.2 C 32.8 14.2 33.8 14.1 33.8 14.1 C 33.9 14.5 34 14.8 34.3 15 C 34.6 15.2 34.9 15.4 35.4 15.4 C 35.9 15.4 36.3 15.3 36.5 15.1 C 36.7 14.9 36.9 14.6 36.9 14.4 C 36.9 14.1 36.8 13.9 36.5 13.8 C 36.4 13.7 36 13.6 35.5 13.4 C 34.7 13.2 34.2 13.1 33.9 12.9 C 33.6 12.8 33.3 12.6 33.2 12.3 C 33 12.1 33 11.8 33 11.5 C 33 11.2 33 11 33.1 10.7 C 33.3 10.5 33.4 10.3 33.7 10.2 C 33.8 10 34 9.9 34.3 9.8 C 34.6 9.8 34.9 9.7 35.2 9.7 C 35.7 9.7 36.2 9.8 36.5 9.9 C 36.9 10.1 37.2 10.3 37.3 10.5 C 37.5 10.7 37.6 11.1 37.7 11.5 C 37.7 11.5 36.7 11.6 36.7 11.6 C 36.6 11.3 36.5 11 36.3 10.9 C 36 10.7 35.7 10.6 35.3 10.6 C 34.8 10.6 34.5 10.7 34.3 10.8 C 34.1 11 34 11.2 34 11.4 C 34 11.5 34 11.6 34.1 11.8 C 34.2 11.9 34.3 12 34.5 12 C 34.6 12.1 34.9 12.2 35.4 12.3 C 36.2 12.5 36.7 12.7 37 12.8 C 37.3 12.9 37.5 13.1 37.7 13.4 C 37.9 13.6 37.9 13.9 37.9 14.3 C 37.9 14.6 37.8 14.9 37.6 15.2 C 37.4 15.6 37.1 15.8 36.7 16 C 36.4 16.1 35.9 16.2 35.4 16.2 C 34.6 16.2 34 16.1 33.6 15.7 C 33.2 15.4 32.9 14.9 32.8 14.2 Z M 38.8 14.2 C 38.8 14.2 39.8 14.1 39.8 14.1 C 39.9 14.5 40 14.8 40.3 15 C 40.6 15.2 40.9 15.4 41.4 15.4 C 41.9 15.4 42.3 15.3 42.5 15.1 C 42.7 14.9 42.9 14.6 42.9 14.4 C 42.9 14.1 42.8 13.9 42.5 13.8 C 42.4 13.7 42 13.6 41.5 13.4 C 40.7 13.2 40.2 13.1 39.9 12.9 C 39.6 12.8 39.3 12.6 39.2 12.3 C 39 12.1 39 11.8 39 11.5 C 39 11.2 39 11 39.1 10.7 C 39.3 10.5 39.4 10.3 39.7 10.2 C 39.8 10 40 9.9 40.3 9.8 C 40.6 9.8 40.9 9.7 41.2 9.7 C 41.7 9.7 42.2 9.8 42.5 9.9 C 42.9 10.1 43.2 10.3 43.3 10.5 C 43.5 10.7 43.6 11.1 43.7 11.5 C 43.7 11.5 42.7 11.6 42.7 11.6 C 42.6 11.3 42.5 11 42.3 10.9 C 42 10.7 41.7 10.6 41.3 10.6 C 40.8 10.6 40.5 10.7 40.3 10.8 C 40.1 11 40 11.2 40 11.4 C 40 11.5 40 11.6 40.1 11.8 C 40.2 11.9 40.3 12 40.5 12 C 40.6 12.1 40.9 12.2 41.4 12.3 C 42.2 12.5 42.7 12.7 43 12.8 C 43.3 12.9 43.5 13.1 43.7 13.4 C 43.9 13.6 43.9 13.9 43.9 14.3 C 43.9 14.6 43.8 14.9 43.6 15.2 C 43.4 15.6 43.1 15.8 42.7 16 C 42.4 16.1 41.9 16.2 41.4 16.2 C 40.6 16.2 40 16.1 39.6 15.7 C 39.2 15.4 38.9 14.9 38.8 14.2 Z M 45.2 8.7 L 45.2 7.5 L 46.3 7.5 L 46.3 8.7 L 45.2 8.7 Z M 45.2 16.1 L 45.2 9.9 L 46.3 9.9 L 46.3 16.1 L 45.2 16.1 Z M 47.5 13 C 47.5 11.8 47.8 11 48.4 10.4 C 49 9.9 49.6 9.7 50.4 9.7 C 51.2 9.7 51.9 10 52.5 10.6 C 53 11.1 53.3 11.9 53.3 12.9 C 53.3 13.7 53.2 14.3 52.9 14.8 C 52.7 15.2 52.4 15.6 51.9 15.8 C 51.4 16.1 50.9 16.2 50.4 16.2 C 49.5 16.2 48.8 15.9 48.3 15.4 C 47.7 14.8 47.5 14 47.5 13 Z M 48.6 13 C 48.6 13.8 48.7 14.4 49.1 14.8 C 49.4 15.2 49.9 15.4 50.4 15.4 C 50.9 15.4 51.3 15.2 51.7 14.8 C 52 14.4 52.2 13.8 52.2 12.9 C 52.2 12.2 52 11.6 51.7 11.2 C 51.3 10.8 50.9 10.6 50.4 10.6 C 49.9 10.6 49.4 10.8 49.1 11.2 C 48.7 11.6 48.6 12.2 48.6 13 Z M 54.5 16.1 L 54.5 9.9 L 55.5 9.9 C 55.5 9.9 55.49 10.74 55.5 10.7 C 55.9 10.1 56.6 9.7 57.5 9.7 C 57.8 9.7 58.2 9.8 58.5 9.9 C 58.8 10.1 59.1 10.2 59.2 10.5 C 59.4 10.7 59.5 10.9 59.5 11.2 C 59.6 11.4 59.6 11.8 59.6 12.3 C 59.59 12.26 59.6 16.1 59.6 16.1 L 58.5 16.1 C 58.5 16.1 58.54 12.3 58.5 12.3 C 58.5 11.9 58.5 11.5 58.4 11.3 C 58.3 11.1 58.2 11 58 10.8 C 57.8 10.7 57.5 10.6 57.2 10.6 C 56.8 10.6 56.4 10.8 56.1 11.1 C 55.8 11.3 55.6 11.9 55.6 12.7 C 55.59 12.68 55.6 16.1 55.6 16.1 L 54.5 16.1 Z M 65.5 16.1 C 65.4 15.9 65.3 15.6 65.3 15.3 C 64.9 15.6 64.5 15.9 64.1 16 C 63.8 16.2 63.4 16.2 63 16.2 C 62.3 16.2 61.8 16.1 61.4 15.7 C 61 15.4 60.9 15 60.9 14.4 C 60.9 14.1 60.9 13.9 61.1 13.6 C 61.2 13.4 61.4 13.2 61.6 13 C 61.8 12.8 62.1 12.7 62.4 12.7 C 62.6 12.6 62.9 12.5 63.3 12.5 C 64.2 12.4 64.8 12.3 65.2 12.1 C 65.2 12 65.2 11.9 65.2 11.9 C 65.2 11.4 65.1 11.1 64.9 10.9 C 64.6 10.7 64.2 10.6 63.7 10.6 C 63.2 10.6 62.8 10.7 62.6 10.9 C 62.4 11 62.2 11.3 62.1 11.8 C 62.1 11.8 61 11.6 61 11.6 C 61.1 11.2 61.3 10.8 61.5 10.6 C 61.7 10.3 62 10.1 62.4 9.9 C 62.8 9.8 63.3 9.7 63.8 9.7 C 64.4 9.7 64.8 9.8 65.1 9.9 C 65.5 10 65.7 10.2 65.9 10.4 C 66 10.6 66.1 10.8 66.2 11.1 C 66.2 11.3 66.3 11.6 66.3 12.1 C 66.3 12.1 66.3 13.5 66.3 13.5 C 66.3 14.5 66.3 15.1 66.3 15.3 C 66.4 15.6 66.5 15.8 66.6 16.1 C 66.58 16.08 65.5 16.1 65.5 16.1 C 65.5 16.1 65.48 16.08 65.5 16.1 Z M 65.2 13 C 64.8 13.1 64.2 13.2 63.5 13.4 C 63 13.4 62.7 13.5 62.5 13.6 C 62.4 13.6 62.2 13.8 62.1 13.9 C 62 14.1 62 14.2 62 14.4 C 62 14.7 62.1 14.9 62.3 15.1 C 62.5 15.3 62.8 15.4 63.2 15.4 C 63.6 15.4 64 15.3 64.3 15.1 C 64.6 15 64.9 14.7 65 14.4 C 65.1 14.2 65.2 13.8 65.2 13.3 C 65.2 13.3 65.2 13 65.2 13 Z M 67.9 16.1 L 67.9 7.5 L 68.9 7.5 L 68.9 16.1 L 67.9 16.1 Z " stroke="none" fill="#000"/>  </g></svg>