<?xml version="1.0" standalone="no"?><!DOCTYPE svg PUBLIC "-//W3C//DTD SVG 1.1//EN" "http://www.w3.org/Graphics/SVG/1.1/DTD/svg11.dtd"><svg xmlns="http://www.w3.org/2000/svg" version="1.1" width="34px" height="40.1px" viewBox="0 -8 34 40.1" style="top:-8px">  <desc>4.7</desc>  <defs/>  <g id="Polygon22228">    <path d="M 7.5 17.5 L 7.5 14 L 0.4 14 L 0.4 11.1 L 7.9 0.2 L 10.7 0.2 L 10.7 11.1 L 12.8 11.1 L 12.8 14 L 10.7 14 L 10.7 17.5 L 7.5 17.5 Z M 7.5 11.1 L 7.5 5.2 L 3.5 11.1 L 7.5 11.1 Z M 15.1 17.5 L 15.1 14.2 L 18.4 14.2 L 18.4 17.5 L 15.1 17.5 Z M 21 3.6 L 21 0.5 L 32.3 0.5 C 32.3 0.5 32.3 2.92 32.3 2.9 C 31.4 3.8 30.4 5.1 29.5 6.9 C 28.5 8.6 27.8 10.4 27.3 12.3 C 26.8 14.2 26.5 16 26.5 17.5 C 26.5 17.5 23.3 17.5 23.3 17.5 C 23.4 15.1 23.9 12.7 24.8 10.2 C 25.7 7.7 27 5.5 28.5 3.6 C 28.52 3.59 21 3.6 21 3.6 Z " stroke="none" fill="#000"/>  </g></svg>