<?xml version="1.0" standalone="no"?><!DOCTYPE svg PUBLIC "-//W3C//DTD SVG 1.1//EN" "http://www.w3.org/Graphics/SVG/1.1/DTD/svg11.dtd"><svg xmlns="http://www.w3.org/2000/svg" version="1.1" width="116px" height="79.4px" viewBox="0 -5 116 79.4" style="top:-5px">  <desc>Training Sales Excellence</desc>  <defs/>  <g id="Polygon42763">    <path d="M 9 48.9 L 9 50.3 L 3 50.3 L 3 55 L 8.8 55 L 8.8 56.4 L 3 56.4 L 3 61.2 L 9.2 61.2 L 9.2 62.6 L 1.5 62.6 L 1.5 48.9 L 9 48.9 Z M 12.8 48.9 C 14.9 51.5 15.5 52.2 17.5 54.5 C 18.9 52.8 20.4 51.1 22.1 48.9 C 22.12 48.94 23.9 48.9 23.9 48.9 L 18.4 55.5 L 24.3 62.6 L 22.5 62.6 L 17.5 56.6 L 12.4 62.6 L 10.5 62.6 L 16.5 55.5 L 10.9 48.9 C 10.9 48.9 12.76 48.94 12.8 48.9 Z M 36.3 49.8 C 36.3 49.8 36.3 51.5 36.3 51.5 C 34.9 50.6 33.3 50.2 31.7 50.2 C 28.2 50.2 26 52.8 26 55.8 C 26 58.8 28.2 61.4 31.7 61.4 C 33.4 61.4 35 60.9 36.4 60 C 36.4 60 36.4 61.6 36.4 61.6 C 34.9 62.4 33.3 62.8 31.6 62.8 C 26.9 62.8 24.5 59.2 24.5 55.8 C 24.5 51.8 27.6 48.8 31.7 48.8 C 33.2 48.8 34.8 49.1 36.3 49.8 Z M 46.2 48.9 L 46.2 50.3 L 40.3 50.3 L 40.3 55 L 46 55 L 46 56.4 L 40.3 56.4 L 40.3 61.2 L 46.4 61.2 L 46.4 62.6 L 38.8 62.6 L 38.8 48.9 L 46.2 48.9 Z M 50.3 48.9 L 50.3 61.2 L 56.7 61.2 L 56.7 62.6 L 48.8 62.6 L 48.8 48.9 L 50.3 48.9 Z M 60 48.9 L 60 61.2 L 66.4 61.2 L 66.4 62.6 L 58.5 62.6 L 58.5 48.9 L 60 48.9 Z M 75.6 48.9 L 75.6 50.3 L 69.6 50.3 L 69.6 55 L 75.4 55 L 75.4 56.4 L 69.6 56.4 L 69.6 61.2 L 75.8 61.2 L 75.8 62.6 L 68.1 62.6 L 68.1 48.9 L 75.6 48.9 Z M 79.4 48.9 L 89.1 60.2 L 89.1 48.9 L 90.5 48.9 L 90.5 62.6 L 89.2 62.6 L 79.6 51.3 L 79.6 62.6 L 78.2 62.6 L 78.2 48.9 L 79.4 48.9 Z M 104.8 49.8 C 104.8 49.8 104.8 51.5 104.8 51.5 C 103.4 50.6 101.8 50.2 100.2 50.2 C 96.7 50.2 94.5 52.8 94.5 55.8 C 94.5 58.8 96.7 61.4 100.2 61.4 C 101.9 61.4 103.5 60.9 104.9 60 C 104.9 60 104.9 61.6 104.9 61.6 C 103.4 62.4 101.8 62.8 100.2 62.8 C 95.4 62.8 93 59.2 93 55.8 C 93 51.8 96.1 48.8 100.2 48.8 C 101.7 48.8 103.3 49.1 104.8 49.8 Z M 114.8 48.9 L 114.8 50.3 L 108.8 50.3 L 108.8 55 L 114.6 55 L 114.6 56.4 L 108.8 56.4 L 108.8 61.2 L 114.9 61.2 L 114.9 62.6 L 107.3 62.6 L 107.3 48.9 L 114.8 48.9 Z " stroke="none" fill="#000000"/>  </g>  <g id="Polygon42762">    <path d="M 7.9 25.6 C 7.9 25.6 7.9 27.3 7.9 27.3 C 6.9 26.5 5.9 26.1 4.8 26.1 C 3.3 26.1 2.4 26.9 2.4 28.1 C 2.4 29 2.6 29.8 4.9 30.9 C 7.7 32.4 8.4 33.4 8.4 35.2 C 8.4 37.2 6.8 38.8 4.5 38.8 C 3.2 38.8 2 38.3 0.9 37.6 C 0.9 37.6 0.9 35.7 0.9 35.7 C 2 36.8 3.2 37.4 4.5 37.4 C 5.9 37.4 6.9 36.6 6.9 35.2 C 6.9 34.1 6.5 33.4 3.8 32 C 1.7 30.9 0.9 29.9 0.9 28.1 C 0.9 26.2 2.5 24.8 4.8 24.8 C 5.9 24.8 6.9 25.1 7.9 25.6 Z M 16.2 24.9 L 22.3 38.6 L 20.7 38.6 L 18.8 34.3 L 12.6 34.3 L 10.8 38.6 L 9.2 38.6 L 15.1 24.9 L 16.2 24.9 Z M 13.2 33 L 18.2 33 L 15.6 27.2 L 13.2 33 Z M 25.3 24.9 L 25.3 37.2 L 31.7 37.2 L 31.7 38.6 L 23.8 38.6 L 23.8 24.9 L 25.3 24.9 Z M 40.9 24.9 L 40.9 26.3 L 35 26.3 L 35 31 L 40.7 31 L 40.7 32.4 L 35 32.4 L 35 37.2 L 41.1 37.2 L 41.1 38.6 L 33.5 38.6 L 33.5 24.9 L 40.9 24.9 Z M 49.8 25.6 C 49.8 25.6 49.8 27.3 49.8 27.3 C 48.9 26.5 47.9 26.1 46.8 26.1 C 45.3 26.1 44.4 26.9 44.4 28.1 C 44.4 29 44.6 29.8 46.9 30.9 C 49.7 32.4 50.4 33.4 50.4 35.2 C 50.4 37.2 48.8 38.8 46.5 38.8 C 45.2 38.8 44 38.3 42.9 37.6 C 42.9 37.6 42.9 35.7 42.9 35.7 C 43.9 36.8 45.1 37.4 46.5 37.4 C 47.8 37.4 48.8 36.6 48.8 35.2 C 48.8 34.1 48.5 33.4 45.8 32 C 43.7 30.9 42.9 29.9 42.9 28.1 C 42.9 26.2 44.5 24.8 46.8 24.8 C 47.9 24.8 48.9 25.1 49.8 25.6 Z " stroke="none" fill="#000000"/>  </g>  <g id="Polygon42761">    <path d="M 8.6 4.3 L 8.6 5.3 L 5 5.3 L 5 14.6 L 3.8 14.6 L 3.8 5.3 L 0.2 5.3 L 0.2 4.3 L 8.6 4.3 Z M 10 4.3 C 10 4.3 12.69 4.35 12.7 4.3 C 14.7 4.3 15.8 5.5 15.8 7.1 C 15.8 8.4 15.1 9.2 13.9 9.6 C 14.5 10 14.8 10.2 15.7 11.5 C 15.67 11.52 17.7 14.6 17.7 14.6 L 16.3 14.6 C 16.3 14.6 14.52 11.76 14.5 11.8 C 13.6 10.3 12.9 9.9 12.1 9.9 C 12.07 9.93 11.1 9.9 11.1 9.9 L 11.1 14.6 L 10 14.6 L 10 4.3 Z M 12.2 8.9 C 13.6 8.9 14.7 8.6 14.7 7.1 C 14.7 5.8 13.8 5.3 12.5 5.3 C 12.54 5.34 11.1 5.3 11.1 5.3 L 11.1 8.9 C 11.1 8.9 12.18 8.94 12.2 8.9 Z M 22.9 4.3 L 27.4 14.6 L 26.3 14.6 L 24.8 11.4 L 20.2 11.4 L 18.8 14.6 L 17.7 14.6 L 22.1 4.3 L 22.9 4.3 Z M 20.6 10.4 L 24.4 10.4 L 22.5 6 L 20.6 10.4 Z M 29.7 4.3 L 29.7 14.6 L 28.6 14.6 L 28.6 4.3 L 29.7 4.3 Z M 33 4.3 L 40.2 12.8 L 40.2 4.3 L 41.3 4.3 L 41.3 14.6 L 40.3 14.6 L 33.1 6.1 L 33.1 14.6 L 32 14.6 L 32 4.3 L 33 4.3 Z M 44.7 4.3 L 44.7 14.6 L 43.6 14.6 L 43.6 4.3 L 44.7 4.3 Z M 47.9 4.3 L 55.2 12.8 L 55.2 4.3 L 56.2 4.3 L 56.2 14.6 L 55.3 14.6 L 48.1 6.1 L 48.1 14.6 L 47 14.6 L 47 4.3 L 47.9 4.3 Z M 67 6.2 C 65.9 5.6 64.6 5.2 63.5 5.2 C 61.1 5.2 59.3 7 59.3 9.4 C 59.3 11.9 61 13.7 63.6 13.7 C 64.4 13.7 65 13.6 66.1 13.2 C 66.07 13.18 66.1 10.7 66.1 10.7 L 64 10.7 L 64 9.7 L 67.2 9.7 C 67.2 9.7 67.2 13.87 67.2 13.9 C 66 14.4 64.9 14.7 63.6 14.7 C 59.9 14.7 58.1 12.1 58.1 9.5 C 58.1 6.6 60.2 4.2 63.5 4.2 C 64.7 4.2 65.6 4.5 67 5.1 C 67 5.1 67 6.2 67 6.2 Z " stroke="none" fill="#f28620"/>  </g></svg>