<?xml version="1.0" standalone="no"?><!DOCTYPE svg PUBLIC "-//W3C//DTD SVG 1.1//EN" "http://www.w3.org/Graphics/SVG/1.1/DTD/svg11.dtd"><svg xmlns="http://www.w3.org/2000/svg" version="1.1" width="958px" height="68.2px" viewBox="0 -11 958 68.2" style="top:-11px">  <desc>AWARDING I LEARNING I MANAGED SERVICES</desc>  <defs/>  <g id="Polygon4556">    <path d="M 15.2 1.9 L 28.8 32.8 L 26.4 32.8 L 21.9 22.6 L 7 22.6 L 2.6 32.8 L 0.1 32.8 L 13.5 1.9 L 15.2 1.9 Z M 7.9 20.5 L 20.9 20.5 L 14.4 5.5 L 7.9 20.5 Z M 26.6 2.1 L 29 2.1 L 39 27.7 L 39.1 27.7 L 48.8 2.1 L 50.6 2.1 L 60.6 27.5 L 60.7 27.5 L 70.3 2.1 L 72.8 2.1 L 60.8 33.1 L 60.3 33.1 L 49.7 5.8 L 39.3 33.1 L 38.8 33.1 L 26.6 2.1 Z M 85.6 1.9 L 99.3 32.8 L 96.8 32.8 L 92.3 22.6 L 77.4 22.6 L 73 32.8 L 70.6 32.8 L 84 1.9 L 85.6 1.9 Z M 78.3 20.5 L 91.4 20.5 L 84.8 5.5 L 78.3 20.5 Z M 102.9 2.1 C 102.9 2.1 110.65 2.11 110.7 2.1 C 116.8 2.1 120 5.2 120 10.1 C 120 14.1 117.6 16.7 113.6 17.6 C 115.6 18.5 116.6 19.4 118.7 22.6 C 118.66 22.59 125.2 32.8 125.2 32.8 L 122.4 32.8 C 122.4 32.8 116.46 23.4 116.5 23.4 C 113.8 19.3 112 18.3 109 18.3 C 108.99 18.31 105.3 18.3 105.3 18.3 L 105.3 32.8 L 102.9 32.8 L 102.9 2.1 Z M 108.8 16.2 C 114 16.2 117.6 14.9 117.6 10.1 C 117.6 5.6 114.5 4.2 110.1 4.2 C 110.07 4.23 105.3 4.2 105.3 4.2 L 105.3 16.2 C 105.3 16.2 108.81 16.15 108.8 16.2 Z M 128.5 2.1 C 128.5 2.1 139.45 2.11 139.5 2.1 C 149.3 2.1 155.9 8.3 155.9 17.1 C 155.9 26.7 149.3 32.8 139.5 32.8 C 139.5 32.8 128.5 32.8 128.5 32.8 L 128.5 2.1 Z M 139.6 30.6 C 147.9 30.6 153.5 25.4 153.5 17.5 C 153.5 9.4 148 4.3 139.2 4.3 C 139.23 4.27 130.9 4.3 130.9 4.3 L 130.9 30.6 C 130.9 30.6 139.59 30.64 139.6 30.6 Z M 164 2.1 L 164 32.8 L 161.6 32.8 L 161.6 2.1 L 164 2.1 Z M 173 2.1 L 195.9 29.1 L 195.9 2.1 L 198.1 2.1 L 198.1 32.8 L 196.1 32.8 L 173.2 5.9 L 173.2 32.8 L 171 32.8 L 171 2.1 L 173 2.1 Z M 229.9 6.7 C 226.6 4.8 223 3.9 219.6 3.9 C 211.9 3.9 206.3 9.6 206.3 17.2 C 206.3 25.5 211.6 31.1 219.9 31.1 C 222.7 31.1 225.2 30.5 228.1 29.2 C 228.1 29.2 228.1 20.7 228.1 20.7 L 221.5 20.7 L 221.5 18.6 L 230.4 18.6 C 230.4 18.6 230.44 30.73 230.4 30.7 C 227.2 32.4 224 33.2 219.9 33.2 C 209.5 33.2 203.8 26.1 203.8 17.5 C 203.8 8.6 210.2 1.7 219.7 1.7 C 223.2 1.7 226.3 2.5 229.9 4.1 C 229.9 4.1 229.9 6.7 229.9 6.7 Z M 264.2 2.1 L 264.2 32.8 L 261.9 32.8 L 261.9 2.1 L 264.2 2.1 Z M 298.6 2.1 L 298.6 30.6 L 313.7 30.6 L 313.7 32.8 L 296.3 32.8 L 296.3 2.1 L 298.6 2.1 Z M 333.9 2.1 L 333.9 4.2 L 320 4.2 L 320 16.2 L 333.4 16.2 L 333.4 18.4 L 320 18.4 L 320 30.7 L 334.3 30.7 L 334.3 32.8 L 317.7 32.8 L 317.7 2.1 L 333.9 2.1 Z M 352.3 1.9 L 365.9 32.8 L 363.4 32.8 L 358.9 22.6 L 344 22.6 L 339.7 32.8 L 337.2 32.8 L 350.6 1.9 L 352.3 1.9 Z M 345 20.5 L 358 20.5 L 351.4 5.5 L 345 20.5 Z M 369.5 2.1 C 369.5 2.1 377.28 2.11 377.3 2.1 C 383.4 2.1 386.6 5.2 386.6 10.1 C 386.6 14.1 384.3 16.7 380.2 17.6 C 382.3 18.5 383.3 19.4 385.3 22.6 C 385.29 22.59 391.8 32.8 391.8 32.8 L 389 32.8 C 389 32.8 383.08 23.4 383.1 23.4 C 380.5 19.3 378.7 18.3 375.6 18.3 C 375.61 18.31 371.9 18.3 371.9 18.3 L 371.9 32.8 L 369.5 32.8 L 369.5 2.1 Z M 375.4 16.2 C 380.7 16.2 384.2 14.9 384.2 10.1 C 384.2 5.6 381.1 4.2 376.7 4.2 C 376.69 4.23 371.9 4.2 371.9 4.2 L 371.9 16.2 C 371.9 16.2 375.43 16.15 375.4 16.2 Z M 397.2 2.1 L 420 29.1 L 420 2.1 L 422.3 2.1 L 422.3 32.8 L 420.2 32.8 L 397.4 5.9 L 397.4 32.8 L 395.1 32.8 L 395.1 2.1 L 397.2 2.1 Z M 431.6 2.1 L 431.6 32.8 L 429.3 32.8 L 429.3 2.1 L 431.6 2.1 Z M 440.7 2.1 L 463.5 29.1 L 463.5 2.1 L 465.8 2.1 L 465.8 32.8 L 463.7 32.8 L 440.9 5.9 L 440.9 32.8 L 438.7 32.8 L 438.7 2.1 L 440.7 2.1 Z M 497.5 6.7 C 494.2 4.8 490.6 3.9 487.2 3.9 C 479.6 3.9 473.9 9.6 473.9 17.2 C 473.9 25.5 479.3 31.1 487.6 31.1 C 490.4 31.1 492.8 30.5 495.8 29.2 C 495.76 29.2 495.8 20.7 495.8 20.7 L 489.1 20.7 L 489.1 18.6 L 498.1 18.6 C 498.1 18.6 498.1 30.73 498.1 30.7 C 494.9 32.4 491.7 33.2 487.5 33.2 C 477.2 33.2 471.5 26.1 471.5 17.5 C 471.5 8.6 477.8 1.7 487.3 1.7 C 490.9 1.7 494 2.5 497.5 4.1 C 497.5 4.1 497.5 6.7 497.5 6.7 Z M 531.9 2.1 L 531.9 32.8 L 529.6 32.8 L 529.6 2.1 L 531.9 2.1 Z M 563.9 2.1 L 566.2 2.1 L 577.7 16.5 L 589.2 2.1 L 591.4 2.1 L 591.4 32.8 L 589.1 32.8 L 589.1 5.8 L 589 5.8 L 577.9 19.8 L 577.5 19.8 L 566.4 5.8 L 566.3 5.8 L 566.3 32.8 L 563.9 32.8 L 563.9 2.1 Z M 610.1 1.9 L 623.8 32.8 L 621.3 32.8 L 616.8 22.6 L 601.9 22.6 L 597.5 32.8 L 595.1 32.8 L 608.5 1.9 L 610.1 1.9 Z M 602.9 20.5 L 615.9 20.5 L 609.3 5.5 L 602.9 20.5 Z M 629.5 2.1 L 652.3 29.1 L 652.3 2.1 L 654.6 2.1 L 654.6 32.8 L 652.5 32.8 L 629.7 5.9 L 629.7 32.8 L 627.4 32.8 L 627.4 2.1 L 629.5 2.1 Z M 673.3 1.9 L 686.9 32.8 L 684.4 32.8 L 679.9 22.6 L 665 22.6 L 660.7 32.8 L 658.2 32.8 L 671.6 1.9 L 673.3 1.9 Z M 666 20.5 L 679 20.5 L 672.4 5.5 L 666 20.5 Z M 713.9 6.7 C 710.6 4.8 707 3.9 703.6 3.9 C 696 3.9 690.3 9.6 690.3 17.2 C 690.3 25.5 695.7 31.1 704 31.1 C 706.8 31.1 709.2 30.5 712.2 29.2 C 712.16 29.2 712.2 20.7 712.2 20.7 L 705.5 20.7 L 705.5 18.6 L 714.5 18.6 C 714.5 18.6 714.5 30.73 714.5 30.7 C 711.3 32.4 708.1 33.2 703.9 33.2 C 693.6 33.2 687.9 26.1 687.9 17.5 C 687.9 8.6 694.3 1.7 703.7 1.7 C 707.3 1.7 710.4 2.5 713.9 4.1 C 713.9 4.1 713.9 6.7 713.9 6.7 Z M 737.1 2.1 L 737.1 4.2 L 723.3 4.2 L 723.3 16.2 L 736.7 16.2 L 736.7 18.4 L 723.3 18.4 L 723.3 30.7 L 737.5 30.7 L 737.5 32.8 L 720.9 32.8 L 720.9 2.1 L 737.1 2.1 Z M 742.7 2.1 C 742.7 2.1 753.61 2.11 753.6 2.1 C 763.5 2.1 770.1 8.3 770.1 17.1 C 770.1 26.7 763.4 32.8 753.7 32.8 C 753.65 32.8 742.7 32.8 742.7 32.8 L 742.7 2.1 Z M 753.7 30.6 C 762.1 30.6 767.6 25.4 767.6 17.5 C 767.6 9.4 762.1 4.3 753.4 4.3 C 753.38 4.27 745 4.3 745 4.3 L 745 30.6 C 745 30.6 753.74 30.64 753.7 30.6 Z M 801.8 3.5 C 801.8 3.5 801.8 6.2 801.8 6.2 C 799.7 4.6 797.5 3.8 795.2 3.8 C 791.5 3.8 789 6 789 9.2 C 789 11.6 789.7 13.6 795.2 16.1 C 801.4 18.9 803 21.1 803 25.3 C 803 29.9 799.6 33.2 794.4 33.2 C 791.5 33.2 789 32.4 786.7 30.7 C 786.7 30.7 786.7 27.8 786.7 27.8 C 789.2 30 791.6 31.1 794.4 31.1 C 798 31.1 800.6 28.8 800.6 25.3 C 800.6 22.2 799.5 20.6 793.7 17.9 C 788.6 15.5 786.6 13.3 786.6 9.3 C 786.6 4.9 790.2 1.7 795.3 1.7 C 797.5 1.7 799.8 2.3 801.8 3.5 Z M 824.3 2.1 L 824.3 4.2 L 810.5 4.2 L 810.5 16.2 L 823.9 16.2 L 823.9 18.4 L 810.5 18.4 L 810.5 30.7 L 824.7 30.7 L 824.7 32.8 L 808.2 32.8 L 808.2 2.1 L 824.3 2.1 Z M 829.9 2.1 C 829.9 2.1 837.66 2.11 837.7 2.1 C 843.8 2.1 847 5.2 847 10.1 C 847 14.1 844.6 16.7 840.6 17.6 C 842.7 18.5 843.6 19.4 845.7 22.6 C 845.67 22.59 852.2 32.8 852.2 32.8 L 849.4 32.8 C 849.4 32.8 843.47 23.4 843.5 23.4 C 840.9 19.3 839.1 18.3 836 18.3 C 836 18.31 832.3 18.3 832.3 18.3 L 832.3 32.8 L 829.9 32.8 L 829.9 2.1 Z M 835.8 16.2 C 841 16.2 844.6 14.9 844.6 10.1 C 844.6 5.6 841.5 4.2 837.1 4.2 C 837.08 4.23 832.3 4.2 832.3 4.2 L 832.3 16.2 C 832.3 16.2 835.82 16.15 835.8 16.2 Z M 850.6 2.1 L 853 2.1 L 863.8 28.2 L 863.8 28.2 L 874.5 2.1 L 876.9 2.1 L 864 33.3 L 863.5 33.3 L 850.6 2.1 Z M 882.9 2.1 L 882.9 32.8 L 880.5 32.8 L 880.5 2.1 L 882.9 2.1 Z M 914.6 4 C 914.6 4 914.6 6.7 914.6 6.7 C 911.4 4.9 908 3.9 904.4 3.9 C 896.3 3.9 891 10 891 17.5 C 891 25.2 896.4 31 904.4 31 C 908 31 911.5 30 914.7 28.1 C 914.7 28.1 914.7 30.8 914.7 30.8 C 911.5 32.4 908.1 33.2 904.4 33.2 C 894.5 33.2 888.6 25.8 888.6 17.6 C 888.6 8.5 895.2 1.7 904.4 1.7 C 908 1.7 911.4 2.6 914.6 4 Z M 936.1 2.1 L 936.1 4.2 L 922.3 4.2 L 922.3 16.2 L 935.7 16.2 L 935.7 18.4 L 922.3 18.4 L 922.3 30.7 L 936.5 30.7 L 936.5 32.8 L 919.9 32.8 L 919.9 2.1 L 936.1 2.1 Z M 955.2 3.5 C 955.2 3.5 955.2 6.2 955.2 6.2 C 953.1 4.6 950.8 3.8 948.6 3.8 C 944.9 3.8 942.4 6 942.4 9.2 C 942.4 11.6 943 13.6 948.5 16.1 C 954.7 18.9 956.4 21.1 956.4 25.3 C 956.4 29.9 952.9 33.2 947.7 33.2 C 944.9 33.2 942.3 32.4 940.1 30.7 C 940.1 30.7 940.1 27.8 940.1 27.8 C 942.5 30 945 31.1 947.8 31.1 C 951.4 31.1 953.9 28.8 953.9 25.3 C 953.9 22.2 952.8 20.6 947.1 17.9 C 941.9 15.5 940 13.3 940 9.3 C 940 4.9 943.6 1.7 948.6 1.7 C 950.9 1.7 953.2 2.3 955.2 3.5 Z " stroke="none" fill="#ffffff"/>  </g></svg>