<?xml version="1.0" standalone="no"?><!DOCTYPE svg PUBLIC "-//W3C//DTD SVG 1.1//EN" "http://www.w3.org/Graphics/SVG/1.1/DTD/svg11.dtd"><svg xmlns="http://www.w3.org/2000/svg" version="1.1" width="151px" height="98.4px" viewBox="0 -4 151 98.4" style="top:-4px">  <desc>EPA Bespoke &amp; Collaborative Approach</desc>  <defs/>  <g id="Polygon46145">    <path d="M 7 69.2 L 13.1 82.9 L 11.5 82.9 L 9.6 78.7 L 3.4 78.7 L 1.6 82.9 L 0 82.9 L 5.9 69.2 L 7 69.2 Z M 4 77.3 L 9 77.3 L 6.4 71.5 L 4 77.3 Z M 18.5 69.3 C 21.2 69.3 22.9 70.7 22.9 73.1 C 22.9 75.6 21.2 76.8 18.3 76.8 C 18.26 76.79 16.1 76.8 16.1 76.8 L 16.1 82.9 L 14.6 82.9 L 14.6 69.3 C 14.6 69.3 18.52 69.29 18.5 69.3 Z M 16.1 75.5 C 16.1 75.5 18.22 75.47 18.2 75.5 C 20.5 75.5 21.4 74.6 21.4 73 C 21.4 71.5 20.4 70.6 18.2 70.6 C 18.22 70.61 16.1 70.6 16.1 70.6 L 16.1 75.5 Z M 28.9 69.3 C 31.6 69.3 33.3 70.7 33.3 73.1 C 33.3 75.6 31.6 76.8 28.6 76.8 C 28.64 76.79 26.5 76.8 26.5 76.8 L 26.5 82.9 L 25 82.9 L 25 69.3 C 25 69.3 28.9 69.29 28.9 69.3 Z M 26.5 75.5 C 26.5 75.5 28.6 75.47 28.6 75.5 C 30.9 75.5 31.7 74.6 31.7 73 C 31.7 71.5 30.8 70.6 28.6 70.6 C 28.6 70.61 26.5 70.6 26.5 70.6 L 26.5 75.5 Z M 35.4 69.3 C 35.4 69.3 38.98 69.29 39 69.3 C 41.7 69.3 43.1 70.9 43.1 73 C 43.1 74.7 42.2 75.8 40.6 76.3 C 41.4 76.8 41.8 77.1 43 78.9 C 42.96 78.85 45.6 82.9 45.6 82.9 L 43.8 82.9 C 43.8 82.9 41.42 79.17 41.4 79.2 C 40.2 77.2 39.3 76.7 38.2 76.7 C 38.16 76.73 36.9 76.7 36.9 76.7 L 36.9 82.9 L 35.4 82.9 L 35.4 69.3 Z M 38.3 75.4 C 40.2 75.4 41.6 75 41.6 73 C 41.6 71.3 40.5 70.6 38.8 70.6 C 38.78 70.61 36.9 70.6 36.9 70.6 L 36.9 75.4 C 36.9 75.4 38.3 75.41 38.3 75.4 Z M 60.5 76.1 C 60.5 79.9 57.7 83.1 53.2 83.1 C 48.9 83.1 46.1 79.9 46.1 76.2 C 46.1 72.4 48.8 69.1 53.2 69.1 C 57.6 69.1 60.5 72.3 60.5 76.1 Z M 47.6 76.1 C 47.6 79.4 50.1 81.7 53.2 81.7 C 57.3 81.7 58.9 78.6 58.9 76.1 C 58.9 73.3 56.9 70.5 53.3 70.5 C 49.6 70.5 47.6 73.4 47.6 76.1 Z M 67.8 69.2 L 73.9 82.9 L 72.3 82.9 L 70.4 78.7 L 64.2 78.7 L 62.4 82.9 L 60.8 82.9 L 66.7 69.2 L 67.8 69.2 Z M 64.8 77.3 L 69.8 77.3 L 67.2 71.5 L 64.8 77.3 Z M 86.1 70.2 C 86.1 70.2 86.1 71.8 86.1 71.8 C 84.7 71 83.1 70.5 81.5 70.5 C 78 70.5 75.8 73.1 75.8 76.1 C 75.8 79.2 78 81.7 81.5 81.7 C 83.2 81.7 84.7 81.2 86.2 80.3 C 86.2 80.3 86.2 82 86.2 82 C 84.7 82.8 83.1 83.1 81.4 83.1 C 76.7 83.1 74.2 79.6 74.2 76.2 C 74.2 72.1 77.4 69.1 81.5 69.1 C 83 69.1 84.6 69.5 86.1 70.2 Z M 90.1 69.3 L 90.1 75.4 L 98.3 75.4 L 98.3 69.3 L 99.8 69.3 L 99.8 82.9 L 98.3 82.9 L 98.3 76.8 L 90.1 76.8 L 90.1 82.9 L 88.6 82.9 L 88.6 69.3 L 90.1 69.3 Z " stroke="none" fill="#000000"/>  </g>  <g id="Polygon46144">    <path d="M 12.8 46.2 C 12.8 46.2 12.8 47.8 12.8 47.8 C 11.4 47 9.8 46.5 8.2 46.5 C 4.7 46.5 2.5 49.1 2.5 52.1 C 2.5 55.2 4.7 57.7 8.2 57.7 C 9.9 57.7 11.4 57.2 12.9 56.3 C 12.9 56.3 12.9 58 12.9 58 C 11.4 58.8 9.8 59.1 8.1 59.1 C 3.4 59.1 0.9 55.6 0.9 52.2 C 0.9 48.1 4.1 45.1 8.2 45.1 C 9.7 45.1 11.3 45.5 12.8 46.2 Z M 28.6 52.1 C 28.6 55.9 25.8 59.1 21.3 59.1 C 17 59.1 14.2 55.9 14.2 52.2 C 14.2 48.4 16.9 45.1 21.3 45.1 C 25.7 45.1 28.6 48.3 28.6 52.1 Z M 15.7 52.1 C 15.7 55.4 18.2 57.7 21.3 57.7 C 25.3 57.7 27 54.6 27 52.1 C 27 49.3 25 46.5 21.4 46.5 C 17.7 46.5 15.7 49.4 15.7 52.1 Z M 32.5 45.3 L 32.5 57.6 L 38.9 57.6 L 38.9 58.9 L 31 58.9 L 31 45.3 L 32.5 45.3 Z M 42.2 45.3 L 42.2 57.6 L 48.6 57.6 L 48.6 58.9 L 40.7 58.9 L 40.7 45.3 L 42.2 45.3 Z M 56.1 45.2 L 62.2 58.9 L 60.7 58.9 L 58.7 54.7 L 52.5 54.7 L 50.7 58.9 L 49.2 58.9 L 55.1 45.2 L 56.1 45.2 Z M 53.1 53.3 L 58.1 53.3 L 55.6 47.5 L 53.1 53.3 Z M 67.3 45.3 C 69.8 45.3 71.5 46.6 71.5 48.8 C 71.5 50.2 70.7 51.3 69.2 51.8 C 71.4 52.1 72.7 53.5 72.7 55.3 C 72.7 57.8 70.4 58.9 67.9 58.9 C 67.92 58.93 63.8 58.9 63.8 58.9 L 63.8 45.3 C 63.8 45.3 67.28 45.29 67.3 45.3 Z M 65.2 51.4 C 65.2 51.4 66.74 51.35 66.7 51.4 C 69 51.4 69.9 50.3 69.9 48.9 C 69.9 47.3 69 46.6 67 46.6 C 66.98 46.61 65.2 46.6 65.2 46.6 L 65.2 51.4 Z M 67.6 57.6 C 69.8 57.6 71.1 56.9 71.1 55.2 C 71.1 53.6 70 52.7 67.4 52.7 C 67.42 52.65 65.2 52.7 65.2 52.7 L 65.2 57.6 C 65.2 57.6 67.64 57.61 67.6 57.6 Z M 88.4 52.1 C 88.4 55.9 85.6 59.1 81.1 59.1 C 76.9 59.1 74.1 55.9 74.1 52.2 C 74.1 48.4 76.8 45.1 81.2 45.1 C 85.6 45.1 88.4 48.3 88.4 52.1 Z M 75.6 52.1 C 75.6 55.4 78.1 57.7 81.2 57.7 C 85.2 57.7 86.9 54.6 86.9 52.1 C 86.9 49.3 84.8 46.5 81.3 46.5 C 77.6 46.5 75.6 49.4 75.6 52.1 Z M 90.9 45.3 C 90.9 45.3 94.48 45.29 94.5 45.3 C 97.2 45.3 98.6 46.9 98.6 49 C 98.6 50.7 97.7 51.8 96.1 52.3 C 96.9 52.8 97.3 53.1 98.5 54.9 C 98.46 54.85 101.1 58.9 101.1 58.9 L 99.3 58.9 C 99.3 58.9 96.92 55.17 96.9 55.2 C 95.7 53.2 94.8 52.7 93.7 52.7 C 93.66 52.73 92.4 52.7 92.4 52.7 L 92.4 58.9 L 90.9 58.9 L 90.9 45.3 Z M 93.8 51.4 C 95.7 51.4 97.1 51 97.1 49 C 97.1 47.3 96 46.6 94.3 46.6 C 94.28 46.61 92.4 46.6 92.4 46.6 L 92.4 51.4 C 92.4 51.4 93.8 51.41 93.8 51.4 Z M 108.1 45.2 L 114.1 58.9 L 112.6 58.9 L 110.7 54.7 L 104.5 54.7 L 102.6 58.9 L 101.1 58.9 L 107 45.2 L 108.1 45.2 Z M 105.1 53.3 L 110.1 53.3 L 107.5 47.5 L 105.1 53.3 Z M 124 45.3 L 124 46.6 L 119.1 46.6 L 119.1 58.9 L 117.6 58.9 L 117.6 46.6 L 112.8 46.6 L 112.8 45.3 L 124 45.3 Z M 127.3 45.3 L 127.3 58.9 L 125.8 58.9 L 125.8 45.3 L 127.3 45.3 Z M 128.9 45.3 L 130.4 45.3 L 134.8 55.9 L 134.8 55.9 L 139.3 45.3 L 140.8 45.3 L 135 59.1 L 134.7 59.1 L 128.9 45.3 Z M 149.8 45.3 L 149.8 46.6 L 143.8 46.6 L 143.8 51.4 L 149.6 51.4 L 149.6 52.7 L 143.8 52.7 L 143.8 57.6 L 149.9 57.6 L 149.9 58.9 L 142.3 58.9 L 142.3 45.3 L 149.8 45.3 Z " stroke="none" fill="#000000"/>  </g>  <g id="Polygon46143">    <path d="M 5.1 21.3 C 7.6 21.3 9.3 22.6 9.3 24.8 C 9.3 26.2 8.5 27.3 7 27.8 C 9.1 28.1 10.4 29.5 10.4 31.3 C 10.4 33.8 8.2 34.9 5.7 34.9 C 5.7 34.93 1.5 34.9 1.5 34.9 L 1.5 21.3 C 1.5 21.3 5.06 21.29 5.1 21.3 Z M 3 27.4 C 3 27.4 4.52 27.35 4.5 27.4 C 6.8 27.4 7.7 26.3 7.7 24.9 C 7.7 23.3 6.8 22.6 4.8 22.6 C 4.76 22.61 3 22.6 3 22.6 L 3 27.4 Z M 5.4 33.6 C 7.6 33.6 8.9 32.9 8.9 31.2 C 8.9 29.6 7.8 28.7 5.2 28.7 C 5.2 28.65 3 28.7 3 28.7 L 3 33.6 C 3 33.6 5.42 33.61 5.4 33.6 Z M 20.1 21.3 L 20.1 22.6 L 14.2 22.6 L 14.2 27.4 L 19.9 27.4 L 19.9 28.7 L 14.2 28.7 L 14.2 33.6 L 20.3 33.6 L 20.3 34.9 L 12.7 34.9 L 12.7 21.3 L 20.1 21.3 Z M 29 22 C 29 22 29 23.7 29 23.7 C 28.1 22.9 27.1 22.5 26 22.5 C 24.5 22.5 23.6 23.3 23.6 24.5 C 23.6 25.4 23.8 26.1 26.1 27.3 C 28.9 28.7 29.6 29.7 29.6 31.6 C 29.6 33.6 28 35.1 25.7 35.1 C 24.4 35.1 23.2 34.7 22.1 33.9 C 22.1 33.9 22.1 32 22.1 32 C 23.1 33.2 24.3 33.8 25.7 33.8 C 27 33.8 28 32.9 28 31.6 C 28 30.4 27.7 29.8 25 28.4 C 22.9 27.3 22.1 26.2 22.1 24.5 C 22.1 22.6 23.7 21.1 26 21.1 C 27.1 21.1 28.1 21.4 29 22 Z M 35.8 21.3 C 38.5 21.3 40.2 22.7 40.2 25.1 C 40.2 27.6 38.4 28.8 35.5 28.8 C 35.52 28.79 33.4 28.8 33.4 28.8 L 33.4 34.9 L 31.9 34.9 L 31.9 21.3 C 31.9 21.3 35.78 21.29 35.8 21.3 Z M 33.4 27.5 C 33.4 27.5 35.48 27.47 35.5 27.5 C 37.8 27.5 38.6 26.6 38.6 25 C 38.6 23.5 37.7 22.6 35.5 22.6 C 35.48 22.61 33.4 22.6 33.4 22.6 L 33.4 27.5 Z M 56.1 28.1 C 56.1 31.9 53.3 35.1 48.8 35.1 C 44.5 35.1 41.7 31.9 41.7 28.2 C 41.7 24.4 44.4 21.1 48.8 21.1 C 53.2 21.1 56.1 24.3 56.1 28.1 Z M 43.2 28.1 C 43.2 31.4 45.7 33.7 48.8 33.7 C 52.8 33.7 54.5 30.6 54.5 28.1 C 54.5 25.3 52.5 22.5 48.9 22.5 C 45.2 22.5 43.2 25.4 43.2 28.1 Z M 60 21.3 L 60 27.7 L 66 21.3 L 67.9 21.3 L 61.8 27.9 L 69.1 34.9 L 67 34.9 L 60 28.2 L 60 34.9 L 58.5 34.9 L 58.5 21.3 L 60 21.3 Z M 78 21.3 L 78 22.6 L 72.1 22.6 L 72.1 27.4 L 77.8 27.4 L 77.8 28.7 L 72.1 28.7 L 72.1 33.6 L 78.2 33.6 L 78.2 34.9 L 70.6 34.9 L 70.6 21.3 L 78 21.3 Z M 93.2 30.8 C 93.8 30 94.3 29.1 94.7 28.2 C 94.7 28.2 96.2 28.2 96.2 28.2 C 95.8 29.3 95.1 30.6 94.1 31.8 C 94.3 32.1 94.6 32.3 94.8 32.6 C 94.8 32.57 97 34.9 97 34.9 L 95 34.9 C 95 34.9 93.12 32.83 93.1 32.8 C 92 34 90.4 35.1 88.7 35.1 C 86.7 35.1 85.1 33.8 85.1 31.9 C 85.1 30.2 86.5 28.9 88.5 27.8 C 87.4 26.6 86.8 25.6 86.7 24.6 C 86.7 24.4 86.7 24.2 86.8 24 C 87 22.7 88 21.4 90 21.4 C 92.2 21.4 93.3 22.9 93.3 24.4 C 93.3 25.6 92.6 26.7 90.6 28 C 90.6 28 93.2 30.8 93.2 30.8 Z M 89.4 28.8 C 89.4 28.8 88.46 29.37 88.5 29.4 C 87.3 30.2 86.7 30.9 86.6 31.8 C 86.6 32.8 87.4 33.6 88.5 33.7 C 88.6 33.7 88.8 33.7 89 33.7 C 90.4 33.5 91.3 32.8 92.2 31.8 C 92.2 31.81 89.4 28.8 89.4 28.8 Z M 91.9 24.4 C 91.9 23.4 91.1 22.7 90 22.7 C 89 22.7 88.2 23.4 88.2 24.3 C 88.2 25.3 89.1 26.3 89.8 27 C 91.3 26.1 91.9 25.3 91.9 24.4 Z " stroke="none" fill="#000000"/>  </g>  <g id="Polygon46142">    <path d="M 6.8 0.7 L 6.8 1.7 L 2.3 1.7 L 2.3 5.3 L 6.6 5.3 L 6.6 6.3 L 2.3 6.3 L 2.3 9.9 L 6.9 9.9 L 6.9 10.9 L 1.2 10.9 L 1.2 0.7 L 6.8 0.7 Z M 11.6 0.7 C 13.6 0.7 14.9 1.7 14.9 3.5 C 14.9 5.4 13.6 6.3 11.4 6.3 C 11.4 6.33 9.8 6.3 9.8 6.3 L 9.8 10.9 L 8.7 10.9 L 8.7 0.7 C 8.7 0.7 11.59 0.7 11.6 0.7 Z M 9.8 5.3 C 9.8 5.3 11.37 5.34 11.4 5.3 C 13.1 5.3 13.7 4.7 13.7 3.5 C 13.7 2.3 13 1.7 11.4 1.7 C 11.37 1.69 9.8 1.7 9.8 1.7 L 9.8 5.3 Z M 19.7 0.6 L 24.2 10.9 L 23.1 10.9 L 21.6 7.7 L 17 7.7 L 15.6 10.9 L 14.5 10.9 L 18.9 0.6 L 19.7 0.6 Z M 17.4 6.7 L 21.2 6.7 L 19.3 2.4 L 17.4 6.7 Z " stroke="none" fill="#f28620"/>  </g></svg>