<?xml version="1.0" standalone="no"?><!DOCTYPE svg PUBLIC "-//W3C//DTD SVG 1.1//EN" "http://www.w3.org/Graphics/SVG/1.1/DTD/svg11.dtd"><svg xmlns="http://www.w3.org/2000/svg" version="1.1" width="1543px" height="162.3px" viewBox="0 -14 1543 162.3" style="top:-14px">  <desc>Advanced Problem Solving And Decision Making When Dealing With Customers In Arrears</desc>  <defs/>  <g id="Polygon18812">    <path d="M 4.6 74.8 L 8.9 74.8 L 23.3 92.8 L 37.7 74.8 L 42 74.8 L 42 115.7 L 37.5 115.7 L 37.5 82 L 37.4 82 L 23.7 99.1 L 22.9 99.1 L 9.2 82 L 9.1 82 L 9.1 115.7 L 4.6 115.7 L 4.6 74.8 Z M 67.6 74.6 L 85.9 115.7 L 81.2 115.7 L 75.5 102.9 L 56.9 102.9 L 51.4 115.7 L 46.7 115.7 L 64.4 74.6 L 67.6 74.6 Z M 58.6 98.9 L 73.7 98.9 L 65.9 81.5 L 58.6 98.9 Z M 95 74.8 L 95 94 L 113 74.8 L 118.6 74.8 L 100.3 94.5 L 122.2 115.7 L 116 115.7 L 95 95.4 L 95 115.7 L 90.5 115.7 L 90.5 74.8 L 95 74.8 Z M 131.2 74.8 L 131.2 115.7 L 126.7 115.7 L 126.7 74.8 L 131.2 74.8 Z M 144.1 74.8 L 173 108.7 L 173 74.8 L 177.4 74.8 L 177.4 115.7 L 173.4 115.7 L 144.7 82 L 144.7 115.7 L 140.3 115.7 L 140.3 74.8 L 144.1 74.8 Z M 220.3 82.3 C 215.8 79.7 210.8 78.3 206.2 78.3 C 196.7 78.3 189.4 85.5 189.4 95.1 C 189.4 105.2 196.4 112.3 206.6 112.3 C 210 112.3 212.5 111.7 216.7 110.2 C 216.66 110.16 216.7 100.2 216.7 100.2 L 208.3 100.2 L 208.3 96.2 L 221.2 96.2 C 221.2 96.2 221.16 112.92 221.2 112.9 C 216.5 115.2 211.9 116.3 206.6 116.3 C 191.9 116.3 184.7 106 184.7 95.5 C 184.7 83.9 193.3 74.3 206.4 74.3 C 211.1 74.3 214.9 75.2 220.3 77.6 C 220.3 77.6 220.3 82.3 220.3 82.3 Z M 241.4 74.8 L 246 74.8 L 258.3 106 L 258.4 106 L 270.5 74.8 L 274.5 74.8 L 286.9 105.8 L 286.9 105.8 L 298.9 74.8 L 303.5 74.8 L 287.2 116 L 286.3 116 L 272.5 81.2 L 258.8 116 L 257.8 116 L 241.4 74.8 Z M 312.7 74.8 L 312.7 93.1 L 337.6 93.1 L 337.6 74.8 L 342.1 74.8 L 342.1 115.7 L 337.6 115.7 L 337.6 97.2 L 312.7 97.2 L 312.7 115.7 L 308.2 115.7 L 308.2 74.8 L 312.7 74.8 Z M 373.6 74.8 L 373.6 78.8 L 355.7 78.8 L 355.7 93.1 L 373 93.1 L 373 97.1 L 355.7 97.1 L 355.7 111.7 L 374.1 111.7 L 374.1 115.7 L 351.2 115.7 L 351.2 74.8 L 373.6 74.8 Z M 385.1 74.8 L 414.1 108.7 L 414.1 74.8 L 418.4 74.8 L 418.4 115.7 L 414.4 115.7 L 385.7 82 L 385.7 115.7 L 381.4 115.7 L 381.4 74.8 L 385.1 74.8 Z M 443.8 74.8 C 443.8 74.8 458.87 74.82 458.9 74.8 C 472.2 74.8 480.9 83.2 480.9 94.9 C 480.9 107.6 471.9 115.7 458.9 115.7 C 458.87 115.74 443.8 115.7 443.8 115.7 L 443.8 74.8 Z M 458.8 111.7 C 469.5 111.7 476.2 105.3 476.2 95.2 C 476.2 85.3 469.7 78.8 458.1 78.8 C 458.15 78.84 448.3 78.8 448.3 78.8 L 448.3 111.7 C 448.3 111.7 458.81 111.66 458.8 111.7 Z M 510.8 74.8 L 510.8 78.8 L 492.9 78.8 L 492.9 93.1 L 510.2 93.1 L 510.2 97.1 L 492.9 97.1 L 492.9 111.7 L 511.2 111.7 L 511.2 115.7 L 488.4 115.7 L 488.4 74.8 L 510.8 74.8 Z M 536.3 74.6 L 554.5 115.7 L 549.9 115.7 L 544.1 102.9 L 525.5 102.9 L 520 115.7 L 515.4 115.7 L 533.1 74.6 L 536.3 74.6 Z M 527.3 98.9 L 542.3 98.9 L 534.6 81.5 L 527.3 98.9 Z M 563.7 74.8 L 563.7 111.6 L 582.9 111.6 L 582.9 115.7 L 559.2 115.7 L 559.2 74.8 L 563.7 74.8 Z M 592.7 74.8 L 592.7 115.7 L 588.2 115.7 L 588.2 74.8 L 592.7 74.8 Z M 605.6 74.8 L 634.5 108.7 L 634.5 74.8 L 638.9 74.8 L 638.9 115.7 L 634.9 115.7 L 606.2 82 L 606.2 115.7 L 601.8 115.7 L 601.8 74.8 L 605.6 74.8 Z M 681.8 82.3 C 677.3 79.7 672.3 78.3 667.7 78.3 C 658.2 78.3 650.9 85.5 650.9 95.1 C 650.9 105.2 657.9 112.3 668.1 112.3 C 671.5 112.3 674 111.7 678.2 110.2 C 678.17 110.16 678.2 100.2 678.2 100.2 L 669.8 100.2 L 669.8 96.2 L 682.7 96.2 C 682.7 96.2 682.67 112.92 682.7 112.9 C 678 115.2 673.4 116.3 668.1 116.3 C 653.4 116.3 646.2 106 646.2 95.5 C 646.2 83.9 654.8 74.3 667.9 74.3 C 672.6 74.3 676.4 75.2 681.8 77.6 C 681.8 77.6 681.8 82.3 681.8 82.3 Z M 702.9 74.8 L 707.5 74.8 L 719.8 106 L 719.9 106 L 732 74.8 L 736 74.8 L 748.4 105.8 L 748.4 105.8 L 760.4 74.8 L 765 74.8 L 748.7 116 L 747.8 116 L 734 81.2 L 720.3 116 L 719.3 116 L 702.9 74.8 Z M 774.2 74.8 L 774.2 115.7 L 769.7 115.7 L 769.7 74.8 L 774.2 74.8 Z M 813.3 74.8 L 813.3 78.8 L 798.6 78.8 L 798.6 115.7 L 794.1 115.7 L 794.1 78.8 L 779.7 78.8 L 779.7 74.8 L 813.3 74.8 Z M 823.3 74.8 L 823.3 93.1 L 848.1 93.1 L 848.1 74.8 L 852.6 74.8 L 852.6 115.7 L 848.1 115.7 L 848.1 97.2 L 823.3 97.2 L 823.3 115.7 L 818.8 115.7 L 818.8 74.8 L 823.3 74.8 Z M 911.9 77.5 C 911.9 77.5 911.9 82.4 911.9 82.4 C 907.5 79.9 902.8 78.5 898 78.5 C 887.6 78.5 881 86.3 881 95.3 C 881 104.5 887.5 112.1 897.9 112.1 C 903 112.1 907.8 110.6 912.2 107.9 C 912.2 107.9 912.2 112.9 912.2 112.9 C 907.6 115.2 902.9 116.3 897.8 116.3 C 883.7 116.3 876.3 105.7 876.3 95.5 C 876.3 83.3 885.6 74.3 897.9 74.3 C 902.6 74.3 907.2 75.4 911.9 77.5 Z M 923.2 74.8 C 923.2 74.8 923.2 98.4 923.2 98.4 C 923.2 107.5 927.5 112.3 935.9 112.3 C 944.4 112.3 948.5 107.3 948.5 98.4 C 948.52 98.4 948.5 74.8 948.5 74.8 L 953 74.8 C 953 74.8 953.02 98.4 953 98.4 C 953 109.1 947.3 116.3 936 116.3 C 924.7 116.3 918.7 109.9 918.7 98.4 C 918.7 98.4 918.7 74.8 918.7 74.8 L 923.2 74.8 Z M 980.7 76.9 C 980.7 76.9 980.7 82 980.7 82 C 977.9 79.6 974.8 78.4 971.4 78.4 C 967.1 78.4 964.3 80.8 964.3 84.3 C 964.3 87 965 89.3 971.7 92.8 C 980.2 97.1 982.2 100.1 982.2 105.7 C 982.2 111.7 977.6 116.3 970.5 116.3 C 966.6 116.3 963 115 959.9 112.7 C 959.9 112.7 959.9 107 959.9 107 C 963 110.4 966.6 112.3 970.5 112.3 C 974.7 112.3 977.7 109.7 977.7 105.7 C 977.7 102.2 976.5 100.2 968.6 96.1 C 962.2 92.8 959.7 89.6 959.7 84.4 C 959.7 78.6 964.7 74.3 971.6 74.3 C 974.7 74.3 977.9 75.2 980.7 76.9 Z M 1019.1 74.8 L 1019.1 78.8 L 1004.5 78.8 L 1004.5 115.7 L 1000 115.7 L 1000 78.8 L 985.5 78.8 L 985.5 74.8 L 1019.1 74.8 Z M 1063.4 95.1 C 1063.4 106.6 1055 116.3 1041.5 116.3 C 1028.7 116.3 1020.2 106.6 1020.2 95.5 C 1020.2 84.1 1028.4 74.3 1041.6 74.3 C 1054.7 74.3 1063.4 83.8 1063.4 95.1 Z M 1024.8 95.3 C 1024.8 105 1032.3 112.1 1041.5 112 C 1053.7 112 1058.7 102.6 1058.7 95.2 C 1058.7 86.9 1052.6 78.5 1041.9 78.5 C 1030.7 78.5 1024.8 87 1024.8 95.3 Z M 1070.7 74.8 L 1075 74.8 L 1089.5 92.8 L 1103.9 74.8 L 1108.1 74.8 L 1108.1 115.7 L 1103.6 115.7 L 1103.6 82 L 1103.5 82 L 1089.8 99.1 L 1089 99.1 L 1075.4 82 L 1075.2 82 L 1075.2 115.7 L 1070.7 115.7 L 1070.7 74.8 Z M 1139.7 74.8 L 1139.7 78.8 L 1121.9 78.8 L 1121.9 93.1 L 1139.1 93.1 L 1139.1 97.1 L 1121.9 97.1 L 1121.9 111.7 L 1140.2 111.7 L 1140.2 115.7 L 1117.4 115.7 L 1117.4 74.8 L 1139.7 74.8 Z M 1147.5 74.8 C 1147.5 74.8 1158.22 74.82 1158.2 74.8 C 1166.4 74.8 1170.7 79.6 1170.7 85.8 C 1170.7 90.9 1167.9 94.4 1163 95.9 C 1165.6 97.3 1166.8 98.3 1170.2 103.5 C 1170.16 103.5 1178.1 115.7 1178.1 115.7 L 1172.7 115.7 C 1172.7 115.7 1165.54 104.46 1165.5 104.5 C 1161.8 98.5 1159.2 97.1 1155.8 97.1 C 1155.76 97.14 1152 97.1 1152 97.1 L 1152 115.7 L 1147.5 115.7 L 1147.5 74.8 Z M 1156.2 93.2 C 1161.8 93.2 1166.1 91.8 1166.1 85.9 C 1166.1 80.8 1162.8 78.8 1157.6 78.8 C 1157.62 78.78 1152 78.8 1152 78.8 L 1152 93.2 C 1152 93.2 1156.18 93.18 1156.2 93.2 Z M 1202.5 76.9 C 1202.5 76.9 1202.5 82 1202.5 82 C 1199.7 79.6 1196.6 78.4 1193.3 78.4 C 1188.9 78.4 1186.1 80.8 1186.1 84.3 C 1186.1 87 1186.8 89.3 1193.6 92.8 C 1202 97.1 1204.1 100.1 1204.1 105.7 C 1204.1 111.7 1199.4 116.3 1192.4 116.3 C 1188.5 116.3 1184.9 115 1181.7 112.7 C 1181.7 112.7 1181.7 107 1181.7 107 C 1184.8 110.4 1188.4 112.3 1192.4 112.3 C 1196.5 112.3 1199.5 109.7 1199.5 105.7 C 1199.5 102.2 1198.4 100.2 1190.4 96.1 C 1184 92.8 1181.6 89.6 1181.6 84.4 C 1181.6 78.6 1186.5 74.3 1193.4 74.3 C 1196.6 74.3 1199.7 75.2 1202.5 76.9 Z M 1231.8 74.8 L 1231.8 115.7 L 1227.3 115.7 L 1227.3 74.8 L 1231.8 74.8 Z M 1244.7 74.8 L 1273.7 108.7 L 1273.7 74.8 L 1278 74.8 L 1278 115.7 L 1274.1 115.7 L 1245.3 82 L 1245.3 115.7 L 1241 115.7 L 1241 74.8 L 1244.7 74.8 Z M 1319.8 74.6 L 1338.1 115.7 L 1333.5 115.7 L 1327.7 102.9 L 1309.1 102.9 L 1303.6 115.7 L 1299 115.7 L 1316.7 74.6 L 1319.8 74.6 Z M 1310.8 98.9 L 1325.9 98.9 L 1318.2 81.5 L 1310.8 98.9 Z M 1342.8 74.8 C 1342.8 74.8 1353.51 74.82 1353.5 74.8 C 1361.7 74.8 1366 79.6 1366 85.8 C 1366 90.9 1363.2 94.4 1358.2 95.9 C 1360.9 97.3 1362.1 98.3 1365.4 103.5 C 1365.45 103.5 1373.4 115.7 1373.4 115.7 L 1368 115.7 C 1368 115.7 1360.83 104.46 1360.8 104.5 C 1357 98.5 1354.5 97.1 1351 97.1 C 1351.05 97.14 1347.3 97.1 1347.3 97.1 L 1347.3 115.7 L 1342.8 115.7 L 1342.8 74.8 Z M 1351.5 93.2 C 1357.1 93.2 1361.4 91.8 1361.4 85.9 C 1361.4 80.8 1358.1 78.8 1352.9 78.8 C 1352.91 78.78 1347.3 78.8 1347.3 78.8 L 1347.3 93.2 C 1347.3 93.2 1351.47 93.18 1351.5 93.2 Z M 1377.9 74.8 C 1377.9 74.8 1388.61 74.82 1388.6 74.8 C 1396.8 74.8 1401.1 79.6 1401.1 85.8 C 1401.1 90.9 1398.3 94.4 1393.3 95.9 C 1396 97.3 1397.2 98.3 1400.5 103.5 C 1400.55 103.5 1408.5 115.7 1408.5 115.7 L 1403.1 115.7 C 1403.1 115.7 1395.93 104.46 1395.9 104.5 C 1392.1 98.5 1389.6 97.1 1386.1 97.1 C 1386.15 97.14 1382.4 97.1 1382.4 97.1 L 1382.4 115.7 L 1377.9 115.7 L 1377.9 74.8 Z M 1386.6 93.2 C 1392.2 93.2 1396.5 91.8 1396.5 85.9 C 1396.5 80.8 1393.2 78.8 1388 78.8 C 1388.01 78.78 1382.4 78.8 1382.4 78.8 L 1382.4 93.2 C 1382.4 93.2 1386.57 93.18 1386.6 93.2 Z M 1435.3 74.8 L 1435.3 78.8 L 1417.5 78.8 L 1417.5 93.1 L 1434.7 93.1 L 1434.7 97.1 L 1417.5 97.1 L 1417.5 111.7 L 1435.8 111.7 L 1435.8 115.7 L 1413 115.7 L 1413 74.8 L 1435.3 74.8 Z M 1460.8 74.6 L 1479.1 115.7 L 1474.5 115.7 L 1468.7 102.9 L 1450.1 102.9 L 1444.6 115.7 L 1440 115.7 L 1457.7 74.6 L 1460.8 74.6 Z M 1451.8 98.9 L 1466.9 98.9 L 1459.2 81.5 L 1451.8 98.9 Z M 1483.8 74.8 C 1483.8 74.8 1494.51 74.82 1494.5 74.8 C 1502.7 74.8 1507 79.6 1507 85.8 C 1507 90.9 1504.2 94.4 1499.2 95.9 C 1501.9 97.3 1503.1 98.3 1506.4 103.5 C 1506.45 103.5 1514.4 115.7 1514.4 115.7 L 1509 115.7 C 1509 115.7 1501.83 104.46 1501.8 104.5 C 1498 98.5 1495.5 97.1 1492 97.1 C 1492.05 97.14 1488.3 97.1 1488.3 97.1 L 1488.3 115.7 L 1483.8 115.7 L 1483.8 74.8 Z M 1492.5 93.2 C 1498.1 93.2 1502.4 91.8 1502.4 85.9 C 1502.4 80.8 1499.1 78.8 1493.9 78.8 C 1493.91 78.78 1488.3 78.8 1488.3 78.8 L 1488.3 93.2 C 1488.3 93.2 1492.47 93.18 1492.5 93.2 Z M 1538.8 76.9 C 1538.8 76.9 1538.8 82 1538.8 82 C 1536 79.6 1532.9 78.4 1529.5 78.4 C 1525.2 78.4 1522.4 80.8 1522.4 84.3 C 1522.4 87 1523.1 89.3 1529.8 92.8 C 1538.3 97.1 1540.3 100.1 1540.3 105.7 C 1540.3 111.7 1535.7 116.3 1528.6 116.3 C 1524.7 116.3 1521.1 115 1518 112.7 C 1518 112.7 1518 107 1518 107 C 1521.1 110.4 1524.7 112.3 1528.6 112.3 C 1532.8 112.3 1535.8 109.7 1535.8 105.7 C 1535.8 102.2 1534.6 100.2 1526.7 96.1 C 1520.3 92.8 1517.8 89.6 1517.8 84.4 C 1517.8 78.6 1522.8 74.3 1529.7 74.3 C 1532.8 74.3 1536 75.2 1538.8 76.9 Z " stroke="none" fill="#010102"/>  </g>  <g id="Polygon18811">    <path d="M 21 2.6 L 39.2 43.7 L 34.6 43.7 L 28.9 30.9 L 10.3 30.9 L 4.7 43.7 L 0.1 43.7 L 17.8 2.6 L 21 2.6 Z M 12 26.9 L 27.1 26.9 L 19.3 9.5 L 12 26.9 Z M 43.9 2.8 C 43.9 2.8 58.98 2.82 59 2.8 C 72.4 2.8 81 11.2 81 22.9 C 81 35.6 72 43.7 59 43.7 C 58.98 43.74 43.9 43.7 43.9 43.7 L 43.9 2.8 Z M 58.9 39.7 C 69.7 39.7 76.3 33.3 76.3 23.2 C 76.3 13.3 69.8 6.8 58.3 6.8 C 58.26 6.84 48.4 6.8 48.4 6.8 L 48.4 39.7 C 48.4 39.7 58.92 39.66 58.9 39.7 Z M 82.2 2.8 L 86.7 2.8 L 100 34.7 L 100.1 34.7 L 113.3 2.8 L 117.8 2.8 L 100.6 44.2 L 99.5 44.2 L 82.2 2.8 Z M 135.5 2.6 L 153.7 43.7 L 149.1 43.7 L 143.3 30.9 L 124.7 30.9 L 119.2 43.7 L 114.6 43.7 L 132.3 2.6 L 135.5 2.6 Z M 126.5 26.9 L 141.5 26.9 L 133.8 9.5 L 126.5 26.9 Z M 162.1 2.8 L 191.1 36.7 L 191.1 2.8 L 195.4 2.8 L 195.4 43.7 L 191.5 43.7 L 162.7 10 L 162.7 43.7 L 158.4 43.7 L 158.4 2.8 L 162.1 2.8 Z M 238.4 5.5 C 238.4 5.5 238.4 10.4 238.4 10.4 C 234.1 7.9 229.3 6.5 224.5 6.5 C 214.1 6.5 207.5 14.3 207.5 23.3 C 207.5 32.5 214 40.1 224.5 40.1 C 229.6 40.1 234.3 38.6 238.7 35.9 C 238.7 35.9 238.7 40.9 238.7 40.9 C 234.1 43.2 229.4 44.3 224.3 44.3 C 210.2 44.3 202.8 33.7 202.8 23.5 C 202.8 11.3 212.2 2.3 224.5 2.3 C 229.1 2.3 233.8 3.4 238.4 5.5 Z M 268.1 2.8 L 268.1 6.8 L 250.3 6.8 L 250.3 21.1 L 267.5 21.1 L 267.5 25.1 L 250.3 25.1 L 250.3 39.7 L 268.6 39.7 L 268.6 43.7 L 245.8 43.7 L 245.8 2.8 L 268.1 2.8 Z M 275.9 2.8 C 275.9 2.8 290.94 2.82 290.9 2.8 C 304.3 2.8 313 11.2 313 22.9 C 313 35.6 304 43.7 290.9 43.7 C 290.94 43.74 275.9 43.7 275.9 43.7 L 275.9 2.8 Z M 290.9 39.7 C 301.6 39.7 308.3 33.3 308.3 23.2 C 308.3 13.3 301.8 6.8 290.2 6.8 C 290.22 6.84 280.4 6.8 280.4 6.8 L 280.4 39.7 C 280.4 39.7 290.88 39.66 290.9 39.7 Z M 348.8 2.8 C 356.9 2.8 361.9 7 361.9 14.1 C 361.9 21.7 356.8 25.3 348 25.3 C 348 25.32 341.6 25.3 341.6 25.3 L 341.6 43.7 L 337.1 43.7 L 337.1 2.8 C 337.1 2.8 348.78 2.82 348.8 2.8 Z M 341.6 21.4 C 341.6 21.4 347.88 21.36 347.9 21.4 C 354.8 21.4 357.3 18.7 357.3 14 C 357.3 9.4 354.5 6.8 347.9 6.8 C 347.88 6.78 341.6 6.8 341.6 6.8 L 341.6 21.4 Z M 368.3 2.8 C 368.3 2.8 379.02 2.82 379 2.8 C 387.2 2.8 391.5 7.6 391.5 13.8 C 391.5 18.9 388.7 22.4 383.8 23.9 C 386.4 25.3 387.6 26.3 391 31.5 C 390.96 31.5 398.9 43.7 398.9 43.7 L 393.5 43.7 C 393.5 43.7 386.34 32.46 386.3 32.5 C 382.6 26.5 380 25.1 376.6 25.1 C 376.56 25.14 372.8 25.1 372.8 25.1 L 372.8 43.7 L 368.3 43.7 L 368.3 2.8 Z M 377 21.2 C 382.6 21.2 386.9 19.8 386.9 13.9 C 386.9 8.8 383.6 6.8 378.4 6.8 C 378.42 6.78 372.8 6.8 372.8 6.8 L 372.8 21.2 C 372.8 21.2 376.98 21.18 377 21.2 Z M 443.5 23.1 C 443.5 34.6 435.1 44.3 421.6 44.3 C 408.9 44.3 400.4 34.6 400.4 23.5 C 400.4 12.1 408.5 2.3 421.8 2.3 C 434.9 2.3 443.5 11.8 443.5 23.1 Z M 405 23.3 C 405 33 412.5 40.1 421.7 40 C 433.9 40 438.8 30.6 438.8 23.2 C 438.8 14.9 432.7 6.5 422 6.5 C 410.9 6.5 405 15 405 23.3 Z M 461.5 2.8 C 469.1 2.8 474.1 6.7 474.1 13.3 C 474.1 17.6 471.7 20.8 467.3 22.3 C 473.7 23.2 477.6 27.4 477.6 32.8 C 477.6 40.3 470.9 43.7 463.4 43.7 C 463.38 43.74 450.9 43.7 450.9 43.7 L 450.9 2.8 C 450.9 2.8 461.46 2.82 461.5 2.8 Z M 455.3 21 C 455.3 21 459.84 21 459.8 21 C 466.6 21 469.4 17.9 469.4 13.7 C 469.4 8.9 466.6 6.8 460.6 6.8 C 460.56 6.78 455.3 6.8 455.3 6.8 L 455.3 21 Z M 462.5 39.8 C 469.1 39.8 472.9 37.6 472.9 32.4 C 472.9 27.7 469.6 24.9 461.9 24.9 C 461.88 24.9 455.3 24.9 455.3 24.9 L 455.3 39.8 C 455.3 39.8 462.54 39.78 462.5 39.8 Z M 488.8 2.8 L 488.8 39.6 L 508.1 39.6 L 508.1 43.7 L 484.3 43.7 L 484.3 2.8 L 488.8 2.8 Z M 535.7 2.8 L 535.7 6.8 L 517.8 6.8 L 517.8 21.1 L 535.1 21.1 L 535.1 25.1 L 517.8 25.1 L 517.8 39.7 L 536.2 39.7 L 536.2 43.7 L 513.3 43.7 L 513.3 2.8 L 535.7 2.8 Z M 543.4 2.8 L 547.7 2.8 L 562.1 20.8 L 576.5 2.8 L 580.8 2.8 L 580.8 43.7 L 576.3 43.7 L 576.3 10 L 576.2 10 L 562.5 27.1 L 561.7 27.1 L 548 10 L 547.9 10 L 547.9 43.7 L 543.4 43.7 L 543.4 2.8 Z M 625.7 4.9 C 625.7 4.9 625.7 10 625.7 10 C 622.9 7.6 619.8 6.4 616.4 6.4 C 612.1 6.4 609.3 8.8 609.3 12.3 C 609.3 15 610 17.3 616.7 20.8 C 625.2 25.1 627.2 28.1 627.2 33.7 C 627.2 39.7 622.6 44.3 615.5 44.3 C 611.6 44.3 608 43 604.9 40.7 C 604.9 40.7 604.9 35 604.9 35 C 608 38.4 611.6 40.3 615.5 40.3 C 619.7 40.3 622.7 37.7 622.7 33.7 C 622.7 30.2 621.5 28.2 613.6 24.1 C 607.2 20.8 604.7 17.6 604.7 12.4 C 604.7 6.6 609.7 2.3 616.6 2.3 C 619.7 2.3 622.9 3.2 625.7 4.9 Z M 675.6 23.1 C 675.6 34.6 667.2 44.3 653.7 44.3 C 641 44.3 632.5 34.6 632.5 23.5 C 632.5 12.1 640.6 2.3 653.9 2.3 C 667 2.3 675.6 11.8 675.6 23.1 Z M 637.1 23.3 C 637.1 33 644.6 40.1 653.8 40 C 665.9 40 670.9 30.6 670.9 23.2 C 670.9 14.9 664.8 6.5 654.1 6.5 C 643 6.5 637.1 15 637.1 23.3 Z M 687.5 2.8 L 687.5 39.6 L 706.7 39.6 L 706.7 43.7 L 683 43.7 L 683 2.8 L 687.5 2.8 Z M 702.1 2.8 L 706.6 2.8 L 719.9 34.7 L 720 34.7 L 733.3 2.8 L 737.8 2.8 L 720.5 44.2 L 719.5 44.2 L 702.1 2.8 Z M 746.9 2.8 L 746.9 43.7 L 742.4 43.7 L 742.4 2.8 L 746.9 2.8 Z M 759.8 2.8 L 788.8 36.7 L 788.8 2.8 L 793.1 2.8 L 793.1 43.7 L 789.2 43.7 L 760.4 10 L 760.4 43.7 L 756.1 43.7 L 756.1 2.8 L 759.8 2.8 Z M 836.1 10.3 C 831.6 7.7 826.6 6.3 822 6.3 C 812.5 6.3 805.2 13.5 805.2 23.1 C 805.2 33.2 812.2 40.3 822.4 40.3 C 825.8 40.3 828.2 39.7 832.4 38.2 C 832.43 38.16 832.4 28.2 832.4 28.2 L 824.1 28.2 L 824.1 24.2 L 836.9 24.2 C 836.9 24.2 836.93 40.92 836.9 40.9 C 832.3 43.2 827.7 44.3 822.4 44.3 C 807.7 44.3 800.5 34 800.5 23.5 C 800.5 11.9 809.1 2.3 822.2 2.3 C 826.9 2.3 830.7 3.2 836.1 5.6 C 836.1 5.6 836.1 10.3 836.1 10.3 Z M 878.6 2.6 L 896.8 43.7 L 892.2 43.7 L 886.4 30.9 L 867.8 30.9 L 862.3 43.7 L 857.7 43.7 L 875.4 2.6 L 878.6 2.6 Z M 869.6 26.9 L 884.6 26.9 L 876.9 9.5 L 869.6 26.9 Z M 905.2 2.8 L 934.2 36.7 L 934.2 2.8 L 938.5 2.8 L 938.5 43.7 L 934.6 43.7 L 905.8 10 L 905.8 43.7 L 901.5 43.7 L 901.5 2.8 L 905.2 2.8 Z M 947.7 2.8 C 947.7 2.8 962.75 2.82 962.8 2.8 C 976.1 2.8 984.8 11.2 984.8 22.9 C 984.8 35.6 975.8 43.7 962.8 43.7 C 962.75 43.74 947.7 43.7 947.7 43.7 L 947.7 2.8 Z M 962.7 39.7 C 973.4 39.7 980.1 33.3 980.1 23.2 C 980.1 13.3 973.6 6.8 962 6.8 C 962.03 6.84 952.2 6.8 952.2 6.8 L 952.2 39.7 C 952.2 39.7 962.69 39.66 962.7 39.7 Z M 1009 2.8 C 1009 2.8 1024.01 2.82 1024 2.8 C 1037.4 2.8 1046 11.2 1046 22.9 C 1046 35.6 1037 43.7 1024 43.7 C 1024.01 43.74 1009 43.7 1009 43.7 L 1009 2.8 Z M 1024 39.7 C 1034.7 39.7 1041.4 33.3 1041.4 23.2 C 1041.4 13.3 1034.9 6.8 1023.3 6.8 C 1023.29 6.84 1013.5 6.8 1013.5 6.8 L 1013.5 39.7 C 1013.5 39.7 1023.95 39.66 1024 39.7 Z M 1075.9 2.8 L 1075.9 6.8 L 1058 6.8 L 1058 21.1 L 1075.3 21.1 L 1075.3 25.1 L 1058 25.1 L 1058 39.7 L 1076.4 39.7 L 1076.4 43.7 L 1053.5 43.7 L 1053.5 2.8 L 1075.9 2.8 Z M 1117.4 5.5 C 1117.4 5.5 1117.4 10.4 1117.4 10.4 C 1113.1 7.9 1108.4 6.5 1103.6 6.5 C 1093.1 6.5 1086.5 14.3 1086.5 23.3 C 1086.5 32.5 1093.1 40.1 1103.5 40.1 C 1108.6 40.1 1113.4 38.6 1117.7 35.9 C 1117.7 35.9 1117.7 40.9 1117.7 40.9 C 1113.2 43.2 1108.4 44.3 1103.4 44.3 C 1089.2 44.3 1081.9 33.7 1081.9 23.5 C 1081.9 11.3 1091.2 2.3 1103.5 2.3 C 1108.1 2.3 1112.8 3.4 1117.4 5.5 Z M 1129.3 2.8 L 1129.3 43.7 L 1124.8 43.7 L 1124.8 2.8 L 1129.3 2.8 Z M 1158.2 4.9 C 1158.2 4.9 1158.2 10 1158.2 10 C 1155.4 7.6 1152.3 6.4 1148.9 6.4 C 1144.6 6.4 1141.8 8.8 1141.8 12.3 C 1141.8 15 1142.5 17.3 1149.2 20.8 C 1157.7 25.1 1159.7 28.1 1159.7 33.7 C 1159.7 39.7 1155.1 44.3 1148 44.3 C 1144.1 44.3 1140.5 43 1137.4 40.7 C 1137.4 40.7 1137.4 35 1137.4 35 C 1140.5 38.4 1144.1 40.3 1148 40.3 C 1152.2 40.3 1155.2 37.7 1155.2 33.7 C 1155.2 30.2 1154 28.2 1146.1 24.1 C 1139.7 20.8 1137.2 17.6 1137.2 12.4 C 1137.2 6.6 1142.2 2.3 1149.1 2.3 C 1152.2 2.3 1155.4 3.2 1158.2 4.9 Z M 1171.3 2.8 L 1171.3 43.7 L 1166.8 43.7 L 1166.8 2.8 L 1171.3 2.8 Z M 1221.8 23.1 C 1221.8 34.6 1213.4 44.3 1199.9 44.3 C 1187.2 44.3 1178.6 34.6 1178.6 23.5 C 1178.6 12.1 1186.8 2.3 1200.1 2.3 C 1213.1 2.3 1221.8 11.8 1221.8 23.1 Z M 1183.3 23.3 C 1183.3 33 1190.8 40.1 1199.9 40 C 1212.1 40 1217.1 30.6 1217.1 23.2 C 1217.1 14.9 1211 6.5 1200.3 6.5 C 1189.1 6.5 1183.3 15 1183.3 23.3 Z M 1232.9 2.8 L 1261.8 36.7 L 1261.8 2.8 L 1266.2 2.8 L 1266.2 43.7 L 1262.2 43.7 L 1233.5 10 L 1233.5 43.7 L 1229.1 43.7 L 1229.1 2.8 L 1232.9 2.8 Z " stroke="none" fill="#010102"/>  </g></svg>