<?xml version="1.0" standalone="no"?><!DOCTYPE svg PUBLIC "-//W3C//DTD SVG 1.1//EN" "http://www.w3.org/Graphics/SVG/1.1/DTD/svg11.dtd"><svg xmlns="http://www.w3.org/2000/svg" version="1.1" width="87px" height="28.5px" viewBox="0 -1 87 28.5" style="top:-1px">  <desc>Client Feedback</desc>  <defs/>  <g id="Polygon43835">    <path d="M 7.1 17 C 7.1 17 8.2 17.3 8.2 17.3 C 8 18.2 7.5 18.9 6.9 19.4 C 6.3 19.9 5.5 20.1 4.6 20.1 C 3.7 20.1 3 20 2.4 19.6 C 1.8 19.2 1.4 18.7 1.1 17.9 C 0.7 17.2 0.6 16.5 0.6 15.6 C 0.6 14.7 0.8 14 1.1 13.3 C 1.5 12.6 1.9 12.1 2.6 11.8 C 3.2 11.4 3.9 11.3 4.7 11.3 C 5.5 11.3 6.2 11.5 6.8 11.9 C 7.4 12.4 7.8 13 8 13.8 C 8 13.8 6.9 14 6.9 14 C 6.7 13.4 6.4 12.9 6.1 12.7 C 5.7 12.4 5.2 12.2 4.6 12.2 C 4 12.2 3.4 12.4 3 12.7 C 2.5 13 2.2 13.5 2 14 C 1.9 14.5 1.8 15.1 1.8 15.6 C 1.8 16.4 1.9 17 2.1 17.5 C 2.3 18.1 2.6 18.5 3.1 18.8 C 3.5 19 4 19.2 4.5 19.2 C 5.2 19.2 5.7 19 6.2 18.6 C 6.6 18.3 6.9 17.7 7.1 17 Z M 9.4 20 L 9.4 11.4 L 10.5 11.4 L 10.5 20 L 9.4 20 Z M 12.1 12.6 L 12.1 11.4 L 13.2 11.4 L 13.2 12.6 L 12.1 12.6 Z M 12.1 20 L 12.1 13.8 L 13.2 13.8 L 13.2 20 L 12.1 20 Z M 19 18 C 19 18 20.1 18.1 20.1 18.1 C 20 18.8 19.6 19.3 19.2 19.6 C 18.7 20 18.1 20.1 17.4 20.1 C 16.5 20.1 15.8 19.9 15.2 19.3 C 14.7 18.7 14.4 18 14.4 16.9 C 14.4 15.9 14.7 15.1 15.2 14.5 C 15.8 13.9 16.5 13.6 17.3 13.6 C 18.2 13.6 18.9 13.9 19.4 14.5 C 19.9 15.1 20.2 15.8 20.2 16.9 C 20.2 16.9 20.2 17 20.2 17.2 C 20.2 17.2 15.5 17.2 15.5 17.2 C 15.6 17.8 15.8 18.4 16.1 18.7 C 16.5 19.1 16.9 19.3 17.4 19.3 C 17.8 19.3 18.1 19.2 18.4 19 C 18.7 18.8 18.9 18.4 19 18 Z M 15.6 16.3 C 15.6 16.3 19.1 16.3 19.1 16.3 C 19 15.8 18.9 15.4 18.7 15.1 C 18.3 14.7 17.9 14.5 17.4 14.5 C 16.9 14.5 16.5 14.7 16.1 15 C 15.8 15.3 15.6 15.7 15.6 16.3 Z M 21.5 20 L 21.5 13.8 L 22.4 13.8 C 22.4 13.8 22.41 14.66 22.4 14.7 C 22.9 14 23.5 13.6 24.4 13.6 C 24.8 13.6 25.1 13.7 25.4 13.8 C 25.7 14 26 14.2 26.1 14.4 C 26.3 14.6 26.4 14.8 26.5 15.1 C 26.5 15.3 26.5 15.7 26.5 16.2 C 26.52 16.17 26.5 20 26.5 20 L 25.5 20 C 25.5 20 25.46 16.21 25.5 16.2 C 25.5 15.8 25.4 15.5 25.3 15.3 C 25.3 15 25.1 14.9 24.9 14.7 C 24.7 14.6 24.5 14.6 24.2 14.6 C 23.7 14.6 23.3 14.7 23 15 C 22.7 15.3 22.5 15.8 22.5 16.6 C 22.52 16.6 22.5 20 22.5 20 L 21.5 20 Z M 30 19.1 C 30.1 19.1 30.2 19.1 30.4 19.1 C 30.4 19.1 30.6 20 30.6 20 C 30.3 20.1 30 20.1 29.8 20.1 C 29.4 20.1 29.1 20 28.9 19.9 C 28.7 19.8 28.5 19.6 28.5 19.4 C 28.4 19.2 28.3 18.8 28.3 18.2 C 28.33 18.18 28.3 14.6 28.3 14.6 L 27.6 14.6 L 27.6 13.8 L 28.3 13.8 L 28.3 12.2 L 29.4 11.6 L 29.4 13.8 L 30.4 13.8 L 30.4 14.6 L 29.4 14.6 C 29.4 14.6 29.38 18.24 29.4 18.2 C 29.4 18.5 29.4 18.7 29.4 18.8 C 29.5 18.9 29.5 19 29.6 19 C 29.7 19.1 29.8 19.1 30 19.1 C 30 19.1 30 19.1 30 19.1 Z M 35 20 L 35 11.4 L 40.8 11.4 L 40.8 12.4 L 36.1 12.4 L 36.1 15.1 L 40.2 15.1 L 40.2 16.1 L 36.1 16.1 L 36.1 20 L 35 20 Z M 46.4 18 C 46.4 18 47.5 18.1 47.5 18.1 C 47.3 18.8 47 19.3 46.5 19.6 C 46.1 20 45.5 20.1 44.7 20.1 C 43.8 20.1 43.1 19.9 42.6 19.3 C 42 18.7 41.8 18 41.8 16.9 C 41.8 15.9 42.1 15.1 42.6 14.5 C 43.1 13.9 43.8 13.6 44.7 13.6 C 45.5 13.6 46.2 13.9 46.7 14.5 C 47.3 15.1 47.5 15.8 47.5 16.9 C 47.5 16.9 47.5 17 47.5 17.2 C 47.5 17.2 42.9 17.2 42.9 17.2 C 42.9 17.8 43.1 18.4 43.5 18.7 C 43.8 19.1 44.2 19.3 44.8 19.3 C 45.1 19.3 45.5 19.2 45.7 19 C 46 18.8 46.2 18.4 46.4 18 Z M 42.9 16.3 C 42.9 16.3 46.4 16.3 46.4 16.3 C 46.4 15.8 46.2 15.4 46 15.1 C 45.7 14.7 45.2 14.5 44.7 14.5 C 44.2 14.5 43.8 14.7 43.5 15 C 43.1 15.3 43 15.7 42.9 16.3 Z M 53.1 18 C 53.1 18 54.2 18.1 54.2 18.1 C 54 18.8 53.7 19.3 53.2 19.6 C 52.7 20 52.1 20.1 51.4 20.1 C 50.5 20.1 49.8 19.9 49.3 19.3 C 48.7 18.7 48.5 18 48.5 16.9 C 48.5 15.9 48.7 15.1 49.3 14.5 C 49.8 13.9 50.5 13.6 51.4 13.6 C 52.2 13.6 52.9 13.9 53.4 14.5 C 53.9 15.1 54.2 15.8 54.2 16.9 C 54.2 16.9 54.2 17 54.2 17.2 C 54.2 17.2 49.5 17.2 49.5 17.2 C 49.6 17.8 49.8 18.4 50.1 18.7 C 50.5 19.1 50.9 19.3 51.4 19.3 C 51.8 19.3 52.1 19.2 52.4 19 C 52.7 18.8 52.9 18.4 53.1 18 Z M 49.6 16.3 C 49.6 16.3 53.1 16.3 53.1 16.3 C 53 15.8 52.9 15.4 52.7 15.1 C 52.3 14.7 51.9 14.5 51.4 14.5 C 50.9 14.5 50.5 14.7 50.2 15 C 49.8 15.3 49.6 15.7 49.6 16.3 Z M 59.5 20 C 59.5 20 59.52 19.21 59.5 19.2 C 59.1 19.8 58.5 20.1 57.8 20.1 C 57.3 20.1 56.8 20 56.4 19.7 C 56 19.5 55.7 19.1 55.4 18.6 C 55.2 18.1 55.1 17.5 55.1 16.9 C 55.1 16.3 55.2 15.7 55.4 15.2 C 55.6 14.7 55.9 14.3 56.3 14 C 56.8 13.8 57.2 13.6 57.7 13.6 C 58.1 13.6 58.4 13.7 58.7 13.9 C 59 14 59.3 14.2 59.4 14.5 C 59.45 14.49 59.4 11.4 59.4 11.4 L 60.5 11.4 L 60.5 20 L 59.5 20 Z M 56.2 16.9 C 56.2 17.7 56.4 18.3 56.7 18.7 C 57 19.1 57.4 19.3 57.9 19.3 C 58.3 19.3 58.7 19.1 59.1 18.7 C 59.4 18.3 59.5 17.8 59.5 17 C 59.5 16.1 59.4 15.5 59 15.1 C 58.7 14.7 58.3 14.5 57.8 14.5 C 57.4 14.5 57 14.7 56.7 15.1 C 56.3 15.5 56.2 16.1 56.2 16.9 Z M 63.1 20 L 62.2 20 L 62.2 11.4 L 63.2 11.4 C 63.2 11.4 63.21 14.47 63.2 14.5 C 63.7 13.9 64.2 13.6 64.9 13.6 C 65.3 13.6 65.7 13.7 66 13.9 C 66.3 14 66.6 14.2 66.8 14.5 C 67.1 14.8 67.2 15.1 67.4 15.5 C 67.5 15.9 67.5 16.3 67.5 16.8 C 67.5 17.9 67.3 18.7 66.8 19.3 C 66.2 19.8 65.6 20.1 64.9 20.1 C 64.1 20.1 63.5 19.8 63.1 19.2 C 63.13 19.22 63.1 20 63.1 20 Z M 63.1 16.8 C 63.1 17.6 63.2 18.1 63.4 18.5 C 63.8 19 64.2 19.3 64.8 19.3 C 65.2 19.3 65.6 19.1 66 18.7 C 66.3 18.3 66.5 17.7 66.5 16.9 C 66.5 16.1 66.3 15.5 66 15.1 C 65.7 14.7 65.3 14.5 64.8 14.5 C 64.4 14.5 64 14.7 63.6 15.1 C 63.3 15.5 63.1 16.1 63.1 16.8 Z M 73.1 20 C 73 19.8 72.9 19.5 72.9 19.2 C 72.5 19.6 72.1 19.8 71.8 19.9 C 71.4 20.1 71 20.1 70.6 20.1 C 69.9 20.1 69.4 20 69 19.6 C 68.7 19.3 68.5 18.9 68.5 18.4 C 68.5 18.1 68.5 17.8 68.7 17.5 C 68.8 17.3 69 17.1 69.2 16.9 C 69.5 16.8 69.7 16.7 70 16.6 C 70.2 16.5 70.5 16.5 70.9 16.4 C 71.8 16.3 72.4 16.2 72.8 16.1 C 72.8 15.9 72.8 15.8 72.8 15.8 C 72.8 15.3 72.7 15 72.5 14.9 C 72.2 14.6 71.8 14.5 71.3 14.5 C 70.8 14.5 70.4 14.6 70.2 14.8 C 70 14.9 69.8 15.3 69.7 15.7 C 69.7 15.7 68.7 15.6 68.7 15.6 C 68.7 15.1 68.9 14.8 69.1 14.5 C 69.3 14.2 69.6 14 70 13.9 C 70.5 13.7 70.9 13.6 71.5 13.6 C 72 13.6 72.4 13.7 72.8 13.8 C 73.1 13.9 73.3 14.1 73.5 14.3 C 73.6 14.5 73.8 14.7 73.8 15 C 73.9 15.2 73.9 15.5 73.9 16 C 73.9 16 73.9 17.4 73.9 17.4 C 73.9 18.4 73.9 19 73.9 19.3 C 74 19.5 74.1 19.8 74.2 20 C 74.2 20 73.1 20 73.1 20 C 73.1 20 73.1 20 73.1 20 Z M 72.8 16.9 C 72.4 17 71.8 17.2 71.1 17.3 C 70.6 17.3 70.3 17.4 70.2 17.5 C 70 17.6 69.8 17.7 69.7 17.8 C 69.6 18 69.6 18.1 69.6 18.3 C 69.6 18.6 69.7 18.8 69.9 19 C 70.1 19.2 70.4 19.3 70.9 19.3 C 71.3 19.3 71.6 19.2 71.9 19 C 72.3 18.9 72.5 18.6 72.6 18.3 C 72.7 18.1 72.8 17.7 72.8 17.3 C 72.8 17.3 72.8 16.9 72.8 16.9 Z M 79.6 17.7 C 79.6 17.7 80.6 17.9 80.6 17.9 C 80.5 18.6 80.2 19.1 79.7 19.5 C 79.3 19.9 78.7 20.1 78 20.1 C 77.2 20.1 76.5 19.9 76 19.3 C 75.4 18.7 75.2 18 75.2 16.9 C 75.2 16.2 75.3 15.7 75.5 15.1 C 75.7 14.6 76.1 14.3 76.5 14 C 77 13.8 77.5 13.6 78 13.6 C 78.7 13.6 79.2 13.8 79.7 14.1 C 80.1 14.5 80.4 15 80.5 15.6 C 80.5 15.6 79.5 15.8 79.5 15.8 C 79.4 15.3 79.2 15 79 14.8 C 78.7 14.6 78.4 14.5 78.1 14.5 C 77.5 14.5 77.1 14.7 76.8 15.1 C 76.4 15.5 76.3 16.1 76.3 16.9 C 76.3 17.7 76.4 18.3 76.7 18.7 C 77.1 19.1 77.5 19.3 78 19.3 C 78.4 19.3 78.8 19.1 79 18.9 C 79.3 18.6 79.5 18.2 79.6 17.7 Z M 81.5 20 L 81.5 11.4 L 82.6 11.4 L 82.6 16.3 L 85.1 13.8 L 86.4 13.8 L 84 16.1 L 86.7 20 L 85.4 20 L 83.3 16.8 L 82.6 17.5 L 82.6 20 L 81.5 20 Z " stroke="none" fill="#fff"/>  </g></svg>