<?xml version="1.0" standalone="no"?><!DOCTYPE svg PUBLIC "-//W3C//DTD SVG 1.1//EN" "http://www.w3.org/Graphics/SVG/1.1/DTD/svg11.dtd"><svg xmlns="http://www.w3.org/2000/svg" version="1.1" width="126px" height="68.1px" viewBox="0 -8 126 68.1" style="top:-8px">  <desc>Easy to Work With</desc>  <defs/>  <g id="Polygon10281">    <path d="M 12.7 46.3 L 8.2 29.1 L 10.5 29.1 C 10.5 29.1 13.1 40.35 13.1 40.4 C 13.4 41.5 13.6 42.7 13.8 43.9 C 14.3 42 14.5 41 14.6 40.7 C 14.6 40.69 17.9 29.1 17.9 29.1 L 20.6 29.1 C 20.6 29.1 23.07 37.79 23.1 37.8 C 23.7 39.9 24.1 42 24.4 43.9 C 24.6 42.8 24.9 41.5 25.3 40.1 C 25.26 40.13 28 29.1 28 29.1 L 30.2 29.1 L 25.5 46.3 L 23.3 46.3 C 23.3 46.3 19.72 33.18 19.7 33.2 C 19.4 32.1 19.2 31.4 19.2 31.2 C 19 32 18.8 32.6 18.7 33.2 C 18.67 33.18 15 46.3 15 46.3 L 12.7 46.3 Z M 30.9 40.1 C 30.9 37.7 31.5 36 32.8 34.9 C 33.9 34 35.2 33.5 36.7 33.5 C 38.4 33.5 39.8 34.1 40.9 35.2 C 42 36.3 42.5 37.9 42.5 39.9 C 42.5 41.5 42.3 42.7 41.8 43.7 C 41.3 44.6 40.6 45.3 39.7 45.8 C 38.8 46.3 37.8 46.6 36.7 46.6 C 35 46.6 33.6 46 32.5 44.9 C 31.4 43.8 30.9 42.2 30.9 40.1 Z M 33 40.1 C 33 41.6 33.4 42.8 34.1 43.6 C 34.8 44.4 35.7 44.8 36.7 44.8 C 37.8 44.8 38.6 44.4 39.3 43.6 C 40 42.8 40.4 41.6 40.4 40 C 40.4 38.4 40 37.3 39.3 36.5 C 38.6 35.7 37.7 35.3 36.7 35.3 C 35.7 35.3 34.8 35.7 34.1 36.5 C 33.4 37.3 33 38.5 33 40.1 Z M 45 46.3 L 45 33.8 L 46.9 33.8 C 46.9 33.8 46.88 35.71 46.9 35.7 C 47.4 34.8 47.8 34.2 48.2 34 C 48.6 33.7 49.1 33.5 49.6 33.5 C 50.3 33.5 51 33.8 51.7 34.2 C 51.7 34.2 51 36.2 51 36.2 C 50.5 35.9 50 35.7 49.5 35.7 C 49 35.7 48.6 35.9 48.2 36.1 C 47.9 36.4 47.6 36.8 47.4 37.3 C 47.2 38 47.1 38.9 47.1 39.8 C 47.09 39.76 47.1 46.3 47.1 46.3 L 45 46.3 Z M 53 46.3 L 53 29.1 L 55.1 29.1 L 55.1 38.9 L 60.1 33.8 L 62.8 33.8 L 58.1 38.4 L 63.3 46.3 L 60.7 46.3 L 56.6 39.9 L 55.1 41.3 L 55.1 46.3 L 53 46.3 Z M 74.9 46.3 L 70.4 29.1 L 72.7 29.1 C 72.7 29.1 75.32 40.35 75.3 40.4 C 75.6 41.5 75.8 42.7 76 43.9 C 76.5 42 76.7 41 76.8 40.7 C 76.82 40.69 80.1 29.1 80.1 29.1 L 82.8 29.1 C 82.8 29.1 85.29 37.79 85.3 37.8 C 85.9 39.9 86.4 42 86.6 43.9 C 86.8 42.8 87.1 41.5 87.5 40.1 C 87.49 40.13 90.2 29.1 90.2 29.1 L 92.5 29.1 L 87.8 46.3 L 85.6 46.3 C 85.6 46.3 81.94 33.18 81.9 33.2 C 81.6 32.1 81.5 31.4 81.4 31.2 C 81.2 32 81.1 32.6 80.9 33.2 C 80.9 33.18 77.3 46.3 77.3 46.3 L 74.9 46.3 Z M 94.3 31.5 L 94.3 29.1 L 96.4 29.1 L 96.4 31.5 L 94.3 31.5 Z M 94.3 46.3 L 94.3 33.8 L 96.4 33.8 L 96.4 46.3 L 94.3 46.3 Z M 103.3 44.5 C 103.6 44.5 103.9 44.4 104.3 44.4 C 104.3 44.4 104.6 46.2 104.6 46.2 C 104 46.4 103.4 46.4 103 46.4 C 102.2 46.4 101.6 46.3 101.2 46.1 C 100.8 45.8 100.5 45.5 100.3 45.1 C 100.1 44.7 100 43.9 100 42.6 C 100.04 42.63 100 35.5 100 35.5 L 98.5 35.5 L 98.5 33.8 L 100 33.8 L 100 30.7 L 102.1 29.5 L 102.1 33.8 L 104.3 33.8 L 104.3 35.5 L 102.1 35.5 C 102.1 35.5 102.13 42.75 102.1 42.7 C 102.1 43.3 102.2 43.7 102.2 43.9 C 102.3 44.1 102.4 44.2 102.6 44.3 C 102.8 44.4 103 44.5 103.3 44.5 C 103.3 44.5 103.3 44.5 103.3 44.5 Z M 106.3 46.3 L 106.3 29.1 L 108.4 29.1 C 108.4 29.1 108.43 35.26 108.4 35.3 C 109.4 34.1 110.7 33.5 112.2 33.5 C 113.1 33.5 113.9 33.7 114.6 34.1 C 115.2 34.5 115.7 35 116 35.6 C 116.3 36.2 116.5 37.2 116.5 38.4 C 116.46 38.39 116.5 46.3 116.5 46.3 L 114.3 46.3 C 114.3 46.3 114.35 38.39 114.3 38.4 C 114.3 37.3 114.1 36.6 113.7 36.1 C 113.2 35.6 112.6 35.4 111.7 35.4 C 111.1 35.4 110.5 35.5 110 35.8 C 109.4 36.2 109 36.6 108.8 37.2 C 108.5 37.7 108.4 38.5 108.4 39.5 C 108.43 39.46 108.4 46.3 108.4 46.3 L 106.3 46.3 Z " stroke="none" fill="#000"/>  </g>  <g id="Polygon10280">    <path d="M 24.8 17.5 L 24.8 0.3 L 37.3 0.3 L 37.3 2.3 L 27.1 2.3 L 27.1 7.6 L 36.6 7.6 L 36.6 9.6 L 27.1 9.6 L 27.1 15.4 L 37.7 15.4 L 37.7 17.5 L 24.8 17.5 Z M 49.1 17.5 C 48.9 17 48.7 16.5 48.7 15.9 C 47.9 16.6 47.1 17.1 46.4 17.3 C 45.7 17.6 44.9 17.8 44.1 17.8 C 42.7 17.8 41.7 17.4 40.9 16.8 C 40.2 16.1 39.8 15.2 39.8 14.2 C 39.8 13.6 40 13 40.2 12.5 C 40.5 12 40.9 11.6 41.3 11.3 C 41.8 11 42.3 10.8 42.8 10.6 C 43.3 10.5 43.9 10.4 44.7 10.3 C 46.4 10.1 47.7 9.9 48.5 9.6 C 48.5 9.3 48.5 9.1 48.5 9 C 48.5 8.2 48.3 7.6 47.9 7.2 C 47.4 6.7 46.6 6.5 45.5 6.5 C 44.5 6.5 43.8 6.7 43.3 7 C 42.8 7.4 42.5 8 42.3 8.9 C 42.3 8.9 40.2 8.6 40.2 8.6 C 40.4 7.7 40.7 7 41.1 6.4 C 41.5 5.9 42.2 5.5 43 5.2 C 43.8 4.9 44.7 4.7 45.8 4.7 C 46.9 4.7 47.7 4.9 48.4 5.1 C 49.1 5.4 49.5 5.7 49.9 6.1 C 50.2 6.4 50.4 6.9 50.5 7.5 C 50.6 7.9 50.6 8.5 50.6 9.4 C 50.6 9.4 50.6 12.3 50.6 12.3 C 50.6 14.2 50.7 15.5 50.8 16 C 50.8 16.5 51 17 51.3 17.5 C 51.29 17.47 49.1 17.5 49.1 17.5 C 49.1 17.5 49.08 17.47 49.1 17.5 Z M 48.5 11.2 C 47.7 11.5 46.6 11.8 45 12 C 44.2 12.1 43.6 12.3 43.2 12.4 C 42.8 12.6 42.6 12.8 42.4 13.1 C 42.2 13.4 42.1 13.8 42.1 14.1 C 42.1 14.7 42.3 15.2 42.7 15.5 C 43.1 15.9 43.8 16.1 44.6 16.1 C 45.4 16.1 46.1 15.9 46.8 15.6 C 47.4 15.2 47.8 14.7 48.1 14.1 C 48.4 13.6 48.5 12.9 48.5 12 C 48.5 12 48.5 11.2 48.5 11.2 Z M 53 13.8 C 53 13.8 55.1 13.4 55.1 13.4 C 55.2 14.3 55.6 14.9 56.1 15.4 C 56.6 15.8 57.4 16 58.4 16 C 59.3 16 60 15.8 60.5 15.4 C 61 15 61.2 14.6 61.2 14 C 61.2 13.6 61 13.2 60.6 12.9 C 60.3 12.7 59.6 12.5 58.4 12.2 C 56.9 11.8 55.8 11.5 55.2 11.2 C 54.6 10.9 54.2 10.5 53.9 10 C 53.6 9.5 53.4 8.9 53.4 8.3 C 53.4 7.8 53.5 7.3 53.8 6.8 C 54 6.3 54.4 5.9 54.8 5.6 C 55.1 5.4 55.6 5.2 56.2 5 C 56.7 4.8 57.3 4.7 58 4.7 C 59 4.7 59.8 4.9 60.6 5.2 C 61.3 5.4 61.8 5.8 62.2 6.3 C 62.5 6.8 62.8 7.4 62.9 8.2 C 62.9 8.2 60.8 8.5 60.8 8.5 C 60.8 7.9 60.5 7.4 60 7 C 59.6 6.7 59 6.5 58.1 6.5 C 57.2 6.5 56.5 6.6 56.1 7 C 55.6 7.3 55.4 7.7 55.4 8.1 C 55.4 8.4 55.5 8.6 55.7 8.8 C 55.9 9.1 56.1 9.2 56.5 9.4 C 56.7 9.5 57.3 9.6 58.4 9.9 C 59.9 10.3 60.9 10.7 61.5 10.9 C 62.1 11.2 62.5 11.5 62.9 12 C 63.2 12.5 63.4 13.1 63.4 13.8 C 63.4 14.5 63.2 15.2 62.8 15.8 C 62.4 16.4 61.8 16.9 61 17.2 C 60.2 17.6 59.3 17.8 58.4 17.8 C 56.7 17.8 55.5 17.4 54.7 16.7 C 53.8 16.1 53.3 15.1 53 13.8 Z M 67.2 22.5 C 66.7 22.5 66.3 22.4 65.8 22.3 C 65.8 22.3 65.6 20.3 65.6 20.3 C 66 20.4 66.4 20.5 66.8 20.5 C 67.2 20.5 67.6 20.4 67.9 20.2 C 68.2 20.1 68.4 19.9 68.6 19.6 C 68.7 19.4 68.9 18.8 69.2 18 C 69.3 17.9 69.3 17.7 69.4 17.5 C 69.42 17.5 64.7 5 64.7 5 L 67 5 C 67 5 69.56 12.23 69.6 12.2 C 69.9 13.1 70.2 14.1 70.5 15.1 C 70.7 14.1 71 13.2 71.3 12.3 C 71.33 12.28 74 5 74 5 L 76.1 5 C 76.1 5 71.36 17.68 71.4 17.7 C 70.9 19.1 70.5 20 70.2 20.5 C 69.8 21.2 69.4 21.7 68.9 22 C 68.4 22.4 67.8 22.5 67.2 22.5 C 67.2 22.5 67.2 22.5 67.2 22.5 Z M 88.2 15.7 C 88.5 15.7 88.8 15.6 89.2 15.6 C 89.2 15.6 89.5 17.4 89.5 17.4 C 88.9 17.6 88.3 17.6 87.9 17.6 C 87.1 17.6 86.5 17.5 86.1 17.3 C 85.7 17 85.4 16.7 85.2 16.3 C 85 15.9 84.9 15.1 84.9 13.8 C 84.94 13.83 84.9 6.7 84.9 6.7 L 83.4 6.7 L 83.4 5 L 84.9 5 L 84.9 1.9 L 87 0.7 L 87 5 L 89.2 5 L 89.2 6.7 L 87 6.7 C 87 6.7 87.04 13.95 87 13.9 C 87 14.5 87.1 14.9 87.2 15.1 C 87.2 15.3 87.3 15.4 87.5 15.5 C 87.7 15.6 87.9 15.7 88.2 15.7 C 88.2 15.7 88.2 15.7 88.2 15.7 Z M 90.4 11.3 C 90.4 8.9 91.1 7.2 92.4 6.1 C 93.4 5.2 94.7 4.7 96.3 4.7 C 98 4.7 99.4 5.3 100.5 6.4 C 101.6 7.5 102.1 9.1 102.1 11.1 C 102.1 12.7 101.9 13.9 101.4 14.9 C 100.9 15.8 100.2 16.5 99.3 17 C 98.4 17.5 97.4 17.8 96.3 17.8 C 94.5 17.8 93.1 17.2 92.1 16.1 C 91 15 90.4 13.4 90.4 11.3 Z M 92.6 11.3 C 92.6 12.8 93 14 93.7 14.8 C 94.3 15.6 95.2 16 96.3 16 C 97.3 16 98.2 15.6 98.9 14.8 C 99.6 14 99.9 12.8 99.9 11.2 C 99.9 9.6 99.6 8.5 98.9 7.7 C 98.2 6.9 97.3 6.5 96.3 6.5 C 95.2 6.5 94.3 6.9 93.7 7.7 C 93 8.5 92.6 9.7 92.6 11.3 Z " stroke="none" fill="#000"/>  </g></svg>