<?xml version="1.0" standalone="no"?><!DOCTYPE svg PUBLIC "-//W3C//DTD SVG 1.1//EN" "http://www.w3.org/Graphics/SVG/1.1/DTD/svg11.dtd"><svg xmlns="http://www.w3.org/2000/svg" version="1.1" width="854px" height="46.1px" viewBox="0 -8 854 46.1" style="top:-8px">  <desc>Delivering Value and Flexibility with Managed Services</desc>  <defs/>  <g id="Polygon46071">    <path d="M 2.3 1.4 C 2.3 1.4 9.84 1.41 9.8 1.4 C 16.5 1.4 20.9 5.6 20.9 11.4 C 20.9 17.8 16.4 21.9 9.8 21.9 C 9.84 21.87 2.3 21.9 2.3 21.9 L 2.3 1.4 Z M 9.8 19.8 C 15.2 19.8 18.5 16.6 18.5 11.6 C 18.5 6.7 15.3 3.4 9.5 3.4 C 9.48 3.42 4.6 3.4 4.6 3.4 L 4.6 19.8 C 4.6 19.8 9.81 19.83 9.8 19.8 Z M 35.8 1.4 L 35.8 3.4 L 26.8 3.4 L 26.8 10.6 L 35.5 10.6 L 35.5 12.6 L 26.8 12.6 L 26.8 19.8 L 36 19.8 L 36 21.9 L 24.6 21.9 L 24.6 1.4 L 35.8 1.4 Z M 41.9 1.4 L 41.9 19.8 L 51.5 19.8 L 51.5 21.9 L 39.7 21.9 L 39.7 1.4 L 41.9 1.4 Z M 56.4 1.4 L 56.4 21.9 L 54.1 21.9 L 54.1 1.4 L 56.4 1.4 Z M 58.7 1.4 L 61 1.4 L 67.6 17.3 L 67.7 17.3 L 74.3 1.4 L 76.6 1.4 L 67.9 22.1 L 67.4 22.1 L 58.7 1.4 Z M 90.1 1.4 L 90.1 3.4 L 81.1 3.4 L 81.1 10.6 L 89.8 10.6 L 89.8 12.6 L 81.1 12.6 L 81.1 19.8 L 90.3 19.8 L 90.3 21.9 L 78.9 21.9 L 78.9 1.4 L 90.1 1.4 Z M 94 1.4 C 94 1.4 99.33 1.41 99.3 1.4 C 103.4 1.4 105.6 3.8 105.6 6.9 C 105.6 9.4 104.2 11.2 101.7 11.9 C 103 12.6 103.6 13.2 105.3 15.7 C 105.3 15.75 109.3 21.9 109.3 21.9 L 106.6 21.9 C 106.6 21.9 102.99 16.23 103 16.2 C 101.1 13.2 99.8 12.6 98.1 12.6 C 98.1 12.57 96.2 12.6 96.2 12.6 L 96.2 21.9 L 94 21.9 L 94 1.4 Z M 98.3 10.6 C 101.1 10.6 103.3 9.9 103.3 6.9 C 103.3 4.4 101.6 3.4 99 3.4 C 99.03 3.39 96.2 3.4 96.2 3.4 L 96.2 10.6 C 96.2 10.6 98.31 10.59 98.3 10.6 Z M 113.8 1.4 L 113.8 21.9 L 111.5 21.9 L 111.5 1.4 L 113.8 1.4 Z M 120.2 1.4 L 134.7 18.3 L 134.7 1.4 L 136.9 1.4 L 136.9 21.9 L 134.9 21.9 L 120.5 5 L 120.5 21.9 L 118.3 21.9 L 118.3 1.4 L 120.2 1.4 Z M 158.3 5.2 C 156.1 3.8 153.6 3.1 151.3 3.1 C 146.5 3.1 142.9 6.7 142.9 11.5 C 142.9 16.6 146.4 20.1 151.5 20.1 C 153.2 20.1 154.4 19.9 156.5 19.1 C 156.51 19.08 156.5 14.1 156.5 14.1 L 152.3 14.1 L 152.3 12.1 L 158.8 12.1 C 158.8 12.1 158.76 20.46 158.8 20.5 C 156.4 21.6 154.1 22.1 151.5 22.1 C 144.1 22.1 140.5 17 140.5 11.8 C 140.5 5.9 144.8 1.1 151.4 1.1 C 153.7 1.1 155.6 1.6 158.3 2.8 C 158.3 2.8 158.3 5.2 158.3 5.2 Z M 169.1 1.4 L 171.4 1.4 L 178 17.3 L 178.1 17.3 L 184.7 1.4 L 187 1.4 L 178.3 22.1 L 177.8 22.1 L 169.1 1.4 Z M 195.8 1.3 L 204.9 21.9 L 202.6 21.9 L 199.7 15.4 L 190.4 15.4 L 187.6 21.9 L 185.3 21.9 L 194.2 1.3 L 195.8 1.3 Z M 191.3 13.4 L 198.8 13.4 L 194.9 4.7 L 191.3 13.4 Z M 209.5 1.4 L 209.5 19.8 L 219.1 19.8 L 219.1 21.9 L 207.2 21.9 L 207.2 1.4 L 209.5 1.4 Z M 222.7 1.4 C 222.7 1.4 222.75 13.2 222.7 13.2 C 222.7 17.7 224.9 20.1 229.1 20.1 C 233.3 20.1 235.4 17.6 235.4 13.2 C 235.41 13.2 235.4 1.4 235.4 1.4 L 237.7 1.4 C 237.7 1.4 237.66 13.2 237.7 13.2 C 237.7 18.6 234.8 22.1 229.1 22.1 C 223.5 22.1 220.5 18.9 220.5 13.2 C 220.5 13.2 220.5 1.4 220.5 1.4 L 222.7 1.4 Z M 253.2 1.4 L 253.2 3.4 L 244.3 3.4 L 244.3 10.6 L 252.9 10.6 L 252.9 12.6 L 244.3 12.6 L 244.3 19.8 L 253.4 19.8 L 253.4 21.9 L 242 21.9 L 242 1.4 L 253.2 1.4 Z M 273.6 1.3 L 282.7 21.9 L 280.4 21.9 L 277.5 15.4 L 268.2 15.4 L 265.5 21.9 L 263.2 21.9 L 272 1.3 L 273.6 1.3 Z M 269.1 13.4 L 276.6 13.4 L 272.8 4.7 L 269.1 13.4 Z M 286.9 1.4 L 301.4 18.3 L 301.4 1.4 L 303.6 1.4 L 303.6 21.9 L 301.6 21.9 L 287.2 5 L 287.2 21.9 L 285.1 21.9 L 285.1 1.4 L 286.9 1.4 Z M 308.2 1.4 C 308.2 1.4 315.69 1.41 315.7 1.4 C 322.4 1.4 326.7 5.6 326.7 11.4 C 326.7 17.8 322.2 21.9 315.7 21.9 C 315.69 21.87 308.2 21.9 308.2 21.9 L 308.2 1.4 Z M 315.7 19.8 C 321 19.8 324.4 16.6 324.4 11.6 C 324.4 6.7 321.1 3.4 315.3 3.4 C 315.33 3.42 310.4 3.4 310.4 3.4 L 310.4 19.8 C 310.4 19.8 315.66 19.83 315.7 19.8 Z M 349.3 1.4 L 349.3 3.4 L 341 3.4 L 341 10 L 349 10 L 349 12.1 L 341 12.1 L 341 21.9 L 338.8 21.9 L 338.8 1.4 L 349.3 1.4 Z M 354.5 1.4 L 354.5 19.8 L 364.2 19.8 L 364.2 21.9 L 352.3 21.9 L 352.3 1.4 L 354.5 1.4 Z M 378 1.4 L 378 3.4 L 369 3.4 L 369 10.6 L 377.7 10.6 L 377.7 12.6 L 369 12.6 L 369 19.8 L 378.2 19.8 L 378.2 21.9 L 366.8 21.9 L 366.8 1.4 L 378 1.4 Z M 383.6 1.4 C 386.9 5.2 387.7 6.3 390.7 9.7 C 392.8 7.2 395 4.6 397.6 1.4 C 397.65 1.41 400.4 1.4 400.4 1.4 L 392 11.3 L 400.9 21.9 L 398.2 21.9 L 390.7 12.9 L 383 21.9 L 380.3 21.9 L 389.2 11.3 L 380.9 1.4 C 380.9 1.4 383.61 1.41 383.6 1.4 Z M 405.5 1.4 L 405.5 21.9 L 403.3 21.9 L 403.3 1.4 L 405.5 1.4 Z M 415.4 1.4 C 419.2 1.4 421.7 3.4 421.7 6.6 C 421.7 8.8 420.5 10.4 418.3 11.1 C 421.5 11.6 423.5 13.7 423.5 16.4 C 423.5 20.2 420.1 21.9 416.4 21.9 C 416.37 21.87 410.1 21.9 410.1 21.9 L 410.1 1.4 C 410.1 1.4 415.41 1.41 415.4 1.4 Z M 412.3 10.5 C 412.3 10.5 414.6 10.5 414.6 10.5 C 418 10.5 419.4 8.9 419.4 6.8 C 419.4 4.5 418 3.4 415 3.4 C 414.96 3.39 412.3 3.4 412.3 3.4 L 412.3 10.5 Z M 415.9 19.9 C 419.2 19.9 421.1 18.8 421.1 16.2 C 421.1 13.8 419.5 12.4 415.6 12.4 C 415.62 12.45 412.3 12.4 412.3 12.4 L 412.3 19.9 C 412.3 19.9 415.95 19.89 415.9 19.9 Z M 429.1 1.4 L 429.1 21.9 L 426.8 21.9 L 426.8 1.4 L 429.1 1.4 Z M 435.9 1.4 L 435.9 19.8 L 445.6 19.8 L 445.6 21.9 L 433.7 21.9 L 433.7 1.4 L 435.9 1.4 Z M 450.4 1.4 L 450.4 21.9 L 448.2 21.9 L 448.2 1.4 L 450.4 1.4 Z M 469.9 1.4 L 469.9 3.4 L 462.6 3.4 L 462.6 21.9 L 460.4 21.9 L 460.4 3.4 L 453.1 3.4 L 453.1 1.4 L 469.9 1.4 Z M 473.5 1.4 L 479.6 9 L 485.7 1.4 L 488.4 1.4 L 480.7 10.9 L 480.7 21.9 L 478.4 21.9 L 478.4 10.9 L 470.8 1.4 L 473.5 1.4 Z M 496.8 1.4 L 499.1 1.4 L 505.2 17 L 505.3 17 L 511.3 1.4 L 513.3 1.4 L 519.5 16.9 L 519.5 16.9 L 525.5 1.4 L 527.8 1.4 L 519.7 22 L 519.2 22 L 512.3 4.6 L 505.5 22 L 505 22 L 496.8 1.4 Z M 532.4 1.4 L 532.4 21.9 L 530.2 21.9 L 530.2 1.4 L 532.4 1.4 Z M 552 1.4 L 552 3.4 L 544.6 3.4 L 544.6 21.9 L 542.4 21.9 L 542.4 3.4 L 535.2 3.4 L 535.2 1.4 L 552 1.4 Z M 557 1.4 L 557 10.5 L 569.4 10.5 L 569.4 1.4 L 571.6 1.4 L 571.6 21.9 L 569.4 21.9 L 569.4 12.6 L 557 12.6 L 557 21.9 L 554.7 21.9 L 554.7 1.4 L 557 1.4 Z M 584.6 1.4 L 586.7 1.4 L 593.9 10.4 L 601.1 1.4 L 603.3 1.4 L 603.3 21.9 L 601 21.9 L 601 5 L 601 5 L 594.1 13.5 L 593.7 13.5 L 586.9 5 L 586.8 5 L 586.8 21.9 L 584.6 21.9 L 584.6 1.4 Z M 616.1 1.3 L 625.2 21.9 L 622.9 21.9 L 620 15.4 L 610.7 15.4 L 607.9 21.9 L 605.6 21.9 L 614.5 1.3 L 616.1 1.3 Z M 611.6 13.4 L 619.1 13.4 L 615.2 4.7 L 611.6 13.4 Z M 629.4 1.4 L 643.9 18.3 L 643.9 1.4 L 646 1.4 L 646 21.9 L 644.1 21.9 L 629.7 5 L 629.7 21.9 L 627.5 21.9 L 627.5 1.4 L 629.4 1.4 Z M 658.8 1.3 L 667.9 21.9 L 665.6 21.9 L 662.8 15.4 L 653.5 15.4 L 650.7 21.9 L 648.4 21.9 L 657.2 1.3 L 658.8 1.3 Z M 654.3 13.4 L 661.9 13.4 L 658 4.7 L 654.3 13.4 Z M 686.3 5.2 C 684 3.8 681.5 3.1 679.2 3.1 C 674.5 3.1 670.8 6.7 670.8 11.5 C 670.8 16.6 674.3 20.1 679.4 20.1 C 681.1 20.1 682.3 19.9 684.4 19.1 C 684.44 19.08 684.4 14.1 684.4 14.1 L 680.3 14.1 L 680.3 12.1 L 686.7 12.1 C 686.7 12.1 686.69 20.46 686.7 20.5 C 684.4 21.6 682.1 22.1 679.4 22.1 C 672.1 22.1 668.5 17 668.5 11.8 C 668.5 5.9 672.8 1.1 679.3 1.1 C 681.7 1.1 683.6 1.6 686.3 2.8 C 686.3 2.8 686.3 5.2 686.3 5.2 Z M 702.2 1.4 L 702.2 3.4 L 693.2 3.4 L 693.2 10.6 L 701.9 10.6 L 701.9 12.6 L 693.2 12.6 L 693.2 19.8 L 702.4 19.8 L 702.4 21.9 L 691 21.9 L 691 1.4 L 702.2 1.4 Z M 706 1.4 C 706 1.4 713.57 1.41 713.6 1.4 C 720.3 1.4 724.6 5.6 724.6 11.4 C 724.6 17.8 720.1 21.9 713.6 21.9 C 713.57 21.87 706 21.9 706 21.9 L 706 1.4 Z M 713.5 19.8 C 718.9 19.8 722.2 16.6 722.2 11.6 C 722.2 6.7 719 3.4 713.2 3.4 C 713.21 3.42 708.3 3.4 708.3 3.4 L 708.3 19.8 C 708.3 19.8 713.54 19.83 713.5 19.8 Z M 746.2 2.5 C 746.2 2.5 746.2 5 746.2 5 C 744.7 3.8 743.2 3.2 741.5 3.2 C 739.4 3.2 738 4.4 738 6.1 C 738 7.5 738.3 8.7 741.7 10.4 C 745.9 12.6 746.9 14 746.9 16.8 C 746.9 19.9 744.6 22.1 741.1 22.1 C 739.1 22.1 737.3 21.5 735.8 20.3 C 735.8 20.3 735.8 17.5 735.8 17.5 C 737.3 19.2 739.1 20.1 741.1 20.1 C 743.2 20.1 744.7 18.8 744.7 16.9 C 744.7 15.1 744.1 14.1 740.1 12 C 736.9 10.4 735.7 8.8 735.7 6.2 C 735.7 3.3 738.2 1.1 741.6 1.1 C 743.2 1.1 744.8 1.6 746.2 2.5 Z M 761.6 1.4 L 761.6 3.4 L 752.7 3.4 L 752.7 10.6 L 761.3 10.6 L 761.3 12.6 L 752.7 12.6 L 752.7 19.8 L 761.9 19.8 L 761.9 21.9 L 750.4 21.9 L 750.4 1.4 L 761.6 1.4 Z M 765.5 1.4 C 765.5 1.4 770.87 1.41 770.9 1.4 C 775 1.4 777.1 3.8 777.1 6.9 C 777.1 9.4 775.7 11.2 773.2 11.9 C 774.6 12.6 775.2 13.2 776.8 15.7 C 776.84 15.75 780.8 21.9 780.8 21.9 L 778.1 21.9 C 778.1 21.9 774.53 16.23 774.5 16.2 C 772.6 13.2 771.4 12.6 769.6 12.6 C 769.64 12.57 767.8 12.6 767.8 12.6 L 767.8 21.9 L 765.5 21.9 L 765.5 1.4 Z M 769.9 10.6 C 772.7 10.6 774.8 9.9 774.8 6.9 C 774.8 4.4 773.2 3.4 770.6 3.4 C 770.57 3.39 767.8 3.4 767.8 3.4 L 767.8 10.6 C 767.8 10.6 769.85 10.59 769.9 10.6 Z M 779.8 1.4 L 782 1.4 L 788.7 17.3 L 788.7 17.3 L 795.3 1.4 L 797.6 1.4 L 788.9 22.1 L 788.4 22.1 L 779.8 1.4 Z M 802.2 1.4 L 802.2 21.9 L 799.9 21.9 L 799.9 1.4 L 802.2 1.4 Z M 823.6 2.8 C 823.6 2.8 823.6 5.2 823.6 5.2 C 821.5 4 819.1 3.2 816.7 3.2 C 811.5 3.2 808.2 7.2 808.2 11.7 C 808.2 16.3 811.5 20 816.7 20 C 819.2 20 821.6 19.3 823.8 17.9 C 823.8 17.9 823.8 20.4 823.8 20.4 C 821.5 21.6 819.1 22.1 816.6 22.1 C 809.5 22.1 805.9 16.8 805.9 11.7 C 805.9 5.6 810.5 1.1 816.7 1.1 C 819 1.1 821.3 1.7 823.6 2.8 Z M 838.5 1.4 L 838.5 3.4 L 829.6 3.4 L 829.6 10.6 L 838.2 10.6 L 838.2 12.6 L 829.6 12.6 L 829.6 19.8 L 838.8 19.8 L 838.8 21.9 L 827.3 21.9 L 827.3 1.4 L 838.5 1.4 Z M 851.9 2.5 C 851.9 2.5 851.9 5 851.9 5 C 850.5 3.8 848.9 3.2 847.3 3.2 C 845.1 3.2 843.7 4.4 843.7 6.1 C 843.7 7.5 844 8.7 847.4 10.4 C 851.6 12.6 852.7 14 852.7 16.8 C 852.7 19.9 850.3 22.1 846.8 22.1 C 844.9 22.1 843.1 21.5 841.5 20.3 C 841.5 20.3 841.5 17.5 841.5 17.5 C 843 19.2 844.8 20.1 846.8 20.1 C 848.9 20.1 850.4 18.8 850.4 16.9 C 850.4 15.1 849.8 14.1 845.8 12 C 842.6 10.4 841.4 8.8 841.4 6.2 C 841.4 3.3 843.9 1.1 847.3 1.1 C 848.9 1.1 850.5 1.6 851.9 2.5 Z " stroke="none" fill="#000000"/>  </g></svg>