<?xml version="1.0" standalone="no"?><!DOCTYPE svg PUBLIC "-//W3C//DTD SVG 1.1//EN" "http://www.w3.org/Graphics/SVG/1.1/DTD/svg11.dtd"><svg xmlns="http://www.w3.org/2000/svg" version="1.1" width="800.3px" height="239.5px" viewBox="0 -1 800.3 239.5" style="top:-1px">  <desc>Client Feedback</desc>  <defs/>  <g id="Polygon5072">    <path d="M 212.7 98.4 C 212.7 98.4 212.7 103.6 212.7 103.6 C 209 101.5 205 100.2 200.9 100.2 C 192.5 100.2 187.3 106.5 187.3 113.2 C 187.3 119.9 192.3 126.1 200.8 126.1 C 205.3 126.1 209.3 124.7 213 122.3 C 213 122.3 213 127.6 213 127.6 C 209 129.8 204.9 130.6 200.6 130.6 C 188.1 130.6 182.3 121.2 182.3 113.2 C 182.3 103.2 190.6 95.6 200.7 95.6 C 204.5 95.6 208.6 96.6 212.7 98.4 Z M 223.9 96.1 L 223.9 125.7 L 239.3 125.7 L 239.3 130.2 L 219 130.2 L 219 96.1 L 223.9 96.1 Z M 248.4 96.1 L 248.4 130.2 L 243.5 130.2 L 243.5 96.1 L 248.4 96.1 Z M 275.3 96.1 L 275.3 100.4 L 260.8 100.4 L 260.8 110.8 L 274.8 110.8 L 274.8 115.2 L 260.8 115.2 L 260.8 125.8 L 275.7 125.8 L 275.7 130.2 L 255.9 130.2 L 255.9 96.1 L 275.3 96.1 Z M 286 96.1 L 308.9 122.5 L 308.9 96.1 L 313.6 96.1 L 313.6 130.2 L 309.3 130.2 L 286.7 103.9 L 286.7 130.2 L 282 130.2 L 282 96.1 L 286 96.1 Z M 346.7 96.1 L 346.7 100.4 L 334.8 100.4 L 334.8 130.2 L 329.9 130.2 L 329.9 100.4 L 318.2 100.4 L 318.2 96.1 L 346.7 96.1 Z M 383.4 96.1 L 383.4 100.5 L 370.1 100.5 L 370.1 109.9 L 383.4 109.9 L 383.4 114.3 L 370.1 114.3 L 370.1 130.2 L 365.2 130.2 L 365.2 96.1 L 383.4 96.1 Z M 407.9 96.1 L 407.9 100.4 L 393.5 100.4 L 393.5 110.8 L 407.4 110.8 L 407.4 115.2 L 393.5 115.2 L 393.5 125.8 L 408.4 125.8 L 408.4 130.2 L 388.6 130.2 L 388.6 96.1 L 407.9 96.1 Z M 434 96.1 L 434 100.4 L 419.5 100.4 L 419.5 110.8 L 433.5 110.8 L 433.5 115.2 L 419.5 115.2 L 419.5 125.8 L 434.4 125.8 L 434.4 130.2 L 414.6 130.2 L 414.6 96.1 L 434 96.1 Z M 453.6 96.1 C 465 96.1 472 103.1 472 112.7 C 472 123.3 464.5 130.2 453.7 130.2 C 453.7 130.17 440.7 130.2 440.7 130.2 L 440.7 96.1 C 440.7 96.1 453.65 96.07 453.6 96.1 Z M 453.4 125.8 C 462 125.8 467 121 467 112.9 C 467 105.5 462.4 100.4 452.7 100.4 C 452.75 100.42 445.6 100.4 445.6 100.4 L 445.6 125.8 C 445.6 125.8 453.45 125.77 453.4 125.8 Z M 487.9 96.1 C 494.8 96.1 498.4 99.8 498.4 104.9 C 498.4 108.3 496.6 110.7 493.2 112.1 C 498.3 113.1 501.4 116.6 501.4 120.9 C 501.4 127.7 495 130.2 488.9 130.2 C 488.95 130.17 478 130.2 478 130.2 L 478 96.1 C 478 96.1 487.9 96.07 487.9 96.1 Z M 482.9 110.8 C 482.9 110.8 486.35 110.77 486.3 110.8 C 491.5 110.8 493.4 108.1 493.4 105.3 C 493.4 101.9 491.5 100.4 487.1 100.4 C 487.1 100.37 482.9 100.4 482.9 100.4 L 482.9 110.8 Z M 488 125.9 C 493.7 125.9 496.3 124.2 496.3 120.4 C 496.3 117.1 494 115 487.8 115 C 487.85 114.97 482.9 115 482.9 115 L 482.9 125.9 C 482.9 125.9 488.05 125.87 488 125.9 Z M 521.4 95.9 L 536.6 130.2 L 531.6 130.2 L 527.1 120.1 L 512.6 120.1 L 508.3 130.2 L 503.3 130.2 L 517.9 95.9 L 521.4 95.9 Z M 514.4 115.7 L 525.2 115.7 L 519.6 102.5 L 514.4 115.7 Z M 567.8 98.4 C 567.8 98.4 567.8 103.6 567.8 103.6 C 564.1 101.5 560.1 100.2 556 100.2 C 547.6 100.2 542.5 106.5 542.5 113.2 C 542.5 119.9 547.4 126.1 555.9 126.1 C 560.4 126.1 564.4 124.7 568.1 122.3 C 568.1 122.3 568.1 127.6 568.1 127.6 C 564.1 129.8 560 130.6 555.7 130.6 C 543.2 130.6 537.4 121.2 537.4 113.2 C 537.4 103.2 545.7 95.6 555.8 95.6 C 559.6 95.6 563.7 96.6 567.8 98.4 Z M 579.1 96.1 L 579.1 111.7 L 593.4 96.1 L 599.5 96.1 L 584.7 112.2 L 603.2 130.2 L 596.5 130.2 L 579.1 113.3 L 579.1 130.2 L 574.1 130.2 L 574.1 96.1 L 579.1 96.1 Z " stroke="none" fill="#010102"/>  </g></svg>