<?xml version="1.0" standalone="no"?><!DOCTYPE svg PUBLIC "-//W3C//DTD SVG 1.1//EN" "http://www.w3.org/Graphics/SVG/1.1/DTD/svg11.dtd"><svg xmlns="http://www.w3.org/2000/svg" version="1.1" width="143.4px" height="74.4px" viewBox="0 -4 143.4 74.4" style="top:-4px">  <desc>EPA Human Resources</desc>  <defs/>  <g id="Polygon46060">    <path d="M 1.5 45.3 C 1.5 45.3 5.12 45.29 5.1 45.3 C 7.9 45.3 9.3 46.9 9.3 49 C 9.3 50.7 8.4 51.8 6.7 52.3 C 7.6 52.8 8 53.1 9.1 54.9 C 9.1 54.85 11.7 58.9 11.7 58.9 L 10 58.9 C 10 58.9 7.56 55.17 7.6 55.2 C 6.3 53.2 5.5 52.7 4.3 52.7 C 4.3 52.73 3 52.7 3 52.7 L 3 58.9 L 1.5 58.9 L 1.5 45.3 Z M 4.4 51.4 C 6.3 51.4 7.7 51 7.7 49 C 7.7 47.3 6.7 46.6 4.9 46.6 C 4.92 46.61 3 46.6 3 46.6 L 3 51.4 C 3 51.4 4.44 51.41 4.4 51.4 Z M 20.7 45.3 L 20.7 46.6 L 14.7 46.6 L 14.7 51.4 L 20.5 51.4 L 20.5 52.7 L 14.7 52.7 L 14.7 57.6 L 20.9 57.6 L 20.9 58.9 L 13.2 58.9 L 13.2 45.3 L 20.7 45.3 Z M 29.6 46 C 29.6 46 29.6 47.7 29.6 47.7 C 28.7 46.9 27.6 46.5 26.5 46.5 C 25.1 46.5 24.1 47.3 24.1 48.5 C 24.1 49.4 24.4 50.1 26.6 51.3 C 29.4 52.7 30.1 53.7 30.1 55.6 C 30.1 57.6 28.6 59.1 26.2 59.1 C 24.9 59.1 23.7 58.7 22.7 57.9 C 22.7 57.9 22.7 56 22.7 56 C 23.7 57.2 24.9 57.8 26.2 57.8 C 27.6 57.8 28.6 56.9 28.6 55.6 C 28.6 54.4 28.2 53.8 25.6 52.4 C 23.4 51.3 22.6 50.2 22.6 48.5 C 22.6 46.6 24.3 45.1 26.6 45.1 C 27.6 45.1 28.7 45.4 29.6 46 Z M 46.2 52.1 C 46.2 55.9 43.4 59.1 38.9 59.1 C 34.7 59.1 31.9 55.9 31.9 52.2 C 31.9 48.4 34.6 45.1 39 45.1 C 43.4 45.1 46.2 48.3 46.2 52.1 Z M 33.4 52.1 C 33.4 55.4 35.9 57.7 39 57.7 C 43 57.7 44.7 54.6 44.7 52.1 C 44.7 49.3 42.6 46.5 39.1 46.5 C 35.4 46.5 33.4 49.4 33.4 52.1 Z M 50 45.3 C 50 45.3 50.02 53.15 50 53.2 C 50 56.2 51.4 57.8 54.2 57.8 C 57.1 57.8 58.5 56.1 58.5 53.2 C 58.46 53.15 58.5 45.3 58.5 45.3 L 60 45.3 C 60 45.3 59.96 53.15 60 53.2 C 60 56.7 58.1 59.1 54.3 59.1 C 50.5 59.1 48.5 57 48.5 53.2 C 48.52 53.15 48.5 45.3 48.5 45.3 L 50 45.3 Z M 62.9 45.3 C 62.9 45.3 66.44 45.29 66.4 45.3 C 69.2 45.3 70.6 46.9 70.6 49 C 70.6 50.7 69.7 51.8 68 52.3 C 68.9 52.8 69.3 53.1 70.4 54.9 C 70.42 54.85 73.1 58.9 73.1 58.9 L 71.3 58.9 C 71.3 58.9 68.88 55.17 68.9 55.2 C 67.6 53.2 66.8 52.7 65.6 52.7 C 65.62 52.73 64.4 52.7 64.4 52.7 L 64.4 58.9 L 62.9 58.9 L 62.9 45.3 Z M 65.8 51.4 C 67.6 51.4 69.1 51 69.1 49 C 69.1 47.3 68 46.6 66.2 46.6 C 66.24 46.61 64.4 46.6 64.4 46.6 L 64.4 51.4 C 64.4 51.4 65.76 51.41 65.8 51.4 Z M 85.4 46.2 C 85.4 46.2 85.4 47.8 85.4 47.8 C 84 47 82.4 46.5 80.8 46.5 C 77.3 46.5 75.1 49.1 75.1 52.1 C 75.1 55.2 77.3 57.7 80.8 57.7 C 82.5 57.7 84.1 57.2 85.5 56.3 C 85.5 56.3 85.5 58 85.5 58 C 84 58.8 82.4 59.1 80.7 59.1 C 76 59.1 73.6 55.6 73.6 52.2 C 73.6 48.1 76.7 45.1 80.8 45.1 C 82.3 45.1 83.9 45.5 85.4 46.2 Z M 95.3 45.3 L 95.3 46.6 L 89.4 46.6 L 89.4 51.4 L 95.1 51.4 L 95.1 52.7 L 89.4 52.7 L 89.4 57.6 L 95.5 57.6 L 95.5 58.9 L 87.9 58.9 L 87.9 45.3 L 95.3 45.3 Z M 104.2 46 C 104.2 46 104.2 47.7 104.2 47.7 C 103.3 46.9 102.3 46.5 101.2 46.5 C 99.7 46.5 98.8 47.3 98.8 48.5 C 98.8 49.4 99 50.1 101.3 51.3 C 104.1 52.7 104.8 53.7 104.8 55.6 C 104.8 57.6 103.2 59.1 100.9 59.1 C 99.6 59.1 98.4 58.7 97.3 57.9 C 97.3 57.9 97.3 56 97.3 56 C 98.3 57.2 99.5 57.8 100.9 57.8 C 102.2 57.8 103.2 56.9 103.2 55.6 C 103.2 54.4 102.9 53.8 100.2 52.4 C 98.1 51.3 97.3 50.2 97.3 48.5 C 97.3 46.6 98.9 45.1 101.2 45.1 C 102.3 45.1 103.3 45.4 104.2 46 Z " stroke="none" fill="#000000"/>  </g>  <g id="Polygon46059">    <path d="M 3 21.3 L 3 27.4 L 11.3 27.4 L 11.3 21.3 L 12.8 21.3 L 12.8 34.9 L 11.3 34.9 L 11.3 28.8 L 3 28.8 L 3 34.9 L 1.5 34.9 L 1.5 21.3 L 3 21.3 Z M 17.2 21.3 C 17.2 21.3 17.2 29.15 17.2 29.2 C 17.2 32.2 18.6 33.8 21.4 33.8 C 24.3 33.8 25.6 32.1 25.6 29.2 C 25.64 29.15 25.6 21.3 25.6 21.3 L 27.1 21.3 C 27.1 21.3 27.14 29.15 27.1 29.2 C 27.1 32.7 25.2 35.1 21.5 35.1 C 17.7 35.1 15.7 33 15.7 29.2 C 15.7 29.15 15.7 21.3 15.7 21.3 L 17.2 21.3 Z M 30 21.3 L 31.5 21.3 L 36.3 27.3 L 41.1 21.3 L 42.5 21.3 L 42.5 34.9 L 41 34.9 L 41 23.7 L 41 23.7 L 36.4 29.4 L 36.1 29.4 L 31.6 23.7 L 31.5 23.7 L 31.5 34.9 L 30 34.9 L 30 21.3 Z M 51 21.2 L 57.1 34.9 L 55.6 34.9 L 53.7 30.7 L 47.5 30.7 L 45.6 34.9 L 44.1 34.9 L 50 21.2 L 51 21.2 Z M 48 29.3 L 53.1 29.3 L 50.5 23.5 L 48 29.3 Z M 59.9 21.3 L 69.6 32.6 L 69.6 21.3 L 71 21.3 L 71 34.9 L 69.7 34.9 L 60.1 23.7 L 60.1 34.9 L 58.7 34.9 L 58.7 21.3 L 59.9 21.3 Z " stroke="none" fill="#000000"/>  </g>  <g id="Polygon46058">    <path d="M 6.8 0.7 L 6.8 1.7 L 2.3 1.7 L 2.3 5.3 L 6.6 5.3 L 6.6 6.3 L 2.3 6.3 L 2.3 9.9 L 6.9 9.9 L 6.9 10.9 L 1.2 10.9 L 1.2 0.7 L 6.8 0.7 Z M 11.6 0.7 C 13.6 0.7 14.9 1.7 14.9 3.5 C 14.9 5.4 13.6 6.3 11.4 6.3 C 11.4 6.33 9.8 6.3 9.8 6.3 L 9.8 10.9 L 8.7 10.9 L 8.7 0.7 C 8.7 0.7 11.59 0.7 11.6 0.7 Z M 9.8 5.3 C 9.8 5.3 11.37 5.34 11.4 5.3 C 13.1 5.3 13.7 4.7 13.7 3.5 C 13.7 2.3 13 1.7 11.4 1.7 C 11.37 1.69 9.8 1.7 9.8 1.7 L 9.8 5.3 Z M 19.7 0.6 L 24.2 10.9 L 23.1 10.9 L 21.6 7.7 L 17 7.7 L 15.6 10.9 L 14.5 10.9 L 18.9 0.6 L 19.7 0.6 Z M 17.4 6.7 L 21.2 6.7 L 19.3 2.4 L 17.4 6.7 Z " stroke="none" fill="#f28620"/>  </g></svg>