<?xml version="1.0" standalone="no"?><!DOCTYPE svg PUBLIC "-//W3C//DTD SVG 1.1//EN" "http://www.w3.org/Graphics/SVG/1.1/DTD/svg11.dtd"><svg xmlns="http://www.w3.org/2000/svg" version="1.1" width="73.5px" height="34.5px" viewBox="0 -4 73.5 34.5" style="top:-4px">  <desc>Solution Focused</desc>  <defs/>  <g id="Polygon54761">    <path d="M 14.7 23.1 L 14.7 14.5 L 20.5 14.5 L 20.5 15.6 L 15.9 15.6 L 15.9 18.2 L 19.9 18.2 L 19.9 19.2 L 15.9 19.2 L 15.9 23.1 L 14.7 23.1 Z M 21.5 20 C 21.5 18.9 21.8 18 22.4 17.5 C 23 17 23.6 16.8 24.4 16.8 C 25.2 16.8 25.9 17.1 26.5 17.6 C 27 18.2 27.3 18.9 27.3 19.9 C 27.3 20.7 27.2 21.4 26.9 21.8 C 26.7 22.3 26.3 22.6 25.9 22.9 C 25.4 23.1 24.9 23.3 24.4 23.3 C 23.5 23.3 22.8 23 22.3 22.4 C 21.7 21.9 21.5 21.1 21.5 20 Z M 22.5 20 C 22.5 20.8 22.7 21.4 23.1 21.8 C 23.4 22.2 23.8 22.4 24.4 22.4 C 24.9 22.4 25.3 22.2 25.7 21.8 C 26 21.4 26.2 20.8 26.2 20 C 26.2 19.2 26 18.6 25.7 18.2 C 25.3 17.8 24.9 17.6 24.4 17.6 C 23.8 17.6 23.4 17.8 23.1 18.2 C 22.7 18.6 22.5 19.2 22.5 20 Z M 32.6 20.9 C 32.6 20.9 33.6 21 33.6 21 C 33.5 21.7 33.2 22.3 32.8 22.7 C 32.3 23.1 31.7 23.3 31 23.3 C 30.2 23.3 29.5 23 29 22.4 C 28.5 21.9 28.2 21.1 28.2 20 C 28.2 19.4 28.3 18.8 28.5 18.3 C 28.8 17.8 29.1 17.4 29.6 17.2 C 30 16.9 30.5 16.8 31 16.8 C 31.7 16.8 32.3 16.9 32.7 17.3 C 33.1 17.6 33.4 18.1 33.5 18.7 C 33.5 18.7 32.5 18.9 32.5 18.9 C 32.4 18.5 32.2 18.2 32 18 C 31.7 17.7 31.4 17.6 31.1 17.6 C 30.5 17.6 30.1 17.8 29.8 18.2 C 29.5 18.6 29.3 19.2 29.3 20 C 29.3 20.9 29.4 21.5 29.8 21.8 C 30.1 22.2 30.5 22.4 31 22.4 C 31.4 22.4 31.8 22.3 32.1 22 C 32.3 21.8 32.5 21.4 32.6 20.9 Z M 38.6 23.1 C 38.6 23.1 38.6 22.22 38.6 22.2 C 38.1 22.9 37.5 23.3 36.6 23.3 C 36.3 23.3 35.9 23.2 35.6 23.1 C 35.3 22.9 35 22.7 34.9 22.5 C 34.7 22.3 34.6 22.1 34.6 21.8 C 34.5 21.5 34.5 21.2 34.5 20.8 C 34.5 20.77 34.5 16.9 34.5 16.9 L 35.6 16.9 C 35.6 16.9 35.56 20.36 35.6 20.4 C 35.6 20.9 35.6 21.3 35.6 21.5 C 35.7 21.8 35.8 22 36 22.1 C 36.3 22.3 36.5 22.4 36.8 22.4 C 37.2 22.4 37.5 22.3 37.7 22.1 C 38 22 38.2 21.7 38.3 21.5 C 38.4 21.2 38.5 20.8 38.5 20.2 C 38.49 20.25 38.5 16.9 38.5 16.9 L 39.5 16.9 L 39.5 23.1 L 38.6 23.1 Z M 40.8 21.3 C 40.8 21.3 41.8 21.1 41.8 21.1 C 41.9 21.5 42 21.9 42.3 22.1 C 42.6 22.3 43 22.4 43.4 22.4 C 43.9 22.4 44.3 22.3 44.5 22.1 C 44.7 21.9 44.9 21.7 44.9 21.4 C 44.9 21.2 44.8 21 44.5 20.9 C 44.4 20.8 44 20.6 43.5 20.5 C 42.7 20.3 42.2 20.1 41.9 20 C 41.6 19.9 41.3 19.7 41.2 19.4 C 41 19.1 41 18.9 41 18.6 C 41 18.3 41 18 41.1 17.8 C 41.3 17.6 41.4 17.4 41.7 17.2 C 41.8 17.1 42 17 42.3 16.9 C 42.6 16.8 42.9 16.8 43.2 16.8 C 43.7 16.8 44.2 16.8 44.5 17 C 44.9 17.1 45.2 17.3 45.3 17.6 C 45.5 17.8 45.6 18.1 45.7 18.5 C 45.7 18.5 44.7 18.7 44.7 18.7 C 44.6 18.3 44.5 18.1 44.3 17.9 C 44 17.7 43.7 17.6 43.3 17.6 C 42.8 17.6 42.5 17.7 42.3 17.9 C 42.1 18 42 18.2 42 18.4 C 42 18.6 42 18.7 42.1 18.8 C 42.2 18.9 42.3 19 42.5 19.1 C 42.6 19.1 42.9 19.2 43.4 19.4 C 44.2 19.6 44.7 19.7 45 19.9 C 45.3 20 45.5 20.2 45.7 20.4 C 45.9 20.6 45.9 20.9 45.9 21.3 C 45.9 21.7 45.8 22 45.6 22.3 C 45.4 22.6 45.1 22.9 44.7 23 C 44.4 23.2 43.9 23.3 43.4 23.3 C 42.6 23.3 42 23.1 41.6 22.8 C 41.2 22.4 40.9 21.9 40.8 21.3 Z M 51.5 21.1 C 51.5 21.1 52.5 21.3 52.5 21.3 C 52.4 21.9 52.1 22.4 51.6 22.7 C 51.1 23.1 50.5 23.3 49.8 23.3 C 48.9 23.3 48.2 23 47.6 22.4 C 47.1 21.9 46.8 21.1 46.8 20.1 C 46.8 19 47.1 18.2 47.7 17.6 C 48.2 17.1 48.9 16.8 49.8 16.8 C 50.6 16.8 51.3 17.1 51.8 17.6 C 52.3 18.2 52.6 19 52.6 20 C 52.6 20.1 52.6 20.2 52.6 20.3 C 52.6 20.3 47.9 20.3 47.9 20.3 C 48 21 48.2 21.5 48.5 21.9 C 48.9 22.2 49.3 22.4 49.8 22.4 C 50.2 22.4 50.5 22.3 50.8 22.1 C 51.1 21.9 51.3 21.6 51.5 21.1 Z M 48 19.4 C 48 19.4 51.5 19.4 51.5 19.4 C 51.4 18.9 51.3 18.5 51.1 18.2 C 50.7 17.8 50.3 17.6 49.8 17.6 C 49.3 17.6 48.9 17.8 48.5 18.1 C 48.2 18.5 48 18.9 48 19.4 Z M 57.9 23.1 C 57.9 23.1 57.91 22.35 57.9 22.4 C 57.5 23 56.9 23.3 56.2 23.3 C 55.7 23.3 55.2 23.1 54.8 22.9 C 54.4 22.6 54.1 22.2 53.8 21.7 C 53.6 21.2 53.5 20.7 53.5 20 C 53.5 19.4 53.6 18.8 53.8 18.3 C 54 17.8 54.3 17.4 54.7 17.2 C 55.1 16.9 55.6 16.8 56.1 16.8 C 56.5 16.8 56.8 16.9 57.1 17 C 57.4 17.2 57.7 17.4 57.8 17.6 C 57.84 17.63 57.8 14.5 57.8 14.5 L 58.9 14.5 L 58.9 23.1 L 57.9 23.1 Z M 54.6 20 C 54.6 20.8 54.7 21.4 55.1 21.8 C 55.4 22.2 55.8 22.4 56.3 22.4 C 56.7 22.4 57.1 22.2 57.4 21.8 C 57.8 21.5 57.9 20.9 57.9 20.1 C 57.9 19.3 57.8 18.6 57.4 18.2 C 57.1 17.8 56.7 17.6 56.2 17.6 C 55.8 17.6 55.4 17.8 55 18.2 C 54.7 18.6 54.6 19.2 54.6 20 Z " stroke="none" fill="#000"/>  </g>  <g id="Polygon54760">    <path d="M 15.6 6 C 15.6 6 16.7 5.9 16.7 5.9 C 16.7 6.3 16.8 6.7 17 6.9 C 17.2 7.2 17.5 7.4 17.9 7.6 C 18.3 7.8 18.7 7.9 19.2 7.9 C 19.6 7.9 20 7.8 20.4 7.7 C 20.7 7.5 20.9 7.4 21.1 7.1 C 21.3 6.9 21.3 6.7 21.3 6.4 C 21.3 6.1 21.3 5.9 21.1 5.7 C 21 5.5 20.7 5.3 20.3 5.2 C 20.1 5.1 19.6 5 18.8 4.8 C 18 4.6 17.5 4.4 17.1 4.2 C 16.7 4 16.4 3.8 16.2 3.4 C 16 3.1 15.9 2.8 15.9 2.4 C 15.9 1.9 16 1.5 16.3 1.2 C 16.5 0.8 16.9 0.5 17.4 0.3 C 17.8 0.1 18.4 0 19 0 C 19.6 0 20.1 0.1 20.6 0.3 C 21.1 0.5 21.5 0.8 21.8 1.2 C 22 1.6 22.2 2.1 22.2 2.6 C 22.2 2.6 21.1 2.6 21.1 2.6 C 21 2.1 20.8 1.7 20.5 1.4 C 20.2 1.1 19.7 1 19 1 C 18.3 1 17.8 1.1 17.5 1.4 C 17.2 1.6 17 1.9 17 2.3 C 17 2.6 17.1 2.9 17.4 3.1 C 17.6 3.3 18.1 3.5 19.1 3.7 C 20 3.9 20.6 4.1 21 4.2 C 21.5 4.4 21.8 4.7 22.1 5.1 C 22.3 5.4 22.4 5.8 22.4 6.3 C 22.4 6.8 22.3 7.2 22 7.6 C 21.8 8 21.4 8.3 20.9 8.5 C 20.4 8.8 19.9 8.9 19.3 8.9 C 18.5 8.9 17.8 8.8 17.3 8.5 C 16.8 8.3 16.4 8 16.1 7.5 C 15.8 7.1 15.6 6.6 15.6 6 Z M 23.5 5.6 C 23.5 4.5 23.8 3.6 24.4 3.1 C 25 2.6 25.6 2.4 26.4 2.4 C 27.2 2.4 27.9 2.7 28.5 3.2 C 29 3.8 29.3 4.5 29.3 5.5 C 29.3 6.3 29.2 7 28.9 7.4 C 28.7 7.9 28.3 8.2 27.9 8.5 C 27.4 8.7 26.9 8.9 26.4 8.9 C 25.5 8.9 24.8 8.6 24.3 8 C 23.7 7.5 23.5 6.7 23.5 5.6 Z M 24.5 5.6 C 24.5 6.4 24.7 7 25.1 7.4 C 25.4 7.8 25.9 8 26.4 8 C 26.9 8 27.3 7.8 27.7 7.4 C 28 7 28.2 6.4 28.2 5.6 C 28.2 4.8 28 4.2 27.7 3.8 C 27.3 3.4 26.9 3.2 26.4 3.2 C 25.9 3.2 25.4 3.4 25.1 3.8 C 24.7 4.2 24.5 4.8 24.5 5.6 Z M 30.5 8.7 L 30.5 0.1 L 31.6 0.1 L 31.6 8.7 L 30.5 8.7 Z M 37.3 8.7 C 37.3 8.7 37.27 7.82 37.3 7.8 C 36.8 8.5 36.1 8.9 35.3 8.9 C 34.9 8.9 34.6 8.8 34.3 8.7 C 34 8.5 33.7 8.3 33.6 8.1 C 33.4 7.9 33.3 7.7 33.2 7.4 C 33.2 7.1 33.2 6.8 33.2 6.4 C 33.17 6.37 33.2 2.5 33.2 2.5 L 34.2 2.5 C 34.2 2.5 34.23 5.96 34.2 6 C 34.2 6.5 34.2 6.9 34.3 7.1 C 34.4 7.4 34.5 7.6 34.7 7.7 C 34.9 7.9 35.2 8 35.5 8 C 35.8 8 36.1 7.9 36.4 7.7 C 36.7 7.6 36.9 7.3 37 7.1 C 37.1 6.8 37.2 6.4 37.2 5.8 C 37.16 5.85 37.2 2.5 37.2 2.5 L 38.2 2.5 L 38.2 8.7 L 37.3 8.7 Z M 41.7 7.8 C 41.8 7.8 42 7.8 42.2 7.8 C 42.2 7.8 42.3 8.7 42.3 8.7 C 42 8.8 41.8 8.8 41.5 8.8 C 41.1 8.8 40.8 8.8 40.6 8.6 C 40.4 8.5 40.3 8.4 40.2 8.2 C 40.1 8 40.1 7.5 40.1 6.9 C 40.06 6.91 40.1 3.3 40.1 3.3 L 39.3 3.3 L 39.3 2.5 L 40.1 2.5 L 40.1 1 L 41.1 0.3 L 41.1 2.5 L 42.2 2.5 L 42.2 3.3 L 41.1 3.3 C 41.1 3.3 41.11 6.97 41.1 7 C 41.1 7.3 41.1 7.5 41.2 7.6 C 41.2 7.6 41.3 7.7 41.3 7.8 C 41.4 7.8 41.6 7.8 41.7 7.8 C 41.7 7.8 41.7 7.8 41.7 7.8 Z M 43.2 1.4 L 43.2 0.1 L 44.3 0.1 L 44.3 1.4 L 43.2 1.4 Z M 43.2 8.7 L 43.2 2.5 L 44.3 2.5 L 44.3 8.7 L 43.2 8.7 Z M 45.5 5.6 C 45.5 4.5 45.8 3.6 46.4 3.1 C 47 2.6 47.6 2.4 48.4 2.4 C 49.2 2.4 49.9 2.7 50.5 3.2 C 51 3.8 51.3 4.5 51.3 5.5 C 51.3 6.3 51.2 7 50.9 7.4 C 50.7 7.9 50.4 8.2 49.9 8.5 C 49.4 8.7 48.9 8.9 48.4 8.9 C 47.5 8.9 46.8 8.6 46.3 8 C 45.7 7.5 45.5 6.7 45.5 5.6 Z M 46.6 5.6 C 46.6 6.4 46.7 7 47.1 7.4 C 47.4 7.8 47.9 8 48.4 8 C 48.9 8 49.4 7.8 49.7 7.4 C 50 7 50.2 6.4 50.2 5.6 C 50.2 4.8 50 4.2 49.7 3.8 C 49.3 3.4 48.9 3.2 48.4 3.2 C 47.9 3.2 47.4 3.4 47.1 3.8 C 46.7 4.2 46.6 4.8 46.6 5.6 Z M 52.5 8.7 L 52.5 2.5 L 53.5 2.5 C 53.5 2.5 53.49 3.4 53.5 3.4 C 53.9 2.7 54.6 2.4 55.5 2.4 C 55.8 2.4 56.2 2.4 56.5 2.6 C 56.8 2.7 57.1 2.9 57.2 3.1 C 57.4 3.3 57.5 3.6 57.5 3.9 C 57.6 4.1 57.6 4.4 57.6 4.9 C 57.6 4.91 57.6 8.7 57.6 8.7 L 56.5 8.7 C 56.5 8.7 56.54 4.95 56.5 5 C 56.5 4.5 56.5 4.2 56.4 4 C 56.3 3.8 56.2 3.6 56 3.5 C 55.8 3.4 55.5 3.3 55.2 3.3 C 54.8 3.3 54.4 3.4 54.1 3.7 C 53.8 4 53.6 4.5 53.6 5.3 C 53.6 5.34 53.6 8.7 53.6 8.7 L 52.5 8.7 Z " stroke="none" fill="#000"/>  </g></svg>