<?xml version="1.0" standalone="no"?><!DOCTYPE svg PUBLIC "-//W3C//DTD SVG 1.1//EN" "http://www.w3.org/Graphics/SVG/1.1/DTD/svg11.dtd"><svg xmlns="http://www.w3.org/2000/svg" version="1.1" width="400.1px" height="39.1px" viewBox="0 -8 400.1 39.1" style="top:-8px">  <desc>Turnaround Times</desc>  <defs/>  <g id="Polygon22893">    <path d="M 6.2 17.5 L 6.2 2.3 L 0.6 2.3 L 0.6 0.3 L 14.2 0.3 L 14.2 2.3 L 8.5 2.3 L 8.5 17.5 L 6.2 17.5 Z M 23.5 17.5 C 23.5 17.5 23.51 15.64 23.5 15.6 C 22.5 17.1 21.2 17.8 19.6 17.8 C 18.8 17.8 18.1 17.6 17.5 17.3 C 16.9 17.1 16.4 16.7 16.1 16.3 C 15.8 15.8 15.6 15.3 15.4 14.7 C 15.3 14.3 15.3 13.6 15.3 12.7 C 15.3 12.74 15.3 5 15.3 5 L 17.4 5 C 17.4 5 17.41 11.93 17.4 11.9 C 17.4 13 17.5 13.8 17.5 14.2 C 17.7 14.7 18 15.1 18.4 15.5 C 18.8 15.8 19.3 15.9 20 15.9 C 20.6 15.9 21.2 15.8 21.8 15.5 C 22.3 15.1 22.7 14.7 22.9 14.1 C 23.2 13.6 23.3 12.8 23.3 11.7 C 23.29 11.7 23.3 5 23.3 5 L 25.4 5 L 25.4 17.5 L 23.5 17.5 Z M 28.7 17.5 L 28.7 5 L 30.6 5 C 30.6 5 30.57 6.91 30.6 6.9 C 31.1 6 31.5 5.4 31.9 5.2 C 32.3 4.9 32.8 4.7 33.3 4.7 C 34 4.7 34.7 5 35.4 5.4 C 35.4 5.4 34.7 7.4 34.7 7.4 C 34.2 7.1 33.7 6.9 33.2 6.9 C 32.7 6.9 32.3 7.1 31.9 7.3 C 31.6 7.6 31.3 8 31.1 8.5 C 30.9 9.2 30.8 10.1 30.8 11 C 30.79 10.96 30.8 17.5 30.8 17.5 L 28.7 17.5 Z M 36.7 17.5 L 36.7 5 L 38.6 5 C 38.6 5 38.59 6.8 38.6 6.8 C 39.5 5.4 40.8 4.7 42.6 4.7 C 43.3 4.7 44 4.9 44.6 5.2 C 45.2 5.4 45.7 5.8 46 6.2 C 46.3 6.6 46.6 7.2 46.7 7.8 C 46.8 8.2 46.8 8.8 46.8 9.8 C 46.8 9.82 46.8 17.5 46.8 17.5 L 44.7 17.5 C 44.7 17.5 44.7 9.9 44.7 9.9 C 44.7 9 44.6 8.4 44.4 8 C 44.3 7.5 44 7.2 43.6 7 C 43.2 6.7 42.7 6.6 42.1 6.6 C 41.2 6.6 40.4 6.9 39.8 7.4 C 39.1 8 38.8 9.1 38.8 10.7 C 38.8 10.68 38.8 17.5 38.8 17.5 L 36.7 17.5 Z M 58.6 17.5 C 58.4 17 58.2 16.5 58.2 15.9 C 57.4 16.6 56.6 17.1 55.9 17.3 C 55.2 17.6 54.4 17.8 53.6 17.8 C 52.2 17.8 51.2 17.4 50.4 16.8 C 49.7 16.1 49.3 15.2 49.3 14.2 C 49.3 13.6 49.5 13 49.7 12.5 C 50 12 50.4 11.6 50.8 11.3 C 51.3 11 51.8 10.8 52.3 10.6 C 52.8 10.5 53.4 10.4 54.2 10.3 C 55.9 10.1 57.2 9.9 58 9.6 C 58 9.3 58 9.1 58 9 C 58 8.2 57.8 7.6 57.4 7.2 C 56.9 6.7 56.1 6.5 55 6.5 C 54 6.5 53.3 6.7 52.8 7 C 52.3 7.4 52 8 51.8 8.9 C 51.8 8.9 49.7 8.6 49.7 8.6 C 49.9 7.7 50.2 7 50.6 6.4 C 51 5.9 51.7 5.5 52.5 5.2 C 53.3 4.9 54.2 4.7 55.3 4.7 C 56.4 4.7 57.2 4.9 57.9 5.1 C 58.6 5.4 59 5.7 59.4 6.1 C 59.7 6.4 59.9 6.9 60 7.5 C 60.1 7.9 60.1 8.5 60.1 9.4 C 60.1 9.4 60.1 12.3 60.1 12.3 C 60.1 14.2 60.2 15.5 60.3 16 C 60.3 16.5 60.5 17 60.8 17.5 C 60.79 17.47 58.6 17.5 58.6 17.5 C 58.6 17.5 58.58 17.47 58.6 17.5 Z M 58 11.2 C 57.2 11.5 56.1 11.8 54.5 12 C 53.7 12.1 53.1 12.3 52.7 12.4 C 52.3 12.6 52.1 12.8 51.9 13.1 C 51.7 13.4 51.6 13.8 51.6 14.1 C 51.6 14.7 51.8 15.2 52.2 15.5 C 52.6 15.9 53.3 16.1 54.1 16.1 C 54.9 16.1 55.6 15.9 56.3 15.6 C 56.9 15.2 57.3 14.7 57.6 14.1 C 57.9 13.6 58 12.9 58 12 C 58 12 58 11.2 58 11.2 Z M 63.4 17.5 L 63.4 5 L 65.3 5 C 65.3 5 65.26 6.91 65.3 6.9 C 65.7 6 66.2 5.4 66.6 5.2 C 67 4.9 67.5 4.7 68 4.7 C 68.7 4.7 69.4 5 70.1 5.4 C 70.1 5.4 69.4 7.4 69.4 7.4 C 68.9 7.1 68.4 6.9 67.9 6.9 C 67.4 6.9 67 7.1 66.6 7.3 C 66.2 7.6 66 8 65.8 8.5 C 65.6 9.2 65.5 10.1 65.5 11 C 65.47 10.96 65.5 17.5 65.5 17.5 L 63.4 17.5 Z M 70.6 11.3 C 70.6 8.9 71.2 7.2 72.5 6.1 C 73.6 5.2 74.9 4.7 76.4 4.7 C 78.1 4.7 79.5 5.3 80.6 6.4 C 81.7 7.5 82.3 9.1 82.3 11.1 C 82.3 12.7 82 13.9 81.5 14.9 C 81.1 15.8 80.4 16.5 79.4 17 C 78.5 17.5 77.5 17.8 76.4 17.8 C 74.7 17.8 73.3 17.2 72.2 16.1 C 71.1 15 70.6 13.4 70.6 11.3 Z M 72.8 11.3 C 72.8 12.8 73.1 14 73.8 14.8 C 74.5 15.6 75.4 16 76.4 16 C 77.5 16 78.3 15.6 79 14.8 C 79.7 14 80.1 12.8 80.1 11.2 C 80.1 9.6 79.7 8.5 79 7.7 C 78.3 6.9 77.5 6.5 76.4 6.5 C 75.4 6.5 74.5 6.9 73.8 7.7 C 73.1 8.5 72.8 9.7 72.8 11.3 Z M 92.9 17.5 C 92.9 17.5 92.88 15.64 92.9 15.6 C 91.9 17.1 90.6 17.8 88.9 17.8 C 88.2 17.8 87.5 17.6 86.9 17.3 C 86.2 17.1 85.8 16.7 85.5 16.3 C 85.2 15.8 84.9 15.3 84.8 14.7 C 84.7 14.3 84.7 13.6 84.7 12.7 C 84.68 12.74 84.7 5 84.7 5 L 86.8 5 C 86.8 5 86.79 11.93 86.8 11.9 C 86.8 13 86.8 13.8 86.9 14.2 C 87.1 14.7 87.3 15.1 87.8 15.5 C 88.2 15.8 88.7 15.9 89.4 15.9 C 90 15.9 90.6 15.8 91.1 15.5 C 91.7 15.1 92.1 14.7 92.3 14.1 C 92.5 13.6 92.7 12.8 92.7 11.7 C 92.66 11.7 92.7 5 92.7 5 L 94.8 5 L 94.8 17.5 L 92.9 17.5 Z M 98.1 17.5 L 98.1 5 L 100 5 C 100 5 99.97 6.8 100 6.8 C 100.9 5.4 102.2 4.7 103.9 4.7 C 104.7 4.7 105.4 4.9 106 5.2 C 106.6 5.4 107.1 5.8 107.4 6.2 C 107.7 6.6 107.9 7.2 108.1 7.8 C 108.1 8.2 108.2 8.8 108.2 9.8 C 108.19 9.82 108.2 17.5 108.2 17.5 L 106.1 17.5 C 106.1 17.5 106.08 9.9 106.1 9.9 C 106.1 9 106 8.4 105.8 8 C 105.7 7.5 105.4 7.2 105 7 C 104.5 6.7 104.1 6.6 103.5 6.6 C 102.6 6.6 101.8 6.9 101.2 7.4 C 100.5 8 100.2 9.1 100.2 10.7 C 100.18 10.68 100.2 17.5 100.2 17.5 L 98.1 17.5 Z M 119.5 17.5 C 119.5 17.5 119.5 15.9 119.5 15.9 C 118.7 17.1 117.5 17.8 116 17.8 C 115 17.8 114.1 17.5 113.3 16.9 C 112.4 16.4 111.8 15.6 111.3 14.6 C 110.9 13.7 110.7 12.5 110.7 11.3 C 110.7 10 110.9 8.9 111.3 7.9 C 111.7 6.9 112.3 6.1 113.1 5.6 C 114 5 114.9 4.7 115.9 4.7 C 116.7 4.7 117.3 4.9 117.9 5.2 C 118.5 5.5 119 5.9 119.4 6.5 C 119.36 6.46 119.4 0.3 119.4 0.3 L 121.5 0.3 L 121.5 17.5 L 119.5 17.5 Z M 112.8 11.3 C 112.8 12.9 113.2 14 113.8 14.8 C 114.5 15.6 115.3 16 116.2 16 C 117.1 16 117.9 15.6 118.6 14.9 C 119.2 14.1 119.5 13 119.5 11.4 C 119.5 9.7 119.2 8.5 118.5 7.7 C 117.9 6.9 117.1 6.5 116.1 6.5 C 115.2 6.5 114.4 6.9 113.8 7.6 C 113.1 8.4 112.8 9.6 112.8 11.3 Z M 135.6 17.5 L 135.6 2.3 L 130 2.3 L 130 0.3 L 143.6 0.3 L 143.6 2.3 L 137.9 2.3 L 137.9 17.5 L 135.6 17.5 Z M 144.8 2.7 L 144.8 0.3 L 146.9 0.3 L 146.9 2.7 L 144.8 2.7 Z M 144.8 17.5 L 144.8 5 L 146.9 5 L 146.9 17.5 L 144.8 17.5 Z M 150.1 17.5 L 150.1 5 L 152 5 C 152 5 151.99 6.77 152 6.8 C 152.4 6.2 152.9 5.7 153.6 5.3 C 154.2 4.9 154.9 4.7 155.8 4.7 C 156.7 4.7 157.4 4.9 158 5.3 C 158.6 5.7 159 6.2 159.3 6.9 C 160.3 5.5 161.5 4.7 163.1 4.7 C 164.4 4.7 165.3 5.1 166 5.8 C 166.6 6.5 167 7.5 167 8.9 C 166.97 8.93 167 17.5 167 17.5 L 164.9 17.5 C 164.9 17.5 164.87 9.63 164.9 9.6 C 164.9 8.8 164.8 8.2 164.7 7.8 C 164.5 7.4 164.3 7.1 163.9 6.9 C 163.6 6.7 163.1 6.6 162.7 6.6 C 161.8 6.6 161.1 6.9 160.5 7.4 C 159.9 8 159.6 9 159.6 10.2 C 159.61 10.24 159.6 17.5 159.6 17.5 L 157.5 17.5 C 157.5 17.5 157.5 9.39 157.5 9.4 C 157.5 8.4 157.3 7.7 157 7.3 C 156.6 6.8 156.1 6.6 155.3 6.6 C 154.7 6.6 154.2 6.7 153.7 7 C 153.1 7.4 152.8 7.8 152.6 8.4 C 152.3 9 152.2 9.9 152.2 11 C 152.21 11.02 152.2 17.5 152.2 17.5 L 150.1 17.5 Z M 178.6 13.5 C 178.6 13.5 180.8 13.7 180.8 13.7 C 180.5 15 179.8 16 178.9 16.7 C 178 17.4 176.8 17.8 175.3 17.8 C 173.5 17.8 172.1 17.2 171 16.1 C 169.9 15 169.4 13.4 169.4 11.4 C 169.4 9.3 169.9 7.6 171 6.5 C 172.1 5.3 173.5 4.7 175.2 4.7 C 176.9 4.7 178.2 5.3 179.3 6.4 C 180.3 7.6 180.9 9.2 180.9 11.2 C 180.9 11.4 180.9 11.5 180.9 11.8 C 180.9 11.8 171.6 11.8 171.6 11.8 C 171.7 13.2 172 14.2 172.7 14.9 C 173.4 15.7 174.3 16 175.3 16 C 176.1 16 176.8 15.8 177.3 15.4 C 177.9 15 178.3 14.4 178.6 13.5 Z M 171.7 10.1 C 171.7 10.1 178.6 10.1 178.6 10.1 C 178.5 9 178.3 8.2 177.8 7.7 C 177.2 6.9 176.3 6.5 175.2 6.5 C 174.3 6.5 173.4 6.8 172.8 7.5 C 172.1 8.1 171.8 9 171.7 10.1 Z M 182.6 13.8 C 182.6 13.8 184.7 13.4 184.7 13.4 C 184.8 14.3 185.1 14.9 185.7 15.4 C 186.2 15.8 186.9 16 187.9 16 C 188.9 16 189.6 15.8 190.1 15.4 C 190.5 15 190.8 14.6 190.8 14 C 190.8 13.6 190.6 13.2 190.1 12.9 C 189.9 12.7 189.1 12.5 188 12.2 C 186.4 11.8 185.4 11.5 184.8 11.2 C 184.2 10.9 183.7 10.5 183.4 10 C 183.1 9.5 183 8.9 183 8.3 C 183 7.8 183.1 7.3 183.3 6.8 C 183.6 6.3 183.9 5.9 184.4 5.6 C 184.7 5.4 185.1 5.2 185.7 5 C 186.3 4.8 186.9 4.7 187.5 4.7 C 188.5 4.7 189.4 4.9 190.1 5.2 C 190.8 5.4 191.4 5.8 191.7 6.3 C 192.1 6.8 192.3 7.4 192.5 8.2 C 192.5 8.2 190.4 8.5 190.4 8.5 C 190.3 7.9 190 7.4 189.6 7 C 189.1 6.7 188.5 6.5 187.7 6.5 C 186.7 6.5 186 6.6 185.6 7 C 185.2 7.3 185 7.7 185 8.1 C 185 8.4 185.1 8.6 185.3 8.8 C 185.4 9.1 185.7 9.2 186.1 9.4 C 186.3 9.5 186.9 9.6 187.9 9.9 C 189.4 10.3 190.5 10.7 191 10.9 C 191.6 11.2 192.1 11.5 192.4 12 C 192.8 12.5 192.9 13.1 192.9 13.8 C 192.9 14.5 192.7 15.2 192.3 15.8 C 191.9 16.4 191.3 16.9 190.5 17.2 C 189.8 17.6 188.9 17.8 187.9 17.8 C 186.3 17.8 185.1 17.4 184.2 16.7 C 183.4 16.1 182.8 15.1 182.6 13.8 Z " stroke="none" fill="#000"/>  </g></svg>