<?xml version="1.0" standalone="no"?><!DOCTYPE svg PUBLIC "-//W3C//DTD SVG 1.1//EN" "http://www.w3.org/Graphics/SVG/1.1/DTD/svg11.dtd"><svg xmlns="http://www.w3.org/2000/svg" version="1.1" width="17px" height="21.5px" viewBox="0 -4 17 21.5" style="top:-4px">  <desc>4.4</desc>  <defs/>  <g id="Polygon5311">    <path d="M 3.7 8.7 L 3.7 7 L 0.2 7 L 0.2 5.6 L 3.9 0.1 L 5.3 0.1 L 5.3 5.6 L 6.4 5.6 L 6.4 7 L 5.3 7 L 5.3 8.7 L 3.7 8.7 Z M 3.7 5.6 L 3.7 2.6 L 1.8 5.6 L 3.7 5.6 Z M 7.5 8.7 L 7.5 7.1 L 9.2 7.1 L 9.2 8.7 L 7.5 8.7 Z M 13.7 8.7 L 13.7 7 L 10.2 7 L 10.2 5.6 L 14 0.1 L 15.3 0.1 L 15.3 5.6 L 16.4 5.6 L 16.4 7 L 15.3 7 L 15.3 8.7 L 13.7 8.7 Z M 13.7 5.6 L 13.7 2.6 L 11.8 5.6 L 13.7 5.6 Z " stroke="none" fill="#000"/>  </g></svg>