<?xml version="1.0" standalone="no"?><!DOCTYPE svg PUBLIC "-//W3C//DTD SVG 1.1//EN" "http://www.w3.org/Graphics/SVG/1.1/DTD/svg11.dtd"><svg xmlns="http://www.w3.org/2000/svg" version="1.1" width="147px" height="98.4px" viewBox="0 -4 147 98.4" style="top:-4px">  <desc>Managed Services Delivering Vaule &amp; Flexibility</desc>  <defs/>  <g id="Polygon46313">    <path d="M 8.5 69.3 L 8.5 70.7 L 3 70.7 L 3 75.1 L 8.4 75.1 L 8.4 76.4 L 3 76.4 L 3 82.9 L 1.5 82.9 L 1.5 69.3 L 8.5 69.3 Z M 12 69.3 L 12 81.6 L 18.5 81.6 L 18.5 82.9 L 10.5 82.9 L 10.5 69.3 L 12 69.3 Z M 27.7 69.3 L 27.7 70.6 L 21.7 70.6 L 21.7 75.4 L 27.5 75.4 L 27.5 76.7 L 21.7 76.7 L 21.7 81.6 L 27.8 81.6 L 27.8 82.9 L 20.2 82.9 L 20.2 69.3 L 27.7 69.3 Z M 31.4 69.3 C 33.6 71.9 34.2 72.6 36.1 74.9 C 37.6 73.1 39 71.4 40.8 69.3 C 40.78 69.29 42.6 69.3 42.6 69.3 L 37 75.9 L 42.9 82.9 L 41.1 82.9 L 36.1 77 L 31 82.9 L 29.2 82.9 L 35.2 75.9 L 29.6 69.3 C 29.6 69.3 31.42 69.29 31.4 69.3 Z M 46 69.3 L 46 82.9 L 44.5 82.9 L 44.5 69.3 L 46 69.3 Z M 52.6 69.3 C 55.2 69.3 56.8 70.6 56.8 72.8 C 56.8 74.2 56 75.3 54.6 75.8 C 56.7 76.1 58 77.5 58 79.3 C 58 81.8 55.8 82.9 53.3 82.9 C 53.26 82.93 49.1 82.9 49.1 82.9 L 49.1 69.3 C 49.1 69.3 52.62 69.29 52.6 69.3 Z M 50.6 75.4 C 50.6 75.4 52.08 75.35 52.1 75.4 C 54.3 75.4 55.3 74.3 55.3 72.9 C 55.3 71.3 54.3 70.6 52.3 70.6 C 52.32 70.61 50.6 70.6 50.6 70.6 L 50.6 75.4 Z M 53 81.6 C 55.2 81.6 56.4 80.9 56.4 79.2 C 56.4 77.6 55.3 76.7 52.8 76.7 C 52.76 76.65 50.6 76.7 50.6 76.7 L 50.6 81.6 C 50.6 81.6 52.98 81.61 53 81.6 Z M 61.7 69.3 L 61.7 82.9 L 60.2 82.9 L 60.2 69.3 L 61.7 69.3 Z M 66.3 69.3 L 66.3 81.6 L 72.7 81.6 L 72.7 82.9 L 64.8 82.9 L 64.8 69.3 L 66.3 69.3 Z M 76 69.3 L 76 82.9 L 74.5 82.9 L 74.5 69.3 L 76 69.3 Z M 89 69.3 L 89 70.6 L 84.1 70.6 L 84.1 82.9 L 82.6 82.9 L 82.6 70.6 L 77.8 70.6 L 77.8 69.3 L 89 69.3 Z M 91.3 69.3 L 95.4 74.3 L 99.5 69.3 L 101.3 69.3 L 96.2 75.7 L 96.2 82.9 L 94.6 82.9 L 94.6 75.7 L 89.5 69.3 L 91.3 69.3 Z " stroke="none" fill="#000000"/>  </g>  <g id="Polygon46312">    <path d="M 0 45.3 L 1.5 45.3 L 6 55.9 L 6 55.9 L 10.4 45.3 L 11.9 45.3 L 6.2 59.1 L 5.8 59.1 L 0 45.3 Z M 17.8 45.2 L 23.9 58.9 L 22.3 58.9 L 20.4 54.7 L 14.2 54.7 L 12.4 58.9 L 10.8 58.9 L 16.7 45.2 L 17.8 45.2 Z M 14.8 53.3 L 19.8 53.3 L 17.2 47.5 L 14.8 53.3 Z M 26.2 45.3 C 26.2 45.3 26.24 53.15 26.2 53.2 C 26.2 56.2 27.7 57.8 30.5 57.8 C 33.3 57.8 34.7 56.1 34.7 53.2 C 34.68 53.15 34.7 45.3 34.7 45.3 L 36.2 45.3 C 36.2 45.3 36.18 53.15 36.2 53.2 C 36.2 56.7 34.3 59.1 30.5 59.1 C 26.7 59.1 24.7 57 24.7 53.2 C 24.74 53.15 24.7 45.3 24.7 45.3 L 26.2 45.3 Z M 40.6 45.3 L 40.6 57.6 L 47 57.6 L 47 58.9 L 39.1 58.9 L 39.1 45.3 L 40.6 45.3 Z M 56.2 45.3 L 56.2 46.6 L 50.2 46.6 L 50.2 51.4 L 56 51.4 L 56 52.7 L 50.2 52.7 L 50.2 57.6 L 56.4 57.6 L 56.4 58.9 L 48.7 58.9 L 48.7 45.3 L 56.2 45.3 Z M 71.4 54.8 C 72 54 72.5 53.1 72.9 52.2 C 72.9 52.2 74.4 52.2 74.4 52.2 C 74 53.3 73.3 54.6 72.3 55.8 C 72.5 56.1 72.7 56.3 73 56.6 C 72.98 56.57 75.1 58.9 75.1 58.9 L 73.2 58.9 C 73.2 58.9 71.3 56.83 71.3 56.8 C 70.1 58 68.6 59.1 66.8 59.1 C 64.9 59.1 63.3 57.8 63.3 55.9 C 63.3 54.2 64.7 52.9 66.7 51.8 C 65.5 50.6 65 49.6 64.9 48.6 C 64.9 48.4 64.9 48.2 65 48 C 65.1 46.7 66.1 45.4 68.2 45.4 C 70.4 45.4 71.5 46.9 71.5 48.4 C 71.5 49.6 70.8 50.7 68.8 52 C 68.8 52 71.4 54.8 71.4 54.8 Z M 67.6 52.8 C 67.6 52.8 66.64 53.37 66.6 53.4 C 65.4 54.2 64.8 54.9 64.8 55.8 C 64.8 56.8 65.6 57.6 66.7 57.7 C 66.8 57.7 67 57.7 67.2 57.7 C 68.5 57.5 69.5 56.8 70.4 55.8 C 70.38 55.81 67.6 52.8 67.6 52.8 Z M 70.1 48.4 C 70.1 47.4 69.3 46.7 68.2 46.7 C 67.2 46.7 66.4 47.4 66.4 48.3 C 66.4 49.3 67.3 50.3 68 51 C 69.5 50.1 70.1 49.3 70.1 48.4 Z " stroke="none" fill="#000000"/>  </g>  <g id="Polygon46311">    <path d="M 1.5 21.3 C 1.5 21.3 6.56 21.29 6.6 21.3 C 11 21.3 13.9 24.1 13.9 28 C 13.9 32.2 10.9 34.9 6.6 34.9 C 6.56 34.93 1.5 34.9 1.5 34.9 L 1.5 21.3 Z M 6.5 33.6 C 10.1 33.6 12.3 31.5 12.3 28.1 C 12.3 24.8 10.2 22.6 6.3 22.6 C 6.32 22.63 3 22.6 3 22.6 L 3 33.6 C 3 33.6 6.54 33.57 6.5 33.6 Z M 23.9 21.3 L 23.9 22.6 L 17.9 22.6 L 17.9 27.4 L 23.7 27.4 L 23.7 28.7 L 17.9 28.7 L 17.9 33.6 L 24 33.6 L 24 34.9 L 16.4 34.9 L 16.4 21.3 L 23.9 21.3 Z M 27.9 21.3 L 27.9 33.6 L 34.4 33.6 L 34.4 34.9 L 26.4 34.9 L 26.4 21.3 L 27.9 21.3 Z M 37.6 21.3 L 37.6 34.9 L 36.1 34.9 L 36.1 21.3 L 37.6 21.3 Z M 39.2 21.3 L 40.7 21.3 L 45.1 31.9 L 45.1 31.9 L 49.5 21.3 L 51 21.3 L 45.3 35.1 L 44.9 35.1 L 39.2 21.3 Z M 60.1 21.3 L 60.1 22.6 L 54.1 22.6 L 54.1 27.4 L 59.9 27.4 L 59.9 28.7 L 54.1 28.7 L 54.1 33.6 L 60.2 33.6 L 60.2 34.9 L 52.6 34.9 L 52.6 21.3 L 60.1 21.3 Z M 62.6 21.3 C 62.6 21.3 66.22 21.29 66.2 21.3 C 69 21.3 70.4 22.9 70.4 25 C 70.4 26.7 69.5 27.8 67.8 28.3 C 68.7 28.8 69.1 29.1 70.2 30.9 C 70.2 30.85 72.8 34.9 72.8 34.9 L 71.1 34.9 C 71.1 34.9 68.66 31.17 68.7 31.2 C 67.4 29.2 66.6 28.7 65.4 28.7 C 65.4 28.73 64.1 28.7 64.1 28.7 L 64.1 34.9 L 62.6 34.9 L 62.6 21.3 Z M 65.5 27.4 C 67.4 27.4 68.8 27 68.8 25 C 68.8 23.3 67.8 22.6 66 22.6 C 66.02 22.61 64.1 22.6 64.1 22.6 L 64.1 27.4 C 64.1 27.4 65.54 27.41 65.5 27.4 Z M 75.8 21.3 L 75.8 34.9 L 74.3 34.9 L 74.3 21.3 L 75.8 21.3 Z M 80.1 21.3 L 89.8 32.6 L 89.8 21.3 L 91.2 21.3 L 91.2 34.9 L 89.9 34.9 L 80.3 23.7 L 80.3 34.9 L 78.9 34.9 L 78.9 21.3 L 80.1 21.3 Z M 105.6 23.8 C 104.1 22.9 102.4 22.5 100.9 22.5 C 97.7 22.5 95.3 24.9 95.3 28.1 C 95.3 31.4 97.6 33.8 101 33.8 C 102.1 33.8 102.9 33.6 104.3 33.1 C 104.34 33.07 104.3 29.8 104.3 29.8 L 101.6 29.8 L 101.6 28.4 L 105.8 28.4 C 105.8 28.4 105.84 33.99 105.8 34 C 104.3 34.8 102.8 35.1 101 35.1 C 96.1 35.1 93.7 31.7 93.7 28.2 C 93.7 24.3 96.6 21.1 100.9 21.1 C 102.5 21.1 103.8 21.4 105.6 22.2 C 105.6 22.2 105.6 23.8 105.6 23.8 Z " stroke="none" fill="#000000"/>  </g>  <g id="Polygon46310">    <path d="M 1.2 0.7 L 2.2 0.7 L 5.8 5.2 L 9.4 0.7 L 10.5 0.7 L 10.5 10.9 L 9.4 10.9 L 9.4 2.5 L 9.3 2.5 L 5.9 6.8 L 5.7 6.8 L 2.3 2.5 L 2.3 2.5 L 2.3 10.9 L 1.2 10.9 L 1.2 0.7 Z M 16.9 0.6 L 21.5 10.9 L 20.3 10.9 L 18.9 7.7 L 14.2 7.7 L 12.8 10.9 L 11.7 10.9 L 16.1 0.6 L 16.9 0.6 Z M 14.7 6.7 L 18.4 6.7 L 16.5 2.4 L 14.7 6.7 Z M 23.6 0.7 L 30.8 9.2 L 30.8 0.7 L 31.9 0.7 L 31.9 10.9 L 30.9 10.9 L 23.7 2.5 L 23.7 10.9 L 22.6 10.9 L 22.6 0.7 L 23.6 0.7 Z M 38.3 0.6 L 42.8 10.9 L 41.7 10.9 L 40.2 7.7 L 35.6 7.7 L 34.2 10.9 L 33.1 10.9 L 37.5 0.6 L 38.3 0.6 Z M 36 6.7 L 39.8 6.7 L 37.9 2.4 L 36 6.7 Z M 52 2.6 C 50.9 1.9 49.6 1.6 48.5 1.6 C 46.1 1.6 44.3 3.4 44.3 5.8 C 44.3 8.3 46 10.1 48.6 10.1 C 49.4 10.1 50 9.9 51.1 9.5 C 51.09 9.54 51.1 7 51.1 7 L 49 7 L 49 6.1 L 52.2 6.1 C 52.2 6.1 52.21 10.23 52.2 10.2 C 51 10.8 49.9 11.1 48.6 11.1 C 44.9 11.1 43.1 8.5 43.1 5.9 C 43.1 3 45.3 0.6 48.5 0.6 C 49.7 0.6 50.7 0.8 52 1.4 C 52 1.4 52 2.6 52 2.6 Z M 60 0.7 L 60 1.7 L 55.5 1.7 L 55.5 5.3 L 59.8 5.3 L 59.8 6.3 L 55.5 6.3 L 55.5 9.9 L 60.1 9.9 L 60.1 10.9 L 54.4 10.9 L 54.4 0.7 L 60 0.7 Z M 61.9 0.7 C 61.9 0.7 65.65 0.7 65.7 0.7 C 69 0.7 71.2 2.8 71.2 5.7 C 71.2 8.9 68.9 10.9 65.7 10.9 C 65.65 10.93 61.9 10.9 61.9 10.9 L 61.9 0.7 Z M 65.6 9.9 C 68.3 9.9 70 8.3 70 5.8 C 70 3.3 68.4 1.7 65.5 1.7 C 65.47 1.71 63 1.7 63 1.7 L 63 9.9 C 63 9.9 65.64 9.91 65.6 9.9 Z M 81.9 1.2 C 81.9 1.2 81.9 2.5 81.9 2.5 C 81.2 1.9 80.5 1.6 79.6 1.6 C 78.6 1.6 77.8 2.2 77.8 3.1 C 77.8 3.7 78 4.3 79.7 5.2 C 81.8 6.3 82.3 7 82.3 8.4 C 82.3 9.9 81.2 11.1 79.4 11.1 C 78.4 11.1 77.5 10.8 76.8 10.2 C 76.8 10.2 76.8 8.8 76.8 8.8 C 77.5 9.6 78.4 10.1 79.4 10.1 C 80.4 10.1 81.2 9.4 81.2 8.4 C 81.2 7.6 80.9 7 78.9 6 C 77.3 5.2 76.7 4.4 76.7 3.1 C 76.7 1.6 78 0.6 79.7 0.6 C 80.5 0.6 81.3 0.8 81.9 1.2 Z M 89.7 0.7 L 89.7 1.7 L 85.2 1.7 L 85.2 5.3 L 89.5 5.3 L 89.5 6.3 L 85.2 6.3 L 85.2 9.9 L 89.8 9.9 L 89.8 10.9 L 84.1 10.9 L 84.1 0.7 L 89.7 0.7 Z M 91.6 0.7 C 91.6 0.7 94.3 0.7 94.3 0.7 C 96.4 0.7 97.4 1.9 97.4 3.4 C 97.4 4.7 96.7 5.6 95.5 6 C 96.1 6.3 96.4 6.6 97.3 7.9 C 97.29 7.87 99.3 10.9 99.3 10.9 L 97.9 10.9 C 97.9 10.9 96.13 8.11 96.1 8.1 C 95.2 6.6 94.6 6.3 93.7 6.3 C 93.69 6.28 92.7 6.3 92.7 6.3 L 92.7 10.9 L 91.6 10.9 L 91.6 0.7 Z M 93.8 5.3 C 95.2 5.3 96.3 4.9 96.3 3.5 C 96.3 2.2 95.5 1.7 94.2 1.7 C 94.15 1.69 92.7 1.7 92.7 1.7 L 92.7 5.3 C 92.7 5.3 93.79 5.29 93.8 5.3 Z M 98.7 0.7 L 99.9 0.7 L 103.2 8.7 L 103.2 8.7 L 106.5 0.7 L 107.7 0.7 L 103.3 11 L 103.1 11 L 98.7 0.7 Z M 109.9 0.7 L 109.9 10.9 L 108.8 10.9 L 108.8 0.7 L 109.9 0.7 Z M 120.7 1.4 C 120.7 1.4 120.7 2.6 120.7 2.6 C 119.6 2 118.4 1.6 117.2 1.6 C 114.6 1.6 113 3.6 113 5.8 C 113 8.1 114.6 10 117.2 10 C 118.5 10 119.7 9.7 120.8 9 C 120.8 9 120.8 10.2 120.8 10.2 C 119.6 10.8 118.4 11.1 117.2 11.1 C 113.6 11.1 111.8 8.4 111.8 5.9 C 111.8 2.8 114.1 0.6 117.2 0.6 C 118.4 0.6 119.5 0.9 120.7 1.4 Z M 128.1 0.7 L 128.1 1.7 L 123.7 1.7 L 123.7 5.3 L 128 5.3 L 128 6.3 L 123.7 6.3 L 123.7 9.9 L 128.2 9.9 L 128.2 10.9 L 122.5 10.9 L 122.5 0.7 L 128.1 0.7 Z M 134.8 1.2 C 134.8 1.2 134.8 2.5 134.8 2.5 C 134.1 1.9 133.3 1.6 132.5 1.6 C 131.4 1.6 130.7 2.2 130.7 3.1 C 130.7 3.7 130.9 4.3 132.6 5.2 C 134.7 6.3 135.2 7 135.2 8.4 C 135.2 9.9 134 11.1 132.3 11.1 C 131.3 11.1 130.4 10.8 129.6 10.2 C 129.6 10.2 129.6 8.8 129.6 8.8 C 130.4 9.6 131.3 10.1 132.3 10.1 C 133.3 10.1 134.1 9.4 134.1 8.4 C 134.1 7.6 133.8 7 131.8 6 C 130.2 5.2 129.6 4.4 129.6 3.1 C 129.6 1.6 130.8 0.6 132.5 0.6 C 133.3 0.6 134.1 0.8 134.8 1.2 Z " stroke="none" fill="#f28620"/>  </g></svg>