<?xml version="1.0" standalone="no"?><!DOCTYPE svg PUBLIC "-//W3C//DTD SVG 1.1//EN" "http://www.w3.org/Graphics/SVG/1.1/DTD/svg11.dtd"><svg xmlns="http://www.w3.org/2000/svg" version="1.1" width="268px" height="156.8px" viewBox="0 -10 268 156.8" style="top:-10px">  <desc>EPA Human Resources</desc>  <defs/>  <g id="Polygon17583">    <path d="M 3.1 97.9 C 3.1 97.9 10.24 97.88 10.2 97.9 C 15.7 97.9 18.6 101 18.6 105.2 C 18.6 108.6 16.7 110.9 13.4 111.9 C 15.2 112.8 16 113.6 18.2 117 C 18.2 117 23.5 125.2 23.5 125.2 L 19.9 125.2 C 19.9 125.2 15.12 117.64 15.1 117.6 C 12.6 113.6 10.9 112.8 8.6 112.8 C 8.6 112.76 6.1 112.8 6.1 112.8 L 6.1 125.2 L 3.1 125.2 L 3.1 97.9 Z M 8.9 110.1 C 12.6 110.1 15.5 109.2 15.5 105.2 C 15.5 101.9 13.3 100.5 9.8 100.5 C 9.84 100.52 6.1 100.5 6.1 100.5 L 6.1 110.1 C 6.1 110.1 8.88 110.12 8.9 110.1 Z M 41.4 97.9 L 41.4 100.6 L 29.5 100.6 L 29.5 110.1 L 41 110.1 L 41 112.8 L 29.5 112.8 L 29.5 122.4 L 41.7 122.4 L 41.7 125.2 L 26.5 125.2 L 26.5 97.9 L 41.4 97.9 Z M 59.2 99.3 C 59.2 99.3 59.2 102.7 59.2 102.7 C 57.3 101.1 55.3 100.2 53 100.2 C 50.2 100.2 48.3 101.8 48.3 104.2 C 48.3 106 48.7 107.6 53.2 109.8 C 58.9 112.8 60.2 114.7 60.2 118.4 C 60.2 122.5 57.1 125.5 52.4 125.5 C 49.8 125.5 47.4 124.7 45.4 123.1 C 45.4 123.1 45.4 119.4 45.4 119.4 C 47.4 121.6 49.8 122.8 52.4 122.8 C 55.2 122.8 57.2 121.1 57.2 118.5 C 57.2 116.2 56.4 114.8 51.2 112 C 46.9 109.8 45.2 107.8 45.2 104.3 C 45.2 100.4 48.6 97.5 53.1 97.5 C 55.2 97.5 57.4 98.1 59.2 99.3 Z M 92.5 111.4 C 92.5 119 86.9 125.5 77.9 125.5 C 69.4 125.5 63.7 119.1 63.7 111.7 C 63.7 104.1 69.2 97.5 78 97.5 C 86.7 97.5 92.5 103.8 92.5 111.4 Z M 66.8 111.6 C 66.8 118 71.8 122.7 77.9 122.7 C 86 122.7 89.4 116.4 89.4 111.5 C 89.4 106 85.3 100.4 78.2 100.4 C 70.7 100.4 66.8 106 66.8 111.6 Z M 100 97.9 C 100 97.9 100.04 113.6 100 113.6 C 100 119.6 102.9 122.8 108.5 122.8 C 114.2 122.8 116.9 119.5 116.9 113.6 C 116.92 113.6 116.9 97.9 116.9 97.9 L 119.9 97.9 C 119.9 97.9 119.92 113.6 119.9 113.6 C 119.9 120.8 116.1 125.5 108.6 125.5 C 101 125.5 97 121.2 97 113.6 C 97.04 113.6 97 97.9 97 97.9 L 100 97.9 Z M 125.7 97.9 C 125.7 97.9 132.88 97.88 132.9 97.9 C 138.4 97.9 141.2 101 141.2 105.2 C 141.2 108.6 139.4 110.9 136 111.9 C 137.8 112.8 138.6 113.6 140.8 117 C 140.84 117 146.1 125.2 146.1 125.2 L 142.6 125.2 C 142.6 125.2 137.76 117.64 137.8 117.6 C 135.2 113.6 133.6 112.8 131.2 112.8 C 131.24 112.76 128.7 112.8 128.7 112.8 L 128.7 125.2 L 125.7 125.2 L 125.7 97.9 Z M 131.5 110.1 C 135.3 110.1 138.1 109.2 138.1 105.2 C 138.1 101.9 136 100.5 132.5 100.5 C 132.48 100.52 128.7 100.5 128.7 100.5 L 128.7 110.1 C 128.7 110.1 131.52 110.12 131.5 110.1 Z M 170.8 99.7 C 170.8 99.7 170.8 102.9 170.8 102.9 C 168 101.3 164.8 100.3 161.6 100.3 C 154.6 100.3 150.2 105.6 150.2 111.6 C 150.2 117.7 154.6 122.7 161.6 122.7 C 165 122.7 168.1 121.8 171 119.9 C 171 119.9 171 123.2 171 123.2 C 168 124.8 164.8 125.5 161.5 125.5 C 152 125.5 147.1 118.4 147.1 111.6 C 147.1 103.5 153.4 97.5 161.6 97.5 C 164.6 97.5 167.8 98.3 170.8 99.7 Z M 190.7 97.9 L 190.7 100.6 L 178.8 100.6 L 178.8 110.1 L 190.3 110.1 L 190.3 112.8 L 178.8 112.8 L 178.8 122.4 L 191 122.4 L 191 125.2 L 175.8 125.2 L 175.8 97.9 L 190.7 97.9 Z M 208.5 99.3 C 208.5 99.3 208.5 102.7 208.5 102.7 C 206.6 101.1 204.6 100.2 202.3 100.2 C 199.4 100.2 197.6 101.8 197.6 104.2 C 197.6 106 198 107.6 202.5 109.8 C 208.2 112.8 209.5 114.7 209.5 118.4 C 209.5 122.5 206.4 125.5 201.7 125.5 C 199.1 125.5 196.7 124.7 194.6 123.1 C 194.6 123.1 194.6 119.4 194.6 119.4 C 196.7 121.6 199.1 122.8 201.7 122.8 C 204.5 122.8 206.5 121.1 206.5 118.5 C 206.5 116.2 205.7 114.8 200.4 112 C 196.2 109.8 194.5 107.8 194.5 104.3 C 194.5 100.4 197.8 97.5 202.4 97.5 C 204.5 97.5 206.6 98.1 208.5 99.3 Z " stroke="none" fill="#010102"/>  </g>  <g id="Polygon17582">    <path d="M 6.1 49.9 L 6.1 62 L 22.6 62 L 22.6 49.9 L 25.6 49.9 L 25.6 77.2 L 22.6 77.2 L 22.6 64.8 L 6.1 64.8 L 6.1 77.2 L 3.1 77.2 L 3.1 49.9 L 6.1 49.9 Z M 34.4 49.9 C 34.4 49.9 34.4 65.6 34.4 65.6 C 34.4 71.6 37.2 74.8 42.8 74.8 C 48.5 74.8 51.3 71.5 51.3 65.6 C 51.28 65.6 51.3 49.9 51.3 49.9 L 54.3 49.9 C 54.3 49.9 54.28 65.6 54.3 65.6 C 54.3 72.8 50.5 77.5 42.9 77.5 C 35.4 77.5 31.4 73.2 31.4 65.6 C 31.4 65.6 31.4 49.9 31.4 49.9 L 34.4 49.9 Z M 60.1 49.9 L 62.9 49.9 L 72.6 61.8 L 82.2 49.9 L 85 49.9 L 85 77.2 L 82 77.2 L 82 54.6 L 81.9 54.6 L 72.8 66 L 72.3 66 L 63.2 54.6 L 63.1 54.6 L 63.1 77.2 L 60.1 77.2 L 60.1 49.9 Z M 102.1 49.7 L 114.2 77.2 L 111.2 77.2 L 107.3 68.6 L 94.9 68.6 L 91.2 77.2 L 88.2 77.2 L 100 49.7 L 102.1 49.7 Z M 96.1 65.9 L 106.1 65.9 L 101 54.3 L 96.1 65.9 Z M 119.8 49.9 L 139.2 72.4 L 139.2 49.9 L 142 49.9 L 142 77.2 L 139.4 77.2 L 120.2 54.7 L 120.2 77.2 L 117.4 77.2 L 117.4 49.9 L 119.8 49.9 Z " stroke="none" fill="#010102"/>  </g>  <g id="Polygon17581">    <path d="M 13.5 8.7 L 13.5 10.7 L 4.6 10.7 L 4.6 17.8 L 13.2 17.8 L 13.2 19.9 L 4.6 19.9 L 4.6 27.1 L 13.7 27.1 L 13.7 29.2 L 2.3 29.2 L 2.3 8.7 L 13.5 8.7 Z M 23.2 8.7 C 27.3 8.7 29.8 10.8 29.8 14.3 C 29.8 18.1 27.2 19.9 22.8 19.9 C 22.8 19.95 19.6 19.9 19.6 19.9 L 19.6 29.2 L 17.4 29.2 L 17.4 8.7 C 17.4 8.7 23.19 8.7 23.2 8.7 Z M 19.6 18 C 19.6 18 22.74 17.97 22.7 18 C 26.2 18 27.4 16.6 27.4 14.3 C 27.4 12 26.1 10.7 22.7 10.7 C 22.74 10.68 19.6 10.7 19.6 10.7 L 19.6 18 Z M 39.4 8.6 L 48.5 29.2 L 46.2 29.2 L 43.3 22.7 L 34 22.7 L 31.2 29.2 L 28.9 29.2 L 37.8 8.6 L 39.4 8.6 Z M 34.9 20.7 L 42.4 20.7 L 38.5 12 L 34.9 20.7 Z " stroke="none" fill="#f28620"/>  </g></svg>