<?xml version="1.0" standalone="no"?><!DOCTYPE svg PUBLIC "-//W3C//DTD SVG 1.1//EN" "http://www.w3.org/Graphics/SVG/1.1/DTD/svg11.dtd"><svg xmlns="http://www.w3.org/2000/svg" version="1.1" width="400.1px" height="39.1px" viewBox="0 -8 400.1 39.1" style="top:-8px">  <desc>Management Information</desc>  <defs/>  <g id="Polygon22337">    <path d="M 1.8 17.5 L 1.8 0.3 L 5.2 0.3 C 5.2 0.3 9.27 12.46 9.3 12.5 C 9.6 13.6 9.9 14.4 10.1 15 C 10.3 14.4 10.6 13.5 11 12.2 C 11 12.25 15.1 0.3 15.1 0.3 L 18.2 0.3 L 18.2 17.5 L 16 17.5 L 16 3.1 L 11 17.5 L 8.9 17.5 L 4 2.8 L 4 17.5 L 1.8 17.5 Z M 30.1 17.5 C 29.9 17 29.8 16.5 29.7 15.9 C 28.9 16.6 28.2 17.1 27.4 17.3 C 26.7 17.6 25.9 17.8 25.1 17.8 C 23.7 17.8 22.7 17.4 22 16.8 C 21.2 16.1 20.9 15.2 20.9 14.2 C 20.9 13.6 21 13 21.3 12.5 C 21.6 12 21.9 11.6 22.4 11.3 C 22.8 11 23.3 10.8 23.9 10.6 C 24.3 10.5 24.9 10.4 25.8 10.3 C 27.5 10.1 28.7 9.9 29.5 9.6 C 29.5 9.3 29.5 9.1 29.5 9 C 29.5 8.2 29.3 7.6 28.9 7.2 C 28.4 6.7 27.6 6.5 26.5 6.5 C 25.5 6.5 24.8 6.7 24.3 7 C 23.9 7.4 23.5 8 23.3 8.9 C 23.3 8.9 21.2 8.6 21.2 8.6 C 21.4 7.7 21.7 7 22.1 6.4 C 22.6 5.9 23.2 5.5 24 5.2 C 24.8 4.9 25.8 4.7 26.8 4.7 C 27.9 4.7 28.8 4.9 29.4 5.1 C 30.1 5.4 30.6 5.7 30.9 6.1 C 31.2 6.4 31.4 6.9 31.5 7.5 C 31.6 7.9 31.7 8.5 31.7 9.4 C 31.7 9.4 31.7 12.3 31.7 12.3 C 31.7 14.2 31.7 15.5 31.8 16 C 31.9 16.5 32.1 17 32.3 17.5 C 32.32 17.47 30.1 17.5 30.1 17.5 C 30.1 17.5 30.12 17.47 30.1 17.5 Z M 29.5 11.2 C 28.8 11.5 27.6 11.8 26.1 12 C 25.2 12.1 24.6 12.3 24.2 12.4 C 23.9 12.6 23.6 12.8 23.4 13.1 C 23.2 13.4 23.1 13.8 23.1 14.1 C 23.1 14.7 23.3 15.2 23.7 15.5 C 24.2 15.9 24.8 16.1 25.6 16.1 C 26.4 16.1 27.2 15.9 27.8 15.6 C 28.4 15.2 28.9 14.7 29.2 14.1 C 29.4 13.6 29.5 12.9 29.5 12 C 29.5 12 29.5 11.2 29.5 11.2 Z M 34.9 17.5 L 34.9 5 L 36.8 5 C 36.8 5 36.82 6.8 36.8 6.8 C 37.7 5.4 39.1 4.7 40.8 4.7 C 41.5 4.7 42.2 4.9 42.8 5.2 C 43.5 5.4 43.9 5.8 44.3 6.2 C 44.6 6.6 44.8 7.2 44.9 7.8 C 45 8.2 45 8.8 45 9.8 C 45.04 9.82 45 17.5 45 17.5 L 42.9 17.5 C 42.9 17.5 42.93 9.9 42.9 9.9 C 42.9 9 42.8 8.4 42.7 8 C 42.5 7.5 42.2 7.2 41.8 7 C 41.4 6.7 40.9 6.6 40.3 6.6 C 39.4 6.6 38.7 6.9 38 7.4 C 37.4 8 37 9.1 37 10.7 C 37.03 10.68 37 17.5 37 17.5 L 34.9 17.5 Z M 56.8 17.5 C 56.6 17 56.5 16.5 56.4 15.9 C 55.6 16.6 54.9 17.1 54.1 17.3 C 53.4 17.6 52.6 17.8 51.8 17.8 C 50.4 17.8 49.4 17.4 48.7 16.8 C 47.9 16.1 47.6 15.2 47.6 14.2 C 47.6 13.6 47.7 13 48 12.5 C 48.2 12 48.6 11.6 49.1 11.3 C 49.5 11 50 10.8 50.6 10.6 C 51 10.5 51.6 10.4 52.5 10.3 C 54.2 10.1 55.4 9.9 56.2 9.6 C 56.2 9.3 56.2 9.1 56.2 9 C 56.2 8.2 56 7.6 55.6 7.2 C 55.1 6.7 54.3 6.5 53.2 6.5 C 52.2 6.5 51.5 6.7 51 7 C 50.6 7.4 50.2 8 50 8.9 C 50 8.9 47.9 8.6 47.9 8.6 C 48.1 7.7 48.4 7 48.8 6.4 C 49.3 5.9 49.9 5.5 50.7 5.2 C 51.5 4.9 52.5 4.7 53.5 4.7 C 54.6 4.7 55.5 4.9 56.1 5.1 C 56.8 5.4 57.3 5.7 57.6 6.1 C 57.9 6.4 58.1 6.9 58.2 7.5 C 58.3 7.9 58.3 8.5 58.3 9.4 C 58.3 9.4 58.3 12.3 58.3 12.3 C 58.3 14.2 58.4 15.5 58.5 16 C 58.6 16.5 58.7 17 59 17.5 C 59.02 17.47 56.8 17.5 56.8 17.5 C 56.8 17.5 56.81 17.47 56.8 17.5 Z M 56.2 11.2 C 55.4 11.5 54.3 11.8 52.8 12 C 51.9 12.1 51.3 12.3 50.9 12.4 C 50.6 12.6 50.3 12.8 50.1 13.1 C 49.9 13.4 49.8 13.8 49.8 14.1 C 49.8 14.7 50 15.2 50.4 15.5 C 50.9 15.9 51.5 16.1 52.3 16.1 C 53.1 16.1 53.8 15.9 54.5 15.6 C 55.1 15.2 55.6 14.7 55.9 14.1 C 56.1 13.6 56.2 12.9 56.2 12 C 56.2 12 56.2 11.2 56.2 11.2 Z M 61.2 18.5 C 61.2 18.5 63.3 18.8 63.3 18.8 C 63.4 19.4 63.6 19.9 64 20.2 C 64.5 20.6 65.2 20.8 66.1 20.8 C 67.1 20.8 67.9 20.6 68.4 20.2 C 68.9 19.8 69.3 19.3 69.5 18.6 C 69.6 18.1 69.6 17.2 69.6 15.8 C 68.7 16.9 67.6 17.5 66.2 17.5 C 64.5 17.5 63.2 16.9 62.2 15.6 C 61.3 14.4 60.8 12.9 60.8 11.2 C 60.8 10 61 8.9 61.5 7.9 C 61.9 6.9 62.5 6.1 63.3 5.6 C 64.1 5 65.1 4.7 66.2 4.7 C 67.7 4.7 68.9 5.3 69.8 6.5 C 69.83 6.53 69.8 5 69.8 5 L 71.8 5 C 71.8 5 71.78 15.79 71.8 15.8 C 71.8 17.7 71.6 19.1 71.2 19.9 C 70.8 20.7 70.2 21.4 69.3 21.8 C 68.5 22.3 67.4 22.5 66.2 22.5 C 64.7 22.5 63.5 22.2 62.6 21.5 C 61.6 20.9 61.2 19.8 61.2 18.5 Z M 63 11 C 63 12.7 63.3 13.9 63.9 14.6 C 64.6 15.4 65.4 15.7 66.4 15.7 C 67.4 15.7 68.2 15.4 68.8 14.6 C 69.5 13.9 69.8 12.7 69.8 11.1 C 69.8 9.6 69.5 8.4 68.8 7.7 C 68.1 6.9 67.3 6.5 66.4 6.5 C 65.4 6.5 64.6 6.9 64 7.6 C 63.3 8.4 63 9.5 63 11 Z M 83.5 13.5 C 83.5 13.5 85.7 13.7 85.7 13.7 C 85.3 15 84.7 16 83.8 16.7 C 82.8 17.4 81.6 17.8 80.2 17.8 C 78.4 17.8 76.9 17.2 75.9 16.1 C 74.8 15 74.3 13.4 74.3 11.4 C 74.3 9.3 74.8 7.6 75.9 6.5 C 77 5.3 78.4 4.7 80.1 4.7 C 81.7 4.7 83.1 5.3 84.2 6.4 C 85.2 7.6 85.7 9.2 85.7 11.2 C 85.7 11.4 85.7 11.5 85.7 11.8 C 85.7 11.8 76.4 11.8 76.4 11.8 C 76.5 13.2 76.9 14.2 77.6 14.9 C 78.3 15.7 79.2 16 80.2 16 C 81 16 81.6 15.8 82.2 15.4 C 82.7 15 83.2 14.4 83.5 13.5 Z M 76.6 10.1 C 76.6 10.1 83.5 10.1 83.5 10.1 C 83.4 9 83.1 8.2 82.7 7.7 C 82 6.9 81.2 6.5 80.1 6.5 C 79.1 6.5 78.3 6.8 77.7 7.5 C 77 8.1 76.6 9 76.6 10.1 Z M 88.3 17.5 L 88.3 5 L 90.2 5 C 90.2 5 90.2 6.77 90.2 6.8 C 90.6 6.2 91.1 5.7 91.8 5.3 C 92.4 4.9 93.1 4.7 94 4.7 C 94.9 4.7 95.7 4.9 96.2 5.3 C 96.8 5.7 97.2 6.2 97.5 6.9 C 98.5 5.5 99.8 4.7 101.3 4.7 C 102.6 4.7 103.5 5.1 104.2 5.8 C 104.8 6.5 105.2 7.5 105.2 8.9 C 105.18 8.93 105.2 17.5 105.2 17.5 L 103.1 17.5 C 103.1 17.5 103.08 9.63 103.1 9.6 C 103.1 8.8 103 8.2 102.9 7.8 C 102.7 7.4 102.5 7.1 102.1 6.9 C 101.8 6.7 101.3 6.6 100.9 6.6 C 100 6.6 99.3 6.9 98.7 7.4 C 98.1 8 97.8 9 97.8 10.2 C 97.82 10.24 97.8 17.5 97.8 17.5 L 95.7 17.5 C 95.7 17.5 95.71 9.39 95.7 9.4 C 95.7 8.4 95.5 7.7 95.2 7.3 C 94.8 6.8 94.3 6.6 93.5 6.6 C 92.9 6.6 92.4 6.7 91.9 7 C 91.4 7.4 91 7.8 90.8 8.4 C 90.5 9 90.4 9.9 90.4 11 C 90.42 11.02 90.4 17.5 90.4 17.5 L 88.3 17.5 Z M 116.8 13.5 C 116.8 13.5 119 13.7 119 13.7 C 118.7 15 118 16 117.1 16.7 C 116.2 17.4 115 17.8 113.5 17.8 C 111.7 17.8 110.3 17.2 109.2 16.1 C 108.1 15 107.6 13.4 107.6 11.4 C 107.6 9.3 108.1 7.6 109.2 6.5 C 110.3 5.3 111.7 4.7 113.4 4.7 C 115.1 4.7 116.4 5.3 117.5 6.4 C 118.5 7.6 119.1 9.2 119.1 11.2 C 119.1 11.4 119.1 11.5 119.1 11.8 C 119.1 11.8 109.8 11.8 109.8 11.8 C 109.9 13.2 110.2 14.2 110.9 14.9 C 111.6 15.7 112.5 16 113.5 16 C 114.3 16 115 15.8 115.5 15.4 C 116.1 15 116.5 14.4 116.8 13.5 Z M 109.9 10.1 C 109.9 10.1 116.8 10.1 116.8 10.1 C 116.8 9 116.5 8.2 116.1 7.7 C 115.4 6.9 114.5 6.5 113.4 6.5 C 112.5 6.5 111.7 6.8 111 7.5 C 110.3 8.1 110 9 109.9 10.1 Z M 121.7 17.5 L 121.7 5 L 123.6 5 C 123.6 5 123.55 6.8 123.6 6.8 C 124.5 5.4 125.8 4.7 127.5 4.7 C 128.3 4.7 129 4.9 129.6 5.2 C 130.2 5.4 130.7 5.8 131 6.2 C 131.3 6.6 131.5 7.2 131.6 7.8 C 131.7 8.2 131.8 8.8 131.8 9.8 C 131.77 9.82 131.8 17.5 131.8 17.5 L 129.7 17.5 C 129.7 17.5 129.66 9.9 129.7 9.9 C 129.7 9 129.6 8.4 129.4 8 C 129.2 7.5 129 7.2 128.5 7 C 128.1 6.7 127.6 6.6 127.1 6.6 C 126.2 6.6 125.4 6.9 124.7 7.4 C 124.1 8 123.8 9.1 123.8 10.7 C 123.76 10.68 123.8 17.5 123.8 17.5 L 121.7 17.5 Z M 138.7 15.7 C 138.9 15.7 139.2 15.6 139.6 15.6 C 139.6 15.6 139.9 17.4 139.9 17.4 C 139.3 17.6 138.8 17.6 138.3 17.6 C 137.6 17.6 137 17.5 136.5 17.3 C 136.1 17 135.8 16.7 135.6 16.3 C 135.5 15.9 135.4 15.1 135.4 13.8 C 135.39 13.83 135.4 6.7 135.4 6.7 L 133.8 6.7 L 133.8 5 L 135.4 5 L 135.4 1.9 L 137.5 0.7 L 137.5 5 L 139.6 5 L 139.6 6.7 L 137.5 6.7 C 137.5 6.7 137.48 13.95 137.5 13.9 C 137.5 14.5 137.5 14.9 137.6 15.1 C 137.7 15.3 137.8 15.4 138 15.5 C 138.1 15.6 138.4 15.7 138.7 15.7 C 138.7 15.7 138.7 15.7 138.7 15.7 Z M 149 17.5 L 149 0.3 L 151.3 0.3 L 151.3 17.5 L 149 17.5 Z M 155 17.5 L 155 5 L 156.9 5 C 156.9 5 156.9 6.8 156.9 6.8 C 157.8 5.4 159.1 4.7 160.9 4.7 C 161.6 4.7 162.3 4.9 162.9 5.2 C 163.6 5.4 164 5.8 164.3 6.2 C 164.7 6.6 164.9 7.2 165 7.8 C 165.1 8.2 165.1 8.8 165.1 9.8 C 165.12 9.82 165.1 17.5 165.1 17.5 L 163 17.5 C 163 17.5 163.01 9.9 163 9.9 C 163 9 162.9 8.4 162.8 8 C 162.6 7.5 162.3 7.2 161.9 7 C 161.5 6.7 161 6.6 160.4 6.6 C 159.5 6.6 158.7 6.9 158.1 7.4 C 157.4 8 157.1 9.1 157.1 10.7 C 157.11 10.68 157.1 17.5 157.1 17.5 L 155 17.5 Z M 168.9 17.5 L 168.9 6.7 L 167 6.7 L 167 5 L 168.9 5 C 168.9 5 168.86 3.7 168.9 3.7 C 168.9 2.9 168.9 2.2 169.1 1.8 C 169.3 1.3 169.6 0.8 170.2 0.5 C 170.7 0.2 171.4 0 172.3 0 C 172.9 0 173.6 0.1 174.3 0.2 C 174.3 0.2 174 2.1 174 2.1 C 173.5 2 173.1 1.9 172.7 1.9 C 172.1 1.9 171.6 2.1 171.4 2.3 C 171.1 2.6 171 3.1 171 3.9 C 170.95 3.88 171 5 171 5 L 173.4 5 L 173.4 6.7 L 171 6.7 L 171 17.5 L 168.9 17.5 Z M 174.2 11.3 C 174.2 8.9 174.9 7.2 176.2 6.1 C 177.2 5.2 178.5 4.7 180.1 4.7 C 181.8 4.7 183.2 5.3 184.3 6.4 C 185.4 7.5 185.9 9.1 185.9 11.1 C 185.9 12.7 185.7 13.9 185.2 14.9 C 184.7 15.8 184 16.5 183.1 17 C 182.2 17.5 181.2 17.8 180.1 17.8 C 178.3 17.8 176.9 17.2 175.8 16.1 C 174.8 15 174.2 13.4 174.2 11.3 Z M 176.4 11.3 C 176.4 12.8 176.7 14 177.4 14.8 C 178.1 15.6 179 16 180.1 16 C 181.1 16 182 15.6 182.7 14.8 C 183.4 14 183.7 12.8 183.7 11.2 C 183.7 9.6 183.4 8.5 182.7 7.7 C 182 6.9 181.1 6.5 180.1 6.5 C 179 6.5 178.1 6.9 177.4 7.7 C 176.7 8.5 176.4 9.7 176.4 11.3 Z M 188.3 17.5 L 188.3 5 L 190.2 5 C 190.2 5 190.24 6.91 190.2 6.9 C 190.7 6 191.2 5.4 191.6 5.2 C 192 4.9 192.4 4.7 192.9 4.7 C 193.6 4.7 194.4 5 195.1 5.4 C 195.1 5.4 194.4 7.4 194.4 7.4 C 193.9 7.1 193.3 6.9 192.8 6.9 C 192.4 6.9 192 7.1 191.6 7.3 C 191.2 7.6 191 8 190.8 8.5 C 190.6 9.2 190.5 10.1 190.5 11 C 190.45 10.96 190.5 17.5 190.5 17.5 L 188.3 17.5 Z M 196.4 17.5 L 196.4 5 L 198.2 5 C 198.2 5 198.25 6.77 198.2 6.8 C 198.6 6.2 199.2 5.7 199.8 5.3 C 200.5 4.9 201.2 4.7 202 4.7 C 202.9 4.7 203.7 4.9 204.3 5.3 C 204.9 5.7 205.3 6.2 205.5 6.9 C 206.5 5.5 207.8 4.7 209.4 4.7 C 210.6 4.7 211.6 5.1 212.2 5.8 C 212.9 6.5 213.2 7.5 213.2 8.9 C 213.22 8.93 213.2 17.5 213.2 17.5 L 211.1 17.5 C 211.1 17.5 211.13 9.63 211.1 9.6 C 211.1 8.8 211.1 8.2 210.9 7.8 C 210.8 7.4 210.5 7.1 210.2 6.9 C 209.8 6.7 209.4 6.6 208.9 6.6 C 208 6.6 207.3 6.9 206.7 7.4 C 206.2 8 205.9 9 205.9 10.2 C 205.86 10.24 205.9 17.5 205.9 17.5 L 203.8 17.5 C 203.8 17.5 203.75 9.39 203.8 9.4 C 203.8 8.4 203.6 7.7 203.2 7.3 C 202.9 6.8 202.3 6.6 201.6 6.6 C 201 6.6 200.4 6.7 199.9 7 C 199.4 7.4 199 7.8 198.8 8.4 C 198.6 9 198.5 9.9 198.5 11 C 198.47 11.02 198.5 17.5 198.5 17.5 L 196.4 17.5 Z M 224.9 17.5 C 224.7 17 224.5 16.5 224.5 15.9 C 223.7 16.6 222.9 17.1 222.2 17.3 C 221.5 17.6 220.7 17.8 219.9 17.8 C 218.5 17.8 217.5 17.4 216.7 16.8 C 216 16.1 215.6 15.2 215.6 14.2 C 215.6 13.6 215.8 13 216.1 12.5 C 216.3 12 216.7 11.6 217.1 11.3 C 217.6 11 218.1 10.8 218.7 10.6 C 219.1 10.5 219.7 10.4 220.5 10.3 C 222.2 10.1 223.5 9.9 224.3 9.6 C 224.3 9.3 224.3 9.1 224.3 9 C 224.3 8.2 224.1 7.6 223.7 7.2 C 223.2 6.7 222.4 6.5 221.3 6.5 C 220.3 6.5 219.6 6.7 219.1 7 C 218.6 7.4 218.3 8 218.1 8.9 C 218.1 8.9 216 8.6 216 8.6 C 216.2 7.7 216.5 7 216.9 6.4 C 217.4 5.9 218 5.5 218.8 5.2 C 219.6 4.9 220.5 4.7 221.6 4.7 C 222.7 4.7 223.5 4.9 224.2 5.1 C 224.9 5.4 225.4 5.7 225.7 6.1 C 226 6.4 226.2 6.9 226.3 7.5 C 226.4 7.9 226.4 8.5 226.4 9.4 C 226.4 9.4 226.4 12.3 226.4 12.3 C 226.4 14.2 226.5 15.5 226.6 16 C 226.7 16.5 226.8 17 227.1 17.5 C 227.1 17.47 224.9 17.5 224.9 17.5 C 224.9 17.5 224.89 17.47 224.9 17.5 Z M 224.3 11.2 C 223.5 11.5 222.4 11.8 220.9 12 C 220 12.1 219.4 12.3 219 12.4 C 218.7 12.6 218.4 12.8 218.2 13.1 C 218 13.4 217.9 13.8 217.9 14.1 C 217.9 14.7 218.1 15.2 218.5 15.5 C 219 15.9 219.6 16.1 220.4 16.1 C 221.2 16.1 221.9 15.9 222.6 15.6 C 223.2 15.2 223.7 14.7 224 14.1 C 224.2 13.6 224.3 12.9 224.3 12 C 224.3 12 224.3 11.2 224.3 11.2 Z M 233.4 15.7 C 233.6 15.7 233.9 15.6 234.3 15.6 C 234.3 15.6 234.6 17.4 234.6 17.4 C 234 17.6 233.5 17.6 233 17.6 C 232.2 17.6 231.7 17.5 231.2 17.3 C 230.8 17 230.5 16.7 230.3 16.3 C 230.2 15.9 230.1 15.1 230.1 13.8 C 230.09 13.83 230.1 6.7 230.1 6.7 L 228.5 6.7 L 228.5 5 L 230.1 5 L 230.1 1.9 L 232.2 0.7 L 232.2 5 L 234.3 5 L 234.3 6.7 L 232.2 6.7 C 232.2 6.7 232.18 13.95 232.2 13.9 C 232.2 14.5 232.2 14.9 232.3 15.1 C 232.4 15.3 232.5 15.4 232.7 15.5 C 232.8 15.6 233.1 15.7 233.4 15.7 C 233.4 15.7 233.4 15.7 233.4 15.7 Z M 236.4 2.7 L 236.4 0.3 L 238.5 0.3 L 238.5 2.7 L 236.4 2.7 Z M 236.4 17.5 L 236.4 5 L 238.5 5 L 238.5 17.5 L 236.4 17.5 Z M 240.9 11.3 C 240.9 8.9 241.6 7.2 242.8 6.1 C 243.9 5.2 245.2 4.7 246.8 4.7 C 248.5 4.7 249.9 5.3 250.9 6.4 C 252 7.5 252.6 9.1 252.6 11.1 C 252.6 12.7 252.3 13.9 251.9 14.9 C 251.4 15.8 250.7 16.5 249.8 17 C 248.8 17.5 247.8 17.8 246.8 17.8 C 245 17.8 243.6 17.2 242.5 16.1 C 241.5 15 240.9 13.4 240.9 11.3 Z M 243.1 11.3 C 243.1 12.8 243.4 14 244.1 14.8 C 244.8 15.6 245.7 16 246.8 16 C 247.8 16 248.7 15.6 249.4 14.8 C 250.1 14 250.4 12.8 250.4 11.2 C 250.4 9.6 250.1 8.5 249.4 7.7 C 248.7 6.9 247.8 6.5 246.8 6.5 C 245.7 6.5 244.8 6.9 244.1 7.7 C 243.4 8.5 243.1 9.7 243.1 11.3 Z M 255 17.5 L 255 5 L 256.9 5 C 256.9 5 256.95 6.8 256.9 6.8 C 257.9 5.4 259.2 4.7 260.9 4.7 C 261.7 4.7 262.3 4.9 263 5.2 C 263.6 5.4 264.1 5.8 264.4 6.2 C 264.7 6.6 264.9 7.2 265 7.8 C 265.1 8.2 265.2 8.8 265.2 9.8 C 265.16 9.82 265.2 17.5 265.2 17.5 L 263.1 17.5 C 263.1 17.5 263.05 9.9 263.1 9.9 C 263.1 9 263 8.4 262.8 8 C 262.6 7.5 262.3 7.2 261.9 7 C 261.5 6.7 261 6.6 260.5 6.6 C 259.6 6.6 258.8 6.9 258.1 7.4 C 257.5 8 257.2 9.1 257.2 10.7 C 257.16 10.68 257.2 17.5 257.2 17.5 L 255 17.5 Z " stroke="none" fill="#000"/>  </g></svg>