<?xml version="1.0" standalone="no"?><!DOCTYPE svg PUBLIC "-//W3C//DTD SVG 1.1//EN" "http://www.w3.org/Graphics/SVG/1.1/DTD/svg11.dtd"><svg xmlns="http://www.w3.org/2000/svg" version="1.1" width="1708px" height="90.3px" viewBox="0 -14 1708 90.3" style="top:-14px">  <desc>Delivering Value and Flexibility with Managed Services</desc>  <defs/>  <g id="Polygon19548">    <path d="M 4.6 2.8 C 4.6 2.8 19.68 2.82 19.7 2.8 C 33.1 2.8 41.7 11.2 41.7 22.9 C 41.7 35.6 32.7 43.7 19.7 43.7 C 19.68 43.74 4.6 43.7 4.6 43.7 L 4.6 2.8 Z M 19.6 39.7 C 30.4 39.7 37 33.3 37 23.2 C 37 13.3 30.5 6.8 19 6.8 C 18.96 6.84 9.1 6.8 9.1 6.8 L 9.1 39.7 C 9.1 39.7 19.62 39.66 19.6 39.7 Z M 71.6 2.8 L 71.6 6.8 L 53.7 6.8 L 53.7 21.1 L 71 21.1 L 71 25.1 L 53.7 25.1 L 53.7 39.7 L 72.1 39.7 L 72.1 43.7 L 49.2 43.7 L 49.2 2.8 L 71.6 2.8 Z M 83.8 2.8 L 83.8 39.6 L 103.1 39.6 L 103.1 43.7 L 79.3 43.7 L 79.3 2.8 L 83.8 2.8 Z M 112.8 2.8 L 112.8 43.7 L 108.3 43.7 L 108.3 2.8 L 112.8 2.8 Z M 117.5 2.8 L 122 2.8 L 135.3 34.7 L 135.4 34.7 L 148.6 2.8 L 153.1 2.8 L 135.8 44.2 L 134.8 44.2 L 117.5 2.8 Z M 180.2 2.8 L 180.2 6.8 L 162.3 6.8 L 162.3 21.1 L 179.6 21.1 L 179.6 25.1 L 162.3 25.1 L 162.3 39.7 L 180.7 39.7 L 180.7 43.7 L 157.8 43.7 L 157.8 2.8 L 180.2 2.8 Z M 187.9 2.8 C 187.9 2.8 198.66 2.82 198.7 2.8 C 206.9 2.8 211.1 7.6 211.1 13.8 C 211.1 18.9 208.4 22.4 203.4 23.9 C 206 25.3 207.2 26.3 210.6 31.5 C 210.6 31.5 218.5 43.7 218.5 43.7 L 213.2 43.7 C 213.2 43.7 205.98 32.46 206 32.5 C 202.2 26.5 199.7 25.1 196.2 25.1 C 196.2 25.14 192.4 25.1 192.4 25.1 L 192.4 43.7 L 187.9 43.7 L 187.9 2.8 Z M 196.6 21.2 C 202.3 21.2 206.5 19.8 206.5 13.9 C 206.5 8.8 203.3 6.8 198.1 6.8 C 198.06 6.78 192.4 6.8 192.4 6.8 L 192.4 21.2 C 192.4 21.2 196.62 21.18 196.6 21.2 Z M 227.5 2.8 L 227.5 43.7 L 223 43.7 L 223 2.8 L 227.5 2.8 Z M 240.4 2.8 L 269.4 36.7 L 269.4 2.8 L 273.7 2.8 L 273.7 43.7 L 269.8 43.7 L 241 10 L 241 43.7 L 236.7 43.7 L 236.7 2.8 L 240.4 2.8 Z M 316.7 10.3 C 312.2 7.7 307.2 6.3 302.6 6.3 C 293.1 6.3 285.8 13.5 285.8 23.1 C 285.8 33.2 292.7 40.3 302.9 40.3 C 306.4 40.3 308.8 39.7 313 38.2 C 313.02 38.16 313 28.2 313 28.2 L 304.7 28.2 L 304.7 24.2 L 317.5 24.2 C 317.5 24.2 317.52 40.92 317.5 40.9 C 312.8 43.2 308.3 44.3 302.9 44.3 C 288.3 44.3 281.1 34 281.1 23.5 C 281.1 11.9 289.7 2.3 302.8 2.3 C 307.4 2.3 311.3 3.2 316.7 5.6 C 316.7 5.6 316.7 10.3 316.7 10.3 Z M 338.3 2.8 L 342.8 2.8 L 356.1 34.7 L 356.2 34.7 L 369.4 2.8 L 373.9 2.8 L 356.6 44.2 L 355.6 44.2 L 338.3 2.8 Z M 391.6 2.6 L 409.8 43.7 L 405.2 43.7 L 399.4 30.9 L 380.8 30.9 L 375.3 43.7 L 370.7 43.7 L 388.4 2.6 L 391.6 2.6 Z M 382.6 26.9 L 397.6 26.9 L 389.9 9.5 L 382.6 26.9 Z M 419 2.8 L 419 39.6 L 438.2 39.6 L 438.2 43.7 L 414.5 43.7 L 414.5 2.8 L 419 2.8 Z M 445.5 2.8 C 445.5 2.8 445.49 26.4 445.5 26.4 C 445.5 35.5 449.8 40.3 458.2 40.3 C 466.7 40.3 470.8 35.3 470.8 26.4 C 470.81 26.4 470.8 2.8 470.8 2.8 L 475.3 2.8 C 475.3 2.8 475.31 26.4 475.3 26.4 C 475.3 37.1 469.6 44.3 458.3 44.3 C 447 44.3 441 37.9 441 26.4 C 440.99 26.4 441 2.8 441 2.8 L 445.5 2.8 Z M 506.4 2.8 L 506.4 6.8 L 488.5 6.8 L 488.5 21.1 L 505.8 21.1 L 505.8 25.1 L 488.5 25.1 L 488.5 39.7 L 506.9 39.7 L 506.9 43.7 L 484 43.7 L 484 2.8 L 506.4 2.8 Z M 547.2 2.6 L 565.4 43.7 L 560.8 43.7 L 555.1 30.9 L 536.5 30.9 L 530.9 43.7 L 526.3 43.7 L 544 2.6 L 547.2 2.6 Z M 538.2 26.9 L 553.3 26.9 L 545.5 9.5 L 538.2 26.9 Z M 573.8 2.8 L 602.8 36.7 L 602.8 2.8 L 607.1 2.8 L 607.1 43.7 L 603.2 43.7 L 574.4 10 L 574.4 43.7 L 570.1 43.7 L 570.1 2.8 L 573.8 2.8 Z M 616.3 2.8 C 616.3 2.8 631.37 2.82 631.4 2.8 C 644.8 2.8 653.4 11.2 653.4 22.9 C 653.4 35.6 644.4 43.7 631.4 43.7 C 631.37 43.74 616.3 43.7 616.3 43.7 L 616.3 2.8 Z M 631.3 39.7 C 642.1 39.7 648.7 33.3 648.7 23.2 C 648.7 13.3 642.2 6.8 630.7 6.8 C 630.65 6.84 620.8 6.8 620.8 6.8 L 620.8 39.7 C 620.8 39.7 631.31 39.66 631.3 39.7 Z M 698.6 2.8 L 698.6 6.9 L 682.1 6.9 L 682.1 20.1 L 698 20.1 L 698 24.2 L 682.1 24.2 L 682.1 43.7 L 677.6 43.7 L 677.6 2.8 L 698.6 2.8 Z M 709.1 2.8 L 709.1 39.6 L 728.3 39.6 L 728.3 43.7 L 704.6 43.7 L 704.6 2.8 L 709.1 2.8 Z M 755.9 2.8 L 755.9 6.8 L 738.1 6.8 L 738.1 21.1 L 755.3 21.1 L 755.3 25.1 L 738.1 25.1 L 738.1 39.7 L 756.4 39.7 L 756.4 43.7 L 733.6 43.7 L 733.6 2.8 L 755.9 2.8 Z M 767.2 2.8 C 773.8 10.5 775.5 12.6 781.3 19.5 C 785.6 14.3 790 9.2 795.3 2.8 C 795.29 2.82 800.8 2.8 800.8 2.8 L 784 22.6 L 801.8 43.7 L 796.4 43.7 L 781.3 25.9 L 766.1 43.7 L 760.6 43.7 L 778.5 22.6 L 761.8 2.8 C 761.8 2.8 767.21 2.82 767.2 2.8 Z M 811.1 2.8 L 811.1 43.7 L 806.6 43.7 L 806.6 2.8 L 811.1 2.8 Z M 830.8 2.8 C 838.4 2.8 843.5 6.7 843.5 13.3 C 843.5 17.6 841.1 20.8 836.7 22.3 C 843.1 23.2 847 27.4 847 32.8 C 847 40.3 840.2 43.7 832.7 43.7 C 832.73 43.74 820.3 43.7 820.3 43.7 L 820.3 2.8 C 820.3 2.8 830.81 2.82 830.8 2.8 Z M 824.7 21 C 824.7 21 829.19 21 829.2 21 C 835.9 21 838.8 17.9 838.8 13.7 C 838.8 8.9 836 6.8 829.9 6.8 C 829.91 6.78 824.7 6.8 824.7 6.8 L 824.7 21 Z M 831.9 39.8 C 838.4 39.8 842.3 37.6 842.3 32.4 C 842.3 27.7 839 24.9 831.2 24.9 C 831.23 24.9 824.7 24.9 824.7 24.9 L 824.7 39.8 C 824.7 39.8 831.89 39.78 831.9 39.8 Z M 858.2 2.8 L 858.2 43.7 L 853.7 43.7 L 853.7 2.8 L 858.2 2.8 Z M 871.8 2.8 L 871.8 39.6 L 891.1 39.6 L 891.1 43.7 L 867.3 43.7 L 867.3 2.8 L 871.8 2.8 Z M 900.8 2.8 L 900.8 43.7 L 896.3 43.7 L 896.3 2.8 L 900.8 2.8 Z M 939.9 2.8 L 939.9 6.8 L 925.2 6.8 L 925.2 43.7 L 920.7 43.7 L 920.7 6.8 L 906.3 6.8 L 906.3 2.8 L 939.9 2.8 Z M 947 2.8 L 959.1 17.9 L 971.3 2.8 L 976.7 2.8 L 961.5 21.9 L 961.5 43.7 L 956.9 43.7 L 956.9 21.9 L 941.6 2.8 L 947 2.8 Z M 993.6 2.8 L 998.1 2.8 L 1010.4 34 L 1010.5 34 L 1022.6 2.8 L 1026.6 2.8 L 1039 33.8 L 1039.1 33.8 L 1051.1 2.8 L 1055.6 2.8 L 1039.4 44 L 1038.4 44 L 1024.6 9.2 L 1010.9 44 L 1010 44 L 993.6 2.8 Z M 1064.9 2.8 L 1064.9 43.7 L 1060.4 43.7 L 1060.4 2.8 L 1064.9 2.8 Z M 1103.9 2.8 L 1103.9 6.8 L 1089.3 6.8 L 1089.3 43.7 L 1084.8 43.7 L 1084.8 6.8 L 1070.3 6.8 L 1070.3 2.8 L 1103.9 2.8 Z M 1113.9 2.8 L 1113.9 21.1 L 1138.8 21.1 L 1138.8 2.8 L 1143.3 2.8 L 1143.3 43.7 L 1138.8 43.7 L 1138.8 25.2 L 1113.9 25.2 L 1113.9 43.7 L 1109.4 43.7 L 1109.4 2.8 L 1113.9 2.8 Z M 1169.1 2.8 L 1173.4 2.8 L 1187.9 20.8 L 1202.3 2.8 L 1206.5 2.8 L 1206.5 43.7 L 1202 43.7 L 1202 10 L 1201.9 10 L 1188.2 27.1 L 1187.4 27.1 L 1173.8 10 L 1173.6 10 L 1173.6 43.7 L 1169.1 43.7 L 1169.1 2.8 Z M 1232.1 2.6 L 1250.4 43.7 L 1245.8 43.7 L 1240 30.9 L 1221.4 30.9 L 1215.9 43.7 L 1211.3 43.7 L 1229 2.6 L 1232.1 2.6 Z M 1223.1 26.9 L 1238.2 26.9 L 1230.5 9.5 L 1223.1 26.9 Z M 1258.8 2.8 L 1287.8 36.7 L 1287.8 2.8 L 1292.1 2.8 L 1292.1 43.7 L 1288.1 43.7 L 1259.4 10 L 1259.4 43.7 L 1255.1 43.7 L 1255.1 2.8 L 1258.8 2.8 Z M 1317.6 2.6 L 1335.9 43.7 L 1331.3 43.7 L 1325.5 30.9 L 1306.9 30.9 L 1301.4 43.7 L 1296.8 43.7 L 1314.5 2.6 L 1317.6 2.6 Z M 1308.6 26.9 L 1323.7 26.9 L 1316 9.5 L 1308.6 26.9 Z M 1372.5 10.3 C 1368 7.7 1363.1 6.3 1358.4 6.3 C 1349 6.3 1341.6 13.5 1341.6 23.1 C 1341.6 33.2 1348.6 40.3 1358.8 40.3 C 1362.2 40.3 1364.7 39.7 1368.9 38.2 C 1368.89 38.16 1368.9 28.2 1368.9 28.2 L 1360.5 28.2 L 1360.5 24.2 L 1373.4 24.2 C 1373.4 24.2 1373.39 40.92 1373.4 40.9 C 1368.7 43.2 1364.1 44.3 1358.8 44.3 C 1344.2 44.3 1337 34 1337 23.5 C 1337 11.9 1345.5 2.3 1358.6 2.3 C 1363.3 2.3 1367.1 3.2 1372.5 5.6 C 1372.5 5.6 1372.5 10.3 1372.5 10.3 Z M 1404.3 2.8 L 1404.3 6.8 L 1386.5 6.8 L 1386.5 21.1 L 1403.7 21.1 L 1403.7 25.1 L 1386.5 25.1 L 1386.5 39.7 L 1404.8 39.7 L 1404.8 43.7 L 1382 43.7 L 1382 2.8 L 1404.3 2.8 Z M 1412.1 2.8 C 1412.1 2.8 1427.14 2.82 1427.1 2.8 C 1440.5 2.8 1449.2 11.2 1449.2 22.9 C 1449.2 35.6 1440.2 43.7 1427.1 43.7 C 1427.14 43.74 1412.1 43.7 1412.1 43.7 L 1412.1 2.8 Z M 1427.1 39.7 C 1437.8 39.7 1444.5 33.3 1444.5 23.2 C 1444.5 13.3 1438 6.8 1426.4 6.8 C 1426.42 6.84 1416.6 6.8 1416.6 6.8 L 1416.6 39.7 C 1416.6 39.7 1427.08 39.66 1427.1 39.7 Z M 1492.3 4.9 C 1492.3 4.9 1492.3 10 1492.3 10 C 1489.5 7.6 1486.4 6.4 1483.1 6.4 C 1478.7 6.4 1475.9 8.8 1475.9 12.3 C 1475.9 15 1476.6 17.3 1483.4 20.8 C 1491.8 25.1 1493.9 28.1 1493.9 33.7 C 1493.9 39.7 1489.2 44.3 1482.2 44.3 C 1478.3 44.3 1474.7 43 1471.5 40.7 C 1471.5 40.7 1471.5 35 1471.5 35 C 1474.6 38.4 1478.2 40.3 1482.2 40.3 C 1486.3 40.3 1489.3 37.7 1489.3 33.7 C 1489.3 30.2 1488.2 28.2 1480.2 24.1 C 1473.8 20.8 1471.4 17.6 1471.4 12.4 C 1471.4 6.6 1476.3 2.3 1483.2 2.3 C 1486.4 2.3 1489.5 3.2 1492.3 4.9 Z M 1523.3 2.8 L 1523.3 6.8 L 1505.4 6.8 L 1505.4 21.1 L 1522.7 21.1 L 1522.7 25.1 L 1505.4 25.1 L 1505.4 39.7 L 1523.7 39.7 L 1523.7 43.7 L 1500.9 43.7 L 1500.9 2.8 L 1523.3 2.8 Z M 1531 2.8 C 1531 2.8 1541.74 2.82 1541.7 2.8 C 1550 2.8 1554.2 7.6 1554.2 13.8 C 1554.2 18.9 1551.5 22.4 1546.5 23.9 C 1549.1 25.3 1550.3 26.3 1553.7 31.5 C 1553.68 31.5 1561.6 43.7 1561.6 43.7 L 1556.3 43.7 C 1556.3 43.7 1549.06 32.46 1549.1 32.5 C 1545.3 26.5 1542.8 25.1 1539.3 25.1 C 1539.28 25.14 1535.5 25.1 1535.5 25.1 L 1535.5 43.7 L 1531 43.7 L 1531 2.8 Z M 1539.7 21.2 C 1545.3 21.2 1549.6 19.8 1549.6 13.9 C 1549.6 8.8 1546.4 6.8 1541.1 6.8 C 1541.14 6.78 1535.5 6.8 1535.5 6.8 L 1535.5 21.2 C 1535.5 21.2 1539.7 21.18 1539.7 21.2 Z M 1559.5 2.8 L 1564 2.8 L 1577.3 34.7 L 1577.4 34.7 L 1590.6 2.8 L 1595.1 2.8 L 1577.9 44.2 L 1576.8 44.2 L 1559.5 2.8 Z M 1604.3 2.8 L 1604.3 43.7 L 1599.8 43.7 L 1599.8 2.8 L 1604.3 2.8 Z M 1647.3 5.5 C 1647.3 5.5 1647.3 10.4 1647.3 10.4 C 1643 7.9 1638.2 6.5 1633.4 6.5 C 1623 6.5 1616.4 14.3 1616.4 23.3 C 1616.4 32.5 1622.9 40.1 1633.4 40.1 C 1638.5 40.1 1643.2 38.6 1647.6 35.9 C 1647.6 35.9 1647.6 40.9 1647.6 40.9 C 1643 43.2 1638.3 44.3 1633.2 44.3 C 1619.1 44.3 1611.7 33.7 1611.7 23.5 C 1611.7 11.3 1621.1 2.3 1633.4 2.3 C 1638 2.3 1642.7 3.4 1647.3 5.5 Z M 1677 2.8 L 1677 6.8 L 1659.2 6.8 L 1659.2 21.1 L 1676.4 21.1 L 1676.4 25.1 L 1659.2 25.1 L 1659.2 39.7 L 1677.5 39.7 L 1677.5 43.7 L 1654.7 43.7 L 1654.7 2.8 L 1677 2.8 Z M 1703.7 4.9 C 1703.7 4.9 1703.7 10 1703.7 10 C 1700.9 7.6 1697.9 6.4 1694.5 6.4 C 1690.2 6.4 1687.4 8.8 1687.4 12.3 C 1687.4 15 1688 17.3 1694.8 20.8 C 1703.3 25.1 1705.3 28.1 1705.3 33.7 C 1705.3 39.7 1700.6 44.3 1693.6 44.3 C 1689.7 44.3 1686.1 43 1683 40.7 C 1683 40.7 1683 35 1683 35 C 1686 38.4 1689.6 40.3 1693.6 40.3 C 1697.7 40.3 1700.7 37.7 1700.7 33.7 C 1700.7 30.2 1699.6 28.2 1691.7 24.1 C 1685.3 20.8 1682.8 17.6 1682.8 12.4 C 1682.8 6.6 1687.8 2.3 1694.6 2.3 C 1697.8 2.3 1701 3.2 1703.7 4.9 Z " stroke="none" fill="#010102"/>  </g></svg>