<?xml version="1.0" standalone="no"?><!DOCTYPE svg PUBLIC "-//W3C//DTD SVG 1.1//EN" "http://www.w3.org/Graphics/SVG/1.1/DTD/svg11.dtd"><svg xmlns="http://www.w3.org/2000/svg" version="1.1" width="273px" height="75.5px" viewBox="0 -5 273 75.5" style="top:-5px">  <desc>Innovative Continuous improvement, embrace change, utilise IT and evolve ways to enhance the client experience</desc>  <defs/>  <g id="Polygon39499">    <path d="M 5.1 60.4 C 5.1 60.4 6.1 60.5 6.1 60.5 C 6 61.1 5.7 61.6 5.2 62 C 4.7 62.3 4.1 62.5 3.4 62.5 C 2.5 62.5 1.8 62.2 1.2 61.7 C 0.7 61.1 0.4 60.3 0.4 59.3 C 0.4 58.3 0.7 57.5 1.2 56.9 C 1.8 56.3 2.5 56 3.3 56 C 4.2 56 4.9 56.3 5.4 56.9 C 5.9 57.4 6.2 58.2 6.2 59.3 C 6.2 59.3 6.2 59.4 6.2 59.5 C 6.2 59.5 1.5 59.5 1.5 59.5 C 1.6 60.2 1.8 60.7 2.1 61.1 C 2.5 61.5 2.9 61.7 3.4 61.7 C 3.8 61.7 4.1 61.6 4.4 61.3 C 4.7 61.1 4.9 60.8 5.1 60.4 Z M 1.6 58.7 C 1.6 58.7 5.1 58.7 5.1 58.7 C 5 58.1 4.9 57.8 4.7 57.5 C 4.3 57.1 3.9 56.9 3.4 56.9 C 2.9 56.9 2.5 57 2.1 57.4 C 1.8 57.7 1.6 58.1 1.6 58.7 Z M 6.8 62.4 L 9 59.1 L 6.9 56.2 L 8.3 56.2 C 8.3 56.2 9.21 57.62 9.2 57.6 C 9.4 57.9 9.5 58.1 9.6 58.3 C 9.8 58.1 10 57.8 10.1 57.6 C 10.11 57.63 11.2 56.2 11.2 56.2 L 12.4 56.2 L 10.3 59.1 L 12.6 62.4 L 11.3 62.4 L 10 60.4 L 9.7 59.9 L 8 62.4 L 6.8 62.4 Z M 13.5 64.8 L 13.5 56.2 L 14.4 56.2 C 14.4 56.2 14.43 56.97 14.4 57 C 14.7 56.6 14.9 56.4 15.2 56.3 C 15.5 56.1 15.8 56 16.2 56 C 16.8 56 17.2 56.2 17.6 56.4 C 18 56.7 18.3 57.1 18.6 57.6 C 18.8 58.1 18.9 58.6 18.9 59.2 C 18.9 59.9 18.8 60.4 18.5 60.9 C 18.3 61.5 18 61.8 17.5 62.1 C 17.1 62.4 16.6 62.5 16.2 62.5 C 15.8 62.5 15.5 62.4 15.2 62.3 C 14.9 62.1 14.7 62 14.5 61.7 C 14.52 61.74 14.5 64.8 14.5 64.8 L 13.5 64.8 Z M 14.4 59.3 C 14.4 60.1 14.6 60.7 14.9 61.1 C 15.2 61.5 15.6 61.7 16.1 61.7 C 16.6 61.7 17 61.5 17.3 61.1 C 17.6 60.7 17.8 60 17.8 59.2 C 17.8 58.4 17.6 57.8 17.3 57.4 C 17 57 16.6 56.8 16.1 56.8 C 15.7 56.8 15.3 57.1 14.9 57.5 C 14.6 57.9 14.4 58.5 14.4 59.3 Z M 24.4 60.4 C 24.4 60.4 25.5 60.5 25.5 60.5 C 25.3 61.1 25 61.6 24.5 62 C 24.1 62.3 23.5 62.5 22.8 62.5 C 21.8 62.5 21.1 62.2 20.6 61.7 C 20.1 61.1 19.8 60.3 19.8 59.3 C 19.8 58.3 20.1 57.5 20.6 56.9 C 21.1 56.3 21.8 56 22.7 56 C 23.5 56 24.2 56.3 24.7 56.9 C 25.3 57.4 25.5 58.2 25.5 59.3 C 25.5 59.3 25.5 59.4 25.5 59.5 C 25.5 59.5 20.9 59.5 20.9 59.5 C 20.9 60.2 21.1 60.7 21.5 61.1 C 21.8 61.5 22.2 61.7 22.8 61.7 C 23.1 61.7 23.5 61.6 23.7 61.3 C 24 61.1 24.2 60.8 24.4 60.4 Z M 20.9 58.7 C 20.9 58.7 24.4 58.7 24.4 58.7 C 24.4 58.1 24.2 57.8 24 57.5 C 23.7 57.1 23.2 56.9 22.7 56.9 C 22.2 56.9 21.8 57 21.5 57.4 C 21.2 57.7 21 58.1 20.9 58.7 Z M 26.8 62.4 L 26.8 56.2 L 27.8 56.2 C 27.8 56.2 27.75 57.1 27.8 57.1 C 28 56.7 28.2 56.4 28.4 56.2 C 28.6 56.1 28.9 56 29.1 56 C 29.5 56 29.8 56.1 30.2 56.4 C 30.2 56.4 29.8 57.3 29.8 57.3 C 29.6 57.2 29.3 57.1 29 57.1 C 28.8 57.1 28.6 57.2 28.4 57.3 C 28.2 57.5 28.1 57.6 28 57.9 C 27.9 58.3 27.9 58.7 27.9 59.1 C 27.86 59.12 27.9 62.4 27.9 62.4 L 26.8 62.4 Z M 30.8 55 L 30.8 53.8 L 31.9 53.8 L 31.9 55 L 30.8 55 Z M 30.8 62.4 L 30.8 56.2 L 31.9 56.2 L 31.9 62.4 L 30.8 62.4 Z M 37.7 60.4 C 37.7 60.4 38.8 60.5 38.8 60.5 C 38.7 61.1 38.3 61.6 37.9 62 C 37.4 62.3 36.8 62.5 36.1 62.5 C 35.2 62.5 34.5 62.2 33.9 61.7 C 33.4 61.1 33.1 60.3 33.1 59.3 C 33.1 58.3 33.4 57.5 33.9 56.9 C 34.5 56.3 35.2 56 36 56 C 36.9 56 37.5 56.3 38.1 56.9 C 38.6 57.4 38.9 58.2 38.9 59.3 C 38.9 59.3 38.9 59.4 38.9 59.5 C 38.9 59.5 34.2 59.5 34.2 59.5 C 34.3 60.2 34.4 60.7 34.8 61.1 C 35.1 61.5 35.6 61.7 36.1 61.7 C 36.5 61.7 36.8 61.6 37.1 61.3 C 37.4 61.1 37.6 60.8 37.7 60.4 Z M 34.3 58.7 C 34.3 58.7 37.7 58.7 37.7 58.7 C 37.7 58.1 37.6 57.8 37.3 57.5 C 37 57.1 36.6 56.9 36 56.9 C 35.6 56.9 35.1 57 34.8 57.4 C 34.5 57.7 34.3 58.1 34.3 58.7 Z M 40.1 62.4 L 40.1 56.2 L 41.1 56.2 C 41.1 56.2 41.1 57.04 41.1 57 C 41.6 56.4 42.2 56 43.1 56 C 43.5 56 43.8 56.1 44.1 56.2 C 44.4 56.4 44.7 56.5 44.8 56.7 C 45 57 45.1 57.2 45.1 57.5 C 45.2 57.7 45.2 58.1 45.2 58.6 C 45.21 58.55 45.2 62.4 45.2 62.4 L 44.2 62.4 C 44.2 62.4 44.15 58.59 44.2 58.6 C 44.2 58.2 44.1 57.8 44 57.6 C 43.9 57.4 43.8 57.2 43.6 57.1 C 43.4 57 43.1 56.9 42.9 56.9 C 42.4 56.9 42 57.1 41.7 57.4 C 41.4 57.6 41.2 58.2 41.2 59 C 41.2 58.98 41.2 62.4 41.2 62.4 L 40.1 62.4 Z M 50.9 60.1 C 50.9 60.1 51.9 60.2 51.9 60.2 C 51.8 61 51.5 61.5 51 61.9 C 50.6 62.3 50 62.5 49.3 62.5 C 48.5 62.5 47.8 62.2 47.3 61.7 C 46.8 61.1 46.5 60.3 46.5 59.3 C 46.5 58.6 46.6 58 46.8 57.5 C 47.1 57 47.4 56.6 47.9 56.4 C 48.3 56.1 48.8 56 49.3 56 C 50 56 50.6 56.2 51 56.5 C 51.4 56.9 51.7 57.4 51.8 58 C 51.8 58 50.8 58.1 50.8 58.1 C 50.7 57.7 50.5 57.4 50.3 57.2 C 50 57 49.7 56.9 49.4 56.9 C 48.8 56.9 48.4 57.1 48.1 57.5 C 47.7 57.8 47.6 58.4 47.6 59.3 C 47.6 60.1 47.7 60.7 48.1 61.1 C 48.4 61.5 48.8 61.7 49.3 61.7 C 49.7 61.7 50.1 61.5 50.4 61.3 C 50.6 61 50.8 60.6 50.9 60.1 Z M 57.1 60.4 C 57.1 60.4 58.2 60.5 58.2 60.5 C 58 61.1 57.7 61.6 57.2 62 C 56.8 62.3 56.2 62.5 55.4 62.5 C 54.5 62.5 53.8 62.2 53.3 61.7 C 52.7 61.1 52.5 60.3 52.5 59.3 C 52.5 58.3 52.7 57.5 53.3 56.9 C 53.8 56.3 54.5 56 55.4 56 C 56.2 56 56.9 56.3 57.4 56.9 C 57.9 57.4 58.2 58.2 58.2 59.3 C 58.2 59.3 58.2 59.4 58.2 59.5 C 58.2 59.5 53.6 59.5 53.6 59.5 C 53.6 60.2 53.8 60.7 54.1 61.1 C 54.5 61.5 54.9 61.7 55.4 61.7 C 55.8 61.7 56.2 61.6 56.4 61.3 C 56.7 61.1 56.9 60.8 57.1 60.4 Z M 53.6 58.7 C 53.6 58.7 57.1 58.7 57.1 58.7 C 57 58.1 56.9 57.8 56.7 57.5 C 56.4 57.1 55.9 56.9 55.4 56.9 C 54.9 56.9 54.5 57 54.2 57.4 C 53.8 57.7 53.7 58.1 53.6 58.7 Z " stroke="none" fill="#ffffff"/>  </g>  <g id="Polygon39498">    <path d="M 4.9 48 C 4.9 48 4.87 47.07 4.9 47.1 C 4.4 47.8 3.7 48.1 2.9 48.1 C 2.5 48.1 2.2 48.1 1.9 47.9 C 1.5 47.8 1.3 47.6 1.2 47.4 C 1 47.2 0.9 46.9 0.8 46.6 C 0.8 46.4 0.8 46.1 0.8 45.6 C 0.77 45.61 0.8 41.8 0.8 41.8 L 1.8 41.8 C 1.8 41.8 1.82 45.21 1.8 45.2 C 1.8 45.8 1.8 46.1 1.9 46.3 C 2 46.6 2.1 46.8 2.3 47 C 2.5 47.1 2.8 47.2 3.1 47.2 C 3.4 47.2 3.7 47.1 4 47 C 4.3 46.8 4.5 46.6 4.6 46.3 C 4.7 46 4.8 45.6 4.8 45.1 C 4.76 45.09 4.8 41.8 4.8 41.8 L 5.8 41.8 L 5.8 48 L 4.9 48 Z M 9.3 47.1 C 9.4 47.1 9.6 47.1 9.8 47 C 9.8 47 9.9 48 9.9 48 C 9.6 48 9.4 48.1 9.1 48.1 C 8.7 48.1 8.4 48 8.2 47.9 C 8 47.8 7.9 47.6 7.8 47.4 C 7.7 47.2 7.7 46.8 7.7 46.2 C 7.66 46.16 7.7 42.6 7.7 42.6 L 6.9 42.6 L 6.9 41.8 L 7.7 41.8 L 7.7 40.2 L 8.7 39.6 L 8.7 41.8 L 9.8 41.8 L 9.8 42.6 L 8.7 42.6 C 8.7 42.6 8.71 46.22 8.7 46.2 C 8.7 46.5 8.7 46.7 8.8 46.8 C 8.8 46.9 8.9 47 8.9 47 C 9 47.1 9.1 47.1 9.3 47.1 C 9.3 47.1 9.3 47.1 9.3 47.1 Z M 10.8 40.6 L 10.8 39.4 L 11.9 39.4 L 11.9 40.6 L 10.8 40.6 Z M 10.8 48 L 10.8 41.8 L 11.9 41.8 L 11.9 48 L 10.8 48 Z M 13.4 48 L 13.4 39.4 L 14.5 39.4 L 14.5 48 L 13.4 48 Z M 16.1 40.6 L 16.1 39.4 L 17.2 39.4 L 17.2 40.6 L 16.1 40.6 Z M 16.1 48 L 16.1 41.8 L 17.2 41.8 L 17.2 48 L 16.1 48 Z M 18.4 46.1 C 18.4 46.1 19.4 46 19.4 46 C 19.5 46.4 19.6 46.7 19.9 46.9 C 20.2 47.1 20.5 47.3 21 47.3 C 21.5 47.3 21.9 47.2 22.1 47 C 22.3 46.8 22.5 46.5 22.5 46.3 C 22.5 46 22.4 45.8 22.1 45.7 C 22 45.6 21.6 45.5 21.1 45.3 C 20.3 45.1 19.8 45 19.5 44.8 C 19.2 44.7 18.9 44.5 18.8 44.2 C 18.6 44 18.6 43.7 18.6 43.4 C 18.6 43.1 18.6 42.9 18.7 42.6 C 18.9 42.4 19 42.2 19.3 42.1 C 19.4 41.9 19.6 41.8 19.9 41.7 C 20.2 41.7 20.5 41.6 20.8 41.6 C 21.3 41.6 21.8 41.7 22.1 41.8 C 22.5 42 22.8 42.2 22.9 42.4 C 23.1 42.6 23.2 43 23.3 43.4 C 23.3 43.4 22.3 43.5 22.3 43.5 C 22.2 43.2 22.1 42.9 21.9 42.8 C 21.6 42.6 21.3 42.5 20.9 42.5 C 20.4 42.5 20.1 42.6 19.9 42.7 C 19.7 42.9 19.6 43.1 19.6 43.3 C 19.6 43.4 19.6 43.5 19.7 43.7 C 19.8 43.8 19.9 43.9 20.1 43.9 C 20.2 44 20.5 44.1 21 44.2 C 21.8 44.4 22.3 44.6 22.6 44.7 C 22.9 44.8 23.1 45 23.3 45.2 C 23.5 45.5 23.5 45.8 23.5 46.2 C 23.5 46.5 23.4 46.8 23.2 47.1 C 23 47.5 22.7 47.7 22.3 47.9 C 22 48 21.5 48.1 21 48.1 C 20.2 48.1 19.6 48 19.2 47.6 C 18.8 47.3 18.5 46.8 18.4 46.1 Z M 29.1 46 C 29.1 46 30.1 46.1 30.1 46.1 C 30 46.7 29.7 47.2 29.2 47.6 C 28.7 47.9 28.1 48.1 27.4 48.1 C 26.5 48.1 25.8 47.8 25.2 47.3 C 24.7 46.7 24.4 45.9 24.4 44.9 C 24.4 43.9 24.7 43.1 25.3 42.5 C 25.8 41.9 26.5 41.6 27.4 41.6 C 28.2 41.6 28.9 41.9 29.4 42.5 C 29.9 43 30.2 43.8 30.2 44.9 C 30.2 44.9 30.2 45 30.2 45.1 C 30.2 45.1 25.5 45.1 25.5 45.1 C 25.6 45.8 25.8 46.3 26.1 46.7 C 26.5 47.1 26.9 47.3 27.4 47.3 C 27.8 47.3 28.1 47.2 28.4 46.9 C 28.7 46.7 28.9 46.4 29.1 46 Z M 25.6 44.3 C 25.6 44.3 29.1 44.3 29.1 44.3 C 29 43.7 28.9 43.4 28.7 43.1 C 28.3 42.7 27.9 42.5 27.4 42.5 C 26.9 42.5 26.5 42.6 26.1 43 C 25.8 43.3 25.6 43.7 25.6 44.3 Z M 35.1 48 L 35.1 39.4 L 36.3 39.4 L 36.3 48 L 35.1 48 Z M 40.5 48 L 40.5 40.4 L 37.6 40.4 L 37.6 39.4 L 44.4 39.4 L 44.4 40.4 L 41.6 40.4 L 41.6 48 L 40.5 48 Z M 52.9 48 C 52.7 47.8 52.7 47.5 52.6 47.2 C 52.3 47.5 51.9 47.8 51.5 47.9 C 51.2 48.1 50.8 48.1 50.4 48.1 C 49.7 48.1 49.1 48 48.8 47.6 C 48.4 47.3 48.2 46.9 48.2 46.3 C 48.2 46 48.3 45.8 48.4 45.5 C 48.6 45.3 48.8 45.1 49 44.9 C 49.2 44.7 49.5 44.6 49.7 44.6 C 49.9 44.5 50.3 44.4 50.7 44.4 C 51.5 44.3 52.2 44.2 52.6 44 C 52.6 43.9 52.6 43.8 52.6 43.8 C 52.6 43.3 52.5 43 52.3 42.8 C 52 42.6 51.6 42.5 51.1 42.5 C 50.6 42.5 50.2 42.6 50 42.8 C 49.7 42.9 49.6 43.2 49.4 43.7 C 49.4 43.7 48.4 43.5 48.4 43.5 C 48.5 43.1 48.7 42.7 48.9 42.5 C 49.1 42.2 49.4 42 49.8 41.8 C 50.2 41.7 50.7 41.6 51.2 41.6 C 51.7 41.6 52.2 41.7 52.5 41.8 C 52.8 41.9 53.1 42.1 53.2 42.3 C 53.4 42.5 53.5 42.7 53.6 43 C 53.6 43.2 53.6 43.5 53.6 44 C 53.6 44 53.6 45.4 53.6 45.4 C 53.6 46.4 53.6 47 53.7 47.2 C 53.7 47.5 53.8 47.7 54 48 C 53.96 47.98 52.9 48 52.9 48 C 52.9 48 52.86 47.98 52.9 48 Z M 52.6 44.9 C 52.2 45 51.6 45.1 50.8 45.3 C 50.4 45.3 50.1 45.4 49.9 45.5 C 49.7 45.5 49.6 45.7 49.5 45.8 C 49.4 46 49.4 46.1 49.4 46.3 C 49.4 46.6 49.5 46.8 49.7 47 C 49.9 47.2 50.2 47.3 50.6 47.3 C 51 47.3 51.4 47.2 51.7 47 C 52 46.8 52.2 46.6 52.4 46.3 C 52.5 46.1 52.6 45.7 52.6 45.2 C 52.6 45.2 52.6 44.9 52.6 44.9 Z M 55.3 48 L 55.3 41.8 L 56.2 41.8 C 56.2 41.8 56.21 42.64 56.2 42.6 C 56.7 42 57.3 41.6 58.2 41.6 C 58.6 41.6 58.9 41.7 59.2 41.8 C 59.5 42 59.8 42.1 59.9 42.3 C 60.1 42.6 60.2 42.8 60.3 43.1 C 60.3 43.3 60.3 43.7 60.3 44.2 C 60.32 44.15 60.3 48 60.3 48 L 59.3 48 C 59.3 48 59.26 44.19 59.3 44.2 C 59.3 43.8 59.2 43.4 59.1 43.2 C 59.1 43 58.9 42.8 58.7 42.7 C 58.5 42.6 58.2 42.5 58 42.5 C 57.5 42.5 57.1 42.7 56.8 43 C 56.5 43.2 56.3 43.8 56.3 44.6 C 56.31 44.58 56.3 48 56.3 48 L 55.3 48 Z M 66 48 C 66 48 65.97 47.19 66 47.2 C 65.6 47.8 65 48.1 64.2 48.1 C 63.7 48.1 63.3 48 62.9 47.7 C 62.4 47.4 62.1 47.1 61.9 46.6 C 61.7 46.1 61.6 45.5 61.6 44.9 C 61.6 44.3 61.7 43.7 61.9 43.2 C 62.1 42.7 62.4 42.3 62.8 42 C 63.2 41.8 63.7 41.6 64.2 41.6 C 64.6 41.6 64.9 41.7 65.2 41.9 C 65.5 42 65.7 42.2 65.9 42.5 C 65.9 42.47 65.9 39.4 65.9 39.4 L 66.9 39.4 L 66.9 48 L 66 48 Z M 62.6 44.9 C 62.6 45.7 62.8 46.3 63.1 46.7 C 63.5 47.1 63.9 47.3 64.3 47.3 C 64.8 47.3 65.2 47.1 65.5 46.7 C 65.8 46.3 66 45.7 66 45 C 66 44.1 65.8 43.5 65.5 43.1 C 65.2 42.7 64.8 42.5 64.3 42.5 C 63.8 42.5 63.4 42.7 63.1 43.1 C 62.8 43.4 62.6 44.1 62.6 44.9 Z M 76.2 46 C 76.2 46 77.3 46.1 77.3 46.1 C 77.1 46.7 76.8 47.2 76.3 47.6 C 75.9 47.9 75.3 48.1 74.6 48.1 C 73.6 48.1 72.9 47.8 72.4 47.3 C 71.9 46.7 71.6 45.9 71.6 44.9 C 71.6 43.9 71.9 43.1 72.4 42.5 C 72.9 41.9 73.6 41.6 74.5 41.6 C 75.3 41.6 76 41.9 76.5 42.5 C 77.1 43 77.3 43.8 77.3 44.9 C 77.3 44.9 77.3 45 77.3 45.1 C 77.3 45.1 72.7 45.1 72.7 45.1 C 72.7 45.8 72.9 46.3 73.3 46.7 C 73.6 47.1 74 47.3 74.6 47.3 C 74.9 47.3 75.3 47.2 75.6 46.9 C 75.8 46.7 76 46.4 76.2 46 Z M 72.7 44.3 C 72.7 44.3 76.2 44.3 76.2 44.3 C 76.2 43.7 76 43.4 75.8 43.1 C 75.5 42.7 75 42.5 74.5 42.5 C 74 42.5 73.6 42.6 73.3 43 C 73 43.3 72.8 43.7 72.7 44.3 Z M 80.3 48 L 78 41.8 L 79.1 41.8 C 79.1 41.8 80.43 45.48 80.4 45.5 C 80.6 45.9 80.7 46.3 80.8 46.7 C 80.9 46.4 81 46 81.2 45.6 C 81.22 45.55 82.6 41.8 82.6 41.8 L 83.7 41.8 L 81.3 48 L 80.3 48 Z M 84.2 44.9 C 84.2 43.7 84.5 42.9 85.2 42.3 C 85.7 41.8 86.4 41.6 87.1 41.6 C 88 41.6 88.7 41.9 89.2 42.5 C 89.8 43 90.1 43.8 90.1 44.8 C 90.1 45.6 89.9 46.2 89.7 46.7 C 89.5 47.1 89.1 47.5 88.6 47.7 C 88.2 48 87.7 48.1 87.1 48.1 C 86.3 48.1 85.6 47.8 85 47.3 C 84.5 46.7 84.2 45.9 84.2 44.9 Z M 85.3 44.9 C 85.3 45.7 85.5 46.3 85.8 46.7 C 86.2 47.1 86.6 47.3 87.1 47.3 C 87.7 47.3 88.1 47.1 88.4 46.7 C 88.8 46.3 89 45.6 89 44.8 C 89 44.1 88.8 43.5 88.4 43.1 C 88.1 42.7 87.7 42.5 87.1 42.5 C 86.6 42.5 86.2 42.7 85.8 43.1 C 85.5 43.5 85.3 44.1 85.3 44.9 Z M 91.3 48 L 91.3 39.4 L 92.3 39.4 L 92.3 48 L 91.3 48 Z M 95.7 48 L 93.3 41.8 L 94.4 41.8 C 94.4 41.8 95.77 45.48 95.8 45.5 C 95.9 45.9 96 46.3 96.2 46.7 C 96.3 46.4 96.4 46 96.6 45.6 C 96.56 45.55 97.9 41.8 97.9 41.8 L 99 41.8 L 96.7 48 L 95.7 48 Z M 104.2 46 C 104.2 46 105.3 46.1 105.3 46.1 C 105.1 46.7 104.8 47.2 104.3 47.6 C 103.9 47.9 103.3 48.1 102.6 48.1 C 101.7 48.1 100.9 47.8 100.4 47.3 C 99.9 46.7 99.6 45.9 99.6 44.9 C 99.6 43.9 99.9 43.1 100.4 42.5 C 101 41.9 101.7 41.6 102.5 41.6 C 103.3 41.6 104 41.9 104.5 42.5 C 105.1 43 105.3 43.8 105.3 44.9 C 105.3 44.9 105.3 45 105.3 45.1 C 105.3 45.1 100.7 45.1 100.7 45.1 C 100.7 45.8 100.9 46.3 101.3 46.7 C 101.6 47.1 102.1 47.3 102.6 47.3 C 103 47.3 103.3 47.2 103.6 46.9 C 103.8 46.7 104.1 46.4 104.2 46 Z M 100.8 44.3 C 100.8 44.3 104.2 44.3 104.2 44.3 C 104.2 43.7 104 43.4 103.8 43.1 C 103.5 42.7 103.1 42.5 102.5 42.5 C 102 42.5 101.6 42.6 101.3 43 C 101 43.3 100.8 43.7 100.8 44.3 Z M 111.1 48 L 109.2 41.8 L 110.3 41.8 L 111.3 45.3 C 111.3 45.3 111.66 46.68 111.7 46.7 C 111.7 46.6 111.8 46.2 112 45.4 C 111.98 45.4 113 41.8 113 41.8 L 114.1 41.8 L 115 45.4 L 115.3 46.6 L 115.7 45.4 L 116.7 41.8 L 117.7 41.8 L 115.8 48 L 114.7 48 L 113.7 44.3 L 113.5 43.2 L 112.2 48 L 111.1 48 Z M 122.9 48 C 122.8 47.8 122.7 47.5 122.7 47.2 C 122.3 47.5 121.9 47.8 121.6 47.9 C 121.2 48.1 120.8 48.1 120.4 48.1 C 119.7 48.1 119.2 48 118.8 47.6 C 118.5 47.3 118.3 46.9 118.3 46.3 C 118.3 46 118.3 45.8 118.5 45.5 C 118.6 45.3 118.8 45.1 119 44.9 C 119.2 44.7 119.5 44.6 119.8 44.6 C 120 44.5 120.3 44.4 120.7 44.4 C 121.6 44.3 122.2 44.2 122.6 44 C 122.6 43.9 122.6 43.8 122.6 43.8 C 122.6 43.3 122.5 43 122.3 42.8 C 122 42.6 121.6 42.5 121.1 42.5 C 120.6 42.5 120.2 42.6 120 42.8 C 119.8 42.9 119.6 43.2 119.5 43.7 C 119.5 43.7 118.5 43.5 118.5 43.5 C 118.5 43.1 118.7 42.7 118.9 42.5 C 119.1 42.2 119.4 42 119.8 41.8 C 120.3 41.7 120.7 41.6 121.3 41.6 C 121.8 41.6 122.2 41.7 122.6 41.8 C 122.9 41.9 123.1 42.1 123.3 42.3 C 123.4 42.5 123.6 42.7 123.6 43 C 123.7 43.2 123.7 43.5 123.7 44 C 123.7 44 123.7 45.4 123.7 45.4 C 123.7 46.4 123.7 47 123.7 47.2 C 123.8 47.5 123.9 47.7 124 48 C 124 47.98 122.9 48 122.9 48 C 122.9 48 122.9 47.98 122.9 48 Z M 122.6 44.9 C 122.2 45 121.6 45.1 120.9 45.3 C 120.4 45.3 120.1 45.4 120 45.5 C 119.8 45.5 119.6 45.7 119.5 45.8 C 119.4 46 119.4 46.1 119.4 46.3 C 119.4 46.6 119.5 46.8 119.7 47 C 119.9 47.2 120.2 47.3 120.7 47.3 C 121.1 47.3 121.4 47.2 121.7 47 C 122.1 46.8 122.3 46.6 122.4 46.3 C 122.5 46.1 122.6 45.7 122.6 45.2 C 122.6 45.2 122.6 44.9 122.6 44.9 Z M 125.9 50.5 C 125.7 50.5 125.5 50.5 125.3 50.4 C 125.3 50.4 125.1 49.4 125.1 49.4 C 125.4 49.4 125.6 49.5 125.7 49.5 C 126 49.5 126.2 49.4 126.3 49.4 C 126.4 49.3 126.6 49.2 126.7 49 C 126.7 48.9 126.8 48.7 127 48.2 C 127 48.2 127 48.1 127.1 48 C 127.07 47.99 124.7 41.8 124.7 41.8 L 125.8 41.8 C 125.8 41.8 127.14 45.36 127.1 45.4 C 127.3 45.8 127.5 46.3 127.6 46.8 C 127.7 46.3 127.9 45.8 128 45.4 C 128.02 45.38 129.4 41.8 129.4 41.8 L 130.4 41.8 C 130.4 41.8 128.04 48.09 128 48.1 C 127.8 48.8 127.6 49.2 127.4 49.5 C 127.3 49.8 127 50.1 126.8 50.3 C 126.6 50.4 126.3 50.5 125.9 50.5 C 125.9 50.5 125.9 50.5 125.9 50.5 Z M 130.9 46.1 C 130.9 46.1 131.9 46 131.9 46 C 132 46.4 132.1 46.7 132.4 46.9 C 132.7 47.1 133.1 47.3 133.5 47.3 C 134 47.3 134.4 47.2 134.6 47 C 134.8 46.8 135 46.5 135 46.3 C 135 46 134.9 45.8 134.7 45.7 C 134.5 45.6 134.2 45.5 133.6 45.3 C 132.8 45.1 132.3 45 132 44.8 C 131.7 44.7 131.4 44.5 131.3 44.2 C 131.1 44 131.1 43.7 131.1 43.4 C 131.1 43.1 131.1 42.9 131.2 42.6 C 131.4 42.4 131.5 42.2 131.8 42.1 C 131.9 41.9 132.2 41.8 132.4 41.7 C 132.7 41.7 133 41.6 133.3 41.6 C 133.8 41.6 134.3 41.7 134.6 41.8 C 135 42 135.3 42.2 135.5 42.4 C 135.6 42.6 135.7 43 135.8 43.4 C 135.8 43.4 134.8 43.5 134.8 43.5 C 134.7 43.2 134.6 42.9 134.4 42.8 C 134.2 42.6 133.8 42.5 133.4 42.5 C 132.9 42.5 132.6 42.6 132.4 42.7 C 132.2 42.9 132.1 43.1 132.1 43.3 C 132.1 43.4 132.1 43.5 132.2 43.7 C 132.3 43.8 132.4 43.9 132.6 43.9 C 132.7 44 133 44.1 133.5 44.2 C 134.3 44.4 134.8 44.6 135.1 44.7 C 135.4 44.8 135.6 45 135.8 45.2 C 136 45.5 136 45.8 136 46.2 C 136 46.5 135.9 46.8 135.7 47.1 C 135.5 47.5 135.2 47.7 134.9 47.9 C 134.5 48 134 48.1 133.5 48.1 C 132.7 48.1 132.1 48 131.7 47.6 C 131.3 47.3 131 46.8 130.9 46.1 Z M 142.5 47.1 C 142.6 47.1 142.7 47.1 142.9 47 C 142.9 47 143.1 48 143.1 48 C 142.8 48 142.5 48.1 142.3 48.1 C 141.9 48.1 141.6 48 141.4 47.9 C 141.2 47.8 141 47.6 141 47.4 C 140.9 47.2 140.8 46.8 140.8 46.2 C 140.83 46.16 140.8 42.6 140.8 42.6 L 140.1 42.6 L 140.1 41.8 L 140.8 41.8 L 140.8 40.2 L 141.9 39.6 L 141.9 41.8 L 142.9 41.8 L 142.9 42.6 L 141.9 42.6 C 141.9 42.6 141.88 46.22 141.9 46.2 C 141.9 46.5 141.9 46.7 141.9 46.8 C 142 46.9 142 47 142.1 47 C 142.2 47.1 142.3 47.1 142.5 47.1 C 142.5 47.1 142.5 47.1 142.5 47.1 Z M 143.6 44.9 C 143.6 43.7 143.9 42.9 144.5 42.3 C 145.1 41.8 145.7 41.6 146.5 41.6 C 147.4 41.6 148.1 41.9 148.6 42.5 C 149.1 43 149.4 43.8 149.4 44.8 C 149.4 45.6 149.3 46.2 149 46.7 C 148.8 47.1 148.5 47.5 148 47.7 C 147.5 48 147 48.1 146.5 48.1 C 145.6 48.1 144.9 47.8 144.4 47.3 C 143.8 46.7 143.6 45.9 143.6 44.9 Z M 144.7 44.9 C 144.7 45.7 144.8 46.3 145.2 46.7 C 145.5 47.1 146 47.3 146.5 47.3 C 147 47.3 147.5 47.1 147.8 46.7 C 148.2 46.3 148.3 45.6 148.3 44.8 C 148.3 44.1 148.1 43.5 147.8 43.1 C 147.5 42.7 147 42.5 146.5 42.5 C 146 42.5 145.5 42.7 145.2 43.1 C 144.8 43.5 144.7 44.1 144.7 44.9 Z M 158.2 46 C 158.2 46 159.3 46.1 159.3 46.1 C 159.2 46.7 158.8 47.2 158.4 47.6 C 157.9 47.9 157.3 48.1 156.6 48.1 C 155.7 48.1 155 47.8 154.4 47.3 C 153.9 46.7 153.6 45.9 153.6 44.9 C 153.6 43.9 153.9 43.1 154.4 42.5 C 155 41.9 155.7 41.6 156.5 41.6 C 157.4 41.6 158 41.9 158.6 42.5 C 159.1 43 159.4 43.8 159.4 44.9 C 159.4 44.9 159.4 45 159.4 45.1 C 159.4 45.1 154.7 45.1 154.7 45.1 C 154.8 45.8 154.9 46.3 155.3 46.7 C 155.6 47.1 156.1 47.3 156.6 47.3 C 157 47.3 157.3 47.2 157.6 46.9 C 157.9 46.7 158.1 46.4 158.2 46 Z M 154.8 44.3 C 154.8 44.3 158.3 44.3 158.3 44.3 C 158.2 43.7 158.1 43.4 157.9 43.1 C 157.5 42.7 157.1 42.5 156.5 42.5 C 156.1 42.5 155.7 42.6 155.3 43 C 155 43.3 154.8 43.7 154.8 44.3 Z M 160.7 48 L 160.7 41.8 L 161.6 41.8 C 161.6 41.8 161.6 42.64 161.6 42.6 C 162.1 42 162.7 41.6 163.6 41.6 C 164 41.6 164.3 41.7 164.6 41.8 C 164.9 42 165.2 42.1 165.3 42.3 C 165.5 42.6 165.6 42.8 165.7 43.1 C 165.7 43.3 165.7 43.7 165.7 44.2 C 165.71 44.15 165.7 48 165.7 48 L 164.7 48 C 164.7 48 164.65 44.19 164.7 44.2 C 164.7 43.8 164.6 43.4 164.5 43.2 C 164.4 43 164.3 42.8 164.1 42.7 C 163.9 42.6 163.6 42.5 163.4 42.5 C 162.9 42.5 162.5 42.7 162.2 43 C 161.9 43.2 161.7 43.8 161.7 44.6 C 161.71 44.58 161.7 48 161.7 48 L 160.7 48 Z M 167.3 48 L 167.3 39.4 L 168.4 39.4 C 168.4 39.4 168.38 42.47 168.4 42.5 C 168.9 41.9 169.5 41.6 170.2 41.6 C 170.7 41.6 171.1 41.7 171.4 41.9 C 171.8 42.1 172 42.3 172.2 42.6 C 172.3 43 172.4 43.4 172.4 44 C 172.39 44.04 172.4 48 172.4 48 L 171.3 48 C 171.3 48 171.34 44.04 171.3 44 C 171.3 43.5 171.2 43.1 171 42.9 C 170.8 42.6 170.4 42.5 170 42.5 C 169.7 42.5 169.4 42.6 169.1 42.8 C 168.9 42.9 168.7 43.1 168.6 43.4 C 168.4 43.7 168.4 44.1 168.4 44.6 C 168.38 44.58 168.4 48 168.4 48 L 167.3 48 Z M 178.3 48 C 178.2 47.8 178.1 47.5 178.1 47.2 C 177.7 47.5 177.3 47.8 176.9 47.9 C 176.6 48.1 176.2 48.1 175.8 48.1 C 175.1 48.1 174.6 48 174.2 47.6 C 173.8 47.3 173.6 46.9 173.6 46.3 C 173.6 46 173.7 45.8 173.9 45.5 C 174 45.3 174.2 45.1 174.4 44.9 C 174.6 44.7 174.9 44.6 175.2 44.6 C 175.4 44.5 175.7 44.4 176.1 44.4 C 176.9 44.3 177.6 44.2 178 44 C 178 43.9 178 43.8 178 43.8 C 178 43.3 177.9 43 177.7 42.8 C 177.4 42.6 177 42.5 176.5 42.5 C 176 42.5 175.6 42.6 175.4 42.8 C 175.1 42.9 175 43.2 174.9 43.7 C 174.9 43.7 173.8 43.5 173.8 43.5 C 173.9 43.1 174.1 42.7 174.3 42.5 C 174.5 42.2 174.8 42 175.2 41.8 C 175.6 41.7 176.1 41.6 176.6 41.6 C 177.2 41.6 177.6 41.7 177.9 41.8 C 178.3 41.9 178.5 42.1 178.7 42.3 C 178.8 42.5 178.9 42.7 179 43 C 179 43.2 179 43.5 179 44 C 179 44 179 45.4 179 45.4 C 179 46.4 179.1 47 179.1 47.2 C 179.2 47.5 179.2 47.7 179.4 48 C 179.37 47.98 178.3 48 178.3 48 C 178.3 48 178.27 47.98 178.3 48 Z M 178 44.9 C 177.6 45 177 45.1 176.3 45.3 C 175.8 45.3 175.5 45.4 175.3 45.5 C 175.2 45.5 175 45.7 174.9 45.8 C 174.8 46 174.8 46.1 174.8 46.3 C 174.8 46.6 174.9 46.8 175.1 47 C 175.3 47.2 175.6 47.3 176 47.3 C 176.4 47.3 176.8 47.2 177.1 47 C 177.4 46.8 177.7 46.6 177.8 46.3 C 177.9 46.1 178 45.7 178 45.2 C 178 45.2 178 44.9 178 44.9 Z M 180.7 48 L 180.7 41.8 L 181.6 41.8 C 181.6 41.8 181.62 42.64 181.6 42.6 C 182.1 42 182.7 41.6 183.6 41.6 C 184 41.6 184.3 41.7 184.6 41.8 C 185 42 185.2 42.1 185.3 42.3 C 185.5 42.6 185.6 42.8 185.7 43.1 C 185.7 43.3 185.7 43.7 185.7 44.2 C 185.73 44.15 185.7 48 185.7 48 L 184.7 48 C 184.7 48 184.68 44.19 184.7 44.2 C 184.7 43.8 184.6 43.4 184.6 43.2 C 184.5 43 184.3 42.8 184.1 42.7 C 183.9 42.6 183.7 42.5 183.4 42.5 C 182.9 42.5 182.5 42.7 182.2 43 C 181.9 43.2 181.7 43.8 181.7 44.6 C 181.73 44.58 181.7 48 181.7 48 L 180.7 48 Z M 191.4 45.7 C 191.4 45.7 192.4 45.8 192.4 45.8 C 192.3 46.6 192 47.1 191.6 47.5 C 191.1 47.9 190.5 48.1 189.9 48.1 C 189 48.1 188.3 47.8 187.8 47.3 C 187.3 46.7 187 45.9 187 44.9 C 187 44.2 187.1 43.6 187.4 43.1 C 187.6 42.6 187.9 42.2 188.4 42 C 188.8 41.7 189.3 41.6 189.9 41.6 C 190.5 41.6 191.1 41.8 191.5 42.1 C 191.9 42.5 192.2 43 192.3 43.6 C 192.3 43.6 191.3 43.7 191.3 43.7 C 191.2 43.3 191 43 190.8 42.8 C 190.6 42.6 190.3 42.5 189.9 42.5 C 189.4 42.5 188.9 42.7 188.6 43.1 C 188.3 43.4 188.1 44 188.1 44.9 C 188.1 45.7 188.3 46.3 188.6 46.7 C 188.9 47.1 189.3 47.3 189.8 47.3 C 190.3 47.3 190.6 47.1 190.9 46.9 C 191.2 46.6 191.3 46.2 191.4 45.7 Z M 197.6 46 C 197.6 46 198.7 46.1 198.7 46.1 C 198.5 46.7 198.2 47.2 197.7 47.6 C 197.3 47.9 196.7 48.1 196 48.1 C 195.1 48.1 194.3 47.8 193.8 47.3 C 193.3 46.7 193 45.9 193 44.9 C 193 43.9 193.3 43.1 193.8 42.5 C 194.3 41.9 195 41.6 195.9 41.6 C 196.7 41.6 197.4 41.9 197.9 42.5 C 198.5 43 198.7 43.8 198.7 44.9 C 198.7 44.9 198.7 45 198.7 45.1 C 198.7 45.1 194.1 45.1 194.1 45.1 C 194.1 45.8 194.3 46.3 194.7 46.7 C 195 47.1 195.4 47.3 196 47.3 C 196.4 47.3 196.7 47.2 197 46.9 C 197.2 46.7 197.4 46.4 197.6 46 Z M 194.1 44.3 C 194.1 44.3 197.6 44.3 197.6 44.3 C 197.6 43.7 197.4 43.4 197.2 43.1 C 196.9 42.7 196.4 42.5 195.9 42.5 C 195.4 42.5 195 42.6 194.7 43 C 194.4 43.3 194.2 43.7 194.1 44.3 Z M 205.2 47.1 C 205.3 47.1 205.5 47.1 205.7 47 C 205.7 47 205.8 48 205.8 48 C 205.5 48 205.2 48.1 205 48.1 C 204.6 48.1 204.3 48 204.1 47.9 C 203.9 47.8 203.8 47.6 203.7 47.4 C 203.6 47.2 203.5 46.8 203.5 46.2 C 203.55 46.16 203.5 42.6 203.5 42.6 L 202.8 42.6 L 202.8 41.8 L 203.5 41.8 L 203.5 40.2 L 204.6 39.6 L 204.6 41.8 L 205.7 41.8 L 205.7 42.6 L 204.6 42.6 C 204.6 42.6 204.6 46.22 204.6 46.2 C 204.6 46.5 204.6 46.7 204.7 46.8 C 204.7 46.9 204.8 47 204.8 47 C 204.9 47.1 205 47.1 205.2 47.1 C 205.2 47.1 205.2 47.1 205.2 47.1 Z M 206.7 48 L 206.7 39.4 L 207.7 39.4 C 207.7 39.4 207.74 42.47 207.7 42.5 C 208.2 41.9 208.9 41.6 209.6 41.6 C 210.1 41.6 210.5 41.7 210.8 41.9 C 211.1 42.1 211.4 42.3 211.5 42.6 C 211.7 43 211.8 43.4 211.8 44 C 211.76 44.04 211.8 48 211.8 48 L 210.7 48 C 210.7 48 210.7 44.04 210.7 44 C 210.7 43.5 210.6 43.1 210.4 42.9 C 210.1 42.6 209.8 42.5 209.4 42.5 C 209.1 42.5 208.8 42.6 208.5 42.8 C 208.2 42.9 208 43.1 207.9 43.4 C 207.8 43.7 207.7 44.1 207.7 44.6 C 207.74 44.58 207.7 48 207.7 48 L 206.7 48 Z M 217.6 46 C 217.6 46 218.7 46.1 218.7 46.1 C 218.5 46.7 218.2 47.2 217.8 47.6 C 217.3 47.9 216.7 48.1 216 48.1 C 215.1 48.1 214.3 47.8 213.8 47.3 C 213.3 46.7 213 45.9 213 44.9 C 213 43.9 213.3 43.1 213.8 42.5 C 214.4 41.9 215.1 41.6 215.9 41.6 C 216.8 41.6 217.4 41.9 218 42.5 C 218.5 43 218.7 43.8 218.7 44.9 C 218.7 44.9 218.7 45 218.7 45.1 C 218.7 45.1 214.1 45.1 214.1 45.1 C 214.1 45.8 214.3 46.3 214.7 46.7 C 215 47.1 215.5 47.3 216 47.3 C 216.4 47.3 216.7 47.2 217 46.9 C 217.2 46.7 217.5 46.4 217.6 46 Z M 214.2 44.3 C 214.2 44.3 217.6 44.3 217.6 44.3 C 217.6 43.7 217.5 43.4 217.2 43.1 C 216.9 42.7 216.5 42.5 215.9 42.5 C 215.4 42.5 215 42.6 214.7 43 C 214.4 43.3 214.2 43.7 214.2 44.3 Z M 227.4 45.7 C 227.4 45.7 228.5 45.8 228.5 45.8 C 228.4 46.6 228.1 47.1 227.6 47.5 C 227.1 47.9 226.6 48.1 225.9 48.1 C 225 48.1 224.3 47.8 223.8 47.3 C 223.3 46.7 223 45.9 223 44.9 C 223 44.2 223.2 43.6 223.4 43.1 C 223.6 42.6 223.9 42.2 224.4 42 C 224.9 41.7 225.3 41.6 225.9 41.6 C 226.6 41.6 227.1 41.8 227.5 42.1 C 228 42.5 228.2 43 228.4 43.6 C 228.4 43.6 227.3 43.7 227.3 43.7 C 227.2 43.3 227.1 43 226.8 42.8 C 226.6 42.6 226.3 42.5 225.9 42.5 C 225.4 42.5 225 42.7 224.6 43.1 C 224.3 43.4 224.1 44 224.1 44.9 C 224.1 45.7 224.3 46.3 224.6 46.7 C 224.9 47.1 225.4 47.3 225.9 47.3 C 226.3 47.3 226.6 47.1 226.9 46.9 C 227.2 46.6 227.4 46.2 227.4 45.7 Z M 229.3 48 L 229.3 39.4 L 230.4 39.4 L 230.4 48 L 229.3 48 Z M 232 40.6 L 232 39.4 L 233.1 39.4 L 233.1 40.6 L 232 40.6 Z M 232 48 L 232 41.8 L 233.1 41.8 L 233.1 48 L 232 48 Z M 239 46 C 239 46 240.1 46.1 240.1 46.1 C 239.9 46.7 239.6 47.2 239.1 47.6 C 238.6 47.9 238 48.1 237.3 48.1 C 236.4 48.1 235.7 47.8 235.2 47.3 C 234.6 46.7 234.4 45.9 234.4 44.9 C 234.4 43.9 234.6 43.1 235.2 42.5 C 235.7 41.9 236.4 41.6 237.3 41.6 C 238.1 41.6 238.8 41.9 239.3 42.5 C 239.8 43 240.1 43.8 240.1 44.9 C 240.1 44.9 240.1 45 240.1 45.1 C 240.1 45.1 235.4 45.1 235.4 45.1 C 235.5 45.8 235.7 46.3 236 46.7 C 236.4 47.1 236.8 47.3 237.3 47.3 C 237.7 47.3 238 47.2 238.3 46.9 C 238.6 46.7 238.8 46.4 239 46 Z M 235.5 44.3 C 235.5 44.3 239 44.3 239 44.3 C 238.9 43.7 238.8 43.4 238.6 43.1 C 238.2 42.7 237.8 42.5 237.3 42.5 C 236.8 42.5 236.4 42.6 236 43 C 235.7 43.3 235.5 43.7 235.5 44.3 Z M 241.4 48 L 241.4 41.8 L 242.3 41.8 C 242.3 41.8 242.33 42.64 242.3 42.6 C 242.8 42 243.4 41.6 244.3 41.6 C 244.7 41.6 245 41.7 245.3 41.8 C 245.7 42 245.9 42.1 246 42.3 C 246.2 42.6 246.3 42.8 246.4 43.1 C 246.4 43.3 246.4 43.7 246.4 44.2 C 246.43 44.15 246.4 48 246.4 48 L 245.4 48 C 245.4 48 245.38 44.19 245.4 44.2 C 245.4 43.8 245.3 43.4 245.3 43.2 C 245.2 43 245 42.8 244.8 42.7 C 244.6 42.6 244.4 42.5 244.1 42.5 C 243.6 42.5 243.2 42.7 242.9 43 C 242.6 43.2 242.4 43.8 242.4 44.6 C 242.43 44.58 242.4 48 242.4 48 L 241.4 48 Z M 249.9 47.1 C 250 47.1 250.2 47.1 250.4 47 C 250.4 47 250.5 48 250.5 48 C 250.2 48 249.9 48.1 249.7 48.1 C 249.3 48.1 249 48 248.8 47.9 C 248.6 47.8 248.5 47.6 248.4 47.4 C 248.3 47.2 248.2 46.8 248.2 46.2 C 248.24 46.16 248.2 42.6 248.2 42.6 L 247.5 42.6 L 247.5 41.8 L 248.2 41.8 L 248.2 40.2 L 249.3 39.6 L 249.3 41.8 L 250.4 41.8 L 250.4 42.6 L 249.3 42.6 C 249.3 42.6 249.29 46.22 249.3 46.2 C 249.3 46.5 249.3 46.7 249.3 46.8 C 249.4 46.9 249.4 47 249.5 47 C 249.6 47.1 249.7 47.1 249.9 47.1 C 249.9 47.1 249.9 47.1 249.9 47.1 Z " stroke="none" fill="#ffffff"/>  </g>  <g id="Polygon39497">    <path d="M 7.1 30.6 C 7.1 30.6 8.2 30.9 8.2 30.9 C 8 31.8 7.5 32.5 6.9 33 C 6.3 33.5 5.5 33.7 4.6 33.7 C 3.7 33.7 3 33.5 2.4 33.2 C 1.8 32.8 1.4 32.2 1.1 31.5 C 0.7 30.8 0.6 30 0.6 29.2 C 0.6 28.3 0.8 27.5 1.1 26.9 C 1.5 26.2 1.9 25.7 2.6 25.4 C 3.2 25 3.9 24.8 4.7 24.8 C 5.5 24.8 6.2 25.1 6.8 25.5 C 7.4 25.9 7.8 26.6 8 27.3 C 8 27.3 6.9 27.6 6.9 27.6 C 6.7 27 6.4 26.5 6.1 26.2 C 5.7 26 5.2 25.8 4.6 25.8 C 4 25.8 3.4 26 3 26.3 C 2.5 26.6 2.2 27 2 27.6 C 1.9 28.1 1.8 28.6 1.8 29.2 C 1.8 29.9 1.9 30.6 2.1 31.1 C 2.3 31.7 2.6 32.1 3.1 32.3 C 3.5 32.6 4 32.8 4.5 32.8 C 5.2 32.8 5.7 32.6 6.2 32.2 C 6.6 31.8 6.9 31.3 7.1 30.6 Z M 9.1 30.5 C 9.1 29.3 9.4 28.5 10 27.9 C 10.6 27.4 11.2 27.2 12 27.2 C 12.8 27.2 13.5 27.5 14.1 28.1 C 14.6 28.6 14.9 29.4 14.9 30.4 C 14.9 31.2 14.8 31.8 14.5 32.3 C 14.3 32.7 13.9 33.1 13.5 33.3 C 13 33.6 12.5 33.7 12 33.7 C 11.1 33.7 10.4 33.4 9.9 32.9 C 9.3 32.3 9.1 31.5 9.1 30.5 Z M 10.1 30.5 C 10.1 31.3 10.3 31.9 10.7 32.3 C 11 32.7 11.5 32.9 12 32.9 C 12.5 32.9 12.9 32.7 13.3 32.3 C 13.6 31.9 13.8 31.2 13.8 30.4 C 13.8 29.7 13.6 29.1 13.3 28.7 C 12.9 28.3 12.5 28.1 12 28.1 C 11.5 28.1 11 28.3 10.7 28.7 C 10.3 29.1 10.1 29.7 10.1 30.5 Z M 16.1 33.6 L 16.1 27.4 L 17.1 27.4 C 17.1 27.4 17.08 28.24 17.1 28.2 C 17.5 27.6 18.2 27.2 19.1 27.2 C 19.4 27.2 19.8 27.3 20.1 27.4 C 20.4 27.6 20.6 27.7 20.8 27.9 C 21 28.2 21.1 28.4 21.1 28.7 C 21.2 28.9 21.2 29.3 21.2 29.8 C 21.19 29.75 21.2 33.6 21.2 33.6 L 20.1 33.6 C 20.1 33.6 20.13 29.79 20.1 29.8 C 20.1 29.4 20.1 29 20 28.8 C 19.9 28.6 19.8 28.4 19.6 28.3 C 19.4 28.2 19.1 28.1 18.8 28.1 C 18.4 28.1 18 28.3 17.7 28.6 C 17.3 28.8 17.2 29.4 17.2 30.2 C 17.19 30.18 17.2 33.6 17.2 33.6 L 16.1 33.6 Z M 24.6 32.7 C 24.8 32.7 24.9 32.7 25.1 32.6 C 25.1 32.6 25.3 33.6 25.3 33.6 C 25 33.6 24.7 33.7 24.5 33.7 C 24.1 33.7 23.8 33.6 23.6 33.5 C 23.4 33.4 23.2 33.2 23.1 33 C 23 32.8 23 32.4 23 31.8 C 23 31.76 23 28.2 23 28.2 L 22.2 28.2 L 22.2 27.4 L 23 27.4 L 23 25.8 L 24 25.2 L 24 27.4 L 25.1 27.4 L 25.1 28.2 L 24 28.2 C 24 28.2 24.05 31.82 24 31.8 C 24 32.1 24.1 32.3 24.1 32.4 C 24.1 32.5 24.2 32.6 24.3 32.6 C 24.4 32.7 24.5 32.7 24.6 32.7 C 24.6 32.7 24.6 32.7 24.6 32.7 Z M 26.1 26.2 L 26.1 25 L 27.2 25 L 27.2 26.2 L 26.1 26.2 Z M 26.1 33.6 L 26.1 27.4 L 27.2 27.4 L 27.2 33.6 L 26.1 33.6 Z M 28.8 33.6 L 28.8 27.4 L 29.8 27.4 C 29.8 27.4 29.75 28.24 29.8 28.2 C 30.2 27.6 30.9 27.2 31.7 27.2 C 32.1 27.2 32.5 27.3 32.8 27.4 C 33.1 27.6 33.3 27.7 33.5 27.9 C 33.6 28.2 33.7 28.4 33.8 28.7 C 33.8 28.9 33.9 29.3 33.9 29.8 C 33.86 29.75 33.9 33.6 33.9 33.6 L 32.8 33.6 C 32.8 33.6 32.81 29.79 32.8 29.8 C 32.8 29.4 32.8 29 32.7 28.8 C 32.6 28.6 32.5 28.4 32.2 28.3 C 32 28.2 31.8 28.1 31.5 28.1 C 31.1 28.1 30.7 28.3 30.3 28.6 C 30 28.8 29.9 29.4 29.9 30.2 C 29.86 30.18 29.9 33.6 29.9 33.6 L 28.8 33.6 Z M 39.6 33.6 C 39.6 33.6 39.56 32.67 39.6 32.7 C 39.1 33.4 38.4 33.7 37.6 33.7 C 37.2 33.7 36.9 33.7 36.6 33.5 C 36.2 33.4 36 33.2 35.8 33 C 35.7 32.8 35.6 32.5 35.5 32.2 C 35.5 32 35.5 31.7 35.5 31.2 C 35.46 31.21 35.5 27.4 35.5 27.4 L 36.5 27.4 C 36.5 27.4 36.51 30.81 36.5 30.8 C 36.5 31.4 36.5 31.7 36.6 31.9 C 36.6 32.2 36.8 32.4 37 32.6 C 37.2 32.7 37.5 32.8 37.8 32.8 C 38.1 32.8 38.4 32.7 38.7 32.6 C 39 32.4 39.2 32.2 39.3 31.9 C 39.4 31.6 39.4 31.2 39.4 30.7 C 39.45 30.69 39.4 27.4 39.4 27.4 L 40.5 27.4 L 40.5 33.6 L 39.6 33.6 Z M 41.8 30.5 C 41.8 29.3 42.1 28.5 42.7 27.9 C 43.3 27.4 43.9 27.2 44.7 27.2 C 45.5 27.2 46.2 27.5 46.8 28.1 C 47.3 28.6 47.6 29.4 47.6 30.4 C 47.6 31.2 47.5 31.8 47.2 32.3 C 47 32.7 46.6 33.1 46.2 33.3 C 45.7 33.6 45.2 33.7 44.7 33.7 C 43.8 33.7 43.1 33.4 42.6 32.9 C 42 32.3 41.8 31.5 41.8 30.5 Z M 42.8 30.5 C 42.8 31.3 43 31.9 43.4 32.3 C 43.7 32.7 44.2 32.9 44.7 32.9 C 45.2 32.9 45.6 32.7 46 32.3 C 46.3 31.9 46.5 31.2 46.5 30.4 C 46.5 29.7 46.3 29.1 46 28.7 C 45.6 28.3 45.2 28.1 44.7 28.1 C 44.2 28.1 43.7 28.3 43.4 28.7 C 43 29.1 42.8 29.7 42.8 30.5 Z M 52.9 33.6 C 52.9 33.6 52.9 32.67 52.9 32.7 C 52.4 33.4 51.8 33.7 50.9 33.7 C 50.6 33.7 50.2 33.7 49.9 33.5 C 49.6 33.4 49.3 33.2 49.2 33 C 49 32.8 48.9 32.5 48.9 32.2 C 48.8 32 48.8 31.7 48.8 31.2 C 48.8 31.21 48.8 27.4 48.8 27.4 L 49.9 27.4 C 49.9 27.4 49.86 30.81 49.9 30.8 C 49.9 31.4 49.9 31.7 49.9 31.9 C 50 32.2 50.1 32.4 50.3 32.6 C 50.6 32.7 50.8 32.8 51.1 32.8 C 51.5 32.8 51.8 32.7 52 32.6 C 52.3 32.4 52.5 32.2 52.6 31.9 C 52.7 31.6 52.8 31.2 52.8 30.7 C 52.79 30.69 52.8 27.4 52.8 27.4 L 53.8 27.4 L 53.8 33.6 L 52.9 33.6 Z M 55.1 31.7 C 55.1 31.7 56.1 31.6 56.1 31.6 C 56.2 32 56.3 32.3 56.6 32.5 C 56.9 32.7 57.3 32.9 57.7 32.9 C 58.2 32.9 58.6 32.8 58.8 32.6 C 59 32.4 59.2 32.1 59.2 31.9 C 59.2 31.6 59.1 31.4 58.9 31.3 C 58.7 31.2 58.3 31.1 57.8 30.9 C 57 30.7 56.5 30.6 56.2 30.4 C 55.9 30.3 55.6 30.1 55.5 29.8 C 55.3 29.6 55.3 29.3 55.3 29 C 55.3 28.7 55.3 28.5 55.4 28.2 C 55.6 28 55.7 27.8 56 27.7 C 56.1 27.5 56.4 27.4 56.6 27.3 C 56.9 27.3 57.2 27.2 57.5 27.2 C 58 27.2 58.5 27.3 58.8 27.4 C 59.2 27.6 59.5 27.8 59.6 28 C 59.8 28.2 59.9 28.6 60 29 C 60 29 59 29.1 59 29.1 C 58.9 28.8 58.8 28.5 58.6 28.4 C 58.3 28.2 58 28.1 57.6 28.1 C 57.1 28.1 56.8 28.2 56.6 28.3 C 56.4 28.5 56.3 28.7 56.3 28.9 C 56.3 29 56.3 29.1 56.4 29.3 C 56.5 29.4 56.6 29.5 56.8 29.5 C 56.9 29.6 57.2 29.7 57.7 29.8 C 58.5 30 59 30.2 59.3 30.3 C 59.6 30.4 59.8 30.6 60 30.8 C 60.2 31.1 60.2 31.4 60.2 31.8 C 60.2 32.1 60.1 32.4 59.9 32.7 C 59.7 33.1 59.4 33.3 59.1 33.5 C 58.7 33.6 58.2 33.7 57.7 33.7 C 56.9 33.7 56.3 33.6 55.9 33.2 C 55.5 32.9 55.2 32.4 55.1 31.7 Z M 64.8 26.2 L 64.8 25 L 65.9 25 L 65.9 26.2 L 64.8 26.2 Z M 64.8 33.6 L 64.8 27.4 L 65.9 27.4 L 65.9 33.6 L 64.8 33.6 Z M 67.5 33.6 L 67.5 27.4 L 68.4 27.4 C 68.4 27.4 68.44 28.23 68.4 28.2 C 68.6 27.9 68.9 27.7 69.2 27.5 C 69.5 27.3 69.9 27.2 70.3 27.2 C 70.8 27.2 71.2 27.3 71.5 27.5 C 71.8 27.7 72 28 72.1 28.3 C 72.6 27.6 73.2 27.2 74 27.2 C 74.6 27.2 75.1 27.4 75.4 27.7 C 75.8 28.1 75.9 28.6 75.9 29.3 C 75.93 29.31 75.9 33.6 75.9 33.6 L 74.9 33.6 C 74.9 33.6 74.88 29.66 74.9 29.7 C 74.9 29.2 74.8 28.9 74.8 28.7 C 74.7 28.6 74.6 28.4 74.4 28.3 C 74.2 28.2 74 28.1 73.8 28.1 C 73.3 28.1 73 28.3 72.7 28.6 C 72.4 28.9 72.3 29.3 72.3 30 C 72.25 29.96 72.3 33.6 72.3 33.6 L 71.2 33.6 C 71.2 33.6 71.2 29.54 71.2 29.5 C 71.2 29.1 71.1 28.7 70.9 28.5 C 70.8 28.2 70.5 28.1 70.1 28.1 C 69.8 28.1 69.5 28.2 69.3 28.4 C 69 28.5 68.8 28.7 68.7 29.1 C 68.6 29.4 68.6 29.8 68.6 30.4 C 68.55 30.35 68.6 33.6 68.6 33.6 L 67.5 33.6 Z M 77.5 36 L 77.5 27.4 L 78.5 27.4 C 78.5 27.4 78.46 28.17 78.5 28.2 C 78.7 27.8 78.9 27.6 79.2 27.5 C 79.5 27.3 79.9 27.2 80.3 27.2 C 80.8 27.2 81.3 27.4 81.7 27.6 C 82.1 27.9 82.4 28.3 82.6 28.8 C 82.8 29.3 82.9 29.8 82.9 30.4 C 82.9 31.1 82.8 31.6 82.6 32.1 C 82.3 32.7 82 33 81.6 33.3 C 81.1 33.6 80.7 33.7 80.2 33.7 C 79.8 33.7 79.5 33.6 79.2 33.5 C 79 33.3 78.7 33.2 78.6 32.9 C 78.55 32.94 78.6 36 78.6 36 L 77.5 36 Z M 78.5 30.5 C 78.5 31.3 78.6 31.9 78.9 32.3 C 79.3 32.7 79.7 32.9 80.1 32.9 C 80.6 32.9 81 32.7 81.3 32.3 C 81.7 31.9 81.8 31.2 81.8 30.4 C 81.8 29.6 81.7 29 81.3 28.6 C 81 28.2 80.6 28 80.2 28 C 79.7 28 79.3 28.3 79 28.7 C 78.6 29.1 78.5 29.7 78.5 30.5 Z M 84.2 33.6 L 84.2 27.4 L 85.1 27.4 C 85.1 27.4 85.11 28.3 85.1 28.3 C 85.3 27.9 85.6 27.6 85.8 27.4 C 86 27.3 86.2 27.2 86.5 27.2 C 86.8 27.2 87.2 27.3 87.5 27.6 C 87.5 27.6 87.2 28.5 87.2 28.5 C 86.9 28.4 86.7 28.3 86.4 28.3 C 86.2 28.3 86 28.4 85.8 28.5 C 85.6 28.7 85.5 28.8 85.4 29.1 C 85.3 29.5 85.2 29.9 85.2 30.3 C 85.21 30.32 85.2 33.6 85.2 33.6 L 84.2 33.6 Z M 87.8 30.5 C 87.8 29.3 88.1 28.5 88.7 27.9 C 89.3 27.4 89.9 27.2 90.7 27.2 C 91.5 27.2 92.2 27.5 92.8 28.1 C 93.3 28.6 93.6 29.4 93.6 30.4 C 93.6 31.2 93.5 31.8 93.2 32.3 C 93 32.7 92.7 33.1 92.2 33.3 C 91.7 33.6 91.2 33.7 90.7 33.7 C 89.8 33.7 89.1 33.4 88.6 32.9 C 88 32.3 87.8 31.5 87.8 30.5 Z M 88.9 30.5 C 88.9 31.3 89 31.9 89.4 32.3 C 89.7 32.7 90.2 32.9 90.7 32.9 C 91.2 32.9 91.7 32.7 92 32.3 C 92.3 31.9 92.5 31.2 92.5 30.4 C 92.5 29.7 92.3 29.1 92 28.7 C 91.6 28.3 91.2 28.1 90.7 28.1 C 90.2 28.1 89.7 28.3 89.4 28.7 C 89 29.1 88.9 29.7 88.9 30.5 Z M 96.6 33.6 L 94.2 27.4 L 95.3 27.4 C 95.3 27.4 96.65 31.08 96.7 31.1 C 96.8 31.5 96.9 31.9 97 32.3 C 97.1 32 97.3 31.6 97.4 31.2 C 97.44 31.15 98.8 27.4 98.8 27.4 L 99.9 27.4 L 97.6 33.6 L 96.6 33.6 Z M 105.1 31.6 C 105.1 31.6 106.2 31.7 106.2 31.7 C 106 32.3 105.7 32.8 105.2 33.2 C 104.8 33.5 104.2 33.7 103.5 33.7 C 102.5 33.7 101.8 33.4 101.3 32.9 C 100.8 32.3 100.5 31.5 100.5 30.5 C 100.5 29.5 100.8 28.7 101.3 28.1 C 101.8 27.5 102.5 27.2 103.4 27.2 C 104.2 27.2 104.9 27.5 105.4 28.1 C 106 28.6 106.2 29.4 106.2 30.5 C 106.2 30.5 106.2 30.6 106.2 30.7 C 106.2 30.7 101.6 30.7 101.6 30.7 C 101.6 31.4 101.8 31.9 102.2 32.3 C 102.5 32.7 102.9 32.9 103.5 32.9 C 103.8 32.9 104.2 32.8 104.4 32.5 C 104.7 32.3 104.9 32 105.1 31.6 Z M 101.6 29.9 C 101.6 29.9 105.1 29.9 105.1 29.9 C 105.1 29.3 104.9 29 104.7 28.7 C 104.4 28.3 103.9 28.1 103.4 28.1 C 102.9 28.1 102.5 28.2 102.2 28.6 C 101.9 28.9 101.7 29.3 101.6 29.9 Z M 107.5 33.6 L 107.5 27.4 L 108.5 27.4 C 108.5 27.4 108.46 28.23 108.5 28.2 C 108.7 27.9 108.9 27.7 109.2 27.5 C 109.6 27.3 109.9 27.2 110.3 27.2 C 110.8 27.2 111.2 27.3 111.5 27.5 C 111.8 27.7 112 28 112.1 28.3 C 112.6 27.6 113.2 27.2 114 27.2 C 114.6 27.2 115.1 27.4 115.4 27.7 C 115.8 28.1 115.9 28.6 115.9 29.3 C 115.95 29.31 115.9 33.6 115.9 33.6 L 114.9 33.6 C 114.9 33.6 114.9 29.66 114.9 29.7 C 114.9 29.2 114.9 28.9 114.8 28.7 C 114.7 28.6 114.6 28.4 114.4 28.3 C 114.2 28.2 114 28.1 113.8 28.1 C 113.4 28.1 113 28.3 112.7 28.6 C 112.4 28.9 112.3 29.3 112.3 30 C 112.27 29.96 112.3 33.6 112.3 33.6 L 111.2 33.6 C 111.2 33.6 111.21 29.54 111.2 29.5 C 111.2 29.1 111.1 28.7 111 28.5 C 110.8 28.2 110.5 28.1 110.1 28.1 C 109.8 28.1 109.5 28.2 109.3 28.4 C 109 28.5 108.9 28.7 108.7 29.1 C 108.6 29.4 108.6 29.8 108.6 30.4 C 108.57 30.35 108.6 33.6 108.6 33.6 L 107.5 33.6 Z M 121.8 31.6 C 121.8 31.6 122.9 31.7 122.9 31.7 C 122.7 32.3 122.4 32.8 121.9 33.2 C 121.4 33.5 120.8 33.7 120.1 33.7 C 119.2 33.7 118.5 33.4 118 32.9 C 117.4 32.3 117.2 31.5 117.2 30.5 C 117.2 29.5 117.4 28.7 118 28.1 C 118.5 27.5 119.2 27.2 120.1 27.2 C 120.9 27.2 121.6 27.5 122.1 28.1 C 122.6 28.6 122.9 29.4 122.9 30.5 C 122.9 30.5 122.9 30.6 122.9 30.7 C 122.9 30.7 118.2 30.7 118.2 30.7 C 118.3 31.4 118.5 31.9 118.8 32.3 C 119.2 32.7 119.6 32.9 120.1 32.9 C 120.5 32.9 120.8 32.8 121.1 32.5 C 121.4 32.3 121.6 32 121.8 31.6 Z M 118.3 29.9 C 118.3 29.9 121.8 29.9 121.8 29.9 C 121.7 29.3 121.6 29 121.4 28.7 C 121 28.3 120.6 28.1 120.1 28.1 C 119.6 28.1 119.2 28.2 118.9 28.6 C 118.5 28.9 118.3 29.3 118.3 29.9 Z M 124.2 33.6 L 124.2 27.4 L 125.1 27.4 C 125.1 27.4 125.13 28.24 125.1 28.2 C 125.6 27.6 126.2 27.2 127.1 27.2 C 127.5 27.2 127.8 27.3 128.1 27.4 C 128.5 27.6 128.7 27.7 128.9 27.9 C 129 28.2 129.1 28.4 129.2 28.7 C 129.2 28.9 129.2 29.3 129.2 29.8 C 129.24 29.75 129.2 33.6 129.2 33.6 L 128.2 33.6 C 128.2 33.6 128.19 29.79 128.2 29.8 C 128.2 29.4 128.1 29 128.1 28.8 C 128 28.6 127.8 28.4 127.6 28.3 C 127.4 28.2 127.2 28.1 126.9 28.1 C 126.4 28.1 126.1 28.3 125.7 28.6 C 125.4 28.8 125.2 29.4 125.2 30.2 C 125.24 30.18 125.2 33.6 125.2 33.6 L 124.2 33.6 Z M 132.7 32.7 C 132.8 32.7 133 32.7 133.2 32.6 C 133.2 32.6 133.3 33.6 133.3 33.6 C 133 33.6 132.8 33.7 132.5 33.7 C 132.1 33.7 131.8 33.6 131.6 33.5 C 131.4 33.4 131.3 33.2 131.2 33 C 131.1 32.8 131.1 32.4 131.1 31.8 C 131.05 31.76 131.1 28.2 131.1 28.2 L 130.3 28.2 L 130.3 27.4 L 131.1 27.4 L 131.1 25.8 L 132.1 25.2 L 132.1 27.4 L 133.2 27.4 L 133.2 28.2 L 132.1 28.2 C 132.1 28.2 132.1 31.82 132.1 31.8 C 132.1 32.1 132.1 32.3 132.2 32.4 C 132.2 32.5 132.3 32.6 132.3 32.6 C 132.4 32.7 132.5 32.7 132.7 32.7 C 132.7 32.7 132.7 32.7 132.7 32.7 Z M 134.5 33.6 L 134.5 32.4 L 135.7 32.4 C 135.7 32.4 135.67 33.58 135.7 33.6 C 135.7 34 135.6 34.4 135.4 34.6 C 135.3 34.9 135 35.1 134.7 35.3 C 134.7 35.3 134.4 34.8 134.4 34.8 C 134.6 34.7 134.8 34.6 134.9 34.4 C 135 34.2 135.1 33.9 135.1 33.6 C 135.06 33.58 134.5 33.6 134.5 33.6 Z M 145.1 31.6 C 145.1 31.6 146.2 31.7 146.2 31.7 C 146 32.3 145.7 32.8 145.3 33.2 C 144.8 33.5 144.2 33.7 143.5 33.7 C 142.6 33.7 141.8 33.4 141.3 32.9 C 140.8 32.3 140.5 31.5 140.5 30.5 C 140.5 29.5 140.8 28.7 141.3 28.1 C 141.9 27.5 142.6 27.2 143.4 27.2 C 144.2 27.2 144.9 27.5 145.5 28.1 C 146 28.6 146.2 29.4 146.2 30.5 C 146.2 30.5 146.2 30.6 146.2 30.7 C 146.2 30.7 141.6 30.7 141.6 30.7 C 141.6 31.4 141.8 31.9 142.2 32.3 C 142.5 32.7 143 32.9 143.5 32.9 C 143.9 32.9 144.2 32.8 144.5 32.5 C 144.7 32.3 145 32 145.1 31.6 Z M 141.7 29.9 C 141.7 29.9 145.1 29.9 145.1 29.9 C 145.1 29.3 145 29 144.7 28.7 C 144.4 28.3 144 28.1 143.4 28.1 C 142.9 28.1 142.5 28.2 142.2 28.6 C 141.9 28.9 141.7 29.3 141.7 29.9 Z M 147.5 33.6 L 147.5 27.4 L 148.5 27.4 C 148.5 27.4 148.48 28.23 148.5 28.2 C 148.7 27.9 148.9 27.7 149.3 27.5 C 149.6 27.3 149.9 27.2 150.4 27.2 C 150.8 27.2 151.2 27.3 151.5 27.5 C 151.8 27.7 152 28 152.1 28.3 C 152.6 27.6 153.3 27.2 154 27.2 C 154.7 27.2 155.1 27.4 155.5 27.7 C 155.8 28.1 156 28.6 156 29.3 C 155.96 29.31 156 33.6 156 33.6 L 154.9 33.6 C 154.9 33.6 154.92 29.66 154.9 29.7 C 154.9 29.2 154.9 28.9 154.8 28.7 C 154.7 28.6 154.6 28.4 154.4 28.3 C 154.3 28.2 154.1 28.1 153.8 28.1 C 153.4 28.1 153 28.3 152.7 28.6 C 152.4 28.9 152.3 29.3 152.3 30 C 152.29 29.96 152.3 33.6 152.3 33.6 L 151.2 33.6 C 151.2 33.6 151.23 29.54 151.2 29.5 C 151.2 29.1 151.1 28.7 151 28.5 C 150.8 28.2 150.5 28.1 150.1 28.1 C 149.8 28.1 149.6 28.2 149.3 28.4 C 149.1 28.5 148.9 28.7 148.8 29.1 C 148.6 29.4 148.6 29.8 148.6 30.4 C 148.59 30.35 148.6 33.6 148.6 33.6 L 147.5 33.6 Z M 158.5 33.6 L 157.5 33.6 L 157.5 25 L 158.6 25 C 158.6 25 158.58 28.05 158.6 28.1 C 159 27.5 159.6 27.2 160.3 27.2 C 160.7 27.2 161 27.3 161.4 27.4 C 161.7 27.6 162 27.8 162.2 28.1 C 162.4 28.4 162.6 28.7 162.7 29.1 C 162.9 29.5 162.9 29.9 162.9 30.4 C 162.9 31.4 162.7 32.3 162.1 32.8 C 161.6 33.4 161 33.7 160.2 33.7 C 159.5 33.7 158.9 33.4 158.5 32.8 C 158.5 32.8 158.5 33.6 158.5 33.6 Z M 158.5 30.4 C 158.5 31.2 158.6 31.7 158.8 32 C 159.1 32.6 159.6 32.9 160.1 32.9 C 160.6 32.9 161 32.7 161.3 32.3 C 161.7 31.9 161.8 31.3 161.8 30.5 C 161.8 29.7 161.7 29.1 161.4 28.7 C 161 28.3 160.6 28.1 160.2 28.1 C 159.7 28.1 159.3 28.3 159 28.7 C 158.7 29.1 158.5 29.7 158.5 30.4 Z M 164.2 33.6 L 164.2 27.4 L 165.1 27.4 C 165.1 27.4 165.14 28.3 165.1 28.3 C 165.4 27.9 165.6 27.6 165.8 27.4 C 166 27.3 166.2 27.2 166.5 27.2 C 166.8 27.2 167.2 27.3 167.6 27.6 C 167.6 27.6 167.2 28.5 167.2 28.5 C 167 28.4 166.7 28.3 166.4 28.3 C 166.2 28.3 166 28.4 165.8 28.5 C 165.6 28.7 165.5 28.8 165.4 29.1 C 165.3 29.5 165.2 29.9 165.2 30.3 C 165.25 30.32 165.2 33.6 165.2 33.6 L 164.2 33.6 Z M 172.5 33.6 C 172.4 33.4 172.3 33.1 172.3 32.8 C 171.9 33.1 171.5 33.4 171.1 33.5 C 170.8 33.7 170.4 33.7 170 33.7 C 169.3 33.7 168.8 33.6 168.4 33.2 C 168 32.9 167.8 32.5 167.8 31.9 C 167.8 31.6 167.9 31.4 168 31.1 C 168.2 30.9 168.4 30.7 168.6 30.5 C 168.8 30.3 169.1 30.2 169.4 30.2 C 169.6 30.1 169.9 30 170.3 30 C 171.1 29.9 171.8 29.8 172.2 29.6 C 172.2 29.5 172.2 29.4 172.2 29.4 C 172.2 28.9 172.1 28.6 171.9 28.4 C 171.6 28.2 171.2 28.1 170.7 28.1 C 170.2 28.1 169.8 28.2 169.6 28.4 C 169.3 28.5 169.2 28.8 169.1 29.3 C 169.1 29.3 168 29.1 168 29.1 C 168.1 28.7 168.3 28.3 168.5 28.1 C 168.7 27.8 169 27.6 169.4 27.4 C 169.8 27.3 170.3 27.2 170.8 27.2 C 171.4 27.2 171.8 27.3 172.1 27.4 C 172.5 27.5 172.7 27.7 172.9 27.9 C 173 28.1 173.1 28.3 173.2 28.6 C 173.2 28.8 173.2 29.1 173.2 29.6 C 173.2 29.6 173.2 31 173.2 31 C 173.2 32 173.3 32.6 173.3 32.8 C 173.4 33.1 173.4 33.3 173.6 33.6 C 173.57 33.58 172.5 33.6 172.5 33.6 C 172.5 33.6 172.47 33.58 172.5 33.6 Z M 172.2 30.5 C 171.8 30.6 171.2 30.7 170.4 30.9 C 170 30.9 169.7 31 169.5 31.1 C 169.3 31.1 169.2 31.3 169.1 31.4 C 169 31.6 169 31.7 169 31.9 C 169 32.2 169.1 32.4 169.3 32.6 C 169.5 32.8 169.8 32.9 170.2 32.9 C 170.6 32.9 171 32.8 171.3 32.6 C 171.6 32.4 171.9 32.2 172 31.9 C 172.1 31.7 172.2 31.3 172.2 30.8 C 172.2 30.8 172.2 30.5 172.2 30.5 Z M 178.9 31.3 C 178.9 31.3 180 31.4 180 31.4 C 179.9 32.2 179.6 32.7 179.1 33.1 C 178.6 33.5 178.1 33.7 177.4 33.7 C 176.5 33.7 175.8 33.4 175.3 32.9 C 174.8 32.3 174.6 31.5 174.6 30.5 C 174.6 29.8 174.7 29.2 174.9 28.7 C 175.1 28.2 175.4 27.8 175.9 27.6 C 176.4 27.3 176.9 27.2 177.4 27.2 C 178.1 27.2 178.6 27.4 179 27.7 C 179.5 28.1 179.7 28.6 179.9 29.2 C 179.9 29.2 178.8 29.3 178.8 29.3 C 178.7 28.9 178.6 28.6 178.3 28.4 C 178.1 28.2 177.8 28.1 177.4 28.1 C 176.9 28.1 176.5 28.3 176.1 28.7 C 175.8 29 175.6 29.6 175.6 30.5 C 175.6 31.3 175.8 31.9 176.1 32.3 C 176.4 32.7 176.9 32.9 177.4 32.9 C 177.8 32.9 178.1 32.7 178.4 32.5 C 178.7 32.2 178.9 31.8 178.9 31.3 Z M 185.1 31.6 C 185.1 31.6 186.2 31.7 186.2 31.7 C 186.1 32.3 185.7 32.8 185.3 33.2 C 184.8 33.5 184.2 33.7 183.5 33.7 C 182.6 33.7 181.9 33.4 181.3 32.9 C 180.8 32.3 180.5 31.5 180.5 30.5 C 180.5 29.5 180.8 28.7 181.3 28.1 C 181.9 27.5 182.6 27.2 183.4 27.2 C 184.3 27.2 184.9 27.5 185.5 28.1 C 186 28.6 186.3 29.4 186.3 30.5 C 186.3 30.5 186.3 30.6 186.3 30.7 C 186.3 30.7 181.6 30.7 181.6 30.7 C 181.7 31.4 181.8 31.9 182.2 32.3 C 182.5 32.7 183 32.9 183.5 32.9 C 183.9 32.9 184.2 32.8 184.5 32.5 C 184.8 32.3 185 32 185.1 31.6 Z M 181.7 29.9 C 181.7 29.9 185.1 29.9 185.1 29.9 C 185.1 29.3 185 29 184.7 28.7 C 184.4 28.3 184 28.1 183.4 28.1 C 183 28.1 182.5 28.2 182.2 28.6 C 181.9 28.9 181.7 29.3 181.7 29.9 Z M 194.9 31.3 C 194.9 31.3 196 31.4 196 31.4 C 195.9 32.2 195.6 32.7 195.1 33.1 C 194.6 33.5 194.1 33.7 193.4 33.7 C 192.5 33.7 191.9 33.4 191.3 32.9 C 190.8 32.3 190.6 31.5 190.6 30.5 C 190.6 29.8 190.7 29.2 190.9 28.7 C 191.1 28.2 191.5 27.8 191.9 27.6 C 192.4 27.3 192.9 27.2 193.4 27.2 C 194.1 27.2 194.6 27.4 195.1 27.7 C 195.5 28.1 195.8 28.6 195.9 29.2 C 195.9 29.2 194.9 29.3 194.9 29.3 C 194.8 28.9 194.6 28.6 194.3 28.4 C 194.1 28.2 193.8 28.1 193.4 28.1 C 192.9 28.1 192.5 28.3 192.1 28.7 C 191.8 29 191.6 29.6 191.6 30.5 C 191.6 31.3 191.8 31.9 192.1 32.3 C 192.4 32.7 192.9 32.9 193.4 32.9 C 193.8 32.9 194.1 32.7 194.4 32.5 C 194.7 32.2 194.9 31.8 194.9 31.3 Z M 196.9 33.6 L 196.9 25 L 197.9 25 C 197.9 25 197.94 28.07 197.9 28.1 C 198.4 27.5 199 27.2 199.8 27.2 C 200.3 27.2 200.7 27.3 201 27.5 C 201.3 27.7 201.6 27.9 201.7 28.2 C 201.9 28.6 201.9 29 201.9 29.6 C 201.95 29.64 201.9 33.6 201.9 33.6 L 200.9 33.6 C 200.9 33.6 200.89 29.64 200.9 29.6 C 200.9 29.1 200.8 28.7 200.6 28.5 C 200.3 28.2 200 28.1 199.6 28.1 C 199.3 28.1 199 28.2 198.7 28.4 C 198.4 28.5 198.2 28.7 198.1 29 C 198 29.3 197.9 29.7 197.9 30.2 C 197.94 30.18 197.9 33.6 197.9 33.6 L 196.9 33.6 Z M 207.8 33.6 C 207.7 33.4 207.6 33.1 207.6 32.8 C 207.2 33.1 206.8 33.4 206.5 33.5 C 206.1 33.7 205.7 33.7 205.3 33.7 C 204.6 33.7 204.1 33.6 203.7 33.2 C 203.4 32.9 203.2 32.5 203.2 31.9 C 203.2 31.6 203.3 31.4 203.4 31.1 C 203.5 30.9 203.7 30.7 204 30.5 C 204.2 30.3 204.4 30.2 204.7 30.2 C 204.9 30.1 205.2 30 205.6 30 C 206.5 29.9 207.1 29.8 207.5 29.6 C 207.5 29.5 207.5 29.4 207.5 29.4 C 207.5 28.9 207.4 28.6 207.2 28.4 C 207 28.2 206.6 28.1 206 28.1 C 205.5 28.1 205.2 28.2 204.9 28.4 C 204.7 28.5 204.5 28.8 204.4 29.3 C 204.4 29.3 203.4 29.1 203.4 29.1 C 203.5 28.7 203.6 28.3 203.8 28.1 C 204.1 27.8 204.4 27.6 204.8 27.4 C 205.2 27.3 205.7 27.2 206.2 27.2 C 206.7 27.2 207.1 27.3 207.5 27.4 C 207.8 27.5 208.1 27.7 208.2 27.9 C 208.4 28.1 208.5 28.3 208.5 28.6 C 208.6 28.8 208.6 29.1 208.6 29.6 C 208.6 29.6 208.6 31 208.6 31 C 208.6 32 208.6 32.6 208.7 32.8 C 208.7 33.1 208.8 33.3 208.9 33.6 C 208.93 33.58 207.8 33.6 207.8 33.6 C 207.8 33.6 207.83 33.58 207.8 33.6 Z M 207.5 30.5 C 207.1 30.6 206.6 30.7 205.8 30.9 C 205.4 30.9 205.1 31 204.9 31.1 C 204.7 31.1 204.6 31.3 204.5 31.4 C 204.4 31.6 204.3 31.7 204.3 31.9 C 204.3 32.2 204.4 32.4 204.6 32.6 C 204.9 32.8 205.2 32.9 205.6 32.9 C 206 32.9 206.3 32.8 206.7 32.6 C 207 32.4 207.2 32.2 207.4 31.9 C 207.5 31.7 207.5 31.3 207.5 30.8 C 207.5 30.8 207.5 30.5 207.5 30.5 Z M 210.2 33.6 L 210.2 27.4 L 211.2 27.4 C 211.2 27.4 211.18 28.24 211.2 28.2 C 211.6 27.6 212.3 27.2 213.2 27.2 C 213.5 27.2 213.9 27.3 214.2 27.4 C 214.5 27.6 214.7 27.7 214.9 27.9 C 215.1 28.2 215.2 28.4 215.2 28.7 C 215.3 28.9 215.3 29.3 215.3 29.8 C 215.29 29.75 215.3 33.6 215.3 33.6 L 214.2 33.6 C 214.2 33.6 214.23 29.79 214.2 29.8 C 214.2 29.4 214.2 29 214.1 28.8 C 214 28.6 213.9 28.4 213.7 28.3 C 213.5 28.2 213.2 28.1 212.9 28.1 C 212.5 28.1 212.1 28.3 211.8 28.6 C 211.4 28.8 211.3 29.4 211.3 30.2 C 211.28 30.18 211.3 33.6 211.3 33.6 L 210.2 33.6 Z M 216.7 34.1 C 216.7 34.1 217.7 34.2 217.7 34.2 C 217.8 34.6 217.9 34.8 218.1 34.9 C 218.4 35.1 218.7 35.2 219.2 35.2 C 219.7 35.2 220 35.1 220.3 34.9 C 220.6 34.7 220.7 34.5 220.8 34.1 C 220.9 33.9 220.9 33.5 220.9 32.8 C 220.4 33.3 219.9 33.6 219.2 33.6 C 218.3 33.6 217.7 33.3 217.2 32.7 C 216.7 32 216.5 31.3 216.5 30.4 C 216.5 29.8 216.6 29.3 216.8 28.8 C 217 28.3 217.3 27.9 217.8 27.6 C 218.2 27.4 218.6 27.2 219.2 27.2 C 219.9 27.2 220.5 27.5 221 28.1 C 221.01 28.11 221 27.4 221 27.4 L 222 27.4 C 222 27.4 221.98 32.74 222 32.7 C 222 33.7 221.9 34.4 221.7 34.8 C 221.5 35.2 221.2 35.5 220.7 35.8 C 220.3 36 219.8 36.1 219.2 36.1 C 218.4 36.1 217.8 35.9 217.4 35.6 C 216.9 35.3 216.7 34.8 216.7 34.1 Z M 217.6 30.4 C 217.6 31.2 217.7 31.8 218.1 32.1 C 218.4 32.5 218.8 32.7 219.3 32.7 C 219.8 32.7 220.2 32.5 220.5 32.1 C 220.8 31.8 221 31.2 221 30.4 C 221 29.6 220.8 29.1 220.5 28.7 C 220.2 28.3 219.7 28.1 219.3 28.1 C 218.8 28.1 218.4 28.3 218.1 28.7 C 217.7 29 217.6 29.6 217.6 30.4 Z M 227.8 31.6 C 227.8 31.6 228.9 31.7 228.9 31.7 C 228.8 32.3 228.4 32.8 228 33.2 C 227.5 33.5 226.9 33.7 226.2 33.7 C 225.3 33.7 224.6 33.4 224 32.9 C 223.5 32.3 223.2 31.5 223.2 30.5 C 223.2 29.5 223.5 28.7 224 28.1 C 224.6 27.5 225.3 27.2 226.1 27.2 C 227 27.2 227.6 27.5 228.2 28.1 C 228.7 28.6 229 29.4 229 30.5 C 229 30.5 229 30.6 229 30.7 C 229 30.7 224.3 30.7 224.3 30.7 C 224.4 31.4 224.5 31.9 224.9 32.3 C 225.2 32.7 225.7 32.9 226.2 32.9 C 226.6 32.9 226.9 32.8 227.2 32.5 C 227.5 32.3 227.7 32 227.8 31.6 Z M 224.4 29.9 C 224.4 29.9 227.8 29.9 227.8 29.9 C 227.8 29.3 227.7 29 227.4 28.7 C 227.1 28.3 226.7 28.1 226.1 28.1 C 225.7 28.1 225.3 28.2 224.9 28.6 C 224.6 28.9 224.4 29.3 224.4 29.9 Z M 230.5 33.6 L 230.5 32.4 L 231.7 32.4 C 231.7 32.4 231.73 33.58 231.7 33.6 C 231.7 34 231.6 34.4 231.5 34.6 C 231.3 34.9 231.1 35.1 230.7 35.3 C 230.7 35.3 230.5 34.8 230.5 34.8 C 230.7 34.7 230.8 34.6 230.9 34.4 C 231.1 34.2 231.1 33.9 231.1 33.6 C 231.12 33.58 230.5 33.6 230.5 33.6 Z " stroke="none" fill="#ffffff"/>  </g>  <g id="Polygon39496">    <path d="M 3 0.9 L 3 14.6 L 1.5 14.6 L 1.5 0.9 L 3 0.9 Z M 7.3 0.9 L 17 12.2 L 17 0.9 L 18.4 0.9 L 18.4 14.6 L 17.1 14.6 L 7.5 3.3 L 7.5 14.6 L 6.1 14.6 L 6.1 0.9 L 7.3 0.9 Z M 22.7 0.9 L 32.4 12.2 L 32.4 0.9 L 33.8 0.9 L 33.8 14.6 L 32.5 14.6 L 22.9 3.3 L 22.9 14.6 L 21.5 14.6 L 21.5 0.9 L 22.7 0.9 Z M 50.7 7.7 C 50.7 11.5 47.9 14.8 43.4 14.8 C 39.1 14.8 36.3 11.5 36.3 7.8 C 36.3 4 39 0.8 43.4 0.8 C 47.8 0.8 50.7 3.9 50.7 7.7 Z M 37.8 7.8 C 37.8 11 40.3 13.4 43.4 13.3 C 47.5 13.3 49.1 10.2 49.1 7.7 C 49.1 5 47.1 2.2 43.5 2.2 C 39.8 2.2 37.8 5 37.8 7.8 Z M 51 0.9 L 52.5 0.9 L 57 11.6 L 57 11.6 L 61.4 0.9 L 62.9 0.9 L 57.2 14.7 L 56.8 14.7 L 51 0.9 Z M 68.8 0.9 L 74.9 14.6 L 73.3 14.6 L 71.4 10.3 L 65.2 10.3 L 63.4 14.6 L 61.8 14.6 L 67.7 0.9 L 68.8 0.9 Z M 65.8 9 L 70.8 9 L 68.2 3.2 L 65.8 9 Z M 84.7 0.9 L 84.7 2.3 L 79.8 2.3 L 79.8 14.6 L 78.3 14.6 L 78.3 2.3 L 73.5 2.3 L 73.5 0.9 L 84.7 0.9 Z M 88.1 0.9 L 88.1 14.6 L 86.6 14.6 L 86.6 0.9 L 88.1 0.9 Z M 89.6 0.9 L 91.1 0.9 L 95.6 11.6 L 95.6 11.6 L 100 0.9 L 101.5 0.9 L 95.7 14.7 L 95.4 14.7 L 89.6 0.9 Z M 110.5 0.9 L 110.5 2.3 L 104.6 2.3 L 104.6 7 L 110.3 7 L 110.3 8.4 L 104.6 8.4 L 104.6 13.2 L 110.7 13.2 L 110.7 14.6 L 103.1 14.6 L 103.1 0.9 L 110.5 0.9 Z " stroke="none" fill="#fff"/>  </g></svg>