<?xml version="1.0" standalone="no"?><!DOCTYPE svg PUBLIC "-//W3C//DTD SVG 1.1//EN" "http://www.w3.org/Graphics/SVG/1.1/DTD/svg11.dtd"><svg xmlns="http://www.w3.org/2000/svg" version="1.1" width="31.4px" height="28.5px" viewBox="0 -1 31.4 28.5" style="top:-1px">  <desc>About</desc>  <defs/>  <g id="Polygon46051">    <path d="M 0 20 L 3.3 11.4 L 4.5 11.4 L 8 20 L 6.7 20 L 5.7 17.4 L 2.1 17.4 L 1.2 20 L 0 20 Z M 2.5 16.5 L 5.4 16.5 C 5.4 16.5 4.48 14.09 4.5 14.1 C 4.2 13.4 4 12.8 3.9 12.3 C 3.8 12.9 3.6 13.4 3.4 14 C 3.4 13.95 2.5 16.5 2.5 16.5 Z M 9.8 20 L 8.8 20 L 8.8 11.4 L 9.8 11.4 C 9.8 11.4 9.84 14.47 9.8 14.5 C 10.3 13.9 10.9 13.6 11.5 13.6 C 11.9 13.6 12.3 13.7 12.6 13.9 C 13 14 13.3 14.2 13.5 14.5 C 13.7 14.8 13.9 15.1 14 15.5 C 14.1 15.9 14.2 16.3 14.2 16.8 C 14.2 17.9 13.9 18.7 13.4 19.3 C 12.9 19.8 12.2 20.1 11.5 20.1 C 10.8 20.1 10.2 19.8 9.8 19.2 C 9.77 19.22 9.8 20 9.8 20 Z M 9.8 16.8 C 9.8 17.6 9.9 18.1 10.1 18.5 C 10.4 19 10.8 19.3 11.4 19.3 C 11.9 19.3 12.3 19.1 12.6 18.7 C 12.9 18.3 13.1 17.7 13.1 16.9 C 13.1 16.1 12.9 15.5 12.6 15.1 C 12.3 14.7 11.9 14.5 11.5 14.5 C 11 14.5 10.6 14.7 10.3 15.1 C 9.9 15.5 9.8 16.1 9.8 16.8 Z M 15.1 16.9 C 15.1 15.7 15.4 14.9 16 14.3 C 16.6 13.9 17.2 13.6 18 13.6 C 18.8 13.6 19.5 13.9 20.1 14.5 C 20.6 15 20.9 15.8 20.9 16.8 C 20.9 17.6 20.8 18.2 20.5 18.7 C 20.3 19.1 20 19.5 19.5 19.8 C 19 20 18.5 20.1 18 20.1 C 17.1 20.1 16.4 19.9 15.9 19.3 C 15.3 18.7 15.1 17.9 15.1 16.9 Z M 16.2 16.9 C 16.2 17.7 16.3 18.3 16.7 18.7 C 17 19.1 17.5 19.3 18 19.3 C 18.5 19.3 19 19.1 19.3 18.7 C 19.6 18.3 19.8 17.7 19.8 16.9 C 19.8 16.1 19.6 15.5 19.3 15.1 C 18.9 14.7 18.5 14.5 18 14.5 C 17.5 14.5 17 14.7 16.7 15.1 C 16.3 15.5 16.2 16.1 16.2 16.9 Z M 26.2 20 C 26.2 20 26.22 19.09 26.2 19.1 C 25.7 19.8 25.1 20.1 24.2 20.1 C 23.9 20.1 23.5 20.1 23.2 19.9 C 22.9 19.8 22.7 19.6 22.5 19.4 C 22.4 19.2 22.2 18.9 22.2 18.6 C 22.1 18.4 22.1 18.1 22.1 17.6 C 22.12 17.63 22.1 13.8 22.1 13.8 L 23.2 13.8 C 23.2 13.8 23.17 17.23 23.2 17.2 C 23.2 17.8 23.2 18.2 23.2 18.3 C 23.3 18.6 23.4 18.8 23.7 19 C 23.9 19.2 24.1 19.2 24.5 19.2 C 24.8 19.2 25.1 19.2 25.3 19 C 25.6 18.8 25.8 18.6 25.9 18.3 C 26.1 18 26.1 17.6 26.1 17.1 C 26.11 17.11 26.1 13.8 26.1 13.8 L 27.2 13.8 L 27.2 20 L 26.2 20 Z M 30.7 19.1 C 30.8 19.1 30.9 19.1 31.1 19.1 C 31.1 19.1 31.3 20 31.3 20 C 31 20.1 30.7 20.1 30.5 20.1 C 30.1 20.1 29.8 20 29.6 19.9 C 29.4 19.8 29.2 19.6 29.1 19.4 C 29.1 19.2 29 18.8 29 18.2 C 29.01 18.18 29 14.6 29 14.6 L 28.2 14.6 L 28.2 13.8 L 29 13.8 L 29 12.2 L 30.1 11.6 L 30.1 13.8 L 31.1 13.8 L 31.1 14.6 L 30.1 14.6 C 30.1 14.6 30.06 18.24 30.1 18.2 C 30.1 18.5 30.1 18.7 30.1 18.8 C 30.2 18.9 30.2 19 30.3 19 C 30.4 19.1 30.5 19.1 30.7 19.1 C 30.7 19.1 30.7 19.1 30.7 19.1 Z " stroke="none" fill="#fff"/>  </g></svg>