<?xml version="1.0" standalone="no"?><!DOCTYPE svg PUBLIC "-//W3C//DTD SVG 1.1//EN" "http://www.w3.org/Graphics/SVG/1.1/DTD/svg11.dtd"><svg xmlns="http://www.w3.org/2000/svg" version="1.1" width="204px" height="54.1px" viewBox="0 -1 204 54.1" style="top:-1px">  <desc>Professional</desc>  <defs/>  <g id="Polygon8657">    <path d="M 37.7 32.2 L 37.7 15 C 37.7 15 44.18 15.02 44.2 15 C 45.3 15 46.2 15.1 46.8 15.2 C 47.6 15.3 48.3 15.6 48.9 16 C 49.5 16.4 49.9 16.9 50.3 17.6 C 50.6 18.4 50.8 19.1 50.8 20 C 50.8 21.4 50.3 22.7 49.4 23.7 C 48.5 24.7 46.8 25.2 44.4 25.2 C 44.38 25.21 40 25.2 40 25.2 L 40 32.2 L 37.7 32.2 Z M 40 23.2 C 40 23.2 44.41 23.18 44.4 23.2 C 45.9 23.2 46.9 22.9 47.5 22.4 C 48.2 21.8 48.5 21 48.5 20.1 C 48.5 19.3 48.3 18.7 47.9 18.2 C 47.6 17.7 47.1 17.4 46.5 17.2 C 46.1 17.1 45.4 17 44.4 17 C 44.36 17.04 40 17 40 17 L 40 23.2 Z M 53.4 32.2 L 53.4 19.8 L 55.3 19.8 C 55.3 19.8 55.31 21.64 55.3 21.6 C 55.8 20.8 56.2 20.2 56.7 19.9 C 57.1 19.6 57.5 19.5 58 19.5 C 58.7 19.5 59.4 19.7 60.2 20.1 C 60.2 20.1 59.4 22.1 59.4 22.1 C 58.9 21.8 58.4 21.6 57.9 21.6 C 57.4 21.6 57 21.8 56.7 22.1 C 56.3 22.3 56 22.7 55.9 23.2 C 55.6 24 55.5 24.8 55.5 25.7 C 55.52 25.68 55.5 32.2 55.5 32.2 L 53.4 32.2 Z M 60.6 26 C 60.6 23.7 61.3 22 62.6 20.9 C 63.6 19.9 64.9 19.5 66.5 19.5 C 68.2 19.5 69.6 20 70.7 21.2 C 71.8 22.3 72.3 23.8 72.3 25.8 C 72.3 27.4 72.1 28.7 71.6 29.6 C 71.1 30.5 70.4 31.2 69.5 31.7 C 68.6 32.2 67.6 32.5 66.5 32.5 C 64.7 32.5 63.3 31.9 62.3 30.8 C 61.2 29.7 60.6 28.1 60.6 26 Z M 62.8 26 C 62.8 27.6 63.2 28.8 63.9 29.6 C 64.5 30.3 65.4 30.7 66.5 30.7 C 67.5 30.7 68.4 30.3 69.1 29.5 C 69.8 28.8 70.1 27.5 70.1 25.9 C 70.1 24.4 69.8 23.2 69.1 22.4 C 68.4 21.6 67.5 21.2 66.5 21.2 C 65.4 21.2 64.5 21.6 63.9 22.4 C 63.2 23.2 62.8 24.4 62.8 26 Z M 75.3 32.2 L 75.3 21.4 L 73.4 21.4 L 73.4 19.8 L 75.3 19.8 C 75.3 19.8 75.28 18.43 75.3 18.4 C 75.3 17.6 75.4 17 75.5 16.6 C 75.7 16 76.1 15.6 76.6 15.2 C 77.1 14.9 77.8 14.7 78.7 14.7 C 79.3 14.7 80 14.8 80.7 14.9 C 80.7 14.9 80.4 16.8 80.4 16.8 C 79.9 16.7 79.5 16.7 79.1 16.7 C 78.5 16.7 78 16.8 77.8 17.1 C 77.5 17.3 77.4 17.9 77.4 18.6 C 77.38 18.6 77.4 19.8 77.4 19.8 L 79.8 19.8 L 79.8 21.4 L 77.4 21.4 L 77.4 32.2 L 75.3 32.2 Z M 90 28.2 C 90 28.2 92.1 28.5 92.1 28.5 C 91.8 29.7 91.2 30.7 90.2 31.4 C 89.3 32.1 88.1 32.5 86.7 32.5 C 84.8 32.5 83.4 31.9 82.3 30.8 C 81.3 29.7 80.7 28.1 80.7 26.1 C 80.7 24 81.3 22.4 82.4 21.2 C 83.4 20 84.8 19.5 86.6 19.5 C 88.2 19.5 89.6 20 90.6 21.2 C 91.7 22.3 92.2 23.9 92.2 26 C 92.2 26.1 92.2 26.3 92.2 26.5 C 92.2 26.5 82.9 26.5 82.9 26.5 C 83 27.9 83.4 28.9 84.1 29.7 C 84.8 30.4 85.6 30.7 86.7 30.7 C 87.5 30.7 88.1 30.5 88.7 30.1 C 89.2 29.7 89.6 29.1 90 28.2 Z M 83 24.8 C 83 24.8 90 24.8 90 24.8 C 89.9 23.7 89.6 22.9 89.2 22.4 C 88.5 21.6 87.6 21.2 86.6 21.2 C 85.6 21.2 84.8 21.5 84.1 22.2 C 83.5 22.8 83.1 23.7 83 24.8 Z M 93.9 28.5 C 93.9 28.5 96 28.2 96 28.2 C 96.1 29 96.5 29.6 97 30.1 C 97.5 30.5 98.3 30.7 99.3 30.7 C 100.2 30.7 100.9 30.5 101.4 30.2 C 101.9 29.8 102.1 29.3 102.1 28.8 C 102.1 28.3 101.9 27.9 101.5 27.6 C 101.2 27.5 100.5 27.2 99.3 26.9 C 97.8 26.5 96.7 26.2 96.1 25.9 C 95.5 25.6 95.1 25.2 94.8 24.7 C 94.5 24.2 94.3 23.7 94.3 23.1 C 94.3 22.5 94.4 22 94.7 21.5 C 94.9 21 95.3 20.6 95.7 20.3 C 96 20.1 96.5 19.9 97.1 19.7 C 97.6 19.6 98.2 19.5 98.9 19.5 C 99.9 19.5 100.7 19.6 101.5 19.9 C 102.2 20.2 102.7 20.6 103.1 21 C 103.4 21.5 103.7 22.2 103.8 23 C 103.8 23 101.8 23.2 101.8 23.2 C 101.7 22.6 101.4 22.1 100.9 21.7 C 100.5 21.4 99.9 21.2 99 21.2 C 98.1 21.2 97.4 21.4 97 21.7 C 96.5 22 96.3 22.4 96.3 22.8 C 96.3 23.1 96.4 23.3 96.6 23.5 C 96.8 23.8 97 24 97.4 24.1 C 97.6 24.2 98.2 24.4 99.3 24.6 C 100.8 25 101.8 25.4 102.4 25.6 C 103 25.9 103.4 26.3 103.8 26.7 C 104.1 27.2 104.3 27.8 104.3 28.5 C 104.3 29.2 104.1 29.9 103.7 30.5 C 103.3 31.1 102.7 31.6 101.9 32 C 101.1 32.3 100.2 32.5 99.3 32.5 C 97.6 32.5 96.4 32.1 95.6 31.5 C 94.7 30.8 94.2 29.8 93.9 28.5 Z M 105.9 28.5 C 105.9 28.5 108 28.2 108 28.2 C 108.1 29 108.5 29.6 109 30.1 C 109.5 30.5 110.3 30.7 111.3 30.7 C 112.2 30.7 112.9 30.5 113.4 30.2 C 113.9 29.8 114.1 29.3 114.1 28.8 C 114.1 28.3 113.9 27.9 113.5 27.6 C 113.2 27.5 112.5 27.2 111.3 26.9 C 109.8 26.5 108.7 26.2 108.1 25.9 C 107.5 25.6 107.1 25.2 106.8 24.7 C 106.5 24.2 106.3 23.7 106.3 23.1 C 106.3 22.5 106.4 22 106.7 21.5 C 106.9 21 107.3 20.6 107.7 20.3 C 108 20.1 108.5 19.9 109.1 19.7 C 109.6 19.6 110.2 19.5 110.9 19.5 C 111.9 19.5 112.7 19.6 113.5 19.9 C 114.2 20.2 114.7 20.6 115.1 21 C 115.4 21.5 115.7 22.2 115.8 23 C 115.8 23 113.8 23.2 113.8 23.2 C 113.7 22.6 113.4 22.1 112.9 21.7 C 112.5 21.4 111.9 21.2 111 21.2 C 110.1 21.2 109.4 21.4 109 21.7 C 108.5 22 108.3 22.4 108.3 22.8 C 108.3 23.1 108.4 23.3 108.6 23.5 C 108.8 23.8 109 24 109.4 24.1 C 109.6 24.2 110.2 24.4 111.3 24.6 C 112.8 25 113.8 25.4 114.4 25.6 C 115 25.9 115.4 26.3 115.8 26.7 C 116.1 27.2 116.3 27.8 116.3 28.5 C 116.3 29.2 116.1 29.9 115.7 30.5 C 115.3 31.1 114.7 31.6 113.9 32 C 113.1 32.3 112.2 32.5 111.3 32.5 C 109.6 32.5 108.4 32.1 107.6 31.5 C 106.7 30.8 106.2 29.8 105.9 28.5 Z M 118.8 17.4 L 118.8 15 L 120.9 15 L 120.9 17.4 L 118.8 17.4 Z M 118.8 32.2 L 118.8 19.8 L 120.9 19.8 L 120.9 32.2 L 118.8 32.2 Z M 123.3 26 C 123.3 23.7 124 22 125.3 20.9 C 126.3 19.9 127.6 19.5 129.2 19.5 C 130.9 19.5 132.3 20 133.4 21.2 C 134.5 22.3 135 23.8 135 25.8 C 135 27.4 134.8 28.7 134.3 29.6 C 133.8 30.5 133.1 31.2 132.2 31.7 C 131.3 32.2 130.3 32.5 129.2 32.5 C 127.4 32.5 126 31.9 124.9 30.8 C 123.9 29.7 123.3 28.1 123.3 26 Z M 125.5 26 C 125.5 27.6 125.9 28.8 126.5 29.6 C 127.2 30.3 128.1 30.7 129.2 30.7 C 130.2 30.7 131.1 30.3 131.8 29.5 C 132.5 28.8 132.8 27.5 132.8 25.9 C 132.8 24.4 132.5 23.2 131.8 22.4 C 131.1 21.6 130.2 21.2 129.2 21.2 C 128.1 21.2 127.2 21.6 126.5 22.4 C 125.9 23.2 125.5 24.4 125.5 26 Z M 137.5 32.2 L 137.5 19.8 L 139.4 19.8 C 139.4 19.8 139.37 21.52 139.4 21.5 C 140.3 20.2 141.6 19.5 143.3 19.5 C 144.1 19.5 144.8 19.6 145.4 19.9 C 146 20.1 146.5 20.5 146.8 20.9 C 147.1 21.4 147.3 21.9 147.5 22.5 C 147.5 22.9 147.6 23.6 147.6 24.5 C 147.58 24.54 147.6 32.2 147.6 32.2 L 145.5 32.2 C 145.5 32.2 145.47 24.63 145.5 24.6 C 145.5 23.8 145.4 23.1 145.2 22.7 C 145.1 22.3 144.8 21.9 144.4 21.7 C 143.9 21.4 143.4 21.3 142.9 21.3 C 142 21.3 141.2 21.6 140.6 22.2 C 139.9 22.7 139.6 23.8 139.6 25.4 C 139.58 25.4 139.6 32.2 139.6 32.2 L 137.5 32.2 Z M 159.4 32.2 C 159.1 31.8 159 31.2 158.9 30.7 C 158.2 31.3 157.4 31.8 156.7 32.1 C 156 32.3 155.2 32.5 154.4 32.5 C 153 32.5 151.9 32.1 151.2 31.5 C 150.5 30.8 150.1 30 150.1 28.9 C 150.1 28.3 150.2 27.7 150.5 27.2 C 150.8 26.7 151.2 26.3 151.6 26 C 152.1 25.7 152.6 25.5 153.1 25.3 C 153.5 25.2 154.2 25.1 155 25 C 156.7 24.8 158 24.6 158.8 24.3 C 158.8 24 158.8 23.8 158.8 23.7 C 158.8 22.9 158.6 22.3 158.2 21.9 C 157.6 21.5 156.8 21.2 155.8 21.2 C 154.8 21.2 154 21.4 153.6 21.7 C 153.1 22.1 152.8 22.7 152.5 23.6 C 152.5 23.6 150.5 23.3 150.5 23.3 C 150.7 22.4 151 21.7 151.4 21.2 C 151.8 20.6 152.4 20.2 153.3 19.9 C 154.1 19.6 155 19.5 156.1 19.5 C 157.1 19.5 158 19.6 158.7 19.8 C 159.3 20.1 159.8 20.4 160.1 20.8 C 160.4 21.2 160.7 21.6 160.8 22.2 C 160.9 22.6 160.9 23.2 160.9 24.2 C 160.9 24.2 160.9 27 160.9 27 C 160.9 28.9 160.9 30.2 161 30.7 C 161.1 31.2 161.3 31.7 161.6 32.2 C 161.56 32.2 159.4 32.2 159.4 32.2 C 159.4 32.2 159.36 32.2 159.4 32.2 Z M 158.8 26 C 158 26.3 156.8 26.5 155.3 26.7 C 154.4 26.9 153.8 27 153.5 27.2 C 153.1 27.3 152.8 27.6 152.6 27.9 C 152.4 28.2 152.4 28.5 152.4 28.9 C 152.4 29.4 152.6 29.9 153 30.3 C 153.4 30.6 154 30.8 154.9 30.8 C 155.7 30.8 156.4 30.6 157 30.3 C 157.7 29.9 158.1 29.5 158.4 28.8 C 158.6 28.4 158.8 27.7 158.8 26.7 C 158.8 26.7 158.8 26 158.8 26 Z M 164.1 32.2 L 164.1 15 L 166.2 15 L 166.2 32.2 L 164.1 32.2 Z " stroke="none" fill="#000"/>  </g></svg>