<?xml version="1.0" standalone="no"?><!DOCTYPE svg PUBLIC "-//W3C//DTD SVG 1.1//EN" "http://www.w3.org/Graphics/SVG/1.1/DTD/svg11.dtd"><svg xmlns="http://www.w3.org/2000/svg" version="1.1" width="593px" height="53.5px" viewBox="0 -9 593 53.5" style="top:-9px">  <desc>innovative incisive inspiring integrity</desc>  <defs/>  <g id="Polygon4453">    <path d="M 2.5 9.8 L 4.1 9.8 L 4.1 25.5 L 2.5 25.5 L 2.5 9.8 Z M 4.1 3.6 L 4.1 6.6 L 2.5 6.6 L 2.5 3.6 L 4.1 3.6 Z M 21.4 15.9 C 21.37 15.89 21.4 25.5 21.4 25.5 L 19.7 25.5 C 19.7 25.5 19.73 16.06 19.7 16.1 C 19.7 12.7 18.3 10.9 15.5 10.9 C 13.4 10.9 11.7 12.1 10.5 14.1 C 10.45 14.14 10.5 25.5 10.5 25.5 L 8.8 25.5 L 8.8 9.8 L 10.5 9.8 C 10.5 9.8 10.45 12.49 10.5 12.5 C 11.8 10.6 14 9.5 15.9 9.5 C 19.7 9.5 21.4 12.1 21.4 15.9 Z M 38.5 15.9 C 38.45 15.89 38.5 25.5 38.5 25.5 L 36.8 25.5 C 36.8 25.5 36.81 16.06 36.8 16.1 C 36.8 12.7 35.3 10.9 32.6 10.9 C 30.5 10.9 28.8 12.1 27.5 14.1 C 27.53 14.14 27.5 25.5 27.5 25.5 L 25.9 25.5 L 25.9 9.8 L 27.5 9.8 C 27.5 9.8 27.53 12.49 27.5 12.5 C 28.9 10.6 31.1 9.5 33 9.5 C 36.7 9.5 38.5 12.1 38.5 15.9 Z M 50 9.5 C 54.6 9.5 57.9 12.9 57.9 17.7 C 57.9 22.7 54.2 25.8 50 25.8 C 45 25.8 42 22 42 17.8 C 42 13 45.2 9.5 50 9.5 Z M 50 24.4 C 53.7 24.4 56.3 21.5 56.3 17.7 C 56.3 13.7 53.6 11 49.9 11 C 46.4 11 43.7 13.6 43.7 17.7 C 43.7 21.6 46.4 24.4 50 24.4 Z M 60.6 9.8 L 66 22.6 L 71.2 9.8 L 73 9.8 L 66.3 25.9 L 65.7 25.9 L 58.8 9.8 L 60.6 9.8 Z M 84.8 14.3 C 84.8 14.3 84.8 23.8 84.8 23.8 C 84.8 24.2 84.9 24.4 85.2 24.4 C 85.6 24.4 86.2 24 87.3 23.1 C 87.3 23.1 87.3 24.4 87.3 24.4 C 86 25.4 85.2 25.8 84.4 25.8 C 83.4 25.8 83.1 25.2 83.1 24.4 C 83.1 24.4 83.1 23.6 83.1 23.6 C 81.4 25.3 80 25.8 78.3 25.8 C 75.8 25.8 74.2 24.1 74.2 21.9 C 74.2 18.8 77.1 17 83.1 16.2 C 83.1 16.2 83.1 14.6 83.1 14.6 C 83.1 12.1 82.3 11.1 79.8 11.1 C 77.9 11.1 76.3 11.9 74.8 13.3 C 74.8 13.3 74.8 11.4 74.8 11.4 C 76.2 10.1 78 9.5 79.9 9.5 C 83.3 9.5 84.8 11.2 84.8 14.3 Z M 78.9 24.6 C 80.3 24.6 81.5 24 83.1 22.4 C 83.1 22.4 83.1 17.2 83.1 17.2 C 78.8 17.7 75.8 19.2 75.8 21.7 C 75.8 23.4 77 24.6 78.9 24.6 Z M 87.6 9.8 L 91 9.8 L 91 6.1 L 92.6 5.1 L 92.6 9.8 L 97.3 9.8 L 97.3 11.3 L 92.6 11.3 C 92.6 11.3 92.6 20.75 92.6 20.8 C 92.6 23 92.9 24.3 94.9 24.3 C 95.9 24.3 97 24 98 23.4 C 98 23.4 98 25 98 25 C 97 25.5 95.7 25.8 94.8 25.8 C 92 25.8 91 24.4 91 20.8 C 90.95 20.75 91 11.3 91 11.3 L 87.6 11.3 L 87.6 9.8 Z M 100.6 9.8 L 102.3 9.8 L 102.3 25.5 L 100.6 25.5 L 100.6 9.8 Z M 102.3 3.6 L 102.3 6.6 L 100.6 6.6 L 100.6 3.6 L 102.3 3.6 Z M 106.5 9.8 L 111.8 22.6 L 117.1 9.8 L 118.9 9.8 L 112.2 25.9 L 111.5 25.9 L 104.7 9.8 L 106.5 9.8 Z M 133.2 24 C 131.2 25.3 129.4 25.8 127.4 25.8 C 123 25.8 119.8 22.6 119.8 17.6 C 119.8 12.9 122.6 9.5 126.8 9.5 C 130.7 9.5 133.2 12.2 133.4 17.2 C 133.4 17.2 121.5 17.2 121.5 17.2 C 121.5 17.3 121.5 17.4 121.5 17.7 C 121.5 21.3 123.7 24.3 127.6 24.3 C 129.6 24.3 131.4 23.6 133.2 22.3 C 133.2 22.3 133.2 24 133.2 24 Z M 131.7 16.1 C 131.3 12.8 129.6 11 126.7 11 C 124 11 121.9 13 121.6 16.1 C 121.6 16.1 131.7 16.1 131.7 16.1 Z M 185.5 9.8 L 187.2 9.8 L 187.2 25.5 L 185.5 25.5 L 185.5 9.8 Z M 187.2 3.6 L 187.2 6.6 L 185.5 6.6 L 185.5 3.6 L 187.2 3.6 Z M 204.4 15.9 C 204.42 15.89 204.4 25.5 204.4 25.5 L 202.8 25.5 C 202.8 25.5 202.78 16.06 202.8 16.1 C 202.8 12.7 201.3 10.9 198.6 10.9 C 196.5 10.9 194.7 12.1 193.5 14.1 C 193.5 14.14 193.5 25.5 193.5 25.5 L 191.9 25.5 L 191.9 9.8 L 193.5 9.8 C 193.5 9.8 193.5 12.49 193.5 12.5 C 194.8 10.6 197 9.5 199 9.5 C 202.7 9.5 204.4 12.1 204.4 15.9 Z M 219.9 10.3 C 219.9 10.3 219.9 12.1 219.9 12.1 C 218.4 11.3 217.2 11.1 215.8 11.1 C 212 11.1 209.6 13.9 209.6 17.6 C 209.6 21.2 211.9 24.3 216 24.3 C 217.5 24.3 218.7 23.9 220 23.4 C 220 23.4 220 25.1 220 25.1 C 218.7 25.5 217.3 25.8 215.8 25.8 C 210.8 25.8 207.9 22.1 207.9 17.8 C 207.9 12.7 211.2 9.5 215.7 9.5 C 217.1 9.5 218.3 9.7 219.9 10.3 Z M 223.3 9.8 L 225 9.8 L 225 25.5 L 223.3 25.5 L 223.3 9.8 Z M 225 3.6 L 225 6.6 L 223.3 6.6 L 223.3 3.6 L 225 3.6 Z M 233.5 9.5 C 234.9 9.5 236.3 9.9 237.7 10.6 C 237.7 10.6 237.7 12.4 237.7 12.4 C 236.2 11.4 234.9 11 233.5 11 C 231.5 11 230.5 11.9 230.5 13.4 C 230.5 14.8 231.2 15.6 234.2 16.9 C 236.8 18.1 238.3 19.4 238.3 21.6 C 238.3 23.8 236.5 25.8 233.4 25.8 C 231.8 25.8 230.4 25.5 228.7 24.5 C 228.7 24.5 228.7 22.7 228.7 22.7 C 230.2 23.8 231.9 24.4 233.3 24.4 C 235.4 24.4 236.6 23.2 236.6 21.7 C 236.6 20.2 235.8 19.5 232.6 18 C 230 16.8 228.8 15.6 228.8 13.5 C 228.8 11.1 230.6 9.5 233.5 9.5 Z M 241.9 9.8 L 243.6 9.8 L 243.6 25.5 L 241.9 25.5 L 241.9 9.8 Z M 243.6 3.6 L 243.6 6.6 L 241.9 6.6 L 241.9 3.6 L 243.6 3.6 Z M 247.8 9.8 L 253.1 22.6 L 258.4 9.8 L 260.2 9.8 L 253.5 25.9 L 252.8 25.9 L 246 9.8 L 247.8 9.8 Z M 274.5 24 C 272.5 25.3 270.7 25.8 268.7 25.8 C 264.3 25.8 261 22.6 261 17.6 C 261 12.9 263.8 9.5 268 9.5 C 272 9.5 274.5 12.2 274.7 17.2 C 274.7 17.2 262.8 17.2 262.8 17.2 C 262.8 17.3 262.8 17.4 262.8 17.7 C 262.8 21.3 265 24.3 268.9 24.3 C 270.9 24.3 272.7 23.6 274.5 22.3 C 274.5 22.3 274.5 24 274.5 24 Z M 273 16.1 C 272.6 12.8 270.9 11 268 11 C 265.3 11 263.2 13 262.9 16.1 C 262.9 16.1 273 16.1 273 16.1 Z M 326.8 9.8 L 328.5 9.8 L 328.5 25.5 L 326.8 25.5 L 326.8 9.8 Z M 328.5 3.6 L 328.5 6.6 L 326.8 6.6 L 326.8 3.6 L 328.5 3.6 Z M 345.7 15.9 C 345.71 15.89 345.7 25.5 345.7 25.5 L 344.1 25.5 C 344.1 25.5 344.07 16.06 344.1 16.1 C 344.1 12.7 342.6 10.9 339.9 10.9 C 337.8 10.9 336 12.1 334.8 14.1 C 334.79 14.14 334.8 25.5 334.8 25.5 L 333.1 25.5 L 333.1 9.8 L 334.8 9.8 C 334.8 9.8 334.79 12.49 334.8 12.5 C 336.1 10.6 338.3 9.5 340.3 9.5 C 344 9.5 345.7 12.1 345.7 15.9 Z M 354.1 9.5 C 355.5 9.5 356.8 9.9 358.2 10.6 C 358.2 10.6 358.2 12.4 358.2 12.4 C 356.8 11.4 355.5 11 354.1 11 C 352.1 11 351.1 11.9 351.1 13.4 C 351.1 14.8 351.7 15.6 354.8 16.9 C 357.4 18.1 358.9 19.4 358.9 21.6 C 358.9 23.8 357.1 25.8 353.9 25.8 C 352.3 25.8 351 25.5 349.2 24.5 C 349.2 24.5 349.2 22.7 349.2 22.7 C 350.8 23.8 352.5 24.4 353.8 24.4 C 355.9 24.4 357.2 23.2 357.2 21.7 C 357.2 20.2 356.4 19.5 353.2 18 C 350.6 16.8 349.4 15.6 349.4 13.5 C 349.4 11.1 351.2 9.5 354.1 9.5 Z M 362.5 9.8 C 362.5 9.8 368.53 9.8 368.5 9.8 C 373.3 9.8 376.6 12.7 376.6 17.6 C 376.6 22.3 373.4 25.8 368.8 25.8 C 367.2 25.8 366 25.6 364.2 24.6 C 364.16 24.6 364.2 33.6 364.2 33.6 L 362.5 33.6 L 362.5 9.8 Z M 364.2 23.1 C 365.6 24 367 24.4 368.6 24.4 C 372.4 24.4 374.9 21.6 374.9 17.6 C 374.9 13.6 372.4 11.3 368.4 11.3 C 368.43 11.27 364.2 11.3 364.2 11.3 C 364.2 11.3 364.16 23.1 364.2 23.1 Z M 380.3 9.8 L 381.9 9.8 L 381.9 25.5 L 380.3 25.5 L 380.3 9.8 Z M 381.9 3.6 L 381.9 6.6 L 380.3 6.6 L 380.3 3.6 L 381.9 3.6 Z M 396.8 11.1 C 396.8 11.1 395.9 12.5 395.9 12.5 C 394.6 11.5 393.8 11.1 393 11.1 C 391.5 11.1 389.5 12.7 388.2 15.8 C 388.2 15.82 388.2 25.5 388.2 25.5 L 386.5 25.5 L 386.5 9.8 L 388.2 9.8 C 388.2 9.8 388.2 13.75 388.2 13.8 C 390 10.9 391.8 9.5 393.4 9.5 C 394.6 9.5 395.7 10.1 396.8 11.1 Z M 399.1 9.8 L 400.7 9.8 L 400.7 25.5 L 399.1 25.5 L 399.1 9.8 Z M 400.7 3.6 L 400.7 6.6 L 399.1 6.6 L 399.1 3.6 L 400.7 3.6 Z M 418 15.9 C 417.99 15.89 418 25.5 418 25.5 L 416.3 25.5 C 416.3 25.5 416.34 16.06 416.3 16.1 C 416.3 12.7 414.9 10.9 412.1 10.9 C 410 10.9 408.3 12.1 407.1 14.1 C 407.07 14.14 407.1 25.5 407.1 25.5 L 405.4 25.5 L 405.4 9.8 L 407.1 9.8 C 407.1 9.8 407.07 12.49 407.1 12.5 C 408.4 10.6 410.6 9.5 412.5 9.5 C 416.3 9.5 418 12.1 418 15.9 Z M 434.3 11.1 C 434.3 11.1 430.38 11.13 430.4 11.1 C 432 11.9 432.9 13.5 432.9 15.3 C 432.9 17.8 431.3 20 427.9 20.6 C 425.4 21.1 424.3 21.6 424.3 22.7 C 424.3 24.4 426.2 24.3 429.8 24.8 C 433.2 25.4 434.4 27.1 434.4 29 C 434.4 31.8 431.6 33.6 427.4 33.6 C 422.9 33.6 420.5 31.8 420.5 29.2 C 420.5 27.1 421.8 25.6 424.6 25 C 423.3 24.6 422.7 23.9 422.7 22.9 C 422.7 21.5 423.7 20.7 425.6 20.3 C 423 19.6 421.7 17.6 421.7 15.2 C 421.7 12 424 9.8 428 9.8 C 427.96 9.8 434.3 9.8 434.3 9.8 L 434.3 11.1 Z M 427.3 19.2 C 429.5 19.2 431.3 17.6 431.3 15.2 C 431.3 12.9 429.7 11.2 427.4 11.2 C 425 11.2 423.2 12.8 423.2 15.3 C 423.2 17.6 425 19.2 427.3 19.2 Z M 427.4 32.2 C 430.8 32.2 432.7 31 432.7 29 C 432.7 27.1 430.9 26 427.2 26 C 424.2 26 422.2 27 422.2 29.1 C 422.2 31.1 424 32.2 427.4 32.2 Z M 485.6 9.8 L 487.3 9.8 L 487.3 25.5 L 485.6 25.5 L 485.6 9.8 Z M 487.3 3.6 L 487.3 6.6 L 485.6 6.6 L 485.6 3.6 L 487.3 3.6 Z M 504.5 15.9 C 504.51 15.89 504.5 25.5 504.5 25.5 L 502.9 25.5 C 502.9 25.5 502.86 16.06 502.9 16.1 C 502.9 12.7 501.4 10.9 498.7 10.9 C 496.6 10.9 494.8 12.1 493.6 14.1 C 493.59 14.14 493.6 25.5 493.6 25.5 L 491.9 25.5 L 491.9 9.8 L 493.6 9.8 C 493.6 9.8 493.59 12.49 493.6 12.5 C 494.9 10.6 497.1 9.5 499 9.5 C 502.8 9.5 504.5 12.1 504.5 15.9 Z M 506.5 9.8 L 509.9 9.8 L 509.9 6.1 L 511.6 5.1 L 511.6 9.8 L 516.3 9.8 L 516.3 11.3 L 511.6 11.3 C 511.6 11.3 511.58 20.75 511.6 20.8 C 511.6 23 511.9 24.3 513.9 24.3 C 514.9 24.3 516 24 516.9 23.4 C 516.9 23.4 516.9 25 516.9 25 C 516 25.5 514.7 25.8 513.7 25.8 C 510.9 25.8 509.9 24.4 509.9 20.8 C 509.93 20.75 509.9 11.3 509.9 11.3 L 506.5 11.3 L 506.5 9.8 Z M 532 24 C 530.1 25.3 528.2 25.8 526.2 25.8 C 521.9 25.8 518.6 22.6 518.6 17.6 C 518.6 12.9 521.4 9.5 525.6 9.5 C 529.5 9.5 532 12.2 532.2 17.2 C 532.2 17.2 520.4 17.2 520.4 17.2 C 520.4 17.3 520.3 17.4 520.3 17.7 C 520.3 21.3 522.6 24.3 526.4 24.3 C 528.5 24.3 530.3 23.6 532 22.3 C 532 22.3 532 24 532 24 Z M 530.5 16.1 C 530.1 12.8 528.4 11 525.6 11 C 522.9 11 520.8 13 520.4 16.1 C 520.4 16.1 530.5 16.1 530.5 16.1 Z M 547.5 11.1 C 547.5 11.1 543.6 11.13 543.6 11.1 C 545.2 11.9 546.1 13.5 546.1 15.3 C 546.1 17.8 544.5 20 541.2 20.6 C 538.7 21.1 537.5 21.6 537.5 22.7 C 537.5 24.4 539.4 24.3 543 24.8 C 546.5 25.4 547.6 27.1 547.6 29 C 547.6 31.8 544.8 33.6 540.6 33.6 C 536.1 33.6 533.8 31.8 533.8 29.2 C 533.8 27.1 535 25.6 537.9 25 C 536.5 24.6 535.9 23.9 535.9 22.9 C 535.9 21.5 537 20.7 538.8 20.3 C 536.3 19.6 534.9 17.6 534.9 15.2 C 534.9 12 537.3 9.8 541.2 9.8 C 541.19 9.8 547.5 9.8 547.5 9.8 L 547.5 11.1 Z M 540.5 19.2 C 542.8 19.2 544.5 17.6 544.5 15.2 C 544.5 12.9 542.9 11.2 540.6 11.2 C 538.2 11.2 536.5 12.8 536.5 15.3 C 536.5 17.6 538.2 19.2 540.5 19.2 Z M 540.6 32.2 C 544 32.2 545.9 31 545.9 29 C 545.9 27.1 544.1 26 540.5 26 C 537.4 26 535.4 27 535.4 29.1 C 535.4 31.1 537.2 32.2 540.6 32.2 Z M 560.3 11.1 C 560.3 11.1 559.4 12.5 559.4 12.5 C 558.2 11.5 557.4 11.1 556.5 11.1 C 555 11.1 553 12.7 551.8 15.8 C 551.76 15.82 551.8 25.5 551.8 25.5 L 550.1 25.5 L 550.1 9.8 L 551.8 9.8 C 551.8 9.8 551.76 13.75 551.8 13.8 C 553.5 10.9 555.3 9.5 557 9.5 C 558.2 9.5 559.2 10.1 560.3 11.1 Z M 562.6 9.8 L 564.3 9.8 L 564.3 25.5 L 562.6 25.5 L 562.6 9.8 Z M 564.3 3.6 L 564.3 6.6 L 562.6 6.6 L 562.6 3.6 L 564.3 3.6 Z M 566.5 9.8 L 569.9 9.8 L 569.9 6.1 L 571.5 5.1 L 571.5 9.8 L 576.2 9.8 L 576.2 11.3 L 571.5 11.3 C 571.5 11.3 571.53 20.75 571.5 20.8 C 571.5 23 571.9 24.3 573.9 24.3 C 574.8 24.3 575.9 24 576.9 23.4 C 576.9 23.4 576.9 25 576.9 25 C 575.9 25.5 574.7 25.8 573.7 25.8 C 570.9 25.8 569.9 24.4 569.9 20.8 C 569.89 20.75 569.9 11.3 569.9 11.3 L 566.5 11.3 L 566.5 9.8 Z M 579.9 9.8 L 585.4 20.6 L 590.8 9.8 L 592.5 9.8 L 580.8 33.6 L 579.1 33.6 L 584.6 22.5 L 578 9.8 L 579.9 9.8 Z " stroke="none" fill="#ffffff"/>  </g></svg>