<?xml version="1.0" standalone="no"?><!DOCTYPE svg PUBLIC "-//W3C//DTD SVG 1.1//EN" "http://www.w3.org/Graphics/SVG/1.1/DTD/svg11.dtd"><svg xmlns="http://www.w3.org/2000/svg" version="1.1" width="273px" height="75.5px" viewBox="0 -5 273 75.5" style="top:-5px">  <desc>Integrity Behave with honour, underpinned by strong moral principles, transparency and always in the best interests o...</desc>  <defs/>  <g id="Polygon32955">    <path d="M 0.8 55 L 0.8 53.8 L 1.9 53.8 L 1.9 55 L 0.8 55 Z M 0.8 62.4 L 0.8 56.2 L 1.9 56.2 L 1.9 62.4 L 0.8 62.4 Z M 3.5 62.4 L 3.5 56.2 L 4.4 56.2 C 4.4 56.2 4.41 57.04 4.4 57 C 4.9 56.4 5.5 56 6.4 56 C 6.8 56 7.1 56.1 7.4 56.2 C 7.7 56.4 8 56.5 8.1 56.7 C 8.3 57 8.4 57.2 8.5 57.5 C 8.5 57.7 8.5 58.1 8.5 58.6 C 8.51 58.55 8.5 62.4 8.5 62.4 L 7.5 62.4 C 7.5 62.4 7.46 58.59 7.5 58.6 C 7.5 58.2 7.4 57.8 7.3 57.6 C 7.3 57.4 7.1 57.2 6.9 57.1 C 6.7 57 6.4 56.9 6.2 56.9 C 5.7 56.9 5.3 57.1 5 57.4 C 4.7 57.6 4.5 58.2 4.5 59 C 4.51 58.98 4.5 62.4 4.5 62.4 L 3.5 62.4 Z M 12 61.5 C 12.1 61.5 12.2 61.5 12.4 61.4 C 12.4 61.4 12.6 62.4 12.6 62.4 C 12.3 62.4 12 62.5 11.8 62.5 C 11.4 62.5 11.1 62.4 10.9 62.3 C 10.7 62.2 10.5 62 10.5 61.8 C 10.4 61.6 10.3 61.2 10.3 60.6 C 10.32 60.56 10.3 57 10.3 57 L 9.6 57 L 9.6 56.2 L 10.3 56.2 L 10.3 54.6 L 11.4 54 L 11.4 56.2 L 12.4 56.2 L 12.4 57 L 11.4 57 C 11.4 57 11.37 60.62 11.4 60.6 C 11.4 60.9 11.4 61.1 11.4 61.2 C 11.5 61.3 11.5 61.4 11.6 61.4 C 11.7 61.5 11.8 61.5 12 61.5 C 12 61.5 12 61.5 12 61.5 Z M 17.7 60.4 C 17.7 60.4 18.8 60.5 18.8 60.5 C 18.6 61.1 18.3 61.6 17.9 62 C 17.4 62.3 16.8 62.5 16.1 62.5 C 15.2 62.5 14.4 62.2 13.9 61.7 C 13.4 61.1 13.1 60.3 13.1 59.3 C 13.1 58.3 13.4 57.5 13.9 56.9 C 14.5 56.3 15.2 56 16 56 C 16.9 56 17.5 56.3 18.1 56.9 C 18.6 57.4 18.8 58.2 18.8 59.3 C 18.8 59.3 18.8 59.4 18.8 59.5 C 18.8 59.5 14.2 59.5 14.2 59.5 C 14.2 60.2 14.4 60.7 14.8 61.1 C 15.1 61.5 15.6 61.7 16.1 61.7 C 16.5 61.7 16.8 61.6 17.1 61.3 C 17.3 61.1 17.6 60.8 17.7 60.4 Z M 14.3 58.7 C 14.3 58.7 17.7 58.7 17.7 58.7 C 17.7 58.1 17.6 57.8 17.3 57.5 C 17 57.1 16.6 56.9 16 56.9 C 15.5 56.9 15.1 57 14.8 57.4 C 14.5 57.7 14.3 58.1 14.3 58.7 Z M 20.1 62.4 L 20.1 56.2 L 21.1 56.2 C 21.1 56.2 21.08 57.1 21.1 57.1 C 21.3 56.7 21.5 56.4 21.7 56.2 C 22 56.1 22.2 56 22.4 56 C 22.8 56 23.1 56.1 23.5 56.4 C 23.5 56.4 23.1 57.3 23.1 57.3 C 22.9 57.2 22.6 57.1 22.4 57.1 C 22.1 57.1 21.9 57.2 21.8 57.3 C 21.6 57.5 21.4 57.6 21.4 57.9 C 21.2 58.3 21.2 58.7 21.2 59.1 C 21.18 59.12 21.2 62.4 21.2 62.4 L 20.1 62.4 Z M 28.4 60.4 C 28.4 60.4 29.5 60.5 29.5 60.5 C 29.3 61.1 29 61.6 28.5 62 C 28.1 62.3 27.5 62.5 26.7 62.5 C 25.8 62.5 25.1 62.2 24.6 61.7 C 24 61.1 23.8 60.3 23.8 59.3 C 23.8 58.3 24.1 57.5 24.6 56.9 C 25.1 56.3 25.8 56 26.7 56 C 27.5 56 28.2 56.3 28.7 56.9 C 29.3 57.4 29.5 58.2 29.5 59.3 C 29.5 59.3 29.5 59.4 29.5 59.5 C 29.5 59.5 24.9 59.5 24.9 59.5 C 24.9 60.2 25.1 60.7 25.5 61.1 C 25.8 61.5 26.2 61.7 26.8 61.7 C 27.1 61.7 27.5 61.6 27.7 61.3 C 28 61.1 28.2 60.8 28.4 60.4 Z M 24.9 58.7 C 24.9 58.7 28.4 58.7 28.4 58.7 C 28.4 58.1 28.2 57.8 28 57.5 C 27.7 57.1 27.2 56.9 26.7 56.9 C 26.2 56.9 25.8 57 25.5 57.4 C 25.1 57.7 25 58.1 24.9 58.7 Z M 30.4 60.5 C 30.4 60.5 31.4 60.4 31.4 60.4 C 31.5 60.8 31.7 61.1 31.9 61.3 C 32.2 61.5 32.6 61.7 33 61.7 C 33.5 61.7 33.9 61.6 34.1 61.4 C 34.4 61.2 34.5 60.9 34.5 60.7 C 34.5 60.4 34.4 60.2 34.2 60.1 C 34 60 33.7 59.9 33.1 59.7 C 32.3 59.5 31.8 59.4 31.5 59.2 C 31.2 59.1 30.9 58.9 30.8 58.6 C 30.6 58.4 30.6 58.1 30.6 57.8 C 30.6 57.5 30.6 57.3 30.8 57 C 30.9 56.8 31.1 56.6 31.3 56.5 C 31.4 56.3 31.7 56.2 31.9 56.1 C 32.2 56.1 32.5 56 32.9 56 C 33.3 56 33.8 56.1 34.1 56.2 C 34.5 56.4 34.8 56.6 35 56.8 C 35.1 57 35.3 57.4 35.3 57.8 C 35.3 57.8 34.3 57.9 34.3 57.9 C 34.2 57.6 34.1 57.3 33.9 57.2 C 33.7 57 33.3 56.9 32.9 56.9 C 32.4 56.9 32.1 57 31.9 57.1 C 31.7 57.3 31.6 57.5 31.6 57.7 C 31.6 57.8 31.6 57.9 31.7 58.1 C 31.8 58.2 31.9 58.3 32.1 58.3 C 32.2 58.4 32.5 58.5 33 58.6 C 33.8 58.8 34.3 59 34.6 59.1 C 34.9 59.2 35.1 59.4 35.3 59.6 C 35.5 59.9 35.6 60.2 35.6 60.6 C 35.6 60.9 35.5 61.2 35.2 61.5 C 35 61.9 34.7 62.1 34.4 62.3 C 34 62.4 33.5 62.5 33 62.5 C 32.2 62.5 31.6 62.4 31.2 62 C 30.8 61.7 30.5 61.2 30.4 60.5 Z M 38.6 61.5 C 38.8 61.5 38.9 61.5 39.1 61.4 C 39.1 61.4 39.3 62.4 39.3 62.4 C 39 62.4 38.7 62.5 38.5 62.5 C 38.1 62.5 37.8 62.4 37.6 62.3 C 37.4 62.2 37.2 62 37.1 61.8 C 37 61.6 37 61.2 37 60.6 C 37 60.56 37 57 37 57 L 36.2 57 L 36.2 56.2 L 37 56.2 L 37 54.6 L 38.1 54 L 38.1 56.2 L 39.1 56.2 L 39.1 57 L 38.1 57 C 38.1 57 38.05 60.62 38.1 60.6 C 38.1 60.9 38.1 61.1 38.1 61.2 C 38.1 61.3 38.2 61.4 38.3 61.4 C 38.4 61.5 38.5 61.5 38.6 61.5 C 38.6 61.5 38.6 61.5 38.6 61.5 Z M 39.7 60.5 C 39.7 60.5 40.8 60.4 40.8 60.4 C 40.8 60.8 41 61.1 41.3 61.3 C 41.5 61.5 41.9 61.7 42.4 61.7 C 42.9 61.7 43.2 61.6 43.5 61.4 C 43.7 61.2 43.8 60.9 43.8 60.7 C 43.8 60.4 43.7 60.2 43.5 60.1 C 43.3 60 43 59.9 42.4 59.7 C 41.6 59.5 41.1 59.4 40.8 59.2 C 40.5 59.1 40.3 58.9 40.1 58.6 C 40 58.4 39.9 58.1 39.9 57.8 C 39.9 57.5 40 57.3 40.1 57 C 40.2 56.8 40.4 56.6 40.6 56.5 C 40.8 56.3 41 56.2 41.3 56.1 C 41.6 56.1 41.9 56 42.2 56 C 42.7 56 43.1 56.1 43.5 56.2 C 43.8 56.4 44.1 56.6 44.3 56.8 C 44.5 57 44.6 57.4 44.7 57.8 C 44.7 57.8 43.6 57.9 43.6 57.9 C 43.6 57.6 43.4 57.3 43.2 57.2 C 43 57 42.7 56.9 42.3 56.9 C 41.8 56.9 41.4 57 41.2 57.1 C 41 57.3 40.9 57.5 40.9 57.7 C 40.9 57.8 41 57.9 41 58.1 C 41.1 58.2 41.3 58.3 41.4 58.3 C 41.6 58.4 41.9 58.5 42.4 58.6 C 43.1 58.8 43.6 59 43.9 59.1 C 44.2 59.2 44.5 59.4 44.6 59.6 C 44.8 59.9 44.9 60.2 44.9 60.6 C 44.9 60.9 44.8 61.2 44.6 61.5 C 44.4 61.9 44.1 62.1 43.7 62.3 C 43.3 62.4 42.9 62.5 42.4 62.5 C 41.6 62.5 41 62.4 40.5 62 C 40.1 61.7 39.8 61.2 39.7 60.5 Z M 49.1 59.3 C 49.1 58.1 49.4 57.3 50 56.7 C 50.6 56.2 51.2 56 52 56 C 52.9 56 53.6 56.3 54.1 56.9 C 54.6 57.4 54.9 58.2 54.9 59.2 C 54.9 60 54.8 60.6 54.6 61.1 C 54.3 61.5 54 61.9 53.5 62.1 C 53 62.4 52.5 62.5 52 62.5 C 51.1 62.5 50.4 62.2 49.9 61.7 C 49.4 61.1 49.1 60.3 49.1 59.3 Z M 50.2 59.3 C 50.2 60.1 50.3 60.7 50.7 61.1 C 51 61.5 51.5 61.7 52 61.7 C 52.5 61.7 53 61.5 53.3 61.1 C 53.7 60.7 53.8 60 53.8 59.2 C 53.8 58.5 53.7 57.9 53.3 57.5 C 53 57.1 52.5 56.9 52 56.9 C 51.5 56.9 51 57.1 50.7 57.5 C 50.3 57.9 50.2 58.5 50.2 59.3 Z M 56.4 62.4 L 56.4 57 L 55.5 57 L 55.5 56.2 L 56.4 56.2 C 56.4 56.2 56.4 55.5 56.4 55.5 C 56.4 55.1 56.4 54.8 56.5 54.6 C 56.6 54.3 56.8 54.1 57 53.9 C 57.3 53.7 57.7 53.6 58.1 53.6 C 58.4 53.6 58.7 53.7 59.1 53.7 C 59.1 53.7 59 54.7 59 54.7 C 58.7 54.6 58.5 54.6 58.3 54.6 C 58 54.6 57.8 54.7 57.7 54.8 C 57.5 55 57.5 55.2 57.5 55.6 C 57.45 55.58 57.5 56.2 57.5 56.2 L 58.7 56.2 L 58.7 57 L 57.5 57 L 57.5 62.4 L 56.4 62.4 Z M 62.4 59.3 C 62.4 58.1 62.7 57.3 63.4 56.7 C 63.9 56.2 64.6 56 65.3 56 C 66.2 56 66.9 56.3 67.4 56.9 C 68 57.4 68.3 58.2 68.3 59.2 C 68.3 60 68.1 60.6 67.9 61.1 C 67.7 61.5 67.3 61.9 66.8 62.1 C 66.4 62.4 65.9 62.5 65.3 62.5 C 64.5 62.5 63.8 62.2 63.2 61.7 C 62.7 61.1 62.4 60.3 62.4 59.3 Z M 63.5 59.3 C 63.5 60.1 63.7 60.7 64 61.1 C 64.4 61.5 64.8 61.7 65.3 61.7 C 65.9 61.7 66.3 61.5 66.7 61.1 C 67 60.7 67.2 60 67.2 59.2 C 67.2 58.5 67 57.9 66.6 57.5 C 66.3 57.1 65.9 56.9 65.3 56.9 C 64.8 56.9 64.4 57.1 64 57.5 C 63.7 57.9 63.5 58.5 63.5 59.3 Z M 73.6 62.4 C 73.6 62.4 73.57 61.47 73.6 61.5 C 73.1 62.2 72.4 62.5 71.6 62.5 C 71.2 62.5 70.9 62.5 70.6 62.3 C 70.2 62.2 70 62 69.9 61.8 C 69.7 61.6 69.6 61.3 69.5 61 C 69.5 60.8 69.5 60.5 69.5 60 C 69.47 60.01 69.5 56.2 69.5 56.2 L 70.5 56.2 C 70.5 56.2 70.52 59.61 70.5 59.6 C 70.5 60.2 70.5 60.5 70.6 60.7 C 70.7 61 70.8 61.2 71 61.4 C 71.2 61.5 71.5 61.6 71.8 61.6 C 72.1 61.6 72.4 61.5 72.7 61.4 C 73 61.2 73.2 61 73.3 60.7 C 73.4 60.4 73.5 60 73.5 59.5 C 73.46 59.49 73.5 56.2 73.5 56.2 L 74.5 56.2 L 74.5 62.4 L 73.6 62.4 Z M 76.2 62.4 L 76.2 56.2 L 77.1 56.2 C 77.1 56.2 77.1 57.1 77.1 57.1 C 77.3 56.7 77.6 56.4 77.8 56.2 C 78 56.1 78.2 56 78.5 56 C 78.8 56 79.2 56.1 79.5 56.4 C 79.5 56.4 79.2 57.3 79.2 57.3 C 78.9 57.2 78.7 57.1 78.4 57.1 C 78.2 57.1 78 57.2 77.8 57.3 C 77.6 57.5 77.5 57.6 77.4 57.9 C 77.3 58.3 77.2 58.7 77.2 59.1 C 77.21 59.12 77.2 62.4 77.2 62.4 L 76.2 62.4 Z M 87.6 60.1 C 87.6 60.1 88.6 60.2 88.6 60.2 C 88.5 61 88.2 61.5 87.7 61.9 C 87.3 62.3 86.7 62.5 86 62.5 C 85.2 62.5 84.5 62.2 84 61.7 C 83.4 61.1 83.2 60.3 83.2 59.3 C 83.2 58.6 83.3 58 83.5 57.5 C 83.7 57 84.1 56.6 84.5 56.4 C 85 56.1 85.5 56 86 56 C 86.7 56 87.2 56.2 87.7 56.5 C 88.1 56.9 88.4 57.4 88.5 58 C 88.5 58 87.5 58.1 87.5 58.1 C 87.4 57.7 87.2 57.4 87 57.2 C 86.7 57 86.4 56.9 86.1 56.9 C 85.5 56.9 85.1 57.1 84.8 57.5 C 84.4 57.8 84.3 58.4 84.3 59.3 C 84.3 60.1 84.4 60.7 84.7 61.1 C 85.1 61.5 85.5 61.7 86 61.7 C 86.4 61.7 86.8 61.5 87 61.3 C 87.3 61 87.5 60.6 87.6 60.1 Z M 89.5 62.4 L 89.5 53.8 L 90.5 53.8 L 90.5 62.4 L 89.5 62.4 Z M 92.2 55 L 92.2 53.8 L 93.2 53.8 L 93.2 55 L 92.2 55 Z M 92.2 62.4 L 92.2 56.2 L 93.2 56.2 L 93.2 62.4 L 92.2 62.4 Z M 99.1 60.4 C 99.1 60.4 100.2 60.5 100.2 60.5 C 100 61.1 99.7 61.6 99.2 62 C 98.8 62.3 98.2 62.5 97.4 62.5 C 96.5 62.5 95.8 62.2 95.3 61.7 C 94.7 61.1 94.5 60.3 94.5 59.3 C 94.5 58.3 94.7 57.5 95.3 56.9 C 95.8 56.3 96.5 56 97.4 56 C 98.2 56 98.9 56.3 99.4 56.9 C 99.9 57.4 100.2 58.2 100.2 59.3 C 100.2 59.3 100.2 59.4 100.2 59.5 C 100.2 59.5 95.6 59.5 95.6 59.5 C 95.6 60.2 95.8 60.7 96.1 61.1 C 96.5 61.5 96.9 61.7 97.4 61.7 C 97.8 61.7 98.2 61.6 98.4 61.3 C 98.7 61.1 98.9 60.8 99.1 60.4 Z M 95.6 58.7 C 95.6 58.7 99.1 58.7 99.1 58.7 C 99.1 58.1 98.9 57.8 98.7 57.5 C 98.4 57.1 97.9 56.9 97.4 56.9 C 96.9 56.9 96.5 57 96.2 57.4 C 95.8 57.7 95.7 58.1 95.6 58.7 Z M 101.5 62.4 L 101.5 56.2 L 102.5 56.2 C 102.5 56.2 102.45 57.04 102.5 57 C 102.9 56.4 103.6 56 104.4 56 C 104.8 56 105.2 56.1 105.5 56.2 C 105.8 56.4 106 56.5 106.2 56.7 C 106.3 57 106.4 57.2 106.5 57.5 C 106.5 57.7 106.6 58.1 106.6 58.6 C 106.56 58.55 106.6 62.4 106.6 62.4 L 105.5 62.4 C 105.5 62.4 105.5 58.59 105.5 58.6 C 105.5 58.2 105.5 57.8 105.4 57.6 C 105.3 57.4 105.2 57.2 104.9 57.1 C 104.7 57 104.5 56.9 104.2 56.9 C 103.8 56.9 103.4 57.1 103 57.4 C 102.7 57.6 102.6 58.2 102.6 59 C 102.56 58.98 102.6 62.4 102.6 62.4 L 101.5 62.4 Z M 110 61.5 C 110.1 61.5 110.3 61.5 110.5 61.4 C 110.5 61.4 110.6 62.4 110.6 62.4 C 110.3 62.4 110.1 62.5 109.8 62.5 C 109.5 62.5 109.2 62.4 108.9 62.3 C 108.7 62.2 108.6 62 108.5 61.8 C 108.4 61.6 108.4 61.2 108.4 60.6 C 108.37 60.56 108.4 57 108.4 57 L 107.6 57 L 107.6 56.2 L 108.4 56.2 L 108.4 54.6 L 109.4 54 L 109.4 56.2 L 110.5 56.2 L 110.5 57 L 109.4 57 C 109.4 57 109.42 60.62 109.4 60.6 C 109.4 60.9 109.4 61.1 109.5 61.2 C 109.5 61.3 109.6 61.4 109.7 61.4 C 109.7 61.5 109.9 61.5 110 61.5 C 110 61.5 110 61.5 110 61.5 Z M 111.1 60.5 C 111.1 60.5 112.1 60.4 112.1 60.4 C 112.2 60.8 112.4 61.1 112.6 61.3 C 112.9 61.5 113.3 61.7 113.7 61.7 C 114.2 61.7 114.6 61.6 114.8 61.4 C 115.1 61.2 115.2 60.9 115.2 60.7 C 115.2 60.4 115.1 60.2 114.9 60.1 C 114.7 60 114.4 59.9 113.8 59.7 C 113 59.5 112.5 59.4 112.2 59.2 C 111.9 59.1 111.6 58.9 111.5 58.6 C 111.3 58.4 111.3 58.1 111.3 57.8 C 111.3 57.5 111.3 57.3 111.5 57 C 111.6 56.8 111.8 56.6 112 56.5 C 112.1 56.3 112.4 56.2 112.6 56.1 C 112.9 56.1 113.2 56 113.6 56 C 114 56 114.5 56.1 114.8 56.2 C 115.2 56.4 115.5 56.6 115.7 56.8 C 115.8 57 116 57.4 116 57.8 C 116 57.8 115 57.9 115 57.9 C 114.9 57.6 114.8 57.3 114.6 57.2 C 114.4 57 114 56.9 113.6 56.9 C 113.1 56.9 112.8 57 112.6 57.1 C 112.4 57.3 112.3 57.5 112.3 57.7 C 112.3 57.8 112.3 57.9 112.4 58.1 C 112.5 58.2 112.6 58.3 112.8 58.3 C 112.9 58.4 113.2 58.5 113.7 58.6 C 114.5 58.8 115 59 115.3 59.1 C 115.6 59.2 115.8 59.4 116 59.6 C 116.2 59.9 116.3 60.2 116.3 60.6 C 116.3 60.9 116.2 61.2 115.9 61.5 C 115.7 61.9 115.4 62.1 115.1 62.3 C 114.7 62.4 114.2 62.5 113.7 62.5 C 112.9 62.5 112.3 62.4 111.9 62 C 111.5 61.7 111.2 61.2 111.1 60.5 Z " stroke="none" fill="#ffffff"/>  </g>  <g id="Polygon32954">    <path d="M 0.8 50.4 L 0.8 41.8 L 1.8 41.8 C 1.8 41.8 1.75 42.57 1.8 42.6 C 2 42.2 2.2 42 2.5 41.9 C 2.8 41.7 3.2 41.6 3.6 41.6 C 4.1 41.6 4.6 41.8 5 42 C 5.4 42.3 5.7 42.7 5.9 43.2 C 6.1 43.7 6.2 44.2 6.2 44.8 C 6.2 45.5 6.1 46 5.9 46.5 C 5.6 47.1 5.3 47.4 4.9 47.7 C 4.4 48 4 48.1 3.5 48.1 C 3.1 48.1 2.8 48 2.5 47.9 C 2.3 47.7 2 47.6 1.8 47.3 C 1.85 47.34 1.8 50.4 1.8 50.4 L 0.8 50.4 Z M 1.7 44.9 C 1.7 45.7 1.9 46.3 2.2 46.7 C 2.6 47.1 2.9 47.3 3.4 47.3 C 3.9 47.3 4.3 47.1 4.6 46.7 C 4.9 46.3 5.1 45.6 5.1 44.8 C 5.1 44 5 43.4 4.6 43 C 4.3 42.6 3.9 42.4 3.5 42.4 C 3 42.4 2.6 42.7 2.3 43.1 C 1.9 43.5 1.7 44.1 1.7 44.9 Z M 7.5 48 L 7.5 41.8 L 8.4 41.8 C 8.4 41.8 8.4 42.7 8.4 42.7 C 8.6 42.3 8.9 42 9.1 41.8 C 9.3 41.7 9.5 41.6 9.8 41.6 C 10.1 41.6 10.5 41.7 10.8 42 C 10.8 42 10.5 42.9 10.5 42.9 C 10.2 42.8 10 42.7 9.7 42.7 C 9.5 42.7 9.3 42.8 9.1 42.9 C 8.9 43.1 8.8 43.2 8.7 43.5 C 8.6 43.9 8.5 44.3 8.5 44.7 C 8.51 44.72 8.5 48 8.5 48 L 7.5 48 Z M 11.5 40.6 L 11.5 39.4 L 12.5 39.4 L 12.5 40.6 L 11.5 40.6 Z M 11.5 48 L 11.5 41.8 L 12.5 41.8 L 12.5 48 L 11.5 48 Z M 14.1 48 L 14.1 41.8 L 15.1 41.8 C 15.1 41.8 15.08 42.64 15.1 42.6 C 15.5 42 16.2 41.6 17.1 41.6 C 17.4 41.6 17.8 41.7 18.1 41.8 C 18.4 42 18.6 42.1 18.8 42.3 C 19 42.6 19.1 42.8 19.1 43.1 C 19.2 43.3 19.2 43.7 19.2 44.2 C 19.18 44.15 19.2 48 19.2 48 L 18.1 48 C 18.1 48 18.13 44.19 18.1 44.2 C 18.1 43.8 18.1 43.4 18 43.2 C 17.9 43 17.8 42.8 17.6 42.7 C 17.4 42.6 17.1 42.5 16.8 42.5 C 16.4 42.5 16 42.7 15.7 43 C 15.3 43.2 15.2 43.8 15.2 44.6 C 15.18 44.58 15.2 48 15.2 48 L 14.1 48 Z M 24.9 45.7 C 24.9 45.7 25.9 45.8 25.9 45.8 C 25.8 46.6 25.5 47.1 25 47.5 C 24.6 47.9 24 48.1 23.3 48.1 C 22.5 48.1 21.8 47.8 21.3 47.3 C 20.7 46.7 20.5 45.9 20.5 44.9 C 20.5 44.2 20.6 43.6 20.8 43.1 C 21 42.6 21.4 42.2 21.8 42 C 22.3 41.7 22.8 41.6 23.3 41.6 C 24 41.6 24.5 41.8 25 42.1 C 25.4 42.5 25.7 43 25.8 43.6 C 25.8 43.6 24.8 43.7 24.8 43.7 C 24.7 43.3 24.5 43 24.3 42.8 C 24 42.6 23.7 42.5 23.4 42.5 C 22.8 42.5 22.4 42.7 22.1 43.1 C 21.7 43.4 21.6 44 21.6 44.9 C 21.6 45.7 21.7 46.3 22 46.7 C 22.4 47.1 22.8 47.3 23.3 47.3 C 23.7 47.3 24.1 47.1 24.3 46.9 C 24.6 46.6 24.8 46.2 24.9 45.7 Z M 26.8 40.6 L 26.8 39.4 L 27.9 39.4 L 27.9 40.6 L 26.8 40.6 Z M 26.8 48 L 26.8 41.8 L 27.9 41.8 L 27.9 48 L 26.8 48 Z M 29.5 50.4 L 29.5 41.8 L 30.4 41.8 C 30.4 41.8 30.43 42.57 30.4 42.6 C 30.7 42.2 30.9 42 31.2 41.9 C 31.5 41.7 31.8 41.6 32.2 41.6 C 32.8 41.6 33.2 41.8 33.6 42 C 34 42.3 34.4 42.7 34.6 43.2 C 34.8 43.7 34.9 44.2 34.9 44.8 C 34.9 45.5 34.8 46 34.5 46.5 C 34.3 47.1 34 47.4 33.5 47.7 C 33.1 48 32.6 48.1 32.2 48.1 C 31.8 48.1 31.5 48 31.2 47.9 C 30.9 47.7 30.7 47.6 30.5 47.3 C 30.52 47.34 30.5 50.4 30.5 50.4 L 29.5 50.4 Z M 30.4 44.9 C 30.4 45.7 30.6 46.3 30.9 46.7 C 31.2 47.1 31.6 47.3 32.1 47.3 C 32.6 47.3 33 47.1 33.3 46.7 C 33.6 46.3 33.8 45.6 33.8 44.8 C 33.8 44 33.6 43.4 33.3 43 C 33 42.6 32.6 42.4 32.1 42.4 C 31.7 42.4 31.3 42.7 30.9 43.1 C 30.6 43.5 30.4 44.1 30.4 44.9 Z M 36.1 48 L 36.1 39.4 L 37.2 39.4 L 37.2 48 L 36.1 48 Z M 43.1 46 C 43.1 46 44.2 46.1 44.2 46.1 C 44 46.7 43.7 47.2 43.2 47.6 C 42.7 47.9 42.1 48.1 41.4 48.1 C 40.5 48.1 39.8 47.8 39.3 47.3 C 38.7 46.7 38.5 45.9 38.5 44.9 C 38.5 43.9 38.7 43.1 39.3 42.5 C 39.8 41.9 40.5 41.6 41.4 41.6 C 42.2 41.6 42.9 41.9 43.4 42.5 C 43.9 43 44.2 43.8 44.2 44.9 C 44.2 44.9 44.2 45 44.2 45.1 C 44.2 45.1 39.5 45.1 39.5 45.1 C 39.6 45.8 39.8 46.3 40.1 46.7 C 40.5 47.1 40.9 47.3 41.4 47.3 C 41.8 47.3 42.1 47.2 42.4 46.9 C 42.7 46.7 42.9 46.4 43.1 46 Z M 39.6 44.3 C 39.6 44.3 43.1 44.3 43.1 44.3 C 43 43.7 42.9 43.4 42.7 43.1 C 42.3 42.7 41.9 42.5 41.4 42.5 C 40.9 42.5 40.5 42.6 40.2 43 C 39.8 43.3 39.6 43.7 39.6 44.3 Z M 45.1 46.1 C 45.1 46.1 46.1 46 46.1 46 C 46.2 46.4 46.3 46.7 46.6 46.9 C 46.9 47.1 47.2 47.3 47.7 47.3 C 48.2 47.3 48.6 47.2 48.8 47 C 49 46.8 49.1 46.5 49.1 46.3 C 49.1 46 49 45.8 48.8 45.7 C 48.7 45.6 48.3 45.5 47.8 45.3 C 47 45.1 46.4 45 46.1 44.8 C 45.8 44.7 45.6 44.5 45.5 44.2 C 45.3 44 45.2 43.7 45.2 43.4 C 45.2 43.1 45.3 42.9 45.4 42.6 C 45.6 42.4 45.7 42.2 45.9 42.1 C 46.1 41.9 46.3 41.8 46.6 41.7 C 46.9 41.7 47.2 41.6 47.5 41.6 C 48 41.6 48.4 41.7 48.8 41.8 C 49.2 42 49.5 42.2 49.6 42.4 C 49.8 42.6 49.9 43 50 43.4 C 50 43.4 49 43.5 49 43.5 C 48.9 43.2 48.8 42.9 48.6 42.8 C 48.3 42.6 48 42.5 47.6 42.5 C 47.1 42.5 46.8 42.6 46.6 42.7 C 46.4 42.9 46.3 43.1 46.3 43.3 C 46.3 43.4 46.3 43.5 46.4 43.7 C 46.5 43.8 46.6 43.9 46.8 43.9 C 46.9 44 47.2 44.1 47.7 44.2 C 48.5 44.4 49 44.6 49.3 44.7 C 49.6 44.8 49.8 45 50 45.2 C 50.1 45.5 50.2 45.8 50.2 46.2 C 50.2 46.5 50.1 46.8 49.9 47.1 C 49.7 47.5 49.4 47.7 49 47.9 C 48.6 48 48.2 48.1 47.7 48.1 C 46.9 48.1 46.3 48 45.9 47.6 C 45.4 47.3 45.2 46.8 45.1 46.1 Z M 51.8 48 L 51.8 46.8 L 53 46.8 C 53 46.8 52.96 47.98 53 48 C 53 48.4 52.9 48.8 52.7 49 C 52.6 49.3 52.3 49.5 52 49.7 C 52 49.7 51.7 49.2 51.7 49.2 C 51.9 49.1 52.1 49 52.2 48.8 C 52.3 48.6 52.3 48.3 52.4 48 C 52.35 47.98 51.8 48 51.8 48 Z M 60 47.1 C 60.1 47.1 60.3 47.1 60.5 47 C 60.5 47 60.6 48 60.6 48 C 60.3 48 60 48.1 59.8 48.1 C 59.4 48.1 59.1 48 58.9 47.9 C 58.7 47.8 58.6 47.6 58.5 47.4 C 58.4 47.2 58.3 46.8 58.3 46.2 C 58.34 46.16 58.3 42.6 58.3 42.6 L 57.6 42.6 L 57.6 41.8 L 58.3 41.8 L 58.3 40.2 L 59.4 39.6 L 59.4 41.8 L 60.5 41.8 L 60.5 42.6 L 59.4 42.6 C 59.4 42.6 59.39 46.22 59.4 46.2 C 59.4 46.5 59.4 46.7 59.4 46.8 C 59.5 46.9 59.5 47 59.6 47 C 59.7 47.1 59.8 47.1 60 47.1 C 60 47.1 60 47.1 60 47.1 Z M 61.5 48 L 61.5 41.8 L 62.4 41.8 C 62.4 41.8 62.42 42.7 62.4 42.7 C 62.7 42.3 62.9 42 63.1 41.8 C 63.3 41.7 63.5 41.6 63.8 41.6 C 64.1 41.6 64.5 41.7 64.9 42 C 64.9 42 64.5 42.9 64.5 42.9 C 64.2 42.8 64 42.7 63.7 42.7 C 63.5 42.7 63.3 42.8 63.1 42.9 C 62.9 43.1 62.8 43.2 62.7 43.5 C 62.6 43.9 62.5 44.3 62.5 44.7 C 62.53 44.72 62.5 48 62.5 48 L 61.5 48 Z M 69.8 48 C 69.6 47.8 69.6 47.5 69.5 47.2 C 69.1 47.5 68.8 47.8 68.4 47.9 C 68 48.1 67.7 48.1 67.2 48.1 C 66.6 48.1 66 48 65.7 47.6 C 65.3 47.3 65.1 46.9 65.1 46.3 C 65.1 46 65.2 45.8 65.3 45.5 C 65.5 45.3 65.6 45.1 65.9 44.9 C 66.1 44.7 66.4 44.6 66.6 44.6 C 66.8 44.5 67.2 44.4 67.6 44.4 C 68.4 44.3 69 44.2 69.5 44 C 69.5 43.9 69.5 43.8 69.5 43.8 C 69.5 43.3 69.4 43 69.2 42.8 C 68.9 42.6 68.5 42.5 68 42.5 C 67.5 42.5 67.1 42.6 66.9 42.8 C 66.6 42.9 66.4 43.2 66.3 43.7 C 66.3 43.7 65.3 43.5 65.3 43.5 C 65.4 43.1 65.6 42.7 65.8 42.5 C 66 42.2 66.3 42 66.7 41.8 C 67.1 41.7 67.6 41.6 68.1 41.6 C 68.6 41.6 69.1 41.7 69.4 41.8 C 69.7 41.9 70 42.1 70.1 42.3 C 70.3 42.5 70.4 42.7 70.5 43 C 70.5 43.2 70.5 43.5 70.5 44 C 70.5 44 70.5 45.4 70.5 45.4 C 70.5 46.4 70.5 47 70.6 47.2 C 70.6 47.5 70.7 47.7 70.9 48 C 70.85 47.98 69.8 48 69.8 48 C 69.8 48 69.75 47.98 69.8 48 Z M 69.5 44.9 C 69.1 45 68.5 45.1 67.7 45.3 C 67.3 45.3 67 45.4 66.8 45.5 C 66.6 45.5 66.5 45.7 66.4 45.8 C 66.3 46 66.2 46.1 66.2 46.3 C 66.2 46.6 66.4 46.8 66.6 47 C 66.8 47.2 67.1 47.3 67.5 47.3 C 67.9 47.3 68.3 47.2 68.6 47 C 68.9 46.8 69.1 46.6 69.3 46.3 C 69.4 46.1 69.5 45.7 69.5 45.2 C 69.5 45.2 69.5 44.9 69.5 44.9 Z M 72.2 48 L 72.2 41.8 L 73.1 41.8 C 73.1 41.8 73.1 42.64 73.1 42.6 C 73.6 42 74.2 41.6 75.1 41.6 C 75.5 41.6 75.8 41.7 76.1 41.8 C 76.4 42 76.7 42.1 76.8 42.3 C 77 42.6 77.1 42.8 77.2 43.1 C 77.2 43.3 77.2 43.7 77.2 44.2 C 77.21 44.15 77.2 48 77.2 48 L 76.2 48 C 76.2 48 76.15 44.19 76.2 44.2 C 76.2 43.8 76.1 43.4 76 43.2 C 75.9 43 75.8 42.8 75.6 42.7 C 75.4 42.6 75.1 42.5 74.9 42.5 C 74.4 42.5 74 42.7 73.7 43 C 73.4 43.2 73.2 43.8 73.2 44.6 C 73.21 44.58 73.2 48 73.2 48 L 72.2 48 Z M 78.4 46.1 C 78.4 46.1 79.4 46 79.4 46 C 79.5 46.4 79.7 46.7 79.9 46.9 C 80.2 47.1 80.6 47.3 81.1 47.3 C 81.5 47.3 81.9 47.2 82.1 47 C 82.4 46.8 82.5 46.5 82.5 46.3 C 82.5 46 82.4 45.8 82.2 45.7 C 82 45.6 81.7 45.5 81.1 45.3 C 80.3 45.1 79.8 45 79.5 44.8 C 79.2 44.7 79 44.5 78.8 44.2 C 78.7 44 78.6 43.7 78.6 43.4 C 78.6 43.1 78.6 42.9 78.8 42.6 C 78.9 42.4 79.1 42.2 79.3 42.1 C 79.5 41.9 79.7 41.8 80 41.7 C 80.2 41.7 80.5 41.6 80.9 41.6 C 81.4 41.6 81.8 41.7 82.2 41.8 C 82.5 42 82.8 42.2 83 42.4 C 83.2 42.6 83.3 43 83.3 43.4 C 83.3 43.4 82.3 43.5 82.3 43.5 C 82.3 43.2 82.1 42.9 81.9 42.8 C 81.7 42.6 81.4 42.5 80.9 42.5 C 80.5 42.5 80.1 42.6 79.9 42.7 C 79.7 42.9 79.6 43.1 79.6 43.3 C 79.6 43.4 79.6 43.5 79.7 43.7 C 79.8 43.8 79.9 43.9 80.1 43.9 C 80.2 44 80.5 44.1 81.1 44.2 C 81.8 44.4 82.3 44.6 82.6 44.7 C 82.9 44.8 83.2 45 83.3 45.2 C 83.5 45.5 83.6 45.8 83.6 46.2 C 83.6 46.5 83.5 46.8 83.3 47.1 C 83.1 47.5 82.8 47.7 82.4 47.9 C 82 48 81.6 48.1 81.1 48.1 C 80.3 48.1 79.6 48 79.2 47.6 C 78.8 47.3 78.5 46.8 78.4 46.1 Z M 84.8 50.4 L 84.8 41.8 L 85.8 41.8 C 85.8 41.8 85.79 42.57 85.8 42.6 C 86 42.2 86.3 42 86.6 41.9 C 86.8 41.7 87.2 41.6 87.6 41.6 C 88.1 41.6 88.6 41.8 89 42 C 89.4 42.3 89.7 42.7 89.9 43.2 C 90.1 43.7 90.2 44.2 90.2 44.8 C 90.2 45.5 90.1 46 89.9 46.5 C 89.7 47.1 89.3 47.4 88.9 47.7 C 88.5 48 88 48.1 87.5 48.1 C 87.2 48.1 86.8 48 86.6 47.9 C 86.3 47.7 86.1 47.6 85.9 47.3 C 85.88 47.34 85.9 50.4 85.9 50.4 L 84.8 50.4 Z M 85.8 44.9 C 85.8 45.7 85.9 46.3 86.3 46.7 C 86.6 47.1 87 47.3 87.4 47.3 C 87.9 47.3 88.3 47.1 88.6 46.7 C 89 46.3 89.2 45.6 89.2 44.8 C 89.2 44 89 43.4 88.7 43 C 88.3 42.6 87.9 42.4 87.5 42.4 C 87 42.4 86.6 42.7 86.3 43.1 C 86 43.5 85.8 44.1 85.8 44.9 Z M 95.8 48 C 95.7 47.8 95.6 47.5 95.6 47.2 C 95.2 47.5 94.8 47.8 94.4 47.9 C 94.1 48.1 93.7 48.1 93.3 48.1 C 92.6 48.1 92.1 48 91.7 47.6 C 91.3 47.3 91.1 46.9 91.1 46.3 C 91.1 46 91.2 45.8 91.4 45.5 C 91.5 45.3 91.7 45.1 91.9 44.9 C 92.1 44.7 92.4 44.6 92.7 44.6 C 92.9 44.5 93.2 44.4 93.6 44.4 C 94.4 44.3 95.1 44.2 95.5 44 C 95.5 43.9 95.5 43.8 95.5 43.8 C 95.5 43.3 95.4 43 95.2 42.8 C 94.9 42.6 94.5 42.5 94 42.5 C 93.5 42.5 93.1 42.6 92.9 42.8 C 92.6 42.9 92.5 43.2 92.4 43.7 C 92.4 43.7 91.3 43.5 91.3 43.5 C 91.4 43.1 91.6 42.7 91.8 42.5 C 92 42.2 92.3 42 92.7 41.8 C 93.1 41.7 93.6 41.6 94.1 41.6 C 94.7 41.6 95.1 41.7 95.4 41.8 C 95.8 41.9 96 42.1 96.2 42.3 C 96.3 42.5 96.4 42.7 96.5 43 C 96.5 43.2 96.5 43.5 96.5 44 C 96.5 44 96.5 45.4 96.5 45.4 C 96.5 46.4 96.6 47 96.6 47.2 C 96.7 47.5 96.7 47.7 96.9 48 C 96.87 47.98 95.8 48 95.8 48 C 95.8 48 95.77 47.98 95.8 48 Z M 95.5 44.9 C 95.1 45 94.5 45.1 93.8 45.3 C 93.3 45.3 93 45.4 92.8 45.5 C 92.7 45.5 92.5 45.7 92.4 45.8 C 92.3 46 92.3 46.1 92.3 46.3 C 92.3 46.6 92.4 46.8 92.6 47 C 92.8 47.2 93.1 47.3 93.5 47.3 C 93.9 47.3 94.3 47.2 94.6 47 C 94.9 46.8 95.2 46.6 95.3 46.3 C 95.4 46.1 95.5 45.7 95.5 45.2 C 95.5 45.2 95.5 44.9 95.5 44.9 Z M 98.2 48 L 98.2 41.8 L 99.1 41.8 C 99.1 41.8 99.11 42.7 99.1 42.7 C 99.4 42.3 99.6 42 99.8 41.8 C 100 41.7 100.2 41.6 100.5 41.6 C 100.8 41.6 101.2 41.7 101.5 42 C 101.5 42 101.2 42.9 101.2 42.9 C 100.9 42.8 100.7 42.7 100.4 42.7 C 100.2 42.7 100 42.8 99.8 42.9 C 99.6 43.1 99.5 43.2 99.4 43.5 C 99.3 43.9 99.2 44.3 99.2 44.7 C 99.22 44.72 99.2 48 99.2 48 L 98.2 48 Z M 106.4 46 C 106.4 46 107.5 46.1 107.5 46.1 C 107.3 46.7 107 47.2 106.6 47.6 C 106.1 47.9 105.5 48.1 104.8 48.1 C 103.9 48.1 103.2 47.8 102.6 47.3 C 102.1 46.7 101.8 45.9 101.8 44.9 C 101.8 43.9 102.1 43.1 102.6 42.5 C 103.2 41.9 103.9 41.6 104.7 41.6 C 105.6 41.6 106.2 41.9 106.8 42.5 C 107.3 43 107.6 43.8 107.6 44.9 C 107.6 44.9 107.6 45 107.5 45.1 C 107.5 45.1 102.9 45.1 102.9 45.1 C 102.9 45.8 103.1 46.3 103.5 46.7 C 103.8 47.1 104.3 47.3 104.8 47.3 C 105.2 47.3 105.5 47.2 105.8 46.9 C 106.1 46.7 106.3 46.4 106.4 46 Z M 103 44.3 C 103 44.3 106.4 44.3 106.4 44.3 C 106.4 43.7 106.3 43.4 106 43.1 C 105.7 42.7 105.3 42.5 104.7 42.5 C 104.3 42.5 103.8 42.6 103.5 43 C 103.2 43.3 103 43.7 103 44.3 Z M 108.8 48 L 108.8 41.8 L 109.8 41.8 C 109.8 41.8 109.79 42.64 109.8 42.6 C 110.3 42 110.9 41.6 111.8 41.6 C 112.1 41.6 112.5 41.7 112.8 41.8 C 113.1 42 113.4 42.1 113.5 42.3 C 113.7 42.6 113.8 42.8 113.8 43.1 C 113.9 43.3 113.9 43.7 113.9 44.2 C 113.9 44.15 113.9 48 113.9 48 L 112.8 48 C 112.8 48 112.85 44.19 112.8 44.2 C 112.8 43.8 112.8 43.4 112.7 43.2 C 112.6 43 112.5 42.8 112.3 42.7 C 112.1 42.6 111.8 42.5 111.6 42.5 C 111.1 42.5 110.7 42.7 110.4 43 C 110.1 43.2 109.9 43.8 109.9 44.6 C 109.9 44.58 109.9 48 109.9 48 L 108.8 48 Z M 119.6 45.7 C 119.6 45.7 120.6 45.8 120.6 45.8 C 120.5 46.6 120.2 47.1 119.7 47.5 C 119.3 47.9 118.7 48.1 118 48.1 C 117.2 48.1 116.5 47.8 116 47.3 C 115.5 46.7 115.2 45.9 115.2 44.9 C 115.2 44.2 115.3 43.6 115.5 43.1 C 115.8 42.6 116.1 42.2 116.5 42 C 117 41.7 117.5 41.6 118 41.6 C 118.7 41.6 119.3 41.8 119.7 42.1 C 120.1 42.5 120.4 43 120.5 43.6 C 120.5 43.6 119.5 43.7 119.5 43.7 C 119.4 43.3 119.2 43 119 42.8 C 118.7 42.6 118.4 42.5 118.1 42.5 C 117.5 42.5 117.1 42.7 116.8 43.1 C 116.4 43.4 116.3 44 116.3 44.9 C 116.3 45.7 116.4 46.3 116.8 46.7 C 117.1 47.1 117.5 47.3 118 47.3 C 118.4 47.3 118.8 47.1 119.1 46.9 C 119.3 46.6 119.5 46.2 119.6 45.7 Z M 122.2 50.5 C 121.9 50.5 121.7 50.5 121.5 50.4 C 121.5 50.4 121.4 49.4 121.4 49.4 C 121.6 49.4 121.8 49.5 122 49.5 C 122.2 49.5 122.4 49.4 122.5 49.4 C 122.7 49.3 122.8 49.2 122.9 49 C 122.9 48.9 123 48.7 123.2 48.2 C 123.2 48.2 123.2 48.1 123.3 48 C 123.28 47.99 120.9 41.8 120.9 41.8 L 122.1 41.8 C 122.1 41.8 123.35 45.36 123.4 45.4 C 123.5 45.8 123.7 46.3 123.8 46.8 C 123.9 46.3 124.1 45.8 124.2 45.4 C 124.24 45.38 125.6 41.8 125.6 41.8 L 126.6 41.8 C 126.6 41.8 124.25 48.09 124.3 48.1 C 124 48.8 123.8 49.2 123.7 49.5 C 123.5 49.8 123.3 50.1 123 50.3 C 122.8 50.4 122.5 50.5 122.2 50.5 C 122.2 50.5 122.2 50.5 122.2 50.5 Z M 135.1 48 C 135 47.8 134.9 47.5 134.9 47.2 C 134.5 47.5 134.1 47.8 133.8 47.9 C 133.4 48.1 133 48.1 132.6 48.1 C 131.9 48.1 131.4 48 131 47.6 C 130.7 47.3 130.5 46.9 130.5 46.3 C 130.5 46 130.6 45.8 130.7 45.5 C 130.8 45.3 131 45.1 131.2 44.9 C 131.5 44.7 131.7 44.6 132 44.6 C 132.2 44.5 132.5 44.4 132.9 44.4 C 133.8 44.3 134.4 44.2 134.8 44 C 134.8 43.9 134.8 43.8 134.8 43.8 C 134.8 43.3 134.7 43 134.5 42.8 C 134.3 42.6 133.9 42.5 133.3 42.5 C 132.8 42.5 132.5 42.6 132.2 42.8 C 132 42.9 131.8 43.2 131.7 43.7 C 131.7 43.7 130.7 43.5 130.7 43.5 C 130.8 43.1 130.9 42.7 131.1 42.5 C 131.4 42.2 131.7 42 132.1 41.8 C 132.5 41.7 132.9 41.6 133.5 41.6 C 134 41.6 134.4 41.7 134.8 41.8 C 135.1 41.9 135.4 42.1 135.5 42.3 C 135.7 42.5 135.8 42.7 135.8 43 C 135.9 43.2 135.9 43.5 135.9 44 C 135.9 44 135.9 45.4 135.9 45.4 C 135.9 46.4 135.9 47 136 47.2 C 136 47.5 136.1 47.7 136.2 48 C 136.22 47.98 135.1 48 135.1 48 C 135.1 48 135.12 47.98 135.1 48 Z M 134.8 44.9 C 134.4 45 133.9 45.1 133.1 45.3 C 132.7 45.3 132.4 45.4 132.2 45.5 C 132 45.5 131.9 45.7 131.8 45.8 C 131.7 46 131.6 46.1 131.6 46.3 C 131.6 46.6 131.7 46.8 131.9 47 C 132.2 47.2 132.5 47.3 132.9 47.3 C 133.3 47.3 133.6 47.2 134 47 C 134.3 46.8 134.5 46.6 134.7 46.3 C 134.8 46.1 134.8 45.7 134.8 45.2 C 134.8 45.2 134.8 44.9 134.8 44.9 Z M 137.5 48 L 137.5 41.8 L 138.5 41.8 C 138.5 41.8 138.47 42.64 138.5 42.6 C 138.9 42 139.6 41.6 140.5 41.6 C 140.8 41.6 141.2 41.7 141.5 41.8 C 141.8 42 142 42.1 142.2 42.3 C 142.4 42.6 142.5 42.8 142.5 43.1 C 142.6 43.3 142.6 43.7 142.6 44.2 C 142.58 44.15 142.6 48 142.6 48 L 141.5 48 C 141.5 48 141.53 44.19 141.5 44.2 C 141.5 43.8 141.5 43.4 141.4 43.2 C 141.3 43 141.2 42.8 141 42.7 C 140.8 42.6 140.5 42.5 140.2 42.5 C 139.8 42.5 139.4 42.7 139.1 43 C 138.7 43.2 138.6 43.8 138.6 44.6 C 138.58 44.58 138.6 48 138.6 48 L 137.5 48 Z M 148.2 48 C 148.2 48 148.24 47.19 148.2 47.2 C 147.8 47.8 147.3 48.1 146.5 48.1 C 146 48.1 145.5 48 145.1 47.7 C 144.7 47.4 144.4 47.1 144.2 46.6 C 143.9 46.1 143.8 45.5 143.8 44.9 C 143.8 44.3 143.9 43.7 144.1 43.2 C 144.3 42.7 144.6 42.3 145.1 42 C 145.5 41.8 145.9 41.6 146.4 41.6 C 146.8 41.6 147.2 41.7 147.5 41.9 C 147.7 42 148 42.2 148.2 42.5 C 148.17 42.47 148.2 39.4 148.2 39.4 L 149.2 39.4 L 149.2 48 L 148.2 48 Z M 144.9 44.9 C 144.9 45.7 145.1 46.3 145.4 46.7 C 145.7 47.1 146.1 47.3 146.6 47.3 C 147.1 47.3 147.4 47.1 147.8 46.7 C 148.1 46.3 148.3 45.7 148.3 45 C 148.3 44.1 148.1 43.5 147.8 43.1 C 147.4 42.7 147 42.5 146.5 42.5 C 146.1 42.5 145.7 42.7 145.4 43.1 C 145.1 43.4 144.9 44.1 144.9 44.9 Z M 158.5 48 C 158.4 47.8 158.3 47.5 158.3 47.2 C 157.9 47.5 157.5 47.8 157.1 47.9 C 156.8 48.1 156.4 48.1 156 48.1 C 155.3 48.1 154.8 48 154.4 47.6 C 154 47.3 153.8 46.9 153.8 46.3 C 153.8 46 153.9 45.8 154.1 45.5 C 154.2 45.3 154.4 45.1 154.6 44.9 C 154.8 44.7 155.1 44.6 155.4 44.6 C 155.6 44.5 155.9 44.4 156.3 44.4 C 157.2 44.3 157.8 44.2 158.2 44 C 158.2 43.9 158.2 43.8 158.2 43.8 C 158.2 43.3 158.1 43 157.9 42.8 C 157.6 42.6 157.2 42.5 156.7 42.5 C 156.2 42.5 155.8 42.6 155.6 42.8 C 155.4 42.9 155.2 43.2 155.1 43.7 C 155.1 43.7 154 43.5 154 43.5 C 154.1 43.1 154.3 42.7 154.5 42.5 C 154.7 42.2 155 42 155.4 41.8 C 155.8 41.7 156.3 41.6 156.8 41.6 C 157.4 41.6 157.8 41.7 158.1 41.8 C 158.5 41.9 158.7 42.1 158.9 42.3 C 159 42.5 159.1 42.7 159.2 43 C 159.2 43.2 159.2 43.5 159.2 44 C 159.2 44 159.2 45.4 159.2 45.4 C 159.2 46.4 159.3 47 159.3 47.2 C 159.4 47.5 159.4 47.7 159.6 48 C 159.58 47.98 158.5 48 158.5 48 C 158.5 48 158.48 47.98 158.5 48 Z M 158.2 44.9 C 157.8 45 157.2 45.1 156.5 45.3 C 156 45.3 155.7 45.4 155.5 45.5 C 155.4 45.5 155.2 45.7 155.1 45.8 C 155 46 155 46.1 155 46.3 C 155 46.6 155.1 46.8 155.3 47 C 155.5 47.2 155.8 47.3 156.2 47.3 C 156.6 47.3 157 47.2 157.3 47 C 157.6 46.8 157.9 46.6 158 46.3 C 158.1 46.1 158.2 45.7 158.2 45.2 C 158.2 45.2 158.2 44.9 158.2 44.9 Z M 160.9 48 L 160.9 39.4 L 161.9 39.4 L 161.9 48 L 160.9 48 Z M 164.7 48 L 162.8 41.8 L 163.9 41.8 L 164.9 45.3 C 164.9 45.3 165.24 46.68 165.2 46.7 C 165.3 46.6 165.4 46.2 165.6 45.4 C 165.56 45.4 166.6 41.8 166.6 41.8 L 167.6 41.8 L 168.6 45.4 L 168.9 46.6 L 169.2 45.4 L 170.3 41.8 L 171.3 41.8 L 169.4 48 L 168.3 48 L 167.3 44.3 L 167.1 43.2 L 165.8 48 L 164.7 48 Z M 176.5 48 C 176.4 47.8 176.3 47.5 176.3 47.2 C 175.9 47.5 175.5 47.8 175.1 47.9 C 174.8 48.1 174.4 48.1 174 48.1 C 173.3 48.1 172.8 48 172.4 47.6 C 172 47.3 171.9 46.9 171.9 46.3 C 171.9 46 171.9 45.8 172.1 45.5 C 172.2 45.3 172.4 45.1 172.6 44.9 C 172.8 44.7 173.1 44.6 173.4 44.6 C 173.6 44.5 173.9 44.4 174.3 44.4 C 175.2 44.3 175.8 44.2 176.2 44 C 176.2 43.9 176.2 43.8 176.2 43.8 C 176.2 43.3 176.1 43 175.9 42.8 C 175.6 42.6 175.2 42.5 174.7 42.5 C 174.2 42.5 173.8 42.6 173.6 42.8 C 173.4 42.9 173.2 43.2 173.1 43.7 C 173.1 43.7 172 43.5 172 43.5 C 172.1 43.1 172.3 42.7 172.5 42.5 C 172.7 42.2 173 42 173.4 41.8 C 173.8 41.7 174.3 41.6 174.8 41.6 C 175.4 41.6 175.8 41.7 176.1 41.8 C 176.5 41.9 176.7 42.1 176.9 42.3 C 177 42.5 177.1 42.7 177.2 43 C 177.2 43.2 177.3 43.5 177.3 44 C 177.3 44 177.3 45.4 177.3 45.4 C 177.3 46.4 177.3 47 177.3 47.2 C 177.4 47.5 177.5 47.7 177.6 48 C 177.59 47.98 176.5 48 176.5 48 C 176.5 48 176.48 47.98 176.5 48 Z M 176.2 44.9 C 175.8 45 175.2 45.1 174.5 45.3 C 174 45.3 173.7 45.4 173.5 45.5 C 173.4 45.5 173.2 45.7 173.1 45.8 C 173 46 173 46.1 173 46.3 C 173 46.6 173.1 46.8 173.3 47 C 173.5 47.2 173.8 47.3 174.2 47.3 C 174.6 47.3 175 47.2 175.3 47 C 175.6 46.8 175.9 46.6 176 46.3 C 176.1 46.1 176.2 45.7 176.2 45.2 C 176.2 45.2 176.2 44.9 176.2 44.9 Z M 179.5 50.5 C 179.3 50.5 179.1 50.5 178.8 50.4 C 178.8 50.4 178.7 49.4 178.7 49.4 C 179 49.4 179.2 49.5 179.3 49.5 C 179.6 49.5 179.7 49.4 179.9 49.4 C 180 49.3 180.1 49.2 180.2 49 C 180.3 48.9 180.4 48.7 180.6 48.2 C 180.6 48.2 180.6 48.1 180.7 48 C 180.65 47.99 178.3 41.8 178.3 41.8 L 179.4 41.8 C 179.4 41.8 180.72 45.36 180.7 45.4 C 180.9 45.8 181 46.3 181.2 46.8 C 181.3 46.3 181.4 45.8 181.6 45.4 C 181.61 45.38 182.9 41.8 182.9 41.8 L 184 41.8 C 184 41.8 181.62 48.09 181.6 48.1 C 181.4 48.8 181.2 49.2 181 49.5 C 180.8 49.8 180.6 50.1 180.4 50.3 C 180.1 50.4 179.9 50.5 179.5 50.5 C 179.5 50.5 179.5 50.5 179.5 50.5 Z M 184.5 46.1 C 184.5 46.1 185.5 46 185.5 46 C 185.6 46.4 185.7 46.7 186 46.9 C 186.3 47.1 186.6 47.3 187.1 47.3 C 187.6 47.3 188 47.2 188.2 47 C 188.4 46.8 188.5 46.5 188.5 46.3 C 188.5 46 188.4 45.8 188.2 45.7 C 188.1 45.6 187.7 45.5 187.2 45.3 C 186.4 45.1 185.9 45 185.6 44.8 C 185.3 44.7 185 44.5 184.9 44.2 C 184.7 44 184.6 43.7 184.6 43.4 C 184.6 43.1 184.7 42.9 184.8 42.6 C 185 42.4 185.1 42.2 185.3 42.1 C 185.5 41.9 185.7 41.8 186 41.7 C 186.3 41.7 186.6 41.6 186.9 41.6 C 187.4 41.6 187.8 41.7 188.2 41.8 C 188.6 42 188.9 42.2 189 42.4 C 189.2 42.6 189.3 43 189.4 43.4 C 189.4 43.4 188.4 43.5 188.4 43.5 C 188.3 43.2 188.2 42.9 188 42.8 C 187.7 42.6 187.4 42.5 187 42.5 C 186.5 42.5 186.2 42.6 186 42.7 C 185.8 42.9 185.7 43.1 185.7 43.3 C 185.7 43.4 185.7 43.5 185.8 43.7 C 185.9 43.8 186 43.9 186.2 43.9 C 186.3 44 186.6 44.1 187.1 44.2 C 187.9 44.4 188.4 44.6 188.7 44.7 C 189 44.8 189.2 45 189.4 45.2 C 189.5 45.5 189.6 45.8 189.6 46.2 C 189.6 46.5 189.5 46.8 189.3 47.1 C 189.1 47.5 188.8 47.7 188.4 47.9 C 188.1 48 187.6 48.1 187.1 48.1 C 186.3 48.1 185.7 48 185.3 47.6 C 184.9 47.3 184.6 46.8 184.5 46.1 Z M 194.2 40.6 L 194.2 39.4 L 195.3 39.4 L 195.3 40.6 L 194.2 40.6 Z M 194.2 48 L 194.2 41.8 L 195.3 41.8 L 195.3 48 L 194.2 48 Z M 196.9 48 L 196.9 41.8 L 197.8 41.8 C 197.8 41.8 197.84 42.64 197.8 42.6 C 198.3 42 199 41.6 199.8 41.6 C 200.2 41.6 200.5 41.7 200.9 41.8 C 201.2 42 201.4 42.1 201.6 42.3 C 201.7 42.6 201.8 42.8 201.9 43.1 C 201.9 43.3 201.9 43.7 201.9 44.2 C 201.94 44.15 201.9 48 201.9 48 L 200.9 48 C 200.9 48 200.89 44.19 200.9 44.2 C 200.9 43.8 200.8 43.4 200.8 43.2 C 200.7 43 200.5 42.8 200.3 42.7 C 200.1 42.6 199.9 42.5 199.6 42.5 C 199.1 42.5 198.8 42.7 198.4 43 C 198.1 43.2 197.9 43.8 197.9 44.6 C 197.94 44.58 197.9 48 197.9 48 L 196.9 48 Z M 208.7 47.1 C 208.9 47.1 209 47.1 209.2 47 C 209.2 47 209.3 48 209.3 48 C 209.1 48 208.8 48.1 208.6 48.1 C 208.2 48.1 207.9 48 207.7 47.9 C 207.5 47.8 207.3 47.6 207.2 47.4 C 207.1 47.2 207.1 46.8 207.1 46.2 C 207.09 46.16 207.1 42.6 207.1 42.6 L 206.3 42.6 L 206.3 41.8 L 207.1 41.8 L 207.1 40.2 L 208.1 39.6 L 208.1 41.8 L 209.2 41.8 L 209.2 42.6 L 208.1 42.6 C 208.1 42.6 208.14 46.22 208.1 46.2 C 208.1 46.5 208.2 46.7 208.2 46.8 C 208.2 46.9 208.3 47 208.4 47 C 208.5 47.1 208.6 47.1 208.7 47.1 C 208.7 47.1 208.7 47.1 208.7 47.1 Z M 210.2 48 L 210.2 39.4 L 211.3 39.4 C 211.3 39.4 211.28 42.47 211.3 42.5 C 211.8 41.9 212.4 41.6 213.1 41.6 C 213.6 41.6 214 41.7 214.3 41.9 C 214.7 42.1 214.9 42.3 215.1 42.6 C 215.2 43 215.3 43.4 215.3 44 C 215.3 44.04 215.3 48 215.3 48 L 214.2 48 C 214.2 48 214.24 44.04 214.2 44 C 214.2 43.5 214.1 43.1 213.9 42.9 C 213.7 42.6 213.3 42.5 212.9 42.5 C 212.6 42.5 212.3 42.6 212 42.8 C 211.8 42.9 211.6 43.1 211.5 43.4 C 211.3 43.7 211.3 44.1 211.3 44.6 C 211.28 44.58 211.3 48 211.3 48 L 210.2 48 Z M 221.2 46 C 221.2 46 222.3 46.1 222.3 46.1 C 222.1 46.7 221.8 47.2 221.3 47.6 C 220.8 47.9 220.2 48.1 219.5 48.1 C 218.6 48.1 217.9 47.8 217.4 47.3 C 216.8 46.7 216.6 45.9 216.6 44.9 C 216.6 43.9 216.8 43.1 217.4 42.5 C 217.9 41.9 218.6 41.6 219.5 41.6 C 220.3 41.6 221 41.9 221.5 42.5 C 222 43 222.3 43.8 222.3 44.9 C 222.3 44.9 222.3 45 222.3 45.1 C 222.3 45.1 217.6 45.1 217.6 45.1 C 217.7 45.8 217.9 46.3 218.2 46.7 C 218.6 47.1 219 47.3 219.5 47.3 C 219.9 47.3 220.2 47.2 220.5 46.9 C 220.8 46.7 221 46.4 221.2 46 Z M 217.7 44.3 C 217.7 44.3 221.2 44.3 221.2 44.3 C 221.1 43.7 221 43.4 220.8 43.1 C 220.4 42.7 220 42.5 219.5 42.5 C 219 42.5 218.6 42.6 218.2 43 C 217.9 43.3 217.7 43.7 217.7 44.3 Z M 227.9 48 L 226.9 48 L 226.9 39.4 L 228 39.4 C 228 39.4 227.96 42.45 228 42.5 C 228.4 41.9 229 41.6 229.7 41.6 C 230 41.6 230.4 41.7 230.8 41.8 C 231.1 42 231.4 42.2 231.6 42.5 C 231.8 42.8 232 43.1 232.1 43.5 C 232.2 43.9 232.3 44.3 232.3 44.8 C 232.3 45.8 232 46.7 231.5 47.2 C 231 47.8 230.3 48.1 229.6 48.1 C 228.9 48.1 228.3 47.8 227.9 47.2 C 227.88 47.2 227.9 48 227.9 48 Z M 227.9 44.8 C 227.9 45.6 228 46.1 228.2 46.4 C 228.5 47 229 47.3 229.5 47.3 C 230 47.3 230.4 47.1 230.7 46.7 C 231.1 46.3 231.2 45.7 231.2 44.9 C 231.2 44.1 231.1 43.5 230.7 43.1 C 230.4 42.7 230 42.5 229.6 42.5 C 229.1 42.5 228.7 42.7 228.4 43.1 C 228 43.5 227.9 44.1 227.9 44.8 Z M 237.8 46 C 237.8 46 238.9 46.1 238.9 46.1 C 238.8 46.7 238.4 47.2 238 47.6 C 237.5 47.9 236.9 48.1 236.2 48.1 C 235.3 48.1 234.6 47.8 234 47.3 C 233.5 46.7 233.2 45.9 233.2 44.9 C 233.2 43.9 233.5 43.1 234 42.5 C 234.6 41.9 235.3 41.6 236.1 41.6 C 237 41.6 237.7 41.9 238.2 42.5 C 238.7 43 239 43.8 239 44.9 C 239 44.9 239 45 239 45.1 C 239 45.1 234.3 45.1 234.3 45.1 C 234.4 45.8 234.6 46.3 234.9 46.7 C 235.2 47.1 235.7 47.3 236.2 47.3 C 236.6 47.3 236.9 47.2 237.2 46.9 C 237.5 46.7 237.7 46.4 237.8 46 Z M 234.4 44.3 C 234.4 44.3 237.9 44.3 237.9 44.3 C 237.8 43.7 237.7 43.4 237.5 43.1 C 237.1 42.7 236.7 42.5 236.2 42.5 C 235.7 42.5 235.3 42.6 234.9 43 C 234.6 43.3 234.4 43.7 234.4 44.3 Z M 239.8 46.1 C 239.8 46.1 240.9 46 240.9 46 C 240.9 46.4 241.1 46.7 241.4 46.9 C 241.6 47.1 242 47.3 242.5 47.3 C 243 47.3 243.3 47.2 243.6 47 C 243.8 46.8 243.9 46.5 243.9 46.3 C 243.9 46 243.8 45.8 243.6 45.7 C 243.5 45.6 243.1 45.5 242.5 45.3 C 241.8 45.1 241.2 45 240.9 44.8 C 240.6 44.7 240.4 44.5 240.2 44.2 C 240.1 44 240 43.7 240 43.4 C 240 43.1 240.1 42.9 240.2 42.6 C 240.3 42.4 240.5 42.2 240.7 42.1 C 240.9 41.9 241.1 41.8 241.4 41.7 C 241.7 41.7 242 41.6 242.3 41.6 C 242.8 41.6 243.2 41.7 243.6 41.8 C 244 42 244.2 42.2 244.4 42.4 C 244.6 42.6 244.7 43 244.8 43.4 C 244.8 43.4 243.7 43.5 243.7 43.5 C 243.7 43.2 243.6 42.9 243.3 42.8 C 243.1 42.6 242.8 42.5 242.4 42.5 C 241.9 42.5 241.5 42.6 241.3 42.7 C 241.1 42.9 241 43.1 241 43.3 C 241 43.4 241.1 43.5 241.2 43.7 C 241.2 43.8 241.4 43.9 241.6 43.9 C 241.7 44 242 44.1 242.5 44.2 C 243.2 44.4 243.8 44.6 244.1 44.7 C 244.4 44.8 244.6 45 244.8 45.2 C 244.9 45.5 245 45.8 245 46.2 C 245 46.5 244.9 46.8 244.7 47.1 C 244.5 47.5 244.2 47.7 243.8 47.9 C 243.4 48 243 48.1 242.5 48.1 C 241.7 48.1 241.1 48 240.6 47.6 C 240.2 47.3 240 46.8 239.8 46.1 Z M 248.1 47.1 C 248.2 47.1 248.4 47.1 248.6 47 C 248.6 47 248.7 48 248.7 48 C 248.4 48 248.2 48.1 247.9 48.1 C 247.5 48.1 247.2 48 247 47.9 C 246.8 47.8 246.7 47.6 246.6 47.4 C 246.5 47.2 246.5 46.8 246.5 46.2 C 246.45 46.16 246.5 42.6 246.5 42.6 L 245.7 42.6 L 245.7 41.8 L 246.5 41.8 L 246.5 40.2 L 247.5 39.6 L 247.5 41.8 L 248.6 41.8 L 248.6 42.6 L 247.5 42.6 C 247.5 42.6 247.5 46.22 247.5 46.2 C 247.5 46.5 247.5 46.7 247.6 46.8 C 247.6 46.9 247.7 47 247.7 47 C 247.8 47.1 247.9 47.1 248.1 47.1 C 248.1 47.1 248.1 47.1 248.1 47.1 Z " stroke="none" fill="#ffffff"/>  </g>  <g id="Polygon32953">    <path d="M 0.9 33.6 L 0.9 25 C 0.9 25 4.1 24.99 4.1 25 C 4.8 25 5.3 25.1 5.7 25.3 C 6.1 25.4 6.4 25.7 6.6 26.1 C 6.8 26.4 6.9 26.8 6.9 27.2 C 6.9 27.6 6.8 27.9 6.7 28.2 C 6.5 28.5 6.2 28.8 5.7 29 C 6.3 29.2 6.7 29.4 6.9 29.8 C 7.2 30.2 7.4 30.6 7.4 31.1 C 7.4 31.5 7.3 31.9 7.1 32.2 C 6.9 32.6 6.7 32.8 6.5 33 C 6.2 33.2 5.9 33.3 5.5 33.4 C 5.2 33.5 4.7 33.6 4.2 33.6 C 4.15 33.58 0.9 33.6 0.9 33.6 Z M 2 28.6 C 2 28.6 3.87 28.6 3.9 28.6 C 4.4 28.6 4.7 28.6 5 28.5 C 5.2 28.4 5.5 28.3 5.6 28.1 C 5.8 27.9 5.8 27.6 5.8 27.3 C 5.8 27 5.8 26.8 5.6 26.6 C 5.5 26.4 5.3 26.2 5 26.1 C 4.8 26 4.3 26 3.7 26 C 3.73 26 2 26 2 26 L 2 28.6 Z M 2 32.6 C 2 32.6 4.15 32.57 4.2 32.6 C 4.5 32.6 4.8 32.6 4.9 32.5 C 5.2 32.5 5.4 32.4 5.6 32.3 C 5.8 32.2 5.9 32 6 31.8 C 6.1 31.6 6.2 31.4 6.2 31.1 C 6.2 30.8 6.1 30.5 5.9 30.3 C 5.8 30 5.5 29.9 5.3 29.8 C 5 29.7 4.5 29.6 4 29.6 C 4 29.61 2 29.6 2 29.6 L 2 32.6 Z M 13.1 31.6 C 13.1 31.6 14.1 31.7 14.1 31.7 C 14 32.3 13.7 32.8 13.2 33.2 C 12.7 33.5 12.1 33.7 11.4 33.7 C 10.5 33.7 9.8 33.4 9.2 32.9 C 8.7 32.3 8.4 31.5 8.4 30.5 C 8.4 29.5 8.7 28.7 9.3 28.1 C 9.8 27.5 10.5 27.2 11.3 27.2 C 12.2 27.2 12.9 27.5 13.4 28.1 C 13.9 28.6 14.2 29.4 14.2 30.5 C 14.2 30.5 14.2 30.6 14.2 30.7 C 14.2 30.7 9.5 30.7 9.5 30.7 C 9.6 31.4 9.8 31.9 10.1 32.3 C 10.5 32.7 10.9 32.9 11.4 32.9 C 11.8 32.9 12.1 32.8 12.4 32.5 C 12.7 32.3 12.9 32 13.1 31.6 Z M 9.6 29.9 C 9.6 29.9 13.1 29.9 13.1 29.9 C 13 29.3 12.9 29 12.7 28.7 C 12.3 28.3 11.9 28.1 11.4 28.1 C 10.9 28.1 10.5 28.2 10.1 28.6 C 9.8 28.9 9.6 29.3 9.6 29.9 Z M 15.5 33.6 L 15.5 25 L 16.5 25 C 16.5 25 16.52 28.07 16.5 28.1 C 17 27.5 17.6 27.2 18.4 27.2 C 18.8 27.2 19.2 27.3 19.6 27.5 C 19.9 27.7 20.2 27.9 20.3 28.2 C 20.5 28.6 20.5 29 20.5 29.6 C 20.54 29.64 20.5 33.6 20.5 33.6 L 19.5 33.6 C 19.5 33.6 19.48 29.64 19.5 29.6 C 19.5 29.1 19.4 28.7 19.1 28.5 C 18.9 28.2 18.6 28.1 18.2 28.1 C 17.9 28.1 17.6 28.2 17.3 28.4 C 17 28.5 16.8 28.7 16.7 29 C 16.6 29.3 16.5 29.7 16.5 30.2 C 16.52 30.18 16.5 33.6 16.5 33.6 L 15.5 33.6 Z M 26.4 33.6 C 26.3 33.4 26.2 33.1 26.2 32.8 C 25.8 33.1 25.4 33.4 25.1 33.5 C 24.7 33.7 24.3 33.7 23.9 33.7 C 23.2 33.7 22.7 33.6 22.3 33.2 C 22 32.9 21.8 32.5 21.8 31.9 C 21.8 31.6 21.9 31.4 22 31.1 C 22.1 30.9 22.3 30.7 22.5 30.5 C 22.8 30.3 23 30.2 23.3 30.2 C 23.5 30.1 23.8 30 24.2 30 C 25.1 29.9 25.7 29.8 26.1 29.6 C 26.1 29.5 26.1 29.4 26.1 29.4 C 26.1 28.9 26 28.6 25.8 28.4 C 25.6 28.2 25.2 28.1 24.6 28.1 C 24.1 28.1 23.8 28.2 23.5 28.4 C 23.3 28.5 23.1 28.8 23 29.3 C 23 29.3 22 29.1 22 29.1 C 22.1 28.7 22.2 28.3 22.4 28.1 C 22.6 27.8 23 27.6 23.4 27.4 C 23.8 27.3 24.2 27.2 24.8 27.2 C 25.3 27.2 25.7 27.3 26.1 27.4 C 26.4 27.5 26.6 27.7 26.8 27.9 C 27 28.1 27.1 28.3 27.1 28.6 C 27.2 28.8 27.2 29.1 27.2 29.6 C 27.2 29.6 27.2 31 27.2 31 C 27.2 32 27.2 32.6 27.2 32.8 C 27.3 33.1 27.4 33.3 27.5 33.6 C 27.52 33.58 26.4 33.6 26.4 33.6 C 26.4 33.6 26.41 33.58 26.4 33.6 Z M 26.1 30.5 C 25.7 30.6 25.2 30.7 24.4 30.9 C 24 30.9 23.7 31 23.5 31.1 C 23.3 31.1 23.2 31.3 23.1 31.4 C 23 31.6 22.9 31.7 22.9 31.9 C 22.9 32.2 23 32.4 23.2 32.6 C 23.4 32.8 23.8 32.9 24.2 32.9 C 24.6 32.9 24.9 32.8 25.2 32.6 C 25.6 32.4 25.8 32.2 25.9 31.9 C 26.1 31.7 26.1 31.3 26.1 30.8 C 26.1 30.8 26.1 30.5 26.1 30.5 Z M 30.5 33.6 L 28.2 27.4 L 29.3 27.4 C 29.3 27.4 30.63 31.08 30.6 31.1 C 30.8 31.5 30.9 31.9 31 32.3 C 31.1 32 31.2 31.6 31.4 31.2 C 31.42 31.15 32.8 27.4 32.8 27.4 L 33.9 27.4 L 31.5 33.6 L 30.5 33.6 Z M 39.1 31.6 C 39.1 31.6 40.2 31.7 40.2 31.7 C 40 32.3 39.7 32.8 39.2 33.2 C 38.7 33.5 38.2 33.7 37.4 33.7 C 36.5 33.7 35.8 33.4 35.3 32.9 C 34.7 32.3 34.5 31.5 34.5 30.5 C 34.5 29.5 34.7 28.7 35.3 28.1 C 35.8 27.5 36.5 27.2 37.4 27.2 C 38.2 27.2 38.9 27.5 39.4 28.1 C 39.9 28.6 40.2 29.4 40.2 30.5 C 40.2 30.5 40.2 30.6 40.2 30.7 C 40.2 30.7 35.6 30.7 35.6 30.7 C 35.6 31.4 35.8 31.9 36.1 32.3 C 36.5 32.7 36.9 32.9 37.4 32.9 C 37.8 32.9 38.2 32.8 38.4 32.5 C 38.7 32.3 38.9 32 39.1 31.6 Z M 35.6 29.9 C 35.6 29.9 39.1 29.9 39.1 29.9 C 39 29.3 38.9 29 38.7 28.7 C 38.4 28.3 37.9 28.1 37.4 28.1 C 36.9 28.1 36.5 28.2 36.2 28.6 C 35.8 28.9 35.6 29.3 35.6 29.9 Z M 46 33.6 L 44.1 27.4 L 45.2 27.4 L 46.1 30.9 C 46.1 30.9 46.52 32.28 46.5 32.3 C 46.5 32.2 46.6 31.8 46.8 31 C 46.84 31 47.8 27.4 47.8 27.4 L 48.9 27.4 L 49.8 31 L 50.2 32.2 L 50.5 31 L 51.6 27.4 L 52.6 27.4 L 50.7 33.6 L 49.6 33.6 L 48.6 29.9 L 48.3 28.8 L 47.1 33.6 L 46 33.6 Z M 53.5 26.2 L 53.5 25 L 54.6 25 L 54.6 26.2 L 53.5 26.2 Z M 53.5 33.6 L 53.5 27.4 L 54.6 27.4 L 54.6 33.6 L 53.5 33.6 Z M 58 32.7 C 58.1 32.7 58.3 32.7 58.5 32.6 C 58.5 32.6 58.6 33.6 58.6 33.6 C 58.3 33.6 58 33.7 57.8 33.7 C 57.4 33.7 57.1 33.6 56.9 33.5 C 56.7 33.4 56.6 33.2 56.5 33 C 56.4 32.8 56.3 32.4 56.3 31.8 C 56.35 31.76 56.3 28.2 56.3 28.2 L 55.6 28.2 L 55.6 27.4 L 56.3 27.4 L 56.3 25.8 L 57.4 25.2 L 57.4 27.4 L 58.5 27.4 L 58.5 28.2 L 57.4 28.2 C 57.4 28.2 57.4 31.82 57.4 31.8 C 57.4 32.1 57.4 32.3 57.5 32.4 C 57.5 32.5 57.6 32.6 57.6 32.6 C 57.7 32.7 57.8 32.7 58 32.7 C 58 32.7 58 32.7 58 32.7 Z M 59.5 33.6 L 59.5 25 L 60.5 25 C 60.5 25 60.54 28.07 60.5 28.1 C 61 27.5 61.7 27.2 62.4 27.2 C 62.9 27.2 63.3 27.3 63.6 27.5 C 63.9 27.7 64.2 27.9 64.3 28.2 C 64.5 28.6 64.6 29 64.6 29.6 C 64.56 29.64 64.6 33.6 64.6 33.6 L 63.5 33.6 C 63.5 33.6 63.5 29.64 63.5 29.6 C 63.5 29.1 63.4 28.7 63.2 28.5 C 62.9 28.2 62.6 28.1 62.2 28.1 C 61.9 28.1 61.6 28.2 61.3 28.4 C 61 28.5 60.8 28.7 60.7 29 C 60.6 29.3 60.5 29.7 60.5 30.2 C 60.54 30.18 60.5 33.6 60.5 33.6 L 59.5 33.6 Z M 69.5 33.6 L 69.5 25 L 70.6 25 C 70.6 25 70.55 28.07 70.6 28.1 C 71 27.5 71.7 27.2 72.4 27.2 C 72.9 27.2 73.3 27.3 73.6 27.5 C 74 27.7 74.2 27.9 74.3 28.2 C 74.5 28.6 74.6 29 74.6 29.6 C 74.57 29.64 74.6 33.6 74.6 33.6 L 73.5 33.6 C 73.5 33.6 73.51 29.64 73.5 29.6 C 73.5 29.1 73.4 28.7 73.2 28.5 C 72.9 28.2 72.6 28.1 72.2 28.1 C 71.9 28.1 71.6 28.2 71.3 28.4 C 71 28.5 70.8 28.7 70.7 29 C 70.6 29.3 70.6 29.7 70.6 30.2 C 70.55 30.18 70.6 33.6 70.6 33.6 L 69.5 33.6 Z M 75.8 30.5 C 75.8 29.3 76.1 28.5 76.7 27.9 C 77.3 27.4 77.9 27.2 78.7 27.2 C 79.6 27.2 80.3 27.5 80.8 28.1 C 81.3 28.6 81.6 29.4 81.6 30.4 C 81.6 31.2 81.5 31.8 81.2 32.3 C 81 32.7 80.7 33.1 80.2 33.3 C 79.7 33.6 79.2 33.7 78.7 33.7 C 77.8 33.7 77.1 33.4 76.6 32.9 C 76 32.3 75.8 31.5 75.8 30.5 Z M 76.9 30.5 C 76.9 31.3 77 31.9 77.4 32.3 C 77.7 32.7 78.2 32.9 78.7 32.9 C 79.2 32.9 79.7 32.7 80 32.3 C 80.4 31.9 80.5 31.2 80.5 30.4 C 80.5 29.7 80.4 29.1 80 28.7 C 79.7 28.3 79.2 28.1 78.7 28.1 C 78.2 28.1 77.7 28.3 77.4 28.7 C 77 29.1 76.9 29.7 76.9 30.5 Z M 82.8 33.6 L 82.8 27.4 L 83.8 27.4 C 83.8 27.4 83.79 28.24 83.8 28.2 C 84.3 27.6 84.9 27.2 85.8 27.2 C 86.2 27.2 86.5 27.3 86.8 27.4 C 87.1 27.6 87.4 27.7 87.5 27.9 C 87.7 28.2 87.8 28.4 87.8 28.7 C 87.9 28.9 87.9 29.3 87.9 29.8 C 87.9 29.75 87.9 33.6 87.9 33.6 L 86.8 33.6 C 86.8 33.6 86.85 29.79 86.8 29.8 C 86.8 29.4 86.8 29 86.7 28.8 C 86.6 28.6 86.5 28.4 86.3 28.3 C 86.1 28.2 85.8 28.1 85.6 28.1 C 85.1 28.1 84.7 28.3 84.4 28.6 C 84.1 28.8 83.9 29.4 83.9 30.2 C 83.9 30.18 83.9 33.6 83.9 33.6 L 82.8 33.6 Z M 89.1 30.5 C 89.1 29.3 89.4 28.5 90.1 27.9 C 90.6 27.4 91.3 27.2 92 27.2 C 92.9 27.2 93.6 27.5 94.1 28.1 C 94.7 28.6 95 29.4 95 30.4 C 95 31.2 94.8 31.8 94.6 32.3 C 94.4 32.7 94 33.1 93.5 33.3 C 93.1 33.6 92.6 33.7 92 33.7 C 91.2 33.7 90.5 33.4 89.9 32.9 C 89.4 32.3 89.1 31.5 89.1 30.5 Z M 90.2 30.5 C 90.2 31.3 90.4 31.9 90.7 32.3 C 91.1 32.7 91.5 32.9 92 32.9 C 92.6 32.9 93 32.7 93.4 32.3 C 93.7 31.9 93.9 31.2 93.9 30.4 C 93.9 29.7 93.7 29.1 93.3 28.7 C 93 28.3 92.6 28.1 92 28.1 C 91.5 28.1 91.1 28.3 90.7 28.7 C 90.4 29.1 90.2 29.7 90.2 30.5 Z M 100.3 33.6 C 100.3 33.6 100.27 32.67 100.3 32.7 C 99.8 33.4 99.1 33.7 98.3 33.7 C 97.9 33.7 97.6 33.7 97.3 33.5 C 97 33.4 96.7 33.2 96.6 33 C 96.4 32.8 96.3 32.5 96.2 32.2 C 96.2 32 96.2 31.7 96.2 31.2 C 96.17 31.21 96.2 27.4 96.2 27.4 L 97.2 27.4 C 97.2 27.4 97.22 30.81 97.2 30.8 C 97.2 31.4 97.2 31.7 97.3 31.9 C 97.4 32.2 97.5 32.4 97.7 32.6 C 97.9 32.7 98.2 32.8 98.5 32.8 C 98.8 32.8 99.1 32.7 99.4 32.6 C 99.7 32.4 99.9 32.2 100 31.9 C 100.1 31.6 100.2 31.2 100.2 30.7 C 100.16 30.69 100.2 27.4 100.2 27.4 L 101.2 27.4 L 101.2 33.6 L 100.3 33.6 Z M 102.9 33.6 L 102.9 27.4 L 103.8 27.4 C 103.8 27.4 103.8 28.3 103.8 28.3 C 104 27.9 104.3 27.6 104.5 27.4 C 104.7 27.3 104.9 27.2 105.2 27.2 C 105.5 27.2 105.9 27.3 106.2 27.6 C 106.2 27.6 105.9 28.5 105.9 28.5 C 105.6 28.4 105.4 28.3 105.1 28.3 C 104.9 28.3 104.7 28.4 104.5 28.5 C 104.3 28.7 104.2 28.8 104.1 29.1 C 104 29.5 103.9 29.9 103.9 30.3 C 103.91 30.32 103.9 33.6 103.9 33.6 L 102.9 33.6 Z M 106.5 33.6 L 106.5 32.4 L 107.7 32.4 C 107.7 32.4 107.68 33.58 107.7 33.6 C 107.7 34 107.6 34.4 107.4 34.6 C 107.3 34.9 107 35.1 106.7 35.3 C 106.7 35.3 106.4 34.8 106.4 34.8 C 106.6 34.7 106.8 34.6 106.9 34.4 C 107 34.2 107.1 33.9 107.1 33.6 C 107.07 33.58 106.5 33.6 106.5 33.6 Z M 116.9 33.6 C 116.9 33.6 116.95 32.67 116.9 32.7 C 116.5 33.4 115.8 33.7 115 33.7 C 114.6 33.7 114.3 33.7 113.9 33.5 C 113.6 33.4 113.4 33.2 113.2 33 C 113.1 32.8 113 32.5 112.9 32.2 C 112.9 32 112.8 31.7 112.8 31.2 C 112.85 31.21 112.8 27.4 112.8 27.4 L 113.9 27.4 C 113.9 27.4 113.9 30.81 113.9 30.8 C 113.9 31.4 113.9 31.7 114 31.9 C 114 32.2 114.2 32.4 114.4 32.6 C 114.6 32.7 114.9 32.8 115.2 32.8 C 115.5 32.8 115.8 32.7 116.1 32.6 C 116.4 32.4 116.5 32.2 116.7 31.9 C 116.8 31.6 116.8 31.2 116.8 30.7 C 116.84 30.69 116.8 27.4 116.8 27.4 L 117.9 27.4 L 117.9 33.6 L 116.9 33.6 Z M 119.5 33.6 L 119.5 27.4 L 120.5 27.4 C 120.5 27.4 120.49 28.24 120.5 28.2 C 120.9 27.6 121.6 27.2 122.5 27.2 C 122.8 27.2 123.2 27.3 123.5 27.4 C 123.8 27.6 124.1 27.7 124.2 27.9 C 124.4 28.2 124.5 28.4 124.5 28.7 C 124.6 28.9 124.6 29.3 124.6 29.8 C 124.6 29.75 124.6 33.6 124.6 33.6 L 123.5 33.6 C 123.5 33.6 123.54 29.79 123.5 29.8 C 123.5 29.4 123.5 29 123.4 28.8 C 123.3 28.6 123.2 28.4 123 28.3 C 122.8 28.2 122.5 28.1 122.3 28.1 C 121.8 28.1 121.4 28.3 121.1 28.6 C 120.8 28.8 120.6 29.4 120.6 30.2 C 120.6 30.18 120.6 33.6 120.6 33.6 L 119.5 33.6 Z M 130.3 33.6 C 130.3 33.6 130.25 32.79 130.3 32.8 C 129.9 33.4 129.3 33.7 128.5 33.7 C 128 33.7 127.6 33.6 127.1 33.3 C 126.7 33 126.4 32.7 126.2 32.2 C 126 31.7 125.8 31.1 125.8 30.5 C 125.8 29.9 125.9 29.3 126.1 28.8 C 126.4 28.3 126.7 27.9 127.1 27.6 C 127.5 27.4 128 27.2 128.5 27.2 C 128.8 27.2 129.2 27.3 129.5 27.5 C 129.8 27.6 130 27.8 130.2 28.1 C 130.18 28.07 130.2 25 130.2 25 L 131.2 25 L 131.2 33.6 L 130.3 33.6 Z M 126.9 30.5 C 126.9 31.3 127.1 31.9 127.4 32.3 C 127.8 32.7 128.2 32.9 128.6 32.9 C 129.1 32.9 129.5 32.7 129.8 32.3 C 130.1 31.9 130.3 31.3 130.3 30.6 C 130.3 29.7 130.1 29.1 129.8 28.7 C 129.5 28.3 129 28.1 128.6 28.1 C 128.1 28.1 127.7 28.3 127.4 28.7 C 127.1 29 126.9 29.7 126.9 30.5 Z M 137.2 31.6 C 137.2 31.6 138.2 31.7 138.2 31.7 C 138.1 32.3 137.7 32.8 137.3 33.2 C 136.8 33.5 136.2 33.7 135.5 33.7 C 134.6 33.7 133.9 33.4 133.3 32.9 C 132.8 32.3 132.5 31.5 132.5 30.5 C 132.5 29.5 132.8 28.7 133.3 28.1 C 133.9 27.5 134.6 27.2 135.4 27.2 C 136.3 27.2 137 27.5 137.5 28.1 C 138 28.6 138.3 29.4 138.3 30.5 C 138.3 30.5 138.3 30.6 138.3 30.7 C 138.3 30.7 133.6 30.7 133.6 30.7 C 133.7 31.4 133.9 31.9 134.2 32.3 C 134.6 32.7 135 32.9 135.5 32.9 C 135.9 32.9 136.2 32.8 136.5 32.5 C 136.8 32.3 137 32 137.2 31.6 Z M 133.7 29.9 C 133.7 29.9 137.2 29.9 137.2 29.9 C 137.1 29.3 137 29 136.8 28.7 C 136.4 28.3 136 28.1 135.5 28.1 C 135 28.1 134.6 28.2 134.2 28.6 C 133.9 28.9 133.7 29.3 133.7 29.9 Z M 139.6 33.6 L 139.6 27.4 L 140.5 27.4 C 140.5 27.4 140.5 28.3 140.5 28.3 C 140.7 27.9 141 27.6 141.2 27.4 C 141.4 27.3 141.6 27.2 141.8 27.2 C 142.2 27.2 142.6 27.3 142.9 27.6 C 142.9 27.6 142.6 28.5 142.6 28.5 C 142.3 28.4 142.1 28.3 141.8 28.3 C 141.6 28.3 141.4 28.4 141.2 28.5 C 141 28.7 140.9 28.8 140.8 29.1 C 140.7 29.5 140.6 29.9 140.6 30.3 C 140.61 30.32 140.6 33.6 140.6 33.6 L 139.6 33.6 Z M 143.6 36 L 143.6 27.4 L 144.5 27.4 C 144.5 27.4 144.52 28.17 144.5 28.2 C 144.7 27.8 145 27.6 145.3 27.5 C 145.6 27.3 145.9 27.2 146.3 27.2 C 146.9 27.2 147.3 27.4 147.7 27.6 C 148.1 27.9 148.4 28.3 148.7 28.8 C 148.9 29.3 149 29.8 149 30.4 C 149 31.1 148.8 31.6 148.6 32.1 C 148.4 32.7 148.1 33 147.6 33.3 C 147.2 33.6 146.7 33.7 146.3 33.7 C 145.9 33.7 145.6 33.6 145.3 33.5 C 145 33.3 144.8 33.2 144.6 32.9 C 144.62 32.94 144.6 36 144.6 36 L 143.6 36 Z M 144.5 30.5 C 144.5 31.3 144.7 31.9 145 32.3 C 145.3 32.7 145.7 32.9 146.2 32.9 C 146.6 32.9 147 32.7 147.4 32.3 C 147.7 31.9 147.9 31.2 147.9 30.4 C 147.9 29.6 147.7 29 147.4 28.6 C 147.1 28.2 146.7 28 146.2 28 C 145.8 28 145.4 28.3 145 28.7 C 144.7 29.1 144.5 29.7 144.5 30.5 Z M 150.2 26.2 L 150.2 25 L 151.3 25 L 151.3 26.2 L 150.2 26.2 Z M 150.2 33.6 L 150.2 27.4 L 151.3 27.4 L 151.3 33.6 L 150.2 33.6 Z M 152.9 33.6 L 152.9 27.4 L 153.8 27.4 C 153.8 27.4 153.85 28.24 153.8 28.2 C 154.3 27.6 155 27.2 155.8 27.2 C 156.2 27.2 156.5 27.3 156.9 27.4 C 157.2 27.6 157.4 27.7 157.6 27.9 C 157.7 28.2 157.8 28.4 157.9 28.7 C 157.9 28.9 158 29.3 158 29.8 C 157.96 29.75 158 33.6 158 33.6 L 156.9 33.6 C 156.9 33.6 156.9 29.79 156.9 29.8 C 156.9 29.4 156.9 29 156.8 28.8 C 156.7 28.6 156.6 28.4 156.3 28.3 C 156.1 28.2 155.9 28.1 155.6 28.1 C 155.2 28.1 154.8 28.3 154.4 28.6 C 154.1 28.8 154 29.4 154 30.2 C 153.96 30.18 154 33.6 154 33.6 L 152.9 33.6 Z M 159.6 33.6 L 159.6 27.4 L 160.5 27.4 C 160.5 27.4 160.52 28.24 160.5 28.2 C 161 27.6 161.6 27.2 162.5 27.2 C 162.9 27.2 163.2 27.3 163.5 27.4 C 163.9 27.6 164.1 27.7 164.2 27.9 C 164.4 28.2 164.5 28.4 164.6 28.7 C 164.6 28.9 164.6 29.3 164.6 29.8 C 164.63 29.75 164.6 33.6 164.6 33.6 L 163.6 33.6 C 163.6 33.6 163.58 29.79 163.6 29.8 C 163.6 29.4 163.5 29 163.5 28.8 C 163.4 28.6 163.2 28.4 163 28.3 C 162.8 28.2 162.6 28.1 162.3 28.1 C 161.8 28.1 161.4 28.3 161.1 28.6 C 160.8 28.8 160.6 29.4 160.6 30.2 C 160.63 30.18 160.6 33.6 160.6 33.6 L 159.6 33.6 Z M 170.5 31.6 C 170.5 31.6 171.6 31.7 171.6 31.7 C 171.4 32.3 171.1 32.8 170.6 33.2 C 170.2 33.5 169.6 33.7 168.9 33.7 C 168 33.7 167.2 33.4 166.7 32.9 C 166.2 32.3 165.9 31.5 165.9 30.5 C 165.9 29.5 166.2 28.7 166.7 28.1 C 167.2 27.5 167.9 27.2 168.8 27.2 C 169.6 27.2 170.3 27.5 170.8 28.1 C 171.4 28.6 171.6 29.4 171.6 30.5 C 171.6 30.5 171.6 30.6 171.6 30.7 C 171.6 30.7 167 30.7 167 30.7 C 167 31.4 167.2 31.9 167.6 32.3 C 167.9 32.7 168.3 32.9 168.9 32.9 C 169.3 32.9 169.6 32.8 169.9 32.5 C 170.1 32.3 170.3 32 170.5 31.6 Z M 167 29.9 C 167 29.9 170.5 29.9 170.5 29.9 C 170.5 29.3 170.3 29 170.1 28.7 C 169.8 28.3 169.3 28.1 168.8 28.1 C 168.3 28.1 167.9 28.2 167.6 28.6 C 167.3 28.9 167.1 29.3 167 29.9 Z M 177 33.6 C 177 33.6 176.96 32.79 177 32.8 C 176.6 33.4 176 33.7 175.2 33.7 C 174.7 33.7 174.3 33.6 173.9 33.3 C 173.4 33 173.1 32.7 172.9 32.2 C 172.7 31.7 172.5 31.1 172.5 30.5 C 172.5 29.9 172.6 29.3 172.9 28.8 C 173.1 28.3 173.4 27.9 173.8 27.6 C 174.2 27.4 174.7 27.2 175.2 27.2 C 175.5 27.2 175.9 27.3 176.2 27.5 C 176.5 27.6 176.7 27.8 176.9 28.1 C 176.89 28.07 176.9 25 176.9 25 L 177.9 25 L 177.9 33.6 L 177 33.6 Z M 173.6 30.5 C 173.6 31.3 173.8 31.9 174.1 32.3 C 174.5 32.7 174.9 32.9 175.3 32.9 C 175.8 32.9 176.2 32.7 176.5 32.3 C 176.8 31.9 177 31.3 177 30.6 C 177 29.7 176.8 29.1 176.5 28.7 C 176.2 28.3 175.8 28.1 175.3 28.1 C 174.8 28.1 174.4 28.3 174.1 28.7 C 173.8 29 173.6 29.7 173.6 30.5 Z M 183.9 33.6 L 182.9 33.6 L 182.9 25 L 184 25 C 184 25 183.98 28.05 184 28.1 C 184.4 27.5 185 27.2 185.7 27.2 C 186.1 27.2 186.4 27.3 186.8 27.4 C 187.1 27.6 187.4 27.8 187.6 28.1 C 187.8 28.4 188 28.7 188.1 29.1 C 188.3 29.5 188.3 29.9 188.3 30.4 C 188.3 31.4 188.1 32.3 187.5 32.8 C 187 33.4 186.4 33.7 185.6 33.7 C 184.9 33.7 184.3 33.4 183.9 32.8 C 183.9 32.8 183.9 33.6 183.9 33.6 Z M 183.9 30.4 C 183.9 31.2 184 31.7 184.2 32 C 184.5 32.6 185 32.9 185.5 32.9 C 186 32.9 186.4 32.7 186.7 32.3 C 187.1 31.9 187.2 31.3 187.2 30.5 C 187.2 29.7 187.1 29.1 186.8 28.7 C 186.4 28.3 186 28.1 185.6 28.1 C 185.1 28.1 184.7 28.3 184.4 28.7 C 184.1 29.1 183.9 29.7 183.9 30.4 Z M 190.2 36.1 C 190 36.1 189.8 36.1 189.6 36 C 189.6 36 189.4 35 189.4 35 C 189.7 35 189.9 35.1 190 35.1 C 190.3 35.1 190.5 35 190.6 35 C 190.7 34.9 190.9 34.8 191 34.6 C 191 34.5 191.1 34.3 191.3 33.8 C 191.3 33.8 191.3 33.7 191.4 33.6 C 191.37 33.59 189 27.4 189 27.4 L 190.1 27.4 C 190.1 27.4 191.44 30.96 191.4 31 C 191.6 31.4 191.8 31.9 191.9 32.4 C 192 31.9 192.2 31.4 192.3 31 C 192.32 30.98 193.7 27.4 193.7 27.4 L 194.7 27.4 C 194.7 27.4 192.34 33.69 192.3 33.7 C 192.1 34.4 191.9 34.8 191.7 35.1 C 191.6 35.4 191.3 35.7 191.1 35.9 C 190.9 36 190.6 36.1 190.2 36.1 C 190.2 36.1 190.2 36.1 190.2 36.1 Z M 198.5 31.7 C 198.5 31.7 199.6 31.6 199.6 31.6 C 199.6 32 199.8 32.3 200 32.5 C 200.3 32.7 200.7 32.9 201.2 32.9 C 201.7 32.9 202 32.8 202.2 32.6 C 202.5 32.4 202.6 32.1 202.6 31.9 C 202.6 31.6 202.5 31.4 202.3 31.3 C 202.1 31.2 201.8 31.1 201.2 30.9 C 200.4 30.7 199.9 30.6 199.6 30.4 C 199.3 30.3 199.1 30.1 198.9 29.8 C 198.8 29.6 198.7 29.3 198.7 29 C 198.7 28.7 198.8 28.5 198.9 28.2 C 199 28 199.2 27.8 199.4 27.7 C 199.6 27.5 199.8 27.4 200.1 27.3 C 200.4 27.3 200.7 27.2 201 27.2 C 201.5 27.2 201.9 27.3 202.3 27.4 C 202.6 27.6 202.9 27.8 203.1 28 C 203.3 28.2 203.4 28.6 203.4 29 C 203.4 29 202.4 29.1 202.4 29.1 C 202.4 28.8 202.2 28.5 202 28.4 C 201.8 28.2 201.5 28.1 201.1 28.1 C 200.6 28.1 200.2 28.2 200 28.3 C 199.8 28.5 199.7 28.7 199.7 28.9 C 199.7 29 199.8 29.1 199.8 29.3 C 199.9 29.4 200.1 29.5 200.2 29.5 C 200.3 29.6 200.7 29.7 201.2 29.8 C 201.9 30 202.4 30.2 202.7 30.3 C 203 30.4 203.3 30.6 203.4 30.8 C 203.6 31.1 203.7 31.4 203.7 31.8 C 203.7 32.1 203.6 32.4 203.4 32.7 C 203.2 33.1 202.9 33.3 202.5 33.5 C 202.1 33.6 201.7 33.7 201.2 33.7 C 200.4 33.7 199.8 33.6 199.3 33.2 C 198.9 32.9 198.6 32.4 198.5 31.7 Z M 206.8 32.7 C 206.9 32.7 207 32.7 207.2 32.6 C 207.2 32.6 207.4 33.6 207.4 33.6 C 207.1 33.6 206.8 33.7 206.6 33.7 C 206.2 33.7 205.9 33.6 205.7 33.5 C 205.5 33.4 205.3 33.2 205.3 33 C 205.2 32.8 205.1 32.4 205.1 31.8 C 205.13 31.76 205.1 28.2 205.1 28.2 L 204.4 28.2 L 204.4 27.4 L 205.1 27.4 L 205.1 25.8 L 206.2 25.2 L 206.2 27.4 L 207.2 27.4 L 207.2 28.2 L 206.2 28.2 C 206.2 28.2 206.18 31.82 206.2 31.8 C 206.2 32.1 206.2 32.3 206.2 32.4 C 206.3 32.5 206.3 32.6 206.4 32.6 C 206.5 32.7 206.6 32.7 206.8 32.7 C 206.8 32.7 206.8 32.7 206.8 32.7 Z M 208.3 33.6 L 208.3 27.4 L 209.2 27.4 C 209.2 27.4 209.21 28.3 209.2 28.3 C 209.5 27.9 209.7 27.6 209.9 27.4 C 210.1 27.3 210.3 27.2 210.6 27.2 C 210.9 27.2 211.3 27.3 211.6 27.6 C 211.6 27.6 211.3 28.5 211.3 28.5 C 211 28.4 210.8 28.3 210.5 28.3 C 210.3 28.3 210.1 28.4 209.9 28.5 C 209.7 28.7 209.6 28.8 209.5 29.1 C 209.4 29.5 209.3 29.9 209.3 30.3 C 209.31 30.32 209.3 33.6 209.3 33.6 L 208.3 33.6 Z M 211.9 30.5 C 211.9 29.3 212.2 28.5 212.8 27.9 C 213.4 27.4 214 27.2 214.8 27.2 C 215.6 27.2 216.3 27.5 216.9 28.1 C 217.4 28.6 217.7 29.4 217.7 30.4 C 217.7 31.2 217.6 31.8 217.3 32.3 C 217.1 32.7 216.8 33.1 216.3 33.3 C 215.8 33.6 215.3 33.7 214.8 33.7 C 213.9 33.7 213.2 33.4 212.7 32.9 C 212.1 32.3 211.9 31.5 211.9 30.5 Z M 213 30.5 C 213 31.3 213.1 31.9 213.5 32.3 C 213.8 32.7 214.3 32.9 214.8 32.9 C 215.3 32.9 215.8 32.7 216.1 32.3 C 216.4 31.9 216.6 31.2 216.6 30.4 C 216.6 29.7 216.4 29.1 216.1 28.7 C 215.7 28.3 215.3 28.1 214.8 28.1 C 214.3 28.1 213.8 28.3 213.5 28.7 C 213.1 29.1 213 29.7 213 30.5 Z M 218.9 33.6 L 218.9 27.4 L 219.9 27.4 C 219.9 27.4 219.89 28.24 219.9 28.2 C 220.3 27.6 221 27.2 221.9 27.2 C 222.2 27.2 222.6 27.3 222.9 27.4 C 223.2 27.6 223.5 27.7 223.6 27.9 C 223.8 28.2 223.9 28.4 223.9 28.7 C 224 28.9 224 29.3 224 29.8 C 224 29.75 224 33.6 224 33.6 L 222.9 33.6 C 222.9 33.6 222.94 29.79 222.9 29.8 C 222.9 29.4 222.9 29 222.8 28.8 C 222.7 28.6 222.6 28.4 222.4 28.3 C 222.2 28.2 221.9 28.1 221.6 28.1 C 221.2 28.1 220.8 28.3 220.5 28.6 C 220.2 28.8 220 29.4 220 30.2 C 220 30.18 220 33.6 220 33.6 L 218.9 33.6 Z M 225.4 34.1 C 225.4 34.1 226.4 34.2 226.4 34.2 C 226.5 34.6 226.6 34.8 226.8 34.9 C 227.1 35.1 227.4 35.2 227.9 35.2 C 228.4 35.2 228.7 35.1 229 34.9 C 229.3 34.7 229.5 34.5 229.5 34.1 C 229.6 33.9 229.6 33.5 229.6 32.8 C 229.2 33.3 228.6 33.6 227.9 33.6 C 227 33.6 226.4 33.3 225.9 32.7 C 225.4 32 225.2 31.3 225.2 30.4 C 225.2 29.8 225.3 29.3 225.5 28.8 C 225.7 28.3 226.1 27.9 226.5 27.6 C 226.9 27.4 227.4 27.2 227.9 27.2 C 228.6 27.2 229.2 27.5 229.7 28.1 C 229.72 28.11 229.7 27.4 229.7 27.4 L 230.7 27.4 C 230.7 27.4 230.7 32.74 230.7 32.7 C 230.7 33.7 230.6 34.4 230.4 34.8 C 230.2 35.2 229.9 35.5 229.5 35.8 C 229 36 228.5 36.1 227.9 36.1 C 227.1 36.1 226.5 35.9 226.1 35.6 C 225.6 35.3 225.4 34.8 225.4 34.1 Z M 226.3 30.4 C 226.3 31.2 226.5 31.8 226.8 32.1 C 227.1 32.5 227.5 32.7 228 32.7 C 228.5 32.7 228.9 32.5 229.2 32.1 C 229.5 31.8 229.7 31.2 229.7 30.4 C 229.7 29.6 229.5 29.1 229.2 28.7 C 228.9 28.3 228.5 28.1 228 28.1 C 227.5 28.1 227.1 28.3 226.8 28.7 C 226.5 29 226.3 29.6 226.3 30.4 Z M 235.6 33.6 L 235.6 27.4 L 236.6 27.4 C 236.6 27.4 236.57 28.23 236.6 28.2 C 236.8 27.9 237 27.7 237.3 27.5 C 237.7 27.3 238 27.2 238.5 27.2 C 238.9 27.2 239.3 27.3 239.6 27.5 C 239.9 27.7 240.1 28 240.2 28.3 C 240.7 27.6 241.3 27.2 242.1 27.2 C 242.7 27.2 243.2 27.4 243.6 27.7 C 243.9 28.1 244.1 28.6 244.1 29.3 C 244.05 29.31 244.1 33.6 244.1 33.6 L 243 33.6 C 243 33.6 243.01 29.66 243 29.7 C 243 29.2 243 28.9 242.9 28.7 C 242.8 28.6 242.7 28.4 242.5 28.3 C 242.4 28.2 242.1 28.1 241.9 28.1 C 241.5 28.1 241.1 28.3 240.8 28.6 C 240.5 28.9 240.4 29.3 240.4 30 C 240.38 29.96 240.4 33.6 240.4 33.6 L 239.3 33.6 C 239.3 33.6 239.32 29.54 239.3 29.5 C 239.3 29.1 239.2 28.7 239.1 28.5 C 238.9 28.2 238.6 28.1 238.2 28.1 C 237.9 28.1 237.6 28.2 237.4 28.4 C 237.1 28.5 237 28.7 236.8 29.1 C 236.7 29.4 236.7 29.8 236.7 30.4 C 236.68 30.35 236.7 33.6 236.7 33.6 L 235.6 33.6 Z M 245.2 30.5 C 245.2 29.3 245.5 28.5 246.2 27.9 C 246.7 27.4 247.4 27.2 248.1 27.2 C 249 27.2 249.7 27.5 250.2 28.1 C 250.8 28.6 251.1 29.4 251.1 30.4 C 251.1 31.2 250.9 31.8 250.7 32.3 C 250.5 32.7 250.1 33.1 249.6 33.3 C 249.2 33.6 248.7 33.7 248.1 33.7 C 247.3 33.7 246.6 33.4 246 32.9 C 245.5 32.3 245.2 31.5 245.2 30.5 Z M 246.3 30.5 C 246.3 31.3 246.5 31.9 246.8 32.3 C 247.2 32.7 247.6 32.9 248.1 32.9 C 248.7 32.9 249.1 32.7 249.5 32.3 C 249.8 31.9 250 31.2 250 30.4 C 250 29.7 249.8 29.1 249.4 28.7 C 249.1 28.3 248.7 28.1 248.1 28.1 C 247.6 28.1 247.2 28.3 246.8 28.7 C 246.5 29.1 246.3 29.7 246.3 30.5 Z M 252.3 33.6 L 252.3 27.4 L 253.2 27.4 C 253.2 27.4 253.23 28.3 253.2 28.3 C 253.5 27.9 253.7 27.6 253.9 27.4 C 254.1 27.3 254.3 27.2 254.6 27.2 C 254.9 27.2 255.3 27.3 255.7 27.6 C 255.7 27.6 255.3 28.5 255.3 28.5 C 255 28.4 254.8 28.3 254.5 28.3 C 254.3 28.3 254.1 28.4 253.9 28.5 C 253.7 28.7 253.6 28.8 253.5 29.1 C 253.4 29.5 253.3 29.9 253.3 30.3 C 253.34 30.32 253.3 33.6 253.3 33.6 L 252.3 33.6 Z M 260.6 33.6 C 260.5 33.4 260.4 33.1 260.3 32.8 C 260 33.1 259.6 33.4 259.2 33.5 C 258.9 33.7 258.5 33.7 258.1 33.7 C 257.4 33.7 256.8 33.6 256.5 33.2 C 256.1 32.9 255.9 32.5 255.9 31.9 C 255.9 31.6 256 31.4 256.1 31.1 C 256.3 30.9 256.5 30.7 256.7 30.5 C 256.9 30.3 257.2 30.2 257.4 30.2 C 257.7 30.1 258 30 258.4 30 C 259.2 29.9 259.9 29.8 260.3 29.6 C 260.3 29.5 260.3 29.4 260.3 29.4 C 260.3 28.9 260.2 28.6 260 28.4 C 259.7 28.2 259.3 28.1 258.8 28.1 C 258.3 28.1 257.9 28.2 257.7 28.4 C 257.4 28.5 257.3 28.8 257.1 29.3 C 257.1 29.3 256.1 29.1 256.1 29.1 C 256.2 28.7 256.4 28.3 256.6 28.1 C 256.8 27.8 257.1 27.6 257.5 27.4 C 257.9 27.3 258.4 27.2 258.9 27.2 C 259.5 27.2 259.9 27.3 260.2 27.4 C 260.5 27.5 260.8 27.7 260.9 27.9 C 261.1 28.1 261.2 28.3 261.3 28.6 C 261.3 28.8 261.3 29.1 261.3 29.6 C 261.3 29.6 261.3 31 261.3 31 C 261.3 32 261.4 32.6 261.4 32.8 C 261.4 33.1 261.5 33.3 261.7 33.6 C 261.66 33.58 260.6 33.6 260.6 33.6 C 260.6 33.6 260.56 33.58 260.6 33.6 Z M 260.3 30.5 C 259.9 30.6 259.3 30.7 258.5 30.9 C 258.1 30.9 257.8 31 257.6 31.1 C 257.4 31.1 257.3 31.3 257.2 31.4 C 257.1 31.6 257.1 31.7 257.1 31.9 C 257.1 32.2 257.2 32.4 257.4 32.6 C 257.6 32.8 257.9 32.9 258.3 32.9 C 258.7 32.9 259.1 32.8 259.4 32.6 C 259.7 32.4 259.9 32.2 260.1 31.9 C 260.2 31.7 260.3 31.3 260.3 30.8 C 260.3 30.8 260.3 30.5 260.3 30.5 Z M 262.9 33.6 L 262.9 25 L 264 25 L 264 33.6 L 262.9 33.6 Z " stroke="none" fill="#ffffff"/>  </g>  <g id="Polygon32952">    <path d="M 3 0.9 L 3 14.6 L 1.5 14.6 L 1.5 0.9 L 3 0.9 Z M 7.3 0.9 L 17 12.2 L 17 0.9 L 18.4 0.9 L 18.4 14.6 L 17.1 14.6 L 7.5 3.3 L 7.5 14.6 L 6.1 14.6 L 6.1 0.9 L 7.3 0.9 Z M 31.5 0.9 L 31.5 2.3 L 26.6 2.3 L 26.6 14.6 L 25.1 14.6 L 25.1 2.3 L 20.3 2.3 L 20.3 0.9 L 31.5 0.9 Z M 40.8 0.9 L 40.8 2.3 L 34.8 2.3 L 34.8 7 L 40.6 7 L 40.6 8.4 L 34.8 8.4 L 34.8 13.2 L 40.9 13.2 L 40.9 14.6 L 33.3 14.6 L 33.3 0.9 L 40.8 0.9 Z M 54.6 3.4 C 53.1 2.6 51.4 2.1 49.9 2.1 C 46.7 2.1 44.3 4.5 44.3 7.7 C 44.3 11.1 46.6 13.4 50 13.4 C 51.2 13.4 52 13.2 53.4 12.7 C 53.38 12.72 53.4 9.4 53.4 9.4 L 50.6 9.4 L 50.6 8.1 L 54.9 8.1 C 54.9 8.1 54.88 13.64 54.9 13.6 C 53.3 14.4 51.8 14.8 50 14.8 C 45.1 14.8 42.7 11.3 42.7 7.8 C 42.7 4 45.6 0.8 50 0.8 C 51.5 0.8 52.8 1.1 54.6 1.9 C 54.6 1.9 54.6 3.4 54.6 3.4 Z M 57.7 0.9 C 57.7 0.9 61.32 0.94 61.3 0.9 C 64.1 0.9 65.5 2.5 65.5 4.6 C 65.5 6.3 64.6 7.5 62.9 8 C 63.8 8.4 64.2 8.8 65.3 10.5 C 65.3 10.5 67.9 14.6 67.9 14.6 L 66.2 14.6 C 66.2 14.6 63.76 10.82 63.8 10.8 C 62.5 8.8 61.7 8.4 60.5 8.4 C 60.5 8.38 59.2 8.4 59.2 8.4 L 59.2 14.6 L 57.7 14.6 L 57.7 0.9 Z M 60.6 7.1 C 62.5 7.1 63.9 6.6 63.9 4.6 C 63.9 2.9 62.9 2.3 61.1 2.3 C 61.12 2.26 59.2 2.3 59.2 2.3 L 59.2 7.1 C 59.2 7.1 60.64 7.06 60.6 7.1 Z M 70.9 0.9 L 70.9 14.6 L 69.4 14.6 L 69.4 0.9 L 70.9 0.9 Z M 84 0.9 L 84 2.3 L 79.1 2.3 L 79.1 14.6 L 77.6 14.6 L 77.6 2.3 L 72.8 2.3 L 72.8 0.9 L 84 0.9 Z M 86.3 0.9 L 90.4 6 L 94.4 0.9 L 96.2 0.9 L 91.2 7.3 L 91.2 14.6 L 89.6 14.6 L 89.6 7.3 L 84.5 0.9 L 86.3 0.9 Z " stroke="none" fill="#ffffff"/>  </g></svg>