<?xml version="1.0" standalone="no"?><!DOCTYPE svg PUBLIC "-//W3C//DTD SVG 1.1//EN" "http://www.w3.org/Graphics/SVG/1.1/DTD/svg11.dtd"><svg xmlns="http://www.w3.org/2000/svg" version="1.1" width="49.3px" height="20.5px" viewBox="0 -4 49.3 20.5" style="top:-4px">  <desc>Excellent</desc>  <defs/>  <g id="Polygon45630">    <path d="M 0.9 8.7 L 0.9 0.1 L 7.2 0.1 L 7.2 1.2 L 2.1 1.2 L 2.1 3.8 L 6.8 3.8 L 6.8 4.8 L 2.1 4.8 L 2.1 7.7 L 7.4 7.7 L 7.4 8.7 L 0.9 8.7 Z M 8.1 8.7 L 10.4 5.5 L 8.3 2.5 L 9.6 2.5 C 9.6 2.5 10.54 3.97 10.5 4 C 10.7 4.3 10.9 4.5 11 4.7 C 11.1 4.4 11.3 4.2 11.4 4 C 11.44 3.98 12.5 2.5 12.5 2.5 L 13.8 2.5 L 11.6 5.4 L 13.9 8.7 L 12.6 8.7 L 11.3 6.8 L 11 6.3 L 9.4 8.7 L 8.1 8.7 Z M 18.9 6.5 C 18.9 6.5 19.9 6.6 19.9 6.6 C 19.8 7.3 19.5 7.9 19 8.3 C 18.6 8.7 18 8.9 17.3 8.9 C 16.5 8.9 15.8 8.6 15.2 8 C 14.7 7.5 14.5 6.7 14.5 5.6 C 14.5 5 14.6 4.4 14.8 3.9 C 15 3.4 15.4 3 15.8 2.8 C 16.3 2.5 16.8 2.4 17.3 2.4 C 18 2.4 18.5 2.5 19 2.9 C 19.4 3.2 19.7 3.7 19.8 4.3 C 19.8 4.3 18.8 4.5 18.8 4.5 C 18.7 4.1 18.5 3.8 18.2 3.6 C 18 3.3 17.7 3.2 17.3 3.2 C 16.8 3.2 16.4 3.4 16.1 3.8 C 15.7 4.2 15.6 4.8 15.6 5.6 C 15.6 6.5 15.7 7.1 16 7.4 C 16.4 7.8 16.8 8 17.3 8 C 17.7 8 18.1 7.9 18.3 7.6 C 18.6 7.4 18.8 7 18.9 6.5 Z M 25.1 6.7 C 25.1 6.7 26.1 6.9 26.1 6.9 C 26 7.5 25.7 8 25.2 8.3 C 24.7 8.7 24.1 8.9 23.4 8.9 C 22.5 8.9 21.8 8.6 21.2 8 C 20.7 7.5 20.4 6.7 20.4 5.7 C 20.4 4.6 20.7 3.8 21.3 3.2 C 21.8 2.7 22.5 2.4 23.3 2.4 C 24.2 2.4 24.9 2.7 25.4 3.2 C 25.9 3.8 26.2 4.6 26.2 5.6 C 26.2 5.7 26.2 5.8 26.2 5.9 C 26.2 5.9 21.5 5.9 21.5 5.9 C 21.6 6.6 21.8 7.1 22.1 7.5 C 22.5 7.8 22.9 8 23.4 8 C 23.8 8 24.1 7.9 24.4 7.7 C 24.7 7.5 24.9 7.2 25.1 6.7 Z M 21.6 5 C 21.6 5 25.1 5 25.1 5 C 25 4.5 24.9 4.1 24.7 3.8 C 24.3 3.4 23.9 3.2 23.4 3.2 C 22.9 3.2 22.5 3.4 22.1 3.7 C 21.8 4.1 21.6 4.5 21.6 5 Z M 27.4 8.7 L 27.4 0.1 L 28.5 0.1 L 28.5 8.7 L 27.4 8.7 Z M 30.1 8.7 L 30.1 0.1 L 31.2 0.1 L 31.2 8.7 L 30.1 8.7 Z M 37.1 6.7 C 37.1 6.7 38.2 6.9 38.2 6.9 C 38 7.5 37.7 8 37.2 8.3 C 36.7 8.7 36.1 8.9 35.4 8.9 C 34.5 8.9 33.8 8.6 33.2 8 C 32.7 7.5 32.4 6.7 32.4 5.7 C 32.4 4.6 32.7 3.8 33.3 3.2 C 33.8 2.7 34.5 2.4 35.4 2.4 C 36.2 2.4 36.9 2.7 37.4 3.2 C 37.9 3.8 38.2 4.6 38.2 5.6 C 38.2 5.7 38.2 5.8 38.2 5.9 C 38.2 5.9 33.5 5.9 33.5 5.9 C 33.6 6.6 33.8 7.1 34.1 7.5 C 34.5 7.8 34.9 8 35.4 8 C 35.8 8 36.1 7.9 36.4 7.7 C 36.7 7.5 36.9 7.2 37.1 6.7 Z M 33.6 5 C 33.6 5 37.1 5 37.1 5 C 37 4.5 36.9 4.1 36.7 3.8 C 36.3 3.4 35.9 3.2 35.4 3.2 C 34.9 3.2 34.5 3.4 34.1 3.7 C 33.8 4.1 33.6 4.5 33.6 5 Z M 39.5 8.7 L 39.5 2.5 L 40.4 2.5 C 40.4 2.5 40.42 3.4 40.4 3.4 C 40.9 2.7 41.5 2.4 42.4 2.4 C 42.8 2.4 43.1 2.4 43.4 2.6 C 43.8 2.7 44 2.9 44.1 3.1 C 44.3 3.3 44.4 3.6 44.5 3.9 C 44.5 4.1 44.5 4.4 44.5 4.9 C 44.53 4.91 44.5 8.7 44.5 8.7 L 43.5 8.7 C 43.5 8.7 43.48 4.95 43.5 5 C 43.5 4.5 43.4 4.2 43.4 4 C 43.3 3.8 43.1 3.6 42.9 3.5 C 42.7 3.4 42.5 3.3 42.2 3.3 C 41.7 3.3 41.3 3.4 41 3.7 C 40.7 4 40.5 4.5 40.5 5.3 C 40.53 5.34 40.5 8.7 40.5 8.7 L 39.5 8.7 Z M 48 7.8 C 48.1 7.8 48.3 7.8 48.5 7.8 C 48.5 7.8 48.6 8.7 48.6 8.7 C 48.3 8.8 48 8.8 47.8 8.8 C 47.4 8.8 47.1 8.8 46.9 8.6 C 46.7 8.5 46.6 8.4 46.5 8.2 C 46.4 8 46.3 7.5 46.3 6.9 C 46.34 6.91 46.3 3.3 46.3 3.3 L 45.6 3.3 L 45.6 2.5 L 46.3 2.5 L 46.3 1 L 47.4 0.3 L 47.4 2.5 L 48.5 2.5 L 48.5 3.3 L 47.4 3.3 C 47.4 3.3 47.39 6.97 47.4 7 C 47.4 7.3 47.4 7.5 47.4 7.6 C 47.5 7.6 47.5 7.7 47.6 7.8 C 47.7 7.8 47.8 7.8 48 7.8 C 48 7.8 48 7.8 48 7.8 Z " stroke="none" fill="#000"/>  </g></svg>