<?xml version="1.0" standalone="no"?><!DOCTYPE svg PUBLIC "-//W3C//DTD SVG 1.1//EN" "http://www.w3.org/Graphics/SVG/1.1/DTD/svg11.dtd"><svg xmlns="http://www.w3.org/2000/svg" version="1.1" width="105.4px" height="162.3px" viewBox="0 -14 105.4 162.3" style="top:-14px">  <desc>NPS 81</desc>  <defs/>  <g id="Polygon24194">    <path d="M 3.4 85.4 C 3.4 79 8.9 74.3 15.2 74.3 C 21.7 74.3 26.9 79.1 26.9 85.4 C 26.9 89.2 25.1 92.5 21.2 94.7 C 25.2 96.7 27.5 100.1 27.5 104.6 C 27.5 111.4 22.3 116.3 15.1 116.3 C 7.4 116.3 2.5 110.8 2.5 104.6 C 2.5 100.4 4.6 96.7 8.9 94.7 C 4.8 92 3.4 89 3.4 85.4 Z M 15.2 92.6 C 19 92.6 22.4 89.8 22.4 85.6 C 22.4 81.5 19.4 78.5 15.1 78.5 C 11 78.5 7.9 81.4 7.9 85.5 C 7.9 89.9 11.3 92.6 15.2 92.6 Z M 15.1 112 C 19.9 112 23 108.8 23 104.4 C 23 100.1 19.9 97 14.9 97 C 10.1 97 7 100.3 7 104.4 C 7 108.8 10.3 112 15.1 112 Z M 49.5 74.3 L 49.5 115.7 L 45 115.7 L 45 81.9 L 37.1 88.2 L 34.5 85 L 47.8 74.3 L 49.5 74.3 Z " stroke="none" fill="#010102"/>  </g>  <g id="Polygon24193">    <path d="M 8.3 2.8 L 37.3 36.7 L 37.3 2.8 L 41.6 2.8 L 41.6 43.7 L 37.7 43.7 L 8.9 10 L 8.9 43.7 L 4.6 43.7 L 4.6 2.8 L 8.3 2.8 Z M 62.5 2.8 C 70.6 2.8 75.6 7 75.6 14.1 C 75.6 21.7 70.4 25.3 61.7 25.3 C 61.68 25.32 55.3 25.3 55.3 25.3 L 55.3 43.7 L 50.8 43.7 L 50.8 2.8 C 50.8 2.8 62.46 2.82 62.5 2.8 Z M 55.3 21.4 C 55.3 21.4 61.56 21.36 61.6 21.4 C 68.5 21.4 71 18.7 71 14 C 71 9.4 68.2 6.8 61.6 6.8 C 61.56 6.78 55.3 6.8 55.3 6.8 L 55.3 21.4 Z M 100.9 4.9 C 100.9 4.9 100.9 10 100.9 10 C 98.1 7.6 95 6.4 91.7 6.4 C 87.4 6.4 84.5 8.8 84.5 12.3 C 84.5 15 85.2 17.3 92 20.8 C 100.4 25.1 102.5 28.1 102.5 33.7 C 102.5 39.7 97.8 44.3 90.8 44.3 C 86.9 44.3 83.3 43 80.2 40.7 C 80.2 40.7 80.2 35 80.2 35 C 83.2 38.4 86.8 40.3 90.8 40.3 C 94.9 40.3 97.9 37.7 97.9 33.7 C 97.9 30.2 96.8 28.2 88.9 24.1 C 82.4 20.8 80 17.6 80 12.4 C 80 6.6 85 2.3 91.8 2.3 C 95 2.3 98.2 3.2 100.9 4.9 Z " stroke="none" fill="#010102"/>  </g></svg>