<?xml version="1.0" standalone="no"?><!DOCTYPE svg PUBLIC "-//W3C//DTD SVG 1.1//EN" "http://www.w3.org/Graphics/SVG/1.1/DTD/svg11.dtd"><svg xmlns="http://www.w3.org/2000/svg" version="1.1" width="313px" height="204.8px" viewBox="0 -10 313 204.8" style="top:-10px">  <desc>EPA Leadership and Management 02</desc>  <defs/>  <g id="Polygon16936">    <path d="M 1.2 159.5 C 1.2 150.5 5.4 145.5 10.1 145.5 C 15.4 145.5 18.8 151.4 18.8 159.5 C 18.8 168.1 15.1 173.5 10 173.5 C 4.6 173.5 1.2 167.9 1.2 159.5 Z M 15.7 159.6 C 15.7 152.4 13.4 148.3 10 148.3 C 6.6 148.3 4.3 152.3 4.3 159.5 C 4.3 166.6 6.4 170.8 10 170.8 C 13.5 170.8 15.7 166.6 15.7 159.6 Z M 36.8 153.7 C 36.8 159.4 31.8 165.1 27.1 170.3 C 27.12 170.28 38.6 170.3 38.6 170.3 L 38.6 173.2 L 21.7 173.2 C 21.7 173.2 22.48 172.2 22.5 172.2 C 25.8 168.6 33.8 160.6 33.8 154 C 33.8 149.9 30.8 148.5 28.4 148.5 C 26.1 148.5 24 149.7 22.2 151.8 C 22.2 151.8 22.2 148 22.2 148 C 24.2 146.4 26.4 145.5 28.8 145.5 C 33.5 145.5 36.8 148.9 36.8 153.7 Z " stroke="none" fill="#010102"/>  </g>  <g id="Polygon16935">    <path d="M 3.1 97.9 L 5.9 97.9 L 15.6 109.8 L 25.2 97.9 L 28 97.9 L 28 125.2 L 25 125.2 L 25 102.6 L 24.9 102.6 L 15.8 114 L 15.3 114 L 6.2 102.6 L 6.1 102.6 L 6.1 125.2 L 3.1 125.2 L 3.1 97.9 Z M 45.1 97.7 L 57.2 125.2 L 54.2 125.2 L 50.3 116.6 L 37.9 116.6 L 34.2 125.2 L 31.2 125.2 L 43 97.7 L 45.1 97.7 Z M 39.1 113.9 L 49.1 113.9 L 44 102.3 L 39.1 113.9 Z M 62.8 97.9 L 82.2 120.4 L 82.2 97.9 L 85 97.9 L 85 125.2 L 82.4 125.2 L 63.2 102.7 L 63.2 125.2 L 60.4 125.2 L 60.4 97.9 L 62.8 97.9 Z M 102.1 97.7 L 114.2 125.2 L 111.2 125.2 L 107.3 116.6 L 94.9 116.6 L 91.2 125.2 L 88.2 125.2 L 100 97.7 L 102.1 97.7 Z M 96.1 113.9 L 106.1 113.9 L 101 102.3 L 96.1 113.9 Z M 138.7 102.9 C 135.7 101.1 132.4 100.2 129.3 100.2 C 123 100.2 118.1 105 118.1 111.4 C 118.1 118.1 122.7 122.8 129.5 122.8 C 131.8 122.8 133.4 122.5 136.2 121.4 C 136.24 121.44 136.2 114.8 136.2 114.8 L 130.7 114.8 L 130.7 112.2 L 139.2 112.2 C 139.2 112.2 139.24 123.28 139.2 123.3 C 136.1 124.8 133.1 125.5 129.5 125.5 C 119.8 125.5 115 118.7 115 111.7 C 115 103.9 120.7 97.5 129.4 97.5 C 132.5 97.5 135.1 98.2 138.7 99.8 C 138.7 99.8 138.7 102.9 138.7 102.9 Z M 159.9 97.9 L 159.9 100.6 L 148 100.6 L 148 110.1 L 159.5 110.1 L 159.5 112.8 L 148 112.8 L 148 122.4 L 160.2 122.4 L 160.2 125.2 L 145 125.2 L 145 97.9 L 159.9 97.9 Z M 165 97.9 L 167.9 97.9 L 177.5 109.8 L 187.1 97.9 L 190 97.9 L 190 125.2 L 187 125.2 L 187 102.6 L 186.9 102.6 L 177.8 114 L 177.2 114 L 168.1 102.6 L 168 102.6 L 168 125.2 L 165 125.2 L 165 97.9 Z M 211 97.9 L 211 100.6 L 199.1 100.6 L 199.1 110.1 L 210.6 110.1 L 210.6 112.8 L 199.1 112.8 L 199.1 122.4 L 211.4 122.4 L 211.4 125.2 L 196.1 125.2 L 196.1 97.9 L 211 97.9 Z M 218.7 97.9 L 238 120.4 L 238 97.9 L 240.9 97.9 L 240.9 125.2 L 238.2 125.2 L 219.1 102.7 L 219.1 125.2 L 216.2 125.2 L 216.2 97.9 L 218.7 97.9 Z M 266.9 97.9 L 266.9 100.5 L 257.2 100.5 L 257.2 125.2 L 254.2 125.2 L 254.2 100.5 L 244.5 100.5 L 244.5 97.9 L 266.9 97.9 Z " stroke="none" fill="#010102"/>  </g>  <g id="Polygon16934">    <path d="M 6.1 49.9 L 6.1 74.4 L 18.9 74.4 L 18.9 77.2 L 3.1 77.2 L 3.1 49.9 L 6.1 49.9 Z M 37.3 49.9 L 37.3 52.6 L 25.4 52.6 L 25.4 62.1 L 36.9 62.1 L 36.9 64.8 L 25.4 64.8 L 25.4 74.4 L 37.6 74.4 L 37.6 77.2 L 22.4 77.2 L 22.4 49.9 L 37.3 49.9 Z M 54.3 49.7 L 66.5 77.2 L 63.4 77.2 L 59.6 68.6 L 47.2 68.6 L 43.5 77.2 L 40.4 77.2 L 52.2 49.7 L 54.3 49.7 Z M 48.3 65.9 L 58.4 65.9 L 53.2 54.3 L 48.3 65.9 Z M 69.6 49.9 C 69.6 49.9 79.64 49.88 79.6 49.9 C 88.6 49.9 94.3 55.4 94.3 63.2 C 94.3 71.7 88.3 77.2 79.6 77.2 C 79.64 77.16 69.6 77.2 69.6 77.2 L 69.6 49.9 Z M 79.6 74.4 C 86.8 74.4 91.2 70.2 91.2 63.5 C 91.2 56.9 86.9 52.6 79.2 52.6 C 79.16 52.56 72.6 52.6 72.6 52.6 L 72.6 74.4 C 72.6 74.4 79.6 74.44 79.6 74.4 Z M 114.2 49.9 L 114.2 52.6 L 102.3 52.6 L 102.3 62.1 L 113.8 62.1 L 113.8 64.8 L 102.3 64.8 L 102.3 74.4 L 114.6 74.4 L 114.6 77.2 L 99.3 77.2 L 99.3 49.9 L 114.2 49.9 Z M 119.4 49.9 C 119.4 49.9 126.56 49.88 126.6 49.9 C 132 49.9 134.9 53 134.9 57.2 C 134.9 60.6 133 62.9 129.7 63.9 C 131.5 64.8 132.3 65.6 134.5 69 C 134.52 69 139.8 77.2 139.8 77.2 L 136.2 77.2 C 136.2 77.2 131.44 69.64 131.4 69.6 C 128.9 65.6 127.2 64.8 124.9 64.8 C 124.92 64.76 122.4 64.8 122.4 64.8 L 122.4 77.2 L 119.4 77.2 L 119.4 49.9 Z M 125.2 62.1 C 129 62.1 131.8 61.2 131.8 57.2 C 131.8 53.9 129.6 52.5 126.2 52.5 C 126.16 52.52 122.4 52.5 122.4 52.5 L 122.4 62.1 C 122.4 62.1 125.2 62.12 125.2 62.1 Z M 156.1 51.3 C 156.1 51.3 156.1 54.7 156.1 54.7 C 154.2 53.1 152.2 52.2 149.9 52.2 C 147 52.2 145.2 53.8 145.2 56.2 C 145.2 58 145.6 59.6 150.1 61.8 C 155.8 64.8 157.1 66.7 157.1 70.4 C 157.1 74.5 154 77.5 149.3 77.5 C 146.7 77.5 144.3 76.7 142.2 75.1 C 142.2 75.1 142.2 71.4 142.2 71.4 C 144.3 73.6 146.7 74.8 149.3 74.8 C 152.1 74.8 154.1 73.1 154.1 70.5 C 154.1 68.2 153.3 66.8 148 64 C 143.8 61.8 142.1 59.8 142.1 56.3 C 142.1 52.4 145.4 49.5 150 49.5 C 152.1 49.5 154.2 50.1 156.1 51.3 Z M 164.8 49.9 L 164.8 62 L 181.4 62 L 181.4 49.9 L 184.4 49.9 L 184.4 77.2 L 181.4 77.2 L 181.4 64.8 L 164.8 64.8 L 164.8 77.2 L 161.8 77.2 L 161.8 49.9 L 164.8 49.9 Z M 193.5 49.9 L 193.5 77.2 L 190.5 77.2 L 190.5 49.9 L 193.5 49.9 Z M 207.4 49.9 C 212.8 49.9 216.1 52.6 216.1 57.4 C 216.1 62.5 212.7 64.9 206.8 64.9 C 206.84 64.88 202.6 64.9 202.6 64.9 L 202.6 77.2 L 199.6 77.2 L 199.6 49.9 C 199.6 49.9 207.36 49.88 207.4 49.9 Z M 202.6 62.2 C 202.6 62.2 206.76 62.24 206.8 62.2 C 211.4 62.2 213 60.4 213 57.3 C 213 54.2 211.2 52.5 206.8 52.5 C 206.76 52.52 202.6 52.5 202.6 52.5 L 202.6 62.2 Z M 240.2 49.7 L 252.4 77.2 L 249.3 77.2 L 245.5 68.6 L 233.1 68.6 L 229.4 77.2 L 226.3 77.2 L 238.1 49.7 L 240.2 49.7 Z M 234.2 65.9 L 244.3 65.9 L 239.1 54.3 L 234.2 65.9 Z M 258 49.9 L 277.3 72.4 L 277.3 49.9 L 280.2 49.9 L 280.2 77.2 L 277.6 77.2 L 258.4 54.7 L 258.4 77.2 L 255.5 77.2 L 255.5 49.9 L 258 49.9 Z M 286.3 49.9 C 286.3 49.9 296.36 49.88 296.4 49.9 C 305.3 49.9 311 55.4 311 63.2 C 311 71.7 305 77.2 296.4 77.2 C 296.36 77.16 286.3 77.2 286.3 77.2 L 286.3 49.9 Z M 296.3 74.4 C 303.5 74.4 307.9 70.2 307.9 63.5 C 307.9 56.9 303.6 52.6 295.9 52.6 C 295.88 52.56 289.3 52.6 289.3 52.6 L 289.3 74.4 C 289.3 74.4 296.32 74.44 296.3 74.4 Z " stroke="none" fill="#010102"/>  </g>  <g id="Polygon16933">    <path d="M 13.5 8.7 L 13.5 10.7 L 4.6 10.7 L 4.6 17.8 L 13.2 17.8 L 13.2 19.9 L 4.6 19.9 L 4.6 27.1 L 13.7 27.1 L 13.7 29.2 L 2.3 29.2 L 2.3 8.7 L 13.5 8.7 Z M 23.2 8.7 C 27.3 8.7 29.8 10.8 29.8 14.3 C 29.8 18.1 27.2 19.9 22.8 19.9 C 22.8 19.95 19.6 19.9 19.6 19.9 L 19.6 29.2 L 17.4 29.2 L 17.4 8.7 C 17.4 8.7 23.19 8.7 23.2 8.7 Z M 19.6 18 C 19.6 18 22.74 17.97 22.7 18 C 26.2 18 27.4 16.6 27.4 14.3 C 27.4 12 26.1 10.7 22.7 10.7 C 22.74 10.68 19.6 10.7 19.6 10.7 L 19.6 18 Z M 39.4 8.6 L 48.5 29.2 L 46.2 29.2 L 43.3 22.7 L 34 22.7 L 31.2 29.2 L 28.9 29.2 L 37.8 8.6 L 39.4 8.6 Z M 34.9 20.7 L 42.4 20.7 L 38.5 12 L 34.9 20.7 Z " stroke="none" fill="#f28620"/>  </g></svg>