<?xml version="1.0" standalone="no"?><!DOCTYPE svg PUBLIC "-//W3C//DTD SVG 1.1//EN" "http://www.w3.org/Graphics/SVG/1.1/DTD/svg11.dtd"><svg xmlns="http://www.w3.org/2000/svg" version="1.1" width="126px" height="68.1px" viewBox="0 -8 126 68.1" style="top:-8px">  <desc>Solution Focused</desc>  <defs/>  <g id="Polygon10226">    <path d="M 18.9 46.3 L 18.9 29.1 L 30.5 29.1 L 30.5 31.1 L 21.2 31.1 L 21.2 36.4 L 29.3 36.4 L 29.3 38.5 L 21.2 38.5 L 21.2 46.3 L 18.9 46.3 Z M 32.4 40.1 C 32.4 37.7 33 36 34.3 34.9 C 35.4 34 36.7 33.5 38.2 33.5 C 39.9 33.5 41.3 34.1 42.4 35.2 C 43.5 36.3 44.1 37.9 44.1 39.9 C 44.1 41.5 43.8 42.7 43.3 43.7 C 42.9 44.6 42.2 45.3 41.2 45.8 C 40.3 46.3 39.3 46.6 38.2 46.6 C 36.5 46.6 35.1 46 34 44.9 C 32.9 43.8 32.4 42.2 32.4 40.1 Z M 34.6 40.1 C 34.6 41.6 34.9 42.8 35.6 43.6 C 36.3 44.4 37.2 44.8 38.2 44.8 C 39.3 44.8 40.2 44.4 40.9 43.6 C 41.5 42.8 41.9 41.6 41.9 40 C 41.9 38.4 41.5 37.3 40.8 36.5 C 40.1 35.7 39.3 35.3 38.2 35.3 C 37.2 35.3 36.3 35.7 35.6 36.5 C 34.9 37.3 34.6 38.5 34.6 40.1 Z M 54.7 41.7 C 54.7 41.7 56.7 42 56.7 42 C 56.5 43.4 55.9 44.5 55 45.3 C 54.1 46.1 52.9 46.6 51.6 46.6 C 49.8 46.6 48.5 46 47.4 44.9 C 46.4 43.8 45.9 42.2 45.9 40.1 C 45.9 38.8 46.1 37.6 46.6 36.6 C 47 35.6 47.7 34.8 48.6 34.3 C 49.5 33.8 50.5 33.5 51.6 33.5 C 52.9 33.5 54 33.9 54.9 34.6 C 55.7 35.3 56.3 36.2 56.5 37.5 C 56.5 37.5 54.5 37.8 54.5 37.8 C 54.3 37 53.9 36.3 53.4 35.9 C 52.9 35.5 52.3 35.3 51.6 35.3 C 50.6 35.3 49.7 35.7 49.1 36.4 C 48.4 37.2 48.1 38.4 48.1 40 C 48.1 41.7 48.4 42.9 49 43.7 C 49.7 44.4 50.5 44.8 51.5 44.8 C 52.4 44.8 53 44.6 53.6 44.1 C 54.2 43.6 54.5 42.8 54.7 41.7 Z M 66.7 46.3 C 66.7 46.3 66.69 44.44 66.7 44.4 C 65.7 45.9 64.4 46.6 62.7 46.6 C 62 46.6 61.3 46.4 60.7 46.1 C 60 45.9 59.6 45.5 59.3 45.1 C 59 44.6 58.7 44.1 58.6 43.5 C 58.5 43.1 58.5 42.4 58.5 41.5 C 58.49 41.54 58.5 33.8 58.5 33.8 L 60.6 33.8 C 60.6 33.8 60.6 40.73 60.6 40.7 C 60.6 41.8 60.6 42.6 60.7 43 C 60.9 43.5 61.1 43.9 61.6 44.3 C 62 44.6 62.5 44.7 63.2 44.7 C 63.8 44.7 64.4 44.6 64.9 44.3 C 65.5 43.9 65.9 43.5 66.1 42.9 C 66.4 42.4 66.5 41.6 66.5 40.5 C 66.47 40.5 66.5 33.8 66.5 33.8 L 68.6 33.8 L 68.6 46.3 L 66.7 46.3 Z M 71 42.6 C 71 42.6 73.1 42.2 73.1 42.2 C 73.2 43.1 73.6 43.7 74.1 44.2 C 74.6 44.6 75.4 44.8 76.3 44.8 C 77.3 44.8 78 44.6 78.5 44.2 C 79 43.8 79.2 43.4 79.2 42.8 C 79.2 42.4 79 42 78.6 41.7 C 78.3 41.5 77.6 41.3 76.4 41 C 74.9 40.6 73.8 40.3 73.2 40 C 72.6 39.7 72.2 39.3 71.9 38.8 C 71.5 38.3 71.4 37.7 71.4 37.1 C 71.4 36.6 71.5 36.1 71.8 35.6 C 72 35.1 72.4 34.7 72.8 34.4 C 73.1 34.2 73.6 34 74.2 33.8 C 74.7 33.6 75.3 33.5 76 33.5 C 76.9 33.5 77.8 33.7 78.5 34 C 79.3 34.2 79.8 34.6 80.2 35.1 C 80.5 35.6 80.8 36.2 80.9 37 C 80.9 37 78.8 37.3 78.8 37.3 C 78.8 36.7 78.5 36.2 78 35.8 C 77.6 35.5 76.9 35.3 76.1 35.3 C 75.2 35.3 74.5 35.4 74.1 35.8 C 73.6 36.1 73.4 36.5 73.4 36.9 C 73.4 37.2 73.5 37.4 73.7 37.6 C 73.9 37.9 74.1 38 74.5 38.2 C 74.7 38.3 75.3 38.4 76.4 38.7 C 77.9 39.1 78.9 39.5 79.5 39.7 C 80.1 40 80.5 40.3 80.9 40.8 C 81.2 41.3 81.4 41.9 81.4 42.6 C 81.4 43.3 81.2 44 80.8 44.6 C 80.3 45.2 79.8 45.7 79 46 C 78.2 46.4 77.3 46.6 76.4 46.6 C 74.7 46.6 73.5 46.2 72.7 45.5 C 71.8 44.9 71.3 43.9 71 42.6 Z M 92.4 42.3 C 92.4 42.3 94.6 42.5 94.6 42.5 C 94.2 43.8 93.6 44.8 92.7 45.5 C 91.7 46.2 90.6 46.6 89.1 46.6 C 87.3 46.6 85.8 46 84.8 44.9 C 83.7 43.8 83.2 42.2 83.2 40.2 C 83.2 38.1 83.7 36.4 84.8 35.3 C 85.9 34.1 87.3 33.5 89 33.5 C 90.7 33.5 92 34.1 93.1 35.2 C 94.1 36.4 94.7 38 94.7 40 C 94.7 40.2 94.6 40.3 94.6 40.6 C 94.6 40.6 85.4 40.6 85.4 40.6 C 85.4 42 85.8 43 86.5 43.7 C 87.2 44.5 88.1 44.8 89.1 44.8 C 89.9 44.8 90.6 44.6 91.1 44.2 C 91.6 43.8 92.1 43.2 92.4 42.3 Z M 85.5 38.9 C 85.5 38.9 92.4 38.9 92.4 38.9 C 92.3 37.8 92.1 37 91.6 36.5 C 91 35.7 90.1 35.3 89 35.3 C 88 35.3 87.2 35.6 86.6 36.3 C 85.9 36.9 85.5 37.8 85.5 38.9 Z M 105.3 46.3 C 105.3 46.3 105.3 44.7 105.3 44.7 C 104.5 45.9 103.4 46.6 101.8 46.6 C 100.8 46.6 99.9 46.3 99.1 45.7 C 98.3 45.2 97.6 44.4 97.2 43.4 C 96.7 42.5 96.5 41.3 96.5 40.1 C 96.5 38.8 96.7 37.7 97.1 36.7 C 97.5 35.7 98.1 34.9 99 34.4 C 99.8 33.8 100.7 33.5 101.7 33.5 C 102.5 33.5 103.1 33.7 103.7 34 C 104.3 34.3 104.8 34.7 105.2 35.3 C 105.16 35.26 105.2 29.1 105.2 29.1 L 107.3 29.1 L 107.3 46.3 L 105.3 46.3 Z M 98.6 40.1 C 98.6 41.7 99 42.8 99.6 43.6 C 100.3 44.4 101.1 44.8 102 44.8 C 102.9 44.8 103.7 44.4 104.4 43.7 C 105 42.9 105.3 41.8 105.3 40.2 C 105.3 38.5 105 37.3 104.4 36.5 C 103.7 35.7 102.9 35.3 101.9 35.3 C 101 35.3 100.2 35.7 99.6 36.4 C 99 37.2 98.6 38.4 98.6 40.1 Z " stroke="none" fill="#000"/>  </g>  <g id="Polygon10225">    <path d="M 20.7 12 C 20.7 12 22.8 11.8 22.8 11.8 C 22.9 12.6 23.2 13.3 23.5 13.9 C 23.9 14.4 24.5 14.9 25.3 15.2 C 26 15.6 26.9 15.7 27.9 15.7 C 28.8 15.7 29.5 15.6 30.2 15.3 C 30.9 15.1 31.4 14.7 31.7 14.3 C 32 13.8 32.2 13.3 32.2 12.8 C 32.2 12.3 32 11.8 31.7 11.4 C 31.4 11 30.9 10.7 30.2 10.4 C 29.7 10.2 28.7 9.9 27.1 9.5 C 25.5 9.2 24.4 8.8 23.8 8.5 C 23 8 22.3 7.5 21.9 6.9 C 21.5 6.2 21.3 5.5 21.3 4.7 C 21.3 3.9 21.6 3.1 22.1 2.3 C 22.6 1.5 23.3 1 24.2 0.6 C 25.2 0.2 26.2 0 27.4 0 C 28.7 0 29.8 0.2 30.8 0.6 C 31.7 1 32.5 1.6 33 2.4 C 33.5 3.2 33.8 4.1 33.8 5.1 C 33.8 5.1 31.7 5.3 31.7 5.3 C 31.5 4.2 31.2 3.4 30.5 2.8 C 29.8 2.3 28.8 2 27.5 2 C 26.1 2 25.1 2.3 24.5 2.8 C 23.8 3.3 23.5 3.9 23.5 4.6 C 23.5 5.2 23.8 5.7 24.2 6.1 C 24.6 6.5 25.8 6.9 27.6 7.3 C 29.5 7.7 30.7 8.1 31.4 8.4 C 32.4 8.9 33.2 9.5 33.6 10.2 C 34.1 10.9 34.4 11.7 34.4 12.6 C 34.4 13.5 34.1 14.4 33.6 15.2 C 33.1 16 32.3 16.6 31.3 17.1 C 30.3 17.5 29.2 17.8 28 17.8 C 26.5 17.8 25.2 17.5 24.1 17.1 C 23 16.6 22.2 16 21.6 15 C 21 14.1 20.7 13.1 20.7 12 Z M 36.4 11.3 C 36.4 8.9 37.1 7.2 38.3 6.1 C 39.4 5.2 40.7 4.7 42.2 4.7 C 44 4.7 45.4 5.3 46.4 6.4 C 47.5 7.5 48.1 9.1 48.1 11.1 C 48.1 12.7 47.8 13.9 47.3 14.9 C 46.9 15.8 46.2 16.5 45.3 17 C 44.3 17.5 43.3 17.8 42.2 17.8 C 40.5 17.8 39.1 17.2 38 16.1 C 36.9 15 36.4 13.4 36.4 11.3 Z M 38.6 11.3 C 38.6 12.8 38.9 14 39.6 14.8 C 40.3 15.6 41.2 16 42.2 16 C 43.3 16 44.2 15.6 44.9 14.8 C 45.6 14 45.9 12.8 45.9 11.2 C 45.9 9.6 45.6 8.5 44.9 7.7 C 44.2 6.9 43.3 6.5 42.2 6.5 C 41.2 6.5 40.3 6.9 39.6 7.7 C 38.9 8.5 38.6 9.7 38.6 11.3 Z M 50.5 17.5 L 50.5 0.3 L 52.6 0.3 L 52.6 17.5 L 50.5 17.5 Z M 64 17.5 C 64 17.5 64.03 15.64 64 15.6 C 63.1 17.1 61.7 17.8 60.1 17.8 C 59.3 17.8 58.7 17.6 58 17.3 C 57.4 17.1 56.9 16.7 56.6 16.3 C 56.3 15.8 56.1 15.3 56 14.7 C 55.9 14.3 55.8 13.6 55.8 12.7 C 55.83 12.74 55.8 5 55.8 5 L 57.9 5 C 57.9 5 57.94 11.93 57.9 11.9 C 57.9 13 58 13.8 58.1 14.2 C 58.2 14.7 58.5 15.1 58.9 15.5 C 59.3 15.8 59.9 15.9 60.5 15.9 C 61.1 15.9 61.7 15.8 62.3 15.5 C 62.8 15.1 63.2 14.7 63.5 14.1 C 63.7 13.6 63.8 12.8 63.8 11.7 C 63.81 11.7 63.8 5 63.8 5 L 65.9 5 L 65.9 17.5 L 64 17.5 Z M 72.9 15.7 C 73.1 15.7 73.4 15.6 73.8 15.6 C 73.8 15.6 74.1 17.4 74.1 17.4 C 73.5 17.6 73 17.6 72.5 17.6 C 71.8 17.6 71.2 17.5 70.8 17.3 C 70.3 17 70 16.7 69.9 16.3 C 69.7 15.9 69.6 15.1 69.6 13.8 C 69.61 13.83 69.6 6.7 69.6 6.7 L 68.1 6.7 L 68.1 5 L 69.6 5 L 69.6 1.9 L 71.7 0.7 L 71.7 5 L 73.8 5 L 73.8 6.7 L 71.7 6.7 C 71.7 6.7 71.71 13.95 71.7 13.9 C 71.7 14.5 71.7 14.9 71.8 15.1 C 71.9 15.3 72 15.4 72.2 15.5 C 72.3 15.6 72.6 15.7 72.9 15.7 C 72.9 15.7 72.9 15.7 72.9 15.7 Z M 75.9 2.7 L 75.9 0.3 L 78 0.3 L 78 2.7 L 75.9 2.7 Z M 75.9 17.5 L 75.9 5 L 78 5 L 78 17.5 L 75.9 17.5 Z M 80.4 11.3 C 80.4 8.9 81.1 7.2 82.4 6.1 C 83.4 5.2 84.7 4.7 86.3 4.7 C 88 4.7 89.4 5.3 90.5 6.4 C 91.6 7.5 92.1 9.1 92.1 11.1 C 92.1 12.7 91.9 13.9 91.4 14.9 C 90.9 15.8 90.2 16.5 89.3 17 C 88.4 17.5 87.4 17.8 86.3 17.8 C 84.5 17.8 83.1 17.2 82 16.1 C 81 15 80.4 13.4 80.4 11.3 Z M 82.6 11.3 C 82.6 12.8 83 14 83.6 14.8 C 84.3 15.6 85.2 16 86.3 16 C 87.3 16 88.2 15.6 88.9 14.8 C 89.6 14 89.9 12.8 89.9 11.2 C 89.9 9.6 89.6 8.5 88.9 7.7 C 88.2 6.9 87.3 6.5 86.3 6.5 C 85.2 6.5 84.3 6.9 83.6 7.7 C 83 8.5 82.6 9.7 82.6 11.3 Z M 94.6 17.5 L 94.6 5 L 96.5 5 C 96.5 5 96.47 6.8 96.5 6.8 C 97.4 5.4 98.7 4.7 100.4 4.7 C 101.2 4.7 101.9 4.9 102.5 5.2 C 103.1 5.4 103.6 5.8 103.9 6.2 C 104.2 6.6 104.4 7.2 104.6 7.8 C 104.6 8.2 104.7 8.8 104.7 9.8 C 104.68 9.82 104.7 17.5 104.7 17.5 L 102.6 17.5 C 102.6 17.5 102.57 9.9 102.6 9.9 C 102.6 9 102.5 8.4 102.3 8 C 102.2 7.5 101.9 7.2 101.5 7 C 101 6.7 100.5 6.6 100 6.6 C 99.1 6.6 98.3 6.9 97.7 7.4 C 97 8 96.7 9.1 96.7 10.7 C 96.68 10.68 96.7 17.5 96.7 17.5 L 94.6 17.5 Z " stroke="none" fill="#000"/>  </g></svg>