<?xml version="1.0" standalone="no"?><!DOCTYPE svg PUBLIC "-//W3C//DTD SVG 1.1//EN" "http://www.w3.org/Graphics/SVG/1.1/DTD/svg11.dtd"><svg xmlns="http://www.w3.org/2000/svg" version="1.1" width="117.2px" height="103.4px" viewBox="0 -5 117.2 103.4" style="top:-5px">  <desc>Training Supporting Customers in Arrears</desc>  <defs/>  <g id="Polygon45297">    <path d="M 3 72.9 L 3 86.6 L 1.5 86.6 L 1.5 72.9 L 3 72.9 Z M 7.3 72.9 L 17 84.2 L 17 72.9 L 18.4 72.9 L 18.4 86.6 L 17.1 86.6 L 7.5 75.3 L 7.5 86.6 L 6.1 86.6 L 6.1 72.9 L 7.3 72.9 Z M 32.5 72.9 L 38.6 86.6 L 37.1 86.6 L 35.1 82.3 L 28.9 82.3 L 27.1 86.6 L 25.6 86.6 L 31.5 72.9 L 32.5 72.9 Z M 29.5 81 L 34.5 81 L 32 75.2 L 29.5 81 Z M 40.2 72.9 C 40.2 72.9 43.74 72.94 43.7 72.9 C 46.5 72.9 47.9 74.5 47.9 76.6 C 47.9 78.3 47 79.5 45.3 80 C 46.2 80.4 46.6 80.8 47.7 82.5 C 47.72 82.5 50.4 86.6 50.4 86.6 L 48.6 86.6 C 48.6 86.6 46.18 82.82 46.2 82.8 C 44.9 80.8 44.1 80.4 42.9 80.4 C 42.92 80.38 41.7 80.4 41.7 80.4 L 41.7 86.6 L 40.2 86.6 L 40.2 72.9 Z M 43.1 79.1 C 44.9 79.1 46.4 78.6 46.4 76.6 C 46.4 74.9 45.3 74.3 43.5 74.3 C 43.54 74.26 41.7 74.3 41.7 74.3 L 41.7 79.1 C 41.7 79.1 43.06 79.06 43.1 79.1 Z M 51.9 72.9 C 51.9 72.9 55.44 72.94 55.4 72.9 C 58.2 72.9 59.6 74.5 59.6 76.6 C 59.6 78.3 58.7 79.5 57 80 C 57.9 80.4 58.3 80.8 59.4 82.5 C 59.42 82.5 62.1 86.6 62.1 86.6 L 60.3 86.6 C 60.3 86.6 57.88 82.82 57.9 82.8 C 56.6 80.8 55.8 80.4 54.6 80.4 C 54.62 80.38 53.4 80.4 53.4 80.4 L 53.4 86.6 L 51.9 86.6 L 51.9 72.9 Z M 54.8 79.1 C 56.6 79.1 58.1 78.6 58.1 76.6 C 58.1 74.9 57 74.3 55.2 74.3 C 55.24 74.26 53.4 74.3 53.4 74.3 L 53.4 79.1 C 53.4 79.1 54.76 79.06 54.8 79.1 Z M 71 72.9 L 71 74.3 L 65.1 74.3 L 65.1 79 L 70.8 79 L 70.8 80.4 L 65.1 80.4 L 65.1 85.2 L 71.2 85.2 L 71.2 86.6 L 63.6 86.6 L 63.6 72.9 L 71 72.9 Z M 79.5 72.9 L 85.6 86.6 L 84.1 86.6 L 82.1 82.3 L 75.9 82.3 L 74.1 86.6 L 72.6 86.6 L 78.5 72.9 L 79.5 72.9 Z M 76.5 81 L 81.5 81 L 79 75.2 L 76.5 81 Z M 87.2 72.9 C 87.2 72.9 90.74 72.94 90.7 72.9 C 93.5 72.9 94.9 74.5 94.9 76.6 C 94.9 78.3 94 79.5 92.3 80 C 93.2 80.4 93.6 80.8 94.7 82.5 C 94.72 82.5 97.4 86.6 97.4 86.6 L 95.6 86.6 C 95.6 86.6 93.18 82.82 93.2 82.8 C 91.9 80.8 91.1 80.4 89.9 80.4 C 89.92 80.38 88.7 80.4 88.7 80.4 L 88.7 86.6 L 87.2 86.6 L 87.2 72.9 Z M 90.1 79.1 C 91.9 79.1 93.4 78.6 93.4 76.6 C 93.4 74.9 92.3 74.3 90.5 74.3 C 90.54 74.26 88.7 74.3 88.7 74.3 L 88.7 79.1 C 88.7 79.1 90.06 79.06 90.1 79.1 Z M 105.5 73.6 C 105.5 73.6 105.5 75.3 105.5 75.3 C 104.6 74.5 103.5 74.1 102.4 74.1 C 101 74.1 100 74.9 100 76.1 C 100 77 100.3 77.8 102.5 78.9 C 105.3 80.4 106 81.4 106 83.2 C 106 85.2 104.5 86.8 102.1 86.8 C 100.8 86.8 99.6 86.3 98.6 85.6 C 98.6 85.6 98.6 83.7 98.6 83.7 C 99.6 84.8 100.8 85.4 102.1 85.4 C 103.5 85.4 104.5 84.6 104.5 83.2 C 104.5 82.1 104.1 81.4 101.5 80 C 99.3 78.9 98.5 77.9 98.5 76.1 C 98.5 74.2 100.2 72.8 102.5 72.8 C 103.5 72.8 104.6 73.1 105.5 73.6 Z " stroke="none" fill="#000000"/>  </g>  <g id="Polygon45296">    <path d="M 12.8 49.8 C 12.8 49.8 12.8 51.5 12.8 51.5 C 11.4 50.6 9.8 50.2 8.2 50.2 C 4.7 50.2 2.5 52.8 2.5 55.8 C 2.5 58.8 4.7 61.4 8.2 61.4 C 9.9 61.4 11.4 60.9 12.9 60 C 12.9 60 12.9 61.6 12.9 61.6 C 11.4 62.4 9.8 62.8 8.1 62.8 C 3.4 62.8 0.9 59.2 0.9 55.8 C 0.9 51.8 4.1 48.8 8.2 48.8 C 9.7 48.8 11.3 49.1 12.8 49.8 Z M 16.6 48.9 C 16.6 48.9 16.58 56.8 16.6 56.8 C 16.6 59.8 18 61.4 20.8 61.4 C 23.6 61.4 25 59.8 25 56.8 C 25.02 56.8 25 48.9 25 48.9 L 26.5 48.9 C 26.5 48.9 26.52 56.8 26.5 56.8 C 26.5 60.4 24.6 62.8 20.8 62.8 C 17.1 62.8 15.1 60.6 15.1 56.8 C 15.08 56.8 15.1 48.9 15.1 48.9 L 16.6 48.9 Z M 35.7 49.6 C 35.7 49.6 35.7 51.3 35.7 51.3 C 34.8 50.5 33.8 50.1 32.7 50.1 C 31.2 50.1 30.3 50.9 30.3 52.1 C 30.3 53 30.5 53.8 32.8 54.9 C 35.6 56.4 36.3 57.4 36.3 59.2 C 36.3 61.2 34.7 62.8 32.4 62.8 C 31.1 62.8 29.9 62.3 28.8 61.6 C 28.8 61.6 28.8 59.7 28.8 59.7 C 29.8 60.8 31 61.4 32.4 61.4 C 33.7 61.4 34.7 60.6 34.7 59.2 C 34.7 58.1 34.4 57.4 31.7 56 C 29.6 54.9 28.8 53.9 28.8 52.1 C 28.8 50.2 30.4 48.8 32.7 48.8 C 33.8 48.8 34.8 49.1 35.7 49.6 Z M 48.6 48.9 L 48.6 50.3 L 43.7 50.3 L 43.7 62.6 L 42.2 62.6 L 42.2 50.3 L 37.4 50.3 L 37.4 48.9 L 48.6 48.9 Z M 63.3 55.7 C 63.3 59.5 60.5 62.8 56 62.8 C 51.8 62.8 48.9 59.5 48.9 55.8 C 48.9 52 51.6 48.8 56.1 48.8 C 60.4 48.8 63.3 51.9 63.3 55.7 Z M 50.5 55.8 C 50.5 59 53 61.4 56 61.3 C 60.1 61.3 61.7 58.2 61.7 55.7 C 61.7 53 59.7 50.2 56.1 50.2 C 52.4 50.2 50.5 53 50.5 55.8 Z M 65.8 48.9 L 67.2 48.9 L 72 54.9 L 76.8 48.9 L 78.2 48.9 L 78.2 62.6 L 76.7 62.6 L 76.7 51.3 L 76.7 51.3 L 72.1 57 L 71.9 57 L 67.3 51.3 L 67.3 51.3 L 67.3 62.6 L 65.8 62.6 L 65.8 48.9 Z M 88.8 48.9 L 88.8 50.3 L 82.8 50.3 L 82.8 55 L 88.6 55 L 88.6 56.4 L 82.8 56.4 L 82.8 61.2 L 88.9 61.2 L 88.9 62.6 L 81.3 62.6 L 81.3 48.9 L 88.8 48.9 Z M 91.3 48.9 C 91.3 48.9 94.92 48.94 94.9 48.9 C 97.7 48.9 99.1 50.5 99.1 52.6 C 99.1 54.3 98.2 55.5 96.5 56 C 97.4 56.4 97.8 56.8 98.9 58.5 C 98.9 58.5 101.5 62.6 101.5 62.6 L 99.8 62.6 C 99.8 62.6 97.36 58.82 97.4 58.8 C 96.1 56.8 95.3 56.4 94.1 56.4 C 94.1 56.38 92.8 56.4 92.8 56.4 L 92.8 62.6 L 91.3 62.6 L 91.3 48.9 Z M 94.2 55.1 C 96.1 55.1 97.5 54.6 97.5 52.6 C 97.5 50.9 96.5 50.3 94.7 50.3 C 94.72 50.26 92.8 50.3 92.8 50.3 L 92.8 55.1 C 92.8 55.1 94.24 55.06 94.2 55.1 Z M 109.7 49.6 C 109.7 49.6 109.7 51.3 109.7 51.3 C 108.7 50.5 107.7 50.1 106.6 50.1 C 105.2 50.1 104.2 50.9 104.2 52.1 C 104.2 53 104.4 53.8 106.7 54.9 C 109.5 56.4 110.2 57.4 110.2 59.2 C 110.2 61.2 108.6 62.8 106.3 62.8 C 105 62.8 103.8 62.3 102.8 61.6 C 102.8 61.6 102.8 59.7 102.8 59.7 C 103.8 60.8 105 61.4 106.3 61.4 C 107.7 61.4 108.7 60.6 108.7 59.2 C 108.7 58.1 108.3 57.4 105.7 56 C 103.5 54.9 102.7 53.9 102.7 52.1 C 102.7 50.2 104.4 48.8 106.6 48.8 C 107.7 48.8 108.8 49.1 109.7 49.6 Z " stroke="none" fill="#000000"/>  </g>  <g id="Polygon45295">    <path d="M 7.9 25.6 C 7.9 25.6 7.9 27.3 7.9 27.3 C 6.9 26.5 5.9 26.1 4.8 26.1 C 3.3 26.1 2.4 26.9 2.4 28.1 C 2.4 29 2.6 29.8 4.9 30.9 C 7.7 32.4 8.4 33.4 8.4 35.2 C 8.4 37.2 6.8 38.8 4.5 38.8 C 3.2 38.8 2 38.3 0.9 37.6 C 0.9 37.6 0.9 35.7 0.9 35.7 C 2 36.8 3.2 37.4 4.5 37.4 C 5.9 37.4 6.9 36.6 6.9 35.2 C 6.9 34.1 6.5 33.4 3.8 32 C 1.7 30.9 0.9 29.9 0.9 28.1 C 0.9 26.2 2.5 24.8 4.8 24.8 C 5.9 24.8 6.9 25.1 7.9 25.6 Z M 12 24.9 C 12 24.9 12.04 32.8 12 32.8 C 12 35.8 13.5 37.4 16.3 37.4 C 19.1 37.4 20.5 35.8 20.5 32.8 C 20.48 32.8 20.5 24.9 20.5 24.9 L 22 24.9 C 22 24.9 21.98 32.8 22 32.8 C 22 36.4 20.1 38.8 16.3 38.8 C 12.5 38.8 10.5 36.6 10.5 32.8 C 10.54 32.8 10.5 24.9 10.5 24.9 L 12 24.9 Z M 28.8 24.9 C 31.5 24.9 33.1 26.3 33.1 28.7 C 33.1 31.2 31.4 32.4 28.5 32.4 C 28.5 32.44 26.4 32.4 26.4 32.4 L 26.4 38.6 L 24.9 38.6 L 24.9 24.9 C 24.9 24.9 28.76 24.94 28.8 24.9 Z M 26.4 31.1 C 26.4 31.1 28.46 31.12 28.5 31.1 C 30.8 31.1 31.6 30.2 31.6 28.7 C 31.6 27.1 30.7 26.3 28.5 26.3 C 28.46 26.26 26.4 26.3 26.4 26.3 L 26.4 31.1 Z M 39.1 24.9 C 41.9 24.9 43.5 26.3 43.5 28.7 C 43.5 31.2 41.8 32.4 38.9 32.4 C 38.88 32.44 36.8 32.4 36.8 32.4 L 36.8 38.6 L 35.3 38.6 L 35.3 24.9 C 35.3 24.9 39.14 24.94 39.1 24.9 Z M 36.8 31.1 C 36.8 31.1 38.84 31.12 38.8 31.1 C 41.1 31.1 42 30.2 42 28.7 C 42 27.1 41.1 26.3 38.8 26.3 C 38.84 26.26 36.8 26.3 36.8 26.3 L 36.8 31.1 Z M 59.4 31.7 C 59.4 35.5 56.6 38.8 52.1 38.8 C 47.9 38.8 45 35.5 45 31.8 C 45 28 47.8 24.8 52.2 24.8 C 56.5 24.8 59.4 27.9 59.4 31.7 Z M 46.6 31.8 C 46.6 35 49.1 37.4 52.1 37.3 C 56.2 37.3 57.9 34.2 57.9 31.7 C 57.9 29 55.8 26.2 52.3 26.2 C 48.5 26.2 46.6 29 46.6 31.8 Z M 61.9 24.9 C 61.9 24.9 65.46 24.94 65.5 24.9 C 68.2 24.9 69.6 26.5 69.6 28.6 C 69.6 30.3 68.7 31.5 67 32 C 67.9 32.4 68.3 32.8 69.4 34.5 C 69.44 34.5 72.1 38.6 72.1 38.6 L 70.3 38.6 C 70.3 38.6 67.9 34.82 67.9 34.8 C 66.6 32.8 65.8 32.4 64.6 32.4 C 64.64 32.38 63.4 32.4 63.4 32.4 L 63.4 38.6 L 61.9 38.6 L 61.9 24.9 Z M 64.8 31.1 C 66.7 31.1 68.1 30.6 68.1 28.6 C 68.1 26.9 67 26.3 65.3 26.3 C 65.26 26.26 63.4 26.3 63.4 26.3 L 63.4 31.1 C 63.4 31.1 64.78 31.06 64.8 31.1 Z M 82.5 24.9 L 82.5 26.3 L 77.6 26.3 L 77.6 38.6 L 76.1 38.6 L 76.1 26.3 L 71.3 26.3 L 71.3 24.9 L 82.5 24.9 Z M 85.9 24.9 L 85.9 38.6 L 84.4 38.6 L 84.4 24.9 L 85.9 24.9 Z M 90.2 24.9 L 99.8 36.2 L 99.8 24.9 L 101.3 24.9 L 101.3 38.6 L 99.9 38.6 L 90.4 27.3 L 90.4 38.6 L 88.9 38.6 L 88.9 24.9 L 90.2 24.9 Z M 115.6 27.4 C 114.1 26.6 112.4 26.1 110.9 26.1 C 107.7 26.1 105.3 28.5 105.3 31.7 C 105.3 35.1 107.6 37.4 111 37.4 C 112.1 37.4 113 37.2 114.4 36.7 C 114.36 36.72 114.4 33.4 114.4 33.4 L 111.6 33.4 L 111.6 32.1 L 115.9 32.1 C 115.9 32.1 115.86 37.64 115.9 37.6 C 114.3 38.4 112.8 38.8 111 38.8 C 106.1 38.8 103.7 35.3 103.7 31.8 C 103.7 28 106.6 24.8 110.9 24.8 C 112.5 24.8 113.8 25.1 115.6 25.9 C 115.6 25.9 115.6 27.4 115.6 27.4 Z " stroke="none" fill="#000000"/>  </g>  <g id="Polygon45294">    <path d="M 8.6 4.3 L 8.6 5.3 L 5 5.3 L 5 14.6 L 3.8 14.6 L 3.8 5.3 L 0.2 5.3 L 0.2 4.3 L 8.6 4.3 Z M 10 4.3 C 10 4.3 12.69 4.35 12.7 4.3 C 14.7 4.3 15.8 5.5 15.8 7.1 C 15.8 8.4 15.1 9.2 13.9 9.6 C 14.5 10 14.8 10.2 15.7 11.5 C 15.67 11.52 17.7 14.6 17.7 14.6 L 16.3 14.6 C 16.3 14.6 14.52 11.76 14.5 11.8 C 13.6 10.3 12.9 9.9 12.1 9.9 C 12.07 9.93 11.1 9.9 11.1 9.9 L 11.1 14.6 L 10 14.6 L 10 4.3 Z M 12.2 8.9 C 13.6 8.9 14.7 8.6 14.7 7.1 C 14.7 5.8 13.8 5.3 12.5 5.3 C 12.54 5.34 11.1 5.3 11.1 5.3 L 11.1 8.9 C 11.1 8.9 12.18 8.94 12.2 8.9 Z M 22.9 4.3 L 27.4 14.6 L 26.3 14.6 L 24.8 11.4 L 20.2 11.4 L 18.8 14.6 L 17.7 14.6 L 22.1 4.3 L 22.9 4.3 Z M 20.6 10.4 L 24.4 10.4 L 22.5 6 L 20.6 10.4 Z M 29.7 4.3 L 29.7 14.6 L 28.6 14.6 L 28.6 4.3 L 29.7 4.3 Z M 33 4.3 L 40.2 12.8 L 40.2 4.3 L 41.3 4.3 L 41.3 14.6 L 40.3 14.6 L 33.1 6.1 L 33.1 14.6 L 32 14.6 L 32 4.3 L 33 4.3 Z M 44.7 4.3 L 44.7 14.6 L 43.6 14.6 L 43.6 4.3 L 44.7 4.3 Z M 47.9 4.3 L 55.2 12.8 L 55.2 4.3 L 56.2 4.3 L 56.2 14.6 L 55.3 14.6 L 48.1 6.1 L 48.1 14.6 L 47 14.6 L 47 4.3 L 47.9 4.3 Z M 67 6.2 C 65.9 5.6 64.6 5.2 63.5 5.2 C 61.1 5.2 59.3 7 59.3 9.4 C 59.3 11.9 61 13.7 63.6 13.7 C 64.4 13.7 65 13.6 66.1 13.2 C 66.07 13.18 66.1 10.7 66.1 10.7 L 64 10.7 L 64 9.7 L 67.2 9.7 C 67.2 9.7 67.2 13.87 67.2 13.9 C 66 14.4 64.9 14.7 63.6 14.7 C 59.9 14.7 58.1 12.1 58.1 9.5 C 58.1 6.6 60.2 4.2 63.5 4.2 C 64.7 4.2 65.6 4.5 67 5.1 C 67 5.1 67 6.2 67 6.2 Z " stroke="none" fill="#f28620"/>  </g></svg>