<?xml version="1.0" standalone="no"?><!DOCTYPE svg PUBLIC "-//W3C//DTD SVG 1.1//EN" "http://www.w3.org/Graphics/SVG/1.1/DTD/svg11.dtd"><svg xmlns="http://www.w3.org/2000/svg" version="1.1" width="2011.5px" height="90.3px" viewBox="0 -14 2011.5 90.3" style="top:-14px">  <desc>Nationwide Empowers Leaders with People Manager Programme</desc>  <defs/>  <g id="Polygon18404">    <path d="M 8.3 2.8 L 37.3 36.7 L 37.3 2.8 L 41.6 2.8 L 41.6 43.7 L 37.7 43.7 L 8.9 10 L 8.9 43.7 L 4.6 43.7 L 4.6 2.8 L 8.3 2.8 Z M 67.2 2.6 L 85.4 43.7 L 80.8 43.7 L 75.1 30.9 L 56.5 30.9 L 50.9 43.7 L 46.3 43.7 L 64 2.6 L 67.2 2.6 Z M 58.2 26.9 L 73.3 26.9 L 65.5 9.5 L 58.2 26.9 Z M 115 2.8 L 115 6.8 L 100.3 6.8 L 100.3 43.7 L 95.8 43.7 L 95.8 6.8 L 81.4 6.8 L 81.4 2.8 L 115 2.8 Z M 125 2.8 L 125 43.7 L 120.5 43.7 L 120.5 2.8 L 125 2.8 Z M 175.5 23.1 C 175.5 34.6 167.1 44.3 153.6 44.3 C 140.9 44.3 132.4 34.6 132.4 23.5 C 132.4 12.1 140.5 2.3 153.8 2.3 C 166.9 2.3 175.5 11.8 175.5 23.1 Z M 137 23.3 C 137 33 144.5 40.1 153.7 40 C 165.8 40 170.8 30.6 170.8 23.2 C 170.8 14.9 164.7 6.5 154 6.5 C 142.9 6.5 137 15 137 23.3 Z M 186.6 2.8 L 215.6 36.7 L 215.6 2.8 L 219.9 2.8 L 219.9 43.7 L 215.9 43.7 L 187.2 10 L 187.2 43.7 L 182.9 43.7 L 182.9 2.8 L 186.6 2.8 Z M 224.5 2.8 L 229.1 2.8 L 241.4 34 L 241.4 34 L 253.6 2.8 L 257.6 2.8 L 269.9 33.8 L 270 33.8 L 282 2.8 L 286.6 2.8 L 270.3 44 L 269.3 44 L 255.5 9.2 L 241.9 44 L 240.9 44 L 224.5 2.8 Z M 295.8 2.8 L 295.8 43.7 L 291.3 43.7 L 291.3 2.8 L 295.8 2.8 Z M 305 2.8 C 305 2.8 320.04 2.82 320 2.8 C 333.4 2.8 342.1 11.2 342.1 22.9 C 342.1 35.6 333.1 43.7 320 43.7 C 320.04 43.74 305 43.7 305 43.7 L 305 2.8 Z M 320 39.7 C 330.7 39.7 337.4 33.3 337.4 23.2 C 337.4 13.3 330.9 6.8 319.3 6.8 C 319.32 6.84 309.5 6.8 309.5 6.8 L 309.5 39.7 C 309.5 39.7 319.98 39.66 320 39.7 Z M 371.9 2.8 L 371.9 6.8 L 354.1 6.8 L 354.1 21.1 L 371.3 21.1 L 371.3 25.1 L 354.1 25.1 L 354.1 39.7 L 372.4 39.7 L 372.4 43.7 L 349.6 43.7 L 349.6 2.8 L 371.9 2.8 Z M 418.7 2.8 L 418.7 6.8 L 400.9 6.8 L 400.9 21.1 L 418.1 21.1 L 418.1 25.1 L 400.9 25.1 L 400.9 39.7 L 419.2 39.7 L 419.2 43.7 L 396.4 43.7 L 396.4 2.8 L 418.7 2.8 Z M 426.5 2.8 L 430.7 2.8 L 445.2 20.8 L 459.6 2.8 L 463.9 2.8 L 463.9 43.7 L 459.4 43.7 L 459.4 10 L 459.2 10 L 445.6 27.1 L 444.8 27.1 L 431.1 10 L 431 10 L 431 43.7 L 426.5 43.7 L 426.5 2.8 Z M 484.7 2.8 C 492.9 2.8 497.9 7 497.9 14.1 C 497.9 21.7 492.7 25.3 484 25.3 C 483.96 25.32 477.6 25.3 477.6 25.3 L 477.6 43.7 L 473.1 43.7 L 473.1 2.8 C 473.1 2.8 484.74 2.82 484.7 2.8 Z M 477.6 21.4 C 477.6 21.4 483.84 21.36 483.8 21.4 C 490.7 21.4 493.3 18.7 493.3 14 C 493.3 9.4 490.5 6.8 483.8 6.8 C 483.84 6.78 477.6 6.8 477.6 6.8 L 477.6 21.4 Z M 545.6 23.1 C 545.6 34.6 537.2 44.3 523.7 44.3 C 511 44.3 502.4 34.6 502.4 23.5 C 502.4 12.1 510.6 2.3 523.9 2.3 C 536.9 2.3 545.6 11.8 545.6 23.1 Z M 507.1 23.3 C 507.1 33 514.6 40.1 523.7 40 C 535.9 40 540.9 30.6 540.9 23.2 C 540.9 14.9 534.8 6.5 524.1 6.5 C 512.9 6.5 507.1 15 507.1 23.3 Z M 546.8 2.8 L 551.4 2.8 L 563.7 34 L 563.8 34 L 575.9 2.8 L 579.9 2.8 L 592.3 33.8 L 592.3 33.8 L 604.3 2.8 L 608.9 2.8 L 592.6 44 L 591.7 44 L 577.9 9.2 L 564.2 44 L 563.2 44 L 546.8 2.8 Z M 636 2.8 L 636 6.8 L 618.1 6.8 L 618.1 21.1 L 635.4 21.1 L 635.4 25.1 L 618.1 25.1 L 618.1 39.7 L 636.5 39.7 L 636.5 43.7 L 613.6 43.7 L 613.6 2.8 L 636 2.8 Z M 643.7 2.8 C 643.7 2.8 654.48 2.82 654.5 2.8 C 662.7 2.8 667 7.6 667 13.8 C 667 18.9 664.2 22.4 659.2 23.9 C 661.9 25.3 663.1 26.3 666.4 31.5 C 666.42 31.5 674.3 43.7 674.3 43.7 L 669 43.7 C 669 43.7 661.8 32.46 661.8 32.5 C 658 26.5 655.5 25.1 652 25.1 C 652.02 25.14 648.2 25.1 648.2 25.1 L 648.2 43.7 L 643.7 43.7 L 643.7 2.8 Z M 652.4 21.2 C 658.1 21.2 662.3 19.8 662.3 13.9 C 662.3 8.8 659.1 6.8 653.9 6.8 C 653.88 6.78 648.2 6.8 648.2 6.8 L 648.2 21.2 C 648.2 21.2 652.44 21.18 652.4 21.2 Z M 698.8 4.9 C 698.8 4.9 698.8 10 698.8 10 C 695.9 7.6 692.9 6.4 689.5 6.4 C 685.2 6.4 682.4 8.8 682.4 12.3 C 682.4 15 683 17.3 689.8 20.8 C 698.3 25.1 700.3 28.1 700.3 33.7 C 700.3 39.7 695.6 44.3 688.6 44.3 C 684.7 44.3 681.1 43 678 40.7 C 678 40.7 678 35 678 35 C 681.1 38.4 684.7 40.3 688.6 40.3 C 692.8 40.3 695.8 37.7 695.8 33.7 C 695.8 30.2 694.6 28.2 686.7 24.1 C 680.3 20.8 677.8 17.6 677.8 12.4 C 677.8 6.6 682.8 2.3 689.6 2.3 C 692.8 2.3 696 3.2 698.8 4.9 Z M 728.5 2.8 L 728.5 39.6 L 747.8 39.6 L 747.8 43.7 L 724 43.7 L 724 2.8 L 728.5 2.8 Z M 775.4 2.8 L 775.4 6.8 L 757.5 6.8 L 757.5 21.1 L 774.8 21.1 L 774.8 25.1 L 757.5 25.1 L 757.5 39.7 L 775.9 39.7 L 775.9 43.7 L 753 43.7 L 753 2.8 L 775.4 2.8 Z M 800.9 2.6 L 819.1 43.7 L 814.5 43.7 L 808.7 30.9 L 790.1 30.9 L 784.6 43.7 L 780 43.7 L 797.7 2.6 L 800.9 2.6 Z M 791.9 26.9 L 806.9 26.9 L 799.2 9.5 L 791.9 26.9 Z M 823.8 2.8 C 823.8 2.8 838.85 2.82 838.9 2.8 C 852.2 2.8 860.9 11.2 860.9 22.9 C 860.9 35.6 851.9 43.7 838.9 43.7 C 838.85 43.74 823.8 43.7 823.8 43.7 L 823.8 2.8 Z M 838.8 39.7 C 849.5 39.7 856.2 33.3 856.2 23.2 C 856.2 13.3 849.7 6.8 838.1 6.8 C 838.13 6.84 828.3 6.8 828.3 6.8 L 828.3 39.7 C 828.3 39.7 838.79 39.66 838.8 39.7 Z M 890.8 2.8 L 890.8 6.8 L 872.9 6.8 L 872.9 21.1 L 890.2 21.1 L 890.2 25.1 L 872.9 25.1 L 872.9 39.7 L 891.2 39.7 L 891.2 43.7 L 868.4 43.7 L 868.4 2.8 L 890.8 2.8 Z M 898.5 2.8 C 898.5 2.8 909.23 2.82 909.2 2.8 C 917.5 2.8 921.7 7.6 921.7 13.8 C 921.7 18.9 919 22.4 914 23.9 C 916.6 25.3 917.8 26.3 921.2 31.5 C 921.17 31.5 929.1 43.7 929.1 43.7 L 923.8 43.7 C 923.8 43.7 916.55 32.46 916.6 32.5 C 912.8 26.5 910.3 25.1 906.8 25.1 C 906.77 25.14 903 25.1 903 25.1 L 903 43.7 L 898.5 43.7 L 898.5 2.8 Z M 907.2 21.2 C 912.8 21.2 917.1 19.8 917.1 13.9 C 917.1 8.8 913.9 6.8 908.6 6.8 C 908.63 6.78 903 6.8 903 6.8 L 903 21.2 C 903 21.2 907.19 21.18 907.2 21.2 Z M 953.5 4.9 C 953.5 4.9 953.5 10 953.5 10 C 950.7 7.6 947.6 6.4 944.3 6.4 C 940 6.4 937.1 8.8 937.1 12.3 C 937.1 15 937.8 17.3 944.6 20.8 C 953 25.1 955.1 28.1 955.1 33.7 C 955.1 39.7 950.4 44.3 943.4 44.3 C 939.5 44.3 935.9 43 932.8 40.7 C 932.8 40.7 932.8 35 932.8 35 C 935.8 38.4 939.4 40.3 943.4 40.3 C 947.5 40.3 950.5 37.7 950.5 33.7 C 950.5 30.2 949.4 28.2 941.5 24.1 C 935 20.8 932.6 17.6 932.6 12.4 C 932.6 6.6 937.6 2.3 944.4 2.3 C 947.6 2.3 950.8 3.2 953.5 4.9 Z M 974.2 2.8 L 978.8 2.8 L 991.1 34 L 991.1 34 L 1003.3 2.8 L 1007.3 2.8 L 1019.6 33.8 L 1019.7 33.8 L 1031.7 2.8 L 1036.3 2.8 L 1020 44 L 1019 44 L 1005.2 9.2 L 991.6 44 L 990.6 44 L 974.2 2.8 Z M 1045.5 2.8 L 1045.5 43.7 L 1041 43.7 L 1041 2.8 L 1045.5 2.8 Z M 1084.6 2.8 L 1084.6 6.8 L 1069.9 6.8 L 1069.9 43.7 L 1065.4 43.7 L 1065.4 6.8 L 1051 6.8 L 1051 2.8 L 1084.6 2.8 Z M 1094.6 2.8 L 1094.6 21.1 L 1119.4 21.1 L 1119.4 2.8 L 1123.9 2.8 L 1123.9 43.7 L 1119.4 43.7 L 1119.4 25.2 L 1094.6 25.2 L 1094.6 43.7 L 1090.1 43.7 L 1090.1 2.8 L 1094.6 2.8 Z M 1161.4 2.8 C 1169.6 2.8 1174.6 7 1174.6 14.1 C 1174.6 21.7 1169.4 25.3 1160.6 25.3 C 1160.63 25.32 1154.3 25.3 1154.3 25.3 L 1154.3 43.7 L 1149.8 43.7 L 1149.8 2.8 C 1149.8 2.8 1161.41 2.82 1161.4 2.8 Z M 1154.3 21.4 C 1154.3 21.4 1160.51 21.36 1160.5 21.4 C 1167.4 21.4 1169.9 18.7 1169.9 14 C 1169.9 9.4 1167.2 6.8 1160.5 6.8 C 1160.51 6.78 1154.3 6.8 1154.3 6.8 L 1154.3 21.4 Z M 1203.3 2.8 L 1203.3 6.8 L 1185.4 6.8 L 1185.4 21.1 L 1202.7 21.1 L 1202.7 25.1 L 1185.4 25.1 L 1185.4 39.7 L 1203.8 39.7 L 1203.8 43.7 L 1180.9 43.7 L 1180.9 2.8 L 1203.3 2.8 Z M 1252.4 23.1 C 1252.4 34.6 1244 44.3 1230.5 44.3 C 1217.8 44.3 1209.2 34.6 1209.2 23.5 C 1209.2 12.1 1217.4 2.3 1230.7 2.3 C 1243.7 2.3 1252.4 11.8 1252.4 23.1 Z M 1213.9 23.3 C 1213.9 33 1221.4 40.1 1230.5 40 C 1242.7 40 1247.7 30.6 1247.7 23.2 C 1247.7 14.9 1241.6 6.5 1230.9 6.5 C 1219.7 6.5 1213.9 15 1213.9 23.3 Z M 1271.4 2.8 C 1279.6 2.8 1284.5 7 1284.5 14.1 C 1284.5 21.7 1279.4 25.3 1270.6 25.3 C 1270.61 25.32 1264.3 25.3 1264.3 25.3 L 1264.3 43.7 L 1259.8 43.7 L 1259.8 2.8 C 1259.8 2.8 1271.39 2.82 1271.4 2.8 Z M 1264.3 21.4 C 1264.3 21.4 1270.49 21.36 1270.5 21.4 C 1277.4 21.4 1279.9 18.7 1279.9 14 C 1279.9 9.4 1277.2 6.8 1270.5 6.8 C 1270.49 6.78 1264.3 6.8 1264.3 6.8 L 1264.3 21.4 Z M 1295.4 2.8 L 1295.4 39.6 L 1314.7 39.6 L 1314.7 43.7 L 1290.9 43.7 L 1290.9 2.8 L 1295.4 2.8 Z M 1342.2 2.8 L 1342.2 6.8 L 1324.4 6.8 L 1324.4 21.1 L 1341.6 21.1 L 1341.6 25.1 L 1324.4 25.1 L 1324.4 39.7 L 1342.7 39.7 L 1342.7 43.7 L 1319.9 43.7 L 1319.9 2.8 L 1342.2 2.8 Z M 1366.7 2.8 L 1370.9 2.8 L 1385.4 20.8 L 1399.8 2.8 L 1404 2.8 L 1404 43.7 L 1399.5 43.7 L 1399.5 10 L 1399.4 10 L 1385.7 27.1 L 1385 27.1 L 1371.3 10 L 1371.2 10 L 1371.2 43.7 L 1366.7 43.7 L 1366.7 2.8 Z M 1429.7 2.6 L 1447.9 43.7 L 1443.3 43.7 L 1437.5 30.9 L 1418.9 30.9 L 1413.4 43.7 L 1408.8 43.7 L 1426.5 2.6 L 1429.7 2.6 Z M 1420.7 26.9 L 1435.7 26.9 L 1428 9.5 L 1420.7 26.9 Z M 1456.3 2.8 L 1485.3 36.7 L 1485.3 2.8 L 1489.6 2.8 L 1489.6 43.7 L 1485.6 43.7 L 1456.9 10 L 1456.9 43.7 L 1452.6 43.7 L 1452.6 2.8 L 1456.3 2.8 Z M 1515.2 2.6 L 1533.4 43.7 L 1528.8 43.7 L 1523 30.9 L 1504.4 30.9 L 1498.9 43.7 L 1494.3 43.7 L 1512 2.6 L 1515.2 2.6 Z M 1506.2 26.9 L 1521.2 26.9 L 1513.5 9.5 L 1506.2 26.9 Z M 1570.1 10.3 C 1565.6 7.7 1560.6 6.3 1556 6.3 C 1546.5 6.3 1539.2 13.5 1539.2 23.1 C 1539.2 33.2 1546.1 40.3 1556.3 40.3 C 1559.7 40.3 1562.2 39.7 1566.4 38.2 C 1566.41 38.16 1566.4 28.2 1566.4 28.2 L 1558.1 28.2 L 1558.1 24.2 L 1570.9 24.2 C 1570.9 24.2 1570.91 40.92 1570.9 40.9 C 1566.2 43.2 1561.7 44.3 1556.3 44.3 C 1541.7 44.3 1534.5 34 1534.5 23.5 C 1534.5 11.9 1543.1 2.3 1556.1 2.3 C 1560.8 2.3 1564.7 3.2 1570.1 5.6 C 1570.1 5.6 1570.1 10.3 1570.1 10.3 Z M 1601.9 2.8 L 1601.9 6.8 L 1584 6.8 L 1584 21.1 L 1601.3 21.1 L 1601.3 25.1 L 1584 25.1 L 1584 39.7 L 1602.3 39.7 L 1602.3 43.7 L 1579.5 43.7 L 1579.5 2.8 L 1601.9 2.8 Z M 1609.6 2.8 C 1609.6 2.8 1620.35 2.82 1620.3 2.8 C 1628.6 2.8 1632.8 7.6 1632.8 13.8 C 1632.8 18.9 1630.1 22.4 1625.1 23.9 C 1627.7 25.3 1628.9 26.3 1632.3 31.5 C 1632.29 31.5 1640.2 43.7 1640.2 43.7 L 1634.9 43.7 C 1634.9 43.7 1627.67 32.46 1627.7 32.5 C 1623.9 26.5 1621.4 25.1 1617.9 25.1 C 1617.89 25.14 1614.1 25.1 1614.1 25.1 L 1614.1 43.7 L 1609.6 43.7 L 1609.6 2.8 Z M 1618.3 21.2 C 1623.9 21.2 1628.2 19.8 1628.2 13.9 C 1628.2 8.8 1625 6.8 1619.7 6.8 C 1619.75 6.78 1614.1 6.8 1614.1 6.8 L 1614.1 21.2 C 1614.1 21.2 1618.31 21.18 1618.3 21.2 Z M 1673 2.8 C 1681.2 2.8 1686.2 7 1686.2 14.1 C 1686.2 21.7 1681 25.3 1672.2 25.3 C 1672.25 25.32 1665.9 25.3 1665.9 25.3 L 1665.9 43.7 L 1661.4 43.7 L 1661.4 2.8 C 1661.4 2.8 1673.03 2.82 1673 2.8 Z M 1665.9 21.4 C 1665.9 21.4 1672.13 21.36 1672.1 21.4 C 1679 21.4 1681.5 18.7 1681.5 14 C 1681.5 9.4 1678.8 6.8 1672.1 6.8 C 1672.13 6.78 1665.9 6.8 1665.9 6.8 L 1665.9 21.4 Z M 1692.5 2.8 C 1692.5 2.8 1703.27 2.82 1703.3 2.8 C 1711.5 2.8 1715.7 7.6 1715.7 13.8 C 1715.7 18.9 1713 22.4 1708 23.9 C 1710.6 25.3 1711.8 26.3 1715.2 31.5 C 1715.21 31.5 1723.1 43.7 1723.1 43.7 L 1717.8 43.7 C 1717.8 43.7 1710.59 32.46 1710.6 32.5 C 1706.8 26.5 1704.3 25.1 1700.8 25.1 C 1700.81 25.14 1697 25.1 1697 25.1 L 1697 43.7 L 1692.5 43.7 L 1692.5 2.8 Z M 1701.2 21.2 C 1706.9 21.2 1711.1 19.8 1711.1 13.9 C 1711.1 8.8 1707.9 6.8 1702.7 6.8 C 1702.67 6.78 1697 6.8 1697 6.8 L 1697 21.2 C 1697 21.2 1701.23 21.18 1701.2 21.2 Z M 1767.8 23.1 C 1767.8 34.6 1759.4 44.3 1745.9 44.3 C 1733.1 44.3 1724.6 34.6 1724.6 23.5 C 1724.6 12.1 1732.8 2.3 1746 2.3 C 1759.1 2.3 1767.8 11.8 1767.8 23.1 Z M 1729.2 23.3 C 1729.2 33 1736.7 40.1 1745.9 40 C 1758.1 40 1763.1 30.6 1763.1 23.2 C 1763.1 14.9 1757 6.5 1746.3 6.5 C 1735.1 6.5 1729.2 15 1729.2 23.3 Z M 1808.9 10.3 C 1804.4 7.7 1799.4 6.3 1794.8 6.3 C 1785.3 6.3 1778 13.5 1778 23.1 C 1778 33.2 1785 40.3 1795.2 40.3 C 1798.6 40.3 1801.1 39.7 1805.3 38.2 C 1805.27 38.16 1805.3 28.2 1805.3 28.2 L 1796.9 28.2 L 1796.9 24.2 L 1809.8 24.2 C 1809.8 24.2 1809.77 40.92 1809.8 40.9 C 1805.1 43.2 1800.5 44.3 1795.2 44.3 C 1780.5 44.3 1773.3 34 1773.3 23.5 C 1773.3 11.9 1781.9 2.3 1795 2.3 C 1799.7 2.3 1803.5 3.2 1808.9 5.6 C 1808.9 5.6 1808.9 10.3 1808.9 10.3 Z M 1818.3 2.8 C 1818.3 2.8 1829.09 2.82 1829.1 2.8 C 1837.3 2.8 1841.6 7.6 1841.6 13.8 C 1841.6 18.9 1838.8 22.4 1833.8 23.9 C 1836.5 25.3 1837.7 26.3 1841 31.5 C 1841.03 31.5 1848.9 43.7 1848.9 43.7 L 1843.6 43.7 C 1843.6 43.7 1836.41 32.46 1836.4 32.5 C 1832.6 26.5 1830.1 25.1 1826.6 25.1 C 1826.63 25.14 1822.8 25.1 1822.8 25.1 L 1822.8 43.7 L 1818.3 43.7 L 1818.3 2.8 Z M 1827 21.2 C 1832.7 21.2 1836.9 19.8 1836.9 13.9 C 1836.9 8.8 1833.7 6.8 1828.5 6.8 C 1828.49 6.78 1822.8 6.8 1822.8 6.8 L 1822.8 21.2 C 1822.8 21.2 1827.05 21.18 1827 21.2 Z M 1869.8 2.6 L 1888.1 43.7 L 1883.4 43.7 L 1877.7 30.9 L 1859.1 30.9 L 1853.6 43.7 L 1848.9 43.7 L 1866.6 2.6 L 1869.8 2.6 Z M 1860.8 26.9 L 1875.9 26.9 L 1868.1 9.5 L 1860.8 26.9 Z M 1892.7 2.8 L 1897 2.8 L 1911.5 20.8 L 1925.9 2.8 L 1930.1 2.8 L 1930.1 43.7 L 1925.6 43.7 L 1925.6 10 L 1925.5 10 L 1911.8 27.1 L 1911 27.1 L 1897.4 10 L 1897.2 10 L 1897.2 43.7 L 1892.7 43.7 L 1892.7 2.8 Z M 1939.4 2.8 L 1943.6 2.8 L 1958.1 20.8 L 1972.5 2.8 L 1976.7 2.8 L 1976.7 43.7 L 1972.2 43.7 L 1972.2 10 L 1972.1 10 L 1958.4 27.1 L 1957.7 27.1 L 1944 10 L 1943.9 10 L 1943.9 43.7 L 1939.4 43.7 L 1939.4 2.8 Z M 2008.4 2.8 L 2008.4 6.8 L 1990.5 6.8 L 1990.5 21.1 L 2007.8 21.1 L 2007.8 25.1 L 1990.5 25.1 L 1990.5 39.7 L 2008.8 39.7 L 2008.8 43.7 L 1986 43.7 L 1986 2.8 L 2008.4 2.8 Z " stroke="none" fill="#010102"/>  </g></svg>