<?xml version="1.0" standalone="no"?><!DOCTYPE svg PUBLIC "-//W3C//DTD SVG 1.1//EN" "http://www.w3.org/Graphics/SVG/1.1/DTD/svg11.dtd"><svg xmlns="http://www.w3.org/2000/svg" version="1.1" width="143.4px" height="98.4px" viewBox="0 -4 143.4 98.4" style="top:-4px">  <desc>EPA Leadership &amp; Management 02</desc>  <defs/>  <g id="Polygon45043">    <path d="M 0.6 76.1 C 0.6 71.6 2.7 69.1 5.1 69.1 C 7.7 69.1 9.4 72 9.4 76.1 C 9.4 80.4 7.5 83.1 5 83.1 C 2.3 83.1 0.6 80.3 0.6 76.1 Z M 7.9 76.1 C 7.9 72.5 6.7 70.5 5 70.5 C 3.3 70.5 2.1 72.5 2.1 76.1 C 2.1 79.6 3.2 81.7 5 81.7 C 6.8 81.7 7.9 79.7 7.9 76.1 Z M 18.4 73.2 C 18.4 76.1 15.9 78.9 13.6 81.5 C 13.56 81.49 19.3 81.5 19.3 81.5 L 19.3 82.9 L 10.9 82.9 C 10.9 82.9 11.24 82.45 11.2 82.5 C 12.9 80.7 16.9 76.6 16.9 73.4 C 16.9 71.3 15.4 70.6 14.2 70.6 C 13.1 70.6 12 71.2 11.1 72.3 C 11.1 72.3 11.1 70.4 11.1 70.4 C 12.1 69.5 13.2 69.1 14.4 69.1 C 16.8 69.1 18.4 70.8 18.4 73.2 Z " stroke="none" fill="#000000"/>  </g>  <g id="Polygon45042">    <path d="M 1.5 45.3 L 3 45.3 L 7.8 51.3 L 12.6 45.3 L 14 45.3 L 14 58.9 L 12.5 58.9 L 12.5 47.7 L 12.5 47.7 L 7.9 53.4 L 7.6 53.4 L 3.1 47.7 L 3 47.7 L 3 58.9 L 1.5 58.9 L 1.5 45.3 Z M 22.5 45.2 L 28.6 58.9 L 27.1 58.9 L 25.2 54.7 L 19 54.7 L 17.1 58.9 L 15.6 58.9 L 21.5 45.2 L 22.5 45.2 Z M 19.5 53.3 L 24.6 53.3 L 22 47.5 L 19.5 53.3 Z M 31.4 45.3 L 41.1 56.6 L 41.1 45.3 L 42.5 45.3 L 42.5 58.9 L 41.2 58.9 L 31.6 47.7 L 31.6 58.9 L 30.2 58.9 L 30.2 45.3 L 31.4 45.3 Z M 51 45.2 L 57.1 58.9 L 55.6 58.9 L 53.7 54.7 L 47.5 54.7 L 45.6 58.9 L 44.1 58.9 L 50 45.2 L 51 45.2 Z M 48 53.3 L 53.1 53.3 L 50.5 47.5 L 48 53.3 Z M 69.3 47.8 C 67.8 46.9 66.2 46.5 64.6 46.5 C 61.5 46.5 59 48.9 59 52.1 C 59 55.4 61.4 57.8 64.8 57.8 C 65.9 57.8 66.7 57.6 68.1 57.1 C 68.12 57.07 68.1 53.8 68.1 53.8 L 65.3 53.8 L 65.3 52.4 L 69.6 52.4 C 69.6 52.4 69.62 57.99 69.6 58 C 68.1 58.8 66.5 59.1 64.8 59.1 C 59.9 59.1 57.5 55.7 57.5 52.2 C 57.5 48.3 60.3 45.1 64.7 45.1 C 66.3 45.1 67.5 45.4 69.3 46.2 C 69.3 46.2 69.3 47.8 69.3 47.8 Z M 79.9 45.3 L 79.9 46.6 L 74 46.6 L 74 51.4 L 79.7 51.4 L 79.7 52.7 L 74 52.7 L 74 57.6 L 80.1 57.6 L 80.1 58.9 L 72.5 58.9 L 72.5 45.3 L 79.9 45.3 Z M 82.5 45.3 L 83.9 45.3 L 88.8 51.3 L 93.6 45.3 L 95 45.3 L 95 58.9 L 93.5 58.9 L 93.5 47.7 L 93.4 47.7 L 88.9 53.4 L 88.6 53.4 L 84.1 47.7 L 84 47.7 L 84 58.9 L 82.5 58.9 L 82.5 45.3 Z M 105.5 45.3 L 105.5 46.6 L 99.6 46.6 L 99.6 51.4 L 105.3 51.4 L 105.3 52.7 L 99.6 52.7 L 99.6 57.6 L 105.7 57.6 L 105.7 58.9 L 98.1 58.9 L 98.1 45.3 L 105.5 45.3 Z M 109.3 45.3 L 119 56.6 L 119 45.3 L 120.4 45.3 L 120.4 58.9 L 119.1 58.9 L 109.5 47.7 L 109.5 58.9 L 108.1 58.9 L 108.1 45.3 L 109.3 45.3 Z M 133.5 45.3 L 133.5 46.6 L 128.6 46.6 L 128.6 58.9 L 127.1 58.9 L 127.1 46.6 L 122.3 46.6 L 122.3 45.3 L 133.5 45.3 Z " stroke="none" fill="#000000"/>  </g>  <g id="Polygon45041">    <path d="M 3 21.3 L 3 33.6 L 9.5 33.6 L 9.5 34.9 L 1.5 34.9 L 1.5 21.3 L 3 21.3 Z M 18.7 21.3 L 18.7 22.6 L 12.7 22.6 L 12.7 27.4 L 18.5 27.4 L 18.5 28.7 L 12.7 28.7 L 12.7 33.6 L 18.8 33.6 L 18.8 34.9 L 11.2 34.9 L 11.2 21.3 L 18.7 21.3 Z M 27.2 21.2 L 33.2 34.9 L 31.7 34.9 L 29.8 30.7 L 23.6 30.7 L 21.7 34.9 L 20.2 34.9 L 26.1 21.2 L 27.2 21.2 Z M 24.2 29.3 L 29.2 29.3 L 26.6 23.5 L 24.2 29.3 Z M 34.8 21.3 C 34.8 21.3 39.82 21.29 39.8 21.3 C 44.3 21.3 47.2 24.1 47.2 28 C 47.2 32.2 44.2 34.9 39.8 34.9 C 39.82 34.93 34.8 34.9 34.8 34.9 L 34.8 21.3 Z M 39.8 33.6 C 43.4 33.6 45.6 31.5 45.6 28.1 C 45.6 24.8 43.4 22.6 39.6 22.6 C 39.58 22.63 36.3 22.6 36.3 22.6 L 36.3 33.6 C 36.3 33.6 39.8 33.57 39.8 33.6 Z M 57.1 21.3 L 57.1 22.6 L 51.2 22.6 L 51.2 27.4 L 56.9 27.4 L 56.9 28.7 L 51.2 28.7 L 51.2 33.6 L 57.3 33.6 L 57.3 34.9 L 49.7 34.9 L 49.7 21.3 L 57.1 21.3 Z M 59.7 21.3 C 59.7 21.3 63.28 21.29 63.3 21.3 C 66 21.3 67.4 22.9 67.4 25 C 67.4 26.7 66.5 27.8 64.9 28.3 C 65.7 28.8 66.1 29.1 67.3 30.9 C 67.26 30.85 69.9 34.9 69.9 34.9 L 68.1 34.9 C 68.1 34.9 65.72 31.17 65.7 31.2 C 64.5 29.2 63.6 28.7 62.5 28.7 C 62.46 28.73 61.2 28.7 61.2 28.7 L 61.2 34.9 L 59.7 34.9 L 59.7 21.3 Z M 62.6 27.4 C 64.5 27.4 65.9 27 65.9 25 C 65.9 23.3 64.8 22.6 63.1 22.6 C 63.08 22.61 61.2 22.6 61.2 22.6 L 61.2 27.4 C 61.2 27.4 62.6 27.41 62.6 27.4 Z M 78 22 C 78 22 78 23.7 78 23.7 C 77.1 22.9 76.1 22.5 75 22.5 C 73.5 22.5 72.6 23.3 72.6 24.5 C 72.6 25.4 72.8 26.1 75.1 27.3 C 77.9 28.7 78.6 29.7 78.6 31.6 C 78.6 33.6 77 35.1 74.7 35.1 C 73.4 35.1 72.2 34.7 71.1 33.9 C 71.1 33.9 71.1 32 71.1 32 C 72.1 33.2 73.3 33.8 74.7 33.8 C 76 33.8 77 32.9 77 31.6 C 77 30.4 76.7 29.8 74 28.4 C 71.9 27.3 71.1 26.2 71.1 24.5 C 71.1 22.6 72.7 21.1 75 21.1 C 76.1 21.1 77.1 21.4 78 22 Z M 82.4 21.3 L 82.4 27.4 L 90.7 27.4 L 90.7 21.3 L 92.2 21.3 L 92.2 34.9 L 90.7 34.9 L 90.7 28.8 L 82.4 28.8 L 82.4 34.9 L 80.9 34.9 L 80.9 21.3 L 82.4 21.3 Z M 96.7 21.3 L 96.7 34.9 L 95.2 34.9 L 95.2 21.3 L 96.7 21.3 Z M 103.7 21.3 C 106.4 21.3 108.1 22.7 108.1 25.1 C 108.1 27.6 106.3 28.8 103.4 28.8 C 103.42 28.79 101.3 28.8 101.3 28.8 L 101.3 34.9 L 99.8 34.9 L 99.8 21.3 C 99.8 21.3 103.68 21.29 103.7 21.3 Z M 101.3 27.5 C 101.3 27.5 103.38 27.47 103.4 27.5 C 105.7 27.5 106.5 26.6 106.5 25 C 106.5 23.5 105.6 22.6 103.4 22.6 C 103.38 22.61 101.3 22.6 101.3 22.6 L 101.3 27.5 Z M 122.8 30.8 C 123.4 30 123.9 29.1 124.3 28.2 C 124.3 28.2 125.8 28.2 125.8 28.2 C 125.4 29.3 124.7 30.6 123.7 31.8 C 123.9 32.1 124.1 32.3 124.4 32.6 C 124.38 32.57 126.5 34.9 126.5 34.9 L 124.6 34.9 C 124.6 34.9 122.7 32.83 122.7 32.8 C 121.5 34 120 35.1 118.2 35.1 C 116.3 35.1 114.7 33.8 114.7 31.9 C 114.7 30.2 116.1 28.9 118.1 27.8 C 116.9 26.6 116.4 25.6 116.3 24.6 C 116.3 24.4 116.3 24.2 116.4 24 C 116.5 22.7 117.5 21.4 119.6 21.4 C 121.8 21.4 122.9 22.9 122.9 24.4 C 122.9 25.6 122.2 26.7 120.2 28 C 120.2 28 122.8 30.8 122.8 30.8 Z M 119 28.8 C 119 28.8 118.04 29.37 118 29.4 C 116.8 30.2 116.2 30.9 116.2 31.8 C 116.2 32.8 117 33.6 118.1 33.7 C 118.2 33.7 118.4 33.7 118.6 33.7 C 119.9 33.5 120.9 32.8 121.8 31.8 C 121.78 31.81 119 28.8 119 28.8 Z M 121.5 24.4 C 121.5 23.4 120.7 22.7 119.6 22.7 C 118.6 22.7 117.8 23.4 117.8 24.3 C 117.8 25.3 118.7 26.3 119.4 27 C 120.9 26.1 121.5 25.3 121.5 24.4 Z " stroke="none" fill="#000000"/>  </g>  <g id="Polygon45040">    <path d="M 6.8 0.7 L 6.8 1.7 L 2.3 1.7 L 2.3 5.3 L 6.6 5.3 L 6.6 6.3 L 2.3 6.3 L 2.3 9.9 L 6.9 9.9 L 6.9 10.9 L 1.2 10.9 L 1.2 0.7 L 6.8 0.7 Z M 11.6 0.7 C 13.6 0.7 14.9 1.7 14.9 3.5 C 14.9 5.4 13.6 6.3 11.4 6.3 C 11.4 6.33 9.8 6.3 9.8 6.3 L 9.8 10.9 L 8.7 10.9 L 8.7 0.7 C 8.7 0.7 11.59 0.7 11.6 0.7 Z M 9.8 5.3 C 9.8 5.3 11.37 5.34 11.4 5.3 C 13.1 5.3 13.7 4.7 13.7 3.5 C 13.7 2.3 13 1.7 11.4 1.7 C 11.37 1.69 9.8 1.7 9.8 1.7 L 9.8 5.3 Z M 19.7 0.6 L 24.2 10.9 L 23.1 10.9 L 21.6 7.7 L 17 7.7 L 15.6 10.9 L 14.5 10.9 L 18.9 0.6 L 19.7 0.6 Z M 17.4 6.7 L 21.2 6.7 L 19.3 2.4 L 17.4 6.7 Z " stroke="none" fill="#f28620"/>  </g></svg>