<?xml version="1.0" standalone="no"?><!DOCTYPE svg PUBLIC "-//W3C//DTD SVG 1.1//EN" "http://www.w3.org/Graphics/SVG/1.1/DTD/svg11.dtd"><svg xmlns="http://www.w3.org/2000/svg" version="1.1" width="75.2px" height="82.1px" viewBox="0 -8 75.2 82.1" style="top:-8px">  <desc>NPS 81</desc>  <defs/>  <g id="Polygon4560">    <path d="M 1.9 42.5 C 1.9 39.4 4.5 37.1 7.6 37.1 C 10.7 37.1 13.1 39.5 13.1 42.5 C 13.1 44.6 12 46.3 10 47.3 C 12.2 48.2 13.5 50 13.5 52.4 C 13.5 55.7 11 58.1 7.5 58.1 C 3.9 58.1 1.5 55.5 1.5 52.4 C 1.5 50.1 2.8 48.2 5 47.3 C 2.9 46.2 1.9 44.5 1.9 42.5 Z M 7.6 46.6 C 9.7 46.6 11.6 45 11.6 42.5 C 11.6 40.3 9.9 38.6 7.5 38.6 C 5.3 38.6 3.5 40.2 3.5 42.5 C 3.5 45 5.4 46.6 7.6 46.6 Z M 7.5 56.7 C 10.1 56.7 11.9 54.9 11.9 52.3 C 11.9 49.8 10.1 48.1 7.5 48.1 C 4.9 48.1 3.1 49.9 3.1 52.3 C 3.1 54.9 4.9 56.7 7.5 56.7 Z M 24.3 37.1 L 24.3 57.9 L 22.8 57.9 L 22.8 39.7 L 18.5 43 L 17.7 41.9 L 23.6 37.1 L 24.3 37.1 Z " stroke="none" fill="#000000"/>  </g>  <g id="Polygon4559">    <path d="M 3.7 1.4 L 18.9 19.4 L 18.9 1.4 L 20.4 1.4 L 20.4 21.9 L 19 21.9 L 3.8 3.9 L 3.8 21.9 L 2.3 21.9 L 2.3 1.4 L 3.7 1.4 Z M 30.5 1.4 C 34.6 1.4 37 3.4 37 6.9 C 37 10.5 34.6 12.4 30.2 12.4 C 30.24 12.36 26.7 12.4 26.7 12.4 L 26.7 21.9 L 25.1 21.9 L 25.1 1.4 C 25.1 1.4 30.54 1.41 30.5 1.4 Z M 26.7 10.9 C 26.7 10.9 30.27 10.95 30.3 10.9 C 33.7 10.9 35.4 9.6 35.4 6.8 C 35.4 4.1 33.7 2.8 30.3 2.8 C 30.27 2.82 26.7 2.8 26.7 2.8 L 26.7 10.9 Z M 49.3 2.3 C 49.3 2.3 49.3 4.1 49.3 4.1 C 47.9 3.1 46.4 2.5 44.9 2.5 C 42.4 2.5 40.7 4 40.7 6.1 C 40.7 7.7 41.2 9.1 44.8 10.7 C 49 12.6 50.1 14.1 50.1 16.9 C 50.1 19.9 47.8 22.1 44.3 22.1 C 42.4 22.1 40.7 21.6 39.2 20.5 C 39.2 20.5 39.2 18.5 39.2 18.5 C 40.8 20 42.5 20.7 44.3 20.7 C 46.7 20.7 48.4 19.2 48.4 16.9 C 48.4 14.8 47.7 13.7 43.9 11.9 C 40.4 10.3 39.1 8.8 39.1 6.2 C 39.1 3.3 41.5 1.1 44.9 1.1 C 46.4 1.1 47.9 1.5 49.3 2.3 Z " stroke="none" fill="#000000"/>  </g></svg>