<?xml version="1.0" standalone="no"?><!DOCTYPE svg PUBLIC "-//W3C//DTD SVG 1.1//EN" "http://www.w3.org/Graphics/SVG/1.1/DTD/svg11.dtd"><svg xmlns="http://www.w3.org/2000/svg" version="1.1" width="73.5px" height="27.5px" viewBox="0 -1 73.5 27.5" style="top:-1px">  <desc>Knowledge</desc>  <defs/>  <g id="Polygon54060">    <path d="M 7.9 16.1 L 7.9 7.5 L 9.1 7.5 L 9.1 11.8 L 13.3 7.5 L 14.9 7.5 L 11.3 11 L 15 16.1 L 13.5 16.1 L 10.5 11.7 L 9.1 13.1 L 9.1 16.1 L 7.9 16.1 Z M 15.8 16.1 L 15.8 9.9 L 16.8 9.9 C 16.8 9.9 16.8 10.74 16.8 10.7 C 17.3 10.1 17.9 9.7 18.8 9.7 C 19.2 9.7 19.5 9.8 19.8 9.9 C 20.1 10.1 20.4 10.2 20.5 10.5 C 20.7 10.7 20.8 10.9 20.8 11.2 C 20.9 11.4 20.9 11.8 20.9 12.3 C 20.9 12.26 20.9 16.1 20.9 16.1 L 19.8 16.1 C 19.8 16.1 19.85 12.3 19.8 12.3 C 19.8 11.9 19.8 11.5 19.7 11.3 C 19.6 11.1 19.5 11 19.3 10.8 C 19.1 10.7 18.8 10.6 18.6 10.6 C 18.1 10.6 17.7 10.8 17.4 11.1 C 17.1 11.3 16.9 11.9 16.9 12.7 C 16.9 12.68 16.9 16.1 16.9 16.1 L 15.8 16.1 Z M 22.1 13 C 22.1 11.8 22.4 11 23.1 10.4 C 23.6 9.9 24.3 9.7 25 9.7 C 25.9 9.7 26.6 10 27.1 10.6 C 27.7 11.1 28 11.9 28 12.9 C 28 13.7 27.8 14.3 27.6 14.8 C 27.4 15.2 27 15.6 26.5 15.8 C 26.1 16.1 25.6 16.2 25 16.2 C 24.2 16.2 23.5 15.9 22.9 15.4 C 22.4 14.8 22.1 14 22.1 13 Z M 23.2 13 C 23.2 13.8 23.4 14.4 23.7 14.8 C 24.1 15.2 24.5 15.4 25 15.4 C 25.6 15.4 26 15.2 26.4 14.8 C 26.7 14.4 26.9 13.8 26.9 12.9 C 26.9 12.2 26.7 11.6 26.4 11.2 C 26 10.8 25.6 10.6 25 10.6 C 24.5 10.6 24.1 10.8 23.7 11.2 C 23.4 11.6 23.2 12.2 23.2 13 Z M 30.3 16.1 L 28.4 9.9 L 29.5 9.9 L 30.5 13.5 C 30.5 13.5 30.89 14.79 30.9 14.8 C 30.9 14.7 31 14.3 31.2 13.5 C 31.21 13.5 32.2 9.9 32.2 9.9 L 33.3 9.9 L 34.2 13.5 L 34.5 14.7 L 34.9 13.5 L 36 9.9 L 37 9.9 L 35 16.1 L 33.9 16.1 L 32.9 12.4 L 32.7 11.3 L 31.4 16.1 L 30.3 16.1 Z M 37.8 16.1 L 37.8 7.5 L 38.9 7.5 L 38.9 16.1 L 37.8 16.1 Z M 44.8 14.1 C 44.8 14.1 45.9 14.2 45.9 14.2 C 45.7 14.8 45.4 15.3 44.9 15.7 C 44.5 16 43.9 16.2 43.1 16.2 C 42.2 16.2 41.5 15.9 41 15.4 C 40.4 14.8 40.2 14 40.2 13 C 40.2 12 40.4 11.2 41 10.6 C 41.5 10 42.2 9.7 43.1 9.7 C 43.9 9.7 44.6 10 45.1 10.6 C 45.6 11.1 45.9 11.9 45.9 13 C 45.9 13 45.9 13.1 45.9 13.2 C 45.9 13.2 41.3 13.2 41.3 13.2 C 41.3 13.9 41.5 14.4 41.8 14.8 C 42.2 15.2 42.6 15.4 43.1 15.4 C 43.5 15.4 43.9 15.3 44.1 15.1 C 44.4 14.8 44.6 14.5 44.8 14.1 Z M 41.3 12.4 C 41.3 12.4 44.8 12.4 44.8 12.4 C 44.8 11.8 44.6 11.5 44.4 11.2 C 44.1 10.8 43.6 10.6 43.1 10.6 C 42.6 10.6 42.2 10.7 41.9 11.1 C 41.5 11.4 41.4 11.8 41.3 12.4 Z M 51.2 16.1 C 51.2 16.1 51.24 15.3 51.2 15.3 C 50.8 15.9 50.3 16.2 49.5 16.2 C 49 16.2 48.5 16.1 48.1 15.8 C 47.7 15.5 47.4 15.2 47.2 14.7 C 46.9 14.2 46.8 13.6 46.8 13 C 46.8 12.4 46.9 11.8 47.1 11.3 C 47.3 10.8 47.6 10.4 48.1 10.1 C 48.5 9.9 48.9 9.7 49.5 9.7 C 49.8 9.7 50.2 9.8 50.5 10 C 50.7 10.1 51 10.3 51.2 10.6 C 51.17 10.57 51.2 7.5 51.2 7.5 L 52.2 7.5 L 52.2 16.1 L 51.2 16.1 Z M 47.9 13 C 47.9 13.8 48.1 14.4 48.4 14.8 C 48.7 15.2 49.1 15.4 49.6 15.4 C 50.1 15.4 50.5 15.2 50.8 14.8 C 51.1 14.4 51.3 13.8 51.3 13.1 C 51.3 12.2 51.1 11.6 50.8 11.2 C 50.4 10.8 50 10.6 49.6 10.6 C 49.1 10.6 48.7 10.8 48.4 11.2 C 48.1 11.5 47.9 12.2 47.9 13 Z M 53.7 16.6 C 53.7 16.6 54.7 16.7 54.7 16.7 C 54.8 17.1 54.9 17.3 55.1 17.4 C 55.3 17.6 55.7 17.7 56.1 17.7 C 56.6 17.7 57 17.6 57.3 17.4 C 57.5 17.2 57.7 17 57.8 16.6 C 57.9 16.4 57.9 16 57.9 15.3 C 57.4 15.8 56.8 16.1 56.2 16.1 C 55.3 16.1 54.6 15.8 54.2 15.2 C 53.7 14.5 53.5 13.8 53.5 12.9 C 53.5 12.3 53.6 11.8 53.8 11.3 C 54 10.8 54.3 10.4 54.7 10.1 C 55.1 9.9 55.6 9.7 56.2 9.7 C 56.9 9.7 57.5 10 58 10.6 C 57.98 10.61 58 9.9 58 9.9 L 59 9.9 C 59 9.9 58.96 15.24 59 15.2 C 59 16.2 58.9 16.9 58.7 17.3 C 58.5 17.7 58.1 18 57.7 18.3 C 57.3 18.5 56.8 18.6 56.1 18.6 C 55.4 18.6 54.8 18.4 54.3 18.1 C 53.9 17.8 53.7 17.3 53.7 16.6 Z M 54.6 12.9 C 54.6 13.7 54.7 14.3 55 14.6 C 55.4 15 55.8 15.2 56.3 15.2 C 56.7 15.2 57.2 15 57.5 14.6 C 57.8 14.3 58 13.7 58 12.9 C 58 12.1 57.8 11.6 57.5 11.2 C 57.1 10.8 56.7 10.6 56.2 10.6 C 55.8 10.6 55.4 10.8 55 11.2 C 54.7 11.5 54.6 12.1 54.6 12.9 Z M 64.8 14.1 C 64.8 14.1 65.9 14.2 65.9 14.2 C 65.7 14.8 65.4 15.3 64.9 15.7 C 64.5 16 63.9 16.2 63.2 16.2 C 62.3 16.2 61.5 15.9 61 15.4 C 60.5 14.8 60.2 14 60.2 13 C 60.2 12 60.5 11.2 61 10.6 C 61.5 10 62.2 9.7 63.1 9.7 C 63.9 9.7 64.6 10 65.1 10.6 C 65.7 11.1 65.9 11.9 65.9 13 C 65.9 13 65.9 13.1 65.9 13.2 C 65.9 13.2 61.3 13.2 61.3 13.2 C 61.3 13.9 61.5 14.4 61.9 14.8 C 62.2 15.2 62.6 15.4 63.2 15.4 C 63.6 15.4 63.9 15.3 64.2 15.1 C 64.4 14.8 64.6 14.5 64.8 14.1 Z M 61.3 12.4 C 61.3 12.4 64.8 12.4 64.8 12.4 C 64.8 11.8 64.6 11.5 64.4 11.2 C 64.1 10.8 63.7 10.6 63.1 10.6 C 62.6 10.6 62.2 10.7 61.9 11.1 C 61.6 11.4 61.4 11.8 61.3 12.4 Z " stroke="none" fill="#000"/>  </g></svg>