<?xml version="1.0" standalone="no"?><!DOCTYPE svg PUBLIC "-//W3C//DTD SVG 1.1//EN" "http://www.w3.org/Graphics/SVG/1.1/DTD/svg11.dtd"><svg xmlns="http://www.w3.org/2000/svg" version="1.1" width="134px" height="98.4px" viewBox="0 -4 134 98.4" style="top:-4px">  <desc>Resourcing People Manager Programme</desc>  <defs/>  <g id="Polygon45638">    <path d="M 5.4 69.3 C 8.1 69.3 9.8 70.7 9.8 73.1 C 9.8 75.6 8.1 76.8 5.2 76.8 C 5.16 76.79 3 76.8 3 76.8 L 3 82.9 L 1.5 82.9 L 1.5 69.3 C 1.5 69.3 5.42 69.29 5.4 69.3 Z M 3 75.5 C 3 75.5 5.12 75.47 5.1 75.5 C 7.4 75.5 8.3 74.6 8.3 73 C 8.3 71.5 7.3 70.6 5.1 70.6 C 5.12 70.61 3 70.6 3 70.6 L 3 75.5 Z M 11.9 69.3 C 11.9 69.3 15.5 69.29 15.5 69.3 C 18.2 69.3 19.7 70.9 19.7 73 C 19.7 74.7 18.7 75.8 17.1 76.3 C 18 76.8 18.4 77.1 19.5 78.9 C 19.48 78.85 22.1 82.9 22.1 82.9 L 20.3 82.9 C 20.3 82.9 17.94 79.17 17.9 79.2 C 16.7 77.2 15.8 76.7 14.7 76.7 C 14.68 76.73 13.4 76.7 13.4 76.7 L 13.4 82.9 L 11.9 82.9 L 11.9 69.3 Z M 14.8 75.4 C 16.7 75.4 18.1 75 18.1 73 C 18.1 71.3 17 70.6 15.3 70.6 C 15.3 70.61 13.4 70.6 13.4 70.6 L 13.4 75.4 C 13.4 75.4 14.82 75.41 14.8 75.4 Z M 37 76.1 C 37 79.9 34.2 83.1 29.7 83.1 C 25.5 83.1 22.6 79.9 22.6 76.2 C 22.6 72.4 25.3 69.1 29.8 69.1 C 34.1 69.1 37 72.3 37 76.1 Z M 24.2 76.1 C 24.2 79.4 26.7 81.7 29.7 81.7 C 33.8 81.7 35.4 78.6 35.4 76.1 C 35.4 73.3 33.4 70.5 29.8 70.5 C 26.1 70.5 24.2 73.4 24.2 76.1 Z M 50.7 71.8 C 49.2 70.9 47.6 70.5 46 70.5 C 42.9 70.5 40.4 72.9 40.4 76.1 C 40.4 79.4 42.7 81.8 46.1 81.8 C 47.3 81.8 48.1 81.6 49.5 81.1 C 49.5 81.07 49.5 77.8 49.5 77.8 L 46.7 77.8 L 46.7 76.4 L 51 76.4 C 51 76.4 51 81.99 51 82 C 49.4 82.8 47.9 83.1 46.1 83.1 C 41.3 83.1 38.9 79.7 38.9 76.2 C 38.9 72.3 41.7 69.1 46.1 69.1 C 47.6 69.1 48.9 69.4 50.7 70.2 C 50.7 70.2 50.7 71.8 50.7 71.8 Z M 53.9 69.3 C 53.9 69.3 57.44 69.29 57.4 69.3 C 60.2 69.3 61.6 70.9 61.6 73 C 61.6 74.7 60.7 75.8 59 76.3 C 59.9 76.8 60.3 77.1 61.4 78.9 C 61.42 78.85 64.1 82.9 64.1 82.9 L 62.3 82.9 C 62.3 82.9 59.88 79.17 59.9 79.2 C 58.6 77.2 57.8 76.7 56.6 76.7 C 56.62 76.73 55.4 76.7 55.4 76.7 L 55.4 82.9 L 53.9 82.9 L 53.9 69.3 Z M 56.8 75.4 C 58.6 75.4 60.1 75 60.1 73 C 60.1 71.3 59 70.6 57.2 70.6 C 57.24 70.61 55.4 70.6 55.4 70.6 L 55.4 75.4 C 55.4 75.4 56.76 75.41 56.8 75.4 Z M 71 69.2 L 77.1 82.9 L 75.6 82.9 L 73.6 78.7 L 67.4 78.7 L 65.6 82.9 L 64.1 82.9 L 70 69.2 L 71 69.2 Z M 68 77.3 L 73 77.3 L 70.5 71.5 L 68 77.3 Z M 78.7 69.3 L 80.1 69.3 L 84.9 75.3 L 89.7 69.3 L 91.1 69.3 L 91.1 82.9 L 89.6 82.9 L 89.6 71.7 L 89.6 71.7 L 85 77.4 L 84.8 77.4 L 80.2 71.7 L 80.2 71.7 L 80.2 82.9 L 78.7 82.9 L 78.7 69.3 Z M 94.2 69.3 L 95.6 69.3 L 100.4 75.3 L 105.2 69.3 L 106.7 69.3 L 106.7 82.9 L 105.2 82.9 L 105.2 71.7 L 105.1 71.7 L 100.6 77.4 L 100.3 77.4 L 95.7 71.7 L 95.7 71.7 L 95.7 82.9 L 94.2 82.9 L 94.2 69.3 Z M 117.2 69.3 L 117.2 70.6 L 111.2 70.6 L 111.2 75.4 L 117 75.4 L 117 76.7 L 111.2 76.7 L 111.2 81.6 L 117.4 81.6 L 117.4 82.9 L 109.7 82.9 L 109.7 69.3 L 117.2 69.3 Z " stroke="none" fill="#000000"/>  </g>  <g id="Polygon45637">    <path d="M 1.5 45.3 L 3 45.3 L 7.8 51.3 L 12.6 45.3 L 14 45.3 L 14 58.9 L 12.5 58.9 L 12.5 47.7 L 12.5 47.7 L 7.9 53.4 L 7.6 53.4 L 3.1 47.7 L 3 47.7 L 3 58.9 L 1.5 58.9 L 1.5 45.3 Z M 22.5 45.2 L 28.6 58.9 L 27.1 58.9 L 25.2 54.7 L 19 54.7 L 17.1 58.9 L 15.6 58.9 L 21.5 45.2 L 22.5 45.2 Z M 19.5 53.3 L 24.6 53.3 L 22 47.5 L 19.5 53.3 Z M 31.4 45.3 L 41.1 56.6 L 41.1 45.3 L 42.5 45.3 L 42.5 58.9 L 41.2 58.9 L 31.6 47.7 L 31.6 58.9 L 30.2 58.9 L 30.2 45.3 L 31.4 45.3 Z M 51 45.2 L 57.1 58.9 L 55.6 58.9 L 53.7 54.7 L 47.5 54.7 L 45.6 58.9 L 44.1 58.9 L 50 45.2 L 51 45.2 Z M 48 53.3 L 53.1 53.3 L 50.5 47.5 L 48 53.3 Z M 69.3 47.8 C 67.8 46.9 66.2 46.5 64.6 46.5 C 61.5 46.5 59 48.9 59 52.1 C 59 55.4 61.4 57.8 64.8 57.8 C 65.9 57.8 66.7 57.6 68.1 57.1 C 68.12 57.07 68.1 53.8 68.1 53.8 L 65.3 53.8 L 65.3 52.4 L 69.6 52.4 C 69.6 52.4 69.62 57.99 69.6 58 C 68.1 58.8 66.5 59.1 64.8 59.1 C 59.9 59.1 57.5 55.7 57.5 52.2 C 57.5 48.3 60.3 45.1 64.7 45.1 C 66.3 45.1 67.5 45.4 69.3 46.2 C 69.3 46.2 69.3 47.8 69.3 47.8 Z M 79.9 45.3 L 79.9 46.6 L 74 46.6 L 74 51.4 L 79.7 51.4 L 79.7 52.7 L 74 52.7 L 74 57.6 L 80.1 57.6 L 80.1 58.9 L 72.5 58.9 L 72.5 45.3 L 79.9 45.3 Z M 82.5 45.3 C 82.5 45.3 86.1 45.29 86.1 45.3 C 88.8 45.3 90.3 46.9 90.3 49 C 90.3 50.7 89.3 51.8 87.7 52.3 C 88.6 52.8 89 53.1 90.1 54.9 C 90.08 54.85 92.7 58.9 92.7 58.9 L 90.9 58.9 C 90.9 58.9 88.54 55.17 88.5 55.2 C 87.3 53.2 86.4 52.7 85.3 52.7 C 85.28 52.73 84 52.7 84 52.7 L 84 58.9 L 82.5 58.9 L 82.5 45.3 Z M 85.4 51.4 C 87.3 51.4 88.7 51 88.7 49 C 88.7 47.3 87.6 46.6 85.9 46.6 C 85.9 46.61 84 46.6 84 46.6 L 84 51.4 C 84 51.4 85.42 51.41 85.4 51.4 Z " stroke="none" fill="#000000"/>  </g>  <g id="Polygon45636">    <path d="M 5.4 21.3 C 8.1 21.3 9.8 22.7 9.8 25.1 C 9.8 27.6 8.1 28.8 5.2 28.8 C 5.16 28.79 3 28.8 3 28.8 L 3 34.9 L 1.5 34.9 L 1.5 21.3 C 1.5 21.3 5.42 21.29 5.4 21.3 Z M 3 27.5 C 3 27.5 5.12 27.47 5.1 27.5 C 7.4 27.5 8.3 26.6 8.3 25 C 8.3 23.5 7.3 22.6 5.1 22.6 C 5.12 22.61 3 22.6 3 22.6 L 3 27.5 Z M 19.4 21.3 L 19.4 22.6 L 13.4 22.6 L 13.4 27.4 L 19.2 27.4 L 19.2 28.7 L 13.4 28.7 L 13.4 33.6 L 19.5 33.6 L 19.5 34.9 L 11.9 34.9 L 11.9 21.3 L 19.4 21.3 Z M 35.7 28.1 C 35.7 31.9 32.9 35.1 28.4 35.1 C 24.2 35.1 21.4 31.9 21.4 28.2 C 21.4 24.4 24.1 21.1 28.5 21.1 C 32.9 21.1 35.7 24.3 35.7 28.1 Z M 22.9 28.1 C 22.9 31.4 25.4 33.7 28.5 33.7 C 32.5 33.7 34.2 30.6 34.2 28.1 C 34.2 25.3 32.1 22.5 28.6 22.5 C 24.9 22.5 22.9 25.4 22.9 28.1 Z M 42.1 21.3 C 44.8 21.3 46.5 22.7 46.5 25.1 C 46.5 27.6 44.7 28.8 41.8 28.8 C 41.82 28.79 39.7 28.8 39.7 28.8 L 39.7 34.9 L 38.2 34.9 L 38.2 21.3 C 38.2 21.3 42.08 21.29 42.1 21.3 Z M 39.7 27.5 C 39.7 27.5 41.78 27.47 41.8 27.5 C 44.1 27.5 44.9 26.6 44.9 25 C 44.9 23.5 44 22.6 41.8 22.6 C 41.78 22.61 39.7 22.6 39.7 22.6 L 39.7 27.5 Z M 50.1 21.3 L 50.1 33.6 L 56.5 33.6 L 56.5 34.9 L 48.6 34.9 L 48.6 21.3 L 50.1 21.3 Z M 65.7 21.3 L 65.7 22.6 L 59.7 22.6 L 59.7 27.4 L 65.5 27.4 L 65.5 28.7 L 59.7 28.7 L 59.7 33.6 L 65.9 33.6 L 65.9 34.9 L 58.2 34.9 L 58.2 21.3 L 65.7 21.3 Z " stroke="none" fill="#000000"/>  </g>  <g id="Polygon45635">    <path d="M 1.2 0.7 C 1.2 0.7 3.84 0.7 3.8 0.7 C 5.9 0.7 7 1.9 7 3.4 C 7 4.7 6.3 5.6 5 6 C 5.7 6.3 6 6.6 6.8 7.9 C 6.82 7.87 8.8 10.9 8.8 10.9 L 7.5 10.9 C 7.5 10.9 5.67 8.11 5.7 8.1 C 4.7 6.6 4.1 6.3 3.2 6.3 C 3.22 6.28 2.3 6.3 2.3 6.3 L 2.3 10.9 L 1.2 10.9 L 1.2 0.7 Z M 3.3 5.3 C 4.7 5.3 5.8 4.9 5.8 3.5 C 5.8 2.2 5 1.7 3.7 1.7 C 3.69 1.69 2.3 1.7 2.3 1.7 L 2.3 5.3 C 2.3 5.3 3.33 5.29 3.3 5.3 Z M 15.5 0.7 L 15.5 1.7 L 11.1 1.7 L 11.1 5.3 L 15.4 5.3 L 15.4 6.3 L 11.1 6.3 L 11.1 9.9 L 15.6 9.9 L 15.6 10.9 L 9.9 10.9 L 9.9 0.7 L 15.5 0.7 Z M 22.2 1.2 C 22.2 1.2 22.2 2.5 22.2 2.5 C 21.5 1.9 20.7 1.6 19.9 1.6 C 18.8 1.6 18.1 2.2 18.1 3.1 C 18.1 3.7 18.3 4.3 20 5.2 C 22.1 6.3 22.6 7 22.6 8.4 C 22.6 9.9 21.4 11.1 19.7 11.1 C 18.7 11.1 17.8 10.8 17 10.2 C 17 10.2 17 8.8 17 8.8 C 17.8 9.6 18.7 10.1 19.7 10.1 C 20.7 10.1 21.4 9.4 21.4 8.4 C 21.4 7.6 21.2 7 19.2 6 C 17.6 5.2 17 4.4 17 3.1 C 17 1.6 18.2 0.6 19.9 0.6 C 20.7 0.6 21.5 0.8 22.2 1.2 Z M 34.7 5.8 C 34.7 8.6 32.6 11.1 29.2 11.1 C 26 11.1 23.9 8.7 23.9 5.9 C 23.9 3 25.9 0.6 29.2 0.6 C 32.5 0.6 34.7 2.9 34.7 5.8 Z M 25 5.8 C 25 8.2 26.9 10 29.2 10 C 32.3 10 33.5 7.6 33.5 5.8 C 33.5 3.7 32 1.6 29.3 1.6 C 26.5 1.6 25 3.7 25 5.8 Z M 37.5 0.7 C 37.5 0.7 37.51 6.6 37.5 6.6 C 37.5 8.9 38.6 10.1 40.7 10.1 C 42.8 10.1 43.8 8.8 43.8 6.6 C 43.84 6.6 43.8 0.7 43.8 0.7 L 45 0.7 C 45 0.7 44.97 6.6 45 6.6 C 45 9.3 43.5 11.1 40.7 11.1 C 37.9 11.1 36.4 9.5 36.4 6.6 C 36.39 6.6 36.4 0.7 36.4 0.7 L 37.5 0.7 Z M 47.1 0.7 C 47.1 0.7 49.83 0.7 49.8 0.7 C 51.9 0.7 52.9 1.9 52.9 3.4 C 52.9 4.7 52.3 5.6 51 6 C 51.7 6.3 52 6.6 52.8 7.9 C 52.81 7.87 54.8 10.9 54.8 10.9 L 53.5 10.9 C 53.5 10.9 51.66 8.11 51.7 8.1 C 50.7 6.6 50.1 6.3 49.2 6.3 C 49.21 6.28 48.3 6.3 48.3 6.3 L 48.3 10.9 L 47.1 10.9 L 47.1 0.7 Z M 49.3 5.3 C 50.7 5.3 51.8 4.9 51.8 3.5 C 51.8 2.2 51 1.7 49.7 1.7 C 49.68 1.69 48.3 1.7 48.3 1.7 L 48.3 5.3 C 48.3 5.3 49.32 5.29 49.3 5.3 Z M 64.1 1.4 C 64.1 1.4 64.1 2.6 64.1 2.6 C 63 2 61.8 1.6 60.6 1.6 C 58 1.6 56.3 3.6 56.3 5.8 C 56.3 8.1 58 10 60.6 10 C 61.9 10 63 9.7 64.1 9 C 64.1 9 64.1 10.2 64.1 10.2 C 63 10.8 61.8 11.1 60.6 11.1 C 57 11.1 55.2 8.4 55.2 5.9 C 55.2 2.8 57.5 0.6 60.6 0.6 C 61.7 0.6 62.9 0.9 64.1 1.4 Z M 67 0.7 L 67 10.9 L 65.9 10.9 L 65.9 0.7 L 67 0.7 Z M 70.3 0.7 L 77.5 9.2 L 77.5 0.7 L 78.6 0.7 L 78.6 10.9 L 77.6 10.9 L 70.4 2.5 L 70.4 10.9 L 69.3 10.9 L 69.3 0.7 L 70.3 0.7 Z M 89.3 2.6 C 88.2 1.9 87 1.6 85.8 1.6 C 83.4 1.6 81.6 3.4 81.6 5.8 C 81.6 8.3 83.3 10.1 85.9 10.1 C 86.7 10.1 87.4 9.9 88.4 9.5 C 88.41 9.54 88.4 7 88.4 7 L 86.3 7 L 86.3 6.1 L 89.5 6.1 C 89.5 6.1 89.53 10.23 89.5 10.2 C 88.4 10.8 87.2 11.1 85.9 11.1 C 82.2 11.1 80.4 8.5 80.4 5.9 C 80.4 3 82.6 0.6 85.8 0.6 C 87 0.6 88 0.8 89.3 1.4 C 89.3 1.4 89.3 2.6 89.3 2.6 Z " stroke="none" fill="#f28620"/>  </g></svg>