<?xml version="1.0" standalone="no"?><!DOCTYPE svg PUBLIC "-//W3C//DTD SVG 1.1//EN" "http://www.w3.org/Graphics/SVG/1.1/DTD/svg11.dtd"><svg xmlns="http://www.w3.org/2000/svg" version="1.1" width="157px" height="103.4px" viewBox="0 -5 157 103.4" style="top:-5px">  <desc>EPA Leadership and Management 01</desc>  <defs/>  <g id="Polygon42109">    <path d="M 0.6 79.8 C 0.6 75.2 2.7 72.8 5.1 72.8 C 7.7 72.8 9.4 75.7 9.4 79.7 C 9.4 84.1 7.5 86.8 5 86.8 C 2.3 86.8 0.6 84 0.6 79.8 Z M 7.9 79.8 C 7.9 76.2 6.7 74.1 5 74.1 C 3.3 74.1 2.1 76.2 2.1 79.7 C 2.1 83.3 3.2 85.4 5 85.4 C 6.8 85.4 7.9 83.3 7.9 79.8 Z M 16.5 72.8 L 16.5 86.6 L 15 86.6 L 15 75.3 L 12.4 77.4 L 11.5 76.3 L 15.9 72.8 L 16.5 72.8 Z " stroke="none" fill="#000000"/>  </g>  <g id="Polygon42108">    <path d="M 1.5 48.9 L 3 48.9 L 7.8 54.9 L 12.6 48.9 L 14 48.9 L 14 62.6 L 12.5 62.6 L 12.5 51.3 L 12.5 51.3 L 7.9 57 L 7.6 57 L 3.1 51.3 L 3 51.3 L 3 62.6 L 1.5 62.6 L 1.5 48.9 Z M 22.5 48.9 L 28.6 62.6 L 27.1 62.6 L 25.2 58.3 L 19 58.3 L 17.1 62.6 L 15.6 62.6 L 21.5 48.9 L 22.5 48.9 Z M 19.5 57 L 24.6 57 L 22 51.2 L 19.5 57 Z M 31.4 48.9 L 41.1 60.2 L 41.1 48.9 L 42.5 48.9 L 42.5 62.6 L 41.2 62.6 L 31.6 51.3 L 31.6 62.6 L 30.2 62.6 L 30.2 48.9 L 31.4 48.9 Z M 51 48.9 L 57.1 62.6 L 55.6 62.6 L 53.7 58.3 L 47.5 58.3 L 45.6 62.6 L 44.1 62.6 L 50 48.9 L 51 48.9 Z M 48 57 L 53.1 57 L 50.5 51.2 L 48 57 Z M 69.3 51.4 C 67.8 50.6 66.2 50.1 64.6 50.1 C 61.5 50.1 59 52.5 59 55.7 C 59 59.1 61.4 61.4 64.8 61.4 C 65.9 61.4 66.7 61.2 68.1 60.7 C 68.12 60.72 68.1 57.4 68.1 57.4 L 65.3 57.4 L 65.3 56.1 L 69.6 56.1 C 69.6 56.1 69.62 61.64 69.6 61.6 C 68.1 62.4 66.5 62.8 64.8 62.8 C 59.9 62.8 57.5 59.3 57.5 55.8 C 57.5 52 60.3 48.8 64.7 48.8 C 66.3 48.8 67.5 49.1 69.3 49.9 C 69.3 49.9 69.3 51.4 69.3 51.4 Z M 79.9 48.9 L 79.9 50.3 L 74 50.3 L 74 55 L 79.7 55 L 79.7 56.4 L 74 56.4 L 74 61.2 L 80.1 61.2 L 80.1 62.6 L 72.5 62.6 L 72.5 48.9 L 79.9 48.9 Z M 82.5 48.9 L 83.9 48.9 L 88.8 54.9 L 93.6 48.9 L 95 48.9 L 95 62.6 L 93.5 62.6 L 93.5 51.3 L 93.4 51.3 L 88.9 57 L 88.6 57 L 84.1 51.3 L 84 51.3 L 84 62.6 L 82.5 62.6 L 82.5 48.9 Z M 105.5 48.9 L 105.5 50.3 L 99.6 50.3 L 99.6 55 L 105.3 55 L 105.3 56.4 L 99.6 56.4 L 99.6 61.2 L 105.7 61.2 L 105.7 62.6 L 98.1 62.6 L 98.1 48.9 L 105.5 48.9 Z M 109.3 48.9 L 119 60.2 L 119 48.9 L 120.4 48.9 L 120.4 62.6 L 119.1 62.6 L 109.5 51.3 L 109.5 62.6 L 108.1 62.6 L 108.1 48.9 L 109.3 48.9 Z M 133.5 48.9 L 133.5 50.3 L 128.6 50.3 L 128.6 62.6 L 127.1 62.6 L 127.1 50.3 L 122.3 50.3 L 122.3 48.9 L 133.5 48.9 Z " stroke="none" fill="#000000"/>  </g>  <g id="Polygon42107">    <path d="M 3 24.9 L 3 37.2 L 9.5 37.2 L 9.5 38.6 L 1.5 38.6 L 1.5 24.9 L 3 24.9 Z M 18.7 24.9 L 18.7 26.3 L 12.7 26.3 L 12.7 31 L 18.5 31 L 18.5 32.4 L 12.7 32.4 L 12.7 37.2 L 18.8 37.2 L 18.8 38.6 L 11.2 38.6 L 11.2 24.9 L 18.7 24.9 Z M 27.2 24.9 L 33.2 38.6 L 31.7 38.6 L 29.8 34.3 L 23.6 34.3 L 21.7 38.6 L 20.2 38.6 L 26.1 24.9 L 27.2 24.9 Z M 24.2 33 L 29.2 33 L 26.6 27.2 L 24.2 33 Z M 34.8 24.9 C 34.8 24.9 39.82 24.94 39.8 24.9 C 44.3 24.9 47.2 27.7 47.2 31.6 C 47.2 35.9 44.2 38.6 39.8 38.6 C 39.82 38.58 34.8 38.6 34.8 38.6 L 34.8 24.9 Z M 39.8 37.2 C 43.4 37.2 45.6 35.1 45.6 31.7 C 45.6 28.4 43.4 26.3 39.6 26.3 C 39.58 26.28 36.3 26.3 36.3 26.3 L 36.3 37.2 C 36.3 37.2 39.8 37.22 39.8 37.2 Z M 57.1 24.9 L 57.1 26.3 L 51.2 26.3 L 51.2 31 L 56.9 31 L 56.9 32.4 L 51.2 32.4 L 51.2 37.2 L 57.3 37.2 L 57.3 38.6 L 49.7 38.6 L 49.7 24.9 L 57.1 24.9 Z M 59.7 24.9 C 59.7 24.9 63.28 24.94 63.3 24.9 C 66 24.9 67.4 26.5 67.4 28.6 C 67.4 30.3 66.5 31.5 64.9 32 C 65.7 32.4 66.1 32.8 67.3 34.5 C 67.26 34.5 69.9 38.6 69.9 38.6 L 68.1 38.6 C 68.1 38.6 65.72 34.82 65.7 34.8 C 64.5 32.8 63.6 32.4 62.5 32.4 C 62.46 32.38 61.2 32.4 61.2 32.4 L 61.2 38.6 L 59.7 38.6 L 59.7 24.9 Z M 62.6 31.1 C 64.5 31.1 65.9 30.6 65.9 28.6 C 65.9 26.9 64.8 26.3 63.1 26.3 C 63.08 26.26 61.2 26.3 61.2 26.3 L 61.2 31.1 C 61.2 31.1 62.6 31.06 62.6 31.1 Z M 78 25.6 C 78 25.6 78 27.3 78 27.3 C 77.1 26.5 76.1 26.1 75 26.1 C 73.5 26.1 72.6 26.9 72.6 28.1 C 72.6 29 72.8 29.8 75.1 30.9 C 77.9 32.4 78.6 33.4 78.6 35.2 C 78.6 37.2 77 38.8 74.7 38.8 C 73.4 38.8 72.2 38.3 71.1 37.6 C 71.1 37.6 71.1 35.7 71.1 35.7 C 72.1 36.8 73.3 37.4 74.7 37.4 C 76 37.4 77 36.6 77 35.2 C 77 34.1 76.7 33.4 74 32 C 71.9 30.9 71.1 29.9 71.1 28.1 C 71.1 26.2 72.7 24.8 75 24.8 C 76.1 24.8 77.1 25.1 78 25.6 Z M 82.4 24.9 L 82.4 31 L 90.7 31 L 90.7 24.9 L 92.2 24.9 L 92.2 38.6 L 90.7 38.6 L 90.7 32.4 L 82.4 32.4 L 82.4 38.6 L 80.9 38.6 L 80.9 24.9 L 82.4 24.9 Z M 96.7 24.9 L 96.7 38.6 L 95.2 38.6 L 95.2 24.9 L 96.7 24.9 Z M 103.7 24.9 C 106.4 24.9 108.1 26.3 108.1 28.7 C 108.1 31.2 106.3 32.4 103.4 32.4 C 103.42 32.44 101.3 32.4 101.3 32.4 L 101.3 38.6 L 99.8 38.6 L 99.8 24.9 C 99.8 24.9 103.68 24.94 103.7 24.9 Z M 101.3 31.1 C 101.3 31.1 103.38 31.12 103.4 31.1 C 105.7 31.1 106.5 30.2 106.5 28.7 C 106.5 27.1 105.6 26.3 103.4 26.3 C 103.38 26.26 101.3 26.3 101.3 26.3 L 101.3 31.1 Z M 120.1 24.9 L 126.2 38.6 L 124.7 38.6 L 122.8 34.3 L 116.6 34.3 L 114.7 38.6 L 113.2 38.6 L 119.1 24.9 L 120.1 24.9 Z M 117.1 33 L 122.2 33 L 119.6 27.2 L 117.1 33 Z M 129 24.9 L 138.7 36.2 L 138.7 24.9 L 140.1 24.9 L 140.1 38.6 L 138.8 38.6 L 129.2 27.3 L 129.2 38.6 L 127.8 38.6 L 127.8 24.9 L 129 24.9 Z M 143.2 24.9 C 143.2 24.9 148.21 24.94 148.2 24.9 C 152.7 24.9 155.5 27.7 155.5 31.6 C 155.5 35.9 152.5 38.6 148.2 38.6 C 148.21 38.58 143.2 38.6 143.2 38.6 L 143.2 24.9 Z M 148.2 37.2 C 151.8 37.2 154 35.1 154 31.7 C 154 28.4 151.8 26.3 148 26.3 C 147.97 26.28 144.7 26.3 144.7 26.3 L 144.7 37.2 C 144.7 37.2 148.19 37.22 148.2 37.2 Z " stroke="none" fill="#000000"/>  </g>  <g id="Polygon42106">    <path d="M 6.8 4.3 L 6.8 5.4 L 2.3 5.4 L 2.3 8.9 L 6.6 8.9 L 6.6 9.9 L 2.3 9.9 L 2.3 13.6 L 6.9 13.6 L 6.9 14.6 L 1.2 14.6 L 1.2 4.3 L 6.8 4.3 Z M 11.6 4.3 C 13.6 4.3 14.9 5.4 14.9 7.2 C 14.9 9.1 13.6 10 11.4 10 C 11.4 9.97 9.8 10 9.8 10 L 9.8 14.6 L 8.7 14.6 L 8.7 4.3 C 8.7 4.3 11.59 4.35 11.6 4.3 Z M 9.8 9 C 9.8 9 11.37 8.98 11.4 9 C 13.1 9 13.7 8.3 13.7 7.1 C 13.7 6 13 5.3 11.4 5.3 C 11.37 5.34 9.8 5.3 9.8 5.3 L 9.8 9 Z M 19.7 4.3 L 24.2 14.6 L 23.1 14.6 L 21.6 11.4 L 17 11.4 L 15.6 14.6 L 14.5 14.6 L 18.9 4.3 L 19.7 4.3 Z M 17.4 10.4 L 21.2 10.4 L 19.3 6 L 17.4 10.4 Z " stroke="none" fill="#f28620"/>  </g></svg>