<?xml version="1.0" standalone="no"?><!DOCTYPE svg PUBLIC "-//W3C//DTD SVG 1.1//EN" "http://www.w3.org/Graphics/SVG/1.1/DTD/svg11.dtd"><svg xmlns="http://www.w3.org/2000/svg" version="1.1" width="61.2px" height="34.5px" viewBox="0 -4 61.2 34.5" style="top:-4px">  <desc>Honesty &amp; Integrity</desc>  <defs/>  <g id="Polygon6268">    <path d="M 10.6 23.3 C 10.2 23.1 9.7 22.7 9.3 22.1 C 8.9 22.5 8.6 22.8 8.1 23 C 7.7 23.2 7.3 23.3 6.8 23.3 C 5.9 23.3 5.2 23 4.7 22.4 C 4.3 21.9 4.1 21.4 4.1 20.8 C 4.1 20.2 4.3 19.8 4.6 19.3 C 5 18.9 5.5 18.5 6.1 18.2 C 5.8 17.8 5.5 17.4 5.4 17.1 C 5.2 16.8 5.2 16.6 5.2 16.3 C 5.2 15.8 5.4 15.4 5.8 15 C 6.2 14.6 6.7 14.4 7.3 14.4 C 7.9 14.4 8.4 14.6 8.7 14.9 C 9.1 15.3 9.3 15.7 9.3 16.2 C 9.3 17.1 8.8 17.7 7.7 18.3 C 7.7 18.3 9.2 20.3 9.2 20.3 C 9.4 19.9 9.5 19.5 9.6 19.1 C 9.6 19.1 10.7 19.3 10.7 19.3 C 10.5 20.1 10.3 20.7 10 21.2 C 10.4 21.7 10.8 22.1 11.3 22.5 C 11.31 22.5 10.6 23.3 10.6 23.3 C 10.6 23.3 10.6 23.34 10.6 23.3 Z M 7.1 17.6 C 7.6 17.4 7.9 17.1 8 16.9 C 8.2 16.7 8.2 16.5 8.2 16.3 C 8.2 16 8.1 15.7 8 15.5 C 7.8 15.4 7.5 15.3 7.3 15.3 C 7 15.3 6.7 15.4 6.5 15.5 C 6.4 15.7 6.3 16 6.3 16.2 C 6.3 16.3 6.3 16.5 6.4 16.6 C 6.4 16.8 6.5 16.9 6.7 17.1 C 6.7 17.1 7.1 17.6 7.1 17.6 Z M 8.6 21.3 C 8.6 21.3 6.7 18.9 6.7 18.9 C 6.1 19.2 5.7 19.5 5.5 19.8 C 5.3 20.1 5.2 20.4 5.2 20.7 C 5.2 21.1 5.4 21.4 5.7 21.8 C 5.9 22.2 6.3 22.4 6.8 22.4 C 7.1 22.4 7.5 22.3 7.8 22.1 C 8.1 21.9 8.4 21.6 8.6 21.3 Z M 16 23.1 L 16 14.5 L 17.2 14.5 L 17.2 23.1 L 16 23.1 Z M 19 23.1 L 19 16.9 L 20 16.9 C 20 16.9 20 17.8 20 17.8 C 20.5 17.1 21.1 16.8 22 16.8 C 22.4 16.8 22.7 16.8 23 17 C 23.3 17.1 23.6 17.3 23.7 17.5 C 23.9 17.7 24 18 24 18.3 C 24.1 18.5 24.1 18.8 24.1 19.3 C 24.1 19.31 24.1 23.1 24.1 23.1 L 23 23.1 C 23 23.1 23.05 19.35 23 19.4 C 23 18.9 23 18.6 22.9 18.4 C 22.8 18.2 22.7 18 22.5 17.9 C 22.3 17.8 22 17.7 21.8 17.7 C 21.3 17.7 20.9 17.8 20.6 18.1 C 20.3 18.4 20.1 18.9 20.1 19.7 C 20.1 19.74 20.1 23.1 20.1 23.1 L 19 23.1 Z M 27.6 22.2 C 27.7 22.2 27.8 22.2 28 22.2 C 28 22.2 28.2 23.1 28.2 23.1 C 27.9 23.2 27.6 23.2 27.4 23.2 C 27 23.2 26.7 23.2 26.5 23 C 26.3 22.9 26.1 22.8 26 22.6 C 26 22.4 25.9 21.9 25.9 21.3 C 25.91 21.31 25.9 17.7 25.9 17.7 L 25.1 17.7 L 25.1 16.9 L 25.9 16.9 L 25.9 15.4 L 27 14.7 L 27 16.9 L 28 16.9 L 28 17.7 L 27 17.7 C 27 17.7 26.96 21.37 27 21.4 C 27 21.7 27 21.9 27 22 C 27.1 22 27.1 22.1 27.2 22.2 C 27.3 22.2 27.4 22.2 27.6 22.2 C 27.6 22.2 27.6 22.2 27.6 22.2 Z M 33.3 21.1 C 33.3 21.1 34.4 21.3 34.4 21.3 C 34.2 21.9 33.9 22.4 33.4 22.7 C 33 23.1 32.4 23.3 31.7 23.3 C 30.8 23.3 30 23 29.5 22.4 C 29 21.9 28.7 21.1 28.7 20.1 C 28.7 19 29 18.2 29.5 17.6 C 30 17.1 30.7 16.8 31.6 16.8 C 32.4 16.8 33.1 17.1 33.6 17.6 C 34.2 18.2 34.4 19 34.4 20 C 34.4 20.1 34.4 20.2 34.4 20.3 C 34.4 20.3 29.8 20.3 29.8 20.3 C 29.8 21 30 21.5 30.4 21.9 C 30.7 22.2 31.2 22.4 31.7 22.4 C 32.1 22.4 32.4 22.3 32.7 22.1 C 32.9 21.9 33.2 21.6 33.3 21.1 Z M 29.9 19.4 C 29.9 19.4 33.3 19.4 33.3 19.4 C 33.3 18.9 33.1 18.5 32.9 18.2 C 32.6 17.8 32.2 17.6 31.6 17.6 C 31.1 17.6 30.7 17.8 30.4 18.1 C 30.1 18.5 29.9 18.9 29.9 19.4 Z M 35.5 23.7 C 35.5 23.7 36.6 23.8 36.6 23.8 C 36.6 24.1 36.7 24.4 36.9 24.5 C 37.2 24.7 37.5 24.8 38 24.8 C 38.5 24.8 38.9 24.7 39.1 24.5 C 39.4 24.3 39.6 24 39.7 23.7 C 39.7 23.5 39.7 23 39.7 22.3 C 39.3 22.9 38.7 23.1 38 23.1 C 37.2 23.1 36.5 22.8 36 22.2 C 35.6 21.6 35.3 20.9 35.3 20 C 35.3 19.4 35.4 18.8 35.6 18.3 C 35.9 17.8 36.2 17.5 36.6 17.2 C 37 16.9 37.5 16.8 38 16.8 C 38.8 16.8 39.4 17.1 39.8 17.7 C 39.83 17.66 39.8 16.9 39.8 16.9 L 40.8 16.9 C 40.8 16.9 40.81 22.29 40.8 22.3 C 40.8 23.3 40.7 23.9 40.5 24.4 C 40.3 24.8 40 25.1 39.6 25.3 C 39.1 25.5 38.6 25.7 38 25.7 C 37.3 25.7 36.7 25.5 36.2 25.2 C 35.7 24.8 35.5 24.3 35.5 23.7 Z M 36.4 19.9 C 36.4 20.7 36.6 21.3 36.9 21.7 C 37.2 22.1 37.6 22.3 38.1 22.3 C 38.6 22.3 39 22.1 39.3 21.7 C 39.7 21.3 39.8 20.7 39.8 19.9 C 39.8 19.2 39.7 18.6 39.3 18.2 C 39 17.8 38.6 17.6 38.1 17.6 C 37.6 17.6 37.2 17.8 36.9 18.2 C 36.6 18.6 36.4 19.2 36.4 19.9 Z M 42.4 23.1 L 42.4 16.9 L 43.3 16.9 C 43.3 16.9 43.34 17.86 43.3 17.9 C 43.6 17.4 43.8 17.1 44 17 C 44.2 16.8 44.4 16.8 44.7 16.8 C 45 16.8 45.4 16.9 45.8 17.1 C 45.8 17.1 45.4 18.1 45.4 18.1 C 45.1 17.9 44.9 17.9 44.6 17.9 C 44.4 17.9 44.2 17.9 44 18.1 C 43.8 18.2 43.7 18.4 43.6 18.6 C 43.5 19 43.4 19.4 43.4 19.9 C 43.44 19.88 43.4 23.1 43.4 23.1 L 42.4 23.1 Z M 46.4 15.8 L 46.4 14.5 L 47.5 14.5 L 47.5 15.8 L 46.4 15.8 Z M 46.4 23.1 L 46.4 16.9 L 47.5 16.9 L 47.5 23.1 L 46.4 23.1 Z M 50.9 22.2 C 51 22.2 51.2 22.2 51.4 22.2 C 51.4 22.2 51.5 23.1 51.5 23.1 C 51.2 23.2 51 23.2 50.7 23.2 C 50.3 23.2 50 23.2 49.8 23 C 49.6 22.9 49.5 22.8 49.4 22.6 C 49.3 22.4 49.3 21.9 49.3 21.3 C 49.26 21.31 49.3 17.7 49.3 17.7 L 48.5 17.7 L 48.5 16.9 L 49.3 16.9 L 49.3 15.4 L 50.3 14.7 L 50.3 16.9 L 51.4 16.9 L 51.4 17.7 L 50.3 17.7 C 50.3 17.7 50.31 21.37 50.3 21.4 C 50.3 21.7 50.3 21.9 50.4 22 C 50.4 22 50.5 22.1 50.5 22.2 C 50.6 22.2 50.7 22.2 50.9 22.2 C 50.9 22.2 50.9 22.2 50.9 22.2 Z M 53 25.7 C 52.8 25.7 52.6 25.6 52.4 25.5 C 52.4 25.5 52.2 24.5 52.2 24.5 C 52.5 24.6 52.7 24.6 52.8 24.6 C 53.1 24.6 53.3 24.6 53.4 24.5 C 53.5 24.4 53.7 24.3 53.7 24.2 C 53.8 24.1 53.9 23.8 54.1 23.4 C 54.1 23.3 54.1 23.3 54.2 23.1 C 54.16 23.15 51.8 16.9 51.8 16.9 L 52.9 16.9 C 52.9 16.9 54.23 20.52 54.2 20.5 C 54.4 21 54.5 21.5 54.7 22 C 54.8 21.5 54.9 21 55.1 20.5 C 55.12 20.54 56.4 16.9 56.4 16.9 L 57.5 16.9 C 57.5 16.9 55.13 23.24 55.1 23.2 C 54.9 23.9 54.7 24.4 54.5 24.7 C 54.4 25 54.1 25.3 53.9 25.4 C 53.7 25.6 53.4 25.7 53 25.7 C 53 25.7 53 25.7 53 25.7 Z " stroke="none" fill="#000"/>  </g>  <g id="Polygon6267">    <path d="M 9.5 8.7 L 9.5 0.1 L 10.7 0.1 L 10.7 3.7 L 15.1 3.7 L 15.1 0.1 L 16.3 0.1 L 16.3 8.7 L 15.1 8.7 L 15.1 4.7 L 10.7 4.7 L 10.7 8.7 L 9.5 8.7 Z M 17.6 5.6 C 17.6 4.5 18 3.6 18.6 3.1 C 19.1 2.6 19.8 2.4 20.6 2.4 C 21.4 2.4 22.1 2.7 22.7 3.2 C 23.2 3.8 23.5 4.5 23.5 5.5 C 23.5 6.3 23.4 7 23.1 7.4 C 22.9 7.9 22.5 8.2 22.1 8.5 C 21.6 8.7 21.1 8.9 20.6 8.9 C 19.7 8.9 19 8.6 18.5 8 C 17.9 7.5 17.6 6.7 17.6 5.6 Z M 18.7 5.6 C 18.7 6.4 18.9 7 19.3 7.4 C 19.6 7.8 20 8 20.6 8 C 21.1 8 21.5 7.8 21.9 7.4 C 22.2 7 22.4 6.4 22.4 5.6 C 22.4 4.8 22.2 4.2 21.9 3.8 C 21.5 3.4 21.1 3.2 20.6 3.2 C 20 3.2 19.6 3.4 19.3 3.8 C 18.9 4.2 18.7 4.8 18.7 5.6 Z M 24.7 8.7 L 24.7 2.5 L 25.7 2.5 C 25.7 2.5 25.66 3.4 25.7 3.4 C 26.1 2.7 26.8 2.4 27.6 2.4 C 28 2.4 28.4 2.4 28.7 2.6 C 29 2.7 29.2 2.9 29.4 3.1 C 29.5 3.3 29.7 3.6 29.7 3.9 C 29.8 4.1 29.8 4.4 29.8 4.9 C 29.77 4.91 29.8 8.7 29.8 8.7 L 28.7 8.7 C 28.7 8.7 28.72 4.95 28.7 5 C 28.7 4.5 28.7 4.2 28.6 4 C 28.5 3.8 28.4 3.6 28.2 3.5 C 27.9 3.4 27.7 3.3 27.4 3.3 C 27 3.3 26.6 3.4 26.3 3.7 C 25.9 4 25.8 4.5 25.8 5.3 C 25.77 5.34 25.8 8.7 25.8 8.7 L 24.7 8.7 Z M 35.6 6.7 C 35.6 6.7 36.7 6.9 36.7 6.9 C 36.6 7.5 36.2 8 35.8 8.3 C 35.3 8.7 34.7 8.9 34 8.9 C 33.1 8.9 32.4 8.6 31.8 8 C 31.3 7.5 31 6.7 31 5.7 C 31 4.6 31.3 3.8 31.8 3.2 C 32.4 2.7 33.1 2.4 33.9 2.4 C 34.8 2.4 35.5 2.7 36 3.2 C 36.5 3.8 36.8 4.6 36.8 5.6 C 36.8 5.7 36.8 5.8 36.8 5.9 C 36.8 5.9 32.1 5.9 32.1 5.9 C 32.2 6.6 32.4 7.1 32.7 7.5 C 33.1 7.8 33.5 8 34 8 C 34.4 8 34.7 7.9 35 7.7 C 35.3 7.5 35.5 7.2 35.6 6.7 Z M 32.2 5 C 32.2 5 35.7 5 35.7 5 C 35.6 4.5 35.5 4.1 35.3 3.8 C 34.9 3.4 34.5 3.2 34 3.2 C 33.5 3.2 33.1 3.4 32.7 3.7 C 32.4 4.1 32.2 4.5 32.2 5 Z M 37.6 6.9 C 37.6 6.9 38.7 6.7 38.7 6.7 C 38.7 7.1 38.9 7.5 39.2 7.7 C 39.4 7.9 39.8 8 40.3 8 C 40.8 8 41.1 7.9 41.4 7.7 C 41.6 7.5 41.7 7.3 41.7 7 C 41.7 6.8 41.6 6.6 41.4 6.5 C 41.3 6.4 40.9 6.2 40.3 6.1 C 39.6 5.9 39 5.7 38.7 5.6 C 38.4 5.5 38.2 5.3 38 5 C 37.9 4.7 37.8 4.5 37.8 4.2 C 37.8 3.9 37.9 3.6 38 3.4 C 38.1 3.2 38.3 3 38.5 2.8 C 38.7 2.7 38.9 2.6 39.2 2.5 C 39.5 2.4 39.8 2.4 40.1 2.4 C 40.6 2.4 41 2.4 41.4 2.6 C 41.8 2.7 42 2.9 42.2 3.2 C 42.4 3.4 42.5 3.7 42.6 4.1 C 42.6 4.1 41.5 4.3 41.5 4.3 C 41.5 3.9 41.4 3.7 41.1 3.5 C 40.9 3.3 40.6 3.2 40.2 3.2 C 39.7 3.2 39.4 3.3 39.1 3.5 C 38.9 3.6 38.8 3.8 38.8 4 C 38.8 4.2 38.9 4.3 39 4.4 C 39.1 4.5 39.2 4.6 39.4 4.7 C 39.5 4.7 39.8 4.8 40.3 5 C 41 5.2 41.6 5.3 41.9 5.5 C 42.2 5.6 42.4 5.8 42.6 6 C 42.7 6.2 42.8 6.5 42.8 6.9 C 42.8 7.3 42.7 7.6 42.5 7.9 C 42.3 8.2 42 8.5 41.6 8.6 C 41.2 8.8 40.8 8.9 40.3 8.9 C 39.5 8.9 38.9 8.7 38.5 8.4 C 38 8 37.8 7.5 37.6 6.9 Z M 45.9 7.8 C 46 7.8 46.2 7.8 46.4 7.8 C 46.4 7.8 46.5 8.7 46.5 8.7 C 46.2 8.8 46 8.8 45.7 8.8 C 45.3 8.8 45 8.8 44.8 8.6 C 44.6 8.5 44.5 8.4 44.4 8.2 C 44.3 8 44.3 7.5 44.3 6.9 C 44.26 6.91 44.3 3.3 44.3 3.3 L 43.5 3.3 L 43.5 2.5 L 44.3 2.5 L 44.3 1 L 45.3 0.3 L 45.3 2.5 L 46.4 2.5 L 46.4 3.3 L 45.3 3.3 C 45.3 3.3 45.3 6.97 45.3 7 C 45.3 7.3 45.3 7.5 45.4 7.6 C 45.4 7.6 45.5 7.7 45.5 7.8 C 45.6 7.8 45.7 7.8 45.9 7.8 C 45.9 7.8 45.9 7.8 45.9 7.8 Z M 48 11.3 C 47.8 11.3 47.6 11.2 47.3 11.1 C 47.3 11.1 47.2 10.1 47.2 10.1 C 47.5 10.2 47.7 10.2 47.8 10.2 C 48.1 10.2 48.3 10.2 48.4 10.1 C 48.5 10 48.7 9.9 48.7 9.8 C 48.8 9.7 48.9 9.4 49.1 9 C 49.1 8.9 49.1 8.9 49.2 8.7 C 49.16 8.75 46.8 2.5 46.8 2.5 L 47.9 2.5 C 47.9 2.5 49.23 6.12 49.2 6.1 C 49.4 6.6 49.5 7.1 49.7 7.6 C 49.8 7.1 49.9 6.6 50.1 6.1 C 50.12 6.14 51.4 2.5 51.4 2.5 L 52.5 2.5 C 52.5 2.5 50.13 8.84 50.1 8.8 C 49.9 9.5 49.7 10 49.5 10.3 C 49.4 10.6 49.1 10.9 48.9 11 C 48.7 11.2 48.4 11.3 48 11.3 C 48 11.3 48 11.3 48 11.3 Z " stroke="none" fill="#000"/>  </g></svg>