<?xml version="1.0" standalone="no"?><!DOCTYPE svg PUBLIC "-//W3C//DTD SVG 1.1//EN" "http://www.w3.org/Graphics/SVG/1.1/DTD/svg11.dtd"><svg xmlns="http://www.w3.org/2000/svg" version="1.1" width="73.5px" height="34.5px" viewBox="0 -4 73.5 34.5" style="top:-4px">  <desc>Easy to Work With</desc>  <defs/>  <g id="Polygon50523">    <path d="M 11.6 23.3 L 9.3 14.7 L 10.5 14.7 C 10.5 14.7 11.8 20.32 11.8 20.3 C 11.9 20.9 12.1 21.5 12.2 22.1 C 12.4 21.2 12.5 20.6 12.6 20.5 C 12.55 20.49 14.2 14.7 14.2 14.7 L 15.6 14.7 C 15.6 14.7 16.79 19.04 16.8 19 C 17.1 20.1 17.3 21.1 17.5 22.1 C 17.6 21.5 17.7 20.9 17.9 20.2 C 17.89 20.21 19.2 14.7 19.2 14.7 L 20.4 14.7 L 18 23.3 L 16.9 23.3 C 16.9 23.3 15.12 16.74 15.1 16.7 C 15 16.2 14.9 15.9 14.8 15.7 C 14.8 16.1 14.7 16.5 14.6 16.7 C 14.59 16.74 12.8 23.3 12.8 23.3 L 11.6 23.3 Z M 20.7 20.2 C 20.7 19 21 18.2 21.7 17.6 C 22.2 17.1 22.8 16.9 23.6 16.9 C 24.5 16.9 25.2 17.2 25.7 17.8 C 26.3 18.3 26.5 19.1 26.5 20.1 C 26.5 20.9 26.4 21.5 26.2 22 C 25.9 22.4 25.6 22.8 25.1 23 C 24.7 23.3 24.2 23.4 23.6 23.4 C 22.7 23.4 22 23.1 21.5 22.6 C 21 22 20.7 21.2 20.7 20.2 Z M 21.8 20.2 C 21.8 21 22 21.6 22.3 22 C 22.6 22.4 23.1 22.6 23.6 22.6 C 24.1 22.6 24.6 22.4 24.9 22 C 25.3 21.6 25.4 21 25.4 20.1 C 25.4 19.4 25.3 18.8 24.9 18.4 C 24.6 18 24.1 17.8 23.6 17.8 C 23.1 17.8 22.6 18 22.3 18.4 C 22 18.8 21.8 19.4 21.8 20.2 Z M 27.7 23.3 L 27.7 17.1 L 28.7 17.1 C 28.7 17.1 28.7 18 28.7 18 C 28.9 17.6 29.2 17.3 29.4 17.1 C 29.6 17 29.8 16.9 30 16.9 C 30.4 16.9 30.8 17 31.1 17.3 C 31.1 17.3 30.8 18.2 30.8 18.2 C 30.5 18.1 30.3 18 30 18 C 29.8 18 29.6 18.1 29.4 18.2 C 29.2 18.4 29.1 18.5 29 18.8 C 28.9 19.2 28.8 19.6 28.8 20 C 28.8 20.02 28.8 23.3 28.8 23.3 L 27.7 23.3 Z M 31.8 23.3 L 31.8 14.7 L 32.8 14.7 L 32.8 19.6 L 35.3 17.1 L 36.7 17.1 L 34.3 19.4 L 36.9 23.3 L 35.6 23.3 L 33.6 20.1 L 32.8 20.8 L 32.8 23.3 L 31.8 23.3 Z M 42.7 23.3 L 40.4 14.7 L 41.6 14.7 C 41.6 14.7 42.92 20.32 42.9 20.3 C 43.1 20.9 43.2 21.5 43.3 22.1 C 43.5 21.2 43.6 20.6 43.7 20.5 C 43.67 20.49 45.3 14.7 45.3 14.7 L 46.7 14.7 C 46.7 14.7 47.9 19.04 47.9 19 C 48.2 20.1 48.4 21.1 48.6 22.1 C 48.7 21.5 48.8 20.9 49 20.2 C 49 20.21 50.3 14.7 50.3 14.7 L 51.5 14.7 L 49.1 23.3 L 48 23.3 C 48 23.3 46.23 16.74 46.2 16.7 C 46.1 16.2 46 15.9 46 15.7 C 45.9 16.1 45.8 16.5 45.7 16.7 C 45.71 16.74 43.9 23.3 43.9 23.3 L 42.7 23.3 Z M 52.4 15.9 L 52.4 14.7 L 53.5 14.7 L 53.5 15.9 L 52.4 15.9 Z M 52.4 23.3 L 52.4 17.1 L 53.5 17.1 L 53.5 23.3 L 52.4 23.3 Z M 56.9 22.4 C 57 22.4 57.2 22.4 57.4 22.3 C 57.4 22.3 57.5 23.3 57.5 23.3 C 57.2 23.3 57 23.4 56.7 23.4 C 56.4 23.4 56.1 23.3 55.8 23.2 C 55.6 23.1 55.5 22.9 55.4 22.7 C 55.3 22.5 55.3 22.1 55.3 21.5 C 55.28 21.46 55.3 17.9 55.3 17.9 L 54.5 17.9 L 54.5 17.1 L 55.3 17.1 L 55.3 15.5 L 56.3 14.9 L 56.3 17.1 L 57.4 17.1 L 57.4 17.9 L 56.3 17.9 C 56.3 17.9 56.32 21.52 56.3 21.5 C 56.3 21.8 56.3 22 56.4 22.1 C 56.4 22.2 56.5 22.3 56.6 22.3 C 56.6 22.4 56.8 22.4 56.9 22.4 C 56.9 22.4 56.9 22.4 56.9 22.4 Z M 58.4 23.3 L 58.4 14.7 L 59.5 14.7 C 59.5 14.7 59.47 17.77 59.5 17.8 C 60 17.2 60.6 16.9 61.3 16.9 C 61.8 16.9 62.2 17 62.5 17.2 C 62.9 17.4 63.1 17.6 63.3 17.9 C 63.4 18.3 63.5 18.7 63.5 19.3 C 63.48 19.34 63.5 23.3 63.5 23.3 L 62.4 23.3 C 62.4 23.3 62.43 19.34 62.4 19.3 C 62.4 18.8 62.3 18.4 62.1 18.2 C 61.9 17.9 61.5 17.8 61.1 17.8 C 60.8 17.8 60.5 17.9 60.2 18.1 C 60 18.2 59.8 18.5 59.6 18.7 C 59.5 19 59.5 19.4 59.5 19.9 C 59.47 19.88 59.5 23.3 59.5 23.3 L 58.4 23.3 Z " stroke="none" fill="#000"/>  </g>  <g id="Polygon50522">    <path d="M 17.7 8.9 L 17.7 0.3 L 23.9 0.3 L 23.9 1.3 L 18.8 1.3 L 18.8 3.9 L 23.6 3.9 L 23.6 4.9 L 18.8 4.9 L 18.8 7.9 L 24.1 7.9 L 24.1 8.9 L 17.7 8.9 Z M 29.8 8.9 C 29.7 8.7 29.6 8.4 29.6 8.1 C 29.2 8.4 28.8 8.7 28.5 8.8 C 28.1 9 27.7 9 27.3 9 C 26.6 9 26.1 8.9 25.7 8.5 C 25.4 8.2 25.2 7.8 25.2 7.2 C 25.2 6.9 25.2 6.7 25.4 6.4 C 25.5 6.2 25.7 6 25.9 5.8 C 26.1 5.6 26.4 5.5 26.7 5.5 C 26.9 5.4 27.2 5.3 27.6 5.3 C 28.5 5.2 29.1 5.1 29.5 4.9 C 29.5 4.8 29.5 4.7 29.5 4.7 C 29.5 4.2 29.4 3.9 29.2 3.7 C 28.9 3.5 28.5 3.4 28 3.4 C 27.5 3.4 27.1 3.5 26.9 3.7 C 26.7 3.8 26.5 4.1 26.4 4.6 C 26.4 4.6 25.4 4.4 25.4 4.4 C 25.4 4 25.6 3.6 25.8 3.4 C 26 3.1 26.3 2.9 26.7 2.7 C 27.2 2.6 27.6 2.5 28.2 2.5 C 28.7 2.5 29.1 2.6 29.5 2.7 C 29.8 2.8 30 3 30.2 3.2 C 30.3 3.4 30.5 3.6 30.5 3.9 C 30.5 4.1 30.6 4.4 30.6 4.9 C 30.6 4.9 30.6 6.3 30.6 6.3 C 30.6 7.3 30.6 7.9 30.6 8.1 C 30.7 8.4 30.8 8.6 30.9 8.9 C 30.9 8.88 29.8 8.9 29.8 8.9 C 29.8 8.9 29.8 8.88 29.8 8.9 Z M 29.5 5.8 C 29.1 5.9 28.5 6 27.8 6.2 C 27.3 6.2 27 6.3 26.9 6.4 C 26.7 6.4 26.5 6.6 26.4 6.7 C 26.3 6.9 26.3 7 26.3 7.2 C 26.3 7.5 26.4 7.7 26.6 7.9 C 26.8 8.1 27.1 8.2 27.5 8.2 C 28 8.2 28.3 8.1 28.6 7.9 C 28.9 7.8 29.2 7.5 29.3 7.2 C 29.4 7 29.5 6.6 29.5 6.1 C 29.5 6.1 29.5 5.8 29.5 5.8 Z M 31.8 7 C 31.8 7 32.8 6.9 32.8 6.9 C 32.9 7.3 33 7.6 33.3 7.8 C 33.6 8 34 8.2 34.4 8.2 C 34.9 8.2 35.3 8.1 35.5 7.9 C 35.7 7.7 35.9 7.4 35.9 7.2 C 35.9 6.9 35.8 6.7 35.6 6.6 C 35.4 6.5 35 6.4 34.5 6.2 C 33.7 6 33.2 5.9 32.9 5.7 C 32.6 5.6 32.3 5.4 32.2 5.1 C 32 4.9 32 4.6 32 4.3 C 32 4 32 3.8 32.1 3.5 C 32.3 3.3 32.4 3.1 32.7 3 C 32.8 2.8 33.1 2.7 33.3 2.6 C 33.6 2.6 33.9 2.5 34.2 2.5 C 34.7 2.5 35.2 2.6 35.5 2.7 C 35.9 2.9 36.2 3.1 36.3 3.3 C 36.5 3.5 36.6 3.9 36.7 4.3 C 36.7 4.3 35.7 4.4 35.7 4.4 C 35.6 4.1 35.5 3.8 35.3 3.7 C 35 3.5 34.7 3.4 34.3 3.4 C 33.8 3.4 33.5 3.5 33.3 3.6 C 33.1 3.8 33 4 33 4.2 C 33 4.3 33 4.4 33.1 4.6 C 33.2 4.7 33.3 4.8 33.5 4.8 C 33.6 4.9 33.9 5 34.4 5.1 C 35.2 5.3 35.7 5.5 36 5.6 C 36.3 5.7 36.5 5.9 36.7 6.2 C 36.9 6.4 36.9 6.7 36.9 7.1 C 36.9 7.4 36.8 7.7 36.6 8 C 36.4 8.4 36.1 8.6 35.8 8.8 C 35.4 8.9 34.9 9 34.4 9 C 33.6 9 33 8.9 32.6 8.5 C 32.2 8.2 31.9 7.7 31.8 7 Z M 38.8 11.4 C 38.6 11.4 38.4 11.4 38.2 11.3 C 38.2 11.3 38 10.3 38 10.3 C 38.3 10.4 38.5 10.4 38.6 10.4 C 38.9 10.4 39.1 10.3 39.2 10.3 C 39.3 10.2 39.5 10.1 39.5 9.9 C 39.6 9.8 39.7 9.6 39.9 9.2 C 39.9 9.1 39.9 9 40 8.9 C 39.96 8.89 37.6 2.7 37.6 2.7 L 38.7 2.7 C 38.7 2.7 40.04 6.26 40 6.3 C 40.2 6.7 40.4 7.2 40.5 7.7 C 40.6 7.2 40.8 6.7 40.9 6.3 C 40.92 6.29 42.3 2.7 42.3 2.7 L 43.3 2.7 C 43.3 2.7 40.94 8.99 40.9 9 C 40.7 9.7 40.5 10.1 40.3 10.4 C 40.2 10.7 39.9 11 39.7 11.2 C 39.5 11.3 39.2 11.4 38.8 11.4 C 38.8 11.4 38.8 11.4 38.8 11.4 Z M 49.4 8 C 49.5 8 49.6 8 49.8 7.9 C 49.8 7.9 50 8.9 50 8.9 C 49.7 8.9 49.4 9 49.2 9 C 48.8 9 48.5 8.9 48.3 8.8 C 48.1 8.7 47.9 8.5 47.9 8.3 C 47.8 8.1 47.7 7.7 47.7 7.1 C 47.73 7.06 47.7 3.5 47.7 3.5 L 47 3.5 L 47 2.7 L 47.7 2.7 L 47.7 1.1 L 48.8 0.5 L 48.8 2.7 L 49.8 2.7 L 49.8 3.5 L 48.8 3.5 C 48.8 3.5 48.78 7.12 48.8 7.1 C 48.8 7.4 48.8 7.6 48.8 7.7 C 48.9 7.8 48.9 7.9 49 7.9 C 49.1 8 49.2 8 49.4 8 C 49.4 8 49.4 8 49.4 8 Z M 50.5 5.8 C 50.5 4.6 50.8 3.8 51.4 3.2 C 52 2.7 52.6 2.5 53.4 2.5 C 54.3 2.5 54.9 2.8 55.5 3.4 C 56 3.9 56.3 4.7 56.3 5.7 C 56.3 6.5 56.2 7.1 55.9 7.6 C 55.7 8 55.4 8.4 54.9 8.6 C 54.4 8.9 53.9 9 53.4 9 C 52.5 9 51.8 8.7 51.3 8.2 C 50.7 7.6 50.5 6.8 50.5 5.8 Z M 51.6 5.8 C 51.6 6.6 51.7 7.2 52.1 7.6 C 52.4 8 52.9 8.2 53.4 8.2 C 53.9 8.2 54.4 8 54.7 7.6 C 55 7.2 55.2 6.6 55.2 5.7 C 55.2 5 55 4.4 54.7 4 C 54.3 3.6 53.9 3.4 53.4 3.4 C 52.9 3.4 52.4 3.6 52.1 4 C 51.7 4.4 51.6 5 51.6 5.8 Z " stroke="none" fill="#000"/>  </g></svg>