<?xml version="1.0" standalone="no"?><!DOCTYPE svg PUBLIC "-//W3C//DTD SVG 1.1//EN" "http://www.w3.org/Graphics/SVG/1.1/DTD/svg11.dtd"><svg xmlns="http://www.w3.org/2000/svg" version="1.1" width="800.3px" height="239.5px" viewBox="0 -1 800.3 239.5" style="top:-1px">  <desc>Survey</desc>  <defs/>  <g id="Polygon4887">    <path d="M 200.3 98 C 200.3 98 200.3 103.6 200.3 103.6 C 198 101.3 195.4 100 192.3 100 C 189.2 100 187.3 101.6 187.3 104 C 187.3 105.9 187.7 107.5 192.9 110.5 C 200.1 114.7 201.6 117.1 201.6 121.7 C 201.6 126.7 197.7 130.6 191.8 130.6 C 188.4 130.6 185.3 129.5 182.5 127.5 C 182.5 127.5 182.5 121.3 182.5 121.3 C 185 124.4 188.2 126.3 191.8 126.3 C 194.6 126.3 196.8 124.4 196.8 121.8 C 196.8 119.5 196.1 117.9 189.4 114 C 184.3 111 182.4 108.3 182.4 104.1 C 182.4 99.3 186.6 95.6 192.4 95.6 C 195.3 95.6 198 96.5 200.3 98 Z M 212 96.1 C 212 96.1 212.05 115.82 212 115.8 C 212 123.4 215.3 126.3 221.8 126.3 C 228.3 126.3 231.5 123.2 231.5 115.8 C 231.55 115.77 231.5 96.1 231.5 96.1 L 236.4 96.1 C 236.4 96.1 236.45 115.77 236.4 115.8 C 236.4 125.1 231.7 130.6 221.8 130.6 C 212.4 130.6 207.1 125.9 207.1 115.8 C 207.15 115.82 207.1 96.1 207.1 96.1 L 212 96.1 Z M 252.9 96.1 C 259.7 96.1 263.2 100.6 263.2 105.6 C 263.2 109.5 261.3 112.5 257.5 114 C 259.5 115.3 260.5 116.1 263.8 121.1 C 263.8 121.07 269.8 130.2 269.8 130.2 L 264 130.2 C 264 130.2 258.6 121.77 258.6 121.8 C 255.1 116.4 253 115.3 250.6 115.3 C 250.6 115.32 248.4 115.3 248.4 115.3 L 248.4 130.2 L 243.5 130.2 L 243.5 96.1 C 243.5 96.1 252.9 96.07 252.9 96.1 Z M 248.4 111 C 248.4 111 251.55 111.02 251.5 111 C 255.1 111 258.2 110.1 258.2 105.6 C 258.2 102.3 256.2 100.4 252.5 100.4 C 252.55 100.37 248.4 100.4 248.4 100.4 L 248.4 111 Z M 270.4 96.1 L 280.8 120 L 290.9 96.1 L 295.7 96.1 L 281.3 130.4 L 280.2 130.4 L 265.5 96.1 L 270.4 96.1 Z M 318.8 96.1 L 318.8 100.4 L 304.4 100.4 L 304.4 110.8 L 318.3 110.8 L 318.3 115.2 L 304.4 115.2 L 304.4 125.8 L 319.3 125.8 L 319.3 130.2 L 299.5 130.2 L 299.5 96.1 L 318.8 96.1 Z M 328.4 96.1 L 337.6 107.8 L 346.8 96.1 L 352.7 96.1 L 340.1 112.1 L 340.1 130.2 L 335.1 130.2 L 335.1 112.1 L 322.5 96.1 L 328.4 96.1 Z " stroke="none" fill="#010102"/>  </g></svg>