<?xml version="1.0" standalone="no"?><!DOCTYPE svg PUBLIC "-//W3C//DTD SVG 1.1//EN" "http://www.w3.org/Graphics/SVG/1.1/DTD/svg11.dtd"><svg xmlns="http://www.w3.org/2000/svg" version="1.1" width="75px" height="39.1px" viewBox="0 -8 75 39.1" style="top:-8px">  <desc>31 70</desc>  <defs/>  <g id="Polygon11722">    <path d="M 1 12.9 C 1 12.9 3.1 12.7 3.1 12.7 C 3.4 13.9 3.8 14.7 4.4 15.2 C 4.9 15.8 5.6 16 6.5 16 C 7.5 16 8.3 15.7 9 15 C 9.7 14.3 10 13.5 10 12.4 C 10 11.5 9.7 10.7 9.1 10 C 8.4 9.4 7.6 9.1 6.7 9.1 C 6.3 9.1 5.8 9.2 5.2 9.3 C 5.2 9.3 5.4 7.5 5.4 7.5 C 5.5 7.5 5.7 7.5 5.7 7.5 C 6.6 7.5 7.4 7.3 8.2 6.8 C 8.9 6.3 9.2 5.6 9.2 4.6 C 9.2 3.9 9 3.2 8.5 2.7 C 7.9 2.2 7.3 2 6.4 2 C 5.6 2 4.9 2.2 4.4 2.7 C 3.8 3.2 3.5 4 3.3 5.1 C 3.3 5.1 1.2 4.7 1.2 4.7 C 1.5 3.3 2.1 2.2 3 1.4 C 3.9 0.6 5 0.2 6.4 0.2 C 7.3 0.2 8.2 0.4 9 0.8 C 9.8 1.2 10.4 1.8 10.8 2.5 C 11.2 3.2 11.4 3.9 11.4 4.7 C 11.4 5.4 11.2 6.1 10.8 6.7 C 10.4 7.3 9.8 7.8 9 8.2 C 10.1 8.4 10.9 8.9 11.4 9.6 C 12 10.4 12.3 11.3 12.3 12.4 C 12.3 13.9 11.7 15.2 10.6 16.2 C 9.5 17.3 8.1 17.8 6.5 17.8 C 5 17.8 3.7 17.3 2.7 16.4 C 1.7 15.5 1.1 14.4 1 12.9 Z M 22.3 17.5 L 20.2 17.5 C 20.2 17.5 20.18 4.03 20.2 4 C 19.7 4.5 19 5 18.2 5.5 C 17.4 6 16.6 6.3 16 6.6 C 16 6.6 16 4.5 16 4.5 C 17.1 4 18.2 3.3 19.1 2.5 C 19.9 1.7 20.6 1 20.9 0.2 C 20.93 0.22 22.3 0.2 22.3 0.2 L 22.3 17.5 Z M 34.1 12.3 L 34.1 10.2 L 40.6 10.2 L 40.6 12.3 L 34.1 12.3 Z M 49.2 2.5 L 49.2 0.5 L 60.3 0.5 C 60.3 0.5 60.28 2.16 60.3 2.2 C 59.2 3.3 58.1 4.9 57 6.8 C 56 8.7 55.1 10.7 54.5 12.8 C 54.1 14.2 53.8 15.8 53.7 17.5 C 53.7 17.5 51.6 17.5 51.6 17.5 C 51.6 16.1 51.9 14.5 52.4 12.6 C 52.9 10.7 53.6 8.8 54.5 7 C 55.5 5.3 56.5 3.8 57.6 2.5 C 57.57 2.54 49.2 2.5 49.2 2.5 Z M 64.1 16 C 62.9 14.6 62.4 12.2 62.4 9 C 62.4 7 62.6 5.3 63 4.1 C 63.4 2.9 64 1.9 64.9 1.2 C 65.7 0.6 66.7 0.2 68 0.2 C 68.9 0.2 69.7 0.4 70.4 0.8 C 71.1 1.2 71.7 1.7 72.1 2.4 C 72.6 3.1 72.9 3.9 73.2 4.9 C 73.4 5.9 73.6 7.3 73.6 9 C 73.6 11 73.4 12.6 72.9 13.9 C 72.5 15.1 71.9 16.1 71.1 16.8 C 70.3 17.4 69.2 17.8 68 17.8 C 66.3 17.8 65 17.2 64.1 16 C 64.1 16 64.1 16 64.1 16 Z M 65.6 3.2 C 64.9 4.2 64.5 6.2 64.5 9 C 64.5 11.8 64.9 13.7 65.5 14.6 C 66.2 15.6 67 16 68 16 C 68.9 16 69.8 15.6 70.4 14.6 C 71.1 13.7 71.4 11.8 71.4 9 C 71.4 6.2 71.1 4.3 70.4 3.4 C 69.8 2.4 68.9 2 67.9 2 C 67 2 66.2 2.4 65.6 3.2 C 65.6 3.2 65.6 3.2 65.6 3.2 Z " stroke="none" fill="#000"/>  </g></svg>