<?xml version="1.0" standalone="no"?><!DOCTYPE svg PUBLIC "-//W3C//DTD SVG 1.1//EN" "http://www.w3.org/Graphics/SVG/1.1/DTD/svg11.dtd"><svg xmlns="http://www.w3.org/2000/svg" version="1.1" width="37.4px" height="20.5px" viewBox="0 -4 37.4 20.5" style="top:-4px">  <desc>31 70</desc>  <defs/>  <g id="Polygon52821">    <path d="M 0.5 6.5 C 0.5 6.5 1.6 6.3 1.6 6.3 C 1.7 6.9 1.9 7.4 2.2 7.6 C 2.5 7.9 2.8 8 3.2 8 C 3.7 8 4.2 7.8 4.5 7.5 C 4.8 7.2 5 6.7 5 6.2 C 5 5.7 4.9 5.3 4.5 5 C 4.2 4.7 3.8 4.6 3.3 4.6 C 3.1 4.6 2.9 4.6 2.6 4.7 C 2.6 4.7 2.7 3.7 2.7 3.7 C 2.8 3.8 2.8 3.8 2.9 3.8 C 3.3 3.8 3.7 3.6 4.1 3.4 C 4.4 3.2 4.6 2.8 4.6 2.3 C 4.6 1.9 4.5 1.6 4.2 1.4 C 4 1.1 3.6 1 3.2 1 C 2.8 1 2.5 1.1 2.2 1.4 C 1.9 1.6 1.7 2 1.7 2.5 C 1.7 2.5 0.6 2.3 0.6 2.3 C 0.7 1.6 1 1.1 1.5 0.7 C 1.9 0.3 2.5 0.1 3.2 0.1 C 3.7 0.1 4.1 0.2 4.5 0.4 C 4.9 0.6 5.2 0.9 5.4 1.2 C 5.6 1.6 5.7 2 5.7 2.3 C 5.7 2.7 5.6 3.1 5.4 3.4 C 5.2 3.7 4.9 3.9 4.5 4.1 C 5 4.2 5.4 4.4 5.7 4.8 C 6 5.2 6.1 5.6 6.1 6.2 C 6.1 6.9 5.9 7.6 5.3 8.1 C 4.8 8.6 4.1 8.9 3.2 8.9 C 2.5 8.9 1.9 8.7 1.4 8.2 C 0.9 7.8 0.6 7.2 0.5 6.5 Z M 11.1 8.7 L 10.1 8.7 C 10.1 8.7 10.09 2.02 10.1 2 C 9.8 2.3 9.5 2.5 9.1 2.7 C 8.7 3 8.3 3.2 8 3.3 C 8 3.3 8 2.3 8 2.3 C 8.6 2 9.1 1.7 9.5 1.3 C 10 0.9 10.3 0.5 10.5 0.1 C 10.46 0.11 11.1 0.1 11.1 0.1 L 11.1 8.7 Z M 17.1 6.2 L 17.1 5.1 L 20.3 5.1 L 20.3 6.2 L 17.1 6.2 Z M 24.6 1.3 L 24.6 0.3 L 30.1 0.3 C 30.1 0.3 30.14 1.08 30.1 1.1 C 29.6 1.7 29.1 2.4 28.5 3.4 C 28 4.4 27.6 5.4 27.3 6.4 C 27.1 7.1 26.9 7.9 26.9 8.7 C 26.9 8.7 25.8 8.7 25.8 8.7 C 25.8 8.1 25.9 7.2 26.2 6.3 C 26.4 5.3 26.8 4.4 27.3 3.5 C 27.7 2.6 28.3 1.9 28.8 1.3 C 28.79 1.27 24.6 1.3 24.6 1.3 Z M 32 8 C 31.5 7.3 31.2 6.1 31.2 4.5 C 31.2 3.5 31.3 2.7 31.5 2 C 31.7 1.4 32 1 32.4 0.6 C 32.8 0.3 33.4 0.1 34 0.1 C 34.4 0.1 34.8 0.2 35.2 0.4 C 35.5 0.6 35.8 0.8 36.1 1.2 C 36.3 1.5 36.5 2 36.6 2.5 C 36.7 3 36.8 3.6 36.8 4.5 C 36.8 5.5 36.7 6.3 36.5 6.9 C 36.3 7.6 36 8 35.5 8.4 C 35.1 8.7 34.6 8.9 34 8.9 C 33.2 8.9 32.5 8.6 32 8 C 32 8 32 8 32 8 Z M 32.8 1.6 C 32.4 2.1 32.3 3.1 32.3 4.5 C 32.3 5.9 32.4 6.8 32.8 7.3 C 33.1 7.8 33.5 8 34 8 C 34.5 8 34.9 7.8 35.2 7.3 C 35.5 6.8 35.7 5.9 35.7 4.5 C 35.7 3.1 35.5 2.1 35.2 1.7 C 34.9 1.2 34.5 1 34 1 C 33.5 1 33.1 1.2 32.8 1.6 C 32.8 1.6 32.8 1.6 32.8 1.6 Z " stroke="none" fill="#000"/>  </g></svg>