<?xml version="1.0" standalone="no"?><!DOCTYPE svg PUBLIC "-//W3C//DTD SVG 1.1//EN" "http://www.w3.org/Graphics/SVG/1.1/DTD/svg11.dtd"><svg xmlns="http://www.w3.org/2000/svg" version="1.1" width="508px" height="90.3px" viewBox="0 -14 508 90.3" style="top:-14px">  <desc>Case Studies</desc>  <defs/>  <g id="Polygon14728">    <path d="M 38.4 5.5 C 38.4 5.5 38.4 10.4 38.4 10.4 C 34.1 7.9 29.3 6.5 24.5 6.5 C 14.1 6.5 7.5 14.3 7.5 23.3 C 7.5 32.5 14 40.1 24.5 40.1 C 29.6 40.1 34.3 38.6 38.7 35.9 C 38.7 35.9 38.7 40.9 38.7 40.9 C 34.1 43.2 29.4 44.3 24.4 44.3 C 10.2 44.3 2.8 33.7 2.8 23.5 C 2.8 11.3 12.2 2.3 24.5 2.3 C 29.1 2.3 33.8 3.4 38.4 5.5 Z M 63.1 2.6 L 81.4 43.7 L 76.7 43.7 L 71 30.9 L 52.4 30.9 L 46.9 43.7 L 42.2 43.7 L 59.9 2.6 L 63.1 2.6 Z M 54.1 26.9 L 69.2 26.9 L 61.4 9.5 L 54.1 26.9 Z M 106 4.9 C 106 4.9 106 10 106 10 C 103.1 7.6 100.1 6.4 96.7 6.4 C 92.4 6.4 89.6 8.8 89.6 12.3 C 89.6 15 90.2 17.3 97 20.8 C 105.5 25.1 107.5 28.1 107.5 33.7 C 107.5 39.7 102.8 44.3 95.8 44.3 C 91.9 44.3 88.3 43 85.2 40.7 C 85.2 40.7 85.2 35 85.2 35 C 88.3 38.4 91.9 40.3 95.8 40.3 C 100 40.3 103 37.7 103 33.7 C 103 30.2 101.8 28.2 93.9 24.1 C 87.5 20.8 85 17.6 85 12.4 C 85 6.6 90 2.3 96.8 2.3 C 100 2.3 103.2 3.2 106 4.9 Z M 136.9 2.8 L 136.9 6.8 L 119 6.8 L 119 21.1 L 136.3 21.1 L 136.3 25.1 L 119 25.1 L 119 39.7 L 137.4 39.7 L 137.4 43.7 L 114.5 43.7 L 114.5 2.8 L 136.9 2.8 Z M 180.3 4.9 C 180.3 4.9 180.3 10 180.3 10 C 177.5 7.6 174.4 6.4 171.1 6.4 C 166.7 6.4 163.9 8.8 163.9 12.3 C 163.9 15 164.6 17.3 171.4 20.8 C 179.8 25.1 181.9 28.1 181.9 33.7 C 181.9 39.7 177.2 44.3 170.2 44.3 C 166.3 44.3 162.7 43 159.5 40.7 C 159.5 40.7 159.5 35 159.5 35 C 162.6 38.4 166.2 40.3 170.2 40.3 C 174.3 40.3 177.3 37.7 177.3 33.7 C 177.3 30.2 176.2 28.2 168.2 24.1 C 161.8 20.8 159.4 17.6 159.4 12.4 C 159.4 6.6 164.3 2.3 171.2 2.3 C 174.4 2.3 177.5 3.2 180.3 4.9 Z M 218.8 2.8 L 218.8 6.8 L 204.1 6.8 L 204.1 43.7 L 199.6 43.7 L 199.6 6.8 L 185.2 6.8 L 185.2 2.8 L 218.8 2.8 Z M 228.2 2.8 C 228.2 2.8 228.24 26.4 228.2 26.4 C 228.2 35.5 232.5 40.3 240.9 40.3 C 249.4 40.3 253.6 35.3 253.6 26.4 C 253.56 26.4 253.6 2.8 253.6 2.8 L 258.1 2.8 C 258.1 2.8 258.06 26.4 258.1 26.4 C 258.1 37.1 252.4 44.3 241 44.3 C 229.7 44.3 223.7 37.9 223.7 26.4 C 223.74 26.4 223.7 2.8 223.7 2.8 L 228.2 2.8 Z M 266.8 2.8 C 266.8 2.8 281.82 2.82 281.8 2.8 C 295.2 2.8 303.8 11.2 303.8 22.9 C 303.8 35.6 294.8 43.7 281.8 43.7 C 281.82 43.74 266.8 43.7 266.8 43.7 L 266.8 2.8 Z M 281.8 39.7 C 292.5 39.7 299.2 33.3 299.2 23.2 C 299.2 13.3 292.7 6.8 281.1 6.8 C 281.1 6.84 271.3 6.8 271.3 6.8 L 271.3 39.7 C 271.3 39.7 281.76 39.66 281.8 39.7 Z M 315.8 2.8 L 315.8 43.7 L 311.3 43.7 L 311.3 2.8 L 315.8 2.8 Z M 347.4 2.8 L 347.4 6.8 L 329.5 6.8 L 329.5 21.1 L 346.8 21.1 L 346.8 25.1 L 329.5 25.1 L 329.5 39.7 L 347.9 39.7 L 347.9 43.7 L 325 43.7 L 325 2.8 L 347.4 2.8 Z M 374.1 4.9 C 374.1 4.9 374.1 10 374.1 10 C 371.3 7.6 368.2 6.4 364.9 6.4 C 360.5 6.4 357.7 8.8 357.7 12.3 C 357.7 15 358.4 17.3 365.2 20.8 C 373.6 25.1 375.7 28.1 375.7 33.7 C 375.7 39.7 371 44.3 364 44.3 C 360.1 44.3 356.5 43 353.3 40.7 C 353.3 40.7 353.3 35 353.3 35 C 356.4 38.4 360 40.3 364 40.3 C 368.1 40.3 371.1 37.7 371.1 33.7 C 371.1 30.2 370 28.2 362 24.1 C 355.6 20.8 353.2 17.6 353.2 12.4 C 353.2 6.6 358.1 2.3 365 2.3 C 368.2 2.3 371.3 3.2 374.1 4.9 Z " stroke="none" fill="#010102"/>  </g></svg>