<?xml version="1.0" standalone="no"?><!DOCTYPE svg PUBLIC "-//W3C//DTD SVG 1.1//EN" "http://www.w3.org/Graphics/SVG/1.1/DTD/svg11.dtd"><svg xmlns="http://www.w3.org/2000/svg" version="1.1" width="204px" height="54.1px" viewBox="0 -1 204 54.1" style="top:-1px">  <desc>Authenticity</desc>  <defs/>  <g id="Polygon8404">    <path d="M 39.8 32.2 L 46.4 15 L 48.9 15 L 55.9 32.2 L 53.3 32.2 L 51.3 27 L 44.1 27 L 42.2 32.2 L 39.8 32.2 Z M 44.8 25.1 L 50.6 25.1 C 50.6 25.1 48.8 20.38 48.8 20.4 C 48.3 18.9 47.8 17.8 47.6 16.8 C 47.4 17.9 47.1 19 46.7 20.1 C 46.65 20.1 44.8 25.1 44.8 25.1 Z M 65.6 32.2 C 65.6 32.2 65.59 30.37 65.6 30.4 C 64.6 31.8 63.3 32.5 61.6 32.5 C 60.9 32.5 60.2 32.3 59.6 32.1 C 58.9 31.8 58.5 31.4 58.2 31 C 57.9 30.6 57.6 30 57.5 29.4 C 57.4 29 57.4 28.4 57.4 27.5 C 57.39 27.46 57.4 19.8 57.4 19.8 L 59.5 19.8 C 59.5 19.8 59.5 26.65 59.5 26.7 C 59.5 27.8 59.5 28.5 59.6 28.9 C 59.8 29.4 60 29.9 60.5 30.2 C 60.9 30.5 61.4 30.7 62.1 30.7 C 62.7 30.7 63.3 30.5 63.8 30.2 C 64.4 29.9 64.8 29.4 65 28.9 C 65.3 28.3 65.4 27.5 65.4 26.4 C 65.37 26.42 65.4 19.8 65.4 19.8 L 67.5 19.8 L 67.5 32.2 L 65.6 32.2 Z M 74.5 30.4 C 74.7 30.4 75 30.4 75.4 30.3 C 75.4 30.3 75.7 32.2 75.7 32.2 C 75.1 32.3 74.6 32.4 74.1 32.4 C 73.3 32.4 72.7 32.2 72.3 32 C 71.9 31.8 71.6 31.4 71.4 31 C 71.3 30.6 71.2 29.8 71.2 28.6 C 71.17 28.55 71.2 21.4 71.2 21.4 L 69.6 21.4 L 69.6 19.8 L 71.2 19.8 L 71.2 16.7 L 73.3 15.4 L 73.3 19.8 L 75.4 19.8 L 75.4 21.4 L 73.3 21.4 C 73.3 21.4 73.27 28.67 73.3 28.7 C 73.3 29.3 73.3 29.7 73.4 29.8 C 73.5 30 73.6 30.1 73.7 30.2 C 73.9 30.3 74.2 30.4 74.5 30.4 C 74.5 30.4 74.5 30.4 74.5 30.4 Z M 77.5 32.2 L 77.5 15 L 79.6 15 C 79.6 15 79.56 21.18 79.6 21.2 C 80.5 20 81.8 19.5 83.3 19.5 C 84.2 19.5 85 19.7 85.7 20 C 86.4 20.4 86.9 20.9 87.1 21.5 C 87.4 22.2 87.6 23.1 87.6 24.3 C 87.59 24.31 87.6 32.2 87.6 32.2 L 85.5 32.2 C 85.5 32.2 85.48 24.31 85.5 24.3 C 85.5 23.3 85.3 22.5 84.8 22 C 84.3 21.5 83.7 21.3 82.9 21.3 C 82.2 21.3 81.6 21.4 81.1 21.8 C 80.5 22.1 80.1 22.5 79.9 23.1 C 79.7 23.6 79.6 24.4 79.6 25.4 C 79.56 25.39 79.6 32.2 79.6 32.2 L 77.5 32.2 Z M 99.3 28.2 C 99.3 28.2 101.5 28.5 101.5 28.5 C 101.2 29.7 100.5 30.7 99.6 31.4 C 98.7 32.1 97.5 32.5 96 32.5 C 94.2 32.5 92.8 31.9 91.7 30.8 C 90.6 29.7 90.1 28.1 90.1 26.1 C 90.1 24 90.6 22.4 91.7 21.2 C 92.8 20 94.2 19.5 95.9 19.5 C 97.6 19.5 98.9 20 100 21.2 C 101 22.3 101.6 23.9 101.6 26 C 101.6 26.1 101.6 26.3 101.6 26.5 C 101.6 26.5 92.3 26.5 92.3 26.5 C 92.4 27.9 92.7 28.9 93.4 29.7 C 94.1 30.4 95 30.7 96 30.7 C 96.8 30.7 97.5 30.5 98 30.1 C 98.6 29.7 99 29.1 99.3 28.2 Z M 92.4 24.8 C 92.4 24.8 99.3 24.8 99.3 24.8 C 99.2 23.7 99 22.9 98.5 22.4 C 97.9 21.6 97 21.2 95.9 21.2 C 95 21.2 94.1 21.5 93.5 22.2 C 92.8 22.8 92.5 23.7 92.4 24.8 Z M 104.1 32.2 L 104.1 19.8 L 106 19.8 C 106 19.8 106.05 21.52 106 21.5 C 107 20.2 108.3 19.5 110 19.5 C 110.8 19.5 111.4 19.6 112.1 19.9 C 112.7 20.1 113.2 20.5 113.5 20.9 C 113.8 21.4 114 21.9 114.1 22.5 C 114.2 22.9 114.3 23.6 114.3 24.5 C 114.26 24.54 114.3 32.2 114.3 32.2 L 112.2 32.2 C 112.2 32.2 112.15 24.63 112.2 24.6 C 112.2 23.8 112.1 23.1 111.9 22.7 C 111.7 22.3 111.4 21.9 111 21.7 C 110.6 21.4 110.1 21.3 109.6 21.3 C 108.7 21.3 107.9 21.6 107.2 22.2 C 106.6 22.7 106.3 23.8 106.3 25.4 C 106.26 25.4 106.3 32.2 106.3 32.2 L 104.1 32.2 Z M 121.2 30.4 C 121.4 30.4 121.7 30.4 122.1 30.3 C 122.1 30.3 122.4 32.2 122.4 32.2 C 121.8 32.3 121.3 32.4 120.8 32.4 C 120 32.4 119.5 32.2 119 32 C 118.6 31.8 118.3 31.4 118.1 31 C 118 30.6 117.9 29.8 117.9 28.6 C 117.88 28.55 117.9 21.4 117.9 21.4 L 116.3 21.4 L 116.3 19.8 L 117.9 19.8 L 117.9 16.7 L 120 15.4 L 120 19.8 L 122.1 19.8 L 122.1 21.4 L 120 21.4 C 120 21.4 119.98 28.67 120 28.7 C 120 29.3 120 29.7 120.1 29.8 C 120.2 30 120.3 30.1 120.5 30.2 C 120.6 30.3 120.9 30.4 121.2 30.4 C 121.2 30.4 121.2 30.4 121.2 30.4 Z M 124.2 17.4 L 124.2 15 L 126.3 15 L 126.3 17.4 L 124.2 17.4 Z M 124.2 32.2 L 124.2 19.8 L 126.3 19.8 L 126.3 32.2 L 124.2 32.2 Z M 137.6 27.6 C 137.6 27.6 139.7 27.9 139.7 27.9 C 139.5 29.3 138.9 30.5 137.9 31.3 C 137 32.1 135.9 32.5 134.5 32.5 C 132.8 32.5 131.4 31.9 130.4 30.8 C 129.4 29.7 128.8 28.1 128.8 26 C 128.8 24.7 129.1 23.5 129.5 22.5 C 130 21.5 130.6 20.7 131.6 20.2 C 132.5 19.7 133.5 19.5 134.5 19.5 C 135.9 19.5 137 19.8 137.8 20.5 C 138.7 21.2 139.2 22.1 139.5 23.4 C 139.5 23.4 137.4 23.7 137.4 23.7 C 137.2 22.9 136.9 22.3 136.4 21.8 C 135.9 21.4 135.3 21.2 134.6 21.2 C 133.5 21.2 132.7 21.6 132 22.3 C 131.3 23.1 131 24.3 131 26 C 131 27.6 131.3 28.8 132 29.6 C 132.6 30.4 133.5 30.7 134.5 30.7 C 135.3 30.7 136 30.5 136.6 30 C 137.1 29.5 137.5 28.7 137.6 27.6 Z M 141.5 17.4 L 141.5 15 L 143.6 15 L 143.6 17.4 L 141.5 17.4 Z M 141.5 32.2 L 141.5 19.8 L 143.6 19.8 L 143.6 32.2 L 141.5 32.2 Z M 150.5 30.4 C 150.7 30.4 151 30.4 151.4 30.3 C 151.4 30.3 151.7 32.2 151.7 32.2 C 151.1 32.3 150.6 32.4 150.1 32.4 C 149.4 32.4 148.8 32.2 148.4 32 C 147.9 31.8 147.6 31.4 147.5 31 C 147.3 30.6 147.2 29.8 147.2 28.6 C 147.21 28.55 147.2 21.4 147.2 21.4 L 145.7 21.4 L 145.7 19.8 L 147.2 19.8 L 147.2 16.7 L 149.3 15.4 L 149.3 19.8 L 151.4 19.8 L 151.4 21.4 L 149.3 21.4 C 149.3 21.4 149.31 28.67 149.3 28.7 C 149.3 29.3 149.3 29.7 149.4 29.8 C 149.5 30 149.6 30.1 149.8 30.2 C 150 30.3 150.2 30.4 150.5 30.4 C 150.5 30.4 150.5 30.4 150.5 30.4 Z M 154.8 37.2 C 154.4 37.2 153.9 37.2 153.4 37 C 153.4 37 153.2 35 153.2 35 C 153.6 35.1 154 35.2 154.4 35.2 C 154.8 35.2 155.2 35.1 155.5 35 C 155.8 34.8 156 34.6 156.2 34.3 C 156.3 34.1 156.5 33.6 156.8 32.7 C 156.9 32.6 156.9 32.4 157 32.2 C 157.02 32.22 152.3 19.8 152.3 19.8 L 154.6 19.8 C 154.6 19.8 157.16 26.96 157.2 27 C 157.5 27.9 157.8 28.8 158.1 29.8 C 158.3 28.9 158.6 27.9 158.9 27 C 158.93 27.01 161.6 19.8 161.6 19.8 L 163.7 19.8 C 163.7 19.8 158.97 32.41 159 32.4 C 158.5 33.8 158.1 34.7 157.8 35.2 C 157.4 35.9 157 36.4 156.5 36.8 C 156 37.1 155.4 37.2 154.8 37.2 C 154.8 37.2 154.8 37.2 154.8 37.2 Z " stroke="none" fill="#000"/>  </g></svg>