<?xml version="1.0" standalone="no"?><!DOCTYPE svg PUBLIC "-//W3C//DTD SVG 1.1//EN" "http://www.w3.org/Graphics/SVG/1.1/DTD/svg11.dtd"><svg xmlns="http://www.w3.org/2000/svg" version="1.1" width="400.1px" height="39.1px" viewBox="0 -8 400.1 39.1" style="top:-8px">  <desc>Support Team</desc>  <defs/>  <g id="Polygon6637">    <path d="M 1.1 12 C 1.1 12 3.2 11.8 3.2 11.8 C 3.3 12.6 3.6 13.3 3.9 13.9 C 4.3 14.4 4.9 14.9 5.7 15.2 C 6.4 15.6 7.3 15.7 8.3 15.7 C 9.2 15.7 9.9 15.6 10.6 15.3 C 11.3 15.1 11.8 14.7 12.1 14.3 C 12.4 13.8 12.6 13.3 12.6 12.8 C 12.6 12.3 12.4 11.8 12.1 11.4 C 11.8 11 11.3 10.7 10.5 10.4 C 10.1 10.2 9.1 9.9 7.5 9.5 C 5.9 9.2 4.8 8.8 4.2 8.5 C 3.4 8 2.7 7.5 2.3 6.9 C 1.9 6.2 1.7 5.5 1.7 4.7 C 1.7 3.9 2 3.1 2.5 2.3 C 3 1.5 3.7 1 4.6 0.6 C 5.6 0.2 6.6 0 7.8 0 C 9.1 0 10.2 0.2 11.2 0.6 C 12.1 1 12.9 1.6 13.4 2.4 C 13.9 3.2 14.2 4.1 14.2 5.1 C 14.2 5.1 12.1 5.3 12.1 5.3 C 11.9 4.2 11.5 3.4 10.9 2.8 C 10.2 2.3 9.2 2 7.9 2 C 6.5 2 5.5 2.3 4.9 2.8 C 4.2 3.3 3.9 3.9 3.9 4.6 C 3.9 5.2 4.1 5.7 4.6 6.1 C 5 6.5 6.2 6.9 8 7.3 C 9.9 7.7 11.1 8.1 11.8 8.4 C 12.8 8.9 13.6 9.5 14 10.2 C 14.5 10.9 14.8 11.7 14.8 12.6 C 14.8 13.5 14.5 14.4 14 15.2 C 13.4 16 12.7 16.6 11.7 17.1 C 10.7 17.5 9.6 17.8 8.4 17.8 C 6.8 17.8 5.5 17.5 4.5 17.1 C 3.4 16.6 2.6 16 2 15 C 1.4 14.1 1.1 13.1 1.1 12 Z M 25.7 17.5 C 25.7 17.5 25.75 15.64 25.7 15.6 C 24.8 17.1 23.5 17.8 21.8 17.8 C 21.1 17.8 20.4 17.6 19.7 17.3 C 19.1 17.1 18.6 16.7 18.3 16.3 C 18 15.8 17.8 15.3 17.7 14.7 C 17.6 14.3 17.5 13.6 17.5 12.7 C 17.54 12.74 17.5 5 17.5 5 L 19.7 5 C 19.7 5 19.65 11.93 19.7 11.9 C 19.7 13 19.7 13.8 19.8 14.2 C 19.9 14.7 20.2 15.1 20.6 15.5 C 21.1 15.8 21.6 15.9 22.2 15.9 C 22.9 15.9 23.4 15.8 24 15.5 C 24.6 15.1 24.9 14.7 25.2 14.1 C 25.4 13.6 25.5 12.8 25.5 11.7 C 25.52 11.7 25.5 5 25.5 5 L 27.6 5 L 27.6 17.5 L 25.7 17.5 Z M 30.9 22.2 L 30.9 5 L 32.9 5 C 32.9 5 32.86 6.64 32.9 6.6 C 33.3 6 33.8 5.5 34.4 5.2 C 35 4.9 35.7 4.7 36.5 4.7 C 37.5 4.7 38.5 5 39.3 5.6 C 40.1 6.1 40.7 6.9 41.1 7.9 C 41.5 8.9 41.7 10 41.7 11.2 C 41.7 12.4 41.5 13.6 41.1 14.6 C 40.6 15.6 39.9 16.4 39.1 16.9 C 38.2 17.5 37.3 17.8 36.3 17.8 C 35.6 17.8 35 17.6 34.4 17.3 C 33.9 17 33.4 16.6 33 16.2 C 33.05 16.18 33 22.2 33 22.2 L 30.9 22.2 Z M 32.8 11.3 C 32.8 12.9 33.2 14.1 33.8 14.9 C 34.5 15.6 35.3 16 36.2 16 C 37.1 16 37.9 15.6 38.6 14.8 C 39.3 14 39.6 12.8 39.6 11.1 C 39.6 9.6 39.3 8.4 38.6 7.6 C 38 6.8 37.2 6.4 36.3 6.4 C 35.4 6.4 34.6 6.8 33.9 7.7 C 33.2 8.5 32.8 9.7 32.8 11.3 Z M 44.3 22.2 L 44.3 5 L 46.2 5 C 46.2 5 46.21 6.64 46.2 6.6 C 46.7 6 47.2 5.5 47.7 5.2 C 48.3 4.9 49 4.7 49.8 4.7 C 50.9 4.7 51.8 5 52.6 5.6 C 53.4 6.1 54.1 6.9 54.5 7.9 C 54.9 8.9 55.1 10 55.1 11.2 C 55.1 12.4 54.9 13.6 54.4 14.6 C 53.9 15.6 53.3 16.4 52.4 16.9 C 51.5 17.5 50.6 17.8 49.7 17.8 C 49 17.8 48.3 17.6 47.8 17.3 C 47.2 17 46.8 16.6 46.4 16.2 C 46.39 16.18 46.4 22.2 46.4 22.2 L 44.3 22.2 Z M 46.2 11.3 C 46.2 12.9 46.5 14.1 47.2 14.9 C 47.8 15.6 48.6 16 49.5 16 C 50.5 16 51.3 15.6 51.9 14.8 C 52.6 14 52.9 12.8 52.9 11.1 C 52.9 9.6 52.6 8.4 52 7.6 C 51.3 6.8 50.5 6.4 49.6 6.4 C 48.7 6.4 47.9 6.8 47.2 7.7 C 46.5 8.5 46.2 9.7 46.2 11.3 Z M 56.8 11.3 C 56.8 8.9 57.5 7.2 58.8 6.1 C 59.8 5.2 61.1 4.7 62.7 4.7 C 64.4 4.7 65.8 5.3 66.9 6.4 C 68 7.5 68.5 9.1 68.5 11.1 C 68.5 12.7 68.3 13.9 67.8 14.9 C 67.3 15.8 66.6 16.5 65.7 17 C 64.8 17.5 63.8 17.8 62.7 17.8 C 60.9 17.8 59.5 17.2 58.5 16.1 C 57.4 15 56.8 13.4 56.8 11.3 Z M 59 11.3 C 59 12.8 59.4 14 60.1 14.8 C 60.8 15.6 61.6 16 62.7 16 C 63.7 16 64.6 15.6 65.3 14.8 C 66 14 66.3 12.8 66.3 11.2 C 66.3 9.6 66 8.5 65.3 7.7 C 64.6 6.9 63.7 6.5 62.7 6.5 C 61.6 6.5 60.8 6.9 60.1 7.7 C 59.4 8.5 59 9.7 59 11.3 Z M 71 17.5 L 71 5 L 72.9 5 C 72.9 5 72.86 6.91 72.9 6.9 C 73.3 6 73.8 5.4 74.2 5.2 C 74.6 4.9 75.1 4.7 75.6 4.7 C 76.3 4.7 77 5 77.7 5.4 C 77.7 5.4 77 7.4 77 7.4 C 76.5 7.1 76 6.9 75.4 6.9 C 75 6.9 74.6 7.1 74.2 7.3 C 73.8 7.6 73.6 8 73.4 8.5 C 73.2 9.2 73.1 10.1 73.1 11 C 73.07 10.96 73.1 17.5 73.1 17.5 L 71 17.5 Z M 82.7 15.7 C 82.9 15.7 83.2 15.6 83.6 15.6 C 83.6 15.6 83.9 17.4 83.9 17.4 C 83.3 17.6 82.8 17.6 82.3 17.6 C 81.5 17.6 80.9 17.5 80.5 17.3 C 80.1 17 79.8 16.7 79.6 16.3 C 79.4 15.9 79.4 15.1 79.4 13.8 C 79.36 13.83 79.4 6.7 79.4 6.7 L 77.8 6.7 L 77.8 5 L 79.4 5 L 79.4 1.9 L 81.5 0.7 L 81.5 5 L 83.6 5 L 83.6 6.7 L 81.5 6.7 C 81.5 6.7 81.46 13.95 81.5 13.9 C 81.5 14.5 81.5 14.9 81.6 15.1 C 81.6 15.3 81.8 15.4 81.9 15.5 C 82.1 15.6 82.3 15.7 82.7 15.7 C 82.7 15.7 82.7 15.7 82.7 15.7 Z M 96.5 17.5 L 96.5 2.3 L 90.9 2.3 L 90.9 0.3 L 104.5 0.3 L 104.5 2.3 L 98.8 2.3 L 98.8 17.5 L 96.5 17.5 Z M 112.4 13.5 C 112.4 13.5 114.6 13.7 114.6 13.7 C 114.2 15 113.6 16 112.7 16.7 C 111.7 17.4 110.5 17.8 109.1 17.8 C 107.3 17.8 105.8 17.2 104.8 16.1 C 103.7 15 103.2 13.4 103.2 11.4 C 103.2 9.3 103.7 7.6 104.8 6.5 C 105.9 5.3 107.3 4.7 109 4.7 C 110.6 4.7 112 5.3 113.1 6.4 C 114.1 7.6 114.6 9.2 114.6 11.2 C 114.6 11.4 114.6 11.5 114.6 11.8 C 114.6 11.8 105.4 11.8 105.4 11.8 C 105.4 13.2 105.8 14.2 106.5 14.9 C 107.2 15.7 108.1 16 109.1 16 C 109.9 16 110.5 15.8 111.1 15.4 C 111.6 15 112.1 14.4 112.4 13.5 Z M 105.5 10.1 C 105.5 10.1 112.4 10.1 112.4 10.1 C 112.3 9 112.1 8.2 111.6 7.7 C 110.9 6.9 110.1 6.5 109 6.5 C 108 6.5 107.2 6.8 106.6 7.5 C 105.9 8.1 105.5 9 105.5 10.1 Z M 125.8 17.5 C 125.5 17 125.4 16.5 125.3 15.9 C 124.6 16.6 123.8 17.1 123.1 17.3 C 122.4 17.6 121.6 17.8 120.8 17.8 C 119.4 17.8 118.3 17.4 117.6 16.8 C 116.9 16.1 116.5 15.2 116.5 14.2 C 116.5 13.6 116.6 13 116.9 12.5 C 117.2 12 117.6 11.6 118 11.3 C 118.5 11 119 10.8 119.5 10.6 C 119.9 10.5 120.6 10.4 121.4 10.3 C 123.1 10.1 124.4 9.9 125.2 9.6 C 125.2 9.3 125.2 9.1 125.2 9 C 125.2 8.2 125 7.6 124.6 7.2 C 124 6.7 123.2 6.5 122.2 6.5 C 121.2 6.5 120.5 6.7 120 7 C 119.5 7.4 119.2 8 118.9 8.9 C 118.9 8.9 116.9 8.6 116.9 8.6 C 117.1 7.7 117.4 7 117.8 6.4 C 118.2 5.9 118.8 5.5 119.7 5.2 C 120.5 4.9 121.4 4.7 122.5 4.7 C 123.5 4.7 124.4 4.9 125.1 5.1 C 125.7 5.4 126.2 5.7 126.5 6.1 C 126.9 6.4 127.1 6.9 127.2 7.5 C 127.3 7.9 127.3 8.5 127.3 9.4 C 127.3 9.4 127.3 12.3 127.3 12.3 C 127.3 14.2 127.3 15.5 127.4 16 C 127.5 16.5 127.7 17 128 17.5 C 127.97 17.47 125.8 17.5 125.8 17.5 C 125.8 17.5 125.77 17.47 125.8 17.5 Z M 125.2 11.2 C 124.4 11.5 123.3 11.8 121.7 12 C 120.9 12.1 120.2 12.3 119.9 12.4 C 119.5 12.6 119.2 12.8 119.1 13.1 C 118.9 13.4 118.8 13.8 118.8 14.1 C 118.8 14.7 119 15.2 119.4 15.5 C 119.8 15.9 120.4 16.1 121.3 16.1 C 122.1 16.1 122.8 15.9 123.4 15.6 C 124.1 15.2 124.5 14.7 124.8 14.1 C 125.1 13.6 125.2 12.9 125.2 12 C 125.2 12 125.2 11.2 125.2 11.2 Z M 130.6 17.5 L 130.6 5 L 132.5 5 C 132.5 5 132.46 6.77 132.5 6.8 C 132.8 6.2 133.4 5.7 134 5.3 C 134.7 4.9 135.4 4.7 136.2 4.7 C 137.2 4.7 137.9 4.9 138.5 5.3 C 139.1 5.7 139.5 6.2 139.7 6.9 C 140.7 5.5 142 4.7 143.6 4.7 C 144.8 4.7 145.8 5.1 146.4 5.8 C 147.1 6.5 147.4 7.5 147.4 8.9 C 147.43 8.93 147.4 17.5 147.4 17.5 L 145.3 17.5 C 145.3 17.5 145.34 9.63 145.3 9.6 C 145.3 8.8 145.3 8.2 145.1 7.8 C 145 7.4 144.7 7.1 144.4 6.9 C 144 6.7 143.6 6.6 143.1 6.6 C 142.2 6.6 141.5 6.9 140.9 7.4 C 140.4 8 140.1 9 140.1 10.2 C 140.07 10.24 140.1 17.5 140.1 17.5 L 138 17.5 C 138 17.5 137.96 9.39 138 9.4 C 138 8.4 137.8 7.7 137.4 7.3 C 137.1 6.8 136.5 6.6 135.8 6.6 C 135.2 6.6 134.6 6.7 134.1 7 C 133.6 7.4 133.2 7.8 133 8.4 C 132.8 9 132.7 9.9 132.7 11 C 132.68 11.02 132.7 17.5 132.7 17.5 L 130.6 17.5 Z " stroke="none" fill="#000"/>  </g></svg>