<?xml version="1.0" standalone="no"?><!DOCTYPE svg PUBLIC "-//W3C//DTD SVG 1.1//EN" "http://www.w3.org/Graphics/SVG/1.1/DTD/svg11.dtd"><svg xmlns="http://www.w3.org/2000/svg" version="1.1" width="73.5px" height="27.5px" viewBox="0 -1 73.5 27.5" style="top:-1px">  <desc>Reliability</desc>  <defs/>  <g id="Polygon50694">    <path d="M 12 15.9 L 12 7.3 C 12 7.3 15.82 7.35 15.8 7.3 C 16.6 7.3 17.2 7.4 17.6 7.6 C 18 7.7 18.3 8 18.5 8.4 C 18.8 8.8 18.9 9.2 18.9 9.7 C 18.9 10.3 18.7 10.8 18.3 11.2 C 17.9 11.6 17.3 11.9 16.5 12 C 16.8 12.2 17 12.3 17.1 12.5 C 17.5 12.8 17.8 13.1 18.1 13.6 C 18.09 13.6 19.6 15.9 19.6 15.9 L 18.2 15.9 C 18.2 15.9 17.01 14.15 17 14.1 C 16.7 13.6 16.4 13.2 16.2 13 C 16 12.7 15.8 12.5 15.6 12.4 C 15.4 12.3 15.3 12.2 15.1 12.2 C 15 12.1 14.8 12.1 14.5 12.1 C 14.46 12.12 13.1 12.1 13.1 12.1 L 13.1 15.9 L 12 15.9 Z M 13.1 11.1 C 13.1 11.1 15.59 11.14 15.6 11.1 C 16.1 11.1 16.5 11.1 16.8 11 C 17.1 10.9 17.3 10.7 17.5 10.5 C 17.6 10.2 17.7 10 17.7 9.7 C 17.7 9.3 17.6 9 17.3 8.7 C 17 8.4 16.5 8.3 15.9 8.3 C 15.87 8.3 13.1 8.3 13.1 8.3 L 13.1 11.1 Z M 24.8 13.9 C 24.8 13.9 25.9 14.1 25.9 14.1 C 25.7 14.7 25.4 15.2 24.9 15.5 C 24.5 15.9 23.9 16.1 23.1 16.1 C 22.2 16.1 21.5 15.8 21 15.2 C 20.4 14.7 20.2 13.9 20.2 12.9 C 20.2 11.8 20.4 11 21 10.4 C 21.5 9.9 22.2 9.6 23.1 9.6 C 23.9 9.6 24.6 9.9 25.1 10.4 C 25.6 11 25.9 11.8 25.9 12.8 C 25.9 12.9 25.9 13 25.9 13.1 C 25.9 13.1 21.3 13.1 21.3 13.1 C 21.3 13.8 21.5 14.3 21.8 14.7 C 22.2 15 22.6 15.2 23.1 15.2 C 23.5 15.2 23.9 15.1 24.1 14.9 C 24.4 14.7 24.6 14.4 24.8 13.9 Z M 21.3 12.2 C 21.3 12.2 24.8 12.2 24.8 12.2 C 24.7 11.7 24.6 11.3 24.4 11 C 24.1 10.6 23.6 10.4 23.1 10.4 C 22.6 10.4 22.2 10.6 21.9 10.9 C 21.5 11.3 21.4 11.7 21.3 12.2 Z M 27.2 15.9 L 27.2 7.3 L 28.2 7.3 L 28.2 15.9 L 27.2 15.9 Z M 29.9 8.6 L 29.9 7.3 L 30.9 7.3 L 30.9 8.6 L 29.9 8.6 Z M 29.9 15.9 L 29.9 9.7 L 30.9 9.7 L 30.9 15.9 L 29.9 15.9 Z M 36.8 15.9 C 36.7 15.7 36.6 15.5 36.6 15.2 C 36.2 15.5 35.8 15.7 35.5 15.9 C 35.1 16 34.7 16.1 34.3 16.1 C 33.6 16.1 33.1 15.9 32.7 15.6 C 32.4 15.2 32.2 14.8 32.2 14.3 C 32.2 14 32.2 13.7 32.4 13.5 C 32.5 13.2 32.7 13 32.9 12.9 C 33.1 12.7 33.4 12.6 33.7 12.5 C 33.9 12.5 34.2 12.4 34.6 12.4 C 35.5 12.2 36.1 12.1 36.5 12 C 36.5 11.8 36.5 11.8 36.5 11.7 C 36.5 11.3 36.4 11 36.2 10.8 C 35.9 10.6 35.5 10.4 35 10.4 C 34.5 10.4 34.1 10.5 33.9 10.7 C 33.7 10.9 33.5 11.2 33.4 11.6 C 33.4 11.6 32.4 11.5 32.4 11.5 C 32.4 11 32.6 10.7 32.8 10.4 C 33 10.1 33.3 9.9 33.7 9.8 C 34.2 9.6 34.6 9.6 35.2 9.6 C 35.7 9.6 36.1 9.6 36.5 9.8 C 36.8 9.9 37 10 37.2 10.2 C 37.3 10.4 37.5 10.7 37.5 10.9 C 37.6 11.1 37.6 11.5 37.6 11.9 C 37.6 11.9 37.6 13.3 37.6 13.3 C 37.6 14.3 37.6 14.9 37.6 15.2 C 37.7 15.4 37.8 15.7 37.9 15.9 C 37.9 15.94 36.8 15.9 36.8 15.9 C 36.8 15.9 36.8 15.94 36.8 15.9 Z M 36.5 12.8 C 36.1 13 35.5 13.1 34.8 13.2 C 34.3 13.3 34 13.3 33.9 13.4 C 33.7 13.5 33.5 13.6 33.4 13.8 C 33.3 13.9 33.3 14.1 33.3 14.3 C 33.3 14.5 33.4 14.8 33.6 15 C 33.8 15.2 34.1 15.3 34.6 15.3 C 35 15.3 35.3 15.2 35.6 15 C 36 14.8 36.2 14.6 36.3 14.3 C 36.4 14 36.5 13.7 36.5 13.2 C 36.5 13.2 36.5 12.8 36.5 12.8 Z M 40.2 15.9 L 39.2 15.9 L 39.2 7.3 L 40.3 7.3 C 40.3 7.3 40.25 10.41 40.3 10.4 C 40.7 9.9 41.3 9.6 42 9.6 C 42.3 9.6 42.7 9.7 43 9.8 C 43.4 10 43.7 10.2 43.9 10.5 C 44.1 10.7 44.3 11.1 44.4 11.5 C 44.5 11.9 44.6 12.3 44.6 12.7 C 44.6 13.8 44.3 14.6 43.8 15.2 C 43.3 15.8 42.6 16.1 41.9 16.1 C 41.2 16.1 40.6 15.8 40.2 15.2 C 40.18 15.16 40.2 15.9 40.2 15.9 Z M 40.2 12.8 C 40.2 13.5 40.3 14.1 40.5 14.4 C 40.8 14.9 41.3 15.2 41.8 15.2 C 42.3 15.2 42.7 15 43 14.6 C 43.3 14.2 43.5 13.6 43.5 12.8 C 43.5 12 43.4 11.4 43 11 C 42.7 10.6 42.3 10.4 41.9 10.4 C 41.4 10.4 41 10.6 40.7 11 C 40.3 11.4 40.2 12 40.2 12.8 Z M 45.9 8.6 L 45.9 7.3 L 46.9 7.3 L 46.9 8.6 L 45.9 8.6 Z M 45.9 15.9 L 45.9 9.7 L 46.9 9.7 L 46.9 15.9 L 45.9 15.9 Z M 48.5 15.9 L 48.5 7.3 L 49.6 7.3 L 49.6 15.9 L 48.5 15.9 Z M 51.2 8.6 L 51.2 7.3 L 52.3 7.3 L 52.3 8.6 L 51.2 8.6 Z M 51.2 15.9 L 51.2 9.7 L 52.3 9.7 L 52.3 15.9 L 51.2 15.9 Z M 55.7 15 C 55.8 15 56 15 56.2 15 C 56.2 15 56.3 15.9 56.3 15.9 C 56 16 55.8 16 55.5 16 C 55.2 16 54.9 16 54.6 15.8 C 54.4 15.7 54.3 15.6 54.2 15.4 C 54.1 15.2 54.1 14.7 54.1 14.1 C 54.07 14.11 54.1 10.5 54.1 10.5 L 53.3 10.5 L 53.3 9.7 L 54.1 9.7 L 54.1 8.2 L 55.1 7.5 L 55.1 9.7 L 56.2 9.7 L 56.2 10.5 L 55.1 10.5 C 55.1 10.5 55.12 14.17 55.1 14.2 C 55.1 14.5 55.1 14.7 55.2 14.8 C 55.2 14.8 55.3 14.9 55.4 15 C 55.4 15 55.6 15 55.7 15 C 55.7 15 55.7 15 55.7 15 Z M 57.8 18.5 C 57.6 18.5 57.4 18.4 57.2 18.3 C 57.2 18.3 57 17.3 57 17.3 C 57.3 17.4 57.5 17.4 57.6 17.4 C 57.9 17.4 58.1 17.4 58.2 17.3 C 58.4 17.2 58.5 17.1 58.6 17 C 58.6 16.9 58.7 16.6 58.9 16.2 C 58.9 16.1 58.9 16.1 59 15.9 C 58.97 15.95 56.6 9.7 56.6 9.7 L 57.7 9.7 C 57.7 9.7 59.04 13.32 59 13.3 C 59.2 13.8 59.4 14.3 59.5 14.8 C 59.6 14.3 59.8 13.8 59.9 13.3 C 59.93 13.34 61.3 9.7 61.3 9.7 L 62.3 9.7 C 62.3 9.7 59.95 16.04 59.9 16 C 59.7 16.7 59.5 17.2 59.4 17.5 C 59.2 17.8 59 18.1 58.7 18.2 C 58.5 18.4 58.2 18.5 57.8 18.5 C 57.8 18.5 57.8 18.5 57.8 18.5 Z " stroke="none" fill="#000"/>  </g></svg>