<?xml version="1.0" standalone="no"?><!DOCTYPE svg PUBLIC "-//W3C//DTD SVG 1.1//EN" "http://www.w3.org/Graphics/SVG/1.1/DTD/svg11.dtd"><svg xmlns="http://www.w3.org/2000/svg" version="1.1" width="915.5px" height="65.7px" viewBox="0 -11 915.5 65.7" style="top:-11px">  <desc>AWARDING I LEARNING I MANAGED SERVICES</desc>  <defs/>  <g id="Polygon9977">    <path d="M 14.5 1.8 L 27.6 31.3 L 25.2 31.3 L 20.9 21.6 L 6.7 21.6 L 2.5 31.3 L 0.1 31.3 L 12.9 1.8 L 14.5 1.8 Z M 7.6 19.6 L 20 19.6 L 13.7 5.3 L 7.6 19.6 Z M 25.4 2 L 27.7 2 L 37.3 26.4 L 37.3 26.4 L 46.6 2 L 48.4 2 L 57.9 26.3 L 58 26.3 L 67.2 2 L 69.5 2 L 58.1 31.6 L 57.7 31.6 L 47.5 5.6 L 37.5 31.6 L 37.1 31.6 L 25.4 2 Z M 81.8 1.8 L 94.9 31.3 L 92.5 31.3 L 88.2 21.6 L 74 21.6 L 69.8 31.3 L 67.4 31.3 L 80.2 1.8 L 81.8 1.8 Z M 74.9 19.6 L 87.3 19.6 L 81 5.3 L 74.9 19.6 Z M 98.3 2 C 98.3 2 105.74 2.02 105.7 2 C 111.6 2 114.7 5 114.7 9.6 C 114.7 13.5 112.4 16 108.5 16.8 C 110.5 17.7 111.5 18.6 113.4 21.6 C 113.39 21.59 119.6 31.3 119.6 31.3 L 116.9 31.3 C 116.9 31.3 111.28 22.36 111.3 22.4 C 108.8 18.4 107.1 17.5 104.1 17.5 C 104.15 17.5 100.6 17.5 100.6 17.5 L 100.6 31.3 L 98.3 31.3 L 98.3 2 Z M 104 15.4 C 109 15.4 112.4 14.3 112.4 9.6 C 112.4 5.3 109.4 4 105.2 4 C 105.18 4.04 100.6 4 100.6 4 L 100.6 15.4 C 100.6 15.4 103.97 15.44 104 15.4 Z M 122.8 2 C 122.8 2 133.26 2.02 133.3 2 C 142.7 2 149 7.9 149 16.4 C 149 25.5 142.6 31.3 133.3 31.3 C 133.3 31.35 122.8 31.3 122.8 31.3 L 122.8 2 Z M 133.4 29.3 C 141.3 29.3 146.7 24.3 146.7 16.8 C 146.7 8.9 141.4 4.1 133 4.1 C 133.04 4.08 125 4.1 125 4.1 L 125 29.3 C 125 29.3 133.39 29.28 133.4 29.3 Z M 156.7 2 L 156.7 31.3 L 154.5 31.3 L 154.5 2 L 156.7 2 Z M 165.3 2 L 187.2 27.8 L 187.2 2 L 189.3 2 L 189.3 31.3 L 187.3 31.3 L 165.5 5.6 L 165.5 31.3 L 163.4 31.3 L 163.4 2 L 165.3 2 Z M 219.6 6.4 C 216.5 4.6 213.1 3.7 209.8 3.7 C 202.5 3.7 197.1 9.2 197.1 16.4 C 197.1 24.4 202.2 29.7 210.1 29.7 C 212.8 29.7 215.2 29.1 218 27.9 C 217.97 27.91 218 19.8 218 19.8 L 211.6 19.8 L 211.6 17.8 L 220.2 17.8 C 220.2 17.8 220.2 29.37 220.2 29.4 C 217.1 30.9 214.1 31.7 210.1 31.7 C 200.2 31.7 194.7 24.9 194.7 16.7 C 194.7 8.3 200.9 1.6 209.9 1.6 C 213.3 1.6 216.2 2.4 219.6 3.9 C 219.6 3.9 219.6 6.4 219.6 6.4 Z M 252.5 2 L 252.5 31.3 L 250.3 31.3 L 250.3 2 L 252.5 2 Z M 285.3 2 L 285.3 29.3 L 299.8 29.3 L 299.8 31.3 L 283.1 31.3 L 283.1 2 L 285.3 2 Z M 319 2 L 319 4 L 305.8 4 L 305.8 15.5 L 318.6 15.5 L 318.6 17.6 L 305.8 17.6 L 305.8 29.3 L 319.4 29.3 L 319.4 31.3 L 303.6 31.3 L 303.6 2 L 319 2 Z M 336.6 1.8 L 349.6 31.3 L 347.3 31.3 L 343 21.6 L 328.7 21.6 L 324.6 31.3 L 322.2 31.3 L 335 1.8 L 336.6 1.8 Z M 329.6 19.6 L 342.1 19.6 L 335.8 5.3 L 329.6 19.6 Z M 353.1 2 C 353.1 2 360.51 2.02 360.5 2 C 366.4 2 369.5 5 369.5 9.6 C 369.5 13.5 367.2 16 363.3 16.8 C 365.3 17.7 366.2 18.6 368.2 21.6 C 368.16 21.59 374.4 31.3 374.4 31.3 L 371.7 31.3 C 371.7 31.3 366.06 22.36 366.1 22.4 C 363.6 18.4 361.8 17.5 358.9 17.5 C 358.92 17.5 355.3 17.5 355.3 17.5 L 355.3 31.3 L 353.1 31.3 L 353.1 2 Z M 358.7 15.4 C 363.7 15.4 367.1 14.3 367.1 9.6 C 367.1 5.3 364.2 4 359.9 4 C 359.95 4.04 355.3 4 355.3 4 L 355.3 15.4 C 355.3 15.4 358.75 15.44 358.7 15.4 Z M 379.5 2 L 401.4 27.8 L 401.4 2 L 403.5 2 L 403.5 31.3 L 401.5 31.3 L 379.7 5.6 L 379.7 31.3 L 377.6 31.3 L 377.6 2 L 379.5 2 Z M 412.5 2 L 412.5 31.3 L 410.2 31.3 L 410.2 2 L 412.5 2 Z M 421.1 2 L 442.9 27.8 L 442.9 2 L 445.1 2 L 445.1 31.3 L 443.1 31.3 L 421.3 5.6 L 421.3 31.3 L 419.2 31.3 L 419.2 2 L 421.1 2 Z M 475.4 6.4 C 472.3 4.6 468.8 3.7 465.6 3.7 C 458.3 3.7 452.9 9.2 452.9 16.4 C 452.9 24.4 458 29.7 465.9 29.7 C 468.6 29.7 470.9 29.1 473.7 27.9 C 473.73 27.91 473.7 19.8 473.7 19.8 L 467.4 19.8 L 467.4 17.8 L 476 17.8 C 476 17.8 475.96 29.37 476 29.4 C 472.9 30.9 469.8 31.7 465.9 31.7 C 456 31.7 450.5 24.9 450.5 16.7 C 450.5 8.3 456.6 1.6 465.7 1.6 C 469.1 1.6 472 2.4 475.4 3.9 C 475.4 3.9 475.4 6.4 475.4 6.4 Z M 508.3 2 L 508.3 31.3 L 506 31.3 L 506 2 L 508.3 2 Z M 538.9 2 L 541.1 2 L 552 15.7 L 563 2 L 565.1 2 L 565.1 31.3 L 562.9 31.3 L 562.9 5.6 L 562.8 5.6 L 552.2 18.9 L 551.9 18.9 L 541.2 5.6 L 541.1 5.6 L 541.1 31.3 L 538.9 31.3 L 538.9 2 Z M 583 1.8 L 596.1 31.3 L 593.7 31.3 L 589.4 21.6 L 575.2 21.6 L 571 31.3 L 568.6 31.3 L 581.4 1.8 L 583 1.8 Z M 576.1 19.6 L 588.5 19.6 L 582.2 5.3 L 576.1 19.6 Z M 601.5 2 L 623.3 27.8 L 623.3 2 L 625.5 2 L 625.5 31.3 L 623.5 31.3 L 601.7 5.6 L 601.7 31.3 L 599.5 31.3 L 599.5 2 L 601.5 2 Z M 643.4 1.8 L 656.4 31.3 L 654 31.3 L 649.7 21.6 L 635.5 21.6 L 631.3 31.3 L 629 31.3 L 641.8 1.8 L 643.4 1.8 Z M 636.4 19.6 L 648.8 19.6 L 642.5 5.3 L 636.4 19.6 Z M 682.2 6.4 C 679 4.6 675.6 3.7 672.3 3.7 C 665.1 3.7 659.7 9.2 659.7 16.4 C 659.7 24.4 664.8 29.7 672.7 29.7 C 675.4 29.7 677.7 29.1 680.5 27.9 C 680.51 27.91 680.5 19.8 680.5 19.8 L 674.2 19.8 L 674.2 17.8 L 682.7 17.8 C 682.7 17.8 682.75 29.37 682.7 29.4 C 679.7 30.9 676.6 31.7 672.6 31.7 C 662.8 31.7 657.3 24.9 657.3 16.7 C 657.3 8.3 663.4 1.6 672.5 1.6 C 675.9 1.6 678.8 2.4 682.2 3.9 C 682.2 3.9 682.2 6.4 682.2 6.4 Z M 704.3 2 L 704.3 4 L 691.1 4 L 691.1 15.5 L 703.9 15.5 L 703.9 17.6 L 691.1 17.6 L 691.1 29.3 L 704.7 29.3 L 704.7 31.3 L 688.9 31.3 L 688.9 2 L 704.3 2 Z M 709.7 2 C 709.7 2 720.11 2.02 720.1 2 C 729.5 2 735.9 7.9 735.9 16.4 C 735.9 25.5 729.5 31.3 720.2 31.3 C 720.16 31.35 709.7 31.3 709.7 31.3 L 709.7 2 Z M 720.2 29.3 C 728.2 29.3 733.5 24.3 733.5 16.8 C 733.5 8.9 728.2 4.1 719.9 4.1 C 719.9 4.08 711.9 4.1 711.9 4.1 L 711.9 29.3 C 711.9 29.3 720.24 29.28 720.2 29.3 Z M 766.2 3.4 C 766.2 3.4 766.2 5.9 766.2 5.9 C 764.2 4.4 762 3.7 759.9 3.7 C 756.3 3.7 754 5.8 754 8.8 C 754 11.1 754.6 13 759.8 15.4 C 765.7 18 767.3 20.2 767.3 24.2 C 767.3 28.6 764 31.7 759.1 31.7 C 756.4 31.7 753.9 30.9 751.8 29.3 C 751.8 29.3 751.8 26.5 751.8 26.5 C 754.1 28.6 756.4 29.7 759.1 29.7 C 762.6 29.7 765 27.6 765 24.2 C 765 21.2 763.9 19.7 758.4 17.1 C 753.5 14.8 751.7 12.7 751.7 8.9 C 751.7 4.7 755.1 1.6 759.9 1.6 C 762.1 1.6 764.3 2.2 766.2 3.4 Z M 787.7 2 L 787.7 4 L 774.5 4 L 774.5 15.5 L 787.3 15.5 L 787.3 17.6 L 774.5 17.6 L 774.5 29.3 L 788.1 29.3 L 788.1 31.3 L 772.3 31.3 L 772.3 2 L 787.7 2 Z M 793 2 C 793 2 800.43 2.02 800.4 2 C 806.3 2 809.4 5 809.4 9.6 C 809.4 13.5 807.1 16 803.2 16.8 C 805.2 17.7 806.2 18.6 808.1 21.6 C 808.09 21.59 814.3 31.3 814.3 31.3 L 811.6 31.3 C 811.6 31.3 805.98 22.36 806 22.4 C 803.5 18.4 801.8 17.5 798.8 17.5 C 798.84 17.5 795.3 17.5 795.3 17.5 L 795.3 31.3 L 793 31.3 L 793 2 Z M 798.7 15.4 C 803.7 15.4 807.1 14.3 807.1 9.6 C 807.1 5.3 804.1 4 799.9 4 C 799.88 4.04 795.3 4 795.3 4 L 795.3 15.4 C 795.3 15.4 798.67 15.44 798.7 15.4 Z M 812.8 2 L 815.1 2 L 825.4 27 L 825.4 27 L 835.7 2 L 837.9 2 L 825.6 31.8 L 825.2 31.8 L 812.8 2 Z M 843.6 2 L 843.6 31.3 L 841.4 31.3 L 841.4 2 L 843.6 2 Z M 873.9 3.9 C 873.9 3.9 873.9 6.4 873.9 6.4 C 870.9 4.7 867.6 3.7 864.2 3.7 C 856.5 3.7 851.4 9.5 851.4 16.7 C 851.4 24 856.5 29.6 864.2 29.6 C 867.7 29.6 871 28.7 874 26.8 C 874 26.8 874 29.4 874 29.4 C 871 31 867.8 31.7 864.2 31.7 C 854.7 31.7 849.1 24.7 849.1 16.9 C 849.1 8.1 855.4 1.6 864.2 1.6 C 867.6 1.6 870.9 2.5 873.9 3.9 Z M 894.5 2 L 894.5 4 L 881.3 4 L 881.3 15.5 L 894.1 15.5 L 894.1 17.6 L 881.3 17.6 L 881.3 29.3 L 894.9 29.3 L 894.9 31.3 L 879 31.3 L 879 2 L 894.5 2 Z M 912.7 3.4 C 912.7 3.4 912.7 5.9 912.7 5.9 C 910.7 4.4 908.6 3.7 906.4 3.7 C 902.9 3.7 900.5 5.8 900.5 8.8 C 900.5 11.1 901.1 13 906.4 15.4 C 912.3 18 913.9 20.2 913.9 24.2 C 913.9 28.6 910.6 31.7 905.6 31.7 C 902.9 31.7 900.5 30.9 898.3 29.3 C 898.3 29.3 898.3 26.5 898.3 26.5 C 900.6 28.6 903 29.7 905.7 29.7 C 909.1 29.7 911.5 27.6 911.5 24.2 C 911.5 21.2 910.5 19.7 905 17.1 C 900.1 14.8 898.2 12.7 898.2 8.9 C 898.2 4.7 901.7 1.6 906.5 1.6 C 908.6 1.6 910.8 2.2 912.7 3.4 Z " stroke="none" fill="#ffffff"/>  </g></svg>