<?xml version="1.0" standalone="no"?><!DOCTYPE svg PUBLIC "-//W3C//DTD SVG 1.1//EN" "http://www.w3.org/Graphics/SVG/1.1/DTD/svg11.dtd"><svg xmlns="http://www.w3.org/2000/svg" version="1.1" width="63px" height="28.5px" viewBox="0 -1 63 28.5" style="top:-1px">  <desc>96%</desc>  <defs/>  <g id="Polygon35907">    <path d="M 20 14.4 C 20 14.4 21.6 14.3 21.6 14.3 C 21.7 14.6 21.8 14.8 21.9 15 C 22.1 15.1 22.3 15.2 22.6 15.2 C 22.9 15.2 23.2 15.1 23.4 14.8 C 23.7 14.4 23.8 13.8 23.9 12.8 C 23.5 13.3 23 13.5 22.3 13.5 C 21.7 13.5 21.1 13.3 20.6 12.7 C 20.1 12.2 19.9 11.5 19.9 10.7 C 19.9 9.8 20.1 9.1 20.6 8.6 C 21.2 8.1 21.8 7.8 22.6 7.8 C 23.5 7.8 24.2 8.1 24.8 8.8 C 25.3 9.5 25.6 10.6 25.6 12.1 C 25.6 13.7 25.3 14.8 24.7 15.5 C 24.1 16.2 23.4 16.6 22.4 16.6 C 21.8 16.6 21.2 16.4 20.8 16 C 20.4 15.7 20.1 15.2 20 14.4 Z M 23.7 10.8 C 23.7 10.3 23.6 9.9 23.4 9.6 C 23.1 9.3 22.9 9.2 22.5 9.2 C 22.2 9.2 22 9.3 21.8 9.5 C 21.6 9.8 21.5 10.2 21.5 10.7 C 21.5 11.3 21.6 11.7 21.8 11.9 C 22 12.2 22.3 12.3 22.6 12.3 C 22.9 12.3 23.2 12.2 23.4 11.9 C 23.6 11.7 23.7 11.3 23.7 10.8 Z M 32.2 9.9 C 32.2 9.9 30.6 10.1 30.6 10.1 C 30.6 9.8 30.5 9.5 30.3 9.4 C 30.2 9.2 30 9.2 29.7 9.2 C 29.4 9.2 29.1 9.3 28.8 9.6 C 28.6 9.9 28.4 10.6 28.4 11.6 C 28.8 11.1 29.3 10.9 29.9 10.9 C 30.6 10.9 31.2 11.1 31.7 11.6 C 32.2 12.2 32.4 12.8 32.4 13.7 C 32.4 14.5 32.1 15.2 31.6 15.8 C 31.1 16.3 30.4 16.6 29.6 16.6 C 28.8 16.6 28.1 16.2 27.5 15.6 C 26.9 14.9 26.7 13.8 26.7 12.3 C 26.7 10.7 27 9.5 27.5 8.8 C 28.1 8.2 28.9 7.8 29.8 7.8 C 30.5 7.8 31 8 31.4 8.4 C 31.8 8.7 32.1 9.2 32.2 9.9 Z M 28.5 13.5 C 28.5 14.1 28.6 14.5 28.9 14.8 C 29.1 15.1 29.4 15.2 29.7 15.2 C 30 15.2 30.3 15.1 30.5 14.9 C 30.7 14.6 30.8 14.2 30.8 13.7 C 30.8 13.1 30.7 12.7 30.5 12.5 C 30.2 12.2 30 12.1 29.6 12.1 C 29.3 12.1 29.1 12.2 28.8 12.4 C 28.6 12.7 28.5 13 28.5 13.5 Z M 33.3 10 C 33.3 9.2 33.5 8.6 33.9 8.2 C 34.2 7.9 34.6 7.7 35.2 7.7 C 35.8 7.7 36.3 7.9 36.6 8.2 C 37 8.6 37.1 9.2 37.1 10 C 37.1 10.7 37 11.3 36.6 11.7 C 36.3 12 35.8 12.2 35.3 12.2 C 34.7 12.2 34.2 12 33.9 11.7 C 33.5 11.3 33.3 10.7 33.3 10 Z M 34.8 8.8 C 34.7 9 34.6 9.4 34.6 9.9 C 34.6 10.5 34.7 10.9 34.8 11.1 C 34.9 11.2 35.1 11.3 35.2 11.3 C 35.4 11.3 35.5 11.2 35.6 11.1 C 35.8 10.9 35.8 10.5 35.8 9.9 C 35.8 9.4 35.8 9 35.6 8.8 C 35.5 8.7 35.4 8.6 35.2 8.6 C 35.1 8.6 34.9 8.7 34.8 8.8 C 34.8 8.8 34.8 8.8 34.8 8.8 Z M 36.5 16.8 L 35.3 16.8 L 39.8 7.7 L 41 7.7 L 36.5 16.8 Z M 39.1 14.5 C 39.1 13.7 39.3 13.2 39.6 12.8 C 40 12.4 40.4 12.2 41 12.2 C 41.6 12.2 42.1 12.4 42.4 12.8 C 42.8 13.2 42.9 13.7 42.9 14.5 C 42.9 15.3 42.8 15.8 42.4 16.2 C 42.1 16.6 41.6 16.8 41.1 16.8 C 40.5 16.8 40 16.6 39.6 16.2 C 39.3 15.8 39.1 15.3 39.1 14.5 Z M 40.6 13.4 C 40.5 13.6 40.4 13.9 40.4 14.5 C 40.4 15.1 40.5 15.4 40.6 15.6 C 40.7 15.8 40.8 15.8 41 15.8 C 41.2 15.8 41.3 15.8 41.4 15.6 C 41.6 15.4 41.6 15.1 41.6 14.5 C 41.6 13.9 41.6 13.6 41.4 13.4 C 41.3 13.2 41.2 13.2 41 13.2 C 40.8 13.2 40.7 13.2 40.6 13.4 C 40.6 13.4 40.6 13.4 40.6 13.4 Z " stroke="none" fill="#000"/>  </g></svg>