<?xml version="1.0" standalone="no"?><!DOCTYPE svg PUBLIC "-//W3C//DTD SVG 1.1//EN" "http://www.w3.org/Graphics/SVG/1.1/DTD/svg11.dtd"><svg xmlns="http://www.w3.org/2000/svg" version="1.1" width="117.2px" height="103.4px" viewBox="0 -5 117.2 103.4" style="top:-5px">  <desc>Training Supporting Vulnerable Customers</desc>  <defs/>  <g id="Polygon42459">    <path d="M 12.8 73.8 C 12.8 73.8 12.8 75.5 12.8 75.5 C 11.4 74.6 9.8 74.2 8.2 74.2 C 4.7 74.2 2.5 76.8 2.5 79.8 C 2.5 82.8 4.7 85.4 8.2 85.4 C 9.9 85.4 11.4 84.9 12.9 84 C 12.9 84 12.9 85.6 12.9 85.6 C 11.4 86.4 9.8 86.8 8.1 86.8 C 3.4 86.8 0.9 83.2 0.9 79.8 C 0.9 75.8 4.1 72.8 8.2 72.8 C 9.7 72.8 11.3 73.1 12.8 73.8 Z M 16.6 72.9 C 16.6 72.9 16.58 80.8 16.6 80.8 C 16.6 83.8 18 85.4 20.8 85.4 C 23.6 85.4 25 83.8 25 80.8 C 25.02 80.8 25 72.9 25 72.9 L 26.5 72.9 C 26.5 72.9 26.52 80.8 26.5 80.8 C 26.5 84.4 24.6 86.8 20.8 86.8 C 17.1 86.8 15.1 84.6 15.1 80.8 C 15.08 80.8 15.1 72.9 15.1 72.9 L 16.6 72.9 Z M 35.7 73.6 C 35.7 73.6 35.7 75.3 35.7 75.3 C 34.8 74.5 33.8 74.1 32.7 74.1 C 31.2 74.1 30.3 74.9 30.3 76.1 C 30.3 77 30.5 77.8 32.8 78.9 C 35.6 80.4 36.3 81.4 36.3 83.2 C 36.3 85.2 34.7 86.8 32.4 86.8 C 31.1 86.8 29.9 86.3 28.8 85.6 C 28.8 85.6 28.8 83.7 28.8 83.7 C 29.8 84.8 31 85.4 32.4 85.4 C 33.7 85.4 34.7 84.6 34.7 83.2 C 34.7 82.1 34.4 81.4 31.7 80 C 29.6 78.9 28.8 77.9 28.8 76.1 C 28.8 74.2 30.4 72.8 32.7 72.8 C 33.8 72.8 34.8 73.1 35.7 73.6 Z M 48.6 72.9 L 48.6 74.3 L 43.7 74.3 L 43.7 86.6 L 42.2 86.6 L 42.2 74.3 L 37.4 74.3 L 37.4 72.9 L 48.6 72.9 Z M 63.3 79.7 C 63.3 83.5 60.5 86.8 56 86.8 C 51.8 86.8 48.9 83.5 48.9 79.8 C 48.9 76 51.6 72.8 56.1 72.8 C 60.4 72.8 63.3 75.9 63.3 79.7 Z M 50.5 79.8 C 50.5 83 53 85.4 56 85.3 C 60.1 85.3 61.7 82.2 61.7 79.7 C 61.7 77 59.7 74.2 56.1 74.2 C 52.4 74.2 50.5 77 50.5 79.8 Z M 65.8 72.9 L 67.2 72.9 L 72 78.9 L 76.8 72.9 L 78.2 72.9 L 78.2 86.6 L 76.7 86.6 L 76.7 75.3 L 76.7 75.3 L 72.1 81 L 71.9 81 L 67.3 75.3 L 67.3 75.3 L 67.3 86.6 L 65.8 86.6 L 65.8 72.9 Z M 88.8 72.9 L 88.8 74.3 L 82.8 74.3 L 82.8 79 L 88.6 79 L 88.6 80.4 L 82.8 80.4 L 82.8 85.2 L 88.9 85.2 L 88.9 86.6 L 81.3 86.6 L 81.3 72.9 L 88.8 72.9 Z M 91.3 72.9 C 91.3 72.9 94.92 72.94 94.9 72.9 C 97.7 72.9 99.1 74.5 99.1 76.6 C 99.1 78.3 98.2 79.5 96.5 80 C 97.4 80.4 97.8 80.8 98.9 82.5 C 98.9 82.5 101.5 86.6 101.5 86.6 L 99.8 86.6 C 99.8 86.6 97.36 82.82 97.4 82.8 C 96.1 80.8 95.3 80.4 94.1 80.4 C 94.1 80.38 92.8 80.4 92.8 80.4 L 92.8 86.6 L 91.3 86.6 L 91.3 72.9 Z M 94.2 79.1 C 96.1 79.1 97.5 78.6 97.5 76.6 C 97.5 74.9 96.5 74.3 94.7 74.3 C 94.72 74.26 92.8 74.3 92.8 74.3 L 92.8 79.1 C 92.8 79.1 94.24 79.06 94.2 79.1 Z M 109.7 73.6 C 109.7 73.6 109.7 75.3 109.7 75.3 C 108.7 74.5 107.7 74.1 106.6 74.1 C 105.2 74.1 104.2 74.9 104.2 76.1 C 104.2 77 104.4 77.8 106.7 78.9 C 109.5 80.4 110.2 81.4 110.2 83.2 C 110.2 85.2 108.6 86.8 106.3 86.8 C 105 86.8 103.8 86.3 102.8 85.6 C 102.8 85.6 102.8 83.7 102.8 83.7 C 103.8 84.8 105 85.4 106.3 85.4 C 107.7 85.4 108.7 84.6 108.7 83.2 C 108.7 82.1 108.3 81.4 105.7 80 C 103.5 78.9 102.7 77.9 102.7 76.1 C 102.7 74.2 104.4 72.8 106.6 72.8 C 107.7 72.8 108.8 73.1 109.7 73.6 Z " stroke="none" fill="#000000"/>  </g>  <g id="Polygon42458">    <path d="M 0 48.9 L 1.5 48.9 L 6 59.6 L 6 59.6 L 10.4 48.9 L 11.9 48.9 L 6.2 62.7 L 5.8 62.7 L 0 48.9 Z M 14.8 48.9 C 14.8 48.9 14.8 56.8 14.8 56.8 C 14.8 59.8 16.2 61.4 19 61.4 C 21.9 61.4 23.2 59.8 23.2 56.8 C 23.24 56.8 23.2 48.9 23.2 48.9 L 24.7 48.9 C 24.7 48.9 24.74 56.8 24.7 56.8 C 24.7 60.4 22.8 62.8 19.1 62.8 C 15.3 62.8 13.3 60.6 13.3 56.8 C 13.3 56.8 13.3 48.9 13.3 48.9 L 14.8 48.9 Z M 29.1 48.9 L 29.1 61.2 L 35.6 61.2 L 35.6 62.6 L 27.6 62.6 L 27.6 48.9 L 29.1 48.9 Z M 38.5 48.9 L 48.2 60.2 L 48.2 48.9 L 49.6 48.9 L 49.6 62.6 L 48.3 62.6 L 38.7 51.3 L 38.7 62.6 L 37.3 62.6 L 37.3 48.9 L 38.5 48.9 Z M 60.2 48.9 L 60.2 50.3 L 54.2 50.3 L 54.2 55 L 60 55 L 60 56.4 L 54.2 56.4 L 54.2 61.2 L 60.3 61.2 L 60.3 62.6 L 52.7 62.6 L 52.7 48.9 L 60.2 48.9 Z M 62.7 48.9 C 62.7 48.9 66.32 48.94 66.3 48.9 C 69.1 48.9 70.5 50.5 70.5 52.6 C 70.5 54.3 69.6 55.5 67.9 56 C 68.8 56.4 69.2 56.8 70.3 58.5 C 70.3 58.5 72.9 62.6 72.9 62.6 L 71.2 62.6 C 71.2 62.6 68.76 58.82 68.8 58.8 C 67.5 56.8 66.7 56.4 65.5 56.4 C 65.5 56.38 64.2 56.4 64.2 56.4 L 64.2 62.6 L 62.7 62.6 L 62.7 48.9 Z M 65.6 55.1 C 67.5 55.1 68.9 54.6 68.9 52.6 C 68.9 50.9 67.9 50.3 66.1 50.3 C 66.12 50.26 64.2 50.3 64.2 50.3 L 64.2 55.1 C 64.2 55.1 65.64 55.06 65.6 55.1 Z M 79.9 48.9 L 86 62.6 L 84.4 62.6 L 82.5 58.3 L 76.3 58.3 L 74.5 62.6 L 72.9 62.6 L 78.8 48.9 L 79.9 48.9 Z M 76.9 57 L 81.9 57 L 79.3 51.2 L 76.9 57 Z M 91.1 48.9 C 93.6 48.9 95.3 50.2 95.3 52.4 C 95.3 53.9 94.5 54.9 93 55.4 C 95.1 55.7 96.4 57.1 96.4 58.9 C 96.4 61.4 94.2 62.6 91.7 62.6 C 91.7 62.58 87.5 62.6 87.5 62.6 L 87.5 48.9 C 87.5 48.9 91.06 48.94 91.1 48.9 Z M 89 55 C 89 55 90.52 55 90.5 55 C 92.8 55 93.7 54 93.7 52.6 C 93.7 51 92.8 50.3 90.8 50.3 C 90.76 50.26 89 50.3 89 50.3 L 89 55 Z M 91.4 61.3 C 93.6 61.3 94.9 60.5 94.9 58.8 C 94.9 57.2 93.8 56.3 91.2 56.3 C 91.2 56.3 89 56.3 89 56.3 L 89 61.3 C 89 61.3 91.42 61.26 91.4 61.3 Z M 100.2 48.9 L 100.2 61.2 L 106.6 61.2 L 106.6 62.6 L 98.7 62.6 L 98.7 48.9 L 100.2 48.9 Z M 115.8 48.9 L 115.8 50.3 L 109.8 50.3 L 109.8 55 L 115.6 55 L 115.6 56.4 L 109.8 56.4 L 109.8 61.2 L 116 61.2 L 116 62.6 L 108.3 62.6 L 108.3 48.9 L 115.8 48.9 Z " stroke="none" fill="#000000"/>  </g>  <g id="Polygon42457">    <path d="M 7.9 25.6 C 7.9 25.6 7.9 27.3 7.9 27.3 C 6.9 26.5 5.9 26.1 4.8 26.1 C 3.3 26.1 2.4 26.9 2.4 28.1 C 2.4 29 2.6 29.8 4.9 30.9 C 7.7 32.4 8.4 33.4 8.4 35.2 C 8.4 37.2 6.8 38.8 4.5 38.8 C 3.2 38.8 2 38.3 0.9 37.6 C 0.9 37.6 0.9 35.7 0.9 35.7 C 2 36.8 3.2 37.4 4.5 37.4 C 5.9 37.4 6.9 36.6 6.9 35.2 C 6.9 34.1 6.5 33.4 3.8 32 C 1.7 30.9 0.9 29.9 0.9 28.1 C 0.9 26.2 2.5 24.8 4.8 24.8 C 5.9 24.8 6.9 25.1 7.9 25.6 Z M 12 24.9 C 12 24.9 12.04 32.8 12 32.8 C 12 35.8 13.5 37.4 16.3 37.4 C 19.1 37.4 20.5 35.8 20.5 32.8 C 20.48 32.8 20.5 24.9 20.5 24.9 L 22 24.9 C 22 24.9 21.98 32.8 22 32.8 C 22 36.4 20.1 38.8 16.3 38.8 C 12.5 38.8 10.5 36.6 10.5 32.8 C 10.54 32.8 10.5 24.9 10.5 24.9 L 12 24.9 Z M 28.8 24.9 C 31.5 24.9 33.1 26.3 33.1 28.7 C 33.1 31.2 31.4 32.4 28.5 32.4 C 28.5 32.44 26.4 32.4 26.4 32.4 L 26.4 38.6 L 24.9 38.6 L 24.9 24.9 C 24.9 24.9 28.76 24.94 28.8 24.9 Z M 26.4 31.1 C 26.4 31.1 28.46 31.12 28.5 31.1 C 30.8 31.1 31.6 30.2 31.6 28.7 C 31.6 27.1 30.7 26.3 28.5 26.3 C 28.46 26.26 26.4 26.3 26.4 26.3 L 26.4 31.1 Z M 39.1 24.9 C 41.9 24.9 43.5 26.3 43.5 28.7 C 43.5 31.2 41.8 32.4 38.9 32.4 C 38.88 32.44 36.8 32.4 36.8 32.4 L 36.8 38.6 L 35.3 38.6 L 35.3 24.9 C 35.3 24.9 39.14 24.94 39.1 24.9 Z M 36.8 31.1 C 36.8 31.1 38.84 31.12 38.8 31.1 C 41.1 31.1 42 30.2 42 28.7 C 42 27.1 41.1 26.3 38.8 26.3 C 38.84 26.26 36.8 26.3 36.8 26.3 L 36.8 31.1 Z M 59.4 31.7 C 59.4 35.5 56.6 38.8 52.1 38.8 C 47.9 38.8 45 35.5 45 31.8 C 45 28 47.8 24.8 52.2 24.8 C 56.5 24.8 59.4 27.9 59.4 31.7 Z M 46.6 31.8 C 46.6 35 49.1 37.4 52.1 37.3 C 56.2 37.3 57.9 34.2 57.9 31.7 C 57.9 29 55.8 26.2 52.3 26.2 C 48.5 26.2 46.6 29 46.6 31.8 Z M 61.9 24.9 C 61.9 24.9 65.46 24.94 65.5 24.9 C 68.2 24.9 69.6 26.5 69.6 28.6 C 69.6 30.3 68.7 31.5 67 32 C 67.9 32.4 68.3 32.8 69.4 34.5 C 69.44 34.5 72.1 38.6 72.1 38.6 L 70.3 38.6 C 70.3 38.6 67.9 34.82 67.9 34.8 C 66.6 32.8 65.8 32.4 64.6 32.4 C 64.64 32.38 63.4 32.4 63.4 32.4 L 63.4 38.6 L 61.9 38.6 L 61.9 24.9 Z M 64.8 31.1 C 66.7 31.1 68.1 30.6 68.1 28.6 C 68.1 26.9 67 26.3 65.3 26.3 C 65.26 26.26 63.4 26.3 63.4 26.3 L 63.4 31.1 C 63.4 31.1 64.78 31.06 64.8 31.1 Z M 82.5 24.9 L 82.5 26.3 L 77.6 26.3 L 77.6 38.6 L 76.1 38.6 L 76.1 26.3 L 71.3 26.3 L 71.3 24.9 L 82.5 24.9 Z M 85.9 24.9 L 85.9 38.6 L 84.4 38.6 L 84.4 24.9 L 85.9 24.9 Z M 90.2 24.9 L 99.8 36.2 L 99.8 24.9 L 101.3 24.9 L 101.3 38.6 L 99.9 38.6 L 90.4 27.3 L 90.4 38.6 L 88.9 38.6 L 88.9 24.9 L 90.2 24.9 Z M 115.6 27.4 C 114.1 26.6 112.4 26.1 110.9 26.1 C 107.7 26.1 105.3 28.5 105.3 31.7 C 105.3 35.1 107.6 37.4 111 37.4 C 112.1 37.4 113 37.2 114.4 36.7 C 114.36 36.72 114.4 33.4 114.4 33.4 L 111.6 33.4 L 111.6 32.1 L 115.9 32.1 C 115.9 32.1 115.86 37.64 115.9 37.6 C 114.3 38.4 112.8 38.8 111 38.8 C 106.1 38.8 103.7 35.3 103.7 31.8 C 103.7 28 106.6 24.8 110.9 24.8 C 112.5 24.8 113.8 25.1 115.6 25.9 C 115.6 25.9 115.6 27.4 115.6 27.4 Z " stroke="none" fill="#000000"/>  </g>  <g id="Polygon42456">    <path d="M 8.6 4.3 L 8.6 5.3 L 5 5.3 L 5 14.6 L 3.8 14.6 L 3.8 5.3 L 0.2 5.3 L 0.2 4.3 L 8.6 4.3 Z M 10 4.3 C 10 4.3 12.69 4.35 12.7 4.3 C 14.7 4.3 15.8 5.5 15.8 7.1 C 15.8 8.4 15.1 9.2 13.9 9.6 C 14.5 10 14.8 10.2 15.7 11.5 C 15.67 11.52 17.7 14.6 17.7 14.6 L 16.3 14.6 C 16.3 14.6 14.52 11.76 14.5 11.8 C 13.6 10.3 12.9 9.9 12.1 9.9 C 12.07 9.93 11.1 9.9 11.1 9.9 L 11.1 14.6 L 10 14.6 L 10 4.3 Z M 12.2 8.9 C 13.6 8.9 14.7 8.6 14.7 7.1 C 14.7 5.8 13.8 5.3 12.5 5.3 C 12.54 5.34 11.1 5.3 11.1 5.3 L 11.1 8.9 C 11.1 8.9 12.18 8.94 12.2 8.9 Z M 22.9 4.3 L 27.4 14.6 L 26.3 14.6 L 24.8 11.4 L 20.2 11.4 L 18.8 14.6 L 17.7 14.6 L 22.1 4.3 L 22.9 4.3 Z M 20.6 10.4 L 24.4 10.4 L 22.5 6 L 20.6 10.4 Z M 29.7 4.3 L 29.7 14.6 L 28.6 14.6 L 28.6 4.3 L 29.7 4.3 Z M 33 4.3 L 40.2 12.8 L 40.2 4.3 L 41.3 4.3 L 41.3 14.6 L 40.3 14.6 L 33.1 6.1 L 33.1 14.6 L 32 14.6 L 32 4.3 L 33 4.3 Z M 44.7 4.3 L 44.7 14.6 L 43.6 14.6 L 43.6 4.3 L 44.7 4.3 Z M 47.9 4.3 L 55.2 12.8 L 55.2 4.3 L 56.2 4.3 L 56.2 14.6 L 55.3 14.6 L 48.1 6.1 L 48.1 14.6 L 47 14.6 L 47 4.3 L 47.9 4.3 Z M 67 6.2 C 65.9 5.6 64.6 5.2 63.5 5.2 C 61.1 5.2 59.3 7 59.3 9.4 C 59.3 11.9 61 13.7 63.6 13.7 C 64.4 13.7 65 13.6 66.1 13.2 C 66.07 13.18 66.1 10.7 66.1 10.7 L 64 10.7 L 64 9.7 L 67.2 9.7 C 67.2 9.7 67.2 13.87 67.2 13.9 C 66 14.4 64.9 14.7 63.6 14.7 C 59.9 14.7 58.1 12.1 58.1 9.5 C 58.1 6.6 60.2 4.2 63.5 4.2 C 64.7 4.2 65.6 4.5 67 5.1 C 67 5.1 67 6.2 67 6.2 Z " stroke="none" fill="#f28620"/>  </g></svg>