<?xml version="1.0" standalone="no"?><!DOCTYPE svg PUBLIC "-//W3C//DTD SVG 1.1//EN" "http://www.w3.org/Graphics/SVG/1.1/DTD/svg11.dtd"><svg xmlns="http://www.w3.org/2000/svg" version="1.1" width="797px" height="91.3px" viewBox="0 -15 797 91.3" style="top:-15px">  <desc>Introduction to DSW</desc>  <defs/>  <g id="Polygon4909">    <path d="M 12.4 2.8 L 12.4 43.7 L 4.4 43.7 L 4.4 2.8 L 12.4 2.8 Z M 28 2.8 L 53.4 31.7 L 53.4 2.8 L 61.1 2.8 L 61.1 43.7 L 54.2 43.7 L 29 15.1 L 29 43.7 L 21.2 43.7 L 21.2 2.8 L 28 2.8 Z M 103.3 2.8 L 103.3 9.5 L 88.9 9.5 L 88.9 43.7 L 80.9 43.7 L 80.9 9.5 L 66.6 9.5 L 66.6 2.8 L 103.3 2.8 Z M 122.7 2.8 C 131.6 2.8 136.1 8.1 136.1 14.6 C 136.1 19.3 133.9 22.9 129.4 24.8 C 131.9 26.3 133.2 27.7 136.5 33.1 C 136.5 33.12 142.8 43.7 142.8 43.7 L 133.9 43.7 C 133.9 43.7 128.22 34.02 128.2 34 C 124.6 27.7 122.2 26.5 119 26.5 C 118.98 26.52 116.7 26.5 116.7 26.5 L 116.7 43.7 L 108.8 43.7 L 108.8 2.8 C 108.8 2.8 122.7 2.82 122.7 2.8 Z M 116.7 20.7 C 116.7 20.7 120.72 20.7 120.7 20.7 C 124.9 20.7 128.1 19.6 128.1 14.7 C 128.1 11 125.9 8.8 121.5 8.8 C 121.5 8.82 116.7 8.8 116.7 8.8 L 116.7 20.7 Z M 189.1 23.2 C 189.1 34.4 180.9 44.3 166.5 44.3 C 152.7 44.3 144.4 34.5 144.4 23.3 C 144.4 13 151.7 2.3 166.7 2.3 C 180.2 2.3 189.1 11.6 189.1 23.2 Z M 152.5 23.3 C 152.5 31.5 158.8 37.1 166.6 37.1 C 174.6 37.1 181 32.3 181 23.2 C 181 16.4 176 9.4 166.8 9.4 C 157.9 9.4 152.5 15.4 152.5 23.3 Z M 212.5 2.8 C 226.9 2.8 235.1 11.3 235.1 23 C 235.1 35.7 226.6 43.7 212.8 43.7 C 212.76 43.74 196.1 43.7 196.1 43.7 L 196.1 2.8 C 196.1 2.8 212.52 2.82 212.5 2.8 Z M 212.2 37.4 C 221.8 37.4 227 32.3 227 23.2 C 227 14.5 221.8 9 211.6 9 C 211.56 9 204.1 9 204.1 9 L 204.1 37.4 C 204.1 37.4 212.16 37.44 212.2 37.4 Z M 249.6 2.8 C 249.6 2.8 249.6 25.8 249.6 25.8 C 249.6 33.8 253.3 37.4 260.6 37.4 C 267.7 37.4 271.4 34 271.4 25.9 C 271.38 25.86 271.4 2.8 271.4 2.8 L 279.3 2.8 C 279.3 2.8 279.3 25.98 279.3 26 C 279.3 37.6 272.8 44.3 260.6 44.3 C 248.4 44.3 241.7 37.9 241.7 26.1 C 241.68 26.1 241.7 2.8 241.7 2.8 L 249.6 2.8 Z M 323.2 5.5 C 323.2 5.5 323.2 13.3 323.2 13.3 C 318.7 10.6 314.1 9.1 309.2 9.1 C 299.6 9.1 294.1 16 294.1 23.4 C 294.1 30.9 299.6 37.5 309.1 37.5 C 314.3 37.5 319 35.9 323.5 33 C 323.5 33 323.5 40.7 323.5 40.7 C 318.8 43.2 313.7 44.3 308.2 44.3 C 293.5 44.3 285.9 33.9 285.9 23.3 C 285.9 10.9 295.7 2.3 308.3 2.3 C 313 2.3 317.9 3.3 323.2 5.5 Z M 364.5 2.8 L 364.5 9.5 L 350 9.5 L 350 43.7 L 342.1 43.7 L 342.1 9.5 L 327.8 9.5 L 327.8 2.8 L 364.5 2.8 Z M 377.9 2.8 L 377.9 43.7 L 370 43.7 L 370 2.8 L 377.9 2.8 Z M 429.6 23.2 C 429.6 34.4 421.4 44.3 407 44.3 C 393.2 44.3 385 34.5 385 23.3 C 385 13 392.2 2.3 407.3 2.3 C 420.8 2.3 429.6 11.6 429.6 23.2 Z M 393.1 23.3 C 393.1 31.5 399.3 37.1 407.1 37.1 C 415.1 37.1 421.5 32.3 421.5 23.2 C 421.5 16.4 416.6 9.4 407.3 9.4 C 398.4 9.4 393.1 15.4 393.1 23.3 Z M 443.5 2.8 L 468.8 31.7 L 468.8 2.8 L 476.6 2.8 L 476.6 43.7 L 469.6 43.7 L 444.4 15.1 L 444.4 43.7 L 436.7 43.7 L 436.7 2.8 L 443.5 2.8 Z M 535.8 2.8 L 535.8 9.5 L 521.3 9.5 L 521.3 43.7 L 513.4 43.7 L 513.4 9.5 L 499.1 9.5 L 499.1 2.8 L 535.8 2.8 Z M 581.6 23.2 C 581.6 34.4 573.4 44.3 559 44.3 C 545.2 44.3 536.9 34.5 536.9 23.3 C 536.9 13 544.2 2.3 559.3 2.3 C 572.8 2.3 581.6 11.6 581.6 23.2 Z M 545 23.3 C 545 31.5 551.3 37.1 559.1 37.1 C 567.1 37.1 573.5 32.3 573.5 23.2 C 573.5 16.4 568.6 9.4 559.3 9.4 C 550.4 9.4 545 15.4 545 23.3 Z M 622.1 2.8 C 636.5 2.8 644.6 11.3 644.6 23 C 644.6 35.7 636.2 43.7 622.3 43.7 C 622.31 43.74 605.7 43.7 605.7 43.7 L 605.7 2.8 C 605.7 2.8 622.07 2.82 622.1 2.8 Z M 621.7 37.4 C 631.3 37.4 636.5 32.3 636.5 23.2 C 636.5 14.5 631.4 9 621.1 9 C 621.11 9 613.6 9 613.6 9 L 613.6 37.4 C 613.6 37.4 621.71 37.44 621.7 37.4 Z M 673.8 5.3 C 673.8 5.3 673.8 13 673.8 13 C 670.6 10.1 667.1 8.6 663.4 8.6 C 659.9 8.6 658 10.3 658 12.8 C 658 14.9 658.7 16.6 664.4 19.7 C 672.2 23.9 675.5 26.9 675.5 33.1 C 675.5 39.6 670.2 44.3 662.5 44.3 C 658.3 44.3 654.1 43 650.4 40.7 C 650.4 40.7 650.4 32.4 650.4 32.4 C 654 36.1 657.9 37.9 661.9 37.9 C 665.4 37.9 667.6 35.9 667.6 33.3 C 667.6 30.8 666.8 29.2 659.3 25.2 C 654.1 22.2 650.2 19 650.2 13 C 650.2 7 655.1 2.3 663.1 2.3 C 667 2.3 670.8 3.4 673.8 5.3 Z M 685.4 2.8 L 695.8 29.2 L 706.6 2.8 L 713.2 2.8 L 724 29.2 L 734.3 2.8 L 742.3 2.8 L 725.5 44.1 L 722.3 44.1 L 709.9 13.7 L 697.2 44.1 L 694.1 44.1 L 677.3 2.8 L 685.4 2.8 Z " stroke="none" fill="#ffffff"/>  </g></svg>