<?xml version="1.0" standalone="no"?><!DOCTYPE svg PUBLIC "-//W3C//DTD SVG 1.1//EN" "http://www.w3.org/Graphics/SVG/1.1/DTD/svg11.dtd"><svg xmlns="http://www.w3.org/2000/svg" version="1.1" width="41.4px" height="20.5px" viewBox="0 -4 41.4 20.5" style="top:-4px">  <desc>100 0</desc>  <defs/>  <g id="Polygon36882">    <path d="M 0.4 6.2 L 0.4 5.1 L 3.6 5.1 L 3.6 6.2 L 0.4 6.2 Z M 8.5 8.7 L 7.4 8.7 C 7.4 8.7 7.41 2.02 7.4 2 C 7.2 2.3 6.8 2.5 6.4 2.7 C 6 3 5.6 3.2 5.3 3.3 C 5.3 3.3 5.3 2.3 5.3 2.3 C 5.9 2 6.4 1.7 6.8 1.3 C 7.3 0.9 7.6 0.5 7.8 0.1 C 7.79 0.11 8.5 0.1 8.5 0.1 L 8.5 8.7 Z M 12 8 C 11.5 7.3 11.2 6.1 11.2 4.5 C 11.2 3.5 11.3 2.7 11.5 2 C 11.7 1.4 12 1 12.4 0.6 C 12.8 0.3 13.3 0.1 14 0.1 C 14.4 0.1 14.8 0.2 15.2 0.4 C 15.5 0.6 15.8 0.8 16 1.2 C 16.3 1.5 16.4 2 16.6 2.5 C 16.7 3 16.8 3.6 16.8 4.5 C 16.8 5.5 16.7 6.3 16.5 6.9 C 16.3 7.6 15.9 8 15.5 8.4 C 15.1 8.7 14.6 8.9 14 8.9 C 13.1 8.9 12.5 8.6 12 8 C 12 8 12 8 12 8 Z M 12.8 1.6 C 12.4 2.1 12.3 3.1 12.3 4.5 C 12.3 5.9 12.4 6.8 12.7 7.3 C 13.1 7.8 13.5 8 14 8 C 14.5 8 14.9 7.8 15.2 7.3 C 15.5 6.8 15.7 5.9 15.7 4.5 C 15.7 3.1 15.5 2.1 15.2 1.7 C 14.9 1.2 14.4 1 14 1 C 13.5 1 13.1 1.2 12.8 1.6 C 12.8 1.6 12.8 1.6 12.8 1.6 Z M 18.7 8 C 18.1 7.3 17.8 6.1 17.8 4.5 C 17.8 3.5 17.9 2.7 18.2 2 C 18.4 1.4 18.7 1 19.1 0.6 C 19.5 0.3 20 0.1 20.6 0.1 C 21.1 0.1 21.5 0.2 21.9 0.4 C 22.2 0.6 22.5 0.8 22.7 1.2 C 22.9 1.5 23.1 2 23.3 2.5 C 23.4 3 23.4 3.6 23.4 4.5 C 23.4 5.5 23.3 6.3 23.1 6.9 C 22.9 7.6 22.6 8 22.2 8.4 C 21.8 8.7 21.3 8.9 20.6 8.9 C 19.8 8.9 19.2 8.6 18.7 8 C 18.7 8 18.7 8 18.7 8 Z M 19.5 1.6 C 19.1 2.1 18.9 3.1 18.9 4.5 C 18.9 5.9 19.1 6.8 19.4 7.3 C 19.8 7.8 20.2 8 20.6 8 C 21.1 8 21.5 7.8 21.9 7.3 C 22.2 6.8 22.4 5.9 22.4 4.5 C 22.4 3.1 22.2 2.1 21.9 1.7 C 21.5 1.2 21.1 1 20.6 1 C 20.1 1 19.8 1.2 19.5 1.6 C 19.5 1.6 19.5 1.6 19.5 1.6 Z M 27.7 6.2 L 27.7 5.1 L 31 5.1 L 31 6.2 L 27.7 6.2 Z M 36 8 C 35.5 7.3 35.2 6.1 35.2 4.5 C 35.2 3.5 35.3 2.7 35.5 2 C 35.7 1.4 36 1 36.4 0.6 C 36.8 0.3 37.4 0.1 38 0.1 C 38.4 0.1 38.8 0.2 39.2 0.4 C 39.5 0.6 39.8 0.8 40.1 1.2 C 40.3 1.5 40.5 2 40.6 2.5 C 40.7 3 40.8 3.6 40.8 4.5 C 40.8 5.5 40.7 6.3 40.5 6.9 C 40.3 7.6 40 8 39.5 8.4 C 39.1 8.7 38.6 8.9 38 8.9 C 37.2 8.9 36.5 8.6 36 8 C 36 8 36 8 36 8 Z M 36.8 1.6 C 36.4 2.1 36.3 3.1 36.3 4.5 C 36.3 5.9 36.4 6.8 36.8 7.3 C 37.1 7.8 37.5 8 38 8 C 38.5 8 38.9 7.8 39.2 7.3 C 39.5 6.8 39.7 5.9 39.7 4.5 C 39.7 3.1 39.5 2.1 39.2 1.7 C 38.9 1.2 38.5 1 38 1 C 37.5 1 37.1 1.2 36.8 1.6 C 36.8 1.6 36.8 1.6 36.8 1.6 Z " stroke="none" fill="#000"/>  </g></svg>