<?xml version="1.0" standalone="no"?><!DOCTYPE svg PUBLIC "-//W3C//DTD SVG 1.1//EN" "http://www.w3.org/Graphics/SVG/1.1/DTD/svg11.dtd"><svg xmlns="http://www.w3.org/2000/svg" version="1.1" width="356.5px" height="46.1px" viewBox="0 -8 356.5 46.1" style="top:-8px">  <desc>Introduction to DSW</desc>  <defs/>  <g id="Polygon30737">    <path d="M 4.6 1.4 L 4.6 21.9 L 2.3 21.9 L 2.3 1.4 L 4.6 1.4 Z M 11 1.4 L 25.5 18.3 L 25.5 1.4 L 27.7 1.4 L 27.7 21.9 L 25.7 21.9 L 11.3 5 L 11.3 21.9 L 9.1 21.9 L 9.1 1.4 L 11 1.4 Z M 47.2 1.4 L 47.2 3.4 L 39.9 3.4 L 39.9 21.9 L 37.6 21.9 L 37.6 3.4 L 30.4 3.4 L 30.4 1.4 L 47.2 1.4 Z M 49.9 1.4 C 49.9 1.4 55.32 1.41 55.3 1.4 C 59.4 1.4 61.6 3.8 61.6 6.9 C 61.6 9.4 60.2 11.2 57.7 11.9 C 59 12.6 59.6 13.2 61.3 15.7 C 61.29 15.75 65.2 21.9 65.2 21.9 L 62.6 21.9 C 62.6 21.9 58.98 16.23 59 16.2 C 57.1 13.2 55.8 12.6 54.1 12.6 C 54.09 12.57 52.2 12.6 52.2 12.6 L 52.2 21.9 L 49.9 21.9 L 49.9 1.4 Z M 54.3 10.6 C 57.1 10.6 59.2 9.9 59.2 6.9 C 59.2 4.4 57.6 3.4 55 3.4 C 55.02 3.39 52.2 3.4 52.2 3.4 L 52.2 10.6 C 52.2 10.6 54.3 10.59 54.3 10.6 Z M 87.6 11.5 C 87.6 17.3 83.4 22.1 76.6 22.1 C 70.3 22.1 66 17.3 66 11.8 C 66 6.1 70.1 1.1 76.7 1.1 C 83.2 1.1 87.6 5.9 87.6 11.5 Z M 68.3 11.7 C 68.3 16.5 72.1 20 76.6 20 C 82.7 20 85.2 15.3 85.2 11.6 C 85.2 7.5 82.2 3.3 76.8 3.3 C 71.2 3.3 68.3 7.5 68.3 11.7 Z M 91.3 1.4 C 91.3 1.4 98.79 1.41 98.8 1.4 C 105.5 1.4 109.8 5.6 109.8 11.4 C 109.8 17.8 105.3 21.9 98.8 21.9 C 98.79 21.87 91.3 21.9 91.3 21.9 L 91.3 1.4 Z M 98.8 19.8 C 104.1 19.8 107.5 16.6 107.5 11.6 C 107.5 6.7 104.2 3.4 98.4 3.4 C 98.43 3.42 93.5 3.4 93.5 3.4 L 93.5 19.8 C 93.5 19.8 98.76 19.83 98.8 19.8 Z M 115.5 1.4 C 115.5 1.4 115.53 13.2 115.5 13.2 C 115.5 17.7 117.7 20.1 121.9 20.1 C 126.1 20.1 128.2 17.6 128.2 13.2 C 128.19 13.2 128.2 1.4 128.2 1.4 L 130.4 1.4 C 130.4 1.4 130.44 13.2 130.4 13.2 C 130.4 18.6 127.6 22.1 121.9 22.1 C 116.3 22.1 113.3 18.9 113.3 13.2 C 113.28 13.2 113.3 1.4 113.3 1.4 L 115.5 1.4 Z M 151.7 2.8 C 151.7 2.8 151.7 5.2 151.7 5.2 C 149.5 4 147.1 3.2 144.7 3.2 C 139.5 3.2 136.2 7.2 136.2 11.7 C 136.2 16.3 139.5 20 144.7 20 C 147.3 20 149.6 19.3 151.8 17.9 C 151.8 17.9 151.8 20.4 151.8 20.4 C 149.5 21.6 147.2 22.1 144.7 22.1 C 137.6 22.1 133.9 16.8 133.9 11.7 C 133.9 5.6 138.6 1.1 144.7 1.1 C 147 1.1 149.4 1.7 151.7 2.8 Z M 170.8 1.4 L 170.8 3.4 L 163.5 3.4 L 163.5 21.9 L 161.2 21.9 L 161.2 3.4 L 154 3.4 L 154 1.4 L 170.8 1.4 Z M 175.8 1.4 L 175.8 21.9 L 173.5 21.9 L 173.5 1.4 L 175.8 1.4 Z M 201.1 11.5 C 201.1 17.3 196.9 22.1 190.1 22.1 C 183.7 22.1 179.5 17.3 179.5 11.8 C 179.5 6.1 183.6 1.1 190.2 1.1 C 196.7 1.1 201.1 5.9 201.1 11.5 Z M 181.8 11.7 C 181.8 16.5 185.5 20 190.1 20 C 196.2 20 198.7 15.3 198.7 11.6 C 198.7 7.5 195.7 3.3 190.3 3.3 C 184.7 3.3 181.8 7.5 181.8 11.7 Z M 206.6 1.4 L 221.1 18.3 L 221.1 1.4 L 223.3 1.4 L 223.3 21.9 L 221.3 21.9 L 206.9 5 L 206.9 21.9 L 204.7 21.9 L 204.7 1.4 L 206.6 1.4 Z M 251.1 1.4 L 251.1 3.4 L 243.8 3.4 L 243.8 21.9 L 241.6 21.9 L 241.6 3.4 L 234.3 3.4 L 234.3 1.4 L 251.1 1.4 Z M 273.2 11.5 C 273.2 17.3 269 22.1 262.3 22.1 C 255.9 22.1 251.7 17.3 251.7 11.8 C 251.7 6.1 255.7 1.1 262.4 1.1 C 268.9 1.1 273.2 5.9 273.2 11.5 Z M 254 11.7 C 254 16.5 257.7 20 262.3 20 C 268.4 20 270.9 15.3 270.9 11.6 C 270.9 7.5 267.8 3.3 262.5 3.3 C 256.9 3.3 254 7.5 254 11.7 Z M 285.3 1.4 C 285.3 1.4 292.8 1.41 292.8 1.4 C 299.5 1.4 303.8 5.6 303.8 11.4 C 303.8 17.8 299.3 21.9 292.8 21.9 C 292.8 21.87 285.3 21.9 285.3 21.9 L 285.3 1.4 Z M 292.8 19.8 C 298.1 19.8 301.5 16.6 301.5 11.6 C 301.5 6.7 298.2 3.4 292.4 3.4 C 292.44 3.42 287.5 3.4 287.5 3.4 L 287.5 19.8 C 287.5 19.8 292.77 19.83 292.8 19.8 Z M 317 2.5 C 317 2.5 317 5 317 5 C 315.6 3.8 314.1 3.2 312.4 3.2 C 310.3 3.2 308.8 4.4 308.8 6.1 C 308.8 7.5 309.2 8.7 312.6 10.4 C 316.8 12.6 317.8 14 317.8 16.8 C 317.8 19.9 315.5 22.1 312 22.1 C 310 22.1 308.2 21.5 306.7 20.3 C 306.7 20.3 306.7 17.5 306.7 17.5 C 308.2 19.2 310 20.1 312 20.1 C 314 20.1 315.5 18.8 315.5 16.9 C 315.5 15.1 315 14.1 311 12 C 307.8 10.4 306.6 8.8 306.6 6.2 C 306.6 3.3 309.1 1.1 312.5 1.1 C 314.1 1.1 315.7 1.6 317 2.5 Z M 318.9 1.4 L 321.2 1.4 L 327.4 17 L 327.4 17 L 333.4 1.4 L 335.5 1.4 L 341.6 16.9 L 341.7 16.9 L 347.7 1.4 L 349.9 1.4 L 341.8 22 L 341.3 22 L 334.4 4.6 L 327.6 22 L 327.1 22 L 318.9 1.4 Z " stroke="none" fill="#ffffff"/>  </g></svg>