<?xml version="1.0" standalone="no"?><!DOCTYPE svg PUBLIC "-//W3C//DTD SVG 1.1//EN" "http://www.w3.org/Graphics/SVG/1.1/DTD/svg11.dtd"><svg xmlns="http://www.w3.org/2000/svg" version="1.1" width="702.1px" height="181.5px" viewBox="0 -1 702.1 181.5" style="top:-1px">  <desc>Client Feedback</desc>  <defs/>  <g id="Polygon6824">    <path d="M 212 69.3 C 212 69.3 212 73.4 212 73.4 C 208.4 71.3 204.5 70.1 200.5 70.1 C 191.7 70.1 186.2 76.7 186.2 84.2 C 186.2 91.8 191.7 98.1 200.4 98.1 C 204.6 98.1 208.6 96.9 212.2 94.6 C 212.2 94.6 212.2 98.8 212.2 98.8 C 208.5 100.7 204.5 101.6 200.3 101.6 C 188.5 101.6 182.4 92.8 182.4 84.3 C 182.4 74.1 190.2 66.6 200.4 66.6 C 204.2 66.6 208.1 67.6 212 69.3 Z M 221.9 67.1 L 221.9 97.7 L 237.9 97.7 L 237.9 101.2 L 218.1 101.2 L 218.1 67.1 L 221.9 67.1 Z M 246 67.1 L 246 101.2 L 242.3 101.2 L 242.3 67.1 L 246 67.1 Z M 272.3 67.1 L 272.3 70.4 L 257.4 70.4 L 257.4 82.3 L 271.8 82.3 L 271.8 85.7 L 257.4 85.7 L 257.4 97.8 L 272.7 97.8 L 272.7 101.2 L 253.7 101.2 L 253.7 67.1 L 272.3 67.1 Z M 281.9 67.1 L 306 95.3 L 306 67.1 L 309.6 67.1 L 309.6 101.2 L 306.3 101.2 L 282.4 73.1 L 282.4 101.2 L 278.8 101.2 L 278.8 67.1 L 281.9 67.1 Z M 342.2 67.1 L 342.2 70.4 L 330 70.4 L 330 101.2 L 326.2 101.2 L 326.2 70.4 L 314.2 70.4 L 314.2 67.1 L 342.2 67.1 Z M 378.2 67.1 L 378.2 70.5 L 364.4 70.5 L 364.4 81.5 L 377.7 81.5 L 377.7 84.9 L 364.4 84.9 L 364.4 101.2 L 360.7 101.2 L 360.7 67.1 L 378.2 67.1 Z M 401.8 67.1 L 401.8 70.4 L 386.9 70.4 L 386.9 82.3 L 401.3 82.3 L 401.3 85.7 L 386.9 85.7 L 386.9 97.8 L 402.2 97.8 L 402.2 101.2 L 383.2 101.2 L 383.2 67.1 L 401.8 67.1 Z M 426.9 67.1 L 426.9 70.4 L 412 70.4 L 412 82.3 L 426.4 82.3 L 426.4 85.7 L 412 85.7 L 412 97.8 L 427.3 97.8 L 427.3 101.2 L 408.3 101.2 L 408.3 67.1 L 426.9 67.1 Z M 433.4 67.1 C 433.4 67.1 445.95 67.08 445.9 67.1 C 457.1 67.1 464.3 74 464.3 83.8 C 464.3 94.4 456.8 101.2 445.9 101.2 C 445.95 101.18 433.4 101.2 433.4 101.2 L 433.4 67.1 Z M 445.9 97.8 C 454.8 97.8 460.4 92.5 460.4 84.1 C 460.4 75.8 455 70.4 445.3 70.4 C 445.35 70.43 437.1 70.4 437.1 70.4 L 437.1 97.8 C 437.1 97.8 445.9 97.78 445.9 97.8 Z M 479.3 67.1 C 485.7 67.1 489.9 70.3 489.9 75.8 C 489.9 79.4 487.9 82 484.2 83.3 C 489.5 84 492.8 87.5 492.8 92 C 492.8 98.3 487.2 101.2 480.9 101.2 C 480.95 101.18 470.5 101.2 470.5 101.2 L 470.5 67.1 C 470.5 67.1 479.35 67.08 479.3 67.1 Z M 474.2 82.2 C 474.2 82.2 478 82.23 478 82.2 C 483.6 82.2 486 79.6 486 76.1 C 486 72.2 483.6 70.4 478.6 70.4 C 478.6 70.38 474.2 70.4 474.2 70.4 L 474.2 82.2 Z M 480.2 97.9 C 485.7 97.9 488.9 96 488.9 91.7 C 488.9 87.8 486.1 85.5 479.7 85.5 C 479.7 85.48 474.2 85.5 474.2 85.5 L 474.2 97.9 C 474.2 97.9 480.25 97.88 480.2 97.9 Z M 512.6 66.9 L 527.8 101.2 L 524 101.2 L 519.2 90.5 L 503.7 90.5 L 499.1 101.2 L 495.2 101.2 L 510 66.9 L 512.6 66.9 Z M 505.1 87.1 L 517.7 87.1 L 511.2 72.6 L 505.1 87.1 Z M 558.4 69.3 C 558.4 69.3 558.4 73.4 558.4 73.4 C 554.8 71.3 550.8 70.1 546.8 70.1 C 538.1 70.1 532.6 76.7 532.6 84.2 C 532.6 91.8 538.1 98.1 546.8 98.1 C 551 98.1 555 96.9 558.6 94.6 C 558.6 94.6 558.6 98.8 558.6 98.8 C 554.8 100.7 550.9 101.6 546.7 101.6 C 534.9 101.6 528.7 92.8 528.7 84.3 C 528.7 74.1 536.5 66.6 546.8 66.6 C 550.6 66.6 554.5 67.6 558.4 69.3 Z M 568.3 67.1 L 568.3 83.1 L 583.2 67.1 L 587.9 67.1 L 572.7 83.5 L 590.9 101.2 L 585.8 101.2 L 568.3 84.2 L 568.3 101.2 L 564.5 101.2 L 564.5 67.1 L 568.3 67.1 Z " stroke="none" fill="#000000"/>  </g></svg>