<?xml version="1.0" standalone="no"?><!DOCTYPE svg PUBLIC "-//W3C//DTD SVG 1.1//EN" "http://www.w3.org/Graphics/SVG/1.1/DTD/svg11.dtd"><svg xmlns="http://www.w3.org/2000/svg" version="1.1" width="200px" height="20.5px" viewBox="0 -4 200 20.5" style="top:-4px">  <desc>Administration Portal</desc>  <defs/>  <g id="Polygon49678">    <path d="M 0 8.7 L 3.3 0.1 L 4.5 0.1 L 8 8.7 L 6.7 8.7 L 5.7 6.1 L 2.1 6.1 L 1.2 8.7 L 0 8.7 Z M 2.5 5.2 L 5.4 5.2 C 5.4 5.2 4.48 2.83 4.5 2.8 C 4.2 2.1 4 1.5 3.9 1 C 3.8 1.6 3.6 2.1 3.4 2.7 C 3.4 2.69 2.5 5.2 2.5 5.2 Z M 12.8 8.7 C 12.8 8.7 12.83 7.95 12.8 8 C 12.4 8.6 11.9 8.9 11.1 8.9 C 10.6 8.9 10.1 8.7 9.7 8.5 C 9.3 8.2 9 7.8 8.8 7.3 C 8.5 6.8 8.4 6.3 8.4 5.6 C 8.4 5 8.5 4.4 8.7 3.9 C 8.9 3.4 9.2 3 9.7 2.8 C 10.1 2.5 10.5 2.4 11 2.4 C 11.4 2.4 11.8 2.5 12 2.6 C 12.3 2.8 12.6 3 12.8 3.2 C 12.76 3.23 12.8 0.1 12.8 0.1 L 13.8 0.1 L 13.8 8.7 L 12.8 8.7 Z M 9.5 5.6 C 9.5 6.4 9.7 7 10 7.4 C 10.3 7.8 10.7 8 11.2 8 C 11.7 8 12 7.8 12.4 7.4 C 12.7 7.1 12.8 6.5 12.8 5.7 C 12.8 4.9 12.7 4.2 12.4 3.8 C 12 3.4 11.6 3.2 11.1 3.2 C 10.7 3.2 10.3 3.4 10 3.8 C 9.7 4.2 9.5 4.8 9.5 5.6 Z M 15.5 8.7 L 15.5 2.5 L 16.4 2.5 C 16.4 2.5 16.41 3.39 16.4 3.4 C 16.6 3.1 16.9 2.8 17.2 2.7 C 17.5 2.5 17.9 2.4 18.3 2.4 C 18.8 2.4 19.1 2.5 19.4 2.7 C 19.7 2.9 19.9 3.1 20.1 3.5 C 20.5 2.7 21.2 2.4 22 2.4 C 22.6 2.4 23.1 2.5 23.4 2.9 C 23.7 3.2 23.9 3.8 23.9 4.5 C 23.9 4.46 23.9 8.7 23.9 8.7 L 22.9 8.7 C 22.9 8.7 22.85 4.82 22.9 4.8 C 22.9 4.4 22.8 4.1 22.7 3.9 C 22.7 3.7 22.6 3.6 22.4 3.5 C 22.2 3.3 22 3.3 21.7 3.3 C 21.3 3.3 20.9 3.4 20.7 3.7 C 20.4 4 20.2 4.5 20.2 5.1 C 20.22 5.12 20.2 8.7 20.2 8.7 L 19.2 8.7 C 19.2 8.7 19.17 4.69 19.2 4.7 C 19.2 4.2 19.1 3.9 18.9 3.6 C 18.7 3.4 18.5 3.3 18.1 3.3 C 17.8 3.3 17.5 3.4 17.2 3.5 C 17 3.7 16.8 3.9 16.7 4.2 C 16.6 4.5 16.5 4.9 16.5 5.5 C 16.52 5.51 16.5 8.7 16.5 8.7 L 15.5 8.7 Z M 25.5 1.4 L 25.5 0.1 L 26.5 0.1 L 26.5 1.4 L 25.5 1.4 Z M 25.5 8.7 L 25.5 2.5 L 26.5 2.5 L 26.5 8.7 L 25.5 8.7 Z M 28.1 8.7 L 28.1 2.5 L 29.1 2.5 C 29.1 2.5 29.08 3.4 29.1 3.4 C 29.5 2.7 30.2 2.4 31.1 2.4 C 31.4 2.4 31.8 2.4 32.1 2.6 C 32.4 2.7 32.6 2.9 32.8 3.1 C 33 3.3 33.1 3.6 33.1 3.9 C 33.2 4.1 33.2 4.4 33.2 4.9 C 33.19 4.91 33.2 8.7 33.2 8.7 L 32.1 8.7 C 32.1 8.7 32.13 4.95 32.1 5 C 32.1 4.5 32.1 4.2 32 4 C 31.9 3.8 31.8 3.6 31.6 3.5 C 31.4 3.4 31.1 3.3 30.8 3.3 C 30.4 3.3 30 3.4 29.7 3.7 C 29.3 4 29.2 4.5 29.2 5.3 C 29.19 5.34 29.2 8.7 29.2 8.7 L 28.1 8.7 Z M 34.8 1.4 L 34.8 0.1 L 35.9 0.1 L 35.9 1.4 L 34.8 1.4 Z M 34.8 8.7 L 34.8 2.5 L 35.9 2.5 L 35.9 8.7 L 34.8 8.7 Z M 37 6.9 C 37 6.9 38.1 6.7 38.1 6.7 C 38.2 7.1 38.3 7.5 38.6 7.7 C 38.8 7.9 39.2 8 39.7 8 C 40.2 8 40.5 7.9 40.8 7.7 C 41 7.5 41.1 7.3 41.1 7 C 41.1 6.8 41 6.6 40.8 6.5 C 40.7 6.4 40.3 6.2 39.7 6.1 C 39 5.9 38.4 5.7 38.1 5.6 C 37.8 5.5 37.6 5.3 37.5 5 C 37.3 4.7 37.2 4.5 37.2 4.2 C 37.2 3.9 37.3 3.6 37.4 3.4 C 37.5 3.2 37.7 3 37.9 2.8 C 38.1 2.7 38.3 2.6 38.6 2.5 C 38.9 2.4 39.2 2.4 39.5 2.4 C 40 2.4 40.4 2.4 40.8 2.6 C 41.2 2.7 41.4 2.9 41.6 3.2 C 41.8 3.4 41.9 3.7 42 4.1 C 42 4.1 41 4.3 41 4.3 C 40.9 3.9 40.8 3.7 40.5 3.5 C 40.3 3.3 40 3.2 39.6 3.2 C 39.1 3.2 38.8 3.3 38.6 3.5 C 38.3 3.6 38.2 3.8 38.2 4 C 38.2 4.2 38.3 4.3 38.4 4.4 C 38.5 4.5 38.6 4.6 38.8 4.7 C 38.9 4.7 39.2 4.8 39.7 5 C 40.5 5.2 41 5.3 41.3 5.5 C 41.6 5.6 41.8 5.8 42 6 C 42.1 6.2 42.2 6.5 42.2 6.9 C 42.2 7.3 42.1 7.6 41.9 7.9 C 41.7 8.2 41.4 8.5 41 8.6 C 40.6 8.8 40.2 8.9 39.7 8.9 C 38.9 8.9 38.3 8.7 37.9 8.4 C 37.4 8 37.2 7.5 37 6.9 Z M 45.3 7.8 C 45.4 7.8 45.6 7.8 45.8 7.8 C 45.8 7.8 45.9 8.7 45.9 8.7 C 45.6 8.8 45.4 8.8 45.1 8.8 C 44.7 8.8 44.4 8.8 44.2 8.6 C 44 8.5 43.9 8.4 43.8 8.2 C 43.7 8 43.7 7.5 43.7 6.9 C 43.66 6.91 43.7 3.3 43.7 3.3 L 42.9 3.3 L 42.9 2.5 L 43.7 2.5 L 43.7 1 L 44.7 0.3 L 44.7 2.5 L 45.8 2.5 L 45.8 3.3 L 44.7 3.3 C 44.7 3.3 44.71 6.97 44.7 7 C 44.7 7.3 44.7 7.5 44.8 7.6 C 44.8 7.6 44.9 7.7 45 7.8 C 45 7.8 45.2 7.8 45.3 7.8 C 45.3 7.8 45.3 7.8 45.3 7.8 Z M 46.8 8.7 L 46.8 2.5 L 47.7 2.5 C 47.7 2.5 47.74 3.46 47.7 3.5 C 48 3 48.2 2.7 48.4 2.6 C 48.6 2.4 48.8 2.4 49.1 2.4 C 49.4 2.4 49.8 2.5 50.2 2.7 C 50.2 2.7 49.8 3.7 49.8 3.7 C 49.6 3.5 49.3 3.5 49 3.5 C 48.8 3.5 48.6 3.5 48.4 3.7 C 48.2 3.8 48.1 4 48 4.2 C 47.9 4.6 47.8 5 47.8 5.5 C 47.85 5.48 47.8 8.7 47.8 8.7 L 46.8 8.7 Z M 55.1 8.7 C 55 8.5 54.9 8.3 54.9 8 C 54.5 8.3 54.1 8.5 53.7 8.7 C 53.4 8.8 53 8.9 52.6 8.9 C 51.9 8.9 51.4 8.7 51 8.4 C 50.6 8 50.4 7.6 50.4 7.1 C 50.4 6.8 50.5 6.5 50.7 6.3 C 50.8 6 51 5.8 51.2 5.7 C 51.4 5.5 51.7 5.4 52 5.3 C 52.2 5.3 52.5 5.2 52.9 5.2 C 53.7 5 54.4 4.9 54.8 4.8 C 54.8 4.6 54.8 4.6 54.8 4.5 C 54.8 4.1 54.7 3.8 54.5 3.6 C 54.2 3.4 53.8 3.2 53.3 3.2 C 52.8 3.2 52.4 3.3 52.2 3.5 C 51.9 3.7 51.8 4 51.7 4.4 C 51.7 4.4 50.6 4.3 50.6 4.3 C 50.7 3.8 50.9 3.5 51.1 3.2 C 51.3 2.9 51.6 2.7 52 2.6 C 52.4 2.4 52.9 2.4 53.4 2.4 C 54 2.4 54.4 2.4 54.7 2.6 C 55.1 2.7 55.3 2.8 55.5 3 C 55.6 3.2 55.7 3.5 55.8 3.8 C 55.8 3.9 55.8 4.3 55.8 4.7 C 55.8 4.7 55.8 6.1 55.8 6.1 C 55.8 7.1 55.9 7.7 55.9 8 C 56 8.2 56 8.5 56.2 8.7 C 56.17 8.74 55.1 8.7 55.1 8.7 C 55.1 8.7 55.07 8.74 55.1 8.7 Z M 54.8 5.6 C 54.4 5.8 53.8 5.9 53.1 6 C 52.6 6.1 52.3 6.1 52.1 6.2 C 52 6.3 51.8 6.4 51.7 6.6 C 51.6 6.7 51.6 6.9 51.6 7.1 C 51.6 7.3 51.7 7.6 51.9 7.8 C 52.1 8 52.4 8.1 52.8 8.1 C 53.2 8.1 53.6 8 53.9 7.8 C 54.2 7.6 54.5 7.4 54.6 7.1 C 54.7 6.8 54.8 6.5 54.8 6 C 54.8 6 54.8 5.6 54.8 5.6 Z M 59.3 7.8 C 59.4 7.8 59.6 7.8 59.8 7.8 C 59.8 7.8 59.9 8.7 59.9 8.7 C 59.6 8.8 59.4 8.8 59.1 8.8 C 58.7 8.8 58.5 8.8 58.2 8.6 C 58 8.5 57.9 8.4 57.8 8.2 C 57.7 8 57.7 7.5 57.7 6.9 C 57.67 6.91 57.7 3.3 57.7 3.3 L 56.9 3.3 L 56.9 2.5 L 57.7 2.5 L 57.7 1 L 58.7 0.3 L 58.7 2.5 L 59.8 2.5 L 59.8 3.3 L 58.7 3.3 C 58.7 3.3 58.72 6.97 58.7 7 C 58.7 7.3 58.7 7.5 58.8 7.6 C 58.8 7.6 58.9 7.7 59 7.8 C 59 7.8 59.2 7.8 59.3 7.8 C 59.3 7.8 59.3 7.8 59.3 7.8 Z M 60.8 1.4 L 60.8 0.1 L 61.9 0.1 L 61.9 1.4 L 60.8 1.4 Z M 60.8 8.7 L 60.8 2.5 L 61.9 2.5 L 61.9 8.7 L 60.8 8.7 Z M 63.1 5.6 C 63.1 4.5 63.4 3.6 64 3.1 C 64.6 2.6 65.2 2.4 66 2.4 C 66.9 2.4 67.6 2.7 68.1 3.2 C 68.6 3.8 68.9 4.5 68.9 5.5 C 68.9 6.3 68.8 7 68.6 7.4 C 68.3 7.9 68 8.2 67.5 8.5 C 67 8.7 66.5 8.9 66 8.9 C 65.1 8.9 64.4 8.6 63.9 8 C 63.4 7.5 63.1 6.7 63.1 5.6 Z M 64.2 5.6 C 64.2 6.4 64.3 7 64.7 7.4 C 65 7.8 65.5 8 66 8 C 66.5 8 67 7.8 67.3 7.4 C 67.7 7 67.8 6.4 67.8 5.6 C 67.8 4.8 67.7 4.2 67.3 3.8 C 67 3.4 66.5 3.2 66 3.2 C 65.5 3.2 65 3.4 64.7 3.8 C 64.3 4.2 64.2 4.8 64.2 5.6 Z M 70.1 8.7 L 70.1 2.5 L 71.1 2.5 C 71.1 2.5 71.1 3.4 71.1 3.4 C 71.6 2.7 72.2 2.4 73.1 2.4 C 73.5 2.4 73.8 2.4 74.1 2.6 C 74.4 2.7 74.7 2.9 74.8 3.1 C 75 3.3 75.1 3.6 75.1 3.9 C 75.2 4.1 75.2 4.4 75.2 4.9 C 75.21 4.91 75.2 8.7 75.2 8.7 L 74.2 8.7 C 74.2 8.7 74.15 4.95 74.2 5 C 74.2 4.5 74.1 4.2 74 4 C 73.9 3.8 73.8 3.6 73.6 3.5 C 73.4 3.4 73.1 3.3 72.9 3.3 C 72.4 3.3 72 3.4 71.7 3.7 C 71.4 4 71.2 4.5 71.2 5.3 C 71.2 5.34 71.2 8.7 71.2 8.7 L 70.1 8.7 Z M 80.3 8.7 L 80.3 0.1 C 80.3 0.1 83.53 0.15 83.5 0.1 C 84.1 0.1 84.5 0.2 84.8 0.2 C 85.3 0.3 85.6 0.4 85.9 0.6 C 86.2 0.8 86.4 1.1 86.6 1.5 C 86.8 1.8 86.8 2.2 86.8 2.6 C 86.8 3.4 86.6 4 86.2 4.5 C 85.7 5 84.8 5.2 83.6 5.2 C 83.63 5.24 81.4 5.2 81.4 5.2 L 81.4 8.7 L 80.3 8.7 Z M 81.4 4.2 C 81.4 4.2 83.65 4.23 83.6 4.2 C 84.4 4.2 84.9 4.1 85.2 3.8 C 85.5 3.5 85.7 3.2 85.7 2.7 C 85.7 2.3 85.6 2 85.4 1.7 C 85.2 1.5 85 1.3 84.7 1.2 C 84.5 1.2 84.1 1.2 83.6 1.2 C 83.63 1.16 81.4 1.2 81.4 1.2 L 81.4 4.2 Z M 87.8 5.6 C 87.8 4.5 88.1 3.6 88.7 3.1 C 89.3 2.6 89.9 2.4 90.7 2.4 C 91.5 2.4 92.2 2.7 92.8 3.2 C 93.3 3.8 93.6 4.5 93.6 5.5 C 93.6 6.3 93.5 7 93.2 7.4 C 93 7.9 92.6 8.2 92.2 8.5 C 91.7 8.7 91.2 8.9 90.7 8.9 C 89.8 8.9 89.1 8.6 88.6 8 C 88 7.5 87.8 6.7 87.8 5.6 Z M 88.9 5.6 C 88.9 6.4 89 7 89.4 7.4 C 89.7 7.8 90.2 8 90.7 8 C 91.2 8 91.6 7.8 92 7.4 C 92.3 7 92.5 6.4 92.5 5.6 C 92.5 4.8 92.3 4.2 92 3.8 C 91.6 3.4 91.2 3.2 90.7 3.2 C 90.2 3.2 89.7 3.4 89.4 3.8 C 89 4.2 88.9 4.8 88.9 5.6 Z M 94.8 8.7 L 94.8 2.5 L 95.8 2.5 C 95.8 2.5 95.77 3.46 95.8 3.5 C 96 3 96.2 2.7 96.4 2.6 C 96.6 2.4 96.9 2.4 97.1 2.4 C 97.5 2.4 97.8 2.5 98.2 2.7 C 98.2 2.7 97.8 3.7 97.8 3.7 C 97.6 3.5 97.3 3.5 97.1 3.5 C 96.8 3.5 96.6 3.5 96.4 3.7 C 96.3 3.8 96.1 4 96.1 4.2 C 95.9 4.6 95.9 5 95.9 5.5 C 95.88 5.48 95.9 8.7 95.9 8.7 L 94.8 8.7 Z M 100.7 7.8 C 100.8 7.8 100.9 7.8 101.1 7.8 C 101.1 7.8 101.3 8.7 101.3 8.7 C 101 8.8 100.7 8.8 100.5 8.8 C 100.1 8.8 99.8 8.8 99.6 8.6 C 99.4 8.5 99.2 8.4 99.2 8.2 C 99.1 8 99 7.5 99 6.9 C 99.02 6.91 99 3.3 99 3.3 L 98.3 3.3 L 98.3 2.5 L 99 2.5 L 99 1 L 100.1 0.3 L 100.1 2.5 L 101.1 2.5 L 101.1 3.3 L 100.1 3.3 C 100.1 3.3 100.07 6.97 100.1 7 C 100.1 7.3 100.1 7.5 100.1 7.6 C 100.2 7.6 100.2 7.7 100.3 7.8 C 100.4 7.8 100.5 7.8 100.7 7.8 C 100.7 7.8 100.7 7.8 100.7 7.8 Z M 106.4 8.7 C 106.3 8.5 106.3 8.3 106.2 8 C 105.8 8.3 105.5 8.5 105.1 8.7 C 104.7 8.8 104.3 8.9 103.9 8.9 C 103.2 8.9 102.7 8.7 102.4 8.4 C 102 8 101.8 7.6 101.8 7.1 C 101.8 6.8 101.9 6.5 102 6.3 C 102.2 6 102.3 5.8 102.6 5.7 C 102.8 5.5 103 5.4 103.3 5.3 C 103.5 5.3 103.8 5.2 104.3 5.2 C 105.1 5 105.7 4.9 106.1 4.8 C 106.1 4.6 106.1 4.6 106.1 4.5 C 106.1 4.1 106 3.8 105.8 3.6 C 105.6 3.4 105.2 3.2 104.6 3.2 C 104.1 3.2 103.8 3.3 103.5 3.5 C 103.3 3.7 103.1 4 103 4.4 C 103 4.4 102 4.3 102 4.3 C 102.1 3.8 102.2 3.5 102.5 3.2 C 102.7 2.9 103 2.7 103.4 2.6 C 103.8 2.4 104.3 2.4 104.8 2.4 C 105.3 2.4 105.8 2.4 106.1 2.6 C 106.4 2.7 106.7 2.8 106.8 3 C 107 3.2 107.1 3.5 107.2 3.8 C 107.2 3.9 107.2 4.3 107.2 4.7 C 107.2 4.7 107.2 6.1 107.2 6.1 C 107.2 7.1 107.2 7.7 107.3 8 C 107.3 8.2 107.4 8.5 107.5 8.7 C 107.54 8.74 106.4 8.7 106.4 8.7 C 106.4 8.7 106.44 8.74 106.4 8.7 Z M 106.1 5.6 C 105.8 5.8 105.2 5.9 104.4 6 C 104 6.1 103.7 6.1 103.5 6.2 C 103.3 6.3 103.2 6.4 103.1 6.6 C 103 6.7 102.9 6.9 102.9 7.1 C 102.9 7.3 103 7.6 103.3 7.8 C 103.5 8 103.8 8.1 104.2 8.1 C 104.6 8.1 105 8 105.3 7.8 C 105.6 7.6 105.8 7.4 106 7.1 C 106.1 6.8 106.1 6.5 106.1 6 C 106.1 6 106.1 5.6 106.1 5.6 Z M 108.8 8.7 L 108.8 0.1 L 109.9 0.1 L 109.9 8.7 L 108.8 8.7 Z " stroke="none" fill="#000"/>  </g></svg>