<?xml version="1.0" standalone="no"?><!DOCTYPE svg PUBLIC "-//W3C//DTD SVG 1.1//EN" "http://www.w3.org/Graphics/SVG/1.1/DTD/svg11.dtd"><svg xmlns="http://www.w3.org/2000/svg" version="1.1" width="134px" height="98.4px" viewBox="0 -4 134 98.4" style="top:-4px">  <desc>Resourcing Leadership and Management</desc>  <defs/>  <g id="Polygon41441">    <path d="M 1.5 69.3 L 3 69.3 L 7.8 75.3 L 12.6 69.3 L 14 69.3 L 14 82.9 L 12.5 82.9 L 12.5 71.7 L 12.5 71.7 L 7.9 77.4 L 7.6 77.4 L 3.1 71.7 L 3 71.7 L 3 82.9 L 1.5 82.9 L 1.5 69.3 Z M 22.5 69.2 L 28.6 82.9 L 27.1 82.9 L 25.2 78.7 L 19 78.7 L 17.1 82.9 L 15.6 82.9 L 21.5 69.2 L 22.5 69.2 Z M 19.5 77.3 L 24.6 77.3 L 22 71.5 L 19.5 77.3 Z M 31.4 69.3 L 41.1 80.6 L 41.1 69.3 L 42.5 69.3 L 42.5 82.9 L 41.2 82.9 L 31.6 71.7 L 31.6 82.9 L 30.2 82.9 L 30.2 69.3 L 31.4 69.3 Z M 51 69.2 L 57.1 82.9 L 55.6 82.9 L 53.7 78.7 L 47.5 78.7 L 45.6 82.9 L 44.1 82.9 L 50 69.2 L 51 69.2 Z M 48 77.3 L 53.1 77.3 L 50.5 71.5 L 48 77.3 Z M 69.3 71.8 C 67.8 70.9 66.2 70.5 64.6 70.5 C 61.5 70.5 59 72.9 59 76.1 C 59 79.4 61.4 81.8 64.8 81.8 C 65.9 81.8 66.7 81.6 68.1 81.1 C 68.12 81.07 68.1 77.8 68.1 77.8 L 65.3 77.8 L 65.3 76.4 L 69.6 76.4 C 69.6 76.4 69.62 81.99 69.6 82 C 68.1 82.8 66.5 83.1 64.8 83.1 C 59.9 83.1 57.5 79.7 57.5 76.2 C 57.5 72.3 60.3 69.1 64.7 69.1 C 66.3 69.1 67.5 69.4 69.3 70.2 C 69.3 70.2 69.3 71.8 69.3 71.8 Z M 79.9 69.3 L 79.9 70.6 L 74 70.6 L 74 75.4 L 79.7 75.4 L 79.7 76.7 L 74 76.7 L 74 81.6 L 80.1 81.6 L 80.1 82.9 L 72.5 82.9 L 72.5 69.3 L 79.9 69.3 Z M 82.5 69.3 L 83.9 69.3 L 88.8 75.3 L 93.6 69.3 L 95 69.3 L 95 82.9 L 93.5 82.9 L 93.5 71.7 L 93.4 71.7 L 88.9 77.4 L 88.6 77.4 L 84.1 71.7 L 84 71.7 L 84 82.9 L 82.5 82.9 L 82.5 69.3 Z M 105.5 69.3 L 105.5 70.6 L 99.6 70.6 L 99.6 75.4 L 105.3 75.4 L 105.3 76.7 L 99.6 76.7 L 99.6 81.6 L 105.7 81.6 L 105.7 82.9 L 98.1 82.9 L 98.1 69.3 L 105.5 69.3 Z M 109.3 69.3 L 119 80.6 L 119 69.3 L 120.4 69.3 L 120.4 82.9 L 119.1 82.9 L 109.5 71.7 L 109.5 82.9 L 108.1 82.9 L 108.1 69.3 L 109.3 69.3 Z M 133.5 69.3 L 133.5 70.6 L 128.6 70.6 L 128.6 82.9 L 127.1 82.9 L 127.1 70.6 L 122.3 70.6 L 122.3 69.3 L 133.5 69.3 Z " stroke="none" fill="#000000"/>  </g>  <g id="Polygon41440">    <path d="M 7 45.2 L 13.1 58.9 L 11.5 58.9 L 9.6 54.7 L 3.4 54.7 L 1.6 58.9 L 0 58.9 L 5.9 45.2 L 7 45.2 Z M 4 53.3 L 9 53.3 L 6.4 47.5 L 4 53.3 Z M 15.9 45.3 L 25.5 56.6 L 25.5 45.3 L 27 45.3 L 27 58.9 L 25.7 58.9 L 16.1 47.7 L 16.1 58.9 L 14.6 58.9 L 14.6 45.3 L 15.9 45.3 Z M 30 45.3 C 30 45.3 35.06 45.29 35.1 45.3 C 39.5 45.3 42.4 48.1 42.4 52 C 42.4 56.2 39.4 58.9 35.1 58.9 C 35.06 58.93 30 58.9 30 58.9 L 30 45.3 Z M 35 57.6 C 38.6 57.6 40.8 55.5 40.8 52.1 C 40.8 48.8 38.7 46.6 34.8 46.6 C 34.82 46.63 31.5 46.6 31.5 46.6 L 31.5 57.6 C 31.5 57.6 35.04 57.57 35 57.6 Z " stroke="none" fill="#000000"/>  </g>  <g id="Polygon41439">    <path d="M 3 21.3 L 3 33.6 L 9.5 33.6 L 9.5 34.9 L 1.5 34.9 L 1.5 21.3 L 3 21.3 Z M 18.7 21.3 L 18.7 22.6 L 12.7 22.6 L 12.7 27.4 L 18.5 27.4 L 18.5 28.7 L 12.7 28.7 L 12.7 33.6 L 18.8 33.6 L 18.8 34.9 L 11.2 34.9 L 11.2 21.3 L 18.7 21.3 Z M 27.2 21.2 L 33.2 34.9 L 31.7 34.9 L 29.8 30.7 L 23.6 30.7 L 21.7 34.9 L 20.2 34.9 L 26.1 21.2 L 27.2 21.2 Z M 24.2 29.3 L 29.2 29.3 L 26.6 23.5 L 24.2 29.3 Z M 34.8 21.3 C 34.8 21.3 39.82 21.29 39.8 21.3 C 44.3 21.3 47.2 24.1 47.2 28 C 47.2 32.2 44.2 34.9 39.8 34.9 C 39.82 34.93 34.8 34.9 34.8 34.9 L 34.8 21.3 Z M 39.8 33.6 C 43.4 33.6 45.6 31.5 45.6 28.1 C 45.6 24.8 43.4 22.6 39.6 22.6 C 39.58 22.63 36.3 22.6 36.3 22.6 L 36.3 33.6 C 36.3 33.6 39.8 33.57 39.8 33.6 Z M 57.1 21.3 L 57.1 22.6 L 51.2 22.6 L 51.2 27.4 L 56.9 27.4 L 56.9 28.7 L 51.2 28.7 L 51.2 33.6 L 57.3 33.6 L 57.3 34.9 L 49.7 34.9 L 49.7 21.3 L 57.1 21.3 Z M 59.7 21.3 C 59.7 21.3 63.28 21.29 63.3 21.3 C 66 21.3 67.4 22.9 67.4 25 C 67.4 26.7 66.5 27.8 64.9 28.3 C 65.7 28.8 66.1 29.1 67.3 30.9 C 67.26 30.85 69.9 34.9 69.9 34.9 L 68.1 34.9 C 68.1 34.9 65.72 31.17 65.7 31.2 C 64.5 29.2 63.6 28.7 62.5 28.7 C 62.46 28.73 61.2 28.7 61.2 28.7 L 61.2 34.9 L 59.7 34.9 L 59.7 21.3 Z M 62.6 27.4 C 64.5 27.4 65.9 27 65.9 25 C 65.9 23.3 64.8 22.6 63.1 22.6 C 63.08 22.61 61.2 22.6 61.2 22.6 L 61.2 27.4 C 61.2 27.4 62.6 27.41 62.6 27.4 Z M 78 22 C 78 22 78 23.7 78 23.7 C 77.1 22.9 76.1 22.5 75 22.5 C 73.5 22.5 72.6 23.3 72.6 24.5 C 72.6 25.4 72.8 26.1 75.1 27.3 C 77.9 28.7 78.6 29.7 78.6 31.6 C 78.6 33.6 77 35.1 74.7 35.1 C 73.4 35.1 72.2 34.7 71.1 33.9 C 71.1 33.9 71.1 32 71.1 32 C 72.1 33.2 73.3 33.8 74.7 33.8 C 76 33.8 77 32.9 77 31.6 C 77 30.4 76.7 29.8 74 28.4 C 71.9 27.3 71.1 26.2 71.1 24.5 C 71.1 22.6 72.7 21.1 75 21.1 C 76.1 21.1 77.1 21.4 78 22 Z M 82.4 21.3 L 82.4 27.4 L 90.7 27.4 L 90.7 21.3 L 92.2 21.3 L 92.2 34.9 L 90.7 34.9 L 90.7 28.8 L 82.4 28.8 L 82.4 34.9 L 80.9 34.9 L 80.9 21.3 L 82.4 21.3 Z M 96.7 21.3 L 96.7 34.9 L 95.2 34.9 L 95.2 21.3 L 96.7 21.3 Z M 103.7 21.3 C 106.4 21.3 108.1 22.7 108.1 25.1 C 108.1 27.6 106.3 28.8 103.4 28.8 C 103.42 28.79 101.3 28.8 101.3 28.8 L 101.3 34.9 L 99.8 34.9 L 99.8 21.3 C 99.8 21.3 103.68 21.29 103.7 21.3 Z M 101.3 27.5 C 101.3 27.5 103.38 27.47 103.4 27.5 C 105.7 27.5 106.5 26.6 106.5 25 C 106.5 23.5 105.6 22.6 103.4 22.6 C 103.38 22.61 101.3 22.6 101.3 22.6 L 101.3 27.5 Z " stroke="none" fill="#000000"/>  </g>  <g id="Polygon41438">    <path d="M 1.2 0.7 C 1.2 0.7 3.84 0.7 3.8 0.7 C 5.9 0.7 7 1.9 7 3.4 C 7 4.7 6.3 5.6 5 6 C 5.7 6.3 6 6.6 6.8 7.9 C 6.82 7.87 8.8 10.9 8.8 10.9 L 7.5 10.9 C 7.5 10.9 5.67 8.11 5.7 8.1 C 4.7 6.6 4.1 6.3 3.2 6.3 C 3.22 6.28 2.3 6.3 2.3 6.3 L 2.3 10.9 L 1.2 10.9 L 1.2 0.7 Z M 3.3 5.3 C 4.7 5.3 5.8 4.9 5.8 3.5 C 5.8 2.2 5 1.7 3.7 1.7 C 3.69 1.69 2.3 1.7 2.3 1.7 L 2.3 5.3 C 2.3 5.3 3.33 5.29 3.3 5.3 Z M 15.5 0.7 L 15.5 1.7 L 11.1 1.7 L 11.1 5.3 L 15.4 5.3 L 15.4 6.3 L 11.1 6.3 L 11.1 9.9 L 15.6 9.9 L 15.6 10.9 L 9.9 10.9 L 9.9 0.7 L 15.5 0.7 Z M 22.2 1.2 C 22.2 1.2 22.2 2.5 22.2 2.5 C 21.5 1.9 20.7 1.6 19.9 1.6 C 18.8 1.6 18.1 2.2 18.1 3.1 C 18.1 3.7 18.3 4.3 20 5.2 C 22.1 6.3 22.6 7 22.6 8.4 C 22.6 9.9 21.4 11.1 19.7 11.1 C 18.7 11.1 17.8 10.8 17 10.2 C 17 10.2 17 8.8 17 8.8 C 17.8 9.6 18.7 10.1 19.7 10.1 C 20.7 10.1 21.4 9.4 21.4 8.4 C 21.4 7.6 21.2 7 19.2 6 C 17.6 5.2 17 4.4 17 3.1 C 17 1.6 18.2 0.6 19.9 0.6 C 20.7 0.6 21.5 0.8 22.2 1.2 Z M 34.7 5.8 C 34.7 8.6 32.6 11.1 29.2 11.1 C 26 11.1 23.9 8.7 23.9 5.9 C 23.9 3 25.9 0.6 29.2 0.6 C 32.5 0.6 34.7 2.9 34.7 5.8 Z M 25 5.8 C 25 8.2 26.9 10 29.2 10 C 32.3 10 33.5 7.6 33.5 5.8 C 33.5 3.7 32 1.6 29.3 1.6 C 26.5 1.6 25 3.7 25 5.8 Z M 37.5 0.7 C 37.5 0.7 37.51 6.6 37.5 6.6 C 37.5 8.9 38.6 10.1 40.7 10.1 C 42.8 10.1 43.8 8.8 43.8 6.6 C 43.84 6.6 43.8 0.7 43.8 0.7 L 45 0.7 C 45 0.7 44.97 6.6 45 6.6 C 45 9.3 43.5 11.1 40.7 11.1 C 37.9 11.1 36.4 9.5 36.4 6.6 C 36.39 6.6 36.4 0.7 36.4 0.7 L 37.5 0.7 Z M 47.1 0.7 C 47.1 0.7 49.83 0.7 49.8 0.7 C 51.9 0.7 52.9 1.9 52.9 3.4 C 52.9 4.7 52.3 5.6 51 6 C 51.7 6.3 52 6.6 52.8 7.9 C 52.81 7.87 54.8 10.9 54.8 10.9 L 53.5 10.9 C 53.5 10.9 51.66 8.11 51.7 8.1 C 50.7 6.6 50.1 6.3 49.2 6.3 C 49.21 6.28 48.3 6.3 48.3 6.3 L 48.3 10.9 L 47.1 10.9 L 47.1 0.7 Z M 49.3 5.3 C 50.7 5.3 51.8 4.9 51.8 3.5 C 51.8 2.2 51 1.7 49.7 1.7 C 49.68 1.69 48.3 1.7 48.3 1.7 L 48.3 5.3 C 48.3 5.3 49.32 5.29 49.3 5.3 Z M 64.1 1.4 C 64.1 1.4 64.1 2.6 64.1 2.6 C 63 2 61.8 1.6 60.6 1.6 C 58 1.6 56.3 3.6 56.3 5.8 C 56.3 8.1 58 10 60.6 10 C 61.9 10 63 9.7 64.1 9 C 64.1 9 64.1 10.2 64.1 10.2 C 63 10.8 61.8 11.1 60.6 11.1 C 57 11.1 55.2 8.4 55.2 5.9 C 55.2 2.8 57.5 0.6 60.6 0.6 C 61.7 0.6 62.9 0.9 64.1 1.4 Z M 67 0.7 L 67 10.9 L 65.9 10.9 L 65.9 0.7 L 67 0.7 Z M 70.3 0.7 L 77.5 9.2 L 77.5 0.7 L 78.6 0.7 L 78.6 10.9 L 77.6 10.9 L 70.4 2.5 L 70.4 10.9 L 69.3 10.9 L 69.3 0.7 L 70.3 0.7 Z M 89.3 2.6 C 88.2 1.9 87 1.6 85.8 1.6 C 83.4 1.6 81.6 3.4 81.6 5.8 C 81.6 8.3 83.3 10.1 85.9 10.1 C 86.7 10.1 87.4 9.9 88.4 9.5 C 88.41 9.54 88.4 7 88.4 7 L 86.3 7 L 86.3 6.1 L 89.5 6.1 C 89.5 6.1 89.53 10.23 89.5 10.2 C 88.4 10.8 87.2 11.1 85.9 11.1 C 82.2 11.1 80.4 8.5 80.4 5.9 C 80.4 3 82.6 0.6 85.8 0.6 C 87 0.6 88 0.8 89.3 1.4 C 89.3 1.4 89.3 2.6 89.3 2.6 Z " stroke="none" fill="#f28620"/>  </g></svg>