<?xml version="1.0" standalone="no"?><!DOCTYPE svg PUBLIC "-//W3C//DTD SVG 1.1//EN" "http://www.w3.org/Graphics/SVG/1.1/DTD/svg11.dtd"><svg xmlns="http://www.w3.org/2000/svg" version="1.1" width="200px" height="20.5px" viewBox="0 -4 200 20.5" style="top:-4px">  <desc>Support Team</desc>  <defs/>  <g id="Polygon43659">    <path d="M 0.5 6 C 0.5 6 1.6 5.9 1.6 5.9 C 1.7 6.3 1.8 6.7 2 6.9 C 2.2 7.2 2.4 7.4 2.8 7.6 C 3.2 7.8 3.7 7.9 4.1 7.9 C 4.6 7.9 5 7.8 5.3 7.7 C 5.6 7.5 5.9 7.4 6 7.1 C 6.2 6.9 6.3 6.7 6.3 6.4 C 6.3 6.1 6.2 5.9 6 5.7 C 5.9 5.5 5.6 5.3 5.3 5.2 C 5 5.1 4.5 5 3.7 4.8 C 3 4.6 2.4 4.4 2.1 4.2 C 1.7 4 1.4 3.8 1.2 3.4 C 1 3.1 0.9 2.8 0.9 2.4 C 0.9 1.9 1 1.5 1.2 1.2 C 1.5 0.8 1.8 0.5 2.3 0.3 C 2.8 0.1 3.3 0 3.9 0 C 4.5 0 5.1 0.1 5.6 0.3 C 6.1 0.5 6.4 0.8 6.7 1.2 C 7 1.6 7.1 2.1 7.1 2.6 C 7.1 2.6 6 2.6 6 2.6 C 6 2.1 5.8 1.7 5.4 1.4 C 5.1 1.1 4.6 1 3.9 1 C 3.2 1 2.7 1.1 2.4 1.4 C 2.1 1.6 2 1.9 2 2.3 C 2 2.6 2.1 2.9 2.3 3.1 C 2.5 3.3 3.1 3.5 4 3.7 C 4.9 3.9 5.6 4.1 5.9 4.2 C 6.4 4.4 6.8 4.7 7 5.1 C 7.3 5.4 7.4 5.8 7.4 6.3 C 7.4 6.8 7.2 7.2 7 7.6 C 6.7 8 6.3 8.3 5.9 8.5 C 5.4 8.8 4.8 8.9 4.2 8.9 C 3.4 8.9 2.8 8.8 2.2 8.5 C 1.7 8.3 1.3 8 1 7.5 C 0.7 7.1 0.6 6.6 0.5 6 Z M 12.9 8.7 C 12.9 8.7 12.87 7.82 12.9 7.8 C 12.4 8.5 11.7 8.9 10.9 8.9 C 10.5 8.9 10.2 8.8 9.9 8.7 C 9.6 8.5 9.3 8.3 9.2 8.1 C 9 7.9 8.9 7.7 8.8 7.4 C 8.8 7.1 8.8 6.8 8.8 6.4 C 8.77 6.37 8.8 2.5 8.8 2.5 L 9.8 2.5 C 9.8 2.5 9.83 5.96 9.8 6 C 9.8 6.5 9.8 6.9 9.9 7.1 C 10 7.4 10.1 7.6 10.3 7.7 C 10.5 7.9 10.8 8 11.1 8 C 11.4 8 11.7 7.9 12 7.7 C 12.3 7.6 12.5 7.3 12.6 7.1 C 12.7 6.8 12.8 6.4 12.8 5.8 C 12.76 5.85 12.8 2.5 12.8 2.5 L 13.8 2.5 L 13.8 8.7 L 12.9 8.7 Z M 15.5 11.1 L 15.5 2.5 L 16.4 2.5 C 16.4 2.5 16.43 3.32 16.4 3.3 C 16.7 3 16.9 2.8 17.2 2.6 C 17.5 2.5 17.8 2.4 18.2 2.4 C 18.8 2.4 19.2 2.5 19.6 2.8 C 20 3.1 20.4 3.4 20.6 3.9 C 20.8 4.4 20.9 5 20.9 5.6 C 20.9 6.2 20.8 6.8 20.5 7.3 C 20.3 7.8 20 8.2 19.5 8.5 C 19.1 8.7 18.6 8.9 18.2 8.9 C 17.8 8.9 17.5 8.8 17.2 8.7 C 16.9 8.5 16.7 8.3 16.5 8.1 C 16.52 8.09 16.5 11.1 16.5 11.1 L 15.5 11.1 Z M 16.4 5.7 C 16.4 6.5 16.6 7.1 16.9 7.4 C 17.2 7.8 17.6 8 18.1 8 C 18.6 8 19 7.8 19.3 7.4 C 19.6 7 19.8 6.4 19.8 5.6 C 19.8 4.8 19.6 4.2 19.3 3.8 C 19 3.4 18.6 3.2 18.1 3.2 C 17.7 3.2 17.3 3.4 16.9 3.8 C 16.6 4.2 16.4 4.9 16.4 5.7 Z M 22.1 11.1 L 22.1 2.5 L 23.1 2.5 C 23.1 2.5 23.1 3.32 23.1 3.3 C 23.3 3 23.6 2.8 23.9 2.6 C 24.2 2.5 24.5 2.4 24.9 2.4 C 25.4 2.4 25.9 2.5 26.3 2.8 C 26.7 3.1 27 3.4 27.2 3.9 C 27.4 4.4 27.5 5 27.5 5.6 C 27.5 6.2 27.4 6.8 27.2 7.3 C 27 7.8 26.6 8.2 26.2 8.5 C 25.8 8.7 25.3 8.9 24.8 8.9 C 24.5 8.9 24.2 8.8 23.9 8.7 C 23.6 8.5 23.4 8.3 23.2 8.1 C 23.2 8.09 23.2 11.1 23.2 11.1 L 22.1 11.1 Z M 23.1 5.7 C 23.1 6.5 23.3 7.1 23.6 7.4 C 23.9 7.8 24.3 8 24.8 8 C 25.2 8 25.6 7.8 26 7.4 C 26.3 7 26.5 6.4 26.5 5.6 C 26.5 4.8 26.3 4.2 26 3.8 C 25.7 3.4 25.3 3.2 24.8 3.2 C 24.4 3.2 24 3.4 23.6 3.8 C 23.3 4.2 23.1 4.9 23.1 5.7 Z M 28.4 5.6 C 28.4 4.5 28.7 3.6 29.4 3.1 C 29.9 2.6 30.6 2.4 31.3 2.4 C 32.2 2.4 32.9 2.7 33.4 3.2 C 34 3.8 34.3 4.5 34.3 5.5 C 34.3 6.3 34.1 7 33.9 7.4 C 33.7 7.9 33.3 8.2 32.8 8.5 C 32.4 8.7 31.9 8.9 31.3 8.9 C 30.5 8.9 29.8 8.6 29.2 8 C 28.7 7.5 28.4 6.7 28.4 5.6 Z M 29.5 5.6 C 29.5 6.4 29.7 7 30 7.4 C 30.4 7.8 30.8 8 31.3 8 C 31.9 8 32.3 7.8 32.6 7.4 C 33 7 33.2 6.4 33.2 5.6 C 33.2 4.8 33 4.2 32.6 3.8 C 32.3 3.4 31.9 3.2 31.3 3.2 C 30.8 3.2 30.4 3.4 30 3.8 C 29.7 4.2 29.5 4.8 29.5 5.6 Z M 35.5 8.7 L 35.5 2.5 L 36.4 2.5 C 36.4 2.5 36.43 3.46 36.4 3.5 C 36.7 3 36.9 2.7 37.1 2.6 C 37.3 2.4 37.5 2.4 37.8 2.4 C 38.1 2.4 38.5 2.5 38.9 2.7 C 38.9 2.7 38.5 3.7 38.5 3.7 C 38.2 3.5 38 3.5 37.7 3.5 C 37.5 3.5 37.3 3.5 37.1 3.7 C 36.9 3.8 36.8 4 36.7 4.2 C 36.6 4.6 36.5 5 36.5 5.5 C 36.53 5.48 36.5 8.7 36.5 8.7 L 35.5 8.7 Z M 41.3 7.8 C 41.4 7.8 41.6 7.8 41.8 7.8 C 41.8 7.8 41.9 8.7 41.9 8.7 C 41.6 8.8 41.4 8.8 41.1 8.8 C 40.8 8.8 40.5 8.8 40.3 8.6 C 40 8.5 39.9 8.4 39.8 8.2 C 39.7 8 39.7 7.5 39.7 6.9 C 39.68 6.91 39.7 3.3 39.7 3.3 L 38.9 3.3 L 38.9 2.5 L 39.7 2.5 L 39.7 1 L 40.7 0.3 L 40.7 2.5 L 41.8 2.5 L 41.8 3.3 L 40.7 3.3 C 40.7 3.3 40.73 6.97 40.7 7 C 40.7 7.3 40.7 7.5 40.8 7.6 C 40.8 7.6 40.9 7.7 41 7.8 C 41 7.8 41.2 7.8 41.3 7.8 C 41.3 7.8 41.3 7.8 41.3 7.8 Z M 48.3 8.7 L 48.3 1.2 L 45.4 1.2 L 45.4 0.1 L 52.2 0.1 L 52.2 1.2 L 49.4 1.2 L 49.4 8.7 L 48.3 8.7 Z M 56.2 6.7 C 56.2 6.7 57.3 6.9 57.3 6.9 C 57.1 7.5 56.8 8 56.3 8.3 C 55.9 8.7 55.3 8.9 54.6 8.9 C 53.6 8.9 52.9 8.6 52.4 8 C 51.9 7.5 51.6 6.7 51.6 5.7 C 51.6 4.6 51.9 3.8 52.4 3.2 C 52.9 2.7 53.6 2.4 54.5 2.4 C 55.3 2.4 56 2.7 56.5 3.2 C 57.1 3.8 57.3 4.6 57.3 5.6 C 57.3 5.7 57.3 5.8 57.3 5.9 C 57.3 5.9 52.7 5.9 52.7 5.9 C 52.7 6.6 52.9 7.1 53.3 7.5 C 53.6 7.8 54 8 54.6 8 C 54.9 8 55.3 7.9 55.5 7.7 C 55.8 7.5 56 7.2 56.2 6.7 Z M 52.7 5 C 52.7 5 56.2 5 56.2 5 C 56.2 4.5 56 4.1 55.8 3.8 C 55.5 3.4 55 3.2 54.5 3.2 C 54 3.2 53.6 3.4 53.3 3.7 C 53 4.1 52.8 4.5 52.7 5 Z M 62.9 8.7 C 62.8 8.5 62.7 8.3 62.7 8 C 62.3 8.3 61.9 8.5 61.5 8.7 C 61.2 8.8 60.8 8.9 60.4 8.9 C 59.7 8.9 59.2 8.7 58.8 8.4 C 58.4 8 58.3 7.6 58.3 7.1 C 58.3 6.8 58.3 6.5 58.5 6.3 C 58.6 6 58.8 5.8 59 5.7 C 59.2 5.5 59.5 5.4 59.8 5.3 C 60 5.3 60.3 5.2 60.7 5.2 C 61.6 5 62.2 4.9 62.6 4.8 C 62.6 4.6 62.6 4.6 62.6 4.5 C 62.6 4.1 62.5 3.8 62.3 3.6 C 62 3.4 61.6 3.2 61.1 3.2 C 60.6 3.2 60.2 3.3 60 3.5 C 59.8 3.7 59.6 4 59.5 4.4 C 59.5 4.4 58.4 4.3 58.4 4.3 C 58.5 3.8 58.7 3.5 58.9 3.2 C 59.1 2.9 59.4 2.7 59.8 2.6 C 60.2 2.4 60.7 2.4 61.2 2.4 C 61.8 2.4 62.2 2.4 62.5 2.6 C 62.9 2.7 63.1 2.8 63.3 3 C 63.4 3.2 63.5 3.5 63.6 3.8 C 63.6 3.9 63.7 4.3 63.7 4.7 C 63.7 4.7 63.7 6.1 63.7 6.1 C 63.7 7.1 63.7 7.7 63.7 8 C 63.8 8.2 63.9 8.5 64 8.7 C 63.98 8.74 62.9 8.7 62.9 8.7 C 62.9 8.7 62.88 8.74 62.9 8.7 Z M 62.6 5.6 C 62.2 5.8 61.6 5.9 60.9 6 C 60.4 6.1 60.1 6.1 59.9 6.2 C 59.8 6.3 59.6 6.4 59.5 6.6 C 59.4 6.7 59.4 6.9 59.4 7.1 C 59.4 7.3 59.5 7.6 59.7 7.8 C 59.9 8 60.2 8.1 60.6 8.1 C 61 8.1 61.4 8 61.7 7.8 C 62 7.6 62.3 7.4 62.4 7.1 C 62.5 6.8 62.6 6.5 62.6 6 C 62.6 6 62.6 5.6 62.6 5.6 Z M 65.3 8.7 L 65.3 2.5 L 66.2 2.5 C 66.2 2.5 66.23 3.39 66.2 3.4 C 66.4 3.1 66.7 2.8 67 2.7 C 67.3 2.5 67.7 2.4 68.1 2.4 C 68.6 2.4 69 2.5 69.2 2.7 C 69.5 2.9 69.8 3.1 69.9 3.5 C 70.4 2.7 71 2.4 71.8 2.4 C 72.4 2.4 72.9 2.5 73.2 2.9 C 73.6 3.2 73.7 3.8 73.7 4.5 C 73.72 4.46 73.7 8.7 73.7 8.7 L 72.7 8.7 C 72.7 8.7 72.67 4.82 72.7 4.8 C 72.7 4.4 72.6 4.1 72.6 3.9 C 72.5 3.7 72.4 3.6 72.2 3.5 C 72 3.3 71.8 3.3 71.6 3.3 C 71.1 3.3 70.8 3.4 70.5 3.7 C 70.2 4 70 4.5 70 5.1 C 70.04 5.12 70 8.7 70 8.7 L 69 8.7 C 69 8.7 68.98 4.69 69 4.7 C 69 4.2 68.9 3.9 68.7 3.6 C 68.6 3.4 68.3 3.3 67.9 3.3 C 67.6 3.3 67.3 3.4 67.1 3.5 C 66.8 3.7 66.6 3.9 66.5 4.2 C 66.4 4.5 66.3 4.9 66.3 5.5 C 66.34 5.51 66.3 8.7 66.3 8.7 L 65.3 8.7 Z " stroke="none" fill="#000"/>  </g></svg>