<?xml version="1.0" standalone="no"?><!DOCTYPE svg PUBLIC "-//W3C//DTD SVG 1.1//EN" "http://www.w3.org/Graphics/SVG/1.1/DTD/svg11.dtd"><svg xmlns="http://www.w3.org/2000/svg" version="1.1" width="34px" height="40.1px" viewBox="0 -8 34 40.1" style="top:-8px">  <desc>4.3</desc>  <defs/>  <g id="Polygon5741">    <path d="M 7.5 17.5 L 7.5 14 L 0.4 14 L 0.4 11.1 L 7.9 0.2 L 10.7 0.2 L 10.7 11.1 L 12.8 11.1 L 12.8 14 L 10.7 14 L 10.7 17.5 L 7.5 17.5 Z M 7.5 11.1 L 7.5 5.3 L 3.5 11.1 L 7.5 11.1 Z M 15.1 17.5 L 15.1 14.2 L 18.4 14.2 L 18.4 17.5 L 15.1 17.5 Z M 20.9 12.9 C 20.9 12.9 24.1 12.5 24.1 12.5 C 24.2 13.3 24.5 14 24.9 14.4 C 25.4 14.8 25.9 15 26.5 15 C 27.2 15 27.8 14.8 28.3 14.3 C 28.7 13.7 29 13.1 29 12.2 C 29 11.3 28.7 10.7 28.3 10.2 C 27.8 9.7 27.3 9.5 26.7 9.5 C 26.2 9.5 25.7 9.6 25.1 9.7 C 25.1 9.7 25.5 7 25.5 7 C 26.4 7.1 27.1 6.9 27.6 6.5 C 28 6.1 28.3 5.5 28.3 4.8 C 28.3 4.3 28.1 3.8 27.7 3.4 C 27.4 3.1 26.9 2.9 26.4 2.9 C 25.8 2.9 25.3 3.1 24.9 3.5 C 24.5 3.9 24.3 4.5 24.2 5.2 C 24.2 5.2 21.2 4.7 21.2 4.7 C 21.4 3.7 21.7 2.8 22.1 2.2 C 22.5 1.6 23.1 1.1 23.9 0.8 C 24.7 0.4 25.5 0.2 26.5 0.2 C 28.1 0.2 29.4 0.7 30.4 1.8 C 31.2 2.6 31.6 3.6 31.6 4.6 C 31.6 6.1 30.7 7.3 29.1 8.2 C 30.1 8.4 30.9 8.9 31.4 9.7 C 32 10.4 32.3 11.3 32.3 12.3 C 32.3 13.8 31.8 15.1 30.7 16.2 C 29.6 17.2 28.2 17.8 26.6 17.8 C 25 17.8 23.7 17.3 22.7 16.4 C 21.7 15.5 21.1 14.4 20.9 12.9 Z " stroke="none" fill="#000"/>  </g></svg>