<?xml version="1.0" standalone="no"?><!DOCTYPE svg PUBLIC "-//W3C//DTD SVG 1.1//EN" "http://www.w3.org/Graphics/SVG/1.1/DTD/svg11.dtd"><svg xmlns="http://www.w3.org/2000/svg" version="1.1" width="73.5px" height="27.5px" viewBox="0 -1 73.5 27.5" style="top:-1px">  <desc>Authenticity</desc>  <defs/>  <g id="Polygon50641">    <path d="M 5.7 15.9 L 9 7.3 L 10.2 7.3 L 13.7 15.9 L 12.5 15.9 L 11.5 13.3 L 7.9 13.3 L 6.9 15.9 L 5.7 15.9 Z M 8.2 12.4 L 11.1 12.4 C 11.1 12.4 10.2 10.03 10.2 10 C 9.9 9.3 9.7 8.7 9.6 8.2 C 9.5 8.8 9.3 9.3 9.1 9.9 C 9.13 9.89 8.2 12.4 8.2 12.4 Z M 18.6 15.9 C 18.6 15.9 18.6 15.02 18.6 15 C 18.1 15.7 17.5 16.1 16.6 16.1 C 16.3 16.1 15.9 16 15.6 15.9 C 15.3 15.7 15 15.5 14.9 15.3 C 14.7 15.1 14.6 14.9 14.6 14.6 C 14.5 14.3 14.5 14 14.5 13.6 C 14.5 13.57 14.5 9.7 14.5 9.7 L 15.6 9.7 C 15.6 9.7 15.55 13.16 15.6 13.2 C 15.6 13.7 15.6 14.1 15.6 14.3 C 15.7 14.6 15.8 14.8 16 14.9 C 16.3 15.1 16.5 15.2 16.8 15.2 C 17.2 15.2 17.4 15.1 17.7 14.9 C 18 14.8 18.2 14.5 18.3 14.3 C 18.4 14 18.5 13.6 18.5 13 C 18.49 13.05 18.5 9.7 18.5 9.7 L 19.5 9.7 L 19.5 15.9 L 18.6 15.9 Z M 23 15 C 23.2 15 23.3 15 23.5 15 C 23.5 15 23.6 15.9 23.6 15.9 C 23.4 16 23.1 16 22.9 16 C 22.5 16 22.2 16 22 15.8 C 21.8 15.7 21.6 15.6 21.5 15.4 C 21.4 15.2 21.4 14.7 21.4 14.1 C 21.39 14.11 21.4 10.5 21.4 10.5 L 20.6 10.5 L 20.6 9.7 L 21.4 9.7 L 21.4 8.2 L 22.4 7.5 L 22.4 9.7 L 23.5 9.7 L 23.5 10.5 L 22.4 10.5 C 22.4 10.5 22.44 14.17 22.4 14.2 C 22.4 14.5 22.5 14.7 22.5 14.8 C 22.5 14.8 22.6 14.9 22.7 15 C 22.8 15 22.9 15 23 15 C 23 15 23 15 23 15 Z M 24.5 15.9 L 24.5 7.3 L 25.6 7.3 C 25.6 7.3 25.58 10.43 25.6 10.4 C 26.1 9.9 26.7 9.6 27.4 9.6 C 27.9 9.6 28.3 9.7 28.6 9.8 C 29 10 29.2 10.3 29.4 10.6 C 29.5 10.9 29.6 11.4 29.6 12 C 29.6 11.99 29.6 15.9 29.6 15.9 L 28.5 15.9 C 28.5 15.9 28.54 11.99 28.5 12 C 28.5 11.5 28.4 11.1 28.2 10.8 C 28 10.6 27.6 10.5 27.2 10.5 C 26.9 10.5 26.6 10.6 26.3 10.7 C 26.1 10.9 25.9 11.1 25.8 11.4 C 25.6 11.7 25.6 12 25.6 12.5 C 25.58 12.53 25.6 15.9 25.6 15.9 L 24.5 15.9 Z M 35.5 13.9 C 35.5 13.9 36.6 14.1 36.6 14.1 C 36.4 14.7 36.1 15.2 35.6 15.5 C 35.1 15.9 34.5 16.1 33.8 16.1 C 32.9 16.1 32.2 15.8 31.7 15.2 C 31.1 14.7 30.9 13.9 30.9 12.9 C 30.9 11.8 31.1 11 31.7 10.4 C 32.2 9.9 32.9 9.6 33.8 9.6 C 34.6 9.6 35.3 9.9 35.8 10.4 C 36.3 11 36.6 11.8 36.6 12.8 C 36.6 12.9 36.6 13 36.6 13.1 C 36.6 13.1 31.9 13.1 31.9 13.1 C 32 13.8 32.2 14.3 32.5 14.7 C 32.9 15 33.3 15.2 33.8 15.2 C 34.2 15.2 34.5 15.1 34.8 14.9 C 35.1 14.7 35.3 14.4 35.5 13.9 Z M 32 12.2 C 32 12.2 35.5 12.2 35.5 12.2 C 35.4 11.7 35.3 11.3 35.1 11 C 34.7 10.6 34.3 10.4 33.8 10.4 C 33.3 10.4 32.9 10.6 32.5 10.9 C 32.2 11.3 32 11.7 32 12.2 Z M 37.9 15.9 L 37.9 9.7 L 38.8 9.7 C 38.8 9.7 38.83 10.6 38.8 10.6 C 39.3 9.9 39.9 9.6 40.8 9.6 C 41.2 9.6 41.5 9.6 41.8 9.8 C 42.2 9.9 42.4 10.1 42.5 10.3 C 42.7 10.5 42.8 10.8 42.9 11.1 C 42.9 11.3 42.9 11.6 42.9 12.1 C 42.93 12.11 42.9 15.9 42.9 15.9 L 41.9 15.9 C 41.9 15.9 41.88 12.15 41.9 12.2 C 41.9 11.7 41.8 11.4 41.8 11.2 C 41.7 11 41.5 10.8 41.3 10.7 C 41.1 10.6 40.9 10.5 40.6 10.5 C 40.1 10.5 39.7 10.6 39.4 10.9 C 39.1 11.2 38.9 11.7 38.9 12.5 C 38.93 12.54 38.9 15.9 38.9 15.9 L 37.9 15.9 Z M 46.4 15 C 46.5 15 46.7 15 46.9 15 C 46.9 15 47 15.9 47 15.9 C 46.7 16 46.4 16 46.2 16 C 45.8 16 45.5 16 45.3 15.8 C 45.1 15.7 45 15.6 44.9 15.4 C 44.8 15.2 44.7 14.7 44.7 14.1 C 44.74 14.11 44.7 10.5 44.7 10.5 L 44 10.5 L 44 9.7 L 44.7 9.7 L 44.7 8.2 L 45.8 7.5 L 45.8 9.7 L 46.9 9.7 L 46.9 10.5 L 45.8 10.5 C 45.8 10.5 45.79 14.17 45.8 14.2 C 45.8 14.5 45.8 14.7 45.8 14.8 C 45.9 14.8 45.9 14.9 46 15 C 46.1 15 46.2 15 46.4 15 C 46.4 15 46.4 15 46.4 15 Z M 47.9 8.6 L 47.9 7.3 L 48.9 7.3 L 48.9 8.6 L 47.9 8.6 Z M 47.9 15.9 L 47.9 9.7 L 48.9 9.7 L 48.9 15.9 L 47.9 15.9 Z M 54.6 13.7 C 54.6 13.7 55.6 13.8 55.6 13.8 C 55.5 14.5 55.2 15.1 54.8 15.5 C 54.3 15.9 53.7 16.1 53.1 16.1 C 52.2 16.1 51.5 15.8 51 15.2 C 50.5 14.7 50.2 13.9 50.2 12.8 C 50.2 12.2 50.3 11.6 50.6 11.1 C 50.8 10.6 51.1 10.2 51.6 10 C 52 9.7 52.5 9.6 53.1 9.6 C 53.7 9.6 54.3 9.7 54.7 10.1 C 55.2 10.4 55.4 10.9 55.5 11.5 C 55.5 11.5 54.5 11.7 54.5 11.7 C 54.4 11.3 54.3 11 54 10.8 C 53.8 10.5 53.5 10.4 53.1 10.4 C 52.6 10.4 52.1 10.6 51.8 11 C 51.5 11.4 51.3 12 51.3 12.8 C 51.3 13.7 51.5 14.3 51.8 14.6 C 52.1 15 52.5 15.2 53 15.2 C 53.5 15.2 53.8 15.1 54.1 14.8 C 54.4 14.6 54.5 14.2 54.6 13.7 Z M 56.6 8.6 L 56.6 7.3 L 57.6 7.3 L 57.6 8.6 L 56.6 8.6 Z M 56.6 15.9 L 56.6 9.7 L 57.6 9.7 L 57.6 15.9 L 56.6 15.9 Z M 61.1 15 C 61.2 15 61.3 15 61.5 15 C 61.5 15 61.7 15.9 61.7 15.9 C 61.4 16 61.1 16 60.9 16 C 60.5 16 60.2 16 60 15.8 C 59.8 15.7 59.6 15.6 59.5 15.4 C 59.5 15.2 59.4 14.7 59.4 14.1 C 59.41 14.11 59.4 10.5 59.4 10.5 L 58.6 10.5 L 58.6 9.7 L 59.4 9.7 L 59.4 8.2 L 60.5 7.5 L 60.5 9.7 L 61.5 9.7 L 61.5 10.5 L 60.5 10.5 C 60.5 10.5 60.46 14.17 60.5 14.2 C 60.5 14.5 60.5 14.7 60.5 14.8 C 60.6 14.8 60.6 14.9 60.7 15 C 60.8 15 60.9 15 61.1 15 C 61.1 15 61.1 15 61.1 15 Z M 63.2 18.5 C 63 18.5 62.8 18.4 62.5 18.3 C 62.5 18.3 62.4 17.3 62.4 17.3 C 62.6 17.4 62.8 17.4 63 17.4 C 63.2 17.4 63.4 17.4 63.6 17.3 C 63.7 17.2 63.8 17.1 63.9 17 C 64 16.9 64.1 16.6 64.2 16.2 C 64.2 16.1 64.3 16.1 64.3 15.9 C 64.31 15.95 62 9.7 62 9.7 L 63.1 9.7 C 63.1 9.7 64.38 13.32 64.4 13.3 C 64.6 13.8 64.7 14.3 64.8 14.8 C 65 14.3 65.1 13.8 65.3 13.3 C 65.27 13.34 66.6 9.7 66.6 9.7 L 67.7 9.7 C 67.7 9.7 65.29 16.04 65.3 16 C 65 16.7 64.8 17.2 64.7 17.5 C 64.5 17.8 64.3 18.1 64 18.2 C 63.8 18.4 63.5 18.5 63.2 18.5 C 63.2 18.5 63.2 18.5 63.2 18.5 Z " stroke="none" fill="#000"/>  </g></svg>