<?xml version="1.0" standalone="no"?><!DOCTYPE svg PUBLIC "-//W3C//DTD SVG 1.1//EN" "http://www.w3.org/Graphics/SVG/1.1/DTD/svg11.dtd"><svg xmlns="http://www.w3.org/2000/svg" version="1.1" width="86px" height="38.8px" viewBox="0 -7 86 38.8" style="top:-7px">  <desc>Survey</desc>  <defs/>  <g id="Polygon28621">    <path d="M 9.8 2 C 9.8 2 9.8 4.2 9.8 4.2 C 8.7 3.2 7.4 2.6 6 2.6 C 4.2 2.6 3 3.6 3 5.1 C 3 6.2 3.3 7.2 6.1 8.6 C 9.6 10.5 10.5 11.7 10.5 14 C 10.5 16.5 8.5 18.4 5.6 18.4 C 4 18.4 2.5 17.9 1.2 16.9 C 1.2 16.9 1.2 14.6 1.2 14.6 C 2.5 16 4 16.8 5.6 16.8 C 7.3 16.8 8.6 15.7 8.6 14 C 8.6 12.6 8.1 11.7 4.8 10 C 2.1 8.6 1.1 7.3 1.1 5.2 C 1.1 2.7 3.2 0.9 6 0.9 C 7.3 0.9 8.7 1.3 9.8 2 Z M 15 1.2 C 15 1.2 15.05 11 15 11 C 15 14.8 16.8 16.8 20.3 16.8 C 23.9 16.8 25.6 14.7 25.6 11 C 25.6 11 25.6 1.2 25.6 1.2 L 27.5 1.2 C 27.5 1.2 27.47 11 27.5 11 C 27.5 15.5 25.1 18.4 20.4 18.4 C 15.7 18.4 13.2 15.8 13.2 11 C 13.17 11 13.2 1.2 13.2 1.2 L 15 1.2 Z M 31.1 1.2 C 31.1 1.2 35.57 1.17 35.6 1.2 C 39 1.2 40.8 3.1 40.8 5.7 C 40.8 7.9 39.6 9.3 37.5 9.9 C 38.6 10.5 39.1 11 40.5 13.1 C 40.55 13.12 43.8 18.2 43.8 18.2 L 41.6 18.2 C 41.6 18.2 38.62 13.52 38.6 13.5 C 37 11 36 10.5 34.5 10.5 C 34.55 10.47 33 10.5 33 10.5 L 33 18.2 L 31.1 18.2 L 31.1 1.2 Z M 34.7 8.8 C 37.1 8.8 38.8 8.2 38.8 5.8 C 38.8 3.7 37.5 2.8 35.3 2.8 C 35.32 2.82 33 2.8 33 2.8 L 33 8.8 C 33 8.8 34.72 8.82 34.7 8.8 Z M 43 1.2 L 44.8 1.2 L 50.4 14.4 L 50.4 14.4 L 55.9 1.2 L 57.8 1.2 L 50.6 18.4 L 50.2 18.4 L 43 1.2 Z M 69.1 1.2 L 69.1 2.8 L 61.6 2.8 L 61.6 8.8 L 68.8 8.8 L 68.8 10.5 L 61.6 10.5 L 61.6 16.5 L 69.3 16.5 L 69.3 18.2 L 59.8 18.2 L 59.8 1.2 L 69.1 1.2 Z M 73.2 1.2 L 78.2 7.5 L 83.3 1.2 L 85.6 1.2 L 79.2 9.1 L 79.2 18.2 L 77.3 18.2 L 77.3 9.1 L 70.9 1.2 L 73.2 1.2 Z " stroke="none" fill="#010102"/>  </g></svg>