<?xml version="1.0" standalone="no"?><!DOCTYPE svg PUBLIC "-//W3C//DTD SVG 1.1//EN" "http://www.w3.org/Graphics/SVG/1.1/DTD/svg11.dtd"><svg xmlns="http://www.w3.org/2000/svg" version="1.1" width="713px" height="90.3px" viewBox="0 -14 713 90.3" style="top:-14px">  <desc>Introduction to DSW</desc>  <defs/>  <g id="Polygon5444">    <path d="M 10.4 2.8 L 10.4 43.7 L 4.5 43.7 L 4.5 2.8 L 10.4 2.8 Z M 24.2 2.8 L 51.7 34.6 L 51.7 2.8 L 57.3 2.8 L 57.3 43.7 L 52.2 43.7 L 25 12.2 L 25 43.7 L 19.4 43.7 L 19.4 2.8 L 24.2 2.8 Z M 97 2.8 L 97 8 L 82.7 8 L 82.7 43.7 L 76.9 43.7 L 76.9 8 L 62.8 8 L 62.8 2.8 L 97 2.8 Z M 113.8 2.8 C 122 2.8 126.2 8.2 126.2 14.2 C 126.2 19 123.9 22.5 119.4 24.3 C 121.8 25.9 122.9 26.8 126.9 32.8 C 126.9 32.82 134.1 43.7 134.1 43.7 L 127.1 43.7 C 127.1 43.7 120.66 33.66 120.7 33.7 C 116.5 27.2 113.9 25.9 111.1 25.9 C 111.06 25.92 108.4 25.9 108.4 25.9 L 108.4 43.7 L 102.5 43.7 L 102.5 2.8 C 102.5 2.8 113.82 2.82 113.8 2.8 Z M 108.4 20.8 C 108.4 20.8 112.2 20.76 112.2 20.8 C 116.5 20.8 120.2 19.7 120.2 14.2 C 120.2 10.3 117.8 8 113.4 8 C 113.4 7.98 108.4 8 108.4 8 L 108.4 20.8 Z M 179.6 23.2 C 179.6 34.1 171.4 44.3 157.2 44.3 C 144.2 44.3 135.6 34.6 135.6 23.4 C 135.6 12.7 143.3 2.3 157.5 2.3 C 170.5 2.3 179.6 11.6 179.6 23.2 Z M 141.7 23.4 C 141.7 32.5 148.9 38.8 157.3 38.8 C 166 38.8 173.5 33.6 173.5 23.2 C 173.5 16.2 168.2 7.8 157.7 7.8 C 147.5 7.8 141.7 14.7 141.7 23.4 Z M 202.3 2.8 C 216 2.8 224.4 11.3 224.4 22.8 C 224.4 35.5 215.3 43.7 202.4 43.7 C 202.38 43.74 186.8 43.7 186.8 43.7 L 186.8 2.8 C 186.8 2.8 202.32 2.82 202.3 2.8 Z M 202.1 38.5 C 212.4 38.5 218.3 32.7 218.3 23 C 218.3 14.2 212.8 8 201.2 8 C 201.24 8.04 192.7 8 192.7 8 L 192.7 38.5 C 192.7 38.5 202.08 38.46 202.1 38.5 Z M 236.9 2.8 C 236.9 2.8 236.94 26.52 236.9 26.5 C 236.9 35.6 240.9 39.1 248.7 39.1 C 256.5 39.1 260.3 35.4 260.3 26.5 C 260.34 26.46 260.3 2.8 260.3 2.8 L 266.2 2.8 C 266.2 2.8 266.22 26.46 266.2 26.5 C 266.2 37.6 260.5 44.3 248.7 44.3 C 237.4 44.3 231.1 38.6 231.1 26.5 C 231.06 26.52 231.1 2.8 231.1 2.8 L 236.9 2.8 Z M 309.4 5.6 C 309.4 5.6 309.4 11.8 309.4 11.8 C 305 9.4 300.2 7.7 295.2 7.7 C 285.2 7.7 279 15.4 279 23.4 C 279 31.4 284.9 38.8 295.1 38.8 C 300.5 38.8 305.3 37.2 309.8 34.3 C 309.8 34.3 309.8 40.7 309.8 40.7 C 305 43.3 300.1 44.3 294.9 44.3 C 279.8 44.3 272.9 32.9 272.9 23.3 C 272.9 11.3 282.8 2.3 295 2.3 C 299.6 2.3 304.4 3.4 309.4 5.6 Z M 348.4 2.8 L 348.4 8 L 334.1 8 L 334.1 43.7 L 328.3 43.7 L 328.3 8 L 314.2 8 L 314.2 2.8 L 348.4 2.8 Z M 359.8 2.8 L 359.8 43.7 L 353.9 43.7 L 353.9 2.8 L 359.8 2.8 Z M 411 23.2 C 411 34.1 402.8 44.3 388.6 44.3 C 375.7 44.3 367 34.6 367 23.4 C 367 12.7 374.7 2.3 388.9 2.3 C 401.9 2.3 411 11.6 411 23.2 Z M 373.1 23.4 C 373.1 32.5 380.3 38.8 388.7 38.8 C 397.4 38.8 404.9 33.6 404.9 23.2 C 404.9 16.2 399.6 7.8 389.1 7.8 C 379 7.8 373.1 14.7 373.1 23.4 Z M 423.1 2.8 L 450.5 34.6 L 450.5 2.8 L 456.1 2.8 L 456.1 43.7 L 451 43.7 L 423.8 12.2 L 423.8 43.7 L 418.2 43.7 L 418.2 2.8 L 423.1 2.8 Z M 512.5 2.8 L 512.5 8 L 498.2 8 L 498.2 43.7 L 492.4 43.7 L 492.4 8 L 478.3 8 L 478.3 2.8 L 512.5 2.8 Z M 557.6 23.2 C 557.6 34.1 549.5 44.3 535.3 44.3 C 522.3 44.3 513.7 34.6 513.7 23.4 C 513.7 12.7 521.3 2.3 535.6 2.3 C 548.6 2.3 557.6 11.6 557.6 23.2 Z M 519.7 23.4 C 519.7 32.5 527 38.8 535.4 38.8 C 544.1 38.8 551.6 33.6 551.6 23.2 C 551.6 16.2 546.2 7.8 535.7 7.8 C 525.6 7.8 519.7 14.7 519.7 23.4 Z M 597.1 2.8 C 610.7 2.8 619.1 11.3 619.1 22.8 C 619.1 35.5 610.1 43.7 597.1 43.7 C 597.11 43.74 581.5 43.7 581.5 43.7 L 581.5 2.8 C 581.5 2.8 597.05 2.82 597.1 2.8 Z M 596.8 38.5 C 607.1 38.5 613.1 32.7 613.1 23 C 613.1 14.2 607.6 8 596 8 C 595.97 8.04 587.4 8 587.4 8 L 587.4 38.5 C 587.4 38.5 596.81 38.46 596.8 38.5 Z M 646.2 5.2 C 646.2 5.2 646.2 11.8 646.2 11.8 C 643.4 9.1 640.3 7.6 636.6 7.6 C 632.9 7.6 630.6 9.5 630.6 12.3 C 630.6 14.6 631.1 16.6 637.3 20.2 C 646 25.1 647.8 28 647.8 33.6 C 647.8 39.6 643.1 44.3 635.9 44.3 C 631.9 44.3 628.1 42.9 624.9 40.5 C 624.9 40.5 624.9 33.1 624.9 33.1 C 627.8 36.8 631.7 39.1 635.9 39.1 C 639.4 39.1 641.9 36.8 641.9 33.7 C 641.9 30.9 641.2 29 633.1 24.3 C 627 20.8 624.7 17.5 624.7 12.5 C 624.7 6.7 629.8 2.3 636.8 2.3 C 640.1 2.3 643.4 3.3 646.2 5.2 Z M 656.3 2.8 L 667.6 31 L 679 2.8 L 684.5 2.8 L 695.9 31 L 707.1 2.8 L 712.9 2.8 L 696.4 44 L 695.1 44 L 681.7 10.6 L 668.2 44 L 667 44 L 650.5 2.8 L 656.3 2.8 Z " stroke="none" fill="#ffffff"/>  </g></svg>