<?xml version="1.0" standalone="no"?><!DOCTYPE svg PUBLIC "-//W3C//DTD SVG 1.1//EN" "http://www.w3.org/Graphics/SVG/1.1/DTD/svg11.dtd"><svg xmlns="http://www.w3.org/2000/svg" version="1.1" width="702.1px" height="181.5px" viewBox="0 -1 702.1 181.5" style="top:-1px">  <desc>Case Studies</desc>  <defs/>  <g id="Polygon7661">    <path d="M 212 69.3 C 212 69.3 212 73.4 212 73.4 C 208.4 71.3 204.5 70.1 200.5 70.1 C 191.7 70.1 186.2 76.7 186.2 84.2 C 186.2 91.8 191.7 98.1 200.4 98.1 C 204.6 98.1 208.6 96.9 212.2 94.6 C 212.2 94.6 212.2 98.8 212.2 98.8 C 208.5 100.7 204.5 101.6 200.3 101.6 C 188.5 101.6 182.4 92.8 182.4 84.3 C 182.4 74.1 190.2 66.6 200.4 66.6 C 204.2 66.6 208.1 67.6 212 69.3 Z M 232.6 66.9 L 247.8 101.2 L 243.9 101.2 L 239.1 90.5 L 223.6 90.5 L 219 101.2 L 215.2 101.2 L 229.9 66.9 L 232.6 66.9 Z M 225.1 87.1 L 237.6 87.1 L 231.2 72.6 L 225.1 87.1 Z M 268.3 68.8 C 268.3 68.8 268.3 73.1 268.3 73.1 C 265.9 71.1 263.4 70 260.6 70 C 257 70 254.6 72 254.6 75 C 254.6 77.2 255.2 79.2 260.8 82 C 267.9 85.7 269.6 88.1 269.6 92.8 C 269.6 97.8 265.7 101.6 259.8 101.6 C 256.6 101.6 253.6 100.6 251 98.6 C 251 98.6 251 93.9 251 93.9 C 253.5 96.7 256.5 98.3 259.8 98.3 C 263.3 98.3 265.8 96.1 265.8 92.8 C 265.8 89.9 264.8 88.2 258.2 84.8 C 252.9 82 250.8 79.4 250.8 75.1 C 250.8 70.2 255 66.6 260.7 66.6 C 263.3 66.6 266 67.4 268.3 68.8 Z M 294.1 67.1 L 294.1 70.4 L 279.2 70.4 L 279.2 82.3 L 293.6 82.3 L 293.6 85.7 L 279.2 85.7 L 279.2 97.8 L 294.5 97.8 L 294.5 101.2 L 275.4 101.2 L 275.4 67.1 L 294.1 67.1 Z M 330.2 68.8 C 330.2 68.8 330.2 73.1 330.2 73.1 C 327.9 71.1 325.3 70 322.5 70 C 318.9 70 316.6 72 316.6 75 C 316.6 77.2 317.1 79.2 322.8 82 C 329.8 85.7 331.5 88.1 331.5 92.8 C 331.5 97.8 327.6 101.6 321.8 101.6 C 318.5 101.6 315.5 100.6 312.9 98.6 C 312.9 98.6 312.9 93.9 312.9 93.9 C 315.5 96.7 318.5 98.3 321.8 98.3 C 325.2 98.3 327.7 96.1 327.7 92.8 C 327.7 89.9 326.8 88.2 320.2 84.8 C 314.8 82 312.8 79.4 312.8 75.1 C 312.8 70.2 316.9 66.6 322.6 66.6 C 325.3 66.6 327.9 67.4 330.2 68.8 Z M 362.3 67.1 L 362.3 70.4 L 350.1 70.4 L 350.1 101.2 L 346.3 101.2 L 346.3 70.4 L 334.3 70.4 L 334.3 67.1 L 362.3 67.1 Z M 370.2 67.1 C 370.2 67.1 370.2 86.73 370.2 86.7 C 370.2 94.3 373.7 98.3 380.7 98.3 C 387.8 98.3 391.3 94.1 391.3 86.7 C 391.3 86.73 391.3 67.1 391.3 67.1 L 395 67.1 C 395 67.1 395.05 86.73 395 86.7 C 395 95.7 390.3 101.6 380.8 101.6 C 371.4 101.6 366.4 96.3 366.4 86.7 C 366.45 86.73 366.4 67.1 366.4 67.1 L 370.2 67.1 Z M 402.3 67.1 C 402.3 67.1 414.85 67.08 414.8 67.1 C 426 67.1 433.2 74 433.2 83.8 C 433.2 94.4 425.7 101.2 414.8 101.2 C 414.85 101.18 402.3 101.2 402.3 101.2 L 402.3 67.1 Z M 414.8 97.8 C 423.7 97.8 429.3 92.5 429.3 84.1 C 429.3 75.8 423.9 70.4 414.2 70.4 C 414.25 70.43 406 70.4 406 70.4 L 406 97.8 C 406 97.8 414.8 97.78 414.8 97.8 Z M 443.2 67.1 L 443.2 101.2 L 439.4 101.2 L 439.4 67.1 L 443.2 67.1 Z M 469.5 67.1 L 469.5 70.4 L 454.6 70.4 L 454.6 82.3 L 469 82.3 L 469 85.7 L 454.6 85.7 L 454.6 97.8 L 469.9 97.8 L 469.9 101.2 L 450.8 101.2 L 450.8 67.1 L 469.5 67.1 Z M 491.7 68.8 C 491.7 68.8 491.7 73.1 491.7 73.1 C 489.4 71.1 486.8 70 484 70 C 480.4 70 478.1 72 478.1 75 C 478.1 77.2 478.6 79.2 484.3 82 C 491.3 85.7 493 88.1 493 92.8 C 493 97.8 489.1 101.6 483.3 101.6 C 480 101.6 477 100.6 474.4 98.6 C 474.4 98.6 474.4 93.9 474.4 93.9 C 477 96.7 480 98.3 483.3 98.3 C 486.7 98.3 489.2 96.1 489.2 92.8 C 489.2 89.9 488.3 88.2 481.7 84.8 C 476.3 82 474.3 79.4 474.3 75.1 C 474.3 70.2 478.4 66.6 484.1 66.6 C 486.8 66.6 489.4 67.4 491.7 68.8 Z " stroke="none" fill="#000000"/>  </g></svg>