<?xml version="1.0" standalone="no"?><!DOCTYPE svg PUBLIC "-//W3C//DTD SVG 1.1//EN" "http://www.w3.org/Graphics/SVG/1.1/DTD/svg11.dtd"><svg xmlns="http://www.w3.org/2000/svg" version="1.1" width="92px" height="59.4px" viewBox="0 -1 92 59.4" style="top:-1px">  <desc>About</desc>  <defs/>  <g id="Polygon45306">    <path d="M 24.9 32.9 L 29.3 21.5 L 31 21.5 L 35.7 32.9 L 33.9 32.9 L 32.6 29.4 L 27.8 29.4 L 26.6 32.9 L 24.9 32.9 Z M 28.3 28.2 L 32.1 28.2 C 32.1 28.2 30.94 25.04 30.9 25 C 30.6 24.1 30.3 23.3 30.1 22.7 C 30 23.4 29.8 24.1 29.5 24.9 C 29.51 24.85 28.3 28.2 28.3 28.2 Z M 38 32.9 L 36.7 32.9 L 36.7 21.5 L 38.1 21.5 C 38.1 21.5 38.1 25.55 38.1 25.6 C 38.7 24.8 39.4 24.4 40.4 24.4 C 40.9 24.4 41.4 24.5 41.8 24.7 C 42.3 24.9 42.7 25.2 42.9 25.6 C 43.2 26 43.5 26.4 43.6 27 C 43.8 27.5 43.9 28 43.9 28.6 C 43.9 30.1 43.5 31.2 42.8 31.9 C 42.1 32.7 41.3 33.1 40.3 33.1 C 39.3 33.1 38.6 32.7 38 31.9 C 38 31.88 38 32.9 38 32.9 Z M 38 28.7 C 38 29.7 38.1 30.4 38.4 30.9 C 38.8 31.6 39.4 31.9 40.2 31.9 C 40.8 31.9 41.3 31.7 41.8 31.1 C 42.2 30.6 42.4 29.8 42.4 28.8 C 42.4 27.7 42.2 26.9 41.8 26.4 C 41.4 25.8 40.9 25.6 40.2 25.6 C 39.6 25.6 39.1 25.9 38.7 26.4 C 38.2 26.9 38 27.7 38 28.7 Z M 45.1 28.8 C 45.1 27.2 45.5 26.1 46.4 25.4 C 47.1 24.7 47.9 24.4 49 24.4 C 50.1 24.4 51 24.8 51.8 25.6 C 52.5 26.3 52.8 27.3 52.8 28.7 C 52.8 29.7 52.7 30.6 52.4 31.2 C 52 31.8 51.6 32.3 51 32.6 C 50.4 32.9 49.7 33.1 49 33.1 C 47.8 33.1 46.9 32.7 46.1 32 C 45.4 31.2 45.1 30.2 45.1 28.8 Z M 46.5 28.8 C 46.5 29.8 46.8 30.6 47.2 31.2 C 47.7 31.7 48.3 31.9 49 31.9 C 49.7 31.9 50.2 31.7 50.7 31.2 C 51.2 30.6 51.4 29.8 51.4 28.7 C 51.4 27.7 51.2 26.9 50.7 26.4 C 50.2 25.9 49.7 25.6 49 25.6 C 48.3 25.6 47.7 25.9 47.2 26.4 C 46.8 26.9 46.5 27.7 46.5 28.8 Z M 59.9 32.9 C 59.9 32.9 59.93 31.7 59.9 31.7 C 59.3 32.6 58.4 33.1 57.3 33.1 C 56.8 33.1 56.4 33 55.9 32.8 C 55.5 32.6 55.2 32.4 55 32.1 C 54.8 31.8 54.6 31.5 54.6 31.1 C 54.5 30.8 54.5 30.4 54.5 29.8 C 54.47 29.76 54.5 24.6 54.5 24.6 L 55.9 24.6 C 55.9 24.6 55.87 29.22 55.9 29.2 C 55.9 30 55.9 30.5 56 30.7 C 56 31.1 56.2 31.4 56.5 31.6 C 56.8 31.8 57.2 31.9 57.6 31.9 C 58 31.9 58.4 31.8 58.8 31.6 C 59.1 31.4 59.4 31.1 59.6 30.7 C 59.7 30.3 59.8 29.8 59.8 29.1 C 59.79 29.07 59.8 24.6 59.8 24.6 L 61.2 24.6 L 61.2 32.9 L 59.9 32.9 Z M 65.8 31.7 C 66 31.7 66.2 31.7 66.5 31.7 C 66.5 31.7 66.7 32.9 66.7 32.9 C 66.3 33 65.9 33 65.6 33 C 65.1 33 64.7 32.9 64.4 32.8 C 64.1 32.6 63.9 32.4 63.8 32.1 C 63.7 31.9 63.7 31.3 63.7 30.5 C 63.65 30.49 63.7 25.7 63.7 25.7 L 62.6 25.7 L 62.6 24.6 L 63.7 24.6 L 63.7 22.6 L 65.1 21.7 L 65.1 24.6 L 66.5 24.6 L 66.5 25.7 L 65.1 25.7 C 65.1 25.7 65.05 30.57 65.1 30.6 C 65.1 31 65.1 31.2 65.1 31.3 C 65.2 31.5 65.3 31.5 65.4 31.6 C 65.5 31.7 65.6 31.7 65.8 31.7 C 65.8 31.7 65.8 31.7 65.8 31.7 Z " stroke="none" fill="#fff"/>  </g></svg>