<?xml version="1.0" standalone="no"?><!DOCTYPE svg PUBLIC "-//W3C//DTD SVG 1.1//EN" "http://www.w3.org/Graphics/SVG/1.1/DTD/svg11.dtd"><svg xmlns="http://www.w3.org/2000/svg" version="1.1" width="475.2px" height="46.1px" viewBox="0 -8 475.2 46.1" style="top:-8px">  <desc>Driving Apprenticeship Success</desc>  <defs/>  <g id="Polygon52048">    <path d="M 2.3 1.4 C 2.3 1.4 9.84 1.41 9.8 1.4 C 16.5 1.4 20.9 5.6 20.9 11.4 C 20.9 17.8 16.4 21.9 9.8 21.9 C 9.84 21.87 2.3 21.9 2.3 21.9 L 2.3 1.4 Z M 9.8 19.8 C 15.2 19.8 18.5 16.6 18.5 11.6 C 18.5 6.7 15.3 3.4 9.5 3.4 C 9.48 3.42 4.6 3.4 4.6 3.4 L 4.6 19.8 C 4.6 19.8 9.81 19.83 9.8 19.8 Z M 24.6 1.4 C 24.6 1.4 29.97 1.41 30 1.4 C 34.1 1.4 36.2 3.8 36.2 6.9 C 36.2 9.4 34.8 11.2 32.3 11.9 C 33.7 12.6 34.3 13.2 35.9 15.7 C 35.94 15.75 39.9 21.9 39.9 21.9 L 37.2 21.9 C 37.2 21.9 33.63 16.23 33.6 16.2 C 31.7 13.2 30.5 12.6 28.7 12.6 C 28.74 12.57 26.8 12.6 26.8 12.6 L 26.8 21.9 L 24.6 21.9 L 24.6 1.4 Z M 28.9 10.6 C 31.8 10.6 33.9 9.9 33.9 6.9 C 33.9 4.4 32.3 3.4 29.7 3.4 C 29.67 3.39 26.8 3.4 26.8 3.4 L 26.8 10.6 C 26.8 10.6 28.95 10.59 28.9 10.6 Z M 44.4 1.4 L 44.4 21.9 L 42.1 21.9 L 42.1 1.4 L 44.4 1.4 Z M 46.7 1.4 L 49 1.4 L 55.6 17.3 L 55.7 17.3 L 62.3 1.4 L 64.6 1.4 L 55.9 22.1 L 55.4 22.1 L 46.7 1.4 Z M 69.1 1.4 L 69.1 21.9 L 66.9 21.9 L 66.9 1.4 L 69.1 1.4 Z M 75.6 1.4 L 90.1 18.3 L 90.1 1.4 L 92.2 1.4 L 92.2 21.9 L 90.3 21.9 L 75.9 5 L 75.9 21.9 L 73.7 21.9 L 73.7 1.4 L 75.6 1.4 Z M 113.7 5.2 C 111.5 3.8 109 3.1 106.7 3.1 C 101.9 3.1 98.3 6.7 98.3 11.5 C 98.3 16.6 101.8 20.1 106.9 20.1 C 108.6 20.1 109.8 19.9 111.9 19.1 C 111.9 19.08 111.9 14.1 111.9 14.1 L 107.7 14.1 L 107.7 12.1 L 114.1 12.1 C 114.1 12.1 114.15 20.46 114.1 20.5 C 111.8 21.6 109.5 22.1 106.9 22.1 C 99.5 22.1 95.9 17 95.9 11.8 C 95.9 5.9 100.2 1.1 106.8 1.1 C 109.1 1.1 111 1.6 113.7 2.8 C 113.7 2.8 113.7 5.2 113.7 5.2 Z M 135 1.3 L 144.1 21.9 L 141.8 21.9 L 138.9 15.4 L 129.6 15.4 L 126.8 21.9 L 124.5 21.9 L 133.4 1.3 L 135 1.3 Z M 130.5 13.4 L 138 13.4 L 134.1 4.7 L 130.5 13.4 Z M 152.2 1.4 C 156.3 1.4 158.8 3.5 158.8 7 C 158.8 10.9 156.2 12.7 151.9 12.7 C 151.86 12.66 148.7 12.7 148.7 12.7 L 148.7 21.9 L 146.4 21.9 L 146.4 1.4 C 146.4 1.4 152.25 1.41 152.2 1.4 Z M 148.7 10.7 C 148.7 10.7 151.8 10.68 151.8 10.7 C 155.2 10.7 156.5 9.3 156.5 7 C 156.5 4.7 155.1 3.4 151.8 3.4 C 151.8 3.39 148.7 3.4 148.7 3.4 L 148.7 10.7 Z M 167.8 1.4 C 171.9 1.4 174.4 3.5 174.4 7 C 174.4 10.9 171.8 12.7 167.4 12.7 C 167.43 12.66 164.2 12.7 164.2 12.7 L 164.2 21.9 L 162 21.9 L 162 1.4 C 162 1.4 167.82 1.41 167.8 1.4 Z M 164.2 10.7 C 164.2 10.7 167.37 10.68 167.4 10.7 C 170.8 10.7 172.1 9.3 172.1 7 C 172.1 4.7 170.7 3.4 167.4 3.4 C 167.37 3.39 164.2 3.4 164.2 3.4 L 164.2 10.7 Z M 177.6 1.4 C 177.6 1.4 182.94 1.41 182.9 1.4 C 187 1.4 189.2 3.8 189.2 6.9 C 189.2 9.4 187.8 11.2 185.3 11.9 C 186.6 12.6 187.2 13.2 188.9 15.7 C 188.91 15.75 192.9 21.9 192.9 21.9 L 190.2 21.9 C 190.2 21.9 186.6 16.23 186.6 16.2 C 184.7 13.2 183.4 12.6 181.7 12.6 C 181.71 12.57 179.8 12.6 179.8 12.6 L 179.8 21.9 L 177.6 21.9 L 177.6 1.4 Z M 181.9 10.6 C 184.7 10.6 186.9 9.9 186.9 6.9 C 186.9 4.4 185.2 3.4 182.6 3.4 C 182.64 3.39 179.8 3.4 179.8 3.4 L 179.8 10.6 C 179.8 10.6 181.92 10.59 181.9 10.6 Z M 206.3 1.4 L 206.3 3.4 L 197.4 3.4 L 197.4 10.6 L 206 10.6 L 206 12.6 L 197.4 12.6 L 197.4 19.8 L 206.5 19.8 L 206.5 21.9 L 195.1 21.9 L 195.1 1.4 L 206.3 1.4 Z M 212 1.4 L 226.5 18.3 L 226.5 1.4 L 228.7 1.4 L 228.7 21.9 L 226.7 21.9 L 212.3 5 L 212.3 21.9 L 210.2 21.9 L 210.2 1.4 L 212 1.4 Z M 248.2 1.4 L 248.2 3.4 L 240.9 3.4 L 240.9 21.9 L 238.6 21.9 L 238.6 3.4 L 231.4 3.4 L 231.4 1.4 L 248.2 1.4 Z M 253.2 1.4 L 253.2 21.9 L 251 21.9 L 251 1.4 L 253.2 1.4 Z M 274.7 2.8 C 274.7 2.8 274.7 5.2 274.7 5.2 C 272.5 4 270.2 3.2 267.8 3.2 C 262.6 3.2 259.3 7.2 259.3 11.7 C 259.3 16.3 262.5 20 267.7 20 C 270.3 20 272.7 19.3 274.9 17.9 C 274.9 17.9 274.9 20.4 274.9 20.4 C 272.6 21.6 270.2 22.1 267.7 22.1 C 260.6 22.1 256.9 16.8 256.9 11.7 C 256.9 5.6 261.6 1.1 267.7 1.1 C 270.1 1.1 272.4 1.7 274.7 2.8 Z M 289.6 1.4 L 289.6 3.4 L 280.6 3.4 L 280.6 10.6 L 289.3 10.6 L 289.3 12.6 L 280.6 12.6 L 280.6 19.8 L 289.8 19.8 L 289.8 21.9 L 278.4 21.9 L 278.4 1.4 L 289.6 1.4 Z M 302.9 2.5 C 302.9 2.5 302.9 5 302.9 5 C 301.5 3.8 300 3.2 298.3 3.2 C 296.2 3.2 294.7 4.4 294.7 6.1 C 294.7 7.5 295.1 8.7 298.5 10.4 C 302.7 12.6 303.7 14 303.7 16.8 C 303.7 19.9 301.4 22.1 297.9 22.1 C 295.9 22.1 294.1 21.5 292.6 20.3 C 292.6 20.3 292.6 17.5 292.6 17.5 C 294.1 19.2 295.9 20.1 297.9 20.1 C 299.9 20.1 301.4 18.8 301.4 16.9 C 301.4 15.1 300.9 14.1 296.9 12 C 293.7 10.4 292.5 8.8 292.5 6.2 C 292.5 3.3 295 1.1 298.4 1.1 C 300 1.1 301.6 1.6 302.9 2.5 Z M 309.5 1.4 L 309.5 10.5 L 321.9 10.5 L 321.9 1.4 L 324.1 1.4 L 324.1 21.9 L 321.9 21.9 L 321.9 12.6 L 309.5 12.6 L 309.5 21.9 L 307.2 21.9 L 307.2 1.4 L 309.5 1.4 Z M 331 1.4 L 331 21.9 L 328.7 21.9 L 328.7 1.4 L 331 1.4 Z M 341.4 1.4 C 345.5 1.4 348 3.5 348 7 C 348 10.9 345.4 12.7 341 12.7 C 341.01 12.66 337.8 12.7 337.8 12.7 L 337.8 21.9 L 335.6 21.9 L 335.6 1.4 C 335.6 1.4 341.4 1.41 341.4 1.4 Z M 337.8 10.7 C 337.8 10.7 340.95 10.68 340.9 10.7 C 344.4 10.7 345.7 9.3 345.7 7 C 345.7 4.7 344.3 3.4 340.9 3.4 C 340.95 3.39 337.8 3.4 337.8 3.4 L 337.8 10.7 Z M 369 2.5 C 369 2.5 369 5 369 5 C 367.6 3.8 366 3.2 364.3 3.2 C 362.2 3.2 360.8 4.4 360.8 6.1 C 360.8 7.5 361.1 8.7 364.5 10.4 C 368.7 12.6 369.7 14 369.7 16.8 C 369.7 19.9 367.4 22.1 363.9 22.1 C 361.9 22.1 360.1 21.5 358.6 20.3 C 358.6 20.3 358.6 17.5 358.6 17.5 C 360.1 19.2 361.9 20.1 363.9 20.1 C 366 20.1 367.5 18.8 367.5 16.9 C 367.5 15.1 366.9 14.1 362.9 12 C 359.7 10.4 358.5 8.8 358.5 6.2 C 358.5 3.3 361 1.1 364.4 1.1 C 366 1.1 367.6 1.6 369 2.5 Z M 375.2 1.4 C 375.2 1.4 375.24 13.2 375.2 13.2 C 375.2 17.7 377.4 20.1 381.6 20.1 C 385.8 20.1 387.9 17.6 387.9 13.2 C 387.9 13.2 387.9 1.4 387.9 1.4 L 390.1 1.4 C 390.1 1.4 390.15 13.2 390.1 13.2 C 390.1 18.6 387.3 22.1 381.6 22.1 C 376 22.1 373 18.9 373 13.2 C 372.99 13.2 373 1.4 373 1.4 L 375.2 1.4 Z M 411.4 2.8 C 411.4 2.8 411.4 5.2 411.4 5.2 C 409.2 4 406.9 3.2 404.5 3.2 C 399.2 3.2 395.9 7.2 395.9 11.7 C 395.9 16.3 399.2 20 404.4 20 C 407 20 409.3 19.3 411.5 17.9 C 411.5 17.9 411.5 20.4 411.5 20.4 C 409.3 21.6 406.9 22.1 404.4 22.1 C 397.3 22.1 393.6 16.8 393.6 11.7 C 393.6 5.6 398.3 1.1 404.4 1.1 C 406.7 1.1 409.1 1.7 411.4 2.8 Z M 431.2 2.8 C 431.2 2.8 431.2 5.2 431.2 5.2 C 429.1 4 426.7 3.2 424.3 3.2 C 419.1 3.2 415.8 7.2 415.8 11.7 C 415.8 16.3 419.1 20 424.3 20 C 426.8 20 429.2 19.3 431.4 17.9 C 431.4 17.9 431.4 20.4 431.4 20.4 C 429.1 21.6 426.7 22.1 424.2 22.1 C 417.1 22.1 413.5 16.8 413.5 11.7 C 413.5 5.6 418.1 1.1 424.3 1.1 C 426.6 1.1 428.9 1.7 431.2 2.8 Z M 446.1 1.4 L 446.1 3.4 L 437.2 3.4 L 437.2 10.6 L 445.8 10.6 L 445.8 12.6 L 437.2 12.6 L 437.2 19.8 L 446.4 19.8 L 446.4 21.9 L 434.9 21.9 L 434.9 1.4 L 446.1 1.4 Z M 459.5 2.5 C 459.5 2.5 459.5 5 459.5 5 C 458.1 3.8 456.5 3.2 454.9 3.2 C 452.7 3.2 451.3 4.4 451.3 6.1 C 451.3 7.5 451.6 8.7 455 10.4 C 459.2 12.6 460.3 14 460.3 16.8 C 460.3 19.9 457.9 22.1 454.4 22.1 C 452.5 22.1 450.7 21.5 449.1 20.3 C 449.1 20.3 449.1 17.5 449.1 17.5 C 450.6 19.2 452.4 20.1 454.4 20.1 C 456.5 20.1 458 18.8 458 16.9 C 458 15.1 457.4 14.1 453.4 12 C 450.2 10.4 449 8.8 449 6.2 C 449 3.3 451.5 1.1 454.9 1.1 C 456.5 1.1 458.1 1.6 459.5 2.5 Z M 473.2 2.5 C 473.2 2.5 473.2 5 473.2 5 C 471.8 3.8 470.3 3.2 468.6 3.2 C 466.5 3.2 465.1 4.4 465.1 6.1 C 465.1 7.5 465.4 8.7 468.8 10.4 C 473 12.6 474 14 474 16.8 C 474 19.9 471.7 22.1 468.2 22.1 C 466.2 22.1 464.4 21.5 462.9 20.3 C 462.9 20.3 462.9 17.5 462.9 17.5 C 464.4 19.2 466.2 20.1 468.2 20.1 C 470.2 20.1 471.7 18.8 471.7 16.9 C 471.7 15.1 471.2 14.1 467.2 12 C 464 10.4 462.8 8.8 462.8 6.2 C 462.8 3.3 465.3 1.1 468.7 1.1 C 470.3 1.1 471.9 1.6 473.2 2.5 Z " stroke="none" fill="#000000"/>  </g></svg>