<?xml version="1.0" standalone="no"?><!DOCTYPE svg PUBLIC "-//W3C//DTD SVG 1.1//EN" "http://www.w3.org/Graphics/SVG/1.1/DTD/svg11.dtd"><svg xmlns="http://www.w3.org/2000/svg" version="1.1" width="545.4px" height="148.1px" viewBox="0 -10 545.4 148.1" style="top:-10px">  <desc>Innovative Continuous improvement, embrace change, utilise IT and evolve ways to enhance the client experience</desc>  <defs/>  <g id="Polygon7700">    <path d="M 10.1 120.8 C 10.1 120.8 12.3 121 12.3 121 C 11.9 122.3 11.3 123.3 10.4 124 C 9.4 124.7 8.3 125 6.8 125 C 5 125 3.5 124.5 2.5 123.4 C 1.4 122.2 0.9 120.7 0.9 118.6 C 0.9 116.5 1.4 114.9 2.5 113.8 C 3.6 112.6 5 112 6.7 112 C 8.4 112 9.7 112.6 10.8 113.7 C 11.8 114.9 12.4 116.5 12.4 118.5 C 12.4 118.6 12.3 118.8 12.3 119.1 C 12.3 119.1 3.1 119.1 3.1 119.1 C 3.1 120.4 3.5 121.5 4.2 122.2 C 4.9 122.9 5.8 123.3 6.8 123.3 C 7.6 123.3 8.3 123.1 8.8 122.7 C 9.3 122.3 9.8 121.6 10.1 120.8 Z M 3.2 117.3 C 3.2 117.3 10.1 117.3 10.1 117.3 C 10 116.3 9.8 115.5 9.3 115 C 8.7 114.2 7.8 113.8 6.7 113.8 C 5.7 113.8 4.9 114.1 4.3 114.7 C 3.6 115.4 3.2 116.3 3.2 117.3 Z M 13.5 124.8 L 18.1 118.3 L 13.9 112.3 L 16.5 112.3 C 16.5 112.3 18.41 115.23 18.4 115.2 C 18.8 115.8 19.1 116.3 19.3 116.6 C 19.6 116.1 19.9 115.7 20.2 115.3 C 20.23 115.26 22.3 112.3 22.3 112.3 L 24.8 112.3 L 20.5 118.2 L 25.2 124.8 L 22.6 124.8 L 20 120.9 L 19.3 119.8 L 16.1 124.8 L 13.5 124.8 Z M 26.9 129.5 L 26.9 112.3 L 28.9 112.3 C 28.9 112.3 28.85 113.93 28.9 113.9 C 29.3 113.3 29.8 112.8 30.4 112.5 C 31 112.2 31.6 112 32.5 112 C 33.5 112 34.5 112.3 35.3 112.9 C 36.1 113.4 36.7 114.2 37.1 115.2 C 37.5 116.2 37.7 117.3 37.7 118.4 C 37.7 119.7 37.5 120.9 37 121.9 C 36.6 122.9 35.9 123.7 35.1 124.2 C 34.2 124.8 33.3 125 32.3 125 C 31.6 125 31 124.9 30.4 124.6 C 29.9 124.3 29.4 123.9 29 123.5 C 29.04 123.47 29 129.5 29 129.5 L 26.9 129.5 Z M 28.8 118.6 C 28.8 120.2 29.2 121.4 29.8 122.2 C 30.5 122.9 31.2 123.3 32.2 123.3 C 33.1 123.3 33.9 122.9 34.6 122.1 C 35.2 121.3 35.6 120.1 35.6 118.4 C 35.6 116.8 35.3 115.7 34.6 114.9 C 33.9 114.1 33.2 113.7 32.3 113.7 C 31.4 113.7 30.6 114.1 29.9 114.9 C 29.2 115.8 28.8 117 28.8 118.6 Z M 48.8 120.8 C 48.8 120.8 51 121 51 121 C 50.6 122.3 50 123.3 49.1 124 C 48.1 124.7 46.9 125 45.5 125 C 43.7 125 42.2 124.5 41.2 123.4 C 40.1 122.2 39.6 120.7 39.6 118.6 C 39.6 116.5 40.1 114.9 41.2 113.8 C 42.3 112.6 43.7 112 45.4 112 C 47.1 112 48.4 112.6 49.5 113.7 C 50.5 114.9 51 116.5 51 118.5 C 51 118.6 51 118.8 51 119.1 C 51 119.1 41.8 119.1 41.8 119.1 C 41.8 120.4 42.2 121.5 42.9 122.2 C 43.6 122.9 44.5 123.3 45.5 123.3 C 46.3 123.3 46.9 123.1 47.5 122.7 C 48 122.3 48.5 121.6 48.8 120.8 Z M 41.9 117.3 C 41.9 117.3 48.8 117.3 48.8 117.3 C 48.7 116.3 48.5 115.5 48 115 C 47.4 114.2 46.5 113.8 45.4 113.8 C 44.4 113.8 43.6 114.1 43 114.7 C 42.3 115.4 41.9 116.3 41.9 117.3 Z M 53.6 124.8 L 53.6 112.3 L 55.5 112.3 C 55.5 112.3 55.5 114.2 55.5 114.2 C 56 113.3 56.4 112.7 56.8 112.5 C 57.3 112.2 57.7 112 58.2 112 C 58.9 112 59.6 112.3 60.4 112.7 C 60.4 112.7 59.6 114.7 59.6 114.7 C 59.1 114.4 58.6 114.2 58.1 114.2 C 57.6 114.2 57.2 114.4 56.8 114.6 C 56.5 114.9 56.2 115.3 56.1 115.8 C 55.8 116.5 55.7 117.4 55.7 118.2 C 55.71 118.24 55.7 124.8 55.7 124.8 L 53.6 124.8 Z M 61.6 110 L 61.6 107.6 L 63.7 107.6 L 63.7 110 L 61.6 110 Z M 61.6 124.8 L 61.6 112.3 L 63.7 112.3 L 63.7 124.8 L 61.6 124.8 Z M 75.5 120.8 C 75.5 120.8 77.6 121 77.6 121 C 77.3 122.3 76.7 123.3 75.7 124 C 74.8 124.7 73.6 125 72.2 125 C 70.4 125 68.9 124.5 67.8 123.4 C 66.8 122.2 66.2 120.7 66.2 118.6 C 66.2 116.5 66.8 114.9 67.9 113.8 C 68.9 112.6 70.3 112 72.1 112 C 73.7 112 75.1 112.6 76.1 113.7 C 77.2 114.9 77.7 116.5 77.7 118.5 C 77.7 118.6 77.7 118.8 77.7 119.1 C 77.7 119.1 68.4 119.1 68.4 119.1 C 68.5 120.4 68.9 121.5 69.6 122.2 C 70.3 122.9 71.1 123.3 72.2 123.3 C 73 123.3 73.6 123.1 74.2 122.7 C 74.7 122.3 75.1 121.6 75.5 120.8 Z M 68.5 117.3 C 68.5 117.3 75.5 117.3 75.5 117.3 C 75.4 116.3 75.1 115.5 74.7 115 C 74 114.2 73.2 113.8 72.1 113.8 C 71.1 113.8 70.3 114.1 69.6 114.7 C 69 115.4 68.6 116.3 68.5 117.3 Z M 80.3 124.8 L 80.3 112.3 L 82.2 112.3 C 82.2 112.3 82.2 114.08 82.2 114.1 C 83.1 112.7 84.4 112 86.2 112 C 86.9 112 87.6 112.2 88.2 112.4 C 88.9 112.7 89.3 113.1 89.6 113.5 C 89.9 113.9 90.2 114.5 90.3 115.1 C 90.4 115.4 90.4 116.1 90.4 117.1 C 90.41 117.11 90.4 124.8 90.4 124.8 L 88.3 124.8 C 88.3 124.8 88.3 117.19 88.3 117.2 C 88.3 116.3 88.2 115.7 88.1 115.3 C 87.9 114.8 87.6 114.5 87.2 114.2 C 86.8 114 86.3 113.9 85.7 113.9 C 84.8 113.9 84 114.1 83.4 114.7 C 82.7 115.3 82.4 116.4 82.4 118 C 82.41 117.96 82.4 124.8 82.4 124.8 L 80.3 124.8 Z M 101.8 120.2 C 101.8 120.2 103.8 120.5 103.8 120.5 C 103.6 121.9 103 123 102.1 123.8 C 101.2 124.6 100 125 98.7 125 C 97 125 95.6 124.5 94.6 123.4 C 93.5 122.3 93 120.7 93 118.6 C 93 117.2 93.2 116.1 93.7 115.1 C 94.1 114 94.8 113.3 95.7 112.8 C 96.6 112.3 97.6 112 98.7 112 C 100 112 101.1 112.4 102 113.1 C 102.8 113.7 103.4 114.7 103.6 116 C 103.6 116 101.6 116.3 101.6 116.3 C 101.4 115.5 101 114.8 100.6 114.4 C 100.1 114 99.5 113.8 98.8 113.8 C 97.7 113.8 96.8 114.1 96.2 114.9 C 95.5 115.7 95.2 116.9 95.2 118.5 C 95.2 120.2 95.5 121.4 96.1 122.2 C 96.8 122.9 97.6 123.3 98.6 123.3 C 99.5 123.3 100.2 123.1 100.7 122.5 C 101.3 122 101.6 121.3 101.8 120.2 Z M 114.2 120.8 C 114.2 120.8 116.3 121 116.3 121 C 116 122.3 115.4 123.3 114.4 124 C 113.5 124.7 112.3 125 110.9 125 C 109.1 125 107.6 124.5 106.5 123.4 C 105.5 122.2 104.9 120.7 104.9 118.6 C 104.9 116.5 105.5 114.9 106.6 113.8 C 107.6 112.6 109 112 110.8 112 C 112.4 112 113.8 112.6 114.8 113.7 C 115.9 114.9 116.4 116.5 116.4 118.5 C 116.4 118.6 116.4 118.8 116.4 119.1 C 116.4 119.1 107.1 119.1 107.1 119.1 C 107.2 120.4 107.6 121.5 108.3 122.2 C 109 122.9 109.8 123.3 110.9 123.3 C 111.7 123.3 112.3 123.1 112.9 122.7 C 113.4 122.3 113.8 121.6 114.2 120.8 Z M 107.2 117.3 C 107.2 117.3 114.2 117.3 114.2 117.3 C 114.1 116.3 113.8 115.5 113.4 115 C 112.7 114.2 111.8 113.8 110.8 113.8 C 109.8 113.8 109 114.1 108.3 114.7 C 107.7 115.4 107.3 116.3 107.2 117.3 Z " stroke="none" fill="#ffffff"/>  </g>  <g id="Polygon7699">    <path d="M 9.7 96 C 9.7 96 9.74 94.13 9.7 94.1 C 8.8 95.5 7.5 96.2 5.8 96.2 C 5.1 96.2 4.4 96.1 3.7 95.8 C 3.1 95.5 2.6 95.2 2.3 94.8 C 2 94.3 1.8 93.8 1.7 93.2 C 1.6 92.8 1.5 92.1 1.5 91.2 C 1.54 91.23 1.5 83.5 1.5 83.5 L 3.6 83.5 C 3.6 83.5 3.64 90.42 3.6 90.4 C 3.6 91.5 3.7 92.3 3.8 92.6 C 3.9 93.2 4.2 93.6 4.6 93.9 C 5 94.3 5.6 94.4 6.2 94.4 C 6.8 94.4 7.4 94.3 8 93.9 C 8.5 93.6 8.9 93.2 9.2 92.6 C 9.4 92.1 9.5 91.2 9.5 90.2 C 9.52 90.18 9.5 83.5 9.5 83.5 L 11.6 83.5 L 11.6 96 L 9.7 96 Z M 18.6 94.2 C 18.8 94.2 19.2 94.1 19.5 94.1 C 19.5 94.1 19.8 95.9 19.8 95.9 C 19.2 96.1 18.7 96.1 18.2 96.1 C 17.5 96.1 16.9 96 16.5 95.8 C 16 95.5 15.7 95.2 15.6 94.8 C 15.4 94.4 15.3 93.6 15.3 92.3 C 15.32 92.32 15.3 85.2 15.3 85.2 L 13.8 85.2 L 13.8 83.5 L 15.3 83.5 L 15.3 80.4 L 17.4 79.2 L 17.4 83.5 L 19.5 83.5 L 19.5 85.2 L 17.4 85.2 C 17.4 85.2 17.41 92.43 17.4 92.4 C 17.4 93 17.5 93.4 17.5 93.6 C 17.6 93.8 17.7 93.9 17.9 94 C 18.1 94.1 18.3 94.2 18.6 94.2 C 18.6 94.2 18.6 94.2 18.6 94.2 Z M 21.6 81.2 L 21.6 78.8 L 23.7 78.8 L 23.7 81.2 L 21.6 81.2 Z M 21.6 96 L 21.6 83.5 L 23.7 83.5 L 23.7 96 L 21.6 96 Z M 26.9 96 L 26.9 78.8 L 29 78.8 L 29 96 L 26.9 96 Z M 32.3 81.2 L 32.3 78.8 L 34.4 78.8 L 34.4 81.2 L 32.3 81.2 Z M 32.3 96 L 32.3 83.5 L 34.4 83.5 L 34.4 96 L 32.3 96 Z M 36.8 92.2 C 36.8 92.2 38.8 91.9 38.8 91.9 C 39 92.8 39.3 93.4 39.8 93.8 C 40.3 94.3 41.1 94.5 42.1 94.5 C 43 94.5 43.7 94.3 44.2 93.9 C 44.7 93.5 44.9 93.1 44.9 92.5 C 44.9 92 44.7 91.7 44.3 91.4 C 44 91.2 43.3 91 42.1 90.7 C 40.6 90.3 39.5 90 38.9 89.7 C 38.3 89.4 37.9 89 37.6 88.5 C 37.3 88 37.1 87.4 37.1 86.8 C 37.1 86.3 37.2 85.8 37.5 85.3 C 37.7 84.8 38.1 84.4 38.5 84.1 C 38.8 83.9 39.3 83.7 39.9 83.5 C 40.4 83.3 41 83.2 41.7 83.2 C 42.7 83.2 43.5 83.4 44.3 83.7 C 45 83.9 45.5 84.3 45.9 84.8 C 46.2 85.3 46.5 85.9 46.6 86.7 C 46.6 86.7 44.6 87 44.6 87 C 44.5 86.4 44.2 85.9 43.7 85.5 C 43.3 85.1 42.7 85 41.8 85 C 40.9 85 40.2 85.1 39.8 85.4 C 39.3 85.8 39.1 86.1 39.1 86.6 C 39.1 86.8 39.2 87.1 39.4 87.3 C 39.6 87.5 39.8 87.7 40.2 87.9 C 40.4 88 41 88.1 42.1 88.4 C 43.6 88.8 44.6 89.1 45.2 89.4 C 45.8 89.6 46.2 90 46.6 90.5 C 46.9 91 47.1 91.6 47.1 92.3 C 47.1 93 46.9 93.7 46.5 94.3 C 46.1 94.9 45.5 95.4 44.7 95.7 C 43.9 96.1 43 96.2 42.1 96.2 C 40.5 96.2 39.2 95.9 38.4 95.2 C 37.5 94.6 37 93.6 36.8 92.2 Z M 58.1 92 C 58.1 92 60.3 92.2 60.3 92.2 C 59.9 93.5 59.3 94.5 58.4 95.2 C 57.5 95.9 56.3 96.2 54.8 96.2 C 53 96.2 51.6 95.7 50.5 94.6 C 49.4 93.4 48.9 91.9 48.9 89.8 C 48.9 87.7 49.4 86.1 50.5 85 C 51.6 83.8 53 83.2 54.7 83.2 C 56.4 83.2 57.7 83.8 58.8 84.9 C 59.8 86.1 60.4 87.7 60.4 89.7 C 60.4 89.8 60.4 90 60.4 90.3 C 60.4 90.3 51.1 90.3 51.1 90.3 C 51.1 91.6 51.5 92.7 52.2 93.4 C 52.9 94.1 53.8 94.5 54.8 94.5 C 55.6 94.5 56.3 94.3 56.8 93.9 C 57.4 93.5 57.8 92.8 58.1 92 Z M 51.2 88.5 C 51.2 88.5 58.1 88.5 58.1 88.5 C 58 87.5 57.8 86.7 57.3 86.2 C 56.7 85.4 55.8 85 54.7 85 C 53.8 85 52.9 85.3 52.3 85.9 C 51.6 86.6 51.3 87.5 51.2 88.5 Z M 70.3 96 L 70.3 78.8 L 72.5 78.8 L 72.5 96 L 70.3 96 Z M 80.9 96 L 80.9 80.8 L 75.3 80.8 L 75.3 78.8 L 88.9 78.8 L 88.9 80.8 L 83.2 80.8 L 83.2 96 L 80.9 96 Z M 105.7 96 C 105.5 95.5 105.4 95 105.3 94.4 C 104.5 95.1 103.8 95.6 103 95.8 C 102.3 96.1 101.5 96.2 100.7 96.2 C 99.3 96.2 98.3 95.9 97.6 95.2 C 96.8 94.6 96.5 93.7 96.5 92.7 C 96.5 92.1 96.6 91.5 96.9 91 C 97.2 90.5 97.5 90.1 98 89.8 C 98.4 89.5 98.9 89.3 99.5 89.1 C 99.9 89 100.5 88.9 101.4 88.8 C 103.1 88.6 104.3 88.3 105.1 88.1 C 105.1 87.8 105.1 87.6 105.1 87.5 C 105.1 86.7 104.9 86 104.5 85.7 C 104 85.2 103.2 85 102.1 85 C 101.1 85 100.4 85.2 99.9 85.5 C 99.5 85.8 99.1 86.5 98.9 87.3 C 98.9 87.3 96.8 87.1 96.8 87.1 C 97 86.2 97.3 85.5 97.7 84.9 C 98.2 84.4 98.8 84 99.6 83.7 C 100.4 83.4 101.4 83.2 102.4 83.2 C 103.5 83.2 104.4 83.4 105 83.6 C 105.7 83.9 106.2 84.2 106.5 84.6 C 106.8 84.9 107 85.4 107.1 86 C 107.2 86.3 107.3 87 107.3 87.9 C 107.3 87.9 107.3 90.7 107.3 90.7 C 107.3 92.7 107.3 93.9 107.4 94.5 C 107.5 95 107.7 95.5 107.9 96 C 107.92 95.96 105.7 96 105.7 96 C 105.7 96 105.71 95.96 105.7 96 Z M 105.1 89.7 C 104.4 90 103.2 90.3 101.7 90.5 C 100.8 90.6 100.2 90.8 99.8 90.9 C 99.5 91.1 99.2 91.3 99 91.6 C 98.8 91.9 98.7 92.3 98.7 92.6 C 98.7 93.2 98.9 93.7 99.3 94 C 99.8 94.4 100.4 94.6 101.2 94.6 C 102 94.6 102.8 94.4 103.4 94.1 C 104 93.7 104.5 93.2 104.8 92.6 C 105 92.1 105.1 91.4 105.1 90.5 C 105.1 90.5 105.1 89.7 105.1 89.7 Z M 110.5 96 L 110.5 83.5 L 112.4 83.5 C 112.4 83.5 112.42 85.28 112.4 85.3 C 113.3 83.9 114.7 83.2 116.4 83.2 C 117.1 83.2 117.8 83.4 118.4 83.6 C 119.1 83.9 119.5 84.3 119.9 84.7 C 120.2 85.1 120.4 85.7 120.5 86.3 C 120.6 86.6 120.6 87.3 120.6 88.3 C 120.63 88.31 120.6 96 120.6 96 L 118.5 96 C 118.5 96 118.52 88.39 118.5 88.4 C 118.5 87.5 118.4 86.9 118.3 86.5 C 118.1 86 117.8 85.7 117.4 85.4 C 117 85.2 116.5 85.1 115.9 85.1 C 115 85.1 114.3 85.3 113.6 85.9 C 113 86.5 112.6 87.6 112.6 89.2 C 112.63 89.16 112.6 96 112.6 96 L 110.5 96 Z M 131.9 96 C 131.9 96 131.94 94.39 131.9 94.4 C 131.2 95.6 130 96.2 128.5 96.2 C 127.5 96.2 126.6 96 125.7 95.4 C 124.9 94.9 124.2 94.1 123.8 93.1 C 123.3 92.1 123.1 91 123.1 89.7 C 123.1 88.5 123.3 87.4 123.7 86.4 C 124.1 85.4 124.8 84.6 125.6 84 C 126.4 83.5 127.3 83.2 128.4 83.2 C 129.1 83.2 129.8 83.4 130.4 83.7 C 131 84 131.4 84.4 131.8 84.9 C 131.8 84.94 131.8 78.8 131.8 78.8 L 133.9 78.8 L 133.9 96 L 131.9 96 Z M 125.3 89.7 C 125.3 91.3 125.6 92.5 126.3 93.3 C 127 94.1 127.7 94.5 128.7 94.5 C 129.6 94.5 130.4 94.1 131 93.4 C 131.7 92.6 132 91.5 132 89.9 C 132 88.2 131.6 87 131 86.2 C 130.3 85.4 129.5 85 128.6 85 C 127.6 85 126.8 85.4 126.2 86.1 C 125.6 86.9 125.3 88.1 125.3 89.7 Z M 152.4 92 C 152.4 92 154.6 92.2 154.6 92.2 C 154.2 93.5 153.6 94.5 152.7 95.2 C 151.7 95.9 150.6 96.2 149.1 96.2 C 147.3 96.2 145.8 95.7 144.8 94.6 C 143.7 93.4 143.2 91.9 143.2 89.8 C 143.2 87.7 143.7 86.1 144.8 85 C 145.9 83.8 147.3 83.2 149 83.2 C 150.7 83.2 152 83.8 153.1 84.9 C 154.1 86.1 154.7 87.7 154.7 89.7 C 154.7 89.8 154.6 90 154.6 90.3 C 154.6 90.3 145.4 90.3 145.4 90.3 C 145.4 91.6 145.8 92.7 146.5 93.4 C 147.2 94.1 148.1 94.5 149.1 94.5 C 149.9 94.5 150.6 94.3 151.1 93.9 C 151.6 93.5 152.1 92.8 152.4 92 Z M 145.5 88.5 C 145.5 88.5 152.4 88.5 152.4 88.5 C 152.3 87.5 152.1 86.7 151.6 86.2 C 151 85.4 150.1 85 149 85 C 148 85 147.2 85.3 146.6 85.9 C 145.9 86.6 145.5 87.5 145.5 88.5 Z M 160.7 96 L 156 83.5 L 158.2 83.5 C 158.2 83.5 160.85 90.97 160.9 91 C 161.1 91.8 161.4 92.6 161.6 93.5 C 161.8 92.8 162.1 92 162.4 91.1 C 162.43 91.11 165.2 83.5 165.2 83.5 L 167.4 83.5 L 162.7 96 L 160.7 96 Z M 168.4 89.7 C 168.4 87.4 169.1 85.7 170.4 84.6 C 171.4 83.7 172.7 83.2 174.3 83.2 C 176 83.2 177.4 83.8 178.5 84.9 C 179.6 86 180.1 87.6 180.1 89.6 C 180.1 91.2 179.9 92.4 179.4 93.3 C 178.9 94.3 178.2 95 177.3 95.5 C 176.4 96 175.4 96.2 174.3 96.2 C 172.5 96.2 171.1 95.7 170.1 94.6 C 169 93.4 168.4 91.8 168.4 89.7 Z M 170.6 89.7 C 170.6 91.3 171 92.5 171.7 93.3 C 172.4 94.1 173.2 94.5 174.3 94.5 C 175.3 94.5 176.2 94.1 176.9 93.3 C 177.6 92.5 177.9 91.3 177.9 89.7 C 177.9 88.1 177.6 87 176.9 86.2 C 176.2 85.4 175.3 85 174.3 85 C 173.2 85 172.4 85.4 171.7 86.2 C 171 87 170.6 88.1 170.6 89.7 Z M 182.5 96 L 182.5 78.8 L 184.6 78.8 L 184.6 96 L 182.5 96 Z M 191.4 96 L 186.6 83.5 L 188.9 83.5 C 188.9 83.5 191.53 90.97 191.5 91 C 191.8 91.8 192.1 92.6 192.3 93.5 C 192.5 92.8 192.8 92 193.1 91.1 C 193.11 91.11 195.9 83.5 195.9 83.5 L 198 83.5 L 193.3 96 L 191.4 96 Z M 208.4 92 C 208.4 92 210.6 92.2 210.6 92.2 C 210.3 93.5 209.6 94.5 208.7 95.2 C 207.8 95.9 206.6 96.2 205.1 96.2 C 203.3 96.2 201.9 95.7 200.8 94.6 C 199.7 93.4 199.2 91.9 199.2 89.8 C 199.2 87.7 199.7 86.1 200.8 85 C 201.9 83.8 203.3 83.2 205 83.2 C 206.7 83.2 208 83.8 209.1 84.9 C 210.2 86.1 210.7 87.7 210.7 89.7 C 210.7 89.8 210.7 90 210.7 90.3 C 210.7 90.3 201.4 90.3 201.4 90.3 C 201.5 91.6 201.9 92.7 202.5 93.4 C 203.2 94.1 204.1 94.5 205.1 94.5 C 205.9 94.5 206.6 94.3 207.1 93.9 C 207.7 93.5 208.1 92.8 208.4 92 Z M 201.5 88.5 C 201.5 88.5 208.5 88.5 208.5 88.5 C 208.4 87.5 208.1 86.7 207.7 86.2 C 207 85.4 206.1 85 205 85 C 204.1 85 203.3 85.3 202.6 85.9 C 201.9 86.6 201.6 87.5 201.5 88.5 Z M 222.2 96 L 218.4 83.5 L 220.6 83.5 L 222.6 90.7 C 222.6 90.7 223.31 93.37 223.3 93.4 C 223.3 93.2 223.6 92.4 224 90.8 C 223.96 90.8 225.9 83.5 225.9 83.5 L 228.1 83.5 L 230 90.7 L 230.6 93.1 L 231.3 90.7 L 233.4 83.5 L 235.5 83.5 L 231.6 96 L 229.4 96 L 227.4 88.5 L 226.9 86.4 L 224.4 96 L 222.2 96 Z M 245.8 96 C 245.6 95.5 245.4 95 245.4 94.4 C 244.6 95.1 243.8 95.6 243.1 95.8 C 242.4 96.1 241.6 96.2 240.8 96.2 C 239.4 96.2 238.4 95.9 237.6 95.2 C 236.9 94.6 236.5 93.7 236.5 92.7 C 236.5 92.1 236.7 91.5 237 91 C 237.2 90.5 237.6 90.1 238 89.8 C 238.5 89.5 239 89.3 239.6 89.1 C 240 89 240.6 88.9 241.4 88.8 C 243.1 88.6 244.4 88.3 245.2 88.1 C 245.2 87.8 245.2 87.6 245.2 87.5 C 245.2 86.7 245 86 244.6 85.7 C 244.1 85.2 243.3 85 242.2 85 C 241.2 85 240.5 85.2 240 85.5 C 239.5 85.8 239.2 86.5 239 87.3 C 239 87.3 236.9 87.1 236.9 87.1 C 237.1 86.2 237.4 85.5 237.8 84.9 C 238.3 84.4 238.9 84 239.7 83.7 C 240.5 83.4 241.4 83.2 242.5 83.2 C 243.6 83.2 244.4 83.4 245.1 83.6 C 245.8 83.9 246.3 84.2 246.6 84.6 C 246.9 84.9 247.1 85.4 247.2 86 C 247.3 86.3 247.3 87 247.3 87.9 C 247.3 87.9 247.3 90.7 247.3 90.7 C 247.3 92.7 247.4 93.9 247.5 94.5 C 247.6 95 247.7 95.5 248 96 C 248 95.96 245.8 96 245.8 96 C 245.8 96 245.8 95.96 245.8 96 Z M 245.2 89.7 C 244.4 90 243.3 90.3 241.8 90.5 C 240.9 90.6 240.3 90.8 239.9 90.9 C 239.6 91.1 239.3 91.3 239.1 91.6 C 238.9 91.9 238.8 92.3 238.8 92.6 C 238.8 93.2 239 93.7 239.4 94 C 239.9 94.4 240.5 94.6 241.3 94.6 C 242.1 94.6 242.8 94.4 243.5 94.1 C 244.1 93.7 244.6 93.2 244.9 92.6 C 245.1 92.1 245.2 91.4 245.2 90.5 C 245.2 90.5 245.2 89.7 245.2 89.7 Z M 251.9 101 C 251.5 101 251 100.9 250.5 100.8 C 250.5 100.8 250.3 98.8 250.3 98.8 C 250.7 98.9 251.1 99 251.5 99 C 252 99 252.3 98.9 252.6 98.7 C 252.9 98.6 253.1 98.4 253.3 98.1 C 253.4 97.9 253.6 97.3 253.9 96.5 C 254 96.4 254 96.2 254.1 96 C 254.13 95.98 249.4 83.5 249.4 83.5 L 251.7 83.5 C 251.7 83.5 254.27 90.72 254.3 90.7 C 254.6 91.6 254.9 92.6 255.2 93.6 C 255.4 92.6 255.7 91.7 256 90.8 C 256.04 90.77 258.7 83.5 258.7 83.5 L 260.8 83.5 C 260.8 83.5 256.08 96.17 256.1 96.2 C 255.6 97.5 255.2 98.5 254.9 99 C 254.5 99.7 254.1 100.2 253.6 100.5 C 253.1 100.8 252.5 101 251.9 101 C 251.9 101 251.9 101 251.9 101 Z M 261.8 92.2 C 261.8 92.2 263.8 91.9 263.8 91.9 C 264 92.8 264.3 93.4 264.8 93.8 C 265.4 94.3 266.1 94.5 267.1 94.5 C 268 94.5 268.8 94.3 269.2 93.9 C 269.7 93.5 269.9 93.1 269.9 92.5 C 269.9 92 269.7 91.7 269.3 91.4 C 269 91.2 268.3 91 267.2 90.7 C 265.6 90.3 264.5 90 263.9 89.7 C 263.3 89.4 262.9 89 262.6 88.5 C 262.3 88 262.1 87.4 262.1 86.8 C 262.1 86.3 262.2 85.8 262.5 85.3 C 262.7 84.8 263.1 84.4 263.5 84.1 C 263.9 83.9 264.3 83.7 264.9 83.5 C 265.4 83.3 266 83.2 266.7 83.2 C 267.7 83.2 268.5 83.4 269.3 83.7 C 270 83.9 270.6 84.3 270.9 84.8 C 271.3 85.3 271.5 85.9 271.6 86.7 C 271.6 86.7 269.6 87 269.6 87 C 269.5 86.4 269.2 85.9 268.8 85.5 C 268.3 85.1 267.7 85 266.8 85 C 265.9 85 265.2 85.1 264.8 85.4 C 264.4 85.8 264.2 86.1 264.2 86.6 C 264.2 86.8 264.2 87.1 264.4 87.3 C 264.6 87.5 264.9 87.7 265.2 87.9 C 265.4 88 266.1 88.1 267.1 88.4 C 268.6 88.8 269.6 89.1 270.2 89.4 C 270.8 89.6 271.3 90 271.6 90.5 C 271.9 91 272.1 91.6 272.1 92.3 C 272.1 93 271.9 93.7 271.5 94.3 C 271.1 94.9 270.5 95.4 269.7 95.7 C 268.9 96.1 268.1 96.2 267.1 96.2 C 265.5 96.2 264.2 95.9 263.4 95.2 C 262.5 94.6 262 93.6 261.8 92.2 Z M 285 94.2 C 285.2 94.2 285.5 94.1 285.9 94.1 C 285.9 94.1 286.2 95.9 286.2 95.9 C 285.6 96.1 285.1 96.1 284.6 96.1 C 283.8 96.1 283.2 96 282.8 95.8 C 282.4 95.5 282.1 95.2 281.9 94.8 C 281.7 94.4 281.7 93.6 281.7 92.3 C 281.66 92.32 281.7 85.2 281.7 85.2 L 280.1 85.2 L 280.1 83.5 L 281.7 83.5 L 281.7 80.4 L 283.8 79.2 L 283.8 83.5 L 285.9 83.5 L 285.9 85.2 L 283.8 85.2 C 283.8 85.2 283.76 92.43 283.8 92.4 C 283.8 93 283.8 93.4 283.9 93.6 C 283.9 93.8 284.1 93.9 284.2 94 C 284.4 94.1 284.6 94.2 285 94.2 C 285 94.2 285 94.2 285 94.2 Z M 287.2 89.7 C 287.2 87.4 287.8 85.7 289.1 84.6 C 290.1 83.7 291.5 83.2 293 83.2 C 294.7 83.2 296.1 83.8 297.2 84.9 C 298.3 86 298.8 87.6 298.8 89.6 C 298.8 91.2 298.6 92.4 298.1 93.3 C 297.6 94.3 296.9 95 296 95.5 C 295.1 96 294.1 96.2 293 96.2 C 291.2 96.2 289.8 95.7 288.8 94.6 C 287.7 93.4 287.2 91.8 287.2 89.7 Z M 289.3 89.7 C 289.3 91.3 289.7 92.5 290.4 93.3 C 291.1 94.1 291.9 94.5 293 94.5 C 294 94.5 294.9 94.1 295.6 93.3 C 296.3 92.5 296.6 91.3 296.6 89.7 C 296.6 88.1 296.3 87 295.6 86.2 C 294.9 85.4 294 85 293 85 C 291.9 85 291.1 85.4 290.4 86.2 C 289.7 87 289.3 88.1 289.3 89.7 Z M 316.5 92 C 316.5 92 318.7 92.2 318.7 92.2 C 318.3 93.5 317.7 94.5 316.7 95.2 C 315.8 95.9 314.6 96.2 313.2 96.2 C 311.4 96.2 309.9 95.7 308.9 94.6 C 307.8 93.4 307.3 91.9 307.3 89.8 C 307.3 87.7 307.8 86.1 308.9 85 C 309.9 83.8 311.3 83.2 313.1 83.2 C 314.7 83.2 316.1 83.8 317.1 84.9 C 318.2 86.1 318.7 87.7 318.7 89.7 C 318.7 89.8 318.7 90 318.7 90.3 C 318.7 90.3 309.4 90.3 309.4 90.3 C 309.5 91.6 309.9 92.7 310.6 93.4 C 311.3 94.1 312.2 94.5 313.2 94.5 C 314 94.5 314.6 94.3 315.2 93.9 C 315.7 93.5 316.2 92.8 316.5 92 Z M 309.6 88.5 C 309.6 88.5 316.5 88.5 316.5 88.5 C 316.4 87.5 316.1 86.7 315.7 86.2 C 315 85.4 314.2 85 313.1 85 C 312.1 85 311.3 85.3 310.6 85.9 C 310 86.6 309.6 87.5 309.6 88.5 Z M 321.3 96 L 321.3 83.5 L 323.2 83.5 C 323.2 83.5 323.2 85.28 323.2 85.3 C 324.1 83.9 325.4 83.2 327.2 83.2 C 327.9 83.2 328.6 83.4 329.2 83.6 C 329.9 83.9 330.3 84.3 330.6 84.7 C 331 85.1 331.2 85.7 331.3 86.3 C 331.4 86.6 331.4 87.3 331.4 88.3 C 331.42 88.31 331.4 96 331.4 96 L 329.3 96 C 329.3 96 329.31 88.39 329.3 88.4 C 329.3 87.5 329.2 86.9 329.1 86.5 C 328.9 86 328.6 85.7 328.2 85.4 C 327.8 85.2 327.3 85.1 326.7 85.1 C 325.8 85.1 325 85.3 324.4 85.9 C 323.7 86.5 323.4 87.6 323.4 89.2 C 323.41 89.16 323.4 96 323.4 96 L 321.3 96 Z M 334.7 96 L 334.7 78.8 L 336.8 78.8 C 336.8 78.8 336.76 84.94 336.8 84.9 C 337.7 83.8 339 83.2 340.5 83.2 C 341.4 83.2 342.2 83.4 342.9 83.8 C 343.6 84.1 344.1 84.6 344.3 85.3 C 344.6 85.9 344.8 86.9 344.8 88.1 C 344.79 88.07 344.8 96 344.8 96 L 342.7 96 C 342.7 96 342.68 88.07 342.7 88.1 C 342.7 87 342.5 86.3 342 85.8 C 341.5 85.3 340.9 85 340.1 85 C 339.4 85 338.8 85.2 338.3 85.5 C 337.7 85.9 337.3 86.3 337.1 86.9 C 336.9 87.4 336.8 88.2 336.8 89.2 C 336.76 89.15 336.8 96 336.8 96 L 334.7 96 Z M 356.5 96 C 356.3 95.5 356.2 95 356.1 94.4 C 355.3 95.1 354.6 95.6 353.9 95.8 C 353.1 96.1 352.4 96.2 351.5 96.2 C 350.2 96.2 349.1 95.9 348.4 95.2 C 347.7 94.6 347.3 93.7 347.3 92.7 C 347.3 92.1 347.4 91.5 347.7 91 C 348 90.5 348.3 90.1 348.8 89.8 C 349.2 89.5 349.7 89.3 350.3 89.1 C 350.7 89 351.3 88.9 352.2 88.8 C 353.9 88.6 355.1 88.3 355.9 88.1 C 356 87.8 356 87.6 356 87.5 C 356 86.7 355.8 86 355.4 85.7 C 354.8 85.2 354 85 353 85 C 352 85 351.2 85.2 350.8 85.5 C 350.3 85.8 349.9 86.5 349.7 87.3 C 349.7 87.3 347.6 87.1 347.6 87.1 C 347.8 86.2 348.1 85.5 348.6 84.9 C 349 84.4 349.6 84 350.4 83.7 C 351.2 83.4 352.2 83.2 353.3 83.2 C 354.3 83.2 355.2 83.4 355.9 83.6 C 356.5 83.9 357 84.2 357.3 84.6 C 357.6 84.9 357.8 85.4 358 86 C 358 86.3 358.1 87 358.1 87.9 C 358.1 87.9 358.1 90.7 358.1 90.7 C 358.1 92.7 358.1 93.9 358.2 94.5 C 358.3 95 358.5 95.5 358.7 96 C 358.75 95.96 356.5 96 356.5 96 C 356.5 96 356.54 95.96 356.5 96 Z M 355.9 89.7 C 355.2 90 354 90.3 352.5 90.5 C 351.6 90.6 351 90.8 350.7 90.9 C 350.3 91.1 350 91.3 349.8 91.6 C 349.6 91.9 349.5 92.3 349.5 92.6 C 349.5 93.2 349.7 93.7 350.2 94 C 350.6 94.4 351.2 94.6 352 94.6 C 352.9 94.6 353.6 94.4 354.2 94.1 C 354.8 93.7 355.3 93.2 355.6 92.6 C 355.8 92.1 355.9 91.4 355.9 90.5 C 355.9 90.5 355.9 89.7 355.9 89.7 Z M 361.3 96 L 361.3 83.5 L 363.2 83.5 C 363.2 83.5 363.25 85.28 363.2 85.3 C 364.2 83.9 365.5 83.2 367.2 83.2 C 368 83.2 368.6 83.4 369.3 83.6 C 369.9 83.9 370.4 84.3 370.7 84.7 C 371 85.1 371.2 85.7 371.3 86.3 C 371.4 86.6 371.5 87.3 371.5 88.3 C 371.46 88.31 371.5 96 371.5 96 L 369.4 96 C 369.4 96 369.35 88.39 369.4 88.4 C 369.4 87.5 369.3 86.9 369.1 86.5 C 368.9 86 368.7 85.7 368.2 85.4 C 367.8 85.2 367.3 85.1 366.8 85.1 C 365.9 85.1 365.1 85.3 364.4 85.9 C 363.8 86.5 363.5 87.6 363.5 89.2 C 363.46 89.16 363.5 96 363.5 96 L 361.3 96 Z M 382.8 91.4 C 382.8 91.4 384.9 91.7 384.9 91.7 C 384.7 93.1 384.1 94.2 383.2 95 C 382.2 95.8 381.1 96.2 379.7 96.2 C 378 96.2 376.6 95.7 375.6 94.6 C 374.6 93.5 374.1 91.9 374.1 89.8 C 374.1 88.4 374.3 87.3 374.7 86.3 C 375.2 85.2 375.8 84.5 376.8 84 C 377.7 83.5 378.7 83.2 379.7 83.2 C 381.1 83.2 382.2 83.6 383 84.3 C 383.9 84.9 384.4 85.9 384.7 87.2 C 384.7 87.2 382.6 87.5 382.6 87.5 C 382.4 86.7 382.1 86 381.6 85.6 C 381.1 85.2 380.5 85 379.8 85 C 378.7 85 377.9 85.3 377.2 86.1 C 376.6 86.9 376.2 88.1 376.2 89.7 C 376.2 91.4 376.5 92.6 377.2 93.4 C 377.8 94.1 378.7 94.5 379.7 94.5 C 380.5 94.5 381.2 94.3 381.8 93.7 C 382.3 93.2 382.7 92.5 382.8 91.4 Z M 395.2 92 C 395.2 92 397.4 92.2 397.4 92.2 C 397.1 93.5 396.4 94.5 395.5 95.2 C 394.6 95.9 393.4 96.2 391.9 96.2 C 390.1 96.2 388.7 95.7 387.6 94.6 C 386.5 93.4 386 91.9 386 89.8 C 386 87.7 386.5 86.1 387.6 85 C 388.7 83.8 390.1 83.2 391.8 83.2 C 393.5 83.2 394.8 83.8 395.9 84.9 C 396.9 86.1 397.5 87.7 397.5 89.7 C 397.5 89.8 397.5 90 397.5 90.3 C 397.5 90.3 388.2 90.3 388.2 90.3 C 388.2 91.6 388.6 92.7 389.3 93.4 C 390 94.1 390.9 94.5 391.9 94.5 C 392.7 94.5 393.4 94.3 393.9 93.9 C 394.5 93.5 394.9 92.8 395.2 92 Z M 388.3 88.5 C 388.3 88.5 395.2 88.5 395.2 88.5 C 395.1 87.5 394.9 86.7 394.4 86.2 C 393.8 85.4 392.9 85 391.8 85 C 390.9 85 390 85.3 389.4 85.9 C 388.7 86.6 388.4 87.5 388.3 88.5 Z M 410.4 94.2 C 410.6 94.2 410.9 94.1 411.3 94.1 C 411.3 94.1 411.6 95.9 411.6 95.9 C 411 96.1 410.5 96.1 410 96.1 C 409.3 96.1 408.7 96 408.2 95.8 C 407.8 95.5 407.5 95.2 407.4 94.8 C 407.2 94.4 407.1 93.6 407.1 92.3 C 407.1 92.32 407.1 85.2 407.1 85.2 L 405.6 85.2 L 405.6 83.5 L 407.1 83.5 L 407.1 80.4 L 409.2 79.2 L 409.2 83.5 L 411.3 83.5 L 411.3 85.2 L 409.2 85.2 C 409.2 85.2 409.2 92.43 409.2 92.4 C 409.2 93 409.2 93.4 409.3 93.6 C 409.4 93.8 409.5 93.9 409.7 94 C 409.8 94.1 410.1 94.2 410.4 94.2 C 410.4 94.2 410.4 94.2 410.4 94.2 Z M 413.4 96 L 413.4 78.8 L 415.5 78.8 C 415.5 78.8 415.49 84.94 415.5 84.9 C 416.5 83.8 417.7 83.2 419.2 83.2 C 420.1 83.2 420.9 83.4 421.6 83.8 C 422.3 84.1 422.8 84.6 423.1 85.3 C 423.4 85.9 423.5 86.9 423.5 88.1 C 423.52 88.07 423.5 96 423.5 96 L 421.4 96 C 421.4 96 421.41 88.07 421.4 88.1 C 421.4 87 421.2 86.3 420.7 85.8 C 420.3 85.3 419.6 85 418.8 85 C 418.2 85 417.6 85.2 417 85.5 C 416.5 85.9 416.1 86.3 415.8 86.9 C 415.6 87.4 415.5 88.2 415.5 89.2 C 415.49 89.15 415.5 96 415.5 96 L 413.4 96 Z M 435.2 92 C 435.2 92 437.4 92.2 437.4 92.2 C 437.1 93.5 436.4 94.5 435.5 95.2 C 434.6 95.9 433.4 96.2 432 96.2 C 430.1 96.2 428.7 95.7 427.6 94.6 C 426.6 93.4 426 91.9 426 89.8 C 426 87.7 426.6 86.1 427.6 85 C 428.7 83.8 430.1 83.2 431.8 83.2 C 433.5 83.2 434.9 83.8 435.9 84.9 C 437 86.1 437.5 87.7 437.5 89.7 C 437.5 89.8 437.5 90 437.5 90.3 C 437.5 90.3 428.2 90.3 428.2 90.3 C 428.3 91.6 428.7 92.7 429.4 93.4 C 430.1 94.1 430.9 94.5 432 94.5 C 432.7 94.5 433.4 94.3 433.9 93.9 C 434.5 93.5 434.9 92.8 435.2 92 Z M 428.3 88.5 C 428.3 88.5 435.3 88.5 435.3 88.5 C 435.2 87.5 434.9 86.7 434.5 86.2 C 433.8 85.4 432.9 85 431.9 85 C 430.9 85 430.1 85.3 429.4 85.9 C 428.8 86.6 428.4 87.5 428.3 88.5 Z M 454.9 91.4 C 454.9 91.4 456.9 91.7 456.9 91.7 C 456.7 93.1 456.1 94.2 455.2 95 C 454.3 95.8 453.1 96.2 451.8 96.2 C 450.1 96.2 448.7 95.7 447.7 94.6 C 446.6 93.5 446.1 91.9 446.1 89.8 C 446.1 88.4 446.3 87.3 446.8 86.3 C 447.2 85.2 447.9 84.5 448.8 84 C 449.7 83.5 450.7 83.2 451.8 83.2 C 453.1 83.2 454.2 83.6 455.1 84.3 C 455.9 84.9 456.5 85.9 456.7 87.2 C 456.7 87.2 454.7 87.5 454.7 87.5 C 454.5 86.7 454.1 86 453.7 85.6 C 453.2 85.2 452.6 85 451.9 85 C 450.8 85 449.9 85.3 449.3 86.1 C 448.6 86.9 448.3 88.1 448.3 89.7 C 448.3 91.4 448.6 92.6 449.2 93.4 C 449.9 94.1 450.7 94.5 451.7 94.5 C 452.6 94.5 453.3 94.3 453.8 93.7 C 454.4 93.2 454.7 92.5 454.9 91.4 Z M 458.7 96 L 458.7 78.8 L 460.8 78.8 L 460.8 96 L 458.7 96 Z M 464.1 81.2 L 464.1 78.8 L 466.2 78.8 L 466.2 81.2 L 464.1 81.2 Z M 464.1 96 L 464.1 83.5 L 466.2 83.5 L 466.2 96 L 464.1 96 Z M 477.9 92 C 477.9 92 480.1 92.2 480.1 92.2 C 479.8 93.5 479.1 94.5 478.2 95.2 C 477.3 95.9 476.1 96.2 474.6 96.2 C 472.8 96.2 471.4 95.7 470.3 94.6 C 469.2 93.4 468.7 91.9 468.7 89.8 C 468.7 87.7 469.2 86.1 470.3 85 C 471.4 83.8 472.8 83.2 474.5 83.2 C 476.2 83.2 477.5 83.8 478.6 84.9 C 479.6 86.1 480.2 87.7 480.2 89.7 C 480.2 89.8 480.2 90 480.2 90.3 C 480.2 90.3 470.9 90.3 470.9 90.3 C 471 91.6 471.3 92.7 472 93.4 C 472.7 94.1 473.6 94.5 474.6 94.5 C 475.4 94.5 476.1 94.3 476.6 93.9 C 477.2 93.5 477.6 92.8 477.9 92 Z M 471 88.5 C 471 88.5 477.9 88.5 477.9 88.5 C 477.9 87.5 477.6 86.7 477.2 86.2 C 476.5 85.4 475.6 85 474.5 85 C 473.6 85 472.8 85.3 472.1 85.9 C 471.4 86.6 471.1 87.5 471 88.5 Z M 482.8 96 L 482.8 83.5 L 484.7 83.5 C 484.7 83.5 484.65 85.28 484.7 85.3 C 485.6 83.9 486.9 83.2 488.6 83.2 C 489.4 83.2 490.1 83.4 490.7 83.6 C 491.3 83.9 491.8 84.3 492.1 84.7 C 492.4 85.1 492.6 85.7 492.8 86.3 C 492.8 86.6 492.9 87.3 492.9 88.3 C 492.87 88.31 492.9 96 492.9 96 L 490.8 96 C 490.8 96 490.76 88.39 490.8 88.4 C 490.8 87.5 490.7 86.9 490.5 86.5 C 490.3 86 490.1 85.7 489.6 85.4 C 489.2 85.2 488.7 85.1 488.2 85.1 C 487.3 85.1 486.5 85.3 485.8 85.9 C 485.2 86.5 484.9 87.6 484.9 89.2 C 484.86 89.16 484.9 96 484.9 96 L 482.8 96 Z M 499.8 94.2 C 500 94.2 500.3 94.1 500.7 94.1 C 500.7 94.1 501 95.9 501 95.9 C 500.4 96.1 499.9 96.1 499.4 96.1 C 498.7 96.1 498.1 96 497.6 95.8 C 497.2 95.5 496.9 95.2 496.7 94.8 C 496.6 94.4 496.5 93.6 496.5 92.3 C 496.49 92.32 496.5 85.2 496.5 85.2 L 494.9 85.2 L 494.9 83.5 L 496.5 83.5 L 496.5 80.4 L 498.6 79.2 L 498.6 83.5 L 500.7 83.5 L 500.7 85.2 L 498.6 85.2 C 498.6 85.2 498.59 92.43 498.6 92.4 C 498.6 93 498.6 93.4 498.7 93.6 C 498.8 93.8 498.9 93.9 499.1 94 C 499.2 94.1 499.5 94.2 499.8 94.2 C 499.8 94.2 499.8 94.2 499.8 94.2 Z " stroke="none" fill="#ffffff"/>  </g>  <g id="Polygon7698">    <path d="M 14.1 61.1 C 14.1 61.1 16.4 61.7 16.4 61.7 C 15.9 63.6 15 65 13.8 66 C 12.6 67 11.1 67.5 9.3 67.5 C 7.4 67.5 5.9 67.1 4.8 66.3 C 3.6 65.6 2.7 64.5 2.1 63 C 1.5 61.6 1.2 60.1 1.2 58.4 C 1.2 56.7 1.5 55.1 2.2 53.8 C 2.9 52.4 3.9 51.4 5.1 50.7 C 6.4 50 7.8 49.7 9.3 49.7 C 11 49.7 12.5 50.1 13.6 51 C 14.8 51.9 15.6 53.1 16.1 54.7 C 16.1 54.7 13.9 55.2 13.9 55.2 C 13.5 54 12.9 53.1 12.1 52.5 C 11.4 51.9 10.4 51.6 9.3 51.6 C 7.9 51.6 6.8 51.9 5.9 52.6 C 5.1 53.2 4.4 54.1 4.1 55.1 C 3.7 56.2 3.5 57.3 3.5 58.4 C 3.5 59.9 3.8 61.2 4.2 62.3 C 4.6 63.3 5.3 64.2 6.2 64.7 C 7.1 65.2 8 65.5 9.1 65.5 C 10.4 65.5 11.4 65.1 12.3 64.4 C 13.2 63.7 13.8 62.6 14.1 61.1 Z M 18.1 60.9 C 18.1 58.6 18.8 56.9 20.1 55.8 C 21.1 54.9 22.4 54.4 24 54.4 C 25.7 54.4 27.1 55 28.2 56.1 C 29.2 57.2 29.8 58.8 29.8 60.8 C 29.8 62.4 29.5 63.6 29.1 64.5 C 28.6 65.5 27.9 66.2 27 66.7 C 26.1 67.2 25.1 67.4 24 67.4 C 22.2 67.4 20.8 66.9 19.7 65.8 C 18.7 64.6 18.1 63 18.1 60.9 Z M 20.3 60.9 C 20.3 62.5 20.6 63.7 21.3 64.5 C 22 65.3 22.9 65.7 24 65.7 C 25 65.7 25.9 65.3 26.6 64.5 C 27.3 63.7 27.6 62.5 27.6 60.9 C 27.6 59.3 27.3 58.2 26.6 57.4 C 25.9 56.6 25 56.2 24 56.2 C 22.9 56.2 22 56.6 21.3 57.4 C 20.6 58.2 20.3 59.3 20.3 60.9 Z M 32.3 67.2 L 32.3 54.7 L 34.2 54.7 C 34.2 54.7 34.16 56.48 34.2 56.5 C 35.1 55.1 36.4 54.4 38.1 54.4 C 38.9 54.4 39.6 54.6 40.2 54.8 C 40.8 55.1 41.3 55.5 41.6 55.9 C 41.9 56.3 42.1 56.9 42.3 57.5 C 42.3 57.8 42.4 58.5 42.4 59.5 C 42.38 59.51 42.4 67.2 42.4 67.2 L 40.3 67.2 C 40.3 67.2 40.27 59.59 40.3 59.6 C 40.3 58.7 40.2 58.1 40 57.7 C 39.9 57.2 39.6 56.9 39.1 56.6 C 38.7 56.4 38.2 56.3 37.7 56.3 C 36.8 56.3 36 56.5 35.3 57.1 C 34.7 57.7 34.4 58.8 34.4 60.4 C 34.37 60.36 34.4 67.2 34.4 67.2 L 32.3 67.2 Z M 49.3 65.4 C 49.5 65.4 49.8 65.3 50.2 65.3 C 50.2 65.3 50.5 67.1 50.5 67.1 C 49.9 67.3 49.4 67.3 48.9 67.3 C 48.2 67.3 47.6 67.2 47.1 67 C 46.7 66.7 46.4 66.4 46.3 66 C 46.1 65.6 46 64.8 46 63.5 C 46 63.52 46 56.4 46 56.4 L 44.4 56.4 L 44.4 54.7 L 46 54.7 L 46 51.6 L 48.1 50.4 L 48.1 54.7 L 50.2 54.7 L 50.2 56.4 L 48.1 56.4 C 48.1 56.4 48.09 63.63 48.1 63.6 C 48.1 64.2 48.1 64.6 48.2 64.8 C 48.3 65 48.4 65.1 48.6 65.2 C 48.7 65.3 49 65.4 49.3 65.4 C 49.3 65.4 49.3 65.4 49.3 65.4 Z M 52.3 52.4 L 52.3 50 L 54.4 50 L 54.4 52.4 L 52.3 52.4 Z M 52.3 67.2 L 52.3 54.7 L 54.4 54.7 L 54.4 67.2 L 52.3 67.2 Z M 57.6 67.2 L 57.6 54.7 L 59.5 54.7 C 59.5 54.7 59.51 56.48 59.5 56.5 C 60.4 55.1 61.7 54.4 63.5 54.4 C 64.2 54.4 64.9 54.6 65.5 54.8 C 66.2 55.1 66.6 55.5 66.9 55.9 C 67.3 56.3 67.5 56.9 67.6 57.5 C 67.7 57.8 67.7 58.5 67.7 59.5 C 67.72 59.51 67.7 67.2 67.7 67.2 L 65.6 67.2 C 65.6 67.2 65.61 59.59 65.6 59.6 C 65.6 58.7 65.5 58.1 65.4 57.7 C 65.2 57.2 64.9 56.9 64.5 56.6 C 64.1 56.4 63.6 56.3 63 56.3 C 62.1 56.3 61.3 56.5 60.7 57.1 C 60 57.7 59.7 58.8 59.7 60.4 C 59.72 60.36 59.7 67.2 59.7 67.2 L 57.6 67.2 Z M 79.1 67.2 C 79.1 67.2 79.11 65.33 79.1 65.3 C 78.1 66.7 76.8 67.4 75.2 67.4 C 74.4 67.4 73.7 67.3 73.1 67 C 72.5 66.7 72 66.4 71.7 66 C 71.4 65.5 71.2 65 71 64.4 C 71 64 70.9 63.3 70.9 62.4 C 70.91 62.43 70.9 54.7 70.9 54.7 L 73 54.7 C 73 54.7 73.02 61.62 73 61.6 C 73 62.7 73.1 63.5 73.1 63.8 C 73.3 64.4 73.6 64.8 74 65.1 C 74.4 65.5 75 65.6 75.6 65.6 C 76.2 65.6 76.8 65.5 77.4 65.1 C 77.9 64.8 78.3 64.4 78.5 63.8 C 78.8 63.3 78.9 62.4 78.9 61.4 C 78.89 61.38 78.9 54.7 78.9 54.7 L 81 54.7 L 81 67.2 L 79.1 67.2 Z M 83.5 60.9 C 83.5 58.6 84.2 56.9 85.4 55.8 C 86.5 54.9 87.8 54.4 89.4 54.4 C 91.1 54.4 92.5 55 93.6 56.1 C 94.6 57.2 95.2 58.8 95.2 60.8 C 95.2 62.4 94.9 63.6 94.5 64.5 C 94 65.5 93.3 66.2 92.4 66.7 C 91.4 67.2 90.4 67.4 89.4 67.4 C 87.6 67.4 86.2 66.9 85.1 65.8 C 84.1 64.6 83.5 63 83.5 60.9 Z M 85.7 60.9 C 85.7 62.5 86 63.7 86.7 64.5 C 87.4 65.3 88.3 65.7 89.4 65.7 C 90.4 65.7 91.3 65.3 92 64.5 C 92.7 63.7 93 62.5 93 60.9 C 93 59.3 92.7 58.2 92 57.4 C 91.3 56.6 90.4 56.2 89.4 56.2 C 88.3 56.2 87.4 56.6 86.7 57.4 C 86 58.2 85.7 59.3 85.7 60.9 Z M 105.8 67.2 C 105.8 67.2 105.81 65.33 105.8 65.3 C 104.8 66.7 103.5 67.4 101.9 67.4 C 101.1 67.4 100.4 67.3 99.8 67 C 99.2 66.7 98.7 66.4 98.4 66 C 98.1 65.5 97.9 65 97.7 64.4 C 97.6 64 97.6 63.3 97.6 62.4 C 97.61 62.43 97.6 54.7 97.6 54.7 L 99.7 54.7 C 99.7 54.7 99.71 61.62 99.7 61.6 C 99.7 62.7 99.8 63.5 99.8 63.8 C 100 64.4 100.3 64.8 100.7 65.1 C 101.1 65.5 101.6 65.6 102.3 65.6 C 102.9 65.6 103.5 65.5 104.1 65.1 C 104.6 64.8 105 64.4 105.2 63.8 C 105.5 63.3 105.6 62.4 105.6 61.4 C 105.59 61.38 105.6 54.7 105.6 54.7 L 107.7 54.7 L 107.7 67.2 L 105.8 67.2 Z M 110.2 63.4 C 110.2 63.4 112.2 63.1 112.2 63.1 C 112.4 64 112.7 64.6 113.2 65 C 113.8 65.5 114.5 65.7 115.5 65.7 C 116.4 65.7 117.2 65.5 117.6 65.1 C 118.1 64.7 118.3 64.3 118.3 63.7 C 118.3 63.2 118.1 62.9 117.7 62.6 C 117.4 62.4 116.7 62.2 115.5 61.9 C 114 61.5 112.9 61.2 112.3 60.9 C 111.7 60.6 111.3 60.2 111 59.7 C 110.7 59.2 110.5 58.6 110.5 58 C 110.5 57.5 110.6 57 110.9 56.5 C 111.1 56 111.5 55.6 111.9 55.3 C 112.3 55.1 112.7 54.9 113.3 54.7 C 113.8 54.5 114.4 54.4 115.1 54.4 C 116.1 54.4 116.9 54.6 117.7 54.9 C 118.4 55.1 118.9 55.5 119.3 56 C 119.6 56.5 119.9 57.1 120 57.9 C 120 57.9 118 58.2 118 58.2 C 117.9 57.6 117.6 57.1 117.1 56.7 C 116.7 56.3 116.1 56.2 115.2 56.2 C 114.3 56.2 113.6 56.3 113.2 56.6 C 112.8 57 112.5 57.3 112.5 57.8 C 112.5 58 112.6 58.3 112.8 58.5 C 113 58.7 113.2 58.9 113.6 59.1 C 113.8 59.2 114.4 59.3 115.5 59.6 C 117 60 118 60.3 118.6 60.6 C 119.2 60.8 119.7 61.2 120 61.7 C 120.3 62.2 120.5 62.8 120.5 63.5 C 120.5 64.2 120.3 64.9 119.9 65.5 C 119.5 66.1 118.9 66.6 118.1 66.9 C 117.3 67.3 116.5 67.4 115.5 67.4 C 113.9 67.4 112.6 67.1 111.8 66.4 C 110.9 65.8 110.4 64.8 110.2 63.4 Z M 129.7 52.4 L 129.7 50 L 131.8 50 L 131.8 52.4 L 129.7 52.4 Z M 129.7 67.2 L 129.7 54.7 L 131.8 54.7 L 131.8 67.2 L 129.7 67.2 Z M 135 67.2 L 135 54.7 L 136.9 54.7 C 136.9 54.7 136.89 56.46 136.9 56.5 C 137.3 55.9 137.8 55.4 138.4 55 C 139.1 54.6 139.8 54.4 140.7 54.4 C 141.6 54.4 142.3 54.6 142.9 55 C 143.5 55.4 143.9 55.9 144.2 56.6 C 145.2 55.2 146.4 54.4 148 54.4 C 149.3 54.4 150.2 54.8 150.9 55.5 C 151.5 56.1 151.9 57.2 151.9 58.6 C 151.86 58.62 151.9 67.2 151.9 67.2 L 149.8 67.2 C 149.8 67.2 149.77 59.32 149.8 59.3 C 149.8 58.5 149.7 57.9 149.6 57.5 C 149.4 57.1 149.2 56.8 148.8 56.6 C 148.5 56.4 148 56.3 147.6 56.3 C 146.7 56.3 145.9 56.6 145.4 57.1 C 144.8 57.7 144.5 58.6 144.5 59.9 C 144.5 59.93 144.5 67.2 144.5 67.2 L 142.4 67.2 C 142.4 67.2 142.39 59.07 142.4 59.1 C 142.4 58.1 142.2 57.4 141.9 57 C 141.5 56.5 141 56.3 140.2 56.3 C 139.6 56.3 139 56.4 138.5 56.7 C 138 57 137.7 57.5 137.4 58.1 C 137.2 58.7 137.1 59.6 137.1 60.7 C 137.11 60.7 137.1 67.2 137.1 67.2 L 135 67.2 Z M 155 71.9 L 155 54.7 L 156.9 54.7 C 156.9 54.7 156.91 56.33 156.9 56.3 C 157.4 55.7 157.9 55.2 158.4 54.9 C 159 54.6 159.7 54.4 160.5 54.4 C 161.6 54.4 162.5 54.7 163.3 55.3 C 164.1 55.8 164.8 56.6 165.2 57.6 C 165.6 58.6 165.8 59.7 165.8 60.8 C 165.8 62.1 165.6 63.3 165.1 64.3 C 164.7 65.3 164 66.1 163.1 66.6 C 162.2 67.2 161.3 67.4 160.4 67.4 C 159.7 67.4 159 67.3 158.5 67 C 157.9 66.7 157.5 66.3 157.1 65.9 C 157.1 65.87 157.1 71.9 157.1 71.9 L 155 71.9 Z M 156.9 61 C 156.9 62.6 157.2 63.8 157.9 64.6 C 158.5 65.3 159.3 65.7 160.2 65.7 C 161.2 65.7 162 65.3 162.6 64.5 C 163.3 63.7 163.6 62.5 163.6 60.8 C 163.6 59.2 163.3 58.1 162.7 57.3 C 162 56.5 161.2 56.1 160.3 56.1 C 159.4 56.1 158.6 56.5 157.9 57.3 C 157.2 58.2 156.9 59.4 156.9 61 Z M 168.3 67.2 L 168.3 54.7 L 170.2 54.7 C 170.2 54.7 170.21 56.6 170.2 56.6 C 170.7 55.7 171.1 55.1 171.6 54.9 C 172 54.6 172.4 54.4 172.9 54.4 C 173.6 54.4 174.3 54.7 175.1 55.1 C 175.1 55.1 174.4 57.1 174.4 57.1 C 173.8 56.8 173.3 56.6 172.8 56.6 C 172.3 56.6 171.9 56.8 171.6 57 C 171.2 57.3 170.9 57.7 170.8 58.2 C 170.5 58.9 170.4 59.8 170.4 60.6 C 170.43 60.64 170.4 67.2 170.4 67.2 L 168.3 67.2 Z M 175.5 60.9 C 175.5 58.6 176.2 56.9 177.5 55.8 C 178.5 54.9 179.8 54.4 181.4 54.4 C 183.1 54.4 184.5 55 185.6 56.1 C 186.7 57.2 187.2 58.8 187.2 60.8 C 187.2 62.4 187 63.6 186.5 64.5 C 186 65.5 185.3 66.2 184.4 66.7 C 183.5 67.2 182.5 67.4 181.4 67.4 C 179.6 67.4 178.2 66.9 177.2 65.8 C 176.1 64.6 175.5 63 175.5 60.9 Z M 177.7 60.9 C 177.7 62.5 178.1 63.7 178.8 64.5 C 179.5 65.3 180.3 65.7 181.4 65.7 C 182.4 65.7 183.3 65.3 184 64.5 C 184.7 63.7 185 62.5 185 60.9 C 185 59.3 184.7 58.2 184 57.4 C 183.3 56.6 182.4 56.2 181.4 56.2 C 180.3 56.2 179.5 56.6 178.8 57.4 C 178.1 58.2 177.7 59.3 177.7 60.9 Z M 193.1 67.2 L 188.4 54.7 L 190.6 54.7 C 190.6 54.7 193.3 62.17 193.3 62.2 C 193.6 63 193.9 63.8 194.1 64.7 C 194.3 64 194.5 63.2 194.9 62.3 C 194.88 62.31 197.6 54.7 197.6 54.7 L 199.8 54.7 L 195.1 67.2 L 193.1 67.2 Z M 210.2 63.2 C 210.2 63.2 212.4 63.4 212.4 63.4 C 212 64.7 211.4 65.7 210.5 66.4 C 209.5 67.1 208.4 67.4 206.9 67.4 C 205.1 67.4 203.6 66.9 202.6 65.8 C 201.5 64.6 201 63.1 201 61 C 201 58.9 201.5 57.3 202.6 56.2 C 203.7 55 205.1 54.4 206.8 54.4 C 208.5 54.4 209.8 55 210.9 56.1 C 211.9 57.3 212.4 58.9 212.4 60.9 C 212.4 61 212.4 61.2 212.4 61.5 C 212.4 61.5 203.2 61.5 203.2 61.5 C 203.2 62.8 203.6 63.9 204.3 64.6 C 205 65.3 205.9 65.7 206.9 65.7 C 207.7 65.7 208.4 65.5 208.9 65.1 C 209.4 64.7 209.9 64 210.2 63.2 Z M 203.3 59.7 C 203.3 59.7 210.2 59.7 210.2 59.7 C 210.1 58.7 209.9 57.9 209.4 57.4 C 208.8 56.6 207.9 56.2 206.8 56.2 C 205.8 56.2 205 56.5 204.4 57.1 C 203.7 57.8 203.3 58.7 203.3 59.7 Z M 215 67.2 L 215 54.7 L 216.9 54.7 C 216.9 54.7 216.91 56.46 216.9 56.5 C 217.3 55.9 217.8 55.4 218.5 55 C 219.1 54.6 219.9 54.4 220.7 54.4 C 221.6 54.4 222.4 54.6 223 55 C 223.5 55.4 224 55.9 224.2 56.6 C 225.2 55.2 226.5 54.4 228 54.4 C 229.3 54.4 230.2 54.8 230.9 55.5 C 231.6 56.1 231.9 57.2 231.9 58.6 C 231.89 58.62 231.9 67.2 231.9 67.2 L 229.8 67.2 C 229.8 67.2 229.79 59.32 229.8 59.3 C 229.8 58.5 229.7 57.9 229.6 57.5 C 229.5 57.1 229.2 56.8 228.8 56.6 C 228.5 56.4 228.1 56.3 227.6 56.3 C 226.7 56.3 226 56.6 225.4 57.1 C 224.8 57.7 224.5 58.6 224.5 59.9 C 224.53 59.93 224.5 67.2 224.5 67.2 L 222.4 67.2 C 222.4 67.2 222.42 59.07 222.4 59.1 C 222.4 58.1 222.2 57.4 221.9 57 C 221.6 56.5 221 56.3 220.2 56.3 C 219.6 56.3 219.1 56.4 218.6 56.7 C 218.1 57 217.7 57.5 217.5 58.1 C 217.2 58.7 217.1 59.6 217.1 60.7 C 217.14 60.7 217.1 67.2 217.1 67.2 L 215 67.2 Z M 243.5 63.2 C 243.5 63.2 245.7 63.4 245.7 63.4 C 245.4 64.7 244.7 65.7 243.8 66.4 C 242.9 67.1 241.7 67.4 240.2 67.4 C 238.4 67.4 237 66.9 235.9 65.8 C 234.8 64.6 234.3 63.1 234.3 61 C 234.3 58.9 234.9 57.3 235.9 56.2 C 237 55 238.4 54.4 240.1 54.4 C 241.8 54.4 243.2 55 244.2 56.1 C 245.3 57.3 245.8 58.9 245.8 60.9 C 245.8 61 245.8 61.2 245.8 61.5 C 245.8 61.5 236.5 61.5 236.5 61.5 C 236.6 62.8 237 63.9 237.7 64.6 C 238.4 65.3 239.2 65.7 240.3 65.7 C 241 65.7 241.7 65.5 242.2 65.1 C 242.8 64.7 243.2 64 243.5 63.2 Z M 236.6 59.7 C 236.6 59.7 243.6 59.7 243.6 59.7 C 243.5 58.7 243.2 57.9 242.8 57.4 C 242.1 56.6 241.2 56.2 240.2 56.2 C 239.2 56.2 238.4 56.5 237.7 57.1 C 237 57.8 236.7 58.7 236.6 59.7 Z M 248.4 67.2 L 248.4 54.7 L 250.3 54.7 C 250.3 54.7 250.27 56.48 250.3 56.5 C 251.2 55.1 252.5 54.4 254.2 54.4 C 255 54.4 255.7 54.6 256.3 54.8 C 256.9 55.1 257.4 55.5 257.7 55.9 C 258 56.3 258.2 56.9 258.4 57.5 C 258.4 57.8 258.5 58.5 258.5 59.5 C 258.48 59.51 258.5 67.2 258.5 67.2 L 256.4 67.2 C 256.4 67.2 256.37 59.59 256.4 59.6 C 256.4 58.7 256.3 58.1 256.1 57.7 C 256 57.2 255.7 56.9 255.3 56.6 C 254.8 56.4 254.3 56.3 253.8 56.3 C 252.9 56.3 252.1 56.5 251.5 57.1 C 250.8 57.7 250.5 58.8 250.5 60.4 C 250.48 60.36 250.5 67.2 250.5 67.2 L 248.4 67.2 Z M 265.4 65.4 C 265.6 65.4 265.9 65.3 266.3 65.3 C 266.3 65.3 266.6 67.1 266.6 67.1 C 266 67.3 265.5 67.3 265 67.3 C 264.3 67.3 263.7 67.2 263.3 67 C 262.8 66.7 262.5 66.4 262.4 66 C 262.2 65.6 262.1 64.8 262.1 63.5 C 262.1 63.52 262.1 56.4 262.1 56.4 L 260.6 56.4 L 260.6 54.7 L 262.1 54.7 L 262.1 51.6 L 264.2 50.4 L 264.2 54.7 L 266.3 54.7 L 266.3 56.4 L 264.2 56.4 C 264.2 56.4 264.2 63.63 264.2 63.6 C 264.2 64.2 264.2 64.6 264.3 64.8 C 264.4 65 264.5 65.1 264.7 65.2 C 264.8 65.3 265.1 65.4 265.4 65.4 C 265.4 65.4 265.4 65.4 265.4 65.4 Z M 268.9 67.2 L 268.9 64.8 L 271.3 64.8 C 271.3 64.8 271.34 67.16 271.3 67.2 C 271.3 68 271.2 68.8 270.9 69.3 C 270.6 69.8 270.1 70.3 269.4 70.6 C 269.4 70.6 268.8 69.7 268.8 69.7 C 269.2 69.5 269.6 69.2 269.8 68.8 C 270 68.4 270.1 67.9 270.1 67.2 C 270.13 67.16 268.9 67.2 268.9 67.2 Z M 290.2 63.2 C 290.2 63.2 292.4 63.4 292.4 63.4 C 292.1 64.7 291.4 65.7 290.5 66.4 C 289.6 67.1 288.4 67.4 286.9 67.4 C 285.1 67.4 283.7 66.9 282.6 65.8 C 281.5 64.6 281 63.1 281 61 C 281 58.9 281.6 57.3 282.6 56.2 C 283.7 55 285.1 54.4 286.8 54.4 C 288.5 54.4 289.9 55 290.9 56.1 C 292 57.3 292.5 58.9 292.5 60.9 C 292.5 61 292.5 61.2 292.5 61.5 C 292.5 61.5 283.2 61.5 283.2 61.5 C 283.3 62.8 283.7 63.9 284.4 64.6 C 285.1 65.3 285.9 65.7 287 65.7 C 287.7 65.7 288.4 65.5 288.9 65.1 C 289.5 64.7 289.9 64 290.2 63.2 Z M 283.3 59.7 C 283.3 59.7 290.3 59.7 290.3 59.7 C 290.2 58.7 289.9 57.9 289.5 57.4 C 288.8 56.6 287.9 56.2 286.9 56.2 C 285.9 56.2 285.1 56.5 284.4 57.1 C 283.7 57.8 283.4 58.7 283.3 59.7 Z M 295.1 67.2 L 295.1 54.7 L 297 54.7 C 297 54.7 296.95 56.46 297 56.5 C 297.3 55.9 297.9 55.4 298.5 55 C 299.2 54.6 299.9 54.4 300.7 54.4 C 301.6 54.4 302.4 54.6 303 55 C 303.6 55.4 304 55.9 304.2 56.6 C 305.2 55.2 306.5 54.4 308.1 54.4 C 309.3 54.4 310.3 54.8 310.9 55.5 C 311.6 56.1 311.9 57.2 311.9 58.6 C 311.93 58.62 311.9 67.2 311.9 67.2 L 309.8 67.2 C 309.8 67.2 309.83 59.32 309.8 59.3 C 309.8 58.5 309.8 57.9 309.6 57.5 C 309.5 57.1 309.2 56.8 308.9 56.6 C 308.5 56.4 308.1 56.3 307.6 56.3 C 306.7 56.3 306 56.6 305.4 57.1 C 304.9 57.7 304.6 58.6 304.6 59.9 C 304.57 59.93 304.6 67.2 304.6 67.2 L 302.5 67.2 C 302.5 67.2 302.46 59.07 302.5 59.1 C 302.5 58.1 302.3 57.4 301.9 57 C 301.6 56.5 301 56.3 300.3 56.3 C 299.7 56.3 299.1 56.4 298.6 56.7 C 298.1 57 297.7 57.5 297.5 58.1 C 297.3 58.7 297.2 59.6 297.2 60.7 C 297.18 60.7 297.2 67.2 297.2 67.2 L 295.1 67.2 Z M 317 67.2 L 315 67.2 L 315 50 L 317.2 50 C 317.2 50 317.16 56.11 317.2 56.1 C 318 55 319.2 54.4 320.6 54.4 C 321.3 54.4 322.1 54.6 322.7 54.9 C 323.4 55.2 324 55.6 324.4 56.2 C 324.9 56.8 325.2 57.4 325.5 58.2 C 325.7 59 325.8 59.9 325.8 60.7 C 325.8 62.9 325.3 64.5 324.3 65.7 C 323.2 66.9 321.9 67.4 320.5 67.4 C 319 67.4 317.8 66.8 317 65.6 C 317 65.6 317 67.2 317 67.2 Z M 317 60.8 C 317 62.3 317.2 63.4 317.6 64.1 C 318.3 65.2 319.2 65.7 320.3 65.7 C 321.2 65.7 322 65.3 322.7 64.5 C 323.3 63.7 323.7 62.5 323.7 60.9 C 323.7 59.3 323.4 58.1 322.7 57.3 C 322.1 56.6 321.3 56.2 320.4 56.2 C 319.5 56.2 318.7 56.6 318 57.4 C 317.3 58.2 317 59.3 317 60.8 Z M 328.4 67.2 L 328.4 54.7 L 330.3 54.7 C 330.3 54.7 330.28 56.6 330.3 56.6 C 330.8 55.7 331.2 55.1 331.6 54.9 C 332 54.6 332.5 54.4 333 54.4 C 333.7 54.4 334.4 54.7 335.1 55.1 C 335.1 55.1 334.4 57.1 334.4 57.1 C 333.9 56.8 333.4 56.6 332.9 56.6 C 332.4 56.6 332 56.8 331.6 57 C 331.3 57.3 331 57.7 330.8 58.2 C 330.6 58.9 330.5 59.8 330.5 60.6 C 330.49 60.64 330.5 67.2 330.5 67.2 L 328.4 67.2 Z M 344.9 67.2 C 344.7 66.7 344.6 66.2 344.5 65.6 C 343.7 66.3 343 66.8 342.3 67 C 341.5 67.3 340.8 67.4 339.9 67.4 C 338.6 67.4 337.5 67.1 336.8 66.4 C 336.1 65.8 335.7 64.9 335.7 63.9 C 335.7 63.3 335.8 62.7 336.1 62.2 C 336.4 61.7 336.7 61.3 337.2 61 C 337.6 60.7 338.1 60.5 338.7 60.3 C 339.1 60.2 339.7 60.1 340.6 60 C 342.3 59.8 343.5 59.5 344.3 59.3 C 344.4 59 344.4 58.8 344.4 58.7 C 344.4 57.9 344.2 57.2 343.8 56.9 C 343.2 56.4 342.4 56.2 341.4 56.2 C 340.4 56.2 339.6 56.4 339.2 56.7 C 338.7 57 338.3 57.7 338.1 58.5 C 338.1 58.5 336 58.3 336 58.3 C 336.2 57.4 336.5 56.7 337 56.1 C 337.4 55.6 338 55.2 338.8 54.9 C 339.6 54.6 340.6 54.4 341.7 54.4 C 342.7 54.4 343.6 54.6 344.3 54.8 C 344.9 55.1 345.4 55.4 345.7 55.8 C 346 56.1 346.2 56.6 346.4 57.2 C 346.4 57.5 346.5 58.2 346.5 59.1 C 346.5 59.1 346.5 61.9 346.5 61.9 C 346.5 63.9 346.5 65.1 346.6 65.7 C 346.7 66.2 346.9 66.7 347.1 67.2 C 347.14 67.16 344.9 67.2 344.9 67.2 C 344.9 67.2 344.94 67.16 344.9 67.2 Z M 344.3 60.9 C 343.6 61.2 342.4 61.5 340.9 61.7 C 340 61.8 339.4 62 339.1 62.1 C 338.7 62.3 338.4 62.5 338.2 62.8 C 338 63.1 337.9 63.5 337.9 63.8 C 337.9 64.4 338.1 64.9 338.6 65.2 C 339 65.6 339.6 65.8 340.4 65.8 C 341.3 65.8 342 65.6 342.6 65.3 C 343.2 64.9 343.7 64.4 344 63.8 C 344.2 63.3 344.3 62.6 344.3 61.7 C 344.3 61.7 344.3 60.9 344.3 60.9 Z M 357.9 62.6 C 357.9 62.6 359.9 62.9 359.9 62.9 C 359.7 64.3 359.1 65.4 358.2 66.2 C 357.3 67 356.1 67.4 354.8 67.4 C 353.1 67.4 351.7 66.9 350.7 65.8 C 349.6 64.7 349.1 63.1 349.1 61 C 349.1 59.6 349.3 58.5 349.8 57.5 C 350.2 56.4 350.9 55.7 351.8 55.2 C 352.7 54.7 353.7 54.4 354.8 54.4 C 356.1 54.4 357.2 54.8 358.1 55.5 C 358.9 56.1 359.5 57.1 359.7 58.4 C 359.7 58.4 357.7 58.7 357.7 58.7 C 357.5 57.9 357.2 57.2 356.7 56.8 C 356.2 56.4 355.6 56.2 354.9 56.2 C 353.8 56.2 352.9 56.5 352.3 57.3 C 351.6 58.1 351.3 59.3 351.3 60.9 C 351.3 62.6 351.6 63.8 352.2 64.6 C 352.9 65.3 353.7 65.7 354.7 65.7 C 355.6 65.7 356.3 65.5 356.8 64.9 C 357.4 64.4 357.7 63.7 357.9 62.6 Z M 370.3 63.2 C 370.3 63.2 372.4 63.4 372.4 63.4 C 372.1 64.7 371.5 65.7 370.5 66.4 C 369.6 67.1 368.4 67.4 367 67.4 C 365.2 67.4 363.7 66.9 362.6 65.8 C 361.6 64.6 361 63.1 361 61 C 361 58.9 361.6 57.3 362.7 56.2 C 363.7 55 365.1 54.4 366.9 54.4 C 368.5 54.4 369.9 55 370.9 56.1 C 372 57.3 372.5 58.9 372.5 60.9 C 372.5 61 372.5 61.2 372.5 61.5 C 372.5 61.5 363.2 61.5 363.2 61.5 C 363.3 62.8 363.7 63.9 364.4 64.6 C 365.1 65.3 365.9 65.7 367 65.7 C 367.8 65.7 368.4 65.5 369 65.1 C 369.5 64.7 369.9 64 370.3 63.2 Z M 363.3 59.7 C 363.3 59.7 370.3 59.7 370.3 59.7 C 370.2 58.7 369.9 57.9 369.5 57.4 C 368.8 56.6 367.9 56.2 366.9 56.2 C 365.9 56.2 365.1 56.5 364.4 57.1 C 363.8 57.8 363.4 58.7 363.3 59.7 Z M 389.9 62.6 C 389.9 62.6 392 62.9 392 62.9 C 391.7 64.3 391.2 65.4 390.2 66.2 C 389.3 67 388.1 67.4 386.8 67.4 C 385.1 67.4 383.7 66.9 382.7 65.8 C 381.6 64.7 381.1 63.1 381.1 61 C 381.1 59.6 381.3 58.5 381.8 57.5 C 382.2 56.4 382.9 55.7 383.8 55.2 C 384.7 54.7 385.7 54.4 386.8 54.4 C 388.1 54.4 389.2 54.8 390.1 55.5 C 391 56.1 391.5 57.1 391.8 58.4 C 391.8 58.4 389.7 58.7 389.7 58.7 C 389.5 57.9 389.2 57.2 388.7 56.8 C 388.2 56.4 387.6 56.2 386.9 56.2 C 385.8 56.2 384.9 56.5 384.3 57.3 C 383.6 58.1 383.3 59.3 383.3 60.9 C 383.3 62.6 383.6 63.8 384.2 64.6 C 384.9 65.3 385.7 65.7 386.8 65.7 C 387.6 65.7 388.3 65.5 388.8 64.9 C 389.4 64.4 389.7 63.7 389.9 62.6 Z M 393.8 67.2 L 393.8 50 L 395.9 50 C 395.9 50 395.87 56.14 395.9 56.1 C 396.9 55 398.1 54.4 399.6 54.4 C 400.5 54.4 401.3 54.6 402 55 C 402.7 55.3 403.2 55.8 403.5 56.5 C 403.8 57.1 403.9 58.1 403.9 59.3 C 403.9 59.27 403.9 67.2 403.9 67.2 L 401.8 67.2 C 401.8 67.2 401.79 59.27 401.8 59.3 C 401.8 58.2 401.6 57.5 401.1 57 C 400.6 56.5 400 56.2 399.2 56.2 C 398.5 56.2 398 56.4 397.4 56.7 C 396.8 57.1 396.5 57.5 396.2 58.1 C 396 58.6 395.9 59.4 395.9 60.4 C 395.87 60.35 395.9 67.2 395.9 67.2 L 393.8 67.2 Z M 415.7 67.2 C 415.4 66.7 415.3 66.2 415.2 65.6 C 414.4 66.3 413.7 66.8 413 67 C 412.3 67.3 411.5 67.4 410.6 67.4 C 409.3 67.4 408.2 67.1 407.5 66.4 C 406.8 65.8 406.4 64.9 406.4 63.9 C 406.4 63.3 406.5 62.7 406.8 62.2 C 407.1 61.7 407.5 61.3 407.9 61 C 408.3 60.7 408.9 60.5 409.4 60.3 C 409.8 60.2 410.5 60.1 411.3 60 C 413 59.8 414.2 59.5 415.1 59.3 C 415.1 59 415.1 58.8 415.1 58.7 C 415.1 57.9 414.9 57.2 414.5 56.9 C 413.9 56.4 413.1 56.2 412.1 56.2 C 411.1 56.2 410.3 56.4 409.9 56.7 C 409.4 57 409 57.7 408.8 58.5 C 408.8 58.5 406.8 58.3 406.8 58.3 C 406.9 57.4 407.3 56.7 407.7 56.1 C 408.1 55.6 408.7 55.2 409.5 54.9 C 410.4 54.6 411.3 54.4 412.4 54.4 C 413.4 54.4 414.3 54.6 415 54.8 C 415.6 55.1 416.1 55.4 416.4 55.8 C 416.7 56.1 417 56.6 417.1 57.2 C 417.2 57.5 417.2 58.2 417.2 59.1 C 417.2 59.1 417.2 61.9 417.2 61.9 C 417.2 63.9 417.2 65.1 417.3 65.7 C 417.4 66.2 417.6 66.7 417.9 67.2 C 417.86 67.16 415.7 67.2 415.7 67.2 C 415.7 67.2 415.65 67.16 415.7 67.2 Z M 415.1 60.9 C 414.3 61.2 413.1 61.5 411.6 61.7 C 410.7 61.8 410.1 62 409.8 62.1 C 409.4 62.3 409.1 62.5 408.9 62.8 C 408.7 63.1 408.6 63.5 408.6 63.8 C 408.6 64.4 408.9 64.9 409.3 65.2 C 409.7 65.6 410.3 65.8 411.2 65.8 C 412 65.8 412.7 65.6 413.3 65.3 C 414 64.9 414.4 64.4 414.7 63.8 C 414.9 63.3 415.1 62.6 415.1 61.7 C 415.1 61.7 415.1 60.9 415.1 60.9 Z M 420.5 67.2 L 420.5 54.7 L 422.4 54.7 C 422.4 54.7 422.36 56.48 422.4 56.5 C 423.3 55.1 424.6 54.4 426.3 54.4 C 427.1 54.4 427.8 54.6 428.4 54.8 C 429 55.1 429.5 55.5 429.8 55.9 C 430.1 56.3 430.3 56.9 430.5 57.5 C 430.5 57.8 430.6 58.5 430.6 59.5 C 430.57 59.51 430.6 67.2 430.6 67.2 L 428.5 67.2 C 428.5 67.2 428.46 59.59 428.5 59.6 C 428.5 58.7 428.4 58.1 428.2 57.7 C 428.1 57.2 427.8 56.9 427.3 56.6 C 426.9 56.4 426.4 56.3 425.9 56.3 C 425 56.3 424.2 56.5 423.5 57.1 C 422.9 57.7 422.6 58.8 422.6 60.4 C 422.57 60.36 422.6 67.2 422.6 67.2 L 420.5 67.2 Z M 433.4 68.2 C 433.4 68.2 435.5 68.5 435.5 68.5 C 435.6 69.1 435.8 69.6 436.2 69.9 C 436.7 70.3 437.4 70.5 438.3 70.5 C 439.3 70.5 440.1 70.3 440.6 69.9 C 441.1 69.5 441.5 68.9 441.7 68.2 C 441.8 67.8 441.8 66.9 441.8 65.5 C 440.9 66.6 439.7 67.2 438.4 67.2 C 436.7 67.2 435.3 66.5 434.4 65.3 C 433.5 64.1 433 62.6 433 60.9 C 433 59.7 433.2 58.6 433.6 57.6 C 434.1 56.6 434.7 55.8 435.5 55.3 C 436.3 54.7 437.3 54.4 438.4 54.4 C 439.9 54.4 441.1 55 442 56.2 C 442.02 56.21 442 54.7 442 54.7 L 444 54.7 C 444 54.7 443.96 65.47 444 65.5 C 444 67.4 443.8 68.8 443.4 69.6 C 443 70.4 442.4 71 441.5 71.5 C 440.6 72 439.6 72.2 438.3 72.2 C 436.9 72.2 435.7 71.9 434.7 71.2 C 433.8 70.5 433.4 69.5 433.4 68.2 Z M 435.2 60.7 C 435.2 62.3 435.5 63.5 436.1 64.3 C 436.8 65 437.6 65.4 438.6 65.4 C 439.5 65.4 440.4 65 441 64.3 C 441.7 63.5 442 62.4 442 60.8 C 442 59.3 441.7 58.1 441 57.3 C 440.3 56.6 439.5 56.2 438.5 56.2 C 437.6 56.2 436.8 56.6 436.1 57.3 C 435.5 58.1 435.2 59.2 435.2 60.7 Z M 455.7 63.2 C 455.7 63.2 457.9 63.4 457.9 63.4 C 457.5 64.7 456.9 65.7 455.9 66.4 C 455 67.1 453.8 67.4 452.4 67.4 C 450.6 67.4 449.1 66.9 448 65.8 C 447 64.6 446.4 63.1 446.4 61 C 446.4 58.9 447 57.3 448.1 56.2 C 449.1 55 450.5 54.4 452.3 54.4 C 453.9 54.4 455.3 55 456.3 56.1 C 457.4 57.3 457.9 58.9 457.9 60.9 C 457.9 61 457.9 61.2 457.9 61.5 C 457.9 61.5 448.6 61.5 448.6 61.5 C 448.7 62.8 449.1 63.9 449.8 64.6 C 450.5 65.3 451.4 65.7 452.4 65.7 C 453.2 65.7 453.8 65.5 454.4 65.1 C 454.9 64.7 455.4 64 455.7 63.2 Z M 448.7 59.7 C 448.7 59.7 455.7 59.7 455.7 59.7 C 455.6 58.7 455.3 57.9 454.9 57.4 C 454.2 56.6 453.4 56.2 452.3 56.2 C 451.3 56.2 450.5 56.5 449.8 57.1 C 449.2 57.8 448.8 58.7 448.7 59.7 Z M 461.1 67.2 L 461.1 64.8 L 463.5 64.8 C 463.5 64.8 463.45 67.16 463.5 67.2 C 463.5 68 463.3 68.8 463 69.3 C 462.7 69.8 462.2 70.3 461.5 70.6 C 461.5 70.6 460.9 69.7 460.9 69.7 C 461.4 69.5 461.7 69.2 461.9 68.8 C 462.1 68.4 462.2 67.9 462.2 67.2 C 462.25 67.16 461.1 67.2 461.1 67.2 Z " stroke="none" fill="#ffffff"/>  </g>  <g id="Polygon7697">    <path d="M 6.1 1.9 L 6.1 29.2 L 3.1 29.2 L 3.1 1.9 L 6.1 1.9 Z M 14.7 1.9 L 34 24.4 L 34 1.9 L 36.9 1.9 L 36.9 29.2 L 34.2 29.2 L 15.1 6.7 L 15.1 29.2 L 12.2 29.2 L 12.2 1.9 L 14.7 1.9 Z M 45.5 1.9 L 64.8 24.4 L 64.8 1.9 L 67.7 1.9 L 67.7 29.2 L 65 29.2 L 45.9 6.7 L 45.9 29.2 L 43 29.2 L 43 1.9 L 45.5 1.9 Z M 101.4 15.4 C 101.4 23 95.8 29.5 86.8 29.5 C 78.3 29.5 72.6 23.1 72.6 15.7 C 72.6 8.1 78 1.5 86.9 1.5 C 95.6 1.5 101.4 7.8 101.4 15.4 Z M 75.7 15.6 C 75.7 22 80.7 26.7 86.8 26.7 C 94.9 26.7 98.2 20.4 98.2 15.5 C 98.2 10 94.2 4.4 87 4.4 C 79.6 4.4 75.7 10 75.7 15.6 Z M 102.1 1.9 L 105.1 1.9 L 114 23.1 L 114 23.1 L 122.8 1.9 L 125.8 1.9 L 114.3 29.4 L 113.6 29.4 L 102.1 1.9 Z M 137.6 1.7 L 149.8 29.2 L 146.7 29.2 L 142.8 20.6 L 130.4 20.6 L 126.8 29.2 L 123.7 29.2 L 135.5 1.7 L 137.6 1.7 Z M 131.6 17.9 L 141.6 17.9 L 136.5 6.3 L 131.6 17.9 Z M 169.4 1.9 L 169.4 4.5 L 159.7 4.5 L 159.7 29.2 L 156.7 29.2 L 156.7 4.5 L 147 4.5 L 147 1.9 L 169.4 1.9 Z M 176.1 1.9 L 176.1 29.2 L 173.1 29.2 L 173.1 1.9 L 176.1 1.9 Z M 179.2 1.9 L 182.2 1.9 L 191.1 23.1 L 191.2 23.1 L 200 1.9 L 203 1.9 L 191.5 29.4 L 190.8 29.4 L 179.2 1.9 Z M 221 1.9 L 221 4.6 L 209.1 4.6 L 209.1 14.1 L 220.6 14.1 L 220.6 16.8 L 209.1 16.8 L 209.1 26.4 L 221.4 26.4 L 221.4 29.2 L 206.1 29.2 L 206.1 1.9 L 221 1.9 Z " stroke="none" fill="#ffffff"/>  </g></svg>