<?xml version="1.0" standalone="no"?><!DOCTYPE svg PUBLIC "-//W3C//DTD SVG 1.1//EN" "http://www.w3.org/Graphics/SVG/1.1/DTD/svg11.dtd"><svg xmlns="http://www.w3.org/2000/svg" version="1.1" width="411px" height="75.5px" viewBox="0 -12 411 75.5" style="top:-12px">  <desc>Client Feedback</desc>  <defs/>  <g id="Polygon15907">    <path d="M 32 4.6 C 32 4.6 32 8.6 32 8.6 C 28.4 6.6 24.5 5.4 20.5 5.4 C 11.8 5.4 6.3 11.9 6.3 19.4 C 6.3 27.1 11.7 33.4 20.4 33.4 C 24.6 33.4 28.6 32.2 32.3 29.9 C 32.3 29.9 32.3 34 32.3 34 C 28.5 36 24.5 36.9 20.3 36.9 C 8.5 36.9 2.4 28 2.4 19.5 C 2.4 9.4 10.2 1.9 20.4 1.9 C 24.3 1.9 28.1 2.8 32 4.6 Z M 41.9 2.3 L 41.9 33 L 57.9 33 L 57.9 36.4 L 38.1 36.4 L 38.1 2.3 L 41.9 2.3 Z M 66 2.3 L 66 36.4 L 62.3 36.4 L 62.3 2.3 L 66 2.3 Z M 92.3 2.3 L 92.3 5.7 L 77.4 5.7 L 77.4 17.6 L 91.8 17.6 L 91.8 20.9 L 77.4 20.9 L 77.4 33 L 92.7 33 L 92.7 36.4 L 73.7 36.4 L 73.7 2.3 L 92.3 2.3 Z M 101.9 2.3 L 126 30.5 L 126 2.3 L 129.6 2.3 L 129.6 36.4 L 126.3 36.4 L 102.4 8.3 L 102.4 36.4 L 98.8 36.4 L 98.8 2.3 L 101.9 2.3 Z M 162.2 2.3 L 162.2 5.6 L 150 5.6 L 150 36.4 L 146.2 36.4 L 146.2 5.6 L 134.2 5.6 L 134.2 2.3 L 162.2 2.3 Z M 198.2 2.3 L 198.2 5.7 L 184.4 5.7 L 184.4 16.7 L 197.7 16.7 L 197.7 20.1 L 184.4 20.1 L 184.4 36.4 L 180.7 36.4 L 180.7 2.3 L 198.2 2.3 Z M 221.8 2.3 L 221.8 5.7 L 206.9 5.7 L 206.9 17.6 L 221.3 17.6 L 221.3 20.9 L 206.9 20.9 L 206.9 33 L 222.2 33 L 222.2 36.4 L 203.2 36.4 L 203.2 2.3 L 221.8 2.3 Z M 246.9 2.3 L 246.9 5.7 L 232 5.7 L 232 17.6 L 246.4 17.6 L 246.4 20.9 L 232 20.9 L 232 33 L 247.3 33 L 247.3 36.4 L 228.3 36.4 L 228.3 2.3 L 246.9 2.3 Z M 253.4 2.3 C 253.4 2.3 265.95 2.35 265.9 2.3 C 277.1 2.3 284.3 9.3 284.3 19 C 284.3 29.6 276.8 36.4 265.9 36.4 C 265.95 36.45 253.4 36.4 253.4 36.4 L 253.4 2.3 Z M 265.9 33 C 274.8 33 280.4 27.7 280.4 19.3 C 280.4 11.1 275 5.7 265.3 5.7 C 265.35 5.7 257.1 5.7 257.1 5.7 L 257.1 33 C 257.1 33 265.9 33.05 265.9 33 Z M 299.3 2.3 C 305.7 2.3 309.9 5.6 309.9 11 C 309.9 14.7 307.9 17.3 304.2 18.5 C 309.5 19.3 312.8 22.8 312.8 27.3 C 312.8 33.6 307.2 36.4 300.9 36.4 C 300.95 36.45 290.5 36.4 290.5 36.4 L 290.5 2.3 C 290.5 2.3 299.35 2.35 299.3 2.3 Z M 294.2 17.5 C 294.2 17.5 298 17.5 298 17.5 C 303.6 17.5 306 14.9 306 11.4 C 306 7.4 303.6 5.6 298.6 5.6 C 298.6 5.65 294.2 5.6 294.2 5.6 L 294.2 17.5 Z M 300.2 33.1 C 305.7 33.1 308.9 31.3 308.9 27 C 308.9 23 306.1 20.7 299.7 20.7 C 299.7 20.75 294.2 20.7 294.2 20.7 L 294.2 33.1 C 294.2 33.1 300.25 33.15 300.2 33.1 Z M 332.6 2.1 L 347.8 36.4 L 344 36.4 L 339.2 25.7 L 323.7 25.7 L 319.1 36.4 L 315.2 36.4 L 330 2.1 L 332.6 2.1 Z M 325.1 22.4 L 337.7 22.4 L 331.2 7.9 L 325.1 22.4 Z M 378.4 4.6 C 378.4 4.6 378.4 8.6 378.4 8.6 C 374.8 6.6 370.8 5.4 366.8 5.4 C 358.1 5.4 352.6 11.9 352.6 19.4 C 352.6 27.1 358.1 33.4 366.8 33.4 C 371 33.4 375 32.2 378.6 29.9 C 378.6 29.9 378.6 34 378.6 34 C 374.8 36 370.9 36.9 366.7 36.9 C 354.9 36.9 348.7 28 348.7 19.5 C 348.7 9.4 356.5 1.9 366.8 1.9 C 370.6 1.9 374.5 2.8 378.4 4.6 Z M 388.3 2.3 L 388.3 18.3 L 403.2 2.3 L 407.9 2.3 L 392.7 18.7 L 410.9 36.4 L 405.8 36.4 L 388.3 19.5 L 388.3 36.4 L 384.5 36.4 L 384.5 2.3 L 388.3 2.3 Z " stroke="none" fill="#010102"/>  </g></svg>