<?xml version="1.0" standalone="no"?><!DOCTYPE svg PUBLIC "-//W3C//DTD SVG 1.1//EN" "http://www.w3.org/Graphics/SVG/1.1/DTD/svg11.dtd"><svg xmlns="http://www.w3.org/2000/svg" version="1.1" width="44px" height="20.5px" viewBox="0 -4 44 20.5" style="top:-4px">  <desc>71 100</desc>  <defs/>  <g id="Polygon5041">    <path d="M 0.6 1.3 L 0.6 0.3 L 6.1 0.3 C 6.1 0.3 6.13 1.08 6.1 1.1 C 5.6 1.7 5 2.4 4.5 3.4 C 4 4.4 3.6 5.4 3.3 6.4 C 3 7.1 2.9 7.9 2.9 8.7 C 2.9 8.7 1.8 8.7 1.8 8.7 C 1.8 8.1 1.9 7.2 2.2 6.3 C 2.4 5.3 2.8 4.4 3.3 3.5 C 3.7 2.6 4.2 1.9 4.8 1.3 C 4.78 1.27 0.6 1.3 0.6 1.3 Z M 11.1 8.7 L 10.1 8.7 C 10.1 8.7 10.09 2.02 10.1 2 C 9.8 2.3 9.5 2.5 9.1 2.7 C 8.7 3 8.3 3.2 8 3.3 C 8 3.3 8 2.3 8 2.3 C 8.6 2 9.1 1.7 9.5 1.3 C 10 0.9 10.3 0.5 10.5 0.1 C 10.46 0.11 11.1 0.1 11.1 0.1 L 11.1 8.7 Z M 17 6.2 L 17 5.1 L 20.2 5.1 L 20.2 6.2 L 17 6.2 Z M 28.4 8.7 L 27.3 8.7 C 27.3 8.7 27.31 2.02 27.3 2 C 27.1 2.3 26.7 2.5 26.3 2.7 C 25.9 3 25.5 3.2 25.2 3.3 C 25.2 3.3 25.2 2.3 25.2 2.3 C 25.8 2 26.3 1.7 26.7 1.3 C 27.2 0.9 27.5 0.5 27.7 0.1 C 27.68 0.11 28.4 0.1 28.4 0.1 L 28.4 8.7 Z M 31.9 8 C 31.3 7.3 31.1 6.1 31.1 4.5 C 31.1 3.5 31.2 2.7 31.4 2 C 31.6 1.4 31.9 1 32.3 0.6 C 32.7 0.3 33.2 0.1 33.9 0.1 C 34.3 0.1 34.7 0.2 35.1 0.4 C 35.4 0.6 35.7 0.8 35.9 1.2 C 36.2 1.5 36.3 2 36.5 2.5 C 36.6 3 36.7 3.6 36.7 4.5 C 36.7 5.5 36.6 6.3 36.4 6.9 C 36.1 7.6 35.8 8 35.4 8.4 C 35 8.7 34.5 8.9 33.9 8.9 C 33 8.9 32.4 8.6 31.9 8 C 31.9 8 31.9 8 31.9 8 Z M 32.7 1.6 C 32.3 2.1 32.1 3.1 32.1 4.5 C 32.1 5.9 32.3 6.8 32.6 7.3 C 33 7.8 33.4 8 33.9 8 C 34.4 8 34.8 7.8 35.1 7.3 C 35.4 6.8 35.6 5.9 35.6 4.5 C 35.6 3.1 35.4 2.1 35.1 1.7 C 34.8 1.2 34.3 1 33.9 1 C 33.4 1 33 1.2 32.7 1.6 C 32.7 1.6 32.7 1.6 32.7 1.6 Z M 38.6 8 C 38 7.3 37.7 6.1 37.7 4.5 C 37.7 3.5 37.8 2.7 38.1 2 C 38.3 1.4 38.6 1 39 0.6 C 39.4 0.3 39.9 0.1 40.5 0.1 C 41 0.1 41.4 0.2 41.8 0.4 C 42.1 0.6 42.4 0.8 42.6 1.2 C 42.8 1.5 43 2 43.1 2.5 C 43.3 3 43.3 3.6 43.3 4.5 C 43.3 5.5 43.2 6.3 43 6.9 C 42.8 7.6 42.5 8 42.1 8.4 C 41.7 8.7 41.2 8.9 40.5 8.9 C 39.7 8.9 39.1 8.6 38.6 8 C 38.6 8 38.6 8 38.6 8 Z M 39.4 1.6 C 39 2.1 38.8 3.1 38.8 4.5 C 38.8 5.9 39 6.8 39.3 7.3 C 39.6 7.8 40.1 8 40.5 8 C 41 8 41.4 7.8 41.8 7.3 C 42.1 6.8 42.3 5.9 42.3 4.5 C 42.3 3.1 42.1 2.1 41.8 1.7 C 41.4 1.2 41 1 40.5 1 C 40 1 39.7 1.2 39.4 1.6 C 39.4 1.6 39.4 1.6 39.4 1.6 Z " stroke="none" fill="#000"/>  </g></svg>