<?xml version="1.0" standalone="no"?><!DOCTYPE svg PUBLIC "-//W3C//DTD SVG 1.1//EN" "http://www.w3.org/Graphics/SVG/1.1/DTD/svg11.dtd"><svg xmlns="http://www.w3.org/2000/svg" version="1.1" width="204px" height="54.1px" viewBox="0 -1 204 54.1" style="top:-1px">  <desc>Credibility</desc>  <defs/>  <g id="Polygon8043">    <path d="M 63.3 26.2 C 63.3 26.2 65.6 26.7 65.6 26.7 C 65.1 28.6 64.2 30 63 31 C 61.8 32 60.3 32.5 58.5 32.5 C 56.6 32.5 55.1 32.1 53.9 31.4 C 52.8 30.6 51.9 29.5 51.3 28.1 C 50.7 26.7 50.4 25.1 50.4 23.5 C 50.4 21.7 50.7 20.1 51.4 18.8 C 52.1 17.5 53.1 16.5 54.3 15.8 C 55.6 15.1 57 14.7 58.5 14.7 C 60.2 14.7 61.7 15.2 62.8 16 C 64 16.9 64.8 18.1 65.3 19.7 C 65.3 19.7 63 20.3 63 20.3 C 62.7 19 62.1 18.1 61.3 17.5 C 60.6 17 59.6 16.7 58.5 16.7 C 57.1 16.7 56 17 55.1 17.6 C 54.3 18.3 53.6 19.1 53.3 20.2 C 52.9 21.2 52.7 22.3 52.7 23.5 C 52.7 24.9 52.9 26.2 53.4 27.3 C 53.8 28.4 54.5 29.2 55.4 29.7 C 56.3 30.3 57.2 30.5 58.3 30.5 C 59.6 30.5 60.6 30.2 61.5 29.4 C 62.4 28.7 63 27.6 63.3 26.2 Z M 68.1 32.2 L 68.1 19.8 L 70 19.8 C 70 19.8 69.99 21.64 70 21.6 C 70.5 20.8 70.9 20.2 71.3 19.9 C 71.7 19.6 72.2 19.5 72.7 19.5 C 73.4 19.5 74.1 19.7 74.8 20.1 C 74.8 20.1 74.1 22.1 74.1 22.1 C 73.6 21.8 73.1 21.6 72.6 21.6 C 72.1 21.6 71.7 21.8 71.3 22.1 C 71 22.3 70.7 22.7 70.5 23.2 C 70.3 24 70.2 24.8 70.2 25.7 C 70.2 25.68 70.2 32.2 70.2 32.2 L 68.1 32.2 Z M 84.6 28.2 C 84.6 28.2 86.8 28.5 86.8 28.5 C 86.5 29.7 85.8 30.7 84.9 31.4 C 84 32.1 82.8 32.5 81.3 32.5 C 79.5 32.5 78.1 31.9 77 30.8 C 75.9 29.7 75.4 28.1 75.4 26.1 C 75.4 24 75.9 22.4 77 21.2 C 78.1 20 79.5 19.5 81.2 19.5 C 82.9 19.5 84.2 20 85.3 21.2 C 86.3 22.3 86.9 23.9 86.9 26 C 86.9 26.1 86.9 26.3 86.9 26.5 C 86.9 26.5 77.6 26.5 77.6 26.5 C 77.7 27.9 78 28.9 78.7 29.7 C 79.4 30.4 80.3 30.7 81.3 30.7 C 82.1 30.7 82.8 30.5 83.3 30.1 C 83.9 29.7 84.3 29.1 84.6 28.2 Z M 77.7 24.8 C 77.7 24.8 84.6 24.8 84.6 24.8 C 84.6 23.7 84.3 22.9 83.8 22.4 C 83.2 21.6 82.3 21.2 81.2 21.2 C 80.3 21.2 79.5 21.5 78.8 22.2 C 78.1 22.8 77.8 23.7 77.7 24.8 Z M 97.5 32.2 C 97.5 32.2 97.53 30.63 97.5 30.6 C 96.7 31.9 95.6 32.5 94 32.5 C 93.1 32.5 92.1 32.2 91.3 31.7 C 90.5 31.1 89.8 30.3 89.4 29.4 C 88.9 28.4 88.7 27.3 88.7 26 C 88.7 24.7 88.9 23.6 89.3 22.6 C 89.7 21.6 90.3 20.8 91.2 20.3 C 92 19.7 92.9 19.5 94 19.5 C 94.7 19.5 95.4 19.6 96 19.9 C 96.5 20.3 97 20.7 97.4 21.2 C 97.39 21.18 97.4 15 97.4 15 L 99.5 15 L 99.5 32.2 L 97.5 32.2 Z M 90.9 26 C 90.9 27.6 91.2 28.8 91.9 29.6 C 92.5 30.3 93.3 30.7 94.2 30.7 C 95.2 30.7 95.9 30.4 96.6 29.6 C 97.2 28.9 97.6 27.7 97.6 26.2 C 97.6 24.5 97.2 23.2 96.6 22.4 C 95.9 21.6 95.1 21.2 94.2 21.2 C 93.2 21.2 92.4 21.6 91.8 22.4 C 91.2 23.1 90.9 24.3 90.9 26 Z M 102.8 17.4 L 102.8 15 L 104.9 15 L 104.9 17.4 L 102.8 17.4 Z M 102.8 32.2 L 102.8 19.8 L 104.9 19.8 L 104.9 32.2 L 102.8 32.2 Z M 110.1 32.2 L 108.1 32.2 L 108.1 15 L 110.2 15 C 110.2 15 110.23 21.15 110.2 21.1 C 111.1 20 112.3 19.5 113.6 19.5 C 114.4 19.5 115.1 19.6 115.8 19.9 C 116.5 20.2 117.1 20.7 117.5 21.2 C 117.9 21.8 118.3 22.5 118.5 23.3 C 118.8 24 118.9 24.9 118.9 25.8 C 118.9 27.9 118.4 29.6 117.3 30.7 C 116.3 31.9 115 32.5 113.5 32.5 C 112.1 32.5 110.9 31.9 110.1 30.6 C 110.08 30.64 110.1 32.2 110.1 32.2 Z M 110.1 25.9 C 110.1 27.4 110.3 28.5 110.7 29.1 C 111.3 30.2 112.2 30.7 113.4 30.7 C 114.3 30.7 115.1 30.3 115.7 29.5 C 116.4 28.7 116.8 27.5 116.8 26 C 116.8 24.3 116.4 23.1 115.8 22.4 C 115.1 21.6 114.4 21.2 113.5 21.2 C 112.5 21.2 111.7 21.6 111.1 22.4 C 110.4 23.2 110.1 24.4 110.1 25.9 Z M 121.5 17.4 L 121.5 15 L 123.6 15 L 123.6 17.4 L 121.5 17.4 Z M 121.5 32.2 L 121.5 19.8 L 123.6 19.8 L 123.6 32.2 L 121.5 32.2 Z M 126.8 32.2 L 126.8 15 L 128.9 15 L 128.9 32.2 L 126.8 32.2 Z M 132.2 17.4 L 132.2 15 L 134.3 15 L 134.3 17.4 L 132.2 17.4 Z M 132.2 32.2 L 132.2 19.8 L 134.3 19.8 L 134.3 32.2 L 132.2 32.2 Z M 141.2 30.4 C 141.4 30.4 141.7 30.4 142.1 30.3 C 142.1 30.3 142.4 32.2 142.4 32.2 C 141.8 32.3 141.3 32.4 140.8 32.4 C 140 32.4 139.4 32.2 139 32 C 138.6 31.8 138.3 31.4 138.1 31 C 137.9 30.6 137.9 29.8 137.9 28.6 C 137.86 28.55 137.9 21.4 137.9 21.4 L 136.3 21.4 L 136.3 19.8 L 137.9 19.8 L 137.9 16.7 L 140 15.4 L 140 19.8 L 142.1 19.8 L 142.1 21.4 L 140 21.4 C 140 21.4 139.96 28.67 140 28.7 C 140 29.3 140 29.7 140.1 29.8 C 140.1 30 140.3 30.1 140.4 30.2 C 140.6 30.3 140.8 30.4 141.2 30.4 C 141.2 30.4 141.2 30.4 141.2 30.4 Z M 145.4 37.2 C 145 37.2 144.5 37.2 144 37 C 144 37 143.8 35 143.8 35 C 144.3 35.1 144.7 35.2 145 35.2 C 145.5 35.2 145.9 35.1 146.1 35 C 146.4 34.8 146.7 34.6 146.8 34.3 C 147 34.1 147.2 33.6 147.5 32.7 C 147.5 32.6 147.6 32.4 147.7 32.2 C 147.67 32.22 142.9 19.8 142.9 19.8 L 145.2 19.8 C 145.2 19.8 147.81 26.96 147.8 27 C 148.1 27.9 148.4 28.8 148.7 29.8 C 149 28.9 149.2 27.9 149.6 27 C 149.58 27.01 152.2 19.8 152.2 19.8 L 154.3 19.8 C 154.3 19.8 149.62 32.41 149.6 32.4 C 149.1 33.8 148.7 34.7 148.4 35.2 C 148.1 35.9 147.6 36.4 147.1 36.8 C 146.7 37.1 146.1 37.2 145.4 37.2 C 145.4 37.2 145.4 37.2 145.4 37.2 Z " stroke="none" fill="#000"/>  </g></svg>