<?xml version="1.0" standalone="no"?><!DOCTYPE svg PUBLIC "-//W3C//DTD SVG 1.1//EN" "http://www.w3.org/Graphics/SVG/1.1/DTD/svg11.dtd"><svg xmlns="http://www.w3.org/2000/svg" version="1.1" width="204px" height="39.1px" viewBox="0 -8 204 39.1" style="top:-8px">  <desc>Professional</desc>  <defs/>  <g id="Polygon23923">    <path d="M 37.7 17.5 L 37.7 0.3 C 37.7 0.3 44.18 0.29 44.2 0.3 C 45.3 0.3 46.2 0.3 46.8 0.5 C 47.6 0.6 48.3 0.9 48.9 1.3 C 49.5 1.7 49.9 2.2 50.3 2.9 C 50.6 3.6 50.8 4.4 50.8 5.3 C 50.8 6.7 50.3 8 49.4 9 C 48.5 10 46.8 10.5 44.4 10.5 C 44.38 10.49 40 10.5 40 10.5 L 40 17.5 L 37.7 17.5 Z M 40 8.5 C 40 8.5 44.41 8.46 44.4 8.5 C 45.9 8.5 46.9 8.2 47.5 7.6 C 48.2 7.1 48.5 6.3 48.5 5.3 C 48.5 4.6 48.3 4 47.9 3.5 C 47.6 3 47.1 2.6 46.5 2.5 C 46.1 2.4 45.4 2.3 44.4 2.3 C 44.36 2.32 40 2.3 40 2.3 L 40 8.5 Z M 53.4 17.5 L 53.4 5 L 55.3 5 C 55.3 5 55.31 6.91 55.3 6.9 C 55.8 6 56.2 5.4 56.7 5.2 C 57.1 4.9 57.5 4.7 58 4.7 C 58.7 4.7 59.4 5 60.2 5.4 C 60.2 5.4 59.4 7.4 59.4 7.4 C 58.9 7.1 58.4 6.9 57.9 6.9 C 57.4 6.9 57 7.1 56.7 7.3 C 56.3 7.6 56 8 55.9 8.5 C 55.6 9.2 55.5 10.1 55.5 11 C 55.52 10.96 55.5 17.5 55.5 17.5 L 53.4 17.5 Z M 60.6 11.3 C 60.6 8.9 61.3 7.2 62.6 6.1 C 63.6 5.2 64.9 4.7 66.5 4.7 C 68.2 4.7 69.6 5.3 70.7 6.4 C 71.8 7.5 72.3 9.1 72.3 11.1 C 72.3 12.7 72.1 13.9 71.6 14.9 C 71.1 15.8 70.4 16.5 69.5 17 C 68.6 17.5 67.6 17.8 66.5 17.8 C 64.7 17.8 63.3 17.2 62.3 16.1 C 61.2 15 60.6 13.4 60.6 11.3 Z M 62.8 11.3 C 62.8 12.8 63.2 14 63.9 14.8 C 64.5 15.6 65.4 16 66.5 16 C 67.5 16 68.4 15.6 69.1 14.8 C 69.8 14 70.1 12.8 70.1 11.2 C 70.1 9.6 69.8 8.5 69.1 7.7 C 68.4 6.9 67.5 6.5 66.5 6.5 C 65.4 6.5 64.5 6.9 63.9 7.7 C 63.2 8.5 62.8 9.7 62.8 11.3 Z M 75.3 17.5 L 75.3 6.7 L 73.4 6.7 L 73.4 5 L 75.3 5 C 75.3 5 75.28 3.7 75.3 3.7 C 75.3 2.9 75.4 2.2 75.5 1.8 C 75.7 1.3 76.1 0.8 76.6 0.5 C 77.1 0.2 77.8 0 78.7 0 C 79.3 0 80 0.1 80.7 0.2 C 80.7 0.2 80.4 2.1 80.4 2.1 C 79.9 2 79.5 1.9 79.1 1.9 C 78.5 1.9 78 2.1 77.8 2.3 C 77.5 2.6 77.4 3.1 77.4 3.9 C 77.38 3.88 77.4 5 77.4 5 L 79.8 5 L 79.8 6.7 L 77.4 6.7 L 77.4 17.5 L 75.3 17.5 Z M 90 13.5 C 90 13.5 92.1 13.7 92.1 13.7 C 91.8 15 91.2 16 90.2 16.7 C 89.3 17.4 88.1 17.8 86.7 17.8 C 84.8 17.8 83.4 17.2 82.3 16.1 C 81.3 15 80.7 13.4 80.7 11.4 C 80.7 9.3 81.3 7.6 82.4 6.5 C 83.4 5.3 84.8 4.7 86.6 4.7 C 88.2 4.7 89.6 5.3 90.6 6.4 C 91.7 7.6 92.2 9.2 92.2 11.2 C 92.2 11.4 92.2 11.5 92.2 11.8 C 92.2 11.8 82.9 11.8 82.9 11.8 C 83 13.2 83.4 14.2 84.1 14.9 C 84.8 15.7 85.6 16 86.7 16 C 87.5 16 88.1 15.8 88.7 15.4 C 89.2 15 89.6 14.4 90 13.5 Z M 83 10.1 C 83 10.1 90 10.1 90 10.1 C 89.9 9 89.6 8.2 89.2 7.7 C 88.5 6.9 87.6 6.5 86.6 6.5 C 85.6 6.5 84.8 6.8 84.1 7.5 C 83.5 8.1 83.1 9 83 10.1 Z M 93.9 13.8 C 93.9 13.8 96 13.4 96 13.4 C 96.1 14.3 96.5 14.9 97 15.4 C 97.5 15.8 98.3 16 99.3 16 C 100.2 16 100.9 15.8 101.4 15.4 C 101.9 15 102.1 14.6 102.1 14 C 102.1 13.6 101.9 13.2 101.5 12.9 C 101.2 12.7 100.5 12.5 99.3 12.2 C 97.8 11.8 96.7 11.5 96.1 11.2 C 95.5 10.9 95.1 10.5 94.8 10 C 94.5 9.5 94.3 8.9 94.3 8.3 C 94.3 7.8 94.4 7.3 94.7 6.8 C 94.9 6.3 95.3 5.9 95.7 5.6 C 96 5.4 96.5 5.2 97.1 5 C 97.6 4.8 98.2 4.7 98.9 4.7 C 99.9 4.7 100.7 4.9 101.5 5.2 C 102.2 5.4 102.7 5.8 103.1 6.3 C 103.4 6.8 103.7 7.4 103.8 8.2 C 103.8 8.2 101.8 8.5 101.8 8.5 C 101.7 7.9 101.4 7.4 100.9 7 C 100.5 6.7 99.9 6.5 99 6.5 C 98.1 6.5 97.4 6.6 97 7 C 96.5 7.3 96.3 7.7 96.3 8.1 C 96.3 8.4 96.4 8.6 96.6 8.8 C 96.8 9.1 97 9.2 97.4 9.4 C 97.6 9.5 98.2 9.6 99.3 9.9 C 100.8 10.3 101.8 10.7 102.4 10.9 C 103 11.2 103.4 11.5 103.8 12 C 104.1 12.5 104.3 13.1 104.3 13.8 C 104.3 14.5 104.1 15.2 103.7 15.8 C 103.3 16.4 102.7 16.9 101.9 17.2 C 101.1 17.6 100.2 17.8 99.3 17.8 C 97.6 17.8 96.4 17.4 95.6 16.7 C 94.7 16.1 94.2 15.1 93.9 13.8 Z M 105.9 13.8 C 105.9 13.8 108 13.4 108 13.4 C 108.1 14.3 108.5 14.9 109 15.4 C 109.5 15.8 110.3 16 111.3 16 C 112.2 16 112.9 15.8 113.4 15.4 C 113.9 15 114.1 14.6 114.1 14 C 114.1 13.6 113.9 13.2 113.5 12.9 C 113.2 12.7 112.5 12.5 111.3 12.2 C 109.8 11.8 108.7 11.5 108.1 11.2 C 107.5 10.9 107.1 10.5 106.8 10 C 106.5 9.5 106.3 8.9 106.3 8.3 C 106.3 7.8 106.4 7.3 106.7 6.8 C 106.9 6.3 107.3 5.9 107.7 5.6 C 108 5.4 108.5 5.2 109.1 5 C 109.6 4.8 110.2 4.7 110.9 4.7 C 111.9 4.7 112.7 4.9 113.5 5.2 C 114.2 5.4 114.7 5.8 115.1 6.3 C 115.4 6.8 115.7 7.4 115.8 8.2 C 115.8 8.2 113.8 8.5 113.8 8.5 C 113.7 7.9 113.4 7.4 112.9 7 C 112.5 6.7 111.9 6.5 111 6.5 C 110.1 6.5 109.4 6.6 109 7 C 108.5 7.3 108.3 7.7 108.3 8.1 C 108.3 8.4 108.4 8.6 108.6 8.8 C 108.8 9.1 109 9.2 109.4 9.4 C 109.6 9.5 110.2 9.6 111.3 9.9 C 112.8 10.3 113.8 10.7 114.4 10.9 C 115 11.2 115.4 11.5 115.8 12 C 116.1 12.5 116.3 13.1 116.3 13.8 C 116.3 14.5 116.1 15.2 115.7 15.8 C 115.3 16.4 114.7 16.9 113.9 17.2 C 113.1 17.6 112.2 17.8 111.3 17.8 C 109.6 17.8 108.4 17.4 107.6 16.7 C 106.7 16.1 106.2 15.1 105.9 13.8 Z M 118.8 2.7 L 118.8 0.3 L 120.9 0.3 L 120.9 2.7 L 118.8 2.7 Z M 118.8 17.5 L 118.8 5 L 120.9 5 L 120.9 17.5 L 118.8 17.5 Z M 123.3 11.3 C 123.3 8.9 124 7.2 125.3 6.1 C 126.3 5.2 127.6 4.7 129.2 4.7 C 130.9 4.7 132.3 5.3 133.4 6.4 C 134.5 7.5 135 9.1 135 11.1 C 135 12.7 134.8 13.9 134.3 14.9 C 133.8 15.8 133.1 16.5 132.2 17 C 131.3 17.5 130.3 17.8 129.2 17.8 C 127.4 17.8 126 17.2 124.9 16.1 C 123.9 15 123.3 13.4 123.3 11.3 Z M 125.5 11.3 C 125.5 12.8 125.9 14 126.5 14.8 C 127.2 15.6 128.1 16 129.2 16 C 130.2 16 131.1 15.6 131.8 14.8 C 132.5 14 132.8 12.8 132.8 11.2 C 132.8 9.6 132.5 8.5 131.8 7.7 C 131.1 6.9 130.2 6.5 129.2 6.5 C 128.1 6.5 127.2 6.9 126.5 7.7 C 125.9 8.5 125.5 9.7 125.5 11.3 Z M 137.5 17.5 L 137.5 5 L 139.4 5 C 139.4 5 139.37 6.8 139.4 6.8 C 140.3 5.4 141.6 4.7 143.3 4.7 C 144.1 4.7 144.8 4.9 145.4 5.2 C 146 5.4 146.5 5.8 146.8 6.2 C 147.1 6.6 147.3 7.2 147.5 7.8 C 147.5 8.2 147.6 8.8 147.6 9.8 C 147.58 9.82 147.6 17.5 147.6 17.5 L 145.5 17.5 C 145.5 17.5 145.47 9.9 145.5 9.9 C 145.5 9 145.4 8.4 145.2 8 C 145.1 7.5 144.8 7.2 144.4 7 C 143.9 6.7 143.4 6.6 142.9 6.6 C 142 6.6 141.2 6.9 140.6 7.4 C 139.9 8 139.6 9.1 139.6 10.7 C 139.58 10.68 139.6 17.5 139.6 17.5 L 137.5 17.5 Z M 159.4 17.5 C 159.1 17 159 16.5 158.9 15.9 C 158.2 16.6 157.4 17.1 156.7 17.3 C 156 17.6 155.2 17.8 154.4 17.8 C 153 17.8 151.9 17.4 151.2 16.8 C 150.5 16.1 150.1 15.2 150.1 14.2 C 150.1 13.6 150.2 13 150.5 12.5 C 150.8 12 151.2 11.6 151.6 11.3 C 152.1 11 152.6 10.8 153.1 10.6 C 153.5 10.5 154.2 10.4 155 10.3 C 156.7 10.1 158 9.9 158.8 9.6 C 158.8 9.3 158.8 9.1 158.8 9 C 158.8 8.2 158.6 7.6 158.2 7.2 C 157.6 6.7 156.8 6.5 155.8 6.5 C 154.8 6.5 154 6.7 153.6 7 C 153.1 7.4 152.8 8 152.5 8.9 C 152.5 8.9 150.5 8.6 150.5 8.6 C 150.7 7.7 151 7 151.4 6.4 C 151.8 5.9 152.4 5.5 153.3 5.2 C 154.1 4.9 155 4.7 156.1 4.7 C 157.1 4.7 158 4.9 158.7 5.1 C 159.3 5.4 159.8 5.7 160.1 6.1 C 160.4 6.4 160.7 6.9 160.8 7.5 C 160.9 7.9 160.9 8.5 160.9 9.4 C 160.9 9.4 160.9 12.3 160.9 12.3 C 160.9 14.2 160.9 15.5 161 16 C 161.1 16.5 161.3 17 161.6 17.5 C 161.56 17.47 159.4 17.5 159.4 17.5 C 159.4 17.5 159.36 17.47 159.4 17.5 Z M 158.8 11.2 C 158 11.5 156.8 11.8 155.3 12 C 154.4 12.1 153.8 12.3 153.5 12.4 C 153.1 12.6 152.8 12.8 152.6 13.1 C 152.4 13.4 152.4 13.8 152.4 14.1 C 152.4 14.7 152.6 15.2 153 15.5 C 153.4 15.9 154 16.1 154.9 16.1 C 155.7 16.1 156.4 15.9 157 15.6 C 157.7 15.2 158.1 14.7 158.4 14.1 C 158.6 13.6 158.8 12.9 158.8 12 C 158.8 12 158.8 11.2 158.8 11.2 Z M 164.1 17.5 L 164.1 0.3 L 166.2 0.3 L 166.2 17.5 L 164.1 17.5 Z " stroke="none" fill="#000"/>  </g></svg>