<?xml version="1.0" standalone="no"?><!DOCTYPE svg PUBLIC "-//W3C//DTD SVG 1.1//EN" "http://www.w3.org/Graphics/SVG/1.1/DTD/svg11.dtd"><svg xmlns="http://www.w3.org/2000/svg" version="1.1" width="63px" height="34.5px" viewBox="0 -4 63 34.5" style="top:-4px">  <desc>Easy to Work With</desc>  <defs/>  <g id="Polygon47061">    <path d="M 6.4 23.1 L 4.1 14.5 L 5.2 14.5 C 5.2 14.5 6.55 20.18 6.5 20.2 C 6.7 20.8 6.8 21.4 6.9 21.9 C 7.1 21 7.3 20.5 7.3 20.3 C 7.3 20.35 8.9 14.5 8.9 14.5 L 10.3 14.5 C 10.3 14.5 11.53 18.89 11.5 18.9 C 11.8 20 12.1 21 12.2 21.9 C 12.3 21.4 12.5 20.8 12.6 20.1 C 12.63 20.07 14 14.5 14 14.5 L 15.1 14.5 L 12.8 23.1 L 11.7 23.1 C 11.7 23.1 9.86 16.59 9.9 16.6 C 9.7 16 9.6 15.7 9.6 15.6 C 9.5 16 9.4 16.3 9.3 16.6 C 9.34 16.59 7.5 23.1 7.5 23.1 L 6.4 23.1 Z M 15.4 20 C 15.4 18.9 15.8 18 16.4 17.5 C 16.9 17 17.6 16.8 18.4 16.8 C 19.2 16.8 19.9 17.1 20.5 17.6 C 21 18.2 21.3 18.9 21.3 19.9 C 21.3 20.7 21.1 21.4 20.9 21.8 C 20.7 22.3 20.3 22.6 19.9 22.9 C 19.4 23.1 18.9 23.3 18.4 23.3 C 17.5 23.3 16.8 23 16.2 22.4 C 15.7 21.9 15.4 21.1 15.4 20 Z M 16.5 20 C 16.5 20.8 16.7 21.4 17 21.8 C 17.4 22.2 17.8 22.4 18.4 22.4 C 18.9 22.4 19.3 22.2 19.7 21.8 C 20 21.4 20.2 20.8 20.2 20 C 20.2 19.2 20 18.6 19.7 18.2 C 19.3 17.8 18.9 17.6 18.4 17.6 C 17.8 17.6 17.4 17.8 17 18.2 C 16.7 18.6 16.5 19.2 16.5 20 Z M 22.5 23.1 L 22.5 16.9 L 23.4 16.9 C 23.4 16.9 23.44 17.86 23.4 17.9 C 23.7 17.4 23.9 17.1 24.1 17 C 24.3 16.8 24.5 16.8 24.8 16.8 C 25.1 16.8 25.5 16.9 25.9 17.1 C 25.9 17.1 25.5 18.1 25.5 18.1 C 25.3 17.9 25 17.9 24.7 17.9 C 24.5 17.9 24.3 17.9 24.1 18.1 C 23.9 18.2 23.8 18.4 23.7 18.6 C 23.6 19 23.5 19.4 23.5 19.9 C 23.55 19.88 23.5 23.1 23.5 23.1 L 22.5 23.1 Z M 26.5 23.1 L 26.5 14.5 L 27.6 14.5 L 27.6 19.4 L 30.1 16.9 L 31.4 16.9 L 29 19.2 L 31.7 23.1 L 30.4 23.1 L 28.3 20 L 27.6 20.7 L 27.6 23.1 L 26.5 23.1 Z M 37.5 23.1 L 35.2 14.5 L 36.4 14.5 C 36.4 14.5 37.66 20.18 37.7 20.2 C 37.8 20.8 37.9 21.4 38 21.9 C 38.2 21 38.4 20.5 38.4 20.3 C 38.41 20.35 40 14.5 40 14.5 L 41.4 14.5 C 41.4 14.5 42.65 18.89 42.6 18.9 C 43 20 43.2 21 43.3 21.9 C 43.4 21.4 43.6 20.8 43.7 20.1 C 43.74 20.07 45.1 14.5 45.1 14.5 L 46.2 14.5 L 43.9 23.1 L 42.8 23.1 C 42.8 23.1 40.97 16.59 41 16.6 C 40.8 16 40.7 15.7 40.7 15.6 C 40.6 16 40.5 16.3 40.5 16.6 C 40.45 16.59 38.6 23.1 38.6 23.1 L 37.5 23.1 Z M 47.2 15.8 L 47.2 14.5 L 48.2 14.5 L 48.2 15.8 L 47.2 15.8 Z M 47.2 23.1 L 47.2 16.9 L 48.2 16.9 L 48.2 23.1 L 47.2 23.1 Z M 51.7 22.2 C 51.8 22.2 51.9 22.2 52.1 22.2 C 52.1 22.2 52.3 23.1 52.3 23.1 C 52 23.2 51.7 23.2 51.5 23.2 C 51.1 23.2 50.8 23.2 50.6 23 C 50.4 22.9 50.2 22.8 50.1 22.6 C 50.1 22.4 50 21.9 50 21.3 C 50.02 21.31 50 17.7 50 17.7 L 49.2 17.7 L 49.2 16.9 L 50 16.9 L 50 15.4 L 51.1 14.7 L 51.1 16.9 L 52.1 16.9 L 52.1 17.7 L 51.1 17.7 C 51.1 17.7 51.07 21.37 51.1 21.4 C 51.1 21.7 51.1 21.9 51.1 22 C 51.2 22 51.2 22.1 51.3 22.2 C 51.4 22.2 51.5 22.2 51.7 22.2 C 51.7 22.2 51.7 22.2 51.7 22.2 Z M 53.2 23.1 L 53.2 14.5 L 54.2 14.5 C 54.2 14.5 54.21 17.63 54.2 17.6 C 54.7 17.1 55.3 16.8 56.1 16.8 C 56.5 16.8 56.9 16.9 57.3 17 C 57.6 17.2 57.9 17.5 58 17.8 C 58.2 18.1 58.2 18.6 58.2 19.2 C 58.23 19.19 58.2 23.1 58.2 23.1 L 57.2 23.1 C 57.2 23.1 57.17 19.19 57.2 19.2 C 57.2 18.7 57.1 18.3 56.8 18 C 56.6 17.8 56.3 17.7 55.9 17.7 C 55.5 17.7 55.3 17.8 55 17.9 C 54.7 18.1 54.5 18.3 54.4 18.6 C 54.3 18.9 54.2 19.2 54.2 19.7 C 54.21 19.73 54.2 23.1 54.2 23.1 L 53.2 23.1 Z " stroke="none" fill="#000"/>  </g>  <g id="Polygon47060">    <path d="M 12.4 8.7 L 12.4 0.1 L 18.6 0.1 L 18.6 1.2 L 13.6 1.2 L 13.6 3.8 L 18.3 3.8 L 18.3 4.8 L 13.6 4.8 L 13.6 7.7 L 18.8 7.7 L 18.8 8.7 L 12.4 8.7 Z M 24.5 8.7 C 24.4 8.5 24.4 8.3 24.3 8 C 23.9 8.3 23.6 8.5 23.2 8.7 C 22.8 8.8 22.5 8.9 22 8.9 C 21.4 8.9 20.8 8.7 20.5 8.4 C 20.1 8 19.9 7.6 19.9 7.1 C 19.9 6.8 20 6.5 20.1 6.3 C 20.3 6 20.4 5.8 20.7 5.7 C 20.9 5.5 21.1 5.4 21.4 5.3 C 21.6 5.3 21.9 5.2 22.4 5.2 C 23.2 5 23.8 4.9 24.2 4.8 C 24.2 4.6 24.2 4.6 24.2 4.5 C 24.2 4.1 24.1 3.8 24 3.6 C 23.7 3.4 23.3 3.2 22.7 3.2 C 22.3 3.2 21.9 3.3 21.7 3.5 C 21.4 3.7 21.2 4 21.1 4.4 C 21.1 4.4 20.1 4.3 20.1 4.3 C 20.2 3.8 20.3 3.5 20.6 3.2 C 20.8 2.9 21.1 2.7 21.5 2.6 C 21.9 2.4 22.4 2.4 22.9 2.4 C 23.4 2.4 23.9 2.4 24.2 2.6 C 24.5 2.7 24.8 2.8 24.9 3 C 25.1 3.2 25.2 3.5 25.3 3.7 C 25.3 3.9 25.3 4.3 25.3 4.7 C 25.3 4.7 25.3 6.1 25.3 6.1 C 25.3 7.1 25.3 7.7 25.4 8 C 25.4 8.2 25.5 8.5 25.6 8.7 C 25.64 8.74 24.5 8.7 24.5 8.7 C 24.5 8.7 24.54 8.74 24.5 8.7 Z M 24.2 5.6 C 23.9 5.8 23.3 5.9 22.5 6 C 22.1 6.1 21.8 6.1 21.6 6.2 C 21.4 6.3 21.3 6.4 21.2 6.6 C 21.1 6.7 21 6.9 21 7.1 C 21 7.3 21.1 7.6 21.4 7.8 C 21.6 8 21.9 8.1 22.3 8.1 C 22.7 8.1 23.1 8 23.4 7.8 C 23.7 7.6 23.9 7.4 24.1 7.1 C 24.2 6.8 24.2 6.5 24.2 6 C 24.2 6 24.2 5.6 24.2 5.6 Z M 26.5 6.9 C 26.5 6.9 27.6 6.7 27.6 6.7 C 27.6 7.1 27.8 7.5 28.1 7.7 C 28.3 7.9 28.7 8 29.2 8 C 29.7 8 30 7.9 30.3 7.7 C 30.5 7.5 30.6 7.3 30.6 7 C 30.6 6.8 30.5 6.6 30.3 6.5 C 30.2 6.4 29.8 6.2 29.2 6.1 C 28.4 5.9 27.9 5.7 27.6 5.6 C 27.3 5.5 27.1 5.3 26.9 5 C 26.8 4.7 26.7 4.5 26.7 4.2 C 26.7 3.9 26.8 3.6 26.9 3.4 C 27 3.2 27.2 3 27.4 2.8 C 27.6 2.7 27.8 2.6 28.1 2.5 C 28.4 2.4 28.7 2.4 29 2.4 C 29.5 2.4 29.9 2.4 30.3 2.6 C 30.6 2.7 30.9 2.9 31.1 3.2 C 31.3 3.4 31.4 3.7 31.5 4.1 C 31.5 4.1 30.4 4.3 30.4 4.3 C 30.4 3.9 30.2 3.7 30 3.5 C 29.8 3.3 29.5 3.2 29.1 3.2 C 28.6 3.2 28.2 3.3 28 3.5 C 27.8 3.6 27.7 3.8 27.7 4 C 27.7 4.2 27.8 4.3 27.8 4.4 C 27.9 4.5 28.1 4.6 28.3 4.7 C 28.4 4.7 28.7 4.8 29.2 5 C 29.9 5.2 30.4 5.3 30.7 5.5 C 31 5.6 31.3 5.8 31.4 6 C 31.6 6.2 31.7 6.5 31.7 6.9 C 31.7 7.3 31.6 7.6 31.4 7.9 C 31.2 8.2 30.9 8.5 30.5 8.6 C 30.1 8.8 29.7 8.9 29.2 8.9 C 28.4 8.9 27.8 8.7 27.3 8.4 C 26.9 8 26.6 7.5 26.5 6.9 Z M 33.6 11.3 C 33.4 11.3 33.1 11.2 32.9 11.1 C 32.9 11.1 32.8 10.1 32.8 10.1 C 33 10.2 33.2 10.2 33.4 10.2 C 33.6 10.2 33.8 10.2 33.9 10.1 C 34.1 10 34.2 9.9 34.3 9.8 C 34.4 9.7 34.5 9.4 34.6 9 C 34.6 8.9 34.7 8.9 34.7 8.7 C 34.71 8.75 32.3 2.5 32.3 2.5 L 33.5 2.5 C 33.5 2.5 34.78 6.12 34.8 6.1 C 34.9 6.6 35.1 7.1 35.2 7.6 C 35.4 7.1 35.5 6.6 35.7 6.1 C 35.66 6.14 37 2.5 37 2.5 L 38 2.5 C 38 2.5 35.68 8.84 35.7 8.8 C 35.4 9.5 35.2 10 35.1 10.3 C 34.9 10.6 34.7 10.9 34.4 11 C 34.2 11.2 33.9 11.3 33.6 11.3 C 33.6 11.3 33.6 11.3 33.6 11.3 Z M 44.1 7.8 C 44.2 7.8 44.4 7.8 44.6 7.8 C 44.6 7.8 44.7 8.7 44.7 8.7 C 44.4 8.8 44.2 8.8 43.9 8.8 C 43.6 8.8 43.3 8.8 43 8.6 C 42.8 8.5 42.7 8.4 42.6 8.2 C 42.5 8 42.5 7.5 42.5 6.9 C 42.47 6.91 42.5 3.3 42.5 3.3 L 41.7 3.3 L 41.7 2.5 L 42.5 2.5 L 42.5 1 L 43.5 0.3 L 43.5 2.5 L 44.6 2.5 L 44.6 3.3 L 43.5 3.3 C 43.5 3.3 43.52 6.97 43.5 7 C 43.5 7.3 43.5 7.5 43.6 7.6 C 43.6 7.6 43.7 7.7 43.8 7.8 C 43.8 7.8 44 7.8 44.1 7.8 C 44.1 7.8 44.1 7.8 44.1 7.8 Z M 45.2 5.6 C 45.2 4.5 45.5 3.6 46.2 3.1 C 46.7 2.6 47.4 2.4 48.1 2.4 C 49 2.4 49.7 2.7 50.2 3.2 C 50.8 3.8 51 4.5 51 5.5 C 51 6.3 50.9 7 50.7 7.4 C 50.4 7.9 50.1 8.2 49.6 8.5 C 49.2 8.7 48.7 8.9 48.1 8.9 C 47.3 8.9 46.6 8.6 46 8 C 45.5 7.5 45.2 6.7 45.2 5.6 Z M 46.3 5.6 C 46.3 6.4 46.5 7 46.8 7.4 C 47.2 7.8 47.6 8 48.1 8 C 48.7 8 49.1 7.8 49.4 7.4 C 49.8 7 50 6.4 50 5.6 C 50 4.8 49.8 4.2 49.4 3.8 C 49.1 3.4 48.7 3.2 48.1 3.2 C 47.6 3.2 47.2 3.4 46.8 3.8 C 46.5 4.2 46.3 4.8 46.3 5.6 Z " stroke="none" fill="#000"/>  </g></svg>