<?xml version="1.0" standalone="no"?><!DOCTYPE svg PUBLIC "-//W3C//DTD SVG 1.1//EN" "http://www.w3.org/Graphics/SVG/1.1/DTD/svg11.dtd"><svg xmlns="http://www.w3.org/2000/svg" version="1.1" width="200px" height="20.5px" viewBox="0 -4 200 20.5" style="top:-4px">  <desc>Account Management</desc>  <defs/>  <g id="Polygon48456">    <path d="M 0 8.7 L 3.3 0.1 L 4.5 0.1 L 8 8.7 L 6.7 8.7 L 5.7 6.1 L 2.1 6.1 L 1.2 8.7 L 0 8.7 Z M 2.5 5.2 L 5.4 5.2 C 5.4 5.2 4.48 2.83 4.5 2.8 C 4.2 2.1 4 1.5 3.9 1 C 3.8 1.6 3.6 2.1 3.4 2.7 C 3.4 2.69 2.5 5.2 2.5 5.2 Z M 12.9 6.5 C 12.9 6.5 13.9 6.6 13.9 6.6 C 13.8 7.3 13.5 7.9 13 8.3 C 12.6 8.7 12 8.9 11.3 8.9 C 10.5 8.9 9.8 8.6 9.2 8 C 8.7 7.5 8.5 6.7 8.5 5.6 C 8.5 5 8.6 4.4 8.8 3.9 C 9 3.4 9.4 3 9.8 2.8 C 10.3 2.5 10.8 2.4 11.3 2.4 C 12 2.4 12.5 2.5 13 2.9 C 13.4 3.2 13.7 3.7 13.8 4.3 C 13.8 4.3 12.8 4.5 12.8 4.5 C 12.7 4.1 12.5 3.8 12.2 3.6 C 12 3.3 11.7 3.2 11.3 3.2 C 10.8 3.2 10.4 3.4 10.1 3.8 C 9.7 4.2 9.6 4.8 9.6 5.6 C 9.6 6.5 9.7 7.1 10 7.4 C 10.4 7.8 10.8 8 11.3 8 C 11.7 8 12.1 7.9 12.3 7.6 C 12.6 7.4 12.8 7 12.9 6.5 Z M 18.9 6.5 C 18.9 6.5 19.9 6.6 19.9 6.6 C 19.8 7.3 19.5 7.9 19 8.3 C 18.6 8.7 18 8.9 17.3 8.9 C 16.5 8.9 15.8 8.6 15.2 8 C 14.7 7.5 14.5 6.7 14.5 5.6 C 14.5 5 14.6 4.4 14.8 3.9 C 15 3.4 15.4 3 15.8 2.8 C 16.3 2.5 16.8 2.4 17.3 2.4 C 18 2.4 18.5 2.5 19 2.9 C 19.4 3.2 19.7 3.7 19.8 4.3 C 19.8 4.3 18.8 4.5 18.8 4.5 C 18.7 4.1 18.5 3.8 18.2 3.6 C 18 3.3 17.7 3.2 17.3 3.2 C 16.8 3.2 16.4 3.4 16.1 3.8 C 15.7 4.2 15.6 4.8 15.6 5.6 C 15.6 6.5 15.7 7.1 16 7.4 C 16.4 7.8 16.8 8 17.3 8 C 17.7 8 18.1 7.9 18.3 7.6 C 18.6 7.4 18.8 7 18.9 6.5 Z M 20.4 5.6 C 20.4 4.5 20.7 3.6 21.4 3.1 C 21.9 2.6 22.6 2.4 23.3 2.4 C 24.2 2.4 24.9 2.7 25.4 3.2 C 26 3.8 26.2 4.5 26.2 5.5 C 26.2 6.3 26.1 7 25.9 7.4 C 25.6 7.9 25.3 8.2 24.8 8.5 C 24.4 8.7 23.9 8.9 23.3 8.9 C 22.4 8.9 21.7 8.6 21.2 8 C 20.7 7.5 20.4 6.7 20.4 5.6 Z M 21.5 5.6 C 21.5 6.4 21.7 7 22 7.4 C 22.4 7.8 22.8 8 23.3 8 C 23.8 8 24.3 7.8 24.6 7.4 C 25 7 25.1 6.4 25.1 5.6 C 25.1 4.8 25 4.2 24.6 3.8 C 24.3 3.4 23.8 3.2 23.3 3.2 C 22.8 3.2 22.4 3.4 22 3.8 C 21.7 4.2 21.5 4.8 21.5 5.6 Z M 31.5 8.7 C 31.5 8.7 31.55 7.82 31.5 7.8 C 31.1 8.5 30.4 8.9 29.6 8.9 C 29.2 8.9 28.9 8.8 28.5 8.7 C 28.2 8.5 28 8.3 27.8 8.1 C 27.7 7.9 27.6 7.7 27.5 7.4 C 27.5 7.1 27.4 6.8 27.4 6.4 C 27.45 6.37 27.4 2.5 27.4 2.5 L 28.5 2.5 C 28.5 2.5 28.5 5.96 28.5 6 C 28.5 6.5 28.5 6.9 28.6 7.1 C 28.6 7.4 28.8 7.6 29 7.7 C 29.2 7.9 29.5 8 29.8 8 C 30.1 8 30.4 7.9 30.7 7.7 C 31 7.6 31.1 7.3 31.3 7.1 C 31.4 6.8 31.4 6.4 31.4 5.8 C 31.44 5.85 31.4 2.5 31.4 2.5 L 32.5 2.5 L 32.5 8.7 L 31.5 8.7 Z M 34.1 8.7 L 34.1 2.5 L 35.1 2.5 C 35.1 2.5 35.09 3.4 35.1 3.4 C 35.5 2.7 36.2 2.4 37.1 2.4 C 37.4 2.4 37.8 2.4 38.1 2.6 C 38.4 2.7 38.7 2.9 38.8 3.1 C 39 3.3 39.1 3.6 39.1 3.9 C 39.2 4.1 39.2 4.4 39.2 4.9 C 39.2 4.91 39.2 8.7 39.2 8.7 L 38.1 8.7 C 38.1 8.7 38.14 4.95 38.1 5 C 38.1 4.5 38.1 4.2 38 4 C 37.9 3.8 37.8 3.6 37.6 3.5 C 37.4 3.4 37.1 3.3 36.8 3.3 C 36.4 3.3 36 3.4 35.7 3.7 C 35.4 4 35.2 4.5 35.2 5.3 C 35.2 5.34 35.2 8.7 35.2 8.7 L 34.1 8.7 Z M 42.7 7.8 C 42.8 7.8 42.9 7.8 43.1 7.8 C 43.1 7.8 43.3 8.7 43.3 8.7 C 43 8.8 42.7 8.8 42.5 8.8 C 42.1 8.8 41.8 8.8 41.6 8.6 C 41.4 8.5 41.2 8.4 41.1 8.2 C 41.1 8 41 7.5 41 6.9 C 41.01 6.91 41 3.3 41 3.3 L 40.2 3.3 L 40.2 2.5 L 41 2.5 L 41 1 L 42.1 0.3 L 42.1 2.5 L 43.1 2.5 L 43.1 3.3 L 42.1 3.3 C 42.1 3.3 42.06 6.97 42.1 7 C 42.1 7.3 42.1 7.5 42.1 7.6 C 42.2 7.6 42.2 7.7 42.3 7.8 C 42.4 7.8 42.5 7.8 42.7 7.8 C 42.7 7.8 42.7 7.8 42.7 7.8 Z M 47.6 8.7 L 47.6 0.1 L 49.3 0.1 C 49.3 0.1 51.33 6.23 51.3 6.2 C 51.5 6.8 51.7 7.2 51.7 7.5 C 51.8 7.2 52 6.7 52.2 6.1 C 52.2 6.12 54.3 0.1 54.3 0.1 L 55.8 0.1 L 55.8 8.7 L 54.7 8.7 L 54.7 1.5 L 52.2 8.7 L 51.2 8.7 L 48.7 1.4 L 48.7 8.7 L 47.6 8.7 Z M 61.8 8.7 C 61.6 8.5 61.6 8.3 61.5 8 C 61.2 8.3 60.8 8.5 60.4 8.7 C 60.1 8.8 59.7 8.9 59.3 8.9 C 58.6 8.9 58 8.7 57.7 8.4 C 57.3 8 57.1 7.6 57.1 7.1 C 57.1 6.8 57.2 6.5 57.3 6.3 C 57.5 6 57.7 5.8 57.9 5.7 C 58.1 5.5 58.4 5.4 58.6 5.3 C 58.8 5.3 59.2 5.2 59.6 5.2 C 60.4 5 61.1 4.9 61.5 4.8 C 61.5 4.6 61.5 4.6 61.5 4.5 C 61.5 4.1 61.4 3.8 61.2 3.6 C 60.9 3.4 60.5 3.2 60 3.2 C 59.5 3.2 59.1 3.3 58.9 3.5 C 58.6 3.7 58.4 4 58.3 4.4 C 58.3 4.4 57.3 4.3 57.3 4.3 C 57.4 3.8 57.6 3.5 57.8 3.2 C 58 2.9 58.3 2.7 58.7 2.6 C 59.1 2.4 59.6 2.4 60.1 2.4 C 60.6 2.4 61.1 2.4 61.4 2.6 C 61.7 2.7 62 2.8 62.1 3 C 62.3 3.2 62.4 3.5 62.5 3.8 C 62.5 3.9 62.5 4.3 62.5 4.7 C 62.5 4.7 62.5 6.1 62.5 6.1 C 62.5 7.1 62.5 7.7 62.6 8 C 62.6 8.2 62.7 8.5 62.9 8.7 C 62.85 8.74 61.8 8.7 61.8 8.7 C 61.8 8.7 61.75 8.74 61.8 8.7 Z M 61.5 5.6 C 61.1 5.8 60.5 5.9 59.7 6 C 59.3 6.1 59 6.1 58.8 6.2 C 58.6 6.3 58.5 6.4 58.4 6.6 C 58.3 6.7 58.2 6.9 58.2 7.1 C 58.2 7.3 58.4 7.6 58.6 7.8 C 58.8 8 59.1 8.1 59.5 8.1 C 59.9 8.1 60.3 8 60.6 7.8 C 60.9 7.6 61.1 7.4 61.3 7.1 C 61.4 6.8 61.5 6.5 61.5 6 C 61.5 6 61.5 5.6 61.5 5.6 Z M 64.2 8.7 L 64.2 2.5 L 65.1 2.5 C 65.1 2.5 65.1 3.4 65.1 3.4 C 65.6 2.7 66.2 2.4 67.1 2.4 C 67.5 2.4 67.8 2.4 68.1 2.6 C 68.4 2.7 68.7 2.9 68.8 3.1 C 69 3.3 69.1 3.6 69.2 3.9 C 69.2 4.1 69.2 4.4 69.2 4.9 C 69.21 4.91 69.2 8.7 69.2 8.7 L 68.2 8.7 C 68.2 8.7 68.16 4.95 68.2 5 C 68.2 4.5 68.1 4.2 68 4 C 68 3.8 67.8 3.6 67.6 3.5 C 67.4 3.4 67.1 3.3 66.9 3.3 C 66.4 3.3 66 3.4 65.7 3.7 C 65.4 4 65.2 4.5 65.2 5.3 C 65.21 5.34 65.2 8.7 65.2 8.7 L 64.2 8.7 Z M 75.1 8.7 C 75 8.5 74.9 8.3 74.9 8 C 74.5 8.3 74.1 8.5 73.8 8.7 C 73.4 8.8 73 8.9 72.6 8.9 C 71.9 8.9 71.4 8.7 71 8.4 C 70.7 8 70.5 7.6 70.5 7.1 C 70.5 6.8 70.5 6.5 70.7 6.3 C 70.8 6 71 5.8 71.2 5.7 C 71.4 5.5 71.7 5.4 72 5.3 C 72.2 5.3 72.5 5.2 72.9 5.2 C 73.8 5 74.4 4.9 74.8 4.8 C 74.8 4.6 74.8 4.6 74.8 4.5 C 74.8 4.1 74.7 3.8 74.5 3.6 C 74.2 3.4 73.8 3.2 73.3 3.2 C 72.8 3.2 72.4 3.3 72.2 3.5 C 72 3.7 71.8 4 71.7 4.4 C 71.7 4.4 70.7 4.3 70.7 4.3 C 70.7 3.8 70.9 3.5 71.1 3.2 C 71.3 2.9 71.6 2.7 72 2.6 C 72.5 2.4 72.9 2.4 73.5 2.4 C 74 2.4 74.4 2.4 74.8 2.6 C 75.1 2.7 75.3 2.8 75.5 3 C 75.6 3.2 75.8 3.5 75.8 3.8 C 75.8 3.9 75.9 4.3 75.9 4.7 C 75.9 4.7 75.9 6.1 75.9 6.1 C 75.9 7.1 75.9 7.7 75.9 8 C 76 8.2 76.1 8.5 76.2 8.7 C 76.2 8.74 75.1 8.7 75.1 8.7 C 75.1 8.7 75.1 8.74 75.1 8.7 Z M 74.8 5.6 C 74.4 5.8 73.8 5.9 73.1 6 C 72.6 6.1 72.3 6.1 72.2 6.2 C 72 6.3 71.8 6.4 71.7 6.6 C 71.6 6.7 71.6 6.9 71.6 7.1 C 71.6 7.3 71.7 7.6 71.9 7.8 C 72.1 8 72.4 8.1 72.8 8.1 C 73.3 8.1 73.6 8 73.9 7.8 C 74.3 7.6 74.5 7.4 74.6 7.1 C 74.7 6.8 74.8 6.5 74.8 6 C 74.8 6 74.8 5.6 74.8 5.6 Z M 77.3 9.3 C 77.3 9.3 78.3 9.4 78.3 9.4 C 78.4 9.7 78.5 10 78.7 10.1 C 79 10.3 79.3 10.4 79.8 10.4 C 80.3 10.4 80.6 10.3 80.9 10.1 C 81.2 9.9 81.3 9.6 81.4 9.3 C 81.5 9.1 81.5 8.6 81.5 7.9 C 81 8.5 80.5 8.7 79.8 8.7 C 78.9 8.7 78.3 8.4 77.8 7.8 C 77.3 7.2 77.1 6.5 77.1 5.6 C 77.1 5 77.2 4.4 77.4 3.9 C 77.6 3.4 77.9 3.1 78.4 2.8 C 78.8 2.5 79.2 2.4 79.8 2.4 C 80.5 2.4 81.1 2.7 81.6 3.3 C 81.61 3.26 81.6 2.5 81.6 2.5 L 82.6 2.5 C 82.6 2.5 82.58 7.89 82.6 7.9 C 82.6 8.9 82.5 9.5 82.3 10 C 82.1 10.4 81.8 10.7 81.3 10.9 C 80.9 11.1 80.4 11.3 79.8 11.3 C 79 11.3 78.4 11.1 78 10.8 C 77.5 10.4 77.3 9.9 77.3 9.3 Z M 78.2 5.5 C 78.2 6.3 78.3 6.9 78.7 7.3 C 79 7.7 79.4 7.9 79.9 7.9 C 80.4 7.9 80.8 7.7 81.1 7.3 C 81.4 6.9 81.6 6.3 81.6 5.5 C 81.6 4.8 81.4 4.2 81.1 3.8 C 80.8 3.4 80.3 3.2 79.9 3.2 C 79.4 3.2 79 3.4 78.7 3.8 C 78.3 4.2 78.2 4.8 78.2 5.5 Z M 88.4 6.7 C 88.4 6.7 89.5 6.9 89.5 6.9 C 89.4 7.5 89 8 88.6 8.3 C 88.1 8.7 87.5 8.9 86.8 8.9 C 85.9 8.9 85.2 8.6 84.6 8 C 84.1 7.5 83.8 6.7 83.8 5.7 C 83.8 4.6 84.1 3.8 84.6 3.2 C 85.2 2.7 85.9 2.4 86.7 2.4 C 87.6 2.4 88.2 2.7 88.8 3.2 C 89.3 3.8 89.6 4.6 89.6 5.6 C 89.6 5.7 89.6 5.8 89.6 5.9 C 89.6 5.9 84.9 5.9 84.9 5.9 C 85 6.6 85.1 7.1 85.5 7.5 C 85.8 7.8 86.3 8 86.8 8 C 87.2 8 87.5 7.9 87.8 7.7 C 88.1 7.5 88.3 7.2 88.4 6.7 Z M 85 5 C 85 5 88.4 5 88.4 5 C 88.4 4.5 88.3 4.1 88 3.8 C 87.7 3.4 87.3 3.2 86.7 3.2 C 86.3 3.2 85.9 3.4 85.5 3.7 C 85.2 4.1 85 4.5 85 5 Z M 90.8 8.7 L 90.8 2.5 L 91.8 2.5 C 91.8 2.5 91.79 3.39 91.8 3.4 C 92 3.1 92.2 2.8 92.6 2.7 C 92.9 2.5 93.3 2.4 93.7 2.4 C 94.1 2.4 94.5 2.5 94.8 2.7 C 95.1 2.9 95.3 3.1 95.4 3.5 C 95.9 2.7 96.6 2.4 97.4 2.4 C 98 2.4 98.5 2.5 98.8 2.9 C 99.1 3.2 99.3 3.8 99.3 4.5 C 99.28 4.46 99.3 8.7 99.3 8.7 L 98.2 8.7 C 98.2 8.7 98.23 4.82 98.2 4.8 C 98.2 4.4 98.2 4.1 98.1 3.9 C 98.1 3.7 97.9 3.6 97.8 3.5 C 97.6 3.3 97.4 3.3 97.1 3.3 C 96.7 3.3 96.3 3.4 96 3.7 C 95.7 4 95.6 4.5 95.6 5.1 C 95.6 5.12 95.6 8.7 95.6 8.7 L 94.5 8.7 C 94.5 8.7 94.55 4.69 94.5 4.7 C 94.5 4.2 94.5 3.9 94.3 3.6 C 94.1 3.4 93.8 3.3 93.4 3.3 C 93.1 3.3 92.9 3.4 92.6 3.5 C 92.4 3.7 92.2 3.9 92.1 4.2 C 92 4.5 91.9 4.9 91.9 5.5 C 91.9 5.51 91.9 8.7 91.9 8.7 L 90.8 8.7 Z M 105.1 6.7 C 105.1 6.7 106.2 6.9 106.2 6.9 C 106 7.5 105.7 8 105.2 8.3 C 104.8 8.7 104.2 8.9 103.5 8.9 C 102.5 8.9 101.8 8.6 101.3 8 C 100.8 7.5 100.5 6.7 100.5 5.7 C 100.5 4.6 100.8 3.8 101.3 3.2 C 101.8 2.7 102.5 2.4 103.4 2.4 C 104.2 2.4 104.9 2.7 105.4 3.2 C 106 3.8 106.2 4.6 106.2 5.6 C 106.2 5.7 106.2 5.8 106.2 5.9 C 106.2 5.9 101.6 5.9 101.6 5.9 C 101.6 6.6 101.8 7.1 102.2 7.5 C 102.5 7.8 102.9 8 103.5 8 C 103.9 8 104.2 7.9 104.5 7.7 C 104.7 7.5 104.9 7.2 105.1 6.7 Z M 101.6 5 C 101.6 5 105.1 5 105.1 5 C 105.1 4.5 104.9 4.1 104.7 3.8 C 104.4 3.4 103.9 3.2 103.4 3.2 C 102.9 3.2 102.5 3.4 102.2 3.7 C 101.9 4.1 101.7 4.5 101.6 5 Z M 107.5 8.7 L 107.5 2.5 L 108.5 2.5 C 108.5 2.5 108.47 3.4 108.5 3.4 C 108.9 2.7 109.6 2.4 110.4 2.4 C 110.8 2.4 111.2 2.4 111.5 2.6 C 111.8 2.7 112 2.9 112.2 3.1 C 112.3 3.3 112.5 3.6 112.5 3.9 C 112.6 4.1 112.6 4.4 112.6 4.9 C 112.58 4.91 112.6 8.7 112.6 8.7 L 111.5 8.7 C 111.5 8.7 111.52 4.95 111.5 5 C 111.5 4.5 111.5 4.2 111.4 4 C 111.3 3.8 111.2 3.6 111 3.5 C 110.8 3.4 110.5 3.3 110.2 3.3 C 109.8 3.3 109.4 3.4 109.1 3.7 C 108.7 4 108.6 4.5 108.6 5.3 C 108.57 5.34 108.6 8.7 108.6 8.7 L 107.5 8.7 Z M 116 7.8 C 116.2 7.8 116.3 7.8 116.5 7.8 C 116.5 7.8 116.6 8.7 116.6 8.7 C 116.4 8.8 116.1 8.8 115.9 8.8 C 115.5 8.8 115.2 8.8 115 8.6 C 114.8 8.5 114.6 8.4 114.5 8.2 C 114.4 8 114.4 7.5 114.4 6.9 C 114.39 6.91 114.4 3.3 114.4 3.3 L 113.6 3.3 L 113.6 2.5 L 114.4 2.5 L 114.4 1 L 115.4 0.3 L 115.4 2.5 L 116.5 2.5 L 116.5 3.3 L 115.4 3.3 C 115.4 3.3 115.44 6.97 115.4 7 C 115.4 7.3 115.5 7.5 115.5 7.6 C 115.5 7.6 115.6 7.7 115.7 7.8 C 115.8 7.8 115.9 7.8 116 7.8 C 116 7.8 116 7.8 116 7.8 Z " stroke="none" fill="#000"/>  </g></svg>