<?xml version="1.0" standalone="no"?><!DOCTYPE svg PUBLIC "-//W3C//DTD SVG 1.1//EN" "http://www.w3.org/Graphics/SVG/1.1/DTD/svg11.dtd"><svg xmlns="http://www.w3.org/2000/svg" version="1.1" width="949px" height="239.5px" viewBox="0 -1 949 239.5" style="top:-1px">  <desc>Case Studies</desc>  <defs/>  <g id="Polygon4687">    <path d="M 540 98.3 C 540 98.3 540 104.8 540 104.8 C 536.2 102.5 532.4 101.3 528.4 101.3 C 520.3 101.3 515.7 107 515.7 113.2 C 515.7 119.5 520.3 125 528.3 125 C 532.6 125 536.5 123.7 540.2 121.2 C 540.2 121.2 540.2 127.6 540.2 127.6 C 536.3 129.7 532.1 130.6 527.5 130.6 C 515.3 130.6 508.9 122 508.9 113.2 C 508.9 102.8 517.1 95.6 527.6 95.6 C 531.5 95.6 535.6 96.5 540 98.3 Z M 563.7 95.9 L 578.8 130.2 L 572.1 130.2 L 568.1 121.1 L 553.5 121.1 L 549.7 130.2 L 543 130.2 L 557.7 95.9 L 563.7 95.9 Z M 555.6 116.2 L 566 116.2 L 560.7 103.9 L 555.6 116.2 Z M 601.3 98.2 C 601.3 98.2 601.3 104.5 601.3 104.5 C 598.6 102.2 595.7 100.9 592.6 100.9 C 589.7 100.9 588.1 102.3 588.1 104.4 C 588.1 106.1 588.7 107.5 593.5 110.1 C 599.9 113.7 602.7 116.1 602.7 121.3 C 602.7 126.7 598.3 130.6 591.9 130.6 C 588.3 130.6 584.8 129.5 581.8 127.6 C 581.8 127.6 581.8 120.7 581.8 120.7 C 584.8 123.8 588 125.3 591.3 125.3 C 594.3 125.3 596.1 123.6 596.1 121.5 C 596.1 119.4 595.4 118.1 589.2 114.7 C 584.8 112.2 581.6 109.6 581.6 104.6 C 581.6 99.5 585.7 95.6 592.3 95.6 C 595.6 95.6 598.8 96.6 601.3 98.2 Z M 629.8 96.1 L 629.8 101.2 L 615.2 101.2 L 615.2 110.3 L 629.2 110.3 L 629.2 115.4 L 615.2 115.4 L 615.2 125 L 630.2 125 L 630.2 130.2 L 608.6 130.2 L 608.6 96.1 L 629.8 96.1 Z M 669 98.2 C 669 98.2 669 104.5 669 104.5 C 666.3 102.2 663.4 100.9 660.4 100.9 C 657.4 100.9 655.8 102.3 655.8 104.4 C 655.8 106.1 656.5 107.5 661.2 110.1 C 667.7 113.7 670.4 116.1 670.4 121.3 C 670.4 126.7 666 130.6 659.6 130.6 C 656.1 130.6 652.6 129.5 649.5 127.6 C 649.5 127.6 649.5 120.7 649.5 120.7 C 652.5 123.8 655.8 125.3 659.1 125.3 C 662 125.3 663.8 123.6 663.8 121.5 C 663.8 119.4 663.2 118.1 657 114.7 C 652.6 112.2 649.3 109.6 649.3 104.6 C 649.3 99.5 653.5 95.6 660.1 95.6 C 663.4 95.6 666.5 96.6 669 98.2 Z M 704.1 96.1 L 704.1 101.7 L 692 101.7 L 692 130.2 L 685.4 130.2 L 685.4 101.7 L 673.5 101.7 L 673.5 96.1 L 704.1 96.1 Z M 714.8 96.1 C 714.8 96.1 714.81 115.22 714.8 115.2 C 714.8 121.9 717.9 124.9 724 124.9 C 729.9 124.9 733 122 733 115.3 C 732.96 115.27 733 96.1 733 96.1 L 739.6 96.1 C 739.6 96.1 739.56 115.37 739.6 115.4 C 739.6 125.1 734.2 130.6 724 130.6 C 713.8 130.6 708.2 125.3 708.2 115.5 C 708.21 115.47 708.2 96.1 708.2 96.1 L 714.8 96.1 Z M 760.2 96.1 C 772.2 96.1 779 103.2 779 112.9 C 779 123.5 772 130.2 760.4 130.2 C 760.41 130.17 746.6 130.2 746.6 130.2 L 746.6 96.1 C 746.6 96.1 760.21 96.07 760.2 96.1 Z M 759.9 124.9 C 767.9 124.9 772.3 120.6 772.3 113 C 772.3 105.8 768 101.2 759.4 101.2 C 759.41 101.22 753.2 101.2 753.2 101.2 L 753.2 124.9 C 753.2 124.9 759.91 124.92 759.9 124.9 Z M 791.5 96.1 L 791.5 130.2 L 784.9 130.2 L 784.9 96.1 L 791.5 96.1 Z M 820.1 96.1 L 820.1 101.2 L 805.5 101.2 L 805.5 110.3 L 819.6 110.3 L 819.6 115.4 L 805.5 115.4 L 805.5 125 L 820.6 125 L 820.6 130.2 L 798.9 130.2 L 798.9 96.1 L 820.1 96.1 Z M 845.2 98.2 C 845.2 98.2 845.2 104.5 845.2 104.5 C 842.5 102.2 839.6 100.9 836.5 100.9 C 833.6 100.9 832 102.3 832 104.4 C 832 106.1 832.6 107.5 837.4 110.1 C 843.8 113.7 846.6 116.1 846.6 121.3 C 846.6 126.7 842.2 130.6 835.8 130.6 C 832.2 130.6 828.7 129.5 825.7 127.6 C 825.7 127.6 825.7 120.7 825.7 120.7 C 828.7 123.8 831.9 125.3 835.2 125.3 C 838.2 125.3 840 123.6 840 121.5 C 840 119.4 839.3 118.1 833.1 114.7 C 828.7 112.2 825.5 109.6 825.5 104.6 C 825.5 99.5 829.6 95.6 836.2 95.6 C 839.5 95.6 842.7 96.6 845.2 98.2 Z " stroke="none" fill="#f28620"/>  </g></svg>