<?xml version="1.0" standalone="no"?><!DOCTYPE svg PUBLIC "-//W3C//DTD SVG 1.1//EN" "http://www.w3.org/Graphics/SVG/1.1/DTD/svg11.dtd"><svg xmlns="http://www.w3.org/2000/svg" version="1.1" width="102px" height="20.5px" viewBox="0 -4 102 20.5" style="top:-4px">  <desc>Flexibility</desc>  <defs/>  <g id="Polygon47433">    <path d="M 27.3 8.7 L 27.3 0.1 L 33 0.1 L 33 1.2 L 28.4 1.2 L 28.4 3.8 L 32.4 3.8 L 32.4 4.8 L 28.4 4.8 L 28.4 8.7 L 27.3 8.7 Z M 34.4 8.7 L 34.4 0.1 L 35.4 0.1 L 35.4 8.7 L 34.4 8.7 Z M 41.3 6.7 C 41.3 6.7 42.4 6.9 42.4 6.9 C 42.2 7.5 41.9 8 41.5 8.3 C 41 8.7 40.4 8.9 39.7 8.9 C 38.8 8.9 38 8.6 37.5 8 C 37 7.5 36.7 6.7 36.7 5.7 C 36.7 4.6 37 3.8 37.5 3.2 C 38.1 2.7 38.8 2.4 39.6 2.4 C 40.4 2.4 41.1 2.7 41.6 3.2 C 42.2 3.8 42.4 4.6 42.4 5.6 C 42.4 5.7 42.4 5.8 42.4 5.9 C 42.4 5.9 37.8 5.9 37.8 5.9 C 37.8 6.6 38 7.1 38.4 7.5 C 38.7 7.8 39.2 8 39.7 8 C 40.1 8 40.4 7.9 40.7 7.7 C 40.9 7.5 41.2 7.2 41.3 6.7 Z M 37.9 5 C 37.9 5 41.3 5 41.3 5 C 41.3 4.5 41.1 4.1 40.9 3.8 C 40.6 3.4 40.2 3.2 39.6 3.2 C 39.1 3.2 38.7 3.4 38.4 3.7 C 38.1 4.1 37.9 4.5 37.9 5 Z M 43 8.7 L 45.3 5.5 L 43.2 2.5 L 44.5 2.5 C 44.5 2.5 45.47 3.97 45.5 4 C 45.6 4.3 45.8 4.5 45.9 4.7 C 46.1 4.4 46.2 4.2 46.4 4 C 46.38 3.98 47.4 2.5 47.4 2.5 L 48.7 2.5 L 46.5 5.4 L 48.9 8.7 L 47.6 8.7 L 46.3 6.8 L 45.9 6.3 L 44.3 8.7 L 43 8.7 Z M 49.7 1.4 L 49.7 0.1 L 50.8 0.1 L 50.8 1.4 L 49.7 1.4 Z M 49.7 8.7 L 49.7 2.5 L 50.8 2.5 L 50.8 8.7 L 49.7 8.7 Z M 53.4 8.7 L 52.4 8.7 L 52.4 0.1 L 53.4 0.1 C 53.4 0.1 53.44 3.21 53.4 3.2 C 53.9 2.7 54.5 2.4 55.1 2.4 C 55.5 2.4 55.9 2.5 56.2 2.6 C 56.6 2.8 56.9 3 57.1 3.3 C 57.3 3.5 57.5 3.9 57.6 4.3 C 57.7 4.7 57.8 5.1 57.8 5.5 C 57.8 6.6 57.5 7.4 57 8 C 56.5 8.6 55.8 8.9 55.1 8.9 C 54.4 8.9 53.8 8.6 53.4 8 C 53.37 7.96 53.4 8.7 53.4 8.7 Z M 53.4 5.6 C 53.4 6.3 53.5 6.9 53.7 7.2 C 54 7.7 54.4 8 55 8 C 55.5 8 55.9 7.8 56.2 7.4 C 56.5 7 56.7 6.4 56.7 5.6 C 56.7 4.8 56.5 4.2 56.2 3.8 C 55.9 3.4 55.5 3.2 55.1 3.2 C 54.6 3.2 54.2 3.4 53.9 3.8 C 53.5 4.2 53.4 4.8 53.4 5.6 Z M 59.1 1.4 L 59.1 0.1 L 60.1 0.1 L 60.1 1.4 L 59.1 1.4 Z M 59.1 8.7 L 59.1 2.5 L 60.1 2.5 L 60.1 8.7 L 59.1 8.7 Z M 61.7 8.7 L 61.7 0.1 L 62.8 0.1 L 62.8 8.7 L 61.7 8.7 Z M 64.4 1.4 L 64.4 0.1 L 65.5 0.1 L 65.5 1.4 L 64.4 1.4 Z M 64.4 8.7 L 64.4 2.5 L 65.5 2.5 L 65.5 8.7 L 64.4 8.7 Z M 68.9 7.8 C 69 7.8 69.2 7.8 69.4 7.8 C 69.4 7.8 69.5 8.7 69.5 8.7 C 69.2 8.8 69 8.8 68.7 8.8 C 68.3 8.8 68 8.8 67.8 8.6 C 67.6 8.5 67.5 8.4 67.4 8.2 C 67.3 8 67.3 7.5 67.3 6.9 C 67.26 6.91 67.3 3.3 67.3 3.3 L 66.5 3.3 L 66.5 2.5 L 67.3 2.5 L 67.3 1 L 68.3 0.3 L 68.3 2.5 L 69.4 2.5 L 69.4 3.3 L 68.3 3.3 C 68.3 3.3 68.31 6.97 68.3 7 C 68.3 7.3 68.3 7.5 68.4 7.6 C 68.4 7.6 68.5 7.7 68.5 7.8 C 68.6 7.8 68.8 7.8 68.9 7.8 C 68.9 7.8 68.9 7.8 68.9 7.8 Z M 71 11.3 C 70.8 11.3 70.6 11.2 70.4 11.1 C 70.4 11.1 70.2 10.1 70.2 10.1 C 70.5 10.2 70.7 10.2 70.8 10.2 C 71.1 10.2 71.3 10.2 71.4 10.1 C 71.5 10 71.7 9.9 71.7 9.8 C 71.8 9.7 71.9 9.4 72.1 9 C 72.1 8.9 72.1 8.9 72.2 8.7 C 72.17 8.75 69.8 2.5 69.8 2.5 L 70.9 2.5 C 70.9 2.5 72.24 6.12 72.2 6.1 C 72.4 6.6 72.6 7.1 72.7 7.6 C 72.8 7.1 73 6.6 73.1 6.1 C 73.12 6.14 74.5 2.5 74.5 2.5 L 75.5 2.5 C 75.5 2.5 73.14 8.84 73.1 8.8 C 72.9 9.5 72.7 10 72.5 10.3 C 72.4 10.6 72.1 10.9 71.9 11 C 71.7 11.2 71.4 11.3 71 11.3 C 71 11.3 71 11.3 71 11.3 Z " stroke="none" fill="#000"/>  </g></svg>