<?xml version="1.0" standalone="no"?><!DOCTYPE svg PUBLIC "-//W3C//DTD SVG 1.1//EN" "http://www.w3.org/Graphics/SVG/1.1/DTD/svg11.dtd"><svg xmlns="http://www.w3.org/2000/svg" version="1.1" width="200px" height="20.5px" viewBox="0 -4 200 20.5" style="top:-4px">  <desc>Management Information</desc>  <defs/>  <g id="Polygon46100">    <path d="M 0.9 8.7 L 0.9 0.1 L 2.6 0.1 C 2.6 0.1 4.63 6.23 4.6 6.2 C 4.8 6.8 5 7.2 5 7.5 C 5.1 7.2 5.3 6.7 5.5 6.1 C 5.5 6.12 7.6 0.1 7.6 0.1 L 9.1 0.1 L 9.1 8.7 L 8 8.7 L 8 1.5 L 5.5 8.7 L 4.5 8.7 L 2 1.4 L 2 8.7 L 0.9 8.7 Z M 15.1 8.7 C 14.9 8.5 14.9 8.3 14.8 8 C 14.5 8.3 14.1 8.5 13.7 8.7 C 13.4 8.8 13 8.9 12.6 8.9 C 11.9 8.9 11.3 8.7 11 8.4 C 10.6 8 10.4 7.6 10.4 7.1 C 10.4 6.8 10.5 6.5 10.6 6.3 C 10.8 6 11 5.8 11.2 5.7 C 11.4 5.5 11.7 5.4 11.9 5.3 C 12.1 5.3 12.5 5.2 12.9 5.2 C 13.7 5 14.4 4.9 14.8 4.8 C 14.8 4.6 14.8 4.6 14.8 4.5 C 14.8 4.1 14.7 3.8 14.5 3.6 C 14.2 3.4 13.8 3.2 13.3 3.2 C 12.8 3.2 12.4 3.3 12.2 3.5 C 11.9 3.7 11.8 4 11.6 4.4 C 11.6 4.4 10.6 4.3 10.6 4.3 C 10.7 3.8 10.9 3.5 11.1 3.2 C 11.3 2.9 11.6 2.7 12 2.6 C 12.4 2.4 12.9 2.4 13.4 2.4 C 13.9 2.4 14.4 2.4 14.7 2.6 C 15 2.7 15.3 2.8 15.4 3 C 15.6 3.2 15.7 3.5 15.8 3.8 C 15.8 3.9 15.8 4.3 15.8 4.7 C 15.8 4.7 15.8 6.1 15.8 6.1 C 15.8 7.1 15.8 7.7 15.9 8 C 15.9 8.2 16 8.5 16.2 8.7 C 16.16 8.74 15.1 8.7 15.1 8.7 C 15.1 8.7 15.06 8.74 15.1 8.7 Z M 14.8 5.6 C 14.4 5.8 13.8 5.9 13 6 C 12.6 6.1 12.3 6.1 12.1 6.2 C 11.9 6.3 11.8 6.4 11.7 6.6 C 11.6 6.7 11.6 6.9 11.6 7.1 C 11.6 7.3 11.7 7.6 11.9 7.8 C 12.1 8 12.4 8.1 12.8 8.1 C 13.2 8.1 13.6 8 13.9 7.8 C 14.2 7.6 14.4 7.4 14.6 7.1 C 14.7 6.8 14.8 6.5 14.8 6 C 14.8 6 14.8 5.6 14.8 5.6 Z M 17.5 8.7 L 17.5 2.5 L 18.4 2.5 C 18.4 2.5 18.41 3.4 18.4 3.4 C 18.9 2.7 19.5 2.4 20.4 2.4 C 20.8 2.4 21.1 2.4 21.4 2.6 C 21.7 2.7 22 2.9 22.1 3.1 C 22.3 3.3 22.4 3.6 22.5 3.9 C 22.5 4.1 22.5 4.4 22.5 4.9 C 22.52 4.91 22.5 8.7 22.5 8.7 L 21.5 8.7 C 21.5 8.7 21.46 4.95 21.5 5 C 21.5 4.5 21.4 4.2 21.3 4 C 21.3 3.8 21.1 3.6 20.9 3.5 C 20.7 3.4 20.4 3.3 20.2 3.3 C 19.7 3.3 19.3 3.4 19 3.7 C 18.7 4 18.5 4.5 18.5 5.3 C 18.52 5.34 18.5 8.7 18.5 8.7 L 17.5 8.7 Z M 28.4 8.7 C 28.3 8.5 28.2 8.3 28.2 8 C 27.8 8.3 27.4 8.5 27.1 8.7 C 26.7 8.8 26.3 8.9 25.9 8.9 C 25.2 8.9 24.7 8.7 24.3 8.4 C 24 8 23.8 7.6 23.8 7.1 C 23.8 6.8 23.8 6.5 24 6.3 C 24.1 6 24.3 5.8 24.5 5.7 C 24.8 5.5 25 5.4 25.3 5.3 C 25.5 5.3 25.8 5.2 26.2 5.2 C 27.1 5 27.7 4.9 28.1 4.8 C 28.1 4.6 28.1 4.6 28.1 4.5 C 28.1 4.1 28 3.8 27.8 3.6 C 27.5 3.4 27.1 3.2 26.6 3.2 C 26.1 3.2 25.8 3.3 25.5 3.5 C 25.3 3.7 25.1 4 25 4.4 C 25 4.4 24 4.3 24 4.3 C 24.1 3.8 24.2 3.5 24.4 3.2 C 24.6 2.9 24.9 2.7 25.4 2.6 C 25.8 2.4 26.2 2.4 26.8 2.4 C 27.3 2.4 27.7 2.4 28.1 2.6 C 28.4 2.7 28.6 2.8 28.8 3 C 28.9 3.2 29.1 3.5 29.1 3.8 C 29.2 3.9 29.2 4.3 29.2 4.7 C 29.2 4.7 29.2 6.1 29.2 6.1 C 29.2 7.1 29.2 7.7 29.2 8 C 29.3 8.2 29.4 8.5 29.5 8.7 C 29.51 8.74 28.4 8.7 28.4 8.7 C 28.4 8.7 28.41 8.74 28.4 8.7 Z M 28.1 5.6 C 27.7 5.8 27.2 5.9 26.4 6 C 26 6.1 25.6 6.1 25.5 6.2 C 25.3 6.3 25.1 6.4 25 6.6 C 25 6.7 24.9 6.9 24.9 7.1 C 24.9 7.3 25 7.6 25.2 7.8 C 25.4 8 25.7 8.1 26.2 8.1 C 26.6 8.1 26.9 8 27.2 7.8 C 27.6 7.6 27.8 7.4 27.9 7.1 C 28.1 6.8 28.1 6.5 28.1 6 C 28.1 6 28.1 5.6 28.1 5.6 Z M 30.6 9.3 C 30.6 9.3 31.6 9.4 31.6 9.4 C 31.7 9.7 31.8 10 32 10.1 C 32.3 10.3 32.6 10.4 33.1 10.4 C 33.6 10.4 33.9 10.3 34.2 10.1 C 34.5 9.9 34.6 9.6 34.7 9.3 C 34.8 9.1 34.8 8.6 34.8 7.9 C 34.4 8.5 33.8 8.7 33.1 8.7 C 32.2 8.7 31.6 8.4 31.1 7.8 C 30.6 7.2 30.4 6.5 30.4 5.6 C 30.4 5 30.5 4.4 30.7 3.9 C 30.9 3.4 31.3 3.1 31.7 2.8 C 32.1 2.5 32.5 2.4 33.1 2.4 C 33.8 2.4 34.4 2.7 34.9 3.3 C 34.92 3.26 34.9 2.5 34.9 2.5 L 35.9 2.5 C 35.9 2.5 35.89 7.89 35.9 7.9 C 35.9 8.9 35.8 9.5 35.6 10 C 35.4 10.4 35.1 10.7 34.7 10.9 C 34.2 11.1 33.7 11.3 33.1 11.3 C 32.3 11.3 31.7 11.1 31.3 10.8 C 30.8 10.4 30.6 9.9 30.6 9.3 Z M 31.5 5.5 C 31.5 6.3 31.7 6.9 32 7.3 C 32.3 7.7 32.7 7.9 33.2 7.9 C 33.7 7.9 34.1 7.7 34.4 7.3 C 34.7 6.9 34.9 6.3 34.9 5.5 C 34.9 4.8 34.7 4.2 34.4 3.8 C 34.1 3.4 33.7 3.2 33.2 3.2 C 32.7 3.2 32.3 3.4 32 3.8 C 31.7 4.2 31.5 4.8 31.5 5.5 Z M 41.7 6.7 C 41.7 6.7 42.8 6.9 42.8 6.9 C 42.7 7.5 42.3 8 41.9 8.3 C 41.4 8.7 40.8 8.9 40.1 8.9 C 39.2 8.9 38.5 8.6 37.9 8 C 37.4 7.5 37.1 6.7 37.1 5.7 C 37.1 4.6 37.4 3.8 37.9 3.2 C 38.5 2.7 39.2 2.4 40 2.4 C 40.9 2.4 41.5 2.7 42.1 3.2 C 42.6 3.8 42.9 4.6 42.9 5.6 C 42.9 5.7 42.9 5.8 42.9 5.9 C 42.9 5.9 38.2 5.9 38.2 5.9 C 38.3 6.6 38.5 7.1 38.8 7.5 C 39.1 7.8 39.6 8 40.1 8 C 40.5 8 40.8 7.9 41.1 7.7 C 41.4 7.5 41.6 7.2 41.7 6.7 Z M 38.3 5 C 38.3 5 41.8 5 41.8 5 C 41.7 4.5 41.6 4.1 41.4 3.8 C 41 3.4 40.6 3.2 40 3.2 C 39.6 3.2 39.2 3.4 38.8 3.7 C 38.5 4.1 38.3 4.5 38.3 5 Z M 44.2 8.7 L 44.2 2.5 L 45.1 2.5 C 45.1 2.5 45.1 3.39 45.1 3.4 C 45.3 3.1 45.6 2.8 45.9 2.7 C 46.2 2.5 46.6 2.4 47 2.4 C 47.4 2.4 47.8 2.5 48.1 2.7 C 48.4 2.9 48.6 3.1 48.7 3.5 C 49.2 2.7 49.9 2.4 50.7 2.4 C 51.3 2.4 51.8 2.5 52.1 2.9 C 52.4 3.2 52.6 3.8 52.6 4.5 C 52.59 4.46 52.6 8.7 52.6 8.7 L 51.5 8.7 C 51.5 8.7 51.54 4.82 51.5 4.8 C 51.5 4.4 51.5 4.1 51.4 3.9 C 51.4 3.7 51.2 3.6 51.1 3.5 C 50.9 3.3 50.7 3.3 50.4 3.3 C 50 3.3 49.6 3.4 49.3 3.7 C 49.1 4 48.9 4.5 48.9 5.1 C 48.91 5.12 48.9 8.7 48.9 8.7 L 47.9 8.7 C 47.9 8.7 47.85 4.69 47.9 4.7 C 47.9 4.2 47.8 3.9 47.6 3.6 C 47.4 3.4 47.1 3.3 46.8 3.3 C 46.5 3.3 46.2 3.4 45.9 3.5 C 45.7 3.7 45.5 3.9 45.4 4.2 C 45.3 4.5 45.2 4.9 45.2 5.5 C 45.21 5.51 45.2 8.7 45.2 8.7 L 44.2 8.7 Z M 58.4 6.7 C 58.4 6.7 59.5 6.9 59.5 6.9 C 59.3 7.5 59 8 58.5 8.3 C 58.1 8.7 57.5 8.9 56.8 8.9 C 55.9 8.9 55.1 8.6 54.6 8 C 54.1 7.5 53.8 6.7 53.8 5.7 C 53.8 4.6 54.1 3.8 54.6 3.2 C 55.1 2.7 55.8 2.4 56.7 2.4 C 57.5 2.4 58.2 2.7 58.7 3.2 C 59.3 3.8 59.5 4.6 59.5 5.6 C 59.5 5.7 59.5 5.8 59.5 5.9 C 59.5 5.9 54.9 5.9 54.9 5.9 C 54.9 6.6 55.1 7.1 55.5 7.5 C 55.8 7.8 56.3 8 56.8 8 C 57.2 8 57.5 7.9 57.8 7.7 C 58 7.5 58.3 7.2 58.4 6.7 Z M 54.9 5 C 54.9 5 58.4 5 58.4 5 C 58.4 4.5 58.2 4.1 58 3.8 C 57.7 3.4 57.3 3.2 56.7 3.2 C 56.2 3.2 55.8 3.4 55.5 3.7 C 55.2 4.1 55 4.5 54.9 5 Z M 60.8 8.7 L 60.8 2.5 L 61.8 2.5 C 61.8 2.5 61.78 3.4 61.8 3.4 C 62.2 2.7 62.9 2.4 63.8 2.4 C 64.1 2.4 64.5 2.4 64.8 2.6 C 65.1 2.7 65.3 2.9 65.5 3.1 C 65.7 3.3 65.8 3.6 65.8 3.9 C 65.9 4.1 65.9 4.4 65.9 4.9 C 65.88 4.91 65.9 8.7 65.9 8.7 L 64.8 8.7 C 64.8 8.7 64.83 4.95 64.8 5 C 64.8 4.5 64.8 4.2 64.7 4 C 64.6 3.8 64.5 3.6 64.3 3.5 C 64.1 3.4 63.8 3.3 63.5 3.3 C 63.1 3.3 62.7 3.4 62.4 3.7 C 62 4 61.9 4.5 61.9 5.3 C 61.88 5.34 61.9 8.7 61.9 8.7 L 60.8 8.7 Z M 69.3 7.8 C 69.5 7.8 69.6 7.8 69.8 7.8 C 69.8 7.8 70 8.7 70 8.7 C 69.7 8.8 69.4 8.8 69.2 8.8 C 68.8 8.8 68.5 8.8 68.3 8.6 C 68.1 8.5 67.9 8.4 67.8 8.2 C 67.7 8 67.7 7.5 67.7 6.9 C 67.69 6.91 67.7 3.3 67.7 3.3 L 66.9 3.3 L 66.9 2.5 L 67.7 2.5 L 67.7 1 L 68.7 0.3 L 68.7 2.5 L 69.8 2.5 L 69.8 3.3 L 68.7 3.3 C 68.7 3.3 68.74 6.97 68.7 7 C 68.7 7.3 68.8 7.5 68.8 7.6 C 68.8 7.6 68.9 7.7 69 7.8 C 69.1 7.8 69.2 7.8 69.3 7.8 C 69.3 7.8 69.3 7.8 69.3 7.8 Z M 74.5 8.7 L 74.5 0.1 L 75.6 0.1 L 75.6 8.7 L 74.5 8.7 Z M 77.5 8.7 L 77.5 2.5 L 78.5 2.5 C 78.5 2.5 78.45 3.4 78.5 3.4 C 78.9 2.7 79.6 2.4 80.4 2.4 C 80.8 2.4 81.2 2.4 81.5 2.6 C 81.8 2.7 82 2.9 82.2 3.1 C 82.3 3.3 82.4 3.6 82.5 3.9 C 82.5 4.1 82.6 4.4 82.6 4.9 C 82.56 4.91 82.6 8.7 82.6 8.7 L 81.5 8.7 C 81.5 8.7 81.5 4.95 81.5 5 C 81.5 4.5 81.5 4.2 81.4 4 C 81.3 3.8 81.2 3.6 80.9 3.5 C 80.7 3.4 80.5 3.3 80.2 3.3 C 79.8 3.3 79.4 3.4 79 3.7 C 78.7 4 78.6 4.5 78.6 5.3 C 78.56 5.34 78.6 8.7 78.6 8.7 L 77.5 8.7 Z M 84.4 8.7 L 84.4 3.3 L 83.5 3.3 L 83.5 2.5 L 84.4 2.5 C 84.4 2.5 84.43 1.85 84.4 1.9 C 84.4 1.4 84.5 1.1 84.5 0.9 C 84.6 0.6 84.8 0.4 85.1 0.3 C 85.3 0.1 85.7 0 86.2 0 C 86.4 0 86.8 0 87.1 0.1 C 87.1 0.1 87 1 87 1 C 86.8 1 86.6 1 86.4 1 C 86 1 85.8 1 85.7 1.2 C 85.5 1.3 85.5 1.6 85.5 1.9 C 85.48 1.94 85.5 2.5 85.5 2.5 L 86.7 2.5 L 86.7 3.3 L 85.5 3.3 L 85.5 8.7 L 84.4 8.7 Z M 87.1 5.6 C 87.1 4.5 87.4 3.6 88.1 3.1 C 88.6 2.6 89.3 2.4 90 2.4 C 90.9 2.4 91.6 2.7 92.1 3.2 C 92.7 3.8 92.9 4.5 92.9 5.5 C 92.9 6.3 92.8 7 92.6 7.4 C 92.3 7.9 92 8.2 91.5 8.5 C 91.1 8.7 90.6 8.9 90 8.9 C 89.2 8.9 88.5 8.6 87.9 8 C 87.4 7.5 87.1 6.7 87.1 5.6 Z M 88.2 5.6 C 88.2 6.4 88.4 7 88.7 7.4 C 89.1 7.8 89.5 8 90 8 C 90.6 8 91 7.8 91.3 7.4 C 91.7 7 91.9 6.4 91.9 5.6 C 91.9 4.8 91.7 4.2 91.3 3.8 C 91 3.4 90.6 3.2 90 3.2 C 89.5 3.2 89.1 3.4 88.7 3.8 C 88.4 4.2 88.2 4.8 88.2 5.6 Z M 94.2 8.7 L 94.2 2.5 L 95.1 2.5 C 95.1 2.5 95.12 3.46 95.1 3.5 C 95.4 3 95.6 2.7 95.8 2.6 C 96 2.4 96.2 2.4 96.5 2.4 C 96.8 2.4 97.2 2.5 97.6 2.7 C 97.6 2.7 97.2 3.7 97.2 3.7 C 96.9 3.5 96.7 3.5 96.4 3.5 C 96.2 3.5 96 3.5 95.8 3.7 C 95.6 3.8 95.5 4 95.4 4.2 C 95.3 4.6 95.2 5 95.2 5.5 C 95.23 5.48 95.2 8.7 95.2 8.7 L 94.2 8.7 Z M 98.2 8.7 L 98.2 2.5 L 99.1 2.5 C 99.1 2.5 99.12 3.39 99.1 3.4 C 99.3 3.1 99.6 2.8 99.9 2.7 C 100.2 2.5 100.6 2.4 101 2.4 C 101.5 2.4 101.8 2.5 102.1 2.7 C 102.4 2.9 102.6 3.1 102.8 3.5 C 103.3 2.7 103.9 2.4 104.7 2.4 C 105.3 2.4 105.8 2.5 106.1 2.9 C 106.4 3.2 106.6 3.8 106.6 4.5 C 106.61 4.46 106.6 8.7 106.6 8.7 L 105.6 8.7 C 105.6 8.7 105.56 4.82 105.6 4.8 C 105.6 4.4 105.5 4.1 105.5 3.9 C 105.4 3.7 105.3 3.6 105.1 3.5 C 104.9 3.3 104.7 3.3 104.5 3.3 C 104 3.3 103.7 3.4 103.4 3.7 C 103.1 4 102.9 4.5 102.9 5.1 C 102.93 5.12 102.9 8.7 102.9 8.7 L 101.9 8.7 C 101.9 8.7 101.88 4.69 101.9 4.7 C 101.9 4.2 101.8 3.9 101.6 3.6 C 101.4 3.4 101.2 3.3 100.8 3.3 C 100.5 3.3 100.2 3.4 100 3.5 C 99.7 3.7 99.5 3.9 99.4 4.2 C 99.3 4.5 99.2 4.9 99.2 5.5 C 99.23 5.51 99.2 8.7 99.2 8.7 L 98.2 8.7 Z M 112.4 8.7 C 112.3 8.5 112.3 8.3 112.2 8 C 111.8 8.3 111.5 8.5 111.1 8.7 C 110.7 8.8 110.4 8.9 109.9 8.9 C 109.3 8.9 108.7 8.7 108.4 8.4 C 108 8 107.8 7.6 107.8 7.1 C 107.8 6.8 107.9 6.5 108 6.3 C 108.2 6 108.3 5.8 108.6 5.7 C 108.8 5.5 109 5.4 109.3 5.3 C 109.5 5.3 109.8 5.2 110.3 5.2 C 111.1 5 111.7 4.9 112.1 4.8 C 112.2 4.6 112.2 4.6 112.2 4.5 C 112.2 4.1 112.1 3.8 111.9 3.6 C 111.6 3.4 111.2 3.2 110.7 3.2 C 110.2 3.2 109.8 3.3 109.6 3.5 C 109.3 3.7 109.1 4 109 4.4 C 109 4.4 108 4.3 108 4.3 C 108.1 3.8 108.2 3.5 108.5 3.2 C 108.7 2.9 109 2.7 109.4 2.6 C 109.8 2.4 110.3 2.4 110.8 2.4 C 111.3 2.4 111.8 2.4 112.1 2.6 C 112.4 2.7 112.7 2.8 112.8 3 C 113 3.2 113.1 3.5 113.2 3.8 C 113.2 3.9 113.2 4.3 113.2 4.7 C 113.2 4.7 113.2 6.1 113.2 6.1 C 113.2 7.1 113.2 7.7 113.3 8 C 113.3 8.2 113.4 8.5 113.5 8.7 C 113.55 8.74 112.4 8.7 112.4 8.7 C 112.4 8.7 112.45 8.74 112.4 8.7 Z M 112.1 5.6 C 111.8 5.8 111.2 5.9 110.4 6 C 110 6.1 109.7 6.1 109.5 6.2 C 109.3 6.3 109.2 6.4 109.1 6.6 C 109 6.7 108.9 6.9 108.9 7.1 C 108.9 7.3 109 7.6 109.3 7.8 C 109.5 8 109.8 8.1 110.2 8.1 C 110.6 8.1 111 8 111.3 7.8 C 111.6 7.6 111.8 7.4 112 7.1 C 112.1 6.8 112.1 6.5 112.1 6 C 112.1 6 112.1 5.6 112.1 5.6 Z M 116.7 7.8 C 116.8 7.8 117 7.8 117.2 7.8 C 117.2 7.8 117.3 8.7 117.3 8.7 C 117 8.8 116.7 8.8 116.5 8.8 C 116.1 8.8 115.8 8.8 115.6 8.6 C 115.4 8.5 115.3 8.4 115.2 8.2 C 115.1 8 115 7.5 115 6.9 C 115.04 6.91 115 3.3 115 3.3 L 114.3 3.3 L 114.3 2.5 L 115 2.5 L 115 1 L 116.1 0.3 L 116.1 2.5 L 117.2 2.5 L 117.2 3.3 L 116.1 3.3 C 116.1 3.3 116.09 6.97 116.1 7 C 116.1 7.3 116.1 7.5 116.1 7.6 C 116.2 7.6 116.2 7.7 116.3 7.8 C 116.4 7.8 116.5 7.8 116.7 7.8 C 116.7 7.8 116.7 7.8 116.7 7.8 Z M 118.2 1.4 L 118.2 0.1 L 119.2 0.1 L 119.2 1.4 L 118.2 1.4 Z M 118.2 8.7 L 118.2 2.5 L 119.2 2.5 L 119.2 8.7 L 118.2 8.7 Z M 120.5 5.6 C 120.5 4.5 120.8 3.6 121.4 3.1 C 122 2.6 122.6 2.4 123.4 2.4 C 124.2 2.4 124.9 2.7 125.5 3.2 C 126 3.8 126.3 4.5 126.3 5.5 C 126.3 6.3 126.2 7 125.9 7.4 C 125.7 7.9 125.3 8.2 124.9 8.5 C 124.4 8.7 123.9 8.9 123.4 8.9 C 122.5 8.9 121.8 8.6 121.3 8 C 120.7 7.5 120.5 6.7 120.5 5.6 Z M 121.5 5.6 C 121.5 6.4 121.7 7 122.1 7.4 C 122.4 7.8 122.8 8 123.4 8 C 123.9 8 124.3 7.8 124.7 7.4 C 125 7 125.2 6.4 125.2 5.6 C 125.2 4.8 125 4.2 124.7 3.8 C 124.3 3.4 123.9 3.2 123.4 3.2 C 122.8 3.2 122.4 3.4 122.1 3.8 C 121.7 4.2 121.5 4.8 121.5 5.6 Z M 127.5 8.7 L 127.5 2.5 L 128.5 2.5 C 128.5 2.5 128.47 3.4 128.5 3.4 C 128.9 2.7 129.6 2.4 130.5 2.4 C 130.8 2.4 131.2 2.4 131.5 2.6 C 131.8 2.7 132 2.9 132.2 3.1 C 132.3 3.3 132.5 3.6 132.5 3.9 C 132.6 4.1 132.6 4.4 132.6 4.9 C 132.58 4.91 132.6 8.7 132.6 8.7 L 131.5 8.7 C 131.5 8.7 131.53 4.95 131.5 5 C 131.5 4.5 131.5 4.2 131.4 4 C 131.3 3.8 131.2 3.6 131 3.5 C 130.8 3.4 130.5 3.3 130.2 3.3 C 129.8 3.3 129.4 3.4 129.1 3.7 C 128.7 4 128.6 4.5 128.6 5.3 C 128.58 5.34 128.6 8.7 128.6 8.7 L 127.5 8.7 Z " stroke="none" fill="#000"/>  </g></svg>