<?xml version="1.0" standalone="no"?><!DOCTYPE svg PUBLIC "-//W3C//DTD SVG 1.1//EN" "http://www.w3.org/Graphics/SVG/1.1/DTD/svg11.dtd"><svg xmlns="http://www.w3.org/2000/svg" version="1.1" width="540.4px" height="46.1px" viewBox="0 -8 540.4 46.1" style="top:-8px">  <desc>Bespoke &amp; Collaborative Approach</desc>  <defs/>  <g id="Polygon51530">    <path d="M 7.6 1.4 C 11.4 1.4 13.9 3.4 13.9 6.6 C 13.9 8.8 12.7 10.4 10.5 11.1 C 13.7 11.6 15.7 13.7 15.7 16.4 C 15.7 20.2 12.3 21.9 8.6 21.9 C 8.55 21.87 2.3 21.9 2.3 21.9 L 2.3 1.4 C 2.3 1.4 7.59 1.41 7.6 1.4 Z M 4.5 10.5 C 4.5 10.5 6.78 10.5 6.8 10.5 C 10.1 10.5 11.6 8.9 11.6 6.8 C 11.6 4.5 10.2 3.4 7.1 3.4 C 7.14 3.39 4.5 3.4 4.5 3.4 L 4.5 10.5 Z M 8.1 19.9 C 11.4 19.9 13.3 18.8 13.3 16.2 C 13.3 13.8 11.7 12.4 7.8 12.4 C 7.8 12.45 4.5 12.4 4.5 12.4 L 4.5 19.9 C 4.5 19.9 8.13 19.89 8.1 19.9 Z M 30.2 1.4 L 30.2 3.4 L 21.3 3.4 L 21.3 10.6 L 29.9 10.6 L 29.9 12.6 L 21.3 12.6 L 21.3 19.8 L 30.4 19.8 L 30.4 21.9 L 19 21.9 L 19 1.4 L 30.2 1.4 Z M 43.6 2.5 C 43.6 2.5 43.6 5 43.6 5 C 42.1 3.8 40.6 3.2 38.9 3.2 C 36.8 3.2 35.4 4.4 35.4 6.1 C 35.4 7.5 35.7 8.7 39.1 10.4 C 43.3 12.6 44.3 14 44.3 16.8 C 44.3 19.9 42 22.1 38.5 22.1 C 36.5 22.1 34.7 21.5 33.2 20.3 C 33.2 20.3 33.2 17.5 33.2 17.5 C 34.7 19.2 36.5 20.1 38.5 20.1 C 40.6 20.1 42.1 18.8 42.1 16.9 C 42.1 15.1 41.5 14.1 37.5 12 C 34.3 10.4 33.1 8.8 33.1 6.2 C 33.1 3.3 35.6 1.1 39 1.1 C 40.6 1.1 42.2 1.6 43.6 2.5 Z M 53.7 1.4 C 57.7 1.4 60.2 3.5 60.2 7 C 60.2 10.9 57.7 12.7 53.3 12.7 C 53.28 12.66 50.1 12.7 50.1 12.7 L 50.1 21.9 L 47.8 21.9 L 47.8 1.4 C 47.8 1.4 53.67 1.41 53.7 1.4 Z M 50.1 10.7 C 50.1 10.7 53.22 10.68 53.2 10.7 C 56.7 10.7 57.9 9.3 57.9 7 C 57.9 4.7 56.5 3.4 53.2 3.4 C 53.22 3.39 50.1 3.4 50.1 3.4 L 50.1 10.7 Z M 84.1 11.5 C 84.1 17.3 79.9 22.1 73.1 22.1 C 66.8 22.1 62.5 17.3 62.5 11.8 C 62.5 6.1 66.6 1.1 73.2 1.1 C 79.8 1.1 84.1 5.9 84.1 11.5 Z M 64.8 11.7 C 64.8 16.5 68.6 20 73.2 20 C 79.3 20 81.7 15.3 81.7 11.6 C 81.7 7.5 78.7 3.3 73.3 3.3 C 67.8 3.3 64.8 7.5 64.8 11.7 Z M 90 1.4 L 90 11 L 99 1.4 L 101.8 1.4 L 92.7 11.2 L 103.6 21.9 L 100.5 21.9 L 90 11.7 L 90 21.9 L 87.8 21.9 L 87.8 1.4 L 90 1.4 Z M 117 1.4 L 117 3.4 L 108.1 3.4 L 108.1 10.6 L 116.7 10.6 L 116.7 12.6 L 108.1 12.6 L 108.1 19.8 L 117.3 19.8 L 117.3 21.9 L 105.8 21.9 L 105.8 1.4 L 117 1.4 Z M 139.8 15.6 C 140.7 14.5 141.4 13.1 142 11.7 C 142 11.7 144.3 11.7 144.3 11.7 C 143.7 13.4 142.7 15.3 141.1 17.2 C 141.5 17.5 141.8 18 142.2 18.3 C 142.2 18.33 145.4 21.9 145.4 21.9 L 142.6 21.9 C 142.6 21.9 139.68 18.72 139.7 18.7 C 137.9 20.5 135.6 22.1 133 22.1 C 130.1 22.1 127.7 20.1 127.7 17.3 C 127.7 14.7 129.8 12.8 132.8 11.2 C 131 9.4 130.2 7.8 130.1 6.4 C 130.1 6.1 130.1 5.7 130.2 5.4 C 130.4 3.4 131.9 1.6 135 1.6 C 138.3 1.6 139.9 3.8 139.9 6 C 139.9 7.9 139 9.5 135.9 11.5 C 135.9 11.5 139.8 15.6 139.8 15.6 Z M 134.1 12.6 C 134.1 12.6 132.69 13.53 132.7 13.5 C 130.9 14.7 130 15.8 130 17.2 C 130 18.6 131.1 19.8 132.7 19.9 C 133 20 133.3 20 133.6 20 C 135.5 19.8 136.9 18.7 138.3 17.2 C 138.3 17.19 134.1 12.6 134.1 12.6 Z M 137.8 6.1 C 137.8 4.6 136.7 3.5 135 3.5 C 133.5 3.5 132.3 4.5 132.3 5.9 C 132.3 7.4 133.6 9 134.7 10 C 136.9 8.6 137.8 7.5 137.8 6.1 Z M 173 2.8 C 173 2.8 173 5.2 173 5.2 C 170.8 4 168.4 3.2 166 3.2 C 160.8 3.2 157.5 7.2 157.5 11.7 C 157.5 16.3 160.8 20 166 20 C 168.6 20 170.9 19.3 173.1 17.9 C 173.1 17.9 173.1 20.4 173.1 20.4 C 170.8 21.6 168.5 22.1 166 22.1 C 158.9 22.1 155.2 16.8 155.2 11.7 C 155.2 5.6 159.9 1.1 166 1.1 C 168.3 1.1 170.7 1.7 173 2.8 Z M 196.6 11.5 C 196.6 17.3 192.4 22.1 185.7 22.1 C 179.3 22.1 175 17.3 175 11.8 C 175 6.1 179.1 1.1 185.8 1.1 C 192.3 1.1 196.6 5.9 196.6 11.5 Z M 177.4 11.7 C 177.4 16.5 181.1 20 185.7 20 C 191.8 20 194.3 15.3 194.3 11.6 C 194.3 7.5 191.2 3.3 185.9 3.3 C 180.3 3.3 177.4 7.5 177.4 11.7 Z M 202.6 1.4 L 202.6 19.8 L 212.2 19.8 L 212.2 21.9 L 200.3 21.9 L 200.3 1.4 L 202.6 1.4 Z M 217 1.4 L 217 19.8 L 226.7 19.8 L 226.7 21.9 L 214.8 21.9 L 214.8 1.4 L 217 1.4 Z M 238 1.3 L 247.1 21.9 L 244.8 21.9 L 241.9 15.4 L 232.6 15.4 L 229.8 21.9 L 227.5 21.9 L 236.4 1.3 L 238 1.3 Z M 233.5 13.4 L 241 13.4 L 237.1 4.7 L 233.5 13.4 Z M 254.7 1.4 C 258.5 1.4 261 3.4 261 6.6 C 261 8.8 259.8 10.4 257.6 11.1 C 260.8 11.6 262.8 13.7 262.8 16.4 C 262.8 20.2 259.4 21.9 255.7 21.9 C 255.66 21.87 249.4 21.9 249.4 21.9 L 249.4 1.4 C 249.4 1.4 254.7 1.41 254.7 1.4 Z M 251.6 10.5 C 251.6 10.5 253.89 10.5 253.9 10.5 C 257.2 10.5 258.7 8.9 258.7 6.8 C 258.7 4.5 257.3 3.4 254.2 3.4 C 254.25 3.39 251.6 3.4 251.6 3.4 L 251.6 10.5 Z M 255.2 19.9 C 258.5 19.9 260.4 18.8 260.4 16.2 C 260.4 13.8 258.8 12.4 254.9 12.4 C 254.91 12.45 251.6 12.4 251.6 12.4 L 251.6 19.9 C 251.6 19.9 255.24 19.89 255.2 19.9 Z M 286.4 11.5 C 286.4 17.3 282.2 22.1 275.5 22.1 C 269.1 22.1 264.9 17.3 264.9 11.8 C 264.9 6.1 268.9 1.1 275.6 1.1 C 282.1 1.1 286.4 5.9 286.4 11.5 Z M 267.2 11.7 C 267.2 16.5 270.9 20 275.5 20 C 281.6 20 284.1 15.3 284.1 11.6 C 284.1 7.5 281 3.3 275.7 3.3 C 270.1 3.3 267.2 7.5 267.2 11.7 Z M 290.1 1.4 C 290.1 1.4 295.5 1.41 295.5 1.4 C 299.6 1.4 301.7 3.8 301.7 6.9 C 301.7 9.4 300.4 11.2 297.9 11.9 C 299.2 12.6 299.8 13.2 301.5 15.7 C 301.47 15.75 305.4 21.9 305.4 21.9 L 302.8 21.9 C 302.8 21.9 299.16 16.23 299.2 16.2 C 297.3 13.2 296 12.6 294.3 12.6 C 294.27 12.57 292.4 12.6 292.4 12.6 L 292.4 21.9 L 290.1 21.9 L 290.1 1.4 Z M 294.5 10.6 C 297.3 10.6 299.4 9.9 299.4 6.9 C 299.4 4.4 297.8 3.4 295.2 3.4 C 295.2 3.39 292.4 3.4 292.4 3.4 L 292.4 10.6 C 292.4 10.6 294.48 10.59 294.5 10.6 Z M 315.9 1.3 L 325 21.9 L 322.7 21.9 L 319.8 15.4 L 310.5 15.4 L 307.7 21.9 L 305.4 21.9 L 314.3 1.3 L 315.9 1.3 Z M 311.4 13.4 L 318.9 13.4 L 315 4.7 L 311.4 13.4 Z M 339.7 1.4 L 339.7 3.4 L 332.4 3.4 L 332.4 21.9 L 330.2 21.9 L 330.2 3.4 L 322.9 3.4 L 322.9 1.4 L 339.7 1.4 Z M 344.8 1.4 L 344.8 21.9 L 342.5 21.9 L 342.5 1.4 L 344.8 1.4 Z M 347.1 1.4 L 349.3 1.4 L 356 17.3 L 356 17.3 L 362.7 1.4 L 364.9 1.4 L 356.3 22.1 L 355.8 22.1 L 347.1 1.4 Z M 378.4 1.4 L 378.4 3.4 L 369.5 3.4 L 369.5 10.6 L 378.1 10.6 L 378.1 12.6 L 369.5 12.6 L 369.5 19.8 L 378.7 19.8 L 378.7 21.9 L 367.3 21.9 L 367.3 1.4 L 378.4 1.4 Z M 398.8 1.3 L 408 21.9 L 405.7 21.9 L 402.8 15.4 L 393.5 15.4 L 390.7 21.9 L 388.4 21.9 L 397.3 1.3 L 398.8 1.3 Z M 394.3 13.4 L 401.9 13.4 L 398 4.7 L 394.3 13.4 Z M 416.1 1.4 C 420.2 1.4 422.7 3.5 422.7 7 C 422.7 10.9 420.1 12.7 415.7 12.7 C 415.74 12.66 412.6 12.7 412.6 12.7 L 412.6 21.9 L 410.3 21.9 L 410.3 1.4 C 410.3 1.4 416.13 1.41 416.1 1.4 Z M 412.6 10.7 C 412.6 10.7 415.68 10.68 415.7 10.7 C 419.1 10.7 420.4 9.3 420.4 7 C 420.4 4.7 419 3.4 415.7 3.4 C 415.68 3.39 412.6 3.4 412.6 3.4 L 412.6 10.7 Z M 431.7 1.4 C 435.8 1.4 438.3 3.5 438.3 7 C 438.3 10.9 435.7 12.7 431.3 12.7 C 431.31 12.66 428.1 12.7 428.1 12.7 L 428.1 21.9 L 425.9 21.9 L 425.9 1.4 C 425.9 1.4 431.7 1.41 431.7 1.4 Z M 428.1 10.7 C 428.1 10.7 431.25 10.68 431.2 10.7 C 434.7 10.7 436 9.3 436 7 C 436 4.7 434.6 3.4 431.2 3.4 C 431.25 3.39 428.1 3.4 428.1 3.4 L 428.1 10.7 Z M 441.4 1.4 C 441.4 1.4 446.82 1.41 446.8 1.4 C 450.9 1.4 453.1 3.8 453.1 6.9 C 453.1 9.4 451.7 11.2 449.2 11.9 C 450.5 12.6 451.1 13.2 452.8 15.7 C 452.79 15.75 456.7 21.9 456.7 21.9 L 454.1 21.9 C 454.1 21.9 450.48 16.23 450.5 16.2 C 448.6 13.2 447.3 12.6 445.6 12.6 C 445.59 12.57 443.7 12.6 443.7 12.6 L 443.7 21.9 L 441.4 21.9 L 441.4 1.4 Z M 445.8 10.6 C 448.6 10.6 450.7 9.9 450.7 6.9 C 450.7 4.4 449.1 3.4 446.5 3.4 C 446.52 3.39 443.7 3.4 443.7 3.4 L 443.7 10.6 C 443.7 10.6 445.8 10.59 445.8 10.6 Z M 479.1 11.5 C 479.1 17.3 474.9 22.1 468.1 22.1 C 461.8 22.1 457.5 17.3 457.5 11.8 C 457.5 6.1 461.6 1.1 468.2 1.1 C 474.7 1.1 479.1 5.9 479.1 11.5 Z M 459.8 11.7 C 459.8 16.5 463.6 20 468.1 20 C 474.2 20 476.7 15.3 476.7 11.6 C 476.7 7.5 473.7 3.3 468.3 3.3 C 462.7 3.3 459.8 7.5 459.8 11.7 Z M 490 1.3 L 499.2 21.9 L 496.9 21.9 L 494 15.4 L 484.7 15.4 L 481.9 21.9 L 479.6 21.9 L 488.5 1.3 L 490 1.3 Z M 485.5 13.4 L 493.1 13.4 L 489.2 4.7 L 485.5 13.4 Z M 517.5 2.8 C 517.5 2.8 517.5 5.2 517.5 5.2 C 515.3 4 513 3.2 510.6 3.2 C 505.3 3.2 502 7.2 502 11.7 C 502 16.3 505.3 20 510.5 20 C 513.1 20 515.5 19.3 517.6 17.9 C 517.6 17.9 517.6 20.4 517.6 20.4 C 515.4 21.6 513 22.1 510.5 22.1 C 503.4 22.1 499.7 16.8 499.7 11.7 C 499.7 5.6 504.4 1.1 510.5 1.1 C 512.8 1.1 515.2 1.7 517.5 2.8 Z M 523.4 1.4 L 523.4 10.5 L 535.9 10.5 L 535.9 1.4 L 538.1 1.4 L 538.1 21.9 L 535.9 21.9 L 535.9 12.6 L 523.4 12.6 L 523.4 21.9 L 521.2 21.9 L 521.2 1.4 L 523.4 1.4 Z " stroke="none" fill="#000000"/>  </g></svg>