<?xml version="1.0" standalone="no"?><!DOCTYPE svg PUBLIC "-//W3C//DTD SVG 1.1//EN" "http://www.w3.org/Graphics/SVG/1.1/DTD/svg11.dtd"><svg xmlns="http://www.w3.org/2000/svg" version="1.1" width="143.4px" height="59.4px" viewBox="0 -1 143.4 59.4" style="top:-1px">  <desc>Case Studies</desc>  <defs/>  <g id="Polygon51531">    <path d="M 33.5 28.9 C 33.5 28.9 35 29.3 35 29.3 C 34.7 30.5 34.2 31.5 33.3 32.1 C 32.5 32.8 31.5 33.1 30.3 33.1 C 29.1 33.1 28.1 32.9 27.3 32.4 C 26.5 31.9 25.9 31.1 25.5 30.2 C 25.1 29.2 24.9 28.2 24.9 27.1 C 24.9 25.9 25.1 24.9 25.6 24 C 26.1 23.1 26.7 22.4 27.5 22 C 28.4 21.5 29.3 21.3 30.3 21.3 C 31.5 21.3 32.4 21.6 33.2 22.1 C 34 22.7 34.5 23.5 34.8 24.6 C 34.8 24.6 33.4 25 33.4 25 C 33.1 24.1 32.7 23.5 32.2 23.1 C 31.7 22.8 31.1 22.6 30.3 22.6 C 29.4 22.6 28.7 22.8 28.1 23.2 C 27.5 23.6 27.1 24.2 26.8 24.9 C 26.6 25.6 26.5 26.3 26.5 27.1 C 26.5 28.1 26.6 28.9 26.9 29.6 C 27.2 30.4 27.6 30.9 28.2 31.3 C 28.8 31.6 29.5 31.8 30.2 31.8 C 31 31.8 31.7 31.6 32.3 31.1 C 32.9 30.6 33.3 29.9 33.5 28.9 Z M 42.4 32.9 C 42.3 32.6 42.2 32.3 42.1 31.9 C 41.6 32.3 41.1 32.6 40.6 32.8 C 40.2 33 39.6 33.1 39.1 33.1 C 38.2 33.1 37.5 32.9 37 32.4 C 36.5 32 36.3 31.4 36.3 30.7 C 36.3 30.3 36.3 30 36.5 29.6 C 36.7 29.3 37 29 37.3 28.8 C 37.6 28.6 37.9 28.5 38.3 28.3 C 38.5 28.3 39 28.2 39.5 28.1 C 40.7 28 41.5 27.8 42 27.7 C 42 27.5 42 27.3 42 27.3 C 42 26.7 41.9 26.3 41.6 26.1 C 41.3 25.8 40.7 25.6 40 25.6 C 39.4 25.6 38.9 25.7 38.6 25.9 C 38.3 26.2 38 26.6 37.9 27.2 C 37.9 27.2 36.5 27 36.5 27 C 36.6 26.4 36.8 25.9 37.1 25.6 C 37.4 25.2 37.8 24.9 38.4 24.7 C 38.9 24.5 39.5 24.4 40.2 24.4 C 40.9 24.4 41.5 24.5 42 24.7 C 42.4 24.8 42.7 25.1 42.9 25.3 C 43.1 25.6 43.3 25.9 43.4 26.3 C 43.4 26.5 43.4 26.9 43.4 27.6 C 43.4 27.6 43.4 29.4 43.4 29.4 C 43.4 30.7 43.5 31.6 43.5 31.9 C 43.6 32.3 43.7 32.6 43.9 32.9 C 43.89 32.92 42.4 32.9 42.4 32.9 C 42.4 32.9 42.42 32.92 42.4 32.9 Z M 42 28.8 C 41.5 29 40.7 29.1 39.7 29.3 C 39.1 29.4 38.7 29.5 38.5 29.6 C 38.3 29.7 38.1 29.8 37.9 30 C 37.8 30.2 37.8 30.4 37.8 30.7 C 37.8 31.1 37.9 31.4 38.2 31.6 C 38.5 31.9 38.9 32 39.4 32 C 40 32 40.4 31.9 40.9 31.6 C 41.3 31.4 41.6 31.1 41.8 30.7 C 41.9 30.4 42 29.9 42 29.3 C 42 29.3 42 28.8 42 28.8 Z M 45.1 30.4 C 45.1 30.4 46.5 30.2 46.5 30.2 C 46.5 30.8 46.7 31.2 47.1 31.5 C 47.5 31.8 48 31.9 48.6 31.9 C 49.2 31.9 49.7 31.8 50 31.6 C 50.4 31.3 50.5 31 50.5 30.6 C 50.5 30.3 50.4 30.1 50.1 29.9 C 49.9 29.8 49.4 29.6 48.7 29.4 C 47.6 29.1 46.9 28.9 46.5 28.7 C 46.1 28.5 45.8 28.3 45.6 27.9 C 45.4 27.6 45.3 27.2 45.3 26.8 C 45.3 26.5 45.4 26.1 45.6 25.8 C 45.7 25.5 46 25.2 46.2 25 C 46.5 24.8 46.8 24.7 47.1 24.6 C 47.5 24.5 47.9 24.4 48.4 24.4 C 49 24.4 49.6 24.5 50.1 24.7 C 50.6 24.9 50.9 25.2 51.2 25.5 C 51.4 25.8 51.6 26.2 51.6 26.8 C 51.6 26.8 50.3 26.9 50.3 26.9 C 50.2 26.5 50 26.2 49.7 25.9 C 49.4 25.7 49 25.6 48.5 25.6 C 47.8 25.6 47.3 25.7 47.1 25.9 C 46.8 26.1 46.7 26.4 46.7 26.7 C 46.7 26.8 46.7 27 46.8 27.2 C 46.9 27.3 47.1 27.4 47.4 27.5 C 47.5 27.6 47.9 27.7 48.6 27.9 C 49.6 28.2 50.3 28.4 50.7 28.5 C 51.1 28.7 51.4 29 51.6 29.3 C 51.8 29.6 52 30 52 30.5 C 52 30.9 51.8 31.4 51.5 31.8 C 51.3 32.2 50.9 32.5 50.4 32.8 C 49.8 33 49.3 33.1 48.6 33.1 C 47.5 33.1 46.7 32.9 46.1 32.4 C 45.6 32 45.2 31.3 45.1 30.4 Z M 59.3 30.2 C 59.3 30.2 60.8 30.4 60.8 30.4 C 60.5 31.3 60.1 31.9 59.5 32.4 C 58.9 32.9 58.1 33.1 57.1 33.1 C 55.9 33.1 54.9 32.7 54.2 32 C 53.5 31.2 53.2 30.2 53.2 28.8 C 53.2 27.4 53.5 26.4 54.2 25.6 C 55 24.8 55.9 24.4 57 24.4 C 58.1 24.4 59 24.8 59.8 25.6 C 60.5 26.3 60.8 27.4 60.8 28.8 C 60.8 28.8 60.8 29 60.8 29.1 C 60.8 29.1 54.6 29.1 54.6 29.1 C 54.7 30 54.9 30.7 55.4 31.2 C 55.8 31.7 56.4 31.9 57.1 31.9 C 57.6 31.9 58.1 31.8 58.4 31.5 C 58.8 31.3 59.1 30.8 59.3 30.2 Z M 54.7 28 C 54.7 28 59.3 28 59.3 28 C 59.3 27.3 59.1 26.8 58.8 26.4 C 58.3 25.9 57.8 25.6 57 25.6 C 56.4 25.6 55.9 25.8 55.4 26.2 C 55 26.7 54.7 27.2 54.7 28 Z M 66.6 29.2 C 66.6 29.2 68.1 29.1 68.1 29.1 C 68.1 29.7 68.3 30.2 68.5 30.5 C 68.8 30.9 69.2 31.2 69.7 31.4 C 70.2 31.6 70.8 31.8 71.4 31.8 C 72 31.8 72.5 31.7 73 31.5 C 73.4 31.3 73.7 31.1 74 30.8 C 74.2 30.5 74.3 30.2 74.3 29.8 C 74.3 29.4 74.2 29.1 74 28.9 C 73.8 28.6 73.4 28.4 72.9 28.2 C 72.6 28.1 72 27.9 70.9 27.6 C 69.9 27.4 69.1 27.1 68.7 26.9 C 68.1 26.6 67.7 26.3 67.5 25.9 C 67.2 25.4 67.1 25 67.1 24.4 C 67.1 23.8 67.2 23.3 67.6 22.8 C 67.9 22.3 68.4 21.9 69 21.7 C 69.6 21.4 70.3 21.3 71.1 21.3 C 72 21.3 72.7 21.4 73.3 21.7 C 74 22 74.5 22.4 74.8 22.9 C 75.2 23.4 75.4 24 75.4 24.7 C 75.4 24.7 74 24.8 74 24.8 C 73.9 24.1 73.6 23.5 73.2 23.2 C 72.7 22.8 72 22.6 71.2 22.6 C 70.2 22.6 69.6 22.8 69.2 23.1 C 68.7 23.4 68.5 23.8 68.5 24.3 C 68.5 24.7 68.7 25.1 69 25.3 C 69.3 25.6 70 25.9 71.3 26.2 C 72.5 26.4 73.3 26.7 73.8 26.9 C 74.5 27.2 75 27.6 75.3 28.1 C 75.6 28.5 75.8 29.1 75.8 29.7 C 75.8 30.3 75.6 30.9 75.2 31.4 C 74.9 31.9 74.4 32.4 73.7 32.7 C 73.1 33 72.3 33.1 71.5 33.1 C 70.5 33.1 69.6 33 68.9 32.7 C 68.2 32.4 67.7 31.9 67.3 31.3 C 66.9 30.7 66.7 30 66.6 29.2 Z M 80.1 31.7 C 80.3 31.7 80.5 31.7 80.7 31.7 C 80.7 31.7 80.9 32.9 80.9 32.9 C 80.5 33 80.2 33 79.9 33 C 79.3 33 78.9 32.9 78.7 32.8 C 78.4 32.6 78.2 32.4 78.1 32.1 C 78 31.9 77.9 31.3 77.9 30.5 C 77.9 30.49 77.9 25.7 77.9 25.7 L 76.9 25.7 L 76.9 24.6 L 77.9 24.6 L 77.9 22.6 L 79.3 21.7 L 79.3 24.6 L 80.7 24.6 L 80.7 25.7 L 79.3 25.7 C 79.3 25.7 79.3 30.57 79.3 30.6 C 79.3 31 79.3 31.2 79.4 31.3 C 79.4 31.5 79.5 31.5 79.6 31.6 C 79.7 31.7 79.9 31.7 80.1 31.7 C 80.1 31.7 80.1 31.7 80.1 31.7 Z M 87.5 32.9 C 87.5 32.9 87.52 31.7 87.5 31.7 C 86.9 32.6 86 33.1 84.9 33.1 C 84.4 33.1 83.9 33 83.5 32.8 C 83.1 32.6 82.8 32.4 82.6 32.1 C 82.4 31.8 82.2 31.5 82.1 31.1 C 82.1 30.8 82.1 30.4 82.1 29.8 C 82.06 29.76 82.1 24.6 82.1 24.6 L 83.5 24.6 C 83.5 24.6 83.46 29.22 83.5 29.2 C 83.5 30 83.5 30.5 83.5 30.7 C 83.6 31.1 83.8 31.4 84.1 31.6 C 84.4 31.8 84.8 31.9 85.2 31.9 C 85.6 31.9 86 31.8 86.4 31.6 C 86.7 31.4 87 31.1 87.1 30.7 C 87.3 30.3 87.4 29.8 87.4 29.1 C 87.38 29.07 87.4 24.6 87.4 24.6 L 88.8 24.6 L 88.8 32.9 L 87.5 32.9 Z M 96.4 32.9 C 96.4 32.9 96.37 31.87 96.4 31.9 C 95.8 32.7 95.1 33.1 94 33.1 C 93.4 33.1 92.8 32.9 92.2 32.6 C 91.7 32.2 91.2 31.7 90.9 31 C 90.6 30.4 90.5 29.6 90.5 28.8 C 90.5 27.9 90.6 27.2 90.9 26.5 C 91.2 25.8 91.6 25.3 92.1 25 C 92.7 24.6 93.3 24.4 94 24.4 C 94.5 24.4 94.9 24.5 95.3 24.7 C 95.7 25 96 25.2 96.3 25.6 C 96.27 25.57 96.3 21.5 96.3 21.5 L 97.7 21.5 L 97.7 32.9 L 96.4 32.9 Z M 91.9 28.8 C 91.9 29.8 92.1 30.6 92.6 31.2 C 93 31.7 93.6 31.9 94.2 31.9 C 94.8 31.9 95.3 31.7 95.7 31.2 C 96.2 30.7 96.4 29.9 96.4 28.9 C 96.4 27.8 96.2 26.9 95.7 26.4 C 95.3 25.9 94.8 25.6 94.1 25.6 C 93.5 25.6 93 25.9 92.6 26.4 C 92.1 26.9 91.9 27.7 91.9 28.8 Z M 99.9 23.1 L 99.9 21.5 L 101.3 21.5 L 101.3 23.1 L 99.9 23.1 Z M 99.9 32.9 L 99.9 24.6 L 101.3 24.6 L 101.3 32.9 L 99.9 32.9 Z M 109.1 30.2 C 109.1 30.2 110.6 30.4 110.6 30.4 C 110.3 31.3 109.9 31.9 109.3 32.4 C 108.7 32.9 107.9 33.1 106.9 33.1 C 105.7 33.1 104.7 32.7 104 32 C 103.3 31.2 103 30.2 103 28.8 C 103 27.4 103.3 26.4 104 25.6 C 104.8 24.8 105.7 24.4 106.8 24.4 C 108 24.4 108.9 24.8 109.6 25.6 C 110.3 26.3 110.6 27.4 110.6 28.8 C 110.6 28.8 110.6 29 110.6 29.1 C 110.6 29.1 104.4 29.1 104.4 29.1 C 104.5 30 104.7 30.7 105.2 31.2 C 105.7 31.7 106.2 31.9 106.9 31.9 C 107.4 31.9 107.9 31.8 108.3 31.5 C 108.6 31.3 108.9 30.8 109.1 30.2 Z M 104.5 28 C 104.5 28 109.1 28 109.1 28 C 109.1 27.3 108.9 26.8 108.6 26.4 C 108.2 25.9 107.6 25.6 106.9 25.6 C 106.2 25.6 105.7 25.8 105.2 26.2 C 104.8 26.7 104.5 27.2 104.5 28 Z M 111.8 30.4 C 111.8 30.4 113.2 30.2 113.2 30.2 C 113.2 30.8 113.5 31.2 113.8 31.5 C 114.2 31.8 114.7 31.9 115.3 31.9 C 116 31.9 116.4 31.8 116.8 31.6 C 117.1 31.3 117.2 31 117.2 30.6 C 117.2 30.3 117.1 30.1 116.8 29.9 C 116.6 29.8 116.1 29.6 115.4 29.4 C 114.3 29.1 113.6 28.9 113.2 28.7 C 112.8 28.5 112.5 28.3 112.3 27.9 C 112.1 27.6 112 27.2 112 26.8 C 112 26.5 112.1 26.1 112.3 25.8 C 112.4 25.5 112.7 25.2 113 25 C 113.2 24.8 113.5 24.7 113.8 24.6 C 114.2 24.5 114.6 24.4 115.1 24.4 C 115.7 24.4 116.3 24.5 116.8 24.7 C 117.3 24.9 117.6 25.2 117.9 25.5 C 118.1 25.8 118.3 26.2 118.4 26.8 C 118.4 26.8 117 26.9 117 26.9 C 116.9 26.5 116.7 26.2 116.4 25.9 C 116.1 25.7 115.7 25.6 115.2 25.6 C 114.5 25.6 114.1 25.7 113.8 25.9 C 113.5 26.1 113.4 26.4 113.4 26.7 C 113.4 26.8 113.4 27 113.5 27.2 C 113.7 27.3 113.8 27.4 114.1 27.5 C 114.2 27.6 114.6 27.7 115.3 27.9 C 116.3 28.2 117 28.4 117.4 28.5 C 117.8 28.7 118.1 29 118.3 29.3 C 118.6 29.6 118.7 30 118.7 30.5 C 118.7 30.9 118.5 31.4 118.3 31.8 C 118 32.2 117.6 32.5 117.1 32.8 C 116.6 33 116 33.1 115.3 33.1 C 114.2 33.1 113.4 32.9 112.9 32.4 C 112.3 32 111.9 31.3 111.8 30.4 Z " stroke="none" fill="#fff"/>  </g></svg>