<?xml version="1.0" standalone="no"?><!DOCTYPE svg PUBLIC "-//W3C//DTD SVG 1.1//EN" "http://www.w3.org/Graphics/SVG/1.1/DTD/svg11.dtd"><svg xmlns="http://www.w3.org/2000/svg" version="1.1" width="63px" height="34.5px" viewBox="0 -4 63 34.5" style="top:-4px">  <desc>Solution Focused</desc>  <defs/>  <g id="Polygon44724">    <path d="M 9.5 23.1 L 9.5 14.5 L 15.3 14.5 L 15.3 15.6 L 10.6 15.6 L 10.6 18.2 L 14.6 18.2 L 14.6 19.2 L 10.6 19.2 L 10.6 23.1 L 9.5 23.1 Z M 16.2 20 C 16.2 18.9 16.5 18 17.2 17.5 C 17.7 17 18.3 16.8 19.1 16.8 C 20 16.8 20.7 17.1 21.2 17.6 C 21.8 18.2 22 18.9 22 19.9 C 22 20.7 21.9 21.4 21.7 21.8 C 21.4 22.3 21.1 22.6 20.6 22.9 C 20.2 23.1 19.7 23.3 19.1 23.3 C 18.2 23.3 17.5 23 17 22.4 C 16.5 21.9 16.2 21.1 16.2 20 Z M 17.3 20 C 17.3 20.8 17.5 21.4 17.8 21.8 C 18.2 22.2 18.6 22.4 19.1 22.4 C 19.6 22.4 20.1 22.2 20.4 21.8 C 20.8 21.4 20.9 20.8 20.9 20 C 20.9 19.2 20.8 18.6 20.4 18.2 C 20.1 17.8 19.6 17.6 19.1 17.6 C 18.6 17.6 18.2 17.8 17.8 18.2 C 17.5 18.6 17.3 19.2 17.3 20 Z M 27.3 20.9 C 27.3 20.9 28.4 21 28.4 21 C 28.3 21.7 28 22.3 27.5 22.7 C 27 23.1 26.5 23.3 25.8 23.3 C 24.9 23.3 24.2 23 23.7 22.4 C 23.2 21.9 22.9 21.1 22.9 20 C 22.9 19.4 23.1 18.8 23.3 18.3 C 23.5 17.8 23.8 17.4 24.3 17.2 C 24.8 16.9 25.2 16.8 25.8 16.8 C 26.5 16.8 27 16.9 27.4 17.3 C 27.9 17.6 28.1 18.1 28.3 18.7 C 28.3 18.7 27.2 18.9 27.2 18.9 C 27.1 18.5 27 18.2 26.7 18 C 26.5 17.7 26.2 17.6 25.8 17.6 C 25.3 17.6 24.9 17.8 24.5 18.2 C 24.2 18.6 24 19.2 24 20 C 24 20.9 24.2 21.5 24.5 21.8 C 24.8 22.2 25.2 22.4 25.8 22.4 C 26.2 22.4 26.5 22.3 26.8 22 C 27.1 21.8 27.3 21.4 27.3 20.9 Z M 33.3 23.1 C 33.3 23.1 33.35 22.22 33.3 22.2 C 32.9 22.9 32.2 23.3 31.4 23.3 C 31 23.3 30.7 23.2 30.3 23.1 C 30 22.9 29.8 22.7 29.6 22.5 C 29.5 22.3 29.4 22.1 29.3 21.8 C 29.3 21.5 29.2 21.2 29.2 20.8 C 29.24 20.77 29.2 16.9 29.2 16.9 L 30.3 16.9 C 30.3 16.9 30.3 20.36 30.3 20.4 C 30.3 20.9 30.3 21.3 30.4 21.5 C 30.4 21.8 30.6 22 30.8 22.1 C 31 22.3 31.3 22.4 31.6 22.4 C 31.9 22.4 32.2 22.3 32.5 22.1 C 32.8 22 32.9 21.7 33.1 21.5 C 33.2 21.2 33.2 20.8 33.2 20.2 C 33.23 20.25 33.2 16.9 33.2 16.9 L 34.3 16.9 L 34.3 23.1 L 33.3 23.1 Z M 35.5 21.3 C 35.5 21.3 36.6 21.1 36.6 21.1 C 36.6 21.5 36.8 21.9 37.1 22.1 C 37.3 22.3 37.7 22.4 38.2 22.4 C 38.7 22.4 39 22.3 39.3 22.1 C 39.5 21.9 39.6 21.7 39.6 21.4 C 39.6 21.2 39.5 21 39.3 20.9 C 39.1 20.8 38.8 20.6 38.2 20.5 C 37.4 20.3 36.9 20.1 36.6 20 C 36.3 19.9 36.1 19.7 35.9 19.4 C 35.8 19.1 35.7 18.9 35.7 18.6 C 35.7 18.3 35.8 18 35.9 17.8 C 36 17.6 36.2 17.4 36.4 17.2 C 36.6 17.1 36.8 17 37.1 16.9 C 37.4 16.8 37.7 16.8 38 16.8 C 38.5 16.8 38.9 16.8 39.3 17 C 39.6 17.1 39.9 17.3 40.1 17.6 C 40.3 17.8 40.4 18.1 40.5 18.5 C 40.5 18.5 39.4 18.7 39.4 18.7 C 39.4 18.3 39.2 18.1 39 17.9 C 38.8 17.7 38.5 17.6 38.1 17.6 C 37.6 17.6 37.2 17.7 37 17.9 C 36.8 18 36.7 18.2 36.7 18.4 C 36.7 18.6 36.8 18.7 36.8 18.8 C 36.9 18.9 37.1 19 37.2 19.1 C 37.4 19.1 37.7 19.2 38.2 19.4 C 38.9 19.6 39.4 19.7 39.7 19.9 C 40 20 40.3 20.2 40.4 20.4 C 40.6 20.6 40.7 20.9 40.7 21.3 C 40.7 21.7 40.6 22 40.4 22.3 C 40.2 22.6 39.9 22.9 39.5 23 C 39.1 23.2 38.7 23.3 38.2 23.3 C 37.4 23.3 36.8 23.1 36.3 22.8 C 35.9 22.4 35.6 21.9 35.5 21.3 Z M 46.2 21.1 C 46.2 21.1 47.3 21.3 47.3 21.3 C 47.1 21.9 46.8 22.4 46.3 22.7 C 45.9 23.1 45.3 23.3 44.6 23.3 C 43.6 23.3 42.9 23 42.4 22.4 C 41.9 21.9 41.6 21.1 41.6 20.1 C 41.6 19 41.9 18.2 42.4 17.6 C 42.9 17.1 43.6 16.8 44.5 16.8 C 45.3 16.8 46 17.1 46.5 17.6 C 47.1 18.2 47.3 19 47.3 20 C 47.3 20.1 47.3 20.2 47.3 20.3 C 47.3 20.3 42.7 20.3 42.7 20.3 C 42.7 21 42.9 21.5 43.3 21.9 C 43.6 22.2 44 22.4 44.6 22.4 C 44.9 22.4 45.3 22.3 45.6 22.1 C 45.8 21.9 46 21.6 46.2 21.1 Z M 42.7 19.4 C 42.7 19.4 46.2 19.4 46.2 19.4 C 46.2 18.9 46 18.5 45.8 18.2 C 45.5 17.8 45 17.6 44.5 17.6 C 44 17.6 43.6 17.8 43.3 18.1 C 43 18.5 42.8 18.9 42.7 19.4 Z M 52.7 23.1 C 52.7 23.1 52.65 22.35 52.7 22.4 C 52.3 23 51.7 23.3 50.9 23.3 C 50.4 23.3 50 23.1 49.5 22.9 C 49.1 22.6 48.8 22.2 48.6 21.7 C 48.3 21.2 48.2 20.7 48.2 20 C 48.2 19.4 48.3 18.8 48.5 18.3 C 48.8 17.8 49.1 17.4 49.5 17.2 C 49.9 16.9 50.4 16.8 50.9 16.8 C 51.2 16.8 51.6 16.9 51.9 17 C 52.2 17.2 52.4 17.4 52.6 17.6 C 52.58 17.63 52.6 14.5 52.6 14.5 L 53.6 14.5 L 53.6 23.1 L 52.7 23.1 Z M 49.3 20 C 49.3 20.8 49.5 21.4 49.8 21.8 C 50.2 22.2 50.6 22.4 51 22.4 C 51.5 22.4 51.9 22.2 52.2 21.8 C 52.5 21.5 52.7 20.9 52.7 20.1 C 52.7 19.3 52.5 18.6 52.2 18.2 C 51.8 17.8 51.4 17.6 51 17.6 C 50.5 17.6 50.1 17.8 49.8 18.2 C 49.5 18.6 49.3 19.2 49.3 20 Z " stroke="none" fill="#000"/>  </g>  <g id="Polygon44723">    <path d="M 10.3 6 C 10.3 6 11.4 5.9 11.4 5.9 C 11.5 6.3 11.6 6.7 11.8 6.9 C 12 7.2 12.2 7.4 12.6 7.6 C 13 7.8 13.5 7.9 14 7.9 C 14.4 7.9 14.8 7.8 15.1 7.7 C 15.4 7.5 15.7 7.4 15.8 7.1 C 16 6.9 16.1 6.7 16.1 6.4 C 16.1 6.1 16 5.9 15.8 5.7 C 15.7 5.5 15.4 5.3 15.1 5.2 C 14.8 5.1 14.3 5 13.5 4.8 C 12.8 4.6 12.2 4.4 11.9 4.2 C 11.5 4 11.2 3.8 11 3.4 C 10.8 3.1 10.7 2.8 10.7 2.4 C 10.7 1.9 10.8 1.5 11 1.2 C 11.3 0.8 11.6 0.5 12.1 0.3 C 12.6 0.1 13.1 0 13.7 0 C 14.3 0 14.9 0.1 15.4 0.3 C 15.9 0.5 16.2 0.8 16.5 1.2 C 16.8 1.6 16.9 2.1 16.9 2.6 C 16.9 2.6 15.8 2.6 15.8 2.6 C 15.8 2.1 15.6 1.7 15.2 1.4 C 14.9 1.1 14.4 1 13.7 1 C 13.1 1 12.6 1.1 12.2 1.4 C 11.9 1.6 11.8 1.9 11.8 2.3 C 11.8 2.6 11.9 2.9 12.1 3.1 C 12.3 3.3 12.9 3.5 13.8 3.7 C 14.7 3.9 15.4 4.1 15.7 4.2 C 16.2 4.4 16.6 4.7 16.8 5.1 C 17.1 5.4 17.2 5.8 17.2 6.3 C 17.2 6.8 17 7.2 16.8 7.6 C 16.5 8 16.1 8.3 15.7 8.5 C 15.2 8.8 14.6 8.9 14 8.9 C 13.2 8.9 12.6 8.8 12 8.5 C 11.5 8.3 11.1 8 10.8 7.5 C 10.5 7.1 10.4 6.6 10.3 6 Z M 18.2 5.6 C 18.2 4.5 18.5 3.6 19.2 3.1 C 19.7 2.6 20.4 2.4 21.1 2.4 C 22 2.4 22.7 2.7 23.2 3.2 C 23.8 3.8 24 4.5 24 5.5 C 24 6.3 23.9 7 23.7 7.4 C 23.4 7.9 23.1 8.2 22.6 8.5 C 22.2 8.7 21.7 8.9 21.1 8.9 C 20.3 8.9 19.5 8.6 19 8 C 18.5 7.5 18.2 6.7 18.2 5.6 Z M 19.3 5.6 C 19.3 6.4 19.5 7 19.8 7.4 C 20.2 7.8 20.6 8 21.1 8 C 21.6 8 22.1 7.8 22.4 7.4 C 22.8 7 23 6.4 23 5.6 C 23 4.8 22.8 4.2 22.4 3.8 C 22.1 3.4 21.6 3.2 21.1 3.2 C 20.6 3.2 20.2 3.4 19.8 3.8 C 19.5 4.2 19.3 4.8 19.3 5.6 Z M 25.2 8.7 L 25.2 0.1 L 26.3 0.1 L 26.3 8.7 L 25.2 8.7 Z M 32 8.7 C 32 8.7 32.02 7.82 32 7.8 C 31.5 8.5 30.9 8.9 30 8.9 C 29.7 8.9 29.3 8.8 29 8.7 C 28.7 8.5 28.5 8.3 28.3 8.1 C 28.1 7.9 28 7.7 28 7.4 C 27.9 7.1 27.9 6.8 27.9 6.4 C 27.91 6.37 27.9 2.5 27.9 2.5 L 29 2.5 C 29 2.5 28.97 5.96 29 6 C 29 6.5 29 6.9 29 7.1 C 29.1 7.4 29.2 7.6 29.5 7.7 C 29.7 7.9 29.9 8 30.3 8 C 30.6 8 30.9 7.9 31.1 7.7 C 31.4 7.6 31.6 7.3 31.7 7.1 C 31.8 6.8 31.9 6.4 31.9 5.8 C 31.9 5.85 31.9 2.5 31.9 2.5 L 33 2.5 L 33 8.7 L 32 8.7 Z M 36.5 7.8 C 36.6 7.8 36.7 7.8 36.9 7.8 C 36.9 7.8 37.1 8.7 37.1 8.7 C 36.8 8.8 36.5 8.8 36.3 8.8 C 35.9 8.8 35.6 8.8 35.4 8.6 C 35.2 8.5 35 8.4 34.9 8.2 C 34.8 8 34.8 7.5 34.8 6.9 C 34.8 6.91 34.8 3.3 34.8 3.3 L 34 3.3 L 34 2.5 L 34.8 2.5 L 34.8 1 L 35.9 0.3 L 35.9 2.5 L 36.9 2.5 L 36.9 3.3 L 35.9 3.3 C 35.9 3.3 35.85 6.97 35.9 7 C 35.9 7.3 35.9 7.5 35.9 7.6 C 35.9 7.6 36 7.7 36.1 7.8 C 36.2 7.8 36.3 7.8 36.5 7.8 C 36.5 7.8 36.5 7.8 36.5 7.8 Z M 38 1.4 L 38 0.1 L 39 0.1 L 39 1.4 L 38 1.4 Z M 38 8.7 L 38 2.5 L 39 2.5 L 39 8.7 L 38 8.7 Z M 40.2 5.6 C 40.2 4.5 40.5 3.6 41.2 3.1 C 41.7 2.6 42.4 2.4 43.1 2.4 C 44 2.4 44.7 2.7 45.2 3.2 C 45.8 3.8 46 4.5 46 5.5 C 46 6.3 45.9 7 45.7 7.4 C 45.4 7.9 45.1 8.2 44.6 8.5 C 44.2 8.7 43.7 8.9 43.1 8.9 C 42.3 8.9 41.6 8.6 41 8 C 40.5 7.5 40.2 6.7 40.2 5.6 Z M 41.3 5.6 C 41.3 6.4 41.5 7 41.8 7.4 C 42.2 7.8 42.6 8 43.1 8 C 43.7 8 44.1 7.8 44.4 7.4 C 44.8 7 45 6.4 45 5.6 C 45 4.8 44.8 4.2 44.4 3.8 C 44.1 3.4 43.7 3.2 43.1 3.2 C 42.6 3.2 42.2 3.4 41.8 3.8 C 41.5 4.2 41.3 4.8 41.3 5.6 Z M 47.3 8.7 L 47.3 2.5 L 48.2 2.5 C 48.2 2.5 48.23 3.4 48.2 3.4 C 48.7 2.7 49.4 2.4 50.2 2.4 C 50.6 2.4 50.9 2.4 51.2 2.6 C 51.6 2.7 51.8 2.9 52 3.1 C 52.1 3.3 52.2 3.6 52.3 3.9 C 52.3 4.1 52.3 4.4 52.3 4.9 C 52.34 4.91 52.3 8.7 52.3 8.7 L 51.3 8.7 C 51.3 8.7 51.29 4.95 51.3 5 C 51.3 4.5 51.2 4.2 51.2 4 C 51.1 3.8 50.9 3.6 50.7 3.5 C 50.5 3.4 50.3 3.3 50 3.3 C 49.5 3.3 49.2 3.4 48.8 3.7 C 48.5 4 48.3 4.5 48.3 5.3 C 48.34 5.34 48.3 8.7 48.3 8.7 L 47.3 8.7 Z " stroke="none" fill="#000"/>  </g></svg>