<?xml version="1.0" standalone="no"?><!DOCTYPE svg PUBLIC "-//W3C//DTD SVG 1.1//EN" "http://www.w3.org/Graphics/SVG/1.1/DTD/svg11.dtd"><svg xmlns="http://www.w3.org/2000/svg" version="1.1" width="61.2px" height="34.5px" viewBox="0 -4 61.2 34.5" style="top:-4px">  <desc>Solution Focused</desc>  <defs/>  <g id="Polygon6848">    <path d="M 8.6 23.1 L 8.6 14.5 L 14.4 14.5 L 14.4 15.6 L 9.7 15.6 L 9.7 18.2 L 13.7 18.2 L 13.7 19.2 L 9.7 19.2 L 9.7 23.1 L 8.6 23.1 Z M 15.3 20 C 15.3 18.9 15.6 18 16.3 17.5 C 16.8 17 17.5 16.8 18.2 16.8 C 19.1 16.8 19.8 17.1 20.3 17.6 C 20.9 18.2 21.1 18.9 21.1 19.9 C 21.1 20.7 21 21.4 20.8 21.8 C 20.5 22.3 20.2 22.6 19.7 22.9 C 19.3 23.1 18.8 23.3 18.2 23.3 C 17.4 23.3 16.7 23 16.1 22.4 C 15.6 21.9 15.3 21.1 15.3 20 Z M 16.4 20 C 16.4 20.8 16.6 21.4 16.9 21.8 C 17.3 22.2 17.7 22.4 18.2 22.4 C 18.8 22.4 19.2 22.2 19.5 21.8 C 19.9 21.4 20.1 20.8 20.1 20 C 20.1 19.2 19.9 18.6 19.5 18.2 C 19.2 17.8 18.7 17.6 18.2 17.6 C 17.7 17.6 17.3 17.8 16.9 18.2 C 16.6 18.6 16.4 19.2 16.4 20 Z M 26.4 20.9 C 26.4 20.9 27.5 21 27.5 21 C 27.4 21.7 27.1 22.3 26.6 22.7 C 26.1 23.1 25.6 23.3 24.9 23.3 C 24 23.3 23.3 23 22.8 22.4 C 22.3 21.9 22.1 21.1 22.1 20 C 22.1 19.4 22.2 18.8 22.4 18.3 C 22.6 17.8 23 17.4 23.4 17.2 C 23.9 16.9 24.4 16.8 24.9 16.8 C 25.6 16.8 26.1 16.9 26.5 17.3 C 27 17.6 27.3 18.1 27.4 18.7 C 27.4 18.7 26.3 18.9 26.3 18.9 C 26.3 18.5 26.1 18.2 25.8 18 C 25.6 17.7 25.3 17.6 24.9 17.6 C 24.4 17.6 24 17.8 23.6 18.2 C 23.3 18.6 23.1 19.2 23.1 20 C 23.1 20.9 23.3 21.5 23.6 21.8 C 23.9 22.2 24.4 22.4 24.9 22.4 C 25.3 22.4 25.6 22.3 25.9 22 C 26.2 21.8 26.4 21.4 26.4 20.9 Z M 32.5 23.1 C 32.5 23.1 32.46 22.22 32.5 22.2 C 32 22.9 31.3 23.3 30.5 23.3 C 30.1 23.3 29.8 23.2 29.5 23.1 C 29.1 22.9 28.9 22.7 28.7 22.5 C 28.6 22.3 28.5 22.1 28.4 21.8 C 28.4 21.5 28.4 21.2 28.4 20.8 C 28.35 20.77 28.4 16.9 28.4 16.9 L 29.4 16.9 C 29.4 16.9 29.41 20.36 29.4 20.4 C 29.4 20.9 29.4 21.3 29.5 21.5 C 29.5 21.8 29.7 22 29.9 22.1 C 30.1 22.3 30.4 22.4 30.7 22.4 C 31 22.4 31.3 22.3 31.6 22.1 C 31.9 22 32.1 21.7 32.2 21.5 C 32.3 21.2 32.3 20.8 32.3 20.2 C 32.34 20.25 32.3 16.9 32.3 16.9 L 33.4 16.9 L 33.4 23.1 L 32.5 23.1 Z M 34.6 21.3 C 34.6 21.3 35.7 21.1 35.7 21.1 C 35.7 21.5 35.9 21.9 36.2 22.1 C 36.4 22.3 36.8 22.4 37.3 22.4 C 37.8 22.4 38.1 22.3 38.4 22.1 C 38.6 21.9 38.7 21.7 38.7 21.4 C 38.7 21.2 38.6 21 38.4 20.9 C 38.3 20.8 37.9 20.6 37.3 20.5 C 36.6 20.3 36 20.1 35.7 20 C 35.4 19.9 35.2 19.7 35 19.4 C 34.9 19.1 34.8 18.9 34.8 18.6 C 34.8 18.3 34.9 18 35 17.8 C 35.1 17.6 35.3 17.4 35.5 17.2 C 35.7 17.1 35.9 17 36.2 16.9 C 36.5 16.8 36.8 16.8 37.1 16.8 C 37.6 16.8 38 16.8 38.4 17 C 38.8 17.1 39 17.3 39.2 17.6 C 39.4 17.8 39.5 18.1 39.6 18.5 C 39.6 18.5 38.5 18.7 38.5 18.7 C 38.5 18.3 38.3 18.1 38.1 17.9 C 37.9 17.7 37.6 17.6 37.2 17.6 C 36.7 17.6 36.3 17.7 36.1 17.9 C 35.9 18 35.8 18.2 35.8 18.4 C 35.8 18.6 35.9 18.7 36 18.8 C 36 18.9 36.2 19 36.4 19.1 C 36.5 19.1 36.8 19.2 37.3 19.4 C 38 19.6 38.6 19.7 38.9 19.9 C 39.1 20 39.4 20.2 39.5 20.4 C 39.7 20.6 39.8 20.9 39.8 21.3 C 39.8 21.7 39.7 22 39.5 22.3 C 39.3 22.6 39 22.9 38.6 23 C 38.2 23.2 37.8 23.3 37.3 23.3 C 36.5 23.3 35.9 23.1 35.4 22.8 C 35 22.4 34.7 21.9 34.6 21.3 Z M 45.3 21.1 C 45.3 21.1 46.4 21.3 46.4 21.3 C 46.2 21.9 45.9 22.4 45.4 22.7 C 45 23.1 44.4 23.3 43.7 23.3 C 42.8 23.3 42 23 41.5 22.4 C 41 21.9 40.7 21.1 40.7 20.1 C 40.7 19 41 18.2 41.5 17.6 C 42 17.1 42.7 16.8 43.6 16.8 C 44.4 16.8 45.1 17.1 45.6 17.6 C 46.2 18.2 46.4 19 46.4 20 C 46.4 20.1 46.4 20.2 46.4 20.3 C 46.4 20.3 41.8 20.3 41.8 20.3 C 41.8 21 42 21.5 42.4 21.9 C 42.7 22.2 43.2 22.4 43.7 22.4 C 44.1 22.4 44.4 22.3 44.7 22.1 C 44.9 21.9 45.2 21.6 45.3 21.1 Z M 41.8 19.4 C 41.8 19.4 45.3 19.4 45.3 19.4 C 45.3 18.9 45.1 18.5 44.9 18.2 C 44.6 17.8 44.2 17.6 43.6 17.6 C 43.1 17.6 42.7 17.8 42.4 18.1 C 42.1 18.5 41.9 18.9 41.8 19.4 Z M 51.8 23.1 C 51.8 23.1 51.76 22.35 51.8 22.4 C 51.4 23 50.8 23.3 50 23.3 C 49.5 23.3 49.1 23.1 48.7 22.9 C 48.2 22.6 47.9 22.2 47.7 21.7 C 47.5 21.2 47.3 20.7 47.3 20 C 47.3 19.4 47.4 18.8 47.7 18.3 C 47.9 17.8 48.2 17.4 48.6 17.2 C 49 16.9 49.5 16.8 50 16.8 C 50.3 16.8 50.7 16.9 51 17 C 51.3 17.2 51.5 17.4 51.7 17.6 C 51.69 17.63 51.7 14.5 51.7 14.5 L 52.7 14.5 L 52.7 23.1 L 51.8 23.1 Z M 48.4 20 C 48.4 20.8 48.6 21.4 48.9 21.8 C 49.3 22.2 49.7 22.4 50.1 22.4 C 50.6 22.4 51 22.2 51.3 21.8 C 51.6 21.5 51.8 20.9 51.8 20.1 C 51.8 19.3 51.6 18.6 51.3 18.2 C 51 17.8 50.6 17.6 50.1 17.6 C 49.6 17.6 49.2 17.8 48.9 18.2 C 48.6 18.6 48.4 19.2 48.4 20 Z " stroke="none" fill="#000"/>  </g>  <g id="Polygon6847">    <path d="M 9.5 6 C 9.5 6 10.5 5.9 10.5 5.9 C 10.6 6.3 10.7 6.7 10.9 6.9 C 11.1 7.2 11.4 7.4 11.7 7.6 C 12.1 7.8 12.6 7.9 13.1 7.9 C 13.5 7.9 13.9 7.8 14.2 7.7 C 14.5 7.5 14.8 7.4 15 7.1 C 15.1 6.9 15.2 6.7 15.2 6.4 C 15.2 6.1 15.1 5.9 15 5.7 C 14.8 5.5 14.5 5.3 14.2 5.2 C 14 5.1 13.4 5 12.7 4.8 C 11.9 4.6 11.3 4.4 11 4.2 C 10.6 4 10.3 3.8 10.1 3.4 C 9.9 3.1 9.8 2.8 9.8 2.4 C 9.8 1.9 9.9 1.5 10.1 1.2 C 10.4 0.8 10.8 0.5 11.2 0.3 C 11.7 0.1 12.2 0 12.8 0 C 13.4 0 14 0.1 14.5 0.3 C 15 0.5 15.3 0.8 15.6 1.2 C 15.9 1.6 16 2.1 16 2.6 C 16 2.6 14.9 2.6 14.9 2.6 C 14.9 2.1 14.7 1.7 14.3 1.4 C 14 1.1 13.5 1 12.8 1 C 12.2 1 11.7 1.1 11.3 1.4 C 11 1.6 10.9 1.9 10.9 2.3 C 10.9 2.6 11 2.9 11.2 3.1 C 11.4 3.3 12 3.5 12.9 3.7 C 13.8 3.9 14.5 4.1 14.8 4.2 C 15.3 4.4 15.7 4.7 15.9 5.1 C 16.2 5.4 16.3 5.8 16.3 6.3 C 16.3 6.8 16.2 7.2 15.9 7.6 C 15.6 8 15.3 8.3 14.8 8.5 C 14.3 8.8 13.7 8.9 13.1 8.9 C 12.3 8.9 11.7 8.8 11.2 8.5 C 10.6 8.3 10.2 8 9.9 7.5 C 9.6 7.1 9.5 6.6 9.5 6 Z M 17.3 5.6 C 17.3 4.5 17.6 3.6 18.3 3.1 C 18.8 2.6 19.5 2.4 20.2 2.4 C 21.1 2.4 21.8 2.7 22.3 3.2 C 22.9 3.8 23.1 4.5 23.1 5.5 C 23.1 6.3 23 7 22.8 7.4 C 22.5 7.9 22.2 8.2 21.7 8.5 C 21.3 8.7 20.8 8.9 20.2 8.9 C 19.4 8.9 18.7 8.6 18.1 8 C 17.6 7.5 17.3 6.7 17.3 5.6 Z M 18.4 5.6 C 18.4 6.4 18.6 7 18.9 7.4 C 19.3 7.8 19.7 8 20.2 8 C 20.8 8 21.2 7.8 21.5 7.4 C 21.9 7 22.1 6.4 22.1 5.6 C 22.1 4.8 21.9 4.2 21.5 3.8 C 21.2 3.4 20.8 3.2 20.2 3.2 C 19.7 3.2 19.3 3.4 18.9 3.8 C 18.6 4.2 18.4 4.8 18.4 5.6 Z M 24.4 8.7 L 24.4 0.1 L 25.4 0.1 L 25.4 8.7 L 24.4 8.7 Z M 31.1 8.7 C 31.1 8.7 31.12 7.82 31.1 7.8 C 30.6 8.5 30 8.9 29.2 8.9 C 28.8 8.9 28.4 8.8 28.1 8.7 C 27.8 8.5 27.6 8.3 27.4 8.1 C 27.3 7.9 27.2 7.7 27.1 7.4 C 27 7.1 27 6.8 27 6.4 C 27.02 6.37 27 2.5 27 2.5 L 28.1 2.5 C 28.1 2.5 28.08 5.96 28.1 6 C 28.1 6.5 28.1 6.9 28.1 7.1 C 28.2 7.4 28.3 7.6 28.6 7.7 C 28.8 7.9 29 8 29.4 8 C 29.7 8 30 7.9 30.3 7.7 C 30.5 7.6 30.7 7.3 30.8 7.1 C 31 6.8 31 6.4 31 5.8 C 31.01 5.85 31 2.5 31 2.5 L 32.1 2.5 L 32.1 8.7 L 31.1 8.7 Z M 35.6 7.8 C 35.7 7.8 35.8 7.8 36 7.8 C 36 7.8 36.2 8.7 36.2 8.7 C 35.9 8.8 35.6 8.8 35.4 8.8 C 35 8.8 34.7 8.8 34.5 8.6 C 34.3 8.5 34.1 8.4 34 8.2 C 34 8 33.9 7.5 33.9 6.9 C 33.91 6.91 33.9 3.3 33.9 3.3 L 33.1 3.3 L 33.1 2.5 L 33.9 2.5 L 33.9 1 L 35 0.3 L 35 2.5 L 36 2.5 L 36 3.3 L 35 3.3 C 35 3.3 34.96 6.97 35 7 C 35 7.3 35 7.5 35 7.6 C 35.1 7.6 35.1 7.7 35.2 7.8 C 35.3 7.8 35.4 7.8 35.6 7.8 C 35.6 7.8 35.6 7.8 35.6 7.8 Z M 37.1 1.4 L 37.1 0.1 L 38.1 0.1 L 38.1 1.4 L 37.1 1.4 Z M 37.1 8.7 L 37.1 2.5 L 38.1 2.5 L 38.1 8.7 L 37.1 8.7 Z M 39.3 5.6 C 39.3 4.5 39.6 3.6 40.3 3.1 C 40.8 2.6 41.5 2.4 42.2 2.4 C 43.1 2.4 43.8 2.7 44.3 3.2 C 44.9 3.8 45.2 4.5 45.2 5.5 C 45.2 6.3 45 7 44.8 7.4 C 44.6 7.9 44.2 8.2 43.7 8.5 C 43.3 8.7 42.8 8.9 42.2 8.9 C 41.4 8.9 40.7 8.6 40.1 8 C 39.6 7.5 39.3 6.7 39.3 5.6 Z M 40.4 5.6 C 40.4 6.4 40.6 7 40.9 7.4 C 41.3 7.8 41.7 8 42.2 8 C 42.8 8 43.2 7.8 43.6 7.4 C 43.9 7 44.1 6.4 44.1 5.6 C 44.1 4.8 43.9 4.2 43.5 3.8 C 43.2 3.4 42.8 3.2 42.2 3.2 C 41.7 3.2 41.3 3.4 40.9 3.8 C 40.6 4.2 40.4 4.8 40.4 5.6 Z M 46.4 8.7 L 46.4 2.5 L 47.3 2.5 C 47.3 2.5 47.34 3.4 47.3 3.4 C 47.8 2.7 48.5 2.4 49.3 2.4 C 49.7 2.4 50 2.4 50.4 2.6 C 50.7 2.7 50.9 2.9 51.1 3.1 C 51.2 3.3 51.3 3.6 51.4 3.9 C 51.4 4.1 51.5 4.4 51.5 4.9 C 51.45 4.91 51.5 8.7 51.5 8.7 L 50.4 8.7 C 50.4 8.7 50.4 4.95 50.4 5 C 50.4 4.5 50.4 4.2 50.3 4 C 50.2 3.8 50 3.6 49.8 3.5 C 49.6 3.4 49.4 3.3 49.1 3.3 C 48.7 3.3 48.3 3.4 47.9 3.7 C 47.6 4 47.4 4.5 47.4 5.3 C 47.45 5.34 47.4 8.7 47.4 8.7 L 46.4 8.7 Z " stroke="none" fill="#000"/>  </g></svg>