<?xml version="1.0" standalone="no"?><!DOCTYPE svg PUBLIC "-//W3C//DTD SVG 1.1//EN" "http://www.w3.org/Graphics/SVG/1.1/DTD/svg11.dtd"><svg xmlns="http://www.w3.org/2000/svg" version="1.1" width="99px" height="39.1px" viewBox="0 -8 99 39.1" style="top:-8px">  <desc>Excellent</desc>  <defs/>  <g id="Polygon8605">    <path d="M 3.2 17.5 L 3.2 0.3 L 15.6 0.3 L 15.6 2.3 L 5.5 2.3 L 5.5 7.6 L 15 7.6 L 15 9.6 L 5.5 9.6 L 5.5 15.4 L 16 15.4 L 16 17.5 L 3.2 17.5 Z M 17.5 17.5 L 22 11 L 17.8 5 L 20.4 5 C 20.4 5 22.36 7.95 22.4 7.9 C 22.7 8.5 23 9 23.2 9.3 C 23.6 8.8 23.9 8.4 24.2 8 C 24.18 7.97 26.3 5 26.3 5 L 28.8 5 L 24.5 10.9 L 29.1 17.5 L 26.5 17.5 L 24 13.6 L 23.3 12.6 L 20 17.5 L 17.5 17.5 Z M 39 12.9 C 39 12.9 41.1 13.2 41.1 13.2 C 40.8 14.6 40.3 15.7 39.3 16.5 C 38.4 17.3 37.3 17.8 35.9 17.8 C 34.2 17.8 32.8 17.2 31.8 16.1 C 30.8 15 30.2 13.4 30.2 11.3 C 30.2 10 30.5 8.8 30.9 7.8 C 31.3 6.8 32 6 32.9 5.5 C 33.8 5 34.8 4.7 35.9 4.7 C 37.3 4.7 38.4 5.1 39.2 5.8 C 40.1 6.5 40.6 7.4 40.9 8.7 C 40.9 8.7 38.8 9 38.8 9 C 38.6 8.2 38.3 7.5 37.8 7.1 C 37.3 6.7 36.7 6.5 36 6.5 C 34.9 6.5 34.1 6.9 33.4 7.6 C 32.7 8.4 32.4 9.6 32.4 11.2 C 32.4 12.9 32.7 14.1 33.4 14.9 C 34 15.6 34.8 16 35.9 16 C 36.7 16 37.4 15.8 37.9 15.3 C 38.5 14.8 38.9 14 39 12.9 Z M 51.4 13.5 C 51.4 13.5 53.6 13.7 53.6 13.7 C 53.2 15 52.6 16 51.7 16.7 C 50.7 17.4 49.6 17.8 48.1 17.8 C 46.3 17.8 44.8 17.2 43.8 16.1 C 42.7 15 42.2 13.4 42.2 11.4 C 42.2 9.3 42.7 7.6 43.8 6.5 C 44.9 5.3 46.3 4.7 48 4.7 C 49.7 4.7 51 5.3 52.1 6.4 C 53.1 7.6 53.6 9.2 53.6 11.2 C 53.6 11.4 53.6 11.5 53.6 11.8 C 53.6 11.8 44.4 11.8 44.4 11.8 C 44.4 13.2 44.8 14.2 45.5 14.9 C 46.2 15.7 47.1 16 48.1 16 C 48.9 16 49.6 15.8 50.1 15.4 C 50.6 15 51.1 14.4 51.4 13.5 Z M 44.5 10.1 C 44.5 10.1 51.4 10.1 51.4 10.1 C 51.3 9 51.1 8.2 50.6 7.7 C 50 6.9 49.1 6.5 48 6.5 C 47 6.5 46.2 6.8 45.6 7.5 C 44.9 8.1 44.5 9 44.5 10.1 Z M 56.2 17.5 L 56.2 0.3 L 58.3 0.3 L 58.3 17.5 L 56.2 17.5 Z M 61.5 17.5 L 61.5 0.3 L 63.6 0.3 L 63.6 17.5 L 61.5 17.5 Z M 75.4 13.5 C 75.4 13.5 77.6 13.7 77.6 13.7 C 77.2 15 76.6 16 75.7 16.7 C 74.8 17.4 73.6 17.8 72.1 17.8 C 70.3 17.8 68.9 17.2 67.8 16.1 C 66.7 15 66.2 13.4 66.2 11.4 C 66.2 9.3 66.7 7.6 67.8 6.5 C 68.9 5.3 70.3 4.7 72 4.7 C 73.7 4.7 75 5.3 76.1 6.4 C 77.1 7.6 77.7 9.2 77.7 11.2 C 77.7 11.4 77.7 11.5 77.6 11.8 C 77.6 11.8 68.4 11.8 68.4 11.8 C 68.4 13.2 68.8 14.2 69.5 14.9 C 70.2 15.7 71.1 16 72.1 16 C 72.9 16 73.6 15.8 74.1 15.4 C 74.7 15 75.1 14.4 75.4 13.5 Z M 68.5 10.1 C 68.5 10.1 75.4 10.1 75.4 10.1 C 75.3 9 75.1 8.2 74.6 7.7 C 74 6.9 73.1 6.5 72 6.5 C 71.1 6.5 70.2 6.8 69.6 7.5 C 68.9 8.1 68.6 9 68.5 10.1 Z M 80.2 17.5 L 80.2 5 L 82.1 5 C 82.1 5 82.14 6.8 82.1 6.8 C 83.1 5.4 84.4 4.7 86.1 4.7 C 86.8 4.7 87.5 4.9 88.2 5.2 C 88.8 5.4 89.3 5.8 89.6 6.2 C 89.9 6.6 90.1 7.2 90.2 7.8 C 90.3 8.2 90.4 8.8 90.4 9.8 C 90.35 9.82 90.4 17.5 90.4 17.5 L 88.2 17.5 C 88.2 17.5 88.24 9.9 88.2 9.9 C 88.2 9 88.2 8.4 88 8 C 87.8 7.5 87.5 7.2 87.1 7 C 86.7 6.7 86.2 6.6 85.7 6.6 C 84.8 6.6 84 6.9 83.3 7.4 C 82.7 8 82.3 9.1 82.3 10.7 C 82.35 10.68 82.3 17.5 82.3 17.5 L 80.2 17.5 Z M 97.3 15.7 C 97.5 15.7 97.8 15.6 98.2 15.6 C 98.2 15.6 98.5 17.4 98.5 17.4 C 97.9 17.6 97.4 17.6 96.9 17.6 C 96.1 17.6 95.5 17.5 95.1 17.3 C 94.7 17 94.4 16.7 94.2 16.3 C 94.1 15.9 94 15.1 94 13.8 C 93.97 13.83 94 6.7 94 6.7 L 92.4 6.7 L 92.4 5 L 94 5 L 94 1.9 L 96.1 0.7 L 96.1 5 L 98.2 5 L 98.2 6.7 L 96.1 6.7 C 96.1 6.7 96.07 13.95 96.1 13.9 C 96.1 14.5 96.1 14.9 96.2 15.1 C 96.3 15.3 96.4 15.4 96.5 15.5 C 96.7 15.6 97 15.7 97.3 15.7 C 97.3 15.7 97.3 15.7 97.3 15.7 Z " stroke="none" fill="#000"/>  </g></svg>