<?xml version="1.0" standalone="no"?><!DOCTYPE svg PUBLIC "-//W3C//DTD SVG 1.1//EN" "http://www.w3.org/Graphics/SVG/1.1/DTD/svg11.dtd"><svg xmlns="http://www.w3.org/2000/svg" version="1.1" width="164px" height="74.4px" viewBox="0 -4 164 74.4" style="top:-4px">  <desc>Training Understanding EDI</desc>  <defs/>  <g id="Polygon45722">    <path d="M 9 45.3 L 9 46.6 L 3 46.6 L 3 51.4 L 8.8 51.4 L 8.8 52.7 L 3 52.7 L 3 57.6 L 9.2 57.6 L 9.2 58.9 L 1.5 58.9 L 1.5 45.3 L 9 45.3 Z M 11.6 45.3 C 11.6 45.3 16.6 45.29 16.6 45.3 C 21.1 45.3 23.9 48.1 23.9 52 C 23.9 56.2 20.9 58.9 16.6 58.9 C 16.6 58.93 11.6 58.9 11.6 58.9 L 11.6 45.3 Z M 16.6 57.6 C 20.2 57.6 22.4 55.5 22.4 52.1 C 22.4 48.8 20.2 46.6 16.4 46.6 C 16.36 46.63 13.1 46.6 13.1 46.6 L 13.1 57.6 C 13.1 57.6 16.58 57.57 16.6 57.6 Z M 27.9 45.3 L 27.9 58.9 L 26.4 58.9 L 26.4 45.3 L 27.9 45.3 Z " stroke="none" fill="#000000"/>  </g>  <g id="Polygon45721">    <path d="M 2.9 21.3 C 2.9 21.3 2.86 29.15 2.9 29.2 C 2.9 32.2 4.3 33.8 7.1 33.8 C 9.9 33.8 11.3 32.1 11.3 29.2 C 11.3 29.15 11.3 21.3 11.3 21.3 L 12.8 21.3 C 12.8 21.3 12.8 29.15 12.8 29.2 C 12.8 32.7 10.9 35.1 7.1 35.1 C 3.4 35.1 1.4 33 1.4 29.2 C 1.36 29.15 1.4 21.3 1.4 21.3 L 2.9 21.3 Z M 16.9 21.3 L 26.6 32.6 L 26.6 21.3 L 28 21.3 L 28 34.9 L 26.7 34.9 L 17.1 23.7 L 17.1 34.9 L 15.7 34.9 L 15.7 21.3 L 16.9 21.3 Z M 31.1 21.3 C 31.1 21.3 36.12 21.29 36.1 21.3 C 40.6 21.3 43.5 24.1 43.5 28 C 43.5 32.2 40.5 34.9 36.1 34.9 C 36.12 34.93 31.1 34.9 31.1 34.9 L 31.1 21.3 Z M 36.1 33.6 C 39.7 33.6 41.9 31.5 41.9 28.1 C 41.9 24.8 39.7 22.6 35.9 22.6 C 35.88 22.63 32.6 22.6 32.6 22.6 L 32.6 33.6 C 32.6 33.6 36.1 33.57 36.1 33.6 Z M 53.4 21.3 L 53.4 22.6 L 47.5 22.6 L 47.5 27.4 L 53.2 27.4 L 53.2 28.7 L 47.5 28.7 L 47.5 33.6 L 53.6 33.6 L 53.6 34.9 L 46 34.9 L 46 21.3 L 53.4 21.3 Z M 56 21.3 C 56 21.3 59.58 21.29 59.6 21.3 C 62.3 21.3 63.7 22.9 63.7 25 C 63.7 26.7 62.8 27.8 61.2 28.3 C 62 28.8 62.4 29.1 63.6 30.9 C 63.56 30.85 66.2 34.9 66.2 34.9 L 64.4 34.9 C 64.4 34.9 62.02 31.17 62 31.2 C 60.8 29.2 59.9 28.7 58.8 28.7 C 58.76 28.73 57.5 28.7 57.5 28.7 L 57.5 34.9 L 56 34.9 L 56 21.3 Z M 58.9 27.4 C 60.8 27.4 62.2 27 62.2 25 C 62.2 23.3 61.1 22.6 59.4 22.6 C 59.38 22.61 57.5 22.6 57.5 22.6 L 57.5 27.4 C 57.5 27.4 58.9 27.41 58.9 27.4 Z M 74.3 22 C 74.3 22 74.3 23.7 74.3 23.7 C 73.4 22.9 72.4 22.5 71.3 22.5 C 69.8 22.5 68.9 23.3 68.9 24.5 C 68.9 25.4 69.1 26.1 71.4 27.3 C 74.2 28.7 74.9 29.7 74.9 31.6 C 74.9 33.6 73.3 35.1 71 35.1 C 69.7 35.1 68.5 34.7 67.4 33.9 C 67.4 33.9 67.4 32 67.4 32 C 68.4 33.2 69.6 33.8 71 33.8 C 72.3 33.8 73.3 32.9 73.3 31.6 C 73.3 30.4 73 29.8 70.3 28.4 C 68.2 27.3 67.4 26.2 67.4 24.5 C 67.4 22.6 69 21.1 71.3 21.1 C 72.4 21.1 73.4 21.4 74.3 22 Z M 87.2 21.3 L 87.2 22.6 L 82.3 22.6 L 82.3 34.9 L 80.8 34.9 L 80.8 22.6 L 76 22.6 L 76 21.3 L 87.2 21.3 Z M 92.8 21.2 L 98.9 34.9 L 97.3 34.9 L 95.4 30.7 L 89.2 30.7 L 87.4 34.9 L 85.8 34.9 L 91.7 21.2 L 92.8 21.2 Z M 89.8 29.3 L 94.8 29.3 L 92.2 23.5 L 89.8 29.3 Z M 101.7 21.3 L 111.3 32.6 L 111.3 21.3 L 112.8 21.3 L 112.8 34.9 L 111.4 34.9 L 101.9 23.7 L 101.9 34.9 L 100.4 34.9 L 100.4 21.3 L 101.7 21.3 Z M 115.8 21.3 C 115.8 21.3 120.84 21.29 120.8 21.3 C 125.3 21.3 128.2 24.1 128.2 28 C 128.2 32.2 125.2 34.9 120.8 34.9 C 120.84 34.93 115.8 34.9 115.8 34.9 L 115.8 21.3 Z M 120.8 33.6 C 124.4 33.6 126.6 31.5 126.6 28.1 C 126.6 24.8 124.5 22.6 120.6 22.6 C 120.6 22.63 117.3 22.6 117.3 22.6 L 117.3 33.6 C 117.3 33.6 120.82 33.57 120.8 33.6 Z M 132.2 21.3 L 132.2 34.9 L 130.7 34.9 L 130.7 21.3 L 132.2 21.3 Z M 136.5 21.3 L 146.1 32.6 L 146.1 21.3 L 147.6 21.3 L 147.6 34.9 L 146.3 34.9 L 136.7 23.7 L 136.7 34.9 L 135.2 34.9 L 135.2 21.3 L 136.5 21.3 Z M 161.9 23.8 C 160.4 22.9 158.7 22.5 157.2 22.5 C 154 22.5 151.6 24.9 151.6 28.1 C 151.6 31.4 153.9 33.8 157.3 33.8 C 158.5 33.8 159.3 33.6 160.7 33.1 C 160.68 33.07 160.7 29.8 160.7 29.8 L 157.9 29.8 L 157.9 28.4 L 162.2 28.4 C 162.2 28.4 162.18 33.99 162.2 34 C 160.6 34.8 159.1 35.1 157.3 35.1 C 152.4 35.1 150 31.7 150 28.2 C 150 24.3 152.9 21.1 157.3 21.1 C 158.8 21.1 160.1 21.4 161.9 22.2 C 161.9 22.2 161.9 23.8 161.9 23.8 Z " stroke="none" fill="#000000"/>  </g>  <g id="Polygon45720">    <path d="M 8.6 0.7 L 8.6 1.7 L 5 1.7 L 5 10.9 L 3.8 10.9 L 3.8 1.7 L 0.2 1.7 L 0.2 0.7 L 8.6 0.7 Z M 10 0.7 C 10 0.7 12.69 0.7 12.7 0.7 C 14.7 0.7 15.8 1.9 15.8 3.4 C 15.8 4.7 15.1 5.6 13.9 6 C 14.5 6.3 14.8 6.6 15.7 7.9 C 15.67 7.87 17.7 10.9 17.7 10.9 L 16.3 10.9 C 16.3 10.9 14.52 8.11 14.5 8.1 C 13.6 6.6 12.9 6.3 12.1 6.3 C 12.07 6.28 11.1 6.3 11.1 6.3 L 11.1 10.9 L 10 10.9 L 10 0.7 Z M 12.2 5.3 C 13.6 5.3 14.7 4.9 14.7 3.5 C 14.7 2.2 13.8 1.7 12.5 1.7 C 12.54 1.69 11.1 1.7 11.1 1.7 L 11.1 5.3 C 11.1 5.3 12.18 5.29 12.2 5.3 Z M 22.9 0.6 L 27.4 10.9 L 26.3 10.9 L 24.8 7.7 L 20.2 7.7 L 18.8 10.9 L 17.7 10.9 L 22.1 0.6 L 22.9 0.6 Z M 20.6 6.7 L 24.4 6.7 L 22.5 2.4 L 20.6 6.7 Z M 29.7 0.7 L 29.7 10.9 L 28.6 10.9 L 28.6 0.7 L 29.7 0.7 Z M 33 0.7 L 40.2 9.2 L 40.2 0.7 L 41.3 0.7 L 41.3 10.9 L 40.3 10.9 L 33.1 2.5 L 33.1 10.9 L 32 10.9 L 32 0.7 L 33 0.7 Z M 44.7 0.7 L 44.7 10.9 L 43.6 10.9 L 43.6 0.7 L 44.7 0.7 Z M 47.9 0.7 L 55.2 9.2 L 55.2 0.7 L 56.2 0.7 L 56.2 10.9 L 55.3 10.9 L 48.1 2.5 L 48.1 10.9 L 47 10.9 L 47 0.7 L 47.9 0.7 Z M 67 2.6 C 65.9 1.9 64.6 1.6 63.5 1.6 C 61.1 1.6 59.3 3.4 59.3 5.8 C 59.3 8.3 61 10.1 63.6 10.1 C 64.4 10.1 65 9.9 66.1 9.5 C 66.07 9.54 66.1 7 66.1 7 L 64 7 L 64 6.1 L 67.2 6.1 C 67.2 6.1 67.2 10.23 67.2 10.2 C 66 10.8 64.9 11.1 63.6 11.1 C 59.9 11.1 58.1 8.5 58.1 5.9 C 58.1 3 60.2 0.6 63.5 0.6 C 64.7 0.6 65.6 0.8 67 1.4 C 67 1.4 67 2.6 67 2.6 Z " stroke="none" fill="#f28620"/>  </g></svg>