<?xml version="1.0" standalone="no"?><!DOCTYPE svg PUBLIC "-//W3C//DTD SVG 1.1//EN" "http://www.w3.org/Graphics/SVG/1.1/DTD/svg11.dtd"><svg xmlns="http://www.w3.org/2000/svg" version="1.1" width="61.2px" height="29.4px" viewBox="0 -1 61.2 29.4" style="top:-1px">  <desc>93%</desc>  <defs/>  <g id="Polygon6741">    <path d="M 15.3 14.9 C 15.3 14.9 17.4 14.7 17.4 14.7 C 17.5 15.1 17.6 15.4 17.8 15.6 C 18.1 15.8 18.3 15.9 18.7 15.9 C 19.2 15.9 19.5 15.7 19.9 15.3 C 20.2 14.9 20.4 14 20.5 12.7 C 19.9 13.4 19.2 13.7 18.4 13.7 C 17.5 13.7 16.7 13.3 16.1 12.6 C 15.4 11.9 15.1 11 15.1 9.9 C 15.1 8.8 15.4 7.8 16.1 7.1 C 16.8 6.4 17.7 6 18.8 6 C 19.9 6 20.9 6.5 21.6 7.4 C 22.4 8.3 22.7 9.8 22.7 11.8 C 22.7 13.9 22.4 15.4 21.6 16.4 C 20.8 17.3 19.8 17.7 18.5 17.7 C 17.6 17.7 16.9 17.5 16.4 17 C 15.8 16.6 15.5 15.8 15.3 14.9 Z M 20.3 10.1 C 20.3 9.4 20.1 8.8 19.8 8.4 C 19.5 8.1 19.1 7.9 18.7 7.9 C 18.3 7.9 17.9 8 17.6 8.3 C 17.4 8.7 17.2 9.2 17.2 9.9 C 17.2 10.7 17.4 11.2 17.7 11.5 C 18 11.9 18.3 12.1 18.8 12.1 C 19.2 12.1 19.6 11.9 19.8 11.6 C 20.1 11.2 20.3 10.7 20.3 10.1 Z M 24.1 14.5 C 24.1 14.5 26.2 14.2 26.2 14.2 C 26.3 14.8 26.5 15.2 26.8 15.5 C 27.1 15.8 27.4 15.9 27.8 15.9 C 28.3 15.9 28.7 15.7 29 15.4 C 29.3 15.1 29.4 14.6 29.4 14 C 29.4 13.5 29.3 13 29 12.7 C 28.7 12.4 28.3 12.2 27.9 12.2 C 27.6 12.2 27.3 12.3 26.9 12.4 C 26.9 12.4 27.1 10.6 27.1 10.6 C 27.7 10.6 28.2 10.5 28.5 10.2 C 28.8 9.9 29 9.6 29 9.1 C 29 8.7 28.9 8.4 28.6 8.2 C 28.4 8 28.1 7.8 27.7 7.8 C 27.3 7.8 27 8 26.8 8.2 C 26.5 8.5 26.3 8.9 26.3 9.4 C 26.3 9.4 24.2 9 24.2 9 C 24.4 8.3 24.6 7.8 24.9 7.4 C 25.2 7 25.6 6.6 26.1 6.4 C 26.6 6.2 27.1 6 27.8 6 C 28.9 6 29.7 6.4 30.4 7.1 C 30.9 7.6 31.2 8.3 31.2 9 C 31.2 10 30.6 10.8 29.5 11.4 C 30.2 11.5 30.7 11.8 31.1 12.3 C 31.5 12.8 31.7 13.4 31.7 14.1 C 31.7 15.1 31.3 16 30.6 16.7 C 29.9 17.4 28.9 17.7 27.8 17.7 C 26.8 17.7 26 17.4 25.3 16.8 C 24.6 16.2 24.2 15.5 24.1 14.5 Z M 33.1 8.9 C 33.1 7.9 33.3 7.1 33.8 6.6 C 34.2 6.1 34.8 5.9 35.6 5.9 C 36.4 5.9 37 6.1 37.5 6.6 C 37.9 7.1 38.1 7.9 38.1 8.9 C 38.1 9.9 37.9 10.7 37.5 11.2 C 37 11.7 36.4 11.9 35.6 11.9 C 34.8 11.9 34.2 11.7 33.8 11.2 C 33.3 10.7 33.1 9.9 33.1 8.9 Z M 35 7.4 C 34.9 7.7 34.8 8.2 34.8 8.9 C 34.8 9.6 34.9 10.1 35 10.4 C 35.2 10.6 35.4 10.7 35.6 10.7 C 35.8 10.7 36 10.6 36.1 10.4 C 36.3 10.1 36.4 9.6 36.4 8.9 C 36.4 8.2 36.3 7.7 36.1 7.4 C 36 7.2 35.8 7.1 35.6 7.1 C 35.4 7.1 35.2 7.2 35 7.4 C 35 7.4 35 7.4 35 7.4 Z M 37.3 18 L 35.6 18 L 41.7 5.9 L 43.3 5.9 L 37.3 18 Z M 40.8 15 C 40.8 13.9 41 13.2 41.5 12.7 C 41.9 12.2 42.5 11.9 43.3 11.9 C 44.1 11.9 44.7 12.2 45.2 12.7 C 45.6 13.2 45.9 13.9 45.9 15 C 45.9 16 45.6 16.8 45.2 17.3 C 44.7 17.8 44.1 18 43.3 18 C 42.6 18 41.9 17.8 41.5 17.3 C 41 16.8 40.8 16 40.8 15 Z M 42.8 13.5 C 42.6 13.7 42.5 14.2 42.5 15 C 42.5 15.7 42.6 16.2 42.8 16.5 C 42.9 16.7 43.1 16.7 43.3 16.7 C 43.5 16.7 43.7 16.7 43.8 16.5 C 44 16.2 44.1 15.7 44.1 15 C 44.1 14.2 44 13.7 43.9 13.5 C 43.7 13.3 43.5 13.2 43.3 13.2 C 43.1 13.2 42.9 13.3 42.8 13.5 C 42.8 13.5 42.8 13.5 42.8 13.5 Z " stroke="none" fill="#000"/>  </g></svg>