<?xml version="1.0" standalone="no"?><!DOCTYPE svg PUBLIC "-//W3C//DTD SVG 1.1//EN" "http://www.w3.org/Graphics/SVG/1.1/DTD/svg11.dtd"><svg xmlns="http://www.w3.org/2000/svg" version="1.1" width="200px" height="20.5px" viewBox="0 -4 200 20.5" style="top:-4px">  <desc>Subject Matter Expertise</desc>  <defs/>  <g id="Polygon35447">    <path d="M 0.5 6 C 0.5 6 1.6 5.9 1.6 5.9 C 1.7 6.3 1.8 6.7 2 6.9 C 2.2 7.2 2.4 7.4 2.8 7.6 C 3.2 7.8 3.7 7.9 4.1 7.9 C 4.6 7.9 5 7.8 5.3 7.7 C 5.6 7.5 5.9 7.4 6 7.1 C 6.2 6.9 6.3 6.7 6.3 6.4 C 6.3 6.1 6.2 5.9 6 5.7 C 5.9 5.5 5.6 5.3 5.3 5.2 C 5 5.1 4.5 5 3.7 4.8 C 3 4.6 2.4 4.4 2.1 4.2 C 1.7 4 1.4 3.8 1.2 3.4 C 1 3.1 0.9 2.8 0.9 2.4 C 0.9 1.9 1 1.5 1.2 1.2 C 1.5 0.8 1.8 0.5 2.3 0.3 C 2.8 0.1 3.3 0 3.9 0 C 4.5 0 5.1 0.1 5.6 0.3 C 6.1 0.5 6.4 0.8 6.7 1.2 C 7 1.6 7.1 2.1 7.1 2.6 C 7.1 2.6 6 2.6 6 2.6 C 6 2.1 5.8 1.7 5.4 1.4 C 5.1 1.1 4.6 1 3.9 1 C 3.2 1 2.7 1.1 2.4 1.4 C 2.1 1.6 2 1.9 2 2.3 C 2 2.6 2.1 2.9 2.3 3.1 C 2.5 3.3 3.1 3.5 4 3.7 C 4.9 3.9 5.6 4.1 5.9 4.2 C 6.4 4.4 6.8 4.7 7 5.1 C 7.3 5.4 7.4 5.8 7.4 6.3 C 7.4 6.8 7.2 7.2 7 7.6 C 6.7 8 6.3 8.3 5.9 8.5 C 5.4 8.8 4.8 8.9 4.2 8.9 C 3.4 8.9 2.8 8.8 2.2 8.5 C 1.7 8.3 1.3 8 1 7.5 C 0.7 7.1 0.6 6.6 0.5 6 Z M 12.9 8.7 C 12.9 8.7 12.87 7.82 12.9 7.8 C 12.4 8.5 11.7 8.9 10.9 8.9 C 10.5 8.9 10.2 8.8 9.9 8.7 C 9.6 8.5 9.3 8.3 9.2 8.1 C 9 7.9 8.9 7.7 8.8 7.4 C 8.8 7.1 8.8 6.8 8.8 6.4 C 8.77 6.37 8.8 2.5 8.8 2.5 L 9.8 2.5 C 9.8 2.5 9.83 5.96 9.8 6 C 9.8 6.5 9.8 6.9 9.9 7.1 C 10 7.4 10.1 7.6 10.3 7.7 C 10.5 7.9 10.8 8 11.1 8 C 11.4 8 11.7 7.9 12 7.7 C 12.3 7.6 12.5 7.3 12.6 7.1 C 12.7 6.8 12.8 6.4 12.8 5.8 C 12.76 5.85 12.8 2.5 12.8 2.5 L 13.8 2.5 L 13.8 8.7 L 12.9 8.7 Z M 16.4 8.7 L 15.5 8.7 L 15.5 0.1 L 16.5 0.1 C 16.5 0.1 16.52 3.21 16.5 3.2 C 17 2.7 17.5 2.4 18.2 2.4 C 18.6 2.4 19 2.5 19.3 2.6 C 19.7 2.8 19.9 3 20.2 3.3 C 20.4 3.5 20.5 3.9 20.7 4.3 C 20.8 4.7 20.9 5.1 20.9 5.5 C 20.9 6.6 20.6 7.4 20.1 8 C 19.5 8.6 18.9 8.9 18.2 8.9 C 17.4 8.9 16.9 8.6 16.4 8 C 16.44 7.96 16.4 8.7 16.4 8.7 Z M 16.4 5.6 C 16.4 6.3 16.5 6.9 16.7 7.2 C 17.1 7.7 17.5 8 18.1 8 C 18.5 8 18.9 7.8 19.3 7.4 C 19.6 7 19.8 6.4 19.8 5.6 C 19.8 4.8 19.6 4.2 19.3 3.8 C 19 3.4 18.6 3.2 18.1 3.2 C 17.7 3.2 17.3 3.4 16.9 3.8 C 16.6 4.2 16.4 4.8 16.4 5.6 Z M 22.1 1.4 L 22.1 0.1 L 23.2 0.1 L 23.2 1.4 L 22.1 1.4 Z M 21.6 11.3 C 21.3 11.3 21.1 11.2 20.8 11.2 C 20.8 11.2 21 10.3 21 10.3 C 21.2 10.3 21.4 10.3 21.5 10.3 C 21.7 10.3 21.9 10.3 22 10.1 C 22.1 10 22.1 9.6 22.1 9.1 C 22.14 9.05 22.1 2.5 22.1 2.5 L 23.2 2.5 C 23.2 2.5 23.19 9.08 23.2 9.1 C 23.2 9.8 23.1 10.4 22.9 10.7 C 22.6 11.1 22.2 11.3 21.6 11.3 C 21.6 11.3 21.6 11.3 21.6 11.3 Z M 29.1 6.7 C 29.1 6.7 30.2 6.9 30.2 6.9 C 30 7.5 29.7 8 29.2 8.3 C 28.7 8.7 28.1 8.9 27.4 8.9 C 26.5 8.9 25.8 8.6 25.3 8 C 24.7 7.5 24.5 6.7 24.5 5.7 C 24.5 4.6 24.7 3.8 25.3 3.2 C 25.8 2.7 26.5 2.4 27.4 2.4 C 28.2 2.4 28.9 2.7 29.4 3.2 C 29.9 3.8 30.2 4.6 30.2 5.6 C 30.2 5.7 30.2 5.8 30.2 5.9 C 30.2 5.9 25.5 5.9 25.5 5.9 C 25.6 6.6 25.8 7.1 26.1 7.5 C 26.5 7.8 26.9 8 27.4 8 C 27.8 8 28.1 7.9 28.4 7.7 C 28.7 7.5 28.9 7.2 29.1 6.7 Z M 25.6 5 C 25.6 5 29.1 5 29.1 5 C 29 4.5 28.9 4.1 28.7 3.8 C 28.3 3.4 27.9 3.2 27.4 3.2 C 26.9 3.2 26.5 3.4 26.2 3.7 C 25.8 4.1 25.6 4.5 25.6 5 Z M 35.5 6.5 C 35.5 6.5 36.6 6.6 36.6 6.6 C 36.5 7.3 36.2 7.9 35.7 8.3 C 35.2 8.7 34.7 8.9 34 8.9 C 33.1 8.9 32.5 8.6 31.9 8 C 31.4 7.5 31.2 6.7 31.2 5.6 C 31.2 5 31.3 4.4 31.5 3.9 C 31.7 3.4 32.1 3 32.5 2.8 C 33 2.5 33.5 2.4 34 2.4 C 34.7 2.4 35.2 2.5 35.7 2.9 C 36.1 3.2 36.4 3.7 36.5 4.3 C 36.5 4.3 35.5 4.5 35.5 4.5 C 35.4 4.1 35.2 3.8 34.9 3.6 C 34.7 3.3 34.4 3.2 34 3.2 C 33.5 3.2 33.1 3.4 32.7 3.8 C 32.4 4.2 32.2 4.8 32.2 5.6 C 32.2 6.5 32.4 7.1 32.7 7.4 C 33 7.8 33.5 8 34 8 C 34.4 8 34.7 7.9 35 7.6 C 35.3 7.4 35.5 7 35.5 6.5 Z M 39.3 7.8 C 39.4 7.8 39.6 7.8 39.8 7.8 C 39.8 7.8 39.9 8.7 39.9 8.7 C 39.6 8.8 39.4 8.8 39.1 8.8 C 38.8 8.8 38.5 8.8 38.3 8.6 C 38 8.5 37.9 8.4 37.8 8.2 C 37.7 8 37.7 7.5 37.7 6.9 C 37.68 6.91 37.7 3.3 37.7 3.3 L 36.9 3.3 L 36.9 2.5 L 37.7 2.5 L 37.7 1 L 38.7 0.3 L 38.7 2.5 L 39.8 2.5 L 39.8 3.3 L 38.7 3.3 C 38.7 3.3 38.72 6.97 38.7 7 C 38.7 7.3 38.7 7.5 38.8 7.6 C 38.8 7.6 38.9 7.7 39 7.8 C 39 7.8 39.2 7.8 39.3 7.8 C 39.3 7.8 39.3 7.8 39.3 7.8 Z M 44.3 8.7 L 44.3 0.1 L 46 0.1 C 46 0.1 47.99 6.23 48 6.2 C 48.2 6.8 48.3 7.2 48.4 7.5 C 48.5 7.2 48.7 6.7 48.9 6.1 C 48.86 6.12 50.9 0.1 50.9 0.1 L 52.4 0.1 L 52.4 8.7 L 51.4 8.7 L 51.4 1.5 L 48.9 8.7 L 47.8 8.7 L 45.3 1.4 L 45.3 8.7 L 44.3 8.7 Z M 58.4 8.7 C 58.3 8.5 58.2 8.3 58.2 8 C 57.8 8.3 57.4 8.5 57.1 8.7 C 56.7 8.8 56.3 8.9 55.9 8.9 C 55.2 8.9 54.7 8.7 54.3 8.4 C 54 8 53.8 7.6 53.8 7.1 C 53.8 6.8 53.9 6.5 54 6.3 C 54.1 6 54.3 5.8 54.5 5.7 C 54.8 5.5 55 5.4 55.3 5.3 C 55.5 5.3 55.8 5.2 56.2 5.2 C 57.1 5 57.7 4.9 58.1 4.8 C 58.1 4.6 58.1 4.6 58.1 4.5 C 58.1 4.1 58 3.8 57.8 3.6 C 57.6 3.4 57.2 3.2 56.6 3.2 C 56.1 3.2 55.8 3.3 55.5 3.5 C 55.3 3.7 55.1 4 55 4.4 C 55 4.4 54 4.3 54 4.3 C 54.1 3.8 54.2 3.5 54.4 3.2 C 54.6 2.9 55 2.7 55.4 2.6 C 55.8 2.4 56.2 2.4 56.8 2.4 C 57.3 2.4 57.7 2.4 58.1 2.6 C 58.4 2.7 58.6 2.8 58.8 3 C 59 3.2 59.1 3.5 59.1 3.8 C 59.2 3.9 59.2 4.3 59.2 4.7 C 59.2 4.7 59.2 6.1 59.2 6.1 C 59.2 7.1 59.2 7.7 59.3 8 C 59.3 8.2 59.4 8.5 59.5 8.7 C 59.52 8.74 58.4 8.7 58.4 8.7 C 58.4 8.7 58.42 8.74 58.4 8.7 Z M 58.1 5.6 C 57.7 5.8 57.2 5.9 56.4 6 C 56 6.1 55.7 6.1 55.5 6.2 C 55.3 6.3 55.2 6.4 55.1 6.6 C 55 6.7 54.9 6.9 54.9 7.1 C 54.9 7.3 55 7.6 55.2 7.8 C 55.4 8 55.8 8.1 56.2 8.1 C 56.6 8.1 56.9 8 57.3 7.8 C 57.6 7.6 57.8 7.4 57.9 7.1 C 58.1 6.8 58.1 6.5 58.1 6 C 58.1 6 58.1 5.6 58.1 5.6 Z M 62.7 7.8 C 62.8 7.8 62.9 7.8 63.1 7.8 C 63.1 7.8 63.3 8.7 63.3 8.7 C 63 8.8 62.7 8.8 62.5 8.8 C 62.1 8.8 61.8 8.8 61.6 8.6 C 61.4 8.5 61.2 8.4 61.1 8.2 C 61.1 8 61 7.5 61 6.9 C 61.01 6.91 61 3.3 61 3.3 L 60.2 3.3 L 60.2 2.5 L 61 2.5 L 61 1 L 62.1 0.3 L 62.1 2.5 L 63.1 2.5 L 63.1 3.3 L 62.1 3.3 C 62.1 3.3 62.06 6.97 62.1 7 C 62.1 7.3 62.1 7.5 62.1 7.6 C 62.2 7.6 62.2 7.7 62.3 7.8 C 62.4 7.8 62.5 7.8 62.7 7.8 C 62.7 7.8 62.7 7.8 62.7 7.8 Z M 66 7.8 C 66.1 7.8 66.3 7.8 66.5 7.8 C 66.5 7.8 66.6 8.7 66.6 8.7 C 66.3 8.8 66 8.8 65.8 8.8 C 65.4 8.8 65.1 8.8 64.9 8.6 C 64.7 8.5 64.6 8.4 64.5 8.2 C 64.4 8 64.3 7.5 64.3 6.9 C 64.35 6.91 64.3 3.3 64.3 3.3 L 63.6 3.3 L 63.6 2.5 L 64.3 2.5 L 64.3 1 L 65.4 0.3 L 65.4 2.5 L 66.5 2.5 L 66.5 3.3 L 65.4 3.3 C 65.4 3.3 65.4 6.97 65.4 7 C 65.4 7.3 65.4 7.5 65.5 7.6 C 65.5 7.6 65.5 7.7 65.6 7.8 C 65.7 7.8 65.8 7.8 66 7.8 C 66 7.8 66 7.8 66 7.8 Z M 71.7 6.7 C 71.7 6.7 72.8 6.9 72.8 6.9 C 72.7 7.5 72.3 8 71.9 8.3 C 71.4 8.7 70.8 8.9 70.1 8.9 C 69.2 8.9 68.5 8.6 67.9 8 C 67.4 7.5 67.1 6.7 67.1 5.7 C 67.1 4.6 67.4 3.8 67.9 3.2 C 68.5 2.7 69.2 2.4 70 2.4 C 70.9 2.4 71.6 2.7 72.1 3.2 C 72.6 3.8 72.9 4.6 72.9 5.6 C 72.9 5.7 72.9 5.8 72.9 5.9 C 72.9 5.9 68.2 5.9 68.2 5.9 C 68.3 6.6 68.5 7.1 68.8 7.5 C 69.2 7.8 69.6 8 70.1 8 C 70.5 8 70.8 7.9 71.1 7.7 C 71.4 7.5 71.6 7.2 71.7 6.7 Z M 68.3 5 C 68.3 5 71.8 5 71.8 5 C 71.7 4.5 71.6 4.1 71.4 3.8 C 71 3.4 70.6 3.2 70.1 3.2 C 69.6 3.2 69.2 3.4 68.8 3.7 C 68.5 4.1 68.3 4.5 68.3 5 Z M 74.2 8.7 L 74.2 2.5 L 75.1 2.5 C 75.1 2.5 75.1 3.46 75.1 3.5 C 75.3 3 75.6 2.7 75.8 2.6 C 76 2.4 76.2 2.4 76.4 2.4 C 76.8 2.4 77.2 2.5 77.5 2.7 C 77.5 2.7 77.2 3.7 77.2 3.7 C 76.9 3.5 76.7 3.5 76.4 3.5 C 76.2 3.5 76 3.5 75.8 3.7 C 75.6 3.8 75.5 4 75.4 4.2 C 75.3 4.6 75.2 5 75.2 5.5 C 75.21 5.48 75.2 8.7 75.2 8.7 L 74.2 8.7 Z M 81.7 8.7 L 81.7 0.1 L 87.9 0.1 L 87.9 1.2 L 82.8 1.2 L 82.8 3.8 L 87.5 3.8 L 87.5 4.8 L 82.8 4.8 L 82.8 7.7 L 88.1 7.7 L 88.1 8.7 L 81.7 8.7 Z M 88.8 8.7 L 91.1 5.5 L 89 2.5 L 90.3 2.5 C 90.3 2.5 91.24 3.97 91.2 4 C 91.4 4.3 91.6 4.5 91.7 4.7 C 91.8 4.4 92 4.2 92.1 4 C 92.14 3.98 93.2 2.5 93.2 2.5 L 94.5 2.5 L 92.3 5.4 L 94.6 8.7 L 93.3 8.7 L 92 6.8 L 91.7 6.3 L 90.1 8.7 L 88.8 8.7 Z M 95.5 11.1 L 95.5 2.5 L 96.5 2.5 C 96.5 2.5 96.46 3.32 96.5 3.3 C 96.7 3 96.9 2.8 97.2 2.6 C 97.5 2.5 97.9 2.4 98.3 2.4 C 98.8 2.4 99.3 2.5 99.7 2.8 C 100.1 3.1 100.4 3.4 100.6 3.9 C 100.8 4.4 100.9 5 100.9 5.6 C 100.9 6.2 100.8 6.8 100.6 7.3 C 100.3 7.8 100 8.2 99.6 8.5 C 99.1 8.7 98.7 8.9 98.2 8.9 C 97.8 8.9 97.5 8.8 97.2 8.7 C 97 8.5 96.7 8.3 96.6 8.1 C 96.55 8.09 96.6 11.1 96.6 11.1 L 95.5 11.1 Z M 96.5 5.7 C 96.5 6.5 96.6 7.1 96.9 7.4 C 97.3 7.8 97.7 8 98.1 8 C 98.6 8 99 7.8 99.3 7.4 C 99.7 7 99.8 6.4 99.8 5.6 C 99.8 4.8 99.7 4.2 99.3 3.8 C 99 3.4 98.6 3.2 98.2 3.2 C 97.7 3.2 97.3 3.4 97 3.8 C 96.6 4.2 96.5 4.9 96.5 5.7 Z M 106.4 6.7 C 106.4 6.7 107.5 6.9 107.5 6.9 C 107.3 7.5 107 8 106.6 8.3 C 106.1 8.7 105.5 8.9 104.8 8.9 C 103.9 8.9 103.2 8.6 102.6 8 C 102.1 7.5 101.8 6.7 101.8 5.7 C 101.8 4.6 102.1 3.8 102.6 3.2 C 103.2 2.7 103.9 2.4 104.7 2.4 C 105.6 2.4 106.2 2.7 106.8 3.2 C 107.3 3.8 107.6 4.6 107.6 5.6 C 107.6 5.7 107.6 5.8 107.5 5.9 C 107.5 5.9 102.9 5.9 102.9 5.9 C 102.9 6.6 103.1 7.1 103.5 7.5 C 103.8 7.8 104.3 8 104.8 8 C 105.2 8 105.5 7.9 105.8 7.7 C 106.1 7.5 106.3 7.2 106.4 6.7 Z M 103 5 C 103 5 106.4 5 106.4 5 C 106.4 4.5 106.3 4.1 106 3.8 C 105.7 3.4 105.3 3.2 104.7 3.2 C 104.3 3.2 103.8 3.4 103.5 3.7 C 103.2 4.1 103 4.5 103 5 Z M 108.8 8.7 L 108.8 2.5 L 109.8 2.5 C 109.8 2.5 109.78 3.46 109.8 3.5 C 110 3 110.2 2.7 110.5 2.6 C 110.7 2.4 110.9 2.4 111.1 2.4 C 111.5 2.4 111.8 2.5 112.2 2.7 C 112.2 2.7 111.8 3.7 111.8 3.7 C 111.6 3.5 111.3 3.5 111.1 3.5 C 110.8 3.5 110.6 3.5 110.5 3.7 C 110.3 3.8 110.1 4 110.1 4.2 C 109.9 4.6 109.9 5 109.9 5.5 C 109.89 5.48 109.9 8.7 109.9 8.7 L 108.8 8.7 Z M 114.7 7.8 C 114.8 7.8 115 7.8 115.1 7.8 C 115.1 7.8 115.3 8.7 115.3 8.7 C 115 8.8 114.7 8.8 114.5 8.8 C 114.1 8.8 113.8 8.8 113.6 8.6 C 113.4 8.5 113.2 8.4 113.2 8.2 C 113.1 8 113 7.5 113 6.9 C 113.03 6.91 113 3.3 113 3.3 L 112.3 3.3 L 112.3 2.5 L 113 2.5 L 113 1 L 114.1 0.3 L 114.1 2.5 L 115.1 2.5 L 115.1 3.3 L 114.1 3.3 C 114.1 3.3 114.08 6.97 114.1 7 C 114.1 7.3 114.1 7.5 114.1 7.6 C 114.2 7.6 114.2 7.7 114.3 7.8 C 114.4 7.8 114.5 7.8 114.7 7.8 C 114.7 7.8 114.7 7.8 114.7 7.8 Z M 116.2 1.4 L 116.2 0.1 L 117.2 0.1 L 117.2 1.4 L 116.2 1.4 Z M 116.2 8.7 L 116.2 2.5 L 117.2 2.5 L 117.2 8.7 L 116.2 8.7 Z M 118.4 6.9 C 118.4 6.9 119.5 6.7 119.5 6.7 C 119.5 7.1 119.7 7.5 120 7.7 C 120.2 7.9 120.6 8 121.1 8 C 121.6 8 121.9 7.9 122.2 7.7 C 122.4 7.5 122.5 7.3 122.5 7 C 122.5 6.8 122.4 6.6 122.2 6.5 C 122 6.4 121.7 6.2 121.1 6.1 C 120.3 5.9 119.8 5.7 119.5 5.6 C 119.2 5.5 119 5.3 118.8 5 C 118.7 4.7 118.6 4.5 118.6 4.2 C 118.6 3.9 118.7 3.6 118.8 3.4 C 118.9 3.2 119.1 3 119.3 2.8 C 119.5 2.7 119.7 2.6 120 2.5 C 120.3 2.4 120.6 2.4 120.9 2.4 C 121.4 2.4 121.8 2.4 122.2 2.6 C 122.5 2.7 122.8 2.9 123 3.2 C 123.2 3.4 123.3 3.7 123.4 4.1 C 123.4 4.1 122.3 4.3 122.3 4.3 C 122.3 3.9 122.1 3.7 121.9 3.5 C 121.7 3.3 121.4 3.2 121 3.2 C 120.5 3.2 120.1 3.3 119.9 3.5 C 119.7 3.6 119.6 3.8 119.6 4 C 119.6 4.2 119.7 4.3 119.7 4.4 C 119.8 4.5 120 4.6 120.1 4.7 C 120.3 4.7 120.6 4.8 121.1 5 C 121.8 5.2 122.3 5.3 122.6 5.5 C 122.9 5.6 123.2 5.8 123.3 6 C 123.5 6.2 123.6 6.5 123.6 6.9 C 123.6 7.3 123.5 7.6 123.3 7.9 C 123.1 8.2 122.8 8.5 122.4 8.6 C 122 8.8 121.6 8.9 121.1 8.9 C 120.3 8.9 119.7 8.7 119.2 8.4 C 118.8 8 118.5 7.5 118.4 6.9 Z M 129.1 6.7 C 129.1 6.7 130.2 6.9 130.2 6.9 C 130 7.5 129.7 8 129.2 8.3 C 128.8 8.7 128.2 8.9 127.5 8.9 C 126.5 8.9 125.8 8.6 125.3 8 C 124.8 7.5 124.5 6.7 124.5 5.7 C 124.5 4.6 124.8 3.8 125.3 3.2 C 125.8 2.7 126.5 2.4 127.4 2.4 C 128.2 2.4 128.9 2.7 129.4 3.2 C 130 3.8 130.2 4.6 130.2 5.6 C 130.2 5.7 130.2 5.8 130.2 5.9 C 130.2 5.9 125.6 5.9 125.6 5.9 C 125.6 6.6 125.8 7.1 126.2 7.5 C 126.5 7.8 126.9 8 127.5 8 C 127.8 8 128.2 7.9 128.4 7.7 C 128.7 7.5 128.9 7.2 129.1 6.7 Z M 125.6 5 C 125.6 5 129.1 5 129.1 5 C 129.1 4.5 128.9 4.1 128.7 3.8 C 128.4 3.4 127.9 3.2 127.4 3.2 C 126.9 3.2 126.5 3.4 126.2 3.7 C 125.9 4.1 125.7 4.5 125.6 5 Z " stroke="none" fill="#000"/>  </g></svg>