<?xml version="1.0" standalone="no"?><!DOCTYPE svg PUBLIC "-//W3C//DTD SVG 1.1//EN" "http://www.w3.org/Graphics/SVG/1.1/DTD/svg11.dtd"><svg xmlns="http://www.w3.org/2000/svg" version="1.1" width="400.1px" height="39.1px" viewBox="0 -8 400.1 39.1" style="top:-8px">  <desc>Booking Process</desc>  <defs/>  <g id="Polygon6174">    <path d="M 1.8 17.5 L 1.8 0.3 C 1.8 0.3 8.2 0.29 8.2 0.3 C 9.5 0.3 10.6 0.5 11.4 0.8 C 12.2 1.2 12.8 1.7 13.2 2.4 C 13.7 3.1 13.9 3.9 13.9 4.7 C 13.9 5.4 13.7 6.1 13.3 6.8 C 12.9 7.4 12.3 7.9 11.5 8.3 C 12.5 8.6 13.3 9.2 13.9 9.9 C 14.5 10.6 14.7 11.5 14.7 12.5 C 14.7 13.3 14.6 14 14.2 14.7 C 13.9 15.4 13.5 16 13 16.3 C 12.5 16.7 11.8 17 11.1 17.2 C 10.3 17.4 9.4 17.5 8.3 17.5 C 8.31 17.47 1.8 17.5 1.8 17.5 Z M 4 7.5 C 4 7.5 7.75 7.51 7.7 7.5 C 8.8 7.5 9.5 7.4 9.9 7.3 C 10.5 7.1 10.9 6.9 11.2 6.5 C 11.5 6.1 11.7 5.6 11.7 5 C 11.7 4.4 11.5 3.9 11.3 3.5 C 11 3 10.6 2.7 10.1 2.6 C 9.6 2.4 8.7 2.3 7.5 2.3 C 7.46 2.32 4 2.3 4 2.3 L 4 7.5 Z M 4 15.4 C 4 15.4 8.31 15.45 8.3 15.4 C 9 15.4 9.6 15.4 9.9 15.4 C 10.4 15.3 10.8 15.1 11.2 14.9 C 11.5 14.7 11.8 14.4 12 13.9 C 12.3 13.5 12.4 13 12.4 12.5 C 12.4 11.9 12.2 11.3 11.9 10.8 C 11.6 10.3 11.1 10 10.5 9.8 C 9.9 9.6 9.1 9.5 8 9.5 C 8 9.54 4 9.5 4 9.5 L 4 15.4 Z M 16.8 11.3 C 16.8 8.9 17.4 7.2 18.7 6.1 C 19.8 5.2 21.1 4.7 22.6 4.7 C 24.4 4.7 25.7 5.3 26.8 6.4 C 27.9 7.5 28.5 9.1 28.5 11.1 C 28.5 12.7 28.2 13.9 27.7 14.9 C 27.3 15.8 26.6 16.5 25.6 17 C 24.7 17.5 23.7 17.8 22.6 17.8 C 20.9 17.8 19.5 17.2 18.4 16.1 C 17.3 15 16.8 13.4 16.8 11.3 Z M 19 11.3 C 19 12.8 19.3 14 20 14.8 C 20.7 15.6 21.6 16 22.6 16 C 23.7 16 24.6 15.6 25.3 14.8 C 25.9 14 26.3 12.8 26.3 11.2 C 26.3 9.6 25.9 8.5 25.2 7.7 C 24.5 6.9 23.7 6.5 22.6 6.5 C 21.6 6.5 20.7 6.9 20 7.7 C 19.3 8.5 19 9.7 19 11.3 Z M 30.2 11.3 C 30.2 8.9 30.8 7.2 32.1 6.1 C 33.1 5.2 34.4 4.7 36 4.7 C 37.7 4.7 39.1 5.3 40.2 6.4 C 41.3 7.5 41.8 9.1 41.8 11.1 C 41.8 12.7 41.6 13.9 41.1 14.9 C 40.6 15.8 39.9 16.5 39 17 C 38.1 17.5 37.1 17.8 36 17.8 C 34.2 17.8 32.8 17.2 31.8 16.1 C 30.7 15 30.2 13.4 30.2 11.3 Z M 32.3 11.3 C 32.3 12.8 32.7 14 33.4 14.8 C 34.1 15.6 34.9 16 36 16 C 37 16 37.9 15.6 38.6 14.8 C 39.3 14 39.6 12.8 39.6 11.2 C 39.6 9.6 39.3 8.5 38.6 7.7 C 37.9 6.9 37 6.5 36 6.5 C 34.9 6.5 34.1 6.9 33.4 7.7 C 32.7 8.5 32.3 9.7 32.3 11.3 Z M 44.3 17.5 L 44.3 0.3 L 46.4 0.3 L 46.4 10.1 L 51.4 5 L 54.1 5 L 49.4 9.6 L 54.6 17.5 L 52 17.5 L 47.9 11.1 L 46.4 12.5 L 46.4 17.5 L 44.3 17.5 Z M 56.3 2.7 L 56.3 0.3 L 58.4 0.3 L 58.4 2.7 L 56.3 2.7 Z M 56.3 17.5 L 56.3 5 L 58.4 5 L 58.4 17.5 L 56.3 17.5 Z M 61.6 17.5 L 61.6 5 L 63.5 5 C 63.5 5 63.52 6.8 63.5 6.8 C 64.4 5.4 65.7 4.7 67.5 4.7 C 68.2 4.7 68.9 4.9 69.5 5.2 C 70.2 5.4 70.6 5.8 71 6.2 C 71.3 6.6 71.5 7.2 71.6 7.8 C 71.7 8.2 71.7 8.8 71.7 9.8 C 71.73 9.82 71.7 17.5 71.7 17.5 L 69.6 17.5 C 69.6 17.5 69.62 9.9 69.6 9.9 C 69.6 9 69.5 8.4 69.4 8 C 69.2 7.5 68.9 7.2 68.5 7 C 68.1 6.7 67.6 6.6 67 6.6 C 66.1 6.6 65.4 6.9 64.7 7.4 C 64.1 8 63.7 9.1 63.7 10.7 C 63.73 10.68 63.7 17.5 63.7 17.5 L 61.6 17.5 Z M 74.6 18.5 C 74.6 18.5 76.6 18.8 76.6 18.8 C 76.7 19.4 77 19.9 77.3 20.2 C 77.9 20.6 78.6 20.8 79.5 20.8 C 80.5 20.8 81.2 20.6 81.8 20.2 C 82.3 19.8 82.6 19.3 82.8 18.6 C 82.9 18.1 83 17.2 83 15.8 C 82.1 16.9 80.9 17.5 79.5 17.5 C 77.8 17.5 76.5 16.9 75.6 15.6 C 74.6 14.4 74.2 12.9 74.2 11.2 C 74.2 10 74.4 8.9 74.8 7.9 C 75.2 6.9 75.9 6.1 76.7 5.6 C 77.5 5 78.4 4.7 79.5 4.7 C 81 4.7 82.2 5.3 83.2 6.5 C 83.18 6.53 83.2 5 83.2 5 L 85.1 5 C 85.1 5 85.13 15.79 85.1 15.8 C 85.1 17.7 84.9 19.1 84.5 19.9 C 84.1 20.7 83.5 21.4 82.7 21.8 C 81.8 22.3 80.7 22.5 79.5 22.5 C 78 22.5 76.8 22.2 75.9 21.5 C 75 20.9 74.5 19.8 74.6 18.5 Z M 76.3 11 C 76.3 12.7 76.6 13.9 77.3 14.6 C 77.9 15.4 78.8 15.7 79.7 15.7 C 80.7 15.7 81.5 15.4 82.2 14.6 C 82.8 13.9 83.2 12.7 83.2 11.1 C 83.2 9.6 82.8 8.4 82.1 7.7 C 81.5 6.9 80.7 6.5 79.7 6.5 C 78.8 6.5 78 6.9 77.3 7.6 C 76.7 8.4 76.3 9.5 76.3 11 Z M 95.3 17.5 L 95.3 0.3 C 95.3 0.3 101.73 0.29 101.7 0.3 C 102.9 0.3 103.7 0.3 104.3 0.5 C 105.2 0.6 105.9 0.9 106.5 1.3 C 107 1.7 107.5 2.2 107.8 2.9 C 108.2 3.6 108.4 4.4 108.4 5.3 C 108.4 6.7 107.9 8 107 9 C 106 10 104.4 10.5 101.9 10.5 C 101.93 10.49 97.5 10.5 97.5 10.5 L 97.5 17.5 L 95.3 17.5 Z M 97.5 8.5 C 97.5 8.5 101.96 8.46 102 8.5 C 103.4 8.5 104.5 8.2 105.1 7.6 C 105.7 7.1 106 6.3 106 5.3 C 106 4.6 105.8 4 105.5 3.5 C 105.1 3 104.6 2.6 104 2.5 C 103.7 2.4 102.9 2.3 101.9 2.3 C 101.92 2.32 97.5 2.3 97.5 2.3 L 97.5 8.5 Z M 111 17.5 L 111 5 L 112.9 5 C 112.9 5 112.86 6.91 112.9 6.9 C 113.3 6 113.8 5.4 114.2 5.2 C 114.6 4.9 115.1 4.7 115.6 4.7 C 116.3 4.7 117 5 117.7 5.4 C 117.7 5.4 117 7.4 117 7.4 C 116.5 7.1 116 6.9 115.5 6.9 C 115 6.9 114.6 7.1 114.2 7.3 C 113.8 7.6 113.6 8 113.4 8.5 C 113.2 9.2 113.1 10.1 113.1 11 C 113.07 10.96 113.1 17.5 113.1 17.5 L 111 17.5 Z M 118.2 11.3 C 118.2 8.9 118.8 7.2 120.1 6.1 C 121.2 5.2 122.5 4.7 124 4.7 C 125.7 4.7 127.1 5.3 128.2 6.4 C 129.3 7.5 129.9 9.1 129.9 11.1 C 129.9 12.7 129.6 13.9 129.1 14.9 C 128.7 15.8 128 16.5 127 17 C 126.1 17.5 125.1 17.8 124 17.8 C 122.3 17.8 120.9 17.2 119.8 16.1 C 118.7 15 118.2 13.4 118.2 11.3 Z M 120.4 11.3 C 120.4 12.8 120.7 14 121.4 14.8 C 122.1 15.6 123 16 124 16 C 125.1 16 125.9 15.6 126.6 14.8 C 127.3 14 127.7 12.8 127.7 11.2 C 127.7 9.6 127.3 8.5 126.6 7.7 C 125.9 6.9 125.1 6.5 124 6.5 C 123 6.5 122.1 6.9 121.4 7.7 C 120.7 8.5 120.4 9.7 120.4 11.3 Z M 140.4 12.9 C 140.4 12.9 142.5 13.2 142.5 13.2 C 142.3 14.6 141.7 15.7 140.8 16.5 C 139.8 17.3 138.7 17.8 137.3 17.8 C 135.6 17.8 134.3 17.2 133.2 16.1 C 132.2 15 131.7 13.4 131.7 11.3 C 131.7 10 131.9 8.8 132.4 7.8 C 132.8 6.8 133.5 6 134.4 5.5 C 135.3 5 136.3 4.7 137.4 4.7 C 138.7 4.7 139.8 5.1 140.7 5.8 C 141.5 6.5 142.1 7.4 142.3 8.7 C 142.3 8.7 140.3 9 140.3 9 C 140.1 8.2 139.7 7.5 139.2 7.1 C 138.7 6.7 138.1 6.5 137.4 6.5 C 136.4 6.5 135.5 6.9 134.8 7.6 C 134.2 8.4 133.9 9.6 133.9 11.2 C 133.9 12.9 134.2 14.1 134.8 14.9 C 135.5 15.6 136.3 16 137.3 16 C 138.1 16 138.8 15.8 139.4 15.3 C 139.9 14.8 140.3 14 140.4 12.9 Z M 152.8 13.5 C 152.8 13.5 155 13.7 155 13.7 C 154.7 15 154 16 153.1 16.7 C 152.2 17.4 151 17.8 149.6 17.8 C 147.7 17.8 146.3 17.2 145.2 16.1 C 144.2 15 143.6 13.4 143.6 11.4 C 143.6 9.3 144.2 7.6 145.2 6.5 C 146.3 5.3 147.7 4.7 149.4 4.7 C 151.1 4.7 152.5 5.3 153.5 6.4 C 154.6 7.6 155.1 9.2 155.1 11.2 C 155.1 11.4 155.1 11.5 155.1 11.8 C 155.1 11.8 145.8 11.8 145.8 11.8 C 145.9 13.2 146.3 14.2 147 14.9 C 147.7 15.7 148.5 16 149.6 16 C 150.3 16 151 15.8 151.5 15.4 C 152.1 15 152.5 14.4 152.8 13.5 Z M 145.9 10.1 C 145.9 10.1 152.9 10.1 152.9 10.1 C 152.8 9 152.5 8.2 152.1 7.7 C 151.4 6.9 150.5 6.5 149.5 6.5 C 148.5 6.5 147.7 6.8 147 7.5 C 146.4 8.1 146 9 145.9 10.1 Z M 156.8 13.8 C 156.8 13.8 158.9 13.4 158.9 13.4 C 159 14.3 159.4 14.9 159.9 15.4 C 160.4 15.8 161.2 16 162.1 16 C 163.1 16 163.8 15.8 164.3 15.4 C 164.8 15 165 14.6 165 14 C 165 13.6 164.8 13.2 164.4 12.9 C 164.1 12.7 163.4 12.5 162.2 12.2 C 160.7 11.8 159.6 11.5 159 11.2 C 158.4 10.9 158 10.5 157.6 10 C 157.3 9.5 157.2 8.9 157.2 8.3 C 157.2 7.8 157.3 7.3 157.6 6.8 C 157.8 6.3 158.2 5.9 158.6 5.6 C 158.9 5.4 159.4 5.2 159.9 5 C 160.5 4.8 161.1 4.7 161.8 4.7 C 162.7 4.7 163.6 4.9 164.3 5.2 C 165.1 5.4 165.6 5.8 166 6.3 C 166.3 6.8 166.6 7.4 166.7 8.2 C 166.7 8.2 164.6 8.5 164.6 8.5 C 164.5 7.9 164.3 7.4 163.8 7 C 163.4 6.7 162.7 6.5 161.9 6.5 C 160.9 6.5 160.3 6.6 159.8 7 C 159.4 7.3 159.2 7.7 159.2 8.1 C 159.2 8.4 159.3 8.6 159.5 8.8 C 159.7 9.1 159.9 9.2 160.3 9.4 C 160.5 9.5 161.1 9.6 162.2 9.9 C 163.6 10.3 164.7 10.7 165.3 10.9 C 165.9 11.2 166.3 11.5 166.7 12 C 167 12.5 167.2 13.1 167.2 13.8 C 167.2 14.5 167 15.2 166.6 15.8 C 166.1 16.4 165.6 16.9 164.8 17.2 C 164 17.6 163.1 17.8 162.2 17.8 C 160.5 17.8 159.3 17.4 158.5 16.7 C 157.6 16.1 157.1 15.1 156.8 13.8 Z M 168.8 13.8 C 168.8 13.8 170.9 13.4 170.9 13.4 C 171 14.3 171.4 14.9 171.9 15.4 C 172.4 15.8 173.2 16 174.1 16 C 175.1 16 175.8 15.8 176.3 15.4 C 176.8 15 177 14.6 177 14 C 177 13.6 176.8 13.2 176.4 12.9 C 176.1 12.7 175.4 12.5 174.2 12.2 C 172.7 11.8 171.6 11.5 171 11.2 C 170.4 10.9 170 10.5 169.6 10 C 169.3 9.5 169.2 8.9 169.2 8.3 C 169.2 7.8 169.3 7.3 169.6 6.8 C 169.8 6.3 170.2 5.9 170.6 5.6 C 170.9 5.4 171.4 5.2 171.9 5 C 172.5 4.8 173.1 4.7 173.8 4.7 C 174.7 4.7 175.6 4.9 176.3 5.2 C 177.1 5.4 177.6 5.8 178 6.3 C 178.3 6.8 178.6 7.4 178.7 8.2 C 178.7 8.2 176.6 8.5 176.6 8.5 C 176.5 7.9 176.3 7.4 175.8 7 C 175.4 6.7 174.7 6.5 173.9 6.5 C 172.9 6.5 172.3 6.6 171.8 7 C 171.4 7.3 171.2 7.7 171.2 8.1 C 171.2 8.4 171.3 8.6 171.5 8.8 C 171.7 9.1 171.9 9.2 172.3 9.4 C 172.5 9.5 173.1 9.6 174.2 9.9 C 175.6 10.3 176.7 10.7 177.3 10.9 C 177.9 11.2 178.3 11.5 178.7 12 C 179 12.5 179.2 13.1 179.2 13.8 C 179.2 14.5 179 15.2 178.6 15.8 C 178.1 16.4 177.6 16.9 176.8 17.2 C 176 17.6 175.1 17.8 174.2 17.8 C 172.5 17.8 171.3 17.4 170.5 16.7 C 169.6 16.1 169.1 15.1 168.8 13.8 Z " stroke="none" fill="#000"/>  </g></svg>