<?xml version="1.0" standalone="no"?><!DOCTYPE svg PUBLIC "-//W3C//DTD SVG 1.1//EN" "http://www.w3.org/Graphics/SVG/1.1/DTD/svg11.dtd"><svg xmlns="http://www.w3.org/2000/svg" version="1.1" width="102px" height="20.5px" viewBox="0 -4 102 20.5" style="top:-4px">  <desc>Authenticity</desc>  <defs/>  <g id="Polygon44992">    <path d="M 19.9 8.7 L 23.2 0.1 L 24.4 0.1 L 27.9 8.7 L 26.6 8.7 L 25.6 6.1 L 22.1 6.1 L 21.1 8.7 L 19.9 8.7 Z M 22.4 5.2 L 25.3 5.2 C 25.3 5.2 24.4 2.83 24.4 2.8 C 24.1 2.1 23.9 1.5 23.8 1 C 23.7 1.6 23.5 2.1 23.3 2.7 C 23.33 2.69 22.4 5.2 22.4 5.2 Z M 32.8 8.7 C 32.8 8.7 32.8 7.82 32.8 7.8 C 32.3 8.5 31.7 8.9 30.8 8.9 C 30.5 8.9 30.1 8.8 29.8 8.7 C 29.5 8.5 29.2 8.3 29.1 8.1 C 28.9 7.9 28.8 7.7 28.8 7.4 C 28.7 7.1 28.7 6.8 28.7 6.4 C 28.69 6.37 28.7 2.5 28.7 2.5 L 29.7 2.5 C 29.7 2.5 29.75 5.96 29.7 6 C 29.7 6.5 29.8 6.9 29.8 7.1 C 29.9 7.4 30 7.6 30.2 7.7 C 30.5 7.9 30.7 8 31 8 C 31.3 8 31.6 7.9 31.9 7.7 C 32.2 7.6 32.4 7.3 32.5 7.1 C 32.6 6.8 32.7 6.4 32.7 5.8 C 32.68 5.85 32.7 2.5 32.7 2.5 L 33.7 2.5 L 33.7 8.7 L 32.8 8.7 Z M 37.2 7.8 C 37.3 7.8 37.5 7.8 37.7 7.8 C 37.7 7.8 37.8 8.7 37.8 8.7 C 37.5 8.8 37.3 8.8 37 8.8 C 36.7 8.8 36.4 8.8 36.2 8.6 C 35.9 8.5 35.8 8.4 35.7 8.2 C 35.6 8 35.6 7.5 35.6 6.9 C 35.59 6.91 35.6 3.3 35.6 3.3 L 34.8 3.3 L 34.8 2.5 L 35.6 2.5 L 35.6 1 L 36.6 0.3 L 36.6 2.5 L 37.7 2.5 L 37.7 3.3 L 36.6 3.3 C 36.6 3.3 36.63 6.97 36.6 7 C 36.6 7.3 36.7 7.5 36.7 7.6 C 36.7 7.6 36.8 7.7 36.9 7.8 C 37 7.8 37.1 7.8 37.2 7.8 C 37.2 7.8 37.2 7.8 37.2 7.8 Z M 38.7 8.7 L 38.7 0.1 L 39.8 0.1 C 39.8 0.1 39.78 3.23 39.8 3.2 C 40.3 2.7 40.9 2.4 41.6 2.4 C 42.1 2.4 42.5 2.5 42.8 2.6 C 43.2 2.8 43.4 3.1 43.6 3.4 C 43.7 3.7 43.8 4.2 43.8 4.8 C 43.79 4.79 43.8 8.7 43.8 8.7 L 42.7 8.7 C 42.7 8.7 42.74 4.79 42.7 4.8 C 42.7 4.3 42.6 3.9 42.4 3.6 C 42.2 3.4 41.8 3.3 41.4 3.3 C 41.1 3.3 40.8 3.4 40.5 3.5 C 40.3 3.7 40.1 3.9 40 4.2 C 39.8 4.5 39.8 4.8 39.8 5.3 C 39.78 5.33 39.8 8.7 39.8 8.7 L 38.7 8.7 Z M 49.7 6.7 C 49.7 6.7 50.7 6.9 50.7 6.9 C 50.6 7.5 50.3 8 49.8 8.3 C 49.3 8.7 48.7 8.9 48 8.9 C 47.1 8.9 46.4 8.6 45.8 8 C 45.3 7.5 45 6.7 45 5.7 C 45 4.6 45.3 3.8 45.9 3.2 C 46.4 2.7 47.1 2.4 48 2.4 C 48.8 2.4 49.5 2.7 50 3.2 C 50.5 3.8 50.8 4.6 50.8 5.6 C 50.8 5.7 50.8 5.8 50.8 5.9 C 50.8 5.9 46.1 5.9 46.1 5.9 C 46.2 6.6 46.4 7.1 46.7 7.5 C 47.1 7.8 47.5 8 48 8 C 48.4 8 48.7 7.9 49 7.7 C 49.3 7.5 49.5 7.2 49.7 6.7 Z M 46.2 5 C 46.2 5 49.7 5 49.7 5 C 49.6 4.5 49.5 4.1 49.3 3.8 C 48.9 3.4 48.5 3.2 48 3.2 C 47.5 3.2 47.1 3.4 46.7 3.7 C 46.4 4.1 46.2 4.5 46.2 5 Z M 52.1 8.7 L 52.1 2.5 L 53 2.5 C 53 2.5 53.02 3.4 53 3.4 C 53.5 2.7 54.1 2.4 55 2.4 C 55.4 2.4 55.7 2.4 56 2.6 C 56.4 2.7 56.6 2.9 56.7 3.1 C 56.9 3.3 57 3.6 57.1 3.9 C 57.1 4.1 57.1 4.4 57.1 4.9 C 57.13 4.91 57.1 8.7 57.1 8.7 L 56.1 8.7 C 56.1 8.7 56.08 4.95 56.1 5 C 56.1 4.5 56 4.2 56 4 C 55.9 3.8 55.7 3.6 55.5 3.5 C 55.3 3.4 55.1 3.3 54.8 3.3 C 54.3 3.3 53.9 3.4 53.6 3.7 C 53.3 4 53.1 4.5 53.1 5.3 C 53.13 5.34 53.1 8.7 53.1 8.7 L 52.1 8.7 Z M 60.6 7.8 C 60.7 7.8 60.9 7.8 61 7.8 C 61 7.8 61.2 8.7 61.2 8.7 C 60.9 8.8 60.6 8.8 60.4 8.8 C 60 8.8 59.7 8.8 59.5 8.6 C 59.3 8.5 59.2 8.4 59.1 8.2 C 59 8 58.9 7.5 58.9 6.9 C 58.94 6.91 58.9 3.3 58.9 3.3 L 58.2 3.3 L 58.2 2.5 L 58.9 2.5 L 58.9 1 L 60 0.3 L 60 2.5 L 61 2.5 L 61 3.3 L 60 3.3 C 60 3.3 59.99 6.97 60 7 C 60 7.3 60 7.5 60 7.6 C 60.1 7.6 60.1 7.7 60.2 7.8 C 60.3 7.8 60.4 7.8 60.6 7.8 C 60.6 7.8 60.6 7.8 60.6 7.8 Z M 62.1 1.4 L 62.1 0.1 L 63.1 0.1 L 63.1 1.4 L 62.1 1.4 Z M 62.1 8.7 L 62.1 2.5 L 63.1 2.5 L 63.1 8.7 L 62.1 8.7 Z M 68.8 6.5 C 68.8 6.5 69.8 6.6 69.8 6.6 C 69.7 7.3 69.4 7.9 69 8.3 C 68.5 8.7 67.9 8.9 67.3 8.9 C 66.4 8.9 65.7 8.6 65.2 8 C 64.7 7.5 64.4 6.7 64.4 5.6 C 64.4 5 64.5 4.4 64.8 3.9 C 65 3.4 65.3 3 65.8 2.8 C 66.2 2.5 66.7 2.4 67.3 2.4 C 67.9 2.4 68.5 2.5 68.9 2.9 C 69.3 3.2 69.6 3.7 69.7 4.3 C 69.7 4.3 68.7 4.5 68.7 4.5 C 68.6 4.1 68.4 3.8 68.2 3.6 C 68 3.3 67.7 3.2 67.3 3.2 C 66.8 3.2 66.3 3.4 66 3.8 C 65.7 4.2 65.5 4.8 65.5 5.6 C 65.5 6.5 65.7 7.1 66 7.4 C 66.3 7.8 66.7 8 67.2 8 C 67.7 8 68 7.9 68.3 7.6 C 68.6 7.4 68.7 7 68.8 6.5 Z M 70.8 1.4 L 70.8 0.1 L 71.8 0.1 L 71.8 1.4 L 70.8 1.4 Z M 70.8 8.7 L 70.8 2.5 L 71.8 2.5 L 71.8 8.7 L 70.8 8.7 Z M 75.3 7.8 C 75.4 7.8 75.5 7.8 75.7 7.8 C 75.7 7.8 75.9 8.7 75.9 8.7 C 75.6 8.8 75.3 8.8 75.1 8.8 C 74.7 8.8 74.4 8.8 74.2 8.6 C 74 8.5 73.8 8.4 73.7 8.2 C 73.6 8 73.6 7.5 73.6 6.9 C 73.61 6.91 73.6 3.3 73.6 3.3 L 72.8 3.3 L 72.8 2.5 L 73.6 2.5 L 73.6 1 L 74.7 0.3 L 74.7 2.5 L 75.7 2.5 L 75.7 3.3 L 74.7 3.3 C 74.7 3.3 74.66 6.97 74.7 7 C 74.7 7.3 74.7 7.5 74.7 7.6 C 74.7 7.6 74.8 7.7 74.9 7.8 C 75 7.8 75.1 7.8 75.3 7.8 C 75.3 7.8 75.3 7.8 75.3 7.8 Z M 77.4 11.3 C 77.2 11.3 77 11.2 76.7 11.1 C 76.7 11.1 76.6 10.1 76.6 10.1 C 76.8 10.2 77 10.2 77.2 10.2 C 77.4 10.2 77.6 10.2 77.7 10.1 C 77.9 10 78 9.9 78.1 9.8 C 78.2 9.7 78.3 9.4 78.4 9 C 78.4 8.9 78.5 8.9 78.5 8.7 C 78.51 8.75 76.1 2.5 76.1 2.5 L 77.3 2.5 C 77.3 2.5 78.58 6.12 78.6 6.1 C 78.7 6.6 78.9 7.1 79 7.6 C 79.2 7.1 79.3 6.6 79.5 6.1 C 79.47 6.14 80.8 2.5 80.8 2.5 L 81.9 2.5 C 81.9 2.5 79.48 8.84 79.5 8.8 C 79.2 9.5 79 10 78.9 10.3 C 78.7 10.6 78.5 10.9 78.2 11 C 78 11.2 77.7 11.3 77.4 11.3 C 77.4 11.3 77.4 11.3 77.4 11.3 Z " stroke="none" fill="#000"/>  </g></svg>