<?xml version="1.0" standalone="no"?><!DOCTYPE svg PUBLIC "-//W3C//DTD SVG 1.1//EN" "http://www.w3.org/Graphics/SVG/1.1/DTD/svg11.dtd"><svg xmlns="http://www.w3.org/2000/svg" version="1.1" width="545.4px" height="148.1px" viewBox="0 -10 545.4 148.1" style="top:-10px">  <desc>Incisive No red tape, non bureaucratic, solution oriented, accountable and responsible for delivering against agreed ...</desc>  <defs/>  <g id="Polygon16369">    <path d="M 10.1 124.8 C 9.9 124.3 9.8 123.8 9.7 123.2 C 8.9 123.9 8.2 124.4 7.4 124.6 C 6.7 124.9 5.9 125 5.1 125 C 3.8 125 2.7 124.7 2 124 C 1.2 123.4 0.9 122.5 0.9 121.5 C 0.9 120.9 1 120.3 1.3 119.8 C 1.6 119.3 1.9 118.9 2.4 118.6 C 2.8 118.3 3.3 118.1 3.9 117.9 C 4.3 117.8 4.9 117.7 5.8 117.6 C 7.5 117.4 8.7 117.1 9.5 116.9 C 9.5 116.6 9.5 116.4 9.5 116.3 C 9.5 115.5 9.3 114.8 8.9 114.5 C 8.4 114 7.6 113.8 6.5 113.8 C 5.5 113.8 4.8 114 4.3 114.3 C 3.9 114.6 3.5 115.3 3.3 116.1 C 3.3 116.1 1.2 115.9 1.2 115.9 C 1.4 115 1.7 114.3 2.2 113.7 C 2.6 113.2 3.2 112.8 4 112.5 C 4.8 112.2 5.8 112 6.8 112 C 7.9 112 8.8 112.2 9.4 112.4 C 10.1 112.7 10.6 113 10.9 113.4 C 11.2 113.7 11.4 114.2 11.6 114.8 C 11.6 115.1 11.7 115.8 11.7 116.7 C 11.7 116.7 11.7 119.5 11.7 119.5 C 11.7 121.5 11.7 122.7 11.8 123.3 C 11.9 123.8 12.1 124.3 12.3 124.8 C 12.33 124.76 10.1 124.8 10.1 124.8 C 10.1 124.8 10.13 124.76 10.1 124.8 Z M 9.5 118.5 C 8.8 118.8 7.6 119.1 6.1 119.3 C 5.2 119.4 4.6 119.6 4.2 119.7 C 3.9 119.9 3.6 120.1 3.4 120.4 C 3.2 120.7 3.1 121.1 3.1 121.4 C 3.1 122 3.3 122.5 3.8 122.8 C 4.2 123.2 4.8 123.4 5.6 123.4 C 6.4 123.4 7.2 123.2 7.8 122.9 C 8.4 122.5 8.9 122 9.2 121.4 C 9.4 120.9 9.5 120.2 9.5 119.3 C 9.5 119.3 9.5 118.5 9.5 118.5 Z M 14.5 125.8 C 14.5 125.8 16.6 126.1 16.6 126.1 C 16.7 126.7 16.9 127.2 17.3 127.5 C 17.8 127.9 18.5 128.1 19.5 128.1 C 20.4 128.1 21.2 127.9 21.7 127.5 C 22.2 127.1 22.6 126.5 22.8 125.8 C 22.9 125.4 23 124.5 22.9 123.1 C 22 124.2 20.9 124.8 19.5 124.8 C 17.8 124.8 16.5 124.1 15.5 122.9 C 14.6 121.7 14.1 120.2 14.1 118.5 C 14.1 117.3 14.3 116.2 14.8 115.2 C 15.2 114.2 15.8 113.4 16.6 112.9 C 17.5 112.3 18.4 112 19.5 112 C 21 112 22.2 112.6 23.1 113.8 C 23.14 113.81 23.1 112.3 23.1 112.3 L 25.1 112.3 C 25.1 112.3 25.09 123.07 25.1 123.1 C 25.1 125 24.9 126.4 24.5 127.2 C 24.1 128 23.5 128.6 22.6 129.1 C 21.8 129.6 20.7 129.8 19.5 129.8 C 18 129.8 16.8 129.5 15.9 128.8 C 15 128.1 14.5 127.1 14.5 125.8 Z M 16.3 118.3 C 16.3 119.9 16.6 121.1 17.3 121.9 C 17.9 122.6 18.7 123 19.7 123 C 20.7 123 21.5 122.6 22.1 121.9 C 22.8 121.1 23.1 120 23.1 118.4 C 23.1 116.9 22.8 115.7 22.1 114.9 C 21.4 114.2 20.6 113.8 19.7 113.8 C 18.7 113.8 17.9 114.2 17.3 114.9 C 16.6 115.7 16.3 116.8 16.3 118.3 Z M 28.3 124.8 L 28.3 112.3 L 30.2 112.3 C 30.2 112.3 30.15 114.2 30.2 114.2 C 30.6 113.3 31.1 112.7 31.5 112.5 C 31.9 112.2 32.4 112 32.8 112 C 33.6 112 34.3 112.3 35 112.7 C 35 112.7 34.3 114.7 34.3 114.7 C 33.8 114.4 33.3 114.2 32.7 114.2 C 32.3 114.2 31.9 114.4 31.5 114.6 C 31.1 114.9 30.9 115.3 30.7 115.8 C 30.5 116.5 30.4 117.4 30.4 118.2 C 30.36 118.24 30.4 124.8 30.4 124.8 L 28.3 124.8 Z M 44.8 120.8 C 44.8 120.8 47 121 47 121 C 46.6 122.3 46 123.3 45.1 124 C 44.1 124.7 42.9 125 41.5 125 C 39.7 125 38.2 124.5 37.2 123.4 C 36.1 122.2 35.6 120.7 35.6 118.6 C 35.6 116.5 36.1 114.9 37.2 113.8 C 38.3 112.6 39.7 112 41.4 112 C 43 112 44.4 112.6 45.5 113.7 C 46.5 114.9 47 116.5 47 118.5 C 47 118.6 47 118.8 47 119.1 C 47 119.1 37.7 119.1 37.7 119.1 C 37.8 120.4 38.2 121.5 38.9 122.2 C 39.6 122.9 40.5 123.3 41.5 123.3 C 42.3 123.3 42.9 123.1 43.5 122.7 C 44 122.3 44.5 121.6 44.8 120.8 Z M 37.9 117.3 C 37.9 117.3 44.8 117.3 44.8 117.3 C 44.7 116.3 44.5 115.5 44 115 C 43.3 114.2 42.5 113.8 41.4 113.8 C 40.4 113.8 39.6 114.1 39 114.7 C 38.3 115.4 37.9 116.3 37.9 117.3 Z M 58.1 120.8 C 58.1 120.8 60.3 121 60.3 121 C 60 122.3 59.3 123.3 58.4 124 C 57.5 124.7 56.3 125 54.8 125 C 53 125 51.6 124.5 50.5 123.4 C 49.4 122.2 48.9 120.7 48.9 118.6 C 48.9 116.5 49.5 114.9 50.5 113.8 C 51.6 112.6 53 112 54.7 112 C 56.4 112 57.8 112.6 58.8 113.7 C 59.9 114.9 60.4 116.5 60.4 118.5 C 60.4 118.6 60.4 118.8 60.4 119.1 C 60.4 119.1 51.1 119.1 51.1 119.1 C 51.2 120.4 51.6 121.5 52.3 122.2 C 52.9 122.9 53.8 123.3 54.9 123.3 C 55.6 123.3 56.3 123.1 56.8 122.7 C 57.4 122.3 57.8 121.6 58.1 120.8 Z M 51.2 117.3 C 51.2 117.3 58.2 117.3 58.2 117.3 C 58.1 116.3 57.8 115.5 57.4 115 C 56.7 114.2 55.8 113.8 54.8 113.8 C 53.8 113.8 53 114.1 52.3 114.7 C 51.6 115.4 51.3 116.3 51.2 117.3 Z M 71 124.8 C 71 124.8 71.04 123.19 71 123.2 C 70.2 124.4 69.1 125 67.6 125 C 66.6 125 65.7 124.8 64.8 124.2 C 64 123.7 63.3 122.9 62.9 121.9 C 62.4 120.9 62.2 119.8 62.2 118.5 C 62.2 117.3 62.4 116.2 62.8 115.2 C 63.2 114.2 63.9 113.4 64.7 112.8 C 65.5 112.3 66.4 112 67.5 112 C 68.2 112 68.9 112.2 69.5 112.5 C 70.1 112.8 70.5 113.2 70.9 113.7 C 70.9 113.74 70.9 107.6 70.9 107.6 L 73 107.6 L 73 124.8 L 71 124.8 Z M 64.4 118.5 C 64.4 120.1 64.7 121.3 65.4 122.1 C 66.1 122.9 66.8 123.3 67.8 123.3 C 68.7 123.3 69.5 122.9 70.1 122.2 C 70.8 121.4 71.1 120.3 71.1 118.7 C 71.1 117 70.7 115.8 70.1 115 C 69.4 114.2 68.6 113.8 67.7 113.8 C 66.7 113.8 65.9 114.2 65.3 114.9 C 64.7 115.7 64.4 116.9 64.4 118.5 Z M 82.1 121 C 82.1 121 84.2 120.7 84.2 120.7 C 84.3 121.6 84.7 122.2 85.2 122.6 C 85.7 123.1 86.5 123.3 87.4 123.3 C 88.4 123.3 89.1 123.1 89.6 122.7 C 90.1 122.3 90.3 121.9 90.3 121.3 C 90.3 120.8 90.1 120.5 89.7 120.2 C 89.4 120 88.7 119.8 87.5 119.5 C 86 119.1 84.9 118.8 84.3 118.5 C 83.7 118.2 83.3 117.8 83 117.3 C 82.6 116.8 82.5 116.2 82.5 115.6 C 82.5 115.1 82.6 114.6 82.9 114.1 C 83.1 113.6 83.5 113.2 83.9 112.9 C 84.2 112.7 84.7 112.5 85.2 112.3 C 85.8 112.1 86.4 112 87.1 112 C 88 112 88.9 112.2 89.6 112.5 C 90.4 112.7 90.9 113.1 91.3 113.6 C 91.6 114.1 91.9 114.7 92 115.5 C 92 115.5 89.9 115.8 89.9 115.8 C 89.8 115.2 89.6 114.7 89.1 114.3 C 88.7 113.9 88 113.8 87.2 113.8 C 86.3 113.8 85.6 113.9 85.1 114.2 C 84.7 114.6 84.5 114.9 84.5 115.4 C 84.5 115.6 84.6 115.9 84.8 116.1 C 85 116.3 85.2 116.5 85.6 116.7 C 85.8 116.8 86.4 116.9 87.5 117.2 C 88.9 117.6 90 117.9 90.6 118.2 C 91.2 118.4 91.6 118.8 92 119.3 C 92.3 119.8 92.5 120.4 92.5 121.1 C 92.5 121.8 92.3 122.5 91.9 123.1 C 91.4 123.7 90.9 124.2 90.1 124.5 C 89.3 124.9 88.4 125 87.5 125 C 85.8 125 84.6 124.7 83.8 124 C 82.9 123.4 82.4 122.4 82.1 121 Z M 103.5 120.8 C 103.5 120.8 105.7 121 105.7 121 C 105.3 122.3 104.7 123.3 103.8 124 C 102.8 124.7 101.7 125 100.2 125 C 98.4 125 96.9 124.5 95.9 123.4 C 94.8 122.2 94.3 120.7 94.3 118.6 C 94.3 116.5 94.8 114.9 95.9 113.8 C 97 112.6 98.4 112 100.1 112 C 101.8 112 103.1 112.6 104.2 113.7 C 105.2 114.9 105.8 116.5 105.8 118.5 C 105.8 118.6 105.7 118.8 105.7 119.1 C 105.7 119.1 96.5 119.1 96.5 119.1 C 96.5 120.4 96.9 121.5 97.6 122.2 C 98.3 122.9 99.2 123.3 100.2 123.3 C 101 123.3 101.7 123.1 102.2 122.7 C 102.7 122.3 103.2 121.6 103.5 120.8 Z M 96.6 117.3 C 96.6 117.3 103.5 117.3 103.5 117.3 C 103.4 116.3 103.2 115.5 102.7 115 C 102.1 114.2 101.2 113.8 100.1 113.8 C 99.1 113.8 98.3 114.1 97.7 114.7 C 97 115.4 96.6 116.3 96.6 117.3 Z M 108.3 124.8 L 108.3 112.3 L 110.2 112.3 C 110.2 112.3 110.2 114.2 110.2 114.2 C 110.7 113.3 111.1 112.7 111.5 112.5 C 112 112.2 112.4 112 112.9 112 C 113.6 112 114.3 112.3 115.1 112.7 C 115.1 112.7 114.3 114.7 114.3 114.7 C 113.8 114.4 113.3 114.2 112.8 114.2 C 112.3 114.2 111.9 114.4 111.6 114.6 C 111.2 114.9 110.9 115.3 110.8 115.8 C 110.5 116.5 110.4 117.4 110.4 118.2 C 110.41 118.24 110.4 124.8 110.4 124.8 L 108.3 124.8 Z M 119.8 124.8 L 115 112.3 L 117.3 112.3 C 117.3 112.3 119.94 119.77 119.9 119.8 C 120.2 120.6 120.5 121.4 120.7 122.3 C 120.9 121.6 121.2 120.8 121.5 119.9 C 121.52 119.91 124.3 112.3 124.3 112.3 L 126.5 112.3 L 121.7 124.8 L 119.8 124.8 Z M 128.3 110 L 128.3 107.6 L 130.4 107.6 L 130.4 110 L 128.3 110 Z M 128.3 124.8 L 128.3 112.3 L 130.4 112.3 L 130.4 124.8 L 128.3 124.8 Z M 141.8 120.2 C 141.8 120.2 143.8 120.5 143.8 120.5 C 143.6 121.9 143 123 142.1 123.8 C 141.2 124.6 140 125 138.7 125 C 137 125 135.6 124.5 134.6 123.4 C 133.5 122.3 133 120.7 133 118.6 C 133 117.2 133.2 116.1 133.7 115.1 C 134.1 114 134.8 113.3 135.7 112.8 C 136.6 112.3 137.6 112 138.7 112 C 140 112 141.1 112.4 142 113.1 C 142.9 113.7 143.4 114.7 143.6 116 C 143.6 116 141.6 116.3 141.6 116.3 C 141.4 115.5 141.1 114.8 140.6 114.4 C 140.1 114 139.5 113.8 138.8 113.8 C 137.7 113.8 136.8 114.1 136.2 114.9 C 135.5 115.7 135.2 116.9 135.2 118.5 C 135.2 120.2 135.5 121.4 136.1 122.2 C 136.8 122.9 137.6 123.3 138.6 123.3 C 139.5 123.3 140.2 123.1 140.7 122.5 C 141.3 122 141.6 121.3 141.8 120.2 Z M 154.2 120.8 C 154.2 120.8 156.4 121 156.4 121 C 156 122.3 155.4 123.3 154.4 124 C 153.5 124.7 152.3 125 150.9 125 C 149.1 125 147.6 124.5 146.5 123.4 C 145.5 122.2 144.9 120.7 144.9 118.6 C 144.9 116.5 145.5 114.9 146.6 113.8 C 147.6 112.6 149 112 150.8 112 C 152.4 112 153.8 112.6 154.8 113.7 C 155.9 114.9 156.4 116.5 156.4 118.5 C 156.4 118.6 156.4 118.8 156.4 119.1 C 156.4 119.1 147.1 119.1 147.1 119.1 C 147.2 120.4 147.6 121.5 148.3 122.2 C 149 122.9 149.9 123.3 150.9 123.3 C 151.7 123.3 152.3 123.1 152.9 122.7 C 153.4 122.3 153.9 121.6 154.2 120.8 Z M 147.2 117.3 C 147.2 117.3 154.2 117.3 154.2 117.3 C 154.1 116.3 153.8 115.5 153.4 115 C 152.7 114.2 151.9 113.8 150.8 113.8 C 149.8 113.8 149 114.1 148.3 114.7 C 147.7 115.4 147.3 116.3 147.2 117.3 Z M 165.6 124.8 L 165.6 107.6 L 167.7 107.6 L 167.7 124.8 L 165.6 124.8 Z M 179.5 120.8 C 179.5 120.8 181.7 121 181.7 121 C 181.4 122.3 180.7 123.3 179.8 124 C 178.9 124.7 177.7 125 176.2 125 C 174.4 125 173 124.5 171.9 123.4 C 170.8 122.2 170.3 120.7 170.3 118.6 C 170.3 116.5 170.8 114.9 171.9 113.8 C 173 112.6 174.4 112 176.1 112 C 177.8 112 179.1 112.6 180.2 113.7 C 181.2 114.9 181.8 116.5 181.8 118.5 C 181.8 118.6 181.8 118.8 181.8 119.1 C 181.8 119.1 172.5 119.1 172.5 119.1 C 172.6 120.4 172.9 121.5 173.6 122.2 C 174.3 122.9 175.2 123.3 176.2 123.3 C 177 123.3 177.7 123.1 178.2 122.7 C 178.8 122.3 179.2 121.6 179.5 120.8 Z M 172.6 117.3 C 172.6 117.3 179.5 117.3 179.5 117.3 C 179.4 116.3 179.2 115.5 178.7 115 C 178.1 114.2 177.2 113.8 176.1 113.8 C 175.2 113.8 174.3 114.1 173.7 114.7 C 173 115.4 172.7 116.3 172.6 117.3 Z M 187.8 124.8 L 183.1 112.3 L 185.3 112.3 C 185.3 112.3 187.97 119.77 188 119.8 C 188.3 120.6 188.5 121.4 188.8 122.3 C 189 121.6 189.2 120.8 189.6 119.9 C 189.55 119.91 192.3 112.3 192.3 112.3 L 194.5 112.3 L 189.8 124.8 L 187.8 124.8 Z M 204.9 120.8 C 204.9 120.8 207 121 207 121 C 206.7 122.3 206.1 123.3 205.1 124 C 204.2 124.7 203 125 201.6 125 C 199.8 125 198.3 124.5 197.2 123.4 C 196.2 122.2 195.6 120.7 195.6 118.6 C 195.6 116.5 196.2 114.9 197.3 113.8 C 198.3 112.6 199.7 112 201.5 112 C 203.1 112 204.5 112.6 205.5 113.7 C 206.6 114.9 207.1 116.5 207.1 118.5 C 207.1 118.6 207.1 118.8 207.1 119.1 C 207.1 119.1 197.8 119.1 197.8 119.1 C 197.9 120.4 198.3 121.5 199 122.2 C 199.7 122.9 200.5 123.3 201.6 123.3 C 202.4 123.3 203 123.1 203.6 122.7 C 204.1 122.3 204.5 121.6 204.9 120.8 Z M 197.9 117.3 C 197.9 117.3 204.9 117.3 204.9 117.3 C 204.8 116.3 204.5 115.5 204.1 115 C 203.4 114.2 202.6 113.8 201.5 113.8 C 200.5 113.8 199.7 114.1 199 114.7 C 198.4 115.4 198 116.3 197.9 117.3 Z M 209.6 124.8 L 209.6 107.6 L 211.8 107.6 L 211.8 124.8 L 209.6 124.8 Z M 214.2 121 C 214.2 121 216.3 120.7 216.3 120.7 C 216.4 121.6 216.7 122.2 217.2 122.6 C 217.8 123.1 218.5 123.3 219.5 123.3 C 220.5 123.3 221.2 123.1 221.6 122.7 C 222.1 122.3 222.4 121.9 222.4 121.3 C 222.4 120.8 222.1 120.5 221.7 120.2 C 221.4 120 220.7 119.8 219.6 119.5 C 218 119.1 217 118.8 216.4 118.5 C 215.8 118.2 215.3 117.8 215 117.3 C 214.7 116.8 214.5 116.2 214.5 115.6 C 214.5 115.1 214.7 114.6 214.9 114.1 C 215.2 113.6 215.5 113.2 216 112.9 C 216.3 112.7 216.7 112.5 217.3 112.3 C 217.9 112.1 218.5 112 219.1 112 C 220.1 112 221 112.2 221.7 112.5 C 222.4 112.7 223 113.1 223.3 113.6 C 223.7 114.1 223.9 114.7 224.1 115.5 C 224.1 115.5 222 115.8 222 115.8 C 221.9 115.2 221.6 114.7 221.2 114.3 C 220.7 113.9 220.1 113.8 219.3 113.8 C 218.3 113.8 217.6 113.9 217.2 114.2 C 216.8 114.6 216.6 114.9 216.6 115.4 C 216.6 115.6 216.7 115.9 216.8 116.1 C 217 116.3 217.3 116.5 217.6 116.7 C 217.9 116.8 218.5 116.9 219.5 117.2 C 221 117.6 222 117.9 222.6 118.2 C 223.2 118.4 223.7 118.8 224 119.3 C 224.4 119.8 224.5 120.4 224.5 121.1 C 224.5 121.8 224.3 122.5 223.9 123.1 C 223.5 123.7 222.9 124.2 222.1 124.5 C 221.4 124.9 220.5 125 219.5 125 C 217.9 125 216.7 124.7 215.8 124 C 215 123.4 214.4 122.4 214.2 121 Z " stroke="none" fill="#ffffff"/>  </g>  <g id="Polygon16368">    <path d="M 10.1 96 C 9.9 95.5 9.8 95 9.7 94.4 C 8.9 95.1 8.2 95.6 7.4 95.8 C 6.7 96.1 5.9 96.2 5.1 96.2 C 3.8 96.2 2.7 95.9 2 95.2 C 1.2 94.6 0.9 93.7 0.9 92.7 C 0.9 92.1 1 91.5 1.3 91 C 1.6 90.5 1.9 90.1 2.4 89.8 C 2.8 89.5 3.3 89.3 3.9 89.1 C 4.3 89 4.9 88.9 5.8 88.8 C 7.5 88.6 8.7 88.3 9.5 88.1 C 9.5 87.8 9.5 87.6 9.5 87.5 C 9.5 86.7 9.3 86 8.9 85.7 C 8.4 85.2 7.6 85 6.5 85 C 5.5 85 4.8 85.2 4.3 85.5 C 3.9 85.8 3.5 86.5 3.3 87.3 C 3.3 87.3 1.2 87.1 1.2 87.1 C 1.4 86.2 1.7 85.5 2.2 84.9 C 2.6 84.4 3.2 84 4 83.7 C 4.8 83.4 5.8 83.2 6.8 83.2 C 7.9 83.2 8.8 83.4 9.4 83.6 C 10.1 83.9 10.6 84.2 10.9 84.6 C 11.2 84.9 11.4 85.4 11.6 86 C 11.6 86.3 11.7 87 11.7 87.9 C 11.7 87.9 11.7 90.7 11.7 90.7 C 11.7 92.7 11.7 93.9 11.8 94.5 C 11.9 95 12.1 95.5 12.3 96 C 12.33 95.96 10.1 96 10.1 96 C 10.1 96 10.13 95.96 10.1 96 Z M 9.5 89.7 C 8.8 90 7.6 90.3 6.1 90.5 C 5.2 90.6 4.6 90.8 4.2 90.9 C 3.9 91.1 3.6 91.3 3.4 91.6 C 3.2 91.9 3.1 92.3 3.1 92.6 C 3.1 93.2 3.3 93.7 3.8 94 C 4.2 94.4 4.8 94.6 5.6 94.6 C 6.4 94.6 7.2 94.4 7.8 94.1 C 8.4 93.7 8.9 93.2 9.2 92.6 C 9.4 92.1 9.5 91.4 9.5 90.5 C 9.5 90.5 9.5 89.7 9.5 89.7 Z M 23.1 91.4 C 23.1 91.4 25.1 91.7 25.1 91.7 C 24.9 93.1 24.3 94.2 23.4 95 C 22.5 95.8 21.3 96.2 19.9 96.2 C 18.2 96.2 16.9 95.7 15.8 94.6 C 14.8 93.5 14.3 91.9 14.3 89.8 C 14.3 88.4 14.5 87.3 15 86.3 C 15.4 85.2 16.1 84.5 17 84 C 17.9 83.5 18.9 83.2 20 83.2 C 21.3 83.2 22.4 83.6 23.3 84.3 C 24.1 84.9 24.7 85.9 24.9 87.2 C 24.9 87.2 22.9 87.5 22.9 87.5 C 22.7 86.7 22.3 86 21.8 85.6 C 21.3 85.2 20.7 85 20 85 C 19 85 18.1 85.3 17.4 86.1 C 16.8 86.9 16.5 88.1 16.5 89.7 C 16.5 91.4 16.8 92.6 17.4 93.4 C 18.1 94.1 18.9 94.5 19.9 94.5 C 20.7 94.5 21.4 94.3 22 93.7 C 22.6 93.2 22.9 92.5 23.1 91.4 Z M 35.1 91.4 C 35.1 91.4 37.1 91.7 37.1 91.7 C 36.9 93.1 36.3 94.2 35.4 95 C 34.5 95.8 33.3 96.2 31.9 96.2 C 30.2 96.2 28.9 95.7 27.8 94.6 C 26.8 93.5 26.3 91.9 26.3 89.8 C 26.3 88.4 26.5 87.3 27 86.3 C 27.4 85.2 28.1 84.5 29 84 C 29.9 83.5 30.9 83.2 32 83.2 C 33.3 83.2 34.4 83.6 35.3 84.3 C 36.1 84.9 36.7 85.9 36.9 87.2 C 36.9 87.2 34.9 87.5 34.9 87.5 C 34.7 86.7 34.3 86 33.8 85.6 C 33.3 85.2 32.7 85 32 85 C 31 85 30.1 85.3 29.4 86.1 C 28.8 86.9 28.5 88.1 28.5 89.7 C 28.5 91.4 28.8 92.6 29.4 93.4 C 30.1 94.1 30.9 94.5 31.9 94.5 C 32.7 94.5 33.4 94.3 34 93.7 C 34.6 93.2 34.9 92.5 35.1 91.4 Z M 38.1 89.7 C 38.1 87.4 38.8 85.7 40.1 84.6 C 41.1 83.7 42.4 83.2 44 83.2 C 45.7 83.2 47.1 83.8 48.2 84.9 C 49.3 86 49.8 87.6 49.8 89.6 C 49.8 91.2 49.6 92.4 49.1 93.3 C 48.6 94.3 47.9 95 47 95.5 C 46.1 96 45.1 96.2 44 96.2 C 42.2 96.2 40.8 95.7 39.8 94.6 C 38.7 93.4 38.1 91.8 38.1 89.7 Z M 40.3 89.7 C 40.3 91.3 40.7 92.5 41.4 93.3 C 42.1 94.1 42.9 94.5 44 94.5 C 45 94.5 45.9 94.1 46.6 93.3 C 47.3 92.5 47.6 91.3 47.6 89.7 C 47.6 88.1 47.3 87 46.6 86.2 C 45.9 85.4 45 85 44 85 C 42.9 85 42.1 85.4 41.4 86.2 C 40.7 87 40.3 88.1 40.3 89.7 Z M 60.4 96 C 60.4 96 60.43 94.13 60.4 94.1 C 59.5 95.5 58.1 96.2 56.5 96.2 C 55.7 96.2 55.1 96.1 54.4 95.8 C 53.8 95.5 53.3 95.2 53 94.8 C 52.7 94.3 52.5 93.8 52.4 93.2 C 52.3 92.8 52.2 92.1 52.2 91.2 C 52.23 91.23 52.2 83.5 52.2 83.5 L 54.3 83.5 C 54.3 83.5 54.34 90.42 54.3 90.4 C 54.3 91.5 54.4 92.3 54.5 92.6 C 54.6 93.2 54.9 93.6 55.3 93.9 C 55.7 94.3 56.3 94.4 56.9 94.4 C 57.5 94.4 58.1 94.3 58.7 93.9 C 59.2 93.6 59.6 93.2 59.9 92.6 C 60.1 92.1 60.2 91.2 60.2 90.2 C 60.21 90.18 60.2 83.5 60.2 83.5 L 62.3 83.5 L 62.3 96 L 60.4 96 Z M 65.6 96 L 65.6 83.5 L 67.5 83.5 C 67.5 83.5 67.52 85.28 67.5 85.3 C 68.4 83.9 69.8 83.2 71.5 83.2 C 72.2 83.2 72.9 83.4 73.6 83.6 C 74.2 83.9 74.7 84.3 75 84.7 C 75.3 85.1 75.5 85.7 75.6 86.3 C 75.7 86.6 75.7 87.3 75.7 88.3 C 75.74 88.31 75.7 96 75.7 96 L 73.6 96 C 73.6 96 73.63 88.39 73.6 88.4 C 73.6 87.5 73.5 86.9 73.4 86.5 C 73.2 86 72.9 85.7 72.5 85.4 C 72.1 85.2 71.6 85.1 71 85.1 C 70.1 85.1 69.4 85.3 68.7 85.9 C 68.1 86.5 67.7 87.6 67.7 89.2 C 67.73 89.16 67.7 96 67.7 96 L 65.6 96 Z M 82.7 94.2 C 82.9 94.2 83.2 94.1 83.6 94.1 C 83.6 94.1 83.9 95.9 83.9 95.9 C 83.3 96.1 82.8 96.1 82.3 96.1 C 81.5 96.1 80.9 96 80.5 95.8 C 80.1 95.5 79.8 95.2 79.6 94.8 C 79.4 94.4 79.4 93.6 79.4 92.3 C 79.36 92.32 79.4 85.2 79.4 85.2 L 77.8 85.2 L 77.8 83.5 L 79.4 83.5 L 79.4 80.4 L 81.5 79.2 L 81.5 83.5 L 83.6 83.5 L 83.6 85.2 L 81.5 85.2 C 81.5 85.2 81.46 92.43 81.5 92.4 C 81.5 93 81.5 93.4 81.6 93.6 C 81.6 93.8 81.8 93.9 81.9 94 C 82.1 94.1 82.3 94.2 82.7 94.2 C 82.7 94.2 82.7 94.2 82.7 94.2 Z M 94.2 96 C 94 95.5 93.8 95 93.8 94.4 C 93 95.1 92.2 95.6 91.5 95.8 C 90.8 96.1 90 96.2 89.2 96.2 C 87.8 96.2 86.8 95.9 86 95.2 C 85.3 94.6 84.9 93.7 84.9 92.7 C 84.9 92.1 85.1 91.5 85.3 91 C 85.6 90.5 86 90.1 86.4 89.8 C 86.9 89.5 87.4 89.3 87.9 89.1 C 88.4 89 89 88.9 89.8 88.8 C 91.5 88.6 92.8 88.3 93.6 88.1 C 93.6 87.8 93.6 87.6 93.6 87.5 C 93.6 86.7 93.4 86 93 85.7 C 92.5 85.2 91.7 85 90.6 85 C 89.6 85 88.9 85.2 88.4 85.5 C 87.9 85.8 87.6 86.5 87.4 87.3 C 87.4 87.3 85.3 87.1 85.3 87.1 C 85.5 86.2 85.8 85.5 86.2 84.9 C 86.6 84.4 87.3 84 88.1 83.7 C 88.9 83.4 89.8 83.2 90.9 83.2 C 92 83.2 92.8 83.4 93.5 83.6 C 94.2 83.9 94.6 84.2 95 84.6 C 95.3 84.9 95.5 85.4 95.6 86 C 95.7 86.3 95.7 87 95.7 87.9 C 95.7 87.9 95.7 90.7 95.7 90.7 C 95.7 92.7 95.8 93.9 95.9 94.5 C 95.9 95 96.1 95.5 96.4 96 C 96.39 95.96 94.2 96 94.2 96 C 94.2 96 94.18 95.96 94.2 96 Z M 93.6 89.7 C 92.8 90 91.7 90.3 90.1 90.5 C 89.3 90.6 88.7 90.8 88.3 90.9 C 87.9 91.1 87.7 91.3 87.5 91.6 C 87.3 91.9 87.2 92.3 87.2 92.6 C 87.2 93.2 87.4 93.7 87.8 94 C 88.2 94.4 88.9 94.6 89.7 94.6 C 90.5 94.6 91.2 94.4 91.9 94.1 C 92.5 93.7 92.9 93.2 93.2 92.6 C 93.5 92.1 93.6 91.4 93.6 90.5 C 93.6 90.5 93.6 89.7 93.6 89.7 Z M 100.9 96 L 99 96 L 99 78.8 L 101.1 78.8 C 101.1 78.8 101.09 84.91 101.1 84.9 C 102 83.8 103.1 83.2 104.5 83.2 C 105.3 83.2 106 83.4 106.7 83.7 C 107.4 84 107.9 84.4 108.4 85 C 108.8 85.6 109.1 86.2 109.4 87 C 109.6 87.8 109.8 88.7 109.8 89.5 C 109.8 91.7 109.2 93.3 108.2 94.5 C 107.1 95.7 105.9 96.2 104.4 96.2 C 102.9 96.2 101.8 95.6 100.9 94.4 C 100.93 94.4 100.9 96 100.9 96 Z M 100.9 89.6 C 100.9 91.1 101.1 92.2 101.5 92.9 C 102.2 94 103.1 94.5 104.2 94.5 C 105.1 94.5 105.9 94.1 106.6 93.3 C 107.3 92.5 107.6 91.3 107.6 89.7 C 107.6 88.1 107.3 86.9 106.6 86.1 C 106 85.4 105.2 85 104.3 85 C 103.4 85 102.6 85.4 101.9 86.2 C 101.2 87 100.9 88.1 100.9 89.6 Z M 112.3 96 L 112.3 78.8 L 114.4 78.8 L 114.4 96 L 112.3 96 Z M 126.2 92 C 126.2 92 128.4 92.2 128.4 92.2 C 128 93.5 127.4 94.5 126.5 95.2 C 125.5 95.9 124.3 96.2 122.9 96.2 C 121.1 96.2 119.6 95.7 118.6 94.6 C 117.5 93.4 117 91.9 117 89.8 C 117 87.7 117.5 86.1 118.6 85 C 119.7 83.8 121.1 83.2 122.8 83.2 C 124.4 83.2 125.8 83.8 126.9 84.9 C 127.9 86.1 128.4 87.7 128.4 89.7 C 128.4 89.8 128.4 90 128.4 90.3 C 128.4 90.3 119.1 90.3 119.1 90.3 C 119.2 91.6 119.6 92.7 120.3 93.4 C 121 94.1 121.9 94.5 122.9 94.5 C 123.7 94.5 124.3 94.3 124.9 93.9 C 125.4 93.5 125.9 92.8 126.2 92 Z M 119.3 88.5 C 119.3 88.5 126.2 88.5 126.2 88.5 C 126.1 87.5 125.9 86.7 125.4 86.2 C 124.7 85.4 123.9 85 122.8 85 C 121.8 85 121 85.3 120.4 85.9 C 119.7 86.6 119.3 87.5 119.3 88.5 Z M 146.2 96 C 146 95.5 145.9 95 145.8 94.4 C 145 95.1 144.3 95.6 143.5 95.8 C 142.8 96.1 142.1 96.2 141.2 96.2 C 139.9 96.2 138.8 95.9 138.1 95.2 C 137.3 94.6 137 93.7 137 92.7 C 137 92.1 137.1 91.5 137.4 91 C 137.7 90.5 138 90.1 138.5 89.8 C 138.9 89.5 139.4 89.3 140 89.1 C 140.4 89 141 88.9 141.9 88.8 C 143.6 88.6 144.8 88.3 145.6 88.1 C 145.6 87.8 145.6 87.6 145.6 87.5 C 145.6 86.7 145.4 86 145 85.7 C 144.5 85.2 143.7 85 142.6 85 C 141.6 85 140.9 85.2 140.4 85.5 C 140 85.8 139.6 86.5 139.4 87.3 C 139.4 87.3 137.3 87.1 137.3 87.1 C 137.5 86.2 137.8 85.5 138.3 84.9 C 138.7 84.4 139.3 84 140.1 83.7 C 140.9 83.4 141.9 83.2 142.9 83.2 C 144 83.2 144.9 83.4 145.5 83.6 C 146.2 83.9 146.7 84.2 147 84.6 C 147.3 84.9 147.5 85.4 147.7 86 C 147.7 86.3 147.8 87 147.8 87.9 C 147.8 87.9 147.8 90.7 147.8 90.7 C 147.8 92.7 147.8 93.9 147.9 94.5 C 148 95 148.2 95.5 148.4 96 C 148.43 95.96 146.2 96 146.2 96 C 146.2 96 146.23 95.96 146.2 96 Z M 145.6 89.7 C 144.9 90 143.7 90.3 142.2 90.5 C 141.3 90.6 140.7 90.8 140.3 90.9 C 140 91.1 139.7 91.3 139.5 91.6 C 139.3 91.9 139.2 92.3 139.2 92.6 C 139.2 93.2 139.4 93.7 139.9 94 C 140.3 94.4 140.9 94.6 141.7 94.6 C 142.5 94.6 143.3 94.4 143.9 94.1 C 144.5 93.7 145 93.2 145.3 92.6 C 145.5 92.1 145.6 91.4 145.6 90.5 C 145.6 90.5 145.6 89.7 145.6 89.7 Z M 151 96 L 151 83.5 L 152.9 83.5 C 152.9 83.5 152.93 85.28 152.9 85.3 C 153.8 83.9 155.2 83.2 156.9 83.2 C 157.6 83.2 158.3 83.4 159 83.6 C 159.6 83.9 160.1 84.3 160.4 84.7 C 160.7 85.1 160.9 85.7 161 86.3 C 161.1 86.6 161.1 87.3 161.1 88.3 C 161.14 88.31 161.1 96 161.1 96 L 159 96 C 159 96 159.04 88.39 159 88.4 C 159 87.5 159 86.9 158.8 86.5 C 158.6 86 158.3 85.7 157.9 85.4 C 157.5 85.2 157 85.1 156.4 85.1 C 155.5 85.1 154.8 85.3 154.1 85.9 C 153.5 86.5 153.1 87.6 153.1 89.2 C 153.14 89.16 153.1 96 153.1 96 L 151 96 Z M 172.5 96 C 172.5 96 172.45 94.39 172.5 94.4 C 171.7 95.6 170.5 96.2 169 96.2 C 168 96.2 167.1 96 166.2 95.4 C 165.4 94.9 164.8 94.1 164.3 93.1 C 163.8 92.1 163.6 91 163.6 89.7 C 163.6 88.5 163.8 87.4 164.2 86.4 C 164.7 85.4 165.3 84.6 166.1 84 C 166.9 83.5 167.9 83.2 168.9 83.2 C 169.6 83.2 170.3 83.4 170.9 83.7 C 171.5 84 171.9 84.4 172.3 84.9 C 172.31 84.94 172.3 78.8 172.3 78.8 L 174.4 78.8 L 174.4 96 L 172.5 96 Z M 165.8 89.7 C 165.8 91.3 166.1 92.5 166.8 93.3 C 167.5 94.1 168.3 94.5 169.2 94.5 C 170.1 94.5 170.9 94.1 171.5 93.4 C 172.2 92.6 172.5 91.5 172.5 89.9 C 172.5 88.2 172.2 87 171.5 86.2 C 170.8 85.4 170 85 169.1 85 C 168.1 85 167.4 85.4 166.7 86.1 C 166.1 86.9 165.8 88.1 165.8 89.7 Z M 184.4 96 L 184.4 83.5 L 186.3 83.5 C 186.3 83.5 186.27 85.4 186.3 85.4 C 186.8 84.5 187.2 83.9 187.6 83.7 C 188 83.4 188.5 83.2 189 83.2 C 189.7 83.2 190.4 83.5 191.1 83.9 C 191.1 83.9 190.4 85.9 190.4 85.9 C 189.9 85.6 189.4 85.4 188.9 85.4 C 188.4 85.4 188 85.6 187.6 85.8 C 187.2 86.1 187 86.5 186.8 87 C 186.6 87.7 186.5 88.6 186.5 89.4 C 186.48 89.44 186.5 96 186.5 96 L 184.4 96 Z M 200.9 92 C 200.9 92 203.1 92.2 203.1 92.2 C 202.7 93.5 202.1 94.5 201.2 95.2 C 200.2 95.9 199.1 96.2 197.6 96.2 C 195.8 96.2 194.3 95.7 193.3 94.6 C 192.2 93.4 191.7 91.9 191.7 89.8 C 191.7 87.7 192.2 86.1 193.3 85 C 194.4 83.8 195.8 83.2 197.5 83.2 C 199.2 83.2 200.5 83.8 201.6 84.9 C 202.6 86.1 203.2 87.7 203.2 89.7 C 203.2 89.8 203.2 90 203.1 90.3 C 203.1 90.3 193.9 90.3 193.9 90.3 C 193.9 91.6 194.3 92.7 195 93.4 C 195.7 94.1 196.6 94.5 197.6 94.5 C 198.4 94.5 199.1 94.3 199.6 93.9 C 200.2 93.5 200.6 92.8 200.9 92 Z M 194 88.5 C 194 88.5 200.9 88.5 200.9 88.5 C 200.8 87.5 200.6 86.7 200.1 86.2 C 199.5 85.4 198.6 85 197.5 85 C 196.6 85 195.7 85.3 195.1 85.9 C 194.4 86.6 194.1 87.5 194 88.5 Z M 204.9 92.2 C 204.9 92.2 207 91.9 207 91.9 C 207.1 92.8 207.4 93.4 208 93.8 C 208.5 94.3 209.2 94.5 210.2 94.5 C 211.2 94.5 211.9 94.3 212.4 93.9 C 212.8 93.5 213.1 93.1 213.1 92.5 C 213.1 92 212.9 91.7 212.4 91.4 C 212.1 91.2 211.4 91 210.3 90.7 C 208.7 90.3 207.7 90 207.1 89.7 C 206.5 89.4 206 89 205.7 88.5 C 205.4 88 205.2 87.4 205.2 86.8 C 205.2 86.3 205.4 85.8 205.6 85.3 C 205.9 84.8 206.2 84.4 206.7 84.1 C 207 83.9 207.4 83.7 208 83.5 C 208.6 83.3 209.2 83.2 209.8 83.2 C 210.8 83.2 211.7 83.4 212.4 83.7 C 213.1 83.9 213.7 84.3 214 84.8 C 214.4 85.3 214.6 85.9 214.8 86.7 C 214.8 86.7 212.7 87 212.7 87 C 212.6 86.4 212.3 85.9 211.9 85.5 C 211.4 85.1 210.8 85 210 85 C 209 85 208.3 85.1 207.9 85.4 C 207.5 85.8 207.3 86.1 207.3 86.6 C 207.3 86.8 207.4 87.1 207.5 87.3 C 207.7 87.5 208 87.7 208.3 87.9 C 208.6 88 209.2 88.1 210.2 88.4 C 211.7 88.8 212.7 89.1 213.3 89.4 C 213.9 89.6 214.4 90 214.7 90.5 C 215.1 91 215.2 91.6 215.2 92.3 C 215.2 93 215 93.7 214.6 94.3 C 214.2 94.9 213.6 95.4 212.8 95.7 C 212.1 96.1 211.2 96.2 210.2 96.2 C 208.6 96.2 207.4 95.9 206.5 95.2 C 205.7 94.6 205.1 93.6 204.9 92.2 Z M 217.7 100.7 L 217.7 83.5 L 219.7 83.5 C 219.7 83.5 219.66 85.13 219.7 85.1 C 220.1 84.5 220.6 84 221.2 83.7 C 221.8 83.4 222.5 83.2 223.3 83.2 C 224.3 83.2 225.3 83.5 226.1 84.1 C 226.9 84.6 227.5 85.4 227.9 86.4 C 228.3 87.4 228.5 88.5 228.5 89.6 C 228.5 90.9 228.3 92.1 227.9 93.1 C 227.4 94.1 226.7 94.9 225.9 95.4 C 225 96 224.1 96.2 223.1 96.2 C 222.4 96.2 221.8 96.1 221.2 95.8 C 220.7 95.5 220.2 95.1 219.8 94.7 C 219.84 94.67 219.8 100.7 219.8 100.7 L 217.7 100.7 Z M 219.6 89.8 C 219.6 91.4 220 92.6 220.6 93.4 C 221.3 94.1 222.1 94.5 223 94.5 C 223.9 94.5 224.7 94.1 225.4 93.3 C 226 92.5 226.4 91.3 226.4 89.6 C 226.4 88 226.1 86.9 225.4 86.1 C 224.8 85.3 224 84.9 223.1 84.9 C 222.2 84.9 221.4 85.3 220.7 86.1 C 220 87 219.6 88.2 219.6 89.8 Z M 230.3 89.7 C 230.3 87.4 230.9 85.7 232.2 84.6 C 233.3 83.7 234.6 83.2 236.1 83.2 C 237.8 83.2 239.2 83.8 240.3 84.9 C 241.4 86 242 87.6 242 89.6 C 242 91.2 241.7 92.4 241.2 93.3 C 240.8 94.3 240.1 95 239.1 95.5 C 238.2 96 237.2 96.2 236.1 96.2 C 234.4 96.2 233 95.7 231.9 94.6 C 230.8 93.4 230.3 91.8 230.3 89.7 Z M 232.5 89.7 C 232.5 91.3 232.8 92.5 233.5 93.3 C 234.2 94.1 235.1 94.5 236.1 94.5 C 237.2 94.5 238.1 94.1 238.7 93.3 C 239.4 92.5 239.8 91.3 239.8 89.7 C 239.8 88.1 239.4 87 238.7 86.2 C 238 85.4 237.2 85 236.1 85 C 235.1 85 234.2 85.4 233.5 86.2 C 232.8 87 232.5 88.1 232.5 89.7 Z M 244.4 96 L 244.4 83.5 L 246.3 83.5 C 246.3 83.5 246.33 85.28 246.3 85.3 C 247.2 83.9 248.6 83.2 250.3 83.2 C 251 83.2 251.7 83.4 252.4 83.6 C 253 83.9 253.5 84.3 253.8 84.7 C 254.1 85.1 254.3 85.7 254.4 86.3 C 254.5 86.6 254.5 87.3 254.5 88.3 C 254.54 88.31 254.5 96 254.5 96 L 252.4 96 C 252.4 96 252.43 88.39 252.4 88.4 C 252.4 87.5 252.4 86.9 252.2 86.5 C 252 86 251.7 85.7 251.3 85.4 C 250.9 85.2 250.4 85.1 249.8 85.1 C 248.9 85.1 248.2 85.3 247.5 85.9 C 246.9 86.5 246.5 87.6 246.5 89.2 C 246.54 89.16 246.5 96 246.5 96 L 244.4 96 Z M 256.9 92.2 C 256.9 92.2 259 91.9 259 91.9 C 259.1 92.8 259.5 93.4 260 93.8 C 260.5 94.3 261.3 94.5 262.2 94.5 C 263.2 94.5 263.9 94.3 264.4 93.9 C 264.9 93.5 265.1 93.1 265.1 92.5 C 265.1 92 264.9 91.7 264.5 91.4 C 264.2 91.2 263.5 91 262.3 90.7 C 260.8 90.3 259.7 90 259.1 89.7 C 258.5 89.4 258.1 89 257.7 88.5 C 257.4 88 257.3 87.4 257.3 86.8 C 257.3 86.3 257.4 85.8 257.7 85.3 C 257.9 84.8 258.3 84.4 258.7 84.1 C 259 83.9 259.5 83.7 260 83.5 C 260.6 83.3 261.2 83.2 261.9 83.2 C 262.8 83.2 263.7 83.4 264.4 83.7 C 265.2 83.9 265.7 84.3 266.1 84.8 C 266.4 85.3 266.7 85.9 266.8 86.7 C 266.8 86.7 264.7 87 264.7 87 C 264.6 86.4 264.4 85.9 263.9 85.5 C 263.5 85.1 262.8 85 262 85 C 261.1 85 260.4 85.1 259.9 85.4 C 259.5 85.8 259.3 86.1 259.3 86.6 C 259.3 86.8 259.4 87.1 259.6 87.3 C 259.8 87.5 260 87.7 260.4 87.9 C 260.6 88 261.2 88.1 262.3 88.4 C 263.7 88.8 264.8 89.1 265.4 89.4 C 266 89.6 266.4 90 266.8 90.5 C 267.1 91 267.3 91.6 267.3 92.3 C 267.3 93 267.1 93.7 266.7 94.3 C 266.2 94.9 265.7 95.4 264.9 95.7 C 264.1 96.1 263.2 96.2 262.3 96.2 C 260.6 96.2 259.4 95.9 258.6 95.2 C 257.7 94.6 257.2 93.6 256.9 92.2 Z M 269.8 81.2 L 269.8 78.8 L 271.9 78.8 L 271.9 81.2 L 269.8 81.2 Z M 269.8 96 L 269.8 83.5 L 271.9 83.5 L 271.9 96 L 269.8 96 Z M 277.1 96 L 275.1 96 L 275.1 78.8 L 277.2 78.8 C 277.2 78.8 277.21 84.91 277.2 84.9 C 278.1 83.8 279.2 83.2 280.6 83.2 C 281.4 83.2 282.1 83.4 282.8 83.7 C 283.5 84 284 84.4 284.5 85 C 284.9 85.6 285.3 86.2 285.5 87 C 285.8 87.8 285.9 88.7 285.9 89.5 C 285.9 91.7 285.4 93.3 284.3 94.5 C 283.3 95.7 282 96.2 280.5 96.2 C 279 96.2 277.9 95.6 277.1 94.4 C 277.05 94.4 277.1 96 277.1 96 Z M 277 89.6 C 277 91.1 277.2 92.2 277.6 92.9 C 278.3 94 279.2 94.5 280.3 94.5 C 281.3 94.5 282.1 94.1 282.7 93.3 C 283.4 92.5 283.7 91.3 283.7 89.7 C 283.7 88.1 283.4 86.9 282.8 86.1 C 282.1 85.4 281.3 85 280.4 85 C 279.5 85 278.7 85.4 278 86.2 C 277.4 87 277 88.1 277 89.6 Z M 288.4 96 L 288.4 78.8 L 290.5 78.8 L 290.5 96 L 288.4 96 Z M 302.3 92 C 302.3 92 304.5 92.2 304.5 92.2 C 304.1 93.5 303.5 94.5 302.6 95.2 C 301.6 95.9 300.5 96.2 299 96.2 C 297.2 96.2 295.8 95.7 294.7 94.6 C 293.6 93.4 293.1 91.9 293.1 89.8 C 293.1 87.7 293.6 86.1 294.7 85 C 295.8 83.8 297.2 83.2 298.9 83.2 C 300.6 83.2 301.9 83.8 303 84.9 C 304 86.1 304.6 87.7 304.6 89.7 C 304.6 89.8 304.6 90 304.5 90.3 C 304.5 90.3 295.3 90.3 295.3 90.3 C 295.3 91.6 295.7 92.7 296.4 93.4 C 297.1 94.1 298 94.5 299 94.5 C 299.8 94.5 300.5 94.3 301 93.9 C 301.6 93.5 302 92.8 302.3 92 Z M 295.4 88.5 C 295.4 88.5 302.3 88.5 302.3 88.5 C 302.2 87.5 302 86.7 301.5 86.2 C 300.9 85.4 300 85 298.9 85 C 298 85 297.1 85.3 296.5 85.9 C 295.8 86.6 295.5 87.5 295.4 88.5 Z M 314.3 96 L 314.3 85.2 L 312.4 85.2 L 312.4 83.5 L 314.3 83.5 C 314.3 83.5 314.31 82.19 314.3 82.2 C 314.3 81.4 314.4 80.7 314.5 80.3 C 314.7 79.8 315.1 79.3 315.6 79 C 316.1 78.7 316.8 78.5 317.8 78.5 C 318.3 78.5 319 78.6 319.7 78.7 C 319.7 78.7 319.4 80.5 319.4 80.5 C 319 80.5 318.6 80.4 318.2 80.4 C 317.5 80.4 317.1 80.6 316.8 80.8 C 316.5 81.1 316.4 81.6 316.4 82.4 C 316.41 82.37 316.4 83.5 316.4 83.5 L 318.8 83.5 L 318.8 85.2 L 316.4 85.2 L 316.4 96 L 314.3 96 Z M 319.7 89.7 C 319.7 87.4 320.3 85.7 321.6 84.6 C 322.7 83.7 324 83.2 325.5 83.2 C 327.2 83.2 328.6 83.8 329.7 84.9 C 330.8 86 331.3 87.6 331.3 89.6 C 331.3 91.2 331.1 92.4 330.6 93.3 C 330.1 94.3 329.4 95 328.5 95.5 C 327.6 96 326.6 96.2 325.5 96.2 C 323.8 96.2 322.4 95.7 321.3 94.6 C 320.2 93.4 319.7 91.8 319.7 89.7 Z M 321.9 89.7 C 321.9 91.3 322.2 92.5 322.9 93.3 C 323.6 94.1 324.5 94.5 325.5 94.5 C 326.6 94.5 327.4 94.1 328.1 93.3 C 328.8 92.5 329.2 91.3 329.2 89.7 C 329.2 88.1 328.8 87 328.1 86.2 C 327.4 85.4 326.6 85 325.5 85 C 324.5 85 323.6 85.4 322.9 86.2 C 322.2 87 321.9 88.1 321.9 89.7 Z M 333.8 96 L 333.8 83.5 L 335.7 83.5 C 335.7 83.5 335.7 85.4 335.7 85.4 C 336.2 84.5 336.6 83.9 337 83.7 C 337.4 83.4 337.9 83.2 338.4 83.2 C 339.1 83.2 339.8 83.5 340.6 83.9 C 340.6 83.9 339.8 85.9 339.8 85.9 C 339.3 85.6 338.8 85.4 338.3 85.4 C 337.8 85.4 337.4 85.6 337 85.8 C 336.7 86.1 336.4 86.5 336.3 87 C 336 87.7 335.9 88.6 335.9 89.4 C 335.91 89.44 335.9 96 335.9 96 L 333.8 96 Z M 356.6 96 C 356.6 96 356.55 94.39 356.6 94.4 C 355.8 95.6 354.6 96.2 353.1 96.2 C 352.1 96.2 351.2 96 350.3 95.4 C 349.5 94.9 348.9 94.1 348.4 93.1 C 347.9 92.1 347.7 91 347.7 89.7 C 347.7 88.5 347.9 87.4 348.3 86.4 C 348.8 85.4 349.4 84.6 350.2 84 C 351 83.5 352 83.2 353 83.2 C 353.7 83.2 354.4 83.4 355 83.7 C 355.6 84 356 84.4 356.4 84.9 C 356.41 84.94 356.4 78.8 356.4 78.8 L 358.5 78.8 L 358.5 96 L 356.6 96 Z M 349.9 89.7 C 349.9 91.3 350.2 92.5 350.9 93.3 C 351.6 94.1 352.4 94.5 353.3 94.5 C 354.2 94.5 355 94.1 355.6 93.4 C 356.3 92.6 356.6 91.5 356.6 89.9 C 356.6 88.2 356.3 87 355.6 86.2 C 354.9 85.4 354.1 85 353.2 85 C 352.2 85 351.5 85.4 350.8 86.1 C 350.2 86.9 349.9 88.1 349.9 89.7 Z M 370.3 92 C 370.3 92 372.5 92.2 372.5 92.2 C 372.2 93.5 371.5 94.5 370.6 95.2 C 369.7 95.9 368.5 96.2 367.1 96.2 C 365.2 96.2 363.8 95.7 362.7 94.6 C 361.7 93.4 361.1 91.9 361.1 89.8 C 361.1 87.7 361.7 86.1 362.7 85 C 363.8 83.8 365.2 83.2 366.9 83.2 C 368.6 83.2 370 83.8 371 84.9 C 372.1 86.1 372.6 87.7 372.6 89.7 C 372.6 89.8 372.6 90 372.6 90.3 C 372.6 90.3 363.3 90.3 363.3 90.3 C 363.4 91.6 363.8 92.7 364.5 93.4 C 365.2 94.1 366 94.5 367.1 94.5 C 367.8 94.5 368.5 94.3 369 93.9 C 369.6 93.5 370 92.8 370.3 92 Z M 363.4 88.5 C 363.4 88.5 370.4 88.5 370.4 88.5 C 370.3 87.5 370 86.7 369.6 86.2 C 368.9 85.4 368 85 367 85 C 366 85 365.2 85.3 364.5 85.9 C 363.9 86.6 363.5 87.5 363.4 88.5 Z M 375.1 96 L 375.1 78.8 L 377.2 78.8 L 377.2 96 L 375.1 96 Z M 380.5 81.2 L 380.5 78.8 L 382.6 78.8 L 382.6 81.2 L 380.5 81.2 Z M 380.5 96 L 380.5 83.5 L 382.6 83.5 L 382.6 96 L 380.5 96 Z M 389.3 96 L 384.6 83.5 L 386.8 83.5 C 386.8 83.5 389.46 90.97 389.5 91 C 389.7 91.8 390 92.6 390.3 93.5 C 390.4 92.8 390.7 92 391 91.1 C 391.04 91.11 393.8 83.5 393.8 83.5 L 396 83.5 L 391.3 96 L 389.3 96 Z M 406.4 92 C 406.4 92 408.5 92.2 408.5 92.2 C 408.2 93.5 407.6 94.5 406.6 95.2 C 405.7 95.9 404.5 96.2 403.1 96.2 C 401.2 96.2 399.8 95.7 398.7 94.6 C 397.7 93.4 397.1 91.9 397.1 89.8 C 397.1 87.7 397.7 86.1 398.8 85 C 399.8 83.8 401.2 83.2 402.9 83.2 C 404.6 83.2 406 83.8 407 84.9 C 408.1 86.1 408.6 87.7 408.6 89.7 C 408.6 89.8 408.6 90 408.6 90.3 C 408.6 90.3 399.3 90.3 399.3 90.3 C 399.4 91.6 399.8 92.7 400.5 93.4 C 401.2 94.1 402 94.5 403.1 94.5 C 403.9 94.5 404.5 94.3 405.1 93.9 C 405.6 93.5 406 92.8 406.4 92 Z M 399.4 88.5 C 399.4 88.5 406.4 88.5 406.4 88.5 C 406.3 87.5 406 86.7 405.6 86.2 C 404.9 85.4 404 85 403 85 C 402 85 401.2 85.3 400.5 85.9 C 399.9 86.6 399.5 87.5 399.4 88.5 Z M 411.2 96 L 411.2 83.5 L 413.1 83.5 C 413.1 83.5 413.06 85.4 413.1 85.4 C 413.5 84.5 414 83.9 414.4 83.7 C 414.8 83.4 415.3 83.2 415.8 83.2 C 416.5 83.2 417.2 83.5 417.9 83.9 C 417.9 83.9 417.2 85.9 417.2 85.9 C 416.7 85.6 416.2 85.4 415.7 85.4 C 415.2 85.4 414.8 85.6 414.4 85.8 C 414 86.1 413.8 86.5 413.6 87 C 413.4 87.7 413.3 88.6 413.3 89.4 C 413.27 89.44 413.3 96 413.3 96 L 411.2 96 Z M 419.2 81.2 L 419.2 78.8 L 421.3 78.8 L 421.3 81.2 L 419.2 81.2 Z M 419.2 96 L 419.2 83.5 L 421.3 83.5 L 421.3 96 L 419.2 96 Z M 424.5 96 L 424.5 83.5 L 426.4 83.5 C 426.4 83.5 426.41 85.28 426.4 85.3 C 427.3 83.9 428.6 83.2 430.4 83.2 C 431.1 83.2 431.8 83.4 432.4 83.6 C 433.1 83.9 433.5 84.3 433.9 84.7 C 434.2 85.1 434.4 85.7 434.5 86.3 C 434.6 86.6 434.6 87.3 434.6 88.3 C 434.63 88.31 434.6 96 434.6 96 L 432.5 96 C 432.5 96 432.52 88.39 432.5 88.4 C 432.5 87.5 432.4 86.9 432.3 86.5 C 432.1 86 431.8 85.7 431.4 85.4 C 431 85.2 430.5 85.1 429.9 85.1 C 429 85.1 428.3 85.3 427.6 85.9 C 426.9 86.5 426.6 87.6 426.6 89.2 C 426.62 89.16 426.6 96 426.6 96 L 424.5 96 Z M 437.5 97 C 437.5 97 439.5 97.3 439.5 97.3 C 439.6 97.9 439.8 98.4 440.2 98.7 C 440.8 99.1 441.5 99.3 442.4 99.3 C 443.4 99.3 444.1 99.1 444.6 98.7 C 445.2 98.3 445.5 97.7 445.7 97 C 445.8 96.6 445.9 95.7 445.9 94.3 C 445 95.4 443.8 96 442.4 96 C 440.7 96 439.4 95.3 438.5 94.1 C 437.5 92.9 437.1 91.4 437.1 89.7 C 437.1 88.5 437.3 87.4 437.7 86.4 C 438.1 85.4 438.7 84.6 439.6 84.1 C 440.4 83.5 441.3 83.2 442.4 83.2 C 443.9 83.2 445.1 83.8 446.1 85 C 446.07 85.01 446.1 83.5 446.1 83.5 L 448 83.5 C 448 83.5 448.02 94.27 448 94.3 C 448 96.2 447.8 97.6 447.4 98.4 C 447 99.2 446.4 99.8 445.6 100.3 C 444.7 100.8 443.6 101 442.4 101 C 440.9 101 439.7 100.7 438.8 100 C 437.9 99.3 437.4 98.3 437.5 97 Z M 439.2 89.5 C 439.2 91.1 439.5 92.3 440.2 93.1 C 440.8 93.8 441.7 94.2 442.6 94.2 C 443.6 94.2 444.4 93.8 445.1 93.1 C 445.7 92.3 446.1 91.2 446.1 89.6 C 446.1 88.1 445.7 86.9 445 86.1 C 444.4 85.4 443.5 85 442.6 85 C 441.7 85 440.9 85.4 440.2 86.1 C 439.5 86.9 439.2 88 439.2 89.5 Z M 466.4 96 C 466.2 95.5 466.1 95 466 94.4 C 465.2 95.1 464.5 95.6 463.7 95.8 C 463 96.1 462.2 96.2 461.4 96.2 C 460 96.2 459 95.9 458.3 95.2 C 457.5 94.6 457.2 93.7 457.2 92.7 C 457.2 92.1 457.3 91.5 457.6 91 C 457.9 90.5 458.2 90.1 458.7 89.8 C 459.1 89.5 459.6 89.3 460.2 89.1 C 460.6 89 461.2 88.9 462.1 88.8 C 463.8 88.6 465 88.3 465.8 88.1 C 465.8 87.8 465.8 87.6 465.8 87.5 C 465.8 86.7 465.6 86 465.2 85.7 C 464.7 85.2 463.9 85 462.8 85 C 461.8 85 461.1 85.2 460.6 85.5 C 460.2 85.8 459.8 86.5 459.6 87.3 C 459.6 87.3 457.5 87.1 457.5 87.1 C 457.7 86.2 458 85.5 458.4 84.9 C 458.9 84.4 459.5 84 460.3 83.7 C 461.1 83.4 462.1 83.2 463.1 83.2 C 464.2 83.2 465.1 83.4 465.7 83.6 C 466.4 83.9 466.9 84.2 467.2 84.6 C 467.5 84.9 467.7 85.4 467.8 86 C 467.9 86.3 468 87 468 87.9 C 468 87.9 468 90.7 468 90.7 C 468 92.7 468 93.9 468.1 94.5 C 468.2 95 468.4 95.5 468.6 96 C 468.62 95.96 466.4 96 466.4 96 C 466.4 96 466.42 95.96 466.4 96 Z M 465.8 89.7 C 465.1 90 463.9 90.3 462.4 90.5 C 461.5 90.6 460.9 90.8 460.5 90.9 C 460.2 91.1 459.9 91.3 459.7 91.6 C 459.5 91.9 459.4 92.3 459.4 92.6 C 459.4 93.2 459.6 93.7 460 94 C 460.5 94.4 461.1 94.6 461.9 94.6 C 462.7 94.6 463.5 94.4 464.1 94.1 C 464.7 93.7 465.2 93.2 465.5 92.6 C 465.7 92.1 465.8 91.4 465.8 90.5 C 465.8 90.5 465.8 89.7 465.8 89.7 Z M 470.8 97 C 470.8 97 472.9 97.3 472.9 97.3 C 473 97.9 473.2 98.4 473.6 98.7 C 474.1 99.1 474.8 99.3 475.7 99.3 C 476.7 99.3 477.5 99.1 478 98.7 C 478.5 98.3 478.9 97.7 479.1 97 C 479.2 96.6 479.2 95.7 479.2 94.3 C 478.3 95.4 477.2 96 475.8 96 C 474.1 96 472.8 95.3 471.8 94.1 C 470.9 92.9 470.4 91.4 470.4 89.7 C 470.4 88.5 470.6 87.4 471.1 86.4 C 471.5 85.4 472.1 84.6 472.9 84.1 C 473.7 83.5 474.7 83.2 475.8 83.2 C 477.3 83.2 478.5 83.8 479.4 85 C 479.44 85.01 479.4 83.5 479.4 83.5 L 481.4 83.5 C 481.4 83.5 481.38 94.27 481.4 94.3 C 481.4 96.2 481.2 97.6 480.8 98.4 C 480.4 99.2 479.8 99.8 478.9 100.3 C 478.1 100.8 477 101 475.8 101 C 474.3 101 473.1 100.7 472.2 100 C 471.2 99.3 470.8 98.3 470.8 97 Z M 472.6 89.5 C 472.6 91.1 472.9 92.3 473.6 93.1 C 474.2 93.8 475 94.2 476 94.2 C 477 94.2 477.8 93.8 478.4 93.1 C 479.1 92.3 479.4 91.2 479.4 89.6 C 479.4 88.1 479.1 86.9 478.4 86.1 C 477.7 85.4 476.9 85 476 85 C 475 85 474.2 85.4 473.6 86.1 C 472.9 86.9 472.6 88 472.6 89.5 Z M 493.1 96 C 492.9 95.5 492.8 95 492.7 94.4 C 491.9 95.1 491.2 95.6 490.4 95.8 C 489.7 96.1 488.9 96.2 488.1 96.2 C 486.7 96.2 485.7 95.9 485 95.2 C 484.2 94.6 483.9 93.7 483.9 92.7 C 483.9 92.1 484 91.5 484.3 91 C 484.5 90.5 484.9 90.1 485.4 89.8 C 485.8 89.5 486.3 89.3 486.9 89.1 C 487.3 89 487.9 88.9 488.8 88.8 C 490.5 88.6 491.7 88.3 492.5 88.1 C 492.5 87.8 492.5 87.6 492.5 87.5 C 492.5 86.7 492.3 86 491.9 85.7 C 491.4 85.2 490.6 85 489.5 85 C 488.5 85 487.8 85.2 487.3 85.5 C 486.9 85.8 486.5 86.5 486.3 87.3 C 486.3 87.3 484.2 87.1 484.2 87.1 C 484.4 86.2 484.7 85.5 485.1 84.9 C 485.6 84.4 486.2 84 487 83.7 C 487.8 83.4 488.8 83.2 489.8 83.2 C 490.9 83.2 491.8 83.4 492.4 83.6 C 493.1 83.9 493.6 84.2 493.9 84.6 C 494.2 84.9 494.4 85.4 494.5 86 C 494.6 86.3 494.6 87 494.6 87.9 C 494.6 87.9 494.6 90.7 494.6 90.7 C 494.6 92.7 494.7 93.9 494.8 94.5 C 494.9 95 495.1 95.5 495.3 96 C 495.32 95.96 493.1 96 493.1 96 C 493.1 96 493.11 95.96 493.1 96 Z M 492.5 89.7 C 491.7 90 490.6 90.3 489.1 90.5 C 488.2 90.6 487.6 90.8 487.2 90.9 C 486.9 91.1 486.6 91.3 486.4 91.6 C 486.2 91.9 486.1 92.3 486.1 92.6 C 486.1 93.2 486.3 93.7 486.7 94 C 487.2 94.4 487.8 94.6 488.6 94.6 C 489.4 94.6 490.1 94.4 490.8 94.1 C 491.4 93.7 491.9 93.2 492.2 92.6 C 492.4 92.1 492.5 91.4 492.5 90.5 C 492.5 90.5 492.5 89.7 492.5 89.7 Z M 497.9 81.2 L 497.9 78.8 L 500 78.8 L 500 81.2 L 497.9 81.2 Z M 497.9 96 L 497.9 83.5 L 500 83.5 L 500 96 L 497.9 96 Z M 503.3 96 L 503.3 83.5 L 505.1 83.5 C 505.1 83.5 505.15 85.28 505.1 85.3 C 506.1 83.9 507.4 83.2 509.1 83.2 C 509.9 83.2 510.5 83.4 511.2 83.6 C 511.8 83.9 512.3 84.3 512.6 84.7 C 512.9 85.1 513.1 85.7 513.2 86.3 C 513.3 86.6 513.4 87.3 513.4 88.3 C 513.36 88.31 513.4 96 513.4 96 L 511.3 96 C 511.3 96 511.25 88.39 511.3 88.4 C 511.3 87.5 511.2 86.9 511 86.5 C 510.8 86 510.6 85.7 510.1 85.4 C 509.7 85.2 509.2 85.1 508.7 85.1 C 507.8 85.1 507 85.3 506.3 85.9 C 505.7 86.5 505.4 87.6 505.4 89.2 C 505.36 89.16 505.4 96 505.4 96 L 503.3 96 Z M 515.8 92.2 C 515.8 92.2 517.8 91.9 517.8 91.9 C 518 92.8 518.3 93.4 518.8 93.8 C 519.4 94.3 520.1 94.5 521.1 94.5 C 522 94.5 522.8 94.3 523.2 93.9 C 523.7 93.5 523.9 93.1 523.9 92.5 C 523.9 92 523.7 91.7 523.3 91.4 C 523 91.2 522.3 91 521.1 90.7 C 519.6 90.3 518.5 90 517.9 89.7 C 517.3 89.4 516.9 89 516.6 88.5 C 516.3 88 516.1 87.4 516.1 86.8 C 516.1 86.3 516.2 85.8 516.5 85.3 C 516.7 84.8 517.1 84.4 517.5 84.1 C 517.9 83.9 518.3 83.7 518.9 83.5 C 519.4 83.3 520 83.2 520.7 83.2 C 521.7 83.2 522.5 83.4 523.3 83.7 C 524 83.9 524.5 84.3 524.9 84.8 C 525.2 85.3 525.5 85.9 525.6 86.7 C 525.6 86.7 523.6 87 523.6 87 C 523.5 86.4 523.2 85.9 522.7 85.5 C 522.3 85.1 521.7 85 520.8 85 C 519.9 85 519.2 85.1 518.8 85.4 C 518.4 85.8 518.1 86.1 518.1 86.6 C 518.1 86.8 518.2 87.1 518.4 87.3 C 518.6 87.5 518.8 87.7 519.2 87.9 C 519.4 88 520 88.1 521.1 88.4 C 522.6 88.8 523.6 89.1 524.2 89.4 C 524.8 89.6 525.2 90 525.6 90.5 C 525.9 91 526.1 91.6 526.1 92.3 C 526.1 93 525.9 93.7 525.5 94.3 C 525.1 94.9 524.5 95.4 523.7 95.7 C 522.9 96.1 522.1 96.2 521.1 96.2 C 519.5 96.2 518.2 95.9 517.4 95.2 C 516.5 94.6 516 93.6 515.8 92.2 Z M 532.3 94.2 C 532.5 94.2 532.8 94.1 533.2 94.1 C 533.2 94.1 533.5 95.9 533.5 95.9 C 532.9 96.1 532.4 96.1 531.9 96.1 C 531.1 96.1 530.6 96 530.1 95.8 C 529.7 95.5 529.4 95.2 529.2 94.8 C 529.1 94.4 529 93.6 529 92.3 C 528.98 92.32 529 85.2 529 85.2 L 527.4 85.2 L 527.4 83.5 L 529 83.5 L 529 80.4 L 531.1 79.2 L 531.1 83.5 L 533.2 83.5 L 533.2 85.2 L 531.1 85.2 C 531.1 85.2 531.08 92.43 531.1 92.4 C 531.1 93 531.1 93.4 531.2 93.6 C 531.3 93.8 531.4 93.9 531.6 94 C 531.7 94.1 532 94.2 532.3 94.2 C 532.3 94.2 532.3 94.2 532.3 94.2 Z " stroke="none" fill="#ffffff"/>  </g>  <g id="Polygon16367">    <path d="M 1.8 67.2 L 1.8 50 L 4.2 50 L 13.2 63.5 L 13.2 50 L 15.4 50 L 15.4 67.2 L 13 67.2 L 4 53.7 L 4 67.2 L 1.8 67.2 Z M 18.1 60.9 C 18.1 58.6 18.8 56.9 20.1 55.8 C 21.1 54.9 22.4 54.4 24 54.4 C 25.7 54.4 27.1 55 28.2 56.1 C 29.2 57.2 29.8 58.8 29.8 60.8 C 29.8 62.4 29.5 63.6 29.1 64.5 C 28.6 65.5 27.9 66.2 27 66.7 C 26.1 67.2 25.1 67.4 24 67.4 C 22.2 67.4 20.8 66.9 19.7 65.8 C 18.7 64.6 18.1 63 18.1 60.9 Z M 20.3 60.9 C 20.3 62.5 20.6 63.7 21.3 64.5 C 22 65.3 22.9 65.7 24 65.7 C 25 65.7 25.9 65.3 26.6 64.5 C 27.3 63.7 27.6 62.5 27.6 60.9 C 27.6 59.3 27.3 58.2 26.6 57.4 C 25.9 56.6 25 56.2 24 56.2 C 22.9 56.2 22 56.6 21.3 57.4 C 20.6 58.2 20.3 59.3 20.3 60.9 Z M 38.9 67.2 L 38.9 54.7 L 40.8 54.7 C 40.8 54.7 40.8 56.6 40.8 56.6 C 41.3 55.7 41.7 55.1 42.1 54.9 C 42.6 54.6 43 54.4 43.5 54.4 C 44.2 54.4 44.9 54.7 45.7 55.1 C 45.7 55.1 44.9 57.1 44.9 57.1 C 44.4 56.8 43.9 56.6 43.4 56.6 C 42.9 56.6 42.5 56.8 42.2 57 C 41.8 57.3 41.5 57.7 41.4 58.2 C 41.1 58.9 41 59.8 41 60.6 C 41.02 60.64 41 67.2 41 67.2 L 38.9 67.2 Z M 55.4 63.2 C 55.4 63.2 57.6 63.4 57.6 63.4 C 57.3 64.7 56.6 65.7 55.7 66.4 C 54.8 67.1 53.6 67.4 52.1 67.4 C 50.3 67.4 48.9 66.9 47.8 65.8 C 46.8 64.6 46.2 63.1 46.2 61 C 46.2 58.9 46.8 57.3 47.8 56.2 C 48.9 55 50.3 54.4 52 54.4 C 53.7 54.4 55.1 55 56.1 56.1 C 57.2 57.3 57.7 58.9 57.7 60.9 C 57.7 61 57.7 61.2 57.7 61.5 C 57.7 61.5 48.4 61.5 48.4 61.5 C 48.5 62.8 48.9 63.9 49.6 64.6 C 50.3 65.3 51.1 65.7 52.2 65.7 C 52.9 65.7 53.6 65.5 54.1 65.1 C 54.7 64.7 55.1 64 55.4 63.2 Z M 48.5 59.7 C 48.5 59.7 55.5 59.7 55.5 59.7 C 55.4 58.7 55.1 57.9 54.7 57.4 C 54 56.6 53.1 56.2 52.1 56.2 C 51.1 56.2 50.3 56.5 49.6 57.1 C 49 57.8 48.6 58.7 48.5 59.7 Z M 68.3 67.2 C 68.3 67.2 68.34 65.59 68.3 65.6 C 67.6 66.8 66.4 67.4 64.9 67.4 C 63.9 67.4 63 67.2 62.1 66.6 C 61.3 66.1 60.7 65.3 60.2 64.3 C 59.7 63.3 59.5 62.2 59.5 60.9 C 59.5 59.7 59.7 58.6 60.1 57.6 C 60.5 56.6 61.2 55.8 62 55.2 C 62.8 54.7 63.7 54.4 64.8 54.4 C 65.5 54.4 66.2 54.6 66.8 54.9 C 67.4 55.2 67.8 55.6 68.2 56.1 C 68.2 56.14 68.2 50 68.2 50 L 70.3 50 L 70.3 67.2 L 68.3 67.2 Z M 61.7 60.9 C 61.7 62.5 62 63.7 62.7 64.5 C 63.4 65.3 64.1 65.7 65.1 65.7 C 66 65.7 66.8 65.3 67.4 64.6 C 68.1 63.8 68.4 62.7 68.4 61.1 C 68.4 59.4 68.1 58.2 67.4 57.4 C 66.7 56.6 65.9 56.2 65 56.2 C 64 56.2 63.2 56.6 62.6 57.3 C 62 58.1 61.7 59.3 61.7 60.9 Z M 84 65.4 C 84.2 65.4 84.5 65.3 84.9 65.3 C 84.9 65.3 85.2 67.1 85.2 67.1 C 84.6 67.3 84.1 67.3 83.6 67.3 C 82.8 67.3 82.2 67.2 81.8 67 C 81.4 66.7 81.1 66.4 80.9 66 C 80.8 65.6 80.7 64.8 80.7 63.5 C 80.67 63.52 80.7 56.4 80.7 56.4 L 79.1 56.4 L 79.1 54.7 L 80.7 54.7 L 80.7 51.6 L 82.8 50.4 L 82.8 54.7 L 84.9 54.7 L 84.9 56.4 L 82.8 56.4 C 82.8 56.4 82.77 63.63 82.8 63.6 C 82.8 64.2 82.8 64.6 82.9 64.8 C 83 65 83.1 65.1 83.2 65.2 C 83.4 65.3 83.7 65.4 84 65.4 C 84 65.4 84 65.4 84 65.4 Z M 95.5 67.2 C 95.3 66.7 95.1 66.2 95.1 65.6 C 94.3 66.3 93.5 66.8 92.8 67 C 92.1 67.3 91.3 67.4 90.5 67.4 C 89.1 67.4 88.1 67.1 87.3 66.4 C 86.6 65.8 86.2 64.9 86.2 63.9 C 86.2 63.3 86.4 62.7 86.7 62.2 C 86.9 61.7 87.3 61.3 87.7 61 C 88.2 60.7 88.7 60.5 89.3 60.3 C 89.7 60.2 90.3 60.1 91.1 60 C 92.8 59.8 94.1 59.5 94.9 59.3 C 94.9 59 94.9 58.8 94.9 58.7 C 94.9 57.9 94.7 57.2 94.3 56.9 C 93.8 56.4 93 56.2 91.9 56.2 C 90.9 56.2 90.2 56.4 89.7 56.7 C 89.2 57 88.9 57.7 88.7 58.5 C 88.7 58.5 86.6 58.3 86.6 58.3 C 86.8 57.4 87.1 56.7 87.5 56.1 C 88 55.6 88.6 55.2 89.4 54.9 C 90.2 54.6 91.1 54.4 92.2 54.4 C 93.3 54.4 94.1 54.6 94.8 54.8 C 95.5 55.1 96 55.4 96.3 55.8 C 96.6 56.1 96.8 56.6 96.9 57.2 C 97 57.5 97 58.2 97 59.1 C 97 59.1 97 61.9 97 61.9 C 97 63.9 97.1 65.1 97.2 65.7 C 97.3 66.2 97.4 66.7 97.7 67.2 C 97.7 67.16 95.5 67.2 95.5 67.2 C 95.5 67.2 95.5 67.16 95.5 67.2 Z M 94.9 60.9 C 94.1 61.2 93 61.5 91.5 61.7 C 90.6 61.8 90 62 89.6 62.1 C 89.3 62.3 89 62.5 88.8 62.8 C 88.6 63.1 88.5 63.5 88.5 63.8 C 88.5 64.4 88.7 64.9 89.1 65.2 C 89.6 65.6 90.2 65.8 91 65.8 C 91.8 65.8 92.5 65.6 93.2 65.3 C 93.8 64.9 94.3 64.4 94.6 63.8 C 94.8 63.3 94.9 62.6 94.9 61.7 C 94.9 61.7 94.9 60.9 94.9 60.9 Z M 100.3 71.9 L 100.3 54.7 L 102.2 54.7 C 102.2 54.7 102.22 56.33 102.2 56.3 C 102.7 55.7 103.2 55.2 103.8 54.9 C 104.3 54.6 105 54.4 105.8 54.4 C 106.9 54.4 107.8 54.7 108.6 55.3 C 109.5 55.8 110.1 56.6 110.5 57.6 C 110.9 58.6 111.1 59.7 111.1 60.8 C 111.1 62.1 110.9 63.3 110.4 64.3 C 110 65.3 109.3 66.1 108.4 66.6 C 107.6 67.2 106.6 67.4 105.7 67.4 C 105 67.4 104.3 67.3 103.8 67 C 103.2 66.7 102.8 66.3 102.4 65.9 C 102.41 65.87 102.4 71.9 102.4 71.9 L 100.3 71.9 Z M 102.2 61 C 102.2 62.6 102.5 63.8 103.2 64.6 C 103.8 65.3 104.6 65.7 105.5 65.7 C 106.5 65.7 107.3 65.3 107.9 64.5 C 108.6 63.7 108.9 62.5 108.9 60.8 C 108.9 59.2 108.6 58.1 108 57.3 C 107.3 56.5 106.5 56.1 105.6 56.1 C 104.7 56.1 103.9 56.5 103.2 57.3 C 102.6 58.2 102.2 59.4 102.2 61 Z M 122.2 63.2 C 122.2 63.2 124.3 63.4 124.3 63.4 C 124 64.7 123.4 65.7 122.4 66.4 C 121.5 67.1 120.3 67.4 118.9 67.4 C 117.1 67.4 115.6 66.9 114.5 65.8 C 113.5 64.6 112.9 63.1 112.9 61 C 112.9 58.9 113.5 57.3 114.6 56.2 C 115.6 55 117 54.4 118.8 54.4 C 120.4 54.4 121.8 55 122.8 56.1 C 123.9 57.3 124.4 58.9 124.4 60.9 C 124.4 61 124.4 61.2 124.4 61.5 C 124.4 61.5 115.1 61.5 115.1 61.5 C 115.2 62.8 115.6 63.9 116.3 64.6 C 117 65.3 117.8 65.7 118.9 65.7 C 119.7 65.7 120.3 65.5 120.9 65.1 C 121.4 64.7 121.8 64 122.2 63.2 Z M 115.2 59.7 C 115.2 59.7 122.2 59.7 122.2 59.7 C 122.1 58.7 121.8 57.9 121.4 57.4 C 120.7 56.6 119.9 56.2 118.8 56.2 C 117.8 56.2 117 56.5 116.3 57.1 C 115.7 57.8 115.3 58.7 115.2 59.7 Z M 127.5 67.2 L 127.5 64.8 L 129.9 64.8 C 129.9 64.8 129.95 67.16 129.9 67.2 C 129.9 68 129.8 68.8 129.5 69.3 C 129.2 69.8 128.7 70.3 128 70.6 C 128 70.6 127.4 69.7 127.4 69.7 C 127.9 69.5 128.2 69.2 128.4 68.8 C 128.6 68.4 128.7 67.9 128.7 67.2 C 128.74 67.16 127.5 67.2 127.5 67.2 Z M 140.3 67.2 L 140.3 54.7 L 142.2 54.7 C 142.2 54.7 142.23 56.48 142.2 56.5 C 143.1 55.1 144.5 54.4 146.2 54.4 C 146.9 54.4 147.6 54.6 148.3 54.8 C 148.9 55.1 149.4 55.5 149.7 55.9 C 150 56.3 150.2 56.9 150.3 57.5 C 150.4 57.8 150.4 58.5 150.4 59.5 C 150.45 59.51 150.4 67.2 150.4 67.2 L 148.3 67.2 C 148.3 67.2 148.34 59.59 148.3 59.6 C 148.3 58.7 148.3 58.1 148.1 57.7 C 147.9 57.2 147.6 56.9 147.2 56.6 C 146.8 56.4 146.3 56.3 145.7 56.3 C 144.8 56.3 144.1 56.5 143.4 57.1 C 142.8 57.7 142.4 58.8 142.4 60.4 C 142.44 60.36 142.4 67.2 142.4 67.2 L 140.3 67.2 Z M 152.9 60.9 C 152.9 58.6 153.5 56.9 154.8 55.8 C 155.9 54.9 157.2 54.4 158.7 54.4 C 160.4 54.4 161.8 55 162.9 56.1 C 164 57.2 164.6 58.8 164.6 60.8 C 164.6 62.4 164.3 63.6 163.8 64.5 C 163.4 65.5 162.7 66.2 161.7 66.7 C 160.8 67.2 159.8 67.4 158.7 67.4 C 157 67.4 155.6 66.9 154.5 65.8 C 153.4 64.6 152.9 63 152.9 60.9 Z M 155.1 60.9 C 155.1 62.5 155.4 63.7 156.1 64.5 C 156.8 65.3 157.7 65.7 158.7 65.7 C 159.8 65.7 160.6 65.3 161.3 64.5 C 162 63.7 162.4 62.5 162.4 60.9 C 162.4 59.3 162 58.2 161.3 57.4 C 160.6 56.6 159.8 56.2 158.7 56.2 C 157.7 56.2 156.8 56.6 156.1 57.4 C 155.4 58.2 155.1 59.3 155.1 60.9 Z M 167 67.2 L 167 54.7 L 168.9 54.7 C 168.9 54.7 168.93 56.48 168.9 56.5 C 169.8 55.1 171.2 54.4 172.9 54.4 C 173.6 54.4 174.3 54.6 175 54.8 C 175.6 55.1 176.1 55.5 176.4 55.9 C 176.7 56.3 176.9 56.9 177 57.5 C 177.1 57.8 177.1 58.5 177.1 59.5 C 177.14 59.51 177.1 67.2 177.1 67.2 L 175 67.2 C 175 67.2 175.03 59.59 175 59.6 C 175 58.7 174.9 58.1 174.8 57.7 C 174.6 57.2 174.3 56.9 173.9 56.6 C 173.5 56.4 173 56.3 172.4 56.3 C 171.5 56.3 170.8 56.5 170.1 57.1 C 169.5 57.7 169.1 58.8 169.1 60.4 C 169.14 60.36 169.1 67.2 169.1 67.2 L 167 67.2 Z M 179.6 62 L 179.6 59.9 L 186 59.9 L 186 62 L 179.6 62 Z M 190.3 67.2 L 188.4 67.2 L 188.4 50 L 190.5 50 C 190.5 50 190.46 56.11 190.5 56.1 C 191.4 55 192.5 54.4 193.9 54.4 C 194.6 54.4 195.4 54.6 196 54.9 C 196.7 55.2 197.3 55.6 197.7 56.2 C 198.2 56.8 198.5 57.4 198.8 58.2 C 199 59 199.1 59.9 199.1 60.7 C 199.1 62.9 198.6 64.5 197.6 65.7 C 196.5 66.9 195.2 67.4 193.8 67.4 C 192.3 67.4 191.1 66.8 190.3 65.6 C 190.31 65.6 190.3 67.2 190.3 67.2 Z M 190.3 60.8 C 190.3 62.3 190.5 63.4 190.9 64.1 C 191.6 65.2 192.5 65.7 193.6 65.7 C 194.5 65.7 195.3 65.3 196 64.5 C 196.7 63.7 197 62.5 197 60.9 C 197 59.3 196.7 58.1 196 57.3 C 195.4 56.6 194.6 56.2 193.7 56.2 C 192.8 56.2 192 56.6 191.3 57.4 C 190.6 58.2 190.3 59.3 190.3 60.8 Z M 209.9 67.2 C 209.9 67.2 209.87 65.33 209.9 65.3 C 208.9 66.7 207.6 67.4 205.9 67.4 C 205.2 67.4 204.5 67.3 203.9 67 C 203.2 66.7 202.8 66.4 202.4 66 C 202.1 65.5 201.9 65 201.8 64.4 C 201.7 64 201.7 63.3 201.7 62.4 C 201.67 62.43 201.7 54.7 201.7 54.7 L 203.8 54.7 C 203.8 54.7 203.78 61.62 203.8 61.6 C 203.8 62.7 203.8 63.5 203.9 63.8 C 204 64.4 204.3 64.8 204.8 65.1 C 205.2 65.5 205.7 65.6 206.3 65.6 C 207 65.6 207.6 65.5 208.1 65.1 C 208.7 64.8 209.1 64.4 209.3 63.8 C 209.5 63.3 209.6 62.4 209.6 61.4 C 209.65 61.38 209.6 54.7 209.6 54.7 L 211.8 54.7 L 211.8 67.2 L 209.9 67.2 Z M 215 67.2 L 215 54.7 L 216.9 54.7 C 216.9 54.7 216.94 56.6 216.9 56.6 C 217.4 55.7 217.9 55.1 218.3 54.9 C 218.7 54.6 219.1 54.4 219.6 54.4 C 220.3 54.4 221.1 54.7 221.8 55.1 C 221.8 55.1 221.1 57.1 221.1 57.1 C 220.6 56.8 220 56.6 219.5 56.6 C 219.1 56.6 218.7 56.8 218.3 57 C 217.9 57.3 217.7 57.7 217.5 58.2 C 217.3 58.9 217.1 59.8 217.1 60.6 C 217.15 60.64 217.1 67.2 217.1 67.2 L 215 67.2 Z M 231.6 63.2 C 231.6 63.2 233.8 63.4 233.8 63.4 C 233.4 64.7 232.8 65.7 231.8 66.4 C 230.9 67.1 229.7 67.4 228.3 67.4 C 226.5 67.4 225 66.9 224 65.8 C 222.9 64.6 222.4 63.1 222.4 61 C 222.4 58.9 222.9 57.3 224 56.2 C 225 55 226.4 54.4 228.2 54.4 C 229.8 54.4 231.2 55 232.2 56.1 C 233.3 57.3 233.8 58.9 233.8 60.9 C 233.8 61 233.8 61.2 233.8 61.5 C 233.8 61.5 224.5 61.5 224.5 61.5 C 224.6 62.8 225 63.9 225.7 64.6 C 226.4 65.3 227.3 65.7 228.3 65.7 C 229.1 65.7 229.7 65.5 230.3 65.1 C 230.8 64.7 231.3 64 231.6 63.2 Z M 224.6 59.7 C 224.6 59.7 231.6 59.7 231.6 59.7 C 231.5 58.7 231.2 57.9 230.8 57.4 C 230.1 56.6 229.3 56.2 228.2 56.2 C 227.2 56.2 226.4 56.5 225.7 57.1 C 225.1 57.8 224.7 58.7 224.6 59.7 Z M 244.9 67.2 C 244.7 66.7 244.6 66.2 244.5 65.6 C 243.7 66.3 243 66.8 242.3 67 C 241.5 67.3 240.8 67.4 239.9 67.4 C 238.6 67.4 237.5 67.1 236.8 66.4 C 236.1 65.8 235.7 64.9 235.7 63.9 C 235.7 63.3 235.8 62.7 236.1 62.2 C 236.4 61.7 236.7 61.3 237.2 61 C 237.6 60.7 238.1 60.5 238.7 60.3 C 239.1 60.2 239.7 60.1 240.6 60 C 242.3 59.8 243.5 59.5 244.3 59.3 C 244.4 59 244.4 58.8 244.4 58.7 C 244.4 57.9 244.2 57.2 243.8 56.9 C 243.2 56.4 242.4 56.2 241.4 56.2 C 240.4 56.2 239.6 56.4 239.2 56.7 C 238.7 57 238.3 57.7 238.1 58.5 C 238.1 58.5 236.1 58.3 236.1 58.3 C 236.2 57.4 236.5 56.7 237 56.1 C 237.4 55.6 238 55.2 238.8 54.9 C 239.7 54.6 240.6 54.4 241.7 54.4 C 242.7 54.4 243.6 54.6 244.3 54.8 C 244.9 55.1 245.4 55.4 245.7 55.8 C 246 56.1 246.2 56.6 246.4 57.2 C 246.4 57.5 246.5 58.2 246.5 59.1 C 246.5 59.1 246.5 61.9 246.5 61.9 C 246.5 63.9 246.5 65.1 246.6 65.7 C 246.7 66.2 246.9 66.7 247.1 67.2 C 247.15 67.16 244.9 67.2 244.9 67.2 C 244.9 67.2 244.95 67.16 244.9 67.2 Z M 244.3 60.9 C 243.6 61.2 242.4 61.5 240.9 61.7 C 240 61.8 239.4 62 239.1 62.1 C 238.7 62.3 238.4 62.5 238.2 62.8 C 238 63.1 237.9 63.5 237.9 63.8 C 237.9 64.4 238.2 64.9 238.6 65.2 C 239 65.6 239.6 65.8 240.4 65.8 C 241.3 65.8 242 65.6 242.6 65.3 C 243.2 64.9 243.7 64.4 244 63.8 C 244.2 63.3 244.3 62.6 244.3 61.7 C 244.3 61.7 244.3 60.9 244.3 60.9 Z M 257.9 67.2 C 257.9 67.2 257.91 65.33 257.9 65.3 C 256.9 66.7 255.6 67.4 254 67.4 C 253.2 67.4 252.5 67.3 251.9 67 C 251.3 66.7 250.8 66.4 250.5 66 C 250.2 65.5 250 65 249.8 64.4 C 249.7 64 249.7 63.3 249.7 62.4 C 249.7 62.43 249.7 54.7 249.7 54.7 L 251.8 54.7 C 251.8 54.7 251.81 61.62 251.8 61.6 C 251.8 62.7 251.9 63.5 251.9 63.8 C 252.1 64.4 252.4 64.8 252.8 65.1 C 253.2 65.5 253.7 65.6 254.4 65.6 C 255 65.6 255.6 65.5 256.2 65.1 C 256.7 64.8 257.1 64.4 257.3 63.8 C 257.6 63.3 257.7 62.4 257.7 61.4 C 257.68 61.38 257.7 54.7 257.7 54.7 L 259.8 54.7 L 259.8 67.2 L 257.9 67.2 Z M 271.2 62.6 C 271.2 62.6 273.3 62.9 273.3 62.9 C 273.1 64.3 272.5 65.4 271.6 66.2 C 270.6 67 269.5 67.4 268.1 67.4 C 266.4 67.4 265 66.9 264 65.8 C 263 64.7 262.5 63.1 262.5 61 C 262.5 59.6 262.7 58.5 263.1 57.5 C 263.6 56.4 264.2 55.7 265.2 55.2 C 266.1 54.7 267.1 54.4 268.1 54.4 C 269.5 54.4 270.6 54.8 271.4 55.5 C 272.3 56.1 272.9 57.1 273.1 58.4 C 273.1 58.4 271 58.7 271 58.7 C 270.8 57.9 270.5 57.2 270 56.8 C 269.5 56.4 268.9 56.2 268.2 56.2 C 267.1 56.2 266.3 56.5 265.6 57.3 C 265 58.1 264.6 59.3 264.6 60.9 C 264.6 62.6 264.9 63.8 265.6 64.6 C 266.2 65.3 267.1 65.7 268.1 65.7 C 268.9 65.7 269.6 65.5 270.2 64.9 C 270.7 64.4 271.1 63.7 271.2 62.6 Z M 275.1 67.2 L 275.1 54.7 L 277 54.7 C 277 54.7 276.97 56.6 277 56.6 C 277.5 55.7 277.9 55.1 278.3 54.9 C 278.7 54.6 279.2 54.4 279.7 54.4 C 280.4 54.4 281.1 54.7 281.8 55.1 C 281.8 55.1 281.1 57.1 281.1 57.1 C 280.6 56.8 280.1 56.6 279.6 56.6 C 279.1 56.6 278.7 56.8 278.3 57 C 278 57.3 277.7 57.7 277.5 58.2 C 277.3 58.9 277.2 59.8 277.2 60.6 C 277.18 60.64 277.2 67.2 277.2 67.2 L 275.1 67.2 Z M 291.6 67.2 C 291.4 66.7 291.3 66.2 291.2 65.6 C 290.4 66.3 289.7 66.8 289 67 C 288.2 67.3 287.5 67.4 286.6 67.4 C 285.3 67.4 284.2 67.1 283.5 66.4 C 282.7 65.8 282.4 64.9 282.4 63.9 C 282.4 63.3 282.5 62.7 282.8 62.2 C 283.1 61.7 283.4 61.3 283.9 61 C 284.3 60.7 284.8 60.5 285.4 60.3 C 285.8 60.2 286.4 60.1 287.3 60 C 289 59.8 290.2 59.5 291 59.3 C 291 59 291 58.8 291 58.7 C 291 57.9 290.8 57.2 290.4 56.9 C 289.9 56.4 289.1 56.2 288 56.2 C 287.1 56.2 286.3 56.4 285.8 56.7 C 285.4 57 285 57.7 284.8 58.5 C 284.8 58.5 282.7 58.3 282.7 58.3 C 282.9 57.4 283.2 56.7 283.7 56.1 C 284.1 55.6 284.7 55.2 285.5 54.9 C 286.3 54.6 287.3 54.4 288.4 54.4 C 289.4 54.4 290.3 54.6 290.9 54.8 C 291.6 55.1 292.1 55.4 292.4 55.8 C 292.7 56.1 292.9 56.6 293.1 57.2 C 293.1 57.5 293.2 58.2 293.2 59.1 C 293.2 59.1 293.2 61.9 293.2 61.9 C 293.2 63.9 293.2 65.1 293.3 65.7 C 293.4 66.2 293.6 66.7 293.8 67.2 C 293.84 67.16 291.6 67.2 291.6 67.2 C 291.6 67.2 291.63 67.16 291.6 67.2 Z M 291 60.9 C 290.3 61.2 289.1 61.5 287.6 61.7 C 286.7 61.8 286.1 62 285.8 62.1 C 285.4 62.3 285.1 62.5 284.9 62.8 C 284.7 63.1 284.6 63.5 284.6 63.8 C 284.6 64.4 284.8 64.9 285.3 65.2 C 285.7 65.6 286.3 65.8 287.1 65.8 C 287.9 65.8 288.7 65.6 289.3 65.3 C 289.9 64.9 290.4 64.4 290.7 63.8 C 290.9 63.3 291 62.6 291 61.7 C 291 61.7 291 60.9 291 60.9 Z M 300.1 65.4 C 300.4 65.4 300.7 65.3 301 65.3 C 301 65.3 301.3 67.1 301.3 67.1 C 300.8 67.3 300.2 67.3 299.8 67.3 C 299 67.3 298.4 67.2 298 67 C 297.6 66.7 297.3 66.4 297.1 66 C 296.9 65.6 296.8 64.8 296.8 63.5 C 296.82 63.52 296.8 56.4 296.8 56.4 L 295.3 56.4 L 295.3 54.7 L 296.8 54.7 L 296.8 51.6 L 298.9 50.4 L 298.9 54.7 L 301 54.7 L 301 56.4 L 298.9 56.4 C 298.9 56.4 298.92 63.63 298.9 63.6 C 298.9 64.2 299 64.6 299 64.8 C 299.1 65 299.2 65.1 299.4 65.2 C 299.6 65.3 299.8 65.4 300.1 65.4 C 300.1 65.4 300.1 65.4 300.1 65.4 Z M 303.1 52.4 L 303.1 50 L 305.2 50 L 305.2 52.4 L 303.1 52.4 Z M 303.1 67.2 L 303.1 54.7 L 305.2 54.7 L 305.2 67.2 L 303.1 67.2 Z M 316.6 62.6 C 316.6 62.6 318.6 62.9 318.6 62.9 C 318.4 64.3 317.8 65.4 316.9 66.2 C 316 67 314.8 67.4 313.5 67.4 C 311.7 67.4 310.4 66.9 309.3 65.8 C 308.3 64.7 307.8 63.1 307.8 61 C 307.8 59.6 308 58.5 308.5 57.5 C 308.9 56.4 309.6 55.7 310.5 55.2 C 311.4 54.7 312.4 54.4 313.5 54.4 C 314.8 54.4 315.9 54.8 316.8 55.5 C 317.6 56.1 318.2 57.1 318.4 58.4 C 318.4 58.4 316.4 58.7 316.4 58.7 C 316.2 57.9 315.8 57.2 315.3 56.8 C 314.8 56.4 314.3 56.2 313.5 56.2 C 312.5 56.2 311.6 56.5 311 57.3 C 310.3 58.1 310 59.3 310 60.9 C 310 62.6 310.3 63.8 310.9 64.6 C 311.6 65.3 312.4 65.7 313.4 65.7 C 314.3 65.7 314.9 65.5 315.5 64.9 C 316.1 64.4 316.4 63.7 316.6 62.6 Z M 321 67.2 L 321 64.8 L 323.4 64.8 C 323.4 64.8 323.39 67.16 323.4 67.2 C 323.4 68 323.2 68.8 322.9 69.3 C 322.6 69.8 322.1 70.3 321.4 70.6 C 321.4 70.6 320.8 69.7 320.8 69.7 C 321.3 69.5 321.6 69.2 321.8 68.8 C 322 68.4 322.2 67.9 322.2 67.2 C 322.18 67.16 321 67.2 321 67.2 Z M 332.9 63.4 C 332.9 63.4 335 63.1 335 63.1 C 335.1 64 335.5 64.6 336 65 C 336.5 65.5 337.3 65.7 338.2 65.7 C 339.2 65.7 339.9 65.5 340.4 65.1 C 340.9 64.7 341.1 64.3 341.1 63.7 C 341.1 63.2 340.9 62.9 340.5 62.6 C 340.2 62.4 339.5 62.2 338.3 61.9 C 336.8 61.5 335.7 61.2 335.1 60.9 C 334.5 60.6 334.1 60.2 333.7 59.7 C 333.4 59.2 333.3 58.6 333.3 58 C 333.3 57.5 333.4 57 333.7 56.5 C 333.9 56 334.3 55.6 334.7 55.3 C 335 55.1 335.5 54.9 336 54.7 C 336.6 54.5 337.2 54.4 337.9 54.4 C 338.8 54.4 339.7 54.6 340.4 54.9 C 341.2 55.1 341.7 55.5 342.1 56 C 342.4 56.5 342.7 57.1 342.8 57.9 C 342.8 57.9 340.7 58.2 340.7 58.2 C 340.6 57.6 340.4 57.1 339.9 56.7 C 339.5 56.3 338.8 56.2 338 56.2 C 337 56.2 336.4 56.3 335.9 56.6 C 335.5 57 335.3 57.3 335.3 57.8 C 335.3 58 335.4 58.3 335.6 58.5 C 335.7 58.7 336 58.9 336.4 59.1 C 336.6 59.2 337.2 59.3 338.3 59.6 C 339.7 60 340.8 60.3 341.4 60.6 C 342 60.8 342.4 61.2 342.8 61.7 C 343.1 62.2 343.3 62.8 343.3 63.5 C 343.3 64.2 343.1 64.9 342.7 65.5 C 342.2 66.1 341.6 66.6 340.9 66.9 C 340.1 67.3 339.2 67.4 338.3 67.4 C 336.6 67.4 335.4 67.1 334.6 66.4 C 333.7 65.8 333.2 64.8 332.9 63.4 Z M 345 60.9 C 345 58.6 345.6 56.9 346.9 55.8 C 348 54.9 349.3 54.4 350.8 54.4 C 352.5 54.4 353.9 55 355 56.1 C 356.1 57.2 356.6 58.8 356.6 60.8 C 356.6 62.4 356.4 63.6 355.9 64.5 C 355.4 65.5 354.7 66.2 353.8 66.7 C 352.9 67.2 351.9 67.4 350.8 67.4 C 349.1 67.4 347.7 66.9 346.6 65.8 C 345.5 64.6 345 63 345 60.9 Z M 347.2 60.9 C 347.2 62.5 347.5 63.7 348.2 64.5 C 348.9 65.3 349.8 65.7 350.8 65.7 C 351.9 65.7 352.7 65.3 353.4 64.5 C 354.1 63.7 354.5 62.5 354.5 60.9 C 354.5 59.3 354.1 58.2 353.4 57.4 C 352.7 56.6 351.9 56.2 350.8 56.2 C 349.8 56.2 348.9 56.6 348.2 57.4 C 347.5 58.2 347.2 59.3 347.2 60.9 Z M 359.1 67.2 L 359.1 50 L 361.2 50 L 361.2 67.2 L 359.1 67.2 Z M 372.6 67.2 C 372.6 67.2 372.61 65.33 372.6 65.3 C 371.6 66.7 370.3 67.4 368.7 67.4 C 367.9 67.4 367.2 67.3 366.6 67 C 366 66.7 365.5 66.4 365.2 66 C 364.9 65.5 364.7 65 364.5 64.4 C 364.4 64 364.4 63.3 364.4 62.4 C 364.41 62.43 364.4 54.7 364.4 54.7 L 366.5 54.7 C 366.5 54.7 366.52 61.62 366.5 61.6 C 366.5 62.7 366.6 63.5 366.6 63.8 C 366.8 64.4 367.1 64.8 367.5 65.1 C 367.9 65.5 368.4 65.6 369.1 65.6 C 369.7 65.6 370.3 65.5 370.9 65.1 C 371.4 64.8 371.8 64.4 372 63.8 C 372.3 63.3 372.4 62.4 372.4 61.4 C 372.39 61.38 372.4 54.7 372.4 54.7 L 374.5 54.7 L 374.5 67.2 L 372.6 67.2 Z M 381.5 65.4 C 381.7 65.4 382 65.3 382.4 65.3 C 382.4 65.3 382.7 67.1 382.7 67.1 C 382.1 67.3 381.6 67.3 381.1 67.3 C 380.4 67.3 379.8 67.2 379.3 67 C 378.9 66.7 378.6 66.4 378.4 66 C 378.3 65.6 378.2 64.8 378.2 63.5 C 378.19 63.52 378.2 56.4 378.2 56.4 L 376.6 56.4 L 376.6 54.7 L 378.2 54.7 L 378.2 51.6 L 380.3 50.4 L 380.3 54.7 L 382.4 54.7 L 382.4 56.4 L 380.3 56.4 C 380.3 56.4 380.29 63.63 380.3 63.6 C 380.3 64.2 380.3 64.6 380.4 64.8 C 380.5 65 380.6 65.1 380.8 65.2 C 380.9 65.3 381.2 65.4 381.5 65.4 C 381.5 65.4 381.5 65.4 381.5 65.4 Z M 384.5 52.4 L 384.5 50 L 386.6 50 L 386.6 52.4 L 384.5 52.4 Z M 384.5 67.2 L 384.5 54.7 L 386.6 54.7 L 386.6 67.2 L 384.5 67.2 Z M 389 60.9 C 389 58.6 389.7 56.9 390.9 55.8 C 392 54.9 393.3 54.4 394.9 54.4 C 396.6 54.4 398 55 399 56.1 C 400.1 57.2 400.7 58.8 400.7 60.8 C 400.7 62.4 400.4 63.6 400 64.5 C 399.5 65.5 398.8 66.2 397.9 66.7 C 396.9 67.2 395.9 67.4 394.9 67.4 C 393.1 67.4 391.7 66.9 390.6 65.8 C 389.6 64.6 389 63 389 60.9 Z M 391.2 60.9 C 391.2 62.5 391.5 63.7 392.2 64.5 C 392.9 65.3 393.8 65.7 394.9 65.7 C 395.9 65.7 396.8 65.3 397.5 64.5 C 398.2 63.7 398.5 62.5 398.5 60.9 C 398.5 59.3 398.2 58.2 397.5 57.4 C 396.8 56.6 395.9 56.2 394.9 56.2 C 393.8 56.2 392.9 56.6 392.2 57.4 C 391.5 58.2 391.2 59.3 391.2 60.9 Z M 403.1 67.2 L 403.1 54.7 L 405 54.7 C 405 54.7 405.05 56.48 405 56.5 C 406 55.1 407.3 54.4 409 54.4 C 409.8 54.4 410.4 54.6 411.1 54.8 C 411.7 55.1 412.2 55.5 412.5 55.9 C 412.8 56.3 413 56.9 413.1 57.5 C 413.2 57.8 413.3 58.5 413.3 59.5 C 413.26 59.51 413.3 67.2 413.3 67.2 L 411.2 67.2 C 411.2 67.2 411.15 59.59 411.2 59.6 C 411.2 58.7 411.1 58.1 410.9 57.7 C 410.7 57.2 410.5 56.9 410 56.6 C 409.6 56.4 409.1 56.3 408.6 56.3 C 407.7 56.3 406.9 56.5 406.2 57.1 C 405.6 57.7 405.3 58.8 405.3 60.4 C 405.26 60.36 405.3 67.2 405.3 67.2 L 403.1 67.2 Z M 415.7 62 L 415.7 59.9 L 422.2 59.9 L 422.2 62 L 415.7 62 Z M 423.7 60.9 C 423.7 58.6 424.3 56.9 425.6 55.8 C 426.7 54.9 428 54.4 429.5 54.4 C 431.3 54.4 432.6 55 433.7 56.1 C 434.8 57.2 435.4 58.8 435.4 60.8 C 435.4 62.4 435.1 63.6 434.6 64.5 C 434.2 65.5 433.5 66.2 432.5 66.7 C 431.6 67.2 430.6 67.4 429.5 67.4 C 427.8 67.4 426.4 66.9 425.3 65.8 C 424.2 64.6 423.7 63 423.7 60.9 Z M 425.9 60.9 C 425.9 62.5 426.2 63.7 426.9 64.5 C 427.6 65.3 428.5 65.7 429.5 65.7 C 430.6 65.7 431.5 65.3 432.2 64.5 C 432.8 63.7 433.2 62.5 433.2 60.9 C 433.2 59.3 432.8 58.2 432.1 57.4 C 431.4 56.6 430.6 56.2 429.5 56.2 C 428.5 56.2 427.6 56.6 426.9 57.4 C 426.2 58.2 425.9 59.3 425.9 60.9 Z M 437.8 67.2 L 437.8 54.7 L 439.7 54.7 C 439.7 54.7 439.71 56.6 439.7 56.6 C 440.2 55.7 440.6 55.1 441.1 54.9 C 441.5 54.6 441.9 54.4 442.4 54.4 C 443.1 54.4 443.8 54.7 444.6 55.1 C 444.6 55.1 443.8 57.1 443.8 57.1 C 443.3 56.8 442.8 56.6 442.3 56.6 C 441.8 56.6 441.4 56.8 441.1 57 C 440.7 57.3 440.4 57.7 440.3 58.2 C 440 58.9 439.9 59.8 439.9 60.6 C 439.92 60.64 439.9 67.2 439.9 67.2 L 437.8 67.2 Z M 445.8 52.4 L 445.8 50 L 447.9 50 L 447.9 52.4 L 445.8 52.4 Z M 445.8 67.2 L 445.8 54.7 L 447.9 54.7 L 447.9 67.2 L 445.8 67.2 Z M 459.7 63.2 C 459.7 63.2 461.9 63.4 461.9 63.4 C 461.5 64.7 460.9 65.7 459.9 66.4 C 459 67.1 457.8 67.4 456.4 67.4 C 454.6 67.4 453.1 66.9 452.1 65.8 C 451 64.6 450.5 63.1 450.5 61 C 450.5 58.9 451 57.3 452.1 56.2 C 453.2 55 454.6 54.4 456.3 54.4 C 457.9 54.4 459.3 55 460.3 56.1 C 461.4 57.3 461.9 58.9 461.9 60.9 C 461.9 61 461.9 61.2 461.9 61.5 C 461.9 61.5 452.6 61.5 452.6 61.5 C 452.7 62.8 453.1 63.9 453.8 64.6 C 454.5 65.3 455.4 65.7 456.4 65.7 C 457.2 65.7 457.8 65.5 458.4 65.1 C 458.9 64.7 459.4 64 459.7 63.2 Z M 452.8 59.7 C 452.8 59.7 459.7 59.7 459.7 59.7 C 459.6 58.7 459.3 57.9 458.9 57.4 C 458.2 56.6 457.4 56.2 456.3 56.2 C 455.3 56.2 454.5 56.5 453.8 57.1 C 453.2 57.8 452.8 58.7 452.8 59.7 Z M 464.5 67.2 L 464.5 54.7 L 466.4 54.7 C 466.4 54.7 466.41 56.48 466.4 56.5 C 467.3 55.1 468.6 54.4 470.4 54.4 C 471.1 54.4 471.8 54.6 472.4 54.8 C 473.1 55.1 473.5 55.5 473.8 55.9 C 474.2 56.3 474.4 56.9 474.5 57.5 C 474.6 57.8 474.6 58.5 474.6 59.5 C 474.62 59.51 474.6 67.2 474.6 67.2 L 472.5 67.2 C 472.5 67.2 472.51 59.59 472.5 59.6 C 472.5 58.7 472.4 58.1 472.3 57.7 C 472.1 57.2 471.8 56.9 471.4 56.6 C 471 56.4 470.5 56.3 469.9 56.3 C 469 56.3 468.2 56.5 467.6 57.1 C 466.9 57.7 466.6 58.8 466.6 60.4 C 466.62 60.36 466.6 67.2 466.6 67.2 L 464.5 67.2 Z M 481.5 65.4 C 481.8 65.4 482.1 65.3 482.5 65.3 C 482.5 65.3 482.8 67.1 482.8 67.1 C 482.2 67.3 481.6 67.3 481.2 67.3 C 480.4 67.3 479.8 67.2 479.4 67 C 479 66.7 478.7 66.4 478.5 66 C 478.3 65.6 478.2 64.8 478.2 63.5 C 478.24 63.52 478.2 56.4 478.2 56.4 L 476.7 56.4 L 476.7 54.7 L 478.2 54.7 L 478.2 51.6 L 480.3 50.4 L 480.3 54.7 L 482.5 54.7 L 482.5 56.4 L 480.3 56.4 C 480.3 56.4 480.34 63.63 480.3 63.6 C 480.3 64.2 480.4 64.6 480.5 64.8 C 480.5 65 480.6 65.1 480.8 65.2 C 481 65.3 481.2 65.4 481.5 65.4 C 481.5 65.4 481.5 65.4 481.5 65.4 Z M 493 63.2 C 493 63.2 495.2 63.4 495.2 63.4 C 494.9 64.7 494.2 65.7 493.3 66.4 C 492.4 67.1 491.2 67.4 489.8 67.4 C 487.9 67.4 486.5 66.9 485.4 65.8 C 484.4 64.6 483.8 63.1 483.8 61 C 483.8 58.9 484.4 57.3 485.4 56.2 C 486.5 55 487.9 54.4 489.6 54.4 C 491.3 54.4 492.7 55 493.7 56.1 C 494.8 57.3 495.3 58.9 495.3 60.9 C 495.3 61 495.3 61.2 495.3 61.5 C 495.3 61.5 486 61.5 486 61.5 C 486.1 62.8 486.5 63.9 487.2 64.6 C 487.9 65.3 488.7 65.7 489.8 65.7 C 490.5 65.7 491.2 65.5 491.7 65.1 C 492.3 64.7 492.7 64 493 63.2 Z M 486.1 59.7 C 486.1 59.7 493.1 59.7 493.1 59.7 C 493 58.7 492.7 57.9 492.3 57.4 C 491.6 56.6 490.7 56.2 489.7 56.2 C 488.7 56.2 487.9 56.5 487.2 57.1 C 486.6 57.8 486.2 58.7 486.1 59.7 Z M 505.9 67.2 C 505.9 67.2 505.95 65.59 505.9 65.6 C 505.2 66.8 504 67.4 502.5 67.4 C 501.5 67.4 500.6 67.2 499.7 66.6 C 498.9 66.1 498.3 65.3 497.8 64.3 C 497.3 63.3 497.1 62.2 497.1 60.9 C 497.1 59.7 497.3 58.6 497.7 57.6 C 498.1 56.6 498.8 55.8 499.6 55.2 C 500.4 54.7 501.3 54.4 502.4 54.4 C 503.1 54.4 503.8 54.6 504.4 54.9 C 505 55.2 505.4 55.6 505.8 56.1 C 505.8 56.14 505.8 50 505.8 50 L 507.9 50 L 507.9 67.2 L 505.9 67.2 Z M 499.3 60.9 C 499.3 62.5 499.6 63.7 500.3 64.5 C 501 65.3 501.8 65.7 502.7 65.7 C 503.6 65.7 504.4 65.3 505 64.6 C 505.7 63.8 506 62.7 506 61.1 C 506 59.4 505.7 58.2 505 57.4 C 504.3 56.6 503.5 56.2 502.6 56.2 C 501.6 56.2 500.8 56.6 500.2 57.3 C 499.6 58.1 499.3 59.3 499.3 60.9 Z M 511.8 67.2 L 511.8 64.8 L 514.2 64.8 C 514.2 64.8 514.17 67.16 514.2 67.2 C 514.2 68 514 68.8 513.7 69.3 C 513.4 69.8 512.9 70.3 512.2 70.6 C 512.2 70.6 511.6 69.7 511.6 69.7 C 512.1 69.5 512.4 69.2 512.6 68.8 C 512.8 68.4 512.9 67.9 513 67.2 C 512.96 67.16 511.8 67.2 511.8 67.2 Z " stroke="none" fill="#ffffff"/>  </g>  <g id="Polygon16366">    <path d="M 6.1 1.9 L 6.1 29.2 L 3.1 29.2 L 3.1 1.9 L 6.1 1.9 Z M 14.7 1.9 L 34 24.4 L 34 1.9 L 36.9 1.9 L 36.9 29.2 L 34.2 29.2 L 15.1 6.7 L 15.1 29.2 L 12.2 29.2 L 12.2 1.9 L 14.7 1.9 Z M 65.5 3.7 C 65.5 3.7 65.5 6.9 65.5 6.9 C 62.6 5.3 59.5 4.3 56.3 4.3 C 49.3 4.3 44.9 9.6 44.9 15.6 C 44.9 21.7 49.3 26.7 56.2 26.7 C 59.6 26.7 62.8 25.8 65.7 23.9 C 65.7 23.9 65.7 27.2 65.7 27.2 C 62.7 28.8 59.5 29.5 56.2 29.5 C 46.7 29.5 41.8 22.4 41.8 15.6 C 41.8 7.5 48 1.5 56.2 1.5 C 59.3 1.5 62.4 2.3 65.5 3.7 Z M 73.4 1.9 L 73.4 29.2 L 70.4 29.2 L 70.4 1.9 L 73.4 1.9 Z M 92.7 3.3 C 92.7 3.3 92.7 6.7 92.7 6.7 C 90.8 5.1 88.8 4.2 86.5 4.2 C 83.6 4.2 81.8 5.8 81.8 8.2 C 81.8 10 82.2 11.6 86.7 13.8 C 92.4 16.8 93.7 18.7 93.7 22.4 C 93.7 26.5 90.6 29.5 85.9 29.5 C 83.3 29.5 80.9 28.7 78.8 27.1 C 78.8 27.1 78.8 23.4 78.8 23.4 C 80.9 25.6 83.3 26.8 85.9 26.8 C 88.7 26.8 90.7 25.1 90.7 22.5 C 90.7 20.2 89.9 18.8 84.6 16 C 80.4 13.8 78.7 11.8 78.7 8.3 C 78.7 4.4 82 1.5 86.6 1.5 C 88.7 1.5 90.8 2.1 92.7 3.3 Z M 101.4 1.9 L 101.4 29.2 L 98.4 29.2 L 98.4 1.9 L 101.4 1.9 Z M 104.5 1.9 L 107.5 1.9 L 116.4 23.1 L 116.4 23.1 L 125.3 1.9 L 128.3 1.9 L 116.8 29.4 L 116.1 29.4 L 104.5 1.9 Z M 146.3 1.9 L 146.3 4.6 L 134.4 4.6 L 134.4 14.1 L 145.9 14.1 L 145.9 16.8 L 134.4 16.8 L 134.4 26.4 L 146.6 26.4 L 146.6 29.2 L 131.4 29.2 L 131.4 1.9 L 146.3 1.9 Z " stroke="none" fill="#ffffff"/>  </g></svg>