<?xml version="1.0" standalone="no"?><!DOCTYPE svg PUBLIC "-//W3C//DTD SVG 1.1//EN" "http://www.w3.org/Graphics/SVG/1.1/DTD/svg11.dtd"><svg xmlns="http://www.w3.org/2000/svg" version="1.1" width="515px" height="56.5px" viewBox="0 -5 515 56.5" style="top:-5px">  <desc>Service Using a scale of 1 5, clients rated our service performance as follows:</desc>  <defs/>  <g id="Polygon52792">    <path d="M 6.6 34.8 L 7.7 34.8 C 7.7 34.8 7.7 39.75 7.7 39.8 C 7.7 40.6 7.6 41.3 7.4 41.8 C 7.2 42.3 6.9 42.7 6.3 43 C 5.8 43.4 5.2 43.5 4.3 43.5 C 3.5 43.5 2.9 43.4 2.4 43.1 C 1.9 42.8 1.5 42.4 1.3 41.9 C 1.1 41.4 0.9 40.7 0.9 39.8 C 0.94 39.75 0.9 34.8 0.9 34.8 L 2.1 34.8 C 2.1 34.8 2.08 39.75 2.1 39.7 C 2.1 40.5 2.1 41 2.3 41.4 C 2.4 41.7 2.7 42 3 42.2 C 3.3 42.4 3.8 42.5 4.2 42.5 C 5.1 42.5 5.7 42.3 6 41.9 C 6.4 41.6 6.6 40.8 6.6 39.7 C 6.56 39.75 6.6 34.8 6.6 34.8 Z M 9 41.5 C 9 41.5 10.1 41.4 10.1 41.4 C 10.1 41.8 10.3 42.1 10.6 42.3 C 10.8 42.5 11.2 42.7 11.7 42.7 C 12.2 42.7 12.5 42.6 12.8 42.4 C 13 42.2 13.1 41.9 13.1 41.7 C 13.1 41.4 13 41.2 12.8 41.1 C 12.7 41 12.3 40.9 11.7 40.7 C 11 40.5 10.4 40.4 10.1 40.2 C 9.8 40.1 9.6 39.9 9.4 39.6 C 9.3 39.4 9.2 39.1 9.2 38.8 C 9.2 38.5 9.3 38.3 9.4 38 C 9.5 37.8 9.7 37.6 9.9 37.5 C 10.1 37.3 10.3 37.2 10.6 37.1 C 10.9 37.1 11.2 37 11.5 37 C 12 37 12.4 37.1 12.8 37.2 C 13.2 37.4 13.4 37.6 13.6 37.8 C 13.8 38 13.9 38.4 14 38.8 C 14 38.8 12.9 38.9 12.9 38.9 C 12.9 38.6 12.8 38.3 12.5 38.2 C 12.3 38 12 37.9 11.6 37.9 C 11.1 37.9 10.7 38 10.5 38.1 C 10.3 38.3 10.2 38.5 10.2 38.7 C 10.2 38.8 10.3 38.9 10.4 39.1 C 10.4 39.2 10.6 39.3 10.8 39.3 C 10.9 39.4 11.2 39.5 11.7 39.6 C 12.4 39.8 13 40 13.3 40.1 C 13.6 40.2 13.8 40.4 14 40.6 C 14.1 40.9 14.2 41.2 14.2 41.6 C 14.2 41.9 14.1 42.2 13.9 42.5 C 13.7 42.9 13.4 43.1 13 43.3 C 12.6 43.4 12.2 43.5 11.7 43.5 C 10.9 43.5 10.3 43.4 9.8 43 C 9.4 42.7 9.2 42.2 9 41.5 Z M 15.5 36 L 15.5 34.8 L 16.5 34.8 L 16.5 36 L 15.5 36 Z M 15.5 43.4 L 15.5 37.2 L 16.5 37.2 L 16.5 43.4 L 15.5 43.4 Z M 18.1 43.4 L 18.1 37.2 L 19.1 37.2 C 19.1 37.2 19.07 38.04 19.1 38 C 19.5 37.4 20.2 37 21.1 37 C 21.4 37 21.8 37.1 22.1 37.2 C 22.4 37.4 22.6 37.5 22.8 37.7 C 22.9 38 23.1 38.2 23.1 38.5 C 23.2 38.7 23.2 39.1 23.2 39.6 C 23.18 39.55 23.2 43.4 23.2 43.4 L 22.1 43.4 C 22.1 43.4 22.13 39.59 22.1 39.6 C 22.1 39.2 22.1 38.8 22 38.6 C 21.9 38.4 21.8 38.2 21.6 38.1 C 21.4 38 21.1 37.9 20.8 37.9 C 20.4 37.9 20 38.1 19.7 38.4 C 19.3 38.6 19.2 39.2 19.2 40 C 19.18 39.98 19.2 43.4 19.2 43.4 L 18.1 43.4 Z M 24.6 43.9 C 24.6 43.9 25.6 44 25.6 44 C 25.7 44.4 25.8 44.6 26 44.7 C 26.2 44.9 26.6 45 27.1 45 C 27.5 45 27.9 44.9 28.2 44.7 C 28.5 44.5 28.6 44.3 28.7 43.9 C 28.8 43.7 28.8 43.3 28.8 42.6 C 28.3 43.1 27.8 43.4 27.1 43.4 C 26.2 43.4 25.6 43.1 25.1 42.5 C 24.6 41.8 24.4 41.1 24.4 40.2 C 24.4 39.6 24.5 39.1 24.7 38.6 C 24.9 38.1 25.2 37.7 25.6 37.4 C 26.1 37.2 26.5 37 27.1 37 C 27.8 37 28.4 37.3 28.9 37.9 C 28.9 37.91 28.9 37.2 28.9 37.2 L 29.9 37.2 C 29.9 37.2 29.88 42.54 29.9 42.5 C 29.9 43.5 29.8 44.2 29.6 44.6 C 29.4 45 29.1 45.3 28.6 45.6 C 28.2 45.8 27.7 45.9 27.1 45.9 C 26.3 45.9 25.7 45.7 25.3 45.4 C 24.8 45.1 24.6 44.6 24.6 43.9 Z M 25.5 40.2 C 25.5 41 25.6 41.6 26 41.9 C 26.3 42.3 26.7 42.5 27.2 42.5 C 27.7 42.5 28.1 42.3 28.4 41.9 C 28.7 41.6 28.9 41 28.9 40.2 C 28.9 39.4 28.7 38.9 28.4 38.5 C 28 38.1 27.6 37.9 27.2 37.9 C 26.7 37.9 26.3 38.1 26 38.5 C 25.6 38.8 25.5 39.4 25.5 40.2 Z M 39.1 43.4 C 39 43.2 38.9 42.9 38.9 42.6 C 38.5 42.9 38.1 43.2 37.7 43.3 C 37.4 43.5 37 43.5 36.6 43.5 C 35.9 43.5 35.4 43.4 35 43 C 34.6 42.7 34.4 42.3 34.4 41.7 C 34.4 41.4 34.5 41.2 34.7 40.9 C 34.8 40.7 35 40.5 35.2 40.3 C 35.4 40.1 35.7 40 36 40 C 36.2 39.9 36.5 39.8 36.9 39.8 C 37.7 39.7 38.4 39.6 38.8 39.4 C 38.8 39.3 38.8 39.2 38.8 39.2 C 38.8 38.7 38.7 38.4 38.5 38.2 C 38.2 38 37.8 37.9 37.3 37.9 C 36.8 37.9 36.4 38 36.2 38.2 C 35.9 38.3 35.8 38.6 35.7 39.1 C 35.7 39.1 34.6 38.9 34.6 38.9 C 34.7 38.5 34.9 38.1 35.1 37.9 C 35.3 37.6 35.6 37.4 36 37.2 C 36.4 37.1 36.9 37 37.4 37 C 38 37 38.4 37.1 38.7 37.2 C 39.1 37.3 39.3 37.5 39.5 37.7 C 39.6 37.9 39.7 38.1 39.8 38.4 C 39.8 38.6 39.8 38.9 39.8 39.4 C 39.8 39.4 39.8 40.8 39.8 40.8 C 39.8 41.8 39.9 42.4 39.9 42.6 C 40 42.9 40 43.1 40.2 43.4 C 40.18 43.38 39.1 43.4 39.1 43.4 C 39.1 43.4 39.08 43.38 39.1 43.4 Z M 38.8 40.3 C 38.4 40.4 37.8 40.5 37.1 40.7 C 36.6 40.7 36.3 40.8 36.1 40.9 C 36 40.9 35.8 41.1 35.7 41.2 C 35.6 41.4 35.6 41.5 35.6 41.7 C 35.6 42 35.7 42.2 35.9 42.4 C 36.1 42.6 36.4 42.7 36.8 42.7 C 37.2 42.7 37.6 42.6 37.9 42.4 C 38.2 42.2 38.5 42 38.6 41.7 C 38.7 41.5 38.8 41.1 38.8 40.6 C 38.8 40.6 38.8 40.3 38.8 40.3 Z M 44.4 41.5 C 44.4 41.5 45.4 41.4 45.4 41.4 C 45.5 41.8 45.7 42.1 45.9 42.3 C 46.2 42.5 46.6 42.7 47 42.7 C 47.5 42.7 47.9 42.6 48.1 42.4 C 48.4 42.2 48.5 41.9 48.5 41.7 C 48.5 41.4 48.4 41.2 48.2 41.1 C 48 41 47.7 40.9 47.1 40.7 C 46.3 40.5 45.8 40.4 45.5 40.2 C 45.2 40.1 45 39.9 44.8 39.6 C 44.6 39.4 44.6 39.1 44.6 38.8 C 44.6 38.5 44.6 38.3 44.8 38 C 44.9 37.8 45.1 37.6 45.3 37.5 C 45.4 37.3 45.7 37.2 45.9 37.1 C 46.2 37.1 46.5 37 46.9 37 C 47.3 37 47.8 37.1 48.1 37.2 C 48.5 37.4 48.8 37.6 49 37.8 C 49.1 38 49.3 38.4 49.3 38.8 C 49.3 38.8 48.3 38.9 48.3 38.9 C 48.2 38.6 48.1 38.3 47.9 38.2 C 47.7 38 47.3 37.9 46.9 37.9 C 46.4 37.9 46.1 38 45.9 38.1 C 45.7 38.3 45.6 38.5 45.6 38.7 C 45.6 38.8 45.6 38.9 45.7 39.1 C 45.8 39.2 45.9 39.3 46.1 39.3 C 46.2 39.4 46.5 39.5 47.1 39.6 C 47.8 39.8 48.3 40 48.6 40.1 C 48.9 40.2 49.1 40.4 49.3 40.6 C 49.5 40.9 49.6 41.2 49.6 41.6 C 49.6 41.9 49.5 42.2 49.3 42.5 C 49 42.9 48.8 43.1 48.4 43.3 C 48 43.4 47.5 43.5 47.1 43.5 C 46.2 43.5 45.6 43.4 45.2 43 C 44.8 42.7 44.5 42.2 44.4 41.5 Z M 54.9 41.1 C 54.9 41.1 55.9 41.2 55.9 41.2 C 55.8 42 55.5 42.5 55 42.9 C 54.6 43.3 54 43.5 53.3 43.5 C 52.5 43.5 51.8 43.2 51.3 42.7 C 50.7 42.1 50.5 41.3 50.5 40.3 C 50.5 39.6 50.6 39 50.8 38.5 C 51 38 51.4 37.6 51.8 37.4 C 52.3 37.1 52.8 37 53.3 37 C 54 37 54.6 37.2 55 37.5 C 55.4 37.9 55.7 38.4 55.8 39 C 55.8 39 54.8 39.1 54.8 39.1 C 54.7 38.7 54.5 38.4 54.3 38.2 C 54 38 53.7 37.9 53.4 37.9 C 52.8 37.9 52.4 38.1 52.1 38.5 C 51.7 38.8 51.6 39.4 51.6 40.3 C 51.6 41.1 51.7 41.7 52.1 42.1 C 52.4 42.5 52.8 42.7 53.3 42.7 C 53.7 42.7 54.1 42.5 54.3 42.3 C 54.6 42 54.8 41.6 54.9 41.1 Z M 61.1 43.4 C 61 43.2 60.9 42.9 60.9 42.6 C 60.5 42.9 60.1 43.2 59.7 43.3 C 59.4 43.5 59 43.5 58.6 43.5 C 57.9 43.5 57.4 43.4 57 43 C 56.6 42.7 56.5 42.3 56.5 41.7 C 56.5 41.4 56.5 41.2 56.7 40.9 C 56.8 40.7 57 40.5 57.2 40.3 C 57.4 40.1 57.7 40 58 40 C 58.2 39.9 58.5 39.8 58.9 39.8 C 59.8 39.7 60.4 39.6 60.8 39.4 C 60.8 39.3 60.8 39.2 60.8 39.2 C 60.8 38.7 60.7 38.4 60.5 38.2 C 60.2 38 59.8 37.9 59.3 37.9 C 58.8 37.9 58.4 38 58.2 38.2 C 58 38.3 57.8 38.6 57.7 39.1 C 57.7 39.1 56.6 38.9 56.6 38.9 C 56.7 38.5 56.9 38.1 57.1 37.9 C 57.3 37.6 57.6 37.4 58 37.2 C 58.4 37.1 58.9 37 59.4 37 C 60 37 60.4 37.1 60.7 37.2 C 61.1 37.3 61.3 37.5 61.5 37.7 C 61.6 37.9 61.7 38.1 61.8 38.4 C 61.8 38.6 61.9 38.9 61.9 39.4 C 61.9 39.4 61.9 40.8 61.9 40.8 C 61.9 41.8 61.9 42.4 61.9 42.6 C 62 42.9 62.1 43.1 62.2 43.4 C 62.19 43.38 61.1 43.4 61.1 43.4 C 61.1 43.4 61.08 43.38 61.1 43.4 Z M 60.8 40.3 C 60.4 40.4 59.8 40.5 59.1 40.7 C 58.6 40.7 58.3 40.8 58.1 40.9 C 58 40.9 57.8 41.1 57.7 41.2 C 57.6 41.4 57.6 41.5 57.6 41.7 C 57.6 42 57.7 42.2 57.9 42.4 C 58.1 42.6 58.4 42.7 58.8 42.7 C 59.2 42.7 59.6 42.6 59.9 42.4 C 60.2 42.2 60.5 42 60.6 41.7 C 60.7 41.5 60.8 41.1 60.8 40.6 C 60.8 40.6 60.8 40.3 60.8 40.3 Z M 63.5 43.4 L 63.5 34.8 L 64.5 34.8 L 64.5 43.4 L 63.5 43.4 Z M 70.4 41.4 C 70.4 41.4 71.5 41.5 71.5 41.5 C 71.3 42.1 71 42.6 70.5 43 C 70.1 43.3 69.5 43.5 68.8 43.5 C 67.9 43.5 67.1 43.2 66.6 42.7 C 66.1 42.1 65.8 41.3 65.8 40.3 C 65.8 39.3 66.1 38.5 66.6 37.9 C 67.1 37.3 67.8 37 68.7 37 C 69.5 37 70.2 37.3 70.7 37.9 C 71.3 38.4 71.5 39.2 71.5 40.3 C 71.5 40.3 71.5 40.4 71.5 40.5 C 71.5 40.5 66.9 40.5 66.9 40.5 C 66.9 41.2 67.1 41.7 67.5 42.1 C 67.8 42.5 68.3 42.7 68.8 42.7 C 69.2 42.7 69.5 42.6 69.8 42.3 C 70 42.1 70.3 41.8 70.4 41.4 Z M 66.9 39.7 C 66.9 39.7 70.4 39.7 70.4 39.7 C 70.4 39.1 70.2 38.8 70 38.5 C 69.7 38.1 69.3 37.9 68.7 37.9 C 68.2 37.9 67.8 38 67.5 38.4 C 67.2 38.7 67 39.1 66.9 39.7 Z M 75.8 40.3 C 75.8 39.1 76.1 38.3 76.7 37.7 C 77.3 37.2 77.9 37 78.7 37 C 79.5 37 80.2 37.3 80.8 37.9 C 81.3 38.4 81.6 39.2 81.6 40.2 C 81.6 41 81.5 41.6 81.2 42.1 C 81 42.5 80.6 42.9 80.2 43.1 C 79.7 43.4 79.2 43.5 78.7 43.5 C 77.8 43.5 77.1 43.2 76.6 42.7 C 76 42.1 75.8 41.3 75.8 40.3 Z M 76.9 40.3 C 76.9 41.1 77 41.7 77.4 42.1 C 77.7 42.5 78.2 42.7 78.7 42.7 C 79.2 42.7 79.6 42.5 80 42.1 C 80.3 41.7 80.5 41 80.5 40.2 C 80.5 39.5 80.3 38.9 80 38.5 C 79.6 38.1 79.2 37.9 78.7 37.9 C 78.2 37.9 77.7 38.1 77.4 38.5 C 77 38.9 76.9 39.5 76.9 40.3 Z M 83.1 43.4 L 83.1 38 L 82.2 38 L 82.2 37.2 L 83.1 37.2 C 83.1 37.2 83.09 36.5 83.1 36.5 C 83.1 36.1 83.1 35.8 83.2 35.6 C 83.3 35.3 83.5 35.1 83.7 34.9 C 84 34.7 84.3 34.6 84.8 34.6 C 85.1 34.6 85.4 34.7 85.8 34.7 C 85.8 34.7 85.6 35.7 85.6 35.7 C 85.4 35.6 85.2 35.6 85 35.6 C 84.7 35.6 84.5 35.7 84.3 35.8 C 84.2 36 84.1 36.2 84.1 36.6 C 84.13 36.58 84.1 37.2 84.1 37.2 L 85.3 37.2 L 85.3 38 L 84.1 38 L 84.1 43.4 L 83.1 43.4 Z M 93.2 43.4 L 92.1 43.4 C 92.1 43.4 92.13 36.66 92.1 36.7 C 91.9 36.9 91.5 37.1 91.1 37.4 C 90.7 37.6 90.3 37.8 90 37.9 C 90 37.9 90 36.9 90 36.9 C 90.6 36.6 91.1 36.3 91.6 35.9 C 92 35.5 92.3 35.1 92.5 34.8 C 92.5 34.75 93.2 34.8 93.2 34.8 L 93.2 43.4 Z M 95.8 40.8 L 95.8 39.7 L 99 39.7 L 99 40.8 L 95.8 40.8 Z M 99.9 41.1 C 99.9 41.1 101 41 101 41 C 101.1 41.6 101.3 42 101.6 42.3 C 101.9 42.5 102.2 42.7 102.6 42.7 C 103.1 42.7 103.6 42.5 103.9 42.1 C 104.3 41.7 104.5 41.2 104.5 40.6 C 104.5 40 104.3 39.5 103.9 39.1 C 103.6 38.8 103.2 38.6 102.6 38.6 C 102.3 38.6 102 38.7 101.7 38.8 C 101.4 39 101.2 39.2 101.1 39.4 C 101.06 39.45 100.1 39.3 100.1 39.3 L 100.9 34.9 L 105.2 34.9 L 105.2 35.9 L 101.7 35.9 C 101.7 35.9 101.28 38.22 101.3 38.2 C 101.8 37.9 102.3 37.7 102.9 37.7 C 103.7 37.7 104.3 37.9 104.8 38.5 C 105.3 39 105.6 39.7 105.6 40.5 C 105.6 41.2 105.3 41.9 104.9 42.5 C 104.3 43.2 103.6 43.5 102.6 43.5 C 101.9 43.5 101.2 43.3 100.7 42.9 C 100.2 42.4 99.9 41.9 99.9 41.1 Z M 107.1 43.4 L 107.1 42.2 L 108.3 42.2 C 108.3 42.2 108.32 43.38 108.3 43.4 C 108.3 43.8 108.2 44.2 108.1 44.4 C 107.9 44.7 107.7 44.9 107.3 45.1 C 107.3 45.1 107.1 44.6 107.1 44.6 C 107.3 44.5 107.4 44.4 107.5 44.2 C 107.6 44 107.7 43.7 107.7 43.4 C 107.72 43.38 107.1 43.4 107.1 43.4 Z M 117.6 41.1 C 117.6 41.1 118.6 41.2 118.6 41.2 C 118.5 42 118.2 42.5 117.7 42.9 C 117.3 43.3 116.7 43.5 116 43.5 C 115.2 43.5 114.5 43.2 114 42.7 C 113.5 42.1 113.2 41.3 113.2 40.3 C 113.2 39.6 113.3 39 113.5 38.5 C 113.7 38 114.1 37.6 114.5 37.4 C 115 37.1 115.5 37 116 37 C 116.7 37 117.3 37.2 117.7 37.5 C 118.1 37.9 118.4 38.4 118.5 39 C 118.5 39 117.5 39.1 117.5 39.1 C 117.4 38.7 117.2 38.4 117 38.2 C 116.7 38 116.4 37.9 116.1 37.9 C 115.5 37.9 115.1 38.1 114.8 38.5 C 114.4 38.8 114.3 39.4 114.3 40.3 C 114.3 41.1 114.4 41.7 114.8 42.1 C 115.1 42.5 115.5 42.7 116 42.7 C 116.4 42.7 116.8 42.5 117 42.3 C 117.3 42 117.5 41.6 117.6 41.1 Z M 119.5 43.4 L 119.5 34.8 L 120.5 34.8 L 120.5 43.4 L 119.5 43.4 Z M 122.2 36 L 122.2 34.8 L 123.2 34.8 L 123.2 36 L 122.2 36 Z M 122.2 43.4 L 122.2 37.2 L 123.2 37.2 L 123.2 43.4 L 122.2 43.4 Z M 129.1 41.4 C 129.1 41.4 130.2 41.5 130.2 41.5 C 130 42.1 129.7 42.6 129.2 43 C 128.8 43.3 128.2 43.5 127.5 43.5 C 126.5 43.5 125.8 43.2 125.3 42.7 C 124.8 42.1 124.5 41.3 124.5 40.3 C 124.5 39.3 124.8 38.5 125.3 37.9 C 125.8 37.3 126.5 37 127.4 37 C 128.2 37 128.9 37.3 129.4 37.9 C 130 38.4 130.2 39.2 130.2 40.3 C 130.2 40.3 130.2 40.4 130.2 40.5 C 130.2 40.5 125.6 40.5 125.6 40.5 C 125.6 41.2 125.8 41.7 126.2 42.1 C 126.5 42.5 126.9 42.7 127.5 42.7 C 127.9 42.7 128.2 42.6 128.5 42.3 C 128.7 42.1 128.9 41.8 129.1 41.4 Z M 125.6 39.7 C 125.6 39.7 129.1 39.7 129.1 39.7 C 129.1 39.1 128.9 38.8 128.7 38.5 C 128.4 38.1 127.9 37.9 127.4 37.9 C 126.9 37.9 126.5 38 126.2 38.4 C 125.9 38.7 125.7 39.1 125.6 39.7 Z M 131.5 43.4 L 131.5 37.2 L 132.5 37.2 C 132.5 37.2 132.47 38.04 132.5 38 C 132.9 37.4 133.6 37 134.4 37 C 134.8 37 135.2 37.1 135.5 37.2 C 135.8 37.4 136 37.5 136.2 37.7 C 136.3 38 136.5 38.2 136.5 38.5 C 136.6 38.7 136.6 39.1 136.6 39.6 C 136.58 39.55 136.6 43.4 136.6 43.4 L 135.5 43.4 C 135.5 43.4 135.52 39.59 135.5 39.6 C 135.5 39.2 135.5 38.8 135.4 38.6 C 135.3 38.4 135.2 38.2 135 38.1 C 134.8 38 134.5 37.9 134.2 37.9 C 133.8 37.9 133.4 38.1 133.1 38.4 C 132.7 38.6 132.6 39.2 132.6 40 C 132.57 39.98 132.6 43.4 132.6 43.4 L 131.5 43.4 Z M 140 42.5 C 140.2 42.5 140.3 42.5 140.5 42.4 C 140.5 42.4 140.6 43.4 140.6 43.4 C 140.4 43.4 140.1 43.5 139.9 43.5 C 139.5 43.5 139.2 43.4 139 43.3 C 138.8 43.2 138.6 43 138.5 42.8 C 138.4 42.6 138.4 42.2 138.4 41.6 C 138.39 41.56 138.4 38 138.4 38 L 137.6 38 L 137.6 37.2 L 138.4 37.2 L 138.4 35.6 L 139.4 35 L 139.4 37.2 L 140.5 37.2 L 140.5 38 L 139.4 38 C 139.4 38 139.44 41.62 139.4 41.6 C 139.4 41.9 139.5 42.1 139.5 42.2 C 139.5 42.3 139.6 42.4 139.7 42.4 C 139.8 42.5 139.9 42.5 140 42.5 C 140 42.5 140 42.5 140 42.5 Z M 141.1 41.5 C 141.1 41.5 142.1 41.4 142.1 41.4 C 142.2 41.8 142.4 42.1 142.6 42.3 C 142.9 42.5 143.3 42.7 143.8 42.7 C 144.2 42.7 144.6 42.6 144.8 42.4 C 145.1 42.2 145.2 41.9 145.2 41.7 C 145.2 41.4 145.1 41.2 144.9 41.1 C 144.7 41 144.4 40.9 143.8 40.7 C 143 40.5 142.5 40.4 142.2 40.2 C 141.9 40.1 141.7 39.9 141.5 39.6 C 141.4 39.4 141.3 39.1 141.3 38.8 C 141.3 38.5 141.3 38.3 141.5 38 C 141.6 37.8 141.8 37.6 142 37.5 C 142.2 37.3 142.4 37.2 142.7 37.1 C 142.9 37.1 143.2 37 143.6 37 C 144.1 37 144.5 37.1 144.9 37.2 C 145.2 37.4 145.5 37.6 145.7 37.8 C 145.9 38 146 38.4 146 38.8 C 146 38.8 145 38.9 145 38.9 C 145 38.6 144.8 38.3 144.6 38.2 C 144.4 38 144.1 37.9 143.6 37.9 C 143.2 37.9 142.8 38 142.6 38.1 C 142.4 38.3 142.3 38.5 142.3 38.7 C 142.3 38.8 142.3 38.9 142.4 39.1 C 142.5 39.2 142.7 39.3 142.8 39.3 C 142.9 39.4 143.3 39.5 143.8 39.6 C 144.5 39.8 145 40 145.3 40.1 C 145.6 40.2 145.9 40.4 146 40.6 C 146.2 40.9 146.3 41.2 146.3 41.6 C 146.3 41.9 146.2 42.2 146 42.5 C 145.8 42.9 145.5 43.1 145.1 43.3 C 144.7 43.4 144.3 43.5 143.8 43.5 C 143 43.5 142.3 43.4 141.9 43 C 141.5 42.7 141.2 42.2 141.1 41.5 Z M 150.8 43.4 L 150.8 37.2 L 151.8 37.2 C 151.8 37.2 151.8 38.1 151.8 38.1 C 152 37.7 152.3 37.4 152.5 37.2 C 152.7 37.1 152.9 37 153.1 37 C 153.5 37 153.9 37.1 154.2 37.4 C 154.2 37.4 153.9 38.3 153.9 38.3 C 153.6 38.2 153.4 38.1 153.1 38.1 C 152.9 38.1 152.7 38.2 152.5 38.3 C 152.3 38.5 152.2 38.6 152.1 38.9 C 152 39.3 151.9 39.7 151.9 40.1 C 151.9 40.12 151.9 43.4 151.9 43.4 L 150.8 43.4 Z M 159.1 43.4 C 159 43.2 158.9 42.9 158.9 42.6 C 158.5 42.9 158.2 43.2 157.8 43.3 C 157.4 43.5 157 43.5 156.6 43.5 C 155.9 43.5 155.4 43.4 155.1 43 C 154.7 42.7 154.5 42.3 154.5 41.7 C 154.5 41.4 154.6 41.2 154.7 40.9 C 154.8 40.7 155 40.5 155.3 40.3 C 155.5 40.1 155.7 40 156 40 C 156.2 39.9 156.5 39.8 156.9 39.8 C 157.8 39.7 158.4 39.6 158.8 39.4 C 158.8 39.3 158.8 39.2 158.8 39.2 C 158.8 38.7 158.7 38.4 158.5 38.2 C 158.3 38 157.9 37.9 157.3 37.9 C 156.8 37.9 156.5 38 156.2 38.2 C 156 38.3 155.8 38.6 155.7 39.1 C 155.7 39.1 154.7 38.9 154.7 38.9 C 154.8 38.5 154.9 38.1 155.1 37.9 C 155.4 37.6 155.7 37.4 156.1 37.2 C 156.5 37.1 157 37 157.5 37 C 158 37 158.5 37.1 158.8 37.2 C 159.1 37.3 159.4 37.5 159.5 37.7 C 159.7 37.9 159.8 38.1 159.8 38.4 C 159.9 38.6 159.9 38.9 159.9 39.4 C 159.9 39.4 159.9 40.8 159.9 40.8 C 159.9 41.8 159.9 42.4 160 42.6 C 160 42.9 160.1 43.1 160.2 43.4 C 160.23 43.38 159.1 43.4 159.1 43.4 C 159.1 43.4 159.13 43.38 159.1 43.4 Z M 158.8 40.3 C 158.4 40.4 157.9 40.5 157.1 40.7 C 156.7 40.7 156.4 40.8 156.2 40.9 C 156 40.9 155.9 41.1 155.8 41.2 C 155.7 41.4 155.6 41.5 155.6 41.7 C 155.6 42 155.7 42.2 155.9 42.4 C 156.2 42.6 156.5 42.7 156.9 42.7 C 157.3 42.7 157.6 42.6 158 42.4 C 158.3 42.2 158.5 42 158.7 41.7 C 158.8 41.5 158.8 41.1 158.8 40.6 C 158.8 40.6 158.8 40.3 158.8 40.3 Z M 163.4 42.5 C 163.5 42.5 163.6 42.5 163.8 42.4 C 163.8 42.4 164 43.4 164 43.4 C 163.7 43.4 163.4 43.5 163.2 43.5 C 162.8 43.5 162.5 43.4 162.3 43.3 C 162.1 43.2 161.9 43 161.9 42.8 C 161.8 42.6 161.7 42.2 161.7 41.6 C 161.72 41.56 161.7 38 161.7 38 L 161 38 L 161 37.2 L 161.7 37.2 L 161.7 35.6 L 162.8 35 L 162.8 37.2 L 163.8 37.2 L 163.8 38 L 162.8 38 C 162.8 38 162.77 41.62 162.8 41.6 C 162.8 41.9 162.8 42.1 162.8 42.2 C 162.9 42.3 162.9 42.4 163 42.4 C 163.1 42.5 163.2 42.5 163.4 42.5 C 163.4 42.5 163.4 42.5 163.4 42.5 Z M 169.1 41.4 C 169.1 41.4 170.2 41.5 170.2 41.5 C 170 42.1 169.7 42.6 169.3 43 C 168.8 43.3 168.2 43.5 167.5 43.5 C 166.6 43.5 165.8 43.2 165.3 42.7 C 164.8 42.1 164.5 41.3 164.5 40.3 C 164.5 39.3 164.8 38.5 165.3 37.9 C 165.9 37.3 166.6 37 167.4 37 C 168.3 37 168.9 37.3 169.5 37.9 C 170 38.4 170.3 39.2 170.3 40.3 C 170.3 40.3 170.2 40.4 170.2 40.5 C 170.2 40.5 165.6 40.5 165.6 40.5 C 165.6 41.2 165.8 41.7 166.2 42.1 C 166.5 42.5 167 42.7 167.5 42.7 C 167.9 42.7 168.2 42.6 168.5 42.3 C 168.7 42.1 169 41.8 169.1 41.4 Z M 165.7 39.7 C 165.7 39.7 169.1 39.7 169.1 39.7 C 169.1 39.1 169 38.8 168.7 38.5 C 168.4 38.1 168 37.9 167.4 37.9 C 166.9 37.9 166.5 38 166.2 38.4 C 165.9 38.7 165.7 39.1 165.7 39.7 Z M 175.6 43.4 C 175.6 43.4 175.58 42.59 175.6 42.6 C 175.2 43.2 174.6 43.5 173.8 43.5 C 173.3 43.5 172.9 43.4 172.5 43.1 C 172.1 42.8 171.7 42.5 171.5 42 C 171.3 41.5 171.2 40.9 171.2 40.3 C 171.2 39.7 171.3 39.1 171.5 38.6 C 171.7 38.1 172 37.7 172.4 37.4 C 172.8 37.2 173.3 37 173.8 37 C 174.2 37 174.5 37.1 174.8 37.3 C 175.1 37.4 175.3 37.6 175.5 37.9 C 175.51 37.87 175.5 34.8 175.5 34.8 L 176.6 34.8 L 176.6 43.4 L 175.6 43.4 Z M 172.2 40.3 C 172.2 41.1 172.4 41.7 172.7 42.1 C 173.1 42.5 173.5 42.7 173.9 42.7 C 174.4 42.7 174.8 42.5 175.1 42.1 C 175.4 41.7 175.6 41.1 175.6 40.4 C 175.6 39.5 175.4 38.9 175.1 38.5 C 174.8 38.1 174.4 37.9 173.9 37.9 C 173.4 37.9 173 38.1 172.7 38.5 C 172.4 38.8 172.2 39.5 172.2 40.3 Z M 181.2 40.3 C 181.2 39.1 181.5 38.3 182.1 37.7 C 182.7 37.2 183.3 37 184.1 37 C 184.9 37 185.6 37.3 186.2 37.9 C 186.7 38.4 187 39.2 187 40.2 C 187 41 186.9 41.6 186.6 42.1 C 186.4 42.5 186 42.9 185.6 43.1 C 185.1 43.4 184.6 43.5 184.1 43.5 C 183.2 43.5 182.5 43.2 182 42.7 C 181.4 42.1 181.2 41.3 181.2 40.3 Z M 182.2 40.3 C 182.2 41.1 182.4 41.7 182.8 42.1 C 183.1 42.5 183.5 42.7 184.1 42.7 C 184.6 42.7 185 42.5 185.4 42.1 C 185.7 41.7 185.9 41 185.9 40.2 C 185.9 39.5 185.7 38.9 185.4 38.5 C 185 38.1 184.6 37.9 184.1 37.9 C 183.5 37.9 183.1 38.1 182.8 38.5 C 182.4 38.9 182.2 39.5 182.2 40.3 Z M 192.3 43.4 C 192.3 43.4 192.3 42.47 192.3 42.5 C 191.8 43.2 191.2 43.5 190.3 43.5 C 190 43.5 189.6 43.5 189.3 43.3 C 189 43.2 188.7 43 188.6 42.8 C 188.4 42.6 188.3 42.3 188.3 42 C 188.2 41.8 188.2 41.5 188.2 41 C 188.2 41.01 188.2 37.2 188.2 37.2 L 189.3 37.2 C 189.3 37.2 189.25 40.61 189.3 40.6 C 189.3 41.2 189.3 41.5 189.3 41.7 C 189.4 42 189.5 42.2 189.7 42.4 C 190 42.5 190.2 42.6 190.5 42.6 C 190.9 42.6 191.1 42.5 191.4 42.4 C 191.7 42.2 191.9 42 192 41.7 C 192.1 41.4 192.2 41 192.2 40.5 C 192.19 40.49 192.2 37.2 192.2 37.2 L 193.2 37.2 L 193.2 43.4 L 192.3 43.4 Z M 194.9 43.4 L 194.9 37.2 L 195.8 37.2 C 195.8 37.2 195.83 38.1 195.8 38.1 C 196.1 37.7 196.3 37.4 196.5 37.2 C 196.7 37.1 196.9 37 197.2 37 C 197.5 37 197.9 37.1 198.3 37.4 C 198.3 37.4 197.9 38.3 197.9 38.3 C 197.6 38.2 197.4 38.1 197.1 38.1 C 196.9 38.1 196.7 38.2 196.5 38.3 C 196.3 38.5 196.2 38.6 196.1 38.9 C 196 39.3 195.9 39.7 195.9 40.1 C 195.94 40.12 195.9 43.4 195.9 43.4 L 194.9 43.4 Z M 201.8 41.5 C 201.8 41.5 202.8 41.4 202.8 41.4 C 202.9 41.8 203.1 42.1 203.3 42.3 C 203.6 42.5 204 42.7 204.5 42.7 C 204.9 42.7 205.3 42.6 205.5 42.4 C 205.8 42.2 205.9 41.9 205.9 41.7 C 205.9 41.4 205.8 41.2 205.6 41.1 C 205.4 41 205.1 40.9 204.5 40.7 C 203.7 40.5 203.2 40.4 202.9 40.2 C 202.6 40.1 202.4 39.9 202.2 39.6 C 202.1 39.4 202 39.1 202 38.8 C 202 38.5 202 38.3 202.2 38 C 202.3 37.8 202.5 37.6 202.7 37.5 C 202.9 37.3 203.1 37.2 203.4 37.1 C 203.6 37.1 203.9 37 204.3 37 C 204.8 37 205.2 37.1 205.6 37.2 C 205.9 37.4 206.2 37.6 206.4 37.8 C 206.5 38 206.7 38.4 206.7 38.8 C 206.7 38.8 205.7 38.9 205.7 38.9 C 205.7 38.6 205.5 38.3 205.3 38.2 C 205.1 38 204.8 37.9 204.3 37.9 C 203.9 37.9 203.5 38 203.3 38.1 C 203.1 38.3 203 38.5 203 38.7 C 203 38.8 203 38.9 203.1 39.1 C 203.2 39.2 203.3 39.3 203.5 39.3 C 203.6 39.4 203.9 39.5 204.5 39.6 C 205.2 39.8 205.7 40 206 40.1 C 206.3 40.2 206.6 40.4 206.7 40.6 C 206.9 40.9 207 41.2 207 41.6 C 207 41.9 206.9 42.2 206.7 42.5 C 206.5 42.9 206.2 43.1 205.8 43.3 C 205.4 43.4 205 43.5 204.5 43.5 C 203.7 43.5 203 43.4 202.6 43 C 202.2 42.7 201.9 42.2 201.8 41.5 Z M 212.5 41.4 C 212.5 41.4 213.6 41.5 213.6 41.5 C 213.4 42.1 213.1 42.6 212.6 43 C 212.2 43.3 211.6 43.5 210.8 43.5 C 209.9 43.5 209.2 43.2 208.7 42.7 C 208.1 42.1 207.9 41.3 207.9 40.3 C 207.9 39.3 208.1 38.5 208.7 37.9 C 209.2 37.3 209.9 37 210.8 37 C 211.6 37 212.3 37.3 212.8 37.9 C 213.3 38.4 213.6 39.2 213.6 40.3 C 213.6 40.3 213.6 40.4 213.6 40.5 C 213.6 40.5 209 40.5 209 40.5 C 209 41.2 209.2 41.7 209.5 42.1 C 209.9 42.5 210.3 42.7 210.8 42.7 C 211.2 42.7 211.6 42.6 211.8 42.3 C 212.1 42.1 212.3 41.8 212.5 41.4 Z M 209 39.7 C 209 39.7 212.5 39.7 212.5 39.7 C 212.4 39.1 212.3 38.8 212.1 38.5 C 211.8 38.1 211.3 37.9 210.8 37.9 C 210.3 37.9 209.9 38 209.6 38.4 C 209.2 38.7 209.1 39.1 209 39.7 Z M 214.9 43.4 L 214.9 37.2 L 215.8 37.2 C 215.8 37.2 215.84 38.1 215.8 38.1 C 216.1 37.7 216.3 37.4 216.5 37.2 C 216.7 37.1 216.9 37 217.2 37 C 217.5 37 217.9 37.1 218.3 37.4 C 218.3 37.4 217.9 38.3 217.9 38.3 C 217.6 38.2 217.4 38.1 217.1 38.1 C 216.9 38.1 216.7 38.2 216.5 38.3 C 216.3 38.5 216.2 38.6 216.1 38.9 C 216 39.3 215.9 39.7 215.9 40.1 C 215.94 40.12 215.9 43.4 215.9 43.4 L 214.9 43.4 Z M 220.6 43.4 L 218.3 37.2 L 219.4 37.2 C 219.4 37.2 220.71 40.88 220.7 40.9 C 220.8 41.3 221 41.7 221.1 42.1 C 221.2 41.8 221.3 41.4 221.5 41 C 221.5 40.95 222.9 37.2 222.9 37.2 L 224 37.2 L 221.6 43.4 L 220.6 43.4 Z M 224.9 36 L 224.9 34.8 L 226 34.8 L 226 36 L 224.9 36 Z M 224.9 43.4 L 224.9 37.2 L 226 37.2 L 226 43.4 L 224.9 43.4 Z M 231.6 41.1 C 231.6 41.1 232.7 41.2 232.7 41.2 C 232.5 42 232.3 42.5 231.8 42.9 C 231.3 43.3 230.7 43.5 230.1 43.5 C 229.2 43.5 228.5 43.2 228 42.7 C 227.5 42.1 227.2 41.3 227.2 40.3 C 227.2 39.6 227.3 39 227.6 38.5 C 227.8 38 228.1 37.6 228.6 37.4 C 229 37.1 229.5 37 230.1 37 C 230.7 37 231.3 37.2 231.7 37.5 C 232.2 37.9 232.4 38.4 232.6 39 C 232.6 39 231.5 39.1 231.5 39.1 C 231.4 38.7 231.3 38.4 231 38.2 C 230.8 38 230.5 37.9 230.1 37.9 C 229.6 37.9 229.2 38.1 228.8 38.5 C 228.5 38.8 228.3 39.4 228.3 40.3 C 228.3 41.1 228.5 41.7 228.8 42.1 C 229.1 42.5 229.5 42.7 230.1 42.7 C 230.5 42.7 230.8 42.5 231.1 42.3 C 231.4 42 231.5 41.6 231.6 41.1 Z M 237.8 41.4 C 237.8 41.4 238.9 41.5 238.9 41.5 C 238.7 42.1 238.4 42.6 238 43 C 237.5 43.3 236.9 43.5 236.2 43.5 C 235.3 43.5 234.5 43.2 234 42.7 C 233.5 42.1 233.2 41.3 233.2 40.3 C 233.2 39.3 233.5 38.5 234 37.9 C 234.6 37.3 235.3 37 236.1 37 C 236.9 37 237.6 37.3 238.2 37.9 C 238.7 38.4 238.9 39.2 238.9 40.3 C 238.9 40.3 238.9 40.4 238.9 40.5 C 238.9 40.5 234.3 40.5 234.3 40.5 C 234.3 41.2 234.5 41.7 234.9 42.1 C 235.2 42.5 235.7 42.7 236.2 42.7 C 236.6 42.7 236.9 42.6 237.2 42.3 C 237.4 42.1 237.7 41.8 237.8 41.4 Z M 234.4 39.7 C 234.4 39.7 237.8 39.7 237.8 39.7 C 237.8 39.1 237.7 38.8 237.4 38.5 C 237.1 38.1 236.7 37.9 236.1 37.9 C 235.6 37.9 235.2 38 234.9 38.4 C 234.6 38.7 234.4 39.1 234.4 39.7 Z M 243.6 45.8 L 243.6 37.2 L 244.5 37.2 C 244.5 37.2 244.53 37.97 244.5 38 C 244.8 37.6 245 37.4 245.3 37.3 C 245.6 37.1 245.9 37 246.3 37 C 246.9 37 247.3 37.2 247.7 37.4 C 248.1 37.7 248.5 38.1 248.7 38.6 C 248.9 39.1 249 39.6 249 40.2 C 249 40.9 248.9 41.4 248.6 41.9 C 248.4 42.5 248.1 42.8 247.6 43.1 C 247.2 43.4 246.7 43.5 246.3 43.5 C 245.9 43.5 245.6 43.4 245.3 43.3 C 245 43.1 244.8 43 244.6 42.7 C 244.62 42.74 244.6 45.8 244.6 45.8 L 243.6 45.8 Z M 244.5 40.3 C 244.5 41.1 244.7 41.7 245 42.1 C 245.3 42.5 245.7 42.7 246.2 42.7 C 246.7 42.7 247.1 42.5 247.4 42.1 C 247.7 41.7 247.9 41 247.9 40.2 C 247.9 39.4 247.7 38.8 247.4 38.4 C 247.1 38 246.7 37.8 246.2 37.8 C 245.8 37.8 245.4 38.1 245 38.5 C 244.7 38.9 244.5 39.5 244.5 40.3 Z M 254.5 41.4 C 254.5 41.4 255.6 41.5 255.6 41.5 C 255.4 42.1 255.1 42.6 254.6 43 C 254.2 43.3 253.6 43.5 252.9 43.5 C 251.9 43.5 251.2 43.2 250.7 42.7 C 250.2 42.1 249.9 41.3 249.9 40.3 C 249.9 39.3 250.2 38.5 250.7 37.9 C 251.2 37.3 251.9 37 252.8 37 C 253.6 37 254.3 37.3 254.8 37.9 C 255.4 38.4 255.6 39.2 255.6 40.3 C 255.6 40.3 255.6 40.4 255.6 40.5 C 255.6 40.5 251 40.5 251 40.5 C 251 41.2 251.2 41.7 251.6 42.1 C 251.9 42.5 252.3 42.7 252.9 42.7 C 253.2 42.7 253.6 42.6 253.9 42.3 C 254.1 42.1 254.3 41.8 254.5 41.4 Z M 251 39.7 C 251 39.7 254.5 39.7 254.5 39.7 C 254.5 39.1 254.3 38.8 254.1 38.5 C 253.8 38.1 253.3 37.9 252.8 37.9 C 252.3 37.9 251.9 38 251.6 38.4 C 251.3 38.7 251.1 39.1 251 39.7 Z M 256.9 43.4 L 256.9 37.2 L 257.9 37.2 C 257.9 37.2 257.85 38.1 257.9 38.1 C 258.1 37.7 258.3 37.4 258.5 37.2 C 258.7 37.1 259 37 259.2 37 C 259.6 37 259.9 37.1 260.3 37.4 C 260.3 37.4 259.9 38.3 259.9 38.3 C 259.7 38.2 259.4 38.1 259.1 38.1 C 258.9 38.1 258.7 38.2 258.5 38.3 C 258.3 38.5 258.2 38.6 258.1 38.9 C 258 39.3 258 39.7 258 40.1 C 257.96 40.12 258 43.4 258 43.4 L 256.9 43.4 Z M 261.2 43.4 L 261.2 38 L 260.2 38 L 260.2 37.2 L 261.2 37.2 C 261.2 37.2 261.16 36.5 261.2 36.5 C 261.2 36.1 261.2 35.8 261.3 35.6 C 261.4 35.3 261.6 35.1 261.8 34.9 C 262.1 34.7 262.4 34.6 262.9 34.6 C 263.2 34.6 263.5 34.7 263.9 34.7 C 263.9 34.7 263.7 35.7 263.7 35.7 C 263.5 35.6 263.3 35.6 263.1 35.6 C 262.8 35.6 262.5 35.7 262.4 35.8 C 262.3 36 262.2 36.2 262.2 36.6 C 262.21 36.58 262.2 37.2 262.2 37.2 L 263.4 37.2 L 263.4 38 L 262.2 38 L 262.2 43.4 L 261.2 43.4 Z M 263.9 40.3 C 263.9 39.1 264.2 38.3 264.8 37.7 C 265.3 37.2 266 37 266.8 37 C 267.6 37 268.3 37.3 268.9 37.9 C 269.4 38.4 269.7 39.2 269.7 40.2 C 269.7 41 269.6 41.6 269.3 42.1 C 269.1 42.5 268.7 42.9 268.3 43.1 C 267.8 43.4 267.3 43.5 266.8 43.5 C 265.9 43.5 265.2 43.2 264.7 42.7 C 264.1 42.1 263.9 41.3 263.9 40.3 Z M 264.9 40.3 C 264.9 41.1 265.1 41.7 265.5 42.1 C 265.8 42.5 266.2 42.7 266.8 42.7 C 267.3 42.7 267.7 42.5 268.1 42.1 C 268.4 41.7 268.6 41 268.6 40.2 C 268.6 39.5 268.4 38.9 268.1 38.5 C 267.7 38.1 267.3 37.9 266.8 37.9 C 266.2 37.9 265.8 38.1 265.5 38.5 C 265.1 38.9 264.9 39.5 264.9 40.3 Z M 270.9 43.4 L 270.9 37.2 L 271.9 37.2 C 271.9 37.2 271.86 38.1 271.9 38.1 C 272.1 37.7 272.3 37.4 272.5 37.2 C 272.7 37.1 273 37 273.2 37 C 273.6 37 273.9 37.1 274.3 37.4 C 274.3 37.4 273.9 38.3 273.9 38.3 C 273.7 38.2 273.4 38.1 273.2 38.1 C 272.9 38.1 272.7 38.2 272.5 38.3 C 272.3 38.5 272.2 38.6 272.1 38.9 C 272 39.3 272 39.7 272 40.1 C 271.96 40.12 272 43.4 272 43.4 L 270.9 43.4 Z M 274.9 43.4 L 274.9 37.2 L 275.9 37.2 C 275.9 37.2 275.86 38.03 275.9 38 C 276.1 37.7 276.3 37.5 276.6 37.3 C 277 37.1 277.3 37 277.7 37 C 278.2 37 278.6 37.1 278.9 37.3 C 279.2 37.5 279.4 37.8 279.5 38.1 C 280 37.4 280.6 37 281.4 37 C 282 37 282.5 37.2 282.8 37.5 C 283.2 37.9 283.3 38.4 283.3 39.1 C 283.35 39.11 283.3 43.4 283.3 43.4 L 282.3 43.4 C 282.3 43.4 282.3 39.46 282.3 39.5 C 282.3 39 282.3 38.7 282.2 38.5 C 282.1 38.4 282 38.2 281.8 38.1 C 281.6 38 281.4 37.9 281.2 37.9 C 280.8 37.9 280.4 38.1 280.1 38.4 C 279.8 38.7 279.7 39.1 279.7 39.8 C 279.67 39.76 279.7 43.4 279.7 43.4 L 278.6 43.4 C 278.6 43.4 278.61 39.34 278.6 39.3 C 278.6 38.9 278.5 38.5 278.4 38.3 C 278.2 38 277.9 37.9 277.5 37.9 C 277.2 37.9 276.9 38 276.7 38.2 C 276.4 38.3 276.3 38.5 276.1 38.9 C 276 39.2 276 39.6 276 40.2 C 275.97 40.15 276 43.4 276 43.4 L 274.9 43.4 Z M 289.2 43.4 C 289.1 43.2 289 42.9 289 42.6 C 288.6 42.9 288.2 43.2 287.8 43.3 C 287.5 43.5 287.1 43.5 286.7 43.5 C 286 43.5 285.5 43.4 285.1 43 C 284.7 42.7 284.6 42.3 284.6 41.7 C 284.6 41.4 284.6 41.2 284.8 40.9 C 284.9 40.7 285.1 40.5 285.3 40.3 C 285.5 40.1 285.8 40 286.1 40 C 286.3 39.9 286.6 39.8 287 39.8 C 287.9 39.7 288.5 39.6 288.9 39.4 C 288.9 39.3 288.9 39.2 288.9 39.2 C 288.9 38.7 288.8 38.4 288.6 38.2 C 288.3 38 287.9 37.9 287.4 37.9 C 286.9 37.9 286.5 38 286.3 38.2 C 286.1 38.3 285.9 38.6 285.8 39.1 C 285.8 39.1 284.7 38.9 284.7 38.9 C 284.8 38.5 285 38.1 285.2 37.9 C 285.4 37.6 285.7 37.4 286.1 37.2 C 286.5 37.1 287 37 287.5 37 C 288.1 37 288.5 37.1 288.8 37.2 C 289.2 37.3 289.4 37.5 289.6 37.7 C 289.7 37.9 289.8 38.1 289.9 38.4 C 289.9 38.6 290 38.9 290 39.4 C 290 39.4 290 40.8 290 40.8 C 290 41.8 290 42.4 290 42.6 C 290.1 42.9 290.2 43.1 290.3 43.4 C 290.29 43.38 289.2 43.4 289.2 43.4 C 289.2 43.4 289.18 43.38 289.2 43.4 Z M 288.9 40.3 C 288.5 40.4 287.9 40.5 287.2 40.7 C 286.7 40.7 286.4 40.8 286.2 40.9 C 286.1 40.9 285.9 41.1 285.8 41.2 C 285.7 41.4 285.7 41.5 285.7 41.7 C 285.7 42 285.8 42.2 286 42.4 C 286.2 42.6 286.5 42.7 286.9 42.7 C 287.3 42.7 287.7 42.6 288 42.4 C 288.3 42.2 288.6 42 288.7 41.7 C 288.8 41.5 288.9 41.1 288.9 40.6 C 288.9 40.6 288.9 40.3 288.9 40.3 Z M 291.6 43.4 L 291.6 37.2 L 292.5 37.2 C 292.5 37.2 292.54 38.04 292.5 38 C 293 37.4 293.7 37 294.5 37 C 294.9 37 295.2 37.1 295.5 37.2 C 295.9 37.4 296.1 37.5 296.3 37.7 C 296.4 38 296.5 38.2 296.6 38.5 C 296.6 38.7 296.6 39.1 296.6 39.6 C 296.64 39.55 296.6 43.4 296.6 43.4 L 295.6 43.4 C 295.6 43.4 295.59 39.59 295.6 39.6 C 295.6 39.2 295.5 38.8 295.5 38.6 C 295.4 38.4 295.2 38.2 295 38.1 C 294.8 38 294.6 37.9 294.3 37.9 C 293.8 37.9 293.5 38.1 293.1 38.4 C 292.8 38.6 292.6 39.2 292.6 40 C 292.64 39.98 292.6 43.4 292.6 43.4 L 291.6 43.4 Z M 302.3 41.1 C 302.3 41.1 303.4 41.2 303.4 41.2 C 303.2 42 303 42.5 302.5 42.9 C 302 43.3 301.4 43.5 300.8 43.5 C 299.9 43.5 299.2 43.2 298.7 42.7 C 298.2 42.1 297.9 41.3 297.9 40.3 C 297.9 39.6 298 39 298.3 38.5 C 298.5 38 298.8 37.6 299.3 37.4 C 299.7 37.1 300.2 37 300.8 37 C 301.4 37 302 37.2 302.4 37.5 C 302.9 37.9 303.1 38.4 303.3 39 C 303.3 39 302.2 39.1 302.2 39.1 C 302.1 38.7 302 38.4 301.7 38.2 C 301.5 38 301.2 37.9 300.8 37.9 C 300.3 37.9 299.9 38.1 299.5 38.5 C 299.2 38.8 299 39.4 299 40.3 C 299 41.1 299.2 41.7 299.5 42.1 C 299.8 42.5 300.2 42.7 300.8 42.7 C 301.2 42.7 301.5 42.5 301.8 42.3 C 302.1 42 302.2 41.6 302.3 41.1 Z M 308.5 41.4 C 308.5 41.4 309.6 41.5 309.6 41.5 C 309.4 42.1 309.1 42.6 308.7 43 C 308.2 43.3 307.6 43.5 306.9 43.5 C 306 43.5 305.2 43.2 304.7 42.7 C 304.2 42.1 303.9 41.3 303.9 40.3 C 303.9 39.3 304.2 38.5 304.7 37.9 C 305.3 37.3 306 37 306.8 37 C 307.6 37 308.3 37.3 308.9 37.9 C 309.4 38.4 309.6 39.2 309.6 40.3 C 309.6 40.3 309.6 40.4 309.6 40.5 C 309.6 40.5 305 40.5 305 40.5 C 305 41.2 305.2 41.7 305.6 42.1 C 305.9 42.5 306.4 42.7 306.9 42.7 C 307.3 42.7 307.6 42.6 307.9 42.3 C 308.1 42.1 308.4 41.8 308.5 41.4 Z M 305.1 39.7 C 305.1 39.7 308.5 39.7 308.5 39.7 C 308.5 39.1 308.4 38.8 308.1 38.5 C 307.8 38.1 307.4 37.9 306.8 37.9 C 306.3 37.9 305.9 38 305.6 38.4 C 305.3 38.7 305.1 39.1 305.1 39.7 Z M 318.5 43.4 C 318.4 43.2 318.4 42.9 318.3 42.6 C 317.9 42.9 317.6 43.2 317.2 43.3 C 316.8 43.5 316.5 43.5 316 43.5 C 315.4 43.5 314.8 43.4 314.5 43 C 314.1 42.7 313.9 42.3 313.9 41.7 C 313.9 41.4 314 41.2 314.1 40.9 C 314.3 40.7 314.4 40.5 314.7 40.3 C 314.9 40.1 315.1 40 315.4 40 C 315.6 39.9 315.9 39.8 316.4 39.8 C 317.2 39.7 317.8 39.6 318.2 39.4 C 318.2 39.3 318.2 39.2 318.2 39.2 C 318.2 38.7 318.1 38.4 317.9 38.2 C 317.7 38 317.3 37.9 316.7 37.9 C 316.2 37.9 315.9 38 315.6 38.2 C 315.4 38.3 315.2 38.6 315.1 39.1 C 315.1 39.1 314.1 38.9 314.1 38.9 C 314.2 38.5 314.3 38.1 314.6 37.9 C 314.8 37.6 315.1 37.4 315.5 37.2 C 315.9 37.1 316.4 37 316.9 37 C 317.4 37 317.9 37.1 318.2 37.2 C 318.5 37.3 318.8 37.5 318.9 37.7 C 319.1 37.9 319.2 38.1 319.3 38.4 C 319.3 38.6 319.3 38.9 319.3 39.4 C 319.3 39.4 319.3 40.8 319.3 40.8 C 319.3 41.8 319.3 42.4 319.4 42.6 C 319.4 42.9 319.5 43.1 319.6 43.4 C 319.64 43.38 318.5 43.4 318.5 43.4 C 318.5 43.4 318.54 43.38 318.5 43.4 Z M 318.2 40.3 C 317.9 40.4 317.3 40.5 316.5 40.7 C 316.1 40.7 315.8 40.8 315.6 40.9 C 315.4 40.9 315.3 41.1 315.2 41.2 C 315.1 41.4 315 41.5 315 41.7 C 315 42 315.1 42.2 315.4 42.4 C 315.6 42.6 315.9 42.7 316.3 42.7 C 316.7 42.7 317.1 42.6 317.4 42.4 C 317.7 42.2 317.9 42 318.1 41.7 C 318.2 41.5 318.2 41.1 318.2 40.6 C 318.2 40.6 318.2 40.3 318.2 40.3 Z M 320.5 41.5 C 320.5 41.5 321.6 41.4 321.6 41.4 C 321.6 41.8 321.8 42.1 322.1 42.3 C 322.3 42.5 322.7 42.7 323.2 42.7 C 323.7 42.7 324 42.6 324.3 42.4 C 324.5 42.2 324.6 41.9 324.6 41.7 C 324.6 41.4 324.5 41.2 324.3 41.1 C 324.1 41 323.8 40.9 323.2 40.7 C 322.4 40.5 321.9 40.4 321.6 40.2 C 321.3 40.1 321.1 39.9 320.9 39.6 C 320.8 39.4 320.7 39.1 320.7 38.8 C 320.7 38.5 320.8 38.3 320.9 38 C 321 37.8 321.2 37.6 321.4 37.5 C 321.6 37.3 321.8 37.2 322.1 37.1 C 322.4 37.1 322.7 37 323 37 C 323.5 37 323.9 37.1 324.3 37.2 C 324.6 37.4 324.9 37.6 325.1 37.8 C 325.3 38 325.4 38.4 325.5 38.8 C 325.5 38.8 324.4 38.9 324.4 38.9 C 324.4 38.6 324.2 38.3 324 38.2 C 323.8 38 323.5 37.9 323.1 37.9 C 322.6 37.9 322.2 38 322 38.1 C 321.8 38.3 321.7 38.5 321.7 38.7 C 321.7 38.8 321.8 38.9 321.8 39.1 C 321.9 39.2 322.1 39.3 322.2 39.3 C 322.4 39.4 322.7 39.5 323.2 39.6 C 323.9 39.8 324.4 40 324.7 40.1 C 325 40.2 325.3 40.4 325.4 40.6 C 325.6 40.9 325.7 41.2 325.7 41.6 C 325.7 41.9 325.6 42.2 325.4 42.5 C 325.2 42.9 324.9 43.1 324.5 43.3 C 324.1 43.4 323.7 43.5 323.2 43.5 C 322.4 43.5 321.8 43.4 321.3 43 C 320.9 42.7 320.6 42.2 320.5 41.5 Z M 330.5 43.4 L 330.5 38 L 329.6 38 L 329.6 37.2 L 330.5 37.2 C 330.5 37.2 330.53 36.5 330.5 36.5 C 330.5 36.1 330.6 35.8 330.6 35.6 C 330.7 35.3 330.9 35.1 331.2 34.9 C 331.4 34.7 331.8 34.6 332.3 34.6 C 332.5 34.6 332.9 34.7 333.2 34.7 C 333.2 34.7 333.1 35.7 333.1 35.7 C 332.9 35.6 332.7 35.6 332.5 35.6 C 332.1 35.6 331.9 35.7 331.8 35.8 C 331.6 36 331.6 36.2 331.6 36.6 C 331.58 36.58 331.6 37.2 331.6 37.2 L 332.8 37.2 L 332.8 38 L 331.6 38 L 331.6 43.4 L 330.5 43.4 Z M 333.2 40.3 C 333.2 39.1 333.5 38.3 334.2 37.7 C 334.7 37.2 335.4 37 336.1 37 C 337 37 337.7 37.3 338.2 37.9 C 338.8 38.4 339 39.2 339 40.2 C 339 41 338.9 41.6 338.7 42.1 C 338.4 42.5 338.1 42.9 337.6 43.1 C 337.2 43.4 336.7 43.5 336.1 43.5 C 335.3 43.5 334.6 43.2 334 42.7 C 333.5 42.1 333.2 41.3 333.2 40.3 Z M 334.3 40.3 C 334.3 41.1 334.5 41.7 334.8 42.1 C 335.2 42.5 335.6 42.7 336.1 42.7 C 336.7 42.7 337.1 42.5 337.4 42.1 C 337.8 41.7 338 41 338 40.2 C 338 39.5 337.8 38.9 337.4 38.5 C 337.1 38.1 336.7 37.9 336.1 37.9 C 335.6 37.9 335.2 38.1 334.8 38.5 C 334.5 38.9 334.3 39.5 334.3 40.3 Z M 340.3 43.4 L 340.3 34.8 L 341.3 34.8 L 341.3 43.4 L 340.3 43.4 Z M 342.9 43.4 L 342.9 34.8 L 344 34.8 L 344 43.4 L 342.9 43.4 Z M 345.2 40.3 C 345.2 39.1 345.5 38.3 346.2 37.7 C 346.7 37.2 347.4 37 348.1 37 C 349 37 349.7 37.3 350.2 37.9 C 350.8 38.4 351.1 39.2 351.1 40.2 C 351.1 41 350.9 41.6 350.7 42.1 C 350.5 42.5 350.1 42.9 349.6 43.1 C 349.2 43.4 348.7 43.5 348.1 43.5 C 347.3 43.5 346.6 43.2 346 42.7 C 345.5 42.1 345.2 41.3 345.2 40.3 Z M 346.3 40.3 C 346.3 41.1 346.5 41.7 346.8 42.1 C 347.2 42.5 347.6 42.7 348.1 42.7 C 348.7 42.7 349.1 42.5 349.4 42.1 C 349.8 41.7 350 41 350 40.2 C 350 39.5 349.8 38.9 349.4 38.5 C 349.1 38.1 348.7 37.9 348.1 37.9 C 347.6 37.9 347.2 38.1 346.8 38.5 C 346.5 38.9 346.3 39.5 346.3 40.3 Z M 353.4 43.4 L 351.5 37.2 L 352.6 37.2 L 353.6 40.7 C 353.6 40.7 353.98 42.08 354 42.1 C 354 42 354.1 41.6 354.3 40.8 C 354.3 40.8 355.3 37.2 355.3 37.2 L 356.4 37.2 L 357.3 40.8 L 357.6 42 L 358 40.8 L 359 37.2 L 360.1 37.2 L 358.1 43.4 L 357 43.4 L 356 39.7 L 355.8 38.6 L 354.5 43.4 L 353.4 43.4 Z M 360.5 41.5 C 360.5 41.5 361.6 41.4 361.6 41.4 C 361.6 41.8 361.8 42.1 362.1 42.3 C 362.3 42.5 362.7 42.7 363.2 42.7 C 363.7 42.7 364 42.6 364.3 42.4 C 364.5 42.2 364.6 41.9 364.6 41.7 C 364.6 41.4 364.5 41.2 364.3 41.1 C 364.2 41 363.8 40.9 363.2 40.7 C 362.5 40.5 361.9 40.4 361.6 40.2 C 361.3 40.1 361.1 39.9 360.9 39.6 C 360.8 39.4 360.7 39.1 360.7 38.8 C 360.7 38.5 360.8 38.3 360.9 38 C 361 37.8 361.2 37.6 361.4 37.5 C 361.6 37.3 361.8 37.2 362.1 37.1 C 362.4 37.1 362.7 37 363 37 C 363.5 37 363.9 37.1 364.3 37.2 C 364.7 37.4 364.9 37.6 365.1 37.8 C 365.3 38 365.4 38.4 365.5 38.8 C 365.5 38.8 364.4 38.9 364.4 38.9 C 364.4 38.6 364.3 38.3 364 38.2 C 363.8 38 363.5 37.9 363.1 37.9 C 362.6 37.9 362.2 38 362 38.1 C 361.8 38.3 361.7 38.5 361.7 38.7 C 361.7 38.8 361.8 38.9 361.9 39.1 C 361.9 39.2 362.1 39.3 362.3 39.3 C 362.4 39.4 362.7 39.5 363.2 39.6 C 363.9 39.8 364.5 40 364.8 40.1 C 365 40.2 365.3 40.4 365.4 40.6 C 365.6 40.9 365.7 41.2 365.7 41.6 C 365.7 41.9 365.6 42.2 365.4 42.5 C 365.2 42.9 364.9 43.1 364.5 43.3 C 364.1 43.4 363.7 43.5 363.2 43.5 C 362.4 43.5 361.8 43.4 361.3 43 C 360.9 42.7 360.7 42.2 360.5 41.5 Z M 367.2 38.4 L 367.2 37.2 L 368.4 37.2 L 368.4 38.4 L 367.2 38.4 Z M 367.2 43.4 L 367.2 42.2 L 368.4 42.2 L 368.4 43.4 L 367.2 43.4 Z " stroke="none" fill="#000"/>  </g>  <g id="Polygon52791">    <path d="M 7.9 1.6 C 7.9 1.6 7.9 3.3 7.9 3.3 C 6.9 2.5 5.9 2.1 4.8 2.1 C 3.3 2.1 2.4 2.9 2.4 4.1 C 2.4 5 2.6 5.8 4.9 6.9 C 7.7 8.4 8.4 9.4 8.4 11.2 C 8.4 13.2 6.8 14.8 4.5 14.8 C 3.2 14.8 2 14.3 0.9 13.6 C 0.9 13.6 0.9 11.7 0.9 11.7 C 2 12.8 3.2 13.4 4.5 13.4 C 5.9 13.4 6.9 12.6 6.9 11.2 C 6.9 10.1 6.5 9.4 3.8 8 C 1.7 6.9 0.9 5.9 0.9 4.1 C 0.9 2.2 2.5 0.8 4.8 0.8 C 5.9 0.8 6.9 1.1 7.9 1.6 Z M 18.2 0.9 L 18.2 2.3 L 12.2 2.3 L 12.2 7 L 18 7 L 18 8.4 L 12.2 8.4 L 12.2 13.2 L 18.3 13.2 L 18.3 14.6 L 10.7 14.6 L 10.7 0.9 L 18.2 0.9 Z M 20.8 0.9 C 20.8 0.9 24.34 0.94 24.3 0.9 C 27.1 0.9 28.5 2.5 28.5 4.6 C 28.5 6.3 27.6 7.5 25.9 8 C 26.8 8.4 27.2 8.8 28.3 10.5 C 28.32 10.5 31 14.6 31 14.6 L 29.2 14.6 C 29.2 14.6 26.78 10.82 26.8 10.8 C 25.5 8.8 24.7 8.4 23.5 8.4 C 23.52 8.38 22.3 8.4 22.3 8.4 L 22.3 14.6 L 20.8 14.6 L 20.8 0.9 Z M 23.7 7.1 C 25.5 7.1 27 6.6 27 4.6 C 27 2.9 25.9 2.3 24.1 2.3 C 24.14 2.26 22.3 2.3 22.3 2.3 L 22.3 7.1 C 22.3 7.1 23.66 7.06 23.7 7.1 Z M 30.3 0.9 L 31.8 0.9 L 36.2 11.6 L 36.2 11.6 L 40.6 0.9 L 42.1 0.9 L 36.4 14.7 L 36 14.7 L 30.3 0.9 Z M 45.2 0.9 L 45.2 14.6 L 43.7 14.6 L 43.7 0.9 L 45.2 0.9 Z M 59.5 1.8 C 59.5 1.8 59.5 3.5 59.5 3.5 C 58.1 2.6 56.5 2.2 54.9 2.2 C 51.4 2.2 49.2 4.8 49.2 7.8 C 49.2 10.8 51.4 13.4 54.9 13.4 C 56.6 13.4 58.2 12.9 59.6 12 C 59.6 12 59.6 13.6 59.6 13.6 C 58.1 14.4 56.5 14.8 54.8 14.8 C 50.1 14.8 47.7 11.2 47.7 7.8 C 47.7 3.8 50.8 0.8 54.9 0.8 C 56.4 0.8 58 1.1 59.5 1.8 Z M 69.4 0.9 L 69.4 2.3 L 63.5 2.3 L 63.5 7 L 69.2 7 L 69.2 8.4 L 63.5 8.4 L 63.5 13.2 L 69.6 13.2 L 69.6 14.6 L 62 14.6 L 62 0.9 L 69.4 0.9 Z " stroke="none" fill="#f28620"/>  </g></svg>