<?xml version="1.0" standalone="no"?><!DOCTYPE svg PUBLIC "-//W3C//DTD SVG 1.1//EN" "http://www.w3.org/Graphics/SVG/1.1/DTD/svg11.dtd"><svg xmlns="http://www.w3.org/2000/svg" version="1.1" width="83px" height="38.8px" viewBox="0 -7 83 38.8" style="top:-7px">  <desc>About</desc>  <defs/>  <g id="Polygon39945">    <path d="M 8.8 1.1 L 16.4 18.2 L 14.4 18.2 L 12 12.9 L 4.3 12.9 L 2 18.2 L 0.1 18.2 L 7.4 1.1 L 8.8 1.1 Z M 5 11.2 L 11.3 11.2 L 8.1 3.9 L 5 11.2 Z M 22.7 1.2 C 25.9 1.2 28 2.8 28 5.5 C 28 7.3 27 8.6 25.1 9.3 C 27.8 9.6 29.4 11.4 29.4 13.6 C 29.4 16.8 26.6 18.2 23.5 18.2 C 23.5 18.22 18.3 18.2 18.3 18.2 L 18.3 1.2 C 18.3 1.2 22.7 1.17 22.7 1.2 Z M 20.1 8.7 C 20.1 8.7 22.02 8.75 22 8.7 C 24.8 8.7 26 7.4 26 5.7 C 26 3.7 24.8 2.8 22.3 2.8 C 22.32 2.82 20.1 2.8 20.1 2.8 L 20.1 8.7 Z M 23.1 16.6 C 25.9 16.6 27.5 15.6 27.5 13.5 C 27.5 11.5 26.1 10.4 22.9 10.4 C 22.87 10.37 20.1 10.4 20.1 10.4 L 20.1 16.6 C 20.1 16.6 23.15 16.57 23.1 16.6 Z M 49.1 9.6 C 49.1 14.4 45.6 18.4 40 18.4 C 34.7 18.4 31.2 14.4 31.2 9.8 C 31.2 5 34.6 0.9 40.1 0.9 C 45.5 0.9 49.1 4.9 49.1 9.6 Z M 33.1 9.7 C 33.1 13.7 36.2 16.7 40 16.7 C 45.1 16.7 47.2 12.7 47.2 9.7 C 47.2 6.2 44.6 2.7 40.2 2.7 C 35.5 2.7 33.1 6.2 33.1 9.7 Z M 53.9 1.2 C 53.9 1.2 53.87 11 53.9 11 C 53.9 14.8 55.6 16.8 59.1 16.8 C 62.7 16.8 64.4 14.7 64.4 11 C 64.42 11 64.4 1.2 64.4 1.2 L 66.3 1.2 C 66.3 1.2 66.3 11 66.3 11 C 66.3 15.5 63.9 18.4 59.2 18.4 C 54.5 18.4 52 15.8 52 11 C 52 11 52 1.2 52 1.2 L 53.9 1.2 Z M 82.4 1.2 L 82.4 2.8 L 76.3 2.8 L 76.3 18.2 L 74.4 18.2 L 74.4 2.8 L 68.4 2.8 L 68.4 1.2 L 82.4 1.2 Z " stroke="none" fill="#000000"/>  </g></svg>