<?xml version="1.0" standalone="no"?><!DOCTYPE svg PUBLIC "-//W3C//DTD SVG 1.1//EN" "http://www.w3.org/Graphics/SVG/1.1/DTD/svg11.dtd"><svg xmlns="http://www.w3.org/2000/svg" version="1.1" width="545.4px" height="148.1px" viewBox="0 -10 545.4 148.1" style="top:-10px">  <desc>Integrity Behave with honour, underpinned by strong moral principles, transparency and always in the best interests o...</desc>  <defs/>  <g id="Polygon16880">    <path d="M 1.6 110 L 1.6 107.6 L 3.7 107.6 L 3.7 110 L 1.6 110 Z M 1.6 124.8 L 1.6 112.3 L 3.7 112.3 L 3.7 124.8 L 1.6 124.8 Z M 6.9 124.8 L 6.9 112.3 L 8.8 112.3 C 8.8 112.3 8.81 114.08 8.8 114.1 C 9.7 112.7 11 112 12.8 112 C 13.5 112 14.2 112.2 14.8 112.4 C 15.5 112.7 15.9 113.1 16.3 113.5 C 16.6 113.9 16.8 114.5 16.9 115.1 C 17 115.4 17 116.1 17 117.1 C 17.03 117.11 17 124.8 17 124.8 L 14.9 124.8 C 14.9 124.8 14.92 117.19 14.9 117.2 C 14.9 116.3 14.8 115.7 14.7 115.3 C 14.5 114.8 14.2 114.5 13.8 114.2 C 13.4 114 12.9 113.9 12.3 113.9 C 11.4 113.9 10.7 114.1 10 114.7 C 9.3 115.3 9 116.4 9 118 C 9.02 117.96 9 124.8 9 124.8 L 6.9 124.8 Z M 23.9 123 C 24.2 123 24.5 122.9 24.9 122.9 C 24.9 122.9 25.2 124.7 25.2 124.7 C 24.6 124.9 24 124.9 23.6 124.9 C 22.8 124.9 22.2 124.8 21.8 124.6 C 21.4 124.3 21.1 124 20.9 123.6 C 20.7 123.2 20.6 122.4 20.6 121.1 C 20.65 121.12 20.6 114 20.6 114 L 19.1 114 L 19.1 112.3 L 20.6 112.3 L 20.6 109.2 L 22.7 108 L 22.7 112.3 L 24.9 112.3 L 24.9 114 L 22.7 114 C 22.7 114 22.75 121.23 22.7 121.2 C 22.7 121.8 22.8 122.2 22.9 122.4 C 22.9 122.6 23.1 122.7 23.2 122.8 C 23.4 122.9 23.6 123 23.9 123 C 23.9 123 23.9 123 23.9 123 Z M 35.4 120.8 C 35.4 120.8 37.6 121 37.6 121 C 37.3 122.3 36.6 123.3 35.7 124 C 34.8 124.7 33.6 125 32.2 125 C 30.3 125 28.9 124.5 27.8 123.4 C 26.8 122.2 26.2 120.7 26.2 118.6 C 26.2 116.5 26.8 114.9 27.8 113.8 C 28.9 112.6 30.3 112 32 112 C 33.7 112 35.1 112.6 36.1 113.7 C 37.2 114.9 37.7 116.5 37.7 118.5 C 37.7 118.6 37.7 118.8 37.7 119.1 C 37.7 119.1 28.4 119.1 28.4 119.1 C 28.5 120.4 28.9 121.5 29.6 122.2 C 30.3 122.9 31.1 123.3 32.2 123.3 C 32.9 123.3 33.6 123.1 34.1 122.7 C 34.7 122.3 35.1 121.6 35.4 120.8 Z M 28.5 117.3 C 28.5 117.3 35.5 117.3 35.5 117.3 C 35.4 116.3 35.1 115.5 34.7 115 C 34 114.2 33.1 113.8 32.1 113.8 C 31.1 113.8 30.3 114.1 29.6 114.7 C 29 115.4 28.6 116.3 28.5 117.3 Z M 40.3 124.8 L 40.3 112.3 L 42.2 112.3 C 42.2 112.3 42.15 114.2 42.2 114.2 C 42.6 113.3 43.1 112.7 43.5 112.5 C 43.9 112.2 44.4 112 44.8 112 C 45.6 112 46.3 112.3 47 112.7 C 47 112.7 46.3 114.7 46.3 114.7 C 45.8 114.4 45.3 114.2 44.7 114.2 C 44.3 114.2 43.9 114.4 43.5 114.6 C 43.1 114.9 42.9 115.3 42.7 115.8 C 42.5 116.5 42.4 117.4 42.4 118.2 C 42.36 118.24 42.4 124.8 42.4 124.8 L 40.3 124.8 Z M 56.8 120.8 C 56.8 120.8 59 121 59 121 C 58.6 122.3 58 123.3 57.1 124 C 56.1 124.7 54.9 125 53.5 125 C 51.7 125 50.2 124.5 49.2 123.4 C 48.1 122.2 47.6 120.7 47.6 118.6 C 47.6 116.5 48.1 114.9 49.2 113.8 C 50.3 112.6 51.7 112 53.4 112 C 55 112 56.4 112.6 57.5 113.7 C 58.5 114.9 59 116.5 59 118.5 C 59 118.6 59 118.8 59 119.1 C 59 119.1 49.7 119.1 49.7 119.1 C 49.8 120.4 50.2 121.5 50.9 122.2 C 51.6 122.9 52.5 123.3 53.5 123.3 C 54.3 123.3 54.9 123.1 55.5 122.7 C 56 122.3 56.5 121.6 56.8 120.8 Z M 49.9 117.3 C 49.9 117.3 56.8 117.3 56.8 117.3 C 56.7 116.3 56.5 115.5 56 115 C 55.3 114.2 54.5 113.8 53.4 113.8 C 52.4 113.8 51.6 114.1 51 114.7 C 50.3 115.4 49.9 116.3 49.9 117.3 Z M 60.8 121 C 60.8 121 62.9 120.7 62.9 120.7 C 63 121.6 63.3 122.2 63.8 122.6 C 64.4 123.1 65.1 123.3 66.1 123.3 C 67.1 123.3 67.8 123.1 68.2 122.7 C 68.7 122.3 68.9 121.9 68.9 121.3 C 68.9 120.8 68.7 120.5 68.3 120.2 C 68 120 67.3 119.8 66.2 119.5 C 64.6 119.1 63.5 118.8 62.9 118.5 C 62.3 118.2 61.9 117.8 61.6 117.3 C 61.3 116.8 61.1 116.2 61.1 115.6 C 61.1 115.1 61.3 114.6 61.5 114.1 C 61.8 113.6 62.1 113.2 62.5 112.9 C 62.9 112.7 63.3 112.5 63.9 112.3 C 64.5 112.1 65.1 112 65.7 112 C 66.7 112 67.5 112.2 68.3 112.5 C 69 112.7 69.6 113.1 69.9 113.6 C 70.3 114.1 70.5 114.7 70.6 115.5 C 70.6 115.5 68.6 115.8 68.6 115.8 C 68.5 115.2 68.2 114.7 67.8 114.3 C 67.3 113.9 66.7 113.8 65.9 113.8 C 64.9 113.8 64.2 113.9 63.8 114.2 C 63.4 114.6 63.2 114.9 63.2 115.4 C 63.2 115.6 63.2 115.9 63.4 116.1 C 63.6 116.3 63.9 116.5 64.2 116.7 C 64.4 116.8 65.1 116.9 66.1 117.2 C 67.6 117.6 68.6 117.9 69.2 118.2 C 69.8 118.4 70.3 118.8 70.6 119.3 C 70.9 119.8 71.1 120.4 71.1 121.1 C 71.1 121.8 70.9 122.5 70.5 123.1 C 70.1 123.7 69.5 124.2 68.7 124.5 C 67.9 124.9 67.1 125 66.1 125 C 64.5 125 63.2 124.7 62.4 124 C 61.5 123.4 61 122.4 60.8 121 Z M 77.3 123 C 77.5 123 77.8 122.9 78.2 122.9 C 78.2 122.9 78.5 124.7 78.5 124.7 C 77.9 124.9 77.4 124.9 76.9 124.9 C 76.2 124.9 75.6 124.8 75.2 124.6 C 74.7 124.3 74.4 124 74.3 123.6 C 74.1 123.2 74 122.4 74 121.1 C 74 121.12 74 114 74 114 L 72.5 114 L 72.5 112.3 L 74 112.3 L 74 109.2 L 76.1 108 L 76.1 112.3 L 78.2 112.3 L 78.2 114 L 76.1 114 C 76.1 114 76.1 121.23 76.1 121.2 C 76.1 121.8 76.1 122.2 76.2 122.4 C 76.3 122.6 76.4 122.7 76.6 122.8 C 76.7 122.9 77 123 77.3 123 C 77.3 123 77.3 123 77.3 123 Z M 79.4 121 C 79.4 121 81.5 120.7 81.5 120.7 C 81.6 121.6 82 122.2 82.5 122.6 C 83 123.1 83.8 123.3 84.8 123.3 C 85.7 123.3 86.4 123.1 86.9 122.7 C 87.4 122.3 87.6 121.9 87.6 121.3 C 87.6 120.8 87.4 120.5 87 120.2 C 86.7 120 86 119.8 84.8 119.5 C 83.3 119.1 82.2 118.8 81.6 118.5 C 81 118.2 80.6 117.8 80.3 117.3 C 79.9 116.8 79.8 116.2 79.8 115.6 C 79.8 115.1 79.9 114.6 80.2 114.1 C 80.4 113.6 80.8 113.2 81.2 112.9 C 81.5 112.7 82 112.5 82.6 112.3 C 83.1 112.1 83.7 112 84.4 112 C 85.4 112 86.2 112.2 86.9 112.5 C 87.7 112.7 88.2 113.1 88.6 113.6 C 88.9 114.1 89.2 114.7 89.3 115.5 C 89.3 115.5 87.2 115.8 87.2 115.8 C 87.2 115.2 86.9 114.7 86.4 114.3 C 86 113.9 85.3 113.8 84.5 113.8 C 83.6 113.8 82.9 113.9 82.5 114.2 C 82 114.6 81.8 114.9 81.8 115.4 C 81.8 115.6 81.9 115.9 82.1 116.1 C 82.3 116.3 82.5 116.5 82.9 116.7 C 83.1 116.8 83.7 116.9 84.8 117.2 C 86.3 117.6 87.3 117.9 87.9 118.2 C 88.5 118.4 88.9 118.8 89.3 119.3 C 89.6 119.8 89.8 120.4 89.8 121.1 C 89.8 121.8 89.6 122.5 89.2 123.1 C 88.8 123.7 88.2 124.2 87.4 124.5 C 86.6 124.9 85.7 125 84.8 125 C 83.1 125 81.9 124.7 81.1 124 C 80.2 123.4 79.7 122.4 79.4 121 Z M 98.2 118.5 C 98.2 116.2 98.8 114.5 100.1 113.4 C 101.2 112.5 102.5 112 104 112 C 105.7 112 107.1 112.6 108.2 113.7 C 109.3 114.8 109.8 116.4 109.8 118.4 C 109.8 120 109.6 121.2 109.1 122.1 C 108.6 123.1 107.9 123.8 107 124.3 C 106.1 124.8 105.1 125 104 125 C 102.3 125 100.9 124.5 99.8 123.4 C 98.7 122.2 98.2 120.6 98.2 118.5 Z M 100.3 118.5 C 100.3 120.1 100.7 121.3 101.4 122.1 C 102.1 122.9 102.9 123.3 104 123.3 C 105.1 123.3 105.9 122.9 106.6 122.1 C 107.3 121.3 107.7 120.1 107.7 118.5 C 107.7 116.9 107.3 115.8 106.6 115 C 105.9 114.2 105 113.8 104 113.8 C 102.9 113.8 102.1 114.2 101.4 115 C 100.7 115.8 100.3 116.9 100.3 118.5 Z M 112.8 124.8 L 112.8 114 L 110.9 114 L 110.9 112.3 L 112.8 112.3 C 112.8 112.3 112.8 110.99 112.8 111 C 112.8 110.2 112.9 109.5 113 109.1 C 113.2 108.6 113.6 108.1 114.1 107.8 C 114.6 107.5 115.3 107.3 116.3 107.3 C 116.8 107.3 117.5 107.4 118.2 107.5 C 118.2 107.5 117.9 109.3 117.9 109.3 C 117.5 109.3 117.1 109.2 116.7 109.2 C 116 109.2 115.6 109.4 115.3 109.6 C 115 109.9 114.9 110.4 114.9 111.2 C 114.9 111.17 114.9 112.3 114.9 112.3 L 117.3 112.3 L 117.3 114 L 114.9 114 L 114.9 124.8 L 112.8 124.8 Z M 124.9 118.5 C 124.9 116.2 125.5 114.5 126.8 113.4 C 127.8 112.5 129.1 112 130.7 112 C 132.4 112 133.8 112.6 134.9 113.7 C 136 114.8 136.5 116.4 136.5 118.4 C 136.5 120 136.3 121.2 135.8 122.1 C 135.3 123.1 134.6 123.8 133.7 124.3 C 132.8 124.8 131.8 125 130.7 125 C 128.9 125 127.5 124.5 126.5 123.4 C 125.4 122.2 124.9 120.6 124.9 118.5 Z M 127 118.5 C 127 120.1 127.4 121.3 128.1 122.1 C 128.8 122.9 129.6 123.3 130.7 123.3 C 131.7 123.3 132.6 122.9 133.3 122.1 C 134 121.3 134.3 120.1 134.3 118.5 C 134.3 116.9 134 115.8 133.3 115 C 132.6 114.2 131.7 113.8 130.7 113.8 C 129.6 113.8 128.8 114.2 128.1 115 C 127.4 115.8 127 116.9 127 118.5 Z M 147.1 124.8 C 147.1 124.8 147.14 122.93 147.1 122.9 C 146.2 124.3 144.9 125 143.2 125 C 142.5 125 141.8 124.9 141.1 124.6 C 140.5 124.3 140 124 139.7 123.6 C 139.4 123.1 139.2 122.6 139.1 122 C 139 121.6 138.9 120.9 138.9 120 C 138.94 120.03 138.9 112.3 138.9 112.3 L 141 112.3 C 141 112.3 141.05 119.22 141 119.2 C 141 120.3 141.1 121.1 141.2 121.4 C 141.3 122 141.6 122.4 142 122.7 C 142.4 123.1 143 123.2 143.6 123.2 C 144.2 123.2 144.8 123.1 145.4 122.7 C 145.9 122.4 146.3 122 146.6 121.4 C 146.8 120.9 146.9 120 146.9 119 C 146.92 118.98 146.9 112.3 146.9 112.3 L 149 112.3 L 149 124.8 L 147.1 124.8 Z M 152.3 124.8 L 152.3 112.3 L 154.2 112.3 C 154.2 112.3 154.21 114.2 154.2 114.2 C 154.7 113.3 155.1 112.7 155.5 112.5 C 156 112.2 156.4 112 156.9 112 C 157.6 112 158.3 112.3 159.1 112.7 C 159.1 112.7 158.3 114.7 158.3 114.7 C 157.8 114.4 157.3 114.2 156.8 114.2 C 156.3 114.2 155.9 114.4 155.6 114.6 C 155.2 114.9 154.9 115.3 154.8 115.8 C 154.5 116.5 154.4 117.4 154.4 118.2 C 154.42 118.24 154.4 124.8 154.4 124.8 L 152.3 124.8 Z M 175.1 120.2 C 175.1 120.2 177.2 120.5 177.2 120.5 C 177 121.9 176.4 123 175.4 123.8 C 174.5 124.6 173.4 125 172 125 C 170.3 125 168.9 124.5 167.9 123.4 C 166.9 122.3 166.3 120.7 166.3 118.6 C 166.3 117.2 166.6 116.1 167 115.1 C 167.5 114 168.1 113.3 169 112.8 C 170 112.3 170.9 112 172 112 C 173.4 112 174.5 112.4 175.3 113.1 C 176.2 113.7 176.7 114.7 177 116 C 177 116 174.9 116.3 174.9 116.3 C 174.7 115.5 174.4 114.8 173.9 114.4 C 173.4 114 172.8 113.8 172.1 113.8 C 171 113.8 170.2 114.1 169.5 114.9 C 168.8 115.7 168.5 116.9 168.5 118.5 C 168.5 120.2 168.8 121.4 169.5 122.2 C 170.1 122.9 171 123.3 172 123.3 C 172.8 123.3 173.5 123.1 174.1 122.5 C 174.6 122 175 121.3 175.1 120.2 Z M 178.9 124.8 L 178.9 107.6 L 181.1 107.6 L 181.1 124.8 L 178.9 124.8 Z M 184.3 110 L 184.3 107.6 L 186.4 107.6 L 186.4 110 L 184.3 110 Z M 184.3 124.8 L 184.3 112.3 L 186.4 112.3 L 186.4 124.8 L 184.3 124.8 Z M 198.2 120.8 C 198.2 120.8 200.4 121 200.4 121 C 200 122.3 199.4 123.3 198.4 124 C 197.5 124.7 196.3 125 194.9 125 C 193.1 125 191.6 124.5 190.6 123.4 C 189.5 122.2 189 120.7 189 118.6 C 189 116.5 189.5 114.9 190.6 113.8 C 191.6 112.6 193 112 194.8 112 C 196.4 112 197.8 112.6 198.8 113.7 C 199.9 114.9 200.4 116.5 200.4 118.5 C 200.4 118.6 200.4 118.8 200.4 119.1 C 200.4 119.1 191.1 119.1 191.1 119.1 C 191.2 120.4 191.6 121.5 192.3 122.2 C 193 122.9 193.9 123.3 194.9 123.3 C 195.7 123.3 196.3 123.1 196.9 122.7 C 197.4 122.3 197.9 121.6 198.2 120.8 Z M 191.3 117.3 C 191.3 117.3 198.2 117.3 198.2 117.3 C 198.1 116.3 197.8 115.5 197.4 115 C 196.7 114.2 195.9 113.8 194.8 113.8 C 193.8 113.8 193 114.1 192.3 114.7 C 191.7 115.4 191.3 116.3 191.3 117.3 Z M 203 124.8 L 203 112.3 L 204.9 112.3 C 204.9 112.3 204.9 114.08 204.9 114.1 C 205.8 112.7 207.1 112 208.9 112 C 209.6 112 210.3 112.2 210.9 112.4 C 211.6 112.7 212 113.1 212.3 113.5 C 212.7 113.9 212.9 114.5 213 115.1 C 213.1 115.4 213.1 116.1 213.1 117.1 C 213.12 117.11 213.1 124.8 213.1 124.8 L 211 124.8 C 211 124.8 211.01 117.19 211 117.2 C 211 116.3 210.9 115.7 210.8 115.3 C 210.6 114.8 210.3 114.5 209.9 114.2 C 209.5 114 209 113.9 208.4 113.9 C 207.5 113.9 206.7 114.1 206.1 114.7 C 205.4 115.3 205.1 116.4 205.1 118 C 205.11 117.96 205.1 124.8 205.1 124.8 L 203 124.8 Z M 220 123 C 220.3 123 220.6 122.9 221 122.9 C 221 122.9 221.3 124.7 221.3 124.7 C 220.7 124.9 220.1 124.9 219.7 124.9 C 218.9 124.9 218.3 124.8 217.9 124.6 C 217.5 124.3 217.2 124 217 123.6 C 216.8 123.2 216.7 122.4 216.7 121.1 C 216.74 121.12 216.7 114 216.7 114 L 215.2 114 L 215.2 112.3 L 216.7 112.3 L 216.7 109.2 L 218.8 108 L 218.8 112.3 L 221 112.3 L 221 114 L 218.8 114 C 218.8 114 218.84 121.23 218.8 121.2 C 218.8 121.8 218.9 122.2 218.9 122.4 C 219 122.6 219.1 122.7 219.3 122.8 C 219.5 122.9 219.7 123 220 123 C 220 123 220 123 220 123 Z M 222.2 121 C 222.2 121 224.3 120.7 224.3 120.7 C 224.4 121.6 224.7 122.2 225.2 122.6 C 225.8 123.1 226.5 123.3 227.5 123.3 C 228.5 123.3 229.2 123.1 229.6 122.7 C 230.1 122.3 230.3 121.9 230.3 121.3 C 230.3 120.8 230.1 120.5 229.7 120.2 C 229.4 120 228.7 119.8 227.6 119.5 C 226 119.1 224.9 118.8 224.3 118.5 C 223.8 118.2 223.3 117.8 223 117.3 C 222.7 116.8 222.5 116.2 222.5 115.6 C 222.5 115.1 222.7 114.6 222.9 114.1 C 223.2 113.6 223.5 113.2 223.9 112.9 C 224.3 112.7 224.7 112.5 225.3 112.3 C 225.9 112.1 226.5 112 227.1 112 C 228.1 112 228.9 112.2 229.7 112.5 C 230.4 112.7 231 113.1 231.3 113.6 C 231.7 114.1 231.9 114.7 232 115.5 C 232 115.5 230 115.8 230 115.8 C 229.9 115.2 229.6 114.7 229.2 114.3 C 228.7 113.9 228.1 113.8 227.3 113.8 C 226.3 113.8 225.6 113.9 225.2 114.2 C 224.8 114.6 224.6 114.9 224.6 115.4 C 224.6 115.6 224.7 115.9 224.8 116.1 C 225 116.3 225.3 116.5 225.6 116.7 C 225.8 116.8 226.5 116.9 227.5 117.2 C 229 117.6 230 117.9 230.6 118.2 C 231.2 118.4 231.7 118.8 232 119.3 C 232.3 119.8 232.5 120.4 232.5 121.1 C 232.5 121.8 232.3 122.5 231.9 123.1 C 231.5 123.7 230.9 124.2 230.1 124.5 C 229.3 124.9 228.5 125 227.5 125 C 225.9 125 224.6 124.7 223.8 124 C 223 123.4 222.4 122.4 222.2 121 Z " stroke="none" fill="#ffffff"/>  </g>  <g id="Polygon16879">    <path d="M 1.6 100.7 L 1.6 83.5 L 3.5 83.5 C 3.5 83.5 3.5 85.13 3.5 85.1 C 4 84.5 4.5 84 5 83.7 C 5.6 83.4 6.3 83.2 7.1 83.2 C 8.2 83.2 9.1 83.5 9.9 84.1 C 10.7 84.6 11.4 85.4 11.8 86.4 C 12.2 87.4 12.4 88.5 12.4 89.6 C 12.4 90.9 12.2 92.1 11.7 93.1 C 11.2 94.1 10.6 94.9 9.7 95.4 C 8.8 96 7.9 96.2 7 96.2 C 6.3 96.2 5.6 96.1 5.1 95.8 C 4.5 95.5 4.1 95.1 3.7 94.7 C 3.69 94.67 3.7 100.7 3.7 100.7 L 1.6 100.7 Z M 3.5 89.8 C 3.5 91.4 3.8 92.6 4.5 93.4 C 5.1 94.1 5.9 94.5 6.8 94.5 C 7.8 94.5 8.6 94.1 9.2 93.3 C 9.9 92.5 10.2 91.3 10.2 89.6 C 10.2 88 9.9 86.9 9.3 86.1 C 8.6 85.3 7.8 84.9 6.9 84.9 C 6 84.9 5.2 85.3 4.5 86.1 C 3.8 87 3.5 88.2 3.5 89.8 Z M 14.9 96 L 14.9 83.5 L 16.8 83.5 C 16.8 83.5 16.8 85.4 16.8 85.4 C 17.3 84.5 17.7 83.9 18.1 83.7 C 18.6 83.4 19 83.2 19.5 83.2 C 20.2 83.2 20.9 83.5 21.7 83.9 C 21.7 83.9 20.9 85.9 20.9 85.9 C 20.4 85.6 19.9 85.4 19.4 85.4 C 18.9 85.4 18.5 85.6 18.2 85.8 C 17.8 86.1 17.5 86.5 17.4 87 C 17.1 87.7 17 88.6 17 89.4 C 17.02 89.44 17 96 17 96 L 14.9 96 Z M 22.9 81.2 L 22.9 78.8 L 25 78.8 L 25 81.2 L 22.9 81.2 Z M 22.9 96 L 22.9 83.5 L 25 83.5 L 25 96 L 22.9 96 Z M 28.3 96 L 28.3 83.5 L 30.2 83.5 C 30.2 83.5 30.15 85.28 30.2 85.3 C 31.1 83.9 32.4 83.2 34.1 83.2 C 34.9 83.2 35.6 83.4 36.2 83.6 C 36.8 83.9 37.3 84.3 37.6 84.7 C 37.9 85.1 38.1 85.7 38.3 86.3 C 38.3 86.6 38.4 87.3 38.4 88.3 C 38.37 88.31 38.4 96 38.4 96 L 36.3 96 C 36.3 96 36.26 88.39 36.3 88.4 C 36.3 87.5 36.2 86.9 36 86.5 C 35.8 86 35.6 85.7 35.1 85.4 C 34.7 85.2 34.2 85.1 33.7 85.1 C 32.8 85.1 32 85.3 31.3 85.9 C 30.7 86.5 30.4 87.6 30.4 89.2 C 30.36 89.16 30.4 96 30.4 96 L 28.3 96 Z M 49.7 91.4 C 49.7 91.4 51.8 91.7 51.8 91.7 C 51.6 93.1 51 94.2 50.1 95 C 49.1 95.8 48 96.2 46.6 96.2 C 44.9 96.2 43.5 95.7 42.5 94.6 C 41.5 93.5 41 91.9 41 89.8 C 41 88.4 41.2 87.3 41.6 86.3 C 42.1 85.2 42.7 84.5 43.7 84 C 44.6 83.5 45.6 83.2 46.6 83.2 C 48 83.2 49.1 83.6 49.9 84.3 C 50.8 84.9 51.4 85.9 51.6 87.2 C 51.6 87.2 49.5 87.5 49.5 87.5 C 49.4 86.7 49 86 48.5 85.6 C 48 85.2 47.4 85 46.7 85 C 45.6 85 44.8 85.3 44.1 86.1 C 43.5 86.9 43.1 88.1 43.1 89.7 C 43.1 91.4 43.4 92.6 44.1 93.4 C 44.7 94.1 45.6 94.5 46.6 94.5 C 47.4 94.5 48.1 94.3 48.7 93.7 C 49.2 93.2 49.6 92.5 49.7 91.4 Z M 53.6 81.2 L 53.6 78.8 L 55.7 78.8 L 55.7 81.2 L 53.6 81.2 Z M 53.6 96 L 53.6 83.5 L 55.7 83.5 L 55.7 96 L 53.6 96 Z M 58.9 100.7 L 58.9 83.5 L 60.9 83.5 C 60.9 83.5 60.86 85.13 60.9 85.1 C 61.3 84.5 61.8 84 62.4 83.7 C 63 83.4 63.7 83.2 64.5 83.2 C 65.5 83.2 66.5 83.5 67.3 84.1 C 68.1 84.6 68.7 85.4 69.1 86.4 C 69.5 87.4 69.7 88.5 69.7 89.6 C 69.7 90.9 69.5 92.1 69.1 93.1 C 68.6 94.1 67.9 94.9 67.1 95.4 C 66.2 96 65.3 96.2 64.3 96.2 C 63.6 96.2 63 96.1 62.4 95.8 C 61.9 95.5 61.4 95.1 61 94.7 C 61.04 94.67 61 100.7 61 100.7 L 58.9 100.7 Z M 60.8 89.8 C 60.8 91.4 61.2 92.6 61.8 93.4 C 62.5 94.1 63.2 94.5 64.2 94.5 C 65.1 94.5 65.9 94.1 66.6 93.3 C 67.2 92.5 67.6 91.3 67.6 89.6 C 67.6 88 67.3 86.9 66.6 86.1 C 66 85.3 65.2 84.9 64.3 84.9 C 63.4 84.9 62.6 85.3 61.9 86.1 C 61.2 87 60.8 88.2 60.8 89.8 Z M 72.2 96 L 72.2 78.8 L 74.3 78.8 L 74.3 96 L 72.2 96 Z M 86.1 92 C 86.1 92 88.3 92.2 88.3 92.2 C 88 93.5 87.3 94.5 86.4 95.2 C 85.5 95.9 84.3 96.2 82.8 96.2 C 81 96.2 79.6 95.7 78.5 94.6 C 77.4 93.4 76.9 91.9 76.9 89.8 C 76.9 87.7 77.4 86.1 78.5 85 C 79.6 83.8 81 83.2 82.7 83.2 C 84.4 83.2 85.7 83.8 86.8 84.9 C 87.9 86.1 88.4 87.7 88.4 89.7 C 88.4 89.8 88.4 90 88.4 90.3 C 88.4 90.3 79.1 90.3 79.1 90.3 C 79.2 91.6 79.6 92.7 80.3 93.4 C 80.9 94.1 81.8 94.5 82.9 94.5 C 83.6 94.5 84.3 94.3 84.8 93.9 C 85.4 93.5 85.8 92.8 86.1 92 Z M 79.2 88.5 C 79.2 88.5 86.2 88.5 86.2 88.5 C 86.1 87.5 85.8 86.7 85.4 86.2 C 84.7 85.4 83.8 85 82.7 85 C 81.8 85 81 85.3 80.3 85.9 C 79.6 86.6 79.3 87.5 79.2 88.5 Z M 90.1 92.2 C 90.1 92.2 92.2 91.9 92.2 91.9 C 92.3 92.8 92.6 93.4 93.2 93.8 C 93.7 94.3 94.5 94.5 95.4 94.5 C 96.4 94.5 97.1 94.3 97.6 93.9 C 98.1 93.5 98.3 93.1 98.3 92.5 C 98.3 92 98.1 91.7 97.7 91.4 C 97.4 91.2 96.7 91 95.5 90.7 C 94 90.3 92.9 90 92.3 89.7 C 91.7 89.4 91.2 89 90.9 88.5 C 90.6 88 90.5 87.4 90.5 86.8 C 90.5 86.3 90.6 85.8 90.8 85.3 C 91.1 84.8 91.4 84.4 91.9 84.1 C 92.2 83.9 92.7 83.7 93.2 83.5 C 93.8 83.3 94.4 83.2 95.1 83.2 C 96 83.2 96.9 83.4 97.6 83.7 C 98.4 83.9 98.9 84.3 99.3 84.8 C 99.6 85.3 99.9 85.9 100 86.7 C 100 86.7 97.9 87 97.9 87 C 97.8 86.4 97.6 85.9 97.1 85.5 C 96.7 85.1 96 85 95.2 85 C 94.2 85 93.5 85.1 93.1 85.4 C 92.7 85.8 92.5 86.1 92.5 86.6 C 92.5 86.8 92.6 87.1 92.8 87.3 C 92.9 87.5 93.2 87.7 93.6 87.9 C 93.8 88 94.4 88.1 95.4 88.4 C 96.9 88.8 98 89.1 98.6 89.4 C 99.2 89.6 99.6 90 99.9 90.5 C 100.3 91 100.5 91.6 100.5 92.3 C 100.5 93 100.2 93.7 99.8 94.3 C 99.4 94.9 98.8 95.4 98.1 95.7 C 97.3 96.1 96.4 96.2 95.4 96.2 C 93.8 96.2 92.6 95.9 91.7 95.2 C 90.9 94.6 90.4 93.6 90.1 92.2 Z M 103.5 96 L 103.5 93.6 L 105.9 93.6 C 105.9 93.6 105.91 95.96 105.9 96 C 105.9 96.8 105.8 97.6 105.4 98.1 C 105.1 98.6 104.6 99.1 104 99.4 C 104 99.4 103.4 98.5 103.4 98.5 C 103.8 98.3 104.1 98 104.4 97.6 C 104.6 97.2 104.7 96.7 104.7 96 C 104.71 95.96 103.5 96 103.5 96 Z M 120 94.2 C 120.2 94.2 120.5 94.1 120.9 94.1 C 120.9 94.1 121.2 95.9 121.2 95.9 C 120.6 96.1 120.1 96.1 119.6 96.1 C 118.8 96.1 118.3 96 117.8 95.8 C 117.4 95.5 117.1 95.2 116.9 94.8 C 116.8 94.4 116.7 93.6 116.7 92.3 C 116.68 92.32 116.7 85.2 116.7 85.2 L 115.1 85.2 L 115.1 83.5 L 116.7 83.5 L 116.7 80.4 L 118.8 79.2 L 118.8 83.5 L 120.9 83.5 L 120.9 85.2 L 118.8 85.2 C 118.8 85.2 118.78 92.43 118.8 92.4 C 118.8 93 118.8 93.4 118.9 93.6 C 119 93.8 119.1 93.9 119.3 94 C 119.4 94.1 119.7 94.2 120 94.2 C 120 94.2 120 94.2 120 94.2 Z M 122.9 96 L 122.9 83.5 L 124.8 83.5 C 124.8 83.5 124.84 85.4 124.8 85.4 C 125.3 84.5 125.8 83.9 126.2 83.7 C 126.6 83.4 127 83.2 127.5 83.2 C 128.2 83.2 129 83.5 129.7 83.9 C 129.7 83.9 129 85.9 129 85.9 C 128.5 85.6 127.9 85.4 127.4 85.4 C 127 85.4 126.6 85.6 126.2 85.8 C 125.8 86.1 125.6 86.5 125.4 87 C 125.2 87.7 125.1 88.6 125.1 89.4 C 125.05 89.44 125.1 96 125.1 96 L 122.9 96 Z M 139.5 96 C 139.3 95.5 139.1 95 139.1 94.4 C 138.3 95.1 137.5 95.6 136.8 95.8 C 136.1 96.1 135.3 96.2 134.5 96.2 C 133.1 96.2 132.1 95.9 131.3 95.2 C 130.6 94.6 130.2 93.7 130.2 92.7 C 130.2 92.1 130.4 91.5 130.7 91 C 130.9 90.5 131.3 90.1 131.7 89.8 C 132.2 89.5 132.7 89.3 133.3 89.1 C 133.7 89 134.3 88.9 135.1 88.8 C 136.8 88.6 138.1 88.3 138.9 88.1 C 138.9 87.8 138.9 87.6 138.9 87.5 C 138.9 86.7 138.7 86 138.3 85.7 C 137.8 85.2 137 85 135.9 85 C 134.9 85 134.2 85.2 133.7 85.5 C 133.2 85.8 132.9 86.5 132.7 87.3 C 132.7 87.3 130.6 87.1 130.6 87.1 C 130.8 86.2 131.1 85.5 131.5 84.9 C 132 84.4 132.6 84 133.4 83.7 C 134.2 83.4 135.1 83.2 136.2 83.2 C 137.3 83.2 138.1 83.4 138.8 83.6 C 139.5 83.9 140 84.2 140.3 84.6 C 140.6 84.9 140.8 85.4 140.9 86 C 141 86.3 141 87 141 87.9 C 141 87.9 141 90.7 141 90.7 C 141 92.7 141.1 93.9 141.2 94.5 C 141.3 95 141.4 95.5 141.7 96 C 141.7 95.96 139.5 96 139.5 96 C 139.5 96 139.5 95.96 139.5 96 Z M 138.9 89.7 C 138.1 90 137 90.3 135.5 90.5 C 134.6 90.6 134 90.8 133.6 90.9 C 133.3 91.1 133 91.3 132.8 91.6 C 132.6 91.9 132.5 92.3 132.5 92.6 C 132.5 93.2 132.7 93.7 133.1 94 C 133.6 94.4 134.2 94.6 135 94.6 C 135.8 94.6 136.5 94.4 137.2 94.1 C 137.8 93.7 138.3 93.2 138.6 92.6 C 138.8 92.1 138.9 91.4 138.9 90.5 C 138.9 90.5 138.9 89.7 138.9 89.7 Z M 144.3 96 L 144.3 83.5 L 146.2 83.5 C 146.2 83.5 146.2 85.28 146.2 85.3 C 147.1 83.9 148.4 83.2 150.2 83.2 C 150.9 83.2 151.6 83.4 152.2 83.6 C 152.9 83.9 153.3 84.3 153.6 84.7 C 154 85.1 154.2 85.7 154.3 86.3 C 154.4 86.6 154.4 87.3 154.4 88.3 C 154.42 88.31 154.4 96 154.4 96 L 152.3 96 C 152.3 96 152.31 88.39 152.3 88.4 C 152.3 87.5 152.2 86.9 152.1 86.5 C 151.9 86 151.6 85.7 151.2 85.4 C 150.8 85.2 150.3 85.1 149.7 85.1 C 148.8 85.1 148 85.3 147.4 85.9 C 146.7 86.5 146.4 87.6 146.4 89.2 C 146.41 89.16 146.4 96 146.4 96 L 144.3 96 Z M 156.8 92.2 C 156.8 92.2 158.9 91.9 158.9 91.9 C 159 92.8 159.3 93.4 159.9 93.8 C 160.4 94.3 161.2 94.5 162.1 94.5 C 163.1 94.5 163.8 94.3 164.3 93.9 C 164.7 93.5 165 93.1 165 92.5 C 165 92 164.8 91.7 164.4 91.4 C 164.1 91.2 163.3 91 162.2 90.7 C 160.7 90.3 159.6 90 159 89.7 C 158.4 89.4 157.9 89 157.6 88.5 C 157.3 88 157.2 87.4 157.2 86.8 C 157.2 86.3 157.3 85.8 157.5 85.3 C 157.8 84.8 158.1 84.4 158.6 84.1 C 158.9 83.9 159.4 83.7 159.9 83.5 C 160.5 83.3 161.1 83.2 161.7 83.2 C 162.7 83.2 163.6 83.4 164.3 83.7 C 165.1 83.9 165.6 84.3 165.9 84.8 C 166.3 85.3 166.5 85.9 166.7 86.7 C 166.7 86.7 164.6 87 164.6 87 C 164.5 86.4 164.2 85.9 163.8 85.5 C 163.3 85.1 162.7 85 161.9 85 C 160.9 85 160.2 85.1 159.8 85.4 C 159.4 85.8 159.2 86.1 159.2 86.6 C 159.2 86.8 159.3 87.1 159.5 87.3 C 159.6 87.5 159.9 87.7 160.3 87.9 C 160.5 88 161.1 88.1 162.1 88.4 C 163.6 88.8 164.7 89.1 165.3 89.4 C 165.8 89.6 166.3 90 166.6 90.5 C 167 91 167.1 91.6 167.1 92.3 C 167.1 93 166.9 93.7 166.5 94.3 C 166.1 94.9 165.5 95.4 164.8 95.7 C 164 96.1 163.1 96.2 162.1 96.2 C 160.5 96.2 159.3 95.9 158.4 95.2 C 157.6 94.6 157 93.6 156.8 92.2 Z M 169.7 100.7 L 169.7 83.5 L 171.6 83.5 C 171.6 83.5 171.57 85.13 171.6 85.1 C 172 84.5 172.5 84 173.1 83.7 C 173.7 83.4 174.4 83.2 175.2 83.2 C 176.2 83.2 177.2 83.5 178 84.1 C 178.8 84.6 179.4 85.4 179.8 86.4 C 180.2 87.4 180.5 88.5 180.5 89.6 C 180.5 90.9 180.2 92.1 179.8 93.1 C 179.3 94.1 178.7 94.9 177.8 95.4 C 176.9 96 176 96.2 175 96.2 C 174.3 96.2 173.7 96.1 173.1 95.8 C 172.6 95.5 172.1 95.1 171.8 94.7 C 171.76 94.67 171.8 100.7 171.8 100.7 L 169.7 100.7 Z M 171.6 89.8 C 171.6 91.4 171.9 92.6 172.5 93.4 C 173.2 94.1 174 94.5 174.9 94.5 C 175.8 94.5 176.6 94.1 177.3 93.3 C 178 92.5 178.3 91.3 178.3 89.6 C 178.3 88 178 86.9 177.3 86.1 C 176.7 85.3 175.9 84.9 175 84.9 C 174.1 84.9 173.3 85.3 172.6 86.1 C 171.9 87 171.6 88.2 171.6 89.8 Z M 191.5 96 C 191.3 95.5 191.2 95 191.1 94.4 C 190.3 95.1 189.6 95.6 188.9 95.8 C 188.1 96.1 187.4 96.2 186.5 96.2 C 185.2 96.2 184.1 95.9 183.4 95.2 C 182.7 94.6 182.3 93.7 182.3 92.7 C 182.3 92.1 182.4 91.5 182.7 91 C 183 90.5 183.3 90.1 183.8 89.8 C 184.2 89.5 184.7 89.3 185.3 89.1 C 185.7 89 186.3 88.9 187.2 88.8 C 188.9 88.6 190.1 88.3 190.9 88.1 C 191 87.8 191 87.6 191 87.5 C 191 86.7 190.8 86 190.4 85.7 C 189.8 85.2 189 85 188 85 C 187 85 186.2 85.2 185.8 85.5 C 185.3 85.8 184.9 86.5 184.7 87.3 C 184.7 87.3 182.6 87.1 182.6 87.1 C 182.8 86.2 183.1 85.5 183.6 84.9 C 184 84.4 184.6 84 185.4 83.7 C 186.2 83.4 187.2 83.2 188.3 83.2 C 189.3 83.2 190.2 83.4 190.9 83.6 C 191.5 83.9 192 84.2 192.3 84.6 C 192.6 84.9 192.8 85.4 193 86 C 193 86.3 193.1 87 193.1 87.9 C 193.1 87.9 193.1 90.7 193.1 90.7 C 193.1 92.7 193.1 93.9 193.2 94.5 C 193.3 95 193.5 95.5 193.7 96 C 193.75 95.96 191.5 96 191.5 96 C 191.5 96 191.54 95.96 191.5 96 Z M 190.9 89.7 C 190.2 90 189 90.3 187.5 90.5 C 186.6 90.6 186 90.8 185.7 90.9 C 185.3 91.1 185 91.3 184.8 91.6 C 184.6 91.9 184.5 92.3 184.5 92.6 C 184.5 93.2 184.7 93.7 185.2 94 C 185.6 94.4 186.2 94.6 187 94.6 C 187.9 94.6 188.6 94.4 189.2 94.1 C 189.8 93.7 190.3 93.2 190.6 92.6 C 190.8 92.1 190.9 91.4 190.9 90.5 C 190.9 90.5 190.9 89.7 190.9 89.7 Z M 196.3 96 L 196.3 83.5 L 198.2 83.5 C 198.2 83.5 198.22 85.4 198.2 85.4 C 198.7 84.5 199.2 83.9 199.6 83.7 C 200 83.4 200.4 83.2 200.9 83.2 C 201.6 83.2 202.4 83.5 203.1 83.9 C 203.1 83.9 202.4 85.9 202.4 85.9 C 201.8 85.6 201.3 85.4 200.8 85.4 C 200.4 85.4 199.9 85.6 199.6 85.8 C 199.2 86.1 198.9 86.5 198.8 87 C 198.6 87.7 198.4 88.6 198.4 89.4 C 198.43 89.44 198.4 96 198.4 96 L 196.3 96 Z M 212.9 92 C 212.9 92 215 92.2 215 92.2 C 214.7 93.5 214.1 94.5 213.1 95.2 C 212.2 95.9 211 96.2 209.6 96.2 C 207.7 96.2 206.3 95.7 205.2 94.6 C 204.2 93.4 203.6 91.9 203.6 89.8 C 203.6 87.7 204.2 86.1 205.3 85 C 206.3 83.8 207.7 83.2 209.4 83.2 C 211.1 83.2 212.5 83.8 213.5 84.9 C 214.6 86.1 215.1 87.7 215.1 89.7 C 215.1 89.8 215.1 90 215.1 90.3 C 215.1 90.3 205.8 90.3 205.8 90.3 C 205.9 91.6 206.3 92.7 207 93.4 C 207.7 94.1 208.5 94.5 209.6 94.5 C 210.4 94.5 211 94.3 211.6 93.9 C 212.1 93.5 212.5 92.8 212.9 92 Z M 205.9 88.5 C 205.9 88.5 212.9 88.5 212.9 88.5 C 212.8 87.5 212.5 86.7 212.1 86.2 C 211.4 85.4 210.5 85 209.5 85 C 208.5 85 207.7 85.3 207 85.9 C 206.4 86.6 206 87.5 205.9 88.5 Z M 217.7 96 L 217.7 83.5 L 219.6 83.5 C 219.6 83.5 219.59 85.28 219.6 85.3 C 220.5 83.9 221.8 83.2 223.5 83.2 C 224.3 83.2 225 83.4 225.6 83.6 C 226.2 83.9 226.7 84.3 227 84.7 C 227.3 85.1 227.6 85.7 227.7 86.3 C 227.8 86.6 227.8 87.3 227.8 88.3 C 227.8 88.31 227.8 96 227.8 96 L 225.7 96 C 225.7 96 225.69 88.39 225.7 88.4 C 225.7 87.5 225.6 86.9 225.4 86.5 C 225.3 86 225 85.7 224.6 85.4 C 224.2 85.2 223.7 85.1 223.1 85.1 C 222.2 85.1 221.4 85.3 220.8 85.9 C 220.1 86.5 219.8 87.6 219.8 89.2 C 219.8 89.16 219.8 96 219.8 96 L 217.7 96 Z M 239.2 91.4 C 239.2 91.4 241.2 91.7 241.2 91.7 C 241 93.1 240.4 94.2 239.5 95 C 238.6 95.8 237.4 96.2 236.1 96.2 C 234.3 96.2 233 95.7 231.9 94.6 C 230.9 93.5 230.4 91.9 230.4 89.8 C 230.4 88.4 230.6 87.3 231.1 86.3 C 231.5 85.2 232.2 84.5 233.1 84 C 234 83.5 235 83.2 236.1 83.2 C 237.4 83.2 238.5 83.6 239.4 84.3 C 240.2 84.9 240.8 85.9 241 87.2 C 241 87.2 239 87.5 239 87.5 C 238.8 86.7 238.4 86 237.9 85.6 C 237.4 85.2 236.8 85 236.1 85 C 235.1 85 234.2 85.3 233.6 86.1 C 232.9 86.9 232.6 88.1 232.6 89.7 C 232.6 91.4 232.9 92.6 233.5 93.4 C 234.2 94.1 235 94.5 236 94.5 C 236.9 94.5 237.5 94.3 238.1 93.7 C 238.7 93.2 239 92.5 239.2 91.4 Z M 244.3 101 C 243.9 101 243.4 100.9 242.9 100.8 C 242.9 100.8 242.7 98.8 242.7 98.8 C 243.2 98.9 243.6 99 243.9 99 C 244.4 99 244.8 98.9 245 98.7 C 245.3 98.6 245.6 98.4 245.7 98.1 C 245.9 97.9 246.1 97.3 246.4 96.5 C 246.4 96.4 246.5 96.2 246.6 96 C 246.56 95.98 241.8 83.5 241.8 83.5 L 244.1 83.5 C 244.1 83.5 246.7 90.72 246.7 90.7 C 247 91.6 247.3 92.6 247.6 93.6 C 247.8 92.6 248.1 91.7 248.5 90.8 C 248.47 90.77 251.1 83.5 251.1 83.5 L 253.2 83.5 C 253.2 83.5 248.51 96.17 248.5 96.2 C 248 97.5 247.6 98.5 247.3 99 C 246.9 99.7 246.5 100.2 246 100.5 C 245.6 100.8 245 101 244.3 101 C 244.3 101 244.3 101 244.3 101 Z M 270.2 96 C 270 95.5 269.9 95 269.8 94.4 C 269 95.1 268.3 95.6 267.6 95.8 C 266.8 96.1 266.1 96.2 265.2 96.2 C 263.9 96.2 262.8 95.9 262.1 95.2 C 261.4 94.6 261 93.7 261 92.7 C 261 92.1 261.1 91.5 261.4 91 C 261.7 90.5 262 90.1 262.5 89.8 C 262.9 89.5 263.4 89.3 264 89.1 C 264.4 89 265.1 88.9 265.9 88.8 C 267.6 88.6 268.8 88.3 269.6 88.1 C 269.7 87.8 269.7 87.6 269.7 87.5 C 269.7 86.7 269.5 86 269.1 85.7 C 268.5 85.2 267.7 85 266.7 85 C 265.7 85 264.9 85.2 264.5 85.5 C 264 85.8 263.6 86.5 263.4 87.3 C 263.4 87.3 261.4 87.1 261.4 87.1 C 261.5 86.2 261.8 85.5 262.3 84.9 C 262.7 84.4 263.3 84 264.1 83.7 C 265 83.4 265.9 83.2 267 83.2 C 268 83.2 268.9 83.4 269.6 83.6 C 270.2 83.9 270.7 84.2 271 84.6 C 271.3 84.9 271.6 85.4 271.7 86 C 271.7 86.3 271.8 87 271.8 87.9 C 271.8 87.9 271.8 90.7 271.8 90.7 C 271.8 92.7 271.8 93.9 271.9 94.5 C 272 95 272.2 95.5 272.4 96 C 272.45 95.96 270.2 96 270.2 96 C 270.2 96 270.25 95.96 270.2 96 Z M 269.6 89.7 C 268.9 90 267.7 90.3 266.2 90.5 C 265.3 90.6 264.7 90.8 264.4 90.9 C 264 91.1 263.7 91.3 263.5 91.6 C 263.3 91.9 263.2 92.3 263.2 92.6 C 263.2 93.2 263.5 93.7 263.9 94 C 264.3 94.4 264.9 94.6 265.7 94.6 C 266.6 94.6 267.3 94.4 267.9 94.1 C 268.5 93.7 269 93.2 269.3 92.6 C 269.5 92.1 269.6 91.4 269.6 90.5 C 269.6 90.5 269.6 89.7 269.6 89.7 Z M 275.1 96 L 275.1 83.5 L 276.9 83.5 C 276.9 83.5 276.95 85.28 276.9 85.3 C 277.9 83.9 279.2 83.2 280.9 83.2 C 281.7 83.2 282.3 83.4 283 83.6 C 283.6 83.9 284.1 84.3 284.4 84.7 C 284.7 85.1 284.9 85.7 285 86.3 C 285.1 86.6 285.2 87.3 285.2 88.3 C 285.16 88.31 285.2 96 285.2 96 L 283.1 96 C 283.1 96 283.05 88.39 283.1 88.4 C 283.1 87.5 283 86.9 282.8 86.5 C 282.6 86 282.4 85.7 281.9 85.4 C 281.5 85.2 281 85.1 280.5 85.1 C 279.6 85.1 278.8 85.3 278.1 85.9 C 277.5 86.5 277.2 87.6 277.2 89.2 C 277.16 89.16 277.2 96 277.2 96 L 275.1 96 Z M 296.5 96 C 296.5 96 296.47 94.39 296.5 94.4 C 295.7 95.6 294.5 96.2 293 96.2 C 292 96.2 291.1 96 290.3 95.4 C 289.4 94.9 288.8 94.1 288.3 93.1 C 287.9 92.1 287.6 91 287.6 89.7 C 287.6 88.5 287.8 87.4 288.3 86.4 C 288.7 85.4 289.3 84.6 290.1 84 C 290.9 83.5 291.9 83.2 292.9 83.2 C 293.6 83.2 294.3 83.4 294.9 83.7 C 295.5 84 296 84.4 296.3 84.9 C 296.33 84.94 296.3 78.8 296.3 78.8 L 298.4 78.8 L 298.4 96 L 296.5 96 Z M 289.8 89.7 C 289.8 91.3 290.1 92.5 290.8 93.3 C 291.5 94.1 292.3 94.5 293.2 94.5 C 294.1 94.5 294.9 94.1 295.5 93.4 C 296.2 92.6 296.5 91.5 296.5 89.9 C 296.5 88.2 296.2 87 295.5 86.2 C 294.9 85.4 294.1 85 293.1 85 C 292.2 85 291.4 85.4 290.7 86.1 C 290.1 86.9 289.8 88.1 289.8 89.7 Z M 317 96 C 316.7 95.5 316.6 95 316.5 94.4 C 315.8 95.1 315 95.6 314.3 95.8 C 313.6 96.1 312.8 96.2 312 96.2 C 310.6 96.2 309.5 95.9 308.8 95.2 C 308.1 94.6 307.7 93.7 307.7 92.7 C 307.7 92.1 307.8 91.5 308.1 91 C 308.4 90.5 308.8 90.1 309.2 89.8 C 309.7 89.5 310.2 89.3 310.7 89.1 C 311.1 89 311.8 88.9 312.6 88.8 C 314.3 88.6 315.6 88.3 316.4 88.1 C 316.4 87.8 316.4 87.6 316.4 87.5 C 316.4 86.7 316.2 86 315.8 85.7 C 315.2 85.2 314.4 85 313.4 85 C 312.4 85 311.6 85.2 311.2 85.5 C 310.7 85.8 310.4 86.5 310.1 87.3 C 310.1 87.3 308.1 87.1 308.1 87.1 C 308.3 86.2 308.6 85.5 309 84.9 C 309.4 84.4 310 84 310.9 83.7 C 311.7 83.4 312.6 83.2 313.7 83.2 C 314.7 83.2 315.6 83.4 316.3 83.6 C 316.9 83.9 317.4 84.2 317.7 84.6 C 318 84.9 318.3 85.4 318.4 86 C 318.5 86.3 318.5 87 318.5 87.9 C 318.5 87.9 318.5 90.7 318.5 90.7 C 318.5 92.7 318.5 93.9 318.6 94.5 C 318.7 95 318.9 95.5 319.2 96 C 319.16 95.96 317 96 317 96 C 317 96 316.96 95.96 317 96 Z M 316.4 89.7 C 315.6 90 314.4 90.3 312.9 90.5 C 312 90.6 311.4 90.8 311.1 90.9 C 310.7 91.1 310.4 91.3 310.2 91.6 C 310 91.9 309.9 92.3 309.9 92.6 C 309.9 93.2 310.2 93.7 310.6 94 C 311 94.4 311.6 94.6 312.5 94.6 C 313.3 94.6 314 94.4 314.6 94.1 C 315.3 93.7 315.7 93.2 316 92.6 C 316.2 92.1 316.4 91.4 316.4 90.5 C 316.4 90.5 316.4 89.7 316.4 89.7 Z M 321.7 96 L 321.7 78.8 L 323.8 78.8 L 323.8 96 L 321.7 96 Z M 329.4 96 L 325.6 83.5 L 327.8 83.5 L 329.7 90.7 C 329.7 90.7 330.48 93.37 330.5 93.4 C 330.5 93.2 330.7 92.4 331.1 90.8 C 331.13 90.8 333.1 83.5 333.1 83.5 L 335.3 83.5 L 337.1 90.7 L 337.8 93.1 L 338.5 90.7 L 340.6 83.5 L 342.7 83.5 L 338.8 96 L 336.6 96 L 334.6 88.5 L 334.1 86.4 L 331.6 96 L 329.4 96 Z M 353 96 C 352.7 95.5 352.6 95 352.5 94.4 C 351.8 95.1 351 95.6 350.3 95.8 C 349.6 96.1 348.8 96.2 348 96.2 C 346.6 96.2 345.5 95.9 344.8 95.2 C 344.1 94.6 343.7 93.7 343.7 92.7 C 343.7 92.1 343.8 91.5 344.1 91 C 344.4 90.5 344.8 90.1 345.2 89.8 C 345.7 89.5 346.2 89.3 346.7 89.1 C 347.1 89 347.8 88.9 348.6 88.8 C 350.3 88.6 351.6 88.3 352.4 88.1 C 352.4 87.8 352.4 87.6 352.4 87.5 C 352.4 86.7 352.2 86 351.8 85.7 C 351.2 85.2 350.4 85 349.4 85 C 348.4 85 347.7 85.2 347.2 85.5 C 346.7 85.8 346.4 86.5 346.1 87.3 C 346.1 87.3 344.1 87.1 344.1 87.1 C 344.3 86.2 344.6 85.5 345 84.9 C 345.4 84.4 346.1 84 346.9 83.7 C 347.7 83.4 348.6 83.2 349.7 83.2 C 350.7 83.2 351.6 83.4 352.3 83.6 C 352.9 83.9 353.4 84.2 353.7 84.6 C 354.1 84.9 354.3 85.4 354.4 86 C 354.5 86.3 354.5 87 354.5 87.9 C 354.5 87.9 354.5 90.7 354.5 90.7 C 354.5 92.7 354.5 93.9 354.6 94.5 C 354.7 95 354.9 95.5 355.2 96 C 355.17 95.96 353 96 353 96 C 353 96 352.97 95.96 353 96 Z M 352.4 89.7 C 351.6 90 350.5 90.3 348.9 90.5 C 348.1 90.6 347.4 90.8 347.1 90.9 C 346.7 91.1 346.4 91.3 346.3 91.6 C 346.1 91.9 346 92.3 346 92.6 C 346 93.2 346.2 93.7 346.6 94 C 347 94.4 347.6 94.6 348.5 94.6 C 349.3 94.6 350 94.4 350.6 94.1 C 351.3 93.7 351.7 93.2 352 92.6 C 352.3 92.1 352.4 91.4 352.4 90.5 C 352.4 90.5 352.4 89.7 352.4 89.7 Z M 359 101 C 358.6 101 358.2 100.9 357.7 100.8 C 357.7 100.8 357.4 98.8 357.4 98.8 C 357.9 98.9 358.3 99 358.7 99 C 359.1 99 359.5 98.9 359.8 98.7 C 360.1 98.6 360.3 98.4 360.5 98.1 C 360.6 97.9 360.8 97.3 361.1 96.5 C 361.2 96.4 361.2 96.2 361.3 96 C 361.3 95.98 356.6 83.5 356.6 83.5 L 358.9 83.5 C 358.9 83.5 361.44 90.72 361.4 90.7 C 361.8 91.6 362.1 92.6 362.3 93.6 C 362.6 92.6 362.9 91.7 363.2 90.8 C 363.21 90.77 365.9 83.5 365.9 83.5 L 368 83.5 C 368 83.5 363.25 96.17 363.2 96.2 C 362.7 97.5 362.3 98.5 362.1 99 C 361.7 99.7 361.3 100.2 360.8 100.5 C 360.3 100.8 359.7 101 359 101 C 359 101 359 101 359 101 Z M 368.9 92.2 C 368.9 92.2 371 91.9 371 91.9 C 371.1 92.8 371.5 93.4 372 93.8 C 372.5 94.3 373.3 94.5 374.2 94.5 C 375.2 94.5 375.9 94.3 376.4 93.9 C 376.9 93.5 377.1 93.1 377.1 92.5 C 377.1 92 376.9 91.7 376.5 91.4 C 376.2 91.2 375.5 91 374.3 90.7 C 372.8 90.3 371.7 90 371.1 89.7 C 370.5 89.4 370.1 89 369.7 88.5 C 369.4 88 369.3 87.4 369.3 86.8 C 369.3 86.3 369.4 85.8 369.7 85.3 C 369.9 84.8 370.3 84.4 370.7 84.1 C 371 83.9 371.5 83.7 372 83.5 C 372.6 83.3 373.2 83.2 373.9 83.2 C 374.8 83.2 375.7 83.4 376.4 83.7 C 377.2 83.9 377.7 84.3 378.1 84.8 C 378.4 85.3 378.7 85.9 378.8 86.7 C 378.8 86.7 376.7 87 376.7 87 C 376.6 86.4 376.4 85.9 375.9 85.5 C 375.5 85.1 374.8 85 374 85 C 373 85 372.4 85.1 371.9 85.4 C 371.5 85.8 371.3 86.1 371.3 86.6 C 371.3 86.8 371.4 87.1 371.6 87.3 C 371.7 87.5 372 87.7 372.4 87.9 C 372.6 88 373.2 88.1 374.3 88.4 C 375.7 88.8 376.8 89.1 377.4 89.4 C 378 89.6 378.4 90 378.8 90.5 C 379.1 91 379.3 91.6 379.3 92.3 C 379.3 93 379.1 93.7 378.7 94.3 C 378.2 94.9 377.6 95.4 376.9 95.7 C 376.1 96.1 375.2 96.2 374.3 96.2 C 372.6 96.2 371.4 95.9 370.6 95.2 C 369.7 94.6 369.2 93.6 368.9 92.2 Z M 388.5 81.2 L 388.5 78.8 L 390.6 78.8 L 390.6 81.2 L 388.5 81.2 Z M 388.5 96 L 388.5 83.5 L 390.6 83.5 L 390.6 96 L 388.5 96 Z M 393.8 96 L 393.8 83.5 L 395.7 83.5 C 395.7 83.5 395.67 85.28 395.7 85.3 C 396.6 83.9 397.9 83.2 399.6 83.2 C 400.4 83.2 401.1 83.4 401.7 83.6 C 402.3 83.9 402.8 84.3 403.1 84.7 C 403.4 85.1 403.6 85.7 403.8 86.3 C 403.8 86.6 403.9 87.3 403.9 88.3 C 403.89 88.31 403.9 96 403.9 96 L 401.8 96 C 401.8 96 401.78 88.39 401.8 88.4 C 401.8 87.5 401.7 86.9 401.5 86.5 C 401.4 86 401.1 85.7 400.7 85.4 C 400.2 85.2 399.8 85.1 399.2 85.1 C 398.3 85.1 397.5 85.3 396.9 85.9 C 396.2 86.5 395.9 87.6 395.9 89.2 C 395.88 89.16 395.9 96 395.9 96 L 393.8 96 Z M 417.5 94.2 C 417.7 94.2 418 94.1 418.4 94.1 C 418.4 94.1 418.7 95.9 418.7 95.9 C 418.1 96.1 417.6 96.1 417.1 96.1 C 416.3 96.1 415.7 96 415.3 95.8 C 414.9 95.5 414.6 95.2 414.4 94.8 C 414.3 94.4 414.2 93.6 414.2 92.3 C 414.18 92.32 414.2 85.2 414.2 85.2 L 412.6 85.2 L 412.6 83.5 L 414.2 83.5 L 414.2 80.4 L 416.3 79.2 L 416.3 83.5 L 418.4 83.5 L 418.4 85.2 L 416.3 85.2 C 416.3 85.2 416.27 92.43 416.3 92.4 C 416.3 93 416.3 93.4 416.4 93.6 C 416.5 93.8 416.6 93.9 416.7 94 C 416.9 94.1 417.2 94.2 417.5 94.2 C 417.5 94.2 417.5 94.2 417.5 94.2 Z M 420.5 96 L 420.5 78.8 L 422.6 78.8 C 422.6 78.8 422.57 84.94 422.6 84.9 C 423.6 83.8 424.8 83.2 426.3 83.2 C 427.2 83.2 428 83.4 428.7 83.8 C 429.4 84.1 429.9 84.6 430.2 85.3 C 430.4 85.9 430.6 86.9 430.6 88.1 C 430.59 88.07 430.6 96 430.6 96 L 428.5 96 C 428.5 96 428.48 88.07 428.5 88.1 C 428.5 87 428.3 86.3 427.8 85.8 C 427.3 85.3 426.7 85 425.9 85 C 425.2 85 424.6 85.2 424.1 85.5 C 423.5 85.9 423.2 86.3 422.9 86.9 C 422.7 87.4 422.6 88.2 422.6 89.2 C 422.57 89.15 422.6 96 422.6 96 L 420.5 96 Z M 442.3 92 C 442.3 92 444.5 92.2 444.5 92.2 C 444.2 93.5 443.5 94.5 442.6 95.2 C 441.7 95.9 440.5 96.2 439 96.2 C 437.2 96.2 435.8 95.7 434.7 94.6 C 433.6 93.4 433.1 91.9 433.1 89.8 C 433.1 87.7 433.6 86.1 434.7 85 C 435.8 83.8 437.2 83.2 438.9 83.2 C 440.6 83.2 441.9 83.8 443 84.9 C 444 86.1 444.6 87.7 444.6 89.7 C 444.6 89.8 444.6 90 444.6 90.3 C 444.6 90.3 435.3 90.3 435.3 90.3 C 435.4 91.6 435.7 92.7 436.4 93.4 C 437.1 94.1 438 94.5 439 94.5 C 439.8 94.5 440.5 94.3 441 93.9 C 441.6 93.5 442 92.8 442.3 92 Z M 435.4 88.5 C 435.4 88.5 442.3 88.5 442.3 88.5 C 442.3 87.5 442 86.7 441.6 86.2 C 440.9 85.4 440 85 438.9 85 C 438 85 437.2 85.3 436.5 85.9 C 435.8 86.6 435.5 87.5 435.4 88.5 Z M 455.8 96 L 453.8 96 L 453.8 78.8 L 455.9 78.8 C 455.9 78.8 455.92 84.91 455.9 84.9 C 456.8 83.8 457.9 83.2 459.3 83.2 C 460.1 83.2 460.8 83.4 461.5 83.7 C 462.2 84 462.7 84.4 463.2 85 C 463.6 85.6 464 86.2 464.2 87 C 464.5 87.8 464.6 88.7 464.6 89.5 C 464.6 91.7 464.1 93.3 463 94.5 C 462 95.7 460.7 96.2 459.2 96.2 C 457.8 96.2 456.6 95.6 455.8 94.4 C 455.77 94.4 455.8 96 455.8 96 Z M 455.7 89.6 C 455.7 91.1 455.9 92.2 456.4 92.9 C 457 94 457.9 94.5 459 94.5 C 460 94.5 460.8 94.1 461.4 93.3 C 462.1 92.5 462.4 91.3 462.4 89.7 C 462.4 88.1 462.1 86.9 461.5 86.1 C 460.8 85.4 460.1 85 459.1 85 C 458.2 85 457.4 85.4 456.8 86.2 C 456.1 87 455.7 88.1 455.7 89.6 Z M 475.7 92 C 475.7 92 477.9 92.2 477.9 92.2 C 477.5 93.5 476.9 94.5 476 95.2 C 475 95.9 473.8 96.2 472.4 96.2 C 470.6 96.2 469.1 95.7 468.1 94.6 C 467 93.4 466.5 91.9 466.5 89.8 C 466.5 87.7 467 86.1 468.1 85 C 469.2 83.8 470.6 83.2 472.3 83.2 C 473.9 83.2 475.3 83.8 476.4 84.9 C 477.4 86.1 477.9 87.7 477.9 89.7 C 477.9 89.8 477.9 90 477.9 90.3 C 477.9 90.3 468.6 90.3 468.6 90.3 C 468.7 91.6 469.1 92.7 469.8 93.4 C 470.5 94.1 471.4 94.5 472.4 94.5 C 473.2 94.5 473.8 94.3 474.4 93.9 C 474.9 93.5 475.4 92.8 475.7 92 Z M 468.8 88.5 C 468.8 88.5 475.7 88.5 475.7 88.5 C 475.6 87.5 475.4 86.7 474.9 86.2 C 474.2 85.4 473.4 85 472.3 85 C 471.3 85 470.5 85.3 469.9 85.9 C 469.2 86.6 468.8 87.5 468.8 88.5 Z M 479.7 92.2 C 479.7 92.2 481.8 91.9 481.8 91.9 C 481.9 92.8 482.2 93.4 482.7 93.8 C 483.3 94.3 484 94.5 485 94.5 C 485.9 94.5 486.7 94.3 487.1 93.9 C 487.6 93.5 487.8 93.1 487.8 92.5 C 487.8 92 487.6 91.7 487.2 91.4 C 486.9 91.2 486.2 91 485.1 90.7 C 483.5 90.3 482.4 90 481.8 89.7 C 481.2 89.4 480.8 89 480.5 88.5 C 480.2 88 480 87.4 480 86.8 C 480 86.3 480.2 85.8 480.4 85.3 C 480.7 84.8 481 84.4 481.4 84.1 C 481.8 83.9 482.2 83.7 482.8 83.5 C 483.3 83.3 484 83.2 484.6 83.2 C 485.6 83.2 486.4 83.4 487.2 83.7 C 487.9 83.9 488.5 84.3 488.8 84.8 C 489.2 85.3 489.4 85.9 489.5 86.7 C 489.5 86.7 487.5 87 487.5 87 C 487.4 86.4 487.1 85.9 486.7 85.5 C 486.2 85.1 485.6 85 484.8 85 C 483.8 85 483.1 85.1 482.7 85.4 C 482.3 85.8 482.1 86.1 482.1 86.6 C 482.1 86.8 482.1 87.1 482.3 87.3 C 482.5 87.5 482.8 87.7 483.1 87.9 C 483.3 88 484 88.1 485 88.4 C 486.5 88.8 487.5 89.1 488.1 89.4 C 488.7 89.6 489.2 90 489.5 90.5 C 489.8 91 490 91.6 490 92.3 C 490 93 489.8 93.7 489.4 94.3 C 489 94.9 488.4 95.4 487.6 95.7 C 486.8 96.1 486 96.2 485 96.2 C 483.4 96.2 482.1 95.9 481.3 95.2 C 480.4 94.6 479.9 93.6 479.7 92.2 Z M 496.2 94.2 C 496.4 94.2 496.7 94.1 497.1 94.1 C 497.1 94.1 497.4 95.9 497.4 95.9 C 496.8 96.1 496.3 96.1 495.8 96.1 C 495.1 96.1 494.5 96 494.1 95.8 C 493.6 95.5 493.3 95.2 493.2 94.8 C 493 94.4 492.9 93.6 492.9 92.3 C 492.9 92.32 492.9 85.2 492.9 85.2 L 491.4 85.2 L 491.4 83.5 L 492.9 83.5 L 492.9 80.4 L 495 79.2 L 495 83.5 L 497.1 83.5 L 497.1 85.2 L 495 85.2 C 495 85.2 495 92.43 495 92.4 C 495 93 495 93.4 495.1 93.6 C 495.2 93.8 495.3 93.9 495.5 94 C 495.6 94.1 495.9 94.2 496.2 94.2 C 496.2 94.2 496.2 94.2 496.2 94.2 Z " stroke="none" fill="#ffffff"/>  </g>  <g id="Polygon16878">    <path d="M 1.8 67.2 L 1.8 50 C 1.8 50 8.2 49.98 8.2 50 C 9.5 50 10.6 50.2 11.4 50.5 C 12.2 50.8 12.8 51.4 13.2 52.1 C 13.7 52.8 13.9 53.6 13.9 54.4 C 13.9 55.1 13.7 55.8 13.3 56.4 C 12.9 57.1 12.3 57.6 11.5 58 C 12.5 58.3 13.3 58.8 13.9 59.6 C 14.5 60.3 14.7 61.2 14.7 62.2 C 14.7 63 14.6 63.7 14.2 64.4 C 13.9 65.1 13.5 65.6 13 66 C 12.5 66.4 11.8 66.7 11.1 66.9 C 10.3 67.1 9.4 67.2 8.3 67.2 C 8.31 67.16 1.8 67.2 1.8 67.2 Z M 4 57.2 C 4 57.2 7.75 57.2 7.7 57.2 C 8.8 57.2 9.5 57.1 9.9 57 C 10.5 56.8 10.9 56.5 11.2 56.1 C 11.5 55.7 11.7 55.2 11.7 54.6 C 11.7 54.1 11.5 53.6 11.3 53.1 C 11 52.7 10.6 52.4 10.1 52.2 C 9.6 52.1 8.7 52 7.5 52 C 7.46 52.01 4 52 4 52 L 4 57.2 Z M 4 65.1 C 4 65.1 8.31 65.13 8.3 65.1 C 9 65.1 9.6 65.1 9.9 65.1 C 10.4 65 10.8 64.8 11.2 64.6 C 11.5 64.4 11.8 64 12 63.6 C 12.3 63.2 12.4 62.7 12.4 62.2 C 12.4 61.5 12.2 61 11.9 60.5 C 11.6 60 11.1 59.7 10.5 59.5 C 9.9 59.3 9.1 59.2 8 59.2 C 8 59.23 4 59.2 4 59.2 L 4 65.1 Z M 26.1 63.2 C 26.1 63.2 28.3 63.4 28.3 63.4 C 27.9 64.7 27.3 65.7 26.4 66.4 C 25.4 67.1 24.3 67.4 22.8 67.4 C 21 67.4 19.6 66.9 18.5 65.8 C 17.4 64.6 16.9 63.1 16.9 61 C 16.9 58.9 17.4 57.3 18.5 56.2 C 19.6 55 21 54.4 22.7 54.4 C 24.4 54.4 25.7 55 26.8 56.1 C 27.8 57.3 28.4 58.9 28.4 60.9 C 28.4 61 28.4 61.2 28.3 61.5 C 28.3 61.5 19.1 61.5 19.1 61.5 C 19.1 62.8 19.5 63.9 20.2 64.6 C 20.9 65.3 21.8 65.7 22.8 65.7 C 23.6 65.7 24.3 65.5 24.8 65.1 C 25.4 64.7 25.8 64 26.1 63.2 Z M 19.2 59.7 C 19.2 59.7 26.1 59.7 26.1 59.7 C 26 58.7 25.8 57.9 25.3 57.4 C 24.7 56.6 23.8 56.2 22.7 56.2 C 21.8 56.2 20.9 56.5 20.3 57.1 C 19.6 57.8 19.3 58.7 19.2 59.7 Z M 30.9 67.2 L 30.9 50 L 33 50 C 33 50 33.05 56.14 33 56.1 C 34 55 35.3 54.4 36.8 54.4 C 37.7 54.4 38.5 54.6 39.2 55 C 39.9 55.3 40.3 55.8 40.6 56.5 C 40.9 57.1 41.1 58.1 41.1 59.3 C 41.07 59.27 41.1 67.2 41.1 67.2 L 39 67.2 C 39 67.2 38.96 59.27 39 59.3 C 39 58.2 38.7 57.5 38.3 57 C 37.8 56.5 37.2 56.2 36.3 56.2 C 35.7 56.2 35.1 56.4 34.6 56.7 C 34 57.1 33.6 57.5 33.4 58.1 C 33.2 58.6 33 59.4 33 60.4 C 33.05 60.35 33 67.2 33 67.2 L 30.9 67.2 Z M 52.8 67.2 C 52.6 66.7 52.5 66.2 52.4 65.6 C 51.6 66.3 50.9 66.8 50.2 67 C 49.4 67.3 48.7 67.4 47.8 67.4 C 46.5 67.4 45.4 67.1 44.7 66.4 C 43.9 65.8 43.6 64.9 43.6 63.9 C 43.6 63.3 43.7 62.7 44 62.2 C 44.3 61.7 44.6 61.3 45.1 61 C 45.5 60.7 46 60.5 46.6 60.3 C 47 60.2 47.6 60.1 48.5 60 C 50.2 59.8 51.4 59.5 52.2 59.3 C 52.2 59 52.2 58.8 52.2 58.7 C 52.2 57.9 52 57.2 51.6 56.9 C 51.1 56.4 50.3 56.2 49.2 56.2 C 48.2 56.2 47.5 56.4 47 56.7 C 46.6 57 46.2 57.7 46 58.5 C 46 58.5 43.9 58.3 43.9 58.3 C 44.1 57.4 44.4 56.7 44.9 56.1 C 45.3 55.6 45.9 55.2 46.7 54.9 C 47.5 54.6 48.5 54.4 49.5 54.4 C 50.6 54.4 51.5 54.6 52.1 54.8 C 52.8 55.1 53.3 55.4 53.6 55.8 C 53.9 56.1 54.1 56.6 54.3 57.2 C 54.3 57.5 54.4 58.2 54.4 59.1 C 54.4 59.1 54.4 61.9 54.4 61.9 C 54.4 63.9 54.4 65.1 54.5 65.7 C 54.6 66.2 54.8 66.7 55 67.2 C 55.03 67.16 52.8 67.2 52.8 67.2 C 52.8 67.2 52.83 67.16 52.8 67.2 Z M 52.2 60.9 C 51.5 61.2 50.3 61.5 48.8 61.7 C 47.9 61.8 47.3 62 46.9 62.1 C 46.6 62.3 46.3 62.5 46.1 62.8 C 45.9 63.1 45.8 63.5 45.8 63.8 C 45.8 64.4 46 64.9 46.5 65.2 C 46.9 65.6 47.5 65.8 48.3 65.8 C 49.1 65.8 49.9 65.6 50.5 65.3 C 51.1 64.9 51.6 64.4 51.9 63.8 C 52.1 63.3 52.2 62.6 52.2 61.7 C 52.2 61.7 52.2 60.9 52.2 60.9 Z M 61.1 67.2 L 56.4 54.7 L 58.6 54.7 C 58.6 54.7 61.25 62.17 61.3 62.2 C 61.5 63 61.8 63.8 62.1 64.7 C 62.2 64 62.5 63.2 62.8 62.3 C 62.84 62.31 65.6 54.7 65.6 54.7 L 67.8 54.7 L 63.1 67.2 L 61.1 67.2 Z M 78.2 63.2 C 78.2 63.2 80.3 63.4 80.3 63.4 C 80 64.7 79.4 65.7 78.4 66.4 C 77.5 67.1 76.3 67.4 74.9 67.4 C 73 67.4 71.6 66.9 70.5 65.8 C 69.5 64.6 68.9 63.1 68.9 61 C 68.9 58.9 69.5 57.3 70.5 56.2 C 71.6 55 73 54.4 74.7 54.4 C 76.4 54.4 77.8 55 78.8 56.1 C 79.9 57.3 80.4 58.9 80.4 60.9 C 80.4 61 80.4 61.2 80.4 61.5 C 80.4 61.5 71.1 61.5 71.1 61.5 C 71.2 62.8 71.6 63.9 72.3 64.6 C 73 65.3 73.8 65.7 74.9 65.7 C 75.6 65.7 76.3 65.5 76.9 65.1 C 77.4 64.7 77.8 64 78.2 63.2 Z M 71.2 59.7 C 71.2 59.7 78.2 59.7 78.2 59.7 C 78.1 58.7 77.8 57.9 77.4 57.4 C 76.7 56.6 75.8 56.2 74.8 56.2 C 73.8 56.2 73 56.5 72.3 57.1 C 71.7 57.8 71.3 58.7 71.2 59.7 Z M 91.9 67.2 L 88.1 54.7 L 90.3 54.7 L 92.3 61.9 C 92.3 61.9 93.04 64.57 93 64.6 C 93.1 64.4 93.3 63.6 93.7 62 C 93.68 62 95.7 54.7 95.7 54.7 L 97.8 54.7 L 99.7 61.9 L 100.3 64.3 L 101 61.9 L 103.2 54.7 L 105.2 54.7 L 101.3 67.2 L 99.1 67.2 L 97.1 59.7 L 96.7 57.6 L 94.1 67.2 L 91.9 67.2 Z M 107 52.4 L 107 50 L 109.1 50 L 109.1 52.4 L 107 52.4 Z M 107 67.2 L 107 54.7 L 109.1 54.7 L 109.1 67.2 L 107 67.2 Z M 116 65.4 C 116.2 65.4 116.5 65.3 116.9 65.3 C 116.9 65.3 117.2 67.1 117.2 67.1 C 116.6 67.3 116.1 67.3 115.6 67.3 C 114.9 67.3 114.3 67.2 113.8 67 C 113.4 66.7 113.1 66.4 113 66 C 112.8 65.6 112.7 64.8 112.7 63.5 C 112.7 63.52 112.7 56.4 112.7 56.4 L 111.2 56.4 L 111.2 54.7 L 112.7 54.7 L 112.7 51.6 L 114.8 50.4 L 114.8 54.7 L 116.9 54.7 L 116.9 56.4 L 114.8 56.4 C 114.8 56.4 114.8 63.63 114.8 63.6 C 114.8 64.2 114.8 64.6 114.9 64.8 C 115 65 115.1 65.1 115.3 65.2 C 115.4 65.3 115.7 65.4 116 65.4 C 116 65.4 116 65.4 116 65.4 Z M 119 67.2 L 119 50 L 121.1 50 C 121.1 50 121.09 56.14 121.1 56.1 C 122.1 55 123.3 54.4 124.8 54.4 C 125.7 54.4 126.5 54.6 127.2 55 C 127.9 55.3 128.4 55.8 128.7 56.5 C 129 57.1 129.1 58.1 129.1 59.3 C 129.12 59.27 129.1 67.2 129.1 67.2 L 127 67.2 C 127 67.2 127.01 59.27 127 59.3 C 127 58.2 126.8 57.5 126.3 57 C 125.9 56.5 125.2 56.2 124.4 56.2 C 123.8 56.2 123.2 56.4 122.6 56.7 C 122.1 57.1 121.7 57.5 121.4 58.1 C 121.2 58.6 121.1 59.4 121.1 60.4 C 121.09 60.35 121.1 67.2 121.1 67.2 L 119 67.2 Z M 139 67.2 L 139 50 L 141.1 50 C 141.1 50 141.11 56.14 141.1 56.1 C 142.1 55 143.3 54.4 144.8 54.4 C 145.8 54.4 146.6 54.6 147.2 55 C 147.9 55.3 148.4 55.8 148.7 56.5 C 149 57.1 149.1 58.1 149.1 59.3 C 149.13 59.27 149.1 67.2 149.1 67.2 L 147 67.2 C 147 67.2 147.02 59.27 147 59.3 C 147 58.2 146.8 57.5 146.3 57 C 145.9 56.5 145.2 56.2 144.4 56.2 C 143.8 56.2 143.2 56.4 142.6 56.7 C 142.1 57.1 141.7 57.5 141.5 58.1 C 141.2 58.6 141.1 59.4 141.1 60.4 C 141.11 60.35 141.1 67.2 141.1 67.2 L 139 67.2 Z M 151.6 60.9 C 151.6 58.6 152.2 56.9 153.5 55.8 C 154.6 54.9 155.9 54.4 157.4 54.4 C 159.1 54.4 160.5 55 161.6 56.1 C 162.7 57.2 163.2 58.8 163.2 60.8 C 163.2 62.4 163 63.6 162.5 64.5 C 162 65.5 161.3 66.2 160.4 66.7 C 159.5 67.2 158.5 67.4 157.4 67.4 C 155.7 67.4 154.2 66.9 153.2 65.8 C 152.1 64.6 151.6 63 151.6 60.9 Z M 153.7 60.9 C 153.7 62.5 154.1 63.7 154.8 64.5 C 155.5 65.3 156.3 65.7 157.4 65.7 C 158.4 65.7 159.3 65.3 160 64.5 C 160.7 63.7 161.1 62.5 161.1 60.9 C 161.1 59.3 160.7 58.2 160 57.4 C 159.3 56.6 158.4 56.2 157.4 56.2 C 156.3 56.2 155.5 56.6 154.8 57.4 C 154.1 58.2 153.7 59.3 153.7 60.9 Z M 165.7 67.2 L 165.7 54.7 L 167.6 54.7 C 167.6 54.7 167.59 56.48 167.6 56.5 C 168.5 55.1 169.8 54.4 171.6 54.4 C 172.3 54.4 173 54.6 173.6 54.8 C 174.2 55.1 174.7 55.5 175 55.9 C 175.3 56.3 175.6 56.9 175.7 57.5 C 175.8 57.8 175.8 58.5 175.8 59.5 C 175.8 59.51 175.8 67.2 175.8 67.2 L 173.7 67.2 C 173.7 67.2 173.7 59.59 173.7 59.6 C 173.7 58.7 173.6 58.1 173.4 57.7 C 173.3 57.2 173 56.9 172.6 56.6 C 172.2 56.4 171.7 56.3 171.1 56.3 C 170.2 56.3 169.4 56.5 168.8 57.1 C 168.1 57.7 167.8 58.8 167.8 60.4 C 167.8 60.36 167.8 67.2 167.8 67.2 L 165.7 67.2 Z M 178.3 60.9 C 178.3 58.6 178.9 56.9 180.2 55.8 C 181.2 54.9 182.6 54.4 184.1 54.4 C 185.8 54.4 187.2 55 188.3 56.1 C 189.4 57.2 189.9 58.8 189.9 60.8 C 189.9 62.4 189.7 63.6 189.2 64.5 C 188.7 65.5 188 66.2 187.1 66.7 C 186.2 67.2 185.2 67.4 184.1 67.4 C 182.3 67.4 180.9 66.9 179.9 65.8 C 178.8 64.6 178.3 63 178.3 60.9 Z M 180.4 60.9 C 180.4 62.5 180.8 63.7 181.5 64.5 C 182.2 65.3 183 65.7 184.1 65.7 C 185.1 65.7 186 65.3 186.7 64.5 C 187.4 63.7 187.7 62.5 187.7 60.9 C 187.7 59.3 187.4 58.2 186.7 57.4 C 186 56.6 185.1 56.2 184.1 56.2 C 183 56.2 182.2 56.6 181.5 57.4 C 180.8 58.2 180.4 59.3 180.4 60.9 Z M 200.5 67.2 C 200.5 67.2 200.54 65.33 200.5 65.3 C 199.6 66.7 198.3 67.4 196.6 67.4 C 195.9 67.4 195.2 67.3 194.5 67 C 193.9 66.7 193.4 66.4 193.1 66 C 192.8 65.5 192.6 65 192.5 64.4 C 192.4 64 192.3 63.3 192.3 62.4 C 192.34 62.43 192.3 54.7 192.3 54.7 L 194.4 54.7 C 194.4 54.7 194.45 61.62 194.4 61.6 C 194.4 62.7 194.5 63.5 194.6 63.8 C 194.7 64.4 195 64.8 195.4 65.1 C 195.9 65.5 196.4 65.6 197 65.6 C 197.6 65.6 198.2 65.5 198.8 65.1 C 199.4 64.8 199.7 64.4 200 63.8 C 200.2 63.3 200.3 62.4 200.3 61.4 C 200.32 61.38 200.3 54.7 200.3 54.7 L 202.4 54.7 L 202.4 67.2 L 200.5 67.2 Z M 205.7 67.2 L 205.7 54.7 L 207.6 54.7 C 207.6 54.7 207.61 56.6 207.6 56.6 C 208.1 55.7 208.5 55.1 209 54.9 C 209.4 54.6 209.8 54.4 210.3 54.4 C 211 54.4 211.7 54.7 212.5 55.1 C 212.5 55.1 211.7 57.1 211.7 57.1 C 211.2 56.8 210.7 56.6 210.2 56.6 C 209.7 56.6 209.3 56.8 209 57 C 208.6 57.3 208.3 57.7 208.2 58.2 C 207.9 58.9 207.8 59.8 207.8 60.6 C 207.82 60.64 207.8 67.2 207.8 67.2 L 205.7 67.2 Z M 213 67.2 L 213 64.8 L 215.4 64.8 C 215.4 64.8 215.36 67.16 215.4 67.2 C 215.4 68 215.2 68.8 214.9 69.3 C 214.6 69.8 214.1 70.3 213.4 70.6 C 213.4 70.6 212.8 69.7 212.8 69.7 C 213.3 69.5 213.6 69.2 213.8 68.8 C 214 68.4 214.1 67.9 214.1 67.2 C 214.15 67.16 213 67.2 213 67.2 Z M 233.9 67.2 C 233.9 67.2 233.89 65.33 233.9 65.3 C 232.9 66.7 231.6 67.4 229.9 67.4 C 229.2 67.4 228.5 67.3 227.9 67 C 227.3 66.7 226.8 66.4 226.5 66 C 226.2 65.5 225.9 65 225.8 64.4 C 225.7 64 225.7 63.3 225.7 62.4 C 225.69 62.43 225.7 54.7 225.7 54.7 L 227.8 54.7 C 227.8 54.7 227.8 61.62 227.8 61.6 C 227.8 62.7 227.8 63.5 227.9 63.8 C 228.1 64.4 228.3 64.8 228.8 65.1 C 229.2 65.5 229.7 65.6 230.4 65.6 C 231 65.6 231.6 65.5 232.1 65.1 C 232.7 64.8 233.1 64.4 233.3 63.8 C 233.6 63.3 233.7 62.4 233.7 61.4 C 233.67 61.38 233.7 54.7 233.7 54.7 L 235.8 54.7 L 235.8 67.2 L 233.9 67.2 Z M 239.1 67.2 L 239.1 54.7 L 241 54.7 C 241 54.7 240.98 56.48 241 56.5 C 241.9 55.1 243.2 54.4 244.9 54.4 C 245.7 54.4 246.4 54.6 247 54.8 C 247.6 55.1 248.1 55.5 248.4 55.9 C 248.7 56.3 249 56.9 249.1 57.5 C 249.2 57.8 249.2 58.5 249.2 59.5 C 249.2 59.51 249.2 67.2 249.2 67.2 L 247.1 67.2 C 247.1 67.2 247.09 59.59 247.1 59.6 C 247.1 58.7 247 58.1 246.8 57.7 C 246.7 57.2 246.4 56.9 246 56.6 C 245.6 56.4 245.1 56.3 244.5 56.3 C 243.6 56.3 242.8 56.5 242.2 57.1 C 241.5 57.7 241.2 58.8 241.2 60.4 C 241.2 60.36 241.2 67.2 241.2 67.2 L 239.1 67.2 Z M 260.5 67.2 C 260.5 67.2 260.51 65.59 260.5 65.6 C 259.7 66.8 258.6 67.4 257 67.4 C 256 67.4 255.1 67.2 254.3 66.6 C 253.5 66.1 252.8 65.3 252.4 64.3 C 251.9 63.3 251.7 62.2 251.7 60.9 C 251.7 59.7 251.9 58.6 252.3 57.6 C 252.7 56.6 253.3 55.8 254.2 55.2 C 255 54.7 255.9 54.4 256.9 54.4 C 257.7 54.4 258.4 54.6 258.9 54.9 C 259.5 55.2 260 55.6 260.4 56.1 C 260.37 56.14 260.4 50 260.4 50 L 262.5 50 L 262.5 67.2 L 260.5 67.2 Z M 253.8 60.9 C 253.8 62.5 254.2 63.7 254.8 64.5 C 255.5 65.3 256.3 65.7 257.2 65.7 C 258.1 65.7 258.9 65.3 259.6 64.6 C 260.2 63.8 260.5 62.7 260.5 61.1 C 260.5 59.4 260.2 58.2 259.6 57.4 C 258.9 56.6 258.1 56.2 257.1 56.2 C 256.2 56.2 255.4 56.6 254.8 57.3 C 254.2 58.1 253.8 59.3 253.8 60.9 Z M 274.3 63.2 C 274.3 63.2 276.5 63.4 276.5 63.4 C 276.1 64.7 275.5 65.7 274.6 66.4 C 273.6 67.1 272.5 67.4 271 67.4 C 269.2 67.4 267.7 66.9 266.7 65.8 C 265.6 64.6 265.1 63.1 265.1 61 C 265.1 58.9 265.6 57.3 266.7 56.2 C 267.8 55 269.2 54.4 270.9 54.4 C 272.6 54.4 273.9 55 275 56.1 C 276 57.3 276.6 58.9 276.6 60.9 C 276.6 61 276.5 61.2 276.5 61.5 C 276.5 61.5 267.3 61.5 267.3 61.5 C 267.3 62.8 267.7 63.9 268.4 64.6 C 269.1 65.3 270 65.7 271 65.7 C 271.8 65.7 272.5 65.5 273 65.1 C 273.5 64.7 274 64 274.3 63.2 Z M 267.4 59.7 C 267.4 59.7 274.3 59.7 274.3 59.7 C 274.2 58.7 274 57.9 273.5 57.4 C 272.9 56.6 272 56.2 270.9 56.2 C 269.9 56.2 269.1 56.5 268.5 57.1 C 267.8 57.8 267.4 58.7 267.4 59.7 Z M 279.1 67.2 L 279.1 54.7 L 281 54.7 C 281 54.7 281 56.6 281 56.6 C 281.5 55.7 281.9 55.1 282.3 54.9 C 282.8 54.6 283.2 54.4 283.7 54.4 C 284.4 54.4 285.1 54.7 285.9 55.1 C 285.9 55.1 285.1 57.1 285.1 57.1 C 284.6 56.8 284.1 56.6 283.6 56.6 C 283.1 56.6 282.7 56.8 282.4 57 C 282 57.3 281.7 57.7 281.6 58.2 C 281.3 58.9 281.2 59.8 281.2 60.6 C 281.21 60.64 281.2 67.2 281.2 67.2 L 279.1 67.2 Z M 287.1 71.9 L 287.1 54.7 L 289 54.7 C 289 54.7 289.04 56.33 289 56.3 C 289.5 55.7 290 55.2 290.6 54.9 C 291.1 54.6 291.8 54.4 292.7 54.4 C 293.7 54.4 294.7 54.7 295.5 55.3 C 296.3 55.8 296.9 56.6 297.3 57.6 C 297.7 58.6 297.9 59.7 297.9 60.8 C 297.9 62.1 297.7 63.3 297.2 64.3 C 296.8 65.3 296.1 66.1 295.2 66.6 C 294.4 67.2 293.5 67.4 292.5 67.4 C 291.8 67.4 291.2 67.3 290.6 67 C 290 66.7 289.6 66.3 289.2 65.9 C 289.23 65.87 289.2 71.9 289.2 71.9 L 287.1 71.9 Z M 289 61 C 289 62.6 289.4 63.8 290 64.6 C 290.7 65.3 291.4 65.7 292.4 65.7 C 293.3 65.7 294.1 65.3 294.8 64.5 C 295.4 63.7 295.8 62.5 295.8 60.8 C 295.8 59.2 295.4 58.1 294.8 57.3 C 294.1 56.5 293.4 56.1 292.5 56.1 C 291.6 56.1 290.8 56.5 290.1 57.3 C 289.4 58.2 289 59.4 289 61 Z M 300.5 52.4 L 300.5 50 L 302.6 50 L 302.6 52.4 L 300.5 52.4 Z M 300.5 67.2 L 300.5 54.7 L 302.6 54.7 L 302.6 67.2 L 300.5 67.2 Z M 305.8 67.2 L 305.8 54.7 L 307.7 54.7 C 307.7 54.7 307.7 56.48 307.7 56.5 C 308.6 55.1 309.9 54.4 311.7 54.4 C 312.4 54.4 313.1 54.6 313.7 54.8 C 314.4 55.1 314.8 55.5 315.1 55.9 C 315.5 56.3 315.7 56.9 315.8 57.5 C 315.9 57.8 315.9 58.5 315.9 59.5 C 315.91 59.51 315.9 67.2 315.9 67.2 L 313.8 67.2 C 313.8 67.2 313.8 59.59 313.8 59.6 C 313.8 58.7 313.7 58.1 313.6 57.7 C 313.4 57.2 313.1 56.9 312.7 56.6 C 312.3 56.4 311.8 56.3 311.2 56.3 C 310.3 56.3 309.5 56.5 308.9 57.1 C 308.2 57.7 307.9 58.8 307.9 60.4 C 307.91 60.36 307.9 67.2 307.9 67.2 L 305.8 67.2 Z M 319.1 67.2 L 319.1 54.7 L 321 54.7 C 321 54.7 321.05 56.48 321 56.5 C 322 55.1 323.3 54.4 325 54.4 C 325.8 54.4 326.4 54.6 327.1 54.8 C 327.7 55.1 328.2 55.5 328.5 55.9 C 328.8 56.3 329 56.9 329.1 57.5 C 329.2 57.8 329.3 58.5 329.3 59.5 C 329.26 59.51 329.3 67.2 329.3 67.2 L 327.2 67.2 C 327.2 67.2 327.15 59.59 327.2 59.6 C 327.2 58.7 327.1 58.1 326.9 57.7 C 326.7 57.2 326.5 56.9 326 56.6 C 325.6 56.4 325.1 56.3 324.6 56.3 C 323.7 56.3 322.9 56.5 322.2 57.1 C 321.6 57.7 321.3 58.8 321.3 60.4 C 321.26 60.36 321.3 67.2 321.3 67.2 L 319.1 67.2 Z M 341 63.2 C 341 63.2 343.2 63.4 343.2 63.4 C 342.9 64.7 342.2 65.7 341.3 66.4 C 340.4 67.1 339.2 67.4 337.7 67.4 C 335.9 67.4 334.5 66.9 333.4 65.8 C 332.3 64.6 331.8 63.1 331.8 61 C 331.8 58.9 332.3 57.3 333.4 56.2 C 334.5 55 335.9 54.4 337.6 54.4 C 339.3 54.4 340.6 55 341.7 56.1 C 342.7 57.3 343.3 58.9 343.3 60.9 C 343.3 61 343.3 61.2 343.3 61.5 C 343.3 61.5 334 61.5 334 61.5 C 334.1 62.8 334.4 63.9 335.1 64.6 C 335.8 65.3 336.7 65.7 337.7 65.7 C 338.5 65.7 339.2 65.5 339.7 65.1 C 340.3 64.7 340.7 64 341 63.2 Z M 334.1 59.7 C 334.1 59.7 341 59.7 341 59.7 C 340.9 58.7 340.7 57.9 340.2 57.4 C 339.6 56.6 338.7 56.2 337.6 56.2 C 336.7 56.2 335.8 56.5 335.2 57.1 C 334.5 57.8 334.2 58.7 334.1 59.7 Z M 353.9 67.2 C 353.9 67.2 353.92 65.59 353.9 65.6 C 353.1 66.8 352 67.4 350.4 67.4 C 349.4 67.4 348.5 67.2 347.7 66.6 C 346.9 66.1 346.2 65.3 345.8 64.3 C 345.3 63.3 345.1 62.2 345.1 60.9 C 345.1 59.7 345.3 58.6 345.7 57.6 C 346.1 56.6 346.7 55.8 347.6 55.2 C 348.4 54.7 349.3 54.4 350.3 54.4 C 351.1 54.4 351.8 54.6 352.3 54.9 C 352.9 55.2 353.4 55.6 353.8 56.1 C 353.78 56.14 353.8 50 353.8 50 L 355.9 50 L 355.9 67.2 L 353.9 67.2 Z M 347.3 60.9 C 347.3 62.5 347.6 63.7 348.3 64.5 C 348.9 65.3 349.7 65.7 350.6 65.7 C 351.6 65.7 352.3 65.3 353 64.6 C 353.6 63.8 354 62.7 354 61.1 C 354 59.4 353.6 58.2 353 57.4 C 352.3 56.6 351.5 56.2 350.5 56.2 C 349.6 56.2 348.8 56.6 348.2 57.3 C 347.6 58.1 347.3 59.3 347.3 60.9 Z M 367.8 67.2 L 365.8 67.2 L 365.8 50 L 368 50 C 368 50 367.96 56.11 368 56.1 C 368.8 55 370 54.4 371.4 54.4 C 372.1 54.4 372.9 54.6 373.5 54.9 C 374.2 55.2 374.8 55.6 375.2 56.2 C 375.7 56.8 376 57.4 376.3 58.2 C 376.5 59 376.6 59.9 376.6 60.7 C 376.6 62.9 376.1 64.5 375.1 65.7 C 374 66.9 372.7 67.4 371.3 67.4 C 369.8 67.4 368.6 66.8 367.8 65.6 C 367.8 65.6 367.8 67.2 367.8 67.2 Z M 367.8 60.8 C 367.8 62.3 368 63.4 368.4 64.1 C 369.1 65.2 370 65.7 371.1 65.7 C 372 65.7 372.8 65.3 373.5 64.5 C 374.1 63.7 374.5 62.5 374.5 60.9 C 374.5 59.3 374.2 58.1 373.5 57.3 C 372.9 56.6 372.1 56.2 371.2 56.2 C 370.3 56.2 369.5 56.6 368.8 57.4 C 368.1 58.2 367.8 59.3 367.8 60.8 Z M 380.5 72.2 C 380.1 72.2 379.6 72.1 379.1 72 C 379.1 72 378.9 70 378.9 70 C 379.3 70.1 379.7 70.2 380.1 70.2 C 380.6 70.2 380.9 70.1 381.2 69.9 C 381.5 69.8 381.7 69.6 381.9 69.3 C 382 69.1 382.2 68.5 382.5 67.7 C 382.6 67.6 382.6 67.4 382.7 67.2 C 382.73 67.18 378 54.7 378 54.7 L 380.3 54.7 C 380.3 54.7 382.88 61.92 382.9 61.9 C 383.2 62.8 383.5 63.8 383.8 64.8 C 384 63.8 384.3 62.9 384.6 62 C 384.64 61.97 387.3 54.7 387.3 54.7 L 389.4 54.7 C 389.4 54.7 384.68 67.37 384.7 67.4 C 384.2 68.7 383.8 69.7 383.5 70.2 C 383.1 70.9 382.7 71.4 382.2 71.7 C 381.7 72 381.1 72.2 380.5 72.2 C 380.5 72.2 380.5 72.2 380.5 72.2 Z M 397 63.4 C 397 63.4 399.1 63.1 399.1 63.1 C 399.2 64 399.6 64.6 400.1 65 C 400.6 65.5 401.4 65.7 402.3 65.7 C 403.3 65.7 404 65.5 404.5 65.1 C 405 64.7 405.2 64.3 405.2 63.7 C 405.2 63.2 405 62.9 404.6 62.6 C 404.3 62.4 403.6 62.2 402.4 61.9 C 400.9 61.5 399.8 61.2 399.2 60.9 C 398.6 60.6 398.2 60.2 397.8 59.7 C 397.5 59.2 397.4 58.6 397.4 58 C 397.4 57.5 397.5 57 397.8 56.5 C 398 56 398.4 55.6 398.8 55.3 C 399.1 55.1 399.6 54.9 400.1 54.7 C 400.7 54.5 401.3 54.4 402 54.4 C 402.9 54.4 403.8 54.6 404.5 54.9 C 405.3 55.1 405.8 55.5 406.2 56 C 406.5 56.5 406.8 57.1 406.9 57.9 C 406.9 57.9 404.8 58.2 404.8 58.2 C 404.7 57.6 404.5 57.1 404 56.7 C 403.6 56.3 402.9 56.2 402.1 56.2 C 401.1 56.2 400.5 56.3 400 56.6 C 399.6 57 399.4 57.3 399.4 57.8 C 399.4 58 399.5 58.3 399.7 58.5 C 399.9 58.7 400.1 58.9 400.5 59.1 C 400.7 59.2 401.3 59.3 402.4 59.6 C 403.8 60 404.9 60.3 405.5 60.6 C 406.1 60.8 406.5 61.2 406.9 61.7 C 407.2 62.2 407.4 62.8 407.4 63.5 C 407.4 64.2 407.2 64.9 406.8 65.5 C 406.3 66.1 405.8 66.6 405 66.9 C 404.2 67.3 403.3 67.4 402.4 67.4 C 400.7 67.4 399.5 67.1 398.7 66.4 C 397.8 65.8 397.3 64.8 397 63.4 Z M 413.6 65.4 C 413.8 65.4 414.1 65.3 414.5 65.3 C 414.5 65.3 414.8 67.1 414.8 67.1 C 414.2 67.3 413.7 67.3 413.2 67.3 C 412.4 67.3 411.8 67.2 411.4 67 C 411 66.7 410.7 66.4 410.5 66 C 410.3 65.6 410.3 64.8 410.3 63.5 C 410.26 63.52 410.3 56.4 410.3 56.4 L 408.7 56.4 L 408.7 54.7 L 410.3 54.7 L 410.3 51.6 L 412.4 50.4 L 412.4 54.7 L 414.5 54.7 L 414.5 56.4 L 412.4 56.4 C 412.4 56.4 412.36 63.63 412.4 63.6 C 412.4 64.2 412.4 64.6 412.5 64.8 C 412.5 65 412.7 65.1 412.8 65.2 C 413 65.3 413.2 65.4 413.6 65.4 C 413.6 65.4 413.6 65.4 413.6 65.4 Z M 416.5 67.2 L 416.5 54.7 L 418.4 54.7 C 418.4 54.7 418.42 56.6 418.4 56.6 C 418.9 55.7 419.3 55.1 419.8 54.9 C 420.2 54.6 420.6 54.4 421.1 54.4 C 421.8 54.4 422.5 54.7 423.3 55.1 C 423.3 55.1 422.6 57.1 422.6 57.1 C 422 56.8 421.5 56.6 421 56.6 C 420.5 56.6 420.1 56.8 419.8 57 C 419.4 57.3 419.1 57.7 419 58.2 C 418.7 58.9 418.6 59.8 418.6 60.6 C 418.63 60.64 418.6 67.2 418.6 67.2 L 416.5 67.2 Z M 423.8 60.9 C 423.8 58.6 424.4 56.9 425.7 55.8 C 426.7 54.9 428 54.4 429.6 54.4 C 431.3 54.4 432.7 55 433.8 56.1 C 434.9 57.2 435.4 58.8 435.4 60.8 C 435.4 62.4 435.2 63.6 434.7 64.5 C 434.2 65.5 433.5 66.2 432.6 66.7 C 431.7 67.2 430.7 67.4 429.6 67.4 C 427.8 67.4 426.4 66.9 425.4 65.8 C 424.3 64.6 423.8 63 423.8 60.9 Z M 425.9 60.9 C 425.9 62.5 426.3 63.7 427 64.5 C 427.7 65.3 428.5 65.7 429.6 65.7 C 430.6 65.7 431.5 65.3 432.2 64.5 C 432.9 63.7 433.2 62.5 433.2 60.9 C 433.2 59.3 432.9 58.2 432.2 57.4 C 431.5 56.6 430.6 56.2 429.6 56.2 C 428.5 56.2 427.7 56.6 427 57.4 C 426.3 58.2 425.9 59.3 425.9 60.9 Z M 437.9 67.2 L 437.9 54.7 L 439.8 54.7 C 439.8 54.7 439.78 56.48 439.8 56.5 C 440.7 55.1 442 54.4 443.7 54.4 C 444.5 54.4 445.2 54.6 445.8 54.8 C 446.4 55.1 446.9 55.5 447.2 55.9 C 447.5 56.3 447.8 56.9 447.9 57.5 C 448 57.8 448 58.5 448 59.5 C 448 59.51 448 67.2 448 67.2 L 445.9 67.2 C 445.9 67.2 445.89 59.59 445.9 59.6 C 445.9 58.7 445.8 58.1 445.6 57.7 C 445.5 57.2 445.2 56.9 444.8 56.6 C 444.3 56.4 443.9 56.3 443.3 56.3 C 442.4 56.3 441.6 56.5 441 57.1 C 440.3 57.7 440 58.8 440 60.4 C 439.99 60.36 440 67.2 440 67.2 L 437.9 67.2 Z M 450.8 68.2 C 450.8 68.2 452.9 68.5 452.9 68.5 C 453 69.1 453.2 69.6 453.6 69.9 C 454.1 70.3 454.8 70.5 455.8 70.5 C 456.7 70.5 457.5 70.3 458 69.9 C 458.5 69.5 458.9 68.9 459.1 68.2 C 459.2 67.8 459.3 66.9 459.2 65.5 C 458.3 66.6 457.2 67.2 455.8 67.2 C 454.1 67.2 452.8 66.5 451.8 65.3 C 450.9 64.1 450.4 62.6 450.4 60.9 C 450.4 59.7 450.6 58.6 451.1 57.6 C 451.5 56.6 452.1 55.8 452.9 55.3 C 453.8 54.7 454.7 54.4 455.8 54.4 C 457.3 54.4 458.5 55 459.4 56.2 C 459.45 56.21 459.4 54.7 459.4 54.7 L 461.4 54.7 C 461.4 54.7 461.39 65.47 461.4 65.5 C 461.4 67.4 461.2 68.8 460.8 69.6 C 460.4 70.4 459.8 71 458.9 71.5 C 458.1 72 457 72.2 455.8 72.2 C 454.3 72.2 453.1 71.9 452.2 71.2 C 451.3 70.5 450.8 69.5 450.8 68.2 Z M 452.6 60.7 C 452.6 62.3 452.9 63.5 453.6 64.3 C 454.2 65 455 65.4 456 65.4 C 457 65.4 457.8 65 458.4 64.3 C 459.1 63.5 459.4 62.4 459.4 60.8 C 459.4 59.3 459.1 58.1 458.4 57.3 C 457.7 56.6 456.9 56.2 456 56.2 C 455 56.2 454.2 56.6 453.6 57.3 C 452.9 58.1 452.6 59.2 452.6 60.7 Z M 471.2 67.2 L 471.2 54.7 L 473.1 54.7 C 473.1 54.7 473.13 56.46 473.1 56.5 C 473.5 55.9 474 55.4 474.7 55 C 475.3 54.6 476.1 54.4 476.9 54.4 C 477.8 54.4 478.6 54.6 479.2 55 C 479.8 55.4 480.2 55.9 480.4 56.6 C 481.4 55.2 482.7 54.4 484.3 54.4 C 485.5 54.4 486.4 54.8 487.1 55.5 C 487.8 56.1 488.1 57.2 488.1 58.6 C 488.11 58.62 488.1 67.2 488.1 67.2 L 486 67.2 C 486 67.2 486.01 59.32 486 59.3 C 486 58.5 485.9 57.9 485.8 57.5 C 485.7 57.1 485.4 56.8 485.1 56.6 C 484.7 56.4 484.3 56.3 483.8 56.3 C 482.9 56.3 482.2 56.6 481.6 57.1 C 481 57.7 480.8 58.6 480.8 59.9 C 480.75 59.93 480.8 67.2 480.8 67.2 L 478.6 67.2 C 478.6 67.2 478.64 59.07 478.6 59.1 C 478.6 58.1 478.5 57.4 478.1 57 C 477.8 56.5 477.2 56.3 476.4 56.3 C 475.8 56.3 475.3 56.4 474.8 56.7 C 474.3 57 473.9 57.5 473.7 58.1 C 473.5 58.7 473.4 59.6 473.4 60.7 C 473.36 60.7 473.4 67.2 473.4 67.2 L 471.2 67.2 Z M 490.5 60.9 C 490.5 58.6 491.1 56.9 492.4 55.8 C 493.4 54.9 494.7 54.4 496.3 54.4 C 498 54.4 499.4 55 500.5 56.1 C 501.6 57.2 502.1 58.8 502.1 60.8 C 502.1 62.4 501.9 63.6 501.4 64.5 C 500.9 65.5 500.2 66.2 499.3 66.7 C 498.4 67.2 497.4 67.4 496.3 67.4 C 494.5 67.4 493.1 66.9 492.1 65.8 C 491 64.6 490.5 63 490.5 60.9 Z M 492.6 60.9 C 492.6 62.5 493 63.7 493.7 64.5 C 494.4 65.3 495.2 65.7 496.3 65.7 C 497.3 65.7 498.2 65.3 498.9 64.5 C 499.6 63.7 499.9 62.5 499.9 60.9 C 499.9 59.3 499.6 58.2 498.9 57.4 C 498.2 56.6 497.3 56.2 496.3 56.2 C 495.2 56.2 494.4 56.6 493.7 57.4 C 493 58.2 492.6 59.3 492.6 60.9 Z M 504.6 67.2 L 504.6 54.7 L 506.5 54.7 C 506.5 54.7 506.46 56.6 506.5 56.6 C 506.9 55.7 507.4 55.1 507.8 54.9 C 508.2 54.6 508.7 54.4 509.2 54.4 C 509.9 54.4 510.6 54.7 511.3 55.1 C 511.3 55.1 510.6 57.1 510.6 57.1 C 510.1 56.8 509.6 56.6 509.1 56.6 C 508.6 56.6 508.2 56.8 507.8 57 C 507.4 57.3 507.2 57.7 507 58.2 C 506.8 58.9 506.7 59.8 506.7 60.6 C 506.67 60.64 506.7 67.2 506.7 67.2 L 504.6 67.2 Z M 521.1 67.2 C 520.9 66.7 520.8 66.2 520.7 65.6 C 519.9 66.3 519.2 66.8 518.4 67 C 517.7 67.3 516.9 67.4 516.1 67.4 C 514.7 67.4 513.7 67.1 513 66.4 C 512.2 65.8 511.9 64.9 511.9 63.9 C 511.9 63.3 512 62.7 512.3 62.2 C 512.6 61.7 512.9 61.3 513.4 61 C 513.8 60.7 514.3 60.5 514.9 60.3 C 515.3 60.2 515.9 60.1 516.8 60 C 518.5 59.8 519.7 59.5 520.5 59.3 C 520.5 59 520.5 58.8 520.5 58.7 C 520.5 57.9 520.3 57.2 519.9 56.9 C 519.4 56.4 518.6 56.2 517.5 56.2 C 516.5 56.2 515.8 56.4 515.3 56.7 C 514.9 57 514.5 57.7 514.3 58.5 C 514.3 58.5 512.2 58.3 512.2 58.3 C 512.4 57.4 512.7 56.7 513.2 56.1 C 513.6 55.6 514.2 55.2 515 54.9 C 515.8 54.6 516.8 54.4 517.8 54.4 C 518.9 54.4 519.8 54.6 520.4 54.8 C 521.1 55.1 521.6 55.4 521.9 55.8 C 522.2 56.1 522.4 56.6 522.6 57.2 C 522.6 57.5 522.7 58.2 522.7 59.1 C 522.7 59.1 522.7 61.9 522.7 61.9 C 522.7 63.9 522.7 65.1 522.8 65.7 C 522.9 66.2 523.1 66.7 523.3 67.2 C 523.32 67.16 521.1 67.2 521.1 67.2 C 521.1 67.2 521.12 67.16 521.1 67.2 Z M 520.5 60.9 C 519.8 61.2 518.6 61.5 517.1 61.7 C 516.2 61.8 515.6 62 515.2 62.1 C 514.9 62.3 514.6 62.5 514.4 62.8 C 514.2 63.1 514.1 63.5 514.1 63.8 C 514.1 64.4 514.3 64.9 514.8 65.2 C 515.2 65.6 515.8 65.8 516.6 65.8 C 517.4 65.8 518.2 65.6 518.8 65.3 C 519.4 64.9 519.9 64.4 520.2 63.8 C 520.4 63.3 520.5 62.6 520.5 61.7 C 520.5 61.7 520.5 60.9 520.5 60.9 Z M 525.9 67.2 L 525.9 50 L 528 50 L 528 67.2 L 525.9 67.2 Z " stroke="none" fill="#ffffff"/>  </g>  <g id="Polygon16877">    <path d="M 6.1 1.9 L 6.1 29.2 L 3.1 29.2 L 3.1 1.9 L 6.1 1.9 Z M 14.7 1.9 L 34 24.4 L 34 1.9 L 36.9 1.9 L 36.9 29.2 L 34.2 29.2 L 15.1 6.7 L 15.1 29.2 L 12.2 29.2 L 12.2 1.9 L 14.7 1.9 Z M 62.9 1.9 L 62.9 4.5 L 53.2 4.5 L 53.2 29.2 L 50.2 29.2 L 50.2 4.5 L 40.5 4.5 L 40.5 1.9 L 62.9 1.9 Z M 81.5 1.9 L 81.5 4.6 L 69.6 4.6 L 69.6 14.1 L 81.1 14.1 L 81.1 16.8 L 69.6 16.8 L 69.6 26.4 L 81.8 26.4 L 81.8 29.2 L 66.6 29.2 L 66.6 1.9 L 81.5 1.9 Z M 109.2 6.9 C 106.2 5.1 102.9 4.2 99.8 4.2 C 93.5 4.2 88.6 9 88.6 15.4 C 88.6 22.1 93.2 26.8 100 26.8 C 102.3 26.8 104 26.5 106.8 25.4 C 106.76 25.44 106.8 18.8 106.8 18.8 L 101.2 18.8 L 101.2 16.2 L 109.8 16.2 C 109.8 16.2 109.76 27.28 109.8 27.3 C 106.6 28.8 103.6 29.5 100 29.5 C 90.3 29.5 85.5 22.7 85.5 15.7 C 85.5 7.9 91.2 1.5 99.9 1.5 C 103 1.5 105.6 2.2 109.2 3.8 C 109.2 3.8 109.2 6.9 109.2 6.9 Z M 115.5 1.9 C 115.5 1.9 122.64 1.88 122.6 1.9 C 128.1 1.9 131 5 131 9.2 C 131 12.6 129.1 14.9 125.8 15.9 C 127.6 16.8 128.4 17.6 130.6 21 C 130.6 21 135.9 29.2 135.9 29.2 L 132.3 29.2 C 132.3 29.2 127.52 21.64 127.5 21.6 C 125 17.6 123.3 16.8 121 16.8 C 121 16.76 118.5 16.8 118.5 16.8 L 118.5 29.2 L 115.5 29.2 L 115.5 1.9 Z M 121.3 14.1 C 125 14.1 127.9 13.2 127.9 9.2 C 127.9 5.9 125.7 4.5 122.2 4.5 C 122.24 4.52 118.5 4.5 118.5 4.5 L 118.5 14.1 C 118.5 14.1 121.28 14.12 121.3 14.1 Z M 141.9 1.9 L 141.9 29.2 L 138.9 29.2 L 138.9 1.9 L 141.9 1.9 Z M 167.9 1.9 L 167.9 4.5 L 158.2 4.5 L 158.2 29.2 L 155.2 29.2 L 155.2 4.5 L 145.5 4.5 L 145.5 1.9 L 167.9 1.9 Z M 172.6 1.9 L 180.8 12 L 188.9 1.9 L 192.5 1.9 L 182.3 14.6 L 182.3 29.2 L 179.2 29.2 L 179.2 14.6 L 169 1.9 L 172.6 1.9 Z " stroke="none" fill="#ffffff"/>  </g></svg>