<?xml version="1.0" standalone="no"?><!DOCTYPE svg PUBLIC "-//W3C//DTD SVG 1.1//EN" "http://www.w3.org/Graphics/SVG/1.1/DTD/svg11.dtd"><svg xmlns="http://www.w3.org/2000/svg" version="1.1" width="84px" height="27.5px" viewBox="0 -1 84 27.5" style="top:-1px">  <desc>Professional</desc>  <defs/>  <g id="Polygon7169">    <path d="M 9.7 16.1 L 9.7 7.5 C 9.7 7.5 12.95 7.5 12.9 7.5 C 13.5 7.5 14 7.5 14.3 7.6 C 14.7 7.6 15 7.8 15.3 8 C 15.6 8.2 15.8 8.5 16 8.8 C 16.2 9.2 16.3 9.6 16.3 10 C 16.3 10.7 16 11.3 15.6 11.8 C 15.1 12.3 14.3 12.6 13 12.6 C 13.05 12.6 10.8 12.6 10.8 12.6 L 10.8 16.1 L 9.7 16.1 Z M 10.8 11.6 C 10.8 11.6 13.06 11.58 13.1 11.6 C 13.8 11.6 14.3 11.4 14.6 11.2 C 14.9 10.9 15.1 10.5 15.1 10 C 15.1 9.7 15 9.4 14.8 9.1 C 14.6 8.8 14.4 8.7 14.1 8.6 C 13.9 8.5 13.6 8.5 13 8.5 C 13.04 8.51 10.8 8.5 10.8 8.5 L 10.8 11.6 Z M 17.6 16.1 L 17.6 9.9 L 18.5 9.9 C 18.5 9.9 18.51 10.81 18.5 10.8 C 18.8 10.4 19 10.1 19.2 9.9 C 19.4 9.8 19.6 9.7 19.9 9.7 C 20.2 9.7 20.6 9.8 20.9 10.1 C 20.9 10.1 20.6 11 20.6 11 C 20.3 10.9 20.1 10.8 19.8 10.8 C 19.6 10.8 19.4 10.9 19.2 11 C 19 11.2 18.9 11.4 18.8 11.6 C 18.7 12 18.6 12.4 18.6 12.8 C 18.62 12.83 18.6 16.1 18.6 16.1 L 17.6 16.1 Z M 21.2 13 C 21.2 11.8 21.5 11 22.1 10.4 C 22.7 10 23.3 9.7 24.1 9.7 C 25 9.7 25.7 10 26.2 10.6 C 26.7 11.1 27 11.9 27 12.9 C 27 13.7 26.9 14.3 26.6 14.8 C 26.4 15.2 26.1 15.6 25.6 15.8 C 25.1 16.1 24.6 16.2 24.1 16.2 C 23.2 16.2 22.5 15.9 22 15.4 C 21.4 14.8 21.2 14 21.2 13 Z M 22.3 13 C 22.3 13.8 22.4 14.4 22.8 14.8 C 23.1 15.2 23.6 15.4 24.1 15.4 C 24.6 15.4 25.1 15.2 25.4 14.8 C 25.8 14.4 25.9 13.8 25.9 12.9 C 25.9 12.2 25.8 11.6 25.4 11.2 C 25.1 10.8 24.6 10.6 24.1 10.6 C 23.6 10.6 23.1 10.8 22.8 11.2 C 22.4 11.6 22.3 12.2 22.3 13 Z M 28.5 16.1 L 28.5 10.7 L 27.6 10.7 L 27.6 9.9 L 28.5 9.9 C 28.5 9.9 28.5 9.2 28.5 9.2 C 28.5 8.8 28.5 8.5 28.6 8.3 C 28.7 8 28.9 7.8 29.1 7.6 C 29.4 7.4 29.8 7.4 30.2 7.4 C 30.5 7.4 30.8 7.4 31.2 7.5 C 31.2 7.5 31 8.4 31 8.4 C 30.8 8.3 30.6 8.3 30.4 8.3 C 30.1 8.3 29.9 8.4 29.7 8.5 C 29.6 8.7 29.5 8.9 29.5 9.3 C 29.55 9.29 29.5 9.9 29.5 9.9 L 30.8 9.9 L 30.8 10.7 L 29.5 10.7 L 29.5 16.1 L 28.5 16.1 Z M 35.8 14.1 C 35.8 14.1 36.9 14.2 36.9 14.2 C 36.8 14.9 36.4 15.3 36 15.7 C 35.5 16.1 34.9 16.2 34.2 16.2 C 33.3 16.2 32.6 15.9 32 15.4 C 31.5 14.8 31.2 14 31.2 13 C 31.2 12 31.5 11.2 32 10.6 C 32.6 10 33.3 9.7 34.1 9.7 C 35 9.7 35.6 10 36.2 10.6 C 36.7 11.1 37 11.9 37 13 C 37 13 37 13.1 37 13.2 C 37 13.2 32.3 13.2 32.3 13.2 C 32.4 13.9 32.6 14.5 32.9 14.8 C 33.2 15.2 33.7 15.4 34.2 15.4 C 34.6 15.4 34.9 15.3 35.2 15.1 C 35.5 14.9 35.7 14.5 35.8 14.1 Z M 32.4 12.4 C 32.4 12.4 35.9 12.4 35.9 12.4 C 35.8 11.9 35.7 11.5 35.5 11.2 C 35.1 10.8 34.7 10.6 34.1 10.6 C 33.7 10.6 33.3 10.8 32.9 11.1 C 32.6 11.4 32.4 11.8 32.4 12.4 Z M 37.8 14.2 C 37.8 14.2 38.9 14.1 38.9 14.1 C 38.9 14.5 39.1 14.8 39.4 15 C 39.6 15.2 40 15.4 40.5 15.4 C 41 15.4 41.3 15.3 41.6 15.1 C 41.8 14.9 41.9 14.6 41.9 14.4 C 41.9 14.1 41.8 13.9 41.6 13.8 C 41.5 13.7 41.1 13.6 40.5 13.5 C 39.8 13.3 39.2 13.1 38.9 12.9 C 38.6 12.8 38.4 12.6 38.2 12.4 C 38.1 12.1 38 11.8 38 11.5 C 38 11.2 38.1 11 38.2 10.7 C 38.3 10.5 38.5 10.3 38.7 10.2 C 38.9 10 39.1 9.9 39.4 9.9 C 39.7 9.8 40 9.7 40.3 9.7 C 40.8 9.7 41.2 9.8 41.6 9.9 C 42 10.1 42.2 10.3 42.4 10.5 C 42.6 10.7 42.7 11.1 42.8 11.5 C 42.8 11.5 41.7 11.6 41.7 11.6 C 41.7 11.3 41.6 11 41.3 10.9 C 41.1 10.7 40.8 10.6 40.4 10.6 C 39.9 10.6 39.5 10.7 39.3 10.8 C 39.1 11 39 11.2 39 11.4 C 39 11.5 39.1 11.7 39.2 11.8 C 39.2 11.9 39.4 12 39.6 12 C 39.7 12.1 40 12.2 40.5 12.3 C 41.2 12.5 41.8 12.7 42.1 12.8 C 42.3 12.9 42.6 13.1 42.7 13.4 C 42.9 13.6 43 13.9 43 14.3 C 43 14.6 42.9 14.9 42.7 15.3 C 42.5 15.6 42.2 15.8 41.8 16 C 41.4 16.1 41 16.2 40.5 16.2 C 39.7 16.2 39.1 16.1 38.6 15.7 C 38.2 15.4 37.9 14.9 37.8 14.2 Z M 43.8 14.2 C 43.8 14.2 44.9 14.1 44.9 14.1 C 44.9 14.5 45.1 14.8 45.4 15 C 45.6 15.2 46 15.4 46.5 15.4 C 47 15.4 47.3 15.3 47.6 15.1 C 47.8 14.9 47.9 14.6 47.9 14.4 C 47.9 14.1 47.8 13.9 47.6 13.8 C 47.5 13.7 47.1 13.6 46.5 13.5 C 45.8 13.3 45.2 13.1 44.9 12.9 C 44.6 12.8 44.4 12.6 44.2 12.4 C 44.1 12.1 44 11.8 44 11.5 C 44 11.2 44.1 11 44.2 10.7 C 44.3 10.5 44.5 10.3 44.7 10.2 C 44.9 10 45.1 9.9 45.4 9.9 C 45.7 9.8 46 9.7 46.3 9.7 C 46.8 9.7 47.2 9.8 47.6 9.9 C 48 10.1 48.2 10.3 48.4 10.5 C 48.6 10.7 48.7 11.1 48.8 11.5 C 48.8 11.5 47.7 11.6 47.7 11.6 C 47.7 11.3 47.6 11 47.3 10.9 C 47.1 10.7 46.8 10.6 46.4 10.6 C 45.9 10.6 45.5 10.7 45.3 10.8 C 45.1 11 45 11.2 45 11.4 C 45 11.5 45.1 11.7 45.2 11.8 C 45.2 11.9 45.4 12 45.6 12 C 45.7 12.1 46 12.2 46.5 12.3 C 47.2 12.5 47.8 12.7 48.1 12.8 C 48.3 12.9 48.6 13.1 48.7 13.4 C 48.9 13.6 49 13.9 49 14.3 C 49 14.6 48.9 14.9 48.7 15.3 C 48.5 15.6 48.2 15.8 47.8 16 C 47.4 16.1 47 16.2 46.5 16.2 C 45.7 16.2 45.1 16.1 44.6 15.7 C 44.2 15.4 43.9 14.9 43.8 14.2 Z M 50.3 8.7 L 50.3 7.5 L 51.3 7.5 L 51.3 8.7 L 50.3 8.7 Z M 50.3 16.1 L 50.3 9.9 L 51.3 9.9 L 51.3 16.1 L 50.3 16.1 Z M 52.5 13 C 52.5 11.8 52.8 11 53.5 10.4 C 54 10 54.7 9.7 55.4 9.7 C 56.3 9.7 57 10 57.5 10.6 C 58.1 11.1 58.4 11.9 58.4 12.9 C 58.4 13.7 58.2 14.3 58 14.8 C 57.8 15.2 57.4 15.6 56.9 15.8 C 56.5 16.1 56 16.2 55.4 16.2 C 54.6 16.2 53.9 15.9 53.3 15.4 C 52.8 14.8 52.5 14 52.5 13 Z M 53.6 13 C 53.6 13.8 53.8 14.4 54.1 14.8 C 54.5 15.2 54.9 15.4 55.4 15.4 C 56 15.4 56.4 15.2 56.8 14.8 C 57.1 14.4 57.3 13.8 57.3 12.9 C 57.3 12.2 57.1 11.6 56.7 11.2 C 56.4 10.8 56 10.6 55.4 10.6 C 54.9 10.6 54.5 10.8 54.1 11.2 C 53.8 11.6 53.6 12.2 53.6 13 Z M 59.6 16.1 L 59.6 9.9 L 60.5 9.9 C 60.5 9.9 60.54 10.75 60.5 10.7 C 61 10.1 61.7 9.7 62.5 9.7 C 62.9 9.7 63.2 9.8 63.6 9.9 C 63.9 10.1 64.1 10.2 64.3 10.5 C 64.4 10.7 64.5 10.9 64.6 11.2 C 64.6 11.4 64.7 11.8 64.7 12.3 C 64.65 12.26 64.7 16.1 64.7 16.1 L 63.6 16.1 C 63.6 16.1 63.6 12.3 63.6 12.3 C 63.6 11.9 63.6 11.6 63.5 11.3 C 63.4 11.1 63.2 11 63 10.8 C 62.8 10.7 62.6 10.6 62.3 10.6 C 61.9 10.6 61.5 10.8 61.1 11.1 C 60.8 11.4 60.6 11.9 60.6 12.7 C 60.65 12.69 60.6 16.1 60.6 16.1 L 59.6 16.1 Z M 70.5 16.1 C 70.4 15.9 70.4 15.6 70.3 15.3 C 69.9 15.7 69.6 15.9 69.2 16 C 68.8 16.2 68.5 16.2 68 16.2 C 67.4 16.2 66.8 16.1 66.5 15.7 C 66.1 15.4 65.9 15 65.9 14.4 C 65.9 14.1 66 13.9 66.1 13.6 C 66.3 13.4 66.4 13.2 66.7 13 C 66.9 12.9 67.1 12.7 67.4 12.7 C 67.6 12.6 67.9 12.6 68.4 12.5 C 69.2 12.4 69.8 12.3 70.2 12.1 C 70.2 12 70.2 11.9 70.2 11.9 C 70.2 11.4 70.1 11.1 69.9 11 C 69.7 10.7 69.3 10.6 68.7 10.6 C 68.3 10.6 67.9 10.7 67.6 10.9 C 67.4 11 67.2 11.3 67.1 11.8 C 67.1 11.8 66.1 11.6 66.1 11.6 C 66.2 11.2 66.3 10.8 66.6 10.6 C 66.8 10.3 67.1 10.1 67.5 9.9 C 67.9 9.8 68.4 9.7 68.9 9.7 C 69.4 9.7 69.9 9.8 70.2 9.9 C 70.5 10 70.8 10.2 70.9 10.4 C 71.1 10.6 71.2 10.8 71.3 11.1 C 71.3 11.3 71.3 11.6 71.3 12.1 C 71.3 12.1 71.3 13.5 71.3 13.5 C 71.3 14.5 71.3 15.1 71.4 15.3 C 71.4 15.6 71.5 15.8 71.6 16.1 C 71.64 16.09 70.5 16.1 70.5 16.1 C 70.5 16.1 70.54 16.09 70.5 16.1 Z M 70.2 13 C 69.9 13.1 69.3 13.3 68.5 13.4 C 68.1 13.4 67.8 13.5 67.6 13.6 C 67.4 13.7 67.3 13.8 67.2 13.9 C 67.1 14.1 67 14.2 67 14.4 C 67 14.7 67.1 14.9 67.4 15.1 C 67.6 15.3 67.9 15.4 68.3 15.4 C 68.7 15.4 69.1 15.3 69.4 15.1 C 69.7 15 69.9 14.7 70.1 14.4 C 70.2 14.2 70.2 13.8 70.2 13.4 C 70.2 13.4 70.2 13 70.2 13 Z M 72.9 16.1 L 72.9 7.5 L 74 7.5 L 74 16.1 L 72.9 16.1 Z " stroke="none" fill="#000"/>  </g></svg>