<?xml version="1.0" standalone="no"?><!DOCTYPE svg PUBLIC "-//W3C//DTD SVG 1.1//EN" "http://www.w3.org/Graphics/SVG/1.1/DTD/svg11.dtd"><svg xmlns="http://www.w3.org/2000/svg" version="1.1" width="352px" height="20.5px" viewBox="0 -4 352 20.5" style="top:-4px">  <desc>Turnaround Times</desc>  <defs/>  <g id="Polygon5735">    <path d="M 3.1 8.7 L 3.1 1.2 L 0.3 1.2 L 0.3 0.1 L 7.1 0.1 L 7.1 1.2 L 4.2 1.2 L 4.2 8.7 L 3.1 8.7 Z M 11.8 8.7 C 11.8 8.7 11.75 7.82 11.8 7.8 C 11.3 8.5 10.6 8.9 9.8 8.9 C 9.4 8.9 9.1 8.8 8.8 8.7 C 8.4 8.5 8.2 8.3 8 8.1 C 7.9 7.9 7.8 7.7 7.7 7.4 C 7.7 7.1 7.7 6.8 7.7 6.4 C 7.65 6.37 7.7 2.5 7.7 2.5 L 8.7 2.5 C 8.7 2.5 8.71 5.96 8.7 6 C 8.7 6.5 8.7 6.9 8.8 7.1 C 8.8 7.4 9 7.6 9.2 7.7 C 9.4 7.9 9.7 8 10 8 C 10.3 8 10.6 7.9 10.9 7.7 C 11.2 7.6 11.4 7.3 11.5 7.1 C 11.6 6.8 11.6 6.4 11.6 5.8 C 11.64 5.85 11.6 2.5 11.6 2.5 L 12.7 2.5 L 12.7 8.7 L 11.8 8.7 Z M 14.3 8.7 L 14.3 2.5 L 15.3 2.5 C 15.3 2.5 15.29 3.46 15.3 3.5 C 15.5 3 15.8 2.7 16 2.6 C 16.2 2.4 16.4 2.4 16.6 2.4 C 17 2.4 17.4 2.5 17.7 2.7 C 17.7 2.7 17.4 3.7 17.4 3.7 C 17.1 3.5 16.8 3.5 16.6 3.5 C 16.4 3.5 16.1 3.5 16 3.7 C 15.8 3.8 15.6 4 15.6 4.2 C 15.5 4.6 15.4 5 15.4 5.5 C 15.39 5.48 15.4 8.7 15.4 8.7 L 14.3 8.7 Z M 18.3 8.7 L 18.3 2.5 L 19.3 2.5 C 19.3 2.5 19.29 3.4 19.3 3.4 C 19.8 2.7 20.4 2.4 21.3 2.4 C 21.7 2.4 22 2.4 22.3 2.6 C 22.6 2.7 22.9 2.9 23 3.1 C 23.2 3.3 23.3 3.6 23.3 3.9 C 23.4 4.1 23.4 4.4 23.4 4.9 C 23.4 4.91 23.4 8.7 23.4 8.7 L 22.3 8.7 C 22.3 8.7 22.35 4.95 22.3 5 C 22.3 4.5 22.3 4.2 22.2 4 C 22.1 3.8 22 3.6 21.8 3.5 C 21.6 3.4 21.3 3.3 21.1 3.3 C 20.6 3.3 20.2 3.4 19.9 3.7 C 19.6 4 19.4 4.5 19.4 5.3 C 19.4 5.34 19.4 8.7 19.4 8.7 L 18.3 8.7 Z M 29.3 8.7 C 29.2 8.5 29.1 8.3 29.1 8 C 28.7 8.3 28.3 8.5 28 8.7 C 27.6 8.8 27.2 8.9 26.8 8.9 C 26.1 8.9 25.6 8.7 25.2 8.4 C 24.8 8 24.7 7.6 24.7 7.1 C 24.7 6.8 24.7 6.5 24.9 6.3 C 25 6 25.2 5.8 25.4 5.7 C 25.6 5.5 25.9 5.4 26.2 5.3 C 26.4 5.3 26.7 5.2 27.1 5.2 C 28 5 28.6 4.9 29 4.8 C 29 4.6 29 4.6 29 4.5 C 29 4.1 28.9 3.8 28.7 3.6 C 28.4 3.4 28 3.2 27.5 3.2 C 27 3.2 26.6 3.3 26.4 3.5 C 26.2 3.7 26 4 25.9 4.4 C 25.9 4.4 24.8 4.3 24.8 4.3 C 24.9 3.8 25.1 3.5 25.3 3.2 C 25.5 2.9 25.8 2.7 26.2 2.6 C 26.6 2.4 27.1 2.4 27.7 2.4 C 28.2 2.4 28.6 2.4 28.9 2.6 C 29.3 2.7 29.5 2.8 29.7 3 C 29.8 3.2 29.9 3.5 30 3.8 C 30 3.9 30.1 4.3 30.1 4.7 C 30.1 4.7 30.1 6.1 30.1 6.1 C 30.1 7.1 30.1 7.7 30.1 8 C 30.2 8.2 30.3 8.5 30.4 8.7 C 30.39 8.74 29.3 8.7 29.3 8.7 C 29.3 8.7 29.29 8.74 29.3 8.7 Z M 29 5.6 C 28.6 5.8 28 5.9 27.3 6 C 26.8 6.1 26.5 6.1 26.3 6.2 C 26.2 6.3 26 6.4 25.9 6.6 C 25.8 6.7 25.8 6.9 25.8 7.1 C 25.8 7.3 25.9 7.6 26.1 7.8 C 26.3 8 26.6 8.1 27 8.1 C 27.4 8.1 27.8 8 28.1 7.8 C 28.4 7.6 28.7 7.4 28.8 7.1 C 28.9 6.8 29 6.5 29 6 C 29 6 29 5.6 29 5.6 Z M 31.7 8.7 L 31.7 2.5 L 32.6 2.5 C 32.6 2.5 32.63 3.46 32.6 3.5 C 32.9 3 33.1 2.7 33.3 2.6 C 33.5 2.4 33.7 2.4 34 2.4 C 34.3 2.4 34.7 2.5 35.1 2.7 C 35.1 2.7 34.7 3.7 34.7 3.7 C 34.4 3.5 34.2 3.5 33.9 3.5 C 33.7 3.5 33.5 3.5 33.3 3.7 C 33.1 3.8 33 4 32.9 4.2 C 32.8 4.6 32.7 5 32.7 5.5 C 32.74 5.48 32.7 8.7 32.7 8.7 L 31.7 8.7 Z M 35.3 5.6 C 35.3 4.5 35.6 3.6 36.3 3.1 C 36.8 2.6 37.4 2.4 38.2 2.4 C 39.1 2.4 39.8 2.7 40.3 3.2 C 40.9 3.8 41.1 4.5 41.1 5.5 C 41.1 6.3 41 7 40.8 7.4 C 40.5 7.9 40.2 8.2 39.7 8.5 C 39.3 8.7 38.8 8.9 38.2 8.9 C 37.3 8.9 36.6 8.6 36.1 8 C 35.6 7.5 35.3 6.7 35.3 5.6 Z M 36.4 5.6 C 36.4 6.4 36.6 7 36.9 7.4 C 37.2 7.8 37.7 8 38.2 8 C 38.7 8 39.2 7.8 39.5 7.4 C 39.9 7 40 6.4 40 5.6 C 40 4.8 39.9 4.2 39.5 3.8 C 39.2 3.4 38.7 3.2 38.2 3.2 C 37.7 3.2 37.2 3.4 36.9 3.8 C 36.6 4.2 36.4 4.8 36.4 5.6 Z M 46.4 8.7 C 46.4 8.7 46.44 7.82 46.4 7.8 C 46 8.5 45.3 8.9 44.5 8.9 C 44.1 8.9 43.8 8.8 43.4 8.7 C 43.1 8.5 42.9 8.3 42.7 8.1 C 42.6 7.9 42.5 7.7 42.4 7.4 C 42.4 7.1 42.3 6.8 42.3 6.4 C 42.34 6.37 42.3 2.5 42.3 2.5 L 43.4 2.5 C 43.4 2.5 43.39 5.96 43.4 6 C 43.4 6.5 43.4 6.9 43.5 7.1 C 43.5 7.4 43.7 7.6 43.9 7.7 C 44.1 7.9 44.4 8 44.7 8 C 45 8 45.3 7.9 45.6 7.7 C 45.8 7.6 46 7.3 46.2 7.1 C 46.3 6.8 46.3 6.4 46.3 5.8 C 46.33 5.85 46.3 2.5 46.3 2.5 L 47.4 2.5 L 47.4 8.7 L 46.4 8.7 Z M 49 8.7 L 49 2.5 L 50 2.5 C 50 2.5 49.99 3.4 50 3.4 C 50.4 2.7 51.1 2.4 52 2.4 C 52.3 2.4 52.7 2.4 53 2.6 C 53.3 2.7 53.6 2.9 53.7 3.1 C 53.9 3.3 54 3.6 54 3.9 C 54.1 4.1 54.1 4.4 54.1 4.9 C 54.09 4.91 54.1 8.7 54.1 8.7 L 53 8.7 C 53 8.7 53.04 4.95 53 5 C 53 4.5 53 4.2 52.9 4 C 52.8 3.8 52.7 3.6 52.5 3.5 C 52.3 3.4 52 3.3 51.7 3.3 C 51.3 3.3 50.9 3.4 50.6 3.7 C 50.3 4 50.1 4.5 50.1 5.3 C 50.09 5.34 50.1 8.7 50.1 8.7 L 49 8.7 Z M 59.7 8.7 C 59.7 8.7 59.75 7.95 59.7 8 C 59.4 8.6 58.8 8.9 58 8.9 C 57.5 8.9 57.1 8.7 56.6 8.5 C 56.2 8.2 55.9 7.8 55.7 7.3 C 55.4 6.8 55.3 6.3 55.3 5.6 C 55.3 5 55.4 4.4 55.6 3.9 C 55.8 3.4 56.2 3 56.6 2.8 C 57 2.5 57.4 2.4 58 2.4 C 58.3 2.4 58.7 2.5 59 2.6 C 59.3 2.8 59.5 3 59.7 3.2 C 59.68 3.23 59.7 0.1 59.7 0.1 L 60.7 0.1 L 60.7 8.7 L 59.7 8.7 Z M 56.4 5.6 C 56.4 6.4 56.6 7 56.9 7.4 C 57.3 7.8 57.7 8 58.1 8 C 58.6 8 59 7.8 59.3 7.4 C 59.6 7.1 59.8 6.5 59.8 5.7 C 59.8 4.9 59.6 4.2 59.3 3.8 C 58.9 3.4 58.5 3.2 58.1 3.2 C 57.6 3.2 57.2 3.4 56.9 3.8 C 56.6 4.2 56.4 4.8 56.4 5.6 Z M 67.8 8.7 L 67.8 1.2 L 65 1.2 L 65 0.1 L 71.8 0.1 L 71.8 1.2 L 69 1.2 L 69 8.7 L 67.8 8.7 Z M 72.4 1.4 L 72.4 0.1 L 73.4 0.1 L 73.4 1.4 L 72.4 1.4 Z M 72.4 8.7 L 72.4 2.5 L 73.4 2.5 L 73.4 8.7 L 72.4 8.7 Z M 75.1 8.7 L 75.1 2.5 L 76 2.5 C 76 2.5 76 3.39 76 3.4 C 76.2 3.1 76.5 2.8 76.8 2.7 C 77.1 2.5 77.5 2.4 77.9 2.4 C 78.3 2.4 78.7 2.5 79 2.7 C 79.3 2.9 79.5 3.1 79.6 3.5 C 80.1 2.7 80.8 2.4 81.6 2.4 C 82.2 2.4 82.7 2.5 83 2.9 C 83.3 3.2 83.5 3.8 83.5 4.5 C 83.48 4.46 83.5 8.7 83.5 8.7 L 82.4 8.7 C 82.4 8.7 82.44 4.82 82.4 4.8 C 82.4 4.4 82.4 4.1 82.3 3.9 C 82.3 3.7 82.1 3.6 82 3.5 C 81.8 3.3 81.6 3.3 81.3 3.3 C 80.9 3.3 80.5 3.4 80.2 3.7 C 79.9 4 79.8 4.5 79.8 5.1 C 79.8 5.12 79.8 8.7 79.8 8.7 L 78.8 8.7 C 78.8 8.7 78.75 4.69 78.8 4.7 C 78.8 4.2 78.7 3.9 78.5 3.6 C 78.3 3.4 78 3.3 77.6 3.3 C 77.4 3.3 77.1 3.4 76.8 3.5 C 76.6 3.7 76.4 3.9 76.3 4.2 C 76.2 4.5 76.1 4.9 76.1 5.5 C 76.11 5.51 76.1 8.7 76.1 8.7 L 75.1 8.7 Z M 89.3 6.7 C 89.3 6.7 90.4 6.9 90.4 6.9 C 90.2 7.5 89.9 8 89.4 8.3 C 89 8.7 88.4 8.9 87.7 8.9 C 86.8 8.9 86 8.6 85.5 8 C 85 7.5 84.7 6.7 84.7 5.7 C 84.7 4.6 85 3.8 85.5 3.2 C 86 2.7 86.7 2.4 87.6 2.4 C 88.4 2.4 89.1 2.7 89.6 3.2 C 90.2 3.8 90.4 4.6 90.4 5.6 C 90.4 5.7 90.4 5.8 90.4 5.9 C 90.4 5.9 85.8 5.9 85.8 5.9 C 85.8 6.6 86 7.1 86.4 7.5 C 86.7 7.8 87.1 8 87.7 8 C 88.1 8 88.4 7.9 88.7 7.7 C 88.9 7.5 89.1 7.2 89.3 6.7 Z M 85.8 5 C 85.8 5 89.3 5 89.3 5 C 89.3 4.5 89.1 4.1 88.9 3.8 C 88.6 3.4 88.2 3.2 87.6 3.2 C 87.1 3.2 86.7 3.4 86.4 3.7 C 86.1 4.1 85.9 4.5 85.8 5 Z M 91.3 6.9 C 91.3 6.9 92.3 6.7 92.3 6.7 C 92.4 7.1 92.6 7.5 92.8 7.7 C 93.1 7.9 93.5 8 94 8 C 94.4 8 94.8 7.9 95 7.7 C 95.3 7.5 95.4 7.3 95.4 7 C 95.4 6.8 95.3 6.6 95.1 6.5 C 94.9 6.4 94.6 6.2 94 6.1 C 93.2 5.9 92.7 5.7 92.4 5.6 C 92.1 5.5 91.9 5.3 91.7 5 C 91.6 4.7 91.5 4.5 91.5 4.2 C 91.5 3.9 91.5 3.6 91.7 3.4 C 91.8 3.2 92 3 92.2 2.8 C 92.3 2.7 92.6 2.6 92.9 2.5 C 93.1 2.4 93.4 2.4 93.8 2.4 C 94.3 2.4 94.7 2.4 95.1 2.6 C 95.4 2.7 95.7 2.9 95.9 3.2 C 96 3.4 96.2 3.7 96.2 4.1 C 96.2 4.1 95.2 4.3 95.2 4.3 C 95.2 3.9 95 3.7 94.8 3.5 C 94.6 3.3 94.3 3.2 93.8 3.2 C 93.4 3.2 93 3.3 92.8 3.5 C 92.6 3.6 92.5 3.8 92.5 4 C 92.5 4.2 92.5 4.3 92.6 4.4 C 92.7 4.5 92.8 4.6 93 4.7 C 93.1 4.7 93.4 4.8 94 5 C 94.7 5.2 95.2 5.3 95.5 5.5 C 95.8 5.6 96 5.8 96.2 6 C 96.4 6.2 96.5 6.5 96.5 6.9 C 96.5 7.3 96.4 7.6 96.2 7.9 C 96 8.2 95.7 8.5 95.3 8.6 C 94.9 8.8 94.4 8.9 94 8.9 C 93.2 8.9 92.5 8.7 92.1 8.4 C 91.7 8 91.4 7.5 91.3 6.9 Z " stroke="none" fill="#000"/>  </g></svg>