<?xml version="1.0" standalone="no"?><!DOCTYPE svg PUBLIC "-//W3C//DTD SVG 1.1//EN" "http://www.w3.org/Graphics/SVG/1.1/DTD/svg11.dtd"><svg xmlns="http://www.w3.org/2000/svg" version="1.1" width="415px" height="56.5px" viewBox="0 -5 415 56.5" style="top:-5px">  <desc>Behaviours Clients rated their satisfaction against our business behaviours :</desc>  <defs/>  <g id="Polygon6208">    <path d="M 7.1 41.3 C 7.1 41.3 8.2 41.6 8.2 41.6 C 8 42.5 7.5 43.2 6.9 43.7 C 6.3 44.2 5.5 44.5 4.6 44.5 C 3.7 44.5 3 44.3 2.4 43.9 C 1.8 43.5 1.4 43 1.1 42.3 C 0.7 41.6 0.6 40.8 0.6 40 C 0.6 39.1 0.8 38.3 1.1 37.6 C 1.5 37 1.9 36.4 2.6 36.1 C 3.2 35.8 3.9 35.6 4.7 35.6 C 5.5 35.6 6.2 35.8 6.8 36.2 C 7.4 36.7 7.8 37.3 8 38.1 C 8 38.1 6.9 38.4 6.9 38.4 C 6.7 37.7 6.4 37.3 6.1 37 C 5.7 36.7 5.2 36.6 4.6 36.6 C 4 36.6 3.4 36.7 3 37 C 2.5 37.3 2.2 37.8 2 38.3 C 1.9 38.8 1.8 39.4 1.8 40 C 1.8 40.7 1.9 41.3 2.1 41.9 C 2.3 42.4 2.6 42.8 3.1 43.1 C 3.5 43.4 4 43.5 4.5 43.5 C 5.2 43.5 5.7 43.3 6.2 42.9 C 6.6 42.6 6.9 42 7.1 41.3 Z M 9.4 44.3 L 9.4 35.7 L 10.5 35.7 L 10.5 44.3 L 9.4 44.3 Z M 12.1 36.9 L 12.1 35.7 L 13.2 35.7 L 13.2 36.9 L 12.1 36.9 Z M 12.1 44.3 L 12.1 38.1 L 13.2 38.1 L 13.2 44.3 L 12.1 44.3 Z M 19 42.3 C 19 42.3 20.1 42.5 20.1 42.5 C 20 43.1 19.6 43.6 19.2 43.9 C 18.7 44.3 18.1 44.5 17.4 44.5 C 16.5 44.5 15.8 44.2 15.2 43.6 C 14.7 43.1 14.4 42.3 14.4 41.3 C 14.4 40.2 14.7 39.4 15.2 38.8 C 15.8 38.2 16.5 38 17.3 38 C 18.2 38 18.9 38.2 19.4 38.8 C 19.9 39.4 20.2 40.2 20.2 41.2 C 20.2 41.3 20.2 41.4 20.2 41.5 C 20.2 41.5 15.5 41.5 15.5 41.5 C 15.6 42.2 15.8 42.7 16.1 43.1 C 16.5 43.4 16.9 43.6 17.4 43.6 C 17.8 43.6 18.1 43.5 18.4 43.3 C 18.7 43.1 18.9 42.8 19 42.3 Z M 15.6 40.6 C 15.6 40.6 19.1 40.6 19.1 40.6 C 19 40.1 18.9 39.7 18.7 39.4 C 18.3 39 17.9 38.8 17.4 38.8 C 16.9 38.8 16.5 39 16.1 39.3 C 15.8 39.6 15.6 40.1 15.6 40.6 Z M 21.5 44.3 L 21.5 38.1 L 22.4 38.1 C 22.4 38.1 22.41 38.98 22.4 39 C 22.9 38.3 23.5 38 24.4 38 C 24.8 38 25.1 38 25.4 38.2 C 25.7 38.3 26 38.5 26.1 38.7 C 26.3 38.9 26.4 39.2 26.5 39.5 C 26.5 39.7 26.5 40 26.5 40.5 C 26.52 40.5 26.5 44.3 26.5 44.3 L 25.5 44.3 C 25.5 44.3 25.46 40.54 25.5 40.5 C 25.5 40.1 25.4 39.8 25.3 39.6 C 25.3 39.4 25.1 39.2 24.9 39.1 C 24.7 38.9 24.5 38.9 24.2 38.9 C 23.7 38.9 23.3 39 23 39.3 C 22.7 39.6 22.5 40.1 22.5 40.9 C 22.52 40.92 22.5 44.3 22.5 44.3 L 21.5 44.3 Z M 30 43.4 C 30.1 43.4 30.2 43.4 30.4 43.4 C 30.4 43.4 30.6 44.3 30.6 44.3 C 30.3 44.4 30 44.4 29.8 44.4 C 29.4 44.4 29.1 44.3 28.9 44.2 C 28.7 44.1 28.5 43.9 28.5 43.7 C 28.4 43.5 28.3 43.1 28.3 42.5 C 28.33 42.5 28.3 38.9 28.3 38.9 L 27.6 38.9 L 27.6 38.1 L 28.3 38.1 L 28.3 36.6 L 29.4 35.9 L 29.4 38.1 L 30.4 38.1 L 30.4 38.9 L 29.4 38.9 C 29.4 38.9 29.38 42.56 29.4 42.6 C 29.4 42.9 29.4 43.1 29.4 43.1 C 29.5 43.2 29.5 43.3 29.6 43.3 C 29.7 43.4 29.8 43.4 30 43.4 C 30 43.4 30 43.4 30 43.4 Z M 31 42.5 C 31 42.5 32.1 42.3 32.1 42.3 C 32.2 42.7 32.3 43 32.6 43.3 C 32.8 43.5 33.2 43.6 33.7 43.6 C 34.2 43.6 34.5 43.5 34.8 43.3 C 35 43.1 35.1 42.9 35.1 42.6 C 35.1 42.4 35 42.2 34.8 42 C 34.7 41.9 34.3 41.8 33.7 41.7 C 33 41.5 32.4 41.3 32.1 41.2 C 31.8 41 31.6 40.8 31.5 40.6 C 31.3 40.3 31.2 40.1 31.2 39.8 C 31.2 39.5 31.3 39.2 31.4 39 C 31.5 38.7 31.7 38.5 31.9 38.4 C 32.1 38.3 32.3 38.2 32.6 38.1 C 32.9 38 33.2 38 33.5 38 C 34 38 34.4 38 34.8 38.2 C 35.2 38.3 35.4 38.5 35.6 38.7 C 35.8 39 35.9 39.3 36 39.7 C 36 39.7 35 39.8 35 39.8 C 34.9 39.5 34.8 39.3 34.5 39.1 C 34.3 38.9 34 38.8 33.6 38.8 C 33.1 38.8 32.8 38.9 32.6 39.1 C 32.3 39.2 32.2 39.4 32.2 39.6 C 32.2 39.8 32.3 39.9 32.4 40 C 32.5 40.1 32.6 40.2 32.8 40.3 C 32.9 40.3 33.2 40.4 33.7 40.5 C 34.5 40.7 35 40.9 35.3 41 C 35.6 41.2 35.8 41.3 36 41.6 C 36.1 41.8 36.2 42.1 36.2 42.5 C 36.2 42.8 36.1 43.2 35.9 43.5 C 35.7 43.8 35.4 44 35 44.2 C 34.6 44.4 34.2 44.5 33.7 44.5 C 32.9 44.5 32.3 44.3 31.9 44 C 31.4 43.6 31.2 43.1 31 42.5 Z M 40.8 44.3 L 40.8 38.1 L 41.7 38.1 C 41.7 38.1 41.74 39.04 41.7 39 C 42 38.6 42.2 38.3 42.4 38.2 C 42.6 38 42.8 38 43.1 38 C 43.4 38 43.8 38.1 44.2 38.3 C 44.2 38.3 43.8 39.3 43.8 39.3 C 43.6 39.1 43.3 39 43 39 C 42.8 39 42.6 39.1 42.4 39.3 C 42.2 39.4 42.1 39.6 42 39.8 C 41.9 40.2 41.8 40.6 41.8 41.1 C 41.85 41.06 41.8 44.3 41.8 44.3 L 40.8 44.3 Z M 49.1 44.3 C 49 44.1 48.9 43.8 48.9 43.6 C 48.5 43.9 48.1 44.1 47.7 44.3 C 47.4 44.4 47 44.5 46.6 44.5 C 45.9 44.5 45.4 44.3 45 44 C 44.6 43.6 44.4 43.2 44.4 42.7 C 44.4 42.4 44.5 42.1 44.7 41.8 C 44.8 41.6 45 41.4 45.2 41.2 C 45.4 41.1 45.7 41 46 40.9 C 46.2 40.8 46.5 40.8 46.9 40.7 C 47.7 40.6 48.4 40.5 48.8 40.4 C 48.8 40.2 48.8 40.1 48.8 40.1 C 48.8 39.7 48.7 39.4 48.5 39.2 C 48.2 39 47.8 38.8 47.3 38.8 C 46.8 38.8 46.4 38.9 46.2 39.1 C 45.9 39.3 45.8 39.6 45.7 40 C 45.7 40 44.6 39.9 44.6 39.9 C 44.7 39.4 44.9 39.1 45.1 38.8 C 45.3 38.5 45.6 38.3 46 38.2 C 46.4 38 46.9 38 47.4 38 C 48 38 48.4 38 48.7 38.1 C 49.1 38.3 49.3 38.4 49.5 38.6 C 49.6 38.8 49.7 39 49.8 39.3 C 49.8 39.5 49.8 39.8 49.8 40.3 C 49.8 40.3 49.8 41.7 49.8 41.7 C 49.8 42.7 49.9 43.3 49.9 43.6 C 50 43.8 50 44.1 50.2 44.3 C 50.17 44.32 49.1 44.3 49.1 44.3 C 49.1 44.3 49.07 44.32 49.1 44.3 Z M 48.8 41.2 C 48.4 41.4 47.8 41.5 47.1 41.6 C 46.6 41.7 46.3 41.7 46.1 41.8 C 46 41.9 45.8 42 45.7 42.2 C 45.6 42.3 45.6 42.5 45.6 42.7 C 45.6 42.9 45.7 43.2 45.9 43.4 C 46.1 43.5 46.4 43.6 46.8 43.6 C 47.2 43.6 47.6 43.5 47.9 43.4 C 48.2 43.2 48.5 42.9 48.6 42.6 C 48.7 42.4 48.8 42.1 48.8 41.6 C 48.8 41.6 48.8 41.2 48.8 41.2 Z M 53.3 43.4 C 53.4 43.4 53.6 43.4 53.8 43.4 C 53.8 43.4 53.9 44.3 53.9 44.3 C 53.6 44.4 53.4 44.4 53.1 44.4 C 52.7 44.4 52.5 44.3 52.2 44.2 C 52 44.1 51.9 43.9 51.8 43.7 C 51.7 43.5 51.7 43.1 51.7 42.5 C 51.67 42.5 51.7 38.9 51.7 38.9 L 50.9 38.9 L 50.9 38.1 L 51.7 38.1 L 51.7 36.6 L 52.7 35.9 L 52.7 38.1 L 53.8 38.1 L 53.8 38.9 L 52.7 38.9 C 52.7 38.9 52.72 42.56 52.7 42.6 C 52.7 42.9 52.7 43.1 52.8 43.1 C 52.8 43.2 52.9 43.3 53 43.3 C 53 43.4 53.2 43.4 53.3 43.4 C 53.3 43.4 53.3 43.4 53.3 43.4 Z M 59.1 42.3 C 59.1 42.3 60.2 42.5 60.2 42.5 C 60 43.1 59.7 43.6 59.2 43.9 C 58.7 44.3 58.1 44.5 57.4 44.5 C 56.5 44.5 55.8 44.2 55.3 43.6 C 54.7 43.1 54.5 42.3 54.5 41.3 C 54.5 40.2 54.7 39.4 55.3 38.8 C 55.8 38.2 56.5 38 57.4 38 C 58.2 38 58.9 38.2 59.4 38.8 C 59.9 39.4 60.2 40.2 60.2 41.2 C 60.2 41.3 60.2 41.4 60.2 41.5 C 60.2 41.5 55.5 41.5 55.5 41.5 C 55.6 42.2 55.8 42.7 56.1 43.1 C 56.5 43.4 56.9 43.6 57.4 43.6 C 57.8 43.6 58.1 43.5 58.4 43.3 C 58.7 43.1 58.9 42.8 59.1 42.3 Z M 55.6 40.6 C 55.6 40.6 59.1 40.6 59.1 40.6 C 59 40.1 58.9 39.7 58.7 39.4 C 58.3 39 57.9 38.8 57.4 38.8 C 56.9 38.8 56.5 39 56.2 39.3 C 55.8 39.6 55.6 40.1 55.6 40.6 Z M 65.5 44.3 C 65.5 44.3 65.52 43.54 65.5 43.5 C 65.1 44.2 64.5 44.5 63.8 44.5 C 63.3 44.5 62.8 44.3 62.4 44.1 C 62 43.8 61.7 43.4 61.4 42.9 C 61.2 42.4 61.1 41.9 61.1 41.2 C 61.1 40.6 61.2 40 61.4 39.5 C 61.6 39 61.9 38.6 62.3 38.4 C 62.8 38.1 63.2 38 63.7 38 C 64.1 38 64.4 38 64.7 38.2 C 65 38.4 65.3 38.6 65.4 38.8 C 65.45 38.81 65.4 35.7 65.4 35.7 L 66.5 35.7 L 66.5 44.3 L 65.5 44.3 Z M 62.2 41.2 C 62.2 42 62.4 42.6 62.7 43 C 63 43.4 63.4 43.6 63.9 43.6 C 64.3 43.6 64.7 43.4 65.1 43 C 65.4 42.7 65.5 42.1 65.5 41.3 C 65.5 40.5 65.4 39.8 65 39.4 C 64.7 39 64.3 38.8 63.8 38.8 C 63.4 38.8 63 39 62.7 39.4 C 62.3 39.8 62.2 40.4 62.2 41.2 Z M 73.3 43.4 C 73.4 43.4 73.6 43.4 73.8 43.4 C 73.8 43.4 73.9 44.3 73.9 44.3 C 73.6 44.4 73.4 44.4 73.1 44.4 C 72.8 44.4 72.5 44.3 72.3 44.2 C 72 44.1 71.9 43.9 71.8 43.7 C 71.7 43.5 71.7 43.1 71.7 42.5 C 71.68 42.5 71.7 38.9 71.7 38.9 L 70.9 38.9 L 70.9 38.1 L 71.7 38.1 L 71.7 36.6 L 72.7 35.9 L 72.7 38.1 L 73.8 38.1 L 73.8 38.9 L 72.7 38.9 C 72.7 38.9 72.73 42.56 72.7 42.6 C 72.7 42.9 72.8 43.1 72.8 43.1 C 72.8 43.2 72.9 43.3 73 43.3 C 73.1 43.4 73.2 43.4 73.3 43.4 C 73.3 43.4 73.3 43.4 73.3 43.4 Z M 74.8 44.3 L 74.8 35.7 L 75.9 35.7 C 75.9 35.7 75.88 38.81 75.9 38.8 C 76.4 38.2 77 38 77.7 38 C 78.2 38 78.6 38 78.9 38.2 C 79.3 38.4 79.5 38.7 79.7 39 C 79.8 39.3 79.9 39.8 79.9 40.4 C 79.89 40.38 79.9 44.3 79.9 44.3 L 78.8 44.3 C 78.8 44.3 78.84 40.38 78.8 40.4 C 78.8 39.9 78.7 39.5 78.5 39.2 C 78.3 39 77.9 38.9 77.5 38.9 C 77.2 38.9 76.9 38.9 76.6 39.1 C 76.4 39.3 76.2 39.5 76.1 39.8 C 75.9 40 75.9 40.4 75.9 40.9 C 75.88 40.92 75.9 44.3 75.9 44.3 L 74.8 44.3 Z M 85.8 42.3 C 85.8 42.3 86.8 42.5 86.8 42.5 C 86.7 43.1 86.4 43.6 85.9 43.9 C 85.4 44.3 84.8 44.5 84.1 44.5 C 83.2 44.5 82.5 44.2 81.9 43.6 C 81.4 43.1 81.1 42.3 81.1 41.3 C 81.1 40.2 81.4 39.4 82 38.8 C 82.5 38.2 83.2 38 84.1 38 C 84.9 38 85.6 38.2 86.1 38.8 C 86.6 39.4 86.9 40.2 86.9 41.2 C 86.9 41.3 86.9 41.4 86.9 41.5 C 86.9 41.5 82.2 41.5 82.2 41.5 C 82.3 42.2 82.5 42.7 82.8 43.1 C 83.2 43.4 83.6 43.6 84.1 43.6 C 84.5 43.6 84.8 43.5 85.1 43.3 C 85.4 43.1 85.6 42.8 85.8 42.3 Z M 82.3 40.6 C 82.3 40.6 85.8 40.6 85.8 40.6 C 85.7 40.1 85.6 39.7 85.4 39.4 C 85 39 84.6 38.8 84.1 38.8 C 83.6 38.8 83.2 39 82.8 39.3 C 82.5 39.6 82.3 40.1 82.3 40.6 Z M 88.2 36.9 L 88.2 35.7 L 89.2 35.7 L 89.2 36.9 L 88.2 36.9 Z M 88.2 44.3 L 88.2 38.1 L 89.2 38.1 L 89.2 44.3 L 88.2 44.3 Z M 90.8 44.3 L 90.8 38.1 L 91.8 38.1 C 91.8 38.1 91.78 39.04 91.8 39 C 92 38.6 92.2 38.3 92.4 38.2 C 92.7 38 92.9 38 93.1 38 C 93.5 38 93.8 38.1 94.2 38.3 C 94.2 38.3 93.8 39.3 93.8 39.3 C 93.6 39.1 93.3 39 93.1 39 C 92.8 39 92.6 39.1 92.4 39.3 C 92.3 39.4 92.1 39.6 92.1 39.8 C 91.9 40.2 91.9 40.6 91.9 41.1 C 91.88 41.06 91.9 44.3 91.9 44.3 L 90.8 44.3 Z M 97.7 42.5 C 97.7 42.5 98.8 42.3 98.8 42.3 C 98.8 42.7 99 43 99.3 43.3 C 99.5 43.5 99.9 43.6 100.4 43.6 C 100.9 43.6 101.2 43.5 101.5 43.3 C 101.7 43.1 101.8 42.9 101.8 42.6 C 101.8 42.4 101.7 42.2 101.5 42 C 101.4 41.9 101 41.8 100.4 41.7 C 99.7 41.5 99.1 41.3 98.8 41.2 C 98.5 41 98.3 40.8 98.2 40.6 C 98 40.3 97.9 40.1 97.9 39.8 C 97.9 39.5 98 39.2 98.1 39 C 98.2 38.7 98.4 38.5 98.6 38.4 C 98.8 38.3 99 38.2 99.3 38.1 C 99.6 38 99.9 38 100.2 38 C 100.7 38 101.1 38 101.5 38.2 C 101.9 38.3 102.1 38.5 102.3 38.7 C 102.5 39 102.6 39.3 102.7 39.7 C 102.7 39.7 101.6 39.8 101.6 39.8 C 101.6 39.5 101.5 39.3 101.2 39.1 C 101 38.9 100.7 38.8 100.3 38.8 C 99.8 38.8 99.5 38.9 99.3 39.1 C 99 39.2 98.9 39.4 98.9 39.6 C 98.9 39.8 99 39.9 99.1 40 C 99.2 40.1 99.3 40.2 99.5 40.3 C 99.6 40.3 99.9 40.4 100.4 40.5 C 101.2 40.7 101.7 40.9 102 41 C 102.3 41.2 102.5 41.3 102.7 41.6 C 102.8 41.8 102.9 42.1 102.9 42.5 C 102.9 42.8 102.8 43.2 102.6 43.5 C 102.4 43.8 102.1 44 101.7 44.2 C 101.3 44.4 100.9 44.5 100.4 44.5 C 99.6 44.5 99 44.3 98.6 44 C 98.1 43.6 97.9 43.1 97.7 42.5 Z M 108.4 44.3 C 108.3 44.1 108.3 43.8 108.2 43.6 C 107.8 43.9 107.5 44.1 107.1 44.3 C 106.7 44.4 106.4 44.5 105.9 44.5 C 105.3 44.5 104.7 44.3 104.4 44 C 104 43.6 103.8 43.2 103.8 42.7 C 103.8 42.4 103.9 42.1 104 41.8 C 104.2 41.6 104.3 41.4 104.6 41.2 C 104.8 41.1 105 41 105.3 40.9 C 105.5 40.8 105.8 40.8 106.3 40.7 C 107.1 40.6 107.7 40.5 108.1 40.4 C 108.1 40.2 108.1 40.1 108.1 40.1 C 108.1 39.7 108 39.4 107.8 39.2 C 107.6 39 107.2 38.8 106.6 38.8 C 106.2 38.8 105.8 38.9 105.5 39.1 C 105.3 39.3 105.1 39.6 105 40 C 105 40 104 39.9 104 39.9 C 104.1 39.4 104.2 39.1 104.5 38.8 C 104.7 38.5 105 38.3 105.4 38.2 C 105.8 38 106.3 38 106.8 38 C 107.3 38 107.8 38 108.1 38.1 C 108.4 38.3 108.7 38.4 108.8 38.6 C 109 38.8 109.1 39 109.2 39.3 C 109.2 39.5 109.2 39.8 109.2 40.3 C 109.2 40.3 109.2 41.7 109.2 41.7 C 109.2 42.7 109.2 43.3 109.3 43.6 C 109.3 43.8 109.4 44.1 109.5 44.3 C 109.54 44.32 108.4 44.3 108.4 44.3 C 108.4 44.3 108.44 44.32 108.4 44.3 Z M 108.1 41.2 C 107.8 41.4 107.2 41.5 106.4 41.6 C 106 41.7 105.7 41.7 105.5 41.8 C 105.3 41.9 105.2 42 105.1 42.2 C 105 42.3 104.9 42.5 104.9 42.7 C 104.9 42.9 105 43.2 105.3 43.4 C 105.5 43.5 105.8 43.6 106.2 43.6 C 106.6 43.6 107 43.5 107.3 43.4 C 107.6 43.2 107.8 42.9 108 42.6 C 108.1 42.4 108.1 42.1 108.1 41.6 C 108.1 41.6 108.1 41.2 108.1 41.2 Z M 112.7 43.4 C 112.8 43.4 113 43.4 113.1 43.4 C 113.1 43.4 113.3 44.3 113.3 44.3 C 113 44.4 112.7 44.4 112.5 44.4 C 112.1 44.4 111.8 44.3 111.6 44.2 C 111.4 44.1 111.2 43.9 111.2 43.7 C 111.1 43.5 111 43.1 111 42.5 C 111.04 42.5 111 38.9 111 38.9 L 110.3 38.9 L 110.3 38.1 L 111 38.1 L 111 36.6 L 112.1 35.9 L 112.1 38.1 L 113.1 38.1 L 113.1 38.9 L 112.1 38.9 C 112.1 38.9 112.08 42.56 112.1 42.6 C 112.1 42.9 112.1 43.1 112.1 43.1 C 112.2 43.2 112.2 43.3 112.3 43.3 C 112.4 43.4 112.5 43.4 112.7 43.4 C 112.7 43.4 112.7 43.4 112.7 43.4 Z M 114.2 36.9 L 114.2 35.7 L 115.2 35.7 L 115.2 36.9 L 114.2 36.9 Z M 114.2 44.3 L 114.2 38.1 L 115.2 38.1 L 115.2 44.3 L 114.2 44.3 Z M 116.4 42.5 C 116.4 42.5 117.5 42.3 117.5 42.3 C 117.5 42.7 117.7 43 118 43.3 C 118.2 43.5 118.6 43.6 119.1 43.6 C 119.6 43.6 119.9 43.5 120.2 43.3 C 120.4 43.1 120.5 42.9 120.5 42.6 C 120.5 42.4 120.4 42.2 120.2 42 C 120 41.9 119.7 41.8 119.1 41.7 C 118.3 41.5 117.8 41.3 117.5 41.2 C 117.2 41 117 40.8 116.8 40.6 C 116.7 40.3 116.6 40.1 116.6 39.8 C 116.6 39.5 116.7 39.2 116.8 39 C 116.9 38.7 117.1 38.5 117.3 38.4 C 117.5 38.3 117.7 38.2 118 38.1 C 118.3 38 118.6 38 118.9 38 C 119.4 38 119.8 38 120.2 38.2 C 120.5 38.3 120.8 38.5 121 38.7 C 121.2 39 121.3 39.3 121.4 39.7 C 121.4 39.7 120.3 39.8 120.3 39.8 C 120.3 39.5 120.1 39.3 119.9 39.1 C 119.7 38.9 119.4 38.8 119 38.8 C 118.5 38.8 118.1 38.9 117.9 39.1 C 117.7 39.2 117.6 39.4 117.6 39.6 C 117.6 39.8 117.7 39.9 117.7 40 C 117.8 40.1 118 40.2 118.1 40.3 C 118.3 40.3 118.6 40.4 119.1 40.5 C 119.8 40.7 120.3 40.9 120.6 41 C 120.9 41.2 121.2 41.3 121.3 41.6 C 121.5 41.8 121.6 42.1 121.6 42.5 C 121.6 42.8 121.5 43.2 121.3 43.5 C 121.1 43.8 120.8 44 120.4 44.2 C 120 44.4 119.6 44.5 119.1 44.5 C 118.3 44.5 117.7 44.3 117.2 44 C 116.8 43.6 116.5 43.1 116.4 42.5 Z M 123.1 44.3 L 123.1 38.9 L 122.2 38.9 L 122.2 38.1 L 123.1 38.1 C 123.1 38.1 123.09 37.44 123.1 37.4 C 123.1 37 123.1 36.7 123.2 36.5 C 123.3 36.2 123.5 36 123.7 35.8 C 124 35.7 124.4 35.6 124.8 35.6 C 125.1 35.6 125.4 35.6 125.8 35.7 C 125.8 35.7 125.6 36.6 125.6 36.6 C 125.4 36.6 125.2 36.6 125 36.6 C 124.7 36.6 124.5 36.6 124.3 36.8 C 124.2 36.9 124.1 37.1 124.1 37.5 C 124.14 37.52 124.1 38.1 124.1 38.1 L 125.4 38.1 L 125.4 38.9 L 124.1 38.9 L 124.1 44.3 L 123.1 44.3 Z M 130.4 44.3 C 130.3 44.1 130.3 43.8 130.2 43.6 C 129.8 43.9 129.5 44.1 129.1 44.3 C 128.7 44.4 128.4 44.5 127.9 44.5 C 127.3 44.5 126.7 44.3 126.4 44 C 126 43.6 125.8 43.2 125.8 42.7 C 125.8 42.4 125.9 42.1 126 41.8 C 126.2 41.6 126.3 41.4 126.6 41.2 C 126.8 41.1 127 41 127.3 40.9 C 127.5 40.8 127.8 40.8 128.3 40.7 C 129.1 40.6 129.7 40.5 130.1 40.4 C 130.2 40.2 130.2 40.1 130.2 40.1 C 130.2 39.7 130.1 39.4 129.9 39.2 C 129.6 39 129.2 38.8 128.7 38.8 C 128.2 38.8 127.8 38.9 127.6 39.1 C 127.3 39.3 127.1 39.6 127 40 C 127 40 126 39.9 126 39.9 C 126.1 39.4 126.2 39.1 126.5 38.8 C 126.7 38.5 127 38.3 127.4 38.2 C 127.8 38 128.3 38 128.8 38 C 129.3 38 129.8 38 130.1 38.1 C 130.4 38.3 130.7 38.4 130.8 38.6 C 131 38.8 131.1 39 131.2 39.3 C 131.2 39.5 131.2 39.8 131.2 40.3 C 131.2 40.3 131.2 41.7 131.2 41.7 C 131.2 42.7 131.2 43.3 131.3 43.6 C 131.3 43.8 131.4 44.1 131.5 44.3 C 131.55 44.32 130.4 44.3 130.4 44.3 C 130.4 44.3 130.45 44.32 130.4 44.3 Z M 130.1 41.2 C 129.8 41.4 129.2 41.5 128.4 41.6 C 128 41.7 127.7 41.7 127.5 41.8 C 127.3 41.9 127.2 42 127.1 42.2 C 127 42.3 126.9 42.5 126.9 42.7 C 126.9 42.9 127 43.2 127.3 43.4 C 127.5 43.5 127.8 43.6 128.2 43.6 C 128.6 43.6 129 43.5 129.3 43.4 C 129.6 43.2 129.8 42.9 130 42.6 C 130.1 42.4 130.1 42.1 130.1 41.6 C 130.1 41.6 130.1 41.2 130.1 41.2 Z M 136.9 42 C 136.9 42 137.9 42.2 137.9 42.2 C 137.8 42.9 137.5 43.5 137.1 43.9 C 136.6 44.3 136 44.5 135.4 44.5 C 134.5 44.5 133.8 44.2 133.3 43.6 C 132.8 43.1 132.5 42.3 132.5 41.2 C 132.5 40.6 132.6 40 132.9 39.5 C 133.1 39 133.4 38.6 133.9 38.3 C 134.3 38.1 134.8 38 135.4 38 C 136 38 136.6 38.1 137 38.5 C 137.5 38.8 137.7 39.3 137.8 39.9 C 137.8 39.9 136.8 40.1 136.8 40.1 C 136.7 39.7 136.6 39.4 136.3 39.1 C 136.1 38.9 135.8 38.8 135.4 38.8 C 134.9 38.8 134.4 39 134.1 39.4 C 133.8 39.8 133.6 40.4 133.6 41.2 C 133.6 42 133.8 42.6 134.1 43 C 134.4 43.4 134.8 43.6 135.3 43.6 C 135.8 43.6 136.1 43.5 136.4 43.2 C 136.7 43 136.8 42.6 136.9 42 Z M 140.7 43.4 C 140.8 43.4 141 43.4 141.2 43.4 C 141.2 43.4 141.3 44.3 141.3 44.3 C 141 44.4 140.7 44.4 140.5 44.4 C 140.1 44.4 139.8 44.3 139.6 44.2 C 139.4 44.1 139.3 43.9 139.2 43.7 C 139.1 43.5 139 43.1 139 42.5 C 139.04 42.5 139 38.9 139 38.9 L 138.3 38.9 L 138.3 38.1 L 139 38.1 L 139 36.6 L 140.1 35.9 L 140.1 38.1 L 141.2 38.1 L 141.2 38.9 L 140.1 38.9 C 140.1 38.9 140.09 42.56 140.1 42.6 C 140.1 42.9 140.1 43.1 140.1 43.1 C 140.2 43.2 140.2 43.3 140.3 43.3 C 140.4 43.4 140.5 43.4 140.7 43.4 C 140.7 43.4 140.7 43.4 140.7 43.4 Z M 142.2 36.9 L 142.2 35.7 L 143.2 35.7 L 143.2 36.9 L 142.2 36.9 Z M 142.2 44.3 L 142.2 38.1 L 143.2 38.1 L 143.2 44.3 L 142.2 44.3 Z M 144.5 41.2 C 144.5 40.1 144.8 39.2 145.4 38.6 C 146 38.2 146.6 38 147.4 38 C 148.2 38 148.9 38.2 149.5 38.8 C 150 39.4 150.3 40.1 150.3 41.1 C 150.3 41.9 150.2 42.6 149.9 43 C 149.7 43.5 149.3 43.8 148.9 44.1 C 148.4 44.3 147.9 44.5 147.4 44.5 C 146.5 44.5 145.8 44.2 145.3 43.6 C 144.7 43.1 144.5 42.3 144.5 41.2 Z M 145.5 41.2 C 145.5 42 145.7 42.6 146.1 43 C 146.4 43.4 146.8 43.6 147.4 43.6 C 147.9 43.6 148.3 43.4 148.7 43 C 149 42.6 149.2 42 149.2 41.2 C 149.2 40.4 149 39.8 148.7 39.4 C 148.3 39 147.9 38.8 147.4 38.8 C 146.8 38.8 146.4 39 146.1 39.4 C 145.7 39.8 145.5 40.4 145.5 41.2 Z M 151.5 44.3 L 151.5 38.1 L 152.5 38.1 C 152.5 38.1 152.47 38.98 152.5 39 C 152.9 38.3 153.6 38 154.5 38 C 154.8 38 155.2 38 155.5 38.2 C 155.8 38.3 156 38.5 156.2 38.7 C 156.3 38.9 156.5 39.2 156.5 39.5 C 156.6 39.7 156.6 40 156.6 40.5 C 156.58 40.5 156.6 44.3 156.6 44.3 L 155.5 44.3 C 155.5 44.3 155.53 40.54 155.5 40.5 C 155.5 40.1 155.5 39.8 155.4 39.6 C 155.3 39.4 155.2 39.2 155 39.1 C 154.8 38.9 154.5 38.9 154.2 38.9 C 153.8 38.9 153.4 39 153.1 39.3 C 152.7 39.6 152.6 40.1 152.6 40.9 C 152.58 40.92 152.6 44.3 152.6 44.3 L 151.5 44.3 Z M 165.8 44.3 C 165.7 44.1 165.6 43.8 165.6 43.6 C 165.2 43.9 164.8 44.1 164.5 44.3 C 164.1 44.4 163.7 44.5 163.3 44.5 C 162.6 44.5 162.1 44.3 161.7 44 C 161.4 43.6 161.2 43.2 161.2 42.7 C 161.2 42.4 161.2 42.1 161.4 41.8 C 161.5 41.6 161.7 41.4 161.9 41.2 C 162.2 41.1 162.4 41 162.7 40.9 C 162.9 40.8 163.2 40.8 163.6 40.7 C 164.5 40.6 165.1 40.5 165.5 40.4 C 165.5 40.2 165.5 40.1 165.5 40.1 C 165.5 39.7 165.4 39.4 165.2 39.2 C 164.9 39 164.5 38.8 164 38.8 C 163.5 38.8 163.1 38.9 162.9 39.1 C 162.7 39.3 162.5 39.6 162.4 40 C 162.4 40 161.4 39.9 161.4 39.9 C 161.4 39.4 161.6 39.1 161.8 38.8 C 162 38.5 162.3 38.3 162.8 38.2 C 163.2 38 163.6 38 164.2 38 C 164.7 38 165.1 38 165.5 38.1 C 165.8 38.3 166 38.4 166.2 38.6 C 166.3 38.8 166.5 39 166.5 39.3 C 166.6 39.5 166.6 39.8 166.6 40.3 C 166.6 40.3 166.6 41.7 166.6 41.7 C 166.6 42.7 166.6 43.3 166.6 43.6 C 166.7 43.8 166.8 44.1 166.9 44.3 C 166.9 44.32 165.8 44.3 165.8 44.3 C 165.8 44.3 165.8 44.32 165.8 44.3 Z M 165.5 41.2 C 165.1 41.4 164.5 41.5 163.8 41.6 C 163.3 41.7 163 41.7 162.9 41.8 C 162.7 41.9 162.5 42 162.4 42.2 C 162.3 42.3 162.3 42.5 162.3 42.7 C 162.3 42.9 162.4 43.2 162.6 43.4 C 162.8 43.5 163.1 43.6 163.6 43.6 C 164 43.6 164.3 43.5 164.6 43.4 C 165 43.2 165.2 42.9 165.3 42.6 C 165.4 42.4 165.5 42.1 165.5 41.6 C 165.5 41.6 165.5 41.2 165.5 41.2 Z M 168 44.8 C 168 44.8 169 45 169 45 C 169.1 45.3 169.2 45.5 169.4 45.7 C 169.7 45.9 170 46 170.5 46 C 171 46 171.3 45.9 171.6 45.7 C 171.9 45.5 172 45.2 172.1 44.9 C 172.2 44.6 172.2 44.2 172.2 43.5 C 171.8 44.1 171.2 44.3 170.5 44.3 C 169.6 44.3 169 44 168.5 43.4 C 168 42.8 167.8 42 167.8 41.2 C 167.8 40.6 167.9 40 168.1 39.5 C 168.3 39 168.6 38.6 169.1 38.4 C 169.5 38.1 169.9 38 170.5 38 C 171.2 38 171.8 38.3 172.3 38.8 C 172.31 38.85 172.3 38.1 172.3 38.1 L 173.3 38.1 C 173.3 38.1 173.29 43.48 173.3 43.5 C 173.3 44.4 173.2 45.1 173 45.5 C 172.8 45.9 172.5 46.3 172.1 46.5 C 171.6 46.7 171.1 46.8 170.5 46.8 C 169.7 46.8 169.1 46.7 168.7 46.3 C 168.2 46 168 45.5 168 44.8 Z M 168.9 41.1 C 168.9 41.9 169 42.5 169.4 42.9 C 169.7 43.3 170.1 43.4 170.6 43.4 C 171.1 43.4 171.5 43.3 171.8 42.9 C 172.1 42.5 172.3 41.9 172.3 41.1 C 172.3 40.4 172.1 39.8 171.8 39.4 C 171.5 39 171 38.8 170.6 38.8 C 170.1 38.8 169.7 39 169.4 39.4 C 169 39.8 168.9 40.3 168.9 41.1 Z M 179.2 44.3 C 179 44.1 179 43.8 178.9 43.6 C 178.5 43.9 178.2 44.1 177.8 44.3 C 177.5 44.4 177.1 44.5 176.6 44.5 C 176 44.5 175.4 44.3 175.1 44 C 174.7 43.6 174.5 43.2 174.5 42.7 C 174.5 42.4 174.6 42.1 174.7 41.8 C 174.9 41.6 175 41.4 175.3 41.2 C 175.5 41.1 175.8 41 176 40.9 C 176.2 40.8 176.6 40.8 177 40.7 C 177.8 40.6 178.4 40.5 178.9 40.4 C 178.9 40.2 178.9 40.1 178.9 40.1 C 178.9 39.7 178.8 39.4 178.6 39.2 C 178.3 39 177.9 38.8 177.4 38.8 C 176.9 38.8 176.5 38.9 176.3 39.1 C 176 39.3 175.8 39.6 175.7 40 C 175.7 40 174.7 39.9 174.7 39.9 C 174.8 39.4 175 39.1 175.2 38.8 C 175.4 38.5 175.7 38.3 176.1 38.2 C 176.5 38 177 38 177.5 38 C 178 38 178.5 38 178.8 38.1 C 179.1 38.3 179.4 38.4 179.5 38.6 C 179.7 38.8 179.8 39 179.9 39.3 C 179.9 39.5 179.9 39.8 179.9 40.3 C 179.9 40.3 179.9 41.7 179.9 41.7 C 179.9 42.7 179.9 43.3 180 43.6 C 180 43.8 180.1 44.1 180.3 44.3 C 180.25 44.32 179.2 44.3 179.2 44.3 C 179.2 44.3 179.15 44.32 179.2 44.3 Z M 178.9 41.2 C 178.5 41.4 177.9 41.5 177.1 41.6 C 176.7 41.7 176.4 41.7 176.2 41.8 C 176 41.9 175.9 42 175.8 42.2 C 175.7 42.3 175.6 42.5 175.6 42.7 C 175.6 42.9 175.8 43.2 176 43.4 C 176.2 43.5 176.5 43.6 176.9 43.6 C 177.3 43.6 177.7 43.5 178 43.4 C 178.3 43.2 178.5 42.9 178.7 42.6 C 178.8 42.4 178.9 42.1 178.9 41.6 C 178.9 41.6 178.9 41.2 178.9 41.2 Z M 181.6 36.9 L 181.6 35.7 L 182.6 35.7 L 182.6 36.9 L 181.6 36.9 Z M 181.6 44.3 L 181.6 38.1 L 182.6 38.1 L 182.6 44.3 L 181.6 44.3 Z M 184.2 44.3 L 184.2 38.1 L 185.2 38.1 C 185.2 38.1 185.17 38.98 185.2 39 C 185.6 38.3 186.3 38 187.1 38 C 187.5 38 187.9 38 188.2 38.2 C 188.5 38.3 188.7 38.5 188.9 38.7 C 189 38.9 189.2 39.2 189.2 39.5 C 189.3 39.7 189.3 40 189.3 40.5 C 189.28 40.5 189.3 44.3 189.3 44.3 L 188.2 44.3 C 188.2 44.3 188.22 40.54 188.2 40.5 C 188.2 40.1 188.2 39.8 188.1 39.6 C 188 39.4 187.9 39.2 187.7 39.1 C 187.5 38.9 187.2 38.9 186.9 38.9 C 186.5 38.9 186.1 39 185.8 39.3 C 185.4 39.6 185.3 40.1 185.3 40.9 C 185.27 40.92 185.3 44.3 185.3 44.3 L 184.2 44.3 Z M 190.5 42.5 C 190.5 42.5 191.5 42.3 191.5 42.3 C 191.6 42.7 191.7 43 192 43.3 C 192.3 43.5 192.6 43.6 193.1 43.6 C 193.6 43.6 194 43.5 194.2 43.3 C 194.4 43.1 194.6 42.9 194.6 42.6 C 194.6 42.4 194.5 42.2 194.2 42 C 194.1 41.9 193.7 41.8 193.2 41.7 C 192.4 41.5 191.9 41.3 191.6 41.2 C 191.3 41 191 40.8 190.9 40.6 C 190.7 40.3 190.6 40.1 190.6 39.8 C 190.6 39.5 190.7 39.2 190.8 39 C 191 38.7 191.1 38.5 191.4 38.4 C 191.5 38.3 191.7 38.2 192 38.1 C 192.3 38 192.6 38 192.9 38 C 193.4 38 193.9 38 194.2 38.2 C 194.6 38.3 194.9 38.5 195 38.7 C 195.2 39 195.3 39.3 195.4 39.7 C 195.4 39.7 194.4 39.8 194.4 39.8 C 194.3 39.5 194.2 39.3 194 39.1 C 193.7 38.9 193.4 38.8 193 38.8 C 192.5 38.8 192.2 38.9 192 39.1 C 191.8 39.2 191.7 39.4 191.7 39.6 C 191.7 39.8 191.7 39.9 191.8 40 C 191.9 40.1 192 40.2 192.2 40.3 C 192.3 40.3 192.6 40.4 193.1 40.5 C 193.9 40.7 194.4 40.9 194.7 41 C 195 41.2 195.2 41.3 195.4 41.6 C 195.6 41.8 195.6 42.1 195.6 42.5 C 195.6 42.8 195.5 43.2 195.3 43.5 C 195.1 43.8 194.8 44 194.4 44.2 C 194.1 44.4 193.6 44.5 193.1 44.5 C 192.3 44.5 191.7 44.3 191.3 44 C 190.9 43.6 190.6 43.1 190.5 42.5 Z M 198.7 43.4 C 198.8 43.4 199 43.4 199.2 43.4 C 199.2 43.4 199.3 44.3 199.3 44.3 C 199.1 44.4 198.8 44.4 198.6 44.4 C 198.2 44.4 197.9 44.3 197.7 44.2 C 197.4 44.1 197.3 43.9 197.2 43.7 C 197.1 43.5 197.1 43.1 197.1 42.5 C 197.09 42.5 197.1 38.9 197.1 38.9 L 196.3 38.9 L 196.3 38.1 L 197.1 38.1 L 197.1 36.6 L 198.1 35.9 L 198.1 38.1 L 199.2 38.1 L 199.2 38.9 L 198.1 38.9 C 198.1 38.9 198.13 42.56 198.1 42.6 C 198.1 42.9 198.2 43.1 198.2 43.1 C 198.2 43.2 198.3 43.3 198.4 43.3 C 198.5 43.4 198.6 43.4 198.7 43.4 C 198.7 43.4 198.7 43.4 198.7 43.4 Z M 203.2 41.2 C 203.2 40.1 203.5 39.2 204.1 38.6 C 204.7 38.2 205.3 38 206.1 38 C 206.9 38 207.6 38.2 208.2 38.8 C 208.7 39.4 209 40.1 209 41.1 C 209 41.9 208.9 42.6 208.6 43 C 208.4 43.5 208 43.8 207.6 44.1 C 207.1 44.3 206.6 44.5 206.1 44.5 C 205.2 44.5 204.5 44.2 204 43.6 C 203.4 43.1 203.2 42.3 203.2 41.2 Z M 204.3 41.2 C 204.3 42 204.4 42.6 204.8 43 C 205.1 43.4 205.6 43.6 206.1 43.6 C 206.6 43.6 207 43.4 207.4 43 C 207.7 42.6 207.9 42 207.9 41.2 C 207.9 40.4 207.7 39.8 207.4 39.4 C 207 39 206.6 38.8 206.1 38.8 C 205.6 38.8 205.1 39 204.8 39.4 C 204.4 39.8 204.3 40.4 204.3 41.2 Z M 214.3 44.3 C 214.3 44.3 214.31 43.41 214.3 43.4 C 213.8 44.1 213.2 44.5 212.3 44.5 C 212 44.5 211.6 44.4 211.3 44.3 C 211 44.1 210.8 43.9 210.6 43.7 C 210.4 43.5 210.3 43.2 210.3 42.9 C 210.2 42.7 210.2 42.4 210.2 42 C 210.21 41.95 210.2 38.1 210.2 38.1 L 211.3 38.1 C 211.3 38.1 211.27 41.55 211.3 41.6 C 211.3 42.1 211.3 42.5 211.3 42.7 C 211.4 42.9 211.5 43.2 211.8 43.3 C 212 43.5 212.2 43.6 212.5 43.6 C 212.9 43.6 213.2 43.5 213.4 43.3 C 213.7 43.1 213.9 42.9 214 42.6 C 214.1 42.4 214.2 42 214.2 41.4 C 214.2 41.43 214.2 38.1 214.2 38.1 L 215.3 38.1 L 215.3 44.3 L 214.3 44.3 Z M 216.9 44.3 L 216.9 38.1 L 217.8 38.1 C 217.8 38.1 217.85 39.04 217.8 39 C 218.1 38.6 218.3 38.3 218.5 38.2 C 218.7 38 218.9 38 219.2 38 C 219.5 38 219.9 38.1 220.3 38.3 C 220.3 38.3 219.9 39.3 219.9 39.3 C 219.7 39.1 219.4 39 219.1 39 C 218.9 39 218.7 39.1 218.5 39.3 C 218.3 39.4 218.2 39.6 218.1 39.8 C 218 40.2 218 40.6 218 41.1 C 217.95 41.06 218 44.3 218 44.3 L 216.9 44.3 Z M 225.2 44.3 L 224.2 44.3 L 224.2 35.7 L 225.3 35.7 C 225.3 35.7 225.29 38.8 225.3 38.8 C 225.7 38.2 226.3 38 227 38 C 227.4 38 227.7 38 228.1 38.2 C 228.4 38.3 228.7 38.6 228.9 38.8 C 229.1 39.1 229.3 39.5 229.4 39.9 C 229.6 40.2 229.6 40.7 229.6 41.1 C 229.6 42.2 229.4 43 228.8 43.6 C 228.3 44.2 227.7 44.5 226.9 44.5 C 226.2 44.5 225.6 44.2 225.2 43.5 C 225.21 43.54 225.2 44.3 225.2 44.3 Z M 225.2 41.2 C 225.2 41.9 225.3 42.4 225.5 42.8 C 225.8 43.3 226.3 43.6 226.9 43.6 C 227.3 43.6 227.7 43.4 228 43 C 228.4 42.6 228.6 42 228.6 41.2 C 228.6 40.4 228.4 39.8 228.1 39.4 C 227.7 39 227.4 38.8 226.9 38.8 C 226.4 38.8 226 39 225.7 39.4 C 225.4 39.8 225.2 40.4 225.2 41.2 Z M 235 44.3 C 235 44.3 234.99 43.41 235 43.4 C 234.5 44.1 233.8 44.5 233 44.5 C 232.6 44.5 232.3 44.4 232 44.3 C 231.7 44.1 231.4 43.9 231.3 43.7 C 231.1 43.5 231 43.2 231 42.9 C 230.9 42.7 230.9 42.4 230.9 42 C 230.89 41.95 230.9 38.1 230.9 38.1 L 231.9 38.1 C 231.9 38.1 231.94 41.55 231.9 41.6 C 231.9 42.1 232 42.5 232 42.7 C 232.1 42.9 232.2 43.2 232.4 43.3 C 232.6 43.5 232.9 43.6 233.2 43.6 C 233.5 43.6 233.8 43.5 234.1 43.3 C 234.4 43.1 234.6 42.9 234.7 42.6 C 234.8 42.4 234.9 42 234.9 41.4 C 234.88 41.43 234.9 38.1 234.9 38.1 L 235.9 38.1 L 235.9 44.3 L 235 44.3 Z M 237.2 42.5 C 237.2 42.5 238.2 42.3 238.2 42.3 C 238.3 42.7 238.4 43 238.7 43.3 C 239 43.5 239.3 43.6 239.8 43.6 C 240.3 43.6 240.7 43.5 240.9 43.3 C 241.1 43.1 241.2 42.9 241.2 42.6 C 241.2 42.4 241.1 42.2 240.9 42 C 240.8 41.9 240.4 41.8 239.9 41.7 C 239.1 41.5 238.5 41.3 238.3 41.2 C 238 41 237.7 40.8 237.6 40.6 C 237.4 40.3 237.3 40.1 237.3 39.8 C 237.3 39.5 237.4 39.2 237.5 39 C 237.7 38.7 237.8 38.5 238 38.4 C 238.2 38.3 238.4 38.2 238.7 38.1 C 239 38 239.3 38 239.6 38 C 240.1 38 240.5 38 240.9 38.2 C 241.3 38.3 241.6 38.5 241.7 38.7 C 241.9 39 242 39.3 242.1 39.7 C 242.1 39.7 241.1 39.8 241.1 39.8 C 241 39.5 240.9 39.3 240.7 39.1 C 240.4 38.9 240.1 38.8 239.7 38.8 C 239.2 38.8 238.9 38.9 238.7 39.1 C 238.5 39.2 238.4 39.4 238.4 39.6 C 238.4 39.8 238.4 39.9 238.5 40 C 238.6 40.1 238.7 40.2 238.9 40.3 C 239 40.3 239.3 40.4 239.8 40.5 C 240.6 40.7 241.1 40.9 241.4 41 C 241.7 41.2 241.9 41.3 242.1 41.6 C 242.2 41.8 242.3 42.1 242.3 42.5 C 242.3 42.8 242.2 43.2 242 43.5 C 241.8 43.8 241.5 44 241.1 44.2 C 240.8 44.4 240.3 44.5 239.8 44.5 C 239 44.5 238.4 44.3 238 44 C 237.6 43.6 237.3 43.1 237.2 42.5 Z M 243.6 36.9 L 243.6 35.7 L 244.6 35.7 L 244.6 36.9 L 243.6 36.9 Z M 243.6 44.3 L 243.6 38.1 L 244.6 38.1 L 244.6 44.3 L 243.6 44.3 Z M 246.3 44.3 L 246.3 38.1 L 247.2 38.1 C 247.2 38.1 247.2 38.98 247.2 39 C 247.7 38.3 248.3 38 249.2 38 C 249.6 38 249.9 38 250.2 38.2 C 250.5 38.3 250.8 38.5 250.9 38.7 C 251.1 38.9 251.2 39.2 251.3 39.5 C 251.3 39.7 251.3 40 251.3 40.5 C 251.31 40.5 251.3 44.3 251.3 44.3 L 250.3 44.3 C 250.3 44.3 250.25 40.54 250.3 40.5 C 250.3 40.1 250.2 39.8 250.1 39.6 C 250 39.4 249.9 39.2 249.7 39.1 C 249.5 38.9 249.2 38.9 249 38.9 C 248.5 38.9 248.1 39 247.8 39.3 C 247.5 39.6 247.3 40.1 247.3 40.9 C 247.31 40.92 247.3 44.3 247.3 44.3 L 246.3 44.3 Z M 257.2 42.3 C 257.2 42.3 258.3 42.5 258.3 42.5 C 258.1 43.1 257.8 43.6 257.3 43.9 C 256.9 44.3 256.3 44.5 255.5 44.5 C 254.6 44.5 253.9 44.2 253.4 43.6 C 252.8 43.1 252.6 42.3 252.6 41.3 C 252.6 40.2 252.8 39.4 253.4 38.8 C 253.9 38.2 254.6 38 255.5 38 C 256.3 38 257 38.2 257.5 38.8 C 258 39.4 258.3 40.2 258.3 41.2 C 258.3 41.3 258.3 41.4 258.3 41.5 C 258.3 41.5 253.7 41.5 253.7 41.5 C 253.7 42.2 253.9 42.7 254.2 43.1 C 254.6 43.4 255 43.6 255.5 43.6 C 255.9 43.6 256.3 43.5 256.5 43.3 C 256.8 43.1 257 42.8 257.2 42.3 Z M 253.7 40.6 C 253.7 40.6 257.2 40.6 257.2 40.6 C 257.2 40.1 257 39.7 256.8 39.4 C 256.5 39 256 38.8 255.5 38.8 C 255 38.8 254.6 39 254.3 39.3 C 253.9 39.6 253.8 40.1 253.7 40.6 Z M 259.2 42.5 C 259.2 42.5 260.2 42.3 260.2 42.3 C 260.3 42.7 260.4 43 260.7 43.3 C 261 43.5 261.4 43.6 261.8 43.6 C 262.3 43.6 262.7 43.5 262.9 43.3 C 263.1 43.1 263.3 42.9 263.3 42.6 C 263.3 42.4 263.2 42.2 263 42 C 262.8 41.9 262.4 41.8 261.9 41.7 C 261.1 41.5 260.6 41.3 260.3 41.2 C 260 41 259.7 40.8 259.6 40.6 C 259.4 40.3 259.4 40.1 259.4 39.8 C 259.4 39.5 259.4 39.2 259.5 39 C 259.7 38.7 259.8 38.5 260.1 38.4 C 260.2 38.3 260.5 38.2 260.7 38.1 C 261 38 261.3 38 261.6 38 C 262.1 38 262.6 38 262.9 38.2 C 263.3 38.3 263.6 38.5 263.7 38.7 C 263.9 39 264 39.3 264.1 39.7 C 264.1 39.7 263.1 39.8 263.1 39.8 C 263 39.5 262.9 39.3 262.7 39.1 C 262.4 38.9 262.1 38.8 261.7 38.8 C 261.2 38.8 260.9 38.9 260.7 39.1 C 260.5 39.2 260.4 39.4 260.4 39.6 C 260.4 39.8 260.4 39.9 260.5 40 C 260.6 40.1 260.7 40.2 260.9 40.3 C 261 40.3 261.3 40.4 261.8 40.5 C 262.6 40.7 263.1 40.9 263.4 41 C 263.7 41.2 263.9 41.3 264.1 41.6 C 264.3 41.8 264.3 42.1 264.3 42.5 C 264.3 42.8 264.2 43.2 264 43.5 C 263.8 43.8 263.5 44 263.2 44.2 C 262.8 44.4 262.3 44.5 261.8 44.5 C 261 44.5 260.4 44.3 260 44 C 259.6 43.6 259.3 43.1 259.2 42.5 Z M 265.2 42.5 C 265.2 42.5 266.2 42.3 266.2 42.3 C 266.3 42.7 266.4 43 266.7 43.3 C 267 43.5 267.4 43.6 267.8 43.6 C 268.3 43.6 268.7 43.5 268.9 43.3 C 269.1 43.1 269.3 42.9 269.3 42.6 C 269.3 42.4 269.2 42.2 269 42 C 268.8 41.9 268.4 41.8 267.9 41.7 C 267.1 41.5 266.6 41.3 266.3 41.2 C 266 41 265.7 40.8 265.6 40.6 C 265.4 40.3 265.4 40.1 265.4 39.8 C 265.4 39.5 265.4 39.2 265.5 39 C 265.7 38.7 265.8 38.5 266.1 38.4 C 266.2 38.3 266.5 38.2 266.7 38.1 C 267 38 267.3 38 267.6 38 C 268.1 38 268.6 38 268.9 38.2 C 269.3 38.3 269.6 38.5 269.7 38.7 C 269.9 39 270 39.3 270.1 39.7 C 270.1 39.7 269.1 39.8 269.1 39.8 C 269 39.5 268.9 39.3 268.7 39.1 C 268.4 38.9 268.1 38.8 267.7 38.8 C 267.2 38.8 266.9 38.9 266.7 39.1 C 266.5 39.2 266.4 39.4 266.4 39.6 C 266.4 39.8 266.4 39.9 266.5 40 C 266.6 40.1 266.7 40.2 266.9 40.3 C 267 40.3 267.3 40.4 267.8 40.5 C 268.6 40.7 269.1 40.9 269.4 41 C 269.7 41.2 269.9 41.3 270.1 41.6 C 270.3 41.8 270.3 42.1 270.3 42.5 C 270.3 42.8 270.2 43.2 270 43.5 C 269.8 43.8 269.5 44 269.2 44.2 C 268.8 44.4 268.3 44.5 267.8 44.5 C 267 44.5 266.4 44.3 266 44 C 265.6 43.6 265.3 43.1 265.2 42.5 Z M 275.9 44.3 L 274.9 44.3 L 274.9 35.7 L 276 35.7 C 276 35.7 275.98 38.8 276 38.8 C 276.4 38.2 277 38 277.7 38 C 278.1 38 278.4 38 278.8 38.2 C 279.1 38.3 279.4 38.6 279.6 38.8 C 279.8 39.1 280 39.5 280.1 39.9 C 280.3 40.2 280.3 40.7 280.3 41.1 C 280.3 42.2 280.1 43 279.5 43.6 C 279 44.2 278.4 44.5 277.6 44.5 C 276.9 44.5 276.3 44.2 275.9 43.5 C 275.91 43.54 275.9 44.3 275.9 44.3 Z M 275.9 41.2 C 275.9 41.9 276 42.4 276.2 42.8 C 276.5 43.3 277 43.6 277.5 43.6 C 278 43.6 278.4 43.4 278.7 43 C 279.1 42.6 279.2 42 279.2 41.2 C 279.2 40.4 279.1 39.8 278.8 39.4 C 278.4 39 278.1 38.8 277.6 38.8 C 277.1 38.8 276.7 39 276.4 39.4 C 276.1 39.8 275.9 40.4 275.9 41.2 Z M 285.9 42.3 C 285.9 42.3 287 42.5 287 42.5 C 286.8 43.1 286.5 43.6 286 43.9 C 285.5 44.3 284.9 44.5 284.2 44.5 C 283.3 44.5 282.6 44.2 282.1 43.6 C 281.5 43.1 281.3 42.3 281.3 41.3 C 281.3 40.2 281.5 39.4 282.1 38.8 C 282.6 38.2 283.3 38 284.2 38 C 285 38 285.7 38.2 286.2 38.8 C 286.7 39.4 287 40.2 287 41.2 C 287 41.3 287 41.4 287 41.5 C 287 41.5 282.3 41.5 282.3 41.5 C 282.4 42.2 282.6 42.7 282.9 43.1 C 283.3 43.4 283.7 43.6 284.2 43.6 C 284.6 43.6 284.9 43.5 285.2 43.3 C 285.5 43.1 285.7 42.8 285.9 42.3 Z M 282.4 40.6 C 282.4 40.6 285.9 40.6 285.9 40.6 C 285.8 40.1 285.7 39.7 285.5 39.4 C 285.1 39 284.7 38.8 284.2 38.8 C 283.7 38.8 283.3 39 283 39.3 C 282.6 39.6 282.4 40.1 282.4 40.6 Z M 288.3 44.3 L 288.3 35.7 L 289.3 35.7 C 289.3 35.7 289.34 38.81 289.3 38.8 C 289.8 38.2 290.4 38 291.2 38 C 291.7 38 292.1 38 292.4 38.2 C 292.7 38.4 293 38.7 293.1 39 C 293.3 39.3 293.3 39.8 293.3 40.4 C 293.35 40.38 293.3 44.3 293.3 44.3 L 292.3 44.3 C 292.3 44.3 292.29 40.38 292.3 40.4 C 292.3 39.9 292.2 39.5 292 39.2 C 291.7 39 291.4 38.9 291 38.9 C 290.7 38.9 290.4 38.9 290.1 39.1 C 289.8 39.3 289.6 39.5 289.5 39.8 C 289.4 40 289.3 40.4 289.3 40.9 C 289.34 40.92 289.3 44.3 289.3 44.3 L 288.3 44.3 Z M 299.2 44.3 C 299.1 44.1 299 43.8 299 43.6 C 298.6 43.9 298.2 44.1 297.9 44.3 C 297.5 44.4 297.1 44.5 296.7 44.5 C 296 44.5 295.5 44.3 295.1 44 C 294.8 43.6 294.6 43.2 294.6 42.7 C 294.6 42.4 294.7 42.1 294.8 41.8 C 294.9 41.6 295.1 41.4 295.4 41.2 C 295.6 41.1 295.8 41 296.1 40.9 C 296.3 40.8 296.6 40.8 297 40.7 C 297.9 40.6 298.5 40.5 298.9 40.4 C 298.9 40.2 298.9 40.1 298.9 40.1 C 298.9 39.7 298.8 39.4 298.6 39.2 C 298.4 39 298 38.8 297.4 38.8 C 296.9 38.8 296.6 38.9 296.3 39.1 C 296.1 39.3 295.9 39.6 295.8 40 C 295.8 40 294.8 39.9 294.8 39.9 C 294.9 39.4 295 39.1 295.2 38.8 C 295.5 38.5 295.8 38.3 296.2 38.2 C 296.6 38 297.1 38 297.6 38 C 298.1 38 298.5 38 298.9 38.1 C 299.2 38.3 299.5 38.4 299.6 38.6 C 299.8 38.8 299.9 39 299.9 39.3 C 300 39.5 300 39.8 300 40.3 C 300 40.3 300 41.7 300 41.7 C 300 42.7 300 43.3 300.1 43.6 C 300.1 43.8 300.2 44.1 300.3 44.3 C 300.33 44.32 299.2 44.3 299.2 44.3 C 299.2 44.3 299.23 44.32 299.2 44.3 Z M 298.9 41.2 C 298.5 41.4 298 41.5 297.2 41.6 C 296.8 41.7 296.5 41.7 296.3 41.8 C 296.1 41.9 296 42 295.9 42.2 C 295.8 42.3 295.7 42.5 295.7 42.7 C 295.7 42.9 295.8 43.2 296 43.4 C 296.3 43.5 296.6 43.6 297 43.6 C 297.4 43.6 297.7 43.5 298.1 43.4 C 298.4 43.2 298.6 42.9 298.8 42.6 C 298.9 42.4 298.9 42.1 298.9 41.6 C 298.9 41.6 298.9 41.2 298.9 41.2 Z M 303.4 44.3 L 301 38.1 L 302.1 38.1 C 302.1 38.1 303.44 41.83 303.4 41.8 C 303.6 42.2 303.7 42.6 303.8 43.1 C 303.9 42.8 304.1 42.4 304.2 41.9 C 304.23 41.9 305.6 38.1 305.6 38.1 L 306.7 38.1 L 304.3 44.3 L 303.4 44.3 Z M 307.6 36.9 L 307.6 35.7 L 308.7 35.7 L 308.7 36.9 L 307.6 36.9 Z M 307.6 44.3 L 307.6 38.1 L 308.7 38.1 L 308.7 44.3 L 307.6 44.3 Z M 309.9 41.2 C 309.9 40.1 310.2 39.2 310.9 38.6 C 311.4 38.2 312.1 38 312.8 38 C 313.7 38 314.4 38.2 314.9 38.8 C 315.5 39.4 315.7 40.1 315.7 41.1 C 315.7 41.9 315.6 42.6 315.4 43 C 315.1 43.5 314.8 43.8 314.3 44.1 C 313.9 44.3 313.4 44.5 312.8 44.5 C 311.9 44.5 311.2 44.2 310.7 43.6 C 310.2 43.1 309.9 42.3 309.9 41.2 Z M 311 41.2 C 311 42 311.2 42.6 311.5 43 C 311.9 43.4 312.3 43.6 312.8 43.6 C 313.3 43.6 313.8 43.4 314.1 43 C 314.5 42.6 314.6 42 314.6 41.2 C 314.6 40.4 314.5 39.8 314.1 39.4 C 313.8 39 313.3 38.8 312.8 38.8 C 312.3 38.8 311.9 39 311.5 39.4 C 311.2 39.8 311 40.4 311 41.2 Z M 321 44.3 C 321 44.3 321.05 43.41 321 43.4 C 320.6 44.1 319.9 44.5 319.1 44.5 C 318.7 44.5 318.4 44.4 318 44.3 C 317.7 44.1 317.5 43.9 317.3 43.7 C 317.2 43.5 317.1 43.2 317 42.9 C 317 42.7 316.9 42.4 316.9 42 C 316.95 41.95 316.9 38.1 316.9 38.1 L 318 38.1 C 318 38.1 318 41.55 318 41.6 C 318 42.1 318 42.5 318.1 42.7 C 318.1 42.9 318.3 43.2 318.5 43.3 C 318.7 43.5 319 43.6 319.3 43.6 C 319.6 43.6 319.9 43.5 320.2 43.3 C 320.5 43.1 320.6 42.9 320.8 42.6 C 320.9 42.4 320.9 42 320.9 41.4 C 320.94 41.43 320.9 38.1 320.9 38.1 L 322 38.1 L 322 44.3 L 321 44.3 Z M 323.6 44.3 L 323.6 38.1 L 324.6 38.1 C 324.6 38.1 324.58 39.04 324.6 39 C 324.8 38.6 325 38.3 325.3 38.2 C 325.5 38 325.7 38 325.9 38 C 326.3 38 326.6 38.1 327 38.3 C 327 38.3 326.6 39.3 326.6 39.3 C 326.4 39.1 326.1 39 325.9 39 C 325.6 39 325.4 39.1 325.3 39.3 C 325.1 39.4 324.9 39.6 324.9 39.8 C 324.7 40.2 324.7 40.6 324.7 41.1 C 324.69 41.06 324.7 44.3 324.7 44.3 L 323.6 44.3 Z M 327.2 42.5 C 327.2 42.5 328.3 42.3 328.3 42.3 C 328.3 42.7 328.5 43 328.7 43.3 C 329 43.5 329.4 43.6 329.9 43.6 C 330.4 43.6 330.7 43.5 330.9 43.3 C 331.2 43.1 331.3 42.9 331.3 42.6 C 331.3 42.4 331.2 42.2 331 42 C 330.8 41.9 330.5 41.8 329.9 41.7 C 329.1 41.5 328.6 41.3 328.3 41.2 C 328 41 327.8 40.8 327.6 40.6 C 327.5 40.3 327.4 40.1 327.4 39.8 C 327.4 39.5 327.5 39.2 327.6 39 C 327.7 38.7 327.9 38.5 328.1 38.4 C 328.3 38.3 328.5 38.2 328.8 38.1 C 329.1 38 329.4 38 329.7 38 C 330.2 38 330.6 38 331 38.2 C 331.3 38.3 331.6 38.5 331.8 38.7 C 332 39 332.1 39.3 332.2 39.7 C 332.2 39.7 331.1 39.8 331.1 39.8 C 331.1 39.5 330.9 39.3 330.7 39.1 C 330.5 38.9 330.2 38.8 329.8 38.8 C 329.3 38.8 328.9 38.9 328.7 39.1 C 328.5 39.2 328.4 39.4 328.4 39.6 C 328.4 39.8 328.5 39.9 328.5 40 C 328.6 40.1 328.8 40.2 328.9 40.3 C 329.1 40.3 329.4 40.4 329.9 40.5 C 330.6 40.7 331.1 40.9 331.4 41 C 331.7 41.2 332 41.3 332.1 41.6 C 332.3 41.8 332.4 42.1 332.4 42.5 C 332.4 42.8 332.3 43.2 332.1 43.5 C 331.9 43.8 331.6 44 331.2 44.2 C 330.8 44.4 330.4 44.5 329.9 44.5 C 329.1 44.5 328.5 44.3 328 44 C 327.6 43.6 327.3 43.1 327.2 42.5 Z M 337.3 39.3 L 337.3 38.1 L 338.5 38.1 L 338.5 39.3 L 337.3 39.3 Z M 337.3 44.3 L 337.3 43.1 L 338.5 43.1 L 338.5 44.3 L 337.3 44.3 Z " stroke="none" fill="#000"/>  </g>  <g id="Polygon6207">    <path d="M 4.2 0.8 C 6.3 0.8 8 1.8 8 3.9 C 8 5.3 7.2 6.4 5.8 6.7 C 7.8 6.9 9 8.2 9 9.9 C 9 12 7.3 13.1 5 13.1 C 4.97 13.12 1.4 13.1 1.4 13.1 L 1.4 0.8 C 1.4 0.8 4.21 0.85 4.2 0.8 Z M 2.3 6.5 C 2.3 6.5 3.82 6.46 3.8 6.5 C 6 6.5 7 5.5 7 4 C 7 2.4 6 1.7 4 1.7 C 3.96 1.69 2.3 1.7 2.3 1.7 L 2.3 6.5 Z M 4.8 12.3 C 6.7 12.3 8.1 11.6 8.1 9.8 C 8.1 8.2 6.9 7.3 4.5 7.3 C 4.5 7.31 2.3 7.3 2.3 7.3 L 2.3 12.3 C 2.3 12.3 4.81 12.28 4.8 12.3 Z M 17.6 0.8 L 17.6 1.7 L 12.1 1.7 L 12.1 6.5 L 17.5 6.5 L 17.5 7.4 L 12.1 7.4 L 12.1 12.3 L 17.8 12.3 L 17.8 13.1 L 11.2 13.1 L 11.2 0.8 L 17.6 0.8 Z M 20.8 0.8 L 20.8 6.5 L 28.8 6.5 L 28.8 0.8 L 29.8 0.8 L 29.8 13.1 L 28.8 13.1 L 28.8 7.4 L 20.8 7.4 L 20.8 13.1 L 19.9 13.1 L 19.9 0.8 L 20.8 0.8 Z M 37.2 0.8 L 42.7 13.1 L 41.7 13.1 L 39.9 9.1 L 33.9 9.1 L 32.2 13.1 L 31.2 13.1 L 36.6 0.8 L 37.2 0.8 Z M 34.3 8.2 L 39.5 8.2 L 36.9 2.2 L 34.3 8.2 Z M 41.8 0.8 L 42.8 0.8 L 47.1 11.3 L 47.1 11.3 L 51.4 0.8 L 52.3 0.8 L 47.2 13.3 L 47 13.3 L 41.8 0.8 Z M 54.7 0.8 L 54.7 13.1 L 53.8 13.1 L 53.8 0.8 L 54.7 0.8 Z M 69.7 6.9 C 69.7 10.5 67.1 13.3 63.3 13.3 C 59.5 13.3 57 10.4 57 7.1 C 57 3.5 59.6 0.7 63.3 0.7 C 67.3 0.7 69.7 3.6 69.7 6.9 Z M 58 7 C 58 10.1 60.3 12.4 63.3 12.4 C 66.9 12.4 68.7 9.6 68.7 7 C 68.7 4.1 66.7 1.6 63.4 1.6 C 60 1.6 58 4.1 58 7 Z M 72.8 0.8 C 72.8 0.8 72.76 7.9 72.8 7.9 C 72.8 10.6 74.1 12.4 76.8 12.4 C 79.6 12.4 80.9 10.6 80.9 7.9 C 80.93 7.9 80.9 0.8 80.9 0.8 L 81.9 0.8 C 81.9 0.8 81.86 7.9 81.9 7.9 C 81.9 11 80.2 13.3 76.9 13.3 C 73.5 13.3 71.8 11.1 71.8 7.9 C 71.82 7.88 71.8 0.8 71.8 0.8 L 72.8 0.8 Z M 84.5 0.8 C 84.5 0.8 87.6 0.85 87.6 0.8 C 90.1 0.8 91.3 2.1 91.3 4 C 91.3 5.7 90.4 6.7 88.8 7 C 89.6 7.4 90 7.8 90.8 9 C 90.81 9.04 93.4 13.1 93.4 13.1 L 92.3 13.1 C 92.3 13.1 89.93 9.36 89.9 9.4 C 88.9 7.7 88.2 7.3 86.9 7.3 C 86.94 7.33 85.4 7.3 85.4 7.3 L 85.4 13.1 L 84.5 13.1 L 84.5 0.8 Z M 86.9 6.5 C 89 6.5 90.4 6 90.4 4 C 90.4 2.2 89.1 1.7 87.4 1.7 C 87.37 1.69 85.4 1.7 85.4 1.7 L 85.4 6.5 C 85.4 6.5 86.87 6.46 86.9 6.5 Z M 100.5 1.4 C 100.5 1.4 100.5 2.5 100.5 2.5 C 99.7 1.9 98.8 1.5 97.9 1.5 C 96.4 1.5 95.4 2.4 95.4 3.7 C 95.4 4.6 95.7 5.5 97.9 6.4 C 100.3 7.5 101 8.4 101 10.1 C 101 12 99.6 13.3 97.5 13.3 C 96.4 13.3 95.4 12.9 94.5 12.3 C 94.5 12.3 94.5 11.1 94.5 11.1 C 95.5 12 96.4 12.4 97.6 12.4 C 99 12.4 100 11.5 100 10.1 C 100 8.9 99.6 8.2 97.3 7.1 C 95.2 6.2 94.4 5.3 94.4 3.7 C 94.4 2 95.9 0.7 97.9 0.7 C 98.8 0.7 99.7 0.9 100.5 1.4 Z " stroke="none" fill="#f28620"/>  </g></svg>