<?xml version="1.0" standalone="no"?><!DOCTYPE svg PUBLIC "-//W3C//DTD SVG 1.1//EN" "http://www.w3.org/Graphics/SVG/1.1/DTD/svg11.dtd"><svg xmlns="http://www.w3.org/2000/svg" version="1.1" width="259.3px" height="58.5px" viewBox="0 -7 259.3 58.5" style="top:-7px">  <desc>Apprenticeship Assessment Assessment of Occupational Competence Qualification Design and Certification</desc>  <defs/>  <g id="Polygon44653">    <path d="M 18 29.5 L 21.3 20.9 L 22.5 20.9 L 26 29.5 L 24.7 29.5 L 23.7 26.9 L 20.1 26.9 L 19.2 29.5 L 18 29.5 Z M 20.5 26 L 23.4 26 C 23.4 26 22.48 23.59 22.5 23.6 C 22.2 22.9 22 22.3 21.9 21.8 C 21.8 22.4 21.6 22.9 21.4 23.5 C 21.4 23.45 20.5 26 20.5 26 Z M 26.4 27.6 C 26.4 27.6 27.4 27.5 27.4 27.5 C 27.5 27.9 27.6 28.2 27.9 28.4 C 28.2 28.7 28.5 28.8 29 28.8 C 29.5 28.8 29.9 28.7 30.1 28.5 C 30.3 28.3 30.5 28 30.5 27.8 C 30.5 27.5 30.4 27.4 30.1 27.2 C 30 27.1 29.6 27 29.1 26.9 C 28.3 26.7 27.8 26.5 27.5 26.4 C 27.2 26.2 26.9 26 26.8 25.8 C 26.6 25.5 26.5 25.2 26.5 24.9 C 26.5 24.7 26.6 24.4 26.7 24.2 C 26.9 23.9 27 23.7 27.3 23.6 C 27.4 23.4 27.6 23.3 27.9 23.3 C 28.2 23.2 28.5 23.1 28.8 23.1 C 29.3 23.1 29.8 23.2 30.1 23.3 C 30.5 23.5 30.8 23.7 30.9 23.9 C 31.1 24.2 31.2 24.5 31.3 24.9 C 31.3 24.9 30.3 25 30.3 25 C 30.2 24.7 30.1 24.5 29.9 24.3 C 29.6 24.1 29.3 24 28.9 24 C 28.4 24 28.1 24.1 27.9 24.2 C 27.7 24.4 27.6 24.6 27.6 24.8 C 27.6 24.9 27.6 25.1 27.7 25.2 C 27.8 25.3 27.9 25.4 28.1 25.5 C 28.2 25.5 28.5 25.6 29 25.7 C 29.8 25.9 30.3 26.1 30.6 26.2 C 30.9 26.3 31.1 26.5 31.3 26.8 C 31.5 27 31.5 27.3 31.5 27.7 C 31.5 28 31.4 28.4 31.2 28.7 C 31 29 30.7 29.2 30.3 29.4 C 30 29.6 29.5 29.6 29 29.6 C 28.2 29.6 27.6 29.5 27.2 29.1 C 26.8 28.8 26.5 28.3 26.4 27.6 Z M 32.4 27.6 C 32.4 27.6 33.4 27.5 33.4 27.5 C 33.5 27.9 33.6 28.2 33.9 28.4 C 34.2 28.7 34.5 28.8 35 28.8 C 35.5 28.8 35.9 28.7 36.1 28.5 C 36.3 28.3 36.5 28 36.5 27.8 C 36.5 27.5 36.4 27.4 36.1 27.2 C 36 27.1 35.6 27 35.1 26.9 C 34.3 26.7 33.8 26.5 33.5 26.4 C 33.2 26.2 32.9 26 32.8 25.8 C 32.6 25.5 32.5 25.2 32.5 24.9 C 32.5 24.7 32.6 24.4 32.7 24.2 C 32.9 23.9 33 23.7 33.3 23.6 C 33.4 23.4 33.6 23.3 33.9 23.3 C 34.2 23.2 34.5 23.1 34.8 23.1 C 35.3 23.1 35.8 23.2 36.1 23.3 C 36.5 23.5 36.8 23.7 36.9 23.9 C 37.1 24.2 37.2 24.5 37.3 24.9 C 37.3 24.9 36.3 25 36.3 25 C 36.2 24.7 36.1 24.5 35.9 24.3 C 35.6 24.1 35.3 24 34.9 24 C 34.4 24 34.1 24.1 33.9 24.2 C 33.7 24.4 33.6 24.6 33.6 24.8 C 33.6 24.9 33.6 25.1 33.7 25.2 C 33.8 25.3 33.9 25.4 34.1 25.5 C 34.2 25.5 34.5 25.6 35 25.7 C 35.8 25.9 36.3 26.1 36.6 26.2 C 36.9 26.3 37.1 26.5 37.3 26.8 C 37.5 27 37.5 27.3 37.5 27.7 C 37.5 28 37.4 28.4 37.2 28.7 C 37 29 36.7 29.2 36.3 29.4 C 36 29.6 35.5 29.6 35 29.6 C 34.2 29.6 33.6 29.5 33.2 29.1 C 32.8 28.8 32.5 28.3 32.4 27.6 Z M 43.1 27.5 C 43.1 27.5 44.1 27.6 44.1 27.6 C 44 28.3 43.7 28.8 43.2 29.1 C 42.7 29.5 42.1 29.6 41.4 29.6 C 40.5 29.6 39.8 29.4 39.2 28.8 C 38.7 28.2 38.4 27.5 38.4 26.4 C 38.4 25.4 38.7 24.6 39.3 24 C 39.8 23.4 40.5 23.1 41.3 23.1 C 42.2 23.1 42.9 23.4 43.4 24 C 43.9 24.6 44.2 25.3 44.2 26.4 C 44.2 26.4 44.2 26.5 44.2 26.7 C 44.2 26.7 39.5 26.7 39.5 26.7 C 39.6 27.3 39.8 27.9 40.1 28.2 C 40.5 28.6 40.9 28.8 41.4 28.8 C 41.8 28.8 42.1 28.7 42.4 28.5 C 42.7 28.3 42.9 27.9 43.1 27.5 Z M 39.6 25.8 C 39.6 25.8 43.1 25.8 43.1 25.8 C 43 25.3 42.9 24.9 42.7 24.6 C 42.3 24.2 41.9 24 41.4 24 C 40.9 24 40.5 24.2 40.1 24.5 C 39.8 24.8 39.6 25.2 39.6 25.8 Z M 45 27.6 C 45 27.6 46.1 27.5 46.1 27.5 C 46.1 27.9 46.3 28.2 46.6 28.4 C 46.8 28.7 47.2 28.8 47.7 28.8 C 48.2 28.8 48.5 28.7 48.8 28.5 C 49 28.3 49.1 28 49.1 27.8 C 49.1 27.5 49 27.4 48.8 27.2 C 48.7 27.1 48.3 27 47.7 26.9 C 47 26.7 46.4 26.5 46.1 26.4 C 45.8 26.2 45.6 26 45.5 25.8 C 45.3 25.5 45.2 25.2 45.2 24.9 C 45.2 24.7 45.3 24.4 45.4 24.2 C 45.5 23.9 45.7 23.7 45.9 23.6 C 46.1 23.4 46.3 23.3 46.6 23.3 C 46.9 23.2 47.2 23.1 47.5 23.1 C 48 23.1 48.4 23.2 48.8 23.3 C 49.2 23.5 49.4 23.7 49.6 23.9 C 49.8 24.2 49.9 24.5 50 24.9 C 50 24.9 48.9 25 48.9 25 C 48.9 24.7 48.8 24.5 48.5 24.3 C 48.3 24.1 48 24 47.6 24 C 47.1 24 46.8 24.1 46.6 24.2 C 46.3 24.4 46.2 24.6 46.2 24.8 C 46.2 24.9 46.3 25.1 46.4 25.2 C 46.5 25.3 46.6 25.4 46.8 25.5 C 46.9 25.5 47.2 25.6 47.7 25.7 C 48.5 25.9 49 26.1 49.3 26.2 C 49.6 26.3 49.8 26.5 50 26.8 C 50.1 27 50.2 27.3 50.2 27.7 C 50.2 28 50.1 28.4 49.9 28.7 C 49.7 29 49.4 29.2 49 29.4 C 48.6 29.6 48.2 29.6 47.7 29.6 C 46.9 29.6 46.3 29.5 45.9 29.1 C 45.4 28.8 45.2 28.3 45 27.6 Z M 51 27.6 C 51 27.6 52.1 27.5 52.1 27.5 C 52.1 27.9 52.3 28.2 52.6 28.4 C 52.8 28.7 53.2 28.8 53.7 28.8 C 54.2 28.8 54.5 28.7 54.8 28.5 C 55 28.3 55.1 28 55.1 27.8 C 55.1 27.5 55 27.4 54.8 27.2 C 54.7 27.1 54.3 27 53.7 26.9 C 53 26.7 52.4 26.5 52.1 26.4 C 51.8 26.2 51.6 26 51.5 25.8 C 51.3 25.5 51.2 25.2 51.2 24.9 C 51.2 24.7 51.3 24.4 51.4 24.2 C 51.5 23.9 51.7 23.7 51.9 23.6 C 52.1 23.4 52.3 23.3 52.6 23.3 C 52.9 23.2 53.2 23.1 53.5 23.1 C 54 23.1 54.4 23.2 54.8 23.3 C 55.2 23.5 55.4 23.7 55.6 23.9 C 55.8 24.2 55.9 24.5 56 24.9 C 56 24.9 54.9 25 54.9 25 C 54.9 24.7 54.8 24.5 54.5 24.3 C 54.3 24.1 54 24 53.6 24 C 53.1 24 52.8 24.1 52.6 24.2 C 52.3 24.4 52.2 24.6 52.2 24.8 C 52.2 24.9 52.3 25.1 52.4 25.2 C 52.5 25.3 52.6 25.4 52.8 25.5 C 52.9 25.5 53.2 25.6 53.7 25.7 C 54.5 25.9 55 26.1 55.3 26.2 C 55.6 26.3 55.8 26.5 56 26.8 C 56.1 27 56.2 27.3 56.2 27.7 C 56.2 28 56.1 28.4 55.9 28.7 C 55.7 29 55.4 29.2 55 29.4 C 54.6 29.6 54.2 29.6 53.7 29.6 C 52.9 29.6 52.3 29.5 51.9 29.1 C 51.4 28.8 51.2 28.3 51 27.6 Z M 57.5 29.5 L 57.5 23.3 L 58.4 23.3 C 58.4 23.3 58.41 24.15 58.4 24.2 C 58.6 23.8 58.9 23.6 59.2 23.4 C 59.5 23.2 59.9 23.1 60.3 23.1 C 60.8 23.1 61.1 23.2 61.4 23.4 C 61.7 23.6 61.9 23.9 62.1 24.2 C 62.5 23.5 63.2 23.1 64 23.1 C 64.6 23.1 65.1 23.3 65.4 23.6 C 65.7 24 65.9 24.5 65.9 25.2 C 65.9 25.23 65.9 29.5 65.9 29.5 L 64.9 29.5 C 64.9 29.5 64.85 25.58 64.9 25.6 C 64.9 25.2 64.8 24.9 64.7 24.7 C 64.7 24.5 64.6 24.3 64.4 24.2 C 64.2 24.1 64 24.1 63.7 24.1 C 63.3 24.1 62.9 24.2 62.7 24.5 C 62.4 24.8 62.2 25.2 62.2 25.9 C 62.22 25.88 62.2 29.5 62.2 29.5 L 61.2 29.5 C 61.2 29.5 61.17 25.46 61.2 25.5 C 61.2 25 61.1 24.6 60.9 24.4 C 60.7 24.2 60.5 24.1 60.1 24.1 C 59.8 24.1 59.5 24.1 59.2 24.3 C 59 24.4 58.8 24.7 58.7 25 C 58.6 25.3 58.5 25.7 58.5 26.3 C 58.52 26.27 58.5 29.5 58.5 29.5 L 57.5 29.5 Z M 71.7 27.5 C 71.7 27.5 72.8 27.6 72.8 27.6 C 72.6 28.3 72.3 28.8 71.9 29.1 C 71.4 29.5 70.8 29.6 70.1 29.6 C 69.2 29.6 68.4 29.4 67.9 28.8 C 67.4 28.2 67.1 27.5 67.1 26.4 C 67.1 25.4 67.4 24.6 67.9 24 C 68.5 23.4 69.2 23.1 70 23.1 C 70.9 23.1 71.5 23.4 72.1 24 C 72.6 24.6 72.8 25.3 72.8 26.4 C 72.8 26.4 72.8 26.5 72.8 26.7 C 72.8 26.7 68.2 26.7 68.2 26.7 C 68.2 27.3 68.4 27.9 68.8 28.2 C 69.1 28.6 69.6 28.8 70.1 28.8 C 70.5 28.8 70.8 28.7 71.1 28.5 C 71.3 28.3 71.6 27.9 71.7 27.5 Z M 68.3 25.8 C 68.3 25.8 71.7 25.8 71.7 25.8 C 71.7 25.3 71.6 24.9 71.3 24.6 C 71 24.2 70.6 24 70 24 C 69.5 24 69.1 24.2 68.8 24.5 C 68.5 24.8 68.3 25.2 68.3 25.8 Z M 74.1 29.5 L 74.1 23.3 L 75.1 23.3 C 75.1 23.3 75.09 24.16 75.1 24.2 C 75.5 23.5 76.2 23.1 77.1 23.1 C 77.4 23.1 77.8 23.2 78.1 23.3 C 78.4 23.5 78.7 23.7 78.8 23.9 C 79 24.1 79.1 24.3 79.1 24.6 C 79.2 24.8 79.2 25.2 79.2 25.7 C 79.2 25.67 79.2 29.5 79.2 29.5 L 78.1 29.5 C 78.1 29.5 78.14 25.71 78.1 25.7 C 78.1 25.3 78.1 25 78 24.8 C 77.9 24.5 77.8 24.4 77.6 24.2 C 77.4 24.1 77.1 24.1 76.8 24.1 C 76.4 24.1 76 24.2 75.7 24.5 C 75.4 24.8 75.2 25.3 75.2 26.1 C 75.19 26.1 75.2 29.5 75.2 29.5 L 74.1 29.5 Z M 82.7 28.6 C 82.8 28.6 82.9 28.6 83.1 28.6 C 83.1 28.6 83.3 29.5 83.3 29.5 C 83 29.6 82.7 29.6 82.5 29.6 C 82.1 29.6 81.8 29.5 81.6 29.4 C 81.4 29.3 81.2 29.1 81.1 28.9 C 81 28.7 81 28.3 81 27.7 C 81.01 27.68 81 24.1 81 24.1 L 80.2 24.1 L 80.2 23.3 L 81 23.3 L 81 21.7 L 82.1 21.1 L 82.1 23.3 L 83.1 23.3 L 83.1 24.1 L 82.1 24.1 C 82.1 24.1 82.05 27.74 82.1 27.7 C 82.1 28 82.1 28.2 82.1 28.3 C 82.1 28.4 82.2 28.5 82.3 28.5 C 82.4 28.6 82.5 28.6 82.7 28.6 C 82.7 28.6 82.7 28.6 82.7 28.6 Z M 87.1 26.4 C 87.1 25.2 87.4 24.4 88 23.8 C 88.6 23.4 89.2 23.1 90 23.1 C 90.9 23.1 91.6 23.4 92.1 24 C 92.6 24.5 92.9 25.3 92.9 26.3 C 92.9 27.1 92.8 27.7 92.6 28.2 C 92.3 28.6 92 29 91.5 29.3 C 91 29.5 90.5 29.6 90 29.6 C 89.1 29.6 88.4 29.4 87.9 28.8 C 87.4 28.2 87.1 27.4 87.1 26.4 Z M 88.2 26.4 C 88.2 27.2 88.3 27.8 88.7 28.2 C 89 28.6 89.5 28.8 90 28.8 C 90.5 28.8 91 28.6 91.3 28.2 C 91.7 27.8 91.8 27.2 91.8 26.4 C 91.8 25.6 91.7 25 91.3 24.6 C 91 24.2 90.5 24 90 24 C 89.5 24 89 24.2 88.7 24.6 C 88.3 25 88.2 25.6 88.2 26.4 Z M 94.4 29.5 L 94.4 24.1 L 93.5 24.1 L 93.5 23.3 L 94.4 23.3 C 94.4 23.3 94.41 22.62 94.4 22.6 C 94.4 22.2 94.4 21.9 94.5 21.7 C 94.6 21.4 94.8 21.2 95.1 21 C 95.3 20.8 95.7 20.8 96.1 20.8 C 96.4 20.8 96.8 20.8 97.1 20.9 C 97.1 20.9 97 21.8 97 21.8 C 96.7 21.8 96.5 21.7 96.3 21.7 C 96 21.7 95.8 21.8 95.7 21.9 C 95.5 22.1 95.5 22.3 95.5 22.7 C 95.46 22.7 95.5 23.3 95.5 23.3 L 96.7 23.3 L 96.7 24.1 L 95.5 24.1 L 95.5 29.5 L 94.4 29.5 Z M 100.6 25.3 C 100.6 23.9 101 22.8 101.8 22 C 102.5 21.2 103.5 20.8 104.7 20.8 C 105.5 20.8 106.2 20.9 106.9 21.3 C 107.5 21.7 108 22.2 108.3 22.9 C 108.7 23.6 108.8 24.4 108.8 25.2 C 108.8 26.1 108.7 26.9 108.3 27.6 C 107.9 28.2 107.4 28.8 106.8 29.1 C 106.2 29.5 105.5 29.6 104.7 29.6 C 103.9 29.6 103.2 29.5 102.6 29.1 C 101.9 28.7 101.4 28.1 101.1 27.5 C 100.8 26.8 100.6 26.1 100.6 25.3 Z M 101.8 25.3 C 101.8 26.4 102.1 27.2 102.6 27.8 C 103.2 28.4 103.9 28.7 104.7 28.7 C 105.6 28.7 106.3 28.4 106.8 27.8 C 107.4 27.2 107.7 26.3 107.7 25.2 C 107.7 24.5 107.5 23.9 107.3 23.4 C 107.1 22.9 106.7 22.5 106.3 22.2 C 105.8 21.9 105.3 21.7 104.7 21.7 C 103.9 21.7 103.2 22 102.7 22.6 C 102.1 23.1 101.8 24 101.8 25.3 Z M 114.2 27.2 C 114.2 27.2 115.3 27.4 115.3 27.4 C 115.1 28.1 114.9 28.6 114.4 29 C 113.9 29.4 113.3 29.6 112.7 29.6 C 111.8 29.6 111.1 29.4 110.6 28.8 C 110.1 28.2 109.8 27.5 109.8 26.4 C 109.8 25.7 109.9 25.2 110.2 24.6 C 110.4 24.1 110.7 23.8 111.2 23.5 C 111.6 23.3 112.1 23.1 112.7 23.1 C 113.3 23.1 113.9 23.3 114.3 23.6 C 114.8 24 115 24.5 115.2 25.1 C 115.2 25.1 114.1 25.3 114.1 25.3 C 114 24.8 113.9 24.5 113.6 24.3 C 113.4 24.1 113.1 24 112.7 24 C 112.2 24 111.7 24.2 111.4 24.6 C 111.1 25 110.9 25.6 110.9 26.4 C 110.9 27.2 111.1 27.8 111.4 28.2 C 111.7 28.6 112.1 28.8 112.7 28.8 C 113.1 28.8 113.4 28.6 113.7 28.4 C 114 28.1 114.1 27.7 114.2 27.2 Z M 120.2 27.2 C 120.2 27.2 121.3 27.4 121.3 27.4 C 121.1 28.1 120.9 28.6 120.4 29 C 119.9 29.4 119.3 29.6 118.7 29.6 C 117.8 29.6 117.1 29.4 116.6 28.8 C 116.1 28.2 115.8 27.5 115.8 26.4 C 115.8 25.7 115.9 25.2 116.2 24.6 C 116.4 24.1 116.7 23.8 117.2 23.5 C 117.6 23.3 118.1 23.1 118.7 23.1 C 119.3 23.1 119.9 23.3 120.3 23.6 C 120.8 24 121 24.5 121.2 25.1 C 121.2 25.1 120.1 25.3 120.1 25.3 C 120 24.8 119.9 24.5 119.6 24.3 C 119.4 24.1 119.1 24 118.7 24 C 118.2 24 117.7 24.2 117.4 24.6 C 117.1 25 116.9 25.6 116.9 26.4 C 116.9 27.2 117.1 27.8 117.4 28.2 C 117.7 28.6 118.1 28.8 118.7 28.8 C 119.1 28.8 119.4 28.6 119.7 28.4 C 120 28.1 120.1 27.7 120.2 27.2 Z M 126.2 29.5 C 126.2 29.5 126.23 28.59 126.2 28.6 C 125.7 29.3 125.1 29.6 124.3 29.6 C 123.9 29.6 123.5 29.6 123.2 29.4 C 122.9 29.3 122.7 29.1 122.5 28.9 C 122.4 28.7 122.3 28.4 122.2 28.1 C 122.2 27.9 122.1 27.6 122.1 27.1 C 122.13 27.13 122.1 23.3 122.1 23.3 L 123.2 23.3 C 123.2 23.3 123.19 26.73 123.2 26.7 C 123.2 27.3 123.2 27.7 123.3 27.8 C 123.3 28.1 123.5 28.3 123.7 28.5 C 123.9 28.7 124.2 28.7 124.5 28.7 C 124.8 28.7 125.1 28.7 125.4 28.5 C 125.6 28.3 125.8 28.1 126 27.8 C 126.1 27.5 126.1 27.1 126.1 26.6 C 126.12 26.61 126.1 23.3 126.1 23.3 L 127.2 23.3 L 127.2 29.5 L 126.2 29.5 Z M 128.8 31.9 L 128.8 23.3 L 129.8 23.3 C 129.8 23.3 129.79 24.09 129.8 24.1 C 130 23.8 130.3 23.5 130.6 23.4 C 130.8 23.2 131.2 23.1 131.6 23.1 C 132.1 23.1 132.6 23.3 133 23.5 C 133.4 23.8 133.7 24.2 133.9 24.7 C 134.1 25.2 134.2 25.7 134.2 26.3 C 134.2 27 134.1 27.6 133.9 28.1 C 133.7 28.6 133.3 29 132.9 29.2 C 132.5 29.5 132 29.6 131.5 29.6 C 131.2 29.6 130.9 29.6 130.6 29.4 C 130.3 29.3 130.1 29.1 129.9 28.9 C 129.88 28.86 129.9 31.9 129.9 31.9 L 128.8 31.9 Z M 129.8 26.4 C 129.8 27.2 129.9 27.8 130.3 28.2 C 130.6 28.6 131 28.8 131.4 28.8 C 131.9 28.8 132.3 28.6 132.7 28.2 C 133 27.8 133.2 27.2 133.2 26.3 C 133.2 25.5 133 24.9 132.7 24.6 C 132.3 24.2 131.9 24 131.5 24 C 131 24 130.6 24.2 130.3 24.6 C 130 25 129.8 25.6 129.8 26.4 Z M 139.8 29.5 C 139.7 29.3 139.6 29 139.6 28.7 C 139.2 29.1 138.8 29.3 138.4 29.4 C 138.1 29.6 137.7 29.6 137.3 29.6 C 136.6 29.6 136.1 29.5 135.7 29.1 C 135.3 28.8 135.1 28.4 135.1 27.9 C 135.1 27.6 135.2 27.3 135.4 27 C 135.5 26.8 135.7 26.6 135.9 26.4 C 136.1 26.3 136.4 26.2 136.7 26.1 C 136.9 26 137.2 26 137.6 25.9 C 138.4 25.8 139.1 25.7 139.5 25.6 C 139.5 25.4 139.5 25.3 139.5 25.3 C 139.5 24.8 139.4 24.5 139.2 24.4 C 138.9 24.1 138.5 24 138 24 C 137.5 24 137.1 24.1 136.9 24.3 C 136.6 24.4 136.5 24.8 136.4 25.2 C 136.4 25.2 135.3 25.1 135.3 25.1 C 135.4 24.6 135.6 24.3 135.8 24 C 136 23.7 136.3 23.5 136.7 23.4 C 137.1 23.2 137.6 23.1 138.1 23.1 C 138.7 23.1 139.1 23.2 139.4 23.3 C 139.8 23.4 140 23.6 140.2 23.8 C 140.3 24 140.4 24.2 140.5 24.5 C 140.5 24.7 140.5 25 140.5 25.5 C 140.5 25.5 140.5 26.9 140.5 26.9 C 140.5 27.9 140.6 28.5 140.6 28.8 C 140.7 29 140.7 29.3 140.9 29.5 C 140.88 29.5 139.8 29.5 139.8 29.5 C 139.8 29.5 139.78 29.5 139.8 29.5 Z M 139.5 26.4 C 139.1 26.5 138.5 26.7 137.8 26.8 C 137.3 26.8 137 26.9 136.8 27 C 136.7 27.1 136.5 27.2 136.4 27.3 C 136.3 27.5 136.3 27.6 136.3 27.8 C 136.3 28.1 136.4 28.3 136.6 28.5 C 136.8 28.7 137.1 28.8 137.5 28.8 C 137.9 28.8 138.3 28.7 138.6 28.5 C 138.9 28.4 139.2 28.1 139.3 27.8 C 139.4 27.6 139.5 27.2 139.5 26.8 C 139.5 26.8 139.5 26.4 139.5 26.4 Z M 144 28.6 C 144.1 28.6 144.3 28.6 144.5 28.6 C 144.5 28.6 144.6 29.5 144.6 29.5 C 144.3 29.6 144.1 29.6 143.8 29.6 C 143.5 29.6 143.2 29.5 142.9 29.4 C 142.7 29.3 142.6 29.1 142.5 28.9 C 142.4 28.7 142.4 28.3 142.4 27.7 C 142.37 27.68 142.4 24.1 142.4 24.1 L 141.6 24.1 L 141.6 23.3 L 142.4 23.3 L 142.4 21.7 L 143.4 21.1 L 143.4 23.3 L 144.5 23.3 L 144.5 24.1 L 143.4 24.1 C 143.4 24.1 143.42 27.74 143.4 27.7 C 143.4 28 143.4 28.2 143.5 28.3 C 143.5 28.4 143.6 28.5 143.7 28.5 C 143.7 28.6 143.9 28.6 144 28.6 C 144 28.6 144 28.6 144 28.6 Z M 145.5 22.1 L 145.5 20.9 L 146.6 20.9 L 146.6 22.1 L 145.5 22.1 Z M 145.5 29.5 L 145.5 23.3 L 146.6 23.3 L 146.6 29.5 L 145.5 29.5 Z M 147.8 26.4 C 147.8 25.2 148.1 24.4 148.7 23.8 C 149.3 23.4 149.9 23.1 150.7 23.1 C 151.6 23.1 152.3 23.4 152.8 24 C 153.3 24.5 153.6 25.3 153.6 26.3 C 153.6 27.1 153.5 27.7 153.3 28.2 C 153 28.6 152.7 29 152.2 29.3 C 151.7 29.5 151.2 29.6 150.7 29.6 C 149.8 29.6 149.1 29.4 148.6 28.8 C 148.1 28.2 147.8 27.4 147.8 26.4 Z M 148.9 26.4 C 148.9 27.2 149 27.8 149.4 28.2 C 149.7 28.6 150.2 28.8 150.7 28.8 C 151.2 28.8 151.7 28.6 152 28.2 C 152.4 27.8 152.5 27.2 152.5 26.4 C 152.5 25.6 152.4 25 152 24.6 C 151.7 24.2 151.2 24 150.7 24 C 150.2 24 149.7 24.2 149.4 24.6 C 149 25 148.9 25.6 148.9 26.4 Z M 154.9 29.5 L 154.9 23.3 L 155.8 23.3 C 155.8 23.3 155.8 24.16 155.8 24.2 C 156.3 23.5 156.9 23.1 157.8 23.1 C 158.2 23.1 158.5 23.2 158.8 23.3 C 159.1 23.5 159.4 23.7 159.5 23.9 C 159.7 24.1 159.8 24.3 159.8 24.6 C 159.9 24.8 159.9 25.2 159.9 25.7 C 159.91 25.67 159.9 29.5 159.9 29.5 L 158.9 29.5 C 158.9 29.5 158.85 25.71 158.9 25.7 C 158.9 25.3 158.8 25 158.7 24.8 C 158.6 24.5 158.5 24.4 158.3 24.2 C 158.1 24.1 157.8 24.1 157.6 24.1 C 157.1 24.1 156.7 24.2 156.4 24.5 C 156.1 24.8 155.9 25.3 155.9 26.1 C 155.91 26.1 155.9 29.5 155.9 29.5 L 154.9 29.5 Z M 165.8 29.5 C 165.7 29.3 165.6 29 165.6 28.7 C 165.2 29.1 164.8 29.3 164.5 29.4 C 164.1 29.6 163.7 29.6 163.3 29.6 C 162.6 29.6 162.1 29.5 161.7 29.1 C 161.4 28.8 161.2 28.4 161.2 27.9 C 161.2 27.6 161.2 27.3 161.4 27 C 161.5 26.8 161.7 26.6 161.9 26.4 C 162.1 26.3 162.4 26.2 162.7 26.1 C 162.9 26 163.2 26 163.6 25.9 C 164.5 25.8 165.1 25.7 165.5 25.6 C 165.5 25.4 165.5 25.3 165.5 25.3 C 165.5 24.8 165.4 24.5 165.2 24.4 C 164.9 24.1 164.5 24 164 24 C 163.5 24 163.1 24.1 162.9 24.3 C 162.7 24.4 162.5 24.8 162.4 25.2 C 162.4 25.2 161.3 25.1 161.3 25.1 C 161.4 24.6 161.6 24.3 161.8 24 C 162 23.7 162.3 23.5 162.7 23.4 C 163.2 23.2 163.6 23.1 164.2 23.1 C 164.7 23.1 165.1 23.2 165.5 23.3 C 165.8 23.4 166 23.6 166.2 23.8 C 166.3 24 166.4 24.2 166.5 24.5 C 166.5 24.7 166.6 25 166.6 25.5 C 166.6 25.5 166.6 26.9 166.6 26.9 C 166.6 27.9 166.6 28.5 166.6 28.8 C 166.7 29 166.8 29.3 166.9 29.5 C 166.9 29.5 165.8 29.5 165.8 29.5 C 165.8 29.5 165.8 29.5 165.8 29.5 Z M 165.5 26.4 C 165.1 26.5 164.5 26.7 163.8 26.8 C 163.3 26.8 163 26.9 162.9 27 C 162.7 27.1 162.5 27.2 162.4 27.3 C 162.3 27.5 162.3 27.6 162.3 27.8 C 162.3 28.1 162.4 28.3 162.6 28.5 C 162.8 28.7 163.1 28.8 163.5 28.8 C 164 28.8 164.3 28.7 164.6 28.5 C 164.9 28.4 165.2 28.1 165.3 27.8 C 165.4 27.6 165.5 27.2 165.5 26.8 C 165.5 26.8 165.5 26.4 165.5 26.4 Z M 168.2 29.5 L 168.2 20.9 L 169.2 20.9 L 169.2 29.5 L 168.2 29.5 Z M 180.5 26.5 C 180.5 26.5 181.6 26.8 181.6 26.8 C 181.4 27.7 180.9 28.4 180.3 28.9 C 179.7 29.4 178.9 29.6 178 29.6 C 177.1 29.6 176.4 29.5 175.8 29.1 C 175.2 28.7 174.8 28.2 174.5 27.4 C 174.2 26.7 174 26 174 25.1 C 174 24.2 174.2 23.5 174.5 22.8 C 174.9 22.1 175.3 21.6 176 21.3 C 176.6 20.9 177.3 20.8 178.1 20.8 C 178.9 20.8 179.6 21 180.2 21.4 C 180.8 21.9 181.2 22.5 181.5 23.3 C 181.5 23.3 180.3 23.5 180.3 23.5 C 180.1 22.9 179.8 22.4 179.5 22.2 C 179.1 21.9 178.6 21.7 178 21.7 C 177.4 21.7 176.8 21.9 176.4 22.2 C 175.9 22.5 175.6 23 175.4 23.5 C 175.3 24 175.2 24.6 175.2 25.1 C 175.2 25.9 175.3 26.5 175.5 27 C 175.7 27.6 176 28 176.5 28.3 C 176.9 28.5 177.4 28.7 177.9 28.7 C 178.6 28.7 179.1 28.5 179.6 28.1 C 180 27.8 180.3 27.2 180.5 26.5 Z M 182.5 26.4 C 182.5 25.2 182.8 24.4 183.4 23.8 C 184 23.4 184.6 23.1 185.4 23.1 C 186.2 23.1 186.9 23.4 187.5 24 C 188 24.5 188.3 25.3 188.3 26.3 C 188.3 27.1 188.2 27.7 187.9 28.2 C 187.7 28.6 187.4 29 186.9 29.3 C 186.4 29.5 185.9 29.6 185.4 29.6 C 184.5 29.6 183.8 29.4 183.3 28.8 C 182.7 28.2 182.5 27.4 182.5 26.4 Z M 183.6 26.4 C 183.6 27.2 183.7 27.8 184.1 28.2 C 184.4 28.6 184.9 28.8 185.4 28.8 C 185.9 28.8 186.3 28.6 186.7 28.2 C 187 27.8 187.2 27.2 187.2 26.4 C 187.2 25.6 187 25 186.7 24.6 C 186.3 24.2 185.9 24 185.4 24 C 184.9 24 184.4 24.2 184.1 24.6 C 183.7 25 183.6 25.6 183.6 26.4 Z M 189.5 29.5 L 189.5 23.3 L 190.5 23.3 C 190.5 23.3 190.48 24.15 190.5 24.2 C 190.7 23.8 190.9 23.6 191.3 23.4 C 191.6 23.2 192 23.1 192.4 23.1 C 192.8 23.1 193.2 23.2 193.5 23.4 C 193.8 23.6 194 23.9 194.1 24.2 C 194.6 23.5 195.3 23.1 196 23.1 C 196.7 23.1 197.1 23.3 197.5 23.6 C 197.8 24 198 24.5 198 25.2 C 197.97 25.23 198 29.5 198 29.5 L 196.9 29.5 C 196.9 29.5 196.92 25.58 196.9 25.6 C 196.9 25.2 196.9 24.9 196.8 24.7 C 196.8 24.5 196.6 24.3 196.4 24.2 C 196.3 24.1 196.1 24.1 195.8 24.1 C 195.4 24.1 195 24.2 194.7 24.5 C 194.4 24.8 194.3 25.2 194.3 25.9 C 194.29 25.88 194.3 29.5 194.3 29.5 L 193.2 29.5 C 193.2 29.5 193.24 25.46 193.2 25.5 C 193.2 25 193.2 24.6 193 24.4 C 192.8 24.2 192.5 24.1 192.1 24.1 C 191.8 24.1 191.6 24.1 191.3 24.3 C 191.1 24.4 190.9 24.7 190.8 25 C 190.7 25.3 190.6 25.7 190.6 26.3 C 190.59 26.27 190.6 29.5 190.6 29.5 L 189.5 29.5 Z M 199.5 31.9 L 199.5 23.3 L 200.5 23.3 C 200.5 23.3 200.5 24.09 200.5 24.1 C 200.7 23.8 201 23.5 201.3 23.4 C 201.5 23.2 201.9 23.1 202.3 23.1 C 202.8 23.1 203.3 23.3 203.7 23.5 C 204.1 23.8 204.4 24.2 204.6 24.7 C 204.8 25.2 204.9 25.7 204.9 26.3 C 204.9 27 204.8 27.6 204.6 28.1 C 204.4 28.6 204 29 203.6 29.2 C 203.2 29.5 202.7 29.6 202.2 29.6 C 201.9 29.6 201.6 29.6 201.3 29.4 C 201 29.3 200.8 29.1 200.6 28.9 C 200.59 28.86 200.6 31.9 200.6 31.9 L 199.5 31.9 Z M 200.5 26.4 C 200.5 27.2 200.7 27.8 201 28.2 C 201.3 28.6 201.7 28.8 202.2 28.8 C 202.6 28.8 203 28.6 203.4 28.2 C 203.7 27.8 203.9 27.2 203.9 26.3 C 203.9 25.5 203.7 24.9 203.4 24.6 C 203 24.2 202.7 24 202.2 24 C 201.8 24 201.4 24.2 201 24.6 C 200.7 25 200.5 25.6 200.5 26.4 Z M 210.5 27.5 C 210.5 27.5 211.6 27.6 211.6 27.6 C 211.4 28.3 211.1 28.8 210.6 29.1 C 210.1 29.5 209.5 29.6 208.8 29.6 C 207.9 29.6 207.2 29.4 206.7 28.8 C 206.1 28.2 205.9 27.5 205.9 26.4 C 205.9 25.4 206.1 24.6 206.7 24 C 207.2 23.4 207.9 23.1 208.8 23.1 C 209.6 23.1 210.3 23.4 210.8 24 C 211.3 24.6 211.6 25.3 211.6 26.4 C 211.6 26.4 211.6 26.5 211.6 26.7 C 211.6 26.7 206.9 26.7 206.9 26.7 C 207 27.3 207.2 27.9 207.5 28.2 C 207.9 28.6 208.3 28.8 208.8 28.8 C 209.2 28.8 209.5 28.7 209.8 28.5 C 210.1 28.3 210.3 27.9 210.5 27.5 Z M 207 25.8 C 207 25.8 210.5 25.8 210.5 25.8 C 210.4 25.3 210.3 24.9 210.1 24.6 C 209.7 24.2 209.3 24 208.8 24 C 208.3 24 207.9 24.2 207.6 24.5 C 207.2 24.8 207 25.2 207 25.8 Z M 214.7 28.6 C 214.8 28.6 215 28.6 215.2 28.6 C 215.2 28.6 215.3 29.5 215.3 29.5 C 215 29.6 214.8 29.6 214.5 29.6 C 214.2 29.6 213.9 29.5 213.7 29.4 C 213.4 29.3 213.3 29.1 213.2 28.9 C 213.1 28.7 213.1 28.3 213.1 27.7 C 213.08 27.68 213.1 24.1 213.1 24.1 L 212.3 24.1 L 212.3 23.3 L 213.1 23.3 L 213.1 21.7 L 214.1 21.1 L 214.1 23.3 L 215.2 23.3 L 215.2 24.1 L 214.1 24.1 C 214.1 24.1 214.13 27.74 214.1 27.7 C 214.1 28 214.1 28.2 214.2 28.3 C 214.2 28.4 214.3 28.5 214.4 28.5 C 214.4 28.6 214.6 28.6 214.7 28.6 C 214.7 28.6 214.7 28.6 214.7 28.6 Z M 220.5 27.5 C 220.5 27.5 221.6 27.6 221.6 27.6 C 221.4 28.3 221.1 28.8 220.6 29.1 C 220.1 29.5 219.6 29.6 218.8 29.6 C 217.9 29.6 217.2 29.4 216.7 28.8 C 216.1 28.2 215.9 27.5 215.9 26.4 C 215.9 25.4 216.1 24.6 216.7 24 C 217.2 23.4 217.9 23.1 218.8 23.1 C 219.6 23.1 220.3 23.4 220.8 24 C 221.3 24.6 221.6 25.3 221.6 26.4 C 221.6 26.4 221.6 26.5 221.6 26.7 C 221.6 26.7 217 26.7 217 26.7 C 217 27.3 217.2 27.9 217.5 28.2 C 217.9 28.6 218.3 28.8 218.8 28.8 C 219.2 28.8 219.6 28.7 219.8 28.5 C 220.1 28.3 220.3 27.9 220.5 27.5 Z M 217 25.8 C 217 25.8 220.5 25.8 220.5 25.8 C 220.4 25.3 220.3 24.9 220.1 24.6 C 219.8 24.2 219.3 24 218.8 24 C 218.3 24 217.9 24.2 217.6 24.5 C 217.2 24.8 217 25.2 217 25.8 Z M 222.9 29.5 L 222.9 23.3 L 223.8 23.3 C 223.8 23.3 223.84 24.16 223.8 24.2 C 224.3 23.5 225 23.1 225.8 23.1 C 226.2 23.1 226.5 23.2 226.9 23.3 C 227.2 23.5 227.4 23.7 227.6 23.9 C 227.7 24.1 227.8 24.3 227.9 24.6 C 227.9 24.8 227.9 25.2 227.9 25.7 C 227.95 25.67 227.9 29.5 227.9 29.5 L 226.9 29.5 C 226.9 29.5 226.89 25.71 226.9 25.7 C 226.9 25.3 226.9 25 226.8 24.8 C 226.7 24.5 226.5 24.4 226.3 24.2 C 226.1 24.1 225.9 24.1 225.6 24.1 C 225.1 24.1 224.8 24.2 224.4 24.5 C 224.1 24.8 223.9 25.3 223.9 26.1 C 223.95 26.1 223.9 29.5 223.9 29.5 L 222.9 29.5 Z M 233.6 27.2 C 233.6 27.2 234.7 27.4 234.7 27.4 C 234.5 28.1 234.3 28.6 233.8 29 C 233.3 29.4 232.8 29.6 232.1 29.6 C 231.2 29.6 230.5 29.4 230 28.8 C 229.5 28.2 229.2 27.5 229.2 26.4 C 229.2 25.7 229.4 25.2 229.6 24.6 C 229.8 24.1 230.1 23.8 230.6 23.5 C 231 23.3 231.5 23.1 232.1 23.1 C 232.8 23.1 233.3 23.3 233.7 23.6 C 234.2 24 234.4 24.5 234.6 25.1 C 234.6 25.1 233.5 25.3 233.5 25.3 C 233.4 24.8 233.3 24.5 233 24.3 C 232.8 24.1 232.5 24 232.1 24 C 231.6 24 231.2 24.2 230.8 24.6 C 230.5 25 230.3 25.6 230.3 26.4 C 230.3 27.2 230.5 27.8 230.8 28.2 C 231.1 28.6 231.5 28.8 232.1 28.8 C 232.5 28.8 232.8 28.6 233.1 28.4 C 233.4 28.1 233.6 27.7 233.6 27.2 Z M 239.8 27.5 C 239.8 27.5 240.9 27.6 240.9 27.6 C 240.7 28.3 240.4 28.8 240 29.1 C 239.5 29.5 238.9 29.6 238.2 29.6 C 237.3 29.6 236.5 29.4 236 28.8 C 235.5 28.2 235.2 27.5 235.2 26.4 C 235.2 25.4 235.5 24.6 236 24 C 236.6 23.4 237.3 23.1 238.1 23.1 C 239 23.1 239.6 23.4 240.2 24 C 240.7 24.6 240.9 25.3 240.9 26.4 C 240.9 26.4 240.9 26.5 240.9 26.7 C 240.9 26.7 236.3 26.7 236.3 26.7 C 236.3 27.3 236.5 27.9 236.9 28.2 C 237.2 28.6 237.7 28.8 238.2 28.8 C 238.6 28.8 238.9 28.7 239.2 28.5 C 239.4 28.3 239.7 27.9 239.8 27.5 Z M 236.4 25.8 C 236.4 25.8 239.8 25.8 239.8 25.8 C 239.8 25.3 239.7 24.9 239.4 24.6 C 239.1 24.2 238.7 24 238.1 24 C 237.6 24 237.2 24.2 236.9 24.5 C 236.6 24.8 236.4 25.2 236.4 25.8 Z " stroke="none" fill="#000"/>  </g>  <g id="Polygon44652">    <path d="M 0.9 25.3 C 0.9 25 0.9 24.7 1 24.4 C 1.2 24.2 1.3 23.9 1.5 23.8 C 1.7 23.6 1.9 23.4 2.2 23.3 C 2.4 23.2 2.7 23.1 3 23.1 C 3.3 23.1 3.6 23.2 3.8 23.3 C 4.1 23.4 4.3 23.6 4.5 23.8 C 4.7 23.9 4.8 24.2 5 24.4 C 5.1 24.7 5.1 25 5.1 25.3 C 5.1 25.5 5.1 25.8 5 26.1 C 4.8 26.3 4.7 26.6 4.5 26.8 C 4.3 26.9 4.1 27.1 3.8 27.2 C 3.6 27.3 3.3 27.4 3 27.4 C 2.7 27.4 2.4 27.3 2.2 27.2 C 1.9 27.1 1.7 26.9 1.5 26.8 C 1.3 26.6 1.2 26.3 1 26.1 C 0.9 25.8 0.9 25.5 0.9 25.3 Z " stroke="none" fill="#f28620"/>  </g>  <g id="Polygon44651">    <path d="M 18 12 L 21.3 3.4 L 22.5 3.4 L 26 12 L 24.7 12 L 23.7 9.4 L 20.1 9.4 L 19.2 12 L 18 12 Z M 20.5 8.5 L 23.4 8.5 C 23.4 8.5 22.48 6.09 22.5 6.1 C 22.2 5.4 22 4.8 21.9 4.3 C 21.8 4.9 21.6 5.4 21.4 6 C 21.4 5.95 20.5 8.5 20.5 8.5 Z M 26.8 14.4 L 26.8 5.8 L 27.8 5.8 C 27.8 5.8 27.76 6.59 27.8 6.6 C 28 6.3 28.2 6 28.5 5.9 C 28.8 5.7 29.2 5.6 29.6 5.6 C 30.1 5.6 30.6 5.8 31 6 C 31.4 6.3 31.7 6.7 31.9 7.2 C 32.1 7.7 32.2 8.2 32.2 8.8 C 32.2 9.5 32.1 10.1 31.9 10.6 C 31.6 11.1 31.3 11.5 30.9 11.7 C 30.4 12 30 12.1 29.5 12.1 C 29.1 12.1 28.8 12.1 28.5 11.9 C 28.3 11.8 28 11.6 27.8 11.4 C 27.85 11.36 27.8 14.4 27.8 14.4 L 26.8 14.4 Z M 27.8 8.9 C 27.8 9.7 27.9 10.3 28.2 10.7 C 28.6 11.1 29 11.3 29.4 11.3 C 29.9 11.3 30.3 11.1 30.6 10.7 C 31 10.3 31.1 9.7 31.1 8.8 C 31.1 8 31 7.4 30.6 7.1 C 30.3 6.7 29.9 6.5 29.5 6.5 C 29 6.5 28.6 6.7 28.3 7.1 C 27.9 7.5 27.8 8.1 27.8 8.9 Z M 33.5 14.4 L 33.5 5.8 L 34.4 5.8 C 34.4 5.8 34.43 6.59 34.4 6.6 C 34.7 6.3 34.9 6 35.2 5.9 C 35.5 5.7 35.8 5.6 36.2 5.6 C 36.8 5.6 37.2 5.8 37.6 6 C 38 6.3 38.4 6.7 38.6 7.2 C 38.8 7.7 38.9 8.2 38.9 8.8 C 38.9 9.5 38.8 10.1 38.5 10.6 C 38.3 11.1 38 11.5 37.5 11.7 C 37.1 12 36.6 12.1 36.2 12.1 C 35.8 12.1 35.5 12.1 35.2 11.9 C 34.9 11.8 34.7 11.6 34.5 11.4 C 34.52 11.36 34.5 14.4 34.5 14.4 L 33.5 14.4 Z M 34.4 8.9 C 34.4 9.7 34.6 10.3 34.9 10.7 C 35.2 11.1 35.6 11.3 36.1 11.3 C 36.6 11.3 37 11.1 37.3 10.7 C 37.6 10.3 37.8 9.7 37.8 8.8 C 37.8 8 37.6 7.4 37.3 7.1 C 37 6.7 36.6 6.5 36.1 6.5 C 35.7 6.5 35.3 6.7 34.9 7.1 C 34.6 7.5 34.4 8.1 34.4 8.9 Z M 40.1 12 L 40.1 5.8 L 41.1 5.8 C 41.1 5.8 41.08 6.72 41.1 6.7 C 41.3 6.3 41.5 6 41.8 5.8 C 42 5.7 42.2 5.6 42.4 5.6 C 42.8 5.6 43.1 5.8 43.5 6 C 43.5 6 43.1 7 43.1 7 C 42.9 6.8 42.6 6.7 42.4 6.7 C 42.1 6.7 41.9 6.8 41.8 6.9 C 41.6 7.1 41.4 7.3 41.4 7.5 C 41.2 7.9 41.2 8.3 41.2 8.7 C 41.19 8.74 41.2 12 41.2 12 L 40.1 12 Z M 48.4 10 C 48.4 10 49.5 10.1 49.5 10.1 C 49.3 10.8 49 11.3 48.5 11.6 C 48.1 12 47.5 12.1 46.8 12.1 C 45.8 12.1 45.1 11.9 44.6 11.3 C 44.1 10.7 43.8 10 43.8 8.9 C 43.8 7.9 44.1 7.1 44.6 6.5 C 45.1 5.9 45.8 5.6 46.7 5.6 C 47.5 5.6 48.2 5.9 48.7 6.5 C 49.3 7.1 49.5 7.8 49.5 8.9 C 49.5 8.9 49.5 9 49.5 9.2 C 49.5 9.2 44.9 9.2 44.9 9.2 C 44.9 9.8 45.1 10.4 45.5 10.7 C 45.8 11.1 46.2 11.3 46.8 11.3 C 47.1 11.3 47.5 11.2 47.7 11 C 48 10.8 48.2 10.4 48.4 10 Z M 44.9 8.3 C 44.9 8.3 48.4 8.3 48.4 8.3 C 48.4 7.8 48.2 7.4 48 7.1 C 47.7 6.7 47.2 6.5 46.7 6.5 C 46.2 6.5 45.8 6.7 45.5 7 C 45.2 7.3 45 7.7 44.9 8.3 Z M 50.8 12 L 50.8 5.8 L 51.8 5.8 C 51.8 5.8 51.76 6.66 51.8 6.7 C 52.2 6 52.9 5.6 53.7 5.6 C 54.1 5.6 54.5 5.7 54.8 5.8 C 55.1 6 55.3 6.2 55.5 6.4 C 55.6 6.6 55.7 6.8 55.8 7.1 C 55.8 7.3 55.9 7.7 55.9 8.2 C 55.87 8.17 55.9 12 55.9 12 L 54.8 12 C 54.8 12 54.81 8.21 54.8 8.2 C 54.8 7.8 54.8 7.5 54.7 7.3 C 54.6 7 54.5 6.9 54.3 6.7 C 54 6.6 53.8 6.6 53.5 6.6 C 53.1 6.6 52.7 6.7 52.4 7 C 52 7.3 51.9 7.8 51.9 8.6 C 51.87 8.6 51.9 12 51.9 12 L 50.8 12 Z M 59.3 11.1 C 59.4 11.1 59.6 11.1 59.8 11.1 C 59.8 11.1 59.9 12 59.9 12 C 59.6 12.1 59.4 12.1 59.1 12.1 C 58.8 12.1 58.5 12 58.3 11.9 C 58 11.8 57.9 11.6 57.8 11.4 C 57.7 11.2 57.7 10.8 57.7 10.2 C 57.68 10.18 57.7 6.6 57.7 6.6 L 56.9 6.6 L 56.9 5.8 L 57.7 5.8 L 57.7 4.2 L 58.7 3.6 L 58.7 5.8 L 59.8 5.8 L 59.8 6.6 L 58.7 6.6 C 58.7 6.6 58.73 10.24 58.7 10.2 C 58.7 10.5 58.7 10.7 58.8 10.8 C 58.8 10.9 58.9 11 59 11 C 59 11.1 59.2 11.1 59.3 11.1 C 59.3 11.1 59.3 11.1 59.3 11.1 Z M 60.8 4.6 L 60.8 3.4 L 61.9 3.4 L 61.9 4.6 L 60.8 4.6 Z M 60.8 12 L 60.8 5.8 L 61.9 5.8 L 61.9 12 L 60.8 12 Z M 67.5 9.7 C 67.5 9.7 68.6 9.9 68.6 9.9 C 68.5 10.6 68.2 11.1 67.7 11.5 C 67.2 11.9 66.7 12.1 66 12.1 C 65.1 12.1 64.5 11.9 63.9 11.3 C 63.4 10.7 63.2 10 63.2 8.9 C 63.2 8.2 63.3 7.7 63.5 7.1 C 63.7 6.6 64.1 6.3 64.5 6 C 65 5.8 65.5 5.6 66 5.6 C 66.7 5.6 67.2 5.8 67.7 6.1 C 68.1 6.5 68.4 7 68.5 7.6 C 68.5 7.6 67.5 7.8 67.5 7.8 C 67.4 7.3 67.2 7 66.9 6.8 C 66.7 6.6 66.4 6.5 66 6.5 C 65.5 6.5 65.1 6.7 64.7 7.1 C 64.4 7.5 64.2 8.1 64.2 8.9 C 64.2 9.7 64.4 10.3 64.7 10.7 C 65 11.1 65.5 11.3 66 11.3 C 66.4 11.3 66.7 11.1 67 10.9 C 67.3 10.6 67.5 10.2 67.5 9.7 Z M 73.7 10 C 73.7 10 74.8 10.1 74.8 10.1 C 74.7 10.8 74.3 11.3 73.9 11.6 C 73.4 12 72.8 12.1 72.1 12.1 C 71.2 12.1 70.5 11.9 69.9 11.3 C 69.4 10.7 69.1 10 69.1 8.9 C 69.1 7.9 69.4 7.1 69.9 6.5 C 70.5 5.9 71.2 5.6 72 5.6 C 72.9 5.6 73.6 5.9 74.1 6.5 C 74.6 7.1 74.9 7.8 74.9 8.9 C 74.9 8.9 74.9 9 74.9 9.2 C 74.9 9.2 70.2 9.2 70.2 9.2 C 70.3 9.8 70.5 10.4 70.8 10.7 C 71.2 11.1 71.6 11.3 72.1 11.3 C 72.5 11.3 72.8 11.2 73.1 11 C 73.4 10.8 73.6 10.4 73.7 10 Z M 70.3 8.3 C 70.3 8.3 73.8 8.3 73.8 8.3 C 73.7 7.8 73.6 7.4 73.4 7.1 C 73 6.7 72.6 6.5 72.1 6.5 C 71.6 6.5 71.2 6.7 70.8 7 C 70.5 7.3 70.3 7.7 70.3 8.3 Z M 75.7 10.1 C 75.7 10.1 76.8 10 76.8 10 C 76.8 10.4 77 10.7 77.3 10.9 C 77.5 11.2 77.9 11.3 78.4 11.3 C 78.9 11.3 79.2 11.2 79.5 11 C 79.7 10.8 79.8 10.5 79.8 10.3 C 79.8 10 79.7 9.9 79.5 9.7 C 79.4 9.6 79 9.5 78.4 9.4 C 77.7 9.2 77.1 9 76.8 8.9 C 76.5 8.7 76.3 8.5 76.1 8.3 C 76 8 75.9 7.7 75.9 7.4 C 75.9 7.2 76 6.9 76.1 6.7 C 76.2 6.4 76.4 6.2 76.6 6.1 C 76.8 5.9 77 5.8 77.3 5.8 C 77.6 5.7 77.9 5.6 78.2 5.6 C 78.7 5.6 79.1 5.7 79.5 5.8 C 79.9 6 80.1 6.2 80.3 6.4 C 80.5 6.7 80.6 7 80.7 7.4 C 80.7 7.4 79.6 7.5 79.6 7.5 C 79.6 7.2 79.5 7 79.2 6.8 C 79 6.6 78.7 6.5 78.3 6.5 C 77.8 6.5 77.5 6.6 77.2 6.7 C 77 6.9 76.9 7.1 76.9 7.3 C 76.9 7.4 77 7.6 77.1 7.7 C 77.1 7.8 77.3 7.9 77.5 8 C 77.6 8 77.9 8.1 78.4 8.2 C 79.1 8.4 79.7 8.6 80 8.7 C 80.3 8.8 80.5 9 80.7 9.3 C 80.8 9.5 80.9 9.8 80.9 10.2 C 80.9 10.5 80.8 10.9 80.6 11.2 C 80.4 11.5 80.1 11.7 79.7 11.9 C 79.3 12.1 78.9 12.1 78.4 12.1 C 77.6 12.1 77 12 76.5 11.6 C 76.1 11.3 75.9 10.8 75.7 10.1 Z M 82.2 12 L 82.2 3.4 L 83.2 3.4 C 83.2 3.4 83.21 6.49 83.2 6.5 C 83.7 5.9 84.3 5.6 85.1 5.6 C 85.5 5.6 85.9 5.7 86.3 5.9 C 86.6 6.1 86.9 6.3 87 6.7 C 87.2 7 87.2 7.4 87.2 8.1 C 87.23 8.06 87.2 12 87.2 12 L 86.2 12 C 86.2 12 86.17 8.06 86.2 8.1 C 86.2 7.5 86.1 7.1 85.8 6.9 C 85.6 6.7 85.3 6.5 84.9 6.5 C 84.5 6.5 84.3 6.6 84 6.8 C 83.7 7 83.5 7.2 83.4 7.4 C 83.3 7.7 83.2 8.1 83.2 8.6 C 83.21 8.6 83.2 12 83.2 12 L 82.2 12 Z M 88.8 4.6 L 88.8 3.4 L 89.9 3.4 L 89.9 4.6 L 88.8 4.6 Z M 88.8 12 L 88.8 5.8 L 89.9 5.8 L 89.9 12 L 88.8 12 Z M 91.5 14.4 L 91.5 5.8 L 92.5 5.8 C 92.5 5.8 92.46 6.59 92.5 6.6 C 92.7 6.3 92.9 6 93.2 5.9 C 93.5 5.7 93.9 5.6 94.3 5.6 C 94.8 5.6 95.3 5.8 95.7 6 C 96.1 6.3 96.4 6.7 96.6 7.2 C 96.8 7.7 96.9 8.2 96.9 8.8 C 96.9 9.5 96.8 10.1 96.6 10.6 C 96.3 11.1 96 11.5 95.6 11.7 C 95.1 12 94.7 12.1 94.2 12.1 C 93.8 12.1 93.5 12.1 93.2 11.9 C 93 11.8 92.7 11.6 92.6 11.4 C 92.55 11.36 92.6 14.4 92.6 14.4 L 91.5 14.4 Z M 92.5 8.9 C 92.5 9.7 92.6 10.3 92.9 10.7 C 93.3 11.1 93.7 11.3 94.1 11.3 C 94.6 11.3 95 11.1 95.3 10.7 C 95.7 10.3 95.8 9.7 95.8 8.8 C 95.8 8 95.7 7.4 95.3 7.1 C 95 6.7 94.6 6.5 94.2 6.5 C 93.7 6.5 93.3 6.7 93 7.1 C 92.6 7.5 92.5 8.1 92.5 8.9 Z M 100 12 L 103.3 3.4 L 104.6 3.4 L 108.1 12 L 106.8 12 L 105.8 9.4 L 102.2 9.4 L 101.2 12 L 100 12 Z M 102.5 8.5 L 105.4 8.5 C 105.4 8.5 104.53 6.09 104.5 6.1 C 104.3 5.4 104.1 4.8 103.9 4.3 C 103.8 4.9 103.7 5.4 103.5 6 C 103.46 5.95 102.5 8.5 102.5 8.5 Z M 108.4 10.1 C 108.4 10.1 109.5 10 109.5 10 C 109.5 10.4 109.7 10.7 110 10.9 C 110.2 11.2 110.6 11.3 111.1 11.3 C 111.6 11.3 111.9 11.2 112.2 11 C 112.4 10.8 112.5 10.5 112.5 10.3 C 112.5 10 112.4 9.9 112.2 9.7 C 112.1 9.6 111.7 9.5 111.1 9.4 C 110.3 9.2 109.8 9 109.5 8.9 C 109.2 8.7 109 8.5 108.8 8.3 C 108.7 8 108.6 7.7 108.6 7.4 C 108.6 7.2 108.7 6.9 108.8 6.7 C 108.9 6.4 109.1 6.2 109.3 6.1 C 109.5 5.9 109.7 5.8 110 5.8 C 110.3 5.7 110.6 5.6 110.9 5.6 C 111.4 5.6 111.8 5.7 112.2 5.8 C 112.5 6 112.8 6.2 113 6.4 C 113.2 6.7 113.3 7 113.4 7.4 C 113.4 7.4 112.3 7.5 112.3 7.5 C 112.3 7.2 112.1 7 111.9 6.8 C 111.7 6.6 111.4 6.5 111 6.5 C 110.5 6.5 110.1 6.6 109.9 6.7 C 109.7 6.9 109.6 7.1 109.6 7.3 C 109.6 7.4 109.7 7.6 109.8 7.7 C 109.8 7.8 110 7.9 110.2 8 C 110.3 8 110.6 8.1 111.1 8.2 C 111.8 8.4 112.4 8.6 112.6 8.7 C 112.9 8.8 113.2 9 113.3 9.3 C 113.5 9.5 113.6 9.8 113.6 10.2 C 113.6 10.5 113.5 10.9 113.3 11.2 C 113.1 11.5 112.8 11.7 112.4 11.9 C 112 12.1 111.6 12.1 111.1 12.1 C 110.3 12.1 109.7 12 109.2 11.6 C 108.8 11.3 108.5 10.8 108.4 10.1 Z M 114.4 10.1 C 114.4 10.1 115.5 10 115.5 10 C 115.5 10.4 115.7 10.7 116 10.9 C 116.2 11.2 116.6 11.3 117.1 11.3 C 117.6 11.3 117.9 11.2 118.2 11 C 118.4 10.8 118.5 10.5 118.5 10.3 C 118.5 10 118.4 9.9 118.2 9.7 C 118.1 9.6 117.7 9.5 117.1 9.4 C 116.3 9.2 115.8 9 115.5 8.9 C 115.2 8.7 115 8.5 114.8 8.3 C 114.7 8 114.6 7.7 114.6 7.4 C 114.6 7.2 114.7 6.9 114.8 6.7 C 114.9 6.4 115.1 6.2 115.3 6.1 C 115.5 5.9 115.7 5.8 116 5.8 C 116.3 5.7 116.6 5.6 116.9 5.6 C 117.4 5.6 117.8 5.7 118.2 5.8 C 118.5 6 118.8 6.2 119 6.4 C 119.2 6.7 119.3 7 119.4 7.4 C 119.4 7.4 118.3 7.5 118.3 7.5 C 118.3 7.2 118.1 7 117.9 6.8 C 117.7 6.6 117.4 6.5 117 6.5 C 116.5 6.5 116.1 6.6 115.9 6.7 C 115.7 6.9 115.6 7.1 115.6 7.3 C 115.6 7.4 115.7 7.6 115.8 7.7 C 115.8 7.8 116 7.9 116.2 8 C 116.3 8 116.6 8.1 117.1 8.2 C 117.8 8.4 118.4 8.6 118.6 8.7 C 118.9 8.8 119.2 9 119.3 9.3 C 119.5 9.5 119.6 9.8 119.6 10.2 C 119.6 10.5 119.5 10.9 119.3 11.2 C 119.1 11.5 118.8 11.7 118.4 11.9 C 118 12.1 117.6 12.1 117.1 12.1 C 116.3 12.1 115.7 12 115.2 11.6 C 114.8 11.3 114.5 10.8 114.4 10.1 Z M 125.1 10 C 125.1 10 126.2 10.1 126.2 10.1 C 126 10.8 125.7 11.3 125.2 11.6 C 124.8 12 124.2 12.1 123.5 12.1 C 122.6 12.1 121.8 11.9 121.3 11.3 C 120.8 10.7 120.5 10 120.5 8.9 C 120.5 7.9 120.8 7.1 121.3 6.5 C 121.8 5.9 122.5 5.6 123.4 5.6 C 124.2 5.6 124.9 5.9 125.4 6.5 C 126 7.1 126.2 7.8 126.2 8.9 C 126.2 8.9 126.2 9 126.2 9.2 C 126.2 9.2 121.6 9.2 121.6 9.2 C 121.6 9.8 121.8 10.4 122.2 10.7 C 122.5 11.1 122.9 11.3 123.5 11.3 C 123.9 11.3 124.2 11.2 124.5 11 C 124.7 10.8 124.9 10.4 125.1 10 Z M 121.6 8.3 C 121.6 8.3 125.1 8.3 125.1 8.3 C 125.1 7.8 124.9 7.4 124.7 7.1 C 124.4 6.7 124 6.5 123.4 6.5 C 122.9 6.5 122.5 6.7 122.2 7 C 121.9 7.3 121.7 7.7 121.6 8.3 Z M 127.1 10.1 C 127.1 10.1 128.1 10 128.1 10 C 128.2 10.4 128.4 10.7 128.6 10.9 C 128.9 11.2 129.3 11.3 129.8 11.3 C 130.2 11.3 130.6 11.2 130.8 11 C 131.1 10.8 131.2 10.5 131.2 10.3 C 131.2 10 131.1 9.9 130.9 9.7 C 130.7 9.6 130.4 9.5 129.8 9.4 C 129 9.2 128.5 9 128.2 8.9 C 127.9 8.7 127.7 8.5 127.5 8.3 C 127.4 8 127.3 7.7 127.3 7.4 C 127.3 7.2 127.3 6.9 127.5 6.7 C 127.6 6.4 127.8 6.2 128 6.1 C 128.2 5.9 128.4 5.8 128.7 5.8 C 128.9 5.7 129.2 5.6 129.6 5.6 C 130.1 5.6 130.5 5.7 130.9 5.8 C 131.2 6 131.5 6.2 131.7 6.4 C 131.8 6.7 132 7 132 7.4 C 132 7.4 131 7.5 131 7.5 C 131 7.2 130.8 7 130.6 6.8 C 130.4 6.6 130.1 6.5 129.6 6.5 C 129.2 6.5 128.8 6.6 128.6 6.7 C 128.4 6.9 128.3 7.1 128.3 7.3 C 128.3 7.4 128.3 7.6 128.4 7.7 C 128.5 7.8 128.6 7.9 128.8 8 C 128.9 8 129.2 8.1 129.8 8.2 C 130.5 8.4 131 8.6 131.3 8.7 C 131.6 8.8 131.8 9 132 9.3 C 132.2 9.5 132.3 9.8 132.3 10.2 C 132.3 10.5 132.2 10.9 132 11.2 C 131.8 11.5 131.5 11.7 131.1 11.9 C 130.7 12.1 130.2 12.1 129.8 12.1 C 129 12.1 128.3 12 127.9 11.6 C 127.5 11.3 127.2 10.8 127.1 10.1 Z M 133.1 10.1 C 133.1 10.1 134.1 10 134.1 10 C 134.2 10.4 134.4 10.7 134.6 10.9 C 134.9 11.2 135.3 11.3 135.8 11.3 C 136.2 11.3 136.6 11.2 136.8 11 C 137.1 10.8 137.2 10.5 137.2 10.3 C 137.2 10 137.1 9.9 136.9 9.7 C 136.7 9.6 136.4 9.5 135.8 9.4 C 135 9.2 134.5 9 134.2 8.9 C 133.9 8.7 133.7 8.5 133.5 8.3 C 133.4 8 133.3 7.7 133.3 7.4 C 133.3 7.2 133.3 6.9 133.5 6.7 C 133.6 6.4 133.8 6.2 134 6.1 C 134.2 5.9 134.4 5.8 134.7 5.8 C 134.9 5.7 135.2 5.6 135.6 5.6 C 136.1 5.6 136.5 5.7 136.9 5.8 C 137.2 6 137.5 6.2 137.7 6.4 C 137.8 6.7 138 7 138 7.4 C 138 7.4 137 7.5 137 7.5 C 137 7.2 136.8 7 136.6 6.8 C 136.4 6.6 136.1 6.5 135.6 6.5 C 135.2 6.5 134.8 6.6 134.6 6.7 C 134.4 6.9 134.3 7.1 134.3 7.3 C 134.3 7.4 134.3 7.6 134.4 7.7 C 134.5 7.8 134.6 7.9 134.8 8 C 134.9 8 135.2 8.1 135.8 8.2 C 136.5 8.4 137 8.6 137.3 8.7 C 137.6 8.8 137.8 9 138 9.3 C 138.2 9.5 138.3 9.8 138.3 10.2 C 138.3 10.5 138.2 10.9 138 11.2 C 137.8 11.5 137.5 11.7 137.1 11.9 C 136.7 12.1 136.2 12.1 135.8 12.1 C 135 12.1 134.3 12 133.9 11.6 C 133.5 11.3 133.2 10.8 133.1 10.1 Z M 139.5 12 L 139.5 5.8 L 140.5 5.8 C 140.5 5.8 140.47 6.65 140.5 6.7 C 140.7 6.3 140.9 6.1 141.2 5.9 C 141.6 5.7 141.9 5.6 142.4 5.6 C 142.8 5.6 143.2 5.7 143.5 5.9 C 143.8 6.1 144 6.4 144.1 6.7 C 144.6 6 145.2 5.6 146 5.6 C 146.7 5.6 147.1 5.8 147.5 6.1 C 147.8 6.5 148 7 148 7.7 C 147.96 7.73 148 12 148 12 L 146.9 12 C 146.9 12 146.91 8.08 146.9 8.1 C 146.9 7.7 146.9 7.4 146.8 7.2 C 146.7 7 146.6 6.8 146.4 6.7 C 146.3 6.6 146 6.6 145.8 6.6 C 145.4 6.6 145 6.7 144.7 7 C 144.4 7.3 144.3 7.7 144.3 8.4 C 144.28 8.38 144.3 12 144.3 12 L 143.2 12 C 143.2 12 143.22 7.96 143.2 8 C 143.2 7.5 143.1 7.1 143 6.9 C 142.8 6.7 142.5 6.6 142.1 6.6 C 141.8 6.6 141.5 6.6 141.3 6.8 C 141 6.9 140.9 7.2 140.7 7.5 C 140.6 7.8 140.6 8.2 140.6 8.8 C 140.58 8.77 140.6 12 140.6 12 L 139.5 12 Z M 153.8 10 C 153.8 10 154.9 10.1 154.9 10.1 C 154.7 10.8 154.4 11.3 153.9 11.6 C 153.4 12 152.9 12.1 152.1 12.1 C 151.2 12.1 150.5 11.9 150 11.3 C 149.4 10.7 149.2 10 149.2 8.9 C 149.2 7.9 149.4 7.1 150 6.5 C 150.5 5.9 151.2 5.6 152.1 5.6 C 152.9 5.6 153.6 5.9 154.1 6.5 C 154.6 7.1 154.9 7.8 154.9 8.9 C 154.9 8.9 154.9 9 154.9 9.2 C 154.9 9.2 150.3 9.2 150.3 9.2 C 150.3 9.8 150.5 10.4 150.8 10.7 C 151.2 11.1 151.6 11.3 152.1 11.3 C 152.5 11.3 152.9 11.2 153.1 11 C 153.4 10.8 153.6 10.4 153.8 10 Z M 150.3 8.3 C 150.3 8.3 153.8 8.3 153.8 8.3 C 153.7 7.8 153.6 7.4 153.4 7.1 C 153.1 6.7 152.6 6.5 152.1 6.5 C 151.6 6.5 151.2 6.7 150.9 7 C 150.5 7.3 150.4 7.7 150.3 8.3 Z M 156.2 12 L 156.2 5.8 L 157.1 5.8 C 157.1 5.8 157.14 6.66 157.1 6.7 C 157.6 6 158.3 5.6 159.1 5.6 C 159.5 5.6 159.8 5.7 160.2 5.8 C 160.5 6 160.7 6.2 160.9 6.4 C 161 6.6 161.1 6.8 161.2 7.1 C 161.2 7.3 161.3 7.7 161.3 8.2 C 161.25 8.17 161.3 12 161.3 12 L 160.2 12 C 160.2 12 160.2 8.21 160.2 8.2 C 160.2 7.8 160.2 7.5 160.1 7.3 C 160 7 159.8 6.9 159.6 6.7 C 159.4 6.6 159.2 6.6 158.9 6.6 C 158.5 6.6 158.1 6.7 157.7 7 C 157.4 7.3 157.2 7.8 157.2 8.6 C 157.25 8.6 157.2 12 157.2 12 L 156.2 12 Z M 164.7 11.1 C 164.8 11.1 165 11.1 165.2 11.1 C 165.2 11.1 165.3 12 165.3 12 C 165 12.1 164.8 12.1 164.5 12.1 C 164.1 12.1 163.8 12 163.6 11.9 C 163.4 11.8 163.3 11.6 163.2 11.4 C 163.1 11.2 163.1 10.8 163.1 10.2 C 163.06 10.18 163.1 6.6 163.1 6.6 L 162.3 6.6 L 162.3 5.8 L 163.1 5.8 L 163.1 4.2 L 164.1 3.6 L 164.1 5.8 L 165.2 5.8 L 165.2 6.6 L 164.1 6.6 C 164.1 6.6 164.11 10.24 164.1 10.2 C 164.1 10.5 164.1 10.7 164.2 10.8 C 164.2 10.9 164.3 11 164.3 11 C 164.4 11.1 164.6 11.1 164.7 11.1 C 164.7 11.1 164.7 11.1 164.7 11.1 Z " stroke="none" fill="#000"/>  </g>  <g id="Polygon44650">    <path d="M 0.9 7.8 C 0.9 7.5 0.9 7.2 1 6.9 C 1.2 6.7 1.3 6.4 1.5 6.3 C 1.7 6.1 1.9 5.9 2.2 5.8 C 2.4 5.7 2.7 5.6 3 5.6 C 3.3 5.6 3.6 5.7 3.8 5.8 C 4.1 5.9 4.3 6.1 4.5 6.3 C 4.7 6.4 4.8 6.7 5 6.9 C 5.1 7.2 5.1 7.5 5.1 7.8 C 5.1 8 5.1 8.3 5 8.6 C 4.8 8.8 4.7 9.1 4.5 9.3 C 4.3 9.4 4.1 9.6 3.8 9.7 C 3.6 9.8 3.3 9.9 3 9.9 C 2.7 9.9 2.4 9.8 2.2 9.7 C 1.9 9.6 1.7 9.4 1.5 9.3 C 1.3 9.1 1.2 8.8 1 8.6 C 0.9 8.3 0.9 8 0.9 7.8 Z " stroke="none" fill="#f28620"/>  </g></svg>