<?xml version="1.0" standalone="no"?><!DOCTYPE svg PUBLIC "-//W3C//DTD SVG 1.1//EN" "http://www.w3.org/Graphics/SVG/1.1/DTD/svg11.dtd"><svg xmlns="http://www.w3.org/2000/svg" version="1.1" width="587px" height="46.1px" viewBox="0 -8 587 46.1" style="top:-8px">  <desc>Bespoke and Collaborative Approach</desc>  <defs/>  <g id="Polygon44247">    <path d="M 7.6 1.4 C 11.4 1.4 13.9 3.4 13.9 6.6 C 13.9 8.8 12.7 10.4 10.5 11.1 C 13.7 11.6 15.7 13.7 15.7 16.4 C 15.7 20.2 12.3 21.9 8.6 21.9 C 8.55 21.87 2.3 21.9 2.3 21.9 L 2.3 1.4 C 2.3 1.4 7.59 1.41 7.6 1.4 Z M 4.5 10.5 C 4.5 10.5 6.78 10.5 6.8 10.5 C 10.1 10.5 11.6 8.9 11.6 6.8 C 11.6 4.5 10.2 3.4 7.1 3.4 C 7.14 3.39 4.5 3.4 4.5 3.4 L 4.5 10.5 Z M 8.1 19.9 C 11.4 19.9 13.3 18.8 13.3 16.2 C 13.3 13.8 11.7 12.4 7.8 12.4 C 7.8 12.45 4.5 12.4 4.5 12.4 L 4.5 19.9 C 4.5 19.9 8.13 19.89 8.1 19.9 Z M 30.2 1.4 L 30.2 3.4 L 21.3 3.4 L 21.3 10.6 L 29.9 10.6 L 29.9 12.6 L 21.3 12.6 L 21.3 19.8 L 30.4 19.8 L 30.4 21.9 L 19 21.9 L 19 1.4 L 30.2 1.4 Z M 43.6 2.5 C 43.6 2.5 43.6 5 43.6 5 C 42.1 3.8 40.6 3.2 38.9 3.2 C 36.8 3.2 35.4 4.4 35.4 6.1 C 35.4 7.5 35.7 8.7 39.1 10.4 C 43.3 12.6 44.3 14 44.3 16.8 C 44.3 19.9 42 22.1 38.5 22.1 C 36.5 22.1 34.7 21.5 33.2 20.3 C 33.2 20.3 33.2 17.5 33.2 17.5 C 34.7 19.2 36.5 20.1 38.5 20.1 C 40.6 20.1 42.1 18.8 42.1 16.9 C 42.1 15.1 41.5 14.1 37.5 12 C 34.3 10.4 33.1 8.8 33.1 6.2 C 33.1 3.3 35.6 1.1 39 1.1 C 40.6 1.1 42.2 1.6 43.6 2.5 Z M 53.7 1.4 C 57.7 1.4 60.2 3.5 60.2 7 C 60.2 10.9 57.7 12.7 53.3 12.7 C 53.28 12.66 50.1 12.7 50.1 12.7 L 50.1 21.9 L 47.8 21.9 L 47.8 1.4 C 47.8 1.4 53.67 1.41 53.7 1.4 Z M 50.1 10.7 C 50.1 10.7 53.22 10.68 53.2 10.7 C 56.7 10.7 57.9 9.3 57.9 7 C 57.9 4.7 56.5 3.4 53.2 3.4 C 53.22 3.39 50.1 3.4 50.1 3.4 L 50.1 10.7 Z M 84.1 11.5 C 84.1 17.3 79.9 22.1 73.1 22.1 C 66.8 22.1 62.5 17.3 62.5 11.8 C 62.5 6.1 66.6 1.1 73.2 1.1 C 79.8 1.1 84.1 5.9 84.1 11.5 Z M 64.8 11.7 C 64.8 16.5 68.6 20 73.2 20 C 79.3 20 81.7 15.3 81.7 11.6 C 81.7 7.5 78.7 3.3 73.3 3.3 C 67.8 3.3 64.8 7.5 64.8 11.7 Z M 90 1.4 L 90 11 L 99 1.4 L 101.8 1.4 L 92.7 11.2 L 103.6 21.9 L 100.5 21.9 L 90 11.7 L 90 21.9 L 87.8 21.9 L 87.8 1.4 L 90 1.4 Z M 117 1.4 L 117 3.4 L 108.1 3.4 L 108.1 10.6 L 116.7 10.6 L 116.7 12.6 L 108.1 12.6 L 108.1 19.8 L 117.3 19.8 L 117.3 21.9 L 105.8 21.9 L 105.8 1.4 L 117 1.4 Z M 137.4 1.3 L 146.5 21.9 L 144.2 21.9 L 141.4 15.4 L 132.1 15.4 L 129.3 21.9 L 127 21.9 L 135.8 1.3 L 137.4 1.3 Z M 132.9 13.4 L 140.5 13.4 L 136.6 4.7 L 132.9 13.4 Z M 150.7 1.4 L 165.2 18.3 L 165.2 1.4 L 167.4 1.4 L 167.4 21.9 L 165.4 21.9 L 151 5 L 151 21.9 L 148.9 21.9 L 148.9 1.4 L 150.7 1.4 Z M 172 1.4 C 172 1.4 179.52 1.41 179.5 1.4 C 186.2 1.4 190.5 5.6 190.5 11.4 C 190.5 17.8 186 21.9 179.5 21.9 C 179.52 21.87 172 21.9 172 21.9 L 172 1.4 Z M 179.5 19.8 C 184.9 19.8 188.2 16.6 188.2 11.6 C 188.2 6.7 184.9 3.4 179.2 3.4 C 179.16 3.42 174.2 3.4 174.2 3.4 L 174.2 19.8 C 174.2 19.8 179.49 19.83 179.5 19.8 Z M 219.5 2.8 C 219.5 2.8 219.5 5.2 219.5 5.2 C 217.3 4 215 3.2 212.6 3.2 C 207.4 3.2 204.1 7.2 204.1 11.7 C 204.1 16.3 207.3 20 212.5 20 C 215.1 20 217.5 19.3 219.7 17.9 C 219.7 17.9 219.7 20.4 219.7 20.4 C 217.4 21.6 215 22.1 212.5 22.1 C 205.4 22.1 201.7 16.8 201.7 11.7 C 201.7 5.6 206.4 1.1 212.5 1.1 C 214.9 1.1 217.2 1.7 219.5 2.8 Z M 243.1 11.5 C 243.1 17.3 238.9 22.1 232.2 22.1 C 225.8 22.1 221.6 17.3 221.6 11.8 C 221.6 6.1 225.7 1.1 232.3 1.1 C 238.8 1.1 243.1 5.9 243.1 11.5 Z M 223.9 11.7 C 223.9 16.5 227.6 20 232.2 20 C 238.3 20 240.8 15.3 240.8 11.6 C 240.8 7.5 237.7 3.3 232.4 3.3 C 226.8 3.3 223.9 7.5 223.9 11.7 Z M 249.1 1.4 L 249.1 19.8 L 258.7 19.8 L 258.7 21.9 L 246.8 21.9 L 246.8 1.4 L 249.1 1.4 Z M 263.6 1.4 L 263.6 19.8 L 273.2 19.8 L 273.2 21.9 L 261.3 21.9 L 261.3 1.4 L 263.6 1.4 Z M 284.5 1.3 L 293.6 21.9 L 291.3 21.9 L 288.4 15.4 L 279.1 15.4 L 276.4 21.9 L 274 21.9 L 282.9 1.3 L 284.5 1.3 Z M 280 13.4 L 287.5 13.4 L 283.6 4.7 L 280 13.4 Z M 301.2 1.4 C 305 1.4 307.6 3.4 307.6 6.6 C 307.6 8.8 306.4 10.4 304.2 11.1 C 307.3 11.6 309.3 13.7 309.3 16.4 C 309.3 20.2 305.9 21.9 302.2 21.9 C 302.19 21.87 295.9 21.9 295.9 21.9 L 295.9 1.4 C 295.9 1.4 301.23 1.41 301.2 1.4 Z M 298.2 10.5 C 298.2 10.5 300.42 10.5 300.4 10.5 C 303.8 10.5 305.2 8.9 305.2 6.8 C 305.2 4.5 303.8 3.4 300.8 3.4 C 300.78 3.39 298.2 3.4 298.2 3.4 L 298.2 10.5 Z M 301.8 19.9 C 305 19.9 307 18.8 307 16.2 C 307 13.8 305.3 12.4 301.4 12.4 C 301.44 12.45 298.2 12.4 298.2 12.4 L 298.2 19.9 C 298.2 19.9 301.77 19.89 301.8 19.9 Z M 333 11.5 C 333 17.3 328.8 22.1 322 22.1 C 315.7 22.1 311.4 17.3 311.4 11.8 C 311.4 6.1 315.5 1.1 322.1 1.1 C 328.6 1.1 333 5.9 333 11.5 Z M 313.7 11.7 C 313.7 16.5 317.5 20 322 20 C 328.1 20 330.6 15.3 330.6 11.6 C 330.6 7.5 327.6 3.3 322.2 3.3 C 316.6 3.3 313.7 7.5 313.7 11.7 Z M 336.7 1.4 C 336.7 1.4 342.03 1.41 342 1.4 C 346.1 1.4 348.3 3.8 348.3 6.9 C 348.3 9.4 346.9 11.2 344.4 11.9 C 345.7 12.6 346.3 13.2 348 15.7 C 348 15.75 352 21.9 352 21.9 L 349.3 21.9 C 349.3 21.9 345.69 16.23 345.7 16.2 C 343.8 13.2 342.5 12.6 340.8 12.6 C 340.8 12.57 338.9 12.6 338.9 12.6 L 338.9 21.9 L 336.7 21.9 L 336.7 1.4 Z M 341 10.6 C 343.8 10.6 346 9.9 346 6.9 C 346 4.4 344.3 3.4 341.7 3.4 C 341.73 3.39 338.9 3.4 338.9 3.4 L 338.9 10.6 C 338.9 10.6 341.01 10.59 341 10.6 Z M 362.4 1.3 L 371.5 21.9 L 369.2 21.9 L 366.3 15.4 L 357 15.4 L 354.3 21.9 L 352 21.9 L 360.8 1.3 L 362.4 1.3 Z M 357.9 13.4 L 365.4 13.4 L 361.6 4.7 L 357.9 13.4 Z M 386.3 1.4 L 386.3 3.4 L 379 3.4 L 379 21.9 L 376.7 21.9 L 376.7 3.4 L 369.5 3.4 L 369.5 1.4 L 386.3 1.4 Z M 391.3 1.4 L 391.3 21.9 L 389 21.9 L 389 1.4 L 391.3 1.4 Z M 393.6 1.4 L 395.9 1.4 L 402.5 17.3 L 402.6 17.3 L 409.2 1.4 L 411.4 1.4 L 402.8 22.1 L 402.3 22.1 L 393.6 1.4 Z M 425 1.4 L 425 3.4 L 416 3.4 L 416 10.6 L 424.7 10.6 L 424.7 12.6 L 416 12.6 L 416 19.8 L 425.2 19.8 L 425.2 21.9 L 413.8 21.9 L 413.8 1.4 L 425 1.4 Z M 445.4 1.3 L 454.5 21.9 L 452.2 21.9 L 449.3 15.4 L 440 15.4 L 437.2 21.9 L 434.9 21.9 L 443.8 1.3 L 445.4 1.3 Z M 440.9 13.4 L 448.4 13.4 L 444.5 4.7 L 440.9 13.4 Z M 462.7 1.4 C 466.7 1.4 469.2 3.5 469.2 7 C 469.2 10.9 466.6 12.7 462.3 12.7 C 462.27 12.66 459.1 12.7 459.1 12.7 L 459.1 21.9 L 456.8 21.9 L 456.8 1.4 C 456.8 1.4 462.66 1.41 462.7 1.4 Z M 459.1 10.7 C 459.1 10.7 462.21 10.68 462.2 10.7 C 465.7 10.7 466.9 9.3 466.9 7 C 466.9 4.7 465.5 3.4 462.2 3.4 C 462.21 3.39 459.1 3.4 459.1 3.4 L 459.1 10.7 Z M 478.2 1.4 C 482.3 1.4 484.8 3.5 484.8 7 C 484.8 10.9 482.2 12.7 477.8 12.7 C 477.84 12.66 474.7 12.7 474.7 12.7 L 474.7 21.9 L 472.4 21.9 L 472.4 1.4 C 472.4 1.4 478.23 1.41 478.2 1.4 Z M 474.7 10.7 C 474.7 10.7 477.78 10.68 477.8 10.7 C 481.2 10.7 482.5 9.3 482.5 7 C 482.5 4.7 481.1 3.4 477.8 3.4 C 477.78 3.39 474.7 3.4 474.7 3.4 L 474.7 10.7 Z M 488 1.4 C 488 1.4 493.35 1.41 493.3 1.4 C 497.5 1.4 499.6 3.8 499.6 6.9 C 499.6 9.4 498.2 11.2 495.7 11.9 C 497 12.6 497.6 13.2 499.3 15.7 C 499.32 15.75 503.3 21.9 503.3 21.9 L 500.6 21.9 C 500.6 21.9 497.01 16.23 497 16.2 C 495.1 13.2 493.9 12.6 492.1 12.6 C 492.12 12.57 490.2 12.6 490.2 12.6 L 490.2 21.9 L 488 21.9 L 488 1.4 Z M 492.3 10.6 C 495.1 10.6 497.3 9.9 497.3 6.9 C 497.3 4.4 495.7 3.4 493 3.4 C 493.05 3.39 490.2 3.4 490.2 3.4 L 490.2 10.6 C 490.2 10.6 492.33 10.59 492.3 10.6 Z M 525.6 11.5 C 525.6 17.3 521.4 22.1 514.6 22.1 C 508.3 22.1 504 17.3 504 11.8 C 504 6.1 508.1 1.1 514.7 1.1 C 521.3 1.1 525.6 5.9 525.6 11.5 Z M 506.3 11.7 C 506.3 16.5 510.1 20 514.7 20 C 520.8 20 523.3 15.3 523.3 11.6 C 523.3 7.5 520.2 3.3 514.9 3.3 C 509.3 3.3 506.3 7.5 506.3 11.7 Z M 536.6 1.3 L 545.7 21.9 L 543.4 21.9 L 540.5 15.4 L 531.2 15.4 L 528.4 21.9 L 526.1 21.9 L 535 1.3 L 536.6 1.3 Z M 532.1 13.4 L 539.6 13.4 L 535.7 4.7 L 532.1 13.4 Z M 564 2.8 C 564 2.8 564 5.2 564 5.2 C 561.9 4 559.5 3.2 557.1 3.2 C 551.9 3.2 548.6 7.2 548.6 11.7 C 548.6 16.3 551.8 20 557.1 20 C 559.6 20 562 19.3 564.2 17.9 C 564.2 17.9 564.2 20.4 564.2 20.4 C 561.9 21.6 559.5 22.1 557 22.1 C 549.9 22.1 546.2 16.8 546.2 11.7 C 546.2 5.6 550.9 1.1 557.1 1.1 C 559.4 1.1 561.7 1.7 564 2.8 Z M 570 1.4 L 570 10.5 L 582.4 10.5 L 582.4 1.4 L 584.6 1.4 L 584.6 21.9 L 582.4 21.9 L 582.4 12.6 L 570 12.6 L 570 21.9 L 567.7 21.9 L 567.7 1.4 L 570 1.4 Z " stroke="none" fill="#010102"/>  </g></svg>