<?xml version="1.0" standalone="no"?><!DOCTYPE svg PUBLIC "-//W3C//DTD SVG 1.1//EN" "http://www.w3.org/Graphics/SVG/1.1/DTD/svg11.dtd"><svg xmlns="http://www.w3.org/2000/svg" version="1.1" width="355.1px" height="162.3px" viewBox="0 -14 355.1 162.3" style="top:-14px">  <desc>NPS 81</desc>  <defs/>  <g id="Polygon8156">    <path d="M 3.9 85 C 3.9 78.9 9 74.3 15.1 74.3 C 21.4 74.3 26.2 79 26.2 85 C 26.2 89.2 24.1 92.7 20 94.6 C 24.4 96.4 27 100 27 104.8 C 27 111.5 22 116.3 15 116.3 C 7.8 116.3 3 111.1 3 104.8 C 3 100.2 5.5 96.4 10.1 94.6 C 5.8 92.5 3.9 89 3.9 85 Z M 15.1 93.2 C 19.4 93.2 23.1 90 23.1 85.1 C 23.1 80.6 19.8 77.2 15 77.2 C 10.6 77.2 7 80.3 7 85.1 C 7 90 10.7 93.2 15.1 93.2 Z M 15.1 113.3 C 20.2 113.3 23.8 109.8 23.8 104.6 C 23.8 99.7 20.3 96.2 14.9 96.2 C 9.7 96.2 6.2 99.8 6.2 104.6 C 6.2 109.7 9.8 113.3 15.1 113.3 Z M 48.7 74.3 L 48.7 115.7 L 45.5 115.7 L 45.5 79.4 L 37.1 86.1 L 35.3 83.9 L 47.3 74.3 L 48.7 74.3 Z " stroke="none" fill="#010102"/>  </g>  <g id="Polygon8155">    <path d="M 7.4 2.8 L 37.9 38.8 L 37.9 2.8 L 40.9 2.8 L 40.9 43.7 L 38.1 43.7 L 7.7 7.9 L 7.7 43.7 L 4.7 43.7 L 4.7 2.8 L 7.4 2.8 Z M 61.1 2.8 C 69.1 2.8 74.1 6.7 74.1 13.7 C 74.1 20.9 69.1 24.7 60.5 24.7 C 60.48 24.72 53.3 24.7 53.3 24.7 L 53.3 43.7 L 50.2 43.7 L 50.2 2.8 C 50.2 2.8 61.08 2.82 61.1 2.8 Z M 53.3 21.9 C 53.3 21.9 60.54 21.9 60.5 21.9 C 67.4 21.9 70.9 19.1 70.9 13.7 C 70.9 8.3 67.3 5.6 60.5 5.6 C 60.54 5.64 53.3 5.6 53.3 5.6 L 53.3 21.9 Z M 98.6 4.7 C 98.6 4.7 98.6 8.2 98.6 8.2 C 95.8 6.2 92.8 5.1 89.8 5.1 C 84.8 5.1 81.5 8 81.5 12.2 C 81.5 15.5 82.3 18.2 89.7 21.4 C 97.9 25.1 100.1 28.1 100.1 33.7 C 100.1 39.9 95.5 44.3 88.6 44.3 C 84.8 44.3 81.4 43.1 78.4 40.9 C 78.4 40.9 78.4 37 78.4 37 C 81.7 40 85 41.5 88.7 41.5 C 93.5 41.5 96.9 38.5 96.9 33.7 C 96.9 29.6 95.4 27.4 87.7 23.8 C 80.9 20.7 78.3 17.7 78.3 12.4 C 78.3 6.5 83.1 2.3 89.8 2.3 C 92.8 2.3 95.9 3.1 98.6 4.7 Z " stroke="none" fill="#010102"/>  </g></svg>