<?xml version="1.0" standalone="no"?><!DOCTYPE svg PUBLIC "-//W3C//DTD SVG 1.1//EN" "http://www.w3.org/Graphics/SVG/1.1/DTD/svg11.dtd"><svg xmlns="http://www.w3.org/2000/svg" version="1.1" width="949px" height="239.5px" viewBox="0 -1 949 239.5" style="top:-1px">  <desc>Survey</desc>  <defs/>  <g id="Polygon4843">    <path d="M 683.8 98.2 C 683.8 98.2 683.8 104.5 683.8 104.5 C 681.1 102.2 678.2 100.9 675.2 100.9 C 672.2 100.9 670.6 102.3 670.6 104.4 C 670.6 106.1 671.3 107.5 676 110.1 C 682.5 113.7 685.2 116.1 685.2 121.3 C 685.2 126.7 680.8 130.6 674.4 130.6 C 670.9 130.6 667.4 129.5 664.3 127.6 C 664.3 127.6 664.3 120.7 664.3 120.7 C 667.3 123.8 670.6 125.3 673.9 125.3 C 676.8 125.3 678.6 123.6 678.6 121.5 C 678.6 119.4 678 118.1 671.8 114.7 C 667.4 112.2 664.1 109.6 664.1 104.6 C 664.1 99.5 668.3 95.6 674.9 95.6 C 678.2 95.6 681.3 96.6 683.8 98.2 Z M 697.3 96.1 C 697.3 96.1 697.31 115.22 697.3 115.2 C 697.3 121.9 700.4 124.9 706.5 124.9 C 712.4 124.9 715.5 122 715.5 115.3 C 715.46 115.27 715.5 96.1 715.5 96.1 L 722.1 96.1 C 722.1 96.1 722.06 115.37 722.1 115.4 C 722.1 125.1 716.7 130.6 706.5 130.6 C 696.3 130.6 690.7 125.3 690.7 115.5 C 690.71 115.47 690.7 96.1 690.7 96.1 L 697.3 96.1 Z M 740.7 96.1 C 748.1 96.1 751.9 100.5 751.9 105.9 C 751.9 109.8 750 112.8 746.2 114.4 C 748.3 115.6 749.4 116.8 752.2 121.3 C 752.16 121.32 757.4 130.2 757.4 130.2 L 750 130.2 C 750 130.2 745.26 122.07 745.3 122.1 C 742.2 116.8 740.2 115.8 737.6 115.8 C 737.56 115.82 735.7 115.8 735.7 115.8 L 735.7 130.2 L 729.1 130.2 L 729.1 96.1 C 729.1 96.1 740.66 96.07 740.7 96.1 Z M 735.7 111 C 735.7 111 739.01 110.97 739 111 C 742.5 111 745.2 110 745.2 106 C 745.2 102.9 743.3 101.1 739.7 101.1 C 739.66 101.07 735.7 101.1 735.7 101.1 L 735.7 111 Z M 762.6 96.1 L 772.1 118.7 L 781.5 96.1 L 788.2 96.1 L 773.5 130.5 L 770.6 130.5 L 755.8 96.1 L 762.6 96.1 Z M 813.1 96.1 L 813.1 101.2 L 798.5 101.2 L 798.5 110.3 L 812.5 110.3 L 812.5 115.4 L 798.5 115.4 L 798.5 125 L 813.5 125 L 813.5 130.2 L 791.9 130.2 L 791.9 96.1 L 813.1 96.1 Z M 823.8 96.1 L 832.5 107.5 L 841.3 96.1 L 848.8 96.1 L 836 112.9 L 836 130.2 L 829.3 130.2 L 829.3 113 L 816.4 96.1 L 823.8 96.1 Z " stroke="none" fill="#f28620"/>  </g></svg>