<?xml version="1.0" standalone="no"?><!DOCTYPE svg PUBLIC "-//W3C//DTD SVG 1.1//EN" "http://www.w3.org/Graphics/SVG/1.1/DTD/svg11.dtd"><svg xmlns="http://www.w3.org/2000/svg" version="1.1" width="204px" height="39.1px" viewBox="0 -8 204 39.1" style="top:-8px">  <desc>Flexibility</desc>  <defs/>  <g id="Polygon12885">    <path d="M 54.5 17.5 L 54.5 0.3 L 66.1 0.3 L 66.1 2.3 L 56.8 2.3 L 56.8 7.6 L 64.8 7.6 L 64.8 9.7 L 56.8 9.7 L 56.8 17.5 L 54.5 17.5 Z M 68.7 17.5 L 68.7 0.3 L 70.8 0.3 L 70.8 17.5 L 68.7 17.5 Z M 82.6 13.5 C 82.6 13.5 84.8 13.7 84.8 13.7 C 84.5 15 83.8 16 82.9 16.7 C 82 17.4 80.8 17.8 79.3 17.8 C 77.5 17.8 76.1 17.2 75 16.1 C 73.9 15 73.4 13.4 73.4 11.4 C 73.4 9.3 73.9 7.6 75 6.5 C 76.1 5.3 77.5 4.7 79.2 4.7 C 80.9 4.7 82.2 5.3 83.3 6.4 C 84.4 7.6 84.9 9.2 84.9 11.2 C 84.9 11.4 84.9 11.5 84.9 11.8 C 84.9 11.8 75.6 11.8 75.6 11.8 C 75.7 13.2 76.1 14.2 76.7 14.9 C 77.4 15.7 78.3 16 79.3 16 C 80.1 16 80.8 15.8 81.3 15.4 C 81.9 15 82.3 14.4 82.6 13.5 Z M 75.7 10.1 C 75.7 10.1 82.7 10.1 82.7 10.1 C 82.6 9 82.3 8.2 81.9 7.7 C 81.2 6.9 80.3 6.5 79.2 6.5 C 78.3 6.5 77.5 6.8 76.8 7.5 C 76.1 8.1 75.8 9 75.7 10.1 Z M 86.1 17.5 L 90.6 11 L 86.4 5 L 89 5 C 89 5 90.94 7.95 90.9 7.9 C 91.3 8.5 91.6 9 91.8 9.3 C 92.2 8.8 92.5 8.4 92.8 8 C 92.76 7.97 94.9 5 94.9 5 L 97.4 5 L 93.1 10.9 L 97.7 17.5 L 95.1 17.5 L 92.6 13.6 L 91.9 12.6 L 88.6 17.5 L 86.1 17.5 Z M 99.5 2.7 L 99.5 0.3 L 101.6 0.3 L 101.6 2.7 L 99.5 2.7 Z M 99.5 17.5 L 99.5 5 L 101.6 5 L 101.6 17.5 L 99.5 17.5 Z M 106.7 17.5 L 104.8 17.5 L 104.8 0.3 L 106.9 0.3 C 106.9 0.3 106.89 6.42 106.9 6.4 C 107.8 5.3 108.9 4.7 110.3 4.7 C 111.1 4.7 111.8 4.9 112.5 5.2 C 113.2 5.5 113.7 6 114.2 6.5 C 114.6 7.1 114.9 7.7 115.2 8.5 C 115.4 9.3 115.6 10.2 115.6 11.1 C 115.6 13.2 115 14.8 114 16 C 112.9 17.2 111.7 17.8 110.2 17.8 C 108.7 17.8 107.6 17.1 106.7 15.9 C 106.74 15.91 106.7 17.5 106.7 17.5 Z M 106.7 11.2 C 106.7 12.6 106.9 13.7 107.3 14.4 C 108 15.5 108.9 16 110 16 C 110.9 16 111.7 15.6 112.4 14.8 C 113.1 14 113.4 12.8 113.4 11.2 C 113.4 9.6 113.1 8.4 112.4 7.6 C 111.8 6.9 111 6.5 110.1 6.5 C 109.2 6.5 108.4 6.9 107.7 7.7 C 107 8.5 106.7 9.6 106.7 11.2 Z M 118.2 2.7 L 118.2 0.3 L 120.3 0.3 L 120.3 2.7 L 118.2 2.7 Z M 118.2 17.5 L 118.2 5 L 120.3 5 L 120.3 17.5 L 118.2 17.5 Z M 123.4 17.5 L 123.4 0.3 L 125.5 0.3 L 125.5 17.5 L 123.4 17.5 Z M 128.8 2.7 L 128.8 0.3 L 130.9 0.3 L 130.9 2.7 L 128.8 2.7 Z M 128.8 17.5 L 128.8 5 L 130.9 5 L 130.9 17.5 L 128.8 17.5 Z M 137.8 15.7 C 138 15.7 138.4 15.6 138.7 15.6 C 138.7 15.6 139 17.4 139 17.4 C 138.5 17.6 137.9 17.6 137.5 17.6 C 136.7 17.6 136.1 17.5 135.7 17.3 C 135.2 17 135 16.7 134.8 16.3 C 134.6 15.9 134.5 15.1 134.5 13.8 C 134.52 13.83 134.5 6.7 134.5 6.7 L 133 6.7 L 133 5 L 134.5 5 L 134.5 1.9 L 136.6 0.7 L 136.6 5 L 138.7 5 L 138.7 6.7 L 136.6 6.7 C 136.6 6.7 136.62 13.95 136.6 13.9 C 136.6 14.5 136.7 14.9 136.7 15.1 C 136.8 15.3 136.9 15.4 137.1 15.5 C 137.3 15.6 137.5 15.7 137.8 15.7 C 137.8 15.7 137.8 15.7 137.8 15.7 Z M 142.1 22.5 C 141.7 22.5 141.2 22.4 140.7 22.3 C 140.7 22.3 140.5 20.3 140.5 20.3 C 140.9 20.4 141.3 20.5 141.7 20.5 C 142.2 20.5 142.5 20.4 142.8 20.2 C 143.1 20.1 143.3 19.9 143.5 19.6 C 143.6 19.4 143.8 18.8 144.1 18 C 144.2 17.9 144.2 17.7 144.3 17.5 C 144.33 17.5 139.6 5 139.6 5 L 141.9 5 C 141.9 5 144.47 12.23 144.5 12.2 C 144.8 13.1 145.1 14.1 145.4 15.1 C 145.6 14.1 145.9 13.2 146.2 12.3 C 146.24 12.28 148.9 5 148.9 5 L 151 5 C 151 5 146.28 17.68 146.3 17.7 C 145.8 19.1 145.4 20 145.1 20.5 C 144.7 21.2 144.3 21.7 143.8 22 C 143.3 22.4 142.7 22.5 142.1 22.5 C 142.1 22.5 142.1 22.5 142.1 22.5 Z " stroke="none" fill="#000"/>  </g></svg>