<?xml version="1.0" standalone="no"?><!DOCTYPE svg PUBLIC "-//W3C//DTD SVG 1.1//EN" "http://www.w3.org/Graphics/SVG/1.1/DTD/svg11.dtd"><svg xmlns="http://www.w3.org/2000/svg" version="1.1" width="850.1px" height="253.5px" viewBox="0 -1 850.1 253.5" style="top:-1px">  <desc>Survey</desc>  <defs/>  <g id="Polygon5494">    <path d="M 200.3 105 C 200.3 105 200.3 110.5 200.3 110.5 C 198 108.3 195.4 107 192.3 107 C 189.2 107 187.3 108.6 187.3 110.9 C 187.3 112.8 187.7 114.5 192.9 117.5 C 200.1 121.6 201.6 124 201.6 128.7 C 201.6 133.7 197.7 137.6 191.8 137.6 C 188.4 137.6 185.3 136.4 182.5 134.4 C 182.5 134.4 182.5 128.2 182.5 128.2 C 185 131.4 188.2 133.2 191.8 133.2 C 194.6 133.2 196.8 131.4 196.8 128.7 C 196.8 126.4 196.1 124.9 189.4 120.9 C 184.3 118 182.4 115.3 182.4 111.1 C 182.4 106.2 186.6 102.6 192.4 102.6 C 195.3 102.6 198 103.4 200.3 105 Z M 212 103 C 212 103 212.05 122.79 212 122.8 C 212 130.3 215.3 133.2 221.8 133.2 C 228.3 133.2 231.5 130.2 231.5 122.7 C 231.55 122.74 231.5 103 231.5 103 L 236.4 103 C 236.4 103 236.45 122.74 236.4 122.7 C 236.4 132 231.7 137.6 221.8 137.6 C 212.4 137.6 207.1 132.8 207.1 122.8 C 207.15 122.79 207.1 103 207.1 103 L 212 103 Z M 252.9 103 C 259.7 103 263.2 107.5 263.2 112.5 C 263.2 116.5 261.3 119.4 257.5 120.9 C 259.5 122.2 260.5 123 263.8 128 C 263.8 128.04 269.8 137.1 269.8 137.1 L 264 137.1 C 264 137.1 258.6 128.74 258.6 128.7 C 255.1 123.3 253 122.3 250.6 122.3 C 250.6 122.29 248.4 122.3 248.4 122.3 L 248.4 137.1 L 243.5 137.1 L 243.5 103 C 243.5 103 252.9 103.04 252.9 103 Z M 248.4 118 C 248.4 118 251.55 117.99 251.5 118 C 255.1 118 258.2 117.1 258.2 112.5 C 258.2 109.2 256.2 107.3 252.5 107.3 C 252.55 107.34 248.4 107.3 248.4 107.3 L 248.4 118 Z M 270.4 103 L 280.8 127 L 290.9 103 L 295.7 103 L 281.3 137.3 L 280.2 137.3 L 265.5 103 L 270.4 103 Z M 318.8 103 L 318.8 107.4 L 304.4 107.4 L 304.4 117.8 L 318.3 117.8 L 318.3 122.1 L 304.4 122.1 L 304.4 132.7 L 319.3 132.7 L 319.3 137.1 L 299.5 137.1 L 299.5 103 L 318.8 103 Z M 328.4 103 L 337.6 114.8 L 346.8 103 L 352.7 103 L 340.1 119.1 L 340.1 137.1 L 335.1 137.1 L 335.1 119.1 L 322.5 103 L 328.4 103 Z " stroke="none" fill="#010102"/>  </g></svg>