<?xml version="1.0" standalone="no"?><!DOCTYPE svg PUBLIC "-//W3C//DTD SVG 1.1//EN" "http://www.w3.org/Graphics/SVG/1.1/DTD/svg11.dtd"><svg xmlns="http://www.w3.org/2000/svg" version="1.1" width="31px" height="20.5px" viewBox="0 -4 31 20.5" style="top:-4px">  <desc>1 30</desc>  <defs/>  <g id="Polygon36939">    <path d="M 4.5 8.7 L 3.4 8.7 C 3.4 8.7 3.42 2.02 3.4 2 C 3.2 2.3 2.8 2.5 2.4 2.7 C 2 3 1.6 3.2 1.3 3.3 C 1.3 3.3 1.3 2.3 1.3 2.3 C 1.9 2 2.4 1.7 2.9 1.3 C 3.3 0.9 3.6 0.5 3.8 0.1 C 3.79 0.11 4.5 0.1 4.5 0.1 L 4.5 8.7 Z M 10.4 6.2 L 10.4 5.1 L 13.6 5.1 L 13.6 6.2 L 10.4 6.2 Z M 17.8 6.5 C 17.8 6.5 18.9 6.3 18.9 6.3 C 19 6.9 19.2 7.4 19.5 7.6 C 19.8 7.9 20.2 8 20.6 8 C 21.1 8 21.5 7.8 21.8 7.5 C 22.2 7.2 22.3 6.7 22.3 6.2 C 22.3 5.7 22.2 5.3 21.9 5 C 21.6 4.7 21.2 4.6 20.7 4.6 C 20.5 4.6 20.2 4.6 19.9 4.7 C 19.9 4.7 20 3.7 20 3.7 C 20.1 3.8 20.2 3.8 20.2 3.8 C 20.7 3.8 21.1 3.6 21.4 3.4 C 21.8 3.2 22 2.8 22 2.3 C 22 1.9 21.8 1.6 21.6 1.4 C 21.3 1.1 21 1 20.6 1 C 20.1 1 19.8 1.1 19.5 1.4 C 19.3 1.6 19.1 2 19 2.5 C 19 2.5 17.9 2.3 17.9 2.3 C 18.1 1.6 18.4 1.1 18.8 0.7 C 19.3 0.3 19.9 0.1 20.5 0.1 C 21 0.1 21.4 0.2 21.8 0.4 C 22.2 0.6 22.5 0.9 22.7 1.2 C 22.9 1.6 23 2 23 2.3 C 23 2.7 22.9 3.1 22.7 3.4 C 22.5 3.7 22.3 3.9 21.9 4.1 C 22.4 4.2 22.8 4.4 23 4.8 C 23.3 5.2 23.5 5.6 23.5 6.2 C 23.5 6.9 23.2 7.6 22.6 8.1 C 22.1 8.6 21.4 8.9 20.6 8.9 C 19.8 8.9 19.2 8.7 18.7 8.2 C 18.2 7.8 17.9 7.2 17.8 6.5 Z M 25.4 8 C 24.8 7.3 24.5 6.1 24.5 4.5 C 24.5 3.5 24.6 2.7 24.8 2 C 25 1.4 25.3 1 25.8 0.6 C 26.2 0.3 26.7 0.1 27.3 0.1 C 27.8 0.1 28.2 0.2 28.5 0.4 C 28.9 0.6 29.2 0.8 29.4 1.2 C 29.6 1.5 29.8 2 29.9 2.5 C 30 3 30.1 3.6 30.1 4.5 C 30.1 5.5 30 6.3 29.8 6.9 C 29.6 7.6 29.3 8 28.9 8.4 C 28.5 8.7 27.9 8.9 27.3 8.9 C 26.5 8.9 25.8 8.6 25.4 8 C 25.4 8 25.4 8 25.4 8 Z M 26.1 1.6 C 25.8 2.1 25.6 3.1 25.6 4.5 C 25.6 5.9 25.8 6.8 26.1 7.3 C 26.4 7.8 26.8 8 27.3 8 C 27.8 8 28.2 7.8 28.5 7.3 C 28.9 6.8 29 5.9 29 4.5 C 29 3.1 28.9 2.1 28.5 1.7 C 28.2 1.2 27.8 1 27.3 1 C 26.8 1 26.4 1.2 26.1 1.6 C 26.1 1.6 26.1 1.6 26.1 1.6 Z " stroke="none" fill="#000"/>  </g></svg>