<?xml version="1.0" standalone="no"?><!DOCTYPE svg PUBLIC "-//W3C//DTD SVG 1.1//EN" "http://www.w3.org/Graphics/SVG/1.1/DTD/svg11.dtd"><svg xmlns="http://www.w3.org/2000/svg" version="1.1" width="239.1px" height="46.1px" viewBox="0 -8 239.1 46.1" style="top:-8px">  <desc>Client Feedback</desc>  <defs/>  <g id="Polygon4506">    <path d="M 18.8 2.7 C 18.8 2.7 18.8 4.5 18.8 4.5 C 16.7 3.3 14.4 2.6 12 2.6 C 6.6 2.6 3.1 6.7 3.1 11.7 C 3.1 16.8 6.7 20.7 12 20.7 C 14.4 20.7 16.7 20 18.9 18.7 C 18.9 18.7 18.9 20.5 18.9 20.5 C 16.7 21.6 14.5 22.1 12 22.1 C 5.4 22.1 1.4 17.2 1.4 11.8 C 1.4 5.6 5.8 1.1 12 1.1 C 14.4 1.1 16.6 1.7 18.8 2.7 Z M 23.9 1.4 L 23.9 20.4 L 34 20.4 L 34 21.9 L 22.3 21.9 L 22.3 1.4 L 23.9 1.4 Z M 38.2 1.4 L 38.2 21.9 L 36.6 21.9 L 36.6 1.4 L 38.2 1.4 Z M 53.6 1.4 L 53.6 2.8 L 44.4 2.8 L 44.4 10.8 L 53.4 10.8 L 53.4 12.3 L 44.4 12.3 L 44.4 20.5 L 53.9 20.5 L 53.9 21.9 L 42.9 21.9 L 42.9 1.4 L 53.6 1.4 Z M 58.7 1.4 L 73.9 19.4 L 73.9 1.4 L 75.4 1.4 L 75.4 21.9 L 74.1 21.9 L 58.9 3.9 L 58.9 21.9 L 57.4 21.9 L 57.4 1.4 L 58.7 1.4 Z M 94.6 1.4 L 94.6 2.8 L 87.2 2.8 L 87.2 21.9 L 85.6 21.9 L 85.6 2.8 L 78.2 2.8 L 78.2 1.4 L 94.6 1.4 Z M 115.9 1.4 L 115.9 2.8 L 107.3 2.8 L 107.3 10.4 L 115.3 10.4 L 115.3 11.8 L 107.3 11.8 L 107.3 21.9 L 105.7 21.9 L 105.7 1.4 L 115.9 1.4 Z M 129.5 1.4 L 129.5 2.8 L 120.3 2.8 L 120.3 10.8 L 129.2 10.8 L 129.2 12.3 L 120.3 12.3 L 120.3 20.5 L 129.8 20.5 L 129.8 21.9 L 118.7 21.9 L 118.7 1.4 L 129.5 1.4 Z M 144 1.4 L 144 2.8 L 134.8 2.8 L 134.8 10.8 L 143.7 10.8 L 143.7 12.3 L 134.8 12.3 L 134.8 20.5 L 144.3 20.5 L 144.3 21.9 L 133.2 21.9 L 133.2 1.4 L 144 1.4 Z M 147.7 1.4 C 147.7 1.4 155.01 1.41 155 1.4 C 161.6 1.4 166 5.5 166 11.4 C 166 17.8 161.5 21.9 155 21.9 C 155.04 21.87 147.7 21.9 147.7 21.9 L 147.7 1.4 Z M 155.1 20.4 C 160.6 20.4 164.4 16.9 164.4 11.7 C 164.4 6.2 160.7 2.8 154.9 2.8 C 154.86 2.85 149.3 2.8 149.3 2.8 L 149.3 20.4 C 149.3 20.4 155.1 20.43 155.1 20.4 Z M 174.5 1.4 C 177.9 1.4 180.8 3.1 180.8 6.6 C 180.8 8.9 179.5 10.6 177.2 11.2 C 180.5 11.6 182.5 13.6 182.5 16.5 C 182.5 19.9 179.6 21.9 175.7 21.9 C 175.74 21.87 169.8 21.9 169.8 21.9 L 169.8 1.4 C 169.8 1.4 174.48 1.41 174.5 1.4 Z M 171.4 10.8 C 171.4 10.8 173.82 10.77 173.8 10.8 C 177.4 10.8 179.2 9.2 179.2 6.7 C 179.2 4 177.4 2.8 174.1 2.8 C 174.06 2.82 171.4 2.8 171.4 2.8 L 171.4 10.8 Z M 175.5 20.5 C 178.6 20.5 180.9 19.3 180.9 16.4 C 180.9 13.6 178.9 12.2 175 12.2 C 174.96 12.18 171.4 12.2 171.4 12.2 L 171.4 20.5 C 171.4 20.5 175.47 20.46 175.5 20.5 Z M 194.3 1.3 L 203.4 21.9 L 201.8 21.9 L 198.8 15.1 L 188.8 15.1 L 185.9 21.9 L 184.3 21.9 L 193.2 1.3 L 194.3 1.3 Z M 189.5 13.7 L 198.1 13.7 L 193.8 3.7 L 189.5 13.7 Z M 221.4 2.7 C 221.4 2.7 221.4 4.5 221.4 4.5 C 219.3 3.3 217 2.6 214.6 2.6 C 209.2 2.6 205.7 6.7 205.7 11.7 C 205.7 16.8 209.3 20.7 214.6 20.7 C 217 20.7 219.4 20 221.5 18.7 C 221.5 18.7 221.5 20.5 221.5 20.5 C 219.4 21.6 217.1 22.1 214.6 22.1 C 208 22.1 204.1 17.2 204.1 11.8 C 204.1 5.6 208.5 1.1 214.6 1.1 C 217 1.1 219.3 1.7 221.4 2.7 Z M 226.5 1.4 L 226.5 11.3 L 235.9 1.4 L 237.8 1.4 L 228.4 11.4 L 239.2 21.9 L 237.1 21.9 L 226.5 11.7 L 226.5 21.9 L 225 21.9 L 225 1.4 L 226.5 1.4 Z " stroke="none" fill="#f28620"/>  </g></svg>