<?xml version="1.0" standalone="no"?><!DOCTYPE svg PUBLIC "-//W3C//DTD SVG 1.1//EN" "http://www.w3.org/Graphics/SVG/1.1/DTD/svg11.dtd"><svg xmlns="http://www.w3.org/2000/svg" version="1.1" width="102px" height="20.5px" viewBox="0 -4 102 20.5" style="top:-4px">  <desc>Helpfulness</desc>  <defs/>  <g id="Polygon36481">    <path d="M 20.5 8.7 L 20.5 0.1 L 21.7 0.1 L 21.7 3.7 L 26.2 3.7 L 26.2 0.1 L 27.3 0.1 L 27.3 8.7 L 26.2 8.7 L 26.2 4.7 L 21.7 4.7 L 21.7 8.7 L 20.5 8.7 Z M 33.3 6.7 C 33.3 6.7 34.4 6.9 34.4 6.9 C 34.2 7.5 33.9 8 33.4 8.3 C 33 8.7 32.4 8.9 31.7 8.9 C 30.7 8.9 30 8.6 29.5 8 C 29 7.5 28.7 6.7 28.7 5.7 C 28.7 4.6 29 3.8 29.5 3.2 C 30 2.7 30.7 2.4 31.6 2.4 C 32.4 2.4 33.1 2.7 33.6 3.2 C 34.2 3.8 34.4 4.6 34.4 5.6 C 34.4 5.7 34.4 5.8 34.4 5.9 C 34.4 5.9 29.8 5.9 29.8 5.9 C 29.8 6.6 30 7.1 30.4 7.5 C 30.7 7.8 31.1 8 31.7 8 C 32.1 8 32.4 7.9 32.7 7.7 C 32.9 7.5 33.1 7.2 33.3 6.7 Z M 29.8 5 C 29.8 5 33.3 5 33.3 5 C 33.3 4.5 33.1 4.1 32.9 3.8 C 32.6 3.4 32.1 3.2 31.6 3.2 C 31.1 3.2 30.7 3.4 30.4 3.7 C 30.1 4.1 29.9 4.5 29.8 5 Z M 35.7 8.7 L 35.7 0.1 L 36.8 0.1 L 36.8 8.7 L 35.7 8.7 Z M 38.4 11.1 L 38.4 2.5 L 39.3 2.5 C 39.3 2.5 39.35 3.32 39.3 3.3 C 39.6 3 39.8 2.8 40.1 2.6 C 40.4 2.5 40.7 2.4 41.2 2.4 C 41.7 2.4 42.2 2.5 42.6 2.8 C 43 3.1 43.3 3.4 43.5 3.9 C 43.7 4.4 43.8 5 43.8 5.6 C 43.8 6.2 43.7 6.8 43.4 7.3 C 43.2 7.8 42.9 8.2 42.4 8.5 C 42 8.7 41.6 8.9 41.1 8.9 C 40.7 8.9 40.4 8.8 40.1 8.7 C 39.8 8.5 39.6 8.3 39.4 8.1 C 39.44 8.09 39.4 11.1 39.4 11.1 L 38.4 11.1 Z M 39.3 5.7 C 39.3 6.5 39.5 7.1 39.8 7.4 C 40.2 7.8 40.5 8 41 8 C 41.5 8 41.9 7.8 42.2 7.4 C 42.5 7 42.7 6.4 42.7 5.6 C 42.7 4.8 42.5 4.2 42.2 3.8 C 41.9 3.4 41.5 3.2 41.1 3.2 C 40.6 3.2 40.2 3.4 39.9 3.8 C 39.5 4.2 39.3 4.9 39.3 5.7 Z M 45.3 8.7 L 45.3 3.3 L 44.4 3.3 L 44.4 2.5 L 45.3 2.5 C 45.3 2.5 45.31 1.85 45.3 1.9 C 45.3 1.4 45.3 1.1 45.4 0.9 C 45.5 0.6 45.7 0.4 46 0.3 C 46.2 0.1 46.6 0 47 0 C 47.3 0 47.7 0 48 0.1 C 48 0.1 47.9 1 47.9 1 C 47.6 1 47.4 1 47.2 1 C 46.9 1 46.7 1 46.6 1.2 C 46.4 1.3 46.4 1.6 46.4 1.9 C 46.36 1.94 46.4 2.5 46.4 2.5 L 47.6 2.5 L 47.6 3.3 L 46.4 3.3 L 46.4 8.7 L 45.3 8.7 Z M 52.5 8.7 C 52.5 8.7 52.47 7.82 52.5 7.8 C 52 8.5 51.3 8.9 50.5 8.9 C 50.1 8.9 49.8 8.8 49.5 8.7 C 49.2 8.5 48.9 8.3 48.8 8.1 C 48.6 7.9 48.5 7.7 48.4 7.4 C 48.4 7.1 48.4 6.8 48.4 6.4 C 48.37 6.37 48.4 2.5 48.4 2.5 L 49.4 2.5 C 49.4 2.5 49.42 5.96 49.4 6 C 49.4 6.5 49.4 6.9 49.5 7.1 C 49.6 7.4 49.7 7.6 49.9 7.7 C 50.1 7.9 50.4 8 50.7 8 C 51 8 51.3 7.9 51.6 7.7 C 51.9 7.6 52.1 7.3 52.2 7.1 C 52.3 6.8 52.4 6.4 52.4 5.8 C 52.36 5.85 52.4 2.5 52.4 2.5 L 53.4 2.5 L 53.4 8.7 L 52.5 8.7 Z M 55 8.7 L 55 0.1 L 56.1 0.1 L 56.1 8.7 L 55 8.7 Z M 57.7 8.7 L 57.7 2.5 L 58.7 2.5 C 58.7 2.5 58.68 3.4 58.7 3.4 C 59.1 2.7 59.8 2.4 60.7 2.4 C 61 2.4 61.4 2.4 61.7 2.6 C 62 2.7 62.2 2.9 62.4 3.1 C 62.6 3.3 62.7 3.6 62.7 3.9 C 62.8 4.1 62.8 4.4 62.8 4.9 C 62.79 4.91 62.8 8.7 62.8 8.7 L 61.7 8.7 C 61.7 8.7 61.74 4.95 61.7 5 C 61.7 4.5 61.7 4.2 61.6 4 C 61.5 3.8 61.4 3.6 61.2 3.5 C 61 3.4 60.7 3.3 60.4 3.3 C 60 3.3 59.6 3.4 59.3 3.7 C 59 4 58.8 4.5 58.8 5.3 C 58.79 5.34 58.8 8.7 58.8 8.7 L 57.7 8.7 Z M 68.7 6.7 C 68.7 6.7 69.8 6.9 69.8 6.9 C 69.6 7.5 69.3 8 68.8 8.3 C 68.3 8.7 67.7 8.9 67 8.9 C 66.1 8.9 65.4 8.6 64.9 8 C 64.3 7.5 64.1 6.7 64.1 5.7 C 64.1 4.6 64.3 3.8 64.9 3.2 C 65.4 2.7 66.1 2.4 67 2.4 C 67.8 2.4 68.5 2.7 69 3.2 C 69.5 3.8 69.8 4.6 69.8 5.6 C 69.8 5.7 69.8 5.8 69.8 5.9 C 69.8 5.9 65.1 5.9 65.1 5.9 C 65.2 6.6 65.4 7.1 65.7 7.5 C 66.1 7.8 66.5 8 67 8 C 67.4 8 67.7 7.9 68 7.7 C 68.3 7.5 68.5 7.2 68.7 6.7 Z M 65.2 5 C 65.2 5 68.7 5 68.7 5 C 68.6 4.5 68.5 4.1 68.3 3.8 C 67.9 3.4 67.5 3.2 67 3.2 C 66.5 3.2 66.1 3.4 65.8 3.7 C 65.4 4.1 65.2 4.5 65.2 5 Z M 70.7 6.9 C 70.7 6.9 71.7 6.7 71.7 6.7 C 71.8 7.1 71.9 7.5 72.2 7.7 C 72.5 7.9 72.8 8 73.3 8 C 73.8 8 74.2 7.9 74.4 7.7 C 74.6 7.5 74.7 7.3 74.7 7 C 74.7 6.8 74.6 6.6 74.4 6.5 C 74.3 6.4 73.9 6.2 73.4 6.1 C 72.6 5.9 72 5.7 71.7 5.6 C 71.4 5.5 71.2 5.3 71.1 5 C 70.9 4.7 70.8 4.5 70.8 4.2 C 70.8 3.9 70.9 3.6 71 3.4 C 71.2 3.2 71.3 3 71.5 2.8 C 71.7 2.7 71.9 2.6 72.2 2.5 C 72.5 2.4 72.8 2.4 73.1 2.4 C 73.6 2.4 74 2.4 74.4 2.6 C 74.8 2.7 75.1 2.9 75.2 3.2 C 75.4 3.4 75.5 3.7 75.6 4.1 C 75.6 4.1 74.6 4.3 74.6 4.3 C 74.5 3.9 74.4 3.7 74.2 3.5 C 73.9 3.3 73.6 3.2 73.2 3.2 C 72.7 3.2 72.4 3.3 72.2 3.5 C 72 3.6 71.9 3.8 71.9 4 C 71.9 4.2 71.9 4.3 72 4.4 C 72.1 4.5 72.2 4.6 72.4 4.7 C 72.5 4.7 72.8 4.8 73.3 5 C 74.1 5.2 74.6 5.3 74.9 5.5 C 75.2 5.6 75.4 5.8 75.6 6 C 75.7 6.2 75.8 6.5 75.8 6.9 C 75.8 7.3 75.7 7.6 75.5 7.9 C 75.3 8.2 75 8.5 74.6 8.6 C 74.2 8.8 73.8 8.9 73.3 8.9 C 72.5 8.9 71.9 8.7 71.5 8.4 C 71 8 70.8 7.5 70.7 6.9 Z M 76.7 6.9 C 76.7 6.9 77.7 6.7 77.7 6.7 C 77.8 7.1 77.9 7.5 78.2 7.7 C 78.5 7.9 78.8 8 79.3 8 C 79.8 8 80.2 7.9 80.4 7.7 C 80.6 7.5 80.7 7.3 80.7 7 C 80.7 6.8 80.6 6.6 80.4 6.5 C 80.3 6.4 79.9 6.2 79.4 6.1 C 78.6 5.9 78 5.7 77.7 5.6 C 77.4 5.5 77.2 5.3 77.1 5 C 76.9 4.7 76.8 4.5 76.8 4.2 C 76.8 3.9 76.9 3.6 77 3.4 C 77.2 3.2 77.3 3 77.5 2.8 C 77.7 2.7 77.9 2.6 78.2 2.5 C 78.5 2.4 78.8 2.4 79.1 2.4 C 79.6 2.4 80 2.4 80.4 2.6 C 80.8 2.7 81.1 2.9 81.2 3.2 C 81.4 3.4 81.5 3.7 81.6 4.1 C 81.6 4.1 80.6 4.3 80.6 4.3 C 80.5 3.9 80.4 3.7 80.2 3.5 C 79.9 3.3 79.6 3.2 79.2 3.2 C 78.7 3.2 78.4 3.3 78.2 3.5 C 78 3.6 77.9 3.8 77.9 4 C 77.9 4.2 77.9 4.3 78 4.4 C 78.1 4.5 78.2 4.6 78.4 4.7 C 78.5 4.7 78.8 4.8 79.3 5 C 80.1 5.2 80.6 5.3 80.9 5.5 C 81.2 5.6 81.4 5.8 81.6 6 C 81.7 6.2 81.8 6.5 81.8 6.9 C 81.8 7.3 81.7 7.6 81.5 7.9 C 81.3 8.2 81 8.5 80.6 8.6 C 80.2 8.8 79.8 8.9 79.3 8.9 C 78.5 8.9 77.9 8.7 77.5 8.4 C 77 8 76.8 7.5 76.7 6.9 Z " stroke="none" fill="#000"/>  </g></svg>