<?xml version="1.0" standalone="no"?><!DOCTYPE svg PUBLIC "-//W3C//DTD SVG 1.1//EN" "http://www.w3.org/Graphics/SVG/1.1/DTD/svg11.dtd"><svg xmlns="http://www.w3.org/2000/svg" version="1.1" width="1030px" height="113.1px" viewBox="0 -9 1030 113.1" style="top:-9px">  <desc>Behaviours Clients rated their satisfaction against our business behaviours as follows:</desc>  <defs/>  <g id="Polygon6792">    <path d="M 14.3 83.7 C 14.3 83.7 16.6 84.2 16.6 84.2 C 16.1 86.1 15.2 87.6 14 88.6 C 12.7 89.6 11.2 90.1 9.4 90.1 C 7.5 90.1 6 89.7 4.8 88.9 C 3.6 88.1 2.7 87 2.1 85.6 C 1.5 84.1 1.2 82.6 1.2 80.9 C 1.2 79.1 1.6 77.5 2.2 76.2 C 2.9 74.8 3.9 73.8 5.2 73.1 C 6.5 72.4 7.9 72.1 9.4 72.1 C 11.2 72.1 12.6 72.5 13.8 73.4 C 15 74.3 15.8 75.5 16.3 77.1 C 16.3 77.1 14 77.7 14 77.7 C 13.6 76.4 13 75.5 12.3 74.9 C 11.5 74.3 10.5 74 9.4 74 C 8 74 6.9 74.4 6 75 C 5.1 75.6 4.5 76.5 4.1 77.6 C 3.8 78.7 3.6 79.8 3.6 80.9 C 3.6 82.4 3.8 83.7 4.2 84.8 C 4.7 85.9 5.3 86.7 6.2 87.3 C 7.2 87.8 8.1 88.1 9.2 88.1 C 10.5 88.1 11.6 87.7 12.5 87 C 13.4 86.2 14 85.1 14.3 83.7 Z M 19.1 89.8 L 19.1 72.4 L 21.2 72.4 L 21.2 89.8 L 19.1 89.8 Z M 24.6 74.8 L 24.6 72.4 L 26.7 72.4 L 26.7 74.8 L 24.6 74.8 Z M 24.6 89.8 L 24.6 77.2 L 26.7 77.2 L 26.7 89.8 L 24.6 89.8 Z M 38.6 85.7 C 38.6 85.7 40.8 86 40.8 86 C 40.4 87.3 39.8 88.3 38.9 89 C 37.9 89.7 36.7 90 35.2 90 C 33.4 90 31.9 89.5 30.9 88.3 C 29.8 87.2 29.2 85.6 29.2 83.6 C 29.2 81.4 29.8 79.8 30.9 78.6 C 32 77.5 33.4 76.9 35.1 76.9 C 36.8 76.9 38.2 77.4 39.3 78.6 C 40.3 79.7 40.9 81.4 40.9 83.4 C 40.9 83.6 40.9 83.8 40.8 84 C 40.8 84 31.4 84 31.4 84 C 31.5 85.4 31.9 86.4 32.6 87.2 C 33.3 87.9 34.2 88.3 35.3 88.3 C 36 88.3 36.7 88.1 37.3 87.7 C 37.8 87.3 38.3 86.6 38.6 85.7 Z M 31.6 82.2 C 31.6 82.2 38.6 82.2 38.6 82.2 C 38.5 81.2 38.2 80.4 37.8 79.9 C 37.1 79 36.2 78.6 35.1 78.6 C 34.2 78.6 33.3 79 32.7 79.6 C 32 80.3 31.6 81.1 31.6 82.2 Z M 43.5 89.8 L 43.5 77.2 L 45.4 77.2 C 45.4 77.2 45.39 78.95 45.4 78.9 C 46.3 77.6 47.7 76.9 49.4 76.9 C 50.2 76.9 50.9 77 51.5 77.3 C 52.1 77.6 52.6 77.9 52.9 78.4 C 53.2 78.8 53.5 79.3 53.6 79.9 C 53.7 80.3 53.7 81 53.7 82 C 53.71 82.01 53.7 89.8 53.7 89.8 L 51.6 89.8 C 51.6 89.8 51.57 82.09 51.6 82.1 C 51.6 81.2 51.5 80.6 51.3 80.1 C 51.2 79.7 50.9 79.4 50.4 79.1 C 50 78.9 49.5 78.7 48.9 78.7 C 48 78.7 47.3 79 46.6 79.6 C 45.9 80.2 45.6 81.3 45.6 82.9 C 45.6 82.88 45.6 89.8 45.6 89.8 L 43.5 89.8 Z M 60.7 87.9 C 60.9 87.9 61.3 87.9 61.6 87.8 C 61.6 87.8 62 89.7 62 89.7 C 61.4 89.9 60.8 89.9 60.3 89.9 C 59.6 89.9 59 89.8 58.5 89.6 C 58.1 89.3 57.8 89 57.6 88.6 C 57.5 88.2 57.4 87.4 57.4 86.1 C 57.37 86.07 57.4 78.8 57.4 78.8 L 55.8 78.8 L 55.8 77.2 L 57.4 77.2 L 57.4 74 L 59.5 72.8 L 59.5 77.2 L 61.6 77.2 L 61.6 78.8 L 59.5 78.8 C 59.5 78.8 59.5 86.19 59.5 86.2 C 59.5 86.8 59.5 87.2 59.6 87.4 C 59.7 87.5 59.8 87.7 60 87.8 C 60.1 87.9 60.4 87.9 60.7 87.9 C 60.7 87.9 60.7 87.9 60.7 87.9 Z M 62.9 86 C 62.9 86 65 85.7 65 85.7 C 65.1 86.5 65.4 87.2 66 87.6 C 66.5 88.1 67.3 88.3 68.3 88.3 C 69.2 88.3 70 88.1 70.4 87.7 C 70.9 87.3 71.2 86.8 71.2 86.3 C 71.2 85.8 70.9 85.4 70.5 85.1 C 70.2 85 69.5 84.7 68.3 84.4 C 66.8 84 65.7 83.7 65.1 83.4 C 64.5 83.1 64 82.7 63.7 82.2 C 63.4 81.7 63.2 81.1 63.2 80.5 C 63.2 79.9 63.4 79.4 63.6 78.9 C 63.9 78.5 64.2 78.1 64.7 77.8 C 65 77.5 65.5 77.3 66 77.1 C 66.6 77 67.2 76.9 67.9 76.9 C 68.9 76.9 69.7 77 70.5 77.3 C 71.2 77.6 71.8 78 72.1 78.5 C 72.5 78.9 72.7 79.6 72.9 80.4 C 72.9 80.4 70.8 80.7 70.8 80.7 C 70.7 80 70.4 79.5 70 79.2 C 69.5 78.8 68.9 78.6 68 78.6 C 67 78.6 66.3 78.8 65.9 79.1 C 65.5 79.4 65.3 79.8 65.3 80.3 C 65.3 80.5 65.4 80.8 65.6 81 C 65.7 81.2 66 81.4 66.4 81.6 C 66.6 81.7 67.2 81.8 68.3 82.1 C 69.8 82.5 70.8 82.9 71.4 83.1 C 72 83.4 72.5 83.7 72.8 84.2 C 73.2 84.7 73.3 85.3 73.3 86.1 C 73.3 86.8 73.1 87.4 72.7 88.1 C 72.3 88.7 71.7 89.2 70.9 89.5 C 70.1 89.9 69.3 90 68.3 90 C 66.6 90 65.4 89.7 64.5 89 C 63.7 88.3 63.1 87.3 62.9 86 Z M 82.6 89.8 L 82.6 77.2 L 84.5 77.2 C 84.5 77.2 84.54 79.07 84.5 79.1 C 85 78.2 85.5 77.6 85.9 77.3 C 86.3 77 86.8 76.9 87.3 76.9 C 88 76.9 88.7 77.1 89.5 77.6 C 89.5 77.6 88.7 79.5 88.7 79.5 C 88.2 79.2 87.7 79.1 87.2 79.1 C 86.7 79.1 86.3 79.2 85.9 79.5 C 85.5 79.8 85.3 80.2 85.1 80.7 C 84.9 81.4 84.7 82.3 84.7 83.2 C 84.75 83.16 84.7 89.8 84.7 89.8 L 82.6 89.8 Z M 99.4 89.8 C 99.2 89.3 99 88.8 99 88.2 C 98.2 88.9 97.4 89.4 96.7 89.6 C 95.9 89.9 95.2 90 94.3 90 C 92.9 90 91.9 89.7 91.1 89 C 90.4 88.4 90 87.5 90 86.4 C 90 85.8 90.1 85.3 90.4 84.7 C 90.7 84.2 91.1 83.8 91.5 83.5 C 92 83.2 92.5 83 93.1 82.8 C 93.5 82.7 94.1 82.6 95 82.5 C 96.7 82.3 98 82 98.8 81.8 C 98.8 81.5 98.8 81.3 98.8 81.2 C 98.8 80.3 98.6 79.7 98.2 79.4 C 97.6 78.9 96.8 78.6 95.7 78.6 C 94.7 78.6 94 78.8 93.5 79.2 C 93 79.5 92.7 80.1 92.5 81 C 92.5 81 90.4 80.8 90.4 80.8 C 90.6 79.9 90.9 79.1 91.3 78.6 C 91.7 78 92.4 77.6 93.2 77.3 C 94 77 95 76.9 96.1 76.9 C 97.1 76.9 98 77 98.7 77.3 C 99.4 77.5 99.8 77.8 100.2 78.2 C 100.5 78.6 100.7 79.1 100.8 79.7 C 100.9 80 100.9 80.7 100.9 81.6 C 100.9 81.6 100.9 84.5 100.9 84.5 C 100.9 86.5 101 87.7 101.1 88.2 C 101.2 88.8 101.3 89.3 101.6 89.8 C 101.61 89.76 99.4 89.8 99.4 89.8 C 99.4 89.8 99.38 89.76 99.4 89.8 Z M 98.8 83.4 C 98 83.8 96.8 84 95.3 84.2 C 94.4 84.4 93.8 84.5 93.4 84.7 C 93.1 84.8 92.8 85.1 92.6 85.4 C 92.4 85.7 92.3 86 92.3 86.4 C 92.3 86.9 92.5 87.4 92.9 87.8 C 93.4 88.2 94 88.4 94.8 88.4 C 95.6 88.4 96.4 88.2 97 87.8 C 97.7 87.5 98.1 87 98.4 86.4 C 98.7 85.9 98.8 85.2 98.8 84.2 C 98.8 84.2 98.8 83.4 98.8 83.4 Z M 108 87.9 C 108.2 87.9 108.5 87.9 108.9 87.8 C 108.9 87.8 109.2 89.7 109.2 89.7 C 108.6 89.9 108.1 89.9 107.6 89.9 C 106.8 89.9 106.2 89.8 105.8 89.6 C 105.4 89.3 105.1 89 104.9 88.6 C 104.7 88.2 104.6 87.4 104.6 86.1 C 104.64 86.07 104.6 78.8 104.6 78.8 L 103.1 78.8 L 103.1 77.2 L 104.6 77.2 L 104.6 74 L 106.8 72.8 L 106.8 77.2 L 108.9 77.2 L 108.9 78.8 L 106.8 78.8 C 106.8 78.8 106.76 86.19 106.8 86.2 C 106.8 86.8 106.8 87.2 106.9 87.4 C 106.9 87.5 107.1 87.7 107.2 87.8 C 107.4 87.9 107.7 87.9 108 87.9 C 108 87.9 108 87.9 108 87.9 Z M 119.6 85.7 C 119.6 85.7 121.8 86 121.8 86 C 121.5 87.3 120.8 88.3 119.9 89 C 119 89.7 117.8 90 116.3 90 C 114.4 90 113 89.5 111.9 88.3 C 110.8 87.2 110.3 85.6 110.3 83.6 C 110.3 81.4 110.8 79.8 111.9 78.6 C 113 77.5 114.4 76.9 116.2 76.9 C 117.9 76.9 119.2 77.4 120.3 78.6 C 121.4 79.7 121.9 81.4 121.9 83.4 C 121.9 83.6 121.9 83.8 121.9 84 C 121.9 84 112.5 84 112.5 84 C 112.6 85.4 113 86.4 113.7 87.2 C 114.4 87.9 115.2 88.3 116.3 88.3 C 117.1 88.3 117.8 88.1 118.3 87.7 C 118.9 87.3 119.3 86.6 119.6 85.7 Z M 112.6 82.2 C 112.6 82.2 119.6 82.2 119.6 82.2 C 119.6 81.2 119.3 80.4 118.8 79.9 C 118.2 79 117.3 78.6 116.2 78.6 C 115.2 78.6 114.4 79 113.7 79.6 C 113.1 80.3 112.7 81.1 112.6 82.2 Z M 132.7 89.8 C 132.7 89.8 132.69 88.17 132.7 88.2 C 131.9 89.4 130.7 90 129.2 90 C 128.2 90 127.2 89.8 126.4 89.2 C 125.6 88.7 124.9 87.9 124.4 86.9 C 124 85.9 123.7 84.8 123.7 83.5 C 123.7 82.2 124 81.1 124.4 80 C 124.8 79 125.4 78.2 126.3 77.7 C 127.1 77.1 128 76.9 129.1 76.9 C 129.8 76.9 130.5 77 131.1 77.4 C 131.7 77.7 132.2 78.1 132.5 78.6 C 132.55 78.61 132.5 72.4 132.5 72.4 L 134.7 72.4 L 134.7 89.8 L 132.7 89.8 Z M 125.9 83.5 C 125.9 85.1 126.3 86.3 127 87.1 C 127.6 87.9 128.4 88.3 129.4 88.3 C 130.3 88.3 131.1 87.9 131.7 87.1 C 132.4 86.4 132.7 85.2 132.7 83.6 C 132.7 81.9 132.4 80.7 131.7 79.9 C 131.1 79 130.2 78.6 129.3 78.6 C 128.3 78.6 127.5 79 126.9 79.8 C 126.3 80.6 125.9 81.8 125.9 83.5 Z M 148.5 87.9 C 148.7 87.9 149.1 87.9 149.4 87.8 C 149.4 87.8 149.8 89.7 149.8 89.7 C 149.2 89.9 148.6 89.9 148.1 89.9 C 147.4 89.9 146.8 89.8 146.3 89.6 C 145.9 89.3 145.6 89 145.4 88.6 C 145.3 88.2 145.2 87.4 145.2 86.1 C 145.17 86.07 145.2 78.8 145.2 78.8 L 143.6 78.8 L 143.6 77.2 L 145.2 77.2 L 145.2 74 L 147.3 72.8 L 147.3 77.2 L 149.4 77.2 L 149.4 78.8 L 147.3 78.8 C 147.3 78.8 147.3 86.19 147.3 86.2 C 147.3 86.8 147.3 87.2 147.4 87.4 C 147.5 87.5 147.6 87.7 147.8 87.8 C 147.9 87.9 148.2 87.9 148.5 87.9 C 148.5 87.9 148.5 87.9 148.5 87.9 Z M 151.5 89.8 L 151.5 72.4 L 153.7 72.4 C 153.7 72.4 153.67 78.61 153.7 78.6 C 154.7 77.5 155.9 76.9 157.4 76.9 C 158.4 76.9 159.2 77.1 159.9 77.4 C 160.6 77.8 161.1 78.3 161.4 78.9 C 161.6 79.6 161.8 80.5 161.8 81.8 C 161.8 81.77 161.8 89.8 161.8 89.8 L 159.7 89.8 C 159.7 89.8 159.66 81.77 159.7 81.8 C 159.7 80.7 159.4 79.9 159 79.4 C 158.5 79 157.8 78.7 157 78.7 C 156.4 78.7 155.8 78.9 155.2 79.2 C 154.7 79.5 154.3 80 154 80.5 C 153.8 81.1 153.7 81.9 153.7 82.9 C 153.67 82.87 153.7 89.8 153.7 89.8 L 151.5 89.8 Z M 173.7 85.7 C 173.7 85.7 175.9 86 175.9 86 C 175.5 87.3 174.9 88.3 173.9 89 C 173 89.7 171.8 90 170.3 90 C 168.5 90 167 89.5 166 88.3 C 164.9 87.2 164.3 85.6 164.3 83.6 C 164.3 81.4 164.9 79.8 166 78.6 C 167.1 77.5 168.5 76.9 170.2 76.9 C 171.9 76.9 173.3 77.4 174.4 78.6 C 175.4 79.7 176 81.4 176 83.4 C 176 83.6 175.9 83.8 175.9 84 C 175.9 84 166.5 84 166.5 84 C 166.6 85.4 167 86.4 167.7 87.2 C 168.4 87.9 169.3 88.3 170.4 88.3 C 171.1 88.3 171.8 88.1 172.4 87.7 C 172.9 87.3 173.4 86.6 173.7 85.7 Z M 166.7 82.2 C 166.7 82.2 173.7 82.2 173.7 82.2 C 173.6 81.2 173.3 80.4 172.9 79.9 C 172.2 79 171.3 78.6 170.2 78.6 C 169.3 78.6 168.4 79 167.8 79.6 C 167.1 80.3 166.7 81.1 166.7 82.2 Z M 178.6 74.8 L 178.6 72.4 L 180.7 72.4 L 180.7 74.8 L 178.6 74.8 Z M 178.6 89.8 L 178.6 77.2 L 180.7 77.2 L 180.7 89.8 L 178.6 89.8 Z M 183.9 89.8 L 183.9 77.2 L 185.9 77.2 C 185.9 77.2 185.86 79.07 185.9 79.1 C 186.4 78.2 186.8 77.6 187.2 77.3 C 187.6 77 188.1 76.9 188.6 76.9 C 189.3 76.9 190 77.1 190.8 77.6 C 190.8 77.6 190.1 79.5 190.1 79.5 C 189.5 79.2 189 79.1 188.5 79.1 C 188 79.1 187.6 79.2 187.2 79.5 C 186.9 79.8 186.6 80.2 186.4 80.7 C 186.2 81.4 186.1 82.3 186.1 83.2 C 186.08 83.16 186.1 89.8 186.1 89.8 L 183.9 89.8 Z M 198 86 C 198 86 200.1 85.7 200.1 85.7 C 200.2 86.5 200.5 87.2 201.1 87.6 C 201.6 88.1 202.4 88.3 203.3 88.3 C 204.3 88.3 205 88.1 205.5 87.7 C 206 87.3 206.2 86.8 206.2 86.3 C 206.2 85.8 206 85.4 205.6 85.1 C 205.3 85 204.6 84.7 203.4 84.4 C 201.8 84 200.8 83.7 200.2 83.4 C 199.5 83.1 199.1 82.7 198.8 82.2 C 198.5 81.7 198.3 81.1 198.3 80.5 C 198.3 79.9 198.4 79.4 198.7 78.9 C 199 78.5 199.3 78.1 199.7 77.8 C 200.1 77.5 200.5 77.3 201.1 77.1 C 201.7 77 202.3 76.9 202.9 76.9 C 203.9 76.9 204.8 77 205.6 77.3 C 206.3 77.6 206.9 78 207.2 78.5 C 207.6 78.9 207.8 79.6 207.9 80.4 C 207.9 80.4 205.9 80.7 205.9 80.7 C 205.8 80 205.5 79.5 205 79.2 C 204.6 78.8 203.9 78.6 203.1 78.6 C 202.1 78.6 201.4 78.8 201 79.1 C 200.6 79.4 200.4 79.8 200.4 80.3 C 200.4 80.5 200.5 80.8 200.6 81 C 200.8 81.2 201.1 81.4 201.5 81.6 C 201.7 81.7 202.3 81.8 203.3 82.1 C 204.9 82.5 205.9 82.9 206.5 83.1 C 207.1 83.4 207.6 83.7 207.9 84.2 C 208.2 84.7 208.4 85.3 208.4 86.1 C 208.4 86.8 208.2 87.4 207.8 88.1 C 207.4 88.7 206.8 89.2 206 89.5 C 205.2 89.9 204.3 90 203.3 90 C 201.7 90 200.5 89.7 199.6 89 C 198.7 88.3 198.2 87.3 198 86 Z M 219.6 89.8 C 219.4 89.3 219.2 88.8 219.2 88.2 C 218.4 88.9 217.6 89.4 216.9 89.6 C 216.2 89.9 215.4 90 214.5 90 C 213.2 90 212.1 89.7 211.4 89 C 210.6 88.4 210.2 87.5 210.2 86.4 C 210.2 85.8 210.4 85.3 210.7 84.7 C 210.9 84.2 211.3 83.8 211.8 83.5 C 212.2 83.2 212.7 83 213.3 82.8 C 213.7 82.7 214.3 82.6 215.2 82.5 C 216.9 82.3 218.2 82 219 81.8 C 219 81.5 219 81.3 219 81.2 C 219 80.3 218.8 79.7 218.4 79.4 C 217.9 78.9 217.1 78.6 216 78.6 C 215 78.6 214.2 78.8 213.8 79.2 C 213.3 79.5 212.9 80.1 212.7 81 C 212.7 81 210.6 80.8 210.6 80.8 C 210.8 79.9 211.1 79.1 211.5 78.6 C 212 78 212.6 77.6 213.4 77.3 C 214.3 77 215.2 76.9 216.3 76.9 C 217.4 76.9 218.2 77 218.9 77.3 C 219.6 77.5 220.1 77.8 220.4 78.2 C 220.7 78.6 220.9 79.1 221.1 79.7 C 221.1 80 221.2 80.7 221.2 81.6 C 221.2 81.6 221.2 84.5 221.2 84.5 C 221.2 86.5 221.2 87.7 221.3 88.2 C 221.4 88.8 221.6 89.3 221.8 89.8 C 221.84 89.76 219.6 89.8 219.6 89.8 C 219.6 89.8 219.61 89.76 219.6 89.8 Z M 219 83.4 C 218.2 83.8 217.1 84 215.5 84.2 C 214.6 84.4 214 84.5 213.7 84.7 C 213.3 84.8 213 85.1 212.8 85.4 C 212.6 85.7 212.5 86 212.5 86.4 C 212.5 86.9 212.7 87.4 213.2 87.8 C 213.6 88.2 214.2 88.4 215.1 88.4 C 215.9 88.4 216.6 88.2 217.2 87.8 C 217.9 87.5 218.4 87 218.7 86.4 C 218.9 85.9 219 85.2 219 84.2 C 219 84.2 219 83.4 219 83.4 Z M 228.2 87.9 C 228.4 87.9 228.8 87.9 229.1 87.8 C 229.1 87.8 229.4 89.7 229.4 89.7 C 228.8 89.9 228.3 89.9 227.8 89.9 C 227.1 89.9 226.5 89.8 226 89.6 C 225.6 89.3 225.3 89 225.1 88.6 C 225 88.2 224.9 87.4 224.9 86.1 C 224.87 86.07 224.9 78.8 224.9 78.8 L 223.3 78.8 L 223.3 77.2 L 224.9 77.2 L 224.9 74 L 227 72.8 L 227 77.2 L 229.1 77.2 L 229.1 78.8 L 227 78.8 C 227 78.8 226.99 86.19 227 86.2 C 227 86.8 227 87.2 227.1 87.4 C 227.2 87.5 227.3 87.7 227.5 87.8 C 227.6 87.9 227.9 87.9 228.2 87.9 C 228.2 87.9 228.2 87.9 228.2 87.9 Z M 231.2 74.8 L 231.2 72.4 L 233.4 72.4 L 233.4 74.8 L 231.2 74.8 Z M 231.2 89.8 L 231.2 77.2 L 233.4 77.2 L 233.4 89.8 L 231.2 89.8 Z M 235.8 86 C 235.8 86 237.9 85.7 237.9 85.7 C 238 86.5 238.3 87.2 238.9 87.6 C 239.4 88.1 240.2 88.3 241.1 88.3 C 242.1 88.3 242.9 88.1 243.3 87.7 C 243.8 87.3 244 86.8 244 86.3 C 244 85.8 243.8 85.4 243.4 85.1 C 243.1 85 242.4 84.7 241.2 84.4 C 239.7 84 238.6 83.7 238 83.4 C 237.4 83.1 236.9 82.7 236.6 82.2 C 236.3 81.7 236.1 81.1 236.1 80.5 C 236.1 79.9 236.3 79.4 236.5 78.9 C 236.8 78.5 237.1 78.1 237.6 77.8 C 237.9 77.5 238.3 77.3 238.9 77.1 C 239.5 77 240.1 76.9 240.8 76.9 C 241.8 76.9 242.6 77 243.4 77.3 C 244.1 77.6 244.7 78 245 78.5 C 245.4 78.9 245.6 79.6 245.8 80.4 C 245.8 80.4 243.7 80.7 243.7 80.7 C 243.6 80 243.3 79.5 242.8 79.2 C 242.4 78.8 241.8 78.6 240.9 78.6 C 239.9 78.6 239.2 78.8 238.8 79.1 C 238.4 79.4 238.2 79.8 238.2 80.3 C 238.2 80.5 238.3 80.8 238.5 81 C 238.6 81.2 238.9 81.4 239.3 81.6 C 239.5 81.7 240.1 81.8 241.2 82.1 C 242.7 82.5 243.7 82.9 244.3 83.1 C 244.9 83.4 245.4 83.7 245.7 84.2 C 246.1 84.7 246.2 85.3 246.2 86.1 C 246.2 86.8 246 87.4 245.6 88.1 C 245.2 88.7 244.6 89.2 243.8 89.5 C 243 89.9 242.1 90 241.2 90 C 239.5 90 238.3 89.7 237.4 89 C 236.6 88.3 236 87.3 235.8 86 Z M 249.3 89.8 L 249.3 78.8 L 247.4 78.8 L 247.4 77.2 L 249.3 77.2 C 249.3 77.2 249.29 75.82 249.3 75.8 C 249.3 75 249.4 74.3 249.5 73.9 C 249.7 73.4 250.1 72.9 250.6 72.6 C 251.1 72.2 251.8 72.1 252.8 72.1 C 253.4 72.1 254 72.1 254.8 72.3 C 254.8 72.3 254.4 74.1 254.4 74.1 C 254 74.1 253.6 74 253.2 74 C 252.5 74 252.1 74.2 251.8 74.4 C 251.5 74.7 251.4 75.2 251.4 76 C 251.41 75.99 251.4 77.2 251.4 77.2 L 253.9 77.2 L 253.9 78.8 L 251.4 78.8 L 251.4 89.8 L 249.3 89.8 Z M 264.2 89.8 C 264 89.3 263.8 88.8 263.8 88.2 C 263 88.9 262.2 89.4 261.5 89.6 C 260.7 89.9 260 90 259.1 90 C 257.7 90 256.7 89.7 255.9 89 C 255.2 88.4 254.8 87.5 254.8 86.4 C 254.8 85.8 254.9 85.3 255.2 84.7 C 255.5 84.2 255.9 83.8 256.3 83.5 C 256.8 83.2 257.3 83 257.9 82.8 C 258.3 82.7 258.9 82.6 259.8 82.5 C 261.5 82.3 262.8 82 263.6 81.8 C 263.6 81.5 263.6 81.3 263.6 81.2 C 263.6 80.3 263.4 79.7 263 79.4 C 262.4 78.9 261.6 78.6 260.5 78.6 C 259.5 78.6 258.8 78.8 258.3 79.2 C 257.8 79.5 257.5 80.1 257.3 81 C 257.3 81 255.2 80.8 255.2 80.8 C 255.4 79.9 255.7 79.1 256.1 78.6 C 256.5 78 257.2 77.6 258 77.3 C 258.8 77 259.8 76.9 260.9 76.9 C 261.9 76.9 262.8 77 263.5 77.3 C 264.2 77.5 264.6 77.8 265 78.2 C 265.3 78.6 265.5 79.1 265.6 79.7 C 265.7 80 265.7 80.7 265.7 81.6 C 265.7 81.6 265.7 84.5 265.7 84.5 C 265.7 86.5 265.8 87.7 265.9 88.2 C 266 88.8 266.1 89.3 266.4 89.8 C 266.41 89.76 264.2 89.8 264.2 89.8 C 264.2 89.8 264.18 89.76 264.2 89.8 Z M 263.6 83.4 C 262.8 83.8 261.6 84 260.1 84.2 C 259.2 84.4 258.6 84.5 258.2 84.7 C 257.9 84.8 257.6 85.1 257.4 85.4 C 257.2 85.7 257.1 86 257.1 86.4 C 257.1 86.9 257.3 87.4 257.7 87.8 C 258.2 88.2 258.8 88.4 259.6 88.4 C 260.4 88.4 261.2 88.2 261.8 87.8 C 262.5 87.5 262.9 87 263.2 86.4 C 263.5 85.9 263.6 85.2 263.6 84.2 C 263.6 84.2 263.6 83.4 263.6 83.4 Z M 277.3 85.1 C 277.3 85.1 279.4 85.4 279.4 85.4 C 279.1 86.9 278.6 88 277.6 88.8 C 276.7 89.6 275.5 90 274.1 90 C 272.4 90 271 89.5 270 88.4 C 268.9 87.2 268.4 85.6 268.4 83.5 C 268.4 82.1 268.6 81 269.1 79.9 C 269.5 78.9 270.2 78.1 271.1 77.6 C 272 77.1 273.1 76.9 274.1 76.9 C 275.5 76.9 276.6 77.2 277.5 77.9 C 278.4 78.6 278.9 79.6 279.2 80.9 C 279.2 80.9 277.1 81.2 277.1 81.2 C 276.9 80.3 276.5 79.7 276 79.3 C 275.5 78.8 274.9 78.6 274.2 78.6 C 273.1 78.6 272.3 79 271.6 79.8 C 270.9 80.6 270.6 81.8 270.6 83.4 C 270.6 85.1 270.9 86.4 271.6 87.1 C 272.2 87.9 273.1 88.3 274.1 88.3 C 274.9 88.3 275.6 88 276.2 87.5 C 276.8 87 277.1 86.2 277.3 85.1 Z M 284.9 87.9 C 285.2 87.9 285.5 87.9 285.9 87.8 C 285.9 87.8 286.2 89.7 286.2 89.7 C 285.6 89.9 285 89.9 284.6 89.9 C 283.8 89.9 283.2 89.8 282.8 89.6 C 282.3 89.3 282 89 281.8 88.6 C 281.7 88.2 281.6 87.4 281.6 86.1 C 281.59 86.07 281.6 78.8 281.6 78.8 L 280 78.8 L 280 77.2 L 281.6 77.2 L 281.6 74 L 283.7 72.8 L 283.7 77.2 L 285.9 77.2 L 285.9 78.8 L 283.7 78.8 C 283.7 78.8 283.71 86.19 283.7 86.2 C 283.7 86.8 283.7 87.2 283.8 87.4 C 283.9 87.5 284 87.7 284.2 87.8 C 284.4 87.9 284.6 87.9 284.9 87.9 C 284.9 87.9 284.9 87.9 284.9 87.9 Z M 288 74.8 L 288 72.4 L 290.1 72.4 L 290.1 74.8 L 288 74.8 Z M 288 89.8 L 288 77.2 L 290.1 77.2 L 290.1 89.8 L 288 89.8 Z M 292.6 83.5 C 292.6 81.1 293.2 79.4 294.5 78.3 C 295.6 77.3 296.9 76.9 298.5 76.9 C 300.2 76.9 301.6 77.4 302.7 78.6 C 303.8 79.7 304.4 81.3 304.4 83.3 C 304.4 84.9 304.1 86.2 303.6 87.1 C 303.1 88 302.4 88.8 301.5 89.3 C 300.6 89.8 299.6 90 298.5 90 C 296.7 90 295.3 89.5 294.2 88.3 C 293.1 87.2 292.6 85.6 292.6 83.5 Z M 294.7 83.5 C 294.7 85.1 295.1 86.3 295.8 87.1 C 296.5 87.9 297.4 88.3 298.5 88.3 C 299.5 88.3 300.4 87.9 301.1 87.1 C 301.8 86.3 302.2 85 302.2 83.4 C 302.2 81.8 301.8 80.6 301.1 79.8 C 300.4 79 299.5 78.6 298.5 78.6 C 297.4 78.6 296.5 79 295.8 79.8 C 295.1 80.6 294.7 81.8 294.7 83.5 Z M 306.9 89.8 L 306.9 77.2 L 308.8 77.2 C 308.8 77.2 308.79 78.95 308.8 78.9 C 309.7 77.6 311 76.9 312.8 76.9 C 313.6 76.9 314.3 77 314.9 77.3 C 315.5 77.6 316 77.9 316.3 78.4 C 316.6 78.8 316.9 79.3 317 79.9 C 317.1 80.3 317.1 81 317.1 82 C 317.1 82.01 317.1 89.8 317.1 89.8 L 315 89.8 C 315 89.8 314.97 82.09 315 82.1 C 315 81.2 314.9 80.6 314.7 80.1 C 314.6 79.7 314.3 79.4 313.8 79.1 C 313.4 78.9 312.9 78.7 312.3 78.7 C 311.4 78.7 310.6 79 310 79.6 C 309.3 80.2 309 81.3 309 82.9 C 309 82.88 309 89.8 309 89.8 L 306.9 89.8 Z M 335.8 89.8 C 335.6 89.3 335.4 88.8 335.4 88.2 C 334.6 88.9 333.8 89.4 333.1 89.6 C 332.3 89.9 331.6 90 330.7 90 C 329.3 90 328.3 89.7 327.5 89 C 326.8 88.4 326.4 87.5 326.4 86.4 C 326.4 85.8 326.5 85.3 326.8 84.7 C 327.1 84.2 327.5 83.8 327.9 83.5 C 328.4 83.2 328.9 83 329.5 82.8 C 329.9 82.7 330.5 82.6 331.4 82.5 C 333.1 82.3 334.4 82 335.2 81.8 C 335.2 81.5 335.2 81.3 335.2 81.2 C 335.2 80.3 335 79.7 334.6 79.4 C 334 78.9 333.2 78.6 332.1 78.6 C 331.1 78.6 330.4 78.8 329.9 79.2 C 329.4 79.5 329.1 80.1 328.9 81 C 328.9 81 326.8 80.8 326.8 80.8 C 327 79.9 327.3 79.1 327.7 78.6 C 328.1 78 328.8 77.6 329.6 77.3 C 330.4 77 331.4 76.9 332.5 76.9 C 333.5 76.9 334.4 77 335.1 77.3 C 335.8 77.5 336.2 77.8 336.6 78.2 C 336.9 78.6 337.1 79.1 337.2 79.7 C 337.3 80 337.3 80.7 337.3 81.6 C 337.3 81.6 337.3 84.5 337.3 84.5 C 337.3 86.5 337.4 87.7 337.5 88.2 C 337.6 88.8 337.7 89.3 338 89.8 C 338.01 89.76 335.8 89.8 335.8 89.8 C 335.8 89.8 335.78 89.76 335.8 89.8 Z M 335.2 83.4 C 334.4 83.8 333.2 84 331.7 84.2 C 330.8 84.4 330.2 84.5 329.8 84.7 C 329.5 84.8 329.2 85.1 329 85.4 C 328.8 85.7 328.7 86 328.7 86.4 C 328.7 86.9 328.9 87.4 329.3 87.8 C 329.8 88.2 330.4 88.4 331.2 88.4 C 332 88.4 332.8 88.2 333.4 87.8 C 334.1 87.5 334.5 87 334.8 86.4 C 335.1 85.9 335.2 85.2 335.2 84.2 C 335.2 84.2 335.2 83.4 335.2 83.4 Z M 340.3 90.8 C 340.3 90.8 342.3 91.1 342.3 91.1 C 342.4 91.8 342.7 92.2 343.1 92.5 C 343.6 92.9 344.3 93.1 345.2 93.1 C 346.2 93.1 347 92.9 347.5 92.5 C 348.1 92.1 348.4 91.6 348.6 90.9 C 348.7 90.4 348.8 89.5 348.8 88.1 C 347.8 89.2 346.7 89.8 345.3 89.8 C 343.5 89.8 342.2 89.1 341.3 87.9 C 340.3 86.6 339.8 85.1 339.8 83.4 C 339.8 82.2 340 81.1 340.5 80.1 C 340.9 79 341.5 78.3 342.4 77.7 C 343.2 77.2 344.2 76.9 345.3 76.9 C 346.8 76.9 348 77.5 349 78.7 C 348.96 78.68 349 77.2 349 77.2 L 350.9 77.2 C 350.9 77.2 350.93 88.05 350.9 88.1 C 350.9 90 350.7 91.4 350.3 92.2 C 349.9 93 349.3 93.7 348.4 94.2 C 347.6 94.6 346.5 94.9 345.2 94.9 C 343.7 94.9 342.5 94.5 341.6 93.9 C 340.7 93.2 340.2 92.2 340.3 90.8 Z M 342 83.2 C 342 84.9 342.4 86.1 343 86.9 C 343.7 87.6 344.5 88 345.5 88 C 346.5 88 347.3 87.6 347.9 86.9 C 348.6 86.1 348.9 84.9 348.9 83.3 C 348.9 81.8 348.6 80.6 347.9 79.8 C 347.2 79 346.4 78.6 345.4 78.6 C 344.5 78.6 343.7 79 343 79.8 C 342.4 80.6 342 81.7 342 83.2 Z M 362.8 89.8 C 362.6 89.3 362.4 88.8 362.4 88.2 C 361.6 88.9 360.8 89.4 360.1 89.6 C 359.4 89.9 358.6 90 357.7 90 C 356.4 90 355.3 89.7 354.6 89 C 353.8 88.4 353.4 87.5 353.4 86.4 C 353.4 85.8 353.6 85.3 353.9 84.7 C 354.1 84.2 354.5 83.8 355 83.5 C 355.4 83.2 355.9 83 356.5 82.8 C 356.9 82.7 357.6 82.6 358.4 82.5 C 360.1 82.3 361.4 82 362.2 81.8 C 362.2 81.5 362.2 81.3 362.2 81.2 C 362.2 80.3 362 79.7 361.6 79.4 C 361.1 78.9 360.3 78.6 359.2 78.6 C 358.2 78.6 357.4 78.8 357 79.2 C 356.5 79.5 356.1 80.1 355.9 81 C 355.9 81 353.8 80.8 353.8 80.8 C 354 79.9 354.3 79.1 354.7 78.6 C 355.2 78 355.8 77.6 356.6 77.3 C 357.5 77 358.4 76.9 359.5 76.9 C 360.6 76.9 361.4 77 362.1 77.3 C 362.8 77.5 363.3 77.8 363.6 78.2 C 363.9 78.6 364.1 79.1 364.3 79.7 C 364.3 80 364.4 80.7 364.4 81.6 C 364.4 81.6 364.4 84.5 364.4 84.5 C 364.4 86.5 364.4 87.7 364.5 88.2 C 364.6 88.8 364.8 89.3 365 89.8 C 365.04 89.76 362.8 89.8 362.8 89.8 C 362.8 89.8 362.81 89.76 362.8 89.8 Z M 362.2 83.4 C 361.4 83.8 360.3 84 358.7 84.2 C 357.8 84.4 357.2 84.5 356.9 84.7 C 356.5 84.8 356.2 85.1 356 85.4 C 355.8 85.7 355.7 86 355.7 86.4 C 355.7 86.9 355.9 87.4 356.4 87.8 C 356.8 88.2 357.4 88.4 358.3 88.4 C 359.1 88.4 359.8 88.2 360.5 87.8 C 361.1 87.5 361.6 87 361.9 86.4 C 362.1 85.9 362.2 85.2 362.2 84.2 C 362.2 84.2 362.2 83.4 362.2 83.4 Z M 367.7 74.8 L 367.7 72.4 L 369.8 72.4 L 369.8 74.8 L 367.7 74.8 Z M 367.7 89.8 L 367.7 77.2 L 369.8 77.2 L 369.8 89.8 L 367.7 89.8 Z M 373.1 89.8 L 373.1 77.2 L 375 77.2 C 375 77.2 375 78.95 375 78.9 C 375.9 77.6 377.3 76.9 379 76.9 C 379.8 76.9 380.5 77 381.1 77.3 C 381.7 77.6 382.2 77.9 382.5 78.4 C 382.9 78.8 383.1 79.3 383.2 79.9 C 383.3 80.3 383.3 81 383.3 82 C 383.32 82.01 383.3 89.8 383.3 89.8 L 381.2 89.8 C 381.2 89.8 381.18 82.09 381.2 82.1 C 381.2 81.2 381.1 80.6 380.9 80.1 C 380.8 79.7 380.5 79.4 380 79.1 C 379.6 78.9 379.1 78.7 378.6 78.7 C 377.6 78.7 376.9 79 376.2 79.6 C 375.5 80.2 375.2 81.3 375.2 82.9 C 375.21 82.88 375.2 89.8 375.2 89.8 L 373.1 89.8 Z M 385.7 86 C 385.7 86 387.9 85.7 387.9 85.7 C 388 86.5 388.3 87.2 388.8 87.6 C 389.4 88.1 390.1 88.3 391.1 88.3 C 392.1 88.3 392.8 88.1 393.3 87.7 C 393.8 87.3 394 86.8 394 86.3 C 394 85.8 393.8 85.4 393.4 85.1 C 393.1 85 392.4 84.7 391.2 84.4 C 389.6 84 388.5 83.7 387.9 83.4 C 387.3 83.1 386.9 82.7 386.6 82.2 C 386.3 81.7 386.1 81.1 386.1 80.5 C 386.1 79.9 386.2 79.4 386.5 78.9 C 386.7 78.5 387.1 78.1 387.5 77.8 C 387.9 77.5 388.3 77.3 388.9 77.1 C 389.5 77 390.1 76.9 390.7 76.9 C 391.7 76.9 392.6 77 393.3 77.3 C 394.1 77.6 394.6 78 395 78.5 C 395.3 78.9 395.6 79.6 395.7 80.4 C 395.7 80.4 393.6 80.7 393.6 80.7 C 393.5 80 393.3 79.5 392.8 79.2 C 392.4 78.8 391.7 78.6 390.9 78.6 C 389.9 78.6 389.2 78.8 388.8 79.1 C 388.4 79.4 388.2 79.8 388.2 80.3 C 388.2 80.5 388.2 80.8 388.4 81 C 388.6 81.2 388.9 81.4 389.2 81.6 C 389.5 81.7 390.1 81.8 391.1 82.1 C 392.6 82.5 393.7 82.9 394.3 83.1 C 394.9 83.4 395.4 83.7 395.7 84.2 C 396 84.7 396.2 85.3 396.2 86.1 C 396.2 86.8 396 87.4 395.6 88.1 C 395.2 88.7 394.6 89.2 393.8 89.5 C 393 89.9 392.1 90 391.1 90 C 389.5 90 388.2 89.7 387.4 89 C 386.5 88.3 386 87.3 385.7 86 Z M 402.5 87.9 C 402.7 87.9 403 87.9 403.4 87.8 C 403.4 87.8 403.7 89.7 403.7 89.7 C 403.1 89.9 402.6 89.9 402.1 89.9 C 401.3 89.9 400.7 89.8 400.3 89.6 C 399.9 89.3 399.6 89 399.4 88.6 C 399.2 88.2 399.1 87.4 399.1 86.1 C 399.14 86.07 399.1 78.8 399.1 78.8 L 397.6 78.8 L 397.6 77.2 L 399.1 77.2 L 399.1 74 L 401.3 72.8 L 401.3 77.2 L 403.4 77.2 L 403.4 78.8 L 401.3 78.8 C 401.3 78.8 401.26 86.19 401.3 86.2 C 401.3 86.8 401.3 87.2 401.4 87.4 C 401.4 87.5 401.6 87.7 401.7 87.8 C 401.9 87.9 402.2 87.9 402.5 87.9 C 402.5 87.9 402.5 87.9 402.5 87.9 Z M 411.5 83.5 C 411.5 81.1 412.1 79.4 413.4 78.3 C 414.5 77.3 415.8 76.9 417.4 76.9 C 419.1 76.9 420.5 77.4 421.6 78.6 C 422.7 79.7 423.3 81.3 423.3 83.3 C 423.3 84.9 423 86.2 422.5 87.1 C 422 88 421.3 88.8 420.4 89.3 C 419.5 89.8 418.5 90 417.4 90 C 415.6 90 414.2 89.5 413.1 88.3 C 412 87.2 411.5 85.6 411.5 83.5 Z M 413.6 83.5 C 413.6 85.1 414 86.3 414.7 87.1 C 415.4 87.9 416.3 88.3 417.4 88.3 C 418.4 88.3 419.3 87.9 420 87.1 C 420.7 86.3 421.1 85 421.1 83.4 C 421.1 81.8 420.7 80.6 420 79.8 C 419.3 79 418.4 78.6 417.4 78.6 C 416.3 78.6 415.4 79 414.7 79.8 C 414 80.6 413.6 81.8 413.6 83.5 Z M 434 89.8 C 434 89.8 434.02 87.91 434 87.9 C 433 89.3 431.7 90 430 90 C 429.3 90 428.6 89.9 427.9 89.6 C 427.3 89.3 426.8 89 426.5 88.5 C 426.2 88.1 426 87.6 425.8 87 C 425.8 86.5 425.7 85.9 425.7 85 C 425.72 84.97 425.7 77.2 425.7 77.2 L 427.9 77.2 C 427.9 77.2 427.85 84.15 427.9 84.1 C 427.9 85.3 427.9 86 428 86.4 C 428.1 87 428.4 87.4 428.8 87.7 C 429.3 88 429.8 88.2 430.5 88.2 C 431.1 88.2 431.7 88 432.3 87.7 C 432.8 87.4 433.2 86.9 433.4 86.4 C 433.7 85.8 433.8 85 433.8 83.9 C 433.8 83.91 433.8 77.2 433.8 77.2 L 435.9 77.2 L 435.9 89.8 L 434 89.8 Z M 439.3 89.8 L 439.3 77.2 L 441.2 77.2 C 441.2 77.2 441.18 79.07 441.2 79.1 C 441.7 78.2 442.1 77.6 442.5 77.3 C 443 77 443.4 76.9 443.9 76.9 C 444.6 76.9 445.4 77.1 446.1 77.6 C 446.1 77.6 445.4 79.5 445.4 79.5 C 444.8 79.2 444.3 79.1 443.8 79.1 C 443.3 79.1 442.9 79.2 442.5 79.5 C 442.2 79.8 441.9 80.2 441.7 80.7 C 441.5 81.4 441.4 82.3 441.4 83.2 C 441.39 83.16 441.4 89.8 441.4 89.8 L 439.3 89.8 Z M 456.1 89.8 L 454.1 89.8 L 454.1 72.4 L 456.2 72.4 C 456.2 72.4 456.25 78.57 456.2 78.6 C 457.1 77.4 458.3 76.9 459.7 76.9 C 460.5 76.9 461.2 77 461.9 77.3 C 462.6 77.7 463.2 78.1 463.6 78.7 C 464.1 79.2 464.4 79.9 464.7 80.7 C 464.9 81.5 465 82.4 465 83.3 C 465 85.4 464.5 87.1 463.4 88.3 C 462.4 89.5 461.1 90 459.6 90 C 458.1 90 456.9 89.4 456.1 88.2 C 456.09 88.18 456.1 89.8 456.1 89.8 Z M 456.1 83.4 C 456.1 84.9 456.3 86 456.7 86.6 C 457.4 87.7 458.3 88.3 459.4 88.3 C 460.3 88.3 461.2 87.9 461.8 87.1 C 462.5 86.3 462.9 85.1 462.9 83.4 C 462.9 81.8 462.5 80.6 461.9 79.8 C 461.2 79 460.4 78.6 459.5 78.6 C 458.6 78.6 457.8 79 457.1 79.8 C 456.4 80.7 456.1 81.8 456.1 83.4 Z M 475.9 89.8 C 475.9 89.8 475.9 87.91 475.9 87.9 C 474.9 89.3 473.6 90 471.9 90 C 471.2 90 470.5 89.9 469.8 89.6 C 469.2 89.3 468.7 89 468.4 88.5 C 468.1 88.1 467.8 87.6 467.7 87 C 467.6 86.5 467.6 85.9 467.6 85 C 467.59 84.97 467.6 77.2 467.6 77.2 L 469.7 77.2 C 469.7 77.2 469.73 84.15 469.7 84.1 C 469.7 85.3 469.8 86 469.9 86.4 C 470 87 470.3 87.4 470.7 87.7 C 471.1 88 471.7 88.2 472.3 88.2 C 473 88.2 473.6 88 474.1 87.7 C 474.7 87.4 475.1 86.9 475.3 86.4 C 475.6 85.8 475.7 85 475.7 83.9 C 475.67 83.91 475.7 77.2 475.7 77.2 L 477.8 77.2 L 477.8 89.8 L 475.9 89.8 Z M 480.3 86 C 480.3 86 482.4 85.7 482.4 85.7 C 482.5 86.5 482.9 87.2 483.4 87.6 C 483.9 88.1 484.7 88.3 485.7 88.3 C 486.7 88.3 487.4 88.1 487.9 87.7 C 488.3 87.3 488.6 86.8 488.6 86.3 C 488.6 85.8 488.4 85.4 487.9 85.1 C 487.6 85 486.9 84.7 485.8 84.4 C 484.2 84 483.1 83.7 482.5 83.4 C 481.9 83.1 481.4 82.7 481.1 82.2 C 480.8 81.7 480.7 81.1 480.7 80.5 C 480.7 79.9 480.8 79.4 481 78.9 C 481.3 78.5 481.6 78.1 482.1 77.8 C 482.4 77.5 482.9 77.3 483.5 77.1 C 484 77 484.6 76.9 485.3 76.9 C 486.3 76.9 487.2 77 487.9 77.3 C 488.6 77.6 489.2 78 489.6 78.5 C 489.9 78.9 490.2 79.6 490.3 80.4 C 490.3 80.4 488.2 80.7 488.2 80.7 C 488.1 80 487.8 79.5 487.4 79.2 C 486.9 78.8 486.3 78.6 485.5 78.6 C 484.5 78.6 483.8 78.8 483.4 79.1 C 482.9 79.4 482.7 79.8 482.7 80.3 C 482.7 80.5 482.8 80.8 483 81 C 483.2 81.2 483.4 81.4 483.8 81.6 C 484 81.7 484.6 81.8 485.7 82.1 C 487.2 82.5 488.3 82.9 488.9 83.1 C 489.4 83.4 489.9 83.7 490.3 84.2 C 490.6 84.7 490.8 85.3 490.8 86.1 C 490.8 86.8 490.6 87.4 490.1 88.1 C 489.7 88.7 489.1 89.2 488.3 89.5 C 487.6 89.9 486.7 90 485.7 90 C 484.1 90 482.8 89.7 481.9 89 C 481.1 88.3 480.5 87.3 480.3 86 Z M 493.3 74.8 L 493.3 72.4 L 495.5 72.4 L 495.5 74.8 L 493.3 74.8 Z M 493.3 89.8 L 493.3 77.2 L 495.5 77.2 L 495.5 89.8 L 493.3 89.8 Z M 498.7 89.8 L 498.7 77.2 L 500.6 77.2 C 500.6 77.2 500.63 78.95 500.6 78.9 C 501.6 77.6 502.9 76.9 504.6 76.9 C 505.4 76.9 506.1 77 506.7 77.3 C 507.4 77.6 507.8 77.9 508.2 78.4 C 508.5 78.8 508.7 79.3 508.8 79.9 C 508.9 80.3 508.9 81 508.9 82 C 508.95 82.01 508.9 89.8 508.9 89.8 L 506.8 89.8 C 506.8 89.8 506.81 82.09 506.8 82.1 C 506.8 81.2 506.7 80.6 506.6 80.1 C 506.4 79.7 506.1 79.4 505.7 79.1 C 505.3 78.9 504.8 78.7 504.2 78.7 C 503.3 78.7 502.5 79 501.8 79.6 C 501.2 80.2 500.8 81.3 500.8 82.9 C 500.84 82.88 500.8 89.8 500.8 89.8 L 498.7 89.8 Z M 520.8 85.7 C 520.8 85.7 523.1 86 523.1 86 C 522.7 87.3 522.1 88.3 521.1 89 C 520.2 89.7 519 90 517.5 90 C 515.7 90 514.2 89.5 513.1 88.3 C 512 87.2 511.5 85.6 511.5 83.6 C 511.5 81.4 512.1 79.8 513.1 78.6 C 514.2 77.5 515.7 76.9 517.4 76.9 C 519.1 76.9 520.5 77.4 521.5 78.6 C 522.6 79.7 523.1 81.4 523.1 83.4 C 523.1 83.6 523.1 83.8 523.1 84 C 523.1 84 513.7 84 513.7 84 C 513.8 85.4 514.2 86.4 514.9 87.2 C 515.6 87.9 516.5 88.3 517.5 88.3 C 518.3 88.3 519 88.1 519.5 87.7 C 520.1 87.3 520.5 86.6 520.8 85.7 Z M 513.8 82.2 C 513.8 82.2 520.9 82.2 520.9 82.2 C 520.8 81.2 520.5 80.4 520.1 79.9 C 519.4 79 518.5 78.6 517.4 78.6 C 516.4 78.6 515.6 79 514.9 79.6 C 514.3 80.3 513.9 81.1 513.8 82.2 Z M 524.9 86 C 524.9 86 527 85.7 527 85.7 C 527.1 86.5 527.4 87.2 528 87.6 C 528.5 88.1 529.3 88.3 530.3 88.3 C 531.2 88.3 532 88.1 532.4 87.7 C 532.9 87.3 533.2 86.8 533.2 86.3 C 533.2 85.8 532.9 85.4 532.5 85.1 C 532.2 85 531.5 84.7 530.3 84.4 C 528.8 84 527.7 83.7 527.1 83.4 C 526.5 83.1 526 82.7 525.7 82.2 C 525.4 81.7 525.2 81.1 525.2 80.5 C 525.2 79.9 525.4 79.4 525.6 78.9 C 525.9 78.5 526.2 78.1 526.7 77.8 C 527 77.5 527.5 77.3 528 77.1 C 528.6 77 529.2 76.9 529.9 76.9 C 530.9 76.9 531.7 77 532.5 77.3 C 533.2 77.6 533.8 78 534.1 78.5 C 534.5 78.9 534.7 79.6 534.9 80.4 C 534.9 80.4 532.8 80.7 532.8 80.7 C 532.7 80 532.4 79.5 532 79.2 C 531.5 78.8 530.9 78.6 530 78.6 C 529.1 78.6 528.4 78.8 527.9 79.1 C 527.5 79.4 527.3 79.8 527.3 80.3 C 527.3 80.5 527.4 80.8 527.6 81 C 527.7 81.2 528 81.4 528.4 81.6 C 528.6 81.7 529.2 81.8 530.3 82.1 C 531.8 82.5 532.8 82.9 533.4 83.1 C 534 83.4 534.5 83.7 534.8 84.2 C 535.2 84.7 535.3 85.3 535.3 86.1 C 535.3 86.8 535.1 87.4 534.7 88.1 C 534.3 88.7 533.7 89.2 532.9 89.5 C 532.1 89.9 531.3 90 530.3 90 C 528.6 90 527.4 89.7 526.5 89 C 525.7 88.3 525.1 87.3 524.9 86 Z M 537 86 C 537 86 539.1 85.7 539.1 85.7 C 539.3 86.5 539.6 87.2 540.1 87.6 C 540.7 88.1 541.4 88.3 542.4 88.3 C 543.4 88.3 544.1 88.1 544.6 87.7 C 545.1 87.3 545.3 86.8 545.3 86.3 C 545.3 85.8 545.1 85.4 544.7 85.1 C 544.4 85 543.7 84.7 542.5 84.4 C 540.9 84 539.8 83.7 539.2 83.4 C 538.6 83.1 538.2 82.7 537.9 82.2 C 537.5 81.7 537.4 81.1 537.4 80.5 C 537.4 79.9 537.5 79.4 537.8 78.9 C 538 78.5 538.4 78.1 538.8 77.8 C 539.2 77.5 539.6 77.3 540.2 77.1 C 540.8 77 541.4 76.9 542 76.9 C 543 76.9 543.9 77 544.6 77.3 C 545.4 77.6 545.9 78 546.3 78.5 C 546.6 78.9 546.9 79.6 547 80.4 C 547 80.4 544.9 80.7 544.9 80.7 C 544.8 80 544.6 79.5 544.1 79.2 C 543.7 78.8 543 78.6 542.2 78.6 C 541.2 78.6 540.5 78.8 540.1 79.1 C 539.7 79.4 539.5 79.8 539.5 80.3 C 539.5 80.5 539.5 80.8 539.7 81 C 539.9 81.2 540.2 81.4 540.5 81.6 C 540.7 81.7 541.4 81.8 542.4 82.1 C 543.9 82.5 545 82.9 545.6 83.1 C 546.2 83.4 546.6 83.7 547 84.2 C 547.3 84.7 547.5 85.3 547.5 86.1 C 547.5 86.8 547.3 87.4 546.9 88.1 C 546.5 88.7 545.9 89.2 545.1 89.5 C 544.3 89.9 543.4 90 542.4 90 C 540.8 90 539.5 89.7 538.7 89 C 537.8 88.3 537.3 87.3 537 86 Z M 558.8 89.8 L 556.8 89.8 L 556.8 72.4 L 558.9 72.4 C 558.9 72.4 558.92 78.57 558.9 78.6 C 559.8 77.4 561 76.9 562.4 76.9 C 563.1 76.9 563.9 77 564.6 77.3 C 565.3 77.7 565.8 78.1 566.3 78.7 C 566.7 79.2 567.1 79.9 567.3 80.7 C 567.6 81.5 567.7 82.4 567.7 83.3 C 567.7 85.4 567.2 87.1 566.1 88.3 C 565 89.5 563.8 90 562.3 90 C 560.8 90 559.6 89.4 558.8 88.2 C 558.76 88.18 558.8 89.8 558.8 89.8 Z M 558.7 83.4 C 558.7 84.9 558.9 86 559.4 86.6 C 560 87.7 560.9 88.3 562.1 88.3 C 563 88.3 563.8 87.9 564.5 87.1 C 565.2 86.3 565.5 85.1 565.5 83.4 C 565.5 81.8 565.2 80.6 564.5 79.8 C 563.9 79 563.1 78.6 562.2 78.6 C 561.2 78.6 560.4 79 559.8 79.8 C 559.1 80.7 558.7 81.8 558.7 83.4 Z M 578.9 85.7 C 578.9 85.7 581.1 86 581.1 86 C 580.8 87.3 580.1 88.3 579.2 89 C 578.3 89.7 577.1 90 575.6 90 C 573.8 90 572.3 89.5 571.2 88.3 C 570.1 87.2 569.6 85.6 569.6 83.6 C 569.6 81.4 570.1 79.8 571.2 78.6 C 572.3 77.5 573.7 76.9 575.5 76.9 C 577.2 76.9 578.5 77.4 579.6 78.6 C 580.7 79.7 581.2 81.4 581.2 83.4 C 581.2 83.6 581.2 83.8 581.2 84 C 581.2 84 571.8 84 571.8 84 C 571.9 85.4 572.3 86.4 573 87.2 C 573.7 87.9 574.6 88.3 575.6 88.3 C 576.4 88.3 577.1 88.1 577.6 87.7 C 578.2 87.3 578.6 86.6 578.9 85.7 Z M 571.9 82.2 C 571.9 82.2 579 82.2 579 82.2 C 578.9 81.2 578.6 80.4 578.2 79.9 C 577.5 79 576.6 78.6 575.5 78.6 C 574.5 78.6 573.7 79 573 79.6 C 572.4 80.3 572 81.1 571.9 82.2 Z M 583.8 89.8 L 583.8 72.4 L 586 72.4 C 586 72.4 585.96 78.61 586 78.6 C 587 77.5 588.2 76.9 589.7 76.9 C 590.7 76.9 591.5 77.1 592.2 77.4 C 592.9 77.8 593.3 78.3 593.6 78.9 C 593.9 79.6 594.1 80.5 594.1 81.8 C 594.09 81.77 594.1 89.8 594.1 89.8 L 592 89.8 C 592 89.8 591.95 81.77 592 81.8 C 592 80.7 591.7 79.9 591.3 79.4 C 590.8 79 590.1 78.7 589.3 78.7 C 588.7 78.7 588.1 78.9 587.5 79.2 C 586.9 79.5 586.6 80 586.3 80.5 C 586.1 81.1 586 81.9 586 82.9 C 585.96 82.87 586 89.8 586 89.8 L 583.8 89.8 Z M 606 89.8 C 605.8 89.3 605.6 88.8 605.6 88.2 C 604.8 88.9 604 89.4 603.3 89.6 C 602.5 89.9 601.8 90 600.9 90 C 599.5 90 598.5 89.7 597.7 89 C 597 88.4 596.6 87.5 596.6 86.4 C 596.6 85.8 596.8 85.3 597 84.7 C 597.3 84.2 597.7 83.8 598.1 83.5 C 598.6 83.2 599.1 83 599.7 82.8 C 600.1 82.7 600.7 82.6 601.6 82.5 C 603.3 82.3 604.6 82 605.4 81.8 C 605.4 81.5 605.4 81.3 605.4 81.2 C 605.4 80.3 605.2 79.7 604.8 79.4 C 604.2 78.9 603.4 78.6 602.4 78.6 C 601.4 78.6 600.6 78.8 600.1 79.2 C 599.7 79.5 599.3 80.1 599.1 81 C 599.1 81 597 80.8 597 80.8 C 597.2 79.9 597.5 79.1 597.9 78.6 C 598.4 78 599 77.6 599.8 77.3 C 600.6 77 601.6 76.9 602.7 76.9 C 603.7 76.9 604.6 77 605.3 77.3 C 606 77.5 606.5 77.8 606.8 78.2 C 607.1 78.6 607.3 79.1 607.4 79.7 C 607.5 80 607.5 80.7 607.5 81.6 C 607.5 81.6 607.5 84.5 607.5 84.5 C 607.5 86.5 607.6 87.7 607.7 88.2 C 607.8 88.8 608 89.3 608.2 89.8 C 608.22 89.76 606 89.8 606 89.8 C 606 89.8 605.99 89.76 606 89.8 Z M 605.4 83.4 C 604.6 83.8 603.4 84 601.9 84.2 C 601 84.4 600.4 84.5 600 84.7 C 599.7 84.8 599.4 85.1 599.2 85.4 C 599 85.7 598.9 86 598.9 86.4 C 598.9 86.9 599.1 87.4 599.5 87.8 C 600 88.2 600.6 88.4 601.4 88.4 C 602.3 88.4 603 88.2 603.6 87.8 C 604.3 87.5 604.7 87 605 86.4 C 605.3 85.9 605.4 85.2 605.4 84.2 C 605.4 84.2 605.4 83.4 605.4 83.4 Z M 614.4 89.8 L 609.6 77.2 L 611.8 77.2 C 611.8 77.2 614.52 84.7 614.5 84.7 C 614.8 85.5 615.1 86.4 615.3 87.2 C 615.5 86.6 615.8 85.8 616.1 84.8 C 616.12 84.85 618.9 77.2 618.9 77.2 L 621.1 77.2 L 616.3 89.8 L 614.4 89.8 Z M 623 74.8 L 623 72.4 L 625.2 72.4 L 625.2 74.8 L 623 74.8 Z M 623 89.8 L 623 77.2 L 625.2 77.2 L 625.2 89.8 L 623 89.8 Z M 627.6 83.5 C 627.6 81.1 628.3 79.4 629.6 78.3 C 630.6 77.3 632 76.9 633.5 76.9 C 635.3 76.9 636.7 77.4 637.8 78.6 C 638.9 79.7 639.4 81.3 639.4 83.3 C 639.4 84.9 639.2 86.2 638.7 87.1 C 638.2 88 637.5 88.8 636.6 89.3 C 635.6 89.8 634.6 90 633.5 90 C 631.8 90 630.3 89.5 629.2 88.3 C 628.2 87.2 627.6 85.6 627.6 83.5 Z M 629.8 83.5 C 629.8 85.1 630.2 86.3 630.9 87.1 C 631.6 87.9 632.5 88.3 633.5 88.3 C 634.6 88.3 635.5 87.9 636.2 87.1 C 636.9 86.3 637.2 85 637.2 83.4 C 637.2 81.8 636.9 80.6 636.2 79.8 C 635.5 79 634.6 78.6 633.5 78.6 C 632.5 78.6 631.6 79 630.9 79.8 C 630.2 80.6 629.8 81.8 629.8 83.5 Z M 650.2 89.8 C 650.2 89.8 650.18 87.91 650.2 87.9 C 649.2 89.3 647.9 90 646.2 90 C 645.4 90 644.7 89.9 644.1 89.6 C 643.5 89.3 643 89 642.7 88.5 C 642.3 88.1 642.1 87.6 642 87 C 641.9 86.5 641.9 85.9 641.9 85 C 641.87 84.97 641.9 77.2 641.9 77.2 L 644 77.2 C 644 77.2 644.01 84.15 644 84.1 C 644 85.3 644.1 86 644.1 86.4 C 644.3 87 644.6 87.4 645 87.7 C 645.4 88 646 88.2 646.6 88.2 C 647.2 88.2 647.8 88 648.4 87.7 C 649 87.4 649.4 86.9 649.6 86.4 C 649.8 85.8 650 85 650 83.9 C 649.95 83.91 650 77.2 650 77.2 L 652.1 77.2 L 652.1 89.8 L 650.2 89.8 Z M 655.4 89.8 L 655.4 77.2 L 657.3 77.2 C 657.3 77.2 657.33 79.07 657.3 79.1 C 657.8 78.2 658.3 77.6 658.7 77.3 C 659.1 77 659.6 76.9 660.1 76.9 C 660.8 76.9 661.5 77.1 662.3 77.6 C 662.3 77.6 661.5 79.5 661.5 79.5 C 661 79.2 660.5 79.1 660 79.1 C 659.5 79.1 659.1 79.2 658.7 79.5 C 658.3 79.8 658.1 80.2 657.9 80.7 C 657.7 81.4 657.5 82.3 657.5 83.2 C 657.55 83.16 657.5 89.8 657.5 89.8 L 655.4 89.8 Z M 662.7 86 C 662.7 86 664.8 85.7 664.8 85.7 C 664.9 86.5 665.2 87.2 665.8 87.6 C 666.3 88.1 667.1 88.3 668 88.3 C 669 88.3 669.8 88.1 670.2 87.7 C 670.7 87.3 670.9 86.8 670.9 86.3 C 670.9 85.8 670.7 85.4 670.3 85.1 C 670 85 669.3 84.7 668.1 84.4 C 666.6 84 665.5 83.7 664.9 83.4 C 664.3 83.1 663.8 82.7 663.5 82.2 C 663.2 81.7 663 81.1 663 80.5 C 663 79.9 663.2 79.4 663.4 78.9 C 663.7 78.5 664 78.1 664.5 77.8 C 664.8 77.5 665.3 77.3 665.8 77.1 C 666.4 77 667 76.9 667.7 76.9 C 668.7 76.9 669.5 77 670.3 77.3 C 671 77.6 671.6 78 671.9 78.5 C 672.3 78.9 672.5 79.6 672.7 80.4 C 672.7 80.4 670.6 80.7 670.6 80.7 C 670.5 80 670.2 79.5 669.8 79.2 C 669.3 78.8 668.7 78.6 667.8 78.6 C 666.8 78.6 666.1 78.8 665.7 79.1 C 665.3 79.4 665.1 79.8 665.1 80.3 C 665.1 80.5 665.2 80.8 665.4 81 C 665.5 81.2 665.8 81.4 666.2 81.6 C 666.4 81.7 667 81.8 668.1 82.1 C 669.6 82.5 670.6 82.9 671.2 83.1 C 671.8 83.4 672.3 83.7 672.6 84.2 C 673 84.7 673.1 85.3 673.1 86.1 C 673.1 86.8 672.9 87.4 672.5 88.1 C 672.1 88.7 671.5 89.2 670.7 89.5 C 669.9 89.9 669.1 90 668.1 90 C 666.4 90 665.2 89.7 664.3 89 C 663.5 88.3 662.9 87.3 662.7 86 Z M 691.1 89.8 C 690.9 89.3 690.7 88.8 690.7 88.2 C 689.9 88.9 689.1 89.4 688.4 89.6 C 687.6 89.9 686.9 90 686 90 C 684.6 90 683.6 89.7 682.8 89 C 682.1 88.4 681.7 87.5 681.7 86.4 C 681.7 85.8 681.8 85.3 682.1 84.7 C 682.4 84.2 682.8 83.8 683.2 83.5 C 683.7 83.2 684.2 83 684.8 82.8 C 685.2 82.7 685.8 82.6 686.7 82.5 C 688.4 82.3 689.7 82 690.5 81.8 C 690.5 81.5 690.5 81.3 690.5 81.2 C 690.5 80.3 690.3 79.7 689.9 79.4 C 689.3 78.9 688.5 78.6 687.5 78.6 C 686.4 78.6 685.7 78.8 685.2 79.2 C 684.7 79.5 684.4 80.1 684.2 81 C 684.2 81 682.1 80.8 682.1 80.8 C 682.3 79.9 682.6 79.1 683 78.6 C 683.4 78 684.1 77.6 684.9 77.3 C 685.7 77 686.7 76.9 687.8 76.9 C 688.8 76.9 689.7 77 690.4 77.3 C 691.1 77.5 691.5 77.8 691.9 78.2 C 692.2 78.6 692.4 79.1 692.5 79.7 C 692.6 80 692.6 80.7 692.6 81.6 C 692.6 81.6 692.6 84.5 692.6 84.5 C 692.6 86.5 692.7 87.7 692.8 88.2 C 692.9 88.8 693 89.3 693.3 89.8 C 693.31 89.76 691.1 89.8 691.1 89.8 C 691.1 89.8 691.08 89.76 691.1 89.8 Z M 690.5 83.4 C 689.7 83.8 688.5 84 687 84.2 C 686.1 84.4 685.5 84.5 685.1 84.7 C 684.8 84.8 684.5 85.1 684.3 85.4 C 684.1 85.7 684 86 684 86.4 C 684 86.9 684.2 87.4 684.6 87.8 C 685.1 88.2 685.7 88.4 686.5 88.4 C 687.3 88.4 688.1 88.2 688.7 87.8 C 689.4 87.5 689.8 87 690.1 86.4 C 690.4 85.9 690.5 85.2 690.5 84.2 C 690.5 84.2 690.5 83.4 690.5 83.4 Z M 695.1 86 C 695.1 86 697.2 85.7 697.2 85.7 C 697.3 86.5 697.7 87.2 698.2 87.6 C 698.7 88.1 699.5 88.3 700.5 88.3 C 701.4 88.3 702.2 88.1 702.7 87.7 C 703.1 87.3 703.4 86.8 703.4 86.3 C 703.4 85.8 703.2 85.4 702.7 85.1 C 702.4 85 701.7 84.7 700.6 84.4 C 699 84 697.9 83.7 697.3 83.4 C 696.7 83.1 696.2 82.7 695.9 82.2 C 695.6 81.7 695.4 81.1 695.4 80.5 C 695.4 79.9 695.6 79.4 695.8 78.9 C 696.1 78.5 696.4 78.1 696.9 77.8 C 697.2 77.5 697.7 77.3 698.2 77.1 C 698.8 77 699.4 76.9 700.1 76.9 C 701.1 76.9 701.9 77 702.7 77.3 C 703.4 77.6 704 78 704.3 78.5 C 704.7 78.9 704.9 79.6 705.1 80.4 C 705.1 80.4 703 80.7 703 80.7 C 702.9 80 702.6 79.5 702.2 79.2 C 701.7 78.8 701.1 78.6 700.2 78.6 C 699.3 78.6 698.6 78.8 698.1 79.1 C 697.7 79.4 697.5 79.8 697.5 80.3 C 697.5 80.5 697.6 80.8 697.8 81 C 697.9 81.2 698.2 81.4 698.6 81.6 C 698.8 81.7 699.4 81.8 700.5 82.1 C 702 82.5 703 82.9 703.6 83.1 C 704.2 83.4 704.7 83.7 705 84.2 C 705.4 84.7 705.6 85.3 705.6 86.1 C 705.6 86.8 705.4 87.4 704.9 88.1 C 704.5 88.7 703.9 89.2 703.1 89.5 C 702.4 89.9 701.5 90 700.5 90 C 698.8 90 697.6 89.7 696.7 89 C 695.9 88.3 695.3 87.3 695.1 86 Z M 715.4 89.8 L 715.4 78.8 L 713.5 78.8 L 713.5 77.2 L 715.4 77.2 C 715.4 77.2 715.36 75.82 715.4 75.8 C 715.4 75 715.4 74.3 715.6 73.9 C 715.8 73.4 716.2 72.9 716.7 72.6 C 717.2 72.2 717.9 72.1 718.8 72.1 C 719.5 72.1 720.1 72.1 720.8 72.3 C 720.8 72.3 720.5 74.1 720.5 74.1 C 720.1 74.1 719.7 74 719.3 74 C 718.6 74 718.2 74.2 717.9 74.4 C 717.6 74.7 717.5 75.2 717.5 76 C 717.48 75.99 717.5 77.2 717.5 77.2 L 719.9 77.2 L 719.9 78.8 L 717.5 78.8 L 717.5 89.8 L 715.4 89.8 Z M 720.8 83.5 C 720.8 81.1 721.5 79.4 722.8 78.3 C 723.8 77.3 725.2 76.9 726.7 76.9 C 728.4 76.9 729.9 77.4 731 78.6 C 732.1 79.7 732.6 81.3 732.6 83.3 C 732.6 84.9 732.4 86.2 731.9 87.1 C 731.4 88 730.7 88.8 729.8 89.3 C 728.8 89.8 727.8 90 726.7 90 C 725 90 723.5 89.5 722.4 88.3 C 721.4 87.2 720.8 85.6 720.8 83.5 Z M 723 83.5 C 723 85.1 723.4 86.3 724.1 87.1 C 724.8 87.9 725.6 88.3 726.7 88.3 C 727.8 88.3 728.7 87.9 729.4 87.1 C 730.1 86.3 730.4 85 730.4 83.4 C 730.4 81.8 730.1 80.6 729.4 79.8 C 728.6 79 727.8 78.6 726.7 78.6 C 725.6 78.6 724.8 79 724.1 79.8 C 723.4 80.6 723 81.8 723 83.5 Z M 735.1 89.8 L 735.1 72.4 L 737.2 72.4 L 737.2 89.8 L 735.1 89.8 Z M 740.5 89.8 L 740.5 72.4 L 742.6 72.4 L 742.6 89.8 L 740.5 89.8 Z M 745.1 83.5 C 745.1 81.1 745.8 79.4 747.1 78.3 C 748.2 77.3 749.5 76.9 751 76.9 C 752.8 76.9 754.2 77.4 755.3 78.6 C 756.4 79.7 756.9 81.3 756.9 83.3 C 756.9 84.9 756.7 86.2 756.2 87.1 C 755.7 88 755 88.8 754.1 89.3 C 753.1 89.8 752.1 90 751 90 C 749.3 90 747.8 89.5 746.8 88.3 C 745.7 87.2 745.1 85.6 745.1 83.5 Z M 747.3 83.5 C 747.3 85.1 747.7 86.3 748.4 87.1 C 749.1 87.9 750 88.3 751 88.3 C 752.1 88.3 753 87.9 753.7 87.1 C 754.4 86.3 754.7 85 754.7 83.4 C 754.7 81.8 754.4 80.6 753.7 79.8 C 753 79 752.1 78.6 751 78.6 C 750 78.6 749.1 79 748.4 79.8 C 747.7 80.6 747.3 81.8 747.3 83.5 Z M 761.8 89.8 L 757.9 77.2 L 760.1 77.2 L 762.1 84.4 C 762.1 84.4 762.86 87.14 762.9 87.1 C 762.9 87 763.1 86.1 763.5 84.5 C 763.51 84.54 765.5 77.2 765.5 77.2 L 767.7 77.2 L 769.6 84.5 L 770.2 86.9 L 771 84.4 L 773.1 77.2 L 775.2 77.2 L 771.3 89.8 L 769 89.8 L 767 82.2 L 766.5 80.1 L 764 89.8 L 761.8 89.8 Z M 776.1 86 C 776.1 86 778.2 85.7 778.2 85.7 C 778.4 86.5 778.7 87.2 779.2 87.6 C 779.8 88.1 780.5 88.3 781.5 88.3 C 782.5 88.3 783.2 88.1 783.7 87.7 C 784.2 87.3 784.4 86.8 784.4 86.3 C 784.4 85.8 784.2 85.4 783.8 85.1 C 783.5 85 782.7 84.7 781.6 84.4 C 780 84 778.9 83.7 778.3 83.4 C 777.7 83.1 777.3 82.7 777 82.2 C 776.6 81.7 776.5 81.1 776.5 80.5 C 776.5 79.9 776.6 79.4 776.9 78.9 C 777.1 78.5 777.5 78.1 777.9 77.8 C 778.3 77.5 778.7 77.3 779.3 77.1 C 779.9 77 780.5 76.9 781.1 76.9 C 782.1 76.9 783 77 783.7 77.3 C 784.5 77.6 785 78 785.4 78.5 C 785.7 78.9 786 79.6 786.1 80.4 C 786.1 80.4 784 80.7 784 80.7 C 783.9 80 783.7 79.5 783.2 79.2 C 782.8 78.8 782.1 78.6 781.3 78.6 C 780.3 78.6 779.6 78.8 779.2 79.1 C 778.8 79.4 778.5 79.8 778.5 80.3 C 778.5 80.5 778.6 80.8 778.8 81 C 779 81.2 779.3 81.4 779.6 81.6 C 779.8 81.7 780.5 81.8 781.5 82.1 C 783 82.5 784.1 82.9 784.7 83.1 C 785.3 83.4 785.7 83.7 786.1 84.2 C 786.4 84.7 786.6 85.3 786.6 86.1 C 786.6 86.8 786.4 87.4 786 88.1 C 785.6 88.7 785 89.2 784.2 89.5 C 783.4 89.9 782.5 90 781.5 90 C 779.9 90 778.6 89.7 777.8 89 C 776.9 88.3 776.4 87.3 776.1 86 Z M 789.7 79.6 L 789.7 77.2 L 792.2 77.2 L 792.2 79.6 L 789.7 79.6 Z M 789.7 89.8 L 789.7 87.3 L 792.2 87.3 L 792.2 89.8 L 789.7 89.8 Z " stroke="none" fill="#000"/>  </g>  <g id="Polygon6791">    <path d="M 9.9 1.7 C 14.9 1.7 17.6 4.4 17.6 8.2 C 17.6 10.6 16.3 12.4 13.8 13.4 C 17.5 14.1 19.8 16.7 19.8 19.8 C 19.8 24.8 15.1 26.6 10.7 26.6 C 10.68 26.57 2.7 26.6 2.7 26.6 L 2.7 1.7 C 2.7 1.7 9.92 1.71 9.9 1.7 Z M 6.3 12.4 C 6.3 12.4 8.79 12.43 8.8 12.4 C 12.5 12.4 13.9 10.5 13.9 8.5 C 13.9 5.9 12.6 4.8 9.3 4.8 C 9.33 4.85 6.3 4.8 6.3 4.8 L 6.3 12.4 Z M 10 23.4 C 14.1 23.4 16.1 22.2 16.1 19.5 C 16.1 17.1 14.4 15.5 9.9 15.5 C 9.88 15.49 6.3 15.5 6.3 15.5 L 6.3 23.4 C 6.3 23.4 10.02 23.44 10 23.4 Z M 37.3 1.7 L 37.3 4.9 L 26.8 4.9 L 26.8 12.5 L 37 12.5 L 37 15.6 L 26.8 15.6 L 26.8 23.4 L 37.7 23.4 L 37.7 26.6 L 23.2 26.6 L 23.2 1.7 L 37.3 1.7 Z M 45.8 1.7 L 45.8 12.5 L 59.7 12.5 L 59.7 1.7 L 63.3 1.7 L 63.3 26.6 L 59.7 26.6 L 59.7 15.7 L 45.8 15.7 L 45.8 26.6 L 42.2 26.6 L 42.2 1.7 L 45.8 1.7 Z M 79.2 1.6 L 90.4 26.6 L 86.7 26.6 L 83.4 19.2 L 72.8 19.2 L 69.7 26.6 L 66.1 26.6 L 76.7 1.6 L 79.2 1.6 Z M 74.2 16 L 82 16 L 78 6.4 L 74.2 16 Z M 91.1 1.7 L 98.6 19.2 L 106 1.7 L 109.5 1.7 L 99 26.7 L 98.2 26.7 L 87.5 1.7 L 91.1 1.7 Z M 115.8 1.7 L 115.8 26.6 L 112.2 26.6 L 112.2 1.7 L 115.8 1.7 Z M 146.9 14.1 C 146.9 20.7 141.9 26.9 133.3 26.9 C 125.4 26.9 120.2 21 120.2 14.2 C 120.2 7.7 124.9 1.4 133.5 1.4 C 141.4 1.4 146.9 7 146.9 14.1 Z M 123.9 14.2 C 123.9 19.7 128.3 23.5 133.4 23.5 C 138.7 23.5 143.2 20.4 143.2 14.1 C 143.2 9.8 140 4.7 133.6 4.7 C 127.4 4.7 123.9 8.9 123.9 14.2 Z M 154.5 1.7 C 154.5 1.7 154.52 16.11 154.5 16.1 C 154.5 21.6 156.9 23.7 161.7 23.7 C 166.4 23.7 168.7 21.5 168.7 16.1 C 168.74 16.08 168.7 1.7 168.7 1.7 L 172.3 1.7 C 172.3 1.7 172.31 16.08 172.3 16.1 C 172.3 22.9 168.9 26.9 161.7 26.9 C 154.8 26.9 151 23.4 151 16.1 C 150.95 16.11 151 1.7 151 1.7 L 154.5 1.7 Z M 184.3 1.7 C 189.3 1.7 191.9 5 191.9 8.6 C 191.9 11.5 190.4 13.7 187.7 14.8 C 189.2 15.7 189.8 16.3 192.3 19.9 C 192.25 19.94 196.6 26.6 196.6 26.6 L 192.4 26.6 C 192.4 26.6 188.46 20.45 188.5 20.4 C 185.9 16.5 184.4 15.7 182.6 15.7 C 182.63 15.75 181 15.7 181 15.7 L 181 26.6 L 177.5 26.6 L 177.5 1.7 C 177.5 1.7 184.31 1.71 184.3 1.7 Z M 181 12.6 C 181 12.6 183.32 12.61 183.3 12.6 C 185.9 12.6 188.2 12 188.2 8.6 C 188.2 6.2 186.7 4.8 184.1 4.8 C 184.05 4.85 181 4.8 181 4.8 L 181 12.6 Z M 211.9 3.1 C 211.9 3.1 211.9 7.2 211.9 7.2 C 210.2 5.5 208.3 4.6 206 4.6 C 203.8 4.6 202.4 5.8 202.4 7.5 C 202.4 8.9 202.7 10.1 206.5 12.2 C 211.7 15.3 212.8 17 212.8 20.4 C 212.8 24.1 210 26.9 205.6 26.9 C 203.2 26.9 200.9 26.1 198.9 24.6 C 198.9 24.6 198.9 20.1 198.9 20.1 C 200.7 22.4 203 23.7 205.6 23.7 C 207.7 23.7 209.3 22.4 209.3 20.4 C 209.3 18.8 208.8 17.6 203.9 14.8 C 200.2 12.6 198.8 10.6 198.8 7.6 C 198.8 4 201.9 1.4 206.1 1.4 C 208.2 1.4 210.2 2 211.9 3.1 Z " stroke="none" fill="#f28620"/>  </g></svg>