<?xml version="1.0" standalone="no"?><!DOCTYPE svg PUBLIC "-//W3C//DTD SVG 1.1//EN" "http://www.w3.org/Graphics/SVG/1.1/DTD/svg11.dtd"><svg xmlns="http://www.w3.org/2000/svg" version="1.1" width="400.1px" height="39.1px" viewBox="0 -8 400.1 39.1" style="top:-8px">  <desc>Toolkits</desc>  <defs/>  <g id="Polygon6987">    <path d="M 6.2 17.5 L 6.2 2.3 L 0.6 2.3 L 0.6 0.3 L 14.2 0.3 L 14.2 2.3 L 8.5 2.3 L 8.5 17.5 L 6.2 17.5 Z M 12.8 11.3 C 12.8 8.9 13.4 7.2 14.7 6.1 C 15.8 5.2 17.1 4.7 18.6 4.7 C 20.3 4.7 21.7 5.3 22.8 6.4 C 23.9 7.5 24.5 9.1 24.5 11.1 C 24.5 12.7 24.2 13.9 23.7 14.9 C 23.3 15.8 22.6 16.5 21.6 17 C 20.7 17.5 19.7 17.8 18.6 17.8 C 16.9 17.8 15.5 17.2 14.4 16.1 C 13.3 15 12.8 13.4 12.8 11.3 Z M 15 11.3 C 15 12.8 15.3 14 16 14.8 C 16.7 15.6 17.6 16 18.6 16 C 19.7 16 20.6 15.6 21.2 14.8 C 21.9 14 22.3 12.8 22.3 11.2 C 22.3 9.6 21.9 8.5 21.2 7.7 C 20.5 6.9 19.7 6.5 18.6 6.5 C 17.6 6.5 16.7 6.9 16 7.7 C 15.3 8.5 15 9.7 15 11.3 Z M 26.1 11.3 C 26.1 8.9 26.8 7.2 28.1 6.1 C 29.1 5.2 30.4 4.7 32 4.7 C 33.7 4.7 35.1 5.3 36.2 6.4 C 37.3 7.5 37.8 9.1 37.8 11.1 C 37.8 12.7 37.6 13.9 37.1 14.9 C 36.6 15.8 35.9 16.5 35 17 C 34.1 17.5 33.1 17.8 32 17.8 C 30.2 17.8 28.8 17.2 27.8 16.1 C 26.7 15 26.1 13.4 26.1 11.3 Z M 28.3 11.3 C 28.3 12.8 28.7 14 29.4 14.8 C 30.1 15.6 30.9 16 32 16 C 33 16 33.9 15.6 34.6 14.8 C 35.3 14 35.6 12.8 35.6 11.2 C 35.6 9.6 35.3 8.5 34.6 7.7 C 33.9 6.9 33 6.5 32 6.5 C 30.9 6.5 30.1 6.9 29.4 7.7 C 28.7 8.5 28.3 9.7 28.3 11.3 Z M 40.2 17.5 L 40.2 0.3 L 42.3 0.3 L 42.3 17.5 L 40.2 17.5 Z M 45.6 17.5 L 45.6 0.3 L 47.7 0.3 L 47.7 10.1 L 52.7 5 L 55.5 5 L 50.7 9.6 L 55.9 17.5 L 53.3 17.5 L 49.2 11.1 L 47.7 12.5 L 47.7 17.5 L 45.6 17.5 Z M 57.6 2.7 L 57.6 0.3 L 59.7 0.3 L 59.7 2.7 L 57.6 2.7 Z M 57.6 17.5 L 57.6 5 L 59.7 5 L 59.7 17.5 L 57.6 17.5 Z M 66.6 15.7 C 66.9 15.7 67.2 15.6 67.5 15.6 C 67.5 15.6 67.9 17.4 67.9 17.4 C 67.3 17.6 66.7 17.6 66.3 17.6 C 65.5 17.6 64.9 17.5 64.5 17.3 C 64.1 17 63.8 16.7 63.6 16.3 C 63.4 15.9 63.3 15.1 63.3 13.8 C 63.33 13.83 63.3 6.7 63.3 6.7 L 61.8 6.7 L 61.8 5 L 63.3 5 L 63.3 1.9 L 65.4 0.7 L 65.4 5 L 67.5 5 L 67.5 6.7 L 65.4 6.7 C 65.4 6.7 65.43 13.95 65.4 13.9 C 65.4 14.5 65.5 14.9 65.5 15.1 C 65.6 15.3 65.7 15.4 65.9 15.5 C 66.1 15.6 66.3 15.7 66.6 15.7 C 66.6 15.7 66.6 15.7 66.6 15.7 Z M 68.8 13.8 C 68.8 13.8 70.9 13.4 70.9 13.4 C 71 14.3 71.3 14.9 71.8 15.4 C 72.4 15.8 73.1 16 74.1 16 C 75 16 75.8 15.8 76.2 15.4 C 76.7 15 76.9 14.6 76.9 14 C 76.9 13.6 76.7 13.2 76.3 12.9 C 76 12.7 75.3 12.5 74.2 12.2 C 72.6 11.8 71.5 11.5 70.9 11.2 C 70.3 10.9 69.9 10.5 69.6 10 C 69.3 9.5 69.1 8.9 69.1 8.3 C 69.1 7.8 69.2 7.3 69.5 6.8 C 69.8 6.3 70.1 5.9 70.5 5.6 C 70.9 5.4 71.3 5.2 71.9 5 C 72.4 4.8 73.1 4.7 73.7 4.7 C 74.7 4.7 75.5 4.9 76.3 5.2 C 77 5.4 77.6 5.8 77.9 6.3 C 78.3 6.8 78.5 7.4 78.6 8.2 C 78.6 8.2 76.6 8.5 76.6 8.5 C 76.5 7.9 76.2 7.4 75.8 7 C 75.3 6.7 74.7 6.5 73.9 6.5 C 72.9 6.5 72.2 6.6 71.8 7 C 71.4 7.3 71.2 7.7 71.2 8.1 C 71.2 8.4 71.2 8.6 71.4 8.8 C 71.6 9.1 71.9 9.2 72.2 9.4 C 72.4 9.5 73.1 9.6 74.1 9.9 C 75.6 10.3 76.6 10.7 77.2 10.9 C 77.8 11.2 78.3 11.5 78.6 12 C 78.9 12.5 79.1 13.1 79.1 13.8 C 79.1 14.5 78.9 15.2 78.5 15.8 C 78.1 16.4 77.5 16.9 76.7 17.2 C 75.9 17.6 75.1 17.8 74.1 17.8 C 72.5 17.8 71.2 17.4 70.4 16.7 C 69.5 16.1 69 15.1 68.8 13.8 Z " stroke="none" fill="#000"/>  </g></svg>