<?xml version="1.0" standalone="no"?><!DOCTYPE svg PUBLIC "-//W3C//DTD SVG 1.1//EN" "http://www.w3.org/Graphics/SVG/1.1/DTD/svg11.dtd"><svg xmlns="http://www.w3.org/2000/svg" version="1.1" width="1025px" height="46.1px" viewBox="0 -8 1025 46.1" style="top:-8px">  <desc>Timely Delivery Guaranteed</desc>  <defs/>  <g id="Polygon50930">    <path d="M 17.3 1.4 L 17.3 3.4 L 9.9 3.4 L 9.9 21.9 L 7.7 21.9 L 7.7 3.4 L 0.4 3.4 L 0.4 1.4 L 17.3 1.4 Z M 22.3 1.4 L 22.3 21.9 L 20 21.9 L 20 1.4 L 22.3 1.4 Z M 26.8 1.4 L 29 1.4 L 36.2 10.4 L 43.4 1.4 L 45.5 1.4 L 45.5 21.9 L 43.3 21.9 L 43.3 5 L 43.2 5 L 36.4 13.5 L 36 13.5 L 29.2 5 L 29.1 5 L 29.1 21.9 L 26.8 21.9 L 26.8 1.4 Z M 61.3 1.4 L 61.3 3.4 L 52.4 3.4 L 52.4 10.6 L 61 10.6 L 61 12.6 L 52.4 12.6 L 52.4 19.8 L 61.6 19.8 L 61.6 21.9 L 50.2 21.9 L 50.2 1.4 L 61.3 1.4 Z M 67.5 1.4 L 67.5 19.8 L 77.1 19.8 L 77.1 21.9 L 65.2 21.9 L 65.2 1.4 L 67.5 1.4 Z M 77.3 1.4 L 83.4 9 L 89.5 1.4 L 92.2 1.4 L 84.6 10.9 L 84.6 21.9 L 82.3 21.9 L 82.3 10.9 L 74.6 1.4 L 77.3 1.4 Z M 102.9 1.4 C 102.9 1.4 110.46 1.41 110.5 1.4 C 117.1 1.4 121.5 5.6 121.5 11.4 C 121.5 17.8 117 21.9 110.5 21.9 C 110.46 21.87 102.9 21.9 102.9 21.9 L 102.9 1.4 Z M 110.4 19.8 C 115.8 19.8 119.1 16.6 119.1 11.6 C 119.1 6.7 115.9 3.4 110.1 3.4 C 110.1 3.42 105.2 3.4 105.2 3.4 L 105.2 19.8 C 105.2 19.8 110.43 19.83 110.4 19.8 Z M 136.4 1.4 L 136.4 3.4 L 127.5 3.4 L 127.5 10.6 L 136.1 10.6 L 136.1 12.6 L 127.5 12.6 L 127.5 19.8 L 136.6 19.8 L 136.6 21.9 L 125.2 21.9 L 125.2 1.4 L 136.4 1.4 Z M 142.5 1.4 L 142.5 19.8 L 152.2 19.8 L 152.2 21.9 L 140.3 21.9 L 140.3 1.4 L 142.5 1.4 Z M 157 1.4 L 157 21.9 L 154.8 21.9 L 154.8 1.4 L 157 1.4 Z M 159.4 1.4 L 161.6 1.4 L 168.3 17.3 L 168.3 17.3 L 174.9 1.4 L 177.2 1.4 L 168.5 22.1 L 168 22.1 L 159.4 1.4 Z M 190.7 1.4 L 190.7 3.4 L 181.8 3.4 L 181.8 10.6 L 190.4 10.6 L 190.4 12.6 L 181.8 12.6 L 181.8 19.8 L 190.9 19.8 L 190.9 21.9 L 179.5 21.9 L 179.5 1.4 L 190.7 1.4 Z M 194.6 1.4 C 194.6 1.4 199.95 1.41 199.9 1.4 C 204.1 1.4 206.2 3.8 206.2 6.9 C 206.2 9.4 204.8 11.2 202.3 11.9 C 203.6 12.6 204.2 13.2 205.9 15.7 C 205.92 15.75 209.9 21.9 209.9 21.9 L 207.2 21.9 C 207.2 21.9 203.61 16.23 203.6 16.2 C 201.7 13.2 200.5 12.6 198.7 12.6 C 198.72 12.57 196.8 12.6 196.8 12.6 L 196.8 21.9 L 194.6 21.9 L 194.6 1.4 Z M 198.9 10.6 C 201.7 10.6 203.9 9.9 203.9 6.9 C 203.9 4.4 202.3 3.4 199.6 3.4 C 199.65 3.39 196.8 3.4 196.8 3.4 L 196.8 10.6 C 196.8 10.6 198.93 10.59 198.9 10.6 Z M 211.2 1.4 L 217.3 9 L 223.4 1.4 L 226.1 1.4 L 218.5 10.9 L 218.5 21.9 L 216.1 21.9 L 216.1 10.9 L 208.5 1.4 L 211.2 1.4 Z M 253.7 5.2 C 251.4 3.8 248.9 3.1 246.6 3.1 C 241.9 3.1 238.2 6.7 238.2 11.5 C 238.2 16.6 241.7 20.1 246.8 20.1 C 248.5 20.1 249.7 19.9 251.8 19.1 C 251.85 19.08 251.8 14.1 251.8 14.1 L 247.7 14.1 L 247.7 12.1 L 254.1 12.1 C 254.1 12.1 254.1 20.46 254.1 20.5 C 251.8 21.6 249.5 22.1 246.8 22.1 C 239.5 22.1 235.9 17 235.9 11.8 C 235.9 5.9 240.2 1.1 246.7 1.1 C 249.1 1.1 251 1.6 253.7 2.8 C 253.7 2.8 253.7 5.2 253.7 5.2 Z M 260.4 1.4 C 260.4 1.4 260.37 13.2 260.4 13.2 C 260.4 17.7 262.5 20.1 266.7 20.1 C 271 20.1 273 17.6 273 13.2 C 273.03 13.2 273 1.4 273 1.4 L 275.3 1.4 C 275.3 1.4 275.28 13.2 275.3 13.2 C 275.3 18.6 272.4 22.1 266.8 22.1 C 261.1 22.1 258.1 18.9 258.1 13.2 C 258.12 13.2 258.1 1.4 258.1 1.4 L 260.4 1.4 Z M 287 1.3 L 296.2 21.9 L 293.8 21.9 L 291 15.4 L 281.7 15.4 L 278.9 21.9 L 276.6 21.9 L 285.4 1.3 L 287 1.3 Z M 282.5 13.4 L 290.1 13.4 L 286.2 4.7 L 282.5 13.4 Z M 298.5 1.4 C 298.5 1.4 303.87 1.41 303.9 1.4 C 308 1.4 310.1 3.8 310.1 6.9 C 310.1 9.4 308.7 11.2 306.2 11.9 C 307.6 12.6 308.2 13.2 309.8 15.7 C 309.84 15.75 313.8 21.9 313.8 21.9 L 311.1 21.9 C 311.1 21.9 307.53 16.23 307.5 16.2 C 305.6 13.2 304.4 12.6 302.6 12.6 C 302.64 12.57 300.7 12.6 300.7 12.6 L 300.7 21.9 L 298.5 21.9 L 298.5 1.4 Z M 302.8 10.6 C 305.7 10.6 307.8 9.9 307.8 6.9 C 307.8 4.4 306.2 3.4 303.6 3.4 C 303.57 3.39 300.7 3.4 300.7 3.4 L 300.7 10.6 C 300.7 10.6 302.85 10.59 302.8 10.6 Z M 324.2 1.3 L 333.4 21.9 L 331 21.9 L 328.2 15.4 L 318.9 15.4 L 316.1 21.9 L 313.8 21.9 L 322.6 1.3 L 324.2 1.3 Z M 319.7 13.4 L 327.3 13.4 L 323.4 4.7 L 319.7 13.4 Z M 337.6 1.4 L 352 18.3 L 352 1.4 L 354.2 1.4 L 354.2 21.9 L 352.2 21.9 L 337.9 5 L 337.9 21.9 L 335.7 21.9 L 335.7 1.4 L 337.6 1.4 Z M 373.7 1.4 L 373.7 3.4 L 366.4 3.4 L 366.4 21.9 L 364.2 21.9 L 364.2 3.4 L 356.9 3.4 L 356.9 1.4 L 373.7 1.4 Z M 387.7 1.4 L 387.7 3.4 L 378.7 3.4 L 378.7 10.6 L 387.4 10.6 L 387.4 12.6 L 378.7 12.6 L 378.7 19.8 L 387.9 19.8 L 387.9 21.9 L 376.5 21.9 L 376.5 1.4 L 387.7 1.4 Z M 402.7 1.4 L 402.7 3.4 L 393.8 3.4 L 393.8 10.6 L 402.4 10.6 L 402.4 12.6 L 393.8 12.6 L 393.8 19.8 L 403 19.8 L 403 21.9 L 391.6 21.9 L 391.6 1.4 L 402.7 1.4 Z M 406.6 1.4 C 406.6 1.4 414.15 1.41 414.1 1.4 C 420.8 1.4 425.2 5.6 425.2 11.4 C 425.2 17.8 420.7 21.9 414.1 21.9 C 414.15 21.87 406.6 21.9 406.6 21.9 L 406.6 1.4 Z M 414.1 19.8 C 419.5 19.8 422.8 16.6 422.8 11.6 C 422.8 6.7 419.6 3.4 413.8 3.4 C 413.79 3.42 408.9 3.4 408.9 3.4 L 408.9 19.8 C 408.9 19.8 414.12 19.83 414.1 19.8 Z " stroke="none" fill="#000000"/>  </g></svg>