<?xml version="1.0" standalone="no"?><!DOCTYPE svg PUBLIC "-//W3C//DTD SVG 1.1//EN" "http://www.w3.org/Graphics/SVG/1.1/DTD/svg11.dtd"><svg xmlns="http://www.w3.org/2000/svg" version="1.1" width="200px" height="20.5px" viewBox="0 -4 200 20.5" style="top:-4px">  <desc>Booking Process</desc>  <defs/>  <g id="Polygon46153">    <path d="M 0.9 8.7 L 0.9 0.1 C 0.9 0.1 4.1 0.15 4.1 0.1 C 4.8 0.1 5.3 0.2 5.7 0.4 C 6.1 0.6 6.4 0.8 6.6 1.2 C 6.8 1.6 6.9 1.9 6.9 2.3 C 6.9 2.7 6.8 3.1 6.7 3.4 C 6.5 3.7 6.2 4 5.7 4.2 C 6.3 4.3 6.7 4.6 6.9 4.9 C 7.2 5.3 7.4 5.7 7.4 6.2 C 7.4 6.6 7.3 7 7.1 7.4 C 6.9 7.7 6.7 8 6.5 8.2 C 6.2 8.4 5.9 8.5 5.5 8.6 C 5.2 8.7 4.7 8.7 4.2 8.7 C 4.15 8.74 0.9 8.7 0.9 8.7 Z M 2 3.8 C 2 3.8 3.87 3.76 3.9 3.8 C 4.4 3.8 4.7 3.7 5 3.7 C 5.2 3.6 5.5 3.4 5.6 3.2 C 5.8 3 5.8 2.8 5.8 2.5 C 5.8 2.2 5.8 1.9 5.6 1.7 C 5.5 1.5 5.3 1.4 5 1.3 C 4.8 1.2 4.3 1.2 3.7 1.2 C 3.73 1.16 2 1.2 2 1.2 L 2 3.8 Z M 2 7.7 C 2 7.7 4.15 7.72 4.2 7.7 C 4.5 7.7 4.8 7.7 4.9 7.7 C 5.2 7.6 5.4 7.6 5.6 7.4 C 5.8 7.3 5.9 7.2 6 7 C 6.1 6.8 6.2 6.5 6.2 6.2 C 6.2 5.9 6.1 5.6 5.9 5.4 C 5.8 5.2 5.5 5 5.3 4.9 C 5 4.8 4.5 4.8 4 4.8 C 4 4.77 2 4.8 2 4.8 L 2 7.7 Z M 8.4 5.6 C 8.4 4.5 8.7 3.6 9.4 3.1 C 9.9 2.6 10.6 2.4 11.3 2.4 C 12.2 2.4 12.9 2.7 13.4 3.2 C 14 3.8 14.2 4.5 14.2 5.5 C 14.2 6.3 14.1 7 13.9 7.4 C 13.6 7.9 13.3 8.2 12.8 8.5 C 12.4 8.7 11.9 8.9 11.3 8.9 C 10.4 8.9 9.7 8.6 9.2 8 C 8.7 7.5 8.4 6.7 8.4 5.6 Z M 9.5 5.6 C 9.5 6.4 9.7 7 10 7.4 C 10.4 7.8 10.8 8 11.3 8 C 11.8 8 12.3 7.8 12.6 7.4 C 13 7 13.1 6.4 13.1 5.6 C 13.1 4.8 13 4.2 12.6 3.8 C 12.3 3.4 11.8 3.2 11.3 3.2 C 10.8 3.2 10.4 3.4 10 3.8 C 9.7 4.2 9.5 4.8 9.5 5.6 Z M 15.1 5.6 C 15.1 4.5 15.4 3.6 16 3.1 C 16.6 2.6 17.2 2.4 18 2.4 C 18.8 2.4 19.5 2.7 20.1 3.2 C 20.6 3.8 20.9 4.5 20.9 5.5 C 20.9 6.3 20.8 7 20.5 7.4 C 20.3 7.9 20 8.2 19.5 8.5 C 19 8.7 18.5 8.9 18 8.9 C 17.1 8.9 16.4 8.6 15.9 8 C 15.3 7.5 15.1 6.7 15.1 5.6 Z M 16.2 5.6 C 16.2 6.4 16.3 7 16.7 7.4 C 17 7.8 17.5 8 18 8 C 18.5 8 19 7.8 19.3 7.4 C 19.6 7 19.8 6.4 19.8 5.6 C 19.8 4.8 19.6 4.2 19.3 3.8 C 18.9 3.4 18.5 3.2 18 3.2 C 17.5 3.2 17 3.4 16.7 3.8 C 16.3 4.2 16.2 4.8 16.2 5.6 Z M 22.1 8.7 L 22.1 0.1 L 23.2 0.1 L 23.2 5 L 25.7 2.5 L 27.1 2.5 L 24.7 4.8 L 27.3 8.7 L 26 8.7 L 23.9 5.6 L 23.2 6.3 L 23.2 8.7 L 22.1 8.7 Z M 28.1 1.4 L 28.1 0.1 L 29.2 0.1 L 29.2 1.4 L 28.1 1.4 Z M 28.1 8.7 L 28.1 2.5 L 29.2 2.5 L 29.2 8.7 L 28.1 8.7 Z M 30.8 8.7 L 30.8 2.5 L 31.8 2.5 C 31.8 2.5 31.76 3.4 31.8 3.4 C 32.2 2.7 32.9 2.4 33.7 2.4 C 34.1 2.4 34.5 2.4 34.8 2.6 C 35.1 2.7 35.3 2.9 35.5 3.1 C 35.6 3.3 35.7 3.6 35.8 3.9 C 35.8 4.1 35.9 4.4 35.9 4.9 C 35.87 4.91 35.9 8.7 35.9 8.7 L 34.8 8.7 C 34.8 8.7 34.81 4.95 34.8 5 C 34.8 4.5 34.8 4.2 34.7 4 C 34.6 3.8 34.5 3.6 34.3 3.5 C 34 3.4 33.8 3.3 33.5 3.3 C 33.1 3.3 32.7 3.4 32.4 3.7 C 32 4 31.9 4.5 31.9 5.3 C 31.86 5.34 31.9 8.7 31.9 8.7 L 30.8 8.7 Z M 37.3 9.3 C 37.3 9.3 38.3 9.4 38.3 9.4 C 38.4 9.7 38.5 10 38.7 10.1 C 38.9 10.3 39.3 10.4 39.7 10.4 C 40.2 10.4 40.6 10.3 40.9 10.1 C 41.1 9.9 41.3 9.6 41.4 9.3 C 41.5 9.1 41.5 8.6 41.5 7.9 C 41 8.5 40.5 8.7 39.8 8.7 C 38.9 8.7 38.3 8.4 37.8 7.8 C 37.3 7.2 37.1 6.5 37.1 5.6 C 37.1 5 37.2 4.4 37.4 3.9 C 37.6 3.4 37.9 3.1 38.3 2.8 C 38.7 2.5 39.2 2.4 39.8 2.4 C 40.5 2.4 41.1 2.7 41.6 3.3 C 41.59 3.26 41.6 2.5 41.6 2.5 L 42.6 2.5 C 42.6 2.5 42.56 7.89 42.6 7.9 C 42.6 8.9 42.5 9.5 42.3 10 C 42.1 10.4 41.8 10.7 41.3 10.9 C 40.9 11.1 40.4 11.3 39.8 11.3 C 39 11.3 38.4 11.1 38 10.8 C 37.5 10.4 37.3 9.9 37.3 9.3 Z M 38.2 5.5 C 38.2 6.3 38.3 6.9 38.6 7.3 C 39 7.7 39.4 7.9 39.9 7.9 C 40.4 7.9 40.8 7.7 41.1 7.3 C 41.4 6.9 41.6 6.3 41.6 5.5 C 41.6 4.8 41.4 4.2 41.1 3.8 C 40.7 3.4 40.3 3.2 39.8 3.2 C 39.4 3.2 39 3.4 38.7 3.8 C 38.3 4.2 38.2 4.8 38.2 5.5 Z M 47.6 8.7 L 47.6 0.1 C 47.6 0.1 50.87 0.15 50.9 0.1 C 51.4 0.1 51.9 0.2 52.2 0.2 C 52.6 0.3 52.9 0.4 53.2 0.6 C 53.5 0.8 53.7 1.1 53.9 1.5 C 54.1 1.8 54.2 2.2 54.2 2.6 C 54.2 3.4 53.9 4 53.5 4.5 C 53 5 52.2 5.2 51 5.2 C 50.96 5.24 48.8 5.2 48.8 5.2 L 48.8 8.7 L 47.6 8.7 Z M 48.8 4.2 C 48.8 4.2 50.98 4.23 51 4.2 C 51.7 4.2 52.2 4.1 52.5 3.8 C 52.9 3.5 53 3.2 53 2.7 C 53 2.3 52.9 2 52.7 1.7 C 52.6 1.5 52.3 1.3 52 1.2 C 51.8 1.2 51.5 1.2 51 1.2 C 50.96 1.16 48.8 1.2 48.8 1.2 L 48.8 4.2 Z M 55.5 8.7 L 55.5 2.5 L 56.4 2.5 C 56.4 2.5 56.43 3.46 56.4 3.5 C 56.7 3 56.9 2.7 57.1 2.6 C 57.3 2.4 57.5 2.4 57.8 2.4 C 58.1 2.4 58.5 2.5 58.9 2.7 C 58.9 2.7 58.5 3.7 58.5 3.7 C 58.2 3.5 58 3.5 57.7 3.5 C 57.5 3.5 57.3 3.5 57.1 3.7 C 56.9 3.8 56.8 4 56.7 4.2 C 56.6 4.6 56.5 5 56.5 5.5 C 56.54 5.48 56.5 8.7 56.5 8.7 L 55.5 8.7 Z M 59.1 5.6 C 59.1 4.5 59.4 3.6 60.1 3.1 C 60.6 2.6 61.2 2.4 62 2.4 C 62.9 2.4 63.6 2.7 64.1 3.2 C 64.7 3.8 64.9 4.5 64.9 5.5 C 64.9 6.3 64.8 7 64.6 7.4 C 64.3 7.9 64 8.2 63.5 8.5 C 63.1 8.7 62.6 8.9 62 8.9 C 61.1 8.9 60.4 8.6 59.9 8 C 59.4 7.5 59.1 6.7 59.1 5.6 Z M 60.2 5.6 C 60.2 6.4 60.4 7 60.7 7.4 C 61.1 7.8 61.5 8 62 8 C 62.5 8 63 7.8 63.3 7.4 C 63.7 7 63.8 6.4 63.8 5.6 C 63.8 4.8 63.7 4.2 63.3 3.8 C 63 3.4 62.5 3.2 62 3.2 C 61.5 3.2 61.1 3.4 60.7 3.8 C 60.4 4.2 60.2 4.8 60.2 5.6 Z M 70.2 6.5 C 70.2 6.5 71.3 6.6 71.3 6.6 C 71.1 7.3 70.9 7.9 70.4 8.3 C 69.9 8.7 69.4 8.9 68.7 8.9 C 67.8 8.9 67.1 8.6 66.6 8 C 66.1 7.5 65.8 6.7 65.8 5.6 C 65.8 5 66 4.4 66.2 3.9 C 66.4 3.4 66.7 3 67.2 2.8 C 67.6 2.5 68.1 2.4 68.7 2.4 C 69.4 2.4 69.9 2.5 70.3 2.9 C 70.8 3.2 71 3.7 71.2 4.3 C 71.2 4.3 70.1 4.5 70.1 4.5 C 70 4.1 69.9 3.8 69.6 3.6 C 69.4 3.3 69.1 3.2 68.7 3.2 C 68.2 3.2 67.8 3.4 67.4 3.8 C 67.1 4.2 66.9 4.8 66.9 5.6 C 66.9 6.5 67.1 7.1 67.4 7.4 C 67.7 7.8 68.1 8 68.7 8 C 69.1 8 69.4 7.9 69.7 7.6 C 70 7.4 70.2 7 70.2 6.5 Z M 76.4 6.7 C 76.4 6.7 77.5 6.9 77.5 6.9 C 77.3 7.5 77 8 76.6 8.3 C 76.1 8.7 75.5 8.9 74.8 8.9 C 73.9 8.9 73.1 8.6 72.6 8 C 72.1 7.5 71.8 6.7 71.8 5.7 C 71.8 4.6 72.1 3.8 72.6 3.2 C 73.2 2.7 73.9 2.4 74.7 2.4 C 75.6 2.4 76.2 2.7 76.8 3.2 C 77.3 3.8 77.5 4.6 77.5 5.6 C 77.5 5.7 77.5 5.8 77.5 5.9 C 77.5 5.9 72.9 5.9 72.9 5.9 C 72.9 6.6 73.1 7.1 73.5 7.5 C 73.8 7.8 74.3 8 74.8 8 C 75.2 8 75.5 7.9 75.8 7.7 C 76 7.5 76.3 7.2 76.4 6.7 Z M 73 5 C 73 5 76.4 5 76.4 5 C 76.4 4.5 76.3 4.1 76 3.8 C 75.7 3.4 75.3 3.2 74.7 3.2 C 74.2 3.2 73.8 3.4 73.5 3.7 C 73.2 4.1 73 4.5 73 5 Z M 78.4 6.9 C 78.4 6.9 79.5 6.7 79.5 6.7 C 79.5 7.1 79.7 7.5 79.9 7.7 C 80.2 7.9 80.6 8 81.1 8 C 81.6 8 81.9 7.9 82.1 7.7 C 82.4 7.5 82.5 7.3 82.5 7 C 82.5 6.8 82.4 6.6 82.2 6.5 C 82 6.4 81.7 6.2 81.1 6.1 C 80.3 5.9 79.8 5.7 79.5 5.6 C 79.2 5.5 79 5.3 78.8 5 C 78.7 4.7 78.6 4.5 78.6 4.2 C 78.6 3.9 78.7 3.6 78.8 3.4 C 78.9 3.2 79.1 3 79.3 2.8 C 79.5 2.7 79.7 2.6 80 2.5 C 80.3 2.4 80.6 2.4 80.9 2.4 C 81.4 2.4 81.8 2.4 82.2 2.6 C 82.5 2.7 82.8 2.9 83 3.2 C 83.2 3.4 83.3 3.7 83.3 4.1 C 83.3 4.1 82.3 4.3 82.3 4.3 C 82.3 3.9 82.1 3.7 81.9 3.5 C 81.7 3.3 81.4 3.2 81 3.2 C 80.5 3.2 80.1 3.3 79.9 3.5 C 79.7 3.6 79.6 3.8 79.6 4 C 79.6 4.2 79.7 4.3 79.7 4.4 C 79.8 4.5 80 4.6 80.1 4.7 C 80.3 4.7 80.6 4.8 81.1 5 C 81.8 5.2 82.3 5.3 82.6 5.5 C 82.9 5.6 83.2 5.8 83.3 6 C 83.5 6.2 83.6 6.5 83.6 6.9 C 83.6 7.3 83.5 7.6 83.3 7.9 C 83.1 8.2 82.8 8.5 82.4 8.6 C 82 8.8 81.6 8.9 81.1 8.9 C 80.3 8.9 79.7 8.7 79.2 8.4 C 78.8 8 78.5 7.5 78.4 6.9 Z M 84.4 6.9 C 84.4 6.9 85.5 6.7 85.5 6.7 C 85.5 7.1 85.7 7.5 85.9 7.7 C 86.2 7.9 86.6 8 87.1 8 C 87.6 8 87.9 7.9 88.1 7.7 C 88.4 7.5 88.5 7.3 88.5 7 C 88.5 6.8 88.4 6.6 88.2 6.5 C 88 6.4 87.7 6.2 87.1 6.1 C 86.3 5.9 85.8 5.7 85.5 5.6 C 85.2 5.5 85 5.3 84.8 5 C 84.7 4.7 84.6 4.5 84.6 4.2 C 84.6 3.9 84.7 3.6 84.8 3.4 C 84.9 3.2 85.1 3 85.3 2.8 C 85.5 2.7 85.7 2.6 86 2.5 C 86.3 2.4 86.6 2.4 86.9 2.4 C 87.4 2.4 87.8 2.4 88.2 2.6 C 88.5 2.7 88.8 2.9 89 3.2 C 89.2 3.4 89.3 3.7 89.3 4.1 C 89.3 4.1 88.3 4.3 88.3 4.3 C 88.3 3.9 88.1 3.7 87.9 3.5 C 87.7 3.3 87.4 3.2 87 3.2 C 86.5 3.2 86.1 3.3 85.9 3.5 C 85.7 3.6 85.6 3.8 85.6 4 C 85.6 4.2 85.7 4.3 85.7 4.4 C 85.8 4.5 86 4.6 86.1 4.7 C 86.3 4.7 86.6 4.8 87.1 5 C 87.8 5.2 88.3 5.3 88.6 5.5 C 88.9 5.6 89.2 5.8 89.3 6 C 89.5 6.2 89.6 6.5 89.6 6.9 C 89.6 7.3 89.5 7.6 89.3 7.9 C 89.1 8.2 88.8 8.5 88.4 8.6 C 88 8.8 87.6 8.9 87.1 8.9 C 86.3 8.9 85.7 8.7 85.2 8.4 C 84.8 8 84.5 7.5 84.4 6.9 Z " stroke="none" fill="#000"/>  </g></svg>