<?xml version="1.0" standalone="no"?><!DOCTYPE svg PUBLIC "-//W3C//DTD SVG 1.1//EN" "http://www.w3.org/Graphics/SVG/1.1/DTD/svg11.dtd"><svg xmlns="http://www.w3.org/2000/svg" version="1.1" width="800.3px" height="239.5px" viewBox="0 -1 800.3 239.5" style="top:-1px">  <desc>Case Studies</desc>  <defs/>  <g id="Polygon4821">    <path d="M 212.7 98.4 C 212.7 98.4 212.7 103.6 212.7 103.6 C 209 101.5 205 100.2 200.9 100.2 C 192.5 100.2 187.3 106.5 187.3 113.2 C 187.3 119.9 192.3 126.1 200.8 126.1 C 205.3 126.1 209.3 124.7 213 122.3 C 213 122.3 213 127.6 213 127.6 C 209 129.8 204.9 130.6 200.6 130.6 C 188.1 130.6 182.3 121.2 182.3 113.2 C 182.3 103.2 190.6 95.6 200.7 95.6 C 204.5 95.6 208.6 96.6 212.7 98.4 Z M 233.9 95.9 L 249.2 130.2 L 244.2 130.2 L 239.6 120.1 L 225.1 120.1 L 220.8 130.2 L 215.8 130.2 L 230.5 95.9 L 233.9 95.9 Z M 227 115.7 L 237.7 115.7 L 232.2 102.5 L 227 115.7 Z M 270.1 98 C 270.1 98 270.1 103.6 270.1 103.6 C 267.8 101.3 265.1 100 262.1 100 C 259 100 257.1 101.6 257.1 104 C 257.1 105.9 257.5 107.5 262.7 110.5 C 269.9 114.7 271.4 117.1 271.4 121.7 C 271.4 126.7 267.5 130.6 261.5 130.6 C 258.2 130.6 255 129.5 252.3 127.5 C 252.3 127.5 252.3 121.3 252.3 121.3 C 254.7 124.4 258 126.3 261.5 126.3 C 264.4 126.3 266.5 124.4 266.5 121.8 C 266.5 119.5 265.9 117.9 259.1 114 C 254.1 111 252.2 108.3 252.2 104.1 C 252.2 99.3 256.4 95.6 262.2 95.6 C 265 95.6 267.7 96.5 270.1 98 Z M 296.7 96.1 L 296.7 100.4 L 282.3 100.4 L 282.3 110.8 L 296.2 110.8 L 296.2 115.2 L 282.3 115.2 L 282.3 125.8 L 297.2 125.8 L 297.2 130.2 L 277.4 130.2 L 277.4 96.1 L 296.7 96.1 Z M 333.9 98 C 333.9 98 333.9 103.6 333.9 103.6 C 331.6 101.3 328.9 100 325.9 100 C 322.8 100 320.9 101.6 320.9 104 C 320.9 105.9 321.3 107.5 326.5 110.5 C 333.7 114.7 335.2 117.1 335.2 121.7 C 335.2 126.7 331.3 130.6 325.3 130.6 C 322 130.6 318.8 129.5 316.1 127.5 C 316.1 127.5 316.1 121.3 316.1 121.3 C 318.5 124.4 321.8 126.3 325.3 126.3 C 328.2 126.3 330.3 124.4 330.3 121.8 C 330.3 119.5 329.7 117.9 322.9 114 C 317.9 111 316 108.3 316 104.1 C 316 99.3 320.2 95.6 326 95.6 C 328.8 95.6 331.5 96.5 333.9 98 Z M 366.8 96.1 L 366.8 100.4 L 354.9 100.4 L 354.9 130.2 L 350 130.2 L 350 100.4 L 338.3 100.4 L 338.3 96.1 L 366.8 96.1 Z M 375.8 96.1 C 375.8 96.1 375.85 115.82 375.8 115.8 C 375.8 123.4 379.1 126.3 385.6 126.3 C 392.1 126.3 395.3 123.2 395.3 115.8 C 395.35 115.77 395.3 96.1 395.3 96.1 L 400.2 96.1 C 400.2 96.1 400.25 115.77 400.2 115.8 C 400.2 125.1 395.5 130.6 385.6 130.6 C 376.2 130.6 370.9 125.9 370.9 115.8 C 370.95 115.82 370.9 96.1 370.9 96.1 L 375.8 96.1 Z M 420.2 96.1 C 431.6 96.1 438.6 103.1 438.6 112.7 C 438.6 123.3 431.1 130.2 420.3 130.2 C 420.3 130.17 407.3 130.2 407.3 130.2 L 407.3 96.1 C 407.3 96.1 420.25 96.07 420.2 96.1 Z M 420 125.8 C 428.6 125.8 433.6 121 433.6 112.9 C 433.6 105.5 429 100.4 419.3 100.4 C 419.35 100.42 412.2 100.4 412.2 100.4 L 412.2 125.8 C 412.2 125.8 420.05 125.77 420 125.8 Z M 449.5 96.1 L 449.5 130.2 L 444.6 130.2 L 444.6 96.1 L 449.5 96.1 Z M 476.4 96.1 L 476.4 100.4 L 461.9 100.4 L 461.9 110.8 L 475.9 110.8 L 475.9 115.2 L 461.9 115.2 L 461.9 125.8 L 476.8 125.8 L 476.8 130.2 L 457 130.2 L 457 96.1 L 476.4 96.1 Z M 499.6 98 C 499.6 98 499.6 103.6 499.6 103.6 C 497.3 101.3 494.7 100 491.6 100 C 488.5 100 486.6 101.6 486.6 104 C 486.6 105.9 487 107.5 492.2 110.5 C 499.4 114.7 501 117.1 501 121.7 C 501 126.7 497 130.6 491.1 130.6 C 487.7 130.6 484.6 129.5 481.9 127.5 C 481.9 127.5 481.9 121.3 481.9 121.3 C 484.3 124.4 487.5 126.3 491.1 126.3 C 493.9 126.3 496.1 124.4 496.1 121.8 C 496.1 119.5 495.4 117.9 488.7 114 C 483.6 111 481.7 108.3 481.7 104.1 C 481.7 99.3 485.9 95.6 491.8 95.6 C 494.6 95.6 497.3 96.5 499.6 98 Z " stroke="none" fill="#010102"/>  </g></svg>