<?xml version="1.0" standalone="no"?><!DOCTYPE svg PUBLIC "-//W3C//DTD SVG 1.1//EN" "http://www.w3.org/Graphics/SVG/1.1/DTD/svg11.dtd"><svg xmlns="http://www.w3.org/2000/svg" version="1.1" width="847.2px" height="46.1px" viewBox="0 -8 847.2 46.1" style="top:-8px">  <desc>Empowering Leaders with People Manager Programme</desc>  <defs/>  <g id="Polygon47480">    <path d="M 13.5 1.4 L 13.5 3.4 L 4.6 3.4 L 4.6 10.6 L 13.2 10.6 L 13.2 12.6 L 4.6 12.6 L 4.6 19.8 L 13.7 19.8 L 13.7 21.9 L 2.3 21.9 L 2.3 1.4 L 13.5 1.4 Z M 17.4 1.4 L 19.5 1.4 L 26.7 10.4 L 33.9 1.4 L 36.1 1.4 L 36.1 21.9 L 33.8 21.9 L 33.8 5 L 33.7 5 L 26.9 13.5 L 26.5 13.5 L 19.7 5 L 19.6 5 L 19.6 21.9 L 17.4 21.9 L 17.4 1.4 Z M 46.5 1.4 C 50.6 1.4 53.1 3.5 53.1 7 C 53.1 10.9 50.5 12.7 46.1 12.7 C 46.11 12.66 42.9 12.7 42.9 12.7 L 42.9 21.9 L 40.7 21.9 L 40.7 1.4 C 40.7 1.4 46.5 1.41 46.5 1.4 Z M 42.9 10.7 C 42.9 10.7 46.05 10.68 46 10.7 C 49.5 10.7 50.8 9.3 50.8 7 C 50.8 4.7 49.4 3.4 46 3.4 C 46.05 3.39 42.9 3.4 42.9 3.4 L 42.9 10.7 Z M 76.9 11.5 C 76.9 17.3 72.7 22.1 66 22.1 C 59.6 22.1 55.3 17.3 55.3 11.8 C 55.3 6.1 59.4 1.1 66.1 1.1 C 72.6 1.1 76.9 5.9 76.9 11.5 Z M 57.7 11.7 C 57.7 16.5 61.4 20 66 20 C 72.1 20 74.6 15.3 74.6 11.6 C 74.6 7.5 71.5 3.3 66.2 3.3 C 60.6 3.3 57.7 7.5 57.7 11.7 Z M 77.5 1.4 L 79.8 1.4 L 86 17 L 86 17 L 92.1 1.4 L 94.1 1.4 L 100.3 16.9 L 100.3 16.9 L 106.3 1.4 L 108.6 1.4 L 100.4 22 L 100 22 L 93.1 4.6 L 86.2 22 L 85.7 22 L 77.5 1.4 Z M 122.1 1.4 L 122.1 3.4 L 113.2 3.4 L 113.2 10.6 L 121.8 10.6 L 121.8 12.6 L 113.2 12.6 L 113.2 19.8 L 122.4 19.8 L 122.4 21.9 L 110.9 21.9 L 110.9 1.4 L 122.1 1.4 Z M 126 1.4 C 126 1.4 131.37 1.41 131.4 1.4 C 135.5 1.4 137.6 3.8 137.6 6.9 C 137.6 9.4 136.2 11.2 133.7 11.9 C 135.1 12.6 135.7 13.2 137.3 15.7 C 137.34 15.75 141.3 21.9 141.3 21.9 L 138.6 21.9 C 138.6 21.9 135.03 16.23 135 16.2 C 133.1 13.2 131.9 12.6 130.1 12.6 C 130.14 12.57 128.2 12.6 128.2 12.6 L 128.2 21.9 L 126 21.9 L 126 1.4 Z M 130.3 10.6 C 133.2 10.6 135.3 9.9 135.3 6.9 C 135.3 4.4 133.7 3.4 131.1 3.4 C 131.07 3.39 128.2 3.4 128.2 3.4 L 128.2 10.6 C 128.2 10.6 130.35 10.59 130.3 10.6 Z M 145.8 1.4 L 145.8 21.9 L 143.5 21.9 L 143.5 1.4 L 145.8 1.4 Z M 152.2 1.4 L 166.7 18.3 L 166.7 1.4 L 168.9 1.4 L 168.9 21.9 L 166.9 21.9 L 152.5 5 L 152.5 21.9 L 150.4 21.9 L 150.4 1.4 L 152.2 1.4 Z M 190.4 5.2 C 188.1 3.8 185.6 3.1 183.3 3.1 C 178.6 3.1 174.9 6.7 174.9 11.5 C 174.9 16.6 178.4 20.1 183.5 20.1 C 185.2 20.1 186.4 19.9 188.5 19.1 C 188.55 19.08 188.5 14.1 188.5 14.1 L 184.4 14.1 L 184.4 12.1 L 190.8 12.1 C 190.8 12.1 190.8 20.46 190.8 20.5 C 188.5 21.6 186.2 22.1 183.5 22.1 C 176.2 22.1 172.6 17 172.6 11.8 C 172.6 5.9 176.9 1.1 183.4 1.1 C 185.8 1.1 187.7 1.6 190.4 2.8 C 190.4 2.8 190.4 5.2 190.4 5.2 Z M 205.7 1.4 L 205.7 19.8 L 215.3 19.8 L 215.3 21.9 L 203.4 21.9 L 203.4 1.4 L 205.7 1.4 Z M 229.1 1.4 L 229.1 3.4 L 220.2 3.4 L 220.2 10.6 L 228.8 10.6 L 228.8 12.6 L 220.2 12.6 L 220.2 19.8 L 229.3 19.8 L 229.3 21.9 L 217.9 21.9 L 217.9 1.4 L 229.1 1.4 Z M 241.9 1.3 L 251 21.9 L 248.7 21.9 L 245.8 15.4 L 236.5 15.4 L 233.7 21.9 L 231.4 21.9 L 240.3 1.3 L 241.9 1.3 Z M 237.4 13.4 L 244.9 13.4 L 241 4.7 L 237.4 13.4 Z M 253.3 1.4 C 253.3 1.4 260.85 1.41 260.8 1.4 C 267.5 1.4 271.9 5.6 271.9 11.4 C 271.9 17.8 267.4 21.9 260.8 21.9 C 260.85 21.87 253.3 21.9 253.3 21.9 L 253.3 1.4 Z M 260.8 19.8 C 266.2 19.8 269.5 16.6 269.5 11.6 C 269.5 6.7 266.3 3.4 260.5 3.4 C 260.49 3.42 255.6 3.4 255.6 3.4 L 255.6 19.8 C 255.6 19.8 260.82 19.83 260.8 19.8 Z M 286.8 1.4 L 286.8 3.4 L 277.9 3.4 L 277.9 10.6 L 286.5 10.6 L 286.5 12.6 L 277.9 12.6 L 277.9 19.8 L 287 19.8 L 287 21.9 L 275.6 21.9 L 275.6 1.4 L 286.8 1.4 Z M 290.7 1.4 C 290.7 1.4 296.04 1.41 296 1.4 C 300.1 1.4 302.3 3.8 302.3 6.9 C 302.3 9.4 300.9 11.2 298.4 11.9 C 299.7 12.6 300.3 13.2 302 15.7 C 302.01 15.75 306 21.9 306 21.9 L 303.3 21.9 C 303.3 21.9 299.7 16.23 299.7 16.2 C 297.8 13.2 296.5 12.6 294.8 12.6 C 294.81 12.57 292.9 12.6 292.9 12.6 L 292.9 21.9 L 290.7 21.9 L 290.7 1.4 Z M 295 10.6 C 297.8 10.6 300 9.9 300 6.9 C 300 4.4 298.3 3.4 295.7 3.4 C 295.74 3.39 292.9 3.4 292.9 3.4 L 292.9 10.6 C 292.9 10.6 295.02 10.59 295 10.6 Z M 318.2 2.5 C 318.2 2.5 318.2 5 318.2 5 C 316.8 3.8 315.2 3.2 313.6 3.2 C 311.4 3.2 310 4.4 310 6.1 C 310 7.5 310.3 8.7 313.7 10.4 C 317.9 12.6 319 14 319 16.8 C 319 19.9 316.6 22.1 313.1 22.1 C 311.2 22.1 309.4 21.5 307.8 20.3 C 307.8 20.3 307.8 17.5 307.8 17.5 C 309.3 19.2 311.1 20.1 313.1 20.1 C 315.2 20.1 316.7 18.8 316.7 16.9 C 316.7 15.1 316.1 14.1 312.1 12 C 308.9 10.4 307.7 8.8 307.7 6.2 C 307.7 3.3 310.2 1.1 313.6 1.1 C 315.2 1.1 316.8 1.6 318.2 2.5 Z M 328.5 1.4 L 330.8 1.4 L 337 17 L 337 17 L 343 1.4 L 345.1 1.4 L 351.2 16.9 L 351.3 16.9 L 357.3 1.4 L 359.5 1.4 L 351.4 22 L 350.9 22 L 344 4.6 L 337.2 22 L 336.7 22 L 328.5 1.4 Z M 364.2 1.4 L 364.2 21.9 L 361.9 21.9 L 361.9 1.4 L 364.2 1.4 Z M 383.7 1.4 L 383.7 3.4 L 376.4 3.4 L 376.4 21.9 L 374.1 21.9 L 374.1 3.4 L 366.9 3.4 L 366.9 1.4 L 383.7 1.4 Z M 388.7 1.4 L 388.7 10.5 L 401.1 10.5 L 401.1 1.4 L 403.4 1.4 L 403.4 21.9 L 401.1 21.9 L 401.1 12.6 L 388.7 12.6 L 388.7 21.9 L 386.5 21.9 L 386.5 1.4 L 388.7 1.4 Z M 422.1 1.4 C 426.2 1.4 428.7 3.5 428.7 7 C 428.7 10.9 426.1 12.7 421.7 12.7 C 421.74 12.66 418.6 12.7 418.6 12.7 L 418.6 21.9 L 416.3 21.9 L 416.3 1.4 C 416.3 1.4 422.13 1.41 422.1 1.4 Z M 418.6 10.7 C 418.6 10.7 421.68 10.68 421.7 10.7 C 425.1 10.7 426.4 9.3 426.4 7 C 426.4 4.7 425 3.4 421.7 3.4 C 421.68 3.39 418.6 3.4 418.6 3.4 L 418.6 10.7 Z M 443.1 1.4 L 443.1 3.4 L 434.1 3.4 L 434.1 10.6 L 442.8 10.6 L 442.8 12.6 L 434.1 12.6 L 434.1 19.8 L 443.3 19.8 L 443.3 21.9 L 431.9 21.9 L 431.9 1.4 L 443.1 1.4 Z M 467.6 11.5 C 467.6 17.3 463.4 22.1 456.7 22.1 C 450.3 22.1 446 17.3 446 11.8 C 446 6.1 450.1 1.1 456.7 1.1 C 463.3 1.1 467.6 5.9 467.6 11.5 Z M 448.3 11.7 C 448.3 16.5 452.1 20 456.7 20 C 462.8 20 465.3 15.3 465.3 11.6 C 465.3 7.5 462.2 3.3 456.9 3.3 C 451.3 3.3 448.3 7.5 448.3 11.7 Z M 477.1 1.4 C 481.2 1.4 483.7 3.5 483.7 7 C 483.7 10.9 481.1 12.7 476.7 12.7 C 476.73 12.66 473.5 12.7 473.5 12.7 L 473.5 21.9 L 471.3 21.9 L 471.3 1.4 C 471.3 1.4 477.12 1.41 477.1 1.4 Z M 473.5 10.7 C 473.5 10.7 476.67 10.68 476.7 10.7 C 480.1 10.7 481.4 9.3 481.4 7 C 481.4 4.7 480 3.4 476.7 3.4 C 476.67 3.39 473.5 3.4 473.5 3.4 L 473.5 10.7 Z M 489.1 1.4 L 489.1 19.8 L 498.7 19.8 L 498.7 21.9 L 486.9 21.9 L 486.9 1.4 L 489.1 1.4 Z M 512.5 1.4 L 512.5 3.4 L 503.6 3.4 L 503.6 10.6 L 512.2 10.6 L 512.2 12.6 L 503.6 12.6 L 503.6 19.8 L 512.8 19.8 L 512.8 21.9 L 501.4 21.9 L 501.4 1.4 L 512.5 1.4 Z M 524.8 1.4 L 526.9 1.4 L 534.1 10.4 L 541.3 1.4 L 543.4 1.4 L 543.4 21.9 L 541.2 21.9 L 541.2 5 L 541.1 5 L 534.3 13.5 L 533.9 13.5 L 527.1 5 L 527 5 L 527 21.9 L 524.8 21.9 L 524.8 1.4 Z M 556.3 1.3 L 565.4 21.9 L 563.1 21.9 L 560.2 15.4 L 550.9 15.4 L 548.1 21.9 L 545.8 21.9 L 554.7 1.3 L 556.3 1.3 Z M 551.8 13.4 L 559.3 13.4 L 555.4 4.7 L 551.8 13.4 Z M 569.6 1.4 L 584.1 18.3 L 584.1 1.4 L 586.2 1.4 L 586.2 21.9 L 584.2 21.9 L 569.9 5 L 569.9 21.9 L 567.7 21.9 L 567.7 1.4 L 569.6 1.4 Z M 599 1.3 L 608.1 21.9 L 605.8 21.9 L 602.9 15.4 L 593.6 15.4 L 590.9 21.9 L 588.6 21.9 L 597.4 1.3 L 599 1.3 Z M 594.5 13.4 L 602 13.4 L 598.2 4.7 L 594.5 13.4 Z M 626.5 5.2 C 624.2 3.8 621.7 3.1 619.4 3.1 C 614.7 3.1 611 6.7 611 11.5 C 611 16.6 614.5 20.1 619.6 20.1 C 621.3 20.1 622.5 19.9 624.6 19.1 C 624.63 19.08 624.6 14.1 624.6 14.1 L 620.5 14.1 L 620.5 12.1 L 626.9 12.1 C 626.9 12.1 626.88 20.46 626.9 20.5 C 624.5 21.6 622.3 22.1 619.6 22.1 C 612.3 22.1 608.7 17 608.7 11.8 C 608.7 5.9 613 1.1 619.5 1.1 C 621.8 1.1 623.8 1.6 626.5 2.8 C 626.5 2.8 626.5 5.2 626.5 5.2 Z M 642.4 1.4 L 642.4 3.4 L 633.4 3.4 L 633.4 10.6 L 642.1 10.6 L 642.1 12.6 L 633.4 12.6 L 633.4 19.8 L 642.6 19.8 L 642.6 21.9 L 631.2 21.9 L 631.2 1.4 L 642.4 1.4 Z M 646.2 1.4 C 646.2 1.4 651.59 1.41 651.6 1.4 C 655.7 1.4 657.8 3.8 657.8 6.9 C 657.8 9.4 656.5 11.2 654 11.9 C 655.3 12.6 655.9 13.2 657.6 15.7 C 657.56 15.75 661.5 21.9 661.5 21.9 L 658.9 21.9 C 658.9 21.9 655.25 16.23 655.3 16.2 C 653.4 13.2 652.1 12.6 650.4 12.6 C 650.36 12.57 648.5 12.6 648.5 12.6 L 648.5 21.9 L 646.2 21.9 L 646.2 1.4 Z M 650.6 10.6 C 653.4 10.6 655.5 9.9 655.5 6.9 C 655.5 4.4 653.9 3.4 651.3 3.4 C 651.29 3.39 648.5 3.4 648.5 3.4 L 648.5 10.6 C 648.5 10.6 650.57 10.59 650.6 10.6 Z M 677.9 1.4 C 682 1.4 684.5 3.5 684.5 7 C 684.5 10.9 681.9 12.7 677.5 12.7 C 677.54 12.66 674.4 12.7 674.4 12.7 L 674.4 21.9 L 672.1 21.9 L 672.1 1.4 C 672.1 1.4 677.93 1.41 677.9 1.4 Z M 674.4 10.7 C 674.4 10.7 677.48 10.68 677.5 10.7 C 680.9 10.7 682.2 9.3 682.2 7 C 682.2 4.7 680.8 3.4 677.5 3.4 C 677.48 3.39 674.4 3.4 674.4 3.4 L 674.4 10.7 Z M 687.7 1.4 C 687.7 1.4 693.05 1.41 693.1 1.4 C 697.2 1.4 699.3 3.8 699.3 6.9 C 699.3 9.4 697.9 11.2 695.4 11.9 C 696.7 12.6 697.3 13.2 699 15.7 C 699.02 15.75 703 21.9 703 21.9 L 700.3 21.9 C 700.3 21.9 696.71 16.23 696.7 16.2 C 694.8 13.2 693.6 12.6 691.8 12.6 C 691.82 12.57 689.9 12.6 689.9 12.6 L 689.9 21.9 L 687.7 21.9 L 687.7 1.4 Z M 692 10.6 C 694.9 10.6 697 9.9 697 6.9 C 697 4.4 695.4 3.4 692.8 3.4 C 692.75 3.39 689.9 3.4 689.9 3.4 L 689.9 10.6 C 689.9 10.6 692.03 10.59 692 10.6 Z M 725.3 11.5 C 725.3 17.3 721.1 22.1 714.4 22.1 C 708 22.1 703.7 17.3 703.7 11.8 C 703.7 6.1 707.8 1.1 714.4 1.1 C 721 1.1 725.3 5.9 725.3 11.5 Z M 706 11.7 C 706 16.5 709.8 20 714.4 20 C 720.5 20 723 15.3 723 11.6 C 723 7.5 719.9 3.3 714.6 3.3 C 709 3.3 706 7.5 706 11.7 Z M 745.9 5.2 C 743.6 3.8 741.1 3.1 738.8 3.1 C 734.1 3.1 730.4 6.7 730.4 11.5 C 730.4 16.6 733.9 20.1 739 20.1 C 740.7 20.1 742 19.9 744.1 19.1 C 744.05 19.08 744.1 14.1 744.1 14.1 L 739.9 14.1 L 739.9 12.1 L 746.3 12.1 C 746.3 12.1 746.3 20.46 746.3 20.5 C 744 21.6 741.7 22.1 739 22.1 C 731.7 22.1 728.1 17 728.1 11.8 C 728.1 5.9 732.4 1.1 738.9 1.1 C 741.3 1.1 743.2 1.6 745.9 2.8 C 745.9 2.8 745.9 5.2 745.9 5.2 Z M 750.6 1.4 C 750.6 1.4 755.96 1.41 756 1.4 C 760.1 1.4 762.2 3.8 762.2 6.9 C 762.2 9.4 760.8 11.2 758.3 11.9 C 759.7 12.6 760.3 13.2 761.9 15.7 C 761.93 15.75 765.9 21.9 765.9 21.9 L 763.2 21.9 C 763.2 21.9 759.62 16.23 759.6 16.2 C 757.7 13.2 756.5 12.6 754.7 12.6 C 754.73 12.57 752.8 12.6 752.8 12.6 L 752.8 21.9 L 750.6 21.9 L 750.6 1.4 Z M 754.9 10.6 C 757.8 10.6 759.9 9.9 759.9 6.9 C 759.9 4.4 758.3 3.4 755.7 3.4 C 755.66 3.39 752.8 3.4 752.8 3.4 L 752.8 10.6 C 752.8 10.6 754.94 10.59 754.9 10.6 Z M 776.3 1.3 L 785.5 21.9 L 783.1 21.9 L 780.3 15.4 L 771 15.4 L 768.2 21.9 L 765.9 21.9 L 774.7 1.3 L 776.3 1.3 Z M 771.8 13.4 L 779.4 13.4 L 775.5 4.7 L 771.8 13.4 Z M 787.8 1.4 L 789.9 1.4 L 797.2 10.4 L 804.4 1.4 L 806.5 1.4 L 806.5 21.9 L 804.2 21.9 L 804.2 5 L 804.2 5 L 797.3 13.5 L 796.9 13.5 L 790.1 5 L 790 5 L 790 21.9 L 787.8 21.9 L 787.8 1.4 Z M 811.1 1.4 L 813.2 1.4 L 820.5 10.4 L 827.7 1.4 L 829.8 1.4 L 829.8 21.9 L 827.5 21.9 L 827.5 5 L 827.5 5 L 820.6 13.5 L 820.3 13.5 L 813.4 5 L 813.4 5 L 813.4 21.9 L 811.1 21.9 L 811.1 1.4 Z M 845.6 1.4 L 845.6 3.4 L 836.7 3.4 L 836.7 10.6 L 845.3 10.6 L 845.3 12.6 L 836.7 12.6 L 836.7 19.8 L 845.8 19.8 L 845.8 21.9 L 834.4 21.9 L 834.4 1.4 L 845.6 1.4 Z " stroke="none" fill="#000000"/>  </g></svg>