<?xml version="1.0" standalone="no"?><!DOCTYPE svg PUBLIC "-//W3C//DTD SVG 1.1//EN" "http://www.w3.org/Graphics/SVG/1.1/DTD/svg11.dtd"><svg xmlns="http://www.w3.org/2000/svg" version="1.1" width="2158.5px" height="70.7px" viewBox="0 -11 2158.5 70.7" style="top:-11px">  <desc>“when services are perceived to be similar, it is the people and the way of working that make all the difference”</desc>  <defs/>  <g id="Polygon7924">    <path d="M 18.2 9 C 18.2 5.8 20.1 2.9 23.7 1.8 C 23.7 1.8 23.7 2.6 23.7 2.6 C 22.5 3.9 21.8 5.1 21.8 7.4 C 23.2 7.8 24.3 8.7 24.3 10.4 C 24.3 11.9 23 13.4 21.4 13.4 C 19.5 13.4 18.2 11.4 18.2 9 Z M 27.6 9 C 27.6 5.9 29.4 2.9 33.1 1.8 C 33.1 1.8 33.1 2.6 33.1 2.6 C 31.9 3.9 31.2 5.2 31.2 7.4 C 32.5 7.8 33.6 8.7 33.6 10.4 C 33.6 11.8 32.5 13.4 30.8 13.4 C 28.9 13.4 27.6 11.4 27.6 9 Z M 40.5 13.2 L 46.1 25.9 L 51.4 13.2 L 54.5 13.2 L 59.9 25.9 L 65.4 13.2 L 69.8 13.2 L 60.5 34.7 L 59.2 34.7 L 53 19.9 L 46.8 34.7 L 45.5 34.7 L 36.1 13.2 L 40.5 13.2 Z M 90.7 21.1 C 90.67 21.06 90.7 34.3 90.7 34.3 L 86.5 34.3 C 86.5 34.3 86.49 21.15 86.5 21.1 C 86.5 17.8 85 16.2 82.4 16.2 C 80.4 16.2 79 17 77.1 19.1 C 77.09 19.13 77.1 34.3 77.1 34.3 L 72.9 34.3 L 72.9 2.2 L 77.1 2.2 C 77.1 2.2 77.09 15.93 77.1 15.9 C 78.8 13.9 81.1 12.7 83.6 12.7 C 88.3 12.7 90.7 16 90.7 21.1 Z M 114.3 23.6 C 114.26 23.64 114.3 24.1 114.3 24.1 C 114.3 24.1 99.41 24.06 99.4 24.1 C 99.7 28.1 102.3 30.7 106.2 30.7 C 109 30.7 111.6 29.8 113.9 28.1 C 113.9 28.1 113.9 32.2 113.9 32.2 C 111.1 34 108.7 34.7 105.7 34.7 C 100 34.7 95.2 30.5 95.2 23.5 C 95.2 17.4 99 12.7 105.1 12.7 C 110.3 12.7 114.3 16.7 114.3 23.6 Z M 110.1 21.6 C 109.9 18.3 108.2 16.4 105 16.4 C 102 16.4 99.7 18.7 99.5 21.6 C 99.5 21.6 110.1 21.6 110.1 21.6 Z M 136.8 21.5 C 136.82 21.53 136.8 34.3 136.8 34.3 L 132.6 34.3 C 132.6 34.3 132.64 21.62 132.6 21.6 C 132.6 17.2 130.6 16.2 128.3 16.2 C 126.4 16.2 124.5 17.3 123.2 19.2 C 123.24 19.18 123.2 34.3 123.2 34.3 L 119.1 34.3 L 119.1 13.2 L 123.2 13.2 C 123.2 13.2 123.24 15.84 123.2 15.8 C 125.1 13.7 127.8 12.7 129.7 12.7 C 134.2 12.7 136.8 15.9 136.8 21.5 Z M 161.5 12.7 C 163.7 12.7 165.8 13.3 167.9 14.5 C 167.9 14.5 167.9 18.7 167.9 18.7 C 165.5 17.2 163.7 16.4 161.8 16.4 C 159.9 16.4 159.1 17.2 159.1 18 C 159.1 19 159.4 19.6 163.3 21.9 C 165.8 23.3 168.9 25.2 168.9 28.7 C 168.9 31.2 167 34.7 161.7 34.7 C 159.4 34.7 157.8 34.3 154.6 32.8 C 154.6 32.8 154.6 28.2 154.6 28.2 C 156.6 29.8 159.4 31 161.4 31 C 163.7 31 164.6 30 164.6 29 C 164.6 27.7 164.2 27.3 159.6 24.6 C 156.8 22.9 154.8 21.1 154.8 18.2 C 154.8 15 157.6 12.7 161.5 12.7 Z M 191.6 23.6 C 191.58 23.64 191.6 24.1 191.6 24.1 C 191.6 24.1 176.72 24.06 176.7 24.1 C 177 28.1 179.6 30.7 183.5 30.7 C 186.3 30.7 188.9 29.8 191.2 28.1 C 191.2 28.1 191.2 32.2 191.2 32.2 C 188.4 34 186 34.7 183 34.7 C 177.3 34.7 172.5 30.5 172.5 23.5 C 172.5 17.4 176.3 12.7 182.4 12.7 C 187.6 12.7 191.6 16.7 191.6 23.6 Z M 187.4 21.6 C 187.3 18.3 185.5 16.4 182.3 16.4 C 179.3 16.4 177.1 18.7 176.8 21.6 C 176.8 21.6 187.4 21.6 187.4 21.6 Z M 211.5 15.1 C 211.5 15.1 209.3 18.8 209.3 18.8 C 208.1 17.6 206.4 16.7 205.3 16.7 C 203.2 16.7 200.3 19.1 200.3 23 C 200.27 23.03 200.3 34.3 200.3 34.3 L 196.1 34.3 L 196.1 13.2 L 200.3 13.2 C 200.3 13.2 200.27 18 200.3 18 C 202.7 14.1 204.6 12.7 206.6 12.7 C 208.3 12.7 210.1 13.7 211.5 15.1 Z M 217.6 13.2 L 223.3 26.1 L 228.8 13.2 L 233.3 13.2 L 224 34.7 L 222.5 34.7 L 213 13.2 L 217.6 13.2 Z M 240.9 6.7 C 240.9 8 239.7 9.2 238.4 9.2 C 237 9.2 235.9 7.9 235.9 6.7 C 235.9 5.5 237 4.3 238.4 4.3 C 239.7 4.3 240.9 5.4 240.9 6.7 Z M 240.5 13.2 L 240.5 34.3 L 236.3 34.3 L 236.3 13.2 L 240.5 13.2 Z M 261.8 14.2 C 261.8 14.2 261.8 18.7 261.8 18.7 C 259.7 17.2 257.9 16.7 255.9 16.7 C 251.7 16.7 249.5 20.2 249.5 23.7 C 249.5 26.7 251.1 30.7 256.7 30.7 C 258.9 30.7 260.6 30.1 262.3 29.3 C 262.3 29.3 262.3 33.5 262.3 33.5 C 260.2 34.3 258.2 34.7 256.1 34.7 C 248 34.7 245.2 28.6 245.2 24 C 245.2 17 249.6 12.7 255.6 12.7 C 257.7 12.7 259.4 13.1 261.8 14.2 Z M 284.8 23.6 C 284.82 23.64 284.8 24.1 284.8 24.1 C 284.8 24.1 269.97 24.06 270 24.1 C 270.3 28.1 272.8 30.7 276.8 30.7 C 279.5 30.7 282.2 29.8 284.4 28.1 C 284.4 28.1 284.4 32.2 284.4 32.2 C 281.7 34 279.2 34.7 276.2 34.7 C 270.6 34.7 265.7 30.5 265.7 23.5 C 265.7 17.4 269.5 12.7 275.6 12.7 C 280.9 12.7 284.8 16.7 284.8 23.6 Z M 280.7 21.6 C 280.5 18.3 278.7 16.4 275.6 16.4 C 272.6 16.4 270.3 18.7 270.1 21.6 C 270.1 21.6 280.7 21.6 280.7 21.6 Z M 295.3 12.7 C 297.5 12.7 299.6 13.3 301.7 14.5 C 301.7 14.5 301.7 18.7 301.7 18.7 C 299.3 17.2 297.6 16.4 295.6 16.4 C 293.7 16.4 293 17.2 293 18 C 293 19 293.2 19.6 297.1 21.9 C 299.7 23.3 302.8 25.2 302.8 28.7 C 302.8 31.2 300.9 34.7 295.5 34.7 C 293.2 34.7 291.6 34.3 288.5 32.8 C 288.5 32.8 288.5 28.2 288.5 28.2 C 290.5 29.8 293.2 31 295.2 31 C 297.6 31 298.5 30 298.5 29 C 298.5 27.7 298.1 27.3 293.4 24.6 C 290.6 22.9 288.6 21.1 288.6 18.2 C 288.6 15 291.4 12.7 295.3 12.7 Z M 334.2 19.6 C 334.2 19.6 334.2 30.2 334.2 30.2 C 334.2 30.8 334.5 31.2 335 31.2 C 335.4 31.2 336.2 30.8 337.2 30 C 337.2 30 337.2 33 337.2 33 C 335.6 34.1 334.2 34.7 332.9 34.7 C 331.4 34.7 330.4 34.1 330 32.5 C 328.2 34 326.2 34.7 324.3 34.7 C 321.3 34.7 319.1 32.3 319.1 29.5 C 319.1 25.7 321.8 24.3 330 21.5 C 330 21.5 330 20.4 330 20.4 C 330 17.7 328.7 16.7 326.2 16.7 C 323.9 16.7 321.6 17.8 319.6 20.2 C 319.6 20.2 319.6 15.6 319.6 15.6 C 321.2 13.7 323.6 12.7 326.6 12.7 C 331.4 12.7 334.2 15.5 334.2 19.6 Z M 326.4 31.7 C 327.7 31.7 328.9 31.1 330 30 C 330 30 330 23.8 330 23.8 C 325.2 25.4 323.4 26.8 323.4 28.8 C 323.4 30.4 324.6 31.7 326.4 31.7 Z M 355.8 15.1 C 355.8 15.1 353.6 18.8 353.6 18.8 C 352.4 17.6 350.7 16.7 349.5 16.7 C 347.5 16.7 344.6 19.1 344.6 23 C 344.56 23.03 344.6 34.3 344.6 34.3 L 340.4 34.3 L 340.4 13.2 L 344.6 13.2 C 344.6 13.2 344.56 18 344.6 18 C 347 14.1 348.9 12.7 350.9 12.7 C 352.6 12.7 354.4 13.7 355.8 15.1 Z M 375.6 23.6 C 375.58 23.64 375.6 24.1 375.6 24.1 C 375.6 24.1 360.73 24.06 360.7 24.1 C 361 28.1 363.6 30.7 367.5 30.7 C 370.3 30.7 372.9 29.8 375.2 28.1 C 375.2 28.1 375.2 32.2 375.2 32.2 C 372.4 34 370 34.7 367 34.7 C 361.3 34.7 356.5 30.5 356.5 23.5 C 356.5 17.4 360.3 12.7 366.4 12.7 C 371.6 12.7 375.6 16.7 375.6 23.6 Z M 371.4 21.6 C 371.3 18.3 369.5 16.4 366.3 16.4 C 363.3 16.4 361.1 18.7 360.8 21.6 C 360.8 21.6 371.4 21.6 371.4 21.6 Z M 402.2 34.7 C 400.5 34.7 399.8 34.6 397.6 33.7 C 397.62 33.75 397.6 45.1 397.6 45.1 L 393.4 45.1 L 393.4 13.2 C 393.4 13.2 401.29 13.16 401.3 13.2 C 408.1 13.2 412.7 16.9 412.7 23.7 C 412.7 29.9 408.4 34.7 402.2 34.7 Z M 397.6 30 C 398.6 30.6 400.2 31 401.8 31 C 405.6 31 408.4 28.1 408.4 23.7 C 408.4 19.4 406 16.8 401.1 16.8 C 401.1 16.83 397.6 16.8 397.6 16.8 C 397.6 16.8 397.62 30.03 397.6 30 Z M 435.1 23.6 C 435.13 23.64 435.1 24.1 435.1 24.1 C 435.1 24.1 420.27 24.06 420.3 24.1 C 420.6 28.1 423.1 30.7 427.1 30.7 C 429.8 30.7 432.5 29.8 434.7 28.1 C 434.7 28.1 434.7 32.2 434.7 32.2 C 432 34 429.5 34.7 426.5 34.7 C 420.9 34.7 416 30.5 416 23.5 C 416 17.4 419.9 12.7 425.9 12.7 C 431.2 12.7 435.1 16.7 435.1 23.6 Z M 431 21.6 C 430.8 18.3 429 16.4 425.9 16.4 C 422.9 16.4 420.6 18.7 420.4 21.6 C 420.4 21.6 431 21.6 431 21.6 Z M 455.1 15.1 C 455.1 15.1 452.8 18.8 452.8 18.8 C 451.6 17.6 450 16.7 448.8 16.7 C 446.7 16.7 443.8 19.1 443.8 23 C 443.82 23.03 443.8 34.3 443.8 34.3 L 439.6 34.3 L 439.6 13.2 L 443.8 13.2 C 443.8 13.2 443.82 18 443.8 18 C 446.2 14.1 448.1 12.7 450.1 12.7 C 451.9 12.7 453.6 13.7 455.1 15.1 Z M 472.3 14.2 C 472.3 14.2 472.3 18.7 472.3 18.7 C 470.2 17.2 468.4 16.7 466.4 16.7 C 462.2 16.7 460 20.2 460 23.7 C 460 26.7 461.6 30.7 467.2 30.7 C 469.4 30.7 471.1 30.1 472.8 29.3 C 472.8 29.3 472.8 33.5 472.8 33.5 C 470.8 34.3 468.7 34.7 466.6 34.7 C 458.5 34.7 455.8 28.6 455.8 24 C 455.8 17 460.1 12.7 466.1 12.7 C 468.2 12.7 469.9 13.1 472.3 14.2 Z M 495.3 23.6 C 495.33 23.64 495.3 24.1 495.3 24.1 C 495.3 24.1 480.48 24.06 480.5 24.1 C 480.8 28.1 483.3 30.7 487.3 30.7 C 490 30.7 492.7 29.8 495 28.1 C 495 28.1 495 32.2 495 32.2 C 492.2 34 489.7 34.7 486.7 34.7 C 481.1 34.7 476.2 30.5 476.2 23.5 C 476.2 17.4 480.1 12.7 486.1 12.7 C 491.4 12.7 495.3 16.7 495.3 23.6 Z M 491.2 21.6 C 491 18.3 489.2 16.4 486.1 16.4 C 483.1 16.4 480.8 18.7 480.6 21.6 C 480.6 21.6 491.2 21.6 491.2 21.6 Z M 504.7 6.7 C 504.7 8 503.6 9.2 502.2 9.2 C 500.8 9.2 499.7 7.9 499.7 6.7 C 499.7 5.5 500.8 4.3 502.2 4.3 C 503.6 4.3 504.7 5.4 504.7 6.7 Z M 504.3 13.2 L 504.3 34.3 L 500.1 34.3 L 500.1 13.2 L 504.3 13.2 Z M 511.9 13.2 L 517.6 26.1 L 523.1 13.2 L 527.6 13.2 L 518.3 34.7 L 516.9 34.7 L 507.4 13.2 L 511.9 13.2 Z M 547.6 23.6 C 547.59 23.64 547.6 24.1 547.6 24.1 C 547.6 24.1 532.74 24.06 532.7 24.1 C 533 28.1 535.6 30.7 539.6 30.7 C 542.3 30.7 545 29.8 547.2 28.1 C 547.2 28.1 547.2 32.2 547.2 32.2 C 544.4 34 542 34.7 539 34.7 C 533.4 34.7 528.5 30.5 528.5 23.5 C 528.5 17.4 532.3 12.7 538.4 12.7 C 543.6 12.7 547.6 16.7 547.6 23.6 Z M 543.5 21.6 C 543.3 18.3 541.5 16.4 538.3 16.4 C 535.3 16.4 533.1 18.7 532.8 21.6 C 532.8 21.6 543.5 21.6 543.5 21.6 Z M 562.7 30.6 C 562.73 30.6 566 30.6 566 30.6 C 566 30.6 566.02 17.39 566 17.4 C 564.7 16.7 563.4 16.4 561.8 16.4 C 558.1 16.4 555.3 19.1 555.3 23.9 C 555.3 28.2 557.9 30.6 562.7 30.6 Z M 570.2 2.2 L 570.2 34.3 C 570.2 34.3 561.88 34.26 561.9 34.3 C 553.8 34.3 551 28.4 551 23.8 C 551 16.6 556 12.7 561.5 12.7 C 563.3 12.7 564.7 13.1 566 13.6 C 566.02 13.58 566 2.2 566 2.2 L 570.2 2.2 Z M 594.1 8.8 L 594.2 8.8 L 594.2 13.2 L 600.8 13.2 L 600.8 16.9 L 594.2 16.9 C 594.2 16.9 594.17 26.74 594.2 26.7 C 594.2 28.9 594.5 30.9 597.1 30.9 C 598.9 30.9 600.6 30.2 601.9 29.4 C 601.9 29.4 601.9 33.3 601.9 33.3 C 600.4 34.2 598.1 34.7 596.5 34.7 C 592.4 34.7 590 32.6 590 26.7 C 589.99 26.74 590 16.9 590 16.9 L 586.3 16.9 L 586.3 16.5 L 594.1 8.8 Z M 608.6 23.7 C 608.6 28.2 611.7 30.9 615.6 30.9 C 619.8 30.9 622.6 27.9 622.6 23.7 C 622.6 18.7 619.1 16.5 615.4 16.5 C 611.6 16.5 608.6 19.3 608.6 23.7 Z M 626.9 23.7 C 626.9 31.4 620.6 34.7 615.6 34.7 C 608.1 34.7 604.3 28.9 604.3 23.9 C 604.3 17.6 608.7 12.7 615.7 12.7 C 622 12.7 626.9 17.2 626.9 23.7 Z M 652.9 34.7 C 650 34.7 647.3 34.2 644.7 33.1 C 644.69 33.09 644.7 2.2 644.7 2.2 L 648.9 2.2 C 648.9 2.2 648.88 14.66 648.9 14.7 C 650.6 13.4 652.6 12.7 654.7 12.7 C 660 12.7 663.8 17.2 663.8 23.5 C 663.8 30.7 659 34.7 652.9 34.7 Z M 648.9 30.4 C 650.2 30.8 651.3 31.1 653 31.1 C 656.7 31.1 659.5 28.4 659.5 23.6 C 659.5 19.2 657.1 16.4 653.6 16.4 C 652 16.4 650.3 17.1 648.9 18.5 C 648.9 18.5 648.9 30.4 648.9 30.4 Z M 686.2 23.6 C 686.24 23.64 686.2 24.1 686.2 24.1 C 686.2 24.1 671.39 24.06 671.4 24.1 C 671.7 28.1 674.3 30.7 678.2 30.7 C 680.9 30.7 683.6 29.8 685.9 28.1 C 685.9 28.1 685.9 32.2 685.9 32.2 C 683.1 34 680.6 34.7 677.6 34.7 C 672 34.7 667.2 30.5 667.2 23.5 C 667.2 17.4 671 12.7 677 12.7 C 682.3 12.7 686.2 16.7 686.2 23.6 Z M 682.1 21.6 C 681.9 18.3 680.1 16.4 677 16.4 C 674 16.4 671.7 18.7 671.5 21.6 C 671.5 21.6 682.1 21.6 682.1 21.6 Z M 709.8 12.7 C 712 12.7 714.1 13.3 716.2 14.5 C 716.2 14.5 716.2 18.7 716.2 18.7 C 713.8 17.2 712 16.4 710.1 16.4 C 708.2 16.4 707.4 17.2 707.4 18 C 707.4 19 707.7 19.6 711.6 21.9 C 714.2 23.3 717.3 25.2 717.3 28.7 C 717.3 31.2 715.4 34.7 710 34.7 C 707.7 34.7 706.1 34.3 703 32.8 C 703 32.8 703 28.2 703 28.2 C 704.9 29.8 707.7 31 709.7 31 C 712 31 712.9 30 712.9 29 C 712.9 27.7 712.6 27.3 707.9 24.6 C 705.1 22.9 703.1 21.1 703.1 18.2 C 703.1 15 705.9 12.7 709.8 12.7 Z M 726.8 6.7 C 726.8 8 725.6 9.2 724.3 9.2 C 722.9 9.2 721.8 7.9 721.8 6.7 C 721.8 5.5 722.9 4.3 724.3 4.3 C 725.6 4.3 726.8 5.4 726.8 6.7 Z M 726.4 13.2 L 726.4 34.3 L 722.2 34.3 L 722.2 13.2 L 726.4 13.2 Z M 749.1 16.5 C 751.9 13.8 753.6 12.7 756.1 12.7 C 760.7 12.7 763.1 15.8 763.1 21 C 763.13 21.01 763.1 34.3 763.1 34.3 L 759 34.3 C 759 34.3 759 21.34 759 21.3 C 759 18.1 757.4 16.3 754.6 16.3 C 753.1 16.3 751.3 17.2 749.9 18.9 C 749.88 18.94 749.9 34.3 749.9 34.3 L 745.7 34.3 C 745.7 34.3 745.74 21.62 745.7 21.6 C 745.7 17.9 744.4 16.3 741.6 16.3 C 739.6 16.3 738 17.3 736.6 18.9 C 736.62 18.94 736.6 34.3 736.6 34.3 L 732.5 34.3 L 732.5 13.2 L 736.6 13.2 C 736.6 13.2 736.62 15.93 736.6 15.9 C 738.8 13.7 740.6 12.7 742.9 12.7 C 745.5 12.7 747.8 13.9 749.1 16.5 Z M 773.6 6.7 C 773.6 8 772.4 9.2 771.1 9.2 C 769.7 9.2 768.6 7.9 768.6 6.7 C 768.6 5.5 769.7 4.3 771.1 4.3 C 772.4 4.3 773.6 5.4 773.6 6.7 Z M 773.2 13.2 L 773.2 34.3 L 769 34.3 L 769 13.2 L 773.2 13.2 Z M 783.5 2.2 L 783.5 34.3 L 779.3 34.3 L 779.3 2.2 L 783.5 2.2 Z M 803 19.6 C 803 19.6 803 30.2 803 30.2 C 803 30.8 803.3 31.2 803.8 31.2 C 804.3 31.2 805.1 30.8 806 30 C 806 30 806 33 806 33 C 804.4 34.1 803 34.7 801.7 34.7 C 800.2 34.7 799.2 34.1 798.8 32.5 C 797 34 795 34.7 793.1 34.7 C 790.1 34.7 787.9 32.3 787.9 29.5 C 787.9 25.7 790.6 24.3 798.9 21.5 C 798.9 21.5 798.9 20.4 798.9 20.4 C 798.9 17.7 797.5 16.7 795 16.7 C 792.7 16.7 790.4 17.8 788.4 20.2 C 788.4 20.2 788.4 15.6 788.4 15.6 C 790 13.7 792.4 12.7 795.4 12.7 C 800.2 12.7 803 15.5 803 19.6 Z M 795.2 31.7 C 796.5 31.7 797.7 31.1 798.9 30 C 798.9 30 798.9 23.8 798.9 23.8 C 794 25.4 792.2 26.8 792.2 28.8 C 792.2 30.4 793.4 31.7 795.2 31.7 Z M 824.6 15.1 C 824.6 15.1 822.4 18.8 822.4 18.8 C 821.2 17.6 819.5 16.7 818.4 16.7 C 816.3 16.7 813.4 19.1 813.4 23 C 813.37 23.03 813.4 34.3 813.4 34.3 L 809.2 34.3 L 809.2 13.2 L 813.4 13.2 C 813.4 13.2 813.37 18 813.4 18 C 815.8 14.1 817.7 12.7 819.7 12.7 C 821.4 12.7 823.2 13.7 824.6 15.1 Z M 828.6 32.6 C 828.6 35.9 826.6 38.8 823.1 39.9 C 823.1 39.9 823.1 39 823.1 39 C 824.2 37.8 825 36.6 825 34.3 C 823.5 33.8 822.5 32.8 822.5 31.3 C 822.5 29.7 823.9 28.2 825.4 28.2 C 827.3 28.2 828.6 30.3 828.6 32.6 Z M 851.7 6.7 C 851.7 8 850.6 9.2 849.2 9.2 C 847.8 9.2 846.8 7.9 846.8 6.7 C 846.8 5.5 847.8 4.3 849.2 4.3 C 850.6 4.3 851.7 5.4 851.7 6.7 Z M 851.3 13.2 L 851.3 34.3 L 847.2 34.3 L 847.2 13.2 L 851.3 13.2 Z M 862.2 8.8 L 862.3 8.8 L 862.3 13.2 L 868.9 13.2 L 868.9 16.9 L 862.3 16.9 C 862.3 16.9 862.25 26.74 862.3 26.7 C 862.3 28.9 862.6 30.9 865.2 30.9 C 867 30.9 868.7 30.2 870 29.4 C 870 29.4 870 33.3 870 33.3 C 868.5 34.2 866.2 34.7 864.6 34.7 C 860.5 34.7 858.1 32.6 858.1 26.7 C 858.07 26.74 858.1 16.9 858.1 16.9 L 854.4 16.9 L 854.4 16.5 L 862.2 8.8 Z M 891.4 6.7 C 891.4 8 890.3 9.2 888.9 9.2 C 887.5 9.2 886.5 7.9 886.5 6.7 C 886.5 5.5 887.5 4.3 888.9 4.3 C 890.3 4.3 891.4 5.4 891.4 6.7 Z M 891 13.2 L 891 34.3 L 886.8 34.3 L 886.8 13.2 L 891 13.2 Z M 902.9 12.7 C 905 12.7 907.1 13.3 909.3 14.5 C 909.3 14.5 909.3 18.7 909.3 18.7 C 906.9 17.2 905.1 16.4 903.1 16.4 C 901.2 16.4 900.5 17.2 900.5 18 C 900.5 19 900.7 19.6 904.6 21.9 C 907.2 23.3 910.3 25.2 910.3 28.7 C 910.3 31.2 908.4 34.7 903 34.7 C 900.7 34.7 899.1 34.3 896 32.8 C 896 32.8 896 28.2 896 28.2 C 898 29.8 900.7 31 902.7 31 C 905.1 31 906 30 906 29 C 906 27.7 905.6 27.3 900.9 24.6 C 898.2 22.9 896.1 21.1 896.1 18.2 C 896.1 15 899 12.7 902.9 12.7 Z M 933 8.8 L 933.1 8.8 L 933.1 13.2 L 939.8 13.2 L 939.8 16.9 L 933.1 16.9 C 933.1 16.9 933.08 26.74 933.1 26.7 C 933.1 28.9 933.4 30.9 936 30.9 C 937.8 30.9 939.5 30.2 940.8 29.4 C 940.8 29.4 940.8 33.3 940.8 33.3 C 939.3 34.2 937 34.7 935.4 34.7 C 931.3 34.7 928.9 32.6 928.9 26.7 C 928.9 26.74 928.9 16.9 928.9 16.9 L 925.2 16.9 L 925.2 16.5 L 933 8.8 Z M 962.4 21.1 C 962.36 21.06 962.4 34.3 962.4 34.3 L 958.2 34.3 C 958.2 34.3 958.18 21.15 958.2 21.1 C 958.2 17.8 956.7 16.2 954.1 16.2 C 952.1 16.2 950.7 17 948.8 19.1 C 948.78 19.13 948.8 34.3 948.8 34.3 L 944.6 34.3 L 944.6 2.2 L 948.8 2.2 C 948.8 2.2 948.78 15.93 948.8 15.9 C 950.5 13.9 952.8 12.7 955.3 12.7 C 960 12.7 962.4 16 962.4 21.1 Z M 986 23.6 C 985.95 23.64 986 24.1 986 24.1 C 986 24.1 971.1 24.06 971.1 24.1 C 971.4 28.1 974 30.7 977.9 30.7 C 980.6 30.7 983.3 29.8 985.6 28.1 C 985.6 28.1 985.6 32.2 985.6 32.2 C 982.8 34 980.4 34.7 977.4 34.7 C 971.7 34.7 966.9 30.5 966.9 23.5 C 966.9 17.4 970.7 12.7 976.7 12.7 C 982 12.7 986 16.7 986 23.6 Z M 981.8 21.6 C 981.6 18.3 979.8 16.4 976.7 16.4 C 973.7 16.4 971.4 18.7 971.2 21.6 C 971.2 21.6 981.8 21.6 981.8 21.6 Z M 1012.6 34.7 C 1010.9 34.7 1010.2 34.6 1008 33.7 C 1008 33.75 1008 45.1 1008 45.1 L 1003.8 45.1 L 1003.8 13.2 C 1003.8 13.2 1011.66 13.16 1011.7 13.2 C 1018.5 13.2 1023 16.9 1023 23.7 C 1023 29.9 1018.8 34.7 1012.6 34.7 Z M 1008 30 C 1009 30.6 1010.5 31 1012.1 31 C 1016 31 1018.8 28.1 1018.8 23.7 C 1018.8 19.4 1016.4 16.8 1011.5 16.8 C 1011.48 16.83 1008 16.8 1008 16.8 C 1008 16.8 1008 30.03 1008 30 Z M 1045.5 23.6 C 1045.5 23.64 1045.5 24.1 1045.5 24.1 C 1045.5 24.1 1030.65 24.06 1030.7 24.1 C 1030.9 28.1 1033.5 30.7 1037.5 30.7 C 1040.2 30.7 1042.9 29.8 1045.1 28.1 C 1045.1 28.1 1045.1 32.2 1045.1 32.2 C 1042.4 34 1039.9 34.7 1036.9 34.7 C 1031.3 34.7 1026.4 30.5 1026.4 23.5 C 1026.4 17.4 1030.2 12.7 1036.3 12.7 C 1041.6 12.7 1045.5 16.7 1045.5 23.6 Z M 1041.4 21.6 C 1041.2 18.3 1039.4 16.4 1036.2 16.4 C 1033.2 16.4 1031 18.7 1030.7 21.6 C 1030.7 21.6 1041.4 21.6 1041.4 21.6 Z M 1053.2 23.7 C 1053.2 28.2 1056.3 30.9 1060.3 30.9 C 1064.4 30.9 1067.2 27.9 1067.2 23.7 C 1067.2 18.7 1063.7 16.5 1060 16.5 C 1056.2 16.5 1053.2 19.3 1053.2 23.7 Z M 1071.5 23.7 C 1071.5 31.4 1065.2 34.7 1060.2 34.7 C 1052.7 34.7 1048.9 28.9 1048.9 23.9 C 1048.9 17.6 1053.4 12.7 1060.3 12.7 C 1066.7 12.7 1071.5 17.2 1071.5 23.7 Z M 1085 34.7 C 1083.3 34.7 1082.6 34.6 1080.4 33.7 C 1080.42 33.75 1080.4 45.1 1080.4 45.1 L 1076.2 45.1 L 1076.2 13.2 C 1076.2 13.2 1084.09 13.16 1084.1 13.2 C 1091 13.2 1095.5 16.9 1095.5 23.7 C 1095.5 29.9 1091.2 34.7 1085 34.7 Z M 1080.4 30 C 1081.4 30.6 1083 31 1084.6 31 C 1088.4 31 1091.2 28.1 1091.2 23.7 C 1091.2 19.4 1088.8 16.8 1083.9 16.8 C 1083.9 16.83 1080.4 16.8 1080.4 16.8 C 1080.4 16.8 1080.42 30.03 1080.4 30 Z M 1104.4 2.2 L 1104.4 34.3 L 1100.2 34.3 L 1100.2 2.2 L 1104.4 2.2 Z M 1128.2 23.6 C 1128.22 23.64 1128.2 24.1 1128.2 24.1 C 1128.2 24.1 1113.37 24.06 1113.4 24.1 C 1113.7 28.1 1116.2 30.7 1120.2 30.7 C 1122.9 30.7 1125.6 29.8 1127.8 28.1 C 1127.8 28.1 1127.8 32.2 1127.8 32.2 C 1125.1 34 1122.6 34.7 1119.6 34.7 C 1114 34.7 1109.1 30.5 1109.1 23.5 C 1109.1 17.4 1112.9 12.7 1119 12.7 C 1124.3 12.7 1128.2 16.7 1128.2 23.6 Z M 1124.1 21.6 C 1123.9 18.3 1122.1 16.4 1119 16.4 C 1116 16.4 1113.7 18.7 1113.5 21.6 C 1113.5 21.6 1124.1 21.6 1124.1 21.6 Z M 1159.5 19.6 C 1159.5 19.6 1159.5 30.2 1159.5 30.2 C 1159.5 30.8 1159.8 31.2 1160.3 31.2 C 1160.7 31.2 1161.5 30.8 1162.5 30 C 1162.5 30 1162.5 33 1162.5 33 C 1160.9 34.1 1159.5 34.7 1158.2 34.7 C 1156.7 34.7 1155.7 34.1 1155.3 32.5 C 1153.5 34 1151.5 34.7 1149.6 34.7 C 1146.6 34.7 1144.4 32.3 1144.4 29.5 C 1144.4 25.7 1147.1 24.3 1155.3 21.5 C 1155.3 21.5 1155.3 20.4 1155.3 20.4 C 1155.3 17.7 1154 16.7 1151.5 16.7 C 1149.2 16.7 1146.9 17.8 1144.9 20.2 C 1144.9 20.2 1144.9 15.6 1144.9 15.6 C 1146.5 13.7 1148.9 12.7 1151.9 12.7 C 1156.7 12.7 1159.5 15.5 1159.5 19.6 Z M 1151.7 31.7 C 1153 31.7 1154.2 31.1 1155.3 30 C 1155.3 30 1155.3 23.8 1155.3 23.8 C 1150.5 25.4 1148.7 26.8 1148.7 28.8 C 1148.7 30.4 1149.9 31.7 1151.7 31.7 Z M 1183.7 21.5 C 1183.73 21.53 1183.7 34.3 1183.7 34.3 L 1179.5 34.3 C 1179.5 34.3 1179.54 21.62 1179.5 21.6 C 1179.5 17.2 1177.5 16.2 1175.2 16.2 C 1173.3 16.2 1171.4 17.3 1170.1 19.2 C 1170.14 19.18 1170.1 34.3 1170.1 34.3 L 1166 34.3 L 1166 13.2 L 1170.1 13.2 C 1170.1 13.2 1170.14 15.84 1170.1 15.8 C 1172 13.7 1174.7 12.7 1176.6 12.7 C 1181.1 12.7 1183.7 15.9 1183.7 21.5 Z M 1199.9 30.6 C 1199.94 30.6 1203.2 30.6 1203.2 30.6 C 1203.2 30.6 1203.23 17.39 1203.2 17.4 C 1201.9 16.7 1200.6 16.4 1199 16.4 C 1195.3 16.4 1192.5 19.1 1192.5 23.9 C 1192.5 28.2 1195.1 30.6 1199.9 30.6 Z M 1207.4 2.2 L 1207.4 34.3 C 1207.4 34.3 1199.1 34.26 1199.1 34.3 C 1191 34.3 1188.2 28.4 1188.2 23.8 C 1188.2 16.6 1193.2 12.7 1198.7 12.7 C 1200.5 12.7 1201.9 13.1 1203.2 13.6 C 1203.23 13.58 1203.2 2.2 1203.2 2.2 L 1207.4 2.2 Z M 1231.3 8.8 L 1231.4 8.8 L 1231.4 13.2 L 1238.1 13.2 L 1238.1 16.9 L 1231.4 16.9 C 1231.4 16.9 1231.38 26.74 1231.4 26.7 C 1231.4 28.9 1231.7 30.9 1234.3 30.9 C 1236.1 30.9 1237.8 30.2 1239.1 29.4 C 1239.1 29.4 1239.1 33.3 1239.1 33.3 C 1237.6 34.2 1235.3 34.7 1233.7 34.7 C 1229.6 34.7 1227.2 32.6 1227.2 26.7 C 1227.2 26.74 1227.2 16.9 1227.2 16.9 L 1223.5 16.9 L 1223.5 16.5 L 1231.3 8.8 Z M 1260.7 21.1 C 1260.66 21.06 1260.7 34.3 1260.7 34.3 L 1256.5 34.3 C 1256.5 34.3 1256.48 21.15 1256.5 21.1 C 1256.5 17.8 1255 16.2 1252.4 16.2 C 1250.4 16.2 1249 17 1247.1 19.1 C 1247.08 19.13 1247.1 34.3 1247.1 34.3 L 1242.9 34.3 L 1242.9 2.2 L 1247.1 2.2 C 1247.1 2.2 1247.08 15.93 1247.1 15.9 C 1248.8 13.9 1251.1 12.7 1253.6 12.7 C 1258.3 12.7 1260.7 16 1260.7 21.1 Z M 1284.3 23.6 C 1284.26 23.64 1284.3 24.1 1284.3 24.1 C 1284.3 24.1 1269.41 24.06 1269.4 24.1 C 1269.7 28.1 1272.3 30.7 1276.2 30.7 C 1278.9 30.7 1281.6 29.8 1283.9 28.1 C 1283.9 28.1 1283.9 32.2 1283.9 32.2 C 1281.1 34 1278.7 34.7 1275.7 34.7 C 1270 34.7 1265.2 30.5 1265.2 23.5 C 1265.2 17.4 1269 12.7 1275 12.7 C 1280.3 12.7 1284.3 16.7 1284.3 23.6 Z M 1280.1 21.6 C 1279.9 18.3 1278.1 16.4 1275 16.4 C 1272 16.4 1269.7 18.7 1269.5 21.6 C 1269.5 21.6 1280.1 21.6 1280.1 21.6 Z M 1303.5 13.2 L 1309.1 25.9 L 1314.4 13.2 L 1317.5 13.2 L 1322.9 25.9 L 1328.4 13.2 L 1332.9 13.2 L 1323.5 34.7 L 1322.2 34.7 L 1316 19.9 L 1309.8 34.7 L 1308.5 34.7 L 1299.1 13.2 L 1303.5 13.2 Z M 1349.4 19.6 C 1349.4 19.6 1349.4 30.2 1349.4 30.2 C 1349.4 30.8 1349.6 31.2 1350.2 31.2 C 1350.6 31.2 1351.4 30.8 1352.4 30 C 1352.4 30 1352.4 33 1352.4 33 C 1350.8 34.1 1349.4 34.7 1348 34.7 C 1346.5 34.7 1345.5 34.1 1345.1 32.5 C 1343.3 34 1341.4 34.7 1339.4 34.7 C 1336.4 34.7 1334.3 32.3 1334.3 29.5 C 1334.3 25.7 1336.9 24.3 1345.2 21.5 C 1345.2 21.5 1345.2 20.4 1345.2 20.4 C 1345.2 17.7 1343.9 16.7 1341.4 16.7 C 1339.1 16.7 1336.7 17.8 1334.7 20.2 C 1334.7 20.2 1334.7 15.6 1334.7 15.6 C 1336.3 13.7 1338.7 12.7 1341.7 12.7 C 1346.5 12.7 1349.4 15.5 1349.4 19.6 Z M 1341.5 31.7 C 1342.8 31.7 1344 31.1 1345.2 30 C 1345.2 30 1345.2 23.8 1345.2 23.8 C 1340.3 25.4 1338.5 26.8 1338.5 28.8 C 1338.5 30.4 1339.7 31.7 1341.5 31.7 Z M 1356.6 13.2 L 1362.5 25.1 L 1368 13.2 L 1372.5 13.2 L 1357.5 45.1 L 1353.1 45.1 L 1360.3 29.8 L 1351.9 13.2 L 1356.6 13.2 Z M 1391.5 23.7 C 1391.5 28.2 1394.6 30.9 1398.6 30.9 C 1402.7 30.9 1405.5 27.9 1405.5 23.7 C 1405.5 18.7 1402 16.5 1398.3 16.5 C 1394.5 16.5 1391.5 19.3 1391.5 23.7 Z M 1409.8 23.7 C 1409.8 31.4 1403.5 34.7 1398.5 34.7 C 1391 34.7 1387.2 28.9 1387.2 23.9 C 1387.2 17.6 1391.7 12.7 1398.6 12.7 C 1405 12.7 1409.8 17.2 1409.8 23.7 Z M 1425.4 2.3 C 1425.4 2.3 1425.4 6.2 1425.4 6.2 C 1424.7 5.9 1423.8 5.8 1423 5.8 C 1420.4 5.8 1419.1 7.3 1419.1 11.5 C 1419.1 11.51 1419.1 13.2 1419.1 13.2 L 1422.9 13.2 L 1422.9 16.9 L 1419.1 16.9 L 1419.1 34.3 L 1414.9 34.3 L 1414.9 16.9 L 1411.9 16.9 L 1411.9 13.2 L 1414.9 13.2 C 1414.9 13.2 1414.87 11.47 1414.9 11.5 C 1414.9 5.3 1417.9 1.8 1422.3 1.8 C 1423.4 1.8 1424.4 2 1425.4 2.3 Z M 1441.2 13.2 L 1446.8 25.9 L 1452.1 13.2 L 1455.2 13.2 L 1460.6 25.9 L 1466.1 13.2 L 1470.6 13.2 L 1461.3 34.7 L 1459.9 34.7 L 1453.7 19.9 L 1447.5 34.7 L 1446.2 34.7 L 1436.8 13.2 L 1441.2 13.2 Z M 1475.8 23.7 C 1475.8 28.2 1478.9 30.9 1482.9 30.9 C 1487.1 30.9 1489.8 27.9 1489.8 23.7 C 1489.8 18.7 1486.3 16.5 1482.6 16.5 C 1478.8 16.5 1475.8 19.3 1475.8 23.7 Z M 1494.1 23.7 C 1494.1 31.4 1487.8 34.7 1482.8 34.7 C 1475.3 34.7 1471.6 28.9 1471.6 23.9 C 1471.6 17.6 1476 12.7 1482.9 12.7 C 1489.3 12.7 1494.1 17.2 1494.1 23.7 Z M 1514 15.1 C 1514 15.1 1511.8 18.8 1511.8 18.8 C 1510.6 17.6 1508.9 16.7 1507.7 16.7 C 1505.7 16.7 1502.8 19.1 1502.8 23 C 1502.76 23.03 1502.8 34.3 1502.8 34.3 L 1498.6 34.3 L 1498.6 13.2 L 1502.8 13.2 C 1502.8 13.2 1502.76 18 1502.8 18 C 1505.2 14.1 1507.1 12.7 1509.1 12.7 C 1510.8 12.7 1512.6 13.7 1514 15.1 Z M 1521.2 2.2 L 1521.2 34.3 L 1517 34.3 L 1517 2.2 L 1521.2 2.2 Z M 1535.8 13.2 L 1526.6 23.5 L 1537.6 34.3 L 1532 34.3 L 1521.4 23.5 L 1530.8 13.2 L 1535.8 13.2 Z M 1544.2 6.7 C 1544.2 8 1543.1 9.2 1541.7 9.2 C 1540.3 9.2 1539.3 7.9 1539.3 6.7 C 1539.3 5.5 1540.3 4.3 1541.7 4.3 C 1543.1 4.3 1544.2 5.4 1544.2 6.7 Z M 1543.8 13.2 L 1543.8 34.3 L 1539.7 34.3 L 1539.7 13.2 L 1543.8 13.2 Z M 1567.7 21.5 C 1567.71 21.53 1567.7 34.3 1567.7 34.3 L 1563.5 34.3 C 1563.5 34.3 1563.53 21.62 1563.5 21.6 C 1563.5 17.2 1561.5 16.2 1559.2 16.2 C 1557.3 16.2 1555.4 17.3 1554.1 19.2 C 1554.13 19.18 1554.1 34.3 1554.1 34.3 L 1549.9 34.3 L 1549.9 13.2 L 1554.1 13.2 C 1554.1 13.2 1554.13 15.84 1554.1 15.8 C 1556 13.7 1558.6 12.7 1560.6 12.7 C 1565.1 12.7 1567.7 15.9 1567.7 21.5 Z M 1590.3 16.4 C 1590.3 16.4 1585.99 16.4 1586 16.4 C 1587.6 17.6 1588.2 19.3 1588.2 21 C 1588.2 25 1585.5 27.1 1581.9 27.8 C 1580 28.2 1577.7 28.3 1577.7 29.8 C 1577.7 30.9 1579.7 31.8 1583.1 32.3 C 1589 33.3 1590.2 36.1 1590.2 38.5 C 1590.2 42.7 1586.2 45.1 1580.3 45.1 C 1573.6 45.1 1570.5 42.3 1570.5 38.7 C 1570.5 36.1 1571.7 33.9 1575.8 32.9 C 1574.4 32.1 1573.7 31.2 1573.7 30.2 C 1573.7 28.8 1574.7 27.8 1577.1 27.1 C 1573.7 25.7 1572.4 23.2 1572.4 20.5 C 1572.4 16.2 1575.7 13.2 1582 13.2 C 1581.95 13.16 1590.3 13.2 1590.3 13.2 L 1590.3 16.4 Z M 1580.3 24.5 C 1582.7 24.5 1584.4 23.2 1584.4 20.5 C 1584.4 18.5 1582.8 16.8 1580.3 16.8 C 1577.9 16.8 1576.2 18.4 1576.2 20.6 C 1576.2 23.2 1578.3 24.5 1580.3 24.5 Z M 1580.3 41.8 C 1584.1 41.8 1586.2 40.7 1586.2 38.7 C 1586.2 36.5 1583.3 35.3 1579.3 35.3 C 1576.7 35.3 1574.5 36.5 1574.5 38.6 C 1574.5 40.7 1576.6 41.8 1580.3 41.8 Z M 1611.4 8.8 L 1611.5 8.8 L 1611.5 13.2 L 1618.2 13.2 L 1618.2 16.9 L 1611.5 16.9 C 1611.5 16.9 1611.51 26.74 1611.5 26.7 C 1611.5 28.9 1611.8 30.9 1614.5 30.9 C 1616.2 30.9 1618 30.2 1619.3 29.4 C 1619.3 29.4 1619.3 33.3 1619.3 33.3 C 1617.8 34.2 1615.5 34.7 1613.9 34.7 C 1609.7 34.7 1607.3 32.6 1607.3 26.7 C 1607.33 26.74 1607.3 16.9 1607.3 16.9 L 1603.7 16.9 L 1603.7 16.5 L 1611.4 8.8 Z M 1640.8 21.1 C 1640.79 21.06 1640.8 34.3 1640.8 34.3 L 1636.6 34.3 C 1636.6 34.3 1636.61 21.15 1636.6 21.1 C 1636.6 17.8 1635.2 16.2 1632.5 16.2 C 1630.5 16.2 1629.1 17 1627.2 19.1 C 1627.21 19.13 1627.2 34.3 1627.2 34.3 L 1623 34.3 L 1623 2.2 L 1627.2 2.2 C 1627.2 2.2 1627.21 15.93 1627.2 15.9 C 1628.9 13.9 1631.2 12.7 1633.7 12.7 C 1638.4 12.7 1640.8 16 1640.8 21.1 Z M 1660.1 19.6 C 1660.1 19.6 1660.1 30.2 1660.1 30.2 C 1660.1 30.8 1660.3 31.2 1660.9 31.2 C 1661.3 31.2 1662.1 30.8 1663.1 30 C 1663.1 30 1663.1 33 1663.1 33 C 1661.5 34.1 1660.1 34.7 1658.7 34.7 C 1657.2 34.7 1656.3 34.1 1655.9 32.5 C 1654 34 1652.1 34.7 1650.2 34.7 C 1647.2 34.7 1645 32.3 1645 29.5 C 1645 25.7 1647.7 24.3 1655.9 21.5 C 1655.9 21.5 1655.9 20.4 1655.9 20.4 C 1655.9 17.7 1654.6 16.7 1652.1 16.7 C 1649.8 16.7 1647.5 17.8 1645.4 20.2 C 1645.4 20.2 1645.4 15.6 1645.4 15.6 C 1647.1 13.7 1649.5 12.7 1652.4 12.7 C 1657.3 12.7 1660.1 15.5 1660.1 19.6 Z M 1652.3 31.7 C 1653.6 31.7 1654.8 31.1 1655.9 30 C 1655.9 30 1655.9 23.8 1655.9 23.8 C 1651.1 25.4 1649.3 26.8 1649.3 28.8 C 1649.3 30.4 1650.5 31.7 1652.3 31.7 Z M 1671.2 8.8 L 1671.3 8.8 L 1671.3 13.2 L 1678 13.2 L 1678 16.9 L 1671.3 16.9 C 1671.3 16.9 1671.34 26.74 1671.3 26.7 C 1671.3 28.9 1671.7 30.9 1674.3 30.9 C 1676 30.9 1677.8 30.2 1679.1 29.4 C 1679.1 29.4 1679.1 33.3 1679.1 33.3 C 1677.6 34.2 1675.3 34.7 1673.7 34.7 C 1669.6 34.7 1667.2 32.6 1667.2 26.7 C 1667.16 26.74 1667.2 16.9 1667.2 16.9 L 1663.5 16.9 L 1663.5 16.5 L 1671.2 8.8 Z M 1712.6 16.5 C 1715.3 13.8 1717 12.7 1719.5 12.7 C 1724.1 12.7 1726.6 15.8 1726.6 21 C 1726.57 21.01 1726.6 34.3 1726.6 34.3 L 1722.4 34.3 C 1722.4 34.3 1722.43 21.34 1722.4 21.3 C 1722.4 18.1 1720.8 16.3 1718.1 16.3 C 1716.6 16.3 1714.7 17.2 1713.3 18.9 C 1713.31 18.94 1713.3 34.3 1713.3 34.3 L 1709.2 34.3 C 1709.2 34.3 1709.18 21.62 1709.2 21.6 C 1709.2 17.9 1707.9 16.3 1705 16.3 C 1703 16.3 1701.5 17.3 1700.1 18.9 C 1700.06 18.94 1700.1 34.3 1700.1 34.3 L 1695.9 34.3 L 1695.9 13.2 L 1700.1 13.2 C 1700.1 13.2 1700.06 15.93 1700.1 15.9 C 1702.3 13.7 1704.1 12.7 1706.4 12.7 C 1708.9 12.7 1711.2 13.9 1712.6 16.5 Z M 1745.9 19.6 C 1745.9 19.6 1745.9 30.2 1745.9 30.2 C 1745.9 30.8 1746.1 31.2 1746.7 31.2 C 1747.1 31.2 1747.9 30.8 1748.9 30 C 1748.9 30 1748.9 33 1748.9 33 C 1747.3 34.1 1745.9 34.7 1744.5 34.7 C 1743 34.7 1742 34.1 1741.7 32.5 C 1739.8 34 1737.9 34.7 1736 34.7 C 1733 34.7 1730.8 32.3 1730.8 29.5 C 1730.8 25.7 1733.4 24.3 1741.7 21.5 C 1741.7 21.5 1741.7 20.4 1741.7 20.4 C 1741.7 17.7 1740.4 16.7 1737.9 16.7 C 1735.6 16.7 1733.2 17.8 1731.2 20.2 C 1731.2 20.2 1731.2 15.6 1731.2 15.6 C 1732.9 13.7 1735.3 12.7 1738.2 12.7 C 1743.1 12.7 1745.9 15.5 1745.9 19.6 Z M 1738 31.7 C 1739.4 31.7 1740.6 31.1 1741.7 30 C 1741.7 30 1741.7 23.8 1741.7 23.8 C 1736.9 25.4 1735 26.8 1735 28.8 C 1735 30.4 1736.2 31.7 1738 31.7 Z M 1756.6 2.2 L 1756.6 34.3 L 1752.3 34.3 L 1752.3 2.2 L 1756.6 2.2 Z M 1771.1 13.2 L 1762 23.5 L 1772.9 34.3 L 1767.3 34.3 L 1756.7 23.5 L 1766.1 13.2 L 1771.1 13.2 Z M 1791.9 23.6 C 1791.9 23.64 1791.9 24.1 1791.9 24.1 C 1791.9 24.1 1777.04 24.06 1777 24.1 C 1777.3 28.1 1779.9 30.7 1783.9 30.7 C 1786.6 30.7 1789.3 29.8 1791.5 28.1 C 1791.5 28.1 1791.5 32.2 1791.5 32.2 C 1788.7 34 1786.3 34.7 1783.3 34.7 C 1777.7 34.7 1772.8 30.5 1772.8 23.5 C 1772.8 17.4 1776.6 12.7 1782.7 12.7 C 1787.9 12.7 1791.9 16.7 1791.9 23.6 Z M 1787.8 21.6 C 1787.6 18.3 1785.8 16.4 1782.6 16.4 C 1779.6 16.4 1777.4 18.7 1777.1 21.6 C 1777.1 21.6 1787.8 21.6 1787.8 21.6 Z M 1823.2 19.6 C 1823.2 19.6 1823.2 30.2 1823.2 30.2 C 1823.2 30.8 1823.4 31.2 1824 31.2 C 1824.4 31.2 1825.2 30.8 1826.2 30 C 1826.2 30 1826.2 33 1826.2 33 C 1824.6 34.1 1823.2 34.7 1821.8 34.7 C 1820.3 34.7 1819.3 34.1 1819 32.5 C 1817.1 34 1815.2 34.7 1813.3 34.7 C 1810.3 34.7 1808.1 32.3 1808.1 29.5 C 1808.1 25.7 1810.7 24.3 1819 21.5 C 1819 21.5 1819 20.4 1819 20.4 C 1819 17.7 1817.7 16.7 1815.2 16.7 C 1812.9 16.7 1810.6 17.8 1808.5 20.2 C 1808.5 20.2 1808.5 15.6 1808.5 15.6 C 1810.2 13.7 1812.6 12.7 1815.5 12.7 C 1820.4 12.7 1823.2 15.5 1823.2 19.6 Z M 1815.3 31.7 C 1816.7 31.7 1817.9 31.1 1819 30 C 1819 30 1819 23.8 1819 23.8 C 1814.2 25.4 1812.3 26.8 1812.3 28.8 C 1812.3 30.4 1813.6 31.7 1815.3 31.7 Z M 1833.8 2.2 L 1833.8 34.3 L 1829.6 34.3 L 1829.6 2.2 L 1833.8 2.2 Z M 1844.1 2.2 L 1844.1 34.3 L 1839.9 34.3 L 1839.9 2.2 L 1844.1 2.2 Z M 1868 8.8 L 1868.1 8.8 L 1868.1 13.2 L 1874.8 13.2 L 1874.8 16.9 L 1868.1 16.9 C 1868.1 16.9 1868.08 26.74 1868.1 26.7 C 1868.1 28.9 1868.4 30.9 1871 30.9 C 1872.8 30.9 1874.5 30.2 1875.8 29.4 C 1875.8 29.4 1875.8 33.3 1875.8 33.3 C 1874.3 34.2 1872 34.7 1870.4 34.7 C 1866.3 34.7 1863.9 32.6 1863.9 26.7 C 1863.9 26.74 1863.9 16.9 1863.9 16.9 L 1860.2 16.9 L 1860.2 16.5 L 1868 8.8 Z M 1897.4 21.1 C 1897.36 21.06 1897.4 34.3 1897.4 34.3 L 1893.2 34.3 C 1893.2 34.3 1893.18 21.15 1893.2 21.1 C 1893.2 17.8 1891.7 16.2 1889.1 16.2 C 1887.1 16.2 1885.7 17 1883.8 19.1 C 1883.78 19.13 1883.8 34.3 1883.8 34.3 L 1879.6 34.3 L 1879.6 2.2 L 1883.8 2.2 C 1883.8 2.2 1883.78 15.93 1883.8 15.9 C 1885.5 13.9 1887.8 12.7 1890.3 12.7 C 1895 12.7 1897.4 16 1897.4 21.1 Z M 1921 23.6 C 1920.96 23.64 1921 24.1 1921 24.1 C 1921 24.1 1906.1 24.06 1906.1 24.1 C 1906.4 28.1 1909 30.7 1912.9 30.7 C 1915.6 30.7 1918.3 29.8 1920.6 28.1 C 1920.6 28.1 1920.6 32.2 1920.6 32.2 C 1917.8 34 1915.4 34.7 1912.4 34.7 C 1906.7 34.7 1901.9 30.5 1901.9 23.5 C 1901.9 17.4 1905.7 12.7 1911.7 12.7 C 1917 12.7 1921 16.7 1921 23.6 Z M 1916.8 21.6 C 1916.6 18.3 1914.8 16.4 1911.7 16.4 C 1908.7 16.4 1906.4 18.7 1906.2 21.6 C 1906.2 21.6 1916.8 21.6 1916.8 21.6 Z M 1949.2 30.6 C 1949.16 30.6 1952.4 30.6 1952.4 30.6 C 1952.4 30.6 1952.45 17.39 1952.4 17.4 C 1951.1 16.7 1949.9 16.4 1948.3 16.4 C 1944.5 16.4 1941.7 19.1 1941.7 23.9 C 1941.7 28.2 1944.4 30.6 1949.2 30.6 Z M 1956.6 2.2 L 1956.6 34.3 C 1956.6 34.3 1948.31 34.26 1948.3 34.3 C 1940.2 34.3 1937.5 28.4 1937.5 23.8 C 1937.5 16.6 1942.4 12.7 1947.9 12.7 C 1949.7 12.7 1951.1 13.1 1952.4 13.6 C 1952.45 13.58 1952.4 2.2 1952.4 2.2 L 1956.6 2.2 Z M 1967.3 6.7 C 1967.3 8 1966.2 9.2 1964.8 9.2 C 1963.4 9.2 1962.4 7.9 1962.4 6.7 C 1962.4 5.5 1963.4 4.3 1964.8 4.3 C 1966.2 4.3 1967.3 5.4 1967.3 6.7 Z M 1966.9 13.2 L 1966.9 34.3 L 1962.7 34.3 L 1962.7 13.2 L 1966.9 13.2 Z M 1983.9 2.2 C 1983.9 2.2 1983.9 6.1 1983.9 6.1 C 1983.3 5.9 1982.6 5.7 1981.8 5.7 C 1978.7 5.7 1977.6 7.4 1977.6 11.6 C 1977.59 11.61 1977.6 13.2 1977.6 13.2 L 1985.9 13.2 C 1985.9 13.2 1985.91 10.53 1985.9 10.5 C 1985.9 5.5 1988.9 1.8 1993.7 1.8 C 1994.7 1.8 1995.3 1.9 1996.3 2.2 C 1996.3 2.2 1996.3 6.1 1996.3 6.1 C 1995.4 5.9 1994.7 5.7 1993.9 5.7 C 1991.7 5.7 1990.1 7.2 1990.1 10.7 C 1990.14 10.67 1990.1 13.2 1990.1 13.2 L 1993.9 13.2 L 1993.9 16.9 L 1990.1 16.9 L 1990.1 34.3 L 1985.9 34.3 L 1985.9 16.9 L 1977.6 16.9 L 1977.6 34.3 L 1973.4 34.3 L 1973.4 16.9 L 1970.4 16.9 L 1970.4 13.2 L 1973.4 13.2 C 1973.4 13.2 1973.36 10.62 1973.4 10.6 C 1973.4 4.9 1976.8 1.8 1981.3 1.8 C 1982.4 1.8 1983.2 1.9 1983.9 2.2 Z M 2014.8 23.6 C 2014.81 23.64 2014.8 24.1 2014.8 24.1 C 2014.8 24.1 1999.96 24.06 2000 24.1 C 2000.2 28.1 2002.8 30.7 2006.8 30.7 C 2009.5 30.7 2012.2 29.8 2014.4 28.1 C 2014.4 28.1 2014.4 32.2 2014.4 32.2 C 2011.7 34 2009.2 34.7 2006.2 34.7 C 2000.6 34.7 1995.7 30.5 1995.7 23.5 C 1995.7 17.4 1999.5 12.7 2005.6 12.7 C 2010.9 12.7 2014.8 16.7 2014.8 23.6 Z M 2010.7 21.6 C 2010.5 18.3 2008.7 16.4 2005.6 16.4 C 2002.5 16.4 2000.3 18.7 2000.1 21.6 C 2000.1 21.6 2010.7 21.6 2010.7 21.6 Z M 2034.7 15.1 C 2034.7 15.1 2032.5 18.8 2032.5 18.8 C 2031.3 17.6 2029.7 16.7 2028.5 16.7 C 2026.4 16.7 2023.5 19.1 2023.5 23 C 2023.51 23.03 2023.5 34.3 2023.5 34.3 L 2019.3 34.3 L 2019.3 13.2 L 2023.5 13.2 C 2023.5 13.2 2023.51 18 2023.5 18 C 2025.9 14.1 2027.8 12.7 2029.8 12.7 C 2031.5 12.7 2033.3 13.7 2034.7 15.1 Z M 2054.5 23.6 C 2054.53 23.64 2054.5 24.1 2054.5 24.1 C 2054.5 24.1 2039.68 24.06 2039.7 24.1 C 2040 28.1 2042.5 30.7 2046.5 30.7 C 2049.2 30.7 2051.9 29.8 2054.2 28.1 C 2054.2 28.1 2054.2 32.2 2054.2 32.2 C 2051.4 34 2048.9 34.7 2045.9 34.7 C 2040.3 34.7 2035.4 30.5 2035.4 23.5 C 2035.4 17.4 2039.3 12.7 2045.3 12.7 C 2050.6 12.7 2054.5 16.7 2054.5 23.6 Z M 2050.4 21.6 C 2050.2 18.3 2048.4 16.4 2045.3 16.4 C 2042.3 16.4 2040 18.7 2039.8 21.6 C 2039.8 21.6 2050.4 21.6 2050.4 21.6 Z M 2077.1 21.5 C 2077.09 21.53 2077.1 34.3 2077.1 34.3 L 2072.9 34.3 C 2072.9 34.3 2072.9 21.62 2072.9 21.6 C 2072.9 17.2 2070.8 16.2 2068.6 16.2 C 2066.7 16.2 2064.8 17.3 2063.5 19.2 C 2063.5 19.18 2063.5 34.3 2063.5 34.3 L 2059.3 34.3 L 2059.3 13.2 L 2063.5 13.2 C 2063.5 13.2 2063.5 15.84 2063.5 15.8 C 2065.4 13.7 2068 12.7 2069.9 12.7 C 2074.5 12.7 2077.1 15.9 2077.1 21.5 Z M 2098.1 14.2 C 2098.1 14.2 2098.1 18.7 2098.1 18.7 C 2096 17.2 2094.3 16.7 2092.3 16.7 C 2088.1 16.7 2085.9 20.2 2085.9 23.7 C 2085.9 26.7 2087.4 30.7 2093.1 30.7 C 2095.3 30.7 2097 30.1 2098.6 29.3 C 2098.6 29.3 2098.6 33.5 2098.6 33.5 C 2096.6 34.3 2094.5 34.7 2092.5 34.7 C 2084.3 34.7 2081.6 28.6 2081.6 24 C 2081.6 17 2086 12.7 2092 12.7 C 2094 12.7 2095.7 13.1 2098.1 14.2 Z M 2121.2 23.6 C 2121.17 23.64 2121.2 24.1 2121.2 24.1 C 2121.2 24.1 2106.32 24.06 2106.3 24.1 C 2106.6 28.1 2109.2 30.7 2113.1 30.7 C 2115.9 30.7 2118.5 29.8 2120.8 28.1 C 2120.8 28.1 2120.8 32.2 2120.8 32.2 C 2118 34 2115.6 34.7 2112.6 34.7 C 2106.9 34.7 2102.1 30.5 2102.1 23.5 C 2102.1 17.4 2105.9 12.7 2112 12.7 C 2117.2 12.7 2121.2 16.7 2121.2 23.6 Z M 2117 21.6 C 2116.8 18.3 2115.1 16.4 2111.9 16.4 C 2108.9 16.4 2106.6 18.7 2106.4 21.6 C 2106.4 21.6 2117 21.6 2117 21.6 Z M 2130.8 6.2 C 2130.8 9.3 2128.9 12.4 2125.2 13.4 C 2125.2 13.4 2125.2 12.5 2125.2 12.5 C 2126.3 11.4 2127 10.7 2127.2 7.8 C 2125.7 7.4 2124.7 6.4 2124.7 4.8 C 2124.7 3.2 2126 1.8 2127.6 1.8 C 2129.5 1.8 2130.8 3.9 2130.8 6.2 Z M 2140.1 6.2 C 2140.1 9.4 2138.1 12.4 2134.6 13.4 C 2134.6 13.4 2134.6 12.5 2134.6 12.5 C 2135.6 11.5 2136.4 10.7 2136.5 7.8 C 2135.1 7.4 2134.1 6.4 2134.1 4.8 C 2134.1 3.2 2135.3 1.8 2136.9 1.8 C 2138.9 1.8 2140.1 3.9 2140.1 6.2 Z " stroke="none" fill="#ffffff"/>  </g></svg>