<?xml version="1.0" standalone="no"?><!DOCTYPE svg PUBLIC "-//W3C//DTD SVG 1.1//EN" "http://www.w3.org/Graphics/SVG/1.1/DTD/svg11.dtd"><svg xmlns="http://www.w3.org/2000/svg" version="1.1" width="102px" height="20.5px" viewBox="0 -4 102 20.5" style="top:-4px">  <desc>Credibility</desc>  <defs/>  <g id="Polygon47380">    <path d="M 31.7 5.7 C 31.7 5.7 32.8 6 32.8 6 C 32.6 6.9 32.1 7.7 31.5 8.1 C 30.9 8.6 30.1 8.9 29.2 8.9 C 28.3 8.9 27.6 8.7 27 8.3 C 26.4 7.9 26 7.4 25.7 6.7 C 25.3 6 25.2 5.2 25.2 4.4 C 25.2 3.5 25.4 2.7 25.7 2 C 26.1 1.4 26.5 0.9 27.2 0.5 C 27.8 0.2 28.5 0 29.3 0 C 30.1 0 30.8 0.2 31.4 0.7 C 32 1.1 32.4 1.7 32.6 2.5 C 32.6 2.5 31.5 2.8 31.5 2.8 C 31.3 2.1 31 1.7 30.7 1.4 C 30.3 1.1 29.8 1 29.2 1 C 28.6 1 28 1.1 27.6 1.4 C 27.1 1.8 26.8 2.2 26.6 2.7 C 26.5 3.3 26.4 3.8 26.4 4.4 C 26.4 5.1 26.5 5.7 26.7 6.3 C 26.9 6.8 27.2 7.2 27.7 7.5 C 28.1 7.8 28.6 7.9 29.1 7.9 C 29.8 7.9 30.3 7.7 30.8 7.4 C 31.2 7 31.5 6.4 31.7 5.7 Z M 34 8.7 L 34 2.5 L 35 2.5 C 35 2.5 34.99 3.46 35 3.5 C 35.2 3 35.5 2.7 35.7 2.6 C 35.9 2.4 36.1 2.4 36.3 2.4 C 36.7 2.4 37.1 2.5 37.4 2.7 C 37.4 2.7 37.1 3.7 37.1 3.7 C 36.8 3.5 36.5 3.5 36.3 3.5 C 36.1 3.5 35.9 3.5 35.7 3.7 C 35.5 3.8 35.4 4 35.3 4.2 C 35.2 4.6 35.1 5 35.1 5.5 C 35.1 5.48 35.1 8.7 35.1 8.7 L 34 8.7 Z M 42.3 6.7 C 42.3 6.7 43.4 6.9 43.4 6.9 C 43.2 7.5 42.9 8 42.4 8.3 C 42 8.7 41.4 8.9 40.7 8.9 C 39.8 8.9 39 8.6 38.5 8 C 38 7.5 37.7 6.7 37.7 5.7 C 37.7 4.6 38 3.8 38.5 3.2 C 39 2.7 39.7 2.4 40.6 2.4 C 41.4 2.4 42.1 2.7 42.6 3.2 C 43.2 3.8 43.4 4.6 43.4 5.6 C 43.4 5.7 43.4 5.8 43.4 5.9 C 43.4 5.9 38.8 5.9 38.8 5.9 C 38.8 6.6 39 7.1 39.4 7.5 C 39.7 7.8 40.2 8 40.7 8 C 41.1 8 41.4 7.9 41.7 7.7 C 41.9 7.5 42.2 7.2 42.3 6.7 Z M 38.8 5 C 38.8 5 42.3 5 42.3 5 C 42.3 4.5 42.1 4.1 41.9 3.8 C 41.6 3.4 41.2 3.2 40.6 3.2 C 40.1 3.2 39.7 3.4 39.4 3.7 C 39.1 4.1 38.9 4.5 38.8 5 Z M 48.8 8.7 C 48.8 8.7 48.76 7.95 48.8 8 C 48.4 8.6 47.8 8.9 47 8.9 C 46.5 8.9 46.1 8.7 45.7 8.5 C 45.2 8.2 44.9 7.8 44.7 7.3 C 44.5 6.8 44.3 6.3 44.3 5.6 C 44.3 5 44.4 4.4 44.7 3.9 C 44.9 3.4 45.2 3 45.6 2.8 C 46 2.5 46.5 2.4 47 2.4 C 47.4 2.4 47.7 2.5 48 2.6 C 48.3 2.8 48.5 3 48.7 3.2 C 48.69 3.23 48.7 0.1 48.7 0.1 L 49.7 0.1 L 49.7 8.7 L 48.8 8.7 Z M 45.4 5.6 C 45.4 6.4 45.6 7 45.9 7.4 C 46.3 7.8 46.7 8 47.1 8 C 47.6 8 48 7.8 48.3 7.4 C 48.6 7.1 48.8 6.5 48.8 5.7 C 48.8 4.9 48.6 4.2 48.3 3.8 C 48 3.4 47.6 3.2 47.1 3.2 C 46.6 3.2 46.2 3.4 45.9 3.8 C 45.6 4.2 45.4 4.8 45.4 5.6 Z M 51.4 1.4 L 51.4 0.1 L 52.5 0.1 L 52.5 1.4 L 51.4 1.4 Z M 51.4 8.7 L 51.4 2.5 L 52.5 2.5 L 52.5 8.7 L 51.4 8.7 Z M 55 8.7 L 54.1 8.7 L 54.1 0.1 L 55.1 0.1 C 55.1 0.1 55.11 3.21 55.1 3.2 C 55.6 2.7 56.1 2.4 56.8 2.4 C 57.2 2.4 57.6 2.5 57.9 2.6 C 58.2 2.8 58.5 3 58.8 3.3 C 59 3.5 59.1 3.9 59.3 4.3 C 59.4 4.7 59.5 5.1 59.5 5.5 C 59.5 6.6 59.2 7.4 58.7 8 C 58.1 8.6 57.5 8.9 56.8 8.9 C 56 8.9 55.5 8.6 55 8 C 55.04 7.96 55 8.7 55 8.7 Z M 55 5.6 C 55 6.3 55.1 6.9 55.3 7.2 C 55.7 7.7 56.1 8 56.7 8 C 57.1 8 57.5 7.8 57.9 7.4 C 58.2 7 58.4 6.4 58.4 5.6 C 58.4 4.8 58.2 4.2 57.9 3.8 C 57.6 3.4 57.2 3.2 56.7 3.2 C 56.3 3.2 55.9 3.4 55.5 3.8 C 55.2 4.2 55 4.8 55 5.6 Z M 60.7 1.4 L 60.7 0.1 L 61.8 0.1 L 61.8 1.4 L 60.7 1.4 Z M 60.7 8.7 L 60.7 2.5 L 61.8 2.5 L 61.8 8.7 L 60.7 8.7 Z M 63.4 8.7 L 63.4 0.1 L 64.4 0.1 L 64.4 8.7 L 63.4 8.7 Z M 66.1 1.4 L 66.1 0.1 L 67.1 0.1 L 67.1 1.4 L 66.1 1.4 Z M 66.1 8.7 L 66.1 2.5 L 67.1 2.5 L 67.1 8.7 L 66.1 8.7 Z M 70.6 7.8 C 70.7 7.8 70.8 7.8 71 7.8 C 71 7.8 71.2 8.7 71.2 8.7 C 70.9 8.8 70.6 8.8 70.4 8.8 C 70 8.8 69.7 8.8 69.5 8.6 C 69.3 8.5 69.1 8.4 69.1 8.2 C 69 8 68.9 7.5 68.9 6.9 C 68.93 6.91 68.9 3.3 68.9 3.3 L 68.2 3.3 L 68.2 2.5 L 68.9 2.5 L 68.9 1 L 70 0.3 L 70 2.5 L 71 2.5 L 71 3.3 L 70 3.3 C 70 3.3 69.98 6.97 70 7 C 70 7.3 70 7.5 70 7.6 C 70.1 7.6 70.1 7.7 70.2 7.8 C 70.3 7.8 70.4 7.8 70.6 7.8 C 70.6 7.8 70.6 7.8 70.6 7.8 Z M 72.7 11.3 C 72.5 11.3 72.3 11.2 72 11.1 C 72 11.1 71.9 10.1 71.9 10.1 C 72.1 10.2 72.3 10.2 72.5 10.2 C 72.7 10.2 72.9 10.2 73.1 10.1 C 73.2 10 73.3 9.9 73.4 9.8 C 73.5 9.7 73.6 9.4 73.7 9 C 73.8 8.9 73.8 8.9 73.8 8.7 C 73.84 8.75 71.5 2.5 71.5 2.5 L 72.6 2.5 C 72.6 2.5 73.91 6.12 73.9 6.1 C 74.1 6.6 74.2 7.1 74.4 7.6 C 74.5 7.1 74.6 6.6 74.8 6.1 C 74.79 6.14 76.1 2.5 76.1 2.5 L 77.2 2.5 C 77.2 2.5 74.81 8.84 74.8 8.8 C 74.6 9.5 74.4 10 74.2 10.3 C 74 10.6 73.8 10.9 73.6 11 C 73.3 11.2 73 11.3 72.7 11.3 C 72.7 11.3 72.7 11.3 72.7 11.3 Z " stroke="none" fill="#000"/>  </g></svg>