<?xml version="1.0" standalone="no"?><!DOCTYPE svg PUBLIC "-//W3C//DTD SVG 1.1//EN" "http://www.w3.org/Graphics/SVG/1.1/DTD/svg11.dtd"><svg xmlns="http://www.w3.org/2000/svg" version="1.1" width="273px" height="60.5px" viewBox="0 -5 273 60.5" style="top:-5px">  <desc>Inspiring Authentic, enthusiastic, committed, supportive, ambassadorial and encouraging</desc>  <defs/>  <g id="Polygon28906">    <path d="M 5.1 48 C 5 47.8 4.9 47.5 4.9 47.2 C 4.5 47.5 4.1 47.8 3.7 47.9 C 3.4 48.1 3 48.1 2.6 48.1 C 1.9 48.1 1.4 48 1 47.6 C 0.6 47.3 0.4 46.9 0.4 46.3 C 0.4 46 0.5 45.8 0.6 45.5 C 0.8 45.3 1 45.1 1.2 44.9 C 1.4 44.7 1.7 44.6 1.9 44.6 C 2.2 44.5 2.5 44.4 2.9 44.4 C 3.7 44.3 4.4 44.2 4.8 44 C 4.8 43.9 4.8 43.8 4.8 43.8 C 4.8 43.3 4.7 43 4.5 42.8 C 4.2 42.6 3.8 42.5 3.3 42.5 C 2.8 42.5 2.4 42.6 2.2 42.8 C 1.9 42.9 1.8 43.2 1.6 43.7 C 1.6 43.7 0.6 43.5 0.6 43.5 C 0.7 43.1 0.9 42.7 1.1 42.5 C 1.3 42.2 1.6 42 2 41.8 C 2.4 41.7 2.9 41.6 3.4 41.6 C 4 41.6 4.4 41.7 4.7 41.8 C 5 41.9 5.3 42.1 5.4 42.3 C 5.6 42.5 5.7 42.7 5.8 43 C 5.8 43.2 5.8 43.5 5.8 44 C 5.8 44 5.8 45.4 5.8 45.4 C 5.8 46.4 5.9 47 5.9 47.2 C 5.9 47.5 6 47.7 6.2 48 C 6.16 47.98 5.1 48 5.1 48 C 5.1 48 5.06 47.98 5.1 48 Z M 4.8 44.9 C 4.4 45 3.8 45.1 3 45.3 C 2.6 45.3 2.3 45.4 2.1 45.5 C 1.9 45.5 1.8 45.7 1.7 45.8 C 1.6 46 1.6 46.1 1.6 46.3 C 1.6 46.6 1.7 46.8 1.9 47 C 2.1 47.2 2.4 47.3 2.8 47.3 C 3.2 47.3 3.6 47.2 3.9 47 C 4.2 46.8 4.4 46.6 4.6 46.3 C 4.7 46.1 4.8 45.7 4.8 45.2 C 4.8 45.2 4.8 44.9 4.8 44.9 Z M 7.5 48 L 7.5 41.8 L 8.4 41.8 C 8.4 41.8 8.41 42.63 8.4 42.6 C 8.6 42.3 8.9 42.1 9.2 41.9 C 9.5 41.7 9.9 41.6 10.3 41.6 C 10.8 41.6 11.1 41.7 11.4 41.9 C 11.7 42.1 11.9 42.4 12.1 42.7 C 12.5 42 13.2 41.6 14 41.6 C 14.6 41.6 15.1 41.8 15.4 42.1 C 15.7 42.5 15.9 43 15.9 43.7 C 15.9 43.71 15.9 48 15.9 48 L 14.8 48 C 14.8 48 14.85 44.06 14.8 44.1 C 14.8 43.6 14.8 43.3 14.7 43.1 C 14.7 43 14.6 42.8 14.4 42.7 C 14.2 42.6 14 42.5 13.7 42.5 C 13.3 42.5 12.9 42.7 12.7 43 C 12.4 43.3 12.2 43.7 12.2 44.4 C 12.22 44.36 12.2 48 12.2 48 L 11.2 48 C 11.2 48 11.16 43.94 11.2 43.9 C 11.2 43.5 11.1 43.1 10.9 42.9 C 10.7 42.6 10.5 42.5 10.1 42.5 C 9.8 42.5 9.5 42.6 9.2 42.8 C 9 42.9 8.8 43.1 8.7 43.5 C 8.6 43.8 8.5 44.2 8.5 44.8 C 8.52 44.75 8.5 48 8.5 48 L 7.5 48 Z M 18.4 48 L 17.5 48 L 17.5 39.4 L 18.5 39.4 C 18.5 39.4 18.51 42.45 18.5 42.5 C 19 41.9 19.5 41.6 20.2 41.6 C 20.6 41.6 21 41.7 21.3 41.8 C 21.6 42 21.9 42.2 22.1 42.5 C 22.4 42.8 22.5 43.1 22.7 43.5 C 22.8 43.9 22.9 44.3 22.9 44.8 C 22.9 45.8 22.6 46.7 22.1 47.2 C 21.5 47.8 20.9 48.1 20.2 48.1 C 19.4 48.1 18.9 47.8 18.4 47.2 C 18.43 47.2 18.4 48 18.4 48 Z M 18.4 44.8 C 18.4 45.6 18.5 46.1 18.7 46.4 C 19.1 47 19.5 47.3 20.1 47.3 C 20.5 47.3 20.9 47.1 21.3 46.7 C 21.6 46.3 21.8 45.7 21.8 44.9 C 21.8 44.1 21.6 43.5 21.3 43.1 C 21 42.7 20.6 42.5 20.1 42.5 C 19.7 42.5 19.3 42.7 18.9 43.1 C 18.6 43.5 18.4 44.1 18.4 44.8 Z M 28.4 48 C 28.3 47.8 28.2 47.5 28.2 47.2 C 27.8 47.5 27.4 47.8 27.1 47.9 C 26.7 48.1 26.3 48.1 25.9 48.1 C 25.2 48.1 24.7 48 24.3 47.6 C 24 47.3 23.8 46.9 23.8 46.3 C 23.8 46 23.8 45.8 24 45.5 C 24.1 45.3 24.3 45.1 24.5 44.9 C 24.8 44.7 25 44.6 25.3 44.6 C 25.5 44.5 25.8 44.4 26.2 44.4 C 27.1 44.3 27.7 44.2 28.1 44 C 28.1 43.9 28.1 43.8 28.1 43.8 C 28.1 43.3 28 43 27.8 42.8 C 27.5 42.6 27.1 42.5 26.6 42.5 C 26.1 42.5 25.8 42.6 25.5 42.8 C 25.3 42.9 25.1 43.2 25 43.7 C 25 43.7 24 43.5 24 43.5 C 24.1 43.1 24.2 42.7 24.4 42.5 C 24.6 42.2 24.9 42 25.4 41.8 C 25.8 41.7 26.2 41.6 26.8 41.6 C 27.3 41.6 27.7 41.7 28.1 41.8 C 28.4 41.9 28.6 42.1 28.8 42.3 C 28.9 42.5 29.1 42.7 29.1 43 C 29.2 43.2 29.2 43.5 29.2 44 C 29.2 44 29.2 45.4 29.2 45.4 C 29.2 46.4 29.2 47 29.2 47.2 C 29.3 47.5 29.4 47.7 29.5 48 C 29.51 47.98 28.4 48 28.4 48 C 28.4 48 28.41 47.98 28.4 48 Z M 28.1 44.9 C 27.7 45 27.2 45.1 26.4 45.3 C 26 45.3 25.6 45.4 25.5 45.5 C 25.3 45.5 25.1 45.7 25 45.8 C 25 46 24.9 46.1 24.9 46.3 C 24.9 46.6 25 46.8 25.2 47 C 25.4 47.2 25.7 47.3 26.2 47.3 C 26.6 47.3 26.9 47.2 27.2 47 C 27.6 46.8 27.8 46.6 27.9 46.3 C 28.1 46.1 28.1 45.7 28.1 45.2 C 28.1 45.2 28.1 44.9 28.1 44.9 Z M 30.4 46.1 C 30.4 46.1 31.4 46 31.4 46 C 31.5 46.4 31.7 46.7 31.9 46.9 C 32.2 47.1 32.6 47.3 33 47.3 C 33.5 47.3 33.9 47.2 34.1 47 C 34.4 46.8 34.5 46.5 34.5 46.3 C 34.5 46 34.4 45.8 34.2 45.7 C 34 45.6 33.7 45.5 33.1 45.3 C 32.3 45.1 31.8 45 31.5 44.8 C 31.2 44.7 30.9 44.5 30.8 44.2 C 30.6 44 30.6 43.7 30.6 43.4 C 30.6 43.1 30.6 42.9 30.8 42.6 C 30.9 42.4 31.1 42.2 31.3 42.1 C 31.4 41.9 31.7 41.8 31.9 41.7 C 32.2 41.7 32.5 41.6 32.9 41.6 C 33.3 41.6 33.8 41.7 34.1 41.8 C 34.5 42 34.8 42.2 35 42.4 C 35.1 42.6 35.3 43 35.3 43.4 C 35.3 43.4 34.3 43.5 34.3 43.5 C 34.2 43.2 34.1 42.9 33.9 42.8 C 33.7 42.6 33.3 42.5 32.9 42.5 C 32.4 42.5 32.1 42.6 31.9 42.7 C 31.7 42.9 31.6 43.1 31.6 43.3 C 31.6 43.4 31.6 43.5 31.7 43.7 C 31.8 43.8 31.9 43.9 32.1 43.9 C 32.2 44 32.5 44.1 33 44.2 C 33.8 44.4 34.3 44.6 34.6 44.7 C 34.9 44.8 35.1 45 35.3 45.2 C 35.5 45.5 35.6 45.8 35.6 46.2 C 35.6 46.5 35.5 46.8 35.2 47.1 C 35 47.5 34.7 47.7 34.4 47.9 C 34 48 33.5 48.1 33 48.1 C 32.2 48.1 31.6 48 31.2 47.6 C 30.8 47.3 30.5 46.8 30.4 46.1 Z M 36.4 46.1 C 36.4 46.1 37.4 46 37.4 46 C 37.5 46.4 37.7 46.7 37.9 46.9 C 38.2 47.1 38.6 47.3 39 47.3 C 39.5 47.3 39.9 47.2 40.1 47 C 40.4 46.8 40.5 46.5 40.5 46.3 C 40.5 46 40.4 45.8 40.2 45.7 C 40 45.6 39.7 45.5 39.1 45.3 C 38.3 45.1 37.8 45 37.5 44.8 C 37.2 44.7 36.9 44.5 36.8 44.2 C 36.6 44 36.6 43.7 36.6 43.4 C 36.6 43.1 36.6 42.9 36.8 42.6 C 36.9 42.4 37.1 42.2 37.3 42.1 C 37.4 41.9 37.7 41.8 37.9 41.7 C 38.2 41.7 38.5 41.6 38.9 41.6 C 39.3 41.6 39.8 41.7 40.1 41.8 C 40.5 42 40.8 42.2 41 42.4 C 41.1 42.6 41.3 43 41.3 43.4 C 41.3 43.4 40.3 43.5 40.3 43.5 C 40.2 43.2 40.1 42.9 39.9 42.8 C 39.7 42.6 39.3 42.5 38.9 42.5 C 38.4 42.5 38.1 42.6 37.9 42.7 C 37.7 42.9 37.6 43.1 37.6 43.3 C 37.6 43.4 37.6 43.5 37.7 43.7 C 37.8 43.8 37.9 43.9 38.1 43.9 C 38.2 44 38.5 44.1 39 44.2 C 39.8 44.4 40.3 44.6 40.6 44.7 C 40.9 44.8 41.1 45 41.3 45.2 C 41.5 45.5 41.6 45.8 41.6 46.2 C 41.6 46.5 41.5 46.8 41.2 47.1 C 41 47.5 40.7 47.7 40.4 47.9 C 40 48 39.5 48.1 39 48.1 C 38.2 48.1 37.6 48 37.2 47.6 C 36.8 47.3 36.5 46.8 36.4 46.1 Z M 47.1 48 C 47 47.8 46.9 47.5 46.9 47.2 C 46.5 47.5 46.1 47.8 45.7 47.9 C 45.4 48.1 45 48.1 44.6 48.1 C 43.9 48.1 43.4 48 43 47.6 C 42.6 47.3 42.5 46.9 42.5 46.3 C 42.5 46 42.5 45.8 42.7 45.5 C 42.8 45.3 43 45.1 43.2 44.9 C 43.4 44.7 43.7 44.6 44 44.6 C 44.2 44.5 44.5 44.4 44.9 44.4 C 45.8 44.3 46.4 44.2 46.8 44 C 46.8 43.9 46.8 43.8 46.8 43.8 C 46.8 43.3 46.7 43 46.5 42.8 C 46.2 42.6 45.8 42.5 45.3 42.5 C 44.8 42.5 44.4 42.6 44.2 42.8 C 44 42.9 43.8 43.2 43.7 43.7 C 43.7 43.7 42.6 43.5 42.6 43.5 C 42.7 43.1 42.9 42.7 43.1 42.5 C 43.3 42.2 43.6 42 44 41.8 C 44.4 41.7 44.9 41.6 45.4 41.6 C 46 41.6 46.4 41.7 46.7 41.8 C 47.1 41.9 47.3 42.1 47.5 42.3 C 47.6 42.5 47.7 42.7 47.8 43 C 47.8 43.2 47.8 43.5 47.8 44 C 47.8 44 47.8 45.4 47.8 45.4 C 47.8 46.4 47.9 47 47.9 47.2 C 48 47.5 48 47.7 48.2 48 C 48.18 47.98 47.1 48 47.1 48 C 47.1 48 47.08 47.98 47.1 48 Z M 46.8 44.9 C 46.4 45 45.8 45.1 45.1 45.3 C 44.6 45.3 44.3 45.4 44.1 45.5 C 44 45.5 43.8 45.7 43.7 45.8 C 43.6 46 43.6 46.1 43.6 46.3 C 43.6 46.6 43.7 46.8 43.9 47 C 44.1 47.2 44.4 47.3 44.8 47.3 C 45.2 47.3 45.6 47.2 45.9 47 C 46.2 46.8 46.5 46.6 46.6 46.3 C 46.7 46.1 46.8 45.7 46.8 45.2 C 46.8 45.2 46.8 44.9 46.8 44.9 Z M 53.5 48 C 53.5 48 53.52 47.19 53.5 47.2 C 53.1 47.8 52.5 48.1 51.8 48.1 C 51.3 48.1 50.8 48 50.4 47.7 C 50 47.4 49.7 47.1 49.4 46.6 C 49.2 46.1 49.1 45.5 49.1 44.9 C 49.1 44.3 49.2 43.7 49.4 43.2 C 49.6 42.7 49.9 42.3 50.3 42 C 50.8 41.8 51.2 41.6 51.7 41.6 C 52.1 41.6 52.4 41.7 52.7 41.9 C 53 42 53.3 42.2 53.4 42.5 C 53.45 42.47 53.4 39.4 53.4 39.4 L 54.5 39.4 L 54.5 48 L 53.5 48 Z M 50.2 44.9 C 50.2 45.7 50.4 46.3 50.7 46.7 C 51 47.1 51.4 47.3 51.9 47.3 C 52.3 47.3 52.7 47.1 53.1 46.7 C 53.4 46.3 53.5 45.7 53.5 45 C 53.5 44.1 53.4 43.5 53 43.1 C 52.7 42.7 52.3 42.5 51.8 42.5 C 51.4 42.5 51 42.7 50.7 43.1 C 50.3 43.4 50.2 44.1 50.2 44.9 Z M 55.8 44.9 C 55.8 43.7 56.1 42.9 56.7 42.3 C 57.3 41.8 57.9 41.6 58.7 41.6 C 59.5 41.6 60.2 41.9 60.8 42.5 C 61.3 43 61.6 43.8 61.6 44.8 C 61.6 45.6 61.5 46.2 61.2 46.7 C 61 47.1 60.6 47.5 60.2 47.7 C 59.7 48 59.2 48.1 58.7 48.1 C 57.8 48.1 57.1 47.8 56.6 47.3 C 56 46.7 55.8 45.9 55.8 44.9 Z M 56.8 44.9 C 56.8 45.7 57 46.3 57.4 46.7 C 57.7 47.1 58.2 47.3 58.7 47.3 C 59.2 47.3 59.6 47.1 60 46.7 C 60.3 46.3 60.5 45.6 60.5 44.8 C 60.5 44.1 60.3 43.5 60 43.1 C 59.6 42.7 59.2 42.5 58.7 42.5 C 58.2 42.5 57.7 42.7 57.4 43.1 C 57 43.5 56.8 44.1 56.8 44.9 Z M 62.8 48 L 62.8 41.8 L 63.8 41.8 C 63.8 41.8 63.77 42.7 63.8 42.7 C 64 42.3 64.2 42 64.4 41.8 C 64.6 41.7 64.9 41.6 65.1 41.6 C 65.5 41.6 65.8 41.7 66.2 42 C 66.2 42 65.8 42.9 65.8 42.9 C 65.6 42.8 65.3 42.7 65.1 42.7 C 64.8 42.7 64.6 42.8 64.4 42.9 C 64.3 43.1 64.1 43.2 64 43.5 C 63.9 43.9 63.9 44.3 63.9 44.7 C 63.87 44.72 63.9 48 63.9 48 L 62.8 48 Z M 66.8 40.6 L 66.8 39.4 L 67.9 39.4 L 67.9 40.6 L 66.8 40.6 Z M 66.8 48 L 66.8 41.8 L 67.9 41.8 L 67.9 48 L 66.8 48 Z M 73.8 48 C 73.7 47.8 73.6 47.5 73.6 47.2 C 73.2 47.5 72.8 47.8 72.4 47.9 C 72.1 48.1 71.7 48.1 71.3 48.1 C 70.6 48.1 70.1 48 69.7 47.6 C 69.3 47.3 69.1 46.9 69.1 46.3 C 69.1 46 69.2 45.8 69.3 45.5 C 69.5 45.3 69.7 45.1 69.9 44.9 C 70.1 44.7 70.4 44.6 70.6 44.6 C 70.9 44.5 71.2 44.4 71.6 44.4 C 72.4 44.3 73.1 44.2 73.5 44 C 73.5 43.9 73.5 43.8 73.5 43.8 C 73.5 43.3 73.4 43 73.2 42.8 C 72.9 42.6 72.5 42.5 72 42.5 C 71.5 42.5 71.1 42.6 70.9 42.8 C 70.6 42.9 70.5 43.2 70.3 43.7 C 70.3 43.7 69.3 43.5 69.3 43.5 C 69.4 43.1 69.6 42.7 69.8 42.5 C 70 42.2 70.3 42 70.7 41.8 C 71.1 41.7 71.6 41.6 72.1 41.6 C 72.7 41.6 73.1 41.7 73.4 41.8 C 73.7 41.9 74 42.1 74.2 42.3 C 74.3 42.5 74.4 42.7 74.5 43 C 74.5 43.2 74.5 43.5 74.5 44 C 74.5 44 74.5 45.4 74.5 45.4 C 74.5 46.4 74.6 47 74.6 47.2 C 74.6 47.5 74.7 47.7 74.9 48 C 74.87 47.98 73.8 48 73.8 48 C 73.8 48 73.76 47.98 73.8 48 Z M 73.5 44.9 C 73.1 45 72.5 45.1 71.7 45.3 C 71.3 45.3 71 45.4 70.8 45.5 C 70.6 45.5 70.5 45.7 70.4 45.8 C 70.3 46 70.3 46.1 70.3 46.3 C 70.3 46.6 70.4 46.8 70.6 47 C 70.8 47.2 71.1 47.3 71.5 47.3 C 71.9 47.3 72.3 47.2 72.6 47 C 72.9 46.8 73.1 46.6 73.3 46.3 C 73.4 46.1 73.5 45.7 73.5 45.2 C 73.5 45.2 73.5 44.9 73.5 44.9 Z M 76.1 48 L 76.1 39.4 L 77.2 39.4 L 77.2 48 L 76.1 48 Z M 86.4 48 C 86.3 47.8 86.3 47.5 86.2 47.2 C 85.8 47.5 85.5 47.8 85.1 47.9 C 84.7 48.1 84.3 48.1 83.9 48.1 C 83.3 48.1 82.7 48 82.4 47.6 C 82 47.3 81.8 46.9 81.8 46.3 C 81.8 46 81.9 45.8 82 45.5 C 82.2 45.3 82.3 45.1 82.6 44.9 C 82.8 44.7 83 44.6 83.3 44.6 C 83.5 44.5 83.8 44.4 84.3 44.4 C 85.1 44.3 85.7 44.2 86.1 44 C 86.1 43.9 86.1 43.8 86.1 43.8 C 86.1 43.3 86 43 85.8 42.8 C 85.6 42.6 85.2 42.5 84.6 42.5 C 84.1 42.5 83.8 42.6 83.5 42.8 C 83.3 42.9 83.1 43.2 83 43.7 C 83 43.7 82 43.5 82 43.5 C 82.1 43.1 82.2 42.7 82.5 42.5 C 82.7 42.2 83 42 83.4 41.8 C 83.8 41.7 84.3 41.6 84.8 41.6 C 85.3 41.6 85.8 41.7 86.1 41.8 C 86.4 41.9 86.7 42.1 86.8 42.3 C 87 42.5 87.1 42.7 87.2 43 C 87.2 43.2 87.2 43.5 87.2 44 C 87.2 44 87.2 45.4 87.2 45.4 C 87.2 46.4 87.2 47 87.3 47.2 C 87.3 47.5 87.4 47.7 87.5 48 C 87.54 47.98 86.4 48 86.4 48 C 86.4 48 86.44 47.98 86.4 48 Z M 86.1 44.9 C 85.8 45 85.2 45.1 84.4 45.3 C 84 45.3 83.7 45.4 83.5 45.5 C 83.3 45.5 83.2 45.7 83.1 45.8 C 83 46 82.9 46.1 82.9 46.3 C 82.9 46.6 83 46.8 83.3 47 C 83.5 47.2 83.8 47.3 84.2 47.3 C 84.6 47.3 85 47.2 85.3 47 C 85.6 46.8 85.8 46.6 86 46.3 C 86.1 46.1 86.1 45.7 86.1 45.2 C 86.1 45.2 86.1 44.9 86.1 44.9 Z M 88.8 48 L 88.8 41.8 L 89.8 41.8 C 89.8 41.8 89.79 42.64 89.8 42.6 C 90.2 42 90.9 41.6 91.8 41.6 C 92.1 41.6 92.5 41.7 92.8 41.8 C 93.1 42 93.4 42.1 93.5 42.3 C 93.7 42.6 93.8 42.8 93.8 43.1 C 93.9 43.3 93.9 43.7 93.9 44.2 C 93.9 44.15 93.9 48 93.9 48 L 92.8 48 C 92.8 48 92.84 44.19 92.8 44.2 C 92.8 43.8 92.8 43.4 92.7 43.2 C 92.6 43 92.5 42.8 92.3 42.7 C 92.1 42.6 91.8 42.5 91.5 42.5 C 91.1 42.5 90.7 42.7 90.4 43 C 90.1 43.2 89.9 43.8 89.9 44.6 C 89.89 44.58 89.9 48 89.9 48 L 88.8 48 Z M 99.6 48 C 99.6 48 99.55 47.19 99.6 47.2 C 99.2 47.8 98.6 48.1 97.8 48.1 C 97.3 48.1 96.9 48 96.4 47.7 C 96 47.4 95.7 47.1 95.5 46.6 C 95.2 46.1 95.1 45.5 95.1 44.9 C 95.1 44.3 95.2 43.7 95.4 43.2 C 95.7 42.7 96 42.3 96.4 42 C 96.8 41.8 97.3 41.6 97.8 41.6 C 98.1 41.6 98.5 41.7 98.8 41.9 C 99.1 42 99.3 42.2 99.5 42.5 C 99.48 42.47 99.5 39.4 99.5 39.4 L 100.5 39.4 L 100.5 48 L 99.6 48 Z M 96.2 44.9 C 96.2 45.7 96.4 46.3 96.7 46.7 C 97.1 47.1 97.5 47.3 97.9 47.3 C 98.4 47.3 98.8 47.1 99.1 46.7 C 99.4 46.3 99.6 45.7 99.6 45 C 99.6 44.1 99.4 43.5 99.1 43.1 C 98.7 42.7 98.3 42.5 97.9 42.5 C 97.4 42.5 97 42.7 96.7 43.1 C 96.4 43.4 96.2 44.1 96.2 44.9 Z M 109.8 46 C 109.8 46 110.9 46.1 110.9 46.1 C 110.7 46.7 110.4 47.2 109.9 47.6 C 109.5 47.9 108.9 48.1 108.1 48.1 C 107.2 48.1 106.5 47.8 106 47.3 C 105.4 46.7 105.2 45.9 105.2 44.9 C 105.2 43.9 105.4 43.1 106 42.5 C 106.5 41.9 107.2 41.6 108.1 41.6 C 108.9 41.6 109.6 41.9 110.1 42.5 C 110.6 43 110.9 43.8 110.9 44.9 C 110.9 44.9 110.9 45 110.9 45.1 C 110.9 45.1 106.3 45.1 106.3 45.1 C 106.3 45.8 106.5 46.3 106.8 46.7 C 107.2 47.1 107.6 47.3 108.1 47.3 C 108.5 47.3 108.9 47.2 109.1 46.9 C 109.4 46.7 109.6 46.4 109.8 46 Z M 106.3 44.3 C 106.3 44.3 109.8 44.3 109.8 44.3 C 109.7 43.7 109.6 43.4 109.4 43.1 C 109.1 42.7 108.6 42.5 108.1 42.5 C 107.6 42.5 107.2 42.6 106.9 43 C 106.5 43.3 106.4 43.7 106.3 44.3 Z M 112.2 48 L 112.2 41.8 L 113.1 41.8 C 113.1 41.8 113.14 42.64 113.1 42.6 C 113.6 42 114.3 41.6 115.1 41.6 C 115.5 41.6 115.8 41.7 116.2 41.8 C 116.5 42 116.7 42.1 116.9 42.3 C 117 42.6 117.1 42.8 117.2 43.1 C 117.2 43.3 117.3 43.7 117.3 44.2 C 117.25 44.15 117.3 48 117.3 48 L 116.2 48 C 116.2 48 116.2 44.19 116.2 44.2 C 116.2 43.8 116.2 43.4 116.1 43.2 C 116 43 115.8 42.8 115.6 42.7 C 115.4 42.6 115.2 42.5 114.9 42.5 C 114.5 42.5 114.1 42.7 113.7 43 C 113.4 43.2 113.3 43.8 113.3 44.6 C 113.25 44.58 113.3 48 113.3 48 L 112.2 48 Z M 122.9 45.7 C 122.9 45.7 124 45.8 124 45.8 C 123.9 46.6 123.6 47.1 123.1 47.5 C 122.6 47.9 122.1 48.1 121.4 48.1 C 120.5 48.1 119.8 47.8 119.3 47.3 C 118.8 46.7 118.5 45.9 118.5 44.9 C 118.5 44.2 118.7 43.6 118.9 43.1 C 119.1 42.6 119.4 42.2 119.9 42 C 120.4 41.7 120.8 41.6 121.4 41.6 C 122.1 41.6 122.6 41.8 123 42.1 C 123.5 42.5 123.7 43 123.9 43.6 C 123.9 43.6 122.8 43.7 122.8 43.7 C 122.7 43.3 122.6 43 122.3 42.8 C 122.1 42.6 121.8 42.5 121.4 42.5 C 120.9 42.5 120.5 42.7 120.1 43.1 C 119.8 43.4 119.6 44 119.6 44.9 C 119.6 45.7 119.8 46.3 120.1 46.7 C 120.4 47.1 120.8 47.3 121.4 47.3 C 121.8 47.3 122.1 47.1 122.4 46.9 C 122.7 46.6 122.9 46.2 122.9 45.7 Z M 124.5 44.9 C 124.5 43.7 124.8 42.9 125.4 42.3 C 126 41.8 126.6 41.6 127.4 41.6 C 128.3 41.6 128.9 41.9 129.5 42.5 C 130 43 130.3 43.8 130.3 44.8 C 130.3 45.6 130.2 46.2 129.9 46.7 C 129.7 47.1 129.4 47.5 128.9 47.7 C 128.4 48 127.9 48.1 127.4 48.1 C 126.5 48.1 125.8 47.8 125.3 47.3 C 124.7 46.7 124.5 45.9 124.5 44.9 Z M 125.6 44.9 C 125.6 45.7 125.7 46.3 126.1 46.7 C 126.4 47.1 126.9 47.3 127.4 47.3 C 127.9 47.3 128.4 47.1 128.7 46.7 C 129 46.3 129.2 45.6 129.2 44.8 C 129.2 44.1 129 43.5 128.7 43.1 C 128.3 42.7 127.9 42.5 127.4 42.5 C 126.9 42.5 126.4 42.7 126.1 43.1 C 125.7 43.5 125.6 44.1 125.6 44.9 Z M 135.6 48 C 135.6 48 135.62 47.07 135.6 47.1 C 135.1 47.8 134.5 48.1 133.6 48.1 C 133.3 48.1 132.9 48.1 132.6 47.9 C 132.3 47.8 132.1 47.6 131.9 47.4 C 131.8 47.2 131.6 46.9 131.6 46.6 C 131.5 46.4 131.5 46.1 131.5 45.6 C 131.52 45.61 131.5 41.8 131.5 41.8 L 132.6 41.8 C 132.6 41.8 132.57 45.21 132.6 45.2 C 132.6 45.8 132.6 46.1 132.6 46.3 C 132.7 46.6 132.8 46.8 133.1 47 C 133.3 47.1 133.5 47.2 133.9 47.2 C 134.2 47.2 134.5 47.1 134.7 47 C 135 46.8 135.2 46.6 135.3 46.3 C 135.5 46 135.5 45.6 135.5 45.1 C 135.51 45.09 135.5 41.8 135.5 41.8 L 136.6 41.8 L 136.6 48 L 135.6 48 Z M 138.2 48 L 138.2 41.8 L 139.2 41.8 C 139.2 41.8 139.15 42.7 139.2 42.7 C 139.4 42.3 139.6 42 139.8 41.8 C 140 41.7 140.3 41.6 140.5 41.6 C 140.9 41.6 141.2 41.7 141.6 42 C 141.6 42 141.2 42.9 141.2 42.9 C 141 42.8 140.7 42.7 140.4 42.7 C 140.2 42.7 140 42.8 139.8 42.9 C 139.6 43.1 139.5 43.2 139.4 43.5 C 139.3 43.9 139.3 44.3 139.3 44.7 C 139.26 44.72 139.3 48 139.3 48 L 138.2 48 Z M 146.5 48 C 146.4 47.8 146.3 47.5 146.3 47.2 C 145.9 47.5 145.5 47.8 145.1 47.9 C 144.8 48.1 144.4 48.1 144 48.1 C 143.3 48.1 142.8 48 142.4 47.6 C 142 47.3 141.9 46.9 141.9 46.3 C 141.9 46 141.9 45.8 142.1 45.5 C 142.2 45.3 142.4 45.1 142.6 44.9 C 142.8 44.7 143.1 44.6 143.4 44.6 C 143.6 44.5 143.9 44.4 144.3 44.4 C 145.2 44.3 145.8 44.2 146.2 44 C 146.2 43.9 146.2 43.8 146.2 43.8 C 146.2 43.3 146.1 43 145.9 42.8 C 145.6 42.6 145.2 42.5 144.7 42.5 C 144.2 42.5 143.8 42.6 143.6 42.8 C 143.4 42.9 143.2 43.2 143.1 43.7 C 143.1 43.7 142 43.5 142 43.5 C 142.1 43.1 142.3 42.7 142.5 42.5 C 142.7 42.2 143 42 143.4 41.8 C 143.8 41.7 144.3 41.6 144.8 41.6 C 145.4 41.6 145.8 41.7 146.1 41.8 C 146.5 41.9 146.7 42.1 146.9 42.3 C 147 42.5 147.1 42.7 147.2 43 C 147.2 43.2 147.3 43.5 147.3 44 C 147.3 44 147.3 45.4 147.3 45.4 C 147.3 46.4 147.3 47 147.3 47.2 C 147.4 47.5 147.5 47.7 147.6 48 C 147.59 47.98 146.5 48 146.5 48 C 146.5 48 146.48 47.98 146.5 48 Z M 146.2 44.9 C 145.8 45 145.2 45.1 144.5 45.3 C 144 45.3 143.7 45.4 143.5 45.5 C 143.4 45.5 143.2 45.7 143.1 45.8 C 143 46 143 46.1 143 46.3 C 143 46.6 143.1 46.8 143.3 47 C 143.5 47.2 143.8 47.3 144.2 47.3 C 144.6 47.3 145 47.2 145.3 47 C 145.6 46.8 145.9 46.6 146 46.3 C 146.1 46.1 146.2 45.7 146.2 45.2 C 146.2 45.2 146.2 44.9 146.2 44.9 Z M 148.7 48.5 C 148.7 48.5 149.7 48.6 149.7 48.6 C 149.8 49 149.9 49.2 150.1 49.3 C 150.3 49.5 150.7 49.6 151.1 49.6 C 151.6 49.6 152 49.5 152.3 49.3 C 152.5 49.1 152.7 48.9 152.8 48.5 C 152.9 48.3 152.9 47.9 152.9 47.2 C 152.4 47.7 151.9 48 151.2 48 C 150.3 48 149.7 47.7 149.2 47.1 C 148.7 46.4 148.5 45.7 148.5 44.8 C 148.5 44.2 148.6 43.7 148.8 43.2 C 149 42.7 149.3 42.3 149.7 42 C 150.1 41.8 150.6 41.6 151.2 41.6 C 151.9 41.6 152.5 41.9 153 42.5 C 152.99 42.51 153 41.8 153 41.8 L 154 41.8 C 154 41.8 153.97 47.14 154 47.1 C 154 48.1 153.9 48.8 153.7 49.2 C 153.5 49.6 153.2 49.9 152.7 50.2 C 152.3 50.4 151.8 50.5 151.2 50.5 C 150.4 50.5 149.8 50.3 149.4 50 C 148.9 49.7 148.7 49.2 148.7 48.5 Z M 149.6 44.8 C 149.6 45.6 149.7 46.2 150.1 46.5 C 150.4 46.9 150.8 47.1 151.3 47.1 C 151.8 47.1 152.2 46.9 152.5 46.5 C 152.8 46.2 153 45.6 153 44.8 C 153 44 152.8 43.5 152.5 43.1 C 152.1 42.7 151.7 42.5 151.3 42.5 C 150.8 42.5 150.4 42.7 150.1 43.1 C 149.7 43.4 149.6 44 149.6 44.8 Z M 155.6 40.6 L 155.6 39.4 L 156.6 39.4 L 156.6 40.6 L 155.6 40.6 Z M 155.6 48 L 155.6 41.8 L 156.6 41.8 L 156.6 48 L 155.6 48 Z M 158.2 48 L 158.2 41.8 L 159.2 41.8 C 159.2 41.8 159.18 42.64 159.2 42.6 C 159.6 42 160.3 41.6 161.2 41.6 C 161.5 41.6 161.9 41.7 162.2 41.8 C 162.5 42 162.7 42.1 162.9 42.3 C 163.1 42.6 163.2 42.8 163.2 43.1 C 163.3 43.3 163.3 43.7 163.3 44.2 C 163.28 44.15 163.3 48 163.3 48 L 162.2 48 C 162.2 48 162.23 44.19 162.2 44.2 C 162.2 43.8 162.2 43.4 162.1 43.2 C 162 43 161.9 42.8 161.7 42.7 C 161.5 42.6 161.2 42.5 160.9 42.5 C 160.5 42.5 160.1 42.7 159.8 43 C 159.4 43.2 159.3 43.8 159.3 44.6 C 159.28 44.58 159.3 48 159.3 48 L 158.2 48 Z M 164.7 48.5 C 164.7 48.5 165.7 48.6 165.7 48.6 C 165.8 49 165.9 49.2 166.1 49.3 C 166.4 49.5 166.7 49.6 167.2 49.6 C 167.7 49.6 168 49.5 168.3 49.3 C 168.6 49.1 168.7 48.9 168.8 48.5 C 168.9 48.3 168.9 47.9 168.9 47.2 C 168.4 47.7 167.9 48 167.2 48 C 166.3 48 165.7 47.7 165.2 47.1 C 164.7 46.4 164.5 45.7 164.5 44.8 C 164.5 44.2 164.6 43.7 164.8 43.2 C 165 42.7 165.3 42.3 165.8 42 C 166.2 41.8 166.6 41.6 167.2 41.6 C 167.9 41.6 168.5 41.9 169 42.5 C 169.01 42.51 169 41.8 169 41.8 L 170 41.8 C 170 41.8 169.98 47.14 170 47.1 C 170 48.1 169.9 48.8 169.7 49.2 C 169.5 49.6 169.2 49.9 168.7 50.2 C 168.3 50.4 167.8 50.5 167.2 50.5 C 166.4 50.5 165.8 50.3 165.4 50 C 164.9 49.7 164.7 49.2 164.7 48.5 Z M 165.6 44.8 C 165.6 45.6 165.7 46.2 166.1 46.5 C 166.4 46.9 166.8 47.1 167.3 47.1 C 167.8 47.1 168.2 46.9 168.5 46.5 C 168.8 46.2 169 45.6 169 44.8 C 169 44 168.8 43.5 168.5 43.1 C 168.2 42.7 167.7 42.5 167.3 42.5 C 166.8 42.5 166.4 42.7 166.1 43.1 C 165.7 43.4 165.6 44 165.6 44.8 Z " stroke="none" fill="#ffffff"/>  </g>  <g id="Polygon28905">    <path d="M 0 33.6 L 3.3 25 L 4.5 25 L 8 33.6 L 6.7 33.6 L 5.7 31 L 2.1 31 L 1.2 33.6 L 0 33.6 Z M 2.5 30.1 L 5.4 30.1 C 5.4 30.1 4.48 27.67 4.5 27.7 C 4.2 27 4 26.4 3.9 25.9 C 3.8 26.4 3.6 27 3.4 27.5 C 3.4 27.53 2.5 30.1 2.5 30.1 Z M 12.9 33.6 C 12.9 33.6 12.87 32.67 12.9 32.7 C 12.4 33.4 11.7 33.7 10.9 33.7 C 10.5 33.7 10.2 33.7 9.9 33.5 C 9.6 33.4 9.3 33.2 9.2 33 C 9 32.8 8.9 32.5 8.8 32.2 C 8.8 32 8.8 31.7 8.8 31.2 C 8.77 31.21 8.8 27.4 8.8 27.4 L 9.8 27.4 C 9.8 27.4 9.83 30.81 9.8 30.8 C 9.8 31.4 9.8 31.7 9.9 31.9 C 10 32.2 10.1 32.4 10.3 32.6 C 10.5 32.7 10.8 32.8 11.1 32.8 C 11.4 32.8 11.7 32.7 12 32.6 C 12.3 32.4 12.5 32.2 12.6 31.9 C 12.7 31.6 12.8 31.2 12.8 30.7 C 12.76 30.69 12.8 27.4 12.8 27.4 L 13.8 27.4 L 13.8 33.6 L 12.9 33.6 Z M 17.3 32.7 C 17.4 32.7 17.6 32.7 17.8 32.6 C 17.8 32.6 17.9 33.6 17.9 33.6 C 17.6 33.6 17.4 33.7 17.1 33.7 C 16.7 33.7 16.4 33.6 16.2 33.5 C 16 33.4 15.9 33.2 15.8 33 C 15.7 32.8 15.7 32.4 15.7 31.8 C 15.66 31.76 15.7 28.2 15.7 28.2 L 14.9 28.2 L 14.9 27.4 L 15.7 27.4 L 15.7 25.8 L 16.7 25.2 L 16.7 27.4 L 17.8 27.4 L 17.8 28.2 L 16.7 28.2 C 16.7 28.2 16.71 31.82 16.7 31.8 C 16.7 32.1 16.7 32.3 16.8 32.4 C 16.8 32.5 16.9 32.6 16.9 32.6 C 17 32.7 17.2 32.7 17.3 32.7 C 17.3 32.7 17.3 32.7 17.3 32.7 Z M 18.8 33.6 L 18.8 25 L 19.9 25 C 19.9 25 19.86 28.07 19.9 28.1 C 20.3 27.5 21 27.2 21.7 27.2 C 22.2 27.2 22.6 27.3 22.9 27.5 C 23.3 27.7 23.5 27.9 23.7 28.2 C 23.8 28.6 23.9 29 23.9 29.6 C 23.87 29.64 23.9 33.6 23.9 33.6 L 22.8 33.6 C 22.8 33.6 22.82 29.64 22.8 29.6 C 22.8 29.1 22.7 28.7 22.5 28.5 C 22.2 28.2 21.9 28.1 21.5 28.1 C 21.2 28.1 20.9 28.2 20.6 28.4 C 20.3 28.5 20.2 28.7 20 29 C 19.9 29.3 19.9 29.7 19.9 30.2 C 19.86 30.18 19.9 33.6 19.9 33.6 L 18.8 33.6 Z M 29.7 31.6 C 29.7 31.6 30.8 31.7 30.8 31.7 C 30.7 32.3 30.3 32.8 29.9 33.2 C 29.4 33.5 28.8 33.7 28.1 33.7 C 27.2 33.7 26.5 33.4 25.9 32.9 C 25.4 32.3 25.1 31.5 25.1 30.5 C 25.1 29.5 25.4 28.7 25.9 28.1 C 26.5 27.5 27.2 27.2 28 27.2 C 28.9 27.2 29.5 27.5 30.1 28.1 C 30.6 28.6 30.9 29.4 30.9 30.5 C 30.9 30.5 30.9 30.6 30.9 30.7 C 30.9 30.7 26.2 30.7 26.2 30.7 C 26.3 31.4 26.4 31.9 26.8 32.3 C 27.1 32.7 27.6 32.9 28.1 32.9 C 28.5 32.9 28.8 32.8 29.1 32.5 C 29.4 32.3 29.6 32 29.7 31.6 Z M 26.3 29.9 C 26.3 29.9 29.7 29.9 29.7 29.9 C 29.7 29.3 29.6 29 29.3 28.7 C 29 28.3 28.6 28.1 28 28.1 C 27.6 28.1 27.2 28.2 26.8 28.6 C 26.5 28.9 26.3 29.3 26.3 29.9 Z M 32.2 33.6 L 32.2 27.4 L 33.1 27.4 C 33.1 27.4 33.1 28.24 33.1 28.2 C 33.6 27.6 34.2 27.2 35.1 27.2 C 35.5 27.2 35.8 27.3 36.1 27.4 C 36.4 27.6 36.7 27.7 36.8 27.9 C 37 28.2 37.1 28.4 37.1 28.7 C 37.2 28.9 37.2 29.3 37.2 29.8 C 37.21 29.75 37.2 33.6 37.2 33.6 L 36.2 33.6 C 36.2 33.6 36.15 29.79 36.2 29.8 C 36.2 29.4 36.1 29 36 28.8 C 35.9 28.6 35.8 28.4 35.6 28.3 C 35.4 28.2 35.1 28.1 34.9 28.1 C 34.4 28.1 34 28.3 33.7 28.6 C 33.4 28.8 33.2 29.4 33.2 30.2 C 33.21 30.18 33.2 33.6 33.2 33.6 L 32.2 33.6 Z M 40.7 32.7 C 40.8 32.7 40.9 32.7 41.1 32.6 C 41.1 32.6 41.3 33.6 41.3 33.6 C 41 33.6 40.7 33.7 40.5 33.7 C 40.1 33.7 39.8 33.6 39.6 33.5 C 39.4 33.4 39.2 33.2 39.1 33 C 39.1 32.8 39 32.4 39 31.8 C 39.02 31.76 39 28.2 39 28.2 L 38.2 28.2 L 38.2 27.4 L 39 27.4 L 39 25.8 L 40.1 25.2 L 40.1 27.4 L 41.1 27.4 L 41.1 28.2 L 40.1 28.2 C 40.1 28.2 40.07 31.82 40.1 31.8 C 40.1 32.1 40.1 32.3 40.1 32.4 C 40.2 32.5 40.2 32.6 40.3 32.6 C 40.4 32.7 40.5 32.7 40.7 32.7 C 40.7 32.7 40.7 32.7 40.7 32.7 Z M 42.2 26.2 L 42.2 25 L 43.2 25 L 43.2 26.2 L 42.2 26.2 Z M 42.2 33.6 L 42.2 27.4 L 43.2 27.4 L 43.2 33.6 L 42.2 33.6 Z M 48.9 31.3 C 48.9 31.3 49.9 31.4 49.9 31.4 C 49.8 32.2 49.5 32.7 49.1 33.1 C 48.6 33.5 48 33.7 47.3 33.7 C 46.5 33.7 45.8 33.4 45.3 32.9 C 44.8 32.3 44.5 31.5 44.5 30.5 C 44.5 29.8 44.6 29.2 44.8 28.7 C 45.1 28.2 45.4 27.8 45.9 27.6 C 46.3 27.3 46.8 27.2 47.3 27.2 C 48 27.2 48.6 27.4 49 27.7 C 49.4 28.1 49.7 28.6 49.8 29.2 C 49.8 29.2 48.8 29.3 48.8 29.3 C 48.7 28.9 48.5 28.6 48.3 28.4 C 48 28.2 47.7 28.1 47.4 28.1 C 46.8 28.1 46.4 28.3 46.1 28.7 C 45.8 29 45.6 29.6 45.6 30.5 C 45.6 31.3 45.7 31.9 46.1 32.3 C 46.4 32.7 46.8 32.9 47.3 32.9 C 47.7 32.9 48.1 32.7 48.4 32.5 C 48.6 32.2 48.8 31.8 48.9 31.3 Z M 51.1 33.6 L 51.1 32.4 L 52.3 32.4 C 52.3 32.4 52.3 33.58 52.3 33.6 C 52.3 34 52.2 34.4 52.1 34.6 C 51.9 34.9 51.7 35.1 51.3 35.3 C 51.3 35.3 51 34.8 51 34.8 C 51.3 34.7 51.4 34.6 51.5 34.4 C 51.6 34.2 51.7 33.9 51.7 33.6 C 51.7 33.58 51.1 33.6 51.1 33.6 Z M 61.8 31.6 C 61.8 31.6 62.8 31.7 62.8 31.7 C 62.7 32.3 62.4 32.8 61.9 33.2 C 61.4 33.5 60.8 33.7 60.1 33.7 C 59.2 33.7 58.5 33.4 57.9 32.9 C 57.4 32.3 57.1 31.5 57.1 30.5 C 57.1 29.5 57.4 28.7 57.9 28.1 C 58.5 27.5 59.2 27.2 60 27.2 C 60.9 27.2 61.6 27.5 62.1 28.1 C 62.6 28.6 62.9 29.4 62.9 30.5 C 62.9 30.5 62.9 30.6 62.9 30.7 C 62.9 30.7 58.2 30.7 58.2 30.7 C 58.3 31.4 58.5 31.9 58.8 32.3 C 59.2 32.7 59.6 32.9 60.1 32.9 C 60.5 32.9 60.8 32.8 61.1 32.5 C 61.4 32.3 61.6 32 61.8 31.6 Z M 58.3 29.9 C 58.3 29.9 61.8 29.9 61.8 29.9 C 61.7 29.3 61.6 29 61.4 28.7 C 61 28.3 60.6 28.1 60.1 28.1 C 59.6 28.1 59.2 28.2 58.8 28.6 C 58.5 28.9 58.3 29.3 58.3 29.9 Z M 64.2 33.6 L 64.2 27.4 L 65.1 27.4 C 65.1 27.4 65.12 28.24 65.1 28.2 C 65.6 27.6 66.2 27.2 67.1 27.2 C 67.5 27.2 67.8 27.3 68.1 27.4 C 68.4 27.6 68.7 27.7 68.8 27.9 C 69 28.2 69.1 28.4 69.2 28.7 C 69.2 28.9 69.2 29.3 69.2 29.8 C 69.22 29.75 69.2 33.6 69.2 33.6 L 68.2 33.6 C 68.2 33.6 68.17 29.79 68.2 29.8 C 68.2 29.4 68.1 29 68 28.8 C 68 28.6 67.8 28.4 67.6 28.3 C 67.4 28.2 67.2 28.1 66.9 28.1 C 66.4 28.1 66 28.3 65.7 28.6 C 65.4 28.8 65.2 29.4 65.2 30.2 C 65.22 30.18 65.2 33.6 65.2 33.6 L 64.2 33.6 Z M 72.7 32.7 C 72.8 32.7 73 32.7 73.1 32.6 C 73.1 32.6 73.3 33.6 73.3 33.6 C 73 33.6 72.7 33.7 72.5 33.7 C 72.1 33.7 71.8 33.6 71.6 33.5 C 71.4 33.4 71.2 33.2 71.2 33 C 71.1 32.8 71 32.4 71 31.8 C 71.03 31.76 71 28.2 71 28.2 L 70.3 28.2 L 70.3 27.4 L 71 27.4 L 71 25.8 L 72.1 25.2 L 72.1 27.4 L 73.1 27.4 L 73.1 28.2 L 72.1 28.2 C 72.1 28.2 72.08 31.82 72.1 31.8 C 72.1 32.1 72.1 32.3 72.1 32.4 C 72.2 32.5 72.2 32.6 72.3 32.6 C 72.4 32.7 72.5 32.7 72.7 32.7 C 72.7 32.7 72.7 32.7 72.7 32.7 Z M 74.2 33.6 L 74.2 25 L 75.2 25 C 75.2 25 75.23 28.07 75.2 28.1 C 75.7 27.5 76.3 27.2 77.1 27.2 C 77.6 27.2 78 27.3 78.3 27.5 C 78.6 27.7 78.9 27.9 79 28.2 C 79.2 28.6 79.2 29 79.2 29.6 C 79.24 29.64 79.2 33.6 79.2 33.6 L 78.2 33.6 C 78.2 33.6 78.19 29.64 78.2 29.6 C 78.2 29.1 78.1 28.7 77.8 28.5 C 77.6 28.2 77.3 28.1 76.9 28.1 C 76.6 28.1 76.3 28.2 76 28.4 C 75.7 28.5 75.5 28.7 75.4 29 C 75.3 29.3 75.2 29.7 75.2 30.2 C 75.23 30.18 75.2 33.6 75.2 33.6 L 74.2 33.6 Z M 84.9 33.6 C 84.9 33.6 84.93 32.67 84.9 32.7 C 84.4 33.4 83.8 33.7 83 33.7 C 82.6 33.7 82.2 33.7 81.9 33.5 C 81.6 33.4 81.4 33.2 81.2 33 C 81.1 32.8 81 32.5 80.9 32.2 C 80.8 32 80.8 31.7 80.8 31.2 C 80.82 31.21 80.8 27.4 80.8 27.4 L 81.9 27.4 C 81.9 27.4 81.88 30.81 81.9 30.8 C 81.9 31.4 81.9 31.7 81.9 31.9 C 82 32.2 82.2 32.4 82.4 32.6 C 82.6 32.7 82.8 32.8 83.2 32.8 C 83.5 32.8 83.8 32.7 84.1 32.6 C 84.3 32.4 84.5 32.2 84.6 31.9 C 84.8 31.6 84.8 31.2 84.8 30.7 C 84.81 30.69 84.8 27.4 84.8 27.4 L 85.9 27.4 L 85.9 33.6 L 84.9 33.6 Z M 87.1 31.7 C 87.1 31.7 88.1 31.6 88.1 31.6 C 88.2 32 88.4 32.3 88.6 32.5 C 88.9 32.7 89.3 32.9 89.8 32.9 C 90.2 32.9 90.6 32.8 90.8 32.6 C 91.1 32.4 91.2 32.1 91.2 31.9 C 91.2 31.6 91.1 31.4 90.9 31.3 C 90.7 31.2 90.4 31.1 89.8 30.9 C 89 30.7 88.5 30.6 88.2 30.4 C 87.9 30.3 87.7 30.1 87.5 29.8 C 87.4 29.6 87.3 29.3 87.3 29 C 87.3 28.7 87.3 28.5 87.5 28.2 C 87.6 28 87.8 27.8 88 27.7 C 88.1 27.5 88.4 27.4 88.7 27.3 C 88.9 27.3 89.2 27.2 89.6 27.2 C 90.1 27.2 90.5 27.3 90.9 27.4 C 91.2 27.6 91.5 27.8 91.7 28 C 91.8 28.2 92 28.6 92 29 C 92 29 91 29.1 91 29.1 C 91 28.8 90.8 28.5 90.6 28.4 C 90.4 28.2 90.1 28.1 89.6 28.1 C 89.2 28.1 88.8 28.2 88.6 28.3 C 88.4 28.5 88.3 28.7 88.3 28.9 C 88.3 29 88.3 29.1 88.4 29.3 C 88.5 29.4 88.6 29.5 88.8 29.5 C 88.9 29.6 89.2 29.7 89.8 29.8 C 90.5 30 91 30.2 91.3 30.3 C 91.6 30.4 91.8 30.6 92 30.8 C 92.2 31.1 92.3 31.4 92.3 31.8 C 92.3 32.1 92.2 32.4 92 32.7 C 91.8 33.1 91.5 33.3 91.1 33.5 C 90.7 33.6 90.2 33.7 89.8 33.7 C 89 33.7 88.3 33.6 87.9 33.2 C 87.5 32.9 87.2 32.4 87.1 31.7 Z M 93.5 26.2 L 93.5 25 L 94.6 25 L 94.6 26.2 L 93.5 26.2 Z M 93.5 33.6 L 93.5 27.4 L 94.6 27.4 L 94.6 33.6 L 93.5 33.6 Z M 100.5 33.6 C 100.3 33.4 100.3 33.1 100.2 32.8 C 99.9 33.1 99.5 33.4 99.1 33.5 C 98.8 33.7 98.4 33.7 98 33.7 C 97.3 33.7 96.7 33.6 96.4 33.2 C 96 32.9 95.8 32.5 95.8 31.9 C 95.8 31.6 95.9 31.4 96 31.1 C 96.2 30.9 96.4 30.7 96.6 30.5 C 96.8 30.3 97.1 30.2 97.3 30.2 C 97.5 30.1 97.9 30 98.3 30 C 99.1 29.9 99.8 29.8 100.2 29.6 C 100.2 29.5 100.2 29.4 100.2 29.4 C 100.2 28.9 100.1 28.6 99.9 28.4 C 99.6 28.2 99.2 28.1 98.7 28.1 C 98.2 28.1 97.8 28.2 97.6 28.4 C 97.3 28.5 97.2 28.8 97 29.3 C 97 29.3 96 29.1 96 29.1 C 96.1 28.7 96.3 28.3 96.5 28.1 C 96.7 27.8 97 27.6 97.4 27.4 C 97.8 27.3 98.3 27.2 98.8 27.2 C 99.3 27.2 99.8 27.3 100.1 27.4 C 100.4 27.5 100.7 27.7 100.8 27.9 C 101 28.1 101.1 28.3 101.2 28.6 C 101.2 28.8 101.2 29.1 101.2 29.6 C 101.2 29.6 101.2 31 101.2 31 C 101.2 32 101.2 32.6 101.3 32.8 C 101.3 33.1 101.4 33.3 101.6 33.6 C 101.56 33.58 100.5 33.6 100.5 33.6 C 100.5 33.6 100.46 33.58 100.5 33.6 Z M 100.2 30.5 C 99.8 30.6 99.2 30.7 98.4 30.9 C 98 30.9 97.7 31 97.5 31.1 C 97.3 31.1 97.2 31.3 97.1 31.4 C 97 31.6 97 31.7 97 31.9 C 97 32.2 97.1 32.4 97.3 32.6 C 97.5 32.8 97.8 32.9 98.2 32.9 C 98.6 32.9 99 32.8 99.3 32.6 C 99.6 32.4 99.8 32.2 100 31.9 C 100.1 31.7 100.2 31.3 100.2 30.8 C 100.2 30.8 100.2 30.5 100.2 30.5 Z M 102.4 31.7 C 102.4 31.7 103.5 31.6 103.5 31.6 C 103.5 32 103.7 32.3 104 32.5 C 104.2 32.7 104.6 32.9 105.1 32.9 C 105.6 32.9 105.9 32.8 106.2 32.6 C 106.4 32.4 106.5 32.1 106.5 31.9 C 106.5 31.6 106.4 31.4 106.2 31.3 C 106.1 31.2 105.7 31.1 105.1 30.9 C 104.4 30.7 103.8 30.6 103.5 30.4 C 103.2 30.3 103 30.1 102.8 29.8 C 102.7 29.6 102.6 29.3 102.6 29 C 102.6 28.7 102.7 28.5 102.8 28.2 C 102.9 28 103.1 27.8 103.3 27.7 C 103.5 27.5 103.7 27.4 104 27.3 C 104.3 27.3 104.6 27.2 104.9 27.2 C 105.4 27.2 105.8 27.3 106.2 27.4 C 106.6 27.6 106.8 27.8 107 28 C 107.2 28.2 107.3 28.6 107.4 29 C 107.4 29 106.3 29.1 106.3 29.1 C 106.3 28.8 106.2 28.5 105.9 28.4 C 105.7 28.2 105.4 28.1 105 28.1 C 104.5 28.1 104.2 28.2 103.9 28.3 C 103.7 28.5 103.6 28.7 103.6 28.9 C 103.6 29 103.7 29.1 103.8 29.3 C 103.8 29.4 104 29.5 104.2 29.5 C 104.3 29.6 104.6 29.7 105.1 29.8 C 105.8 30 106.4 30.2 106.7 30.3 C 107 30.4 107.2 30.6 107.4 30.8 C 107.5 31.1 107.6 31.4 107.6 31.8 C 107.6 32.1 107.5 32.4 107.3 32.7 C 107.1 33.1 106.8 33.3 106.4 33.5 C 106 33.6 105.6 33.7 105.1 33.7 C 104.3 33.7 103.7 33.6 103.3 33.2 C 102.8 32.9 102.6 32.4 102.4 31.7 Z M 110.7 32.7 C 110.8 32.7 111 32.7 111.2 32.6 C 111.2 32.6 111.3 33.6 111.3 33.6 C 111 33.6 110.8 33.7 110.5 33.7 C 110.1 33.7 109.8 33.6 109.6 33.5 C 109.4 33.4 109.3 33.2 109.2 33 C 109.1 32.8 109.1 32.4 109.1 31.8 C 109.05 31.76 109.1 28.2 109.1 28.2 L 108.3 28.2 L 108.3 27.4 L 109.1 27.4 L 109.1 25.8 L 110.1 25.2 L 110.1 27.4 L 111.2 27.4 L 111.2 28.2 L 110.1 28.2 C 110.1 28.2 110.1 31.82 110.1 31.8 C 110.1 32.1 110.1 32.3 110.2 32.4 C 110.2 32.5 110.3 32.6 110.3 32.6 C 110.4 32.7 110.5 32.7 110.7 32.7 C 110.7 32.7 110.7 32.7 110.7 32.7 Z M 112.2 26.2 L 112.2 25 L 113.3 25 L 113.3 26.2 L 112.2 26.2 Z M 112.2 33.6 L 112.2 27.4 L 113.3 27.4 L 113.3 33.6 L 112.2 33.6 Z M 118.9 31.3 C 118.9 31.3 120 31.4 120 31.4 C 119.8 32.2 119.6 32.7 119.1 33.1 C 118.6 33.5 118 33.7 117.4 33.7 C 116.5 33.7 115.8 33.4 115.3 32.9 C 114.8 32.3 114.5 31.5 114.5 30.5 C 114.5 29.8 114.7 29.2 114.9 28.7 C 115.1 28.2 115.4 27.8 115.9 27.6 C 116.3 27.3 116.8 27.2 117.4 27.2 C 118.1 27.2 118.6 27.4 119 27.7 C 119.5 28.1 119.7 28.6 119.9 29.2 C 119.9 29.2 118.8 29.3 118.8 29.3 C 118.7 28.9 118.6 28.6 118.3 28.4 C 118.1 28.2 117.8 28.1 117.4 28.1 C 116.9 28.1 116.5 28.3 116.1 28.7 C 115.8 29 115.6 29.6 115.6 30.5 C 115.6 31.3 115.8 31.9 116.1 32.3 C 116.4 32.7 116.8 32.9 117.4 32.9 C 117.8 32.9 118.1 32.7 118.4 32.5 C 118.7 32.2 118.8 31.8 118.9 31.3 Z M 121.1 33.6 L 121.1 32.4 L 122.3 32.4 C 122.3 32.4 122.34 33.58 122.3 33.6 C 122.3 34 122.3 34.4 122.1 34.6 C 121.9 34.9 121.7 35.1 121.4 35.3 C 121.4 35.3 121.1 34.8 121.1 34.8 C 121.3 34.7 121.5 34.6 121.6 34.4 C 121.7 34.2 121.7 33.9 121.7 33.6 C 121.73 33.58 121.1 33.6 121.1 33.6 Z M 131.6 31.3 C 131.6 31.3 132.6 31.4 132.6 31.4 C 132.5 32.2 132.2 32.7 131.8 33.1 C 131.3 33.5 130.7 33.7 130 33.7 C 129.2 33.7 128.5 33.4 128 32.9 C 127.5 32.3 127.2 31.5 127.2 30.5 C 127.2 29.8 127.3 29.2 127.5 28.7 C 127.8 28.2 128.1 27.8 128.6 27.6 C 129 27.3 129.5 27.2 130 27.2 C 130.7 27.2 131.3 27.4 131.7 27.7 C 132.1 28.1 132.4 28.6 132.5 29.2 C 132.5 29.2 131.5 29.3 131.5 29.3 C 131.4 28.9 131.2 28.6 131 28.4 C 130.7 28.2 130.4 28.1 130.1 28.1 C 129.6 28.1 129.1 28.3 128.8 28.7 C 128.5 29 128.3 29.6 128.3 30.5 C 128.3 31.3 128.5 31.9 128.8 32.3 C 129.1 32.7 129.5 32.9 130 32.9 C 130.4 32.9 130.8 32.7 131.1 32.5 C 131.3 32.2 131.5 31.8 131.6 31.3 Z M 133.1 30.5 C 133.1 29.3 133.5 28.5 134.1 27.9 C 134.6 27.4 135.3 27.2 136.1 27.2 C 136.9 27.2 137.6 27.5 138.2 28.1 C 138.7 28.6 139 29.4 139 30.4 C 139 31.2 138.8 31.8 138.6 32.3 C 138.4 32.7 138 33.1 137.6 33.3 C 137.1 33.6 136.6 33.7 136.1 33.7 C 135.2 33.7 134.5 33.4 133.9 32.9 C 133.4 32.3 133.1 31.5 133.1 30.5 Z M 134.2 30.5 C 134.2 31.3 134.4 31.9 134.7 32.3 C 135.1 32.7 135.5 32.9 136.1 32.9 C 136.6 32.9 137 32.7 137.4 32.3 C 137.7 31.9 137.9 31.2 137.9 30.4 C 137.9 29.7 137.7 29.1 137.4 28.7 C 137 28.3 136.6 28.1 136.1 28.1 C 135.5 28.1 135.1 28.3 134.7 28.7 C 134.4 29.1 134.2 29.7 134.2 30.5 Z M 140.2 33.6 L 140.2 27.4 L 141.1 27.4 C 141.1 27.4 141.15 28.23 141.1 28.2 C 141.3 27.9 141.6 27.7 141.9 27.5 C 142.2 27.3 142.6 27.2 143 27.2 C 143.5 27.2 143.9 27.3 144.2 27.5 C 144.5 27.7 144.7 28 144.8 28.3 C 145.3 27.6 145.9 27.2 146.7 27.2 C 147.3 27.2 147.8 27.4 148.1 27.7 C 148.5 28.1 148.6 28.6 148.6 29.3 C 148.63 29.31 148.6 33.6 148.6 33.6 L 147.6 33.6 C 147.6 33.6 147.59 29.66 147.6 29.7 C 147.6 29.2 147.6 28.9 147.5 28.7 C 147.4 28.6 147.3 28.4 147.1 28.3 C 146.9 28.2 146.7 28.1 146.5 28.1 C 146 28.1 145.7 28.3 145.4 28.6 C 145.1 28.9 145 29.3 145 30 C 144.96 29.96 145 33.6 145 33.6 L 143.9 33.6 C 143.9 33.6 143.9 29.54 143.9 29.5 C 143.9 29.1 143.8 28.7 143.6 28.5 C 143.5 28.2 143.2 28.1 142.8 28.1 C 142.5 28.1 142.2 28.2 142 28.4 C 141.7 28.5 141.5 28.7 141.4 29.1 C 141.3 29.4 141.3 29.8 141.3 30.4 C 141.26 30.35 141.3 33.6 141.3 33.6 L 140.2 33.6 Z M 150.2 33.6 L 150.2 27.4 L 151.1 27.4 C 151.1 27.4 151.14 28.23 151.1 28.2 C 151.3 27.9 151.6 27.7 151.9 27.5 C 152.2 27.3 152.6 27.2 153 27.2 C 153.5 27.2 153.9 27.3 154.2 27.5 C 154.5 27.7 154.7 28 154.8 28.3 C 155.3 27.6 155.9 27.2 156.7 27.2 C 157.3 27.2 157.8 27.4 158.1 27.7 C 158.5 28.1 158.6 28.6 158.6 29.3 C 158.63 29.31 158.6 33.6 158.6 33.6 L 157.6 33.6 C 157.6 33.6 157.58 29.66 157.6 29.7 C 157.6 29.2 157.5 28.9 157.5 28.7 C 157.4 28.6 157.3 28.4 157.1 28.3 C 156.9 28.2 156.7 28.1 156.5 28.1 C 156 28.1 155.7 28.3 155.4 28.6 C 155.1 28.9 155 29.3 155 30 C 154.95 29.96 155 33.6 155 33.6 L 153.9 33.6 C 153.9 33.6 153.9 29.54 153.9 29.5 C 153.9 29.1 153.8 28.7 153.6 28.5 C 153.5 28.2 153.2 28.1 152.8 28.1 C 152.5 28.1 152.2 28.2 152 28.4 C 151.7 28.5 151.5 28.7 151.4 29.1 C 151.3 29.4 151.3 29.8 151.3 30.4 C 151.25 30.35 151.3 33.6 151.3 33.6 L 150.2 33.6 Z M 160.2 26.2 L 160.2 25 L 161.3 25 L 161.3 26.2 L 160.2 26.2 Z M 160.2 33.6 L 160.2 27.4 L 161.3 27.4 L 161.3 33.6 L 160.2 33.6 Z M 164.7 32.7 C 164.8 32.7 165 32.7 165.2 32.6 C 165.2 32.6 165.3 33.6 165.3 33.6 C 165 33.6 164.8 33.7 164.5 33.7 C 164.1 33.7 163.8 33.6 163.6 33.5 C 163.4 33.4 163.3 33.2 163.2 33 C 163.1 32.8 163.1 32.4 163.1 31.8 C 163.05 31.76 163.1 28.2 163.1 28.2 L 162.3 28.2 L 162.3 27.4 L 163.1 27.4 L 163.1 25.8 L 164.1 25.2 L 164.1 27.4 L 165.2 27.4 L 165.2 28.2 L 164.1 28.2 C 164.1 28.2 164.1 31.82 164.1 31.8 C 164.1 32.1 164.1 32.3 164.2 32.4 C 164.2 32.5 164.3 32.6 164.3 32.6 C 164.4 32.7 164.5 32.7 164.7 32.7 C 164.7 32.7 164.7 32.7 164.7 32.7 Z M 168 32.7 C 168.2 32.7 168.3 32.7 168.5 32.6 C 168.5 32.6 168.7 33.6 168.7 33.6 C 168.4 33.6 168.1 33.7 167.9 33.7 C 167.5 33.7 167.2 33.6 167 33.5 C 166.8 33.4 166.6 33.2 166.5 33 C 166.4 32.8 166.4 32.4 166.4 31.8 C 166.39 31.76 166.4 28.2 166.4 28.2 L 165.6 28.2 L 165.6 27.4 L 166.4 27.4 L 166.4 25.8 L 167.4 25.2 L 167.4 27.4 L 168.5 27.4 L 168.5 28.2 L 167.4 28.2 C 167.4 28.2 167.44 31.82 167.4 31.8 C 167.4 32.1 167.5 32.3 167.5 32.4 C 167.5 32.5 167.6 32.6 167.7 32.6 C 167.8 32.7 167.9 32.7 168 32.7 C 168 32.7 168 32.7 168 32.7 Z M 173.8 31.6 C 173.8 31.6 174.9 31.7 174.9 31.7 C 174.7 32.3 174.4 32.8 173.9 33.2 C 173.5 33.5 172.9 33.7 172.1 33.7 C 171.2 33.7 170.5 33.4 170 32.9 C 169.4 32.3 169.2 31.5 169.2 30.5 C 169.2 29.5 169.4 28.7 170 28.1 C 170.5 27.5 171.2 27.2 172.1 27.2 C 172.9 27.2 173.6 27.5 174.1 28.1 C 174.7 28.6 174.9 29.4 174.9 30.5 C 174.9 30.5 174.9 30.6 174.9 30.7 C 174.9 30.7 170.3 30.7 170.3 30.7 C 170.3 31.4 170.5 31.9 170.8 32.3 C 171.2 32.7 171.6 32.9 172.1 32.9 C 172.5 32.9 172.9 32.8 173.1 32.5 C 173.4 32.3 173.6 32 173.8 31.6 Z M 170.3 29.9 C 170.3 29.9 173.8 29.9 173.8 29.9 C 173.8 29.3 173.6 29 173.4 28.7 C 173.1 28.3 172.6 28.1 172.1 28.1 C 171.6 28.1 171.2 28.2 170.9 28.6 C 170.5 28.9 170.4 29.3 170.3 29.9 Z M 180.2 33.6 C 180.2 33.6 180.24 32.79 180.2 32.8 C 179.8 33.4 179.3 33.7 178.5 33.7 C 178 33.7 177.5 33.6 177.1 33.3 C 176.7 33 176.4 32.7 176.2 32.2 C 175.9 31.7 175.8 31.1 175.8 30.5 C 175.8 29.9 175.9 29.3 176.1 28.8 C 176.3 28.3 176.7 27.9 177.1 27.6 C 177.5 27.4 177.9 27.2 178.5 27.2 C 178.8 27.2 179.2 27.3 179.5 27.5 C 179.7 27.6 180 27.8 180.2 28.1 C 180.17 28.07 180.2 25 180.2 25 L 181.2 25 L 181.2 33.6 L 180.2 33.6 Z M 176.9 30.5 C 176.9 31.3 177.1 31.9 177.4 32.3 C 177.7 32.7 178.1 32.9 178.6 32.9 C 179.1 32.9 179.5 32.7 179.8 32.3 C 180.1 31.9 180.3 31.3 180.3 30.6 C 180.3 29.7 180.1 29.1 179.8 28.7 C 179.4 28.3 179 28.1 178.6 28.1 C 178.1 28.1 177.7 28.3 177.4 28.7 C 177.1 29 176.9 29.7 176.9 30.5 Z M 183.2 33.6 L 183.2 32.4 L 184.4 32.4 C 184.4 32.4 184.35 33.58 184.4 33.6 C 184.4 34 184.3 34.4 184.1 34.6 C 184 34.9 183.7 35.1 183.4 35.3 C 183.4 35.3 183.1 34.8 183.1 34.8 C 183.3 34.7 183.5 34.6 183.6 34.4 C 183.7 34.2 183.7 33.9 183.8 33.6 C 183.75 33.58 183.2 33.6 183.2 33.6 Z M 189.1 31.7 C 189.1 31.7 190.2 31.6 190.2 31.6 C 190.2 32 190.4 32.3 190.7 32.5 C 190.9 32.7 191.3 32.9 191.8 32.9 C 192.3 32.9 192.6 32.8 192.9 32.6 C 193.1 32.4 193.2 32.1 193.2 31.9 C 193.2 31.6 193.1 31.4 192.9 31.3 C 192.8 31.2 192.4 31.1 191.8 30.9 C 191 30.7 190.5 30.6 190.2 30.4 C 189.9 30.3 189.7 30.1 189.5 29.8 C 189.4 29.6 189.3 29.3 189.3 29 C 189.3 28.7 189.4 28.5 189.5 28.2 C 189.6 28 189.8 27.8 190 27.7 C 190.2 27.5 190.4 27.4 190.7 27.3 C 191 27.3 191.3 27.2 191.6 27.2 C 192.1 27.2 192.5 27.3 192.9 27.4 C 193.2 27.6 193.5 27.8 193.7 28 C 193.9 28.2 194 28.6 194.1 29 C 194.1 29 193 29.1 193 29.1 C 193 28.8 192.8 28.5 192.6 28.4 C 192.4 28.2 192.1 28.1 191.7 28.1 C 191.2 28.1 190.8 28.2 190.6 28.3 C 190.4 28.5 190.3 28.7 190.3 28.9 C 190.3 29 190.4 29.1 190.4 29.3 C 190.5 29.4 190.7 29.5 190.9 29.5 C 191 29.6 191.3 29.7 191.8 29.8 C 192.5 30 193 30.2 193.3 30.3 C 193.6 30.4 193.9 30.6 194 30.8 C 194.2 31.1 194.3 31.4 194.3 31.8 C 194.3 32.1 194.2 32.4 194 32.7 C 193.8 33.1 193.5 33.3 193.1 33.5 C 192.7 33.6 192.3 33.7 191.8 33.7 C 191 33.7 190.4 33.6 189.9 33.2 C 189.5 32.9 189.2 32.4 189.1 31.7 Z M 199.6 33.6 C 199.6 33.6 199.62 32.67 199.6 32.7 C 199.1 33.4 198.5 33.7 197.6 33.7 C 197.3 33.7 196.9 33.7 196.6 33.5 C 196.3 33.4 196.1 33.2 195.9 33 C 195.8 32.8 195.6 32.5 195.6 32.2 C 195.5 32 195.5 31.7 195.5 31.2 C 195.52 31.21 195.5 27.4 195.5 27.4 L 196.6 27.4 C 196.6 27.4 196.58 30.81 196.6 30.8 C 196.6 31.4 196.6 31.7 196.6 31.9 C 196.7 32.2 196.8 32.4 197.1 32.6 C 197.3 32.7 197.5 32.8 197.9 32.8 C 198.2 32.8 198.5 32.7 198.8 32.6 C 199 32.4 199.2 32.2 199.3 31.9 C 199.5 31.6 199.5 31.2 199.5 30.7 C 199.51 30.69 199.5 27.4 199.5 27.4 L 200.6 27.4 L 200.6 33.6 L 199.6 33.6 Z M 202.2 36 L 202.2 27.4 L 203.2 27.4 C 203.2 27.4 203.18 28.17 203.2 28.2 C 203.4 27.8 203.7 27.6 203.9 27.5 C 204.2 27.3 204.6 27.2 205 27.2 C 205.5 27.2 206 27.4 206.4 27.6 C 206.8 27.9 207.1 28.3 207.3 28.8 C 207.5 29.3 207.6 29.8 207.6 30.4 C 207.6 31.1 207.5 31.6 207.3 32.1 C 207 32.7 206.7 33 206.3 33.3 C 205.8 33.6 205.4 33.7 204.9 33.7 C 204.6 33.7 204.2 33.6 204 33.5 C 203.7 33.3 203.5 33.2 203.3 32.9 C 203.27 32.94 203.3 36 203.3 36 L 202.2 36 Z M 203.2 30.5 C 203.2 31.3 203.3 31.9 203.7 32.3 C 204 32.7 204.4 32.9 204.8 32.9 C 205.3 32.9 205.7 32.7 206 32.3 C 206.4 31.9 206.5 31.2 206.5 30.4 C 206.5 29.6 206.4 29 206.1 28.6 C 205.7 28.2 205.3 28 204.9 28 C 204.4 28 204 28.3 203.7 28.7 C 203.3 29.1 203.2 29.7 203.2 30.5 Z M 208.9 36 L 208.9 27.4 L 209.9 27.4 C 209.9 27.4 209.85 28.17 209.9 28.2 C 210.1 27.8 210.3 27.6 210.6 27.5 C 210.9 27.3 211.3 27.2 211.7 27.2 C 212.2 27.2 212.7 27.4 213.1 27.6 C 213.5 27.9 213.8 28.3 214 28.8 C 214.2 29.3 214.3 29.8 214.3 30.4 C 214.3 31.1 214.2 31.6 214 32.1 C 213.7 32.7 213.4 33 213 33.3 C 212.5 33.6 212.1 33.7 211.6 33.7 C 211.2 33.7 210.9 33.6 210.6 33.5 C 210.4 33.3 210.1 33.2 209.9 32.9 C 209.95 32.94 209.9 36 209.9 36 L 208.9 36 Z M 209.8 30.5 C 209.8 31.3 210 31.9 210.3 32.3 C 210.7 32.7 211.1 32.9 211.5 32.9 C 212 32.9 212.4 32.7 212.7 32.3 C 213 31.9 213.2 31.2 213.2 30.4 C 213.2 29.6 213.1 29 212.7 28.6 C 212.4 28.2 212 28 211.6 28 C 211.1 28 210.7 28.3 210.4 28.7 C 210 29.1 209.8 29.7 209.8 30.5 Z M 215.2 30.5 C 215.2 29.3 215.5 28.5 216.1 27.9 C 216.7 27.4 217.3 27.2 218.1 27.2 C 218.9 27.2 219.6 27.5 220.2 28.1 C 220.7 28.6 221 29.4 221 30.4 C 221 31.2 220.9 31.8 220.6 32.3 C 220.4 32.7 220.1 33.1 219.6 33.3 C 219.1 33.6 218.6 33.7 218.1 33.7 C 217.2 33.7 216.5 33.4 216 32.9 C 215.4 32.3 215.2 31.5 215.2 30.5 Z M 216.3 30.5 C 216.3 31.3 216.4 31.9 216.8 32.3 C 217.1 32.7 217.6 32.9 218.1 32.9 C 218.6 32.9 219.1 32.7 219.4 32.3 C 219.7 31.9 219.9 31.2 219.9 30.4 C 219.9 29.7 219.7 29.1 219.4 28.7 C 219 28.3 218.6 28.1 218.1 28.1 C 217.6 28.1 217.1 28.3 216.8 28.7 C 216.4 29.1 216.3 29.7 216.3 30.5 Z M 222.2 33.6 L 222.2 27.4 L 223.2 27.4 C 223.2 27.4 223.18 28.3 223.2 28.3 C 223.4 27.9 223.6 27.6 223.8 27.4 C 224.1 27.3 224.3 27.2 224.5 27.2 C 224.9 27.2 225.2 27.3 225.6 27.6 C 225.6 27.6 225.2 28.5 225.2 28.5 C 225 28.4 224.7 28.3 224.5 28.3 C 224.2 28.3 224 28.4 223.9 28.5 C 223.7 28.7 223.5 28.8 223.5 29.1 C 223.3 29.5 223.3 29.9 223.3 30.3 C 223.28 30.32 223.3 33.6 223.3 33.6 L 222.2 33.6 Z M 228.1 32.7 C 228.2 32.7 228.3 32.7 228.5 32.6 C 228.5 32.6 228.7 33.6 228.7 33.6 C 228.4 33.6 228.1 33.7 227.9 33.7 C 227.5 33.7 227.2 33.6 227 33.5 C 226.8 33.4 226.6 33.2 226.6 33 C 226.5 32.8 226.4 32.4 226.4 31.8 C 226.43 31.76 226.4 28.2 226.4 28.2 L 225.7 28.2 L 225.7 27.4 L 226.4 27.4 L 226.4 25.8 L 227.5 25.2 L 227.5 27.4 L 228.5 27.4 L 228.5 28.2 L 227.5 28.2 C 227.5 28.2 227.48 31.82 227.5 31.8 C 227.5 32.1 227.5 32.3 227.5 32.4 C 227.6 32.5 227.6 32.6 227.7 32.6 C 227.8 32.7 227.9 32.7 228.1 32.7 C 228.1 32.7 228.1 32.7 228.1 32.7 Z M 229.6 26.2 L 229.6 25 L 230.6 25 L 230.6 26.2 L 229.6 26.2 Z M 229.6 33.6 L 229.6 27.4 L 230.6 27.4 L 230.6 33.6 L 229.6 33.6 Z M 234 33.6 L 231.6 27.4 L 232.7 27.4 C 232.7 27.4 234.05 31.08 234 31.1 C 234.2 31.5 234.3 31.9 234.4 32.3 C 234.5 32 234.7 31.6 234.8 31.2 C 234.84 31.15 236.2 27.4 236.2 27.4 L 237.3 27.4 L 234.9 33.6 L 234 33.6 Z M 242.5 31.6 C 242.5 31.6 243.6 31.7 243.6 31.7 C 243.4 32.3 243.1 32.8 242.6 33.2 C 242.2 33.5 241.6 33.7 240.8 33.7 C 239.9 33.7 239.2 33.4 238.7 32.9 C 238.2 32.3 237.9 31.5 237.9 30.5 C 237.9 29.5 238.2 28.7 238.7 28.1 C 239.2 27.5 239.9 27.2 240.8 27.2 C 241.6 27.2 242.3 27.5 242.8 28.1 C 243.4 28.6 243.6 29.4 243.6 30.5 C 243.6 30.5 243.6 30.6 243.6 30.7 C 243.6 30.7 239 30.7 239 30.7 C 239 31.4 239.2 31.9 239.6 32.3 C 239.9 32.7 240.3 32.9 240.9 32.9 C 241.2 32.9 241.6 32.8 241.8 32.5 C 242.1 32.3 242.3 32 242.5 31.6 Z M 239 29.9 C 239 29.9 242.5 29.9 242.5 29.9 C 242.5 29.3 242.3 29 242.1 28.7 C 241.8 28.3 241.3 28.1 240.8 28.1 C 240.3 28.1 239.9 28.2 239.6 28.6 C 239.3 28.9 239.1 29.3 239 29.9 Z M 245.2 33.6 L 245.2 32.4 L 246.4 32.4 C 246.4 32.4 246.39 33.58 246.4 33.6 C 246.4 34 246.3 34.4 246.2 34.6 C 246 34.9 245.7 35.1 245.4 35.3 C 245.4 35.3 245.1 34.8 245.1 34.8 C 245.3 34.7 245.5 34.6 245.6 34.4 C 245.7 34.2 245.8 33.9 245.8 33.6 C 245.78 33.58 245.2 33.6 245.2 33.6 Z " stroke="none" fill="#ffffff"/>  </g>  <g id="Polygon28904">    <path d="M 3 0.9 L 3 14.6 L 1.5 14.6 L 1.5 0.9 L 3 0.9 Z M 7.3 0.9 L 17 12.2 L 17 0.9 L 18.4 0.9 L 18.4 14.6 L 17.1 14.6 L 7.5 3.3 L 7.5 14.6 L 6.1 14.6 L 6.1 0.9 L 7.3 0.9 Z M 28.1 1.6 C 28.1 1.6 28.1 3.3 28.1 3.3 C 27.1 2.5 26.1 2.1 25 2.1 C 23.5 2.1 22.6 2.9 22.6 4.1 C 22.6 5 22.8 5.8 25.1 6.9 C 27.9 8.4 28.6 9.4 28.6 11.2 C 28.6 13.2 27 14.8 24.7 14.8 C 23.4 14.8 22.2 14.3 21.1 13.6 C 21.1 13.6 21.1 11.7 21.1 11.7 C 22.2 12.8 23.4 13.4 24.7 13.4 C 26.1 13.4 27.1 12.6 27.1 11.2 C 27.1 10.1 26.7 9.4 24 8 C 21.9 6.9 21.1 5.9 21.1 4.1 C 21.1 2.2 22.7 0.8 25 0.8 C 26.1 0.8 27.1 1.1 28.1 1.6 Z M 34.8 0.9 C 37.5 0.9 39.2 2.3 39.2 4.7 C 39.2 7.2 37.5 8.4 34.5 8.4 C 34.54 8.44 32.4 8.4 32.4 8.4 L 32.4 14.6 L 30.9 14.6 L 30.9 0.9 C 30.9 0.9 34.8 0.94 34.8 0.9 Z M 32.4 7.1 C 32.4 7.1 34.5 7.12 34.5 7.1 C 36.8 7.1 37.6 6.2 37.6 4.7 C 37.6 3.1 36.7 2.3 34.5 2.3 C 34.5 2.26 32.4 2.3 32.4 2.3 L 32.4 7.1 Z M 42.8 0.9 L 42.8 14.6 L 41.3 14.6 L 41.3 0.9 L 42.8 0.9 Z M 45.9 0.9 C 45.9 0.9 49.44 0.94 49.4 0.9 C 52.2 0.9 53.6 2.5 53.6 4.6 C 53.6 6.3 52.7 7.5 51 8 C 51.9 8.4 52.3 8.8 53.4 10.5 C 53.42 10.5 56.1 14.6 56.1 14.6 L 54.3 14.6 C 54.3 14.6 51.88 10.82 51.9 10.8 C 50.6 8.8 49.8 8.4 48.6 8.4 C 48.62 8.38 47.4 8.4 47.4 8.4 L 47.4 14.6 L 45.9 14.6 L 45.9 0.9 Z M 48.8 7.1 C 50.6 7.1 52.1 6.6 52.1 4.6 C 52.1 2.9 51 2.3 49.2 2.3 C 49.24 2.26 47.4 2.3 47.4 2.3 L 47.4 7.1 C 47.4 7.1 48.76 7.06 48.8 7.1 Z M 59.1 0.9 L 59.1 14.6 L 57.6 14.6 L 57.6 0.9 L 59.1 0.9 Z M 63.4 0.9 L 73 12.2 L 73 0.9 L 74.5 0.9 L 74.5 14.6 L 73.1 14.6 L 63.6 3.3 L 63.6 14.6 L 62.1 14.6 L 62.1 0.9 L 63.4 0.9 Z M 88.8 3.4 C 87.3 2.6 85.6 2.1 84.1 2.1 C 80.9 2.1 78.5 4.5 78.5 7.7 C 78.5 11.1 80.8 13.4 84.2 13.4 C 85.3 13.4 86.2 13.2 87.6 12.7 C 87.56 12.72 87.6 9.4 87.6 9.4 L 84.8 9.4 L 84.8 8.1 L 89.1 8.1 C 89.1 8.1 89.06 13.64 89.1 13.6 C 87.5 14.4 86 14.8 84.2 14.8 C 79.3 14.8 76.9 11.3 76.9 7.8 C 76.9 4 79.8 0.8 84.1 0.8 C 85.7 0.8 87 1.1 88.8 1.9 C 88.8 1.9 88.8 3.4 88.8 3.4 Z " stroke="none" fill="#ffffff"/>  </g></svg>