<?xml version="1.0" standalone="no"?><!DOCTYPE svg PUBLIC "-//W3C//DTD SVG 1.1//EN" "http://www.w3.org/Graphics/SVG/1.1/DTD/svg11.dtd"><svg xmlns="http://www.w3.org/2000/svg" version="1.1" width="152.1px" height="98.4px" viewBox="0 -4 152.1 98.4" style="top:-4px">  <desc>EPA Driving Apprenticeship Success</desc>  <defs/>  <g id="Polygon46569">    <path d="M 7.9 70 C 7.9 70 7.9 71.7 7.9 71.7 C 6.9 70.9 5.9 70.5 4.8 70.5 C 3.3 70.5 2.4 71.3 2.4 72.5 C 2.4 73.4 2.6 74.1 4.9 75.3 C 7.7 76.7 8.4 77.7 8.4 79.6 C 8.4 81.6 6.8 83.1 4.5 83.1 C 3.2 83.1 2 82.7 0.9 81.9 C 0.9 81.9 0.9 80 0.9 80 C 2 81.2 3.2 81.8 4.5 81.8 C 5.9 81.8 6.9 80.9 6.9 79.6 C 6.9 78.4 6.5 77.8 3.8 76.4 C 1.7 75.3 0.9 74.2 0.9 72.5 C 0.9 70.6 2.5 69.1 4.8 69.1 C 5.9 69.1 6.9 69.4 7.9 70 Z M 12 69.3 C 12 69.3 12.04 77.15 12 77.2 C 12 80.2 13.5 81.8 16.3 81.8 C 19.1 81.8 20.5 80.1 20.5 77.2 C 20.48 77.15 20.5 69.3 20.5 69.3 L 22 69.3 C 22 69.3 21.98 77.15 22 77.2 C 22 80.7 20.1 83.1 16.3 83.1 C 12.5 83.1 10.5 81 10.5 77.2 C 10.54 77.15 10.5 69.3 10.5 69.3 L 12 69.3 Z M 36.1 70.2 C 36.1 70.2 36.1 71.8 36.1 71.8 C 34.7 71 33.1 70.5 31.5 70.5 C 28 70.5 25.8 73.1 25.8 76.1 C 25.8 79.2 28 81.7 31.5 81.7 C 33.2 81.7 34.8 81.2 36.2 80.3 C 36.2 80.3 36.2 82 36.2 82 C 34.7 82.8 33.1 83.1 31.5 83.1 C 26.7 83.1 24.3 79.6 24.3 76.2 C 24.3 72.1 27.4 69.1 31.5 69.1 C 33 69.1 34.6 69.5 36.1 70.2 Z M 49.4 70.2 C 49.4 70.2 49.4 71.8 49.4 71.8 C 47.9 71 46.4 70.5 44.8 70.5 C 41.3 70.5 39.1 73.1 39.1 76.1 C 39.1 79.2 41.3 81.7 44.7 81.7 C 46.4 81.7 48 81.2 49.5 80.3 C 49.5 80.3 49.5 82 49.5 82 C 48 82.8 46.4 83.1 44.7 83.1 C 40 83.1 37.5 79.6 37.5 76.2 C 37.5 72.1 40.6 69.1 44.7 69.1 C 46.3 69.1 47.8 69.5 49.4 70.2 Z M 59.3 69.3 L 59.3 70.6 L 53.3 70.6 L 53.3 75.4 L 59.1 75.4 L 59.1 76.7 L 53.3 76.7 L 53.3 81.6 L 59.5 81.6 L 59.5 82.9 L 51.8 82.9 L 51.8 69.3 L 59.3 69.3 Z M 68.2 70 C 68.2 70 68.2 71.7 68.2 71.7 C 67.3 70.9 66.2 70.5 65.1 70.5 C 63.7 70.5 62.7 71.3 62.7 72.5 C 62.7 73.4 63 74.1 65.2 75.3 C 68 76.7 68.7 77.7 68.7 79.6 C 68.7 81.6 67.2 83.1 64.8 83.1 C 63.5 83.1 62.3 82.7 61.3 81.9 C 61.3 81.9 61.3 80 61.3 80 C 62.3 81.2 63.5 81.8 64.8 81.8 C 66.2 81.8 67.2 80.9 67.2 79.6 C 67.2 78.4 66.8 77.8 64.2 76.4 C 62 75.3 61.2 74.2 61.2 72.5 C 61.2 70.6 62.9 69.1 65.2 69.1 C 66.2 69.1 67.3 69.4 68.2 70 Z M 77.4 70 C 77.4 70 77.4 71.7 77.4 71.7 C 76.4 70.9 75.4 70.5 74.3 70.5 C 72.9 70.5 71.9 71.3 71.9 72.5 C 71.9 73.4 72.1 74.1 74.4 75.3 C 77.2 76.7 77.9 77.7 77.9 79.6 C 77.9 81.6 76.3 83.1 74 83.1 C 72.7 83.1 71.5 82.7 70.5 81.9 C 70.5 81.9 70.5 80 70.5 80 C 71.5 81.2 72.7 81.8 74 81.8 C 75.4 81.8 76.4 80.9 76.4 79.6 C 76.4 78.4 76 77.8 73.4 76.4 C 71.2 75.3 70.4 74.2 70.4 72.5 C 70.4 70.6 72.1 69.1 74.3 69.1 C 75.4 69.1 76.5 69.4 77.4 70 Z " stroke="none" fill="#000000"/>  </g>  <g id="Polygon46568">    <path d="M 7 45.2 L 13.1 58.9 L 11.5 58.9 L 9.6 54.7 L 3.4 54.7 L 1.6 58.9 L 0 58.9 L 5.9 45.2 L 7 45.2 Z M 4 53.3 L 9 53.3 L 6.4 47.5 L 4 53.3 Z M 18.5 45.3 C 21.2 45.3 22.9 46.7 22.9 49.1 C 22.9 51.6 21.2 52.8 18.3 52.8 C 18.26 52.79 16.1 52.8 16.1 52.8 L 16.1 58.9 L 14.6 58.9 L 14.6 45.3 C 14.6 45.3 18.52 45.29 18.5 45.3 Z M 16.1 51.5 C 16.1 51.5 18.22 51.47 18.2 51.5 C 20.5 51.5 21.4 50.6 21.4 49 C 21.4 47.5 20.4 46.6 18.2 46.6 C 18.22 46.61 16.1 46.6 16.1 46.6 L 16.1 51.5 Z M 28.9 45.3 C 31.6 45.3 33.3 46.7 33.3 49.1 C 33.3 51.6 31.6 52.8 28.6 52.8 C 28.64 52.79 26.5 52.8 26.5 52.8 L 26.5 58.9 L 25 58.9 L 25 45.3 C 25 45.3 28.9 45.29 28.9 45.3 Z M 26.5 51.5 C 26.5 51.5 28.6 51.47 28.6 51.5 C 30.9 51.5 31.7 50.6 31.7 49 C 31.7 47.5 30.8 46.6 28.6 46.6 C 28.6 46.61 26.5 46.6 26.5 46.6 L 26.5 51.5 Z M 35.4 45.3 C 35.4 45.3 38.98 45.29 39 45.3 C 41.7 45.3 43.1 46.9 43.1 49 C 43.1 50.7 42.2 51.8 40.6 52.3 C 41.4 52.8 41.8 53.1 43 54.9 C 42.96 54.85 45.6 58.9 45.6 58.9 L 43.8 58.9 C 43.8 58.9 41.42 55.17 41.4 55.2 C 40.2 53.2 39.3 52.7 38.2 52.7 C 38.16 52.73 36.9 52.7 36.9 52.7 L 36.9 58.9 L 35.4 58.9 L 35.4 45.3 Z M 38.3 51.4 C 40.2 51.4 41.6 51 41.6 49 C 41.6 47.3 40.5 46.6 38.8 46.6 C 38.78 46.61 36.9 46.6 36.9 46.6 L 36.9 51.4 C 36.9 51.4 38.3 51.41 38.3 51.4 Z M 54.6 45.3 L 54.6 46.6 L 48.6 46.6 L 48.6 51.4 L 54.4 51.4 L 54.4 52.7 L 48.6 52.7 L 48.6 57.6 L 54.7 57.6 L 54.7 58.9 L 47.1 58.9 L 47.1 45.3 L 54.6 45.3 Z M 58.4 45.3 L 68 56.6 L 68 45.3 L 69.5 45.3 L 69.5 58.9 L 68.2 58.9 L 58.6 47.7 L 58.6 58.9 L 57.1 58.9 L 57.1 45.3 L 58.4 45.3 Z M 82.5 45.3 L 82.5 46.6 L 77.6 46.6 L 77.6 58.9 L 76.1 58.9 L 76.1 46.6 L 71.3 46.6 L 71.3 45.3 L 82.5 45.3 Z M 85.8 45.3 L 85.8 58.9 L 84.3 58.9 L 84.3 45.3 L 85.8 45.3 Z M 100.2 46.2 C 100.2 46.2 100.2 47.8 100.2 47.8 C 98.7 47 97.1 46.5 95.5 46.5 C 92.1 46.5 89.9 49.1 89.9 52.1 C 89.9 55.2 92 57.7 95.5 57.7 C 97.2 57.7 98.8 57.2 100.3 56.3 C 100.3 56.3 100.3 58 100.3 58 C 98.7 58.8 97.2 59.1 95.5 59.1 C 90.8 59.1 88.3 55.6 88.3 52.2 C 88.3 48.1 91.4 45.1 95.5 45.1 C 97.1 45.1 98.6 45.5 100.2 46.2 Z M 110.1 45.3 L 110.1 46.6 L 104.1 46.6 L 104.1 51.4 L 109.9 51.4 L 109.9 52.7 L 104.1 52.7 L 104.1 57.6 L 110.2 57.6 L 110.2 58.9 L 102.6 58.9 L 102.6 45.3 L 110.1 45.3 Z M 119 46 C 119 46 119 47.7 119 47.7 C 118 46.9 117 46.5 115.9 46.5 C 114.5 46.5 113.5 47.3 113.5 48.5 C 113.5 49.4 113.7 50.1 116 51.3 C 118.8 52.7 119.5 53.7 119.5 55.6 C 119.5 57.6 117.9 59.1 115.6 59.1 C 114.3 59.1 113.1 58.7 112.1 57.9 C 112.1 57.9 112.1 56 112.1 56 C 113.1 57.2 114.3 57.8 115.6 57.8 C 117 57.8 118 56.9 118 55.6 C 118 54.4 117.6 53.8 115 52.4 C 112.8 51.3 112 50.2 112 48.5 C 112 46.6 113.7 45.1 115.9 45.1 C 117 45.1 118.1 45.4 119 46 Z M 123.3 45.3 L 123.3 51.4 L 131.6 51.4 L 131.6 45.3 L 133.1 45.3 L 133.1 58.9 L 131.6 58.9 L 131.6 52.8 L 123.3 52.8 L 123.3 58.9 L 121.8 58.9 L 121.8 45.3 L 123.3 45.3 Z M 137.7 45.3 L 137.7 58.9 L 136.2 58.9 L 136.2 45.3 L 137.7 45.3 Z M 144.6 45.3 C 147.3 45.3 149 46.7 149 49.1 C 149 51.6 147.3 52.8 144.4 52.8 C 144.36 52.79 142.2 52.8 142.2 52.8 L 142.2 58.9 L 140.7 58.9 L 140.7 45.3 C 140.7 45.3 144.62 45.29 144.6 45.3 Z M 142.2 51.5 C 142.2 51.5 144.32 51.47 144.3 51.5 C 146.6 51.5 147.5 50.6 147.5 49 C 147.5 47.5 146.5 46.6 144.3 46.6 C 144.32 46.61 142.2 46.6 142.2 46.6 L 142.2 51.5 Z " stroke="none" fill="#000000"/>  </g>  <g id="Polygon46567">    <path d="M 1.5 21.3 C 1.5 21.3 6.56 21.29 6.6 21.3 C 11 21.3 13.9 24.1 13.9 28 C 13.9 32.2 10.9 34.9 6.6 34.9 C 6.56 34.93 1.5 34.9 1.5 34.9 L 1.5 21.3 Z M 6.5 33.6 C 10.1 33.6 12.3 31.5 12.3 28.1 C 12.3 24.8 10.2 22.6 6.3 22.6 C 6.32 22.63 3 22.6 3 22.6 L 3 33.6 C 3 33.6 6.54 33.57 6.5 33.6 Z M 16.4 21.3 C 16.4 21.3 19.98 21.29 20 21.3 C 22.7 21.3 24.1 22.9 24.1 25 C 24.1 26.7 23.2 27.8 21.6 28.3 C 22.4 28.8 22.8 29.1 24 30.9 C 23.96 30.85 26.6 34.9 26.6 34.9 L 24.8 34.9 C 24.8 34.9 22.42 31.17 22.4 31.2 C 21.2 29.2 20.3 28.7 19.2 28.7 C 19.16 28.73 17.9 28.7 17.9 28.7 L 17.9 34.9 L 16.4 34.9 L 16.4 21.3 Z M 19.3 27.4 C 21.2 27.4 22.6 27 22.6 25 C 22.6 23.3 21.5 22.6 19.8 22.6 C 19.78 22.61 17.9 22.6 17.9 22.6 L 17.9 27.4 C 17.9 27.4 19.3 27.41 19.3 27.4 Z M 29.6 21.3 L 29.6 34.9 L 28.1 34.9 L 28.1 21.3 L 29.6 21.3 Z M 31.2 21.3 L 32.7 21.3 L 37.1 31.9 L 37.1 31.9 L 41.5 21.3 L 43 21.3 L 37.3 35.1 L 36.9 35.1 L 31.2 21.3 Z M 46.1 21.3 L 46.1 34.9 L 44.6 34.9 L 44.6 21.3 L 46.1 21.3 Z M 50.4 21.3 L 60.1 32.6 L 60.1 21.3 L 61.5 21.3 L 61.5 34.9 L 60.2 34.9 L 50.6 23.7 L 50.6 34.9 L 49.2 34.9 L 49.2 21.3 L 50.4 21.3 Z M 75.8 23.8 C 74.3 22.9 72.7 22.5 71.1 22.5 C 68 22.5 65.5 24.9 65.5 28.1 C 65.5 31.4 67.8 33.8 71.2 33.8 C 72.4 33.8 73.2 33.6 74.6 33.1 C 74.6 33.07 74.6 29.8 74.6 29.8 L 71.8 29.8 L 71.8 28.4 L 76.1 28.4 C 76.1 28.4 76.1 33.99 76.1 34 C 74.5 34.8 73 35.1 71.2 35.1 C 66.4 35.1 64 31.7 64 28.2 C 64 24.3 66.8 21.1 71.2 21.1 C 72.7 21.1 74 21.4 75.8 22.2 C 75.8 22.2 75.8 23.8 75.8 23.8 Z " stroke="none" fill="#000000"/>  </g>  <g id="Polygon46566">    <path d="M 6.8 0.7 L 6.8 1.7 L 2.3 1.7 L 2.3 5.3 L 6.6 5.3 L 6.6 6.3 L 2.3 6.3 L 2.3 9.9 L 6.9 9.9 L 6.9 10.9 L 1.2 10.9 L 1.2 0.7 L 6.8 0.7 Z M 11.6 0.7 C 13.6 0.7 14.9 1.7 14.9 3.5 C 14.9 5.4 13.6 6.3 11.4 6.3 C 11.4 6.33 9.8 6.3 9.8 6.3 L 9.8 10.9 L 8.7 10.9 L 8.7 0.7 C 8.7 0.7 11.59 0.7 11.6 0.7 Z M 9.8 5.3 C 9.8 5.3 11.37 5.34 11.4 5.3 C 13.1 5.3 13.7 4.7 13.7 3.5 C 13.7 2.3 13 1.7 11.4 1.7 C 11.37 1.69 9.8 1.7 9.8 1.7 L 9.8 5.3 Z M 19.7 0.6 L 24.2 10.9 L 23.1 10.9 L 21.6 7.7 L 17 7.7 L 15.6 10.9 L 14.5 10.9 L 18.9 0.6 L 19.7 0.6 Z M 17.4 6.7 L 21.2 6.7 L 19.3 2.4 L 17.4 6.7 Z " stroke="none" fill="#f28620"/>  </g></svg>