<?xml version="1.0" standalone="no"?><!DOCTYPE svg PUBLIC "-//W3C//DTD SVG 1.1//EN" "http://www.w3.org/Graphics/SVG/1.1/DTD/svg11.dtd"><svg xmlns="http://www.w3.org/2000/svg" version="1.1" width="482px" height="129.1px" viewBox="0 -10 482 129.1" style="top:-10px">  <desc>End Point Assessment Assessment of Occupational Competence Qualification Design and Certification</desc>  <defs/>  <g id="Polygon17531">    <path d="M 50.9 90.2 C 51.9 90.9 52.9 91.4 53.8 91.8 C 53.8 91.8 53.1 93.3 53.1 93.3 C 51.9 92.9 50.7 92.2 49.4 91.2 C 48.2 91.9 46.7 92.3 45.2 92.3 C 43.7 92.3 42.2 91.9 41 91.2 C 39.7 90.4 38.7 89.4 38.1 88 C 37.4 86.6 37 85.1 37 83.4 C 37 81.7 37.4 80.2 38.1 78.8 C 38.7 77.4 39.7 76.3 41 75.6 C 42.3 74.9 43.7 74.5 45.3 74.5 C 46.8 74.5 48.3 74.9 49.5 75.6 C 50.8 76.4 51.8 77.5 52.5 78.8 C 53.1 80.2 53.5 81.7 53.5 83.4 C 53.5 84.8 53.2 86.1 52.8 87.2 C 52.4 88.3 51.7 89.3 50.9 90.2 Z M 45.9 87.3 C 47.2 87.6 48.3 88.2 49.1 88.9 C 50.4 87.7 51.1 85.8 51.1 83.4 C 51.1 82 50.9 80.8 50.4 79.8 C 49.9 78.7 49.2 77.9 48.3 77.3 C 47.4 76.8 46.4 76.5 45.3 76.5 C 43.6 76.5 42.2 77.1 41.1 78.2 C 39.9 79.4 39.4 81.1 39.4 83.4 C 39.4 85.6 39.9 87.4 41 88.6 C 42.1 89.8 43.6 90.3 45.3 90.3 C 46.1 90.3 46.8 90.2 47.6 89.9 C 46.9 89.4 46.1 89.1 45.3 88.9 C 45.3 88.9 45.9 87.3 45.9 87.3 Z M 64.4 92 C 64.4 92 64.41 90.17 64.4 90.2 C 63.4 91.6 62.1 92.3 60.5 92.3 C 59.7 92.3 59 92.1 58.4 91.9 C 57.8 91.6 57.3 91.2 57 90.8 C 56.7 90.4 56.5 89.9 56.3 89.2 C 56.2 88.8 56.2 88.2 56.2 87.3 C 56.2 87.27 56.2 79.6 56.2 79.6 L 58.3 79.6 C 58.3 79.6 58.31 86.46 58.3 86.5 C 58.3 87.6 58.4 88.3 58.4 88.7 C 58.6 89.2 58.9 89.7 59.3 90 C 59.7 90.3 60.2 90.5 60.9 90.5 C 61.5 90.5 62.1 90.3 62.7 90 C 63.2 89.7 63.6 89.2 63.8 88.7 C 64.1 88.1 64.2 87.3 64.2 86.2 C 64.18 86.22 64.2 79.6 64.2 79.6 L 66.3 79.6 L 66.3 92 L 64.4 92 Z M 78.1 92 C 77.9 91.6 77.8 91.1 77.7 90.5 C 76.9 91.1 76.2 91.6 75.5 91.9 C 74.7 92.1 74 92.3 73.1 92.3 C 71.8 92.3 70.7 91.9 70 91.3 C 69.2 90.6 68.9 89.8 68.9 88.7 C 68.9 88.1 69 87.6 69.3 87 C 69.6 86.5 69.9 86.1 70.4 85.8 C 70.8 85.5 71.3 85.3 71.9 85.1 C 72.3 85 72.9 84.9 73.8 84.8 C 75.5 84.6 76.7 84.4 77.5 84.1 C 77.6 83.8 77.6 83.6 77.6 83.6 C 77.6 82.7 77.4 82.1 77 81.7 C 76.4 81.3 75.6 81 74.6 81 C 73.6 81 72.8 81.2 72.4 81.5 C 71.9 81.9 71.5 82.5 71.3 83.4 C 71.3 83.4 69.2 83.1 69.2 83.1 C 69.4 82.2 69.7 81.5 70.2 81 C 70.6 80.4 71.2 80 72 79.7 C 72.8 79.4 73.8 79.3 74.9 79.3 C 75.9 79.3 76.8 79.4 77.4 79.6 C 78.1 79.9 78.6 80.2 78.9 80.6 C 79.2 81 79.4 81.4 79.6 82 C 79.6 82.4 79.7 83 79.7 84 C 79.7 84 79.7 86.8 79.7 86.8 C 79.7 88.7 79.7 90 79.8 90.5 C 79.9 91 80.1 91.5 80.3 92 C 80.34 92 78.1 92 78.1 92 C 78.1 92 78.14 92 78.1 92 Z M 77.5 85.8 C 76.8 86.1 75.6 86.3 74.1 86.6 C 73.2 86.7 72.6 86.8 72.3 87 C 71.9 87.1 71.6 87.4 71.4 87.7 C 71.2 88 71.1 88.3 71.1 88.7 C 71.1 89.2 71.3 89.7 71.8 90.1 C 72.2 90.4 72.8 90.6 73.6 90.6 C 74.5 90.6 75.2 90.5 75.8 90.1 C 76.4 89.7 76.9 89.3 77.2 88.6 C 77.4 88.2 77.5 87.5 77.5 86.5 C 77.5 86.5 77.5 85.8 77.5 85.8 Z M 82.9 92 L 82.9 74.8 L 85 74.8 L 85 92 L 82.9 92 Z M 88.3 77.2 L 88.3 74.8 L 90.4 74.8 L 90.4 77.2 L 88.3 77.2 Z M 88.3 92 L 88.3 79.6 L 90.4 79.6 L 90.4 92 L 88.3 92 Z M 94.2 92 L 94.2 81.2 L 92.3 81.2 L 92.3 79.6 L 94.2 79.6 C 94.2 79.6 94.17 78.35 94.2 78.3 C 94.2 77.1 94.4 76.2 95 75.5 C 95.5 74.9 96.3 74.5 97.5 74.5 C 98.3 74.5 99 74.6 99.6 74.8 C 99.6 74.8 99.3 76.6 99.3 76.6 C 98.9 76.5 98.5 76.5 98.2 76.5 C 97.4 76.5 96.9 76.6 96.7 76.9 C 96.4 77.2 96.3 77.8 96.3 78.7 C 96.28 78.75 96.3 79.6 96.3 79.6 L 98.7 79.6 L 98.7 81.2 L 96.3 81.2 L 96.3 92 L 94.2 92 Z M 100.3 77.2 L 100.3 74.8 L 102.4 74.8 L 102.4 77.2 L 100.3 77.2 Z M 100.3 92 L 100.3 79.6 L 102.4 79.6 L 102.4 92 L 100.3 92 Z M 113.7 87.4 C 113.7 87.4 115.8 87.7 115.8 87.7 C 115.6 89.1 115 90.3 114.1 91.1 C 113.1 91.9 112 92.3 110.6 92.3 C 108.9 92.3 107.6 91.7 106.5 90.6 C 105.5 89.5 105 87.9 105 85.8 C 105 84.5 105.2 83.3 105.6 82.3 C 106.1 81.3 106.8 80.5 107.7 80 C 108.6 79.5 109.6 79.3 110.6 79.3 C 112 79.3 113.1 79.6 114 80.3 C 114.8 81 115.4 82 115.6 83.2 C 115.6 83.2 113.6 83.5 113.6 83.5 C 113.4 82.7 113 82.1 112.5 81.6 C 112 81.2 111.4 81 110.7 81 C 109.7 81 108.8 81.4 108.1 82.2 C 107.5 82.9 107.1 84.1 107.1 85.8 C 107.1 87.4 107.5 88.7 108.1 89.4 C 108.7 90.2 109.6 90.5 110.6 90.5 C 111.4 90.5 112.1 90.3 112.7 89.8 C 113.2 89.3 113.6 88.5 113.7 87.4 Z M 126.2 92 C 125.9 91.6 125.8 91.1 125.7 90.5 C 124.9 91.1 124.2 91.6 123.5 91.9 C 122.8 92.1 122 92.3 121.1 92.3 C 119.8 92.3 118.7 91.9 118 91.3 C 117.3 90.6 116.9 89.8 116.9 88.7 C 116.9 88.1 117 87.6 117.3 87 C 117.6 86.5 118 86.1 118.4 85.8 C 118.8 85.5 119.4 85.3 119.9 85.1 C 120.3 85 121 84.9 121.8 84.8 C 123.5 84.6 124.7 84.4 125.6 84.1 C 125.6 83.8 125.6 83.6 125.6 83.6 C 125.6 82.7 125.4 82.1 125 81.7 C 124.4 81.3 123.6 81 122.6 81 C 121.6 81 120.8 81.2 120.4 81.5 C 119.9 81.9 119.5 82.5 119.3 83.4 C 119.3 83.4 117.3 83.1 117.3 83.1 C 117.4 82.2 117.8 81.5 118.2 81 C 118.6 80.4 119.2 80 120 79.7 C 120.9 79.4 121.8 79.3 122.9 79.3 C 123.9 79.3 124.8 79.4 125.5 79.6 C 126.1 79.9 126.6 80.2 126.9 80.6 C 127.2 81 127.5 81.4 127.6 82 C 127.7 82.4 127.7 83 127.7 84 C 127.7 84 127.7 86.8 127.7 86.8 C 127.7 88.7 127.7 90 127.8 90.5 C 127.9 91 128.1 91.5 128.4 92 C 128.36 92 126.2 92 126.2 92 C 126.2 92 126.15 92 126.2 92 Z M 125.6 85.8 C 124.8 86.1 123.6 86.3 122.1 86.6 C 121.2 86.7 120.6 86.8 120.3 87 C 119.9 87.1 119.6 87.4 119.4 87.7 C 119.2 88 119.1 88.3 119.1 88.7 C 119.1 89.2 119.4 89.7 119.8 90.1 C 120.2 90.4 120.8 90.6 121.7 90.6 C 122.5 90.6 123.2 90.5 123.8 90.1 C 124.5 89.7 124.9 89.3 125.2 88.6 C 125.4 88.2 125.6 87.5 125.6 86.5 C 125.6 86.5 125.6 85.8 125.6 85.8 Z M 134.6 90.2 C 134.9 90.2 135.2 90.2 135.6 90.1 C 135.6 90.1 135.9 92 135.9 92 C 135.3 92.1 134.7 92.2 134.3 92.2 C 133.5 92.2 132.9 92 132.5 91.8 C 132.1 91.6 131.8 91.2 131.6 90.8 C 131.4 90.5 131.3 89.6 131.3 88.4 C 131.34 88.36 131.3 81.2 131.3 81.2 L 129.8 81.2 L 129.8 79.6 L 131.3 79.6 L 131.3 76.5 L 133.4 75.2 L 133.4 79.6 L 135.6 79.6 L 135.6 81.2 L 133.4 81.2 C 133.4 81.2 133.44 88.47 133.4 88.5 C 133.4 89.1 133.5 89.5 133.6 89.6 C 133.6 89.8 133.7 89.9 133.9 90 C 134.1 90.1 134.3 90.2 134.6 90.2 C 134.6 90.2 134.6 90.2 134.6 90.2 Z M 137.6 77.2 L 137.6 74.8 L 139.7 74.8 L 139.7 77.2 L 137.6 77.2 Z M 137.6 92 L 137.6 79.6 L 139.7 79.6 L 139.7 92 L 137.6 92 Z M 142.2 85.8 C 142.2 83.5 142.8 81.8 144.1 80.7 C 145.2 79.7 146.5 79.3 148 79.3 C 149.7 79.3 151.1 79.8 152.2 81 C 153.3 82.1 153.8 83.6 153.8 85.6 C 153.8 87.2 153.6 88.5 153.1 89.4 C 152.6 90.3 151.9 91 151 91.5 C 150.1 92 149.1 92.3 148 92.3 C 146.3 92.3 144.9 91.7 143.8 90.6 C 142.7 89.5 142.2 87.9 142.2 85.8 Z M 144.3 85.8 C 144.3 87.4 144.7 88.6 145.4 89.4 C 146.1 90.2 147 90.5 148 90.5 C 149.1 90.5 149.9 90.1 150.6 89.4 C 151.3 88.6 151.7 87.3 151.7 85.7 C 151.7 84.2 151.3 83 150.6 82.2 C 149.9 81.4 149 81 148 81 C 147 81 146.1 81.4 145.4 82.2 C 144.7 83 144.3 84.2 144.3 85.8 Z M 156.3 92 L 156.3 79.6 L 158.2 79.6 C 158.2 79.6 158.2 81.32 158.2 81.3 C 159.1 80 160.4 79.3 162.2 79.3 C 162.9 79.3 163.6 79.4 164.2 79.7 C 164.9 79.9 165.3 80.3 165.6 80.7 C 166 81.2 166.2 81.7 166.3 82.3 C 166.4 82.7 166.4 83.4 166.4 84.3 C 166.42 84.35 166.4 92 166.4 92 L 164.3 92 C 164.3 92 164.31 84.43 164.3 84.4 C 164.3 83.6 164.2 82.9 164.1 82.5 C 163.9 82.1 163.6 81.7 163.2 81.5 C 162.8 81.2 162.3 81.1 161.7 81.1 C 160.8 81.1 160 81.4 159.4 82 C 158.7 82.5 158.4 83.6 158.4 85.2 C 158.41 85.2 158.4 92 158.4 92 L 156.3 92 Z M 176.6 92 L 176.6 74.8 C 176.6 74.8 182.51 74.82 182.5 74.8 C 183.8 74.8 184.9 74.9 185.6 75.1 C 186.6 75.3 187.4 75.7 188.1 76.3 C 189 77.1 189.7 78 190.1 79.2 C 190.6 80.4 190.8 81.8 190.8 83.3 C 190.8 84.6 190.6 85.8 190.3 86.8 C 190 87.8 189.6 88.6 189.2 89.3 C 188.7 89.9 188.2 90.5 187.6 90.8 C 187 91.2 186.3 91.5 185.5 91.7 C 184.7 91.9 183.8 92 182.8 92 C 182.79 92 176.6 92 176.6 92 Z M 178.9 90 C 178.9 90 182.53 89.97 182.5 90 C 183.7 90 184.6 89.9 185.2 89.7 C 185.8 89.4 186.4 89.1 186.7 88.8 C 187.3 88.2 187.7 87.5 188 86.6 C 188.3 85.7 188.4 84.6 188.4 83.3 C 188.4 81.5 188.2 80.1 187.6 79.1 C 187 78.2 186.3 77.5 185.4 77.2 C 184.8 77 183.8 76.8 182.5 76.8 C 182.47 76.85 178.9 76.8 178.9 76.8 L 178.9 90 Z M 202.2 88 C 202.2 88 204.4 88.3 204.4 88.3 C 204 89.5 203.4 90.5 202.4 91.2 C 201.5 91.9 200.3 92.3 198.9 92.3 C 197.1 92.3 195.6 91.7 194.5 90.6 C 193.5 89.5 192.9 87.9 192.9 85.9 C 192.9 83.8 193.5 82.2 194.6 81 C 195.6 79.9 197 79.3 198.8 79.3 C 200.4 79.3 201.8 79.8 202.8 81 C 203.9 82.1 204.4 83.7 204.4 85.8 C 204.4 85.9 204.4 86.1 204.4 86.3 C 204.4 86.3 195.1 86.3 195.1 86.3 C 195.2 87.7 195.6 88.7 196.3 89.5 C 197 90.2 197.9 90.5 198.9 90.5 C 199.7 90.5 200.3 90.3 200.9 89.9 C 201.4 89.5 201.9 88.9 202.2 88 Z M 195.2 84.6 C 195.2 84.6 202.2 84.6 202.2 84.6 C 202.1 83.5 201.8 82.8 201.4 82.2 C 200.7 81.4 199.9 81 198.8 81 C 197.8 81 197 81.3 196.3 82 C 195.7 82.6 195.3 83.5 195.2 84.6 Z M 206.2 88.3 C 206.2 88.3 208.2 88 208.2 88 C 208.4 88.8 208.7 89.4 209.2 89.9 C 209.8 90.3 210.5 90.5 211.5 90.5 C 212.4 90.5 213.2 90.3 213.6 90 C 214.1 89.6 214.3 89.1 214.3 88.6 C 214.3 88.1 214.1 87.7 213.7 87.4 C 213.4 87.3 212.7 87 211.5 86.7 C 210 86.3 208.9 86 208.3 85.7 C 207.7 85.4 207.3 85 207 84.5 C 206.7 84 206.5 83.5 206.5 82.9 C 206.5 82.3 206.6 81.8 206.9 81.3 C 207.1 80.8 207.5 80.5 207.9 80.1 C 208.3 79.9 208.7 79.7 209.3 79.5 C 209.8 79.4 210.4 79.3 211.1 79.3 C 212.1 79.3 212.9 79.4 213.7 79.7 C 214.4 80 214.9 80.4 215.3 80.8 C 215.6 81.3 215.9 82 216 82.8 C 216 82.8 214 83 214 83 C 213.9 82.4 213.6 81.9 213.1 81.5 C 212.7 81.2 212.1 81 211.2 81 C 210.3 81 209.6 81.2 209.2 81.5 C 208.8 81.8 208.5 82.2 208.5 82.6 C 208.5 82.9 208.6 83.1 208.8 83.4 C 209 83.6 209.2 83.8 209.6 83.9 C 209.8 84 210.4 84.2 211.5 84.5 C 213 84.9 214 85.2 214.6 85.4 C 215.2 85.7 215.7 86.1 216 86.5 C 216.3 87 216.5 87.6 216.5 88.3 C 216.5 89 216.3 89.7 215.9 90.3 C 215.5 91 214.9 91.4 214.1 91.8 C 213.3 92.1 212.5 92.3 211.5 92.3 C 209.9 92.3 208.6 91.9 207.8 91.3 C 206.9 90.6 206.4 89.6 206.2 88.3 Z M 219 77.2 L 219 74.8 L 221.1 74.8 L 221.1 77.2 L 219 77.2 Z M 219 92 L 219 79.6 L 221.1 79.6 L 221.1 92 L 219 92 Z M 223.9 93 C 223.9 93 226 93.3 226 93.3 C 226.1 94 226.3 94.4 226.7 94.7 C 227.2 95.1 227.9 95.3 228.9 95.3 C 229.8 95.3 230.6 95.1 231.1 94.7 C 231.6 94.3 232 93.8 232.2 93.1 C 232.3 92.6 232.4 91.7 232.3 90.4 C 231.4 91.5 230.3 92 228.9 92 C 227.2 92 225.9 91.4 224.9 90.1 C 224 88.9 223.5 87.4 223.5 85.7 C 223.5 84.5 223.7 83.4 224.2 82.4 C 224.6 81.4 225.2 80.6 226 80.1 C 226.9 79.5 227.8 79.3 228.9 79.3 C 230.4 79.3 231.6 79.9 232.5 81.1 C 232.55 81.05 232.5 79.6 232.5 79.6 L 234.5 79.6 C 234.5 79.6 234.49 90.31 234.5 90.3 C 234.5 92.2 234.3 93.6 233.9 94.4 C 233.5 95.2 232.9 95.9 232 96.3 C 231.2 96.8 230.1 97.1 228.9 97.1 C 227.4 97.1 226.2 96.7 225.3 96 C 224.4 95.4 223.9 94.4 223.9 93 Z M 225.7 85.6 C 225.7 87.2 226 88.4 226.7 89.1 C 227.3 89.9 228.1 90.3 229.1 90.3 C 230.1 90.3 230.9 89.9 231.5 89.1 C 232.2 88.4 232.5 87.2 232.5 85.6 C 232.5 84.1 232.2 83 231.5 82.2 C 230.8 81.4 230 81 229.1 81 C 228.1 81 227.3 81.4 226.7 82.2 C 226 82.9 225.7 84.1 225.7 85.6 Z M 237.7 92 L 237.7 79.6 L 239.6 79.6 C 239.6 79.6 239.58 81.32 239.6 81.3 C 240.5 80 241.8 79.3 243.5 79.3 C 244.3 79.3 245 79.4 245.6 79.7 C 246.2 79.9 246.7 80.3 247 80.7 C 247.3 81.2 247.6 81.7 247.7 82.3 C 247.8 82.7 247.8 83.4 247.8 84.3 C 247.79 84.35 247.8 92 247.8 92 L 245.7 92 C 245.7 92 245.68 84.43 245.7 84.4 C 245.7 83.6 245.6 82.9 245.4 82.5 C 245.3 82.1 245 81.7 244.6 81.5 C 244.1 81.2 243.7 81.1 243.1 81.1 C 242.2 81.1 241.4 81.4 240.8 82 C 240.1 82.5 239.8 83.6 239.8 85.2 C 239.79 85.2 239.8 92 239.8 92 L 237.7 92 Z M 266.2 92 C 266 91.6 265.9 91.1 265.8 90.5 C 265 91.1 264.3 91.6 263.6 91.9 C 262.8 92.1 262.1 92.3 261.2 92.3 C 259.9 92.3 258.8 91.9 258.1 91.3 C 257.3 90.6 257 89.8 257 88.7 C 257 88.1 257.1 87.6 257.4 87 C 257.7 86.5 258 86.1 258.5 85.8 C 258.9 85.5 259.4 85.3 260 85.1 C 260.4 85 261 84.9 261.9 84.8 C 263.6 84.6 264.8 84.4 265.6 84.1 C 265.6 83.8 265.7 83.6 265.7 83.6 C 265.7 82.7 265.5 82.1 265.1 81.7 C 264.5 81.3 263.7 81 262.7 81 C 261.7 81 260.9 81.2 260.5 81.5 C 260 81.9 259.6 82.5 259.4 83.4 C 259.4 83.4 257.3 83.1 257.3 83.1 C 257.5 82.2 257.8 81.5 258.3 81 C 258.7 80.4 259.3 80 260.1 79.7 C 260.9 79.4 261.9 79.3 263 79.3 C 264 79.3 264.9 79.4 265.5 79.6 C 266.2 79.9 266.7 80.2 267 80.6 C 267.3 81 267.5 81.4 267.7 82 C 267.7 82.4 267.8 83 267.8 84 C 267.8 84 267.8 86.8 267.8 86.8 C 267.8 88.7 267.8 90 267.9 90.5 C 268 91 268.2 91.5 268.4 92 C 268.44 92 266.2 92 266.2 92 C 266.2 92 266.24 92 266.2 92 Z M 265.6 85.8 C 264.9 86.1 263.7 86.3 262.2 86.6 C 261.3 86.7 260.7 86.8 260.4 87 C 260 87.1 259.7 87.4 259.5 87.7 C 259.3 88 259.2 88.3 259.2 88.7 C 259.2 89.2 259.4 89.7 259.9 90.1 C 260.3 90.4 260.9 90.6 261.7 90.6 C 262.6 90.6 263.3 90.5 263.9 90.1 C 264.5 89.7 265 89.3 265.3 88.6 C 265.5 88.2 265.6 87.5 265.6 86.5 C 265.6 86.5 265.6 85.8 265.6 85.8 Z M 271 92 L 271 79.6 L 272.9 79.6 C 272.9 79.6 272.94 81.32 272.9 81.3 C 273.9 80 275.2 79.3 276.9 79.3 C 277.7 79.3 278.3 79.4 279 79.7 C 279.6 79.9 280.1 80.3 280.4 80.7 C 280.7 81.2 280.9 81.7 281 82.3 C 281.1 82.7 281.2 83.4 281.2 84.3 C 281.16 84.35 281.2 92 281.2 92 L 279 92 C 279 92 279.05 84.43 279 84.4 C 279 83.6 279 82.9 278.8 82.5 C 278.6 82.1 278.3 81.7 277.9 81.5 C 277.5 81.2 277 81.1 276.5 81.1 C 275.6 81.1 274.8 81.4 274.1 82 C 273.5 82.5 273.2 83.6 273.2 85.2 C 273.15 85.2 273.2 92 273.2 92 L 271 92 Z M 292.5 92 C 292.5 92 292.46 90.43 292.5 90.4 C 291.7 91.7 290.5 92.3 289 92.3 C 288 92.3 287.1 92 286.2 91.5 C 285.4 90.9 284.8 90.2 284.3 89.2 C 283.9 88.2 283.6 87.1 283.6 85.8 C 283.6 84.5 283.8 83.4 284.3 82.4 C 284.7 81.4 285.3 80.6 286.1 80.1 C 286.9 79.5 287.9 79.3 288.9 79.3 C 289.6 79.3 290.3 79.4 290.9 79.7 C 291.5 80.1 292 80.5 292.3 81 C 292.32 80.98 292.3 74.8 292.3 74.8 L 294.4 74.8 L 294.4 92 L 292.5 92 Z M 285.8 85.8 C 285.8 87.4 286.1 88.6 286.8 89.4 C 287.5 90.2 288.3 90.5 289.2 90.5 C 290.1 90.5 290.9 90.2 291.5 89.4 C 292.2 88.7 292.5 87.5 292.5 86 C 292.5 84.3 292.2 83 291.5 82.2 C 290.9 81.4 290.1 81 289.1 81 C 288.2 81 287.4 81.4 286.7 82.2 C 286.1 82.9 285.8 84.1 285.8 85.8 Z M 316.9 86 C 316.9 86 319.2 86.6 319.2 86.6 C 318.7 88.4 317.9 89.8 316.6 90.8 C 315.4 91.8 313.9 92.3 312.1 92.3 C 310.2 92.3 308.7 91.9 307.6 91.2 C 306.4 90.4 305.5 89.3 304.9 87.9 C 304.3 86.5 304 84.9 304 83.3 C 304 81.5 304.4 79.9 305 78.6 C 305.7 77.3 306.7 76.3 308 75.6 C 309.2 74.9 310.6 74.5 312.1 74.5 C 313.8 74.5 315.3 75 316.5 75.8 C 317.6 76.7 318.5 77.9 318.9 79.5 C 318.9 79.5 316.7 80.1 316.7 80.1 C 316.3 78.8 315.7 77.9 314.9 77.3 C 314.2 76.8 313.2 76.5 312.1 76.5 C 310.8 76.5 309.7 76.8 308.8 77.4 C 307.9 78.1 307.3 78.9 306.9 80 C 306.5 81 306.4 82.1 306.4 83.3 C 306.4 84.7 306.6 86 307 87.1 C 307.4 88.2 308.1 89 309 89.5 C 309.9 90.1 310.9 90.3 311.9 90.3 C 313.2 90.3 314.3 90 315.1 89.2 C 316 88.5 316.6 87.4 316.9 86 Z M 330.3 88 C 330.3 88 332.4 88.3 332.4 88.3 C 332.1 89.5 331.5 90.5 330.5 91.2 C 329.6 91.9 328.4 92.3 327 92.3 C 325.1 92.3 323.7 91.7 322.6 90.6 C 321.6 89.5 321 87.9 321 85.9 C 321 83.8 321.6 82.2 322.7 81 C 323.7 79.9 325.1 79.3 326.8 79.3 C 328.5 79.3 329.9 79.8 330.9 81 C 332 82.1 332.5 83.7 332.5 85.8 C 332.5 85.9 332.5 86.1 332.5 86.3 C 332.5 86.3 323.2 86.3 323.2 86.3 C 323.3 87.7 323.7 88.7 324.4 89.5 C 325.1 90.2 325.9 90.5 327 90.5 C 327.8 90.5 328.4 90.3 329 89.9 C 329.5 89.5 329.9 88.9 330.3 88 Z M 323.3 84.6 C 323.3 84.6 330.3 84.6 330.3 84.6 C 330.2 83.5 329.9 82.8 329.5 82.2 C 328.8 81.4 327.9 81 326.9 81 C 325.9 81 325.1 81.3 324.4 82 C 323.8 82.6 323.4 83.5 323.3 84.6 Z M 335.1 92 L 335.1 79.6 L 337 79.6 C 337 79.6 336.96 81.44 337 81.4 C 337.4 80.6 337.9 80 338.3 79.7 C 338.7 79.4 339.2 79.3 339.7 79.3 C 340.4 79.3 341.1 79.5 341.8 80 C 341.8 80 341.1 81.9 341.1 81.9 C 340.6 81.6 340.1 81.5 339.6 81.5 C 339.1 81.5 338.7 81.6 338.3 81.9 C 337.9 82.1 337.7 82.5 337.5 83 C 337.3 83.8 337.2 84.6 337.2 85.5 C 337.17 85.48 337.2 92 337.2 92 L 335.1 92 Z M 346.8 90.2 C 347 90.2 347.3 90.2 347.7 90.1 C 347.7 90.1 348 92 348 92 C 347.4 92.1 346.9 92.2 346.4 92.2 C 345.6 92.2 345 92 344.6 91.8 C 344.2 91.6 343.9 91.2 343.7 90.8 C 343.6 90.5 343.5 89.6 343.5 88.4 C 343.46 88.36 343.5 81.2 343.5 81.2 L 341.9 81.2 L 341.9 79.6 L 343.5 79.6 L 343.5 76.5 L 345.6 75.2 L 345.6 79.6 L 347.7 79.6 L 347.7 81.2 L 345.6 81.2 C 345.6 81.2 345.56 88.47 345.6 88.5 C 345.6 89.1 345.6 89.5 345.7 89.6 C 345.7 89.8 345.9 89.9 346 90 C 346.2 90.1 346.4 90.2 346.8 90.2 C 346.8 90.2 346.8 90.2 346.8 90.2 Z M 349.8 77.2 L 349.8 74.8 L 351.9 74.8 L 351.9 77.2 L 349.8 77.2 Z M 349.8 92 L 349.8 79.6 L 351.9 79.6 L 351.9 92 L 349.8 92 Z M 355.6 92 L 355.6 81.2 L 353.8 81.2 L 353.8 79.6 L 355.6 79.6 C 355.6 79.6 355.64 78.35 355.6 78.3 C 355.6 77.1 355.9 76.2 356.4 75.5 C 357 74.9 357.8 74.5 359 74.5 C 359.7 74.5 360.4 74.6 361.1 74.8 C 361.1 74.8 360.8 76.6 360.8 76.6 C 360.4 76.5 360 76.5 359.6 76.5 C 358.9 76.5 358.4 76.6 358.1 76.9 C 357.9 77.2 357.8 77.8 357.8 78.7 C 357.75 78.75 357.8 79.6 357.8 79.6 L 360.2 79.6 L 360.2 81.2 L 357.8 81.2 L 357.8 92 L 355.6 92 Z M 361.8 77.2 L 361.8 74.8 L 363.9 74.8 L 363.9 77.2 L 361.8 77.2 Z M 361.8 92 L 361.8 79.6 L 363.9 79.6 L 363.9 92 L 361.8 92 Z M 375.2 87.4 C 375.2 87.4 377.3 87.7 377.3 87.7 C 377 89.1 376.5 90.3 375.5 91.1 C 374.6 91.9 373.5 92.3 372.1 92.3 C 370.4 92.3 369 91.7 368 90.6 C 367 89.5 366.4 87.9 366.4 85.8 C 366.4 84.5 366.7 83.3 367.1 82.3 C 367.5 81.3 368.2 80.5 369.1 80 C 370 79.5 371 79.3 372.1 79.3 C 373.5 79.3 374.6 79.6 375.4 80.3 C 376.3 81 376.8 82 377.1 83.2 C 377.1 83.2 375 83.5 375 83.5 C 374.8 82.7 374.5 82.1 374 81.6 C 373.5 81.2 372.9 81 372.2 81 C 371.1 81 370.3 81.4 369.6 82.2 C 368.9 82.9 368.6 84.1 368.6 85.8 C 368.6 87.4 368.9 88.7 369.6 89.4 C 370.2 90.2 371 90.5 372.1 90.5 C 372.9 90.5 373.6 90.3 374.1 89.8 C 374.7 89.3 375.1 88.5 375.2 87.4 Z M 387.6 92 C 387.4 91.6 387.3 91.1 387.2 90.5 C 386.4 91.1 385.7 91.6 384.9 91.9 C 384.2 92.1 383.4 92.3 382.6 92.3 C 381.2 92.3 380.2 91.9 379.5 91.3 C 378.7 90.6 378.4 89.8 378.4 88.7 C 378.4 88.1 378.5 87.6 378.8 87 C 379.1 86.5 379.4 86.1 379.9 85.8 C 380.3 85.5 380.8 85.3 381.4 85.1 C 381.8 85 382.4 84.9 383.3 84.8 C 385 84.6 386.2 84.4 387 84.1 C 387 83.8 387 83.6 387 83.6 C 387 82.7 386.8 82.1 386.4 81.7 C 385.9 81.3 385.1 81 384 81 C 383 81 382.3 81.2 381.8 81.5 C 381.4 81.9 381 82.5 380.8 83.4 C 380.8 83.4 378.7 83.1 378.7 83.1 C 378.9 82.2 379.2 81.5 379.7 81 C 380.1 80.4 380.7 80 381.5 79.7 C 382.3 79.4 383.3 79.3 384.3 79.3 C 385.4 79.3 386.3 79.4 386.9 79.6 C 387.6 79.9 388.1 80.2 388.4 80.6 C 388.7 81 388.9 81.4 389.1 82 C 389.1 82.4 389.2 83 389.2 84 C 389.2 84 389.2 86.8 389.2 86.8 C 389.2 88.7 389.2 90 389.3 90.5 C 389.4 91 389.6 91.5 389.8 92 C 389.82 92 387.6 92 387.6 92 C 387.6 92 387.62 92 387.6 92 Z M 387 85.8 C 386.3 86.1 385.1 86.3 383.6 86.6 C 382.7 86.7 382.1 86.8 381.7 87 C 381.4 87.1 381.1 87.4 380.9 87.7 C 380.7 88 380.6 88.3 380.6 88.7 C 380.6 89.2 380.8 89.7 381.3 90.1 C 381.7 90.4 382.3 90.6 383.1 90.6 C 383.9 90.6 384.7 90.5 385.3 90.1 C 385.9 89.7 386.4 89.3 386.7 88.6 C 386.9 88.2 387 87.5 387 86.5 C 387 86.5 387 85.8 387 85.8 Z M 396.1 90.2 C 396.3 90.2 396.6 90.2 397 90.1 C 397 90.1 397.3 92 397.3 92 C 396.7 92.1 396.2 92.2 395.7 92.2 C 395 92.2 394.4 92 394 91.8 C 393.5 91.6 393.2 91.2 393.1 90.8 C 392.9 90.5 392.8 89.6 392.8 88.4 C 392.81 88.36 392.8 81.2 392.8 81.2 L 391.3 81.2 L 391.3 79.6 L 392.8 79.6 L 392.8 76.5 L 394.9 75.2 L 394.9 79.6 L 397 79.6 L 397 81.2 L 394.9 81.2 C 394.9 81.2 394.91 88.47 394.9 88.5 C 394.9 89.1 394.9 89.5 395 89.6 C 395.1 89.8 395.2 89.9 395.4 90 C 395.6 90.1 395.8 90.2 396.1 90.2 C 396.1 90.2 396.1 90.2 396.1 90.2 Z M 399.1 77.2 L 399.1 74.8 L 401.2 74.8 L 401.2 77.2 L 399.1 77.2 Z M 399.1 92 L 399.1 79.6 L 401.2 79.6 L 401.2 92 L 399.1 92 Z M 403.6 85.8 C 403.6 83.5 404.3 81.8 405.6 80.7 C 406.6 79.7 407.9 79.3 409.5 79.3 C 411.2 79.3 412.6 79.8 413.7 81 C 414.8 82.1 415.3 83.6 415.3 85.6 C 415.3 87.2 415.1 88.5 414.6 89.4 C 414.1 90.3 413.4 91 412.5 91.5 C 411.6 92 410.6 92.3 409.5 92.3 C 407.7 92.3 406.3 91.7 405.3 90.6 C 404.2 89.5 403.6 87.9 403.6 85.8 Z M 405.8 85.8 C 405.8 87.4 406.2 88.6 406.9 89.4 C 407.5 90.2 408.4 90.5 409.5 90.5 C 410.5 90.5 411.4 90.1 412.1 89.4 C 412.8 88.6 413.1 87.3 413.1 85.7 C 413.1 84.2 412.8 83 412.1 82.2 C 411.4 81.4 410.5 81 409.5 81 C 408.4 81 407.5 81.4 406.9 82.2 C 406.2 83 405.8 84.2 405.8 85.8 Z M 417.8 92 L 417.8 79.6 L 419.7 79.6 C 419.7 79.6 419.67 81.32 419.7 81.3 C 420.6 80 421.9 79.3 423.6 79.3 C 424.4 79.3 425.1 79.4 425.7 79.7 C 426.3 79.9 426.8 80.3 427.1 80.7 C 427.4 81.2 427.6 81.7 427.8 82.3 C 427.8 82.7 427.9 83.4 427.9 84.3 C 427.89 84.35 427.9 92 427.9 92 L 425.8 92 C 425.8 92 425.78 84.43 425.8 84.4 C 425.8 83.6 425.7 82.9 425.5 82.5 C 425.4 82.1 425.1 81.7 424.7 81.5 C 424.2 81.2 423.8 81.1 423.2 81.1 C 422.3 81.1 421.5 81.4 420.9 82 C 420.2 82.5 419.9 83.6 419.9 85.2 C 419.88 85.2 419.9 92 419.9 92 L 417.8 92 Z " stroke="none" fill="#000"/>  </g>  <g id="Polygon17530">    <path d="M 1.6 84.2 C 1.6 83.7 1.7 83.2 1.9 82.7 C 2.1 82.2 2.4 81.8 2.8 81.5 C 3.1 81.1 3.5 80.8 4 80.6 C 4.5 80.4 5 80.3 5.5 80.3 C 6 80.3 6.5 80.4 7 80.6 C 7.5 80.8 7.9 81.1 8.3 81.5 C 8.6 81.8 8.9 82.2 9.1 82.7 C 9.3 83.2 9.4 83.7 9.4 84.2 C 9.4 84.8 9.3 85.3 9.1 85.7 C 8.9 86.2 8.6 86.6 8.3 87 C 7.9 87.3 7.5 87.6 7 87.8 C 6.5 88 6 88.1 5.5 88.1 C 5 88.1 4.5 88 4 87.8 C 3.5 87.6 3.1 87.3 2.8 87 C 2.4 86.6 2.1 86.2 1.9 85.7 C 1.7 85.3 1.6 84.8 1.6 84.2 Z " stroke="none" fill="#f28620"/>  </g>  <g id="Polygon17529">    <path d="M 36 57 L 42.6 39.8 L 45 39.8 L 52 57 L 49.5 57 L 47.4 51.8 L 40.3 51.8 L 38.4 57 L 36 57 Z M 40.9 49.9 L 46.7 49.9 C 46.7 49.9 44.95 45.19 45 45.2 C 44.4 43.7 44 42.6 43.7 41.6 C 43.5 42.7 43.2 43.8 42.8 44.9 C 42.81 44.91 40.9 49.9 40.9 49.9 Z M 52.7 53.3 C 52.7 53.3 54.8 53 54.8 53 C 54.9 53.8 55.3 54.4 55.8 54.9 C 56.3 55.3 57.1 55.5 58.1 55.5 C 59 55.5 59.7 55.3 60.2 55 C 60.7 54.6 60.9 54.1 60.9 53.6 C 60.9 53.1 60.7 52.7 60.3 52.4 C 60 52.3 59.3 52 58.1 51.7 C 56.6 51.3 55.5 51 54.9 50.7 C 54.3 50.4 53.9 50 53.6 49.5 C 53.3 49 53.1 48.5 53.1 47.9 C 53.1 47.3 53.2 46.8 53.5 46.3 C 53.7 45.8 54.1 45.5 54.5 45.1 C 54.8 44.9 55.3 44.7 55.9 44.5 C 56.4 44.4 57 44.3 57.7 44.3 C 58.7 44.3 59.5 44.4 60.3 44.7 C 61 45 61.5 45.4 61.9 45.8 C 62.2 46.3 62.5 47 62.6 47.8 C 62.6 47.8 60.6 48 60.6 48 C 60.5 47.4 60.2 46.9 59.7 46.5 C 59.3 46.2 58.7 46 57.8 46 C 56.9 46 56.2 46.2 55.8 46.5 C 55.3 46.8 55.1 47.2 55.1 47.6 C 55.1 47.9 55.2 48.1 55.4 48.4 C 55.6 48.6 55.8 48.8 56.2 48.9 C 56.4 49 57 49.2 58.1 49.5 C 59.6 49.9 60.6 50.2 61.2 50.4 C 61.8 50.7 62.2 51.1 62.6 51.5 C 62.9 52 63.1 52.6 63.1 53.3 C 63.1 54 62.9 54.7 62.5 55.3 C 62.1 56 61.5 56.4 60.7 56.8 C 59.9 57.1 59 57.3 58.1 57.3 C 56.4 57.3 55.2 56.9 54.4 56.3 C 53.5 55.6 53 54.6 52.7 53.3 Z M 64.7 53.3 C 64.7 53.3 66.8 53 66.8 53 C 66.9 53.8 67.3 54.4 67.8 54.9 C 68.3 55.3 69.1 55.5 70.1 55.5 C 71 55.5 71.7 55.3 72.2 55 C 72.7 54.6 72.9 54.1 72.9 53.6 C 72.9 53.1 72.7 52.7 72.3 52.4 C 72 52.3 71.3 52 70.1 51.7 C 68.6 51.3 67.5 51 66.9 50.7 C 66.3 50.4 65.9 50 65.6 49.5 C 65.3 49 65.1 48.5 65.1 47.9 C 65.1 47.3 65.2 46.8 65.5 46.3 C 65.7 45.8 66.1 45.5 66.5 45.1 C 66.8 44.9 67.3 44.7 67.9 44.5 C 68.4 44.4 69 44.3 69.7 44.3 C 70.7 44.3 71.5 44.4 72.3 44.7 C 73 45 73.5 45.4 73.9 45.8 C 74.2 46.3 74.5 47 74.6 47.8 C 74.6 47.8 72.6 48 72.6 48 C 72.5 47.4 72.2 46.9 71.7 46.5 C 71.3 46.2 70.7 46 69.8 46 C 68.9 46 68.2 46.2 67.8 46.5 C 67.3 46.8 67.1 47.2 67.1 47.6 C 67.1 47.9 67.2 48.1 67.4 48.4 C 67.6 48.6 67.8 48.8 68.2 48.9 C 68.4 49 69 49.2 70.1 49.5 C 71.6 49.9 72.6 50.2 73.2 50.4 C 73.8 50.7 74.2 51.1 74.6 51.5 C 74.9 52 75.1 52.6 75.1 53.3 C 75.1 54 74.9 54.7 74.5 55.3 C 74.1 56 73.5 56.4 72.7 56.8 C 71.9 57.1 71 57.3 70.1 57.3 C 68.4 57.3 67.2 56.9 66.4 56.3 C 65.5 55.6 65 54.6 64.7 53.3 Z M 86.1 53 C 86.1 53 88.3 53.3 88.3 53.3 C 87.9 54.5 87.3 55.5 86.4 56.2 C 85.4 56.9 84.3 57.3 82.8 57.3 C 81 57.3 79.6 56.7 78.5 55.6 C 77.4 54.5 76.9 52.9 76.9 50.9 C 76.9 48.8 77.4 47.2 78.5 46 C 79.6 44.9 81 44.3 82.7 44.3 C 84.4 44.3 85.7 44.8 86.8 46 C 87.8 47.1 88.4 48.7 88.4 50.8 C 88.4 50.9 88.4 51.1 88.3 51.3 C 88.3 51.3 79.1 51.3 79.1 51.3 C 79.1 52.7 79.5 53.7 80.2 54.5 C 80.9 55.2 81.8 55.5 82.8 55.5 C 83.6 55.5 84.3 55.3 84.8 54.9 C 85.4 54.5 85.8 53.9 86.1 53 Z M 79.2 49.6 C 79.2 49.6 86.1 49.6 86.1 49.6 C 86 48.5 85.8 47.8 85.3 47.2 C 84.7 46.4 83.8 46 82.7 46 C 81.8 46 80.9 46.3 80.3 47 C 79.6 47.6 79.3 48.5 79.2 49.6 Z M 90.1 53.3 C 90.1 53.3 92.2 53 92.2 53 C 92.3 53.8 92.6 54.4 93.2 54.9 C 93.7 55.3 94.4 55.5 95.4 55.5 C 96.4 55.5 97.1 55.3 97.6 55 C 98 54.6 98.3 54.1 98.3 53.6 C 98.3 53.1 98.1 52.7 97.6 52.4 C 97.4 52.3 96.6 52 95.5 51.7 C 93.9 51.3 92.9 51 92.3 50.7 C 91.7 50.4 91.2 50 90.9 49.5 C 90.6 49 90.4 48.5 90.4 47.9 C 90.4 47.3 90.6 46.8 90.8 46.3 C 91.1 45.8 91.4 45.5 91.9 45.1 C 92.2 44.9 92.6 44.7 93.2 44.5 C 93.8 44.4 94.4 44.3 95 44.3 C 96 44.3 96.9 44.4 97.6 44.7 C 98.3 45 98.9 45.4 99.2 45.8 C 99.6 46.3 99.8 47 100 47.8 C 100 47.8 97.9 48 97.9 48 C 97.8 47.4 97.5 46.9 97.1 46.5 C 96.6 46.2 96 46 95.2 46 C 94.2 46 93.5 46.2 93.1 46.5 C 92.7 46.8 92.5 47.2 92.5 47.6 C 92.5 47.9 92.6 48.1 92.7 48.4 C 92.9 48.6 93.2 48.8 93.6 48.9 C 93.8 49 94.4 49.2 95.4 49.5 C 96.9 49.9 97.9 50.2 98.5 50.4 C 99.1 50.7 99.6 51.1 99.9 51.5 C 100.3 52 100.4 52.6 100.4 53.3 C 100.4 54 100.2 54.7 99.8 55.3 C 99.4 56 98.8 56.4 98 56.8 C 97.3 57.1 96.4 57.3 95.4 57.3 C 93.8 57.3 92.6 56.9 91.7 56.3 C 90.9 55.6 90.3 54.6 90.1 53.3 Z M 102.1 53.3 C 102.1 53.3 104.2 53 104.2 53 C 104.3 53.8 104.6 54.4 105.2 54.9 C 105.7 55.3 106.4 55.5 107.4 55.5 C 108.4 55.5 109.1 55.3 109.6 55 C 110 54.6 110.3 54.1 110.3 53.6 C 110.3 53.1 110.1 52.7 109.6 52.4 C 109.4 52.3 108.6 52 107.5 51.7 C 105.9 51.3 104.9 51 104.3 50.7 C 103.7 50.4 103.2 50 102.9 49.5 C 102.6 49 102.4 48.5 102.4 47.9 C 102.4 47.3 102.6 46.8 102.8 46.3 C 103.1 45.8 103.4 45.5 103.9 45.1 C 104.2 44.9 104.6 44.7 105.2 44.5 C 105.8 44.4 106.4 44.3 107 44.3 C 108 44.3 108.9 44.4 109.6 44.7 C 110.3 45 110.9 45.4 111.2 45.8 C 111.6 46.3 111.8 47 112 47.8 C 112 47.8 109.9 48 109.9 48 C 109.8 47.4 109.5 46.9 109.1 46.5 C 108.6 46.2 108 46 107.2 46 C 106.2 46 105.5 46.2 105.1 46.5 C 104.7 46.8 104.5 47.2 104.5 47.6 C 104.5 47.9 104.6 48.1 104.7 48.4 C 104.9 48.6 105.2 48.8 105.6 48.9 C 105.8 49 106.4 49.2 107.4 49.5 C 108.9 49.9 109.9 50.2 110.5 50.4 C 111.1 50.7 111.6 51.1 111.9 51.5 C 112.3 52 112.4 52.6 112.4 53.3 C 112.4 54 112.2 54.7 111.8 55.3 C 111.4 56 110.8 56.4 110 56.8 C 109.3 57.1 108.4 57.3 107.4 57.3 C 105.8 57.3 104.6 56.9 103.7 56.3 C 102.9 55.6 102.3 54.6 102.1 53.3 Z M 114.9 57 L 114.9 44.6 L 116.8 44.6 C 116.8 44.6 116.82 46.3 116.8 46.3 C 117.2 45.7 117.7 45.2 118.4 44.8 C 119 44.5 119.8 44.3 120.6 44.3 C 121.5 44.3 122.3 44.5 122.9 44.8 C 123.5 45.2 123.9 45.8 124.1 46.5 C 125.1 45 126.4 44.3 128 44.3 C 129.2 44.3 130.1 44.6 130.8 45.3 C 131.5 46 131.8 47 131.8 48.5 C 131.8 48.46 131.8 57 131.8 57 L 129.7 57 C 129.7 57 129.7 49.16 129.7 49.2 C 129.7 48.3 129.6 47.7 129.5 47.3 C 129.4 47 129.1 46.7 128.8 46.4 C 128.4 46.2 128 46.1 127.5 46.1 C 126.6 46.1 125.9 46.4 125.3 47 C 124.7 47.6 124.4 48.5 124.4 49.8 C 124.44 49.77 124.4 57 124.4 57 L 122.3 57 C 122.3 57 122.33 48.91 122.3 48.9 C 122.3 48 122.2 47.3 121.8 46.8 C 121.5 46.3 120.9 46.1 120.1 46.1 C 119.5 46.1 119 46.3 118.5 46.6 C 118 46.9 117.6 47.3 117.4 47.9 C 117.2 48.5 117 49.4 117 50.5 C 117.05 50.54 117 57 117 57 L 114.9 57 Z M 143.4 53 C 143.4 53 145.6 53.3 145.6 53.3 C 145.3 54.5 144.6 55.5 143.7 56.2 C 142.8 56.9 141.6 57.3 140.2 57.3 C 138.3 57.3 136.9 56.7 135.8 55.6 C 134.8 54.5 134.2 52.9 134.2 50.9 C 134.2 48.8 134.8 47.2 135.8 46 C 136.9 44.9 138.3 44.3 140 44.3 C 141.7 44.3 143.1 44.8 144.1 46 C 145.2 47.1 145.7 48.7 145.7 50.8 C 145.7 50.9 145.7 51.1 145.7 51.3 C 145.7 51.3 136.4 51.3 136.4 51.3 C 136.5 52.7 136.9 53.7 137.6 54.5 C 138.3 55.2 139.1 55.5 140.2 55.5 C 140.9 55.5 141.6 55.3 142.1 54.9 C 142.7 54.5 143.1 53.9 143.4 53 Z M 136.5 49.6 C 136.5 49.6 143.5 49.6 143.5 49.6 C 143.4 48.5 143.1 47.8 142.7 47.2 C 142 46.4 141.1 46 140.1 46 C 139.1 46 138.3 46.3 137.6 47 C 137 47.6 136.6 48.5 136.5 49.6 Z M 148.3 57 L 148.3 44.6 L 150.2 44.6 C 150.2 44.6 150.18 46.32 150.2 46.3 C 151.1 45 152.4 44.3 154.1 44.3 C 154.9 44.3 155.6 44.4 156.2 44.7 C 156.8 44.9 157.3 45.3 157.6 45.7 C 157.9 46.2 158.1 46.7 158.3 47.3 C 158.4 47.7 158.4 48.4 158.4 49.3 C 158.39 49.35 158.4 57 158.4 57 L 156.3 57 C 156.3 57 156.28 49.43 156.3 49.4 C 156.3 48.6 156.2 47.9 156 47.5 C 155.9 47.1 155.6 46.7 155.2 46.5 C 154.7 46.2 154.3 46.1 153.7 46.1 C 152.8 46.1 152 46.4 151.4 47 C 150.7 47.5 150.4 48.6 150.4 50.2 C 150.39 50.2 150.4 57 150.4 57 L 148.3 57 Z M 165.3 55.2 C 165.5 55.2 165.8 55.2 166.2 55.1 C 166.2 55.1 166.5 57 166.5 57 C 165.9 57.1 165.4 57.2 164.9 57.2 C 164.2 57.2 163.6 57 163.2 56.8 C 162.7 56.6 162.4 56.2 162.3 55.8 C 162.1 55.5 162 54.6 162 53.4 C 162.01 53.36 162 46.2 162 46.2 L 160.5 46.2 L 160.5 44.6 L 162 44.6 L 162 41.5 L 164.1 40.2 L 164.1 44.6 L 166.2 44.6 L 166.2 46.2 L 164.1 46.2 C 164.1 46.2 164.11 53.47 164.1 53.5 C 164.1 54.1 164.1 54.5 164.2 54.6 C 164.3 54.8 164.4 54.9 164.6 55 C 164.8 55.1 165 55.2 165.3 55.2 C 165.3 55.2 165.3 55.2 165.3 55.2 Z M 173.8 50.8 C 173.8 48.5 174.5 46.8 175.8 45.7 C 176.8 44.7 178.1 44.3 179.7 44.3 C 181.4 44.3 182.8 44.8 183.9 46 C 185 47.1 185.5 48.6 185.5 50.6 C 185.5 52.2 185.3 53.5 184.8 54.4 C 184.3 55.3 183.6 56 182.7 56.5 C 181.8 57 180.8 57.3 179.7 57.3 C 177.9 57.3 176.5 56.7 175.5 55.6 C 174.4 54.5 173.8 52.9 173.8 50.8 Z M 176 50.8 C 176 52.4 176.4 53.6 177.1 54.4 C 177.8 55.2 178.6 55.5 179.7 55.5 C 180.7 55.5 181.6 55.1 182.3 54.4 C 183 53.6 183.3 52.3 183.3 50.7 C 183.3 49.2 183 48 182.3 47.2 C 181.6 46.4 180.7 46 179.7 46 C 178.6 46 177.8 46.4 177.1 47.2 C 176.4 48 176 49.2 176 50.8 Z M 188.5 57 L 188.5 46.2 L 186.6 46.2 L 186.6 44.6 L 188.5 44.6 C 188.5 44.6 188.48 43.23 188.5 43.2 C 188.5 42.4 188.6 41.8 188.7 41.4 C 188.9 40.8 189.3 40.4 189.8 40 C 190.3 39.7 191 39.5 191.9 39.5 C 192.5 39.5 193.2 39.6 193.9 39.7 C 193.9 39.7 193.6 41.6 193.6 41.6 C 193.1 41.5 192.7 41.5 192.3 41.5 C 191.7 41.5 191.2 41.6 191 41.9 C 190.7 42.1 190.6 42.7 190.6 43.4 C 190.58 43.41 190.6 44.6 190.6 44.6 L 193 44.6 L 193 46.2 L 190.6 46.2 L 190.6 57 L 188.5 57 Z M 200.6 48.6 C 200.6 45.8 201.3 43.5 202.9 41.9 C 204.4 40.3 206.4 39.5 208.8 39.5 C 210.4 39.5 211.8 39.9 213.1 40.7 C 214.4 41.4 215.3 42.5 216 43.8 C 216.7 45.2 217 46.7 217 48.4 C 217 50.2 216.6 51.7 215.9 53.1 C 215.2 54.5 214.2 55.5 213 56.2 C 211.7 56.9 210.3 57.3 208.8 57.3 C 207.2 57.3 205.7 56.9 204.4 56.1 C 203.2 55.3 202.2 54.3 201.5 52.9 C 200.9 51.6 200.6 50.1 200.6 48.6 Z M 202.9 48.7 C 202.9 50.7 203.5 52.4 204.6 53.6 C 205.7 54.8 207.1 55.3 208.8 55.3 C 210.5 55.3 211.9 54.7 213 53.5 C 214.1 52.3 214.7 50.6 214.7 48.4 C 214.7 47 214.4 45.8 213.9 44.8 C 213.5 43.7 212.8 42.9 211.9 42.3 C 211 41.8 209.9 41.5 208.8 41.5 C 207.2 41.5 205.8 42 204.6 43.1 C 203.5 44.2 202.9 46.1 202.9 48.7 Z M 227.8 52.4 C 227.8 52.4 229.9 52.7 229.9 52.7 C 229.6 54.1 229 55.3 228.1 56.1 C 227.2 56.9 226 57.3 224.7 57.3 C 223 57.3 221.6 56.7 220.6 55.6 C 219.5 54.5 219 52.9 219 50.8 C 219 49.5 219.2 48.3 219.7 47.3 C 220.1 46.3 220.8 45.5 221.7 45 C 222.6 44.5 223.6 44.3 224.7 44.3 C 226 44.3 227.1 44.6 228 45.3 C 228.9 46 229.4 47 229.7 48.2 C 229.7 48.2 227.6 48.5 227.6 48.5 C 227.4 47.7 227.1 47.1 226.6 46.6 C 226.1 46.2 225.5 46 224.8 46 C 223.7 46 222.8 46.4 222.2 47.2 C 221.5 47.9 221.2 49.1 221.2 50.8 C 221.2 52.4 221.5 53.7 222.1 54.4 C 222.8 55.2 223.6 55.5 224.6 55.5 C 225.5 55.5 226.2 55.3 226.7 54.8 C 227.3 54.3 227.6 53.5 227.8 52.4 Z M 239.8 52.4 C 239.8 52.4 241.9 52.7 241.9 52.7 C 241.6 54.1 241 55.3 240.1 56.1 C 239.2 56.9 238 57.3 236.7 57.3 C 235 57.3 233.6 56.7 232.6 55.6 C 231.5 54.5 231 52.9 231 50.8 C 231 49.5 231.2 48.3 231.7 47.3 C 232.1 46.3 232.8 45.5 233.7 45 C 234.6 44.5 235.6 44.3 236.7 44.3 C 238 44.3 239.1 44.6 240 45.3 C 240.9 46 241.4 47 241.7 48.2 C 241.7 48.2 239.6 48.5 239.6 48.5 C 239.4 47.7 239.1 47.1 238.6 46.6 C 238.1 46.2 237.5 46 236.8 46 C 235.7 46 234.8 46.4 234.2 47.2 C 233.5 47.9 233.2 49.1 233.2 50.8 C 233.2 52.4 233.5 53.7 234.1 54.4 C 234.8 55.2 235.6 55.5 236.6 55.5 C 237.5 55.5 238.2 55.3 238.7 54.8 C 239.3 54.3 239.6 53.5 239.8 52.4 Z M 251.8 57 C 251.8 57 251.81 55.17 251.8 55.2 C 250.8 56.6 249.5 57.3 247.9 57.3 C 247.1 57.3 246.4 57.1 245.8 56.9 C 245.2 56.6 244.7 56.2 244.4 55.8 C 244.1 55.4 243.9 54.9 243.7 54.2 C 243.7 53.8 243.6 53.2 243.6 52.3 C 243.61 52.27 243.6 44.6 243.6 44.6 L 245.7 44.6 C 245.7 44.6 245.72 51.46 245.7 51.5 C 245.7 52.6 245.8 53.3 245.8 53.7 C 246 54.2 246.3 54.7 246.7 55 C 247.1 55.3 247.7 55.5 248.3 55.5 C 248.9 55.5 249.5 55.3 250.1 55 C 250.6 54.7 251 54.2 251.2 53.7 C 251.5 53.1 251.6 52.3 251.6 51.2 C 251.59 51.22 251.6 44.6 251.6 44.6 L 253.7 44.6 L 253.7 57 L 251.8 57 Z M 257 61.8 L 257 44.6 L 258.9 44.6 C 258.9 44.6 258.92 46.17 258.9 46.2 C 259.4 45.5 259.9 45.1 260.5 44.7 C 261 44.4 261.7 44.3 262.5 44.3 C 263.6 44.3 264.5 44.5 265.3 45.1 C 266.2 45.6 266.8 46.4 267.2 47.4 C 267.6 48.4 267.8 49.5 267.8 50.7 C 267.8 52 267.6 53.1 267.1 54.1 C 266.7 55.1 266 55.9 265.1 56.5 C 264.3 57 263.3 57.3 262.4 57.3 C 261.7 57.3 261 57.1 260.5 56.8 C 259.9 56.5 259.5 56.2 259.1 55.7 C 259.11 55.71 259.1 61.8 259.1 61.8 L 257 61.8 Z M 258.9 50.8 C 258.9 52.4 259.2 53.6 259.9 54.4 C 260.5 55.2 261.3 55.5 262.2 55.5 C 263.2 55.5 264 55.2 264.6 54.4 C 265.3 53.6 265.7 52.3 265.7 50.7 C 265.7 49.1 265.3 47.9 264.7 47.1 C 264 46.3 263.2 45.9 262.3 45.9 C 261.4 45.9 260.6 46.3 260 47.2 C 259.3 48 258.9 49.2 258.9 50.8 Z M 278.9 57 C 278.7 56.6 278.5 56.1 278.5 55.5 C 277.7 56.1 276.9 56.6 276.2 56.9 C 275.5 57.1 274.7 57.3 273.9 57.3 C 272.5 57.3 271.5 56.9 270.7 56.3 C 270 55.6 269.6 54.8 269.6 53.7 C 269.6 53.1 269.8 52.6 270.1 52 C 270.3 51.5 270.7 51.1 271.1 50.8 C 271.6 50.5 272.1 50.3 272.7 50.1 C 273.1 50 273.7 49.9 274.5 49.8 C 276.2 49.6 277.5 49.4 278.3 49.1 C 278.3 48.8 278.3 48.6 278.3 48.6 C 278.3 47.7 278.1 47.1 277.7 46.7 C 277.2 46.3 276.4 46 275.3 46 C 274.3 46 273.6 46.2 273.1 46.5 C 272.6 46.9 272.3 47.5 272.1 48.4 C 272.1 48.4 270 48.1 270 48.1 C 270.2 47.2 270.5 46.5 270.9 46 C 271.4 45.4 272 45 272.8 44.7 C 273.6 44.4 274.5 44.3 275.6 44.3 C 276.7 44.3 277.5 44.4 278.2 44.6 C 278.9 44.9 279.4 45.2 279.7 45.6 C 280 46 280.2 46.4 280.3 47 C 280.4 47.4 280.4 48 280.4 49 C 280.4 49 280.4 51.8 280.4 51.8 C 280.4 53.7 280.5 55 280.6 55.5 C 280.7 56 280.8 56.5 281.1 57 C 281.1 57 278.9 57 278.9 57 C 278.9 57 278.89 57 278.9 57 Z M 278.3 50.8 C 277.5 51.1 276.4 51.3 274.9 51.6 C 274 51.7 273.4 51.8 273 52 C 272.7 52.1 272.4 52.4 272.2 52.7 C 272 53 271.9 53.3 271.9 53.7 C 271.9 54.2 272.1 54.7 272.5 55.1 C 273 55.4 273.6 55.6 274.4 55.6 C 275.2 55.6 275.9 55.5 276.6 55.1 C 277.2 54.7 277.7 54.3 278 53.6 C 278.2 53.2 278.3 52.5 278.3 51.5 C 278.3 51.5 278.3 50.8 278.3 50.8 Z M 287.4 55.2 C 287.6 55.2 287.9 55.2 288.3 55.1 C 288.3 55.1 288.6 57 288.6 57 C 288 57.1 287.5 57.2 287 57.2 C 286.2 57.2 285.7 57 285.2 56.8 C 284.8 56.6 284.5 56.2 284.3 55.8 C 284.2 55.5 284.1 54.6 284.1 53.4 C 284.08 53.36 284.1 46.2 284.1 46.2 L 282.5 46.2 L 282.5 44.6 L 284.1 44.6 L 284.1 41.5 L 286.2 40.2 L 286.2 44.6 L 288.3 44.6 L 288.3 46.2 L 286.2 46.2 C 286.2 46.2 286.18 53.47 286.2 53.5 C 286.2 54.1 286.2 54.5 286.3 54.6 C 286.4 54.8 286.5 54.9 286.7 55 C 286.8 55.1 287.1 55.2 287.4 55.2 C 287.4 55.2 287.4 55.2 287.4 55.2 Z M 290.4 42.2 L 290.4 39.8 L 292.5 39.8 L 292.5 42.2 L 290.4 42.2 Z M 290.4 57 L 290.4 44.6 L 292.5 44.6 L 292.5 57 L 290.4 57 Z M 294.9 50.8 C 294.9 48.5 295.6 46.8 296.8 45.7 C 297.9 44.7 299.2 44.3 300.7 44.3 C 302.5 44.3 303.9 44.8 304.9 46 C 306 47.1 306.6 48.6 306.6 50.6 C 306.6 52.2 306.3 53.5 305.9 54.4 C 305.4 55.3 304.7 56 303.8 56.5 C 302.8 57 301.8 57.3 300.7 57.3 C 299 57.3 297.6 56.7 296.5 55.6 C 295.5 54.5 294.9 52.9 294.9 50.8 Z M 297.1 50.8 C 297.1 52.4 297.4 53.6 298.1 54.4 C 298.8 55.2 299.7 55.5 300.7 55.5 C 301.8 55.5 302.7 55.1 303.4 54.4 C 304.1 53.6 304.4 52.3 304.4 50.7 C 304.4 49.2 304.1 48 303.4 47.2 C 302.7 46.4 301.8 46 300.7 46 C 299.7 46 298.8 46.4 298.1 47.2 C 297.4 48 297.1 49.2 297.1 50.8 Z M 309 57 L 309 44.6 L 310.9 44.6 C 310.9 44.6 310.94 46.32 310.9 46.3 C 311.9 45 313.2 44.3 314.9 44.3 C 315.7 44.3 316.3 44.4 317 44.7 C 317.6 44.9 318.1 45.3 318.4 45.7 C 318.7 46.2 318.9 46.7 319 47.3 C 319.1 47.7 319.2 48.4 319.2 49.3 C 319.16 49.35 319.2 57 319.2 57 L 317 57 C 317 57 317.05 49.43 317 49.4 C 317 48.6 317 47.9 316.8 47.5 C 316.6 47.1 316.3 46.7 315.9 46.5 C 315.5 46.2 315 46.1 314.5 46.1 C 313.6 46.1 312.8 46.4 312.1 47 C 311.5 47.5 311.2 48.6 311.2 50.2 C 311.16 50.2 311.2 57 311.2 57 L 309 57 Z M 330.9 57 C 330.7 56.6 330.6 56.1 330.5 55.5 C 329.7 56.1 329 56.6 328.3 56.9 C 327.5 57.1 326.8 57.3 325.9 57.3 C 324.6 57.3 323.5 56.9 322.8 56.3 C 322 55.6 321.7 54.8 321.7 53.7 C 321.7 53.1 321.8 52.6 322.1 52 C 322.4 51.5 322.7 51.1 323.2 50.8 C 323.6 50.5 324.1 50.3 324.7 50.1 C 325.1 50 325.7 49.9 326.6 49.8 C 328.3 49.6 329.5 49.4 330.3 49.1 C 330.3 48.8 330.4 48.6 330.4 48.6 C 330.4 47.7 330.2 47.1 329.8 46.7 C 329.2 46.3 328.4 46 327.4 46 C 326.4 46 325.6 46.2 325.2 46.5 C 324.7 46.9 324.3 47.5 324.1 48.4 C 324.1 48.4 322 48.1 322 48.1 C 322.2 47.2 322.5 46.5 323 46 C 323.4 45.4 324 45 324.8 44.7 C 325.6 44.4 326.6 44.3 327.7 44.3 C 328.7 44.3 329.6 44.4 330.2 44.6 C 330.9 44.9 331.4 45.2 331.7 45.6 C 332 46 332.2 46.4 332.4 47 C 332.4 47.4 332.5 48 332.5 49 C 332.5 49 332.5 51.8 332.5 51.8 C 332.5 53.7 332.5 55 332.6 55.5 C 332.7 56 332.9 56.5 333.1 57 C 333.14 57 330.9 57 330.9 57 C 330.9 57 330.94 57 330.9 57 Z M 330.3 50.8 C 329.6 51.1 328.4 51.3 326.9 51.6 C 326 51.7 325.4 51.8 325.1 52 C 324.7 52.1 324.4 52.4 324.2 52.7 C 324 53 323.9 53.3 323.9 53.7 C 323.9 54.2 324.1 54.7 324.6 55.1 C 325 55.4 325.6 55.6 326.4 55.6 C 327.2 55.6 328 55.5 328.6 55.1 C 329.2 54.7 329.7 54.3 330 53.6 C 330.2 53.2 330.3 52.5 330.3 51.5 C 330.3 51.5 330.3 50.8 330.3 50.8 Z M 335.7 57 L 335.7 39.8 L 337.8 39.8 L 337.8 57 L 335.7 57 Z M 359.9 51 C 359.9 51 362.2 51.6 362.2 51.6 C 361.7 53.4 360.9 54.8 359.6 55.8 C 358.4 56.8 356.9 57.3 355.1 57.3 C 353.2 57.3 351.7 56.9 350.6 56.2 C 349.4 55.4 348.5 54.3 347.9 52.9 C 347.3 51.5 347 49.9 347 48.3 C 347 46.5 347.4 44.9 348.1 43.6 C 348.7 42.3 349.7 41.3 351 40.6 C 352.2 39.9 353.6 39.5 355.1 39.5 C 356.9 39.5 358.3 40 359.5 40.8 C 360.6 41.7 361.5 42.9 361.9 44.5 C 361.9 44.5 359.7 45.1 359.7 45.1 C 359.3 43.8 358.7 42.9 357.9 42.3 C 357.2 41.8 356.2 41.5 355.1 41.5 C 353.8 41.5 352.7 41.8 351.8 42.4 C 350.9 43.1 350.3 43.9 349.9 45 C 349.5 46 349.4 47.1 349.4 48.3 C 349.4 49.7 349.6 51 350 52.1 C 350.4 53.2 351.1 54 352 54.5 C 352.9 55.1 353.9 55.3 354.9 55.3 C 356.2 55.3 357.3 55 358.1 54.2 C 359 53.5 359.6 52.4 359.9 51 Z M 364 50.8 C 364 48.5 364.6 46.8 365.9 45.7 C 367 44.7 368.3 44.3 369.8 44.3 C 371.5 44.3 372.9 44.8 374 46 C 375.1 47.1 375.6 48.6 375.6 50.6 C 375.6 52.2 375.4 53.5 374.9 54.4 C 374.4 55.3 373.7 56 372.8 56.5 C 371.9 57 370.9 57.3 369.8 57.3 C 368.1 57.3 366.6 56.7 365.6 55.6 C 364.5 54.5 364 52.9 364 50.8 Z M 366.1 50.8 C 366.1 52.4 366.5 53.6 367.2 54.4 C 367.9 55.2 368.7 55.5 369.8 55.5 C 370.8 55.5 371.7 55.1 372.4 54.4 C 373.1 53.6 373.5 52.3 373.5 50.7 C 373.5 49.2 373.1 48 372.4 47.2 C 371.7 46.4 370.8 46 369.8 46 C 368.7 46 367.9 46.4 367.2 47.2 C 366.5 48 366.1 49.2 366.1 50.8 Z M 378.1 57 L 378.1 44.6 L 380 44.6 C 380 44.6 379.98 46.3 380 46.3 C 380.4 45.7 380.9 45.2 381.5 44.8 C 382.2 44.5 382.9 44.3 383.8 44.3 C 384.7 44.3 385.4 44.5 386 44.8 C 386.6 45.2 387 45.8 387.3 46.5 C 388.3 45 389.5 44.3 391.1 44.3 C 392.3 44.3 393.3 44.6 394 45.3 C 394.6 46 395 47 395 48.5 C 394.96 48.46 395 57 395 57 L 392.9 57 C 392.9 57 392.86 49.16 392.9 49.2 C 392.9 48.3 392.8 47.7 392.7 47.3 C 392.5 47 392.3 46.7 391.9 46.4 C 391.5 46.2 391.1 46.1 390.6 46.1 C 389.8 46.1 389 46.4 388.5 47 C 387.9 47.6 387.6 48.5 387.6 49.8 C 387.6 49.77 387.6 57 387.6 57 L 385.5 57 C 385.5 57 385.49 48.91 385.5 48.9 C 385.5 48 385.3 47.3 385 46.8 C 384.6 46.3 384.1 46.1 383.3 46.1 C 382.7 46.1 382.1 46.3 381.6 46.6 C 381.1 46.9 380.8 47.3 380.5 47.9 C 380.3 48.5 380.2 49.4 380.2 50.5 C 380.2 50.54 380.2 57 380.2 57 L 378.1 57 Z M 398.1 61.8 L 398.1 44.6 L 400 44.6 C 400 44.6 400.01 46.17 400 46.2 C 400.5 45.5 401 45.1 401.5 44.7 C 402.1 44.4 402.8 44.3 403.6 44.3 C 404.7 44.3 405.6 44.5 406.4 45.1 C 407.2 45.6 407.9 46.4 408.3 47.4 C 408.7 48.4 408.9 49.5 408.9 50.7 C 408.9 52 408.7 53.1 408.2 54.1 C 407.7 55.1 407.1 55.9 406.2 56.5 C 405.3 57 404.4 57.3 403.5 57.3 C 402.8 57.3 402.1 57.1 401.6 56.8 C 401 56.5 400.6 56.2 400.2 55.7 C 400.19 55.71 400.2 61.8 400.2 61.8 L 398.1 61.8 Z M 400 50.8 C 400 52.4 400.3 53.6 401 54.4 C 401.6 55.2 402.4 55.5 403.3 55.5 C 404.3 55.5 405.1 55.2 405.7 54.4 C 406.4 53.6 406.7 52.3 406.7 50.7 C 406.7 49.1 406.4 47.9 405.8 47.1 C 405.1 46.3 404.3 45.9 403.4 45.9 C 402.5 45.9 401.7 46.3 401 47.2 C 400.3 48 400 49.2 400 50.8 Z M 420 53 C 420 53 422.1 53.3 422.1 53.3 C 421.8 54.5 421.2 55.5 420.2 56.2 C 419.3 56.9 418.1 57.3 416.7 57.3 C 414.8 57.3 413.4 56.7 412.3 55.6 C 411.3 54.5 410.7 52.9 410.7 50.9 C 410.7 48.8 411.3 47.2 412.3 46 C 413.4 44.9 414.8 44.3 416.5 44.3 C 418.2 44.3 419.6 44.8 420.6 46 C 421.7 47.1 422.2 48.7 422.2 50.8 C 422.2 50.9 422.2 51.1 422.2 51.3 C 422.2 51.3 412.9 51.3 412.9 51.3 C 413 52.7 413.4 53.7 414.1 54.5 C 414.8 55.2 415.6 55.5 416.7 55.5 C 417.4 55.5 418.1 55.3 418.7 54.9 C 419.2 54.5 419.6 53.9 420 53 Z M 413 49.6 C 413 49.6 420 49.6 420 49.6 C 419.9 48.5 419.6 47.8 419.2 47.2 C 418.5 46.4 417.6 46 416.6 46 C 415.6 46 414.8 46.3 414.1 47 C 413.5 47.6 413.1 48.5 413 49.6 Z M 428.5 55.2 C 428.7 55.2 429 55.2 429.4 55.1 C 429.4 55.1 429.7 57 429.7 57 C 429.1 57.1 428.6 57.2 428.1 57.2 C 427.3 57.2 426.7 57 426.3 56.8 C 425.9 56.6 425.6 56.2 425.4 55.8 C 425.3 55.5 425.2 54.6 425.2 53.4 C 425.17 53.36 425.2 46.2 425.2 46.2 L 423.6 46.2 L 423.6 44.6 L 425.2 44.6 L 425.2 41.5 L 427.3 40.2 L 427.3 44.6 L 429.4 44.6 L 429.4 46.2 L 427.3 46.2 C 427.3 46.2 427.26 53.47 427.3 53.5 C 427.3 54.1 427.3 54.5 427.4 54.6 C 427.4 54.8 427.6 54.9 427.7 55 C 427.9 55.1 428.1 55.2 428.5 55.2 C 428.5 55.2 428.5 55.2 428.5 55.2 Z M 440 53 C 440 53 442.1 53.3 442.1 53.3 C 441.8 54.5 441.2 55.5 440.2 56.2 C 439.3 56.9 438.1 57.3 436.7 57.3 C 434.9 57.3 433.4 56.7 432.3 55.6 C 431.3 54.5 430.7 52.9 430.7 50.9 C 430.7 48.8 431.3 47.2 432.4 46 C 433.4 44.9 434.8 44.3 436.6 44.3 C 438.2 44.3 439.6 44.8 440.6 46 C 441.7 47.1 442.2 48.7 442.2 50.8 C 442.2 50.9 442.2 51.1 442.2 51.3 C 442.2 51.3 432.9 51.3 432.9 51.3 C 433 52.7 433.4 53.7 434.1 54.5 C 434.8 55.2 435.6 55.5 436.7 55.5 C 437.5 55.5 438.1 55.3 438.7 54.9 C 439.2 54.5 439.6 53.9 440 53 Z M 433 49.6 C 433 49.6 440 49.6 440 49.6 C 439.9 48.5 439.6 47.8 439.2 47.2 C 438.5 46.4 437.7 46 436.6 46 C 435.6 46 434.8 46.3 434.1 47 C 433.5 47.6 433.1 48.5 433 49.6 Z M 444.8 57 L 444.8 44.6 L 446.7 44.6 C 446.7 44.6 446.69 46.32 446.7 46.3 C 447.6 45 448.9 44.3 450.7 44.3 C 451.4 44.3 452.1 44.4 452.7 44.7 C 453.4 44.9 453.8 45.3 454.1 45.7 C 454.4 46.2 454.7 46.7 454.8 47.3 C 454.9 47.7 454.9 48.4 454.9 49.3 C 454.91 49.35 454.9 57 454.9 57 L 452.8 57 C 452.8 57 452.8 49.43 452.8 49.4 C 452.8 48.6 452.7 47.9 452.6 47.5 C 452.4 47.1 452.1 46.7 451.7 46.5 C 451.3 46.2 450.8 46.1 450.2 46.1 C 449.3 46.1 448.5 46.4 447.9 47 C 447.2 47.5 446.9 48.6 446.9 50.2 C 446.9 50.2 446.9 57 446.9 57 L 444.8 57 Z M 466.3 52.4 C 466.3 52.4 468.3 52.7 468.3 52.7 C 468.1 54.1 467.5 55.3 466.6 56.1 C 465.7 56.9 464.5 57.3 463.2 57.3 C 461.5 57.3 460.1 56.7 459.1 55.6 C 458 54.5 457.5 52.9 457.5 50.8 C 457.5 49.5 457.7 48.3 458.2 47.3 C 458.6 46.3 459.3 45.5 460.2 45 C 461.1 44.5 462.1 44.3 463.2 44.3 C 464.5 44.3 465.6 44.6 466.5 45.3 C 467.3 46 467.9 47 468.1 48.2 C 468.1 48.2 466.1 48.5 466.1 48.5 C 465.9 47.7 465.5 47.1 465.1 46.6 C 464.6 46.2 464 46 463.3 46 C 462.2 46 461.3 46.4 460.7 47.2 C 460 47.9 459.7 49.1 459.7 50.8 C 459.7 52.4 460 53.7 460.6 54.4 C 461.3 55.2 462.1 55.5 463.1 55.5 C 464 55.5 464.7 55.3 465.2 54.8 C 465.8 54.3 466.1 53.5 466.3 52.4 Z M 478.7 53 C 478.7 53 480.8 53.3 480.8 53.3 C 480.5 54.5 479.9 55.5 478.9 56.2 C 478 56.9 476.8 57.3 475.4 57.3 C 473.5 57.3 472.1 56.7 471 55.6 C 470 54.5 469.4 52.9 469.4 50.9 C 469.4 48.8 470 47.2 471.1 46 C 472.1 44.9 473.5 44.3 475.3 44.3 C 476.9 44.3 478.3 44.8 479.3 46 C 480.4 47.1 480.9 48.7 480.9 50.8 C 480.9 50.9 480.9 51.1 480.9 51.3 C 480.9 51.3 471.6 51.3 471.6 51.3 C 471.7 52.7 472.1 53.7 472.8 54.5 C 473.5 55.2 474.3 55.5 475.4 55.5 C 476.2 55.5 476.8 55.3 477.4 54.9 C 477.9 54.5 478.3 53.9 478.7 53 Z M 471.7 49.6 C 471.7 49.6 478.7 49.6 478.7 49.6 C 478.6 48.5 478.3 47.8 477.9 47.2 C 477.2 46.4 476.3 46 475.3 46 C 474.3 46 473.5 46.3 472.8 47 C 472.2 47.6 471.8 48.5 471.7 49.6 Z " stroke="none" fill="#000"/>  </g>  <g id="Polygon17528">    <path d="M 1.6 49.2 C 1.6 48.7 1.7 48.2 1.9 47.7 C 2.1 47.2 2.4 46.8 2.8 46.5 C 3.1 46.1 3.5 45.8 4 45.6 C 4.5 45.4 5 45.3 5.5 45.3 C 6 45.3 6.5 45.4 7 45.6 C 7.5 45.8 7.9 46.1 8.3 46.5 C 8.6 46.8 8.9 47.2 9.1 47.7 C 9.3 48.2 9.4 48.7 9.4 49.2 C 9.4 49.8 9.3 50.3 9.1 50.7 C 8.9 51.2 8.6 51.6 8.3 52 C 7.9 52.3 7.5 52.6 7 52.8 C 6.5 53 6 53.1 5.5 53.1 C 5 53.1 4.5 53 4 52.8 C 3.5 52.6 3.1 52.3 2.8 52 C 2.4 51.6 2.1 51.2 1.9 50.7 C 1.7 50.3 1.6 49.8 1.6 49.2 Z " stroke="none" fill="#f28620"/>  </g>  <g id="Polygon17527">    <path d="M 37.9 22 L 37.9 4.8 L 50.3 4.8 L 50.3 6.8 L 40.2 6.8 L 40.2 12.1 L 49.7 12.1 L 49.7 14.1 L 40.2 14.1 L 40.2 20 L 50.7 20 L 50.7 22 L 37.9 22 Z M 53.6 22 L 53.6 9.6 L 55.5 9.6 C 55.5 9.6 55.49 11.32 55.5 11.3 C 56.4 10 57.7 9.3 59.4 9.3 C 60.2 9.3 60.9 9.4 61.5 9.7 C 62.1 9.9 62.6 10.3 62.9 10.7 C 63.2 11.2 63.5 11.7 63.6 12.3 C 63.7 12.7 63.7 13.4 63.7 14.3 C 63.7 14.35 63.7 22 63.7 22 L 61.6 22 C 61.6 22 61.59 14.43 61.6 14.4 C 61.6 13.6 61.5 12.9 61.3 12.5 C 61.2 12.1 60.9 11.7 60.5 11.5 C 60.1 11.2 59.6 11.1 59 11.1 C 58.1 11.1 57.3 11.4 56.7 12 C 56 12.5 55.7 13.6 55.7 15.2 C 55.7 15.2 55.7 22 55.7 22 L 53.6 22 Z M 75 22 C 75 22 75.01 20.43 75 20.4 C 74.2 21.7 73.1 22.3 71.5 22.3 C 70.5 22.3 69.6 22 68.8 21.5 C 68 20.9 67.3 20.2 66.9 19.2 C 66.4 18.2 66.2 17.1 66.2 15.8 C 66.2 14.5 66.4 13.4 66.8 12.4 C 67.2 11.4 67.8 10.6 68.7 10.1 C 69.5 9.5 70.4 9.3 71.4 9.3 C 72.2 9.3 72.9 9.4 73.4 9.7 C 74 10.1 74.5 10.5 74.9 11 C 74.87 10.98 74.9 4.8 74.9 4.8 L 77 4.8 L 77 22 L 75 22 Z M 68.3 15.8 C 68.3 17.4 68.7 18.6 69.4 19.4 C 70 20.2 70.8 20.5 71.7 20.5 C 72.7 20.5 73.4 20.2 74.1 19.4 C 74.7 18.7 75 17.5 75 16 C 75 14.3 74.7 13 74.1 12.2 C 73.4 11.4 72.6 11 71.6 11 C 70.7 11 69.9 11.4 69.3 12.2 C 68.7 12.9 68.3 14.1 68.3 15.8 Z M 79.5 16.8 L 79.5 14.7 L 85.9 14.7 L 85.9 16.8 L 79.5 16.8 Z M 88.5 22 L 88.5 4.8 C 88.5 4.8 95.03 4.82 95 4.8 C 96.2 4.8 97 4.9 97.6 5 C 98.5 5.1 99.2 5.4 99.8 5.8 C 100.3 6.2 100.8 6.7 101.1 7.4 C 101.5 8.2 101.7 8.9 101.7 9.8 C 101.7 11.3 101.2 12.5 100.3 13.5 C 99.3 14.5 97.7 15 95.2 15 C 95.23 15.02 90.8 15 90.8 15 L 90.8 22 L 88.5 22 Z M 90.8 13 C 90.8 13 95.26 12.99 95.3 13 C 96.7 13 97.8 12.7 98.4 12.2 C 99 11.6 99.3 10.9 99.3 9.9 C 99.3 9.1 99.1 8.5 98.8 8 C 98.4 7.5 97.9 7.2 97.3 7 C 97 6.9 96.2 6.8 95.2 6.8 C 95.21 6.85 90.8 6.8 90.8 6.8 L 90.8 13 Z M 103.5 15.8 C 103.5 13.5 104.1 11.8 105.4 10.7 C 106.5 9.7 107.8 9.3 109.3 9.3 C 111 9.3 112.4 9.8 113.5 11 C 114.6 12.1 115.2 13.6 115.2 15.6 C 115.2 17.2 114.9 18.5 114.4 19.4 C 114 20.3 113.3 21 112.3 21.5 C 111.4 22 110.4 22.3 109.3 22.3 C 107.6 22.3 106.2 21.7 105.1 20.6 C 104 19.5 103.5 17.9 103.5 15.8 Z M 105.7 15.8 C 105.7 17.4 106 18.6 106.7 19.4 C 107.4 20.2 108.3 20.5 109.3 20.5 C 110.4 20.5 111.3 20.1 111.9 19.4 C 112.6 18.6 113 17.3 113 15.7 C 113 14.2 112.6 13 111.9 12.2 C 111.2 11.4 110.4 11 109.3 11 C 108.3 11 107.4 11.4 106.7 12.2 C 106 13 105.7 14.2 105.7 15.8 Z M 117.6 7.2 L 117.6 4.8 L 119.8 4.8 L 119.8 7.2 L 117.6 7.2 Z M 117.6 22 L 117.6 9.6 L 119.8 9.6 L 119.8 22 L 117.6 22 Z M 123 22 L 123 9.6 L 124.9 9.6 C 124.9 9.6 124.86 11.32 124.9 11.3 C 125.8 10 127.1 9.3 128.8 9.3 C 129.6 9.3 130.3 9.4 130.9 9.7 C 131.5 9.9 132 10.3 132.3 10.7 C 132.6 11.2 132.8 11.7 133 12.3 C 133 12.7 133.1 13.4 133.1 14.3 C 133.08 14.35 133.1 22 133.1 22 L 131 22 C 131 22 130.97 14.43 131 14.4 C 131 13.6 130.9 12.9 130.7 12.5 C 130.6 12.1 130.3 11.7 129.8 11.5 C 129.4 11.2 128.9 11.1 128.4 11.1 C 127.5 11.1 126.7 11.4 126.1 12 C 125.4 12.5 125.1 13.6 125.1 15.2 C 125.07 15.2 125.1 22 125.1 22 L 123 22 Z M 140 20.2 C 140.2 20.2 140.5 20.2 140.9 20.1 C 140.9 20.1 141.2 22 141.2 22 C 140.6 22.1 140.1 22.2 139.6 22.2 C 138.9 22.2 138.3 22 137.8 21.8 C 137.4 21.6 137.1 21.2 137 20.8 C 136.8 20.5 136.7 19.6 136.7 18.4 C 136.7 18.36 136.7 11.2 136.7 11.2 L 135.2 11.2 L 135.2 9.6 L 136.7 9.6 L 136.7 6.5 L 138.8 5.2 L 138.8 9.6 L 140.9 9.6 L 140.9 11.2 L 138.8 11.2 C 138.8 11.2 138.8 18.47 138.8 18.5 C 138.8 19.1 138.8 19.5 138.9 19.6 C 139 19.8 139.1 19.9 139.3 20 C 139.4 20.1 139.7 20.2 140 20.2 C 140 20.2 140 20.2 140 20.2 Z M 146.7 22 L 153.3 4.8 L 155.8 4.8 L 162.8 22 L 160.2 22 L 158.2 16.8 L 151 16.8 L 149.1 22 L 146.7 22 Z M 151.7 14.9 L 157.5 14.9 C 157.5 14.9 155.7 10.19 155.7 10.2 C 155.1 8.7 154.7 7.6 154.5 6.6 C 154.3 7.7 153.9 8.8 153.6 9.9 C 153.55 9.91 151.7 14.9 151.7 14.9 Z M 163.5 18.3 C 163.5 18.3 165.6 18 165.6 18 C 165.7 18.8 166 19.4 166.6 19.9 C 167.1 20.3 167.8 20.5 168.8 20.5 C 169.8 20.5 170.5 20.3 171 20 C 171.4 19.6 171.7 19.1 171.7 18.6 C 171.7 18.1 171.4 17.7 171 17.4 C 170.7 17.3 170 17 168.9 16.7 C 167.3 16.3 166.3 16 165.7 15.7 C 165.1 15.4 164.6 15 164.3 14.5 C 164 14 163.8 13.5 163.8 12.9 C 163.8 12.3 164 11.8 164.2 11.3 C 164.5 10.8 164.8 10.5 165.3 10.1 C 165.6 9.9 166 9.7 166.6 9.5 C 167.2 9.4 167.8 9.3 168.4 9.3 C 169.4 9.3 170.3 9.4 171 9.7 C 171.7 10 172.3 10.4 172.6 10.8 C 173 11.3 173.2 12 173.4 12.8 C 173.4 12.8 171.3 13 171.3 13 C 171.2 12.4 170.9 11.9 170.5 11.5 C 170 11.2 169.4 11 168.6 11 C 167.6 11 166.9 11.2 166.5 11.5 C 166.1 11.8 165.9 12.2 165.9 12.6 C 165.9 12.9 166 13.1 166.1 13.4 C 166.3 13.6 166.6 13.8 166.9 13.9 C 167.2 14 167.8 14.2 168.8 14.5 C 170.3 14.9 171.3 15.2 171.9 15.4 C 172.5 15.7 173 16.1 173.3 16.5 C 173.7 17 173.8 17.6 173.8 18.3 C 173.8 19 173.6 19.7 173.2 20.3 C 172.8 21 172.2 21.4 171.4 21.8 C 170.7 22.1 169.8 22.3 168.8 22.3 C 167.2 22.3 166 21.9 165.1 21.3 C 164.3 20.6 163.7 19.6 163.5 18.3 Z M 175.5 18.3 C 175.5 18.3 177.6 18 177.6 18 C 177.7 18.8 178 19.4 178.6 19.9 C 179.1 20.3 179.8 20.5 180.8 20.5 C 181.8 20.5 182.5 20.3 183 20 C 183.4 19.6 183.7 19.1 183.7 18.6 C 183.7 18.1 183.4 17.7 183 17.4 C 182.7 17.3 182 17 180.9 16.7 C 179.3 16.3 178.3 16 177.7 15.7 C 177.1 15.4 176.6 15 176.3 14.5 C 176 14 175.8 13.5 175.8 12.9 C 175.8 12.3 176 11.8 176.2 11.3 C 176.5 10.8 176.8 10.5 177.3 10.1 C 177.6 9.9 178 9.7 178.6 9.5 C 179.2 9.4 179.8 9.3 180.4 9.3 C 181.4 9.3 182.3 9.4 183 9.7 C 183.7 10 184.3 10.4 184.6 10.8 C 185 11.3 185.2 12 185.4 12.8 C 185.4 12.8 183.3 13 183.3 13 C 183.2 12.4 182.9 11.9 182.5 11.5 C 182 11.2 181.4 11 180.6 11 C 179.6 11 178.9 11.2 178.5 11.5 C 178.1 11.8 177.9 12.2 177.9 12.6 C 177.9 12.9 178 13.1 178.1 13.4 C 178.3 13.6 178.6 13.8 178.9 13.9 C 179.2 14 179.8 14.2 180.8 14.5 C 182.3 14.9 183.3 15.2 183.9 15.4 C 184.5 15.7 185 16.1 185.3 16.5 C 185.7 17 185.8 17.6 185.8 18.3 C 185.8 19 185.6 19.7 185.2 20.3 C 184.8 21 184.2 21.4 183.4 21.8 C 182.7 22.1 181.8 22.3 180.8 22.3 C 179.2 22.3 178 21.9 177.1 21.3 C 176.3 20.6 175.7 19.6 175.5 18.3 Z M 196.9 18 C 196.9 18 199 18.3 199 18.3 C 198.7 19.5 198.1 20.5 197.1 21.2 C 196.2 21.9 195 22.3 193.6 22.3 C 191.7 22.3 190.3 21.7 189.2 20.6 C 188.2 19.5 187.6 17.9 187.6 15.9 C 187.6 13.8 188.2 12.2 189.2 11 C 190.3 9.9 191.7 9.3 193.4 9.3 C 195.1 9.3 196.5 9.8 197.5 11 C 198.6 12.1 199.1 13.7 199.1 15.8 C 199.1 15.9 199.1 16.1 199.1 16.3 C 199.1 16.3 189.8 16.3 189.8 16.3 C 189.9 17.7 190.3 18.7 191 19.5 C 191.7 20.2 192.5 20.5 193.6 20.5 C 194.3 20.5 195 20.3 195.6 19.9 C 196.1 19.5 196.5 18.9 196.9 18 Z M 189.9 14.6 C 189.9 14.6 196.9 14.6 196.9 14.6 C 196.8 13.5 196.5 12.8 196.1 12.2 C 195.4 11.4 194.5 11 193.5 11 C 192.5 11 191.7 11.3 191 12 C 190.4 12.6 190 13.5 189.9 14.6 Z M 200.8 18.3 C 200.8 18.3 202.9 18 202.9 18 C 203 18.8 203.4 19.4 203.9 19.9 C 204.4 20.3 205.2 20.5 206.1 20.5 C 207.1 20.5 207.8 20.3 208.3 20 C 208.8 19.6 209 19.1 209 18.6 C 209 18.1 208.8 17.7 208.4 17.4 C 208.1 17.3 207.4 17 206.2 16.7 C 204.7 16.3 203.6 16 203 15.7 C 202.4 15.4 202 15 201.7 14.5 C 201.3 14 201.2 13.5 201.2 12.9 C 201.2 12.3 201.3 11.8 201.6 11.3 C 201.8 10.8 202.2 10.5 202.6 10.1 C 202.9 9.9 203.4 9.7 203.9 9.5 C 204.5 9.4 205.1 9.3 205.8 9.3 C 206.7 9.3 207.6 9.4 208.3 9.7 C 209.1 10 209.6 10.4 210 10.8 C 210.3 11.3 210.6 12 210.7 12.8 C 210.7 12.8 208.6 13 208.6 13 C 208.5 12.4 208.3 11.9 207.8 11.5 C 207.4 11.2 206.7 11 205.9 11 C 205 11 204.3 11.2 203.8 11.5 C 203.4 11.8 203.2 12.2 203.2 12.6 C 203.2 12.9 203.3 13.1 203.5 13.4 C 203.7 13.6 203.9 13.8 204.3 13.9 C 204.5 14 205.1 14.2 206.2 14.5 C 207.6 14.9 208.7 15.2 209.3 15.4 C 209.9 15.7 210.3 16.1 210.7 16.5 C 211 17 211.2 17.6 211.2 18.3 C 211.2 19 211 19.7 210.6 20.3 C 210.1 21 209.6 21.4 208.8 21.8 C 208 22.1 207.1 22.3 206.2 22.3 C 204.5 22.3 203.3 21.9 202.5 21.3 C 201.6 20.6 201.1 19.6 200.8 18.3 Z M 212.8 18.3 C 212.8 18.3 214.9 18 214.9 18 C 215 18.8 215.4 19.4 215.9 19.9 C 216.4 20.3 217.2 20.5 218.1 20.5 C 219.1 20.5 219.8 20.3 220.3 20 C 220.8 19.6 221 19.1 221 18.6 C 221 18.1 220.8 17.7 220.4 17.4 C 220.1 17.3 219.4 17 218.2 16.7 C 216.7 16.3 215.6 16 215 15.7 C 214.4 15.4 214 15 213.7 14.5 C 213.3 14 213.2 13.5 213.2 12.9 C 213.2 12.3 213.3 11.8 213.6 11.3 C 213.8 10.8 214.2 10.5 214.6 10.1 C 214.9 9.9 215.4 9.7 215.9 9.5 C 216.5 9.4 217.1 9.3 217.8 9.3 C 218.7 9.3 219.6 9.4 220.3 9.7 C 221.1 10 221.6 10.4 222 10.8 C 222.3 11.3 222.6 12 222.7 12.8 C 222.7 12.8 220.6 13 220.6 13 C 220.5 12.4 220.3 11.9 219.8 11.5 C 219.4 11.2 218.7 11 217.9 11 C 217 11 216.3 11.2 215.8 11.5 C 215.4 11.8 215.2 12.2 215.2 12.6 C 215.2 12.9 215.3 13.1 215.5 13.4 C 215.7 13.6 215.9 13.8 216.3 13.9 C 216.5 14 217.1 14.2 218.2 14.5 C 219.6 14.9 220.7 15.2 221.3 15.4 C 221.9 15.7 222.3 16.1 222.7 16.5 C 223 17 223.2 17.6 223.2 18.3 C 223.2 19 223 19.7 222.6 20.3 C 222.1 21 221.6 21.4 220.8 21.8 C 220 22.1 219.1 22.3 218.2 22.3 C 216.5 22.3 215.3 21.9 214.5 21.3 C 213.6 20.6 213.1 19.6 212.8 18.3 Z M 225.7 22 L 225.7 9.6 L 227.6 9.6 C 227.6 9.6 227.57 11.3 227.6 11.3 C 228 10.7 228.5 10.2 229.1 9.8 C 229.8 9.5 230.5 9.3 231.3 9.3 C 232.3 9.3 233 9.5 233.6 9.8 C 234.2 10.2 234.6 10.8 234.9 11.5 C 235.8 10 237.1 9.3 238.7 9.3 C 239.9 9.3 240.9 9.6 241.5 10.3 C 242.2 11 242.5 12 242.5 13.5 C 242.54 13.46 242.5 22 242.5 22 L 240.4 22 C 240.4 22 240.45 14.16 240.4 14.2 C 240.4 13.3 240.4 12.7 240.2 12.3 C 240.1 12 239.9 11.7 239.5 11.4 C 239.1 11.2 238.7 11.1 238.2 11.1 C 237.4 11.1 236.6 11.4 236.1 12 C 235.5 12.6 235.2 13.5 235.2 14.8 C 235.18 14.77 235.2 22 235.2 22 L 233.1 22 C 233.1 22 233.07 13.91 233.1 13.9 C 233.1 13 232.9 12.3 232.6 11.8 C 232.2 11.3 231.7 11.1 230.9 11.1 C 230.3 11.1 229.7 11.3 229.2 11.6 C 228.7 11.9 228.4 12.3 228.1 12.9 C 227.9 13.5 227.8 14.4 227.8 15.5 C 227.79 15.54 227.8 22 227.8 22 L 225.7 22 Z M 254.2 18 C 254.2 18 256.4 18.3 256.4 18.3 C 256 19.5 255.4 20.5 254.5 21.2 C 253.5 21.9 252.3 22.3 250.9 22.3 C 249.1 22.3 247.6 21.7 246.6 20.6 C 245.5 19.5 245 17.9 245 15.9 C 245 13.8 245.5 12.2 246.6 11 C 247.7 9.9 249.1 9.3 250.8 9.3 C 252.4 9.3 253.8 9.8 254.9 11 C 255.9 12.1 256.4 13.7 256.4 15.8 C 256.4 15.9 256.4 16.1 256.4 16.3 C 256.4 16.3 247.1 16.3 247.1 16.3 C 247.2 17.7 247.6 18.7 248.3 19.5 C 249 20.2 249.9 20.5 250.9 20.5 C 251.7 20.5 252.3 20.3 252.9 19.9 C 253.4 19.5 253.9 18.9 254.2 18 Z M 247.3 14.6 C 247.3 14.6 254.2 14.6 254.2 14.6 C 254.1 13.5 253.9 12.8 253.4 12.2 C 252.7 11.4 251.9 11 250.8 11 C 249.8 11 249 11.3 248.4 12 C 247.7 12.6 247.3 13.5 247.3 14.6 Z M 259 22 L 259 9.6 L 260.9 9.6 C 260.9 9.6 260.92 11.32 260.9 11.3 C 261.8 10 263.2 9.3 264.9 9.3 C 265.6 9.3 266.3 9.4 266.9 9.7 C 267.6 9.9 268 10.3 268.4 10.7 C 268.7 11.2 268.9 11.7 269 12.3 C 269.1 12.7 269.1 13.4 269.1 14.3 C 269.13 14.35 269.1 22 269.1 22 L 267 22 C 267 22 267.02 14.43 267 14.4 C 267 13.6 266.9 12.9 266.8 12.5 C 266.6 12.1 266.3 11.7 265.9 11.5 C 265.5 11.2 265 11.1 264.4 11.1 C 263.5 11.1 262.8 11.4 262.1 12 C 261.5 12.5 261.1 13.6 261.1 15.2 C 261.13 15.2 261.1 22 261.1 22 L 259 22 Z M 276 20.2 C 276.3 20.2 276.6 20.2 277 20.1 C 277 20.1 277.3 22 277.3 22 C 276.7 22.1 276.2 22.2 275.7 22.2 C 274.9 22.2 274.3 22 273.9 21.8 C 273.5 21.6 273.2 21.2 273 20.8 C 272.8 20.5 272.8 19.6 272.8 18.4 C 272.75 18.36 272.8 11.2 272.8 11.2 L 271.2 11.2 L 271.2 9.6 L 272.8 9.6 L 272.8 6.5 L 274.9 5.2 L 274.9 9.6 L 277 9.6 L 277 11.2 L 274.9 11.2 C 274.9 11.2 274.85 18.47 274.9 18.5 C 274.9 19.1 274.9 19.5 275 19.6 C 275 19.8 275.2 19.9 275.3 20 C 275.5 20.1 275.7 20.2 276 20.2 C 276 20.2 276 20.2 276 20.2 Z " stroke="none" fill="#000"/>  </g>  <g id="Polygon17526">    <path d="M 1.6 14.2 C 1.6 13.7 1.7 13.2 1.9 12.7 C 2.1 12.2 2.4 11.8 2.8 11.5 C 3.1 11.1 3.5 10.8 4 10.6 C 4.5 10.4 5 10.3 5.5 10.3 C 6 10.3 6.5 10.4 7 10.6 C 7.5 10.8 7.9 11.1 8.3 11.5 C 8.6 11.8 8.9 12.2 9.1 12.7 C 9.3 13.2 9.4 13.7 9.4 14.2 C 9.4 14.8 9.3 15.3 9.1 15.7 C 8.9 16.2 8.6 16.6 8.3 17 C 7.9 17.3 7.5 17.6 7 17.8 C 6.5 18 6 18.1 5.5 18.1 C 5 18.1 4.5 18 4 17.8 C 3.5 17.6 3.1 17.3 2.8 17 C 2.4 16.6 2.1 16.2 1.9 15.7 C 1.7 15.3 1.6 14.8 1.6 14.2 Z " stroke="none" fill="#f28620"/>  </g></svg>