<?xml version="1.0" standalone="no"?><!DOCTYPE svg PUBLIC "-//W3C//DTD SVG 1.1//EN" "http://www.w3.org/Graphics/SVG/1.1/DTD/svg11.dtd"><svg xmlns="http://www.w3.org/2000/svg" version="1.1" width="850.1px" height="253.5px" viewBox="0 -1 850.1 253.5" style="top:-1px">  <desc>Survey</desc>  <defs/>  <g id="Polygon5494">    <path d="M 199.6 104.8 C 199.6 104.8 199.6 109 199.6 109 C 197.3 107 194.8 106 191.9 106 C 188.4 106 186 108 186 110.9 C 186 113.2 186.6 115.1 192.2 118 C 199.3 121.6 201 124.1 201 128.7 C 201 133.8 197.1 137.6 191.2 137.6 C 188 137.6 185 136.5 182.4 134.6 C 182.4 134.6 182.4 129.9 182.4 129.9 C 184.9 132.7 187.9 134.2 191.2 134.2 C 194.7 134.2 197.1 132.1 197.1 128.8 C 197.1 125.9 196.2 124.2 189.6 120.7 C 184.3 118 182.2 115.4 182.2 111 C 182.2 106.2 186.3 102.6 192.1 102.6 C 194.7 102.6 197.4 103.3 199.6 104.8 Z M 210.1 103 C 210.1 103 210.1 122.69 210.1 122.7 C 210.1 130.2 213.6 134.2 220.6 134.2 C 227.7 134.2 231.2 130.1 231.2 122.7 C 231.2 122.69 231.2 103 231.2 103 L 234.9 103 C 234.9 103 234.95 122.69 234.9 122.7 C 234.9 131.6 230.2 137.6 220.7 137.6 C 211.3 137.6 206.3 132.2 206.3 122.7 C 206.35 122.69 206.3 103 206.3 103 L 210.1 103 Z M 242.2 103 C 242.2 103 251.15 103.04 251.1 103 C 258 103 261.5 107 261.5 112.2 C 261.5 116.4 259.2 119.3 255.1 120.6 C 257.3 121.7 258.3 122.6 261.1 126.9 C 261.1 126.94 267.7 137.1 267.7 137.1 L 263.2 137.1 C 263.2 137.1 257.25 127.74 257.2 127.7 C 254.1 122.7 252 121.6 249.1 121.6 C 249.1 121.64 245.9 121.6 245.9 121.6 L 245.9 137.1 L 242.2 137.1 L 242.2 103 Z M 249.4 118.3 C 254.1 118.3 257.7 117.2 257.7 112.2 C 257.7 108 255 106.3 250.6 106.3 C 250.65 106.34 245.9 106.3 245.9 106.3 L 245.9 118.3 C 245.9 118.3 249.45 118.34 249.4 118.3 Z M 265.9 103 L 269.7 103 L 280.8 129.6 L 280.8 129.6 L 291.9 103 L 295.6 103 L 281.2 137.5 L 280.4 137.5 L 265.9 103 Z M 318.2 103 L 318.2 106.4 L 303.3 106.4 L 303.3 118.3 L 317.7 118.3 L 317.7 121.6 L 303.3 121.6 L 303.3 133.7 L 318.6 133.7 L 318.6 137.1 L 299.5 137.1 L 299.5 103 L 318.2 103 Z M 326.3 103 L 336.5 115.6 L 346.6 103 L 351.1 103 L 338.4 118.9 L 338.4 137.1 L 334.6 137.1 L 334.6 118.9 L 321.8 103 L 326.3 103 Z " stroke="none" fill="#010102"/>  </g></svg>