<?xml version="1.0" standalone="no"?><!DOCTYPE svg PUBLIC "-//W3C//DTD SVG 1.1//EN" "http://www.w3.org/Graphics/SVG/1.1/DTD/svg11.dtd"><svg xmlns="http://www.w3.org/2000/svg" version="1.1" width="508px" height="90.3px" viewBox="0 -14 508 90.3" style="top:-14px">  <desc>About Us</desc>  <defs/>  <g id="Polygon16536">    <path d="M 21 2.6 L 39.2 43.7 L 34.6 43.7 L 28.9 30.9 L 10.3 30.9 L 4.7 43.7 L 0.1 43.7 L 17.8 2.6 L 21 2.6 Z M 12 26.9 L 27.1 26.9 L 19.3 9.5 L 12 26.9 Z M 54.5 2.8 C 62.1 2.8 67.1 6.7 67.1 13.3 C 67.1 17.6 64.7 20.8 60.4 22.3 C 66.7 23.2 70.6 27.4 70.6 32.8 C 70.6 40.3 63.9 43.7 56.4 43.7 C 56.4 43.74 43.9 43.7 43.9 43.7 L 43.9 2.8 C 43.9 2.8 54.48 2.82 54.5 2.8 Z M 48.4 21 C 48.4 21 52.86 21 52.9 21 C 59.6 21 62.5 17.9 62.5 13.7 C 62.5 8.9 59.6 6.8 53.6 6.8 C 53.58 6.78 48.4 6.8 48.4 6.8 L 48.4 21 Z M 55.6 39.8 C 62.1 39.8 65.9 37.6 65.9 32.4 C 65.9 27.7 62.6 24.9 54.9 24.9 C 54.9 24.9 48.4 24.9 48.4 24.9 L 48.4 39.8 C 48.4 39.8 55.56 39.78 55.6 39.8 Z M 118 23.1 C 118 34.6 109.6 44.3 96.1 44.3 C 83.3 44.3 74.8 34.6 74.8 23.5 C 74.8 12.1 83 2.3 96.2 2.3 C 109.3 2.3 118 11.8 118 23.1 Z M 79.4 23.3 C 79.4 33 86.9 40.1 96.1 40 C 108.3 40 113.3 30.6 113.3 23.2 C 113.3 14.9 107.2 6.5 96.5 6.5 C 85.3 6.5 79.4 15 79.4 23.3 Z M 129.3 2.8 C 129.3 2.8 129.3 26.4 129.3 26.4 C 129.3 35.5 133.6 40.3 142 40.3 C 150.5 40.3 154.6 35.3 154.6 26.4 C 154.62 26.4 154.6 2.8 154.6 2.8 L 159.1 2.8 C 159.1 2.8 159.12 26.4 159.1 26.4 C 159.1 37.1 153.4 44.3 142.1 44.3 C 130.8 44.3 124.8 37.9 124.8 26.4 C 124.8 26.4 124.8 2.8 124.8 2.8 L 129.3 2.8 Z M 197.7 2.8 L 197.7 6.8 L 183.1 6.8 L 183.1 43.7 L 178.6 43.7 L 178.6 6.8 L 164.1 6.8 L 164.1 2.8 L 197.7 2.8 Z M 223.9 2.8 C 223.9 2.8 223.86 26.4 223.9 26.4 C 223.9 35.5 228.1 40.3 236.5 40.3 C 245 40.3 249.2 35.3 249.2 26.4 C 249.18 26.4 249.2 2.8 249.2 2.8 L 253.7 2.8 C 253.7 2.8 253.68 26.4 253.7 26.4 C 253.7 37.1 248 44.3 236.6 44.3 C 225.4 44.3 219.4 37.9 219.4 26.4 C 219.36 26.4 219.4 2.8 219.4 2.8 L 223.9 2.8 Z M 281.3 4.9 C 281.3 4.9 281.3 10 281.3 10 C 278.5 7.6 275.5 6.4 272.1 6.4 C 267.8 6.4 265 8.8 265 12.3 C 265 15 265.6 17.3 272.4 20.8 C 280.9 25.1 282.9 28.1 282.9 33.7 C 282.9 39.7 278.2 44.3 271.2 44.3 C 267.3 44.3 263.7 43 260.6 40.7 C 260.6 40.7 260.6 35 260.6 35 C 263.6 38.4 267.2 40.3 271.2 40.3 C 275.3 40.3 278.3 37.7 278.3 33.7 C 278.3 30.2 277.2 28.2 269.3 24.1 C 262.9 20.8 260.4 17.6 260.4 12.4 C 260.4 6.6 265.4 2.3 272.2 2.3 C 275.4 2.3 278.6 3.2 281.3 4.9 Z " stroke="none" fill="#010102"/>  </g></svg>