<?xml version="1.0" standalone="no"?><!DOCTYPE svg PUBLIC "-//W3C//DTD SVG 1.1//EN" "http://www.w3.org/Graphics/SVG/1.1/DTD/svg11.dtd"><svg xmlns="http://www.w3.org/2000/svg" version="1.1" width="200px" height="20.5px" viewBox="0 -4 200 20.5" style="top:-4px">  <desc>EPA Booking Process</desc>  <defs/>  <g id="Polygon49092">    <path d="M 0.9 8.7 L 0.9 0.1 L 7.2 0.1 L 7.2 1.2 L 2.1 1.2 L 2.1 3.8 L 6.8 3.8 L 6.8 4.8 L 2.1 4.8 L 2.1 7.7 L 7.4 7.7 L 7.4 8.7 L 0.9 8.7 Z M 8.9 8.7 L 8.9 0.1 C 8.9 0.1 12.17 0.15 12.2 0.1 C 12.7 0.1 13.2 0.2 13.5 0.2 C 13.9 0.3 14.3 0.4 14.5 0.6 C 14.8 0.8 15.1 1.1 15.2 1.5 C 15.4 1.8 15.5 2.2 15.5 2.6 C 15.5 3.4 15.3 4 14.8 4.5 C 14.3 5 13.5 5.2 12.3 5.2 C 12.27 5.24 10.1 5.2 10.1 5.2 L 10.1 8.7 L 8.9 8.7 Z M 10.1 4.2 C 10.1 4.2 12.29 4.23 12.3 4.2 C 13 4.2 13.5 4.1 13.9 3.8 C 14.2 3.5 14.3 3.2 14.3 2.7 C 14.3 2.3 14.2 2 14 1.7 C 13.9 1.5 13.6 1.3 13.3 1.2 C 13.1 1.2 12.8 1.2 12.3 1.2 C 12.26 1.16 10.1 1.2 10.1 1.2 L 10.1 4.2 Z M 15.1 8.7 L 18.4 0.1 L 19.6 0.1 L 23.1 8.7 L 21.8 8.7 L 20.8 6.1 L 17.3 6.1 L 16.3 8.7 L 15.1 8.7 Z M 17.6 5.2 L 20.5 5.2 C 20.5 5.2 19.59 2.83 19.6 2.8 C 19.3 2.1 19.1 1.5 19 1 C 18.9 1.6 18.7 2.1 18.5 2.7 C 18.52 2.69 17.6 5.2 17.6 5.2 Z M 26.7 8.7 L 26.7 0.1 C 26.7 0.1 29.89 0.15 29.9 0.1 C 30.6 0.1 31.1 0.2 31.5 0.4 C 31.9 0.6 32.2 0.8 32.4 1.2 C 32.6 1.6 32.7 1.9 32.7 2.3 C 32.7 2.7 32.6 3.1 32.4 3.4 C 32.2 3.7 31.9 4 31.5 4.2 C 32.1 4.3 32.5 4.6 32.7 4.9 C 33 5.3 33.2 5.7 33.2 6.2 C 33.2 6.6 33.1 7 32.9 7.4 C 32.7 7.7 32.5 8 32.3 8.2 C 32 8.4 31.7 8.5 31.3 8.6 C 31 8.7 30.5 8.7 29.9 8.7 C 29.95 8.74 26.7 8.7 26.7 8.7 Z M 27.8 3.8 C 27.8 3.8 29.67 3.76 29.7 3.8 C 30.2 3.8 30.5 3.7 30.8 3.7 C 31 3.6 31.3 3.4 31.4 3.2 C 31.5 3 31.6 2.8 31.6 2.5 C 31.6 2.2 31.6 1.9 31.4 1.7 C 31.3 1.5 31.1 1.4 30.8 1.3 C 30.6 1.2 30.1 1.2 29.5 1.2 C 29.53 1.16 27.8 1.2 27.8 1.2 L 27.8 3.8 Z M 27.8 7.7 C 27.8 7.7 29.95 7.72 29.9 7.7 C 30.3 7.7 30.6 7.7 30.7 7.7 C 31 7.6 31.2 7.6 31.4 7.4 C 31.6 7.3 31.7 7.2 31.8 7 C 31.9 6.8 32 6.5 32 6.2 C 32 5.9 31.9 5.6 31.7 5.4 C 31.6 5.2 31.3 5 31.1 4.9 C 30.8 4.8 30.3 4.8 29.8 4.8 C 29.79 4.77 27.8 4.8 27.8 4.8 L 27.8 7.7 Z M 34.2 5.6 C 34.2 4.5 34.5 3.6 35.2 3.1 C 35.7 2.6 36.3 2.4 37.1 2.4 C 38 2.4 38.7 2.7 39.2 3.2 C 39.8 3.8 40 4.5 40 5.5 C 40 6.3 39.9 7 39.7 7.4 C 39.4 7.9 39.1 8.2 38.6 8.5 C 38.2 8.7 37.7 8.9 37.1 8.9 C 36.2 8.9 35.5 8.6 35 8 C 34.5 7.5 34.2 6.7 34.2 5.6 Z M 35.3 5.6 C 35.3 6.4 35.5 7 35.8 7.4 C 36.1 7.8 36.6 8 37.1 8 C 37.6 8 38.1 7.8 38.4 7.4 C 38.8 7 38.9 6.4 38.9 5.6 C 38.9 4.8 38.8 4.2 38.4 3.8 C 38.1 3.4 37.6 3.2 37.1 3.2 C 36.6 3.2 36.1 3.4 35.8 3.8 C 35.5 4.2 35.3 4.8 35.3 5.6 Z M 40.9 5.6 C 40.9 4.5 41.2 3.6 41.8 3.1 C 42.4 2.6 43 2.4 43.8 2.4 C 44.6 2.4 45.3 2.7 45.9 3.2 C 46.4 3.8 46.7 4.5 46.7 5.5 C 46.7 6.3 46.6 7 46.3 7.4 C 46.1 7.9 45.7 8.2 45.3 8.5 C 44.8 8.7 44.3 8.9 43.8 8.9 C 42.9 8.9 42.2 8.6 41.7 8 C 41.1 7.5 40.9 6.7 40.9 5.6 Z M 42 5.6 C 42 6.4 42.1 7 42.5 7.4 C 42.8 7.8 43.3 8 43.8 8 C 44.3 8 44.7 7.8 45.1 7.4 C 45.4 7 45.6 6.4 45.6 5.6 C 45.6 4.8 45.4 4.2 45.1 3.8 C 44.7 3.4 44.3 3.2 43.8 3.2 C 43.3 3.2 42.8 3.4 42.5 3.8 C 42.1 4.2 42 4.8 42 5.6 Z M 47.9 8.7 L 47.9 0.1 L 49 0.1 L 49 5 L 51.5 2.5 L 52.9 2.5 L 50.5 4.8 L 53.1 8.7 L 51.8 8.7 L 49.7 5.6 L 49 6.3 L 49 8.7 L 47.9 8.7 Z M 53.9 1.4 L 53.9 0.1 L 55 0.1 L 55 1.4 L 53.9 1.4 Z M 53.9 8.7 L 53.9 2.5 L 55 2.5 L 55 8.7 L 53.9 8.7 Z M 56.6 8.7 L 56.6 2.5 L 57.6 2.5 C 57.6 2.5 57.55 3.4 57.6 3.4 C 58 2.7 58.7 2.4 59.5 2.4 C 59.9 2.4 60.3 2.4 60.6 2.6 C 60.9 2.7 61.1 2.9 61.3 3.1 C 61.4 3.3 61.5 3.6 61.6 3.9 C 61.6 4.1 61.7 4.4 61.7 4.9 C 61.66 4.91 61.7 8.7 61.7 8.7 L 60.6 8.7 C 60.6 8.7 60.6 4.95 60.6 5 C 60.6 4.5 60.6 4.2 60.5 4 C 60.4 3.8 60.3 3.6 60 3.5 C 59.8 3.4 59.6 3.3 59.3 3.3 C 58.9 3.3 58.5 3.4 58.1 3.7 C 57.8 4 57.7 4.5 57.7 5.3 C 57.66 5.34 57.7 8.7 57.7 8.7 L 56.6 8.7 Z M 63.1 9.3 C 63.1 9.3 64.1 9.4 64.1 9.4 C 64.2 9.7 64.3 10 64.5 10.1 C 64.7 10.3 65.1 10.4 65.5 10.4 C 66 10.4 66.4 10.3 66.7 10.1 C 66.9 9.9 67.1 9.6 67.2 9.3 C 67.3 9.1 67.3 8.6 67.3 7.9 C 66.8 8.5 66.2 8.7 65.6 8.7 C 64.7 8.7 64 8.4 63.6 7.8 C 63.1 7.2 62.9 6.5 62.9 5.6 C 62.9 5 63 4.4 63.2 3.9 C 63.4 3.4 63.7 3.1 64.1 2.8 C 64.5 2.5 65 2.4 65.6 2.4 C 66.3 2.4 66.9 2.7 67.4 3.3 C 67.38 3.26 67.4 2.5 67.4 2.5 L 68.4 2.5 C 68.4 2.5 68.36 7.89 68.4 7.9 C 68.4 8.9 68.3 9.5 68.1 10 C 67.9 10.4 67.5 10.7 67.1 10.9 C 66.7 11.1 66.2 11.3 65.5 11.3 C 64.8 11.3 64.2 11.1 63.7 10.8 C 63.3 10.4 63.1 9.9 63.1 9.3 Z M 64 5.5 C 64 6.3 64.1 6.9 64.4 7.3 C 64.8 7.7 65.2 7.9 65.7 7.9 C 66.1 7.9 66.6 7.7 66.9 7.3 C 67.2 6.9 67.4 6.3 67.4 5.5 C 67.4 4.8 67.2 4.2 66.9 3.8 C 66.5 3.4 66.1 3.2 65.6 3.2 C 65.2 3.2 64.8 3.4 64.4 3.8 C 64.1 4.2 64 4.8 64 5.5 Z M 73.4 8.7 L 73.4 0.1 C 73.4 0.1 76.66 0.15 76.7 0.1 C 77.2 0.1 77.7 0.2 78 0.2 C 78.4 0.3 78.7 0.4 79 0.6 C 79.3 0.8 79.5 1.1 79.7 1.5 C 79.9 1.8 80 2.2 80 2.6 C 80 3.4 79.7 4 79.3 4.5 C 78.8 5 78 5.2 76.8 5.2 C 76.76 5.24 74.6 5.2 74.6 5.2 L 74.6 8.7 L 73.4 8.7 Z M 74.6 4.2 C 74.6 4.2 76.78 4.23 76.8 4.2 C 77.5 4.2 78 4.1 78.3 3.8 C 78.6 3.5 78.8 3.2 78.8 2.7 C 78.8 2.3 78.7 2 78.5 1.7 C 78.3 1.5 78.1 1.3 77.8 1.2 C 77.6 1.2 77.3 1.2 76.8 1.2 C 76.75 1.16 74.6 1.2 74.6 1.2 L 74.6 4.2 Z M 81.3 8.7 L 81.3 2.5 L 82.2 2.5 C 82.2 2.5 82.22 3.46 82.2 3.5 C 82.5 3 82.7 2.7 82.9 2.6 C 83.1 2.4 83.3 2.4 83.6 2.4 C 83.9 2.4 84.3 2.5 84.7 2.7 C 84.7 2.7 84.3 3.7 84.3 3.7 C 84 3.5 83.8 3.5 83.5 3.5 C 83.3 3.5 83.1 3.5 82.9 3.7 C 82.7 3.8 82.6 4 82.5 4.2 C 82.4 4.6 82.3 5 82.3 5.5 C 82.33 5.48 82.3 8.7 82.3 8.7 L 81.3 8.7 Z M 84.9 5.6 C 84.9 4.5 85.2 3.6 85.9 3.1 C 86.4 2.6 87 2.4 87.8 2.4 C 88.7 2.4 89.4 2.7 89.9 3.2 C 90.4 3.8 90.7 4.5 90.7 5.5 C 90.7 6.3 90.6 7 90.4 7.4 C 90.1 7.9 89.8 8.2 89.3 8.5 C 88.9 8.7 88.4 8.9 87.8 8.9 C 86.9 8.9 86.2 8.6 85.7 8 C 85.2 7.5 84.9 6.7 84.9 5.6 Z M 86 5.6 C 86 6.4 86.1 7 86.5 7.4 C 86.8 7.8 87.3 8 87.8 8 C 88.3 8 88.8 7.8 89.1 7.4 C 89.5 7 89.6 6.4 89.6 5.6 C 89.6 4.8 89.5 4.2 89.1 3.8 C 88.8 3.4 88.3 3.2 87.8 3.2 C 87.3 3.2 86.8 3.4 86.5 3.8 C 86.1 4.2 86 4.8 86 5.6 Z M 96 6.5 C 96 6.5 97.1 6.6 97.1 6.6 C 96.9 7.3 96.7 7.9 96.2 8.3 C 95.7 8.7 95.1 8.9 94.5 8.9 C 93.6 8.9 92.9 8.6 92.4 8 C 91.9 7.5 91.6 6.7 91.6 5.6 C 91.6 5 91.7 4.4 92 3.9 C 92.2 3.4 92.5 3 93 2.8 C 93.4 2.5 93.9 2.4 94.5 2.4 C 95.1 2.4 95.7 2.5 96.1 2.9 C 96.6 3.2 96.8 3.7 97 4.3 C 97 4.3 95.9 4.5 95.9 4.5 C 95.8 4.1 95.7 3.8 95.4 3.6 C 95.2 3.3 94.9 3.2 94.5 3.2 C 94 3.2 93.5 3.4 93.2 3.8 C 92.9 4.2 92.7 4.8 92.7 5.6 C 92.7 6.5 92.9 7.1 93.2 7.4 C 93.5 7.8 93.9 8 94.5 8 C 94.9 8 95.2 7.9 95.5 7.6 C 95.8 7.4 95.9 7 96 6.5 Z M 102.2 6.7 C 102.2 6.7 103.3 6.9 103.3 6.9 C 103.1 7.5 102.8 8 102.4 8.3 C 101.9 8.7 101.3 8.9 100.6 8.9 C 99.7 8.9 98.9 8.6 98.4 8 C 97.9 7.5 97.6 6.7 97.6 5.7 C 97.6 4.6 97.9 3.8 98.4 3.2 C 99 2.7 99.7 2.4 100.5 2.4 C 101.3 2.4 102 2.7 102.6 3.2 C 103.1 3.8 103.3 4.6 103.3 5.6 C 103.3 5.7 103.3 5.8 103.3 5.9 C 103.3 5.9 98.7 5.9 98.7 5.9 C 98.7 6.6 98.9 7.1 99.3 7.5 C 99.6 7.8 100.1 8 100.6 8 C 101 8 101.3 7.9 101.6 7.7 C 101.8 7.5 102.1 7.2 102.2 6.7 Z M 98.8 5 C 98.8 5 102.2 5 102.2 5 C 102.2 4.5 102 4.1 101.8 3.8 C 101.5 3.4 101.1 3.2 100.5 3.2 C 100 3.2 99.6 3.4 99.3 3.7 C 99 4.1 98.8 4.5 98.8 5 Z M 104.2 6.9 C 104.2 6.9 105.3 6.7 105.3 6.7 C 105.3 7.1 105.5 7.5 105.7 7.7 C 106 7.9 106.4 8 106.9 8 C 107.3 8 107.7 7.9 107.9 7.7 C 108.2 7.5 108.3 7.3 108.3 7 C 108.3 6.8 108.2 6.6 108 6.5 C 107.8 6.4 107.5 6.2 106.9 6.1 C 106.1 5.9 105.6 5.7 105.3 5.6 C 105 5.5 104.8 5.3 104.6 5 C 104.5 4.7 104.4 4.5 104.4 4.2 C 104.4 3.9 104.4 3.6 104.6 3.4 C 104.7 3.2 104.9 3 105.1 2.8 C 105.3 2.7 105.5 2.6 105.8 2.5 C 106 2.4 106.4 2.4 106.7 2.4 C 107.2 2.4 107.6 2.4 108 2.6 C 108.3 2.7 108.6 2.9 108.8 3.2 C 109 3.4 109.1 3.7 109.1 4.1 C 109.1 4.1 108.1 4.3 108.1 4.3 C 108.1 3.9 107.9 3.7 107.7 3.5 C 107.5 3.3 107.2 3.2 106.8 3.2 C 106.3 3.2 105.9 3.3 105.7 3.5 C 105.5 3.6 105.4 3.8 105.4 4 C 105.4 4.2 105.4 4.3 105.5 4.4 C 105.6 4.5 105.8 4.6 105.9 4.7 C 106 4.7 106.4 4.8 106.9 5 C 107.6 5.2 108.1 5.3 108.4 5.5 C 108.7 5.6 109 5.8 109.1 6 C 109.3 6.2 109.4 6.5 109.4 6.9 C 109.4 7.3 109.3 7.6 109.1 7.9 C 108.9 8.2 108.6 8.5 108.2 8.6 C 107.8 8.8 107.4 8.9 106.9 8.9 C 106.1 8.9 105.4 8.7 105 8.4 C 104.6 8 104.3 7.5 104.2 6.9 Z M 110.2 6.9 C 110.2 6.9 111.3 6.7 111.3 6.7 C 111.3 7.1 111.5 7.5 111.7 7.7 C 112 7.9 112.4 8 112.9 8 C 113.3 8 113.7 7.9 113.9 7.7 C 114.2 7.5 114.3 7.3 114.3 7 C 114.3 6.8 114.2 6.6 114 6.5 C 113.8 6.4 113.5 6.2 112.9 6.1 C 112.1 5.9 111.6 5.7 111.3 5.6 C 111 5.5 110.8 5.3 110.6 5 C 110.5 4.7 110.4 4.5 110.4 4.2 C 110.4 3.9 110.4 3.6 110.6 3.4 C 110.7 3.2 110.9 3 111.1 2.8 C 111.3 2.7 111.5 2.6 111.8 2.5 C 112 2.4 112.4 2.4 112.7 2.4 C 113.2 2.4 113.6 2.4 114 2.6 C 114.3 2.7 114.6 2.9 114.8 3.2 C 115 3.4 115.1 3.7 115.1 4.1 C 115.1 4.1 114.1 4.3 114.1 4.3 C 114.1 3.9 113.9 3.7 113.7 3.5 C 113.5 3.3 113.2 3.2 112.8 3.2 C 112.3 3.2 111.9 3.3 111.7 3.5 C 111.5 3.6 111.4 3.8 111.4 4 C 111.4 4.2 111.4 4.3 111.5 4.4 C 111.6 4.5 111.8 4.6 111.9 4.7 C 112 4.7 112.4 4.8 112.9 5 C 113.6 5.2 114.1 5.3 114.4 5.5 C 114.7 5.6 115 5.8 115.1 6 C 115.3 6.2 115.4 6.5 115.4 6.9 C 115.4 7.3 115.3 7.6 115.1 7.9 C 114.9 8.2 114.6 8.5 114.2 8.6 C 113.8 8.8 113.4 8.9 112.9 8.9 C 112.1 8.9 111.4 8.7 111 8.4 C 110.6 8 110.3 7.5 110.2 6.9 Z " stroke="none" fill="#000"/>  </g></svg>