<?xml version="1.0" standalone="no"?><!DOCTYPE svg PUBLIC "-//W3C//DTD SVG 1.1//EN" "http://www.w3.org/Graphics/SVG/1.1/DTD/svg11.dtd"><svg xmlns="http://www.w3.org/2000/svg" version="1.1" width="1030px" height="107.1px" viewBox="0 -9 1030 107.1" style="top:-9px">  <desc>Behaviours Clients rated their satisfaction against our business behaviours as follows:</desc>  <defs/>  <g id="Polygon22865">    <path d="M 14.1 77.8 C 14.1 77.8 16.4 78.4 16.4 78.4 C 15.9 80.3 15 81.7 13.8 82.7 C 12.6 83.6 11.1 84.1 9.3 84.1 C 7.4 84.1 5.9 83.8 4.8 83 C 3.6 82.3 2.7 81.2 2.1 79.7 C 1.5 78.3 1.2 76.8 1.2 75.1 C 1.2 73.3 1.5 71.8 2.2 70.4 C 2.9 69.1 3.9 68.1 5.1 67.4 C 6.4 66.7 7.8 66.4 9.3 66.4 C 11 66.4 12.5 66.8 13.6 67.7 C 14.8 68.6 15.6 69.8 16.1 71.4 C 16.1 71.4 13.9 71.9 13.9 71.9 C 13.5 70.7 12.9 69.7 12.1 69.2 C 11.4 68.6 10.4 68.3 9.3 68.3 C 7.9 68.3 6.8 68.6 5.9 69.3 C 5.1 69.9 4.4 70.7 4.1 71.8 C 3.7 72.9 3.5 74 3.5 75.1 C 3.5 76.6 3.8 77.8 4.2 78.9 C 4.6 80 5.3 80.8 6.2 81.4 C 7.1 81.9 8 82.2 9.1 82.2 C 10.4 82.2 11.4 81.8 12.3 81.1 C 13.2 80.4 13.8 79.3 14.1 77.8 Z M 18.9 83.8 L 18.9 66.7 L 21 66.7 L 21 83.8 L 18.9 83.8 Z M 24.3 69.1 L 24.3 66.7 L 26.4 66.7 L 26.4 69.1 L 24.3 69.1 Z M 24.3 83.8 L 24.3 71.4 L 26.4 71.4 L 26.4 83.8 L 24.3 83.8 Z M 38.1 79.8 C 38.1 79.8 40.3 80.1 40.3 80.1 C 39.9 81.4 39.3 82.4 38.4 83.1 C 37.4 83.8 36.2 84.1 34.8 84.1 C 33 84.1 31.5 83.6 30.5 82.4 C 29.4 81.3 28.9 79.7 28.9 77.7 C 28.9 75.6 29.4 74 30.5 72.9 C 31.6 71.7 33 71.1 34.7 71.1 C 36.4 71.1 37.7 71.7 38.8 72.8 C 39.8 73.9 40.3 75.5 40.3 77.6 C 40.3 77.7 40.3 77.9 40.3 78.2 C 40.3 78.2 31.1 78.2 31.1 78.2 C 31.1 79.5 31.5 80.6 32.2 81.3 C 32.9 82 33.8 82.4 34.8 82.4 C 35.6 82.4 36.2 82.2 36.8 81.8 C 37.3 81.4 37.8 80.7 38.1 79.8 Z M 31.2 76.4 C 31.2 76.4 38.1 76.4 38.1 76.4 C 38 75.4 37.8 74.6 37.3 74.1 C 36.7 73.3 35.8 72.9 34.7 72.9 C 33.7 72.9 32.9 73.2 32.3 73.8 C 31.6 74.5 31.2 75.3 31.2 76.4 Z M 42.9 83.8 L 42.9 71.4 L 44.8 71.4 C 44.8 71.4 44.82 73.17 44.8 73.2 C 45.7 71.8 47.1 71.1 48.8 71.1 C 49.5 71.1 50.2 71.3 50.9 71.5 C 51.5 71.8 52 72.1 52.3 72.6 C 52.6 73 52.8 73.5 52.9 74.1 C 53 74.5 53 75.2 53 76.2 C 53.04 76.19 53 83.8 53 83.8 L 50.9 83.8 C 50.9 83.8 50.93 76.27 50.9 76.3 C 50.9 75.4 50.8 74.8 50.7 74.3 C 50.5 73.9 50.2 73.6 49.8 73.3 C 49.4 73.1 48.9 72.9 48.3 72.9 C 47.4 72.9 46.7 73.2 46 73.8 C 45.4 74.4 45 75.5 45 77 C 45.04 77.05 45 83.8 45 83.8 L 42.9 83.8 Z M 60 82 C 60.2 82 60.5 82 60.9 82 C 60.9 82 61.2 83.8 61.2 83.8 C 60.6 83.9 60.1 84 59.6 84 C 58.8 84 58.2 83.9 57.8 83.6 C 57.4 83.4 57.1 83.1 56.9 82.7 C 56.7 82.3 56.7 81.5 56.7 80.2 C 56.66 80.2 56.7 73 56.7 73 L 55.1 73 L 55.1 71.4 L 56.7 71.4 L 56.7 68.3 L 58.8 67.1 L 58.8 71.4 L 60.9 71.4 L 60.9 73 L 58.8 73 C 58.8 73 58.76 80.32 58.8 80.3 C 58.8 80.9 58.8 81.3 58.9 81.5 C 58.9 81.6 59.1 81.8 59.2 81.9 C 59.4 82 59.6 82 60 82 C 60 82 60 82 60 82 Z M 62.1 80.1 C 62.1 80.1 64.2 79.8 64.2 79.8 C 64.3 80.6 64.6 81.3 65.2 81.7 C 65.7 82.2 66.4 82.4 67.4 82.4 C 68.4 82.4 69.1 82.2 69.6 81.8 C 70 81.4 70.3 80.9 70.3 80.4 C 70.3 79.9 70.1 79.6 69.6 79.3 C 69.4 79.1 68.6 78.9 67.5 78.6 C 65.9 78.2 64.9 77.8 64.3 77.6 C 63.7 77.3 63.2 76.9 62.9 76.4 C 62.6 75.9 62.4 75.3 62.4 74.7 C 62.4 74.1 62.6 73.6 62.8 73.2 C 63.1 72.7 63.4 72.3 63.9 72 C 64.2 71.7 64.6 71.5 65.2 71.4 C 65.8 71.2 66.4 71.1 67 71.1 C 68 71.1 68.9 71.3 69.6 71.5 C 70.3 71.8 70.9 72.2 71.2 72.7 C 71.6 73.2 71.8 73.8 72 74.6 C 72 74.6 69.9 74.9 69.9 74.9 C 69.8 74.2 69.5 73.7 69.1 73.4 C 68.6 73 68 72.9 67.2 72.9 C 66.2 72.9 65.5 73 65.1 73.3 C 64.7 73.7 64.5 74 64.5 74.5 C 64.5 74.7 64.6 75 64.7 75.2 C 64.9 75.4 65.2 75.6 65.6 75.8 C 65.8 75.8 66.4 76 67.4 76.3 C 68.9 76.7 70 77 70.5 77.3 C 71.1 77.5 71.6 77.9 71.9 78.4 C 72.3 78.9 72.4 79.5 72.4 80.2 C 72.4 80.9 72.2 81.6 71.8 82.2 C 71.4 82.8 70.8 83.3 70 83.6 C 69.3 84 68.4 84.1 67.4 84.1 C 65.8 84.1 64.6 83.8 63.7 83.1 C 62.9 82.4 62.3 81.4 62.1 80.1 Z M 81.6 83.8 L 81.6 71.4 L 83.5 71.4 C 83.5 71.4 83.48 73.28 83.5 73.3 C 84 72.4 84.4 71.8 84.8 71.5 C 85.2 71.3 85.7 71.1 86.2 71.1 C 86.9 71.1 87.6 71.3 88.3 71.8 C 88.3 71.8 87.6 73.8 87.6 73.8 C 87.1 73.4 86.6 73.3 86.1 73.3 C 85.6 73.3 85.2 73.4 84.8 73.7 C 84.5 74 84.2 74.4 84 74.9 C 83.8 75.6 83.7 76.4 83.7 77.3 C 83.7 77.33 83.7 83.8 83.7 83.8 L 81.6 83.8 Z M 98.1 83.8 C 97.9 83.4 97.8 82.9 97.7 82.3 C 96.9 83 96.2 83.4 95.5 83.7 C 94.7 84 94 84.1 93.1 84.1 C 91.8 84.1 90.7 83.8 90 83.1 C 89.3 82.5 88.9 81.6 88.9 80.6 C 88.9 80 89 79.4 89.3 78.9 C 89.6 78.4 89.9 78 90.4 77.7 C 90.8 77.4 91.3 77.1 91.9 77 C 92.3 76.9 92.9 76.8 93.8 76.7 C 95.5 76.5 96.7 76.2 97.5 75.9 C 97.6 75.7 97.6 75.5 97.6 75.4 C 97.6 74.5 97.4 73.9 97 73.6 C 96.4 73.1 95.6 72.9 94.6 72.9 C 93.6 72.9 92.8 73 92.4 73.4 C 91.9 73.7 91.5 74.3 91.3 75.2 C 91.3 75.2 89.3 74.9 89.3 74.9 C 89.4 74.1 89.7 73.4 90.2 72.8 C 90.6 72.3 91.2 71.8 92 71.6 C 92.9 71.3 93.8 71.1 94.9 71.1 C 95.9 71.1 96.8 71.2 97.5 71.5 C 98.1 71.7 98.6 72.1 98.9 72.4 C 99.2 72.8 99.4 73.3 99.6 73.9 C 99.6 74.2 99.7 74.9 99.7 75.8 C 99.7 75.8 99.7 78.6 99.7 78.6 C 99.7 80.6 99.7 81.8 99.8 82.3 C 99.9 82.9 100.1 83.4 100.3 83.8 C 100.35 83.84 98.1 83.8 98.1 83.8 C 98.1 83.8 98.14 83.84 98.1 83.8 Z M 97.5 77.6 C 96.8 77.9 95.6 78.2 94.1 78.4 C 93.2 78.5 92.6 78.7 92.3 78.8 C 91.9 79 91.6 79.2 91.4 79.5 C 91.2 79.8 91.1 80.1 91.1 80.5 C 91.1 81.1 91.3 81.5 91.8 81.9 C 92.2 82.3 92.8 82.5 93.6 82.5 C 94.5 82.5 95.2 82.3 95.8 81.9 C 96.4 81.6 96.9 81.1 97.2 80.5 C 97.4 80 97.5 79.3 97.5 78.4 C 97.5 78.4 97.5 77.6 97.5 77.6 Z M 106.6 82 C 106.9 82 107.2 82 107.6 82 C 107.6 82 107.9 83.8 107.9 83.8 C 107.3 83.9 106.7 84 106.3 84 C 105.5 84 104.9 83.9 104.5 83.6 C 104.1 83.4 103.8 83.1 103.6 82.7 C 103.4 82.3 103.3 81.5 103.3 80.2 C 103.34 80.2 103.3 73 103.3 73 L 101.8 73 L 101.8 71.4 L 103.3 71.4 L 103.3 68.3 L 105.4 67.1 L 105.4 71.4 L 107.6 71.4 L 107.6 73 L 105.4 73 C 105.4 73 105.43 80.32 105.4 80.3 C 105.4 80.9 105.5 81.3 105.5 81.5 C 105.6 81.6 105.7 81.8 105.9 81.9 C 106.1 82 106.3 82 106.6 82 C 106.6 82 106.6 82 106.6 82 Z M 118.1 79.8 C 118.1 79.8 120.3 80.1 120.3 80.1 C 120 81.4 119.3 82.4 118.4 83.1 C 117.5 83.8 116.3 84.1 114.8 84.1 C 113 84.1 111.6 83.6 110.5 82.4 C 109.4 81.3 108.9 79.7 108.9 77.7 C 108.9 75.6 109.5 74 110.5 72.9 C 111.6 71.7 113 71.1 114.7 71.1 C 116.4 71.1 117.8 71.7 118.8 72.8 C 119.9 73.9 120.4 75.5 120.4 77.6 C 120.4 77.7 120.4 77.9 120.4 78.2 C 120.4 78.2 111.1 78.2 111.1 78.2 C 111.2 79.5 111.6 80.6 112.3 81.3 C 112.9 82 113.8 82.4 114.9 82.4 C 115.6 82.4 116.3 82.2 116.8 81.8 C 117.4 81.4 117.8 80.7 118.1 79.8 Z M 111.2 76.4 C 111.2 76.4 118.2 76.4 118.2 76.4 C 118.1 75.4 117.8 74.6 117.4 74.1 C 116.7 73.3 115.8 72.9 114.8 72.9 C 113.8 72.9 113 73.2 112.3 73.8 C 111.6 74.5 111.3 75.3 111.2 76.4 Z M 131 83.8 C 131 83.8 131.04 82.27 131 82.3 C 130.2 83.5 129.1 84.1 127.6 84.1 C 126.6 84.1 125.7 83.9 124.8 83.3 C 124 82.8 123.3 82 122.9 81 C 122.4 80 122.2 78.9 122.2 77.6 C 122.2 76.4 122.4 75.3 122.8 74.3 C 123.2 73.2 123.9 72.5 124.7 71.9 C 125.5 71.4 126.4 71.1 127.5 71.1 C 128.2 71.1 128.9 71.3 129.5 71.6 C 130.1 71.9 130.5 72.3 130.9 72.8 C 130.9 72.83 130.9 66.7 130.9 66.7 L 133 66.7 L 133 83.8 L 131 83.8 Z M 124.4 77.6 C 124.4 79.2 124.7 80.4 125.4 81.2 C 126.1 82 126.8 82.4 127.8 82.4 C 128.7 82.4 129.5 82 130.1 81.3 C 130.8 80.5 131.1 79.4 131.1 77.8 C 131.1 76.1 130.7 74.9 130.1 74.1 C 129.4 73.3 128.6 72.9 127.7 72.9 C 126.7 72.9 125.9 73.2 125.3 74 C 124.7 74.8 124.4 76 124.4 77.6 Z M 146.7 82 C 146.9 82 147.2 82 147.6 82 C 147.6 82 147.9 83.8 147.9 83.8 C 147.3 83.9 146.8 84 146.3 84 C 145.5 84 144.9 83.9 144.5 83.6 C 144.1 83.4 143.8 83.1 143.6 82.7 C 143.5 82.3 143.4 81.5 143.4 80.2 C 143.37 80.2 143.4 73 143.4 73 L 141.8 73 L 141.8 71.4 L 143.4 71.4 L 143.4 68.3 L 145.5 67.1 L 145.5 71.4 L 147.6 71.4 L 147.6 73 L 145.5 73 C 145.5 73 145.46 80.32 145.5 80.3 C 145.5 80.9 145.5 81.3 145.6 81.5 C 145.7 81.6 145.8 81.8 145.9 81.9 C 146.1 82 146.3 82 146.7 82 C 146.7 82 146.7 82 146.7 82 Z M 149.6 83.8 L 149.6 66.7 L 151.8 66.7 C 151.8 66.7 151.76 72.83 151.8 72.8 C 152.7 71.7 154 71.1 155.5 71.1 C 156.4 71.1 157.2 71.3 157.9 71.7 C 158.6 72 159.1 72.5 159.3 73.2 C 159.6 73.8 159.8 74.7 159.8 76 C 159.79 75.96 159.8 83.8 159.8 83.8 L 157.7 83.8 C 157.7 83.8 157.68 75.96 157.7 76 C 157.7 74.9 157.4 74.1 157 73.7 C 156.5 73.2 155.9 72.9 155.1 72.9 C 154.4 72.9 153.8 73.1 153.3 73.4 C 152.7 73.7 152.3 74.2 152.1 74.7 C 151.9 75.3 151.8 76.1 151.8 77 C 151.76 77.03 151.8 83.8 151.8 83.8 L 149.6 83.8 Z M 171.5 79.8 C 171.5 79.8 173.7 80.1 173.7 80.1 C 173.4 81.4 172.7 82.4 171.8 83.1 C 170.9 83.8 169.7 84.1 168.2 84.1 C 166.4 84.1 165 83.6 163.9 82.4 C 162.8 81.3 162.3 79.7 162.3 77.7 C 162.3 75.6 162.8 74 163.9 72.9 C 165 71.7 166.4 71.1 168.1 71.1 C 169.8 71.1 171.1 71.7 172.2 72.8 C 173.2 73.9 173.8 75.5 173.8 77.6 C 173.8 77.7 173.8 77.9 173.8 78.2 C 173.8 78.2 164.5 78.2 164.5 78.2 C 164.6 79.5 164.9 80.6 165.6 81.3 C 166.3 82 167.2 82.4 168.2 82.4 C 169 82.4 169.7 82.2 170.2 81.8 C 170.8 81.4 171.2 80.7 171.5 79.8 Z M 164.6 76.4 C 164.6 76.4 171.5 76.4 171.5 76.4 C 171.4 75.4 171.2 74.6 170.7 74.1 C 170.1 73.3 169.2 72.9 168.1 72.9 C 167.2 72.9 166.3 73.2 165.7 73.8 C 165 74.5 164.7 75.3 164.6 76.4 Z M 176.4 69.1 L 176.4 66.7 L 178.5 66.7 L 178.5 69.1 L 176.4 69.1 Z M 176.4 83.8 L 176.4 71.4 L 178.5 71.4 L 178.5 83.8 L 176.4 83.8 Z M 181.7 83.8 L 181.7 71.4 L 183.6 71.4 C 183.6 71.4 183.55 73.28 183.6 73.3 C 184 72.4 184.5 71.8 184.9 71.5 C 185.3 71.3 185.8 71.1 186.2 71.1 C 187 71.1 187.7 71.3 188.4 71.8 C 188.4 71.8 187.7 73.8 187.7 73.8 C 187.2 73.4 186.7 73.3 186.1 73.3 C 185.7 73.3 185.3 73.4 184.9 73.7 C 184.5 74 184.3 74.4 184.1 74.9 C 183.9 75.6 183.8 76.4 183.8 77.3 C 183.76 77.33 183.8 83.8 183.8 83.8 L 181.7 83.8 Z M 195.5 80.1 C 195.5 80.1 197.6 79.8 197.6 79.8 C 197.7 80.6 198 81.3 198.6 81.7 C 199.1 82.2 199.8 82.4 200.8 82.4 C 201.8 82.4 202.5 82.2 203 81.8 C 203.4 81.4 203.7 80.9 203.7 80.4 C 203.7 79.9 203.5 79.6 203 79.3 C 202.7 79.1 202 78.9 200.9 78.6 C 199.3 78.2 198.3 77.8 197.7 77.6 C 197.1 77.3 196.6 76.9 196.3 76.4 C 196 75.9 195.8 75.3 195.8 74.7 C 195.8 74.1 196 73.6 196.2 73.2 C 196.5 72.7 196.8 72.3 197.3 72 C 197.6 71.7 198 71.5 198.6 71.4 C 199.2 71.2 199.8 71.1 200.4 71.1 C 201.4 71.1 202.3 71.3 203 71.5 C 203.7 71.8 204.3 72.2 204.6 72.7 C 205 73.2 205.2 73.8 205.4 74.6 C 205.4 74.6 203.3 74.9 203.3 74.9 C 203.2 74.2 202.9 73.7 202.5 73.4 C 202 73 201.4 72.9 200.6 72.9 C 199.6 72.9 198.9 73 198.5 73.3 C 198.1 73.7 197.9 74 197.9 74.5 C 197.9 74.7 198 75 198.1 75.2 C 198.3 75.4 198.6 75.6 198.9 75.8 C 199.2 75.8 199.8 76 200.8 76.3 C 202.3 76.7 203.3 77 203.9 77.3 C 204.5 77.5 205 77.9 205.3 78.4 C 205.7 78.9 205.8 79.5 205.8 80.2 C 205.8 80.9 205.6 81.6 205.2 82.2 C 204.8 82.8 204.2 83.3 203.4 83.6 C 202.7 84 201.8 84.1 200.8 84.1 C 199.2 84.1 198 83.8 197.1 83.1 C 196.3 82.4 195.7 81.4 195.5 80.1 Z M 216.9 83.8 C 216.7 83.4 216.5 82.9 216.5 82.3 C 215.7 83 214.9 83.4 214.2 83.7 C 213.5 84 212.7 84.1 211.9 84.1 C 210.5 84.1 209.5 83.8 208.7 83.1 C 208 82.5 207.6 81.6 207.6 80.6 C 207.6 80 207.8 79.4 208 78.9 C 208.3 78.4 208.7 78 209.1 77.7 C 209.6 77.4 210.1 77.1 210.6 77 C 211.1 76.9 211.7 76.8 212.5 76.7 C 214.2 76.5 215.5 76.2 216.3 75.9 C 216.3 75.7 216.3 75.5 216.3 75.4 C 216.3 74.5 216.1 73.9 215.7 73.6 C 215.2 73.1 214.4 72.9 213.3 72.9 C 212.3 72.9 211.6 73 211.1 73.4 C 210.6 73.7 210.3 74.3 210 75.2 C 210 75.2 208 74.9 208 74.9 C 208.2 74.1 208.5 73.4 208.9 72.8 C 209.3 72.3 210 71.8 210.8 71.6 C 211.6 71.3 212.5 71.1 213.6 71.1 C 214.7 71.1 215.5 71.2 216.2 71.5 C 216.9 71.7 217.3 72.1 217.7 72.4 C 218 72.8 218.2 73.3 218.3 73.9 C 218.4 74.2 218.4 74.9 218.4 75.8 C 218.4 75.8 218.4 78.6 218.4 78.6 C 218.4 80.6 218.5 81.8 218.5 82.3 C 218.6 82.9 218.8 83.4 219.1 83.8 C 219.08 83.84 216.9 83.8 216.9 83.8 C 216.9 83.8 216.88 83.84 216.9 83.8 Z M 216.3 77.6 C 215.5 77.9 214.4 78.2 212.8 78.4 C 212 78.5 211.4 78.7 211 78.8 C 210.6 79 210.4 79.2 210.2 79.5 C 210 79.8 209.9 80.1 209.9 80.5 C 209.9 81.1 210.1 81.5 210.5 81.9 C 210.9 82.3 211.6 82.5 212.4 82.5 C 213.2 82.5 213.9 82.3 214.5 81.9 C 215.2 81.6 215.6 81.1 215.9 80.5 C 216.2 80 216.3 79.3 216.3 78.4 C 216.3 78.4 216.3 77.6 216.3 77.6 Z M 225.4 82 C 225.6 82 225.9 82 226.3 82 C 226.3 82 226.6 83.8 226.6 83.8 C 226 83.9 225.5 84 225 84 C 224.2 84 223.6 83.9 223.2 83.6 C 222.8 83.4 222.5 83.1 222.3 82.7 C 222.2 82.3 222.1 81.5 222.1 80.2 C 222.07 80.2 222.1 73 222.1 73 L 220.5 73 L 220.5 71.4 L 222.1 71.4 L 222.1 68.3 L 224.2 67.1 L 224.2 71.4 L 226.3 71.4 L 226.3 73 L 224.2 73 C 224.2 73 224.17 80.32 224.2 80.3 C 224.2 80.9 224.2 81.3 224.3 81.5 C 224.4 81.6 224.5 81.8 224.6 81.9 C 224.8 82 225.1 82 225.4 82 C 225.4 82 225.4 82 225.4 82 Z M 228.4 69.1 L 228.4 66.7 L 230.5 66.7 L 230.5 69.1 L 228.4 69.1 Z M 228.4 83.8 L 228.4 71.4 L 230.5 71.4 L 230.5 83.8 L 228.4 83.8 Z M 232.8 80.1 C 232.8 80.1 234.9 79.8 234.9 79.8 C 235 80.6 235.4 81.3 235.9 81.7 C 236.4 82.2 237.2 82.4 238.1 82.4 C 239.1 82.4 239.8 82.2 240.3 81.8 C 240.8 81.4 241 80.9 241 80.4 C 241 79.9 240.8 79.6 240.4 79.3 C 240.1 79.1 239.4 78.9 238.2 78.6 C 236.7 78.2 235.6 77.8 235 77.6 C 234.4 77.3 234 76.9 233.7 76.4 C 233.3 75.9 233.2 75.3 233.2 74.7 C 233.2 74.1 233.3 73.6 233.6 73.2 C 233.8 72.7 234.2 72.3 234.6 72 C 234.9 71.7 235.4 71.5 236 71.4 C 236.5 71.2 237.1 71.1 237.8 71.1 C 238.7 71.1 239.6 71.3 240.3 71.5 C 241.1 71.8 241.6 72.2 242 72.7 C 242.3 73.2 242.6 73.8 242.7 74.6 C 242.7 74.6 240.6 74.9 240.6 74.9 C 240.6 74.2 240.3 73.7 239.8 73.4 C 239.4 73 238.7 72.9 237.9 72.9 C 237 72.9 236.3 73 235.9 73.3 C 235.4 73.7 235.2 74 235.2 74.5 C 235.2 74.7 235.3 75 235.5 75.2 C 235.7 75.4 235.9 75.6 236.3 75.8 C 236.5 75.8 237.1 76 238.2 76.3 C 239.7 76.7 240.7 77 241.3 77.3 C 241.9 77.5 242.3 77.9 242.7 78.4 C 243 78.9 243.2 79.5 243.2 80.2 C 243.2 80.9 243 81.6 242.6 82.2 C 242.2 82.8 241.6 83.3 240.8 83.6 C 240 84 239.1 84.1 238.2 84.1 C 236.5 84.1 235.3 83.8 234.5 83.1 C 233.6 82.4 233.1 81.4 232.8 80.1 Z M 246.2 83.8 L 246.2 73 L 244.3 73 L 244.3 71.4 L 246.2 71.4 C 246.2 71.4 246.19 70.07 246.2 70.1 C 246.2 69.2 246.3 68.6 246.4 68.2 C 246.6 67.7 247 67.2 247.5 66.9 C 248 66.5 248.7 66.4 249.6 66.4 C 250.2 66.4 250.9 66.4 251.6 66.6 C 251.6 66.6 251.3 68.4 251.3 68.4 C 250.8 68.3 250.4 68.3 250 68.3 C 249.4 68.3 248.9 68.4 248.7 68.7 C 248.4 69 248.3 69.5 248.3 70.2 C 248.29 70.25 248.3 71.4 248.3 71.4 L 250.7 71.4 L 250.7 73 L 248.3 73 L 248.3 83.8 L 246.2 83.8 Z M 260.9 83.8 C 260.7 83.4 260.5 82.9 260.5 82.3 C 259.7 83 258.9 83.4 258.2 83.7 C 257.5 84 256.7 84.1 255.9 84.1 C 254.5 84.1 253.5 83.8 252.7 83.1 C 252 82.5 251.6 81.6 251.6 80.6 C 251.6 80 251.8 79.4 252.1 78.9 C 252.3 78.4 252.7 78 253.1 77.7 C 253.6 77.4 254.1 77.1 254.7 77 C 255.1 76.9 255.7 76.8 256.5 76.7 C 258.2 76.5 259.5 76.2 260.3 75.9 C 260.3 75.7 260.3 75.5 260.3 75.4 C 260.3 74.5 260.1 73.9 259.7 73.6 C 259.2 73.1 258.4 72.9 257.3 72.9 C 256.3 72.9 255.6 73 255.1 73.4 C 254.6 73.7 254.3 74.3 254.1 75.2 C 254.1 75.2 252 74.9 252 74.9 C 252.2 74.1 252.5 73.4 252.9 72.8 C 253.4 72.3 254 71.8 254.8 71.6 C 255.6 71.3 256.5 71.1 257.6 71.1 C 258.7 71.1 259.5 71.2 260.2 71.5 C 260.9 71.7 261.4 72.1 261.7 72.4 C 262 72.8 262.2 73.3 262.3 73.9 C 262.4 74.2 262.4 74.9 262.4 75.8 C 262.4 75.8 262.4 78.6 262.4 78.6 C 262.4 80.6 262.5 81.8 262.6 82.3 C 262.7 82.9 262.8 83.4 263.1 83.8 C 263.1 83.84 260.9 83.8 260.9 83.8 C 260.9 83.8 260.89 83.84 260.9 83.8 Z M 260.3 77.6 C 259.5 77.9 258.4 78.2 256.9 78.4 C 256 78.5 255.4 78.7 255 78.8 C 254.7 79 254.4 79.2 254.2 79.5 C 254 79.8 253.9 80.1 253.9 80.5 C 253.9 81.1 254.1 81.5 254.5 81.9 C 255 82.3 255.6 82.5 256.4 82.5 C 257.2 82.5 257.9 82.3 258.6 81.9 C 259.2 81.6 259.7 81.1 260 80.5 C 260.2 80 260.3 79.3 260.3 78.4 C 260.3 78.4 260.3 77.6 260.3 77.6 Z M 273.8 79.3 C 273.8 79.3 275.9 79.6 275.9 79.6 C 275.7 81 275.1 82.1 274.2 82.9 C 273.2 83.7 272.1 84.1 270.7 84.1 C 269 84.1 267.6 83.6 266.6 82.5 C 265.6 81.3 265.1 79.7 265.1 77.7 C 265.1 76.3 265.3 75.1 265.7 74.1 C 266.2 73.1 266.8 72.4 267.8 71.9 C 268.7 71.4 269.7 71.1 270.7 71.1 C 272.1 71.1 273.2 71.5 274 72.1 C 274.9 72.8 275.5 73.8 275.7 75.1 C 275.7 75.1 273.6 75.4 273.6 75.4 C 273.4 74.5 273.1 73.9 272.6 73.5 C 272.1 73.1 271.5 72.9 270.8 72.9 C 269.7 72.9 268.9 73.2 268.2 74 C 267.6 74.8 267.2 76 267.2 77.6 C 267.2 79.3 267.5 80.5 268.2 81.3 C 268.8 82 269.7 82.4 270.7 82.4 C 271.5 82.4 272.2 82.1 272.8 81.6 C 273.3 81.1 273.7 80.3 273.8 79.3 Z M 281.4 82 C 281.6 82 281.9 82 282.3 82 C 282.3 82 282.6 83.8 282.6 83.8 C 282 83.9 281.5 84 281 84 C 280.2 84 279.7 83.9 279.2 83.6 C 278.8 83.4 278.5 83.1 278.3 82.7 C 278.2 82.3 278.1 81.5 278.1 80.2 C 278.09 80.2 278.1 73 278.1 73 L 276.5 73 L 276.5 71.4 L 278.1 71.4 L 278.1 68.3 L 280.2 67.1 L 280.2 71.4 L 282.3 71.4 L 282.3 73 L 280.2 73 C 280.2 73 280.18 80.32 280.2 80.3 C 280.2 80.9 280.2 81.3 280.3 81.5 C 280.4 81.6 280.5 81.8 280.7 81.9 C 280.8 82 281.1 82 281.4 82 C 281.4 82 281.4 82 281.4 82 Z M 284.4 69.1 L 284.4 66.7 L 286.5 66.7 L 286.5 69.1 L 284.4 69.1 Z M 284.4 83.8 L 284.4 71.4 L 286.5 71.4 L 286.5 83.8 L 284.4 83.8 Z M 288.9 77.6 C 288.9 75.3 289.6 73.6 290.8 72.5 C 291.9 71.6 293.2 71.1 294.8 71.1 C 296.5 71.1 297.9 71.7 298.9 72.8 C 300 73.9 300.6 75.5 300.6 77.4 C 300.6 79 300.3 80.3 299.9 81.2 C 299.4 82.1 298.7 82.9 297.8 83.4 C 296.8 83.9 295.8 84.1 294.8 84.1 C 293 84.1 291.6 83.6 290.5 82.4 C 289.5 81.3 288.9 79.7 288.9 77.6 Z M 291.1 77.6 C 291.1 79.2 291.4 80.4 292.1 81.2 C 292.8 82 293.7 82.4 294.8 82.4 C 295.8 82.4 296.7 82 297.4 81.2 C 298.1 80.4 298.4 79.2 298.4 77.6 C 298.4 76 298.1 74.8 297.4 74.1 C 296.7 73.3 295.8 72.9 294.8 72.9 C 293.7 72.9 292.8 73.3 292.1 74 C 291.4 74.8 291.1 76 291.1 77.6 Z M 303 83.8 L 303 71.4 L 304.9 71.4 C 304.9 71.4 304.95 73.17 304.9 73.2 C 305.9 71.8 307.2 71.1 308.9 71.1 C 309.7 71.1 310.3 71.3 311 71.5 C 311.6 71.8 312.1 72.1 312.4 72.6 C 312.7 73 312.9 73.5 313 74.1 C 313.1 74.5 313.2 75.2 313.2 76.2 C 313.16 76.19 313.2 83.8 313.2 83.8 L 311.1 83.8 C 311.1 83.8 311.05 76.27 311.1 76.3 C 311.1 75.4 311 74.8 310.8 74.3 C 310.6 73.9 310.3 73.6 309.9 73.3 C 309.5 73.1 309 72.9 308.5 72.9 C 307.6 72.9 306.8 73.2 306.1 73.8 C 305.5 74.4 305.2 75.5 305.2 77 C 305.16 77.05 305.2 83.8 305.2 83.8 L 303 83.8 Z M 331.6 83.8 C 331.4 83.4 331.2 82.9 331.2 82.3 C 330.4 83 329.7 83.4 328.9 83.7 C 328.2 84 327.4 84.1 326.6 84.1 C 325.2 84.1 324.2 83.8 323.4 83.1 C 322.7 82.5 322.3 81.6 322.3 80.6 C 322.3 80 322.5 79.4 322.8 78.9 C 323 78.4 323.4 78 323.9 77.7 C 324.3 77.4 324.8 77.1 325.4 77 C 325.8 76.9 326.4 76.8 327.2 76.7 C 328.9 76.5 330.2 76.2 331 75.9 C 331 75.7 331 75.5 331 75.4 C 331 74.5 330.8 73.9 330.4 73.6 C 329.9 73.1 329.1 72.9 328 72.9 C 327 72.9 326.3 73 325.8 73.4 C 325.3 73.7 325 74.3 324.8 75.2 C 324.8 75.2 322.7 74.9 322.7 74.9 C 322.9 74.1 323.2 73.4 323.6 72.8 C 324.1 72.3 324.7 71.8 325.5 71.6 C 326.3 71.3 327.3 71.1 328.3 71.1 C 329.4 71.1 330.2 71.2 330.9 71.5 C 331.6 71.7 332.1 72.1 332.4 72.4 C 332.7 72.8 332.9 73.3 333 73.9 C 333.1 74.2 333.1 74.9 333.1 75.8 C 333.1 75.8 333.1 78.6 333.1 78.6 C 333.1 80.6 333.2 81.8 333.3 82.3 C 333.4 82.9 333.5 83.4 333.8 83.8 C 333.81 83.84 331.6 83.8 331.6 83.8 C 331.6 83.8 331.61 83.84 331.6 83.8 Z M 331 77.6 C 330.2 77.9 329.1 78.2 327.6 78.4 C 326.7 78.5 326.1 78.7 325.7 78.8 C 325.4 79 325.1 79.2 324.9 79.5 C 324.7 79.8 324.6 80.1 324.6 80.5 C 324.6 81.1 324.8 81.5 325.2 81.9 C 325.7 82.3 326.3 82.5 327.1 82.5 C 327.9 82.5 328.6 82.3 329.3 81.9 C 329.9 81.6 330.4 81.1 330.7 80.5 C 330.9 80 331 79.3 331 78.4 C 331 78.4 331 77.6 331 77.6 Z M 336 84.9 C 336 84.9 338.1 85.2 338.1 85.2 C 338.2 85.8 338.4 86.3 338.8 86.6 C 339.3 87 340 87.1 340.9 87.1 C 341.9 87.1 342.7 87 343.2 86.6 C 343.7 86.2 344.1 85.6 344.3 84.9 C 344.4 84.5 344.4 83.6 344.4 82.2 C 343.5 83.3 342.4 83.8 341 83.8 C 339.3 83.8 337.9 83.2 337 82 C 336.1 80.8 335.6 79.3 335.6 77.6 C 335.6 76.4 335.8 75.3 336.2 74.3 C 336.7 73.3 337.3 72.5 338.1 71.9 C 338.9 71.4 339.9 71.1 341 71.1 C 342.5 71.1 343.7 71.7 344.6 72.9 C 344.63 72.9 344.6 71.4 344.6 71.4 L 346.6 71.4 C 346.6 71.4 346.57 82.16 346.6 82.2 C 346.6 84.1 346.4 85.5 346 86.3 C 345.6 87.1 345 87.7 344.1 88.2 C 343.2 88.7 342.2 88.9 340.9 88.9 C 339.5 88.9 338.3 88.6 337.3 87.9 C 336.4 87.2 336 86.2 336 84.9 Z M 337.8 77.4 C 337.8 79 338.1 80.2 338.7 81 C 339.4 81.7 340.2 82.1 341.2 82.1 C 342.1 82.1 343 81.7 343.6 81 C 344.3 80.2 344.6 79.1 344.6 77.5 C 344.6 75.9 344.3 74.8 343.6 74 C 342.9 73.2 342.1 72.9 341.1 72.9 C 340.2 72.9 339.4 73.2 338.8 74 C 338.1 74.8 337.8 75.9 337.8 77.4 Z M 358.3 83.8 C 358.1 83.4 357.9 82.9 357.9 82.3 C 357.1 83 356.3 83.4 355.6 83.7 C 354.9 84 354.1 84.1 353.3 84.1 C 351.9 84.1 350.9 83.8 350.1 83.1 C 349.4 82.5 349 81.6 349 80.6 C 349 80 349.2 79.4 349.5 78.9 C 349.7 78.4 350.1 78 350.5 77.7 C 351 77.4 351.5 77.1 352.1 77 C 352.5 76.9 353.1 76.8 353.9 76.7 C 355.6 76.5 356.9 76.2 357.7 75.9 C 357.7 75.7 357.7 75.5 357.7 75.4 C 357.7 74.5 357.5 73.9 357.1 73.6 C 356.6 73.1 355.8 72.9 354.7 72.9 C 353.7 72.9 353 73 352.5 73.4 C 352 73.7 351.7 74.3 351.5 75.2 C 351.5 75.2 349.4 74.9 349.4 74.9 C 349.6 74.1 349.9 73.4 350.3 72.8 C 350.8 72.3 351.4 71.8 352.2 71.6 C 353 71.3 353.9 71.1 355 71.1 C 356.1 71.1 356.9 71.2 357.6 71.5 C 358.3 71.7 358.8 72.1 359.1 72.4 C 359.4 72.8 359.6 73.3 359.7 73.9 C 359.8 74.2 359.8 74.9 359.8 75.8 C 359.8 75.8 359.8 78.6 359.8 78.6 C 359.8 80.6 359.9 81.8 360 82.3 C 360.1 82.9 360.2 83.4 360.5 83.8 C 360.5 83.84 358.3 83.8 358.3 83.8 C 358.3 83.8 358.3 83.84 358.3 83.8 Z M 357.7 77.6 C 356.9 77.9 355.8 78.2 354.3 78.4 C 353.4 78.5 352.8 78.7 352.4 78.8 C 352.1 79 351.8 79.2 351.6 79.5 C 351.4 79.8 351.3 80.1 351.3 80.5 C 351.3 81.1 351.5 81.5 351.9 81.9 C 352.4 82.3 353 82.5 353.8 82.5 C 354.6 82.5 355.3 82.3 356 81.9 C 356.6 81.6 357.1 81.1 357.4 80.5 C 357.6 80 357.7 79.3 357.7 78.4 C 357.7 78.4 357.7 77.6 357.7 77.6 Z M 363.1 69.1 L 363.1 66.7 L 365.2 66.7 L 365.2 69.1 L 363.1 69.1 Z M 363.1 83.8 L 363.1 71.4 L 365.2 71.4 L 365.2 83.8 L 363.1 83.8 Z M 368.4 83.8 L 368.4 71.4 L 370.3 71.4 C 370.3 71.4 370.34 73.17 370.3 73.2 C 371.3 71.8 372.6 71.1 374.3 71.1 C 375 71.1 375.7 71.3 376.4 71.5 C 377 71.8 377.5 72.1 377.8 72.6 C 378.1 73 378.3 73.5 378.4 74.1 C 378.5 74.5 378.6 75.2 378.6 76.2 C 378.55 76.19 378.6 83.8 378.6 83.8 L 376.4 83.8 C 376.4 83.8 376.44 76.27 376.4 76.3 C 376.4 75.4 376.4 74.8 376.2 74.3 C 376 73.9 375.7 73.6 375.3 73.3 C 374.9 73.1 374.4 72.9 373.9 72.9 C 373 72.9 372.2 73.2 371.5 73.8 C 370.9 74.4 370.5 75.5 370.5 77 C 370.55 77.05 370.5 83.8 370.5 83.8 L 368.4 83.8 Z M 380.9 80.1 C 380.9 80.1 383 79.8 383 79.8 C 383.1 80.6 383.5 81.3 384 81.7 C 384.5 82.2 385.3 82.4 386.3 82.4 C 387.2 82.4 387.9 82.2 388.4 81.8 C 388.9 81.4 389.1 80.9 389.1 80.4 C 389.1 79.9 388.9 79.6 388.5 79.3 C 388.2 79.1 387.5 78.9 386.3 78.6 C 384.8 78.2 383.7 77.8 383.1 77.6 C 382.5 77.3 382.1 76.9 381.8 76.4 C 381.4 75.9 381.3 75.3 381.3 74.7 C 381.3 74.1 381.4 73.6 381.7 73.2 C 381.9 72.7 382.3 72.3 382.7 72 C 383 71.7 383.5 71.5 384.1 71.4 C 384.6 71.2 385.2 71.1 385.9 71.1 C 386.9 71.1 387.7 71.3 388.4 71.5 C 389.2 71.8 389.7 72.2 390.1 72.7 C 390.4 73.2 390.7 73.8 390.8 74.6 C 390.8 74.6 388.7 74.9 388.7 74.9 C 388.7 74.2 388.4 73.7 387.9 73.4 C 387.5 73 386.8 72.9 386 72.9 C 385.1 72.9 384.4 73 384 73.3 C 383.5 73.7 383.3 74 383.3 74.5 C 383.3 74.7 383.4 75 383.6 75.2 C 383.8 75.4 384 75.6 384.4 75.8 C 384.6 75.8 385.2 76 386.3 76.3 C 387.8 76.7 388.8 77 389.4 77.3 C 390 77.5 390.4 77.9 390.8 78.4 C 391.1 78.9 391.3 79.5 391.3 80.2 C 391.3 80.9 391.1 81.6 390.7 82.2 C 390.3 82.8 389.7 83.3 388.9 83.6 C 388.1 84 387.2 84.1 386.3 84.1 C 384.6 84.1 383.4 83.8 382.6 83.1 C 381.7 82.4 381.2 81.4 380.9 80.1 Z M 397.5 82 C 397.7 82 398 82 398.4 82 C 398.4 82 398.7 83.8 398.7 83.8 C 398.1 83.9 397.6 84 397.1 84 C 396.3 84 395.7 83.9 395.3 83.6 C 394.9 83.4 394.6 83.1 394.4 82.7 C 394.3 82.3 394.2 81.5 394.2 80.2 C 394.17 80.2 394.2 73 394.2 73 L 392.6 73 L 392.6 71.4 L 394.2 71.4 L 394.2 68.3 L 396.3 67.1 L 396.3 71.4 L 398.4 71.4 L 398.4 73 L 396.3 73 C 396.3 73 396.27 80.32 396.3 80.3 C 396.3 80.9 396.3 81.3 396.4 81.5 C 396.5 81.6 396.6 81.8 396.7 81.9 C 396.9 82 397.2 82 397.5 82 C 397.5 82 397.5 82 397.5 82 Z M 406.3 77.6 C 406.3 75.3 407 73.6 408.3 72.5 C 409.3 71.6 410.6 71.1 412.2 71.1 C 413.9 71.1 415.3 71.7 416.4 72.8 C 417.5 73.9 418 75.5 418 77.4 C 418 79 417.8 80.3 417.3 81.2 C 416.8 82.1 416.1 82.9 415.2 83.4 C 414.3 83.9 413.3 84.1 412.2 84.1 C 410.4 84.1 409 83.6 407.9 82.4 C 406.9 81.3 406.3 79.7 406.3 77.6 Z M 408.5 77.6 C 408.5 79.2 408.9 80.4 409.5 81.2 C 410.2 82 411.1 82.4 412.2 82.4 C 413.2 82.4 414.1 82 414.8 81.2 C 415.5 80.4 415.8 79.2 415.8 77.6 C 415.8 76 415.5 74.8 414.8 74.1 C 414.1 73.3 413.2 72.9 412.2 72.9 C 411.1 72.9 410.2 73.3 409.5 74 C 408.9 74.8 408.5 76 408.5 77.6 Z M 428.6 83.8 C 428.6 83.8 428.63 82.02 428.6 82 C 427.7 83.4 426.3 84.1 424.7 84.1 C 423.9 84.1 423.3 84 422.6 83.7 C 422 83.4 421.5 83.1 421.2 82.6 C 420.9 82.2 420.7 81.7 420.6 81.1 C 420.5 80.7 420.4 80 420.4 79.1 C 420.42 79.11 420.4 71.4 420.4 71.4 L 422.5 71.4 C 422.5 71.4 422.53 78.3 422.5 78.3 C 422.5 79.4 422.6 80.1 422.7 80.5 C 422.8 81.1 423.1 81.5 423.5 81.8 C 423.9 82.2 424.5 82.3 425.1 82.3 C 425.7 82.3 426.3 82.1 426.9 81.8 C 427.4 81.5 427.8 81.1 428.1 80.5 C 428.3 79.9 428.4 79.1 428.4 78.1 C 428.4 78.07 428.4 71.4 428.4 71.4 L 430.5 71.4 L 430.5 83.8 L 428.6 83.8 Z M 433.8 83.8 L 433.8 71.4 L 435.7 71.4 C 435.7 71.4 435.69 73.28 435.7 73.3 C 436.2 72.4 436.6 71.8 437 71.5 C 437.4 71.3 437.9 71.1 438.4 71.1 C 439.1 71.1 439.8 71.3 440.6 71.8 C 440.6 71.8 439.8 73.8 439.8 73.8 C 439.3 73.4 438.8 73.3 438.3 73.3 C 437.8 73.3 437.4 73.4 437 73.7 C 436.7 74 436.4 74.4 436.3 74.9 C 436 75.6 435.9 76.4 435.9 77.3 C 435.9 77.33 435.9 83.8 435.9 83.8 L 433.8 83.8 Z M 450.4 83.8 L 448.5 83.8 L 448.5 66.7 L 450.6 66.7 C 450.6 66.7 450.57 72.79 450.6 72.8 C 451.5 71.7 452.6 71.1 454 71.1 C 454.7 71.1 455.5 71.3 456.2 71.6 C 456.8 71.9 457.4 72.3 457.8 72.9 C 458.3 73.4 458.6 74.1 458.9 74.9 C 459.1 75.7 459.3 76.5 459.3 77.4 C 459.3 79.6 458.7 81.2 457.7 82.4 C 456.6 83.5 455.4 84.1 453.9 84.1 C 452.4 84.1 451.3 83.5 450.4 82.3 C 450.42 82.28 450.4 83.8 450.4 83.8 Z M 450.4 77.5 C 450.4 79 450.6 80.1 451 80.8 C 451.7 81.8 452.6 82.4 453.7 82.4 C 454.6 82.4 455.4 82 456.1 81.2 C 456.8 80.4 457.1 79.2 457.1 77.6 C 457.1 76 456.8 74.8 456.1 74 C 455.5 73.2 454.7 72.9 453.8 72.9 C 452.9 72.9 452.1 73.3 451.4 74.1 C 450.7 74.9 450.4 76 450.4 77.5 Z M 470 83.8 C 470 83.8 469.98 82.02 470 82 C 469 83.4 467.7 84.1 466 84.1 C 465.3 84.1 464.6 84 464 83.7 C 463.3 83.4 462.9 83.1 462.6 82.6 C 462.2 82.2 462 81.7 461.9 81.1 C 461.8 80.7 461.8 80 461.8 79.1 C 461.78 79.11 461.8 71.4 461.8 71.4 L 463.9 71.4 C 463.9 71.4 463.89 78.3 463.9 78.3 C 463.9 79.4 463.9 80.1 464 80.5 C 464.1 81.1 464.4 81.5 464.9 81.8 C 465.3 82.2 465.8 82.3 466.5 82.3 C 467.1 82.3 467.7 82.1 468.2 81.8 C 468.8 81.5 469.2 81.1 469.4 80.5 C 469.6 79.9 469.8 79.1 469.8 78.1 C 469.76 78.07 469.8 71.4 469.8 71.4 L 471.9 71.4 L 471.9 83.8 L 470 83.8 Z M 474.3 80.1 C 474.3 80.1 476.4 79.8 476.4 79.8 C 476.5 80.6 476.9 81.3 477.4 81.7 C 477.9 82.2 478.7 82.4 479.6 82.4 C 480.6 82.4 481.3 82.2 481.8 81.8 C 482.3 81.4 482.5 80.9 482.5 80.4 C 482.5 79.9 482.3 79.6 481.9 79.3 C 481.6 79.1 480.9 78.9 479.7 78.6 C 478.2 78.2 477.1 77.8 476.5 77.6 C 475.9 77.3 475.5 76.9 475.1 76.4 C 474.8 75.9 474.7 75.3 474.7 74.7 C 474.7 74.1 474.8 73.6 475.1 73.2 C 475.3 72.7 475.7 72.3 476.1 72 C 476.4 71.7 476.9 71.5 477.4 71.4 C 478 71.2 478.6 71.1 479.3 71.1 C 480.2 71.1 481.1 71.3 481.8 71.5 C 482.6 71.8 483.1 72.2 483.5 72.7 C 483.8 73.2 484.1 73.8 484.2 74.6 C 484.2 74.6 482.1 74.9 482.1 74.9 C 482 74.2 481.8 73.7 481.3 73.4 C 480.9 73 480.2 72.9 479.4 72.9 C 478.4 72.9 477.8 73 477.3 73.3 C 476.9 73.7 476.7 74 476.7 74.5 C 476.7 74.7 476.8 75 477 75.2 C 477.1 75.4 477.4 75.6 477.8 75.8 C 478 75.8 478.6 76 479.6 76.3 C 481.1 76.7 482.2 77 482.8 77.3 C 483.4 77.5 483.8 77.9 484.2 78.4 C 484.5 78.9 484.7 79.5 484.7 80.2 C 484.7 80.9 484.5 81.6 484 82.2 C 483.6 82.8 483 83.3 482.3 83.6 C 481.5 84 480.6 84.1 479.6 84.1 C 478 84.1 476.8 83.8 476 83.1 C 475.1 82.4 474.6 81.4 474.3 80.1 Z M 487.2 69.1 L 487.2 66.7 L 489.3 66.7 L 489.3 69.1 L 487.2 69.1 Z M 487.2 83.8 L 487.2 71.4 L 489.3 71.4 L 489.3 83.8 L 487.2 83.8 Z M 492.5 83.8 L 492.5 71.4 L 494.4 71.4 C 494.4 71.4 494.4 73.17 494.4 73.2 C 495.3 71.8 496.6 71.1 498.4 71.1 C 499.1 71.1 499.8 71.3 500.4 71.5 C 501.1 71.8 501.5 72.1 501.8 72.6 C 502.2 73 502.4 73.5 502.5 74.1 C 502.6 74.5 502.6 75.2 502.6 76.2 C 502.62 76.19 502.6 83.8 502.6 83.8 L 500.5 83.8 C 500.5 83.8 500.51 76.27 500.5 76.3 C 500.5 75.4 500.4 74.8 500.3 74.3 C 500.1 73.9 499.8 73.6 499.4 73.3 C 499 73.1 498.5 72.9 497.9 72.9 C 497 72.9 496.2 73.2 495.6 73.8 C 494.9 74.4 494.6 75.5 494.6 77 C 494.61 77.05 494.6 83.8 494.6 83.8 L 492.5 83.8 Z M 514.4 79.8 C 514.4 79.8 516.6 80.1 516.6 80.1 C 516.2 81.4 515.6 82.4 514.6 83.1 C 513.7 83.8 512.5 84.1 511.1 84.1 C 509.3 84.1 507.8 83.6 506.7 82.4 C 505.7 81.3 505.1 79.7 505.1 77.7 C 505.1 75.6 505.7 74 506.8 72.9 C 507.8 71.7 509.2 71.1 511 71.1 C 512.6 71.1 514 71.7 515 72.8 C 516.1 73.9 516.6 75.5 516.6 77.6 C 516.6 77.7 516.6 77.9 516.6 78.2 C 516.6 78.2 507.3 78.2 507.3 78.2 C 507.4 79.5 507.8 80.6 508.5 81.3 C 509.2 82 510.1 82.4 511.1 82.4 C 511.9 82.4 512.5 82.2 513.1 81.8 C 513.6 81.4 514.1 80.7 514.4 79.8 Z M 507.4 76.4 C 507.4 76.4 514.4 76.4 514.4 76.4 C 514.3 75.4 514 74.6 513.6 74.1 C 512.9 73.3 512.1 72.9 511 72.9 C 510 72.9 509.2 73.2 508.5 73.8 C 507.9 74.5 507.5 75.3 507.4 76.4 Z M 518.4 80.1 C 518.4 80.1 520.4 79.8 520.4 79.8 C 520.6 80.6 520.9 81.3 521.4 81.7 C 522 82.2 522.7 82.4 523.7 82.4 C 524.6 82.4 525.4 82.2 525.8 81.8 C 526.3 81.4 526.5 80.9 526.5 80.4 C 526.5 79.9 526.3 79.6 525.9 79.3 C 525.6 79.1 524.9 78.9 523.7 78.6 C 522.2 78.2 521.1 77.8 520.5 77.6 C 519.9 77.3 519.5 76.9 519.2 76.4 C 518.9 75.9 518.7 75.3 518.7 74.7 C 518.7 74.1 518.8 73.6 519.1 73.2 C 519.3 72.7 519.7 72.3 520.1 72 C 520.5 71.7 520.9 71.5 521.5 71.4 C 522 71.2 522.6 71.1 523.3 71.1 C 524.3 71.1 525.1 71.3 525.9 71.5 C 526.6 71.8 527.1 72.2 527.5 72.7 C 527.8 73.2 528.1 73.8 528.2 74.6 C 528.2 74.6 526.2 74.9 526.2 74.9 C 526.1 74.2 525.8 73.7 525.3 73.4 C 524.9 73 524.3 72.9 523.4 72.9 C 522.5 72.9 521.8 73 521.4 73.3 C 521 73.7 520.7 74 520.7 74.5 C 520.7 74.7 520.8 75 521 75.2 C 521.2 75.4 521.4 75.6 521.8 75.8 C 522 75.8 522.6 76 523.7 76.3 C 525.2 76.7 526.2 77 526.8 77.3 C 527.4 77.5 527.9 77.9 528.2 78.4 C 528.5 78.9 528.7 79.5 528.7 80.2 C 528.7 80.9 528.5 81.6 528.1 82.2 C 527.7 82.8 527.1 83.3 526.3 83.6 C 525.5 84 524.7 84.1 523.7 84.1 C 522.1 84.1 520.8 83.8 520 83.1 C 519.1 82.4 518.6 81.4 518.4 80.1 Z M 530.4 80.1 C 530.4 80.1 532.4 79.8 532.4 79.8 C 532.6 80.6 532.9 81.3 533.4 81.7 C 534 82.2 534.7 82.4 535.7 82.4 C 536.6 82.4 537.4 82.2 537.8 81.8 C 538.3 81.4 538.5 80.9 538.5 80.4 C 538.5 79.9 538.3 79.6 537.9 79.3 C 537.6 79.1 536.9 78.9 535.7 78.6 C 534.2 78.2 533.1 77.8 532.5 77.6 C 531.9 77.3 531.5 76.9 531.2 76.4 C 530.9 75.9 530.7 75.3 530.7 74.7 C 530.7 74.1 530.8 73.6 531.1 73.2 C 531.3 72.7 531.7 72.3 532.1 72 C 532.5 71.7 532.9 71.5 533.5 71.4 C 534 71.2 534.6 71.1 535.3 71.1 C 536.3 71.1 537.1 71.3 537.9 71.5 C 538.6 71.8 539.1 72.2 539.5 72.7 C 539.8 73.2 540.1 73.8 540.2 74.6 C 540.2 74.6 538.2 74.9 538.2 74.9 C 538.1 74.2 537.8 73.7 537.3 73.4 C 536.9 73 536.3 72.9 535.4 72.9 C 534.5 72.9 533.8 73 533.4 73.3 C 533 73.7 532.7 74 532.7 74.5 C 532.7 74.7 532.8 75 533 75.2 C 533.2 75.4 533.4 75.6 533.8 75.8 C 534 75.8 534.6 76 535.7 76.3 C 537.2 76.7 538.2 77 538.8 77.3 C 539.4 77.5 539.9 77.9 540.2 78.4 C 540.5 78.9 540.7 79.5 540.7 80.2 C 540.7 80.9 540.5 81.6 540.1 82.2 C 539.7 82.8 539.1 83.3 538.3 83.6 C 537.5 84 536.7 84.1 535.7 84.1 C 534.1 84.1 532.8 83.8 532 83.1 C 531.1 82.4 530.6 81.4 530.4 80.1 Z M 551.8 83.8 L 549.9 83.8 L 549.9 66.7 L 552 66.7 C 552 66.7 551.96 72.79 552 72.8 C 552.9 71.7 554 71.1 555.4 71.1 C 556.1 71.1 556.9 71.3 557.5 71.6 C 558.2 71.9 558.8 72.3 559.2 72.9 C 559.7 73.4 560 74.1 560.3 74.9 C 560.5 75.7 560.6 76.5 560.6 77.4 C 560.6 79.6 560.1 81.2 559.1 82.4 C 558 83.5 556.7 84.1 555.3 84.1 C 553.8 84.1 552.6 83.5 551.8 82.3 C 551.81 82.28 551.8 83.8 551.8 83.8 Z M 551.8 77.5 C 551.8 79 552 80.1 552.4 80.8 C 553.1 81.8 554 82.4 555.1 82.4 C 556 82.4 556.8 82 557.5 81.2 C 558.2 80.4 558.5 79.2 558.5 77.6 C 558.5 76 558.2 74.8 557.5 74 C 556.9 73.2 556.1 72.9 555.2 72.9 C 554.3 72.9 553.5 73.3 552.8 74.1 C 552.1 74.9 551.8 76 551.8 77.5 Z M 571.7 79.8 C 571.7 79.8 573.9 80.1 573.9 80.1 C 573.6 81.4 572.9 82.4 572 83.1 C 571.1 83.8 569.9 84.1 568.4 84.1 C 566.6 84.1 565.2 83.6 564.1 82.4 C 563 81.3 562.5 79.7 562.5 77.7 C 562.5 75.6 563.1 74 564.1 72.9 C 565.2 71.7 566.6 71.1 568.3 71.1 C 570 71.1 571.3 71.7 572.4 72.8 C 573.5 73.9 574 75.5 574 77.6 C 574 77.7 574 77.9 574 78.2 C 574 78.2 564.7 78.2 564.7 78.2 C 564.8 79.5 565.2 80.6 565.9 81.3 C 566.5 82 567.4 82.4 568.5 82.4 C 569.2 82.4 569.9 82.2 570.4 81.8 C 571 81.4 571.4 80.7 571.7 79.8 Z M 564.8 76.4 C 564.8 76.4 571.8 76.4 571.8 76.4 C 571.7 75.4 571.4 74.6 571 74.1 C 570.3 73.3 569.4 72.9 568.3 72.9 C 567.4 72.9 566.6 73.2 565.9 73.8 C 565.2 74.5 564.9 75.3 564.8 76.4 Z M 576.6 83.8 L 576.6 66.7 L 578.7 66.7 C 578.7 66.7 578.67 72.83 578.7 72.8 C 579.7 71.7 580.9 71.1 582.4 71.1 C 583.3 71.1 584.1 71.3 584.8 71.7 C 585.5 72 586 72.5 586.3 73.2 C 586.6 73.8 586.7 74.7 586.7 76 C 586.7 75.96 586.7 83.8 586.7 83.8 L 584.6 83.8 C 584.6 83.8 584.59 75.96 584.6 76 C 584.6 74.9 584.4 74.1 583.9 73.7 C 583.4 73.2 582.8 72.9 582 72.9 C 581.3 72.9 580.8 73.1 580.2 73.4 C 579.7 73.7 579.3 74.2 579 74.7 C 578.8 75.3 578.7 76.1 578.7 77 C 578.67 77.03 578.7 83.8 578.7 83.8 L 576.6 83.8 Z M 598.5 83.8 C 598.2 83.4 598.1 82.9 598 82.3 C 597.2 83 596.5 83.4 595.8 83.7 C 595.1 84 594.3 84.1 593.4 84.1 C 592.1 84.1 591 83.8 590.3 83.1 C 589.6 82.5 589.2 81.6 589.2 80.6 C 589.2 80 589.3 79.4 589.6 78.9 C 589.9 78.4 590.3 78 590.7 77.7 C 591.2 77.4 591.7 77.1 592.2 77 C 592.6 76.9 593.3 76.8 594.1 76.7 C 595.8 76.5 597.1 76.2 597.9 75.9 C 597.9 75.7 597.9 75.5 597.9 75.4 C 597.9 74.5 597.7 73.9 597.3 73.6 C 596.7 73.1 595.9 72.9 594.9 72.9 C 593.9 72.9 593.1 73 592.7 73.4 C 592.2 73.7 591.8 74.3 591.6 75.2 C 591.6 75.2 589.6 74.9 589.6 74.9 C 589.7 74.1 590.1 73.4 590.5 72.8 C 590.9 72.3 591.5 71.8 592.3 71.6 C 593.2 71.3 594.1 71.1 595.2 71.1 C 596.2 71.1 597.1 71.2 597.8 71.5 C 598.4 71.7 598.9 72.1 599.2 72.4 C 599.5 72.8 599.8 73.3 599.9 73.9 C 600 74.2 600 74.9 600 75.8 C 600 75.8 600 78.6 600 78.6 C 600 80.6 600 81.8 600.1 82.3 C 600.2 82.9 600.4 83.4 600.7 83.8 C 600.66 83.84 598.5 83.8 598.5 83.8 C 598.5 83.8 598.45 83.84 598.5 83.8 Z M 597.9 77.6 C 597.1 77.9 595.9 78.2 594.4 78.4 C 593.5 78.5 592.9 78.7 592.6 78.8 C 592.2 79 591.9 79.2 591.7 79.5 C 591.5 79.8 591.4 80.1 591.4 80.5 C 591.4 81.1 591.7 81.5 592.1 81.9 C 592.5 82.3 593.1 82.5 594 82.5 C 594.8 82.5 595.5 82.3 596.1 81.9 C 596.8 81.6 597.2 81.1 597.5 80.5 C 597.7 80 597.9 79.3 597.9 78.4 C 597.9 78.4 597.9 77.6 597.9 77.6 Z M 606.7 83.8 L 602 71.4 L 604.2 71.4 C 604.2 71.4 606.88 78.85 606.9 78.9 C 607.2 79.7 607.4 80.5 607.7 81.4 C 607.9 80.7 608.1 79.9 608.5 79 C 608.46 78.99 611.2 71.4 611.2 71.4 L 613.4 71.4 L 608.7 83.8 L 606.7 83.8 Z M 615.3 69.1 L 615.3 66.7 L 617.4 66.7 L 617.4 69.1 L 615.3 69.1 Z M 615.3 83.8 L 615.3 71.4 L 617.4 71.4 L 617.4 83.8 L 615.3 83.8 Z M 619.8 77.6 C 619.8 75.3 620.4 73.6 621.7 72.5 C 622.8 71.6 624.1 71.1 625.6 71.1 C 627.4 71.1 628.7 71.7 629.8 72.8 C 630.9 73.9 631.5 75.5 631.5 77.4 C 631.5 79 631.2 80.3 630.7 81.2 C 630.3 82.1 629.6 82.9 628.6 83.4 C 627.7 83.9 626.7 84.1 625.6 84.1 C 623.9 84.1 622.5 83.6 621.4 82.4 C 620.3 81.3 619.8 79.7 619.8 77.6 Z M 622 77.6 C 622 79.2 622.3 80.4 623 81.2 C 623.7 82 624.6 82.4 625.6 82.4 C 626.7 82.4 627.6 82 628.3 81.2 C 628.9 80.4 629.3 79.2 629.3 77.6 C 629.3 76 628.9 74.8 628.2 74.1 C 627.5 73.3 626.7 72.9 625.6 72.9 C 624.6 72.9 623.7 73.3 623 74 C 622.3 74.8 622 76 622 77.6 Z M 642.1 83.8 C 642.1 83.8 642.09 82.02 642.1 82 C 641.1 83.4 639.8 84.1 638.1 84.1 C 637.4 84.1 636.7 84 636.1 83.7 C 635.5 83.4 635 83.1 634.7 82.6 C 634.4 82.2 634.1 81.7 634 81.1 C 633.9 80.7 633.9 80 633.9 79.1 C 633.89 79.11 633.9 71.4 633.9 71.4 L 636 71.4 C 636 71.4 636 78.3 636 78.3 C 636 79.4 636 80.1 636.1 80.5 C 636.3 81.1 636.5 81.5 637 81.8 C 637.4 82.2 637.9 82.3 638.6 82.3 C 639.2 82.3 639.8 82.1 640.3 81.8 C 640.9 81.5 641.3 81.1 641.5 80.5 C 641.8 79.9 641.9 79.1 641.9 78.1 C 641.87 78.07 641.9 71.4 641.9 71.4 L 644 71.4 L 644 83.8 L 642.1 83.8 Z M 647.3 83.8 L 647.3 71.4 L 649.2 71.4 C 649.2 71.4 649.16 73.28 649.2 73.3 C 649.6 72.4 650.1 71.8 650.5 71.5 C 650.9 71.3 651.4 71.1 651.9 71.1 C 652.6 71.1 653.3 71.3 654 71.8 C 654 71.8 653.3 73.8 653.3 73.8 C 652.8 73.4 652.3 73.3 651.8 73.3 C 651.3 73.3 650.9 73.4 650.5 73.7 C 650.1 74 649.9 74.4 649.7 74.9 C 649.5 75.6 649.4 76.4 649.4 77.3 C 649.37 77.33 649.4 83.8 649.4 83.8 L 647.3 83.8 Z M 654.4 80.1 C 654.4 80.1 656.5 79.8 656.5 79.8 C 656.6 80.6 657 81.3 657.5 81.7 C 658 82.2 658.8 82.4 659.7 82.4 C 660.7 82.4 661.4 82.2 661.9 81.8 C 662.4 81.4 662.6 80.9 662.6 80.4 C 662.6 79.9 662.4 79.6 662 79.3 C 661.7 79.1 661 78.9 659.8 78.6 C 658.3 78.2 657.2 77.8 656.6 77.6 C 656 77.3 655.6 76.9 655.2 76.4 C 654.9 75.9 654.8 75.3 654.8 74.7 C 654.8 74.1 654.9 73.6 655.2 73.2 C 655.4 72.7 655.8 72.3 656.2 72 C 656.5 71.7 657 71.5 657.5 71.4 C 658.1 71.2 658.7 71.1 659.4 71.1 C 660.3 71.1 661.2 71.3 661.9 71.5 C 662.7 71.8 663.2 72.2 663.6 72.7 C 663.9 73.2 664.2 73.8 664.3 74.6 C 664.3 74.6 662.2 74.9 662.2 74.9 C 662.1 74.2 661.9 73.7 661.4 73.4 C 661 73 660.3 72.9 659.5 72.9 C 658.6 72.9 657.9 73 657.4 73.3 C 657 73.7 656.8 74 656.8 74.5 C 656.8 74.7 656.9 75 657.1 75.2 C 657.3 75.4 657.5 75.6 657.9 75.8 C 658.1 75.8 658.7 76 659.8 76.3 C 661.2 76.7 662.3 77 662.9 77.3 C 663.5 77.5 663.9 77.9 664.3 78.4 C 664.6 78.9 664.8 79.5 664.8 80.2 C 664.8 80.9 664.6 81.6 664.2 82.2 C 663.7 82.8 663.2 83.3 662.4 83.6 C 661.6 84 660.7 84.1 659.8 84.1 C 658.1 84.1 656.9 83.8 656.1 83.1 C 655.2 82.4 654.7 81.4 654.4 80.1 Z M 682.5 83.8 C 682.3 83.4 682.1 82.9 682.1 82.3 C 681.3 83 680.5 83.4 679.8 83.7 C 679.1 84 678.3 84.1 677.5 84.1 C 676.1 84.1 675.1 83.8 674.3 83.1 C 673.6 82.5 673.2 81.6 673.2 80.6 C 673.2 80 673.4 79.4 673.6 78.9 C 673.9 78.4 674.3 78 674.7 77.7 C 675.2 77.4 675.7 77.1 676.3 77 C 676.7 76.9 677.3 76.8 678.1 76.7 C 679.8 76.5 681.1 76.2 681.9 75.9 C 681.9 75.7 681.9 75.5 681.9 75.4 C 681.9 74.5 681.7 73.9 681.3 73.6 C 680.8 73.1 680 72.9 678.9 72.9 C 677.9 72.9 677.2 73 676.7 73.4 C 676.2 73.7 675.9 74.3 675.7 75.2 C 675.7 75.2 673.6 74.9 673.6 74.9 C 673.8 74.1 674.1 73.4 674.5 72.8 C 674.9 72.3 675.6 71.8 676.4 71.6 C 677.2 71.3 678.1 71.1 679.2 71.1 C 680.3 71.1 681.1 71.2 681.8 71.5 C 682.5 71.7 682.9 72.1 683.3 72.4 C 683.6 72.8 683.8 73.3 683.9 73.9 C 684 74.2 684 74.9 684 75.8 C 684 75.8 684 78.6 684 78.6 C 684 80.6 684.1 81.8 684.2 82.3 C 684.2 82.9 684.4 83.4 684.7 83.8 C 684.69 83.84 682.5 83.8 682.5 83.8 C 682.5 83.8 682.49 83.84 682.5 83.8 Z M 681.9 77.6 C 681.1 77.9 680 78.2 678.4 78.4 C 677.6 78.5 677 78.7 676.6 78.8 C 676.2 79 676 79.2 675.8 79.5 C 675.6 79.8 675.5 80.1 675.5 80.5 C 675.5 81.1 675.7 81.5 676.1 81.9 C 676.5 82.3 677.2 82.5 678 82.5 C 678.8 82.5 679.5 82.3 680.2 81.9 C 680.8 81.6 681.3 81.1 681.6 80.5 C 681.8 80 681.9 79.3 681.9 78.4 C 681.9 78.4 681.9 77.6 681.9 77.6 Z M 686.4 80.1 C 686.4 80.1 688.5 79.8 688.5 79.8 C 688.7 80.6 689 81.3 689.5 81.7 C 690 82.2 690.8 82.4 691.8 82.4 C 692.7 82.4 693.4 82.2 693.9 81.8 C 694.4 81.4 694.6 80.9 694.6 80.4 C 694.6 79.9 694.4 79.6 694 79.3 C 693.7 79.1 693 78.9 691.8 78.6 C 690.3 78.2 689.2 77.8 688.6 77.6 C 688 77.3 687.6 76.9 687.3 76.4 C 687 75.9 686.8 75.3 686.8 74.7 C 686.8 74.1 686.9 73.6 687.2 73.2 C 687.4 72.7 687.8 72.3 688.2 72 C 688.5 71.7 689 71.5 689.6 71.4 C 690.1 71.2 690.7 71.1 691.4 71.1 C 692.4 71.1 693.2 71.3 694 71.5 C 694.7 71.8 695.2 72.2 695.6 72.7 C 695.9 73.2 696.2 73.8 696.3 74.6 C 696.3 74.6 694.3 74.9 694.3 74.9 C 694.2 74.2 693.9 73.7 693.4 73.4 C 693 73 692.4 72.9 691.5 72.9 C 690.6 72.9 689.9 73 689.5 73.3 C 689 73.7 688.8 74 688.8 74.5 C 688.8 74.7 688.9 75 689.1 75.2 C 689.3 75.4 689.5 75.6 689.9 75.8 C 690.1 75.8 690.7 76 691.8 76.3 C 693.3 76.7 694.3 77 694.9 77.3 C 695.5 77.5 695.9 77.9 696.3 78.4 C 696.6 78.9 696.8 79.5 696.8 80.2 C 696.8 80.9 696.6 81.6 696.2 82.2 C 695.8 82.8 695.2 83.3 694.4 83.6 C 693.6 84 692.7 84.1 691.8 84.1 C 690.2 84.1 688.9 83.8 688.1 83.1 C 687.2 82.4 686.7 81.4 686.4 80.1 Z M 706.5 83.8 L 706.5 73 L 704.6 73 L 704.6 71.4 L 706.5 71.4 C 706.5 71.4 706.46 70.07 706.5 70.1 C 706.5 69.2 706.5 68.6 706.7 68.2 C 706.9 67.7 707.2 67.2 707.8 66.9 C 708.3 66.5 709 66.4 709.9 66.4 C 710.5 66.4 711.2 66.4 711.9 66.6 C 711.9 66.6 711.6 68.4 711.6 68.4 C 711.1 68.3 710.7 68.3 710.3 68.3 C 709.7 68.3 709.2 68.4 709 68.7 C 708.7 69 708.6 69.5 708.6 70.2 C 708.56 70.25 708.6 71.4 708.6 71.4 L 711 71.4 L 711 73 L 708.6 73 L 708.6 83.8 L 706.5 83.8 Z M 711.8 77.6 C 711.8 75.3 712.5 73.6 713.8 72.5 C 714.8 71.6 716.1 71.1 717.7 71.1 C 719.4 71.1 720.8 71.7 721.9 72.8 C 723 73.9 723.5 75.5 723.5 77.4 C 723.5 79 723.3 80.3 722.8 81.2 C 722.3 82.1 721.6 82.9 720.7 83.4 C 719.8 83.9 718.8 84.1 717.7 84.1 C 715.9 84.1 714.5 83.6 713.5 82.4 C 712.4 81.3 711.8 79.7 711.8 77.6 Z M 714 77.6 C 714 79.2 714.4 80.4 715.1 81.2 C 715.7 82 716.6 82.4 717.7 82.4 C 718.7 82.4 719.6 82 720.3 81.2 C 721 80.4 721.3 79.2 721.3 77.6 C 721.3 76 721 74.8 720.3 74.1 C 719.6 73.3 718.7 72.9 717.7 72.9 C 716.6 72.9 715.7 73.3 715.1 74 C 714.4 74.8 714 76 714 77.6 Z M 725.9 83.8 L 725.9 66.7 L 728 66.7 L 728 83.8 L 725.9 83.8 Z M 731.3 83.8 L 731.3 66.7 L 733.4 66.7 L 733.4 83.8 L 731.3 83.8 Z M 735.9 77.6 C 735.9 75.3 736.5 73.6 737.8 72.5 C 738.8 71.6 740.2 71.1 741.7 71.1 C 743.4 71.1 744.8 71.7 745.9 72.8 C 747 73.9 747.5 75.5 747.5 77.4 C 747.5 79 747.3 80.3 746.8 81.2 C 746.3 82.1 745.6 82.9 744.7 83.4 C 743.8 83.9 742.8 84.1 741.7 84.1 C 739.9 84.1 738.5 83.6 737.5 82.4 C 736.4 81.3 735.9 79.7 735.9 77.6 Z M 738 77.6 C 738 79.2 738.4 80.4 739.1 81.2 C 739.8 82 740.6 82.4 741.7 82.4 C 742.7 82.4 743.6 82 744.3 81.2 C 745 80.4 745.3 79.2 745.3 77.6 C 745.3 76 745 74.8 744.3 74.1 C 743.6 73.3 742.7 72.9 741.7 72.9 C 740.6 72.9 739.8 73.3 739.1 74 C 738.4 74.8 738 76 738 77.6 Z M 752.3 83.8 L 748.5 71.4 L 750.7 71.4 L 752.6 78.6 C 752.6 78.6 753.38 81.25 753.4 81.3 C 753.4 81.1 753.6 80.3 754 78.7 C 754.02 78.69 756 71.4 756 71.4 L 758.2 71.4 L 760 78.6 L 760.7 81 L 761.4 78.6 L 763.5 71.4 L 765.6 71.4 L 761.7 83.8 L 759.5 83.8 L 757.5 76.4 L 757 74.3 L 754.5 83.8 L 752.3 83.8 Z M 766.5 80.1 C 766.5 80.1 768.6 79.8 768.6 79.8 C 768.7 80.6 769 81.3 769.5 81.7 C 770.1 82.2 770.8 82.4 771.8 82.4 C 772.8 82.4 773.5 82.2 773.9 81.8 C 774.4 81.4 774.6 80.9 774.6 80.4 C 774.6 79.9 774.4 79.6 774 79.3 C 773.7 79.1 773 78.9 771.9 78.6 C 770.3 78.2 769.2 77.8 768.7 77.6 C 768.1 77.3 767.6 76.9 767.3 76.4 C 767 75.9 766.8 75.3 766.8 74.7 C 766.8 74.1 767 73.6 767.2 73.2 C 767.5 72.7 767.8 72.3 768.2 72 C 768.6 71.7 769 71.5 769.6 71.4 C 770.2 71.2 770.8 71.1 771.4 71.1 C 772.4 71.1 773.2 71.3 774 71.5 C 774.7 71.8 775.3 72.2 775.6 72.7 C 776 73.2 776.2 73.8 776.3 74.6 C 776.3 74.6 774.3 74.9 774.3 74.9 C 774.2 74.2 773.9 73.7 773.5 73.4 C 773 73 772.4 72.9 771.6 72.9 C 770.6 72.9 769.9 73 769.5 73.3 C 769.1 73.7 768.9 74 768.9 74.5 C 768.9 74.7 769 75 769.1 75.2 C 769.3 75.4 769.6 75.6 769.9 75.8 C 770.1 75.8 770.8 76 771.8 76.3 C 773.3 76.7 774.3 77 774.9 77.3 C 775.5 77.5 776 77.9 776.3 78.4 C 776.6 78.9 776.8 79.5 776.8 80.2 C 776.8 80.9 776.6 81.6 776.2 82.2 C 775.8 82.8 775.2 83.3 774.4 83.6 C 773.6 84 772.8 84.1 771.8 84.1 C 770.2 84.1 768.9 83.8 768.1 83.1 C 767.3 82.4 766.7 81.4 766.5 80.1 Z M 779.9 73.8 L 779.9 71.4 L 782.3 71.4 L 782.3 73.8 L 779.9 73.8 Z M 779.9 83.8 L 779.9 81.4 L 782.3 81.4 L 782.3 83.8 L 779.9 83.8 Z " stroke="none" fill="#000"/>  </g>  <g id="Polygon22864">    <path d="M 9.1 1.7 C 13.7 1.7 16.7 4 16.7 8 C 16.7 10.6 15.3 12.5 12.6 13.4 C 16.5 13.9 18.8 16.4 18.8 19.7 C 18.8 24.2 14.8 26.2 10.3 26.2 C 10.26 26.24 2.8 26.2 2.8 26.2 L 2.8 1.7 C 2.8 1.7 9.11 1.69 9.1 1.7 Z M 5.4 12.6 C 5.4 12.6 8.14 12.6 8.1 12.6 C 12.2 12.6 13.9 10.7 13.9 8.2 C 13.9 5.4 12.2 4.1 8.6 4.1 C 8.57 4.07 5.4 4.1 5.4 4.1 L 5.4 12.6 Z M 9.8 23.9 C 13.7 23.9 16 22.5 16 19.4 C 16 16.6 14 14.9 9.4 14.9 C 9.36 14.94 5.4 14.9 5.4 14.9 L 5.4 23.9 C 5.4 23.9 9.76 23.87 9.8 23.9 Z M 36.3 1.7 L 36.3 4.1 L 25.5 4.1 L 25.5 12.7 L 35.9 12.7 L 35.9 15.1 L 25.5 15.1 L 25.5 23.8 L 36.5 23.8 L 36.5 26.2 L 22.8 26.2 L 22.8 1.7 L 36.3 1.7 Z M 43.6 1.7 L 43.6 12.6 L 58.5 12.6 L 58.5 1.7 L 61.2 1.7 L 61.2 26.2 L 58.5 26.2 L 58.5 15.1 L 43.6 15.1 L 43.6 26.2 L 40.9 26.2 L 40.9 1.7 L 43.6 1.7 Z M 76.5 1.5 L 87.5 26.2 L 84.7 26.2 L 81.3 18.5 L 70.1 18.5 L 66.8 26.2 L 64 26.2 L 74.6 1.5 L 76.5 1.5 Z M 71.1 16.1 L 80.2 16.1 L 75.5 5.7 L 71.1 16.1 Z M 85.5 1.7 L 88.2 1.7 L 96.2 20.8 L 96.3 20.8 L 104.2 1.7 L 106.9 1.7 L 96.6 26.5 L 95.9 26.5 L 85.5 1.7 Z M 112.4 1.7 L 112.4 26.2 L 109.7 26.2 L 109.7 1.7 L 112.4 1.7 Z M 142.7 13.9 C 142.7 20.7 137.7 26.6 129.6 26.6 C 122 26.6 116.9 20.8 116.9 14.1 C 116.9 7.3 121.8 1.4 129.7 1.4 C 137.6 1.4 142.7 7.1 142.7 13.9 Z M 119.6 14 C 119.6 19.8 124.1 24 129.6 24 C 136.9 24 139.9 18.4 139.9 13.9 C 139.9 9 136.3 3.9 129.9 3.9 C 123.2 3.9 119.6 9 119.6 14 Z M 149.5 1.7 C 149.5 1.7 149.54 15.84 149.5 15.8 C 149.5 21.3 152.1 24.2 157.1 24.2 C 162.3 24.2 164.7 21.2 164.7 15.8 C 164.73 15.84 164.7 1.7 164.7 1.7 L 167.4 1.7 C 167.4 1.7 167.43 15.84 167.4 15.8 C 167.4 22.3 164 26.6 157.2 26.6 C 150.4 26.6 146.8 22.7 146.8 15.8 C 146.84 15.84 146.8 1.7 146.8 1.7 L 149.5 1.7 Z M 172.7 1.7 C 172.7 1.7 179.1 1.69 179.1 1.7 C 184 1.7 186.6 4.5 186.6 8.3 C 186.6 11.3 184.9 13.4 181.9 14.3 C 183.5 15.2 184.2 15.8 186.3 18.9 C 186.26 18.9 191 26.2 191 26.2 L 187.8 26.2 C 187.8 26.2 183.49 19.48 183.5 19.5 C 181.2 15.9 179.7 15.1 177.6 15.1 C 177.62 15.08 175.4 15.1 175.4 15.1 L 175.4 26.2 L 172.7 26.2 L 172.7 1.7 Z M 177.9 12.7 C 181.3 12.7 183.8 11.9 183.8 8.3 C 183.8 5.3 181.9 4.1 178.7 4.1 C 178.74 4.07 175.4 4.1 175.4 4.1 L 175.4 12.7 C 175.4 12.7 177.87 12.71 177.9 12.7 Z M 205.7 3 C 205.7 3 205.7 6 205.7 6 C 204 4.6 202.1 3.8 200.1 3.8 C 197.5 3.8 195.8 5.3 195.8 7.4 C 195.8 9 196.2 10.4 200.3 12.5 C 205.4 15.1 206.6 16.8 206.6 20.2 C 206.6 23.8 203.8 26.6 199.6 26.6 C 197.2 26.6 195.1 25.8 193.2 24.4 C 193.2 24.4 193.2 21 193.2 21 C 195 23 197.2 24.2 199.6 24.2 C 202.1 24.2 203.9 22.6 203.9 20.2 C 203.9 18.1 203.2 16.9 198.4 14.4 C 194.6 12.5 193.1 10.6 193.1 7.5 C 193.1 4 196.1 1.4 200.2 1.4 C 202.1 1.4 204 1.9 205.7 3 Z " stroke="none" fill="#f28620"/>  </g></svg>