<?xml version="1.0" standalone="no"?><!DOCTYPE svg PUBLIC "-//W3C//DTD SVG 1.1//EN" "http://www.w3.org/Graphics/SVG/1.1/DTD/svg11.dtd"><svg xmlns="http://www.w3.org/2000/svg" version="1.1" width="37.3px" height="28.5px" viewBox="0 -1 37.3 28.5" style="top:-1px">  <desc>Survey</desc>  <defs/>  <g id="Polygon44908">    <path d="M 0.5 17.2 C 0.5 17.2 1.6 17.1 1.6 17.1 C 1.7 17.6 1.8 17.9 2 18.2 C 2.2 18.5 2.4 18.7 2.8 18.9 C 3.2 19 3.7 19.1 4.1 19.1 C 4.6 19.1 5 19.1 5.3 18.9 C 5.6 18.8 5.9 18.6 6 18.4 C 6.2 18.2 6.3 17.9 6.3 17.7 C 6.3 17.4 6.2 17.2 6 17 C 5.9 16.8 5.6 16.6 5.3 16.5 C 5 16.4 4.5 16.2 3.7 16 C 3 15.8 2.4 15.7 2.1 15.5 C 1.7 15.3 1.4 15 1.2 14.7 C 1 14.4 0.9 14 0.9 13.6 C 0.9 13.2 1 12.8 1.2 12.4 C 1.5 12 1.8 11.8 2.3 11.6 C 2.8 11.4 3.3 11.3 3.9 11.3 C 4.5 11.3 5.1 11.4 5.6 11.6 C 6.1 11.8 6.4 12.1 6.7 12.5 C 7 12.9 7.1 13.3 7.1 13.8 C 7.1 13.8 6 13.9 6 13.9 C 6 13.4 5.8 13 5.4 12.7 C 5.1 12.4 4.6 12.3 3.9 12.3 C 3.2 12.3 2.7 12.4 2.4 12.6 C 2.1 12.9 2 13.2 2 13.6 C 2 13.9 2.1 14.1 2.3 14.3 C 2.5 14.5 3.1 14.7 4 14.9 C 4.9 15.1 5.6 15.3 5.9 15.5 C 6.4 15.7 6.8 16 7 16.4 C 7.3 16.7 7.4 17.1 7.4 17.6 C 7.4 18 7.2 18.5 7 18.9 C 6.7 19.3 6.3 19.6 5.9 19.8 C 5.4 20 4.8 20.1 4.2 20.1 C 3.4 20.1 2.8 20 2.2 19.8 C 1.7 19.6 1.3 19.2 1 18.8 C 0.7 18.3 0.6 17.8 0.5 17.2 Z M 12.9 20 C 12.9 20 12.87 19.09 12.9 19.1 C 12.4 19.8 11.7 20.1 10.9 20.1 C 10.5 20.1 10.2 20.1 9.9 19.9 C 9.6 19.8 9.3 19.6 9.2 19.4 C 9 19.2 8.9 18.9 8.8 18.6 C 8.8 18.4 8.8 18.1 8.8 17.6 C 8.77 17.63 8.8 13.8 8.8 13.8 L 9.8 13.8 C 9.8 13.8 9.83 17.23 9.8 17.2 C 9.8 17.8 9.8 18.2 9.9 18.3 C 10 18.6 10.1 18.8 10.3 19 C 10.5 19.2 10.8 19.2 11.1 19.2 C 11.4 19.2 11.7 19.2 12 19 C 12.3 18.8 12.5 18.6 12.6 18.3 C 12.7 18 12.8 17.6 12.8 17.1 C 12.76 17.11 12.8 13.8 12.8 13.8 L 13.8 13.8 L 13.8 20 L 12.9 20 Z M 15.5 20 L 15.5 13.8 L 16.4 13.8 C 16.4 13.8 16.41 14.72 16.4 14.7 C 16.6 14.3 16.9 14 17.1 13.8 C 17.3 13.7 17.5 13.6 17.8 13.6 C 18.1 13.6 18.5 13.8 18.8 14 C 18.8 14 18.5 15 18.5 15 C 18.2 14.8 18 14.7 17.7 14.7 C 17.5 14.7 17.3 14.8 17.1 14.9 C 16.9 15.1 16.8 15.3 16.7 15.5 C 16.6 15.9 16.5 16.3 16.5 16.7 C 16.51 16.74 16.5 20 16.5 20 L 15.5 20 Z M 21.2 20 L 18.8 13.8 L 19.9 13.8 C 19.9 13.8 21.28 17.5 21.3 17.5 C 21.4 17.9 21.6 18.3 21.7 18.8 C 21.8 18.4 21.9 18 22.1 17.6 C 22.07 17.57 23.4 13.8 23.4 13.8 L 24.5 13.8 L 22.2 20 L 21.2 20 Z M 29.7 18 C 29.7 18 30.8 18.1 30.8 18.1 C 30.6 18.8 30.3 19.3 29.9 19.6 C 29.4 20 28.8 20.1 28.1 20.1 C 27.2 20.1 26.4 19.9 25.9 19.3 C 25.4 18.7 25.1 18 25.1 16.9 C 25.1 15.9 25.4 15.1 25.9 14.5 C 26.5 13.9 27.2 13.6 28 13.6 C 28.9 13.6 29.5 13.9 30.1 14.5 C 30.6 15.1 30.8 15.8 30.8 16.9 C 30.8 16.9 30.8 17 30.8 17.2 C 30.8 17.2 26.2 17.2 26.2 17.2 C 26.2 17.8 26.4 18.4 26.8 18.7 C 27.1 19.1 27.6 19.3 28.1 19.3 C 28.5 19.3 28.8 19.2 29.1 19 C 29.3 18.8 29.6 18.4 29.7 18 Z M 26.3 16.3 C 26.3 16.3 29.7 16.3 29.7 16.3 C 29.7 15.8 29.6 15.4 29.3 15.1 C 29 14.7 28.6 14.5 28 14.5 C 27.5 14.5 27.1 14.7 26.8 15 C 26.5 15.3 26.3 15.7 26.3 16.3 Z M 32.8 22.5 C 32.6 22.5 32.3 22.5 32.1 22.4 C 32.1 22.4 32 21.4 32 21.4 C 32.2 21.5 32.4 21.5 32.6 21.5 C 32.8 21.5 33 21.5 33.1 21.4 C 33.3 21.3 33.4 21.2 33.5 21.1 C 33.6 20.9 33.7 20.7 33.8 20.3 C 33.8 20.2 33.9 20.1 33.9 20 C 33.9 20.01 31.5 13.8 31.5 13.8 L 32.7 13.8 C 32.7 13.8 33.97 17.38 34 17.4 C 34.1 17.8 34.3 18.3 34.4 18.8 C 34.5 18.3 34.7 17.9 34.9 17.4 C 34.86 17.4 36.2 13.8 36.2 13.8 L 37.2 13.8 C 37.2 13.8 34.88 20.11 34.9 20.1 C 34.6 20.8 34.4 21.3 34.3 21.5 C 34.1 21.9 33.9 22.1 33.6 22.3 C 33.4 22.4 33.1 22.5 32.8 22.5 C 32.8 22.5 32.8 22.5 32.8 22.5 Z " stroke="none" fill="#fff"/>  </g></svg>