<?xml version="1.0" standalone="no"?><!DOCTYPE svg PUBLIC "-//W3C//DTD SVG 1.1//EN" "http://www.w3.org/Graphics/SVG/1.1/DTD/svg11.dtd"><svg xmlns="http://www.w3.org/2000/svg" version="1.1" width="30px" height="20.5px" viewBox="0 -4 30 20.5" style="top:-4px">  <desc>Good</desc>  <defs/>  <g id="Polygon45577">    <path d="M 4.9 5.4 L 4.9 4.4 L 8.6 4.4 C 8.6 4.4 8.58 7.54 8.6 7.5 C 8 8 7.4 8.3 6.9 8.5 C 6.3 8.8 5.7 8.9 5 8.9 C 4.2 8.9 3.4 8.7 2.7 8.3 C 2 8 1.5 7.5 1.2 6.8 C 0.8 6.1 0.6 5.3 0.6 4.5 C 0.6 3.6 0.8 2.9 1.2 2.1 C 1.5 1.4 2 0.9 2.7 0.5 C 3.3 0.2 4.1 0 4.9 0 C 5.6 0 6.1 0.1 6.6 0.3 C 7.1 0.5 7.5 0.8 7.8 1.1 C 8.1 1.5 8.3 2 8.5 2.5 C 8.5 2.5 7.4 2.8 7.4 2.8 C 7.3 2.4 7.1 2 6.9 1.8 C 6.8 1.5 6.5 1.3 6.1 1.2 C 5.8 1 5.4 1 4.9 1 C 4.4 1 4 1.1 3.6 1.2 C 3.2 1.4 2.9 1.6 2.7 1.8 C 2.4 2.1 2.3 2.4 2.1 2.7 C 1.9 3.2 1.8 3.8 1.8 4.4 C 1.8 5.2 1.9 5.8 2.2 6.3 C 2.5 6.8 2.9 7.2 3.4 7.5 C 3.9 7.7 4.4 7.9 5 7.9 C 5.5 7.9 5.9 7.8 6.4 7.6 C 6.9 7.4 7.2 7.2 7.5 7 C 7.47 6.97 7.5 5.4 7.5 5.4 L 4.9 5.4 Z M 9.7 5.6 C 9.7 4.5 10.1 3.6 10.7 3.1 C 11.2 2.6 11.9 2.4 12.7 2.4 C 13.5 2.4 14.2 2.7 14.7 3.2 C 15.3 3.8 15.6 4.5 15.6 5.5 C 15.6 6.3 15.4 7 15.2 7.4 C 15 7.9 14.6 8.2 14.2 8.5 C 13.7 8.7 13.2 8.9 12.7 8.9 C 11.8 8.9 11.1 8.6 10.5 8 C 10 7.5 9.7 6.7 9.7 5.6 Z M 10.8 5.6 C 10.8 6.4 11 7 11.3 7.4 C 11.7 7.8 12.1 8 12.7 8 C 13.2 8 13.6 7.8 14 7.4 C 14.3 7 14.5 6.4 14.5 5.6 C 14.5 4.8 14.3 4.2 14 3.8 C 13.6 3.4 13.2 3.2 12.7 3.2 C 12.1 3.2 11.7 3.4 11.3 3.8 C 11 4.2 10.8 4.8 10.8 5.6 Z M 16.4 5.6 C 16.4 4.5 16.7 3.6 17.4 3.1 C 17.9 2.6 18.6 2.4 19.3 2.4 C 20.2 2.4 20.9 2.7 21.4 3.2 C 22 3.8 22.2 4.5 22.2 5.5 C 22.2 6.3 22.1 7 21.9 7.4 C 21.6 7.9 21.3 8.2 20.8 8.5 C 20.4 8.7 19.9 8.9 19.3 8.9 C 18.5 8.9 17.7 8.6 17.2 8 C 16.7 7.5 16.4 6.7 16.4 5.6 Z M 17.5 5.6 C 17.5 6.4 17.7 7 18 7.4 C 18.4 7.8 18.8 8 19.3 8 C 19.8 8 20.3 7.8 20.6 7.4 C 21 7 21.2 6.4 21.2 5.6 C 21.2 4.8 21 4.2 20.6 3.8 C 20.3 3.4 19.8 3.2 19.3 3.2 C 18.8 3.2 18.4 3.4 18 3.8 C 17.7 4.2 17.5 4.8 17.5 5.6 Z M 27.5 8.7 C 27.5 8.7 27.51 7.95 27.5 8 C 27.1 8.6 26.5 8.9 25.8 8.9 C 25.3 8.9 24.8 8.7 24.4 8.5 C 24 8.2 23.7 7.8 23.4 7.3 C 23.2 6.8 23.1 6.3 23.1 5.6 C 23.1 5 23.2 4.4 23.4 3.9 C 23.6 3.4 23.9 3 24.3 2.8 C 24.7 2.5 25.2 2.4 25.7 2.4 C 26.1 2.4 26.4 2.5 26.7 2.6 C 27 2.8 27.3 3 27.4 3.2 C 27.44 3.23 27.4 0.1 27.4 0.1 L 28.5 0.1 L 28.5 8.7 L 27.5 8.7 Z M 24.2 5.6 C 24.2 6.4 24.3 7 24.7 7.4 C 25 7.8 25.4 8 25.9 8 C 26.3 8 26.7 7.8 27 7.4 C 27.4 7.1 27.5 6.5 27.5 5.7 C 27.5 4.9 27.4 4.2 27 3.8 C 26.7 3.4 26.3 3.2 25.8 3.2 C 25.4 3.2 25 3.4 24.6 3.8 C 24.3 4.2 24.2 4.8 24.2 5.6 Z " stroke="none" fill="#000"/>  </g></svg>