<?xml version="1.0" standalone="no"?><!DOCTYPE svg PUBLIC "-//W3C//DTD SVG 1.1//EN" "http://www.w3.org/Graphics/SVG/1.1/DTD/svg11.dtd"><svg xmlns="http://www.w3.org/2000/svg" version="1.1" width="21.1px" height="20.5px" viewBox="0 -4 21.1 20.5" style="top:-4px">  <desc>Fair</desc>  <defs/>  <g id="Polygon54811">    <path d="M 1 8.7 L 1 0.1 L 6.8 0.1 L 6.8 1.2 L 2.1 1.2 L 2.1 3.8 L 6.2 3.8 L 6.2 4.8 L 2.1 4.8 L 2.1 8.7 L 1 8.7 Z M 12.4 8.7 C 12.3 8.5 12.2 8.3 12.2 8 C 11.8 8.3 11.4 8.5 11.1 8.7 C 10.7 8.8 10.3 8.9 9.9 8.9 C 9.2 8.9 8.7 8.7 8.3 8.4 C 7.9 8 7.8 7.6 7.8 7.1 C 7.8 6.8 7.8 6.5 8 6.3 C 8.1 6 8.3 5.8 8.5 5.7 C 8.7 5.5 9 5.4 9.3 5.3 C 9.5 5.3 9.8 5.2 10.2 5.2 C 11.1 5 11.7 4.9 12.1 4.8 C 12.1 4.6 12.1 4.6 12.1 4.5 C 12.1 4.1 12 3.8 11.8 3.6 C 11.5 3.4 11.1 3.2 10.6 3.2 C 10.1 3.2 9.7 3.3 9.5 3.5 C 9.3 3.7 9.1 4 9 4.4 C 9 4.4 7.9 4.3 7.9 4.3 C 8 3.8 8.2 3.5 8.4 3.2 C 8.6 2.9 8.9 2.7 9.3 2.6 C 9.7 2.4 10.2 2.4 10.8 2.4 C 11.3 2.4 11.7 2.4 12 2.6 C 12.4 2.7 12.6 2.8 12.8 3 C 12.9 3.2 13 3.5 13.1 3.7 C 13.1 3.9 13.2 4.3 13.2 4.7 C 13.2 4.7 13.2 6.1 13.2 6.1 C 13.2 7.1 13.2 7.7 13.2 8 C 13.3 8.2 13.4 8.5 13.5 8.7 C 13.49 8.74 12.4 8.7 12.4 8.7 C 12.4 8.7 12.39 8.74 12.4 8.7 Z M 12.1 5.6 C 11.7 5.8 11.1 5.9 10.4 6 C 9.9 6.1 9.6 6.1 9.5 6.2 C 9.3 6.3 9.1 6.4 9 6.6 C 8.9 6.7 8.9 6.9 8.9 7.1 C 8.9 7.3 9 7.6 9.2 7.8 C 9.4 8 9.7 8.1 10.1 8.1 C 10.5 8.1 10.9 8 11.2 7.8 C 11.5 7.6 11.8 7.4 11.9 7.1 C 12 6.8 12.1 6.5 12.1 6 C 12.1 6 12.1 5.6 12.1 5.6 Z M 14.8 1.4 L 14.8 0.1 L 15.9 0.1 L 15.9 1.4 L 14.8 1.4 Z M 14.8 8.7 L 14.8 2.5 L 15.9 2.5 L 15.9 8.7 L 14.8 8.7 Z M 17.4 8.7 L 17.4 2.5 L 18.4 2.5 C 18.4 2.5 18.4 3.46 18.4 3.5 C 18.6 3 18.9 2.7 19.1 2.6 C 19.3 2.4 19.5 2.4 19.7 2.4 C 20.1 2.4 20.5 2.5 20.8 2.7 C 20.8 2.7 20.5 3.7 20.5 3.7 C 20.2 3.5 20 3.5 19.7 3.5 C 19.5 3.5 19.3 3.5 19.1 3.7 C 18.9 3.8 18.8 4 18.7 4.2 C 18.6 4.6 18.5 5 18.5 5.5 C 18.5 5.48 18.5 8.7 18.5 8.7 L 17.4 8.7 Z " stroke="none" fill="#000"/>  </g></svg>