<?xml version="1.0" standalone="no"?><!DOCTYPE svg PUBLIC "-//W3C//DTD SVG 1.1//EN" "http://www.w3.org/Graphics/SVG/1.1/DTD/svg11.dtd"><svg xmlns="http://www.w3.org/2000/svg" version="1.1" width="63px" height="34.5px" viewBox="0 -4 63 34.5" style="top:-4px">  <desc>Honesty &amp; Integrity</desc>  <defs/>  <g id="Polygon44139">    <path d="M 11.5 23.3 C 11.1 23.1 10.6 22.7 10.2 22.1 C 9.8 22.5 9.4 22.8 9 23 C 8.6 23.2 8.2 23.3 7.7 23.3 C 6.8 23.3 6.1 23 5.6 22.4 C 5.2 21.9 5 21.4 5 20.8 C 5 20.2 5.2 19.8 5.5 19.3 C 5.8 18.9 6.4 18.5 7 18.2 C 6.6 17.8 6.4 17.4 6.3 17.1 C 6.1 16.8 6.1 16.6 6.1 16.3 C 6.1 15.8 6.3 15.4 6.7 15 C 7.1 14.6 7.6 14.4 8.2 14.4 C 8.8 14.4 9.3 14.6 9.6 14.9 C 10 15.3 10.2 15.7 10.2 16.2 C 10.2 17.1 9.7 17.7 8.6 18.3 C 8.6 18.3 10.1 20.3 10.1 20.3 C 10.3 19.9 10.4 19.5 10.5 19.1 C 10.5 19.1 11.6 19.3 11.6 19.3 C 11.4 20.1 11.2 20.7 10.9 21.2 C 11.3 21.7 11.7 22.1 12.2 22.5 C 12.2 22.5 11.5 23.3 11.5 23.3 C 11.5 23.3 11.49 23.34 11.5 23.3 Z M 8 17.6 C 8.5 17.4 8.8 17.1 8.9 16.9 C 9.1 16.7 9.1 16.5 9.1 16.3 C 9.1 16 9 15.7 8.8 15.5 C 8.7 15.4 8.4 15.3 8.1 15.3 C 7.9 15.3 7.6 15.4 7.4 15.5 C 7.2 15.7 7.2 16 7.2 16.2 C 7.2 16.3 7.2 16.5 7.3 16.6 C 7.3 16.8 7.4 16.9 7.6 17.1 C 7.6 17.1 8 17.6 8 17.6 Z M 9.5 21.3 C 9.5 21.3 7.6 18.9 7.6 18.9 C 7 19.2 6.6 19.5 6.4 19.8 C 6.2 20.1 6.1 20.4 6.1 20.7 C 6.1 21.1 6.3 21.4 6.5 21.8 C 6.8 22.2 7.2 22.4 7.7 22.4 C 8 22.4 8.4 22.3 8.7 22.1 C 9 21.9 9.3 21.6 9.5 21.3 Z M 16.9 23.1 L 16.9 14.5 L 18.1 14.5 L 18.1 23.1 L 16.9 23.1 Z M 19.9 23.1 L 19.9 16.9 L 20.9 16.9 C 20.9 16.9 20.89 17.8 20.9 17.8 C 21.3 17.1 22 16.8 22.9 16.8 C 23.2 16.8 23.6 16.8 23.9 17 C 24.2 17.1 24.5 17.3 24.6 17.5 C 24.8 17.7 24.9 18 24.9 18.3 C 25 18.5 25 18.8 25 19.3 C 24.99 19.31 25 23.1 25 23.1 L 23.9 23.1 C 23.9 23.1 23.94 19.35 23.9 19.4 C 23.9 18.9 23.9 18.6 23.8 18.4 C 23.7 18.2 23.6 18 23.4 17.9 C 23.2 17.8 22.9 17.7 22.6 17.7 C 22.2 17.7 21.8 17.8 21.5 18.1 C 21.2 18.4 21 18.9 21 19.7 C 20.99 19.74 21 23.1 21 23.1 L 19.9 23.1 Z M 28.5 22.2 C 28.6 22.2 28.7 22.2 28.9 22.2 C 28.9 22.2 29.1 23.1 29.1 23.1 C 28.8 23.2 28.5 23.2 28.3 23.2 C 27.9 23.2 27.6 23.2 27.4 23 C 27.2 22.9 27 22.8 26.9 22.6 C 26.8 22.4 26.8 21.9 26.8 21.3 C 26.8 21.31 26.8 17.7 26.8 17.7 L 26 17.7 L 26 16.9 L 26.8 16.9 L 26.8 15.4 L 27.9 14.7 L 27.9 16.9 L 28.9 16.9 L 28.9 17.7 L 27.9 17.7 C 27.9 17.7 27.85 21.37 27.9 21.4 C 27.9 21.7 27.9 21.9 27.9 22 C 27.9 22 28 22.1 28.1 22.2 C 28.2 22.2 28.3 22.2 28.5 22.2 C 28.5 22.2 28.5 22.2 28.5 22.2 Z M 34.2 21.1 C 34.2 21.1 35.3 21.3 35.3 21.3 C 35.1 21.9 34.8 22.4 34.3 22.7 C 33.9 23.1 33.3 23.3 32.6 23.3 C 31.6 23.3 30.9 23 30.4 22.4 C 29.9 21.9 29.6 21.1 29.6 20.1 C 29.6 19 29.9 18.2 30.4 17.6 C 30.9 17.1 31.6 16.8 32.5 16.8 C 33.3 16.8 34 17.1 34.5 17.6 C 35.1 18.2 35.3 19 35.3 20 C 35.3 20.1 35.3 20.2 35.3 20.3 C 35.3 20.3 30.7 20.3 30.7 20.3 C 30.7 21 30.9 21.5 31.3 21.9 C 31.6 22.2 32 22.4 32.6 22.4 C 33 22.4 33.3 22.3 33.6 22.1 C 33.8 21.9 34 21.6 34.2 21.1 Z M 30.7 19.4 C 30.7 19.4 34.2 19.4 34.2 19.4 C 34.2 18.9 34 18.5 33.8 18.2 C 33.5 17.8 33 17.6 32.5 17.6 C 32 17.6 31.6 17.8 31.3 18.1 C 31 18.5 30.8 18.9 30.7 19.4 Z M 36.4 23.7 C 36.4 23.7 37.5 23.8 37.5 23.8 C 37.5 24.1 37.6 24.4 37.8 24.5 C 38.1 24.7 38.4 24.8 38.9 24.8 C 39.4 24.8 39.7 24.7 40 24.5 C 40.3 24.3 40.5 24 40.5 23.7 C 40.6 23.5 40.6 23 40.6 22.3 C 40.2 22.9 39.6 23.1 38.9 23.1 C 38 23.1 37.4 22.8 36.9 22.2 C 36.4 21.6 36.2 20.9 36.2 20 C 36.2 19.4 36.3 18.8 36.5 18.3 C 36.8 17.8 37.1 17.5 37.5 17.2 C 37.9 16.9 38.4 16.8 38.9 16.8 C 39.6 16.8 40.2 17.1 40.7 17.7 C 40.73 17.66 40.7 16.9 40.7 16.9 L 41.7 16.9 C 41.7 16.9 41.7 22.29 41.7 22.3 C 41.7 23.3 41.6 23.9 41.4 24.4 C 41.2 24.8 40.9 25.1 40.5 25.3 C 40 25.5 39.5 25.7 38.9 25.7 C 38.1 25.7 37.5 25.5 37.1 25.2 C 36.6 24.8 36.4 24.3 36.4 23.7 Z M 37.3 19.9 C 37.3 20.7 37.5 21.3 37.8 21.7 C 38.1 22.1 38.5 22.3 39 22.3 C 39.5 22.3 39.9 22.1 40.2 21.7 C 40.5 21.3 40.7 20.7 40.7 19.9 C 40.7 19.2 40.5 18.6 40.2 18.2 C 39.9 17.8 39.5 17.6 39 17.6 C 38.5 17.6 38.1 17.8 37.8 18.2 C 37.5 18.6 37.3 19.2 37.3 19.9 Z M 43.3 23.1 L 43.3 16.9 L 44.2 16.9 C 44.2 16.9 44.23 17.86 44.2 17.9 C 44.5 17.4 44.7 17.1 44.9 17 C 45.1 16.8 45.3 16.8 45.6 16.8 C 45.9 16.8 46.3 16.9 46.7 17.1 C 46.7 17.1 46.3 18.1 46.3 18.1 C 46 17.9 45.8 17.9 45.5 17.9 C 45.3 17.9 45.1 17.9 44.9 18.1 C 44.7 18.2 44.6 18.4 44.5 18.6 C 44.4 19 44.3 19.4 44.3 19.9 C 44.33 19.88 44.3 23.1 44.3 23.1 L 43.3 23.1 Z M 47.3 15.8 L 47.3 14.5 L 48.3 14.5 L 48.3 15.8 L 47.3 15.8 Z M 47.3 23.1 L 47.3 16.9 L 48.3 16.9 L 48.3 23.1 L 47.3 23.1 Z M 51.8 22.2 C 51.9 22.2 52.1 22.2 52.3 22.2 C 52.3 22.2 52.4 23.1 52.4 23.1 C 52.1 23.2 51.8 23.2 51.6 23.2 C 51.2 23.2 50.9 23.2 50.7 23 C 50.5 22.9 50.4 22.8 50.3 22.6 C 50.2 22.4 50.1 21.9 50.1 21.3 C 50.15 21.31 50.1 17.7 50.1 17.7 L 49.4 17.7 L 49.4 16.9 L 50.1 16.9 L 50.1 15.4 L 51.2 14.7 L 51.2 16.9 L 52.3 16.9 L 52.3 17.7 L 51.2 17.7 C 51.2 17.7 51.2 21.37 51.2 21.4 C 51.2 21.7 51.2 21.9 51.3 22 C 51.3 22 51.3 22.1 51.4 22.2 C 51.5 22.2 51.6 22.2 51.8 22.2 C 51.8 22.2 51.8 22.2 51.8 22.2 Z M 53.9 25.7 C 53.7 25.7 53.5 25.6 53.2 25.5 C 53.2 25.5 53.1 24.5 53.1 24.5 C 53.4 24.6 53.6 24.6 53.7 24.6 C 54 24.6 54.1 24.6 54.3 24.5 C 54.4 24.4 54.5 24.3 54.6 24.2 C 54.7 24.1 54.8 23.8 55 23.4 C 55 23.3 55 23.3 55.1 23.1 C 55.05 23.15 52.7 16.9 52.7 16.9 L 53.8 16.9 C 53.8 16.9 55.12 20.52 55.1 20.5 C 55.3 21 55.4 21.5 55.6 22 C 55.7 21.5 55.8 21 56 20.5 C 56.01 20.54 57.3 16.9 57.3 16.9 L 58.4 16.9 C 58.4 16.9 56.02 23.24 56 23.2 C 55.8 23.9 55.6 24.4 55.4 24.7 C 55.2 25 55 25.3 54.8 25.4 C 54.5 25.6 54.3 25.7 53.9 25.7 C 53.9 25.7 53.9 25.7 53.9 25.7 Z " stroke="none" fill="#000"/>  </g>  <g id="Polygon44138">    <path d="M 10.4 8.7 L 10.4 0.1 L 11.6 0.1 L 11.6 3.7 L 16 3.7 L 16 0.1 L 17.2 0.1 L 17.2 8.7 L 16 8.7 L 16 4.7 L 11.6 4.7 L 11.6 8.7 L 10.4 8.7 Z M 18.5 5.6 C 18.5 4.5 18.9 3.6 19.5 3.1 C 20 2.6 20.7 2.4 21.5 2.4 C 22.3 2.4 23 2.7 23.6 3.2 C 24.1 3.8 24.4 4.5 24.4 5.5 C 24.4 6.3 24.2 7 24 7.4 C 23.8 7.9 23.4 8.2 23 8.5 C 22.5 8.7 22 8.9 21.5 8.9 C 20.6 8.9 19.9 8.6 19.3 8 C 18.8 7.5 18.5 6.7 18.5 5.6 Z M 19.6 5.6 C 19.6 6.4 19.8 7 20.1 7.4 C 20.5 7.8 20.9 8 21.5 8 C 22 8 22.4 7.8 22.8 7.4 C 23.1 7 23.3 6.4 23.3 5.6 C 23.3 4.8 23.1 4.2 22.8 3.8 C 22.4 3.4 22 3.2 21.5 3.2 C 20.9 3.2 20.5 3.4 20.1 3.8 C 19.8 4.2 19.6 4.8 19.6 5.6 Z M 25.6 8.7 L 25.6 2.5 L 26.6 2.5 C 26.6 2.5 26.55 3.4 26.6 3.4 C 27 2.7 27.7 2.4 28.5 2.4 C 28.9 2.4 29.3 2.4 29.6 2.6 C 29.9 2.7 30.1 2.9 30.3 3.1 C 30.4 3.3 30.5 3.6 30.6 3.9 C 30.6 4.1 30.7 4.4 30.7 4.9 C 30.66 4.91 30.7 8.7 30.7 8.7 L 29.6 8.7 C 29.6 8.7 29.61 4.95 29.6 5 C 29.6 4.5 29.6 4.2 29.5 4 C 29.4 3.8 29.3 3.6 29 3.5 C 28.8 3.4 28.6 3.3 28.3 3.3 C 27.9 3.3 27.5 3.4 27.1 3.7 C 26.8 4 26.7 4.5 26.7 5.3 C 26.66 5.34 26.7 8.7 26.7 8.7 L 25.6 8.7 Z M 36.5 6.7 C 36.5 6.7 37.6 6.9 37.6 6.9 C 37.5 7.5 37.1 8 36.7 8.3 C 36.2 8.7 35.6 8.9 34.9 8.9 C 34 8.9 33.3 8.6 32.7 8 C 32.2 7.5 31.9 6.7 31.9 5.7 C 31.9 4.6 32.2 3.8 32.7 3.2 C 33.3 2.7 34 2.4 34.8 2.4 C 35.7 2.4 36.3 2.7 36.9 3.2 C 37.4 3.8 37.7 4.6 37.7 5.6 C 37.7 5.7 37.7 5.8 37.7 5.9 C 37.7 5.9 33 5.9 33 5.9 C 33.1 6.6 33.2 7.1 33.6 7.5 C 33.9 7.8 34.4 8 34.9 8 C 35.3 8 35.6 7.9 35.9 7.7 C 36.2 7.5 36.4 7.2 36.5 6.7 Z M 33.1 5 C 33.1 5 36.6 5 36.6 5 C 36.5 4.5 36.4 4.1 36.2 3.8 C 35.8 3.4 35.4 3.2 34.8 3.2 C 34.4 3.2 34 3.4 33.6 3.7 C 33.3 4.1 33.1 4.5 33.1 5 Z M 38.5 6.9 C 38.5 6.9 39.6 6.7 39.6 6.7 C 39.6 7.1 39.8 7.5 40.1 7.7 C 40.3 7.9 40.7 8 41.2 8 C 41.7 8 42 7.9 42.3 7.7 C 42.5 7.5 42.6 7.3 42.6 7 C 42.6 6.8 42.5 6.6 42.3 6.5 C 42.2 6.4 41.8 6.2 41.2 6.1 C 40.5 5.9 39.9 5.7 39.6 5.6 C 39.3 5.5 39.1 5.3 38.9 5 C 38.8 4.7 38.7 4.5 38.7 4.2 C 38.7 3.9 38.8 3.6 38.9 3.4 C 39 3.2 39.2 3 39.4 2.8 C 39.6 2.7 39.8 2.6 40.1 2.5 C 40.4 2.4 40.7 2.4 41 2.4 C 41.5 2.4 41.9 2.4 42.3 2.6 C 42.7 2.7 42.9 2.9 43.1 3.2 C 43.3 3.4 43.4 3.7 43.5 4.1 C 43.5 4.1 42.4 4.3 42.4 4.3 C 42.4 3.9 42.3 3.7 42 3.5 C 41.8 3.3 41.5 3.2 41.1 3.2 C 40.6 3.2 40.2 3.3 40 3.5 C 39.8 3.6 39.7 3.8 39.7 4 C 39.7 4.2 39.8 4.3 39.9 4.4 C 39.9 4.5 40.1 4.6 40.3 4.7 C 40.4 4.7 40.7 4.8 41.2 5 C 41.9 5.2 42.5 5.3 42.8 5.5 C 43 5.6 43.3 5.8 43.4 6 C 43.6 6.2 43.7 6.5 43.7 6.9 C 43.7 7.3 43.6 7.6 43.4 7.9 C 43.2 8.2 42.9 8.5 42.5 8.6 C 42.1 8.8 41.7 8.9 41.2 8.9 C 40.4 8.9 39.8 8.7 39.3 8.4 C 38.9 8 38.6 7.5 38.5 6.9 Z M 46.8 7.8 C 46.9 7.8 47.1 7.8 47.3 7.8 C 47.3 7.8 47.4 8.7 47.4 8.7 C 47.1 8.8 46.8 8.8 46.6 8.8 C 46.2 8.8 45.9 8.8 45.7 8.6 C 45.5 8.5 45.4 8.4 45.3 8.2 C 45.2 8 45.1 7.5 45.1 6.9 C 45.15 6.91 45.1 3.3 45.1 3.3 L 44.4 3.3 L 44.4 2.5 L 45.1 2.5 L 45.1 1 L 46.2 0.3 L 46.2 2.5 L 47.3 2.5 L 47.3 3.3 L 46.2 3.3 C 46.2 3.3 46.2 6.97 46.2 7 C 46.2 7.3 46.2 7.5 46.3 7.6 C 46.3 7.6 46.3 7.7 46.4 7.8 C 46.5 7.8 46.6 7.8 46.8 7.8 C 46.8 7.8 46.8 7.8 46.8 7.8 Z M 48.9 11.3 C 48.7 11.3 48.5 11.2 48.2 11.1 C 48.2 11.1 48.1 10.1 48.1 10.1 C 48.4 10.2 48.6 10.2 48.7 10.2 C 49 10.2 49.1 10.2 49.3 10.1 C 49.4 10 49.5 9.9 49.6 9.8 C 49.7 9.7 49.8 9.4 50 9 C 50 8.9 50 8.9 50.1 8.7 C 50.05 8.75 47.7 2.5 47.7 2.5 L 48.8 2.5 C 48.8 2.5 50.12 6.12 50.1 6.1 C 50.3 6.6 50.4 7.1 50.6 7.6 C 50.7 7.1 50.8 6.6 51 6.1 C 51.01 6.14 52.3 2.5 52.3 2.5 L 53.4 2.5 C 53.4 2.5 51.02 8.84 51 8.8 C 50.8 9.5 50.6 10 50.4 10.3 C 50.2 10.6 50 10.9 49.8 11 C 49.5 11.2 49.3 11.3 48.9 11.3 C 48.9 11.3 48.9 11.3 48.9 11.3 Z " stroke="none" fill="#000"/>  </g></svg>