<?xml version="1.0" standalone="no"?><!DOCTYPE svg PUBLIC "-//W3C//DTD SVG 1.1//EN" "http://www.w3.org/Graphics/SVG/1.1/DTD/svg11.dtd"><svg xmlns="http://www.w3.org/2000/svg" version="1.1" width="515px" height="56.5px" viewBox="0 -5 515 56.5" style="top:-5px">  <desc>Service Using a scale of 1 5, clients rated our service performance as follows:</desc>  <defs/>  <g id="Polygon56282">    <path d="M 6.6 34.8 L 7.7 34.8 C 7.7 34.8 7.7 39.75 7.7 39.8 C 7.7 40.6 7.6 41.3 7.4 41.8 C 7.2 42.3 6.9 42.7 6.3 43 C 5.8 43.4 5.2 43.5 4.3 43.5 C 3.5 43.5 2.9 43.4 2.4 43.1 C 1.9 42.8 1.5 42.4 1.3 41.9 C 1.1 41.4 0.9 40.7 0.9 39.8 C 0.94 39.75 0.9 34.8 0.9 34.8 L 2.1 34.8 C 2.1 34.8 2.08 39.75 2.1 39.7 C 2.1 40.5 2.1 41 2.3 41.4 C 2.4 41.7 2.7 42 3 42.2 C 3.3 42.4 3.8 42.5 4.2 42.5 C 5.1 42.5 5.7 42.3 6 41.9 C 6.4 41.6 6.6 40.8 6.6 39.7 C 6.56 39.75 6.6 34.8 6.6 34.8 Z M 9 41.5 C 9 41.5 10.1 41.4 10.1 41.4 C 10.1 41.8 10.3 42.1 10.6 42.3 C 10.8 42.5 11.2 42.7 11.7 42.7 C 12.2 42.7 12.5 42.6 12.8 42.4 C 13 42.2 13.1 41.9 13.1 41.7 C 13.1 41.4 13 41.2 12.8 41.1 C 12.7 41 12.3 40.9 11.7 40.7 C 11 40.5 10.4 40.4 10.1 40.2 C 9.8 40.1 9.6 39.9 9.4 39.6 C 9.3 39.4 9.2 39.1 9.2 38.8 C 9.2 38.5 9.3 38.3 9.4 38 C 9.5 37.8 9.7 37.6 9.9 37.5 C 10.1 37.3 10.3 37.2 10.6 37.1 C 10.9 37.1 11.2 37 11.5 37 C 12 37 12.4 37.1 12.8 37.2 C 13.2 37.4 13.4 37.6 13.6 37.8 C 13.8 38 13.9 38.4 14 38.8 C 14 38.8 12.9 38.9 12.9 38.9 C 12.9 38.6 12.8 38.3 12.5 38.2 C 12.3 38 12 37.9 11.6 37.9 C 11.1 37.9 10.7 38 10.5 38.1 C 10.3 38.3 10.2 38.5 10.2 38.7 C 10.2 38.8 10.3 38.9 10.4 39.1 C 10.4 39.2 10.6 39.3 10.8 39.3 C 10.9 39.4 11.2 39.5 11.7 39.6 C 12.4 39.8 13 40 13.3 40.1 C 13.6 40.2 13.8 40.4 14 40.6 C 14.1 40.9 14.2 41.2 14.2 41.6 C 14.2 41.9 14.1 42.2 13.9 42.5 C 13.7 42.9 13.4 43.1 13 43.3 C 12.6 43.4 12.2 43.5 11.7 43.5 C 10.9 43.5 10.3 43.4 9.8 43 C 9.4 42.7 9.2 42.2 9 41.5 Z M 15.5 36 L 15.5 34.8 L 16.5 34.8 L 16.5 36 L 15.5 36 Z M 15.5 43.4 L 15.5 37.2 L 16.5 37.2 L 16.5 43.4 L 15.5 43.4 Z M 18.1 43.4 L 18.1 37.2 L 19.1 37.2 C 19.1 37.2 19.07 38.04 19.1 38 C 19.5 37.4 20.2 37 21.1 37 C 21.4 37 21.8 37.1 22.1 37.2 C 22.4 37.4 22.6 37.5 22.8 37.7 C 22.9 38 23.1 38.2 23.1 38.5 C 23.2 38.7 23.2 39.1 23.2 39.6 C 23.18 39.55 23.2 43.4 23.2 43.4 L 22.1 43.4 C 22.1 43.4 22.13 39.59 22.1 39.6 C 22.1 39.2 22.1 38.8 22 38.6 C 21.9 38.4 21.8 38.2 21.6 38.1 C 21.4 38 21.1 37.9 20.8 37.9 C 20.4 37.9 20 38.1 19.7 38.4 C 19.3 38.6 19.2 39.2 19.2 40 C 19.18 39.98 19.2 43.4 19.2 43.4 L 18.1 43.4 Z M 24.6 43.9 C 24.6 43.9 25.6 44 25.6 44 C 25.7 44.4 25.8 44.6 26 44.7 C 26.2 44.9 26.6 45 27.1 45 C 27.5 45 27.9 44.9 28.2 44.7 C 28.5 44.5 28.6 44.3 28.7 43.9 C 28.8 43.7 28.8 43.3 28.8 42.6 C 28.3 43.1 27.8 43.4 27.1 43.4 C 26.2 43.4 25.6 43.1 25.1 42.5 C 24.6 41.8 24.4 41.1 24.4 40.2 C 24.4 39.6 24.5 39.1 24.7 38.6 C 24.9 38.1 25.2 37.7 25.6 37.4 C 26.1 37.2 26.5 37 27.1 37 C 27.8 37 28.4 37.3 28.9 37.9 C 28.9 37.91 28.9 37.2 28.9 37.2 L 29.9 37.2 C 29.9 37.2 29.88 42.54 29.9 42.5 C 29.9 43.5 29.8 44.2 29.6 44.6 C 29.4 45 29.1 45.3 28.6 45.6 C 28.2 45.8 27.7 45.9 27.1 45.9 C 26.3 45.9 25.7 45.7 25.3 45.4 C 24.8 45.1 24.6 44.6 24.6 43.9 Z M 25.5 40.2 C 25.5 41 25.6 41.6 26 41.9 C 26.3 42.3 26.7 42.5 27.2 42.5 C 27.7 42.5 28.1 42.3 28.4 41.9 C 28.7 41.6 28.9 41 28.9 40.2 C 28.9 39.4 28.7 38.9 28.4 38.5 C 28 38.1 27.6 37.9 27.2 37.9 C 26.7 37.9 26.3 38.1 26 38.5 C 25.6 38.8 25.5 39.4 25.5 40.2 Z M 39.1 43.4 C 39 43.2 38.9 42.9 38.9 42.6 C 38.5 42.9 38.1 43.2 37.7 43.3 C 37.4 43.5 37 43.5 36.6 43.5 C 35.9 43.5 35.4 43.4 35 43 C 34.6 42.7 34.4 42.3 34.4 41.7 C 34.4 41.4 34.5 41.2 34.7 40.9 C 34.8 40.7 35 40.5 35.2 40.3 C 35.4 40.1 35.7 40 36 40 C 36.2 39.9 36.5 39.8 36.9 39.8 C 37.7 39.7 38.4 39.6 38.8 39.4 C 38.8 39.3 38.8 39.2 38.8 39.2 C 38.8 38.7 38.7 38.4 38.5 38.2 C 38.2 38 37.8 37.9 37.3 37.9 C 36.8 37.9 36.4 38 36.2 38.2 C 35.9 38.3 35.8 38.6 35.7 39.1 C 35.7 39.1 34.6 38.9 34.6 38.9 C 34.7 38.5 34.9 38.1 35.1 37.9 C 35.3 37.6 35.6 37.4 36 37.2 C 36.4 37.1 36.9 37 37.4 37 C 38 37 38.4 37.1 38.7 37.2 C 39.1 37.3 39.3 37.5 39.5 37.7 C 39.6 37.9 39.7 38.1 39.8 38.4 C 39.8 38.6 39.8 38.9 39.8 39.4 C 39.8 39.4 39.8 40.8 39.8 40.8 C 39.8 41.8 39.9 42.4 39.9 42.6 C 40 42.9 40 43.1 40.2 43.4 C 40.18 43.38 39.1 43.4 39.1 43.4 C 39.1 43.4 39.08 43.38 39.1 43.4 Z M 38.8 40.3 C 38.4 40.4 37.8 40.5 37.1 40.7 C 36.6 40.7 36.3 40.8 36.1 40.9 C 36 40.9 35.8 41.1 35.7 41.2 C 35.6 41.4 35.6 41.5 35.6 41.7 C 35.6 42 35.7 42.2 35.9 42.4 C 36.1 42.6 36.4 42.7 36.8 42.7 C 37.2 42.7 37.6 42.6 37.9 42.4 C 38.2 42.2 38.5 42 38.6 41.7 C 38.7 41.5 38.8 41.1 38.8 40.6 C 38.8 40.6 38.8 40.3 38.8 40.3 Z M 44.4 41.5 C 44.4 41.5 45.4 41.4 45.4 41.4 C 45.5 41.8 45.7 42.1 45.9 42.3 C 46.2 42.5 46.6 42.7 47 42.7 C 47.5 42.7 47.9 42.6 48.1 42.4 C 48.4 42.2 48.5 41.9 48.5 41.7 C 48.5 41.4 48.4 41.2 48.2 41.1 C 48 41 47.7 40.9 47.1 40.7 C 46.3 40.5 45.8 40.4 45.5 40.2 C 45.2 40.1 45 39.9 44.8 39.6 C 44.6 39.4 44.6 39.1 44.6 38.8 C 44.6 38.5 44.6 38.3 44.8 38 C 44.9 37.8 45.1 37.6 45.3 37.5 C 45.4 37.3 45.7 37.2 45.9 37.1 C 46.2 37.1 46.5 37 46.9 37 C 47.3 37 47.8 37.1 48.1 37.2 C 48.5 37.4 48.8 37.6 49 37.8 C 49.1 38 49.3 38.4 49.3 38.8 C 49.3 38.8 48.3 38.9 48.3 38.9 C 48.2 38.6 48.1 38.3 47.9 38.2 C 47.7 38 47.3 37.9 46.9 37.9 C 46.4 37.9 46.1 38 45.9 38.1 C 45.7 38.3 45.6 38.5 45.6 38.7 C 45.6 38.8 45.6 38.9 45.7 39.1 C 45.8 39.2 45.9 39.3 46.1 39.3 C 46.2 39.4 46.5 39.5 47.1 39.6 C 47.8 39.8 48.3 40 48.6 40.1 C 48.9 40.2 49.1 40.4 49.3 40.6 C 49.5 40.9 49.6 41.2 49.6 41.6 C 49.6 41.9 49.5 42.2 49.3 42.5 C 49 42.9 48.8 43.1 48.4 43.3 C 48 43.4 47.5 43.5 47.1 43.5 C 46.2 43.5 45.6 43.4 45.2 43 C 44.8 42.7 44.5 42.2 44.4 41.5 Z M 54.9 41.1 C 54.9 41.1 55.9 41.2 55.9 41.2 C 55.8 42 55.5 42.5 55 42.9 C 54.6 43.3 54 43.5 53.3 43.5 C 52.5 43.5 51.8 43.2 51.3 42.7 C 50.7 42.1 50.5 41.3 50.5 40.3 C 50.5 39.6 50.6 39 50.8 38.5 C 51 38 51.4 37.6 51.8 37.4 C 52.3 37.1 52.8 37 53.3 37 C 54 37 54.6 37.2 55 37.5 C 55.4 37.9 55.7 38.4 55.8 39 C 55.8 39 54.8 39.1 54.8 39.1 C 54.7 38.7 54.5 38.4 54.3 38.2 C 54 38 53.7 37.9 53.4 37.9 C 52.8 37.9 52.4 38.1 52.1 38.5 C 51.7 38.8 51.6 39.4 51.6 40.3 C 51.6 41.1 51.7 41.7 52.1 42.1 C 52.4 42.5 52.8 42.7 53.3 42.7 C 53.7 42.7 54.1 42.5 54.3 42.3 C 54.6 42 54.8 41.6 54.9 41.1 Z M 61.1 43.4 C 61 43.2 60.9 42.9 60.9 42.6 C 60.5 42.9 60.1 43.2 59.7 43.3 C 59.4 43.5 59 43.5 58.6 43.5 C 57.9 43.5 57.4 43.4 57 43 C 56.6 42.7 56.5 42.3 56.5 41.7 C 56.5 41.4 56.5 41.2 56.7 40.9 C 56.8 40.7 57 40.5 57.2 40.3 C 57.4 40.1 57.7 40 58 40 C 58.2 39.9 58.5 39.8 58.9 39.8 C 59.8 39.7 60.4 39.6 60.8 39.4 C 60.8 39.3 60.8 39.2 60.8 39.2 C 60.8 38.7 60.7 38.4 60.5 38.2 C 60.2 38 59.8 37.9 59.3 37.9 C 58.8 37.9 58.4 38 58.2 38.2 C 58 38.3 57.8 38.6 57.7 39.1 C 57.7 39.1 56.6 38.9 56.6 38.9 C 56.7 38.5 56.9 38.1 57.1 37.9 C 57.3 37.6 57.6 37.4 58 37.2 C 58.4 37.1 58.9 37 59.4 37 C 60 37 60.4 37.1 60.7 37.2 C 61.1 37.3 61.3 37.5 61.5 37.7 C 61.6 37.9 61.7 38.1 61.8 38.4 C 61.8 38.6 61.9 38.9 61.9 39.4 C 61.9 39.4 61.9 40.8 61.9 40.8 C 61.9 41.8 61.9 42.4 61.9 42.6 C 62 42.9 62.1 43.1 62.2 43.4 C 62.19 43.38 61.1 43.4 61.1 43.4 C 61.1 43.4 61.08 43.38 61.1 43.4 Z M 60.8 40.3 C 60.4 40.4 59.8 40.5 59.1 40.7 C 58.6 40.7 58.3 40.8 58.1 40.9 C 58 40.9 57.8 41.1 57.7 41.2 C 57.6 41.4 57.6 41.5 57.6 41.7 C 57.6 42 57.7 42.2 57.9 42.4 C 58.1 42.6 58.4 42.7 58.8 42.7 C 59.2 42.7 59.6 42.6 59.9 42.4 C 60.2 42.2 60.5 42 60.6 41.7 C 60.7 41.5 60.8 41.1 60.8 40.6 C 60.8 40.6 60.8 40.3 60.8 40.3 Z M 63.5 43.4 L 63.5 34.8 L 64.5 34.8 L 64.5 43.4 L 63.5 43.4 Z M 70.4 41.4 C 70.4 41.4 71.5 41.5 71.5 41.5 C 71.3 42.1 71 42.6 70.5 43 C 70.1 43.3 69.5 43.5 68.8 43.5 C 67.9 43.5 67.1 43.2 66.6 42.7 C 66.1 42.1 65.8 41.3 65.8 40.3 C 65.8 39.3 66.1 38.5 66.6 37.9 C 67.1 37.3 67.8 37 68.7 37 C 69.5 37 70.2 37.3 70.7 37.9 C 71.3 38.4 71.5 39.2 71.5 40.3 C 71.5 40.3 71.5 40.4 71.5 40.5 C 71.5 40.5 66.9 40.5 66.9 40.5 C 66.9 41.2 67.1 41.7 67.5 42.1 C 67.8 42.5 68.3 42.7 68.8 42.7 C 69.2 42.7 69.5 42.6 69.8 42.3 C 70 42.1 70.3 41.8 70.4 41.4 Z M 66.9 39.7 C 66.9 39.7 70.4 39.7 70.4 39.7 C 70.4 39.1 70.2 38.8 70 38.5 C 69.7 38.1 69.3 37.9 68.7 37.9 C 68.2 37.9 67.8 38 67.5 38.4 C 67.2 38.7 67 39.1 66.9 39.7 Z M 75.8 40.3 C 75.8 39.1 76.1 38.3 76.7 37.7 C 77.3 37.2 77.9 37 78.7 37 C 79.5 37 80.2 37.3 80.8 37.9 C 81.3 38.4 81.6 39.2 81.6 40.2 C 81.6 41 81.5 41.6 81.2 42.1 C 81 42.5 80.6 42.9 80.2 43.1 C 79.7 43.4 79.2 43.5 78.7 43.5 C 77.8 43.5 77.1 43.2 76.6 42.7 C 76 42.1 75.8 41.3 75.8 40.3 Z M 76.9 40.3 C 76.9 41.1 77 41.7 77.4 42.1 C 77.7 42.5 78.2 42.7 78.7 42.7 C 79.2 42.7 79.6 42.5 80 42.1 C 80.3 41.7 80.5 41 80.5 40.2 C 80.5 39.5 80.3 38.9 80 38.5 C 79.6 38.1 79.2 37.9 78.7 37.9 C 78.2 37.9 77.7 38.1 77.4 38.5 C 77 38.9 76.9 39.5 76.9 40.3 Z M 83.1 43.4 L 83.1 38 L 82.2 38 L 82.2 37.2 L 83.1 37.2 C 83.1 37.2 83.09 36.5 83.1 36.5 C 83.1 36.1 83.1 35.8 83.2 35.6 C 83.3 35.3 83.5 35.1 83.7 34.9 C 84 34.7 84.3 34.6 84.8 34.6 C 85.1 34.6 85.4 34.7 85.8 34.7 C 85.8 34.7 85.6 35.7 85.6 35.7 C 85.4 35.6 85.2 35.6 85 35.6 C 84.7 35.6 84.5 35.7 84.3 35.8 C 84.2 36 84.1 36.2 84.1 36.6 C 84.13 36.58 84.1 37.2 84.1 37.2 L 85.3 37.2 L 85.3 38 L 84.1 38 L 84.1 43.4 L 83.1 43.4 Z M 93.2 43.4 L 92.1 43.4 C 92.1 43.4 92.13 36.66 92.1 36.7 C 91.9 36.9 91.5 37.1 91.1 37.4 C 90.7 37.6 90.3 37.8 90 37.9 C 90 37.9 90 36.9 90 36.9 C 90.6 36.6 91.1 36.3 91.6 35.9 C 92 35.5 92.3 35.1 92.5 34.8 C 92.5 34.75 93.2 34.8 93.2 34.8 L 93.2 43.4 Z M 99.1 40.8 L 99.1 39.7 L 102.3 39.7 L 102.3 40.8 L 99.1 40.8 Z M 106.5 41.1 C 106.5 41.1 107.7 41 107.7 41 C 107.7 41.6 107.9 42 108.2 42.3 C 108.5 42.5 108.9 42.7 109.3 42.7 C 109.8 42.7 110.2 42.5 110.6 42.1 C 110.9 41.7 111.1 41.2 111.1 40.6 C 111.1 40 111 39.5 110.6 39.1 C 110.3 38.8 109.8 38.6 109.3 38.6 C 108.9 38.6 108.6 38.7 108.4 38.8 C 108.1 39 107.9 39.2 107.7 39.4 C 107.72 39.45 106.7 39.3 106.7 39.3 L 107.6 34.9 L 111.8 34.9 L 111.8 35.9 L 108.4 35.9 C 108.4 35.9 107.95 38.22 107.9 38.2 C 108.5 37.9 109 37.7 109.6 37.7 C 110.3 37.7 111 37.9 111.5 38.5 C 112 39 112.2 39.7 112.2 40.5 C 112.2 41.2 112 41.9 111.6 42.5 C 111 43.2 110.3 43.5 109.3 43.5 C 108.5 43.5 107.9 43.3 107.4 42.9 C 106.9 42.4 106.6 41.9 106.5 41.1 Z M 113.8 43.4 L 113.8 42.2 L 115 42.2 C 115 42.2 114.99 43.38 115 43.4 C 115 43.8 114.9 44.2 114.8 44.4 C 114.6 44.7 114.4 44.9 114 45.1 C 114 45.1 113.7 44.6 113.7 44.6 C 113.9 44.5 114.1 44.4 114.2 44.2 C 114.3 44 114.4 43.7 114.4 43.4 C 114.39 43.38 113.8 43.4 113.8 43.4 Z M 124.2 41.1 C 124.2 41.1 125.3 41.2 125.3 41.2 C 125.2 42 124.9 42.5 124.4 42.9 C 123.9 43.3 123.4 43.5 122.7 43.5 C 121.8 43.5 121.2 43.2 120.6 42.7 C 120.1 42.1 119.9 41.3 119.9 40.3 C 119.9 39.6 120 39 120.2 38.5 C 120.4 38 120.8 37.6 121.2 37.4 C 121.7 37.1 122.2 37 122.7 37 C 123.4 37 123.9 37.2 124.4 37.5 C 124.8 37.9 125.1 38.4 125.2 39 C 125.2 39 124.2 39.1 124.2 39.1 C 124.1 38.7 123.9 38.4 123.6 38.2 C 123.4 38 123.1 37.9 122.7 37.9 C 122.2 37.9 121.8 38.1 121.4 38.5 C 121.1 38.8 120.9 39.4 120.9 40.3 C 120.9 41.1 121.1 41.7 121.4 42.1 C 121.7 42.5 122.2 42.7 122.7 42.7 C 123.1 42.7 123.4 42.5 123.7 42.3 C 124 42 124.2 41.6 124.2 41.1 Z M 126.2 43.4 L 126.2 34.8 L 127.2 34.8 L 127.2 43.4 L 126.2 43.4 Z M 128.9 36 L 128.9 34.8 L 129.9 34.8 L 129.9 36 L 128.9 36 Z M 128.9 43.4 L 128.9 37.2 L 129.9 37.2 L 129.9 43.4 L 128.9 43.4 Z M 135.8 41.4 C 135.8 41.4 136.9 41.5 136.9 41.5 C 136.7 42.1 136.4 42.6 135.9 43 C 135.4 43.3 134.8 43.5 134.1 43.5 C 133.2 43.5 132.5 43.2 132 42.7 C 131.4 42.1 131.2 41.3 131.2 40.3 C 131.2 39.3 131.4 38.5 132 37.9 C 132.5 37.3 133.2 37 134.1 37 C 134.9 37 135.6 37.3 136.1 37.9 C 136.6 38.4 136.9 39.2 136.9 40.3 C 136.9 40.3 136.9 40.4 136.9 40.5 C 136.9 40.5 132.3 40.5 132.3 40.5 C 132.3 41.2 132.5 41.7 132.8 42.1 C 133.2 42.5 133.6 42.7 134.1 42.7 C 134.5 42.7 134.8 42.6 135.1 42.3 C 135.4 42.1 135.6 41.8 135.8 41.4 Z M 132.3 39.7 C 132.3 39.7 135.8 39.7 135.8 39.7 C 135.7 39.1 135.6 38.8 135.4 38.5 C 135.1 38.1 134.6 37.9 134.1 37.9 C 133.6 37.9 133.2 38 132.9 38.4 C 132.5 38.7 132.3 39.1 132.3 39.7 Z M 138.2 43.4 L 138.2 37.2 L 139.1 37.2 C 139.1 37.2 139.14 38.04 139.1 38 C 139.6 37.4 140.3 37 141.1 37 C 141.5 37 141.8 37.1 142.2 37.2 C 142.5 37.4 142.7 37.5 142.9 37.7 C 143 38 143.1 38.2 143.2 38.5 C 143.2 38.7 143.2 39.1 143.2 39.6 C 143.24 39.55 143.2 43.4 143.2 43.4 L 142.2 43.4 C 142.2 43.4 142.19 39.59 142.2 39.6 C 142.2 39.2 142.1 38.8 142.1 38.6 C 142 38.4 141.8 38.2 141.6 38.1 C 141.4 38 141.2 37.9 140.9 37.9 C 140.4 37.9 140.1 38.1 139.7 38.4 C 139.4 38.6 139.2 39.2 139.2 40 C 139.24 39.98 139.2 43.4 139.2 43.4 L 138.2 43.4 Z M 146.7 42.5 C 146.8 42.5 147 42.5 147.2 42.4 C 147.2 42.4 147.3 43.4 147.3 43.4 C 147 43.4 146.8 43.5 146.5 43.5 C 146.1 43.5 145.8 43.4 145.6 43.3 C 145.4 43.2 145.3 43 145.2 42.8 C 145.1 42.6 145.1 42.2 145.1 41.6 C 145.05 41.56 145.1 38 145.1 38 L 144.3 38 L 144.3 37.2 L 145.1 37.2 L 145.1 35.6 L 146.1 35 L 146.1 37.2 L 147.2 37.2 L 147.2 38 L 146.1 38 C 146.1 38 146.1 41.62 146.1 41.6 C 146.1 41.9 146.1 42.1 146.2 42.2 C 146.2 42.3 146.3 42.4 146.3 42.4 C 146.4 42.5 146.5 42.5 146.7 42.5 C 146.7 42.5 146.7 42.5 146.7 42.5 Z M 147.8 41.5 C 147.8 41.5 148.8 41.4 148.8 41.4 C 148.9 41.8 149 42.1 149.3 42.3 C 149.6 42.5 149.9 42.7 150.4 42.7 C 150.9 42.7 151.3 42.6 151.5 42.4 C 151.7 42.2 151.9 41.9 151.9 41.7 C 151.9 41.4 151.8 41.2 151.5 41.1 C 151.4 41 151 40.9 150.5 40.7 C 149.7 40.5 149.2 40.4 148.9 40.2 C 148.6 40.1 148.3 39.9 148.2 39.6 C 148 39.4 147.9 39.1 147.9 38.8 C 147.9 38.5 148 38.3 148.1 38 C 148.3 37.8 148.4 37.6 148.7 37.5 C 148.8 37.3 149 37.2 149.3 37.1 C 149.6 37.1 149.9 37 150.2 37 C 150.7 37 151.2 37.1 151.5 37.2 C 151.9 37.4 152.2 37.6 152.3 37.8 C 152.5 38 152.6 38.4 152.7 38.8 C 152.7 38.8 151.7 38.9 151.7 38.9 C 151.6 38.6 151.5 38.3 151.3 38.2 C 151 38 150.7 37.9 150.3 37.9 C 149.8 37.9 149.5 38 149.3 38.1 C 149.1 38.3 149 38.5 149 38.7 C 149 38.8 149 38.9 149.1 39.1 C 149.2 39.2 149.3 39.3 149.5 39.3 C 149.6 39.4 149.9 39.5 150.4 39.6 C 151.2 39.8 151.7 40 152 40.1 C 152.3 40.2 152.5 40.4 152.7 40.6 C 152.9 40.9 152.9 41.2 152.9 41.6 C 152.9 41.9 152.8 42.2 152.6 42.5 C 152.4 42.9 152.1 43.1 151.7 43.3 C 151.4 43.4 150.9 43.5 150.4 43.5 C 149.6 43.5 149 43.4 148.6 43 C 148.2 42.7 147.9 42.2 147.8 41.5 Z M 157.5 43.4 L 157.5 37.2 L 158.5 37.2 C 158.5 37.2 158.47 38.1 158.5 38.1 C 158.7 37.7 158.9 37.4 159.1 37.2 C 159.3 37.1 159.6 37 159.8 37 C 160.2 37 160.5 37.1 160.9 37.4 C 160.9 37.4 160.5 38.3 160.5 38.3 C 160.3 38.2 160 38.1 159.8 38.1 C 159.5 38.1 159.3 38.2 159.1 38.3 C 159 38.5 158.8 38.6 158.7 38.9 C 158.6 39.3 158.6 39.7 158.6 40.1 C 158.57 40.12 158.6 43.4 158.6 43.4 L 157.5 43.4 Z M 165.8 43.4 C 165.7 43.2 165.6 42.9 165.6 42.6 C 165.2 42.9 164.8 43.2 164.5 43.3 C 164.1 43.5 163.7 43.5 163.3 43.5 C 162.6 43.5 162.1 43.4 161.7 43 C 161.4 42.7 161.2 42.3 161.2 41.7 C 161.2 41.4 161.2 41.2 161.4 40.9 C 161.5 40.7 161.7 40.5 161.9 40.3 C 162.1 40.1 162.4 40 162.7 40 C 162.9 39.9 163.2 39.8 163.6 39.8 C 164.5 39.7 165.1 39.6 165.5 39.4 C 165.5 39.3 165.5 39.2 165.5 39.2 C 165.5 38.7 165.4 38.4 165.2 38.2 C 164.9 38 164.5 37.9 164 37.9 C 163.5 37.9 163.1 38 162.9 38.2 C 162.7 38.3 162.5 38.6 162.4 39.1 C 162.4 39.1 161.3 38.9 161.3 38.9 C 161.4 38.5 161.6 38.1 161.8 37.9 C 162 37.6 162.3 37.4 162.7 37.2 C 163.2 37.1 163.6 37 164.2 37 C 164.7 37 165.1 37.1 165.5 37.2 C 165.8 37.3 166 37.5 166.2 37.7 C 166.3 37.9 166.4 38.1 166.5 38.4 C 166.5 38.6 166.6 38.9 166.6 39.4 C 166.6 39.4 166.6 40.8 166.6 40.8 C 166.6 41.8 166.6 42.4 166.6 42.6 C 166.7 42.9 166.8 43.1 166.9 43.4 C 166.9 43.38 165.8 43.4 165.8 43.4 C 165.8 43.4 165.8 43.38 165.8 43.4 Z M 165.5 40.3 C 165.1 40.4 164.5 40.5 163.8 40.7 C 163.3 40.7 163 40.8 162.9 40.9 C 162.7 40.9 162.5 41.1 162.4 41.2 C 162.3 41.4 162.3 41.5 162.3 41.7 C 162.3 42 162.4 42.2 162.6 42.4 C 162.8 42.6 163.1 42.7 163.5 42.7 C 164 42.7 164.3 42.6 164.6 42.4 C 164.9 42.2 165.2 42 165.3 41.7 C 165.4 41.5 165.5 41.1 165.5 40.6 C 165.5 40.6 165.5 40.3 165.5 40.3 Z M 170 42.5 C 170.2 42.5 170.3 42.5 170.5 42.4 C 170.5 42.4 170.7 43.4 170.7 43.4 C 170.4 43.4 170.1 43.5 169.9 43.5 C 169.5 43.5 169.2 43.4 169 43.3 C 168.8 43.2 168.6 43 168.5 42.8 C 168.4 42.6 168.4 42.2 168.4 41.6 C 168.39 41.56 168.4 38 168.4 38 L 167.6 38 L 167.6 37.2 L 168.4 37.2 L 168.4 35.6 L 169.4 35 L 169.4 37.2 L 170.5 37.2 L 170.5 38 L 169.4 38 C 169.4 38 169.44 41.62 169.4 41.6 C 169.4 41.9 169.5 42.1 169.5 42.2 C 169.5 42.3 169.6 42.4 169.7 42.4 C 169.8 42.5 169.9 42.5 170 42.5 C 170 42.5 170 42.5 170 42.5 Z M 175.8 41.4 C 175.8 41.4 176.9 41.5 176.9 41.5 C 176.7 42.1 176.4 42.6 175.9 43 C 175.5 43.3 174.9 43.5 174.1 43.5 C 173.2 43.5 172.5 43.2 172 42.7 C 171.4 42.1 171.2 41.3 171.2 40.3 C 171.2 39.3 171.5 38.5 172 37.9 C 172.5 37.3 173.2 37 174.1 37 C 174.9 37 175.6 37.3 176.1 37.9 C 176.7 38.4 176.9 39.2 176.9 40.3 C 176.9 40.3 176.9 40.4 176.9 40.5 C 176.9 40.5 172.3 40.5 172.3 40.5 C 172.3 41.2 172.5 41.7 172.9 42.1 C 173.2 42.5 173.6 42.7 174.2 42.7 C 174.5 42.7 174.9 42.6 175.1 42.3 C 175.4 42.1 175.6 41.8 175.8 41.4 Z M 172.3 39.7 C 172.3 39.7 175.8 39.7 175.8 39.7 C 175.8 39.1 175.6 38.8 175.4 38.5 C 175.1 38.1 174.6 37.9 174.1 37.9 C 173.6 37.9 173.2 38 172.9 38.4 C 172.5 38.7 172.4 39.1 172.3 39.7 Z M 182.2 43.4 C 182.2 43.4 182.24 42.59 182.2 42.6 C 181.8 43.2 181.3 43.5 180.5 43.5 C 180 43.5 179.6 43.4 179.1 43.1 C 178.7 42.8 178.4 42.5 178.2 42 C 177.9 41.5 177.8 40.9 177.8 40.3 C 177.8 39.7 177.9 39.1 178.1 38.6 C 178.3 38.1 178.7 37.7 179.1 37.4 C 179.5 37.2 179.9 37 180.5 37 C 180.8 37 181.2 37.1 181.5 37.3 C 181.8 37.4 182 37.6 182.2 37.9 C 182.17 37.87 182.2 34.8 182.2 34.8 L 183.2 34.8 L 183.2 43.4 L 182.2 43.4 Z M 178.9 40.3 C 178.9 41.1 179.1 41.7 179.4 42.1 C 179.7 42.5 180.1 42.7 180.6 42.7 C 181.1 42.7 181.5 42.5 181.8 42.1 C 182.1 41.7 182.3 41.1 182.3 40.4 C 182.3 39.5 182.1 38.9 181.8 38.5 C 181.4 38.1 181 37.9 180.6 37.9 C 180.1 37.9 179.7 38.1 179.4 38.5 C 179.1 38.8 178.9 39.5 178.9 40.3 Z M 187.8 40.3 C 187.8 39.1 188.1 38.3 188.8 37.7 C 189.3 37.2 190 37 190.7 37 C 191.6 37 192.3 37.3 192.8 37.9 C 193.4 38.4 193.7 39.2 193.7 40.2 C 193.7 41 193.5 41.6 193.3 42.1 C 193.1 42.5 192.7 42.9 192.2 43.1 C 191.8 43.4 191.3 43.5 190.7 43.5 C 189.9 43.5 189.2 43.2 188.6 42.7 C 188.1 42.1 187.8 41.3 187.8 40.3 Z M 188.9 40.3 C 188.9 41.1 189.1 41.7 189.4 42.1 C 189.8 42.5 190.2 42.7 190.7 42.7 C 191.3 42.7 191.7 42.5 192 42.1 C 192.4 41.7 192.6 41 192.6 40.2 C 192.6 39.5 192.4 38.9 192 38.5 C 191.7 38.1 191.3 37.9 190.7 37.9 C 190.2 37.9 189.8 38.1 189.4 38.5 C 189.1 38.9 188.9 39.5 188.9 40.3 Z M 199 43.4 C 199 43.4 198.97 42.47 199 42.5 C 198.5 43.2 197.8 43.5 197 43.5 C 196.6 43.5 196.3 43.5 196 43.3 C 195.6 43.2 195.4 43 195.3 42.8 C 195.1 42.6 195 42.3 194.9 42 C 194.9 41.8 194.9 41.5 194.9 41 C 194.87 41.01 194.9 37.2 194.9 37.2 L 195.9 37.2 C 195.9 37.2 195.92 40.61 195.9 40.6 C 195.9 41.2 195.9 41.5 196 41.7 C 196.1 42 196.2 42.2 196.4 42.4 C 196.6 42.5 196.9 42.6 197.2 42.6 C 197.5 42.6 197.8 42.5 198.1 42.4 C 198.4 42.2 198.6 42 198.7 41.7 C 198.8 41.4 198.9 41 198.9 40.5 C 198.86 40.49 198.9 37.2 198.9 37.2 L 199.9 37.2 L 199.9 43.4 L 199 43.4 Z M 201.6 43.4 L 201.6 37.2 L 202.5 37.2 C 202.5 37.2 202.5 38.1 202.5 38.1 C 202.7 37.7 203 37.4 203.2 37.2 C 203.4 37.1 203.6 37 203.8 37 C 204.2 37 204.6 37.1 204.9 37.4 C 204.9 37.4 204.6 38.3 204.6 38.3 C 204.3 38.2 204.1 38.1 203.8 38.1 C 203.6 38.1 203.4 38.2 203.2 38.3 C 203 38.5 202.9 38.6 202.8 38.9 C 202.7 39.3 202.6 39.7 202.6 40.1 C 202.61 40.12 202.6 43.4 202.6 43.4 L 201.6 43.4 Z M 208.5 41.5 C 208.5 41.5 209.5 41.4 209.5 41.4 C 209.6 41.8 209.7 42.1 210 42.3 C 210.3 42.5 210.6 42.7 211.1 42.7 C 211.6 42.7 212 42.6 212.2 42.4 C 212.4 42.2 212.6 41.9 212.6 41.7 C 212.6 41.4 212.5 41.2 212.2 41.1 C 212.1 41 211.7 40.9 211.2 40.7 C 210.4 40.5 209.9 40.4 209.6 40.2 C 209.3 40.1 209 39.9 208.9 39.6 C 208.7 39.4 208.6 39.1 208.6 38.8 C 208.6 38.5 208.7 38.3 208.8 38 C 209 37.8 209.1 37.6 209.4 37.5 C 209.5 37.3 209.7 37.2 210 37.1 C 210.3 37.1 210.6 37 210.9 37 C 211.4 37 211.9 37.1 212.2 37.2 C 212.6 37.4 212.9 37.6 213 37.8 C 213.2 38 213.3 38.4 213.4 38.8 C 213.4 38.8 212.4 38.9 212.4 38.9 C 212.3 38.6 212.2 38.3 212 38.2 C 211.7 38 211.4 37.9 211 37.9 C 210.5 37.9 210.2 38 210 38.1 C 209.8 38.3 209.7 38.5 209.7 38.7 C 209.7 38.8 209.7 38.9 209.8 39.1 C 209.9 39.2 210 39.3 210.2 39.3 C 210.3 39.4 210.6 39.5 211.1 39.6 C 211.9 39.8 212.4 40 212.7 40.1 C 213 40.2 213.2 40.4 213.4 40.6 C 213.6 40.9 213.6 41.2 213.6 41.6 C 213.6 41.9 213.5 42.2 213.3 42.5 C 213.1 42.9 212.8 43.1 212.4 43.3 C 212.1 43.4 211.6 43.5 211.1 43.5 C 210.3 43.5 209.7 43.4 209.3 43 C 208.9 42.7 208.6 42.2 208.5 41.5 Z M 219.2 41.4 C 219.2 41.4 220.2 41.5 220.2 41.5 C 220.1 42.1 219.8 42.6 219.3 43 C 218.8 43.3 218.2 43.5 217.5 43.5 C 216.6 43.5 215.9 43.2 215.3 42.7 C 214.8 42.1 214.5 41.3 214.5 40.3 C 214.5 39.3 214.8 38.5 215.3 37.9 C 215.9 37.3 216.6 37 217.4 37 C 218.3 37 219 37.3 219.5 37.9 C 220 38.4 220.3 39.2 220.3 40.3 C 220.3 40.3 220.3 40.4 220.3 40.5 C 220.3 40.5 215.6 40.5 215.6 40.5 C 215.7 41.2 215.9 41.7 216.2 42.1 C 216.6 42.5 217 42.7 217.5 42.7 C 217.9 42.7 218.2 42.6 218.5 42.3 C 218.8 42.1 219 41.8 219.2 41.4 Z M 215.7 39.7 C 215.7 39.7 219.2 39.7 219.2 39.7 C 219.1 39.1 219 38.8 218.8 38.5 C 218.4 38.1 218 37.9 217.5 37.9 C 217 37.9 216.6 38 216.2 38.4 C 215.9 38.7 215.7 39.1 215.7 39.7 Z M 221.6 43.4 L 221.6 37.2 L 222.5 37.2 C 222.5 37.2 222.5 38.1 222.5 38.1 C 222.7 37.7 223 37.4 223.2 37.2 C 223.4 37.1 223.6 37 223.9 37 C 224.2 37 224.6 37.1 224.9 37.4 C 224.9 37.4 224.6 38.3 224.6 38.3 C 224.3 38.2 224.1 38.1 223.8 38.1 C 223.6 38.1 223.4 38.2 223.2 38.3 C 223 38.5 222.9 38.6 222.8 38.9 C 222.7 39.3 222.6 39.7 222.6 40.1 C 222.61 40.12 222.6 43.4 222.6 43.4 L 221.6 43.4 Z M 227.3 43.4 L 224.9 37.2 L 226 37.2 C 226 37.2 227.37 40.88 227.4 40.9 C 227.5 41.3 227.7 41.7 227.8 42.1 C 227.9 41.8 228 41.4 228.2 41 C 228.16 40.95 229.5 37.2 229.5 37.2 L 230.6 37.2 L 228.3 43.4 L 227.3 43.4 Z M 231.6 36 L 231.6 34.8 L 232.6 34.8 L 232.6 36 L 231.6 36 Z M 231.6 43.4 L 231.6 37.2 L 232.6 37.2 L 232.6 43.4 L 231.6 43.4 Z M 238.3 41.1 C 238.3 41.1 239.3 41.2 239.3 41.2 C 239.2 42 238.9 42.5 238.5 42.9 C 238 43.3 237.4 43.5 236.7 43.5 C 235.9 43.5 235.2 43.2 234.7 42.7 C 234.2 42.1 233.9 41.3 233.9 40.3 C 233.9 39.6 234 39 234.2 38.5 C 234.5 38 234.8 37.6 235.3 37.4 C 235.7 37.1 236.2 37 236.7 37 C 237.4 37 238 37.2 238.4 37.5 C 238.8 37.9 239.1 38.4 239.2 39 C 239.2 39 238.2 39.1 238.2 39.1 C 238.1 38.7 237.9 38.4 237.7 38.2 C 237.4 38 237.1 37.9 236.8 37.9 C 236.3 37.9 235.8 38.1 235.5 38.5 C 235.2 38.8 235 39.4 235 40.3 C 235 41.1 235.2 41.7 235.5 42.1 C 235.8 42.5 236.2 42.7 236.7 42.7 C 237.1 42.7 237.5 42.5 237.8 42.3 C 238 42 238.2 41.6 238.3 41.1 Z M 244.5 41.4 C 244.5 41.4 245.6 41.5 245.6 41.5 C 245.4 42.1 245.1 42.6 244.6 43 C 244.2 43.3 243.6 43.5 242.8 43.5 C 241.9 43.5 241.2 43.2 240.7 42.7 C 240.1 42.1 239.9 41.3 239.9 40.3 C 239.9 39.3 240.1 38.5 240.7 37.9 C 241.2 37.3 241.9 37 242.8 37 C 243.6 37 244.3 37.3 244.8 37.9 C 245.3 38.4 245.6 39.2 245.6 40.3 C 245.6 40.3 245.6 40.4 245.6 40.5 C 245.6 40.5 241 40.5 241 40.5 C 241 41.2 241.2 41.7 241.5 42.1 C 241.9 42.5 242.3 42.7 242.8 42.7 C 243.2 42.7 243.6 42.6 243.8 42.3 C 244.1 42.1 244.3 41.8 244.5 41.4 Z M 241 39.7 C 241 39.7 244.5 39.7 244.5 39.7 C 244.5 39.1 244.3 38.8 244.1 38.5 C 243.8 38.1 243.3 37.9 242.8 37.9 C 242.3 37.9 241.9 38 241.6 38.4 C 241.2 38.7 241.1 39.1 241 39.7 Z M 250.2 45.8 L 250.2 37.2 L 251.2 37.2 C 251.2 37.2 251.2 37.97 251.2 38 C 251.4 37.6 251.7 37.4 252 37.3 C 252.2 37.1 252.6 37 253 37 C 253.5 37 254 37.2 254.4 37.4 C 254.8 37.7 255.1 38.1 255.3 38.6 C 255.5 39.1 255.6 39.6 255.6 40.2 C 255.6 40.9 255.5 41.4 255.3 41.9 C 255.1 42.5 254.7 42.8 254.3 43.1 C 253.9 43.4 253.4 43.5 252.9 43.5 C 252.6 43.5 252.3 43.4 252 43.3 C 251.7 43.1 251.5 43 251.3 42.7 C 251.29 42.74 251.3 45.8 251.3 45.8 L 250.2 45.8 Z M 251.2 40.3 C 251.2 41.1 251.4 41.7 251.7 42.1 C 252 42.5 252.4 42.7 252.9 42.7 C 253.3 42.7 253.7 42.5 254.1 42.1 C 254.4 41.7 254.6 41 254.6 40.2 C 254.6 39.4 254.4 38.8 254.1 38.4 C 253.7 38 253.4 37.8 252.9 37.8 C 252.5 37.8 252.1 38.1 251.7 38.5 C 251.4 38.9 251.2 39.5 251.2 40.3 Z M 261.2 41.4 C 261.2 41.4 262.3 41.5 262.3 41.5 C 262.1 42.1 261.8 42.6 261.3 43 C 260.8 43.3 260.2 43.5 259.5 43.5 C 258.6 43.5 257.9 43.2 257.4 42.7 C 256.8 42.1 256.6 41.3 256.6 40.3 C 256.6 39.3 256.8 38.5 257.4 37.9 C 257.9 37.3 258.6 37 259.5 37 C 260.3 37 261 37.3 261.5 37.9 C 262 38.4 262.3 39.2 262.3 40.3 C 262.3 40.3 262.3 40.4 262.3 40.5 C 262.3 40.5 257.6 40.5 257.6 40.5 C 257.7 41.2 257.9 41.7 258.2 42.1 C 258.6 42.5 259 42.7 259.5 42.7 C 259.9 42.7 260.2 42.6 260.5 42.3 C 260.8 42.1 261 41.8 261.2 41.4 Z M 257.7 39.7 C 257.7 39.7 261.2 39.7 261.2 39.7 C 261.1 39.1 261 38.8 260.8 38.5 C 260.4 38.1 260 37.9 259.5 37.9 C 259 37.9 258.6 38 258.3 38.4 C 257.9 38.7 257.7 39.1 257.7 39.7 Z M 263.6 43.4 L 263.6 37.2 L 264.5 37.2 C 264.5 37.2 264.52 38.1 264.5 38.1 C 264.8 37.7 265 37.4 265.2 37.2 C 265.4 37.1 265.6 37 265.9 37 C 266.2 37 266.6 37.1 267 37.4 C 267 37.4 266.6 38.3 266.6 38.3 C 266.3 38.2 266.1 38.1 265.8 38.1 C 265.6 38.1 265.4 38.2 265.2 38.3 C 265 38.5 264.9 38.6 264.8 38.9 C 264.7 39.3 264.6 39.7 264.6 40.1 C 264.63 40.12 264.6 43.4 264.6 43.4 L 263.6 43.4 Z M 267.8 43.4 L 267.8 38 L 266.9 38 L 266.9 37.2 L 267.8 37.2 C 267.8 37.2 267.83 36.5 267.8 36.5 C 267.8 36.1 267.9 35.8 267.9 35.6 C 268 35.3 268.2 35.1 268.5 34.9 C 268.7 34.7 269.1 34.6 269.6 34.6 C 269.9 34.6 270.2 34.7 270.5 34.7 C 270.5 34.7 270.4 35.7 270.4 35.7 C 270.2 35.6 270 35.6 269.8 35.6 C 269.4 35.6 269.2 35.7 269.1 35.8 C 268.9 36 268.9 36.2 268.9 36.6 C 268.88 36.58 268.9 37.2 268.9 37.2 L 270.1 37.2 L 270.1 38 L 268.9 38 L 268.9 43.4 L 267.8 43.4 Z M 270.5 40.3 C 270.5 39.1 270.8 38.3 271.5 37.7 C 272 37.2 272.7 37 273.4 37 C 274.3 37 275 37.3 275.5 37.9 C 276.1 38.4 276.4 39.2 276.4 40.2 C 276.4 41 276.2 41.6 276 42.1 C 275.8 42.5 275.4 42.9 274.9 43.1 C 274.5 43.4 274 43.5 273.4 43.5 C 272.6 43.5 271.9 43.2 271.3 42.7 C 270.8 42.1 270.5 41.3 270.5 40.3 Z M 271.6 40.3 C 271.6 41.1 271.8 41.7 272.1 42.1 C 272.5 42.5 272.9 42.7 273.4 42.7 C 274 42.7 274.4 42.5 274.7 42.1 C 275.1 41.7 275.3 41 275.3 40.2 C 275.3 39.5 275.1 38.9 274.7 38.5 C 274.4 38.1 274 37.9 273.4 37.9 C 272.9 37.9 272.5 38.1 272.1 38.5 C 271.8 38.9 271.6 39.5 271.6 40.3 Z M 277.6 43.4 L 277.6 37.2 L 278.5 37.2 C 278.5 37.2 278.53 38.1 278.5 38.1 C 278.8 37.7 279 37.4 279.2 37.2 C 279.4 37.1 279.6 37 279.9 37 C 280.2 37 280.6 37.1 281 37.4 C 281 37.4 280.6 38.3 280.6 38.3 C 280.3 38.2 280.1 38.1 279.8 38.1 C 279.6 38.1 279.4 38.2 279.2 38.3 C 279 38.5 278.9 38.6 278.8 38.9 C 278.7 39.3 278.6 39.7 278.6 40.1 C 278.63 40.12 278.6 43.4 278.6 43.4 L 277.6 43.4 Z M 281.6 43.4 L 281.6 37.2 L 282.5 37.2 C 282.5 37.2 282.53 38.03 282.5 38 C 282.7 37.7 283 37.5 283.3 37.3 C 283.6 37.1 284 37 284.4 37 C 284.9 37 285.3 37.1 285.5 37.3 C 285.8 37.5 286.1 37.8 286.2 38.1 C 286.7 37.4 287.3 37 288.1 37 C 288.7 37 289.2 37.2 289.5 37.5 C 289.8 37.9 290 38.4 290 39.1 C 290.02 39.11 290 43.4 290 43.4 L 289 43.4 C 289 43.4 288.97 39.46 289 39.5 C 289 39 288.9 38.7 288.9 38.5 C 288.8 38.4 288.7 38.2 288.5 38.1 C 288.3 38 288.1 37.9 287.9 37.9 C 287.4 37.9 287.1 38.1 286.8 38.4 C 286.5 38.7 286.3 39.1 286.3 39.8 C 286.34 39.76 286.3 43.4 286.3 43.4 L 285.3 43.4 C 285.3 43.4 285.28 39.34 285.3 39.3 C 285.3 38.9 285.2 38.5 285 38.3 C 284.9 38 284.6 37.9 284.2 37.9 C 283.9 37.9 283.6 38 283.4 38.2 C 283.1 38.3 282.9 38.5 282.8 38.9 C 282.7 39.2 282.6 39.6 282.6 40.2 C 282.64 40.15 282.6 43.4 282.6 43.4 L 281.6 43.4 Z M 295.9 43.4 C 295.7 43.2 295.7 42.9 295.6 42.6 C 295.2 42.9 294.9 43.2 294.5 43.3 C 294.2 43.5 293.8 43.5 293.3 43.5 C 292.7 43.5 292.1 43.4 291.8 43 C 291.4 42.7 291.2 42.3 291.2 41.7 C 291.2 41.4 291.3 41.2 291.4 40.9 C 291.6 40.7 291.8 40.5 292 40.3 C 292.2 40.1 292.5 40 292.7 40 C 292.9 39.9 293.3 39.8 293.7 39.8 C 294.5 39.7 295.2 39.6 295.6 39.4 C 295.6 39.3 295.6 39.2 295.6 39.2 C 295.6 38.7 295.5 38.4 295.3 38.2 C 295 38 294.6 37.9 294.1 37.9 C 293.6 37.9 293.2 38 293 38.2 C 292.7 38.3 292.5 38.6 292.4 39.1 C 292.4 39.1 291.4 38.9 291.4 38.9 C 291.5 38.5 291.7 38.1 291.9 37.9 C 292.1 37.6 292.4 37.4 292.8 37.2 C 293.2 37.1 293.7 37 294.2 37 C 294.7 37 295.2 37.1 295.5 37.2 C 295.8 37.3 296.1 37.5 296.2 37.7 C 296.4 37.9 296.5 38.1 296.6 38.4 C 296.6 38.6 296.6 38.9 296.6 39.4 C 296.6 39.4 296.6 40.8 296.6 40.8 C 296.6 41.8 296.6 42.4 296.7 42.6 C 296.7 42.9 296.8 43.1 297 43.4 C 296.95 43.38 295.9 43.4 295.9 43.4 C 295.9 43.4 295.85 43.38 295.9 43.4 Z M 295.6 40.3 C 295.2 40.4 294.6 40.5 293.8 40.7 C 293.4 40.7 293.1 40.8 292.9 40.9 C 292.7 40.9 292.6 41.1 292.5 41.2 C 292.4 41.4 292.3 41.5 292.3 41.7 C 292.3 42 292.5 42.2 292.7 42.4 C 292.9 42.6 293.2 42.7 293.6 42.7 C 294 42.7 294.4 42.6 294.7 42.4 C 295 42.2 295.2 42 295.4 41.7 C 295.5 41.5 295.6 41.1 295.6 40.6 C 295.6 40.6 295.6 40.3 295.6 40.3 Z M 298.3 43.4 L 298.3 37.2 L 299.2 37.2 C 299.2 37.2 299.2 38.04 299.2 38 C 299.7 37.4 300.3 37 301.2 37 C 301.6 37 301.9 37.1 302.2 37.2 C 302.5 37.4 302.8 37.5 302.9 37.7 C 303.1 38 303.2 38.2 303.3 38.5 C 303.3 38.7 303.3 39.1 303.3 39.6 C 303.31 39.55 303.3 43.4 303.3 43.4 L 302.3 43.4 C 302.3 43.4 302.26 39.59 302.3 39.6 C 302.3 39.2 302.2 38.8 302.1 38.6 C 302.1 38.4 301.9 38.2 301.7 38.1 C 301.5 38 301.2 37.9 301 37.9 C 300.5 37.9 300.1 38.1 299.8 38.4 C 299.5 38.6 299.3 39.2 299.3 40 C 299.31 39.98 299.3 43.4 299.3 43.4 L 298.3 43.4 Z M 309 41.1 C 309 41.1 310 41.2 310 41.2 C 309.9 42 309.6 42.5 309.2 42.9 C 308.7 43.3 308.1 43.5 307.4 43.5 C 306.6 43.5 305.9 43.2 305.4 42.7 C 304.9 42.1 304.6 41.3 304.6 40.3 C 304.6 39.6 304.7 39 304.9 38.5 C 305.2 38 305.5 37.6 306 37.4 C 306.4 37.1 306.9 37 307.4 37 C 308.1 37 308.7 37.2 309.1 37.5 C 309.5 37.9 309.8 38.4 309.9 39 C 309.9 39 308.9 39.1 308.9 39.1 C 308.8 38.7 308.6 38.4 308.4 38.2 C 308.1 38 307.8 37.9 307.5 37.9 C 307 37.9 306.5 38.1 306.2 38.5 C 305.9 38.8 305.7 39.4 305.7 40.3 C 305.7 41.1 305.8 41.7 306.2 42.1 C 306.5 42.5 306.9 42.7 307.4 42.7 C 307.8 42.7 308.2 42.5 308.5 42.3 C 308.7 42 308.9 41.6 309 41.1 Z M 315.2 41.4 C 315.2 41.4 316.3 41.5 316.3 41.5 C 316.1 42.1 315.8 42.6 315.3 43 C 314.9 43.3 314.3 43.5 313.5 43.5 C 312.6 43.5 311.9 43.2 311.4 42.7 C 310.8 42.1 310.6 41.3 310.6 40.3 C 310.6 39.3 310.8 38.5 311.4 37.9 C 311.9 37.3 312.6 37 313.5 37 C 314.3 37 315 37.3 315.5 37.9 C 316 38.4 316.3 39.2 316.3 40.3 C 316.3 40.3 316.3 40.4 316.3 40.5 C 316.3 40.5 311.7 40.5 311.7 40.5 C 311.7 41.2 311.9 41.7 312.2 42.1 C 312.6 42.5 313 42.7 313.5 42.7 C 313.9 42.7 314.3 42.6 314.5 42.3 C 314.8 42.1 315 41.8 315.2 41.4 Z M 311.7 39.7 C 311.7 39.7 315.2 39.7 315.2 39.7 C 315.2 39.1 315 38.8 314.8 38.5 C 314.5 38.1 314 37.9 313.5 37.9 C 313 37.9 312.6 38 312.3 38.4 C 311.9 38.7 311.8 39.1 311.7 39.7 Z M 325.2 43.4 C 325.1 43.2 325 42.9 325 42.6 C 324.6 42.9 324.2 43.2 323.9 43.3 C 323.5 43.5 323.1 43.5 322.7 43.5 C 322 43.5 321.5 43.4 321.1 43 C 320.8 42.7 320.6 42.3 320.6 41.7 C 320.6 41.4 320.6 41.2 320.8 40.9 C 320.9 40.7 321.1 40.5 321.3 40.3 C 321.6 40.1 321.8 40 322.1 40 C 322.3 39.9 322.6 39.8 323 39.8 C 323.9 39.7 324.5 39.6 324.9 39.4 C 324.9 39.3 324.9 39.2 324.9 39.2 C 324.9 38.7 324.8 38.4 324.6 38.2 C 324.3 38 323.9 37.9 323.4 37.9 C 322.9 37.9 322.6 38 322.3 38.2 C 322.1 38.3 321.9 38.6 321.8 39.1 C 321.8 39.1 320.8 38.9 320.8 38.9 C 320.9 38.5 321 38.1 321.2 37.9 C 321.4 37.6 321.7 37.4 322.2 37.2 C 322.6 37.1 323 37 323.6 37 C 324.1 37 324.5 37.1 324.9 37.2 C 325.2 37.3 325.4 37.5 325.6 37.7 C 325.7 37.9 325.9 38.1 325.9 38.4 C 326 38.6 326 38.9 326 39.4 C 326 39.4 326 40.8 326 40.8 C 326 41.8 326 42.4 326 42.6 C 326.1 42.9 326.2 43.1 326.3 43.4 C 326.31 43.38 325.2 43.4 325.2 43.4 C 325.2 43.4 325.21 43.38 325.2 43.4 Z M 324.9 40.3 C 324.5 40.4 324 40.5 323.2 40.7 C 322.8 40.7 322.4 40.8 322.3 40.9 C 322.1 40.9 321.9 41.1 321.8 41.2 C 321.8 41.4 321.7 41.5 321.7 41.7 C 321.7 42 321.8 42.2 322 42.4 C 322.2 42.6 322.5 42.7 323 42.7 C 323.4 42.7 323.7 42.6 324 42.4 C 324.4 42.2 324.6 42 324.7 41.7 C 324.9 41.5 324.9 41.1 324.9 40.6 C 324.9 40.6 324.9 40.3 324.9 40.3 Z M 327.2 41.5 C 327.2 41.5 328.2 41.4 328.2 41.4 C 328.3 41.8 328.5 42.1 328.7 42.3 C 329 42.5 329.4 42.7 329.8 42.7 C 330.3 42.7 330.7 42.6 330.9 42.4 C 331.2 42.2 331.3 41.9 331.3 41.7 C 331.3 41.4 331.2 41.2 331 41.1 C 330.8 41 330.5 40.9 329.9 40.7 C 329.1 40.5 328.6 40.4 328.3 40.2 C 328 40.1 327.7 39.9 327.6 39.6 C 327.4 39.4 327.4 39.1 327.4 38.8 C 327.4 38.5 327.4 38.3 327.6 38 C 327.7 37.8 327.9 37.6 328.1 37.5 C 328.2 37.3 328.5 37.2 328.7 37.1 C 329 37.1 329.3 37 329.7 37 C 330.1 37 330.6 37.1 330.9 37.2 C 331.3 37.4 331.6 37.6 331.8 37.8 C 331.9 38 332.1 38.4 332.1 38.8 C 332.1 38.8 331.1 38.9 331.1 38.9 C 331 38.6 330.9 38.3 330.7 38.2 C 330.5 38 330.1 37.9 329.7 37.9 C 329.2 37.9 328.9 38 328.7 38.1 C 328.5 38.3 328.4 38.5 328.4 38.7 C 328.4 38.8 328.4 38.9 328.5 39.1 C 328.6 39.2 328.7 39.3 328.9 39.3 C 329 39.4 329.3 39.5 329.8 39.6 C 330.6 39.8 331.1 40 331.4 40.1 C 331.7 40.2 331.9 40.4 332.1 40.6 C 332.3 40.9 332.4 41.2 332.4 41.6 C 332.4 41.9 332.3 42.2 332 42.5 C 331.8 42.9 331.5 43.1 331.2 43.3 C 330.8 43.4 330.3 43.5 329.8 43.5 C 329 43.5 328.4 43.4 328 43 C 327.6 42.7 327.3 42.2 327.2 41.5 Z M 337.2 43.4 L 337.2 38 L 336.3 38 L 336.3 37.2 L 337.2 37.2 C 337.2 37.2 337.2 36.5 337.2 36.5 C 337.2 36.1 337.2 35.8 337.3 35.6 C 337.4 35.3 337.6 35.1 337.8 34.9 C 338.1 34.7 338.5 34.6 338.9 34.6 C 339.2 34.6 339.5 34.7 339.9 34.7 C 339.9 34.7 339.7 35.7 339.7 35.7 C 339.5 35.6 339.3 35.6 339.1 35.6 C 338.8 35.6 338.6 35.7 338.4 35.8 C 338.3 36 338.2 36.2 338.2 36.6 C 338.24 36.58 338.2 37.2 338.2 37.2 L 339.5 37.2 L 339.5 38 L 338.2 38 L 338.2 43.4 L 337.2 43.4 Z M 339.9 40.3 C 339.9 39.1 340.2 38.3 340.8 37.7 C 341.4 37.2 342 37 342.8 37 C 343.7 37 344.4 37.3 344.9 37.9 C 345.4 38.4 345.7 39.2 345.7 40.2 C 345.7 41 345.6 41.6 345.4 42.1 C 345.1 42.5 344.8 42.9 344.3 43.1 C 343.8 43.4 343.3 43.5 342.8 43.5 C 341.9 43.5 341.2 43.2 340.7 42.7 C 340.2 42.1 339.9 41.3 339.9 40.3 Z M 341 40.3 C 341 41.1 341.1 41.7 341.5 42.1 C 341.8 42.5 342.3 42.7 342.8 42.7 C 343.3 42.7 343.8 42.5 344.1 42.1 C 344.5 41.7 344.6 41 344.6 40.2 C 344.6 39.5 344.5 38.9 344.1 38.5 C 343.8 38.1 343.3 37.9 342.8 37.9 C 342.3 37.9 341.8 38.1 341.5 38.5 C 341.1 38.9 341 39.5 341 40.3 Z M 346.9 43.4 L 346.9 34.8 L 348 34.8 L 348 43.4 L 346.9 43.4 Z M 349.6 43.4 L 349.6 34.8 L 350.6 34.8 L 350.6 43.4 L 349.6 43.4 Z M 351.9 40.3 C 351.9 39.1 352.2 38.3 352.9 37.7 C 353.4 37.2 354 37 354.8 37 C 355.7 37 356.4 37.3 356.9 37.9 C 357.4 38.4 357.7 39.2 357.7 40.2 C 357.7 41 357.6 41.6 357.4 42.1 C 357.1 42.5 356.8 42.9 356.3 43.1 C 355.9 43.4 355.4 43.5 354.8 43.5 C 353.9 43.5 353.2 43.2 352.7 42.7 C 352.2 42.1 351.9 41.3 351.9 40.3 Z M 353 40.3 C 353 41.1 353.1 41.7 353.5 42.1 C 353.8 42.5 354.3 42.7 354.8 42.7 C 355.3 42.7 355.8 42.5 356.1 42.1 C 356.5 41.7 356.6 41 356.6 40.2 C 356.6 39.5 356.5 38.9 356.1 38.5 C 355.8 38.1 355.3 37.9 354.8 37.9 C 354.3 37.9 353.8 38.1 353.5 38.5 C 353.1 38.9 353 39.5 353 40.3 Z M 360.1 43.4 L 358.2 37.2 L 359.3 37.2 L 360.3 40.7 C 360.3 40.7 360.65 42.08 360.7 42.1 C 360.7 42 360.8 41.6 361 40.8 C 360.97 40.8 362 37.2 362 37.2 L 363 37.2 L 364 40.8 L 364.3 42 L 364.6 40.8 L 365.7 37.2 L 366.7 37.2 L 364.8 43.4 L 363.7 43.4 L 362.7 39.7 L 362.5 38.6 L 361.2 43.4 L 360.1 43.4 Z M 367.2 41.5 C 367.2 41.5 368.2 41.4 368.2 41.4 C 368.3 41.8 368.5 42.1 368.7 42.3 C 369 42.5 369.4 42.7 369.9 42.7 C 370.3 42.7 370.7 42.6 370.9 42.4 C 371.2 42.2 371.3 41.9 371.3 41.7 C 371.3 41.4 371.2 41.2 371 41.1 C 370.8 41 370.5 40.9 369.9 40.7 C 369.1 40.5 368.6 40.4 368.3 40.2 C 368 40.1 367.8 39.9 367.6 39.6 C 367.5 39.4 367.4 39.1 367.4 38.8 C 367.4 38.5 367.4 38.3 367.6 38 C 367.7 37.8 367.9 37.6 368.1 37.5 C 368.3 37.3 368.5 37.2 368.8 37.1 C 369 37.1 369.3 37 369.7 37 C 370.2 37 370.6 37.1 371 37.2 C 371.3 37.4 371.6 37.6 371.8 37.8 C 371.9 38 372.1 38.4 372.1 38.8 C 372.1 38.8 371.1 38.9 371.1 38.9 C 371.1 38.6 370.9 38.3 370.7 38.2 C 370.5 38 370.2 37.9 369.7 37.9 C 369.3 37.9 368.9 38 368.7 38.1 C 368.5 38.3 368.4 38.5 368.4 38.7 C 368.4 38.8 368.4 38.9 368.5 39.1 C 368.6 39.2 368.7 39.3 368.9 39.3 C 369 39.4 369.3 39.5 369.9 39.6 C 370.6 39.8 371.1 40 371.4 40.1 C 371.7 40.2 371.9 40.4 372.1 40.6 C 372.3 40.9 372.4 41.2 372.4 41.6 C 372.4 41.9 372.3 42.2 372.1 42.5 C 371.9 42.9 371.6 43.1 371.2 43.3 C 370.8 43.4 370.3 43.5 369.9 43.5 C 369.1 43.5 368.4 43.4 368 43 C 367.6 42.7 367.3 42.2 367.2 41.5 Z M 373.9 38.4 L 373.9 37.2 L 375.1 37.2 L 375.1 38.4 L 373.9 38.4 Z M 373.9 43.4 L 373.9 42.2 L 375.1 42.2 L 375.1 43.4 L 373.9 43.4 Z " stroke="none" fill="#000"/>  </g>  <g id="Polygon56281">    <path d="M 7.9 1.6 C 7.9 1.6 7.9 3.3 7.9 3.3 C 6.9 2.5 5.9 2.1 4.8 2.1 C 3.3 2.1 2.4 2.9 2.4 4.1 C 2.4 5 2.6 5.8 4.9 6.9 C 7.7 8.4 8.4 9.4 8.4 11.2 C 8.4 13.2 6.8 14.8 4.5 14.8 C 3.2 14.8 2 14.3 0.9 13.6 C 0.9 13.6 0.9 11.7 0.9 11.7 C 2 12.8 3.2 13.4 4.5 13.4 C 5.9 13.4 6.9 12.6 6.9 11.2 C 6.9 10.1 6.5 9.4 3.8 8 C 1.7 6.9 0.9 5.9 0.9 4.1 C 0.9 2.2 2.5 0.8 4.8 0.8 C 5.9 0.8 6.9 1.1 7.9 1.6 Z M 18.2 0.9 L 18.2 2.3 L 12.2 2.3 L 12.2 7 L 18 7 L 18 8.4 L 12.2 8.4 L 12.2 13.2 L 18.3 13.2 L 18.3 14.6 L 10.7 14.6 L 10.7 0.9 L 18.2 0.9 Z M 20.8 0.9 C 20.8 0.9 24.34 0.94 24.3 0.9 C 27.1 0.9 28.5 2.5 28.5 4.6 C 28.5 6.3 27.6 7.5 25.9 8 C 26.8 8.4 27.2 8.8 28.3 10.5 C 28.32 10.5 31 14.6 31 14.6 L 29.2 14.6 C 29.2 14.6 26.78 10.82 26.8 10.8 C 25.5 8.8 24.7 8.4 23.5 8.4 C 23.52 8.38 22.3 8.4 22.3 8.4 L 22.3 14.6 L 20.8 14.6 L 20.8 0.9 Z M 23.7 7.1 C 25.5 7.1 27 6.6 27 4.6 C 27 2.9 25.9 2.3 24.1 2.3 C 24.14 2.26 22.3 2.3 22.3 2.3 L 22.3 7.1 C 22.3 7.1 23.66 7.06 23.7 7.1 Z M 30.3 0.9 L 31.8 0.9 L 36.2 11.6 L 36.2 11.6 L 40.6 0.9 L 42.1 0.9 L 36.4 14.7 L 36 14.7 L 30.3 0.9 Z M 45.2 0.9 L 45.2 14.6 L 43.7 14.6 L 43.7 0.9 L 45.2 0.9 Z M 59.5 1.8 C 59.5 1.8 59.5 3.5 59.5 3.5 C 58.1 2.6 56.5 2.2 54.9 2.2 C 51.4 2.2 49.2 4.8 49.2 7.8 C 49.2 10.8 51.4 13.4 54.9 13.4 C 56.6 13.4 58.2 12.9 59.6 12 C 59.6 12 59.6 13.6 59.6 13.6 C 58.1 14.4 56.5 14.8 54.8 14.8 C 50.1 14.8 47.7 11.2 47.7 7.8 C 47.7 3.8 50.8 0.8 54.9 0.8 C 56.4 0.8 58 1.1 59.5 1.8 Z M 69.4 0.9 L 69.4 2.3 L 63.5 2.3 L 63.5 7 L 69.2 7 L 69.2 8.4 L 63.5 8.4 L 63.5 13.2 L 69.6 13.2 L 69.6 14.6 L 62 14.6 L 62 0.9 L 69.4 0.9 Z " stroke="none" fill="#f28620"/>  </g></svg>