<?xml version="1.0" standalone="no"?><!DOCTYPE svg PUBLIC "-//W3C//DTD SVG 1.1//EN" "http://www.w3.org/Graphics/SVG/1.1/DTD/svg11.dtd"><svg xmlns="http://www.w3.org/2000/svg" version="1.1" width="400.1px" height="39.1px" viewBox="0 -8 400.1 39.1" style="top:-8px">  <desc>Webinars</desc>  <defs/>  <g id="Polygon11499">    <path d="M 4.9 17.5 L 0.3 0.3 L 2.6 0.3 C 2.6 0.3 5.24 11.55 5.2 11.6 C 5.5 12.7 5.8 13.9 6 15.1 C 6.4 13.2 6.7 12.2 6.7 11.9 C 6.74 11.89 10 0.3 10 0.3 L 12.8 0.3 C 12.8 0.3 15.21 8.99 15.2 9 C 15.8 11.1 16.3 13.2 16.5 15.1 C 16.8 14 17.1 12.7 17.4 11.3 C 17.4 11.33 20.1 0.3 20.1 0.3 L 22.4 0.3 L 17.7 17.5 L 15.5 17.5 C 15.5 17.5 11.86 4.38 11.9 4.4 C 11.6 3.3 11.4 2.6 11.3 2.4 C 11.1 3.2 11 3.8 10.8 4.4 C 10.82 4.38 7.2 17.5 7.2 17.5 L 4.9 17.5 Z M 32.3 13.5 C 32.3 13.5 34.5 13.7 34.5 13.7 C 34.2 15 33.5 16 32.6 16.7 C 31.7 17.4 30.5 17.8 29 17.8 C 27.2 17.8 25.8 17.2 24.7 16.1 C 23.6 15 23.1 13.4 23.1 11.4 C 23.1 9.3 23.6 7.6 24.7 6.5 C 25.8 5.3 27.2 4.7 28.9 4.7 C 30.6 4.7 31.9 5.3 33 6.4 C 34 7.6 34.6 9.2 34.6 11.2 C 34.6 11.4 34.6 11.5 34.6 11.8 C 34.6 11.8 25.3 11.8 25.3 11.8 C 25.4 13.2 25.7 14.2 26.4 14.9 C 27.1 15.7 28 16 29 16 C 29.8 16 30.5 15.8 31 15.4 C 31.6 15 32 14.4 32.3 13.5 Z M 25.4 10.1 C 25.4 10.1 32.3 10.1 32.3 10.1 C 32.3 9 32 8.2 31.5 7.7 C 30.9 6.9 30 6.5 28.9 6.5 C 28 6.5 27.2 6.8 26.5 7.5 C 25.8 8.1 25.5 9 25.4 10.1 Z M 39.1 17.5 L 37.1 17.5 L 37.1 0.3 L 39.2 0.3 C 39.2 0.3 39.25 6.42 39.2 6.4 C 40.1 5.3 41.3 4.7 42.7 4.7 C 43.4 4.7 44.1 4.9 44.8 5.2 C 45.5 5.5 46.1 6 46.5 6.5 C 47 7.1 47.3 7.7 47.6 8.5 C 47.8 9.3 47.9 10.2 47.9 11.1 C 47.9 13.2 47.4 14.8 46.3 16 C 45.3 17.2 44 17.8 42.6 17.8 C 41.1 17.8 39.9 17.1 39.1 15.9 C 39.09 15.91 39.1 17.5 39.1 17.5 Z M 39.1 11.2 C 39.1 12.6 39.3 13.7 39.7 14.4 C 40.3 15.5 41.2 16 42.4 16 C 43.3 16 44.1 15.6 44.8 14.8 C 45.4 14 45.8 12.8 45.8 11.2 C 45.8 9.6 45.5 8.4 44.8 7.6 C 44.2 6.9 43.4 6.5 42.5 6.5 C 41.5 6.5 40.7 6.9 40.1 7.7 C 39.4 8.5 39.1 9.6 39.1 11.2 Z M 50.5 2.7 L 50.5 0.3 L 52.6 0.3 L 52.6 2.7 L 50.5 2.7 Z M 50.5 17.5 L 50.5 5 L 52.6 5 L 52.6 17.5 L 50.5 17.5 Z M 55.8 17.5 L 55.8 5 L 57.7 5 C 57.7 5 57.73 6.8 57.7 6.8 C 58.6 5.4 60 4.7 61.7 4.7 C 62.4 4.7 63.1 4.9 63.8 5.2 C 64.4 5.4 64.9 5.8 65.2 6.2 C 65.5 6.6 65.7 7.2 65.8 7.8 C 65.9 8.2 65.9 8.8 65.9 9.8 C 65.94 9.82 65.9 17.5 65.9 17.5 L 63.8 17.5 C 63.8 17.5 63.83 9.9 63.8 9.9 C 63.8 9 63.8 8.4 63.6 8 C 63.4 7.5 63.1 7.2 62.7 7 C 62.3 6.7 61.8 6.6 61.2 6.6 C 60.3 6.6 59.6 6.9 58.9 7.4 C 58.3 8 57.9 9.1 57.9 10.7 C 57.94 10.68 57.9 17.5 57.9 17.5 L 55.8 17.5 Z M 77.7 17.5 C 77.5 17 77.4 16.5 77.3 15.9 C 76.5 16.6 75.8 17.1 75 17.3 C 74.3 17.6 73.5 17.8 72.7 17.8 C 71.3 17.8 70.3 17.4 69.6 16.8 C 68.8 16.1 68.5 15.2 68.5 14.2 C 68.5 13.6 68.6 13 68.9 12.5 C 69.2 12 69.5 11.6 70 11.3 C 70.4 11 70.9 10.8 71.5 10.6 C 71.9 10.5 72.5 10.4 73.4 10.3 C 75.1 10.1 76.3 9.9 77.1 9.6 C 77.1 9.3 77.1 9.1 77.1 9 C 77.1 8.2 76.9 7.6 76.5 7.2 C 76 6.7 75.2 6.5 74.1 6.5 C 73.1 6.5 72.4 6.7 71.9 7 C 71.5 7.4 71.1 8 70.9 8.9 C 70.9 8.9 68.8 8.6 68.8 8.6 C 69 7.7 69.3 7 69.8 6.4 C 70.2 5.9 70.8 5.5 71.6 5.2 C 72.4 4.9 73.4 4.7 74.4 4.7 C 75.5 4.7 76.4 4.9 77 5.1 C 77.7 5.4 78.2 5.7 78.5 6.1 C 78.8 6.4 79 6.9 79.1 7.5 C 79.2 7.9 79.3 8.5 79.3 9.4 C 79.3 9.4 79.3 12.3 79.3 12.3 C 79.3 14.2 79.3 15.5 79.4 16 C 79.5 16.5 79.7 17 79.9 17.5 C 79.92 17.47 77.7 17.5 77.7 17.5 C 77.7 17.5 77.72 17.47 77.7 17.5 Z M 77.1 11.2 C 76.4 11.5 75.2 11.8 73.7 12 C 72.8 12.1 72.2 12.3 71.8 12.4 C 71.5 12.6 71.2 12.8 71 13.1 C 70.8 13.4 70.7 13.8 70.7 14.1 C 70.7 14.7 70.9 15.2 71.3 15.5 C 71.8 15.9 72.4 16.1 73.2 16.1 C 74 16.1 74.8 15.9 75.4 15.6 C 76 15.2 76.5 14.7 76.8 14.1 C 77 13.6 77.1 12.9 77.1 12 C 77.1 12 77.1 11.2 77.1 11.2 Z M 82.5 17.5 L 82.5 5 L 84.4 5 C 84.4 5 84.4 6.91 84.4 6.9 C 84.9 6 85.3 5.4 85.7 5.2 C 86.2 4.9 86.6 4.7 87.1 4.7 C 87.8 4.7 88.5 5 89.3 5.4 C 89.3 5.4 88.5 7.4 88.5 7.4 C 88 7.1 87.5 6.9 87 6.9 C 86.5 6.9 86.1 7.1 85.7 7.3 C 85.4 7.6 85.1 8 85 8.5 C 84.7 9.2 84.6 10.1 84.6 11 C 84.61 10.96 84.6 17.5 84.6 17.5 L 82.5 17.5 Z M 89.7 13.8 C 89.7 13.8 91.8 13.4 91.8 13.4 C 91.9 14.3 92.2 14.9 92.7 15.4 C 93.3 15.8 94 16 95 16 C 95.9 16 96.7 15.8 97.1 15.4 C 97.6 15 97.8 14.6 97.8 14 C 97.8 13.6 97.6 13.2 97.2 12.9 C 96.9 12.7 96.2 12.5 95.1 12.2 C 93.5 11.8 92.4 11.5 91.8 11.2 C 91.2 10.9 90.8 10.5 90.5 10 C 90.2 9.5 90 8.9 90 8.3 C 90 7.8 90.2 7.3 90.4 6.8 C 90.7 6.3 91 5.9 91.4 5.6 C 91.8 5.4 92.2 5.2 92.8 5 C 93.3 4.8 94 4.7 94.6 4.7 C 95.6 4.7 96.4 4.9 97.2 5.2 C 97.9 5.4 98.5 5.8 98.8 6.3 C 99.2 6.8 99.4 7.4 99.5 8.2 C 99.5 8.2 97.5 8.5 97.5 8.5 C 97.4 7.9 97.1 7.4 96.7 7 C 96.2 6.7 95.6 6.5 94.8 6.5 C 93.8 6.5 93.1 6.6 92.7 7 C 92.3 7.3 92.1 7.7 92.1 8.1 C 92.1 8.4 92.1 8.6 92.3 8.8 C 92.5 9.1 92.8 9.2 93.1 9.4 C 93.3 9.5 94 9.6 95 9.9 C 96.5 10.3 97.5 10.7 98.1 10.9 C 98.7 11.2 99.2 11.5 99.5 12 C 99.8 12.5 100 13.1 100 13.8 C 100 14.5 99.8 15.2 99.4 15.8 C 99 16.4 98.4 16.9 97.6 17.2 C 96.8 17.6 96 17.8 95 17.8 C 93.4 17.8 92.1 17.4 91.3 16.7 C 90.4 16.1 89.9 15.1 89.7 13.8 Z " stroke="none" fill="#000"/>  </g></svg>