<?xml version="1.0" standalone="no"?><!DOCTYPE svg PUBLIC "-//W3C//DTD SVG 1.1//EN" "http://www.w3.org/Graphics/SVG/1.1/DTD/svg11.dtd"><svg xmlns="http://www.w3.org/2000/svg" version="1.1" width="1030px" height="117.1px" viewBox="0 -10 1030 117.1" style="top:-10px">  <desc>SERVICE Using a scale of 1 5, clients rated our service performance:</desc>  <defs/>  <g id="Polygon5272">    <path d="M 13.3 75.3 L 15.6 75.3 C 15.6 75.3 15.59 85.37 15.6 85.4 C 15.6 87.1 15.4 88.5 15 89.5 C 14.6 90.6 13.9 91.4 12.9 92 C 11.8 92.7 10.5 93 8.8 93 C 7.2 93 5.8 92.7 4.8 92.2 C 3.8 91.6 3 90.8 2.6 89.7 C 2.1 88.7 1.9 87.2 1.9 85.4 C 1.91 85.37 1.9 75.3 1.9 75.3 L 4.2 75.3 C 4.2 75.3 4.21 85.36 4.2 85.4 C 4.2 86.9 4.4 88 4.6 88.7 C 4.9 89.4 5.4 90 6.1 90.4 C 6.8 90.7 7.6 90.9 8.6 90.9 C 10.3 90.9 11.5 90.5 12.2 89.8 C 12.9 89 13.3 87.5 13.3 85.4 C 13.29 85.36 13.3 75.3 13.3 75.3 Z M 18.3 89 C 18.3 89 20.4 88.6 20.4 88.6 C 20.5 89.5 20.9 90.1 21.4 90.6 C 21.9 91 22.7 91.2 23.7 91.2 C 24.7 91.2 25.4 91 25.9 90.6 C 26.3 90.2 26.6 89.8 26.6 89.2 C 26.6 88.8 26.4 88.4 25.9 88.1 C 25.6 87.9 24.9 87.7 23.8 87.4 C 22.2 87 21.1 86.6 20.5 86.3 C 19.9 86.1 19.4 85.7 19.1 85.1 C 18.8 84.6 18.7 84.1 18.7 83.5 C 18.7 82.9 18.8 82.4 19 81.9 C 19.3 81.4 19.6 81 20.1 80.7 C 20.4 80.5 20.9 80.3 21.4 80.1 C 22 79.9 22.6 79.8 23.3 79.8 C 24.3 79.8 25.2 80 25.9 80.3 C 26.6 80.5 27.2 80.9 27.6 81.4 C 27.9 81.9 28.2 82.5 28.3 83.4 C 28.3 83.4 26.2 83.6 26.2 83.6 C 26.1 83 25.8 82.5 25.4 82.1 C 24.9 81.8 24.3 81.6 23.4 81.6 C 22.5 81.6 21.8 81.7 21.3 82.1 C 20.9 82.4 20.7 82.8 20.7 83.2 C 20.7 83.5 20.8 83.7 21 84 C 21.2 84.2 21.4 84.4 21.8 84.5 C 22 84.6 22.6 84.8 23.7 85.1 C 25.2 85.5 26.3 85.8 26.8 86.1 C 27.4 86.3 27.9 86.7 28.3 87.2 C 28.6 87.7 28.8 88.3 28.8 89 C 28.8 89.7 28.6 90.4 28.1 91 C 27.7 91.7 27.1 92.1 26.3 92.5 C 25.6 92.8 24.7 93 23.7 93 C 22 93 20.8 92.7 19.9 92 C 19.1 91.3 18.5 90.3 18.3 89 Z M 31.3 77.8 L 31.3 75.3 L 33.5 75.3 L 33.5 77.8 L 31.3 77.8 Z M 31.3 92.7 L 31.3 80.1 L 33.5 80.1 L 33.5 92.7 L 31.3 92.7 Z M 36.7 92.7 L 36.7 80.1 L 38.6 80.1 C 38.6 80.1 38.62 81.9 38.6 81.9 C 39.6 80.5 40.9 79.8 42.6 79.8 C 43.4 79.8 44.1 80 44.7 80.2 C 45.4 80.5 45.8 80.9 46.2 81.3 C 46.5 81.8 46.7 82.3 46.8 82.9 C 46.9 83.3 46.9 84 46.9 85 C 46.94 84.96 46.9 92.7 46.9 92.7 L 44.8 92.7 C 44.8 92.7 44.81 85.05 44.8 85 C 44.8 84.2 44.7 83.5 44.6 83.1 C 44.4 82.7 44.1 82.3 43.7 82.1 C 43.3 81.8 42.8 81.7 42.2 81.7 C 41.3 81.7 40.5 82 39.8 82.5 C 39.2 83.1 38.8 84.2 38.8 85.8 C 38.84 85.83 38.8 92.7 38.8 92.7 L 36.7 92.7 Z M 49.8 93.8 C 49.8 93.8 51.9 94.1 51.9 94.1 C 52 94.7 52.2 95.2 52.6 95.5 C 53.2 95.9 53.9 96.1 54.8 96.1 C 55.8 96.1 56.6 95.9 57.1 95.5 C 57.6 95.1 58 94.5 58.2 93.8 C 58.3 93.4 58.3 92.5 58.3 91.1 C 57.4 92.2 56.2 92.7 54.8 92.7 C 53.1 92.7 51.8 92.1 50.8 90.8 C 49.9 89.6 49.4 88.1 49.4 86.3 C 49.4 85.1 49.6 84 50.1 83 C 50.5 82 51.1 81.2 51.9 80.7 C 52.8 80.1 53.7 79.8 54.9 79.8 C 56.3 79.8 57.6 80.4 58.5 81.6 C 58.54 81.63 58.5 80.1 58.5 80.1 L 60.5 80.1 C 60.5 80.1 60.51 91 60.5 91 C 60.5 93 60.3 94.4 59.9 95.2 C 59.5 96 58.9 96.6 58 97.1 C 57.1 97.6 56.1 97.8 54.8 97.8 C 53.3 97.8 52.1 97.5 51.2 96.8 C 50.2 96.1 49.8 95.1 49.8 93.8 Z M 51.6 86.2 C 51.6 87.8 51.9 89 52.6 89.8 C 53.2 90.6 54.1 90.9 55 90.9 C 56 90.9 56.9 90.6 57.5 89.8 C 58.2 89.1 58.5 87.9 58.5 86.3 C 58.5 84.7 58.2 83.6 57.5 82.8 C 56.8 82 56 81.6 55 81.6 C 54.1 81.6 53.3 82 52.6 82.8 C 51.9 83.5 51.6 84.7 51.6 86.2 Z M 79.1 92.7 C 78.9 92.3 78.8 91.8 78.7 91.2 C 77.9 91.8 77.2 92.3 76.4 92.6 C 75.7 92.9 74.9 93 74.1 93 C 72.7 93 71.6 92.7 70.9 92 C 70.1 91.3 69.8 90.4 69.8 89.4 C 69.8 88.8 69.9 88.2 70.2 87.7 C 70.5 87.2 70.8 86.8 71.3 86.5 C 71.7 86.2 72.3 85.9 72.8 85.8 C 73.2 85.7 73.9 85.6 74.7 85.5 C 76.4 85.2 77.7 85 78.5 84.7 C 78.5 84.4 78.5 84.2 78.5 84.2 C 78.5 83.3 78.3 82.7 77.9 82.3 C 77.4 81.8 76.6 81.6 75.5 81.6 C 74.5 81.6 73.8 81.8 73.3 82.1 C 72.8 82.5 72.4 83.1 72.2 84 C 72.2 84 70.1 83.7 70.1 83.7 C 70.3 82.8 70.6 82.1 71.1 81.5 C 71.5 81 72.1 80.6 73 80.3 C 73.8 80 74.7 79.8 75.8 79.8 C 76.9 79.8 77.8 80 78.4 80.2 C 79.1 80.5 79.6 80.8 79.9 81.2 C 80.2 81.5 80.5 82 80.6 82.6 C 80.7 83 80.7 83.6 80.7 84.6 C 80.7 84.6 80.7 87.4 80.7 87.4 C 80.7 89.4 80.7 90.7 80.8 91.2 C 80.9 91.7 81.1 92.2 81.4 92.7 C 81.37 92.71 79.1 92.7 79.1 92.7 C 79.1 92.7 79.14 92.71 79.1 92.7 Z M 78.5 86.4 C 77.8 86.7 76.6 87 75 87.2 C 74.2 87.3 73.5 87.5 73.2 87.6 C 72.8 87.8 72.5 88 72.3 88.3 C 72.1 88.6 72 89 72 89.3 C 72 89.9 72.3 90.4 72.7 90.8 C 73.1 91.1 73.7 91.3 74.6 91.3 C 75.4 91.3 76.1 91.1 76.8 90.8 C 77.4 90.4 77.9 89.9 78.2 89.3 C 78.4 88.8 78.5 88.1 78.5 87.2 C 78.5 87.2 78.5 86.4 78.5 86.4 Z M 89.9 89 C 89.9 89 92 88.6 92 88.6 C 92.1 89.5 92.5 90.1 93 90.6 C 93.5 91 94.3 91.2 95.3 91.2 C 96.3 91.2 97 91 97.5 90.6 C 97.9 90.2 98.2 89.8 98.2 89.2 C 98.2 88.8 98 88.4 97.5 88.1 C 97.2 87.9 96.5 87.7 95.4 87.4 C 93.8 87 92.7 86.6 92.1 86.3 C 91.5 86.1 91 85.7 90.7 85.1 C 90.4 84.6 90.3 84.1 90.3 83.5 C 90.3 82.9 90.4 82.4 90.6 81.9 C 90.9 81.4 91.2 81 91.7 80.7 C 92 80.5 92.5 80.3 93 80.1 C 93.6 79.9 94.2 79.8 94.9 79.8 C 95.9 79.8 96.8 80 97.5 80.3 C 98.2 80.5 98.8 80.9 99.2 81.4 C 99.5 81.9 99.8 82.5 99.9 83.4 C 99.9 83.4 97.8 83.6 97.8 83.6 C 97.7 83 97.4 82.5 97 82.1 C 96.5 81.8 95.9 81.6 95 81.6 C 94.1 81.6 93.4 81.7 92.9 82.1 C 92.5 82.4 92.3 82.8 92.3 83.2 C 92.3 83.5 92.4 83.7 92.6 84 C 92.8 84.2 93 84.4 93.4 84.5 C 93.6 84.6 94.2 84.8 95.3 85.1 C 96.8 85.5 97.9 85.8 98.4 86.1 C 99 86.3 99.5 86.7 99.9 87.2 C 100.2 87.7 100.4 88.3 100.4 89 C 100.4 89.7 100.2 90.4 99.7 91 C 99.3 91.7 98.7 92.1 97.9 92.5 C 97.2 92.8 96.3 93 95.3 93 C 93.6 93 92.4 92.7 91.5 92 C 90.7 91.3 90.1 90.3 89.9 89 Z M 111.1 88.1 C 111.1 88.1 113.2 88.4 113.2 88.4 C 113 89.8 112.4 91 111.5 91.8 C 110.5 92.6 109.4 93 108 93 C 106.3 93 104.9 92.4 103.8 91.3 C 102.8 90.2 102.3 88.6 102.3 86.5 C 102.3 85.1 102.5 83.9 102.9 82.9 C 103.4 81.9 104.1 81.1 105 80.6 C 105.9 80.1 106.9 79.8 108 79.8 C 109.4 79.8 110.5 80.2 111.4 80.9 C 112.2 81.6 112.8 82.5 113 83.8 C 113 83.8 111 84.1 111 84.1 C 110.8 83.3 110.4 82.6 109.9 82.2 C 109.4 81.8 108.8 81.6 108.1 81.6 C 107 81.6 106.1 82 105.5 82.7 C 104.8 83.5 104.4 84.7 104.4 86.4 C 104.4 88.1 104.8 89.3 105.4 90.1 C 106.1 90.9 106.9 91.2 108 91.2 C 108.8 91.2 109.5 91 110.1 90.5 C 110.6 90 111 89.2 111.1 88.1 Z M 123.7 92.7 C 123.5 92.3 123.3 91.8 123.3 91.2 C 122.5 91.8 121.7 92.3 121 92.6 C 120.3 92.9 119.5 93 118.6 93 C 117.3 93 116.2 92.7 115.4 92 C 114.7 91.3 114.3 90.4 114.3 89.4 C 114.3 88.8 114.5 88.2 114.8 87.7 C 115 87.2 115.4 86.8 115.9 86.5 C 116.3 86.2 116.8 85.9 117.4 85.8 C 117.8 85.7 118.4 85.6 119.3 85.5 C 121 85.2 122.3 85 123.1 84.7 C 123.1 84.4 123.1 84.2 123.1 84.2 C 123.1 83.3 122.9 82.7 122.5 82.3 C 122 81.8 121.2 81.6 120.1 81.6 C 119.1 81.6 118.3 81.8 117.9 82.1 C 117.4 82.5 117 83.1 116.8 84 C 116.8 84 114.7 83.7 114.7 83.7 C 114.9 82.8 115.2 82.1 115.6 81.5 C 116.1 81 116.7 80.6 117.5 80.3 C 118.3 80 119.3 79.8 120.4 79.8 C 121.5 79.8 122.3 80 123 80.2 C 123.7 80.5 124.2 80.8 124.5 81.2 C 124.8 81.5 125 82 125.2 82.6 C 125.2 83 125.3 83.6 125.3 84.6 C 125.3 84.6 125.3 87.4 125.3 87.4 C 125.3 89.4 125.3 90.7 125.4 91.2 C 125.5 91.7 125.7 92.2 125.9 92.7 C 125.94 92.71 123.7 92.7 123.7 92.7 C 123.7 92.7 123.71 92.71 123.7 92.7 Z M 123.1 86.4 C 122.3 86.7 121.2 87 119.6 87.2 C 118.7 87.3 118.1 87.5 117.7 87.6 C 117.4 87.8 117.1 88 116.9 88.3 C 116.7 88.6 116.6 89 116.6 89.3 C 116.6 89.9 116.8 90.4 117.3 90.8 C 117.7 91.1 118.3 91.3 119.1 91.3 C 120 91.3 120.7 91.1 121.3 90.8 C 122 90.4 122.5 89.9 122.8 89.3 C 123 88.8 123.1 88.1 123.1 87.2 C 123.1 87.2 123.1 86.4 123.1 86.4 Z M 128.5 92.7 L 128.5 75.3 L 130.7 75.3 L 130.7 92.7 L 128.5 92.7 Z M 142.6 88.7 C 142.6 88.7 144.8 88.9 144.8 88.9 C 144.5 90.2 143.8 91.2 142.9 91.9 C 141.9 92.6 140.7 93 139.3 93 C 137.4 93 136 92.4 134.9 91.3 C 133.8 90.2 133.3 88.6 133.3 86.5 C 133.3 84.4 133.8 82.8 134.9 81.6 C 136 80.4 137.4 79.8 139.1 79.8 C 140.8 79.8 142.2 80.4 143.3 81.5 C 144.3 82.7 144.9 84.3 144.9 86.4 C 144.9 86.5 144.9 86.7 144.9 87 C 144.9 87 135.5 87 135.5 87 C 135.5 88.3 135.9 89.4 136.6 90.1 C 137.3 90.9 138.2 91.2 139.3 91.2 C 140.1 91.2 140.7 91 141.3 90.6 C 141.8 90.2 142.3 89.6 142.6 88.7 Z M 135.6 85.2 C 135.6 85.2 142.6 85.2 142.6 85.2 C 142.5 84.1 142.3 83.3 141.8 82.8 C 141.1 82 140.3 81.6 139.2 81.6 C 138.2 81.6 137.4 81.9 136.7 82.6 C 136 83.2 135.7 84.1 135.6 85.2 Z M 153.4 86.4 C 153.4 84.1 154.1 82.3 155.4 81.2 C 156.5 80.3 157.8 79.8 159.4 79.8 C 161.1 79.8 162.5 80.4 163.6 81.5 C 164.7 82.7 165.3 84.2 165.3 86.2 C 165.3 87.9 165 89.1 164.5 90.1 C 164 91 163.3 91.7 162.4 92.2 C 161.5 92.7 160.5 93 159.4 93 C 157.6 93 156.2 92.4 155.1 91.3 C 154 90.2 153.4 88.5 153.4 86.4 Z M 155.6 86.4 C 155.6 88 156 89.2 156.7 90 C 157.4 90.8 158.3 91.2 159.4 91.2 C 160.4 91.2 161.3 90.8 162 90 C 162.7 89.2 163.1 88 163.1 86.3 C 163.1 84.8 162.7 83.6 162 82.8 C 161.3 82 160.4 81.6 159.4 81.6 C 158.3 81.6 157.4 82 156.7 82.8 C 156 83.6 155.6 84.8 155.6 86.4 Z M 168.3 92.7 L 168.3 81.8 L 166.4 81.8 L 166.4 80.1 L 168.3 80.1 C 168.3 80.1 168.26 78.77 168.3 78.8 C 168.3 77.9 168.3 77.3 168.5 76.9 C 168.7 76.3 169.1 75.9 169.6 75.5 C 170.1 75.2 170.8 75 171.8 75 C 172.4 75 173 75.1 173.7 75.2 C 173.7 75.2 173.4 77.1 173.4 77.1 C 173 77 172.6 77 172.2 77 C 171.5 77 171.1 77.1 170.8 77.4 C 170.5 77.7 170.4 78.2 170.4 78.9 C 170.39 78.95 170.4 80.1 170.4 80.1 L 172.8 80.1 L 172.8 81.8 L 170.4 81.8 L 170.4 92.7 L 168.3 92.7 Z M 188.7 92.7 L 186.6 92.7 C 186.6 92.7 186.57 79.1 186.6 79.1 C 186.1 79.6 185.4 80.1 184.6 80.6 C 183.7 81.1 183 81.4 182.3 81.7 C 182.3 81.7 182.3 79.6 182.3 79.6 C 183.5 79.1 184.5 78.4 185.4 77.6 C 186.3 76.8 187 76 187.3 75.2 C 187.33 75.25 188.7 75.2 188.7 75.2 L 188.7 92.7 Z M 200.7 87.5 L 200.7 85.3 L 207.3 85.3 L 207.3 87.5 L 200.7 87.5 Z M 215.8 88.2 C 215.8 88.2 218 88 218 88 C 218.2 89.1 218.6 89.9 219.2 90.4 C 219.8 91 220.5 91.3 221.4 91.3 C 222.4 91.3 223.3 90.9 224 90.1 C 224.7 89.3 225 88.3 225 87 C 225 85.8 224.7 84.8 224 84.1 C 223.3 83.4 222.4 83.1 221.3 83.1 C 220.6 83.1 220 83.2 219.5 83.5 C 218.9 83.8 218.5 84.3 218.2 84.8 C 218.16 84.75 216.2 84.5 216.2 84.5 L 217.8 75.6 L 226.5 75.6 L 226.5 77.6 L 219.6 77.6 C 219.6 77.6 218.61 82.27 218.6 82.3 C 219.7 81.5 220.8 81.2 221.9 81.2 C 223.4 81.2 224.7 81.7 225.7 82.8 C 226.8 83.8 227.3 85.2 227.3 86.8 C 227.3 88.4 226.9 89.8 225.9 90.9 C 224.8 92.3 223.3 93 221.4 93 C 219.8 93 218.5 92.6 217.5 91.7 C 216.5 90.8 215.9 89.6 215.8 88.2 Z M 230.4 92.7 L 230.4 90.3 L 232.9 90.3 C 232.9 90.3 232.88 92.71 232.9 92.7 C 232.9 93.6 232.7 94.3 232.4 94.9 C 232.1 95.4 231.6 95.9 230.9 96.2 C 230.9 96.2 230.3 95.2 230.3 95.2 C 230.8 95 231.1 94.8 231.3 94.4 C 231.5 94 231.6 93.4 231.7 92.7 C 231.65 92.71 230.4 92.7 230.4 92.7 Z M 251.6 88.1 C 251.6 88.1 253.7 88.4 253.7 88.4 C 253.5 89.8 252.9 91 252 91.8 C 251 92.6 249.8 93 248.5 93 C 246.7 93 245.4 92.4 244.3 91.3 C 243.3 90.2 242.7 88.6 242.7 86.5 C 242.7 85.1 243 83.9 243.4 82.9 C 243.9 81.9 244.6 81.1 245.5 80.6 C 246.4 80.1 247.4 79.8 248.5 79.8 C 249.8 79.8 251 80.2 251.8 80.9 C 252.7 81.6 253.3 82.5 253.5 83.8 C 253.5 83.8 251.4 84.1 251.4 84.1 C 251.2 83.3 250.9 82.6 250.4 82.2 C 249.9 81.8 249.3 81.6 248.6 81.6 C 247.5 81.6 246.6 82 245.9 82.7 C 245.3 83.5 244.9 84.7 244.9 86.4 C 244.9 88.1 245.3 89.3 245.9 90.1 C 246.6 90.9 247.4 91.2 248.4 91.2 C 249.3 91.2 250 91 250.5 90.5 C 251.1 90 251.5 89.2 251.6 88.1 Z M 255.5 92.7 L 255.5 75.3 L 257.6 75.3 L 257.6 92.7 L 255.5 92.7 Z M 261 77.8 L 261 75.3 L 263.1 75.3 L 263.1 77.8 L 261 77.8 Z M 261 92.7 L 261 80.1 L 263.1 80.1 L 263.1 92.7 L 261 92.7 Z M 275 88.7 C 275 88.7 277.2 88.9 277.2 88.9 C 276.8 90.2 276.2 91.2 275.2 91.9 C 274.3 92.6 273.1 93 271.6 93 C 269.8 93 268.3 92.4 267.2 91.3 C 266.2 90.2 265.6 88.6 265.6 86.5 C 265.6 84.4 266.2 82.8 267.3 81.6 C 268.4 80.4 269.8 79.8 271.5 79.8 C 273.2 79.8 274.6 80.4 275.6 81.5 C 276.7 82.7 277.2 84.3 277.2 86.4 C 277.2 86.5 277.2 86.7 277.2 87 C 277.2 87 267.8 87 267.8 87 C 267.9 88.3 268.3 89.4 269 90.1 C 269.7 90.9 270.6 91.2 271.6 91.2 C 272.4 91.2 273.1 91 273.6 90.6 C 274.2 90.2 274.6 89.6 275 88.7 Z M 268 85.2 C 268 85.2 275 85.2 275 85.2 C 274.9 84.1 274.6 83.3 274.2 82.8 C 273.5 82 272.6 81.6 271.5 81.6 C 270.6 81.6 269.7 81.9 269.1 82.6 C 268.4 83.2 268 84.1 268 85.2 Z M 279.9 92.7 L 279.9 80.1 L 281.8 80.1 C 281.8 80.1 281.78 81.9 281.8 81.9 C 282.7 80.5 284 79.8 285.8 79.8 C 286.5 79.8 287.2 80 287.9 80.2 C 288.5 80.5 289 80.9 289.3 81.3 C 289.6 81.8 289.9 82.3 290 82.9 C 290.1 83.3 290.1 84 290.1 85 C 290.1 84.96 290.1 92.7 290.1 92.7 L 288 92.7 C 288 92.7 287.96 85.05 288 85 C 288 84.2 287.9 83.5 287.7 83.1 C 287.5 82.7 287.2 82.3 286.8 82.1 C 286.4 81.8 285.9 81.7 285.3 81.7 C 284.4 81.7 283.6 82 283 82.5 C 282.3 83.1 282 84.2 282 85.8 C 281.99 85.83 282 92.7 282 92.7 L 279.9 92.7 Z M 297.1 90.9 C 297.3 90.9 297.6 90.9 298 90.8 C 298 90.8 298.3 92.7 298.3 92.7 C 297.7 92.8 297.2 92.9 296.7 92.9 C 296 92.9 295.4 92.8 294.9 92.5 C 294.5 92.3 294.2 91.9 294 91.5 C 293.8 91.1 293.8 90.3 293.8 89 C 293.76 89.02 293.8 81.8 293.8 81.8 L 292.2 81.8 L 292.2 80.1 L 293.8 80.1 L 293.8 77 L 295.9 75.7 L 295.9 80.1 L 298 80.1 L 298 81.8 L 295.9 81.8 C 295.9 81.8 295.89 89.14 295.9 89.1 C 295.9 89.8 295.9 90.1 296 90.3 C 296.1 90.5 296.2 90.6 296.4 90.7 C 296.5 90.8 296.8 90.9 297.1 90.9 C 297.1 90.9 297.1 90.9 297.1 90.9 Z M 299.3 89 C 299.3 89 301.4 88.6 301.4 88.6 C 301.5 89.5 301.8 90.1 302.4 90.6 C 302.9 91 303.7 91.2 304.6 91.2 C 305.6 91.2 306.4 91 306.8 90.6 C 307.3 90.2 307.5 89.8 307.5 89.2 C 307.5 88.8 307.3 88.4 306.9 88.1 C 306.6 87.9 305.9 87.7 304.7 87.4 C 303.2 87 302.1 86.6 301.5 86.3 C 300.9 86.1 300.4 85.7 300.1 85.1 C 299.8 84.6 299.6 84.1 299.6 83.5 C 299.6 82.9 299.8 82.4 300 81.9 C 300.3 81.4 300.6 81 301.1 80.7 C 301.4 80.5 301.8 80.3 302.4 80.1 C 303 79.9 303.6 79.8 304.3 79.8 C 305.3 79.8 306.1 80 306.9 80.3 C 307.6 80.5 308.2 80.9 308.5 81.4 C 308.9 81.9 309.1 82.5 309.3 83.4 C 309.3 83.4 307.2 83.6 307.2 83.6 C 307.1 83 306.8 82.5 306.3 82.1 C 305.9 81.8 305.2 81.6 304.4 81.6 C 303.4 81.6 302.7 81.7 302.3 82.1 C 301.9 82.4 301.7 82.8 301.7 83.2 C 301.7 83.5 301.8 83.7 302 84 C 302.1 84.2 302.4 84.4 302.8 84.5 C 303 84.6 303.6 84.8 304.7 85.1 C 306.2 85.5 307.2 85.8 307.8 86.1 C 308.4 86.3 308.9 86.7 309.2 87.2 C 309.6 87.7 309.7 88.3 309.7 89 C 309.7 89.7 309.5 90.4 309.1 91 C 308.7 91.7 308.1 92.1 307.3 92.5 C 306.5 92.8 305.6 93 304.7 93 C 303 93 301.8 92.7 300.9 92 C 300.1 91.3 299.5 90.3 299.3 89 Z M 319 92.7 L 319 80.1 L 320.9 80.1 C 320.9 80.1 320.92 82.02 320.9 82 C 321.4 81.1 321.9 80.5 322.3 80.3 C 322.7 80 323.2 79.8 323.7 79.8 C 324.4 79.8 325.1 80.1 325.8 80.5 C 325.8 80.5 325.1 82.5 325.1 82.5 C 324.6 82.2 324.1 82 323.5 82 C 323.1 82 322.7 82.2 322.3 82.5 C 321.9 82.7 321.7 83.1 321.5 83.6 C 321.3 84.4 321.1 85.2 321.1 86.1 C 321.14 86.11 321.1 92.7 321.1 92.7 L 319 92.7 Z M 335.8 92.7 C 335.5 92.3 335.4 91.8 335.3 91.2 C 334.6 91.8 333.8 92.3 333.1 92.6 C 332.3 92.9 331.5 93 330.7 93 C 329.3 93 328.3 92.7 327.5 92 C 326.8 91.3 326.4 90.4 326.4 89.4 C 326.4 88.8 326.5 88.2 326.8 87.7 C 327.1 87.2 327.5 86.8 327.9 86.5 C 328.4 86.2 328.9 85.9 329.5 85.8 C 329.9 85.7 330.5 85.6 331.4 85.5 C 333.1 85.2 334.3 85 335.2 84.7 C 335.2 84.4 335.2 84.2 335.2 84.2 C 335.2 83.3 335 82.7 334.6 82.3 C 334 81.8 333.2 81.6 332.1 81.6 C 331.1 81.6 330.4 81.8 329.9 82.1 C 329.4 82.5 329.1 83.1 328.9 84 C 328.9 84 326.8 83.7 326.8 83.7 C 327 82.8 327.3 82.1 327.7 81.5 C 328.1 81 328.8 80.6 329.6 80.3 C 330.4 80 331.4 79.8 332.4 79.8 C 333.5 79.8 334.4 80 335.1 80.2 C 335.7 80.5 336.2 80.8 336.6 81.2 C 336.9 81.5 337.1 82 337.2 82.6 C 337.3 83 337.3 83.6 337.3 84.6 C 337.3 84.6 337.3 87.4 337.3 87.4 C 337.3 89.4 337.4 90.7 337.5 91.2 C 337.6 91.7 337.7 92.2 338 92.7 C 338 92.71 335.8 92.7 335.8 92.7 C 335.8 92.7 335.77 92.71 335.8 92.7 Z M 335.2 86.4 C 334.4 86.7 333.2 87 331.7 87.2 C 330.8 87.3 330.2 87.5 329.8 87.6 C 329.4 87.8 329.2 88 329 88.3 C 328.8 88.6 328.7 89 328.7 89.3 C 328.7 89.9 328.9 90.4 329.3 90.8 C 329.8 91.1 330.4 91.3 331.2 91.3 C 332 91.3 332.8 91.1 333.4 90.8 C 334 90.4 334.5 89.9 334.8 89.3 C 335 88.8 335.2 88.1 335.2 87.2 C 335.2 87.2 335.2 86.4 335.2 86.4 Z M 344.4 90.9 C 344.6 90.9 344.9 90.9 345.3 90.8 C 345.3 90.8 345.6 92.7 345.6 92.7 C 345 92.8 344.5 92.9 344 92.9 C 343.2 92.9 342.6 92.8 342.2 92.5 C 341.8 92.3 341.5 91.9 341.3 91.5 C 341.1 91.1 341 90.3 341 89 C 341.03 89.02 341 81.8 341 81.8 L 339.5 81.8 L 339.5 80.1 L 341 80.1 L 341 77 L 343.1 75.7 L 343.1 80.1 L 345.3 80.1 L 345.3 81.8 L 343.1 81.8 C 343.1 81.8 343.15 89.14 343.1 89.1 C 343.1 89.8 343.2 90.1 343.3 90.3 C 343.3 90.5 343.5 90.6 343.6 90.7 C 343.8 90.8 344 90.9 344.4 90.9 C 344.4 90.9 344.4 90.9 344.4 90.9 Z M 356 88.7 C 356 88.7 358.2 88.9 358.2 88.9 C 357.9 90.2 357.2 91.2 356.3 91.9 C 355.3 92.6 354.1 93 352.7 93 C 350.8 93 349.4 92.4 348.3 91.3 C 347.2 90.2 346.7 88.6 346.7 86.5 C 346.7 84.4 347.2 82.8 348.3 81.6 C 349.4 80.4 350.8 79.8 352.6 79.8 C 354.2 79.8 355.6 80.4 356.7 81.5 C 357.8 82.7 358.3 84.3 358.3 86.4 C 358.3 86.5 358.3 86.7 358.3 87 C 358.3 87 348.9 87 348.9 87 C 349 88.3 349.4 89.4 350.1 90.1 C 350.8 90.9 351.6 91.2 352.7 91.2 C 353.5 91.2 354.1 91 354.7 90.6 C 355.2 90.2 355.7 89.6 356 88.7 Z M 349 85.2 C 349 85.2 356 85.2 356 85.2 C 355.9 84.1 355.7 83.3 355.2 82.8 C 354.5 82 353.7 81.6 352.6 81.6 C 351.6 81.6 350.8 81.9 350.1 82.6 C 349.4 83.2 349.1 84.1 349 85.2 Z M 369.1 92.7 C 369.1 92.7 369.08 91.12 369.1 91.1 C 368.3 92.4 367.1 93 365.6 93 C 364.5 93 363.6 92.7 362.8 92.2 C 361.9 91.6 361.3 90.8 360.8 89.8 C 360.4 88.9 360.1 87.7 360.1 86.4 C 360.1 85.2 360.3 84 360.8 83 C 361.2 82 361.8 81.2 362.6 80.6 C 363.5 80.1 364.4 79.8 365.5 79.8 C 366.2 79.8 366.9 80 367.5 80.3 C 368.1 80.6 368.6 81 368.9 81.6 C 368.94 81.56 368.9 75.3 368.9 75.3 L 371.1 75.3 L 371.1 92.7 L 369.1 92.7 Z M 362.3 86.4 C 362.3 88 362.7 89.2 363.3 90 C 364 90.8 364.8 91.2 365.8 91.2 C 366.7 91.2 367.5 90.9 368.1 90.1 C 368.8 89.3 369.1 88.2 369.1 86.6 C 369.1 84.9 368.8 83.6 368.1 82.8 C 367.5 82 366.6 81.6 365.7 81.6 C 364.7 81.6 363.9 82 363.3 82.8 C 362.6 83.5 362.3 84.8 362.3 86.4 Z M 380.4 86.4 C 380.4 84.1 381 82.3 382.3 81.2 C 383.4 80.3 384.7 79.8 386.3 79.8 C 388 79.8 389.4 80.4 390.5 81.5 C 391.6 82.7 392.2 84.2 392.2 86.2 C 392.2 87.9 391.9 89.1 391.5 90.1 C 391 91 390.3 91.7 389.3 92.2 C 388.4 92.7 387.4 93 386.3 93 C 384.5 93 383.1 92.4 382 91.3 C 380.9 90.2 380.4 88.5 380.4 86.4 Z M 382.6 86.4 C 382.6 88 382.9 89.2 383.6 90 C 384.3 90.8 385.2 91.2 386.3 91.2 C 387.3 91.2 388.2 90.8 388.9 90 C 389.6 89.2 390 88 390 86.3 C 390 84.8 389.6 83.6 388.9 82.8 C 388.2 82 387.3 81.6 386.3 81.6 C 385.2 81.6 384.3 82 383.6 82.8 C 382.9 83.6 382.6 84.8 382.6 86.4 Z M 402.9 92.7 C 402.9 92.7 402.94 90.86 402.9 90.9 C 402 92.3 400.6 93 398.9 93 C 398.2 93 397.5 92.9 396.9 92.6 C 396.2 92.3 395.7 91.9 395.4 91.5 C 395.1 91.1 394.9 90.5 394.8 89.9 C 394.7 89.5 394.6 88.8 394.6 87.9 C 394.64 87.92 394.6 80.1 394.6 80.1 L 396.8 80.1 C 396.8 80.1 396.77 87.1 396.8 87.1 C 396.8 88.2 396.8 89 396.9 89.4 C 397 89.9 397.3 90.4 397.8 90.7 C 398.2 91 398.7 91.2 399.4 91.2 C 400 91.2 400.6 91 401.2 90.7 C 401.7 90.3 402.1 89.9 402.4 89.3 C 402.6 88.8 402.7 87.9 402.7 86.9 C 402.72 86.86 402.7 80.1 402.7 80.1 L 404.9 80.1 L 404.9 92.7 L 402.9 92.7 Z M 408.2 92.7 L 408.2 80.1 L 410.1 80.1 C 410.1 80.1 410.1 82.02 410.1 82 C 410.6 81.1 411 80.5 411.5 80.3 C 411.9 80 412.3 79.8 412.8 79.8 C 413.5 79.8 414.3 80.1 415 80.5 C 415 80.5 414.3 82.5 414.3 82.5 C 413.8 82.2 413.2 82 412.7 82 C 412.3 82 411.8 82.2 411.5 82.5 C 411.1 82.7 410.8 83.1 410.7 83.6 C 410.4 84.4 410.3 85.2 410.3 86.1 C 410.31 86.11 410.3 92.7 410.3 92.7 L 408.2 92.7 Z M 422.2 89 C 422.2 89 424.3 88.6 424.3 88.6 C 424.4 89.5 424.8 90.1 425.3 90.6 C 425.8 91 426.6 91.2 427.6 91.2 C 428.5 91.2 429.3 91 429.8 90.6 C 430.2 90.2 430.5 89.8 430.5 89.2 C 430.5 88.8 430.3 88.4 429.8 88.1 C 429.5 87.9 428.8 87.7 427.6 87.4 C 426.1 87 425 86.6 424.4 86.3 C 423.8 86.1 423.3 85.7 423 85.1 C 422.7 84.6 422.5 84.1 422.5 83.5 C 422.5 82.9 422.7 82.4 422.9 81.9 C 423.2 81.4 423.5 81 424 80.7 C 424.3 80.5 424.8 80.3 425.3 80.1 C 425.9 79.9 426.5 79.8 427.2 79.8 C 428.2 79.8 429 80 429.8 80.3 C 430.5 80.5 431.1 80.9 431.4 81.4 C 431.8 81.9 432 82.5 432.2 83.4 C 432.2 83.4 430.1 83.6 430.1 83.6 C 430 83 429.7 82.5 429.3 82.1 C 428.8 81.8 428.2 81.6 427.3 81.6 C 426.4 81.6 425.7 81.7 425.2 82.1 C 424.8 82.4 424.6 82.8 424.6 83.2 C 424.6 83.5 424.7 83.7 424.9 84 C 425 84.2 425.3 84.4 425.7 84.5 C 425.9 84.6 426.5 84.8 427.6 85.1 C 429.1 85.5 430.1 85.8 430.7 86.1 C 431.3 86.3 431.8 86.7 432.1 87.2 C 432.5 87.7 432.7 88.3 432.7 89 C 432.7 89.7 432.4 90.4 432 91 C 431.6 91.7 431 92.1 430.2 92.5 C 429.5 92.8 428.6 93 427.6 93 C 425.9 93 424.7 92.7 423.8 92 C 423 91.3 422.4 90.3 422.2 89 Z M 443.8 88.7 C 443.8 88.7 446 88.9 446 88.9 C 445.7 90.2 445 91.2 444.1 91.9 C 443.2 92.6 442 93 440.5 93 C 438.6 93 437.2 92.4 436.1 91.3 C 435 90.2 434.5 88.6 434.5 86.5 C 434.5 84.4 435 82.8 436.1 81.6 C 437.2 80.4 438.6 79.8 440.4 79.8 C 442.1 79.8 443.4 80.4 444.5 81.5 C 445.6 82.7 446.1 84.3 446.1 86.4 C 446.1 86.5 446.1 86.7 446.1 87 C 446.1 87 436.7 87 436.7 87 C 436.8 88.3 437.2 89.4 437.9 90.1 C 438.6 90.9 439.4 91.2 440.5 91.2 C 441.3 91.2 442 91 442.5 90.6 C 443.1 90.2 443.5 89.6 443.8 88.7 Z M 436.8 85.2 C 436.8 85.2 443.8 85.2 443.8 85.2 C 443.8 84.1 443.5 83.3 443 82.8 C 442.4 82 441.5 81.6 440.4 81.6 C 439.4 81.6 438.6 81.9 437.9 82.6 C 437.3 83.2 436.9 84.1 436.8 85.2 Z M 448.7 92.7 L 448.7 80.1 L 450.6 80.1 C 450.6 80.1 450.61 82.02 450.6 82 C 451.1 81.1 451.6 80.5 452 80.3 C 452.4 80 452.8 79.8 453.3 79.8 C 454.1 79.8 454.8 80.1 455.5 80.5 C 455.5 80.5 454.8 82.5 454.8 82.5 C 454.3 82.2 453.8 82 453.2 82 C 452.8 82 452.3 82.2 452 82.5 C 451.6 82.7 451.3 83.1 451.2 83.6 C 450.9 84.4 450.8 85.2 450.8 86.1 C 450.82 86.11 450.8 92.7 450.8 92.7 L 448.7 92.7 Z M 460.3 92.7 L 455.5 80.1 L 457.8 80.1 C 457.8 80.1 460.47 87.66 460.5 87.7 C 460.8 88.5 461 89.3 461.3 90.2 C 461.5 89.5 461.7 88.7 462.1 87.8 C 462.07 87.8 464.9 80.1 464.9 80.1 L 467.1 80.1 L 462.3 92.7 L 460.3 92.7 Z M 469 77.8 L 469 75.3 L 471.1 75.3 L 471.1 77.8 L 469 77.8 Z M 469 92.7 L 469 80.1 L 471.1 80.1 L 471.1 92.7 L 469 92.7 Z M 482.6 88.1 C 482.6 88.1 484.7 88.4 484.7 88.4 C 484.4 89.8 483.9 91 482.9 91.8 C 482 92.6 480.8 93 479.4 93 C 477.7 93 476.3 92.4 475.3 91.3 C 474.2 90.2 473.7 88.6 473.7 86.5 C 473.7 85.1 473.9 83.9 474.4 82.9 C 474.8 81.9 475.5 81.1 476.4 80.6 C 477.4 80.1 478.4 79.8 479.4 79.8 C 480.8 79.8 481.9 80.2 482.8 80.9 C 483.7 81.6 484.2 82.5 484.5 83.8 C 484.5 83.8 482.4 84.1 482.4 84.1 C 482.2 83.3 481.9 82.6 481.4 82.2 C 480.8 81.8 480.2 81.6 479.5 81.6 C 478.5 81.6 477.6 82 476.9 82.7 C 476.2 83.5 475.9 84.7 475.9 86.4 C 475.9 88.1 476.2 89.3 476.9 90.1 C 477.5 90.9 478.4 91.2 479.4 91.2 C 480.2 91.2 480.9 91 481.5 90.5 C 482.1 90 482.4 89.2 482.6 88.1 Z M 495.1 88.7 C 495.1 88.7 497.3 88.9 497.3 88.9 C 497 90.2 496.3 91.2 495.4 91.9 C 494.5 92.6 493.3 93 491.8 93 C 490 93 488.5 92.4 487.4 91.3 C 486.3 90.2 485.8 88.6 485.8 86.5 C 485.8 84.4 486.3 82.8 487.4 81.6 C 488.5 80.4 489.9 79.8 491.7 79.8 C 493.4 79.8 494.7 80.4 495.8 81.5 C 496.9 82.7 497.4 84.3 497.4 86.4 C 497.4 86.5 497.4 86.7 497.4 87 C 497.4 87 488 87 488 87 C 488.1 88.3 488.5 89.4 489.2 90.1 C 489.9 90.9 490.8 91.2 491.8 91.2 C 492.6 91.2 493.3 91 493.8 90.6 C 494.4 90.2 494.8 89.6 495.1 88.7 Z M 488.1 85.2 C 488.1 85.2 495.2 85.2 495.2 85.2 C 495.1 84.1 494.8 83.3 494.4 82.8 C 493.7 82 492.8 81.6 491.7 81.6 C 490.7 81.6 489.9 81.9 489.2 82.6 C 488.6 83.2 488.2 84.1 488.1 85.2 Z M 506.8 97.5 L 506.8 80.1 L 508.7 80.1 C 508.7 80.1 508.72 81.75 508.7 81.7 C 509.2 81.1 509.7 80.6 510.3 80.3 C 510.9 80 511.6 79.8 512.4 79.8 C 513.5 79.8 514.4 80.1 515.2 80.7 C 516 81.2 516.7 82 517.1 83 C 517.5 84 517.7 85.1 517.7 86.3 C 517.7 87.6 517.5 88.8 517 89.8 C 516.6 90.8 515.9 91.6 515 92.2 C 514.1 92.7 513.2 93 512.2 93 C 511.5 93 510.9 92.8 510.3 92.5 C 509.7 92.2 509.3 91.9 508.9 91.4 C 508.91 91.41 508.9 97.5 508.9 97.5 L 506.8 97.5 Z M 508.7 86.5 C 508.7 88.1 509 89.3 509.7 90.1 C 510.4 90.9 511.1 91.2 512.1 91.2 C 513 91.2 513.8 90.8 514.5 90 C 515.2 89.2 515.5 88 515.5 86.3 C 515.5 84.7 515.2 83.5 514.5 82.7 C 513.9 81.9 513.1 81.5 512.2 81.5 C 511.3 81.5 510.5 81.9 509.8 82.8 C 509.1 83.6 508.7 84.9 508.7 86.5 Z M 528.9 88.7 C 528.9 88.7 531.1 88.9 531.1 88.9 C 530.8 90.2 530.1 91.2 529.2 91.9 C 528.2 92.6 527 93 525.6 93 C 523.7 93 522.3 92.4 521.2 91.3 C 520.1 90.2 519.6 88.6 519.6 86.5 C 519.6 84.4 520.1 82.8 521.2 81.6 C 522.3 80.4 523.7 79.8 525.5 79.8 C 527.1 79.8 528.5 80.4 529.6 81.5 C 530.7 82.7 531.2 84.3 531.2 86.4 C 531.2 86.5 531.2 86.7 531.2 87 C 531.2 87 521.8 87 521.8 87 C 521.9 88.3 522.3 89.4 523 90.1 C 523.7 90.9 524.5 91.2 525.6 91.2 C 526.4 91.2 527 91 527.6 90.6 C 528.2 90.2 528.6 89.6 528.9 88.7 Z M 521.9 85.2 C 521.9 85.2 528.9 85.2 528.9 85.2 C 528.8 84.1 528.6 83.3 528.1 82.8 C 527.5 82 526.6 81.6 525.5 81.6 C 524.5 81.6 523.7 81.9 523 82.6 C 522.3 83.2 522 84.1 521.9 85.2 Z M 533.8 92.7 L 533.8 80.1 L 535.7 80.1 C 535.7 80.1 535.7 82.02 535.7 82 C 536.2 81.1 536.6 80.5 537.1 80.3 C 537.5 80 537.9 79.8 538.4 79.8 C 539.2 79.8 539.9 80.1 540.6 80.5 C 540.6 80.5 539.9 82.5 539.9 82.5 C 539.4 82.2 538.8 82 538.3 82 C 537.9 82 537.4 82.2 537.1 82.5 C 536.7 82.7 536.4 83.1 536.3 83.6 C 536 84.4 535.9 85.2 535.9 86.1 C 535.92 86.11 535.9 92.7 535.9 92.7 L 533.8 92.7 Z M 542.4 92.7 L 542.4 81.8 L 540.5 81.8 L 540.5 80.1 L 542.4 80.1 C 542.4 80.1 542.41 78.77 542.4 78.8 C 542.4 77.9 542.5 77.3 542.6 76.9 C 542.8 76.3 543.2 75.9 543.7 75.5 C 544.2 75.2 545 75 545.9 75 C 546.5 75 547.2 75.1 547.9 75.2 C 547.9 75.2 547.6 77.1 547.6 77.1 C 547.1 77 546.7 77 546.3 77 C 545.7 77 545.2 77.1 544.9 77.4 C 544.7 77.7 544.5 78.2 544.5 78.9 C 544.53 78.95 544.5 80.1 544.5 80.1 L 547 80.1 L 547 81.8 L 544.5 81.8 L 544.5 92.7 L 542.4 92.7 Z M 547.9 86.4 C 547.9 84.1 548.5 82.3 549.8 81.2 C 550.9 80.3 552.2 79.8 553.8 79.8 C 555.5 79.8 556.9 80.4 558 81.5 C 559.1 82.7 559.7 84.2 559.7 86.2 C 559.7 87.9 559.4 89.1 558.9 90.1 C 558.4 91 557.7 91.7 556.8 92.2 C 555.9 92.7 554.9 93 553.8 93 C 552 93 550.6 92.4 549.5 91.3 C 548.4 90.2 547.9 88.5 547.9 86.4 Z M 550.1 86.4 C 550.1 88 550.4 89.2 551.1 90 C 551.8 90.8 552.7 91.2 553.8 91.2 C 554.8 91.2 555.7 90.8 556.4 90 C 557.1 89.2 557.5 88 557.5 86.3 C 557.5 84.8 557.1 83.6 556.4 82.8 C 555.7 82 554.8 81.6 553.8 81.6 C 552.7 81.6 551.8 82 551.1 82.8 C 550.4 83.6 550.1 84.8 550.1 86.4 Z M 562.1 92.7 L 562.1 80.1 L 564.1 80.1 C 564.1 80.1 564.07 82.02 564.1 82 C 564.6 81.1 565 80.5 565.4 80.3 C 565.8 80 566.3 79.8 566.8 79.8 C 567.5 79.8 568.2 80.1 569 80.5 C 569 80.5 568.3 82.5 568.3 82.5 C 567.7 82.2 567.2 82 566.7 82 C 566.2 82 565.8 82.2 565.4 82.5 C 565.1 82.7 564.8 83.1 564.6 83.6 C 564.4 84.4 564.3 85.2 564.3 86.1 C 564.28 86.11 564.3 92.7 564.3 92.7 L 562.1 92.7 Z M 570.3 92.7 L 570.3 80.1 L 572.2 80.1 C 572.2 80.1 572.17 81.88 572.2 81.9 C 572.6 81.3 573.1 80.8 573.7 80.4 C 574.4 80 575.2 79.8 576 79.8 C 576.9 79.8 577.7 80 578.3 80.4 C 578.9 80.8 579.3 81.3 579.6 82 C 580.5 80.6 581.8 79.8 583.4 79.8 C 584.7 79.8 585.7 80.2 586.3 80.9 C 587 81.6 587.3 82.6 587.3 84.1 C 587.33 84.06 587.3 92.7 587.3 92.7 L 585.2 92.7 C 585.2 92.7 585.21 84.77 585.2 84.8 C 585.2 83.9 585.1 83.3 585 82.9 C 584.9 82.6 584.6 82.3 584.2 82 C 583.9 81.8 583.5 81.7 583 81.7 C 582.1 81.7 581.3 82 580.8 82.6 C 580.2 83.2 579.9 84.1 579.9 85.4 C 579.88 85.39 579.9 92.7 579.9 92.7 L 577.7 92.7 C 577.7 92.7 577.75 84.52 577.7 84.5 C 577.7 83.6 577.6 82.9 577.2 82.4 C 576.9 81.9 576.3 81.7 575.5 81.7 C 574.9 81.7 574.4 81.8 573.8 82.2 C 573.3 82.5 573 82.9 572.7 83.5 C 572.5 84.1 572.4 85 572.4 86.2 C 572.4 86.17 572.4 92.7 572.4 92.7 L 570.3 92.7 Z M 599.2 92.7 C 598.9 92.3 598.8 91.8 598.7 91.2 C 597.9 91.8 597.2 92.3 596.4 92.6 C 595.7 92.9 594.9 93 594.1 93 C 592.7 93 591.6 92.7 590.9 92 C 590.2 91.3 589.8 90.4 589.8 89.4 C 589.8 88.8 589.9 88.2 590.2 87.7 C 590.5 87.2 590.8 86.8 591.3 86.5 C 591.8 86.2 592.3 85.9 592.8 85.8 C 593.3 85.7 593.9 85.6 594.7 85.5 C 596.5 85.2 597.7 85 598.5 84.7 C 598.6 84.4 598.6 84.2 598.6 84.2 C 598.6 83.3 598.4 82.7 598 82.3 C 597.4 81.8 596.6 81.6 595.5 81.6 C 594.5 81.6 593.8 81.8 593.3 82.1 C 592.8 82.5 592.5 83.1 592.2 84 C 592.2 84 590.1 83.7 590.1 83.7 C 590.3 82.8 590.6 82.1 591.1 81.5 C 591.5 81 592.1 80.6 593 80.3 C 593.8 80 594.7 79.8 595.8 79.8 C 596.9 79.8 597.8 80 598.5 80.2 C 599.1 80.5 599.6 80.8 599.9 81.2 C 600.3 81.5 600.5 82 600.6 82.6 C 600.7 83 600.7 83.6 600.7 84.6 C 600.7 84.6 600.7 87.4 600.7 87.4 C 600.7 89.4 600.8 90.7 600.8 91.2 C 600.9 91.7 601.1 92.2 601.4 92.7 C 601.38 92.71 599.2 92.7 599.2 92.7 C 599.2 92.7 599.15 92.71 599.2 92.7 Z M 598.5 86.4 C 597.8 86.7 596.6 87 595.1 87.2 C 594.2 87.3 593.6 87.5 593.2 87.6 C 592.8 87.8 592.6 88 592.4 88.3 C 592.2 88.6 592.1 89 592.1 89.3 C 592.1 89.9 592.3 90.4 592.7 90.8 C 593.1 91.1 593.8 91.3 594.6 91.3 C 595.4 91.3 596.2 91.1 596.8 90.8 C 597.4 90.4 597.9 89.9 598.2 89.3 C 598.4 88.8 598.5 88.1 598.5 87.2 C 598.5 87.2 598.5 86.4 598.5 86.4 Z M 604 92.7 L 604 80.1 L 605.9 80.1 C 605.9 80.1 605.94 81.9 605.9 81.9 C 606.9 80.5 608.2 79.8 610 79.8 C 610.7 79.8 611.4 80 612 80.2 C 612.7 80.5 613.2 80.9 613.5 81.3 C 613.8 81.8 614 82.3 614.1 82.9 C 614.2 83.3 614.3 84 614.3 85 C 614.26 84.96 614.3 92.7 614.3 92.7 L 612.1 92.7 C 612.1 92.7 612.12 85.05 612.1 85 C 612.1 84.2 612 83.5 611.9 83.1 C 611.7 82.7 611.4 82.3 611 82.1 C 610.6 81.8 610.1 81.7 609.5 81.7 C 608.6 81.7 607.8 82 607.1 82.5 C 606.5 83.1 606.2 84.2 606.2 85.8 C 606.15 85.83 606.2 92.7 606.2 92.7 L 604 92.7 Z M 625.8 88.1 C 625.8 88.1 627.9 88.4 627.9 88.4 C 627.6 89.8 627 91 626.1 91.8 C 625.2 92.6 624 93 622.6 93 C 620.9 93 619.5 92.4 618.5 91.3 C 617.4 90.2 616.9 88.6 616.9 86.5 C 616.9 85.1 617.1 83.9 617.6 82.9 C 618 81.9 618.7 81.1 619.6 80.6 C 620.5 80.1 621.5 79.8 622.6 79.8 C 624 79.8 625.1 80.2 626 80.9 C 626.9 81.6 627.4 82.5 627.7 83.8 C 627.7 83.8 625.6 84.1 625.6 84.1 C 625.4 83.3 625 82.6 624.5 82.2 C 624 81.8 623.4 81.6 622.7 81.6 C 621.6 81.6 620.8 82 620.1 82.7 C 619.4 83.5 619.1 84.7 619.1 86.4 C 619.1 88.1 619.4 89.3 620.1 90.1 C 620.7 90.9 621.5 91.2 622.6 91.2 C 623.4 91.2 624.1 91 624.7 90.5 C 625.3 90 625.6 89.2 625.8 88.1 Z M 638.3 88.7 C 638.3 88.7 640.5 88.9 640.5 88.9 C 640.2 90.2 639.5 91.2 638.6 91.9 C 637.6 92.6 636.4 93 635 93 C 633.1 93 631.7 92.4 630.6 91.3 C 629.5 90.2 629 88.6 629 86.5 C 629 84.4 629.5 82.8 630.6 81.6 C 631.7 80.4 633.1 79.8 634.9 79.8 C 636.5 79.8 637.9 80.4 639 81.5 C 640.1 82.7 640.6 84.3 640.6 86.4 C 640.6 86.5 640.6 86.7 640.6 87 C 640.6 87 631.2 87 631.2 87 C 631.3 88.3 631.7 89.4 632.4 90.1 C 633.1 90.9 633.9 91.2 635 91.2 C 635.8 91.2 636.4 91 637 90.6 C 637.5 90.2 638 89.6 638.3 88.7 Z M 631.3 85.2 C 631.3 85.2 638.3 85.2 638.3 85.2 C 638.2 84.1 638 83.3 637.5 82.8 C 636.8 82 636 81.6 634.9 81.6 C 633.9 81.6 633.1 81.9 632.4 82.6 C 631.7 83.2 631.4 84.1 631.3 85.2 Z M 643.8 82.5 L 643.8 80.1 L 646.2 80.1 L 646.2 82.5 L 643.8 82.5 Z M 643.8 92.7 L 643.8 90.3 L 646.2 90.3 L 646.2 92.7 L 643.8 92.7 Z " stroke="none" fill="#000"/>  </g>  <g id="Polygon5271">    <path d="M 15.4 3.2 C 15.4 3.2 15.4 5.5 15.4 5.5 C 13.4 4.2 11.4 3.4 9.4 3.4 C 6 3.4 3.8 5.4 3.8 8.3 C 3.8 10.4 4.4 12.3 9.4 14.5 C 14.9 17 16.4 19 16.4 22.8 C 16.4 26.9 13.3 29.9 8.6 29.9 C 6.1 29.9 3.8 29.1 1.7 27.6 C 1.7 27.6 1.7 25 1.7 25 C 3.9 27 6.2 28 8.7 28 C 11.9 28 14.2 26 14.2 22.8 C 14.2 20 13.2 18.5 8 16.1 C 3.4 14 1.7 11.9 1.7 8.3 C 1.7 4.4 4.9 1.5 9.4 1.5 C 11.5 1.5 13.5 2.1 15.4 3.2 Z M 35.6 1.9 L 35.6 3.8 L 23.2 3.8 L 23.2 14.6 L 35.2 14.6 L 35.2 16.6 L 23.2 16.6 L 23.2 27.6 L 36 27.6 L 36 29.5 L 21.1 29.5 L 21.1 1.9 L 35.6 1.9 Z M 40.6 1.9 C 40.6 1.9 47.59 1.9 47.6 1.9 C 53.1 1.9 56 4.7 56 9.1 C 56 12.7 53.9 15.1 50.2 15.8 C 52.1 16.6 53 17.5 54.8 20.3 C 54.8 20.33 60.7 29.5 60.7 29.5 L 58.1 29.5 C 58.1 29.5 52.82 21.06 52.8 21.1 C 50.5 17.4 48.8 16.5 46.1 16.5 C 46.09 16.48 42.7 16.5 42.7 16.5 L 42.7 29.5 L 40.6 29.5 L 40.6 1.9 Z M 45.9 14.5 C 50.6 14.5 53.8 13.4 53.8 9.1 C 53.8 5 51 3.8 47.1 3.8 C 47.06 3.81 42.7 3.8 42.7 3.8 L 42.7 14.5 C 42.7 14.5 45.93 14.54 45.9 14.5 Z M 59.2 1.9 L 61.4 1.9 L 71.1 25.4 L 71.1 25.4 L 80.8 1.9 L 82.9 1.9 L 71.3 30 L 70.9 30 L 59.2 1.9 Z M 88.3 1.9 L 88.3 29.5 L 86.2 29.5 L 86.2 1.9 L 88.3 1.9 Z M 116.8 3.6 C 116.8 3.6 116.8 6 116.8 6 C 114 4.4 110.9 3.5 107.7 3.5 C 100.4 3.5 95.6 9 95.6 15.8 C 95.6 22.6 100.4 27.9 107.7 27.9 C 110.9 27.9 114.1 27 116.9 25.3 C 116.9 25.3 116.9 27.7 116.9 27.7 C 114.1 29.2 111 29.9 107.7 29.9 C 98.7 29.9 93.4 23.2 93.4 15.9 C 93.4 7.6 99.4 1.5 107.7 1.5 C 110.9 1.5 113.9 2.3 116.8 3.6 Z M 136.2 1.9 L 136.2 3.8 L 123.7 3.8 L 123.7 14.6 L 135.8 14.6 L 135.8 16.6 L 123.7 16.6 L 123.7 27.6 L 136.5 27.6 L 136.5 29.5 L 121.6 29.5 L 121.6 1.9 L 136.2 1.9 Z " stroke="none" fill="#f28620"/>  </g></svg>