<?xml version="1.0" standalone="no"?><!DOCTYPE svg PUBLIC "-//W3C//DTD SVG 1.1//EN" "http://www.w3.org/Graphics/SVG/1.1/DTD/svg11.dtd"><svg xmlns="http://www.w3.org/2000/svg" version="1.1" width="26px" height="20.5px" viewBox="0 -4 26 20.5" style="top:-4px">  <desc>Poor</desc>  <defs/>  <g id="Polygon54609">    <path d="M 0.9 8.7 L 0.9 0.1 C 0.9 0.1 4.17 0.15 4.2 0.1 C 4.7 0.1 5.2 0.2 5.5 0.2 C 5.9 0.3 6.2 0.4 6.5 0.6 C 6.8 0.8 7 1.1 7.2 1.5 C 7.4 1.8 7.5 2.2 7.5 2.6 C 7.5 3.4 7.2 4 6.8 4.5 C 6.3 5 5.5 5.2 4.3 5.2 C 4.27 5.24 2.1 5.2 2.1 5.2 L 2.1 8.7 L 0.9 8.7 Z M 2.1 4.2 C 2.1 4.2 4.28 4.23 4.3 4.2 C 5 4.2 5.5 4.1 5.8 3.8 C 6.2 3.5 6.3 3.2 6.3 2.7 C 6.3 2.3 6.2 2 6 1.7 C 5.9 1.5 5.6 1.3 5.3 1.2 C 5.1 1.2 4.8 1.2 4.3 1.2 C 4.26 1.16 2.1 1.2 2.1 1.2 L 2.1 4.2 Z M 8.4 5.6 C 8.4 4.5 8.7 3.6 9.4 3.1 C 9.9 2.6 10.6 2.4 11.3 2.4 C 12.2 2.4 12.9 2.7 13.4 3.2 C 14 3.8 14.2 4.5 14.2 5.5 C 14.2 6.3 14.1 7 13.9 7.4 C 13.6 7.9 13.3 8.2 12.8 8.5 C 12.4 8.7 11.9 8.9 11.3 8.9 C 10.4 8.9 9.7 8.6 9.2 8 C 8.7 7.5 8.4 6.7 8.4 5.6 Z M 9.5 5.6 C 9.5 6.4 9.7 7 10 7.4 C 10.4 7.8 10.8 8 11.3 8 C 11.8 8 12.3 7.8 12.6 7.4 C 13 7 13.1 6.4 13.1 5.6 C 13.1 4.8 13 4.2 12.6 3.8 C 12.3 3.4 11.8 3.2 11.3 3.2 C 10.8 3.2 10.4 3.4 10 3.8 C 9.7 4.2 9.5 4.8 9.5 5.6 Z M 15.1 5.6 C 15.1 4.5 15.4 3.6 16 3.1 C 16.6 2.6 17.2 2.4 18 2.4 C 18.8 2.4 19.5 2.7 20.1 3.2 C 20.6 3.8 20.9 4.5 20.9 5.5 C 20.9 6.3 20.8 7 20.5 7.4 C 20.3 7.9 20 8.2 19.5 8.5 C 19 8.7 18.5 8.9 18 8.9 C 17.1 8.9 16.4 8.6 15.9 8 C 15.3 7.5 15.1 6.7 15.1 5.6 Z M 16.2 5.6 C 16.2 6.4 16.3 7 16.7 7.4 C 17 7.8 17.5 8 18 8 C 18.5 8 19 7.8 19.3 7.4 C 19.6 7 19.8 6.4 19.8 5.6 C 19.8 4.8 19.6 4.2 19.3 3.8 C 18.9 3.4 18.5 3.2 18 3.2 C 17.5 3.2 17 3.4 16.7 3.8 C 16.3 4.2 16.2 4.8 16.2 5.6 Z M 22.1 8.7 L 22.1 2.5 L 23.1 2.5 C 23.1 2.5 23.08 3.46 23.1 3.5 C 23.3 3 23.5 2.7 23.8 2.6 C 24 2.4 24.2 2.4 24.4 2.4 C 24.8 2.4 25.1 2.5 25.5 2.7 C 25.5 2.7 25.1 3.7 25.1 3.7 C 24.9 3.5 24.6 3.5 24.4 3.5 C 24.1 3.5 23.9 3.5 23.8 3.7 C 23.6 3.8 23.4 4 23.4 4.2 C 23.2 4.6 23.2 5 23.2 5.5 C 23.19 5.48 23.2 8.7 23.2 8.7 L 22.1 8.7 Z " stroke="none" fill="#000"/>  </g></svg>