<?xml version="1.0" standalone="no"?><!DOCTYPE svg PUBLIC "-//W3C//DTD SVG 1.1//EN" "http://www.w3.org/Graphics/SVG/1.1/DTD/svg11.dtd"><svg xmlns="http://www.w3.org/2000/svg" version="1.1" width="17px" height="21.5px" viewBox="0 -4 17 21.5" style="top:-4px">  <desc>4.2</desc>  <defs/>  <g id="Polygon45835">    <path d="M 3.7 8.7 L 3.7 7 L 0.2 7 L 0.2 5.6 L 3.9 0.1 L 5.3 0.1 L 5.3 5.6 L 6.4 5.6 L 6.4 7 L 5.3 7 L 5.3 8.7 L 3.7 8.7 Z M 3.7 5.6 L 3.7 2.6 L 1.8 5.6 L 3.7 5.6 Z M 7.5 8.7 L 7.5 7.1 L 9.2 7.1 L 9.2 8.7 L 7.5 8.7 Z M 16.1 7.2 L 16.1 8.7 C 16.1 8.7 10.31 8.74 10.3 8.7 C 10.4 8.2 10.6 7.6 10.9 7.1 C 11.2 6.6 11.8 5.9 12.7 5 C 13.5 4.3 13.9 3.9 14.1 3.6 C 14.3 3.3 14.4 3 14.4 2.6 C 14.4 2.3 14.3 2 14.1 1.8 C 13.9 1.6 13.7 1.5 13.3 1.5 C 13 1.5 12.7 1.6 12.5 1.8 C 12.3 2 12.2 2.3 12.1 2.8 C 12.1 2.8 10.5 2.7 10.5 2.7 C 10.6 1.7 10.9 1.1 11.4 0.7 C 11.9 0.3 12.6 0.1 13.4 0.1 C 14.2 0.1 14.9 0.3 15.4 0.8 C 15.8 1.3 16.1 1.8 16.1 2.5 C 16.1 2.9 16 3.3 15.9 3.6 C 15.7 4 15.5 4.3 15.2 4.7 C 15 5 14.7 5.3 14.1 5.8 C 13.6 6.3 13.3 6.6 13.1 6.8 C 13 6.9 12.9 7.1 12.8 7.2 C 12.81 7.21 16.1 7.2 16.1 7.2 Z " stroke="none" fill="#000"/>  </g></svg>