<?xml version="1.0" standalone="no"?><!DOCTYPE svg PUBLIC "-//W3C//DTD SVG 1.1//EN" "http://www.w3.org/Graphics/SVG/1.1/DTD/svg11.dtd"><svg xmlns="http://www.w3.org/2000/svg" version="1.1" width="508px" height="90.3px" viewBox="0 -14 508 90.3" style="top:-14px">  <desc>Case Studies</desc>  <defs/>  <g id="Polygon6099">    <path d="M 39.2 5.6 C 39.2 5.6 39.2 11.8 39.2 11.8 C 34.8 9.4 30 7.7 25 7.7 C 15 7.7 8.8 15.4 8.8 23.4 C 8.8 31.4 14.8 38.8 25 38.8 C 30.3 38.8 35.2 37.2 39.6 34.3 C 39.6 34.3 39.6 40.7 39.6 40.7 C 34.8 43.3 29.9 44.3 24.7 44.3 C 9.7 44.3 2.7 32.9 2.7 23.3 C 2.7 11.3 12.7 2.3 24.8 2.3 C 29.4 2.3 34.3 3.4 39.2 5.6 Z M 64.7 2.6 L 83 43.7 L 77 43.7 L 71.6 31.7 L 54.2 31.7 L 49 43.7 L 43 43.7 L 60.6 2.6 L 64.7 2.6 Z M 56.4 26.4 L 69.3 26.4 L 62.6 10.6 L 56.4 26.4 Z M 108.1 5.2 C 108.1 5.2 108.1 11.8 108.1 11.8 C 105.4 9.1 102.2 7.6 98.5 7.6 C 94.8 7.6 92.5 9.5 92.5 12.3 C 92.5 14.6 93 16.6 99.2 20.2 C 107.9 25.1 109.7 28 109.7 33.6 C 109.7 39.6 105 44.3 97.9 44.3 C 93.8 44.3 90.1 42.9 86.8 40.5 C 86.8 40.5 86.8 33.1 86.8 33.1 C 89.7 36.8 93.6 39.1 97.9 39.1 C 101.3 39.1 103.9 36.8 103.9 33.7 C 103.9 30.9 103.1 29 95 24.3 C 88.9 20.8 86.6 17.5 86.6 12.5 C 86.6 6.7 91.7 2.3 98.7 2.3 C 102.1 2.3 105.3 3.3 108.1 5.2 Z M 140.1 2.8 L 140.1 8 L 122.8 8 L 122.8 20.5 L 139.5 20.5 L 139.5 25.7 L 122.8 25.7 L 122.8 38.5 L 140.6 38.5 L 140.6 43.7 L 116.9 43.7 L 116.9 2.8 L 140.1 2.8 Z M 184.7 5.2 C 184.7 5.2 184.7 11.8 184.7 11.8 C 181.9 9.1 178.7 7.6 175.1 7.6 C 171.4 7.6 169.1 9.5 169.1 12.3 C 169.1 14.6 169.6 16.6 175.8 20.2 C 184.4 25.1 186.3 28 186.3 33.6 C 186.3 39.6 181.6 44.3 174.4 44.3 C 170.4 44.3 166.6 42.9 163.4 40.5 C 163.4 40.5 163.4 33.1 163.4 33.1 C 166.3 36.8 170.2 39.1 174.4 39.1 C 177.8 39.1 180.4 36.8 180.4 33.7 C 180.4 30.9 179.6 29 171.5 24.3 C 165.5 20.8 163.2 17.5 163.2 12.5 C 163.2 6.7 168.2 2.3 175.3 2.3 C 178.6 2.3 181.9 3.3 184.7 5.2 Z M 224.2 2.8 L 224.2 8 L 209.9 8 L 209.9 43.7 L 204 43.7 L 204 8 L 190 8 L 190 2.8 L 224.2 2.8 Z M 235 2.8 C 235 2.8 235.02 26.52 235 26.5 C 235 35.6 239 39.1 246.8 39.1 C 254.6 39.1 258.4 35.4 258.4 26.5 C 258.42 26.46 258.4 2.8 258.4 2.8 L 264.3 2.8 C 264.3 2.8 264.3 26.46 264.3 26.5 C 264.3 37.6 258.6 44.3 246.8 44.3 C 235.4 44.3 229.1 38.6 229.1 26.5 C 229.14 26.52 229.1 2.8 229.1 2.8 L 235 2.8 Z M 288.3 2.8 C 302 2.8 310.4 11.3 310.4 22.8 C 310.4 35.5 301.3 43.7 288.4 43.7 C 288.36 43.74 272.8 43.7 272.8 43.7 L 272.8 2.8 C 272.8 2.8 288.3 2.82 288.3 2.8 Z M 288.1 38.5 C 298.4 38.5 304.3 32.7 304.3 23 C 304.3 14.2 298.8 8 287.2 8 C 287.21 8.04 278.6 8 278.6 8 L 278.6 38.5 C 278.6 38.5 288.05 38.46 288.1 38.5 Z M 323.5 2.8 L 323.5 43.7 L 317.6 43.7 L 317.6 2.8 L 323.5 2.8 Z M 355.7 2.8 L 355.7 8 L 338.3 8 L 338.3 20.5 L 355.1 20.5 L 355.1 25.7 L 338.3 25.7 L 338.3 38.5 L 356.2 38.5 L 356.2 43.7 L 332.5 43.7 L 332.5 2.8 L 355.7 2.8 Z M 383.6 5.2 C 383.6 5.2 383.6 11.8 383.6 11.8 C 380.8 9.1 377.6 7.6 374 7.6 C 370.3 7.6 368 9.5 368 12.3 C 368 14.6 368.5 16.6 374.7 20.2 C 383.3 25.1 385.2 28 385.2 33.6 C 385.2 39.6 380.5 44.3 373.3 44.3 C 369.3 44.3 365.5 42.9 362.3 40.5 C 362.3 40.5 362.3 33.1 362.3 33.1 C 365.2 36.8 369.1 39.1 373.3 39.1 C 376.7 39.1 379.3 36.8 379.3 33.7 C 379.3 30.9 378.5 29 370.4 24.3 C 364.4 20.8 362.1 17.5 362.1 12.5 C 362.1 6.7 367.1 2.3 374.2 2.3 C 377.5 2.3 380.8 3.3 383.6 5.2 Z " stroke="none" fill="#010102"/>  </g></svg>