<?xml version="1.0" standalone="no"?><!DOCTYPE svg PUBLIC "-//W3C//DTD SVG 1.1//EN" "http://www.w3.org/Graphics/SVG/1.1/DTD/svg11.dtd"><svg xmlns="http://www.w3.org/2000/svg" version="1.1" width="254px" height="46.1px" viewBox="0 -8 254 46.1" style="top:-8px">  <desc>Client Feedback</desc>  <defs/>  <g id="Polygon48553">    <path d="M 19.2 2.8 C 19.2 2.8 19.2 5.2 19.2 5.2 C 17 4 14.7 3.2 12.3 3.2 C 7 3.2 3.8 7.2 3.8 11.7 C 3.8 16.3 7 20 12.2 20 C 14.8 20 17.2 19.3 19.4 17.9 C 19.4 17.9 19.4 20.4 19.4 20.4 C 17.1 21.6 14.7 22.1 12.2 22.1 C 5.1 22.1 1.4 16.8 1.4 11.7 C 1.4 5.6 6.1 1.1 12.2 1.1 C 14.5 1.1 16.9 1.7 19.2 2.8 Z M 25.1 1.4 L 25.1 19.8 L 34.8 19.8 L 34.8 21.9 L 22.9 21.9 L 22.9 1.4 L 25.1 1.4 Z M 39.6 1.4 L 39.6 21.9 L 37.4 21.9 L 37.4 1.4 L 39.6 1.4 Z M 55.4 1.4 L 55.4 3.4 L 46.5 3.4 L 46.5 10.6 L 55.1 10.6 L 55.1 12.6 L 46.5 12.6 L 46.5 19.8 L 55.6 19.8 L 55.6 21.9 L 44.2 21.9 L 44.2 1.4 L 55.4 1.4 Z M 61.1 1.4 L 75.6 18.3 L 75.6 1.4 L 77.8 1.4 L 77.8 21.9 L 75.8 21.9 L 61.4 5 L 61.4 21.9 L 59.3 21.9 L 59.3 1.4 L 61.1 1.4 Z M 97.3 1.4 L 97.3 3.4 L 90 3.4 L 90 21.9 L 87.7 21.9 L 87.7 3.4 L 80.5 3.4 L 80.5 1.4 L 97.3 1.4 Z M 118.9 1.4 L 118.9 3.4 L 110.7 3.4 L 110.7 10 L 118.6 10 L 118.6 12.1 L 110.7 12.1 L 110.7 21.9 L 108.4 21.9 L 108.4 1.4 L 118.9 1.4 Z M 133.1 1.4 L 133.1 3.4 L 124.2 3.4 L 124.2 10.6 L 132.8 10.6 L 132.8 12.6 L 124.2 12.6 L 124.2 19.8 L 133.3 19.8 L 133.3 21.9 L 121.9 21.9 L 121.9 1.4 L 133.1 1.4 Z M 148.2 1.4 L 148.2 3.4 L 139.2 3.4 L 139.2 10.6 L 147.9 10.6 L 147.9 12.6 L 139.2 12.6 L 139.2 19.8 L 148.4 19.8 L 148.4 21.9 L 137 21.9 L 137 1.4 L 148.2 1.4 Z M 152 1.4 C 152 1.4 159.57 1.41 159.6 1.4 C 166.3 1.4 170.6 5.6 170.6 11.4 C 170.6 17.8 166.1 21.9 159.6 21.9 C 159.57 21.87 152 21.9 152 21.9 L 152 1.4 Z M 159.5 19.8 C 164.9 19.8 168.2 16.6 168.2 11.6 C 168.2 6.7 165 3.4 159.2 3.4 C 159.21 3.42 154.3 3.4 154.3 3.4 L 154.3 19.8 C 154.3 19.8 159.54 19.83 159.5 19.8 Z M 179.6 1.4 C 183.4 1.4 185.9 3.4 185.9 6.6 C 185.9 8.8 184.7 10.4 182.5 11.1 C 185.7 11.6 187.7 13.7 187.7 16.4 C 187.7 20.2 184.3 21.9 180.6 21.9 C 180.57 21.87 174.3 21.9 174.3 21.9 L 174.3 1.4 C 174.3 1.4 179.61 1.41 179.6 1.4 Z M 176.5 10.5 C 176.5 10.5 178.8 10.5 178.8 10.5 C 182.2 10.5 183.6 8.9 183.6 6.8 C 183.6 4.5 182.2 3.4 179.2 3.4 C 179.16 3.39 176.5 3.4 176.5 3.4 L 176.5 10.5 Z M 180.1 19.9 C 183.4 19.9 185.3 18.8 185.3 16.2 C 185.3 13.8 183.7 12.4 179.8 12.4 C 179.82 12.45 176.5 12.4 176.5 12.4 L 176.5 19.9 C 176.5 19.9 180.15 19.89 180.1 19.9 Z M 199.6 1.3 L 208.7 21.9 L 206.4 21.9 L 203.5 15.4 L 194.2 15.4 L 191.5 21.9 L 189.1 21.9 L 198 1.3 L 199.6 1.3 Z M 195.1 13.4 L 202.6 13.4 L 198.7 4.7 L 195.1 13.4 Z M 227 2.8 C 227 2.8 227 5.2 227 5.2 C 224.9 4 222.5 3.2 220.1 3.2 C 214.9 3.2 211.6 7.2 211.6 11.7 C 211.6 16.3 214.9 20 220.1 20 C 222.6 20 225 19.3 227.2 17.9 C 227.2 17.9 227.2 20.4 227.2 20.4 C 224.9 21.6 222.5 22.1 220 22.1 C 212.9 22.1 209.2 16.8 209.2 11.7 C 209.2 5.6 213.9 1.1 220.1 1.1 C 222.4 1.1 224.7 1.7 227 2.8 Z M 233 1.4 L 233 11 L 241.9 1.4 L 244.8 1.4 L 235.6 11.2 L 246.6 21.9 L 243.5 21.9 L 233 11.7 L 233 21.9 L 230.7 21.9 L 230.7 1.4 L 233 1.4 Z " stroke="none" fill="#000000"/>  </g></svg>