<?xml version="1.0" standalone="no"?><!DOCTYPE svg PUBLIC "-//W3C//DTD SVG 1.1//EN" "http://www.w3.org/Graphics/SVG/1.1/DTD/svg11.dtd"><svg xmlns="http://www.w3.org/2000/svg" version="1.1" width="34px" height="40.1px" viewBox="0 -8 34 40.1" style="top:-8px">  <desc>4.8</desc>  <defs/>  <g id="Polygon21860">    <path d="M 7.5 17.5 L 7.5 14 L 0.4 14 L 0.4 11.1 L 7.9 0.2 L 10.7 0.2 L 10.7 11.1 L 12.8 11.1 L 12.8 14 L 10.7 14 L 10.7 17.5 L 7.5 17.5 Z M 7.5 11.1 L 7.5 5.3 L 3.5 11.1 L 7.5 11.1 Z M 15.1 17.5 L 15.1 14.2 L 18.4 14.2 L 18.4 17.5 L 15.1 17.5 Z M 23.9 8.2 C 23 7.8 22.4 7.3 22 6.7 C 21.6 6.1 21.4 5.4 21.4 4.7 C 21.4 3.4 21.9 2.3 22.8 1.5 C 23.7 0.6 24.9 0.2 26.6 0.2 C 28.2 0.2 29.5 0.6 30.4 1.5 C 31.3 2.3 31.7 3.4 31.7 4.7 C 31.7 5.4 31.5 6.2 31.1 6.8 C 30.7 7.4 30.1 7.9 29.4 8.2 C 30.3 8.6 31 9.1 31.5 9.9 C 32 10.6 32.3 11.5 32.3 12.4 C 32.3 14 31.8 15.3 30.8 16.3 C 29.8 17.3 28.4 17.8 26.7 17.8 C 25.2 17.8 23.9 17.4 22.8 16.5 C 21.6 15.6 21 14.3 21 12.6 C 21 11.6 21.2 10.8 21.7 10 C 22.1 9.2 22.9 8.6 23.9 8.2 Z M 24.5 4.9 C 24.5 5.5 24.7 6.1 25.1 6.4 C 25.5 6.8 26 7 26.6 7 C 27.2 7 27.7 6.8 28.1 6.4 C 28.5 6 28.6 5.5 28.6 4.9 C 28.6 4.3 28.5 3.8 28.1 3.4 C 27.7 3 27.2 2.8 26.6 2.8 C 26 2.8 25.5 3 25.1 3.4 C 24.7 3.8 24.5 4.3 24.5 4.9 Z M 24.2 12.2 C 24.2 13.2 24.5 13.9 24.9 14.4 C 25.4 14.9 26 15.1 26.7 15.1 C 27.4 15.1 27.9 14.9 28.4 14.4 C 28.8 13.9 29 13.2 29 12.3 C 29 11.5 28.8 10.8 28.3 10.3 C 27.9 9.9 27.3 9.6 26.6 9.6 C 25.8 9.6 25.2 9.9 24.8 10.4 C 24.4 11 24.2 11.6 24.2 12.2 Z " stroke="none" fill="#000"/>  </g></svg>