<?xml version="1.0" standalone="no"?><!DOCTYPE svg PUBLIC "-//W3C//DTD SVG 1.1//EN" "http://www.w3.org/Graphics/SVG/1.1/DTD/svg11.dtd"><svg xmlns="http://www.w3.org/2000/svg" version="1.1" width="400.1px" height="39.1px" viewBox="0 -8 400.1 39.1" style="top:-8px">  <desc>Subject Matter Expertise</desc>  <defs/>  <g id="Polygon22355">    <path d="M 1.1 12 C 1.1 12 3.2 11.8 3.2 11.8 C 3.3 12.6 3.6 13.3 3.9 13.9 C 4.3 14.4 4.9 14.9 5.7 15.2 C 6.4 15.6 7.3 15.7 8.3 15.7 C 9.2 15.7 9.9 15.6 10.6 15.3 C 11.3 15.1 11.8 14.7 12.1 14.3 C 12.4 13.8 12.6 13.3 12.6 12.8 C 12.6 12.3 12.4 11.8 12.1 11.4 C 11.8 11 11.3 10.7 10.5 10.4 C 10.1 10.2 9.1 9.9 7.5 9.5 C 5.9 9.2 4.8 8.8 4.2 8.5 C 3.4 8 2.7 7.5 2.3 6.9 C 1.9 6.2 1.7 5.5 1.7 4.7 C 1.7 3.9 2 3.1 2.5 2.3 C 3 1.5 3.7 1 4.6 0.6 C 5.6 0.2 6.6 0 7.8 0 C 9.1 0 10.2 0.2 11.2 0.6 C 12.1 1 12.9 1.6 13.4 2.4 C 13.9 3.2 14.2 4.1 14.2 5.1 C 14.2 5.1 12.1 5.3 12.1 5.3 C 11.9 4.2 11.5 3.4 10.9 2.8 C 10.2 2.3 9.2 2 7.9 2 C 6.5 2 5.5 2.3 4.9 2.8 C 4.2 3.3 3.9 3.9 3.9 4.6 C 3.9 5.2 4.1 5.7 4.6 6.1 C 5 6.5 6.2 6.9 8 7.3 C 9.9 7.7 11.1 8.1 11.8 8.4 C 12.8 8.9 13.6 9.5 14 10.2 C 14.5 10.9 14.8 11.7 14.8 12.6 C 14.8 13.5 14.5 14.4 14 15.2 C 13.4 16 12.7 16.6 11.7 17.1 C 10.7 17.5 9.6 17.8 8.4 17.8 C 6.8 17.8 5.5 17.5 4.5 17.1 C 3.4 16.6 2.6 16 2 15 C 1.4 14.1 1.1 13.1 1.1 12 Z M 25.7 17.5 C 25.7 17.5 25.75 15.64 25.7 15.6 C 24.8 17.1 23.5 17.8 21.8 17.8 C 21.1 17.8 20.4 17.6 19.7 17.3 C 19.1 17.1 18.6 16.7 18.3 16.3 C 18 15.8 17.8 15.3 17.7 14.7 C 17.6 14.3 17.5 13.6 17.5 12.7 C 17.54 12.74 17.5 5 17.5 5 L 19.7 5 C 19.7 5 19.65 11.93 19.7 11.9 C 19.7 13 19.7 13.8 19.8 14.2 C 19.9 14.7 20.2 15.1 20.6 15.5 C 21.1 15.8 21.6 15.9 22.2 15.9 C 22.9 15.9 23.4 15.8 24 15.5 C 24.6 15.1 24.9 14.7 25.2 14.1 C 25.4 13.6 25.5 12.8 25.5 11.7 C 25.52 11.7 25.5 5 25.5 5 L 27.6 5 L 27.6 17.5 L 25.7 17.5 Z M 32.9 17.5 L 30.9 17.5 L 30.9 0.3 L 33 0.3 C 33 0.3 33.04 6.42 33 6.4 C 33.9 5.3 35.1 4.7 36.4 4.7 C 37.2 4.7 37.9 4.9 38.6 5.2 C 39.3 5.5 39.9 6 40.3 6.5 C 40.7 7.1 41.1 7.7 41.3 8.5 C 41.6 9.3 41.7 10.2 41.7 11.1 C 41.7 13.2 41.2 14.8 40.1 16 C 39.1 17.2 37.8 17.8 36.3 17.8 C 34.9 17.8 33.7 17.1 32.9 15.9 C 32.88 15.91 32.9 17.5 32.9 17.5 Z M 32.9 11.2 C 32.9 12.6 33.1 13.7 33.5 14.4 C 34.1 15.5 35 16 36.2 16 C 37.1 16 37.9 15.6 38.6 14.8 C 39.2 14 39.6 12.8 39.6 11.2 C 39.6 9.6 39.2 8.4 38.6 7.6 C 38 6.9 37.2 6.5 36.3 6.5 C 35.3 6.5 34.5 6.9 33.9 7.7 C 33.2 8.5 32.9 9.6 32.9 11.2 Z M 44.3 2.7 L 44.3 0.3 L 46.4 0.3 L 46.4 2.7 L 44.3 2.7 Z M 43.3 22.5 C 42.7 22.5 42.1 22.4 41.6 22.3 C 41.6 22.3 42 20.5 42 20.5 C 42.4 20.6 42.8 20.7 43 20.7 C 43.4 20.7 43.7 20.5 44 20.2 C 44.2 20 44.3 19.2 44.3 18.1 C 44.27 18.11 44.3 5 44.3 5 L 46.4 5 C 46.4 5 46.38 18.15 46.4 18.2 C 46.4 19.7 46.2 20.7 45.8 21.4 C 45.3 22.1 44.4 22.5 43.3 22.5 C 43.3 22.5 43.3 22.5 43.3 22.5 Z M 58.1 13.5 C 58.1 13.5 60.3 13.7 60.3 13.7 C 60 15 59.3 16 58.4 16.7 C 57.5 17.4 56.3 17.8 54.8 17.8 C 53 17.8 51.6 17.2 50.5 16.1 C 49.4 15 48.9 13.4 48.9 11.4 C 48.9 9.3 49.5 7.6 50.5 6.5 C 51.6 5.3 53 4.7 54.7 4.7 C 56.4 4.7 57.8 5.3 58.8 6.4 C 59.9 7.6 60.4 9.2 60.4 11.2 C 60.4 11.4 60.4 11.5 60.4 11.8 C 60.4 11.8 51.1 11.8 51.1 11.8 C 51.2 13.2 51.6 14.2 52.3 14.9 C 52.9 15.7 53.8 16 54.9 16 C 55.6 16 56.3 15.8 56.8 15.4 C 57.4 15 57.8 14.4 58.1 13.5 Z M 51.2 10.1 C 51.2 10.1 58.2 10.1 58.2 10.1 C 58.1 9 57.8 8.2 57.4 7.7 C 56.7 6.9 55.8 6.5 54.8 6.5 C 53.8 6.5 53 6.8 52.3 7.5 C 51.6 8.1 51.3 9 51.2 10.1 Z M 71.1 12.9 C 71.1 12.9 73.2 13.2 73.2 13.2 C 72.9 14.6 72.4 15.7 71.4 16.5 C 70.5 17.3 69.3 17.8 68 17.8 C 66.3 17.8 64.9 17.2 63.9 16.1 C 62.8 15 62.3 13.4 62.3 11.3 C 62.3 10 62.5 8.8 63 7.8 C 63.4 6.8 64.1 6 65 5.5 C 65.9 5 66.9 4.7 68 4.7 C 69.3 4.7 70.4 5.1 71.3 5.8 C 72.2 6.5 72.7 7.4 73 8.7 C 73 8.7 70.9 9 70.9 9 C 70.7 8.2 70.4 7.5 69.9 7.1 C 69.4 6.7 68.8 6.5 68.1 6.5 C 67 6.5 66.1 6.9 65.5 7.6 C 64.8 8.4 64.5 9.6 64.5 11.2 C 64.5 12.9 64.8 14.1 65.4 14.9 C 66.1 15.6 66.9 16 68 16 C 68.8 16 69.5 15.8 70 15.3 C 70.6 14.8 70.9 14 71.1 12.9 Z M 78.6 15.7 C 78.9 15.7 79.2 15.6 79.6 15.6 C 79.6 15.6 79.9 17.4 79.9 17.4 C 79.3 17.6 78.8 17.6 78.3 17.6 C 77.5 17.6 76.9 17.5 76.5 17.3 C 76.1 17 75.8 16.7 75.6 16.3 C 75.4 15.9 75.4 15.1 75.4 13.8 C 75.35 13.83 75.4 6.7 75.4 6.7 L 73.8 6.7 L 73.8 5 L 75.4 5 L 75.4 1.9 L 77.4 0.7 L 77.4 5 L 79.6 5 L 79.6 6.7 L 77.4 6.7 C 77.4 6.7 77.45 13.95 77.4 13.9 C 77.4 14.5 77.5 14.9 77.6 15.1 C 77.6 15.3 77.8 15.4 77.9 15.5 C 78.1 15.6 78.3 15.7 78.6 15.7 C 78.6 15.7 78.6 15.7 78.6 15.7 Z M 88.5 17.5 L 88.5 0.3 L 91.9 0.3 C 91.9 0.3 95.99 12.46 96 12.5 C 96.4 13.6 96.6 14.4 96.8 15 C 97 14.4 97.3 13.5 97.7 12.2 C 97.72 12.25 101.8 0.3 101.8 0.3 L 104.9 0.3 L 104.9 17.5 L 102.7 17.5 L 102.7 3.1 L 97.7 17.5 L 95.7 17.5 L 90.7 2.8 L 90.7 17.5 L 88.5 17.5 Z M 116.8 17.5 C 116.6 17 116.5 16.5 116.4 15.9 C 115.6 16.6 114.9 17.1 114.2 17.3 C 113.4 17.6 112.7 17.8 111.8 17.8 C 110.5 17.8 109.4 17.4 108.7 16.8 C 107.9 16.1 107.6 15.2 107.6 14.2 C 107.6 13.6 107.7 13 108 12.5 C 108.3 12 108.6 11.6 109.1 11.3 C 109.5 11 110 10.8 110.6 10.6 C 111 10.5 111.6 10.4 112.5 10.3 C 114.2 10.1 115.4 9.9 116.2 9.6 C 116.2 9.3 116.3 9.1 116.3 9 C 116.3 8.2 116.1 7.6 115.7 7.2 C 115.1 6.7 114.3 6.5 113.3 6.5 C 112.3 6.5 111.5 6.7 111.1 7 C 110.6 7.4 110.2 8 110 8.9 C 110 8.9 107.9 8.6 107.9 8.6 C 108.1 7.7 108.4 7 108.9 6.4 C 109.3 5.9 109.9 5.5 110.7 5.2 C 111.5 4.9 112.5 4.7 113.6 4.7 C 114.6 4.7 115.5 4.9 116.1 5.1 C 116.8 5.4 117.3 5.7 117.6 6.1 C 117.9 6.4 118.1 6.9 118.3 7.5 C 118.3 7.9 118.4 8.5 118.4 9.4 C 118.4 9.4 118.4 12.3 118.4 12.3 C 118.4 14.2 118.4 15.5 118.5 16 C 118.6 16.5 118.8 17 119 17.5 C 119.04 17.47 116.8 17.5 116.8 17.5 C 116.8 17.5 116.84 17.47 116.8 17.5 Z M 116.2 11.2 C 115.5 11.5 114.3 11.8 112.8 12 C 111.9 12.1 111.3 12.3 111 12.4 C 110.6 12.6 110.3 12.8 110.1 13.1 C 109.9 13.4 109.8 13.8 109.8 14.1 C 109.8 14.7 110 15.2 110.5 15.5 C 110.9 15.9 111.5 16.1 112.3 16.1 C 113.1 16.1 113.9 15.9 114.5 15.6 C 115.1 15.2 115.6 14.7 115.9 14.1 C 116.1 13.6 116.2 12.9 116.2 12 C 116.2 12 116.2 11.2 116.2 11.2 Z M 125.3 15.7 C 125.6 15.7 125.9 15.6 126.2 15.6 C 126.2 15.6 126.6 17.4 126.6 17.4 C 126 17.6 125.4 17.6 125 17.6 C 124.2 17.6 123.6 17.5 123.2 17.3 C 122.8 17 122.5 16.7 122.3 16.3 C 122.1 15.9 122 15.1 122 13.8 C 122.03 13.83 122 6.7 122 6.7 L 120.5 6.7 L 120.5 5 L 122 5 L 122 1.9 L 124.1 0.7 L 124.1 5 L 126.2 5 L 126.2 6.7 L 124.1 6.7 C 124.1 6.7 124.13 13.95 124.1 13.9 C 124.1 14.5 124.2 14.9 124.2 15.1 C 124.3 15.3 124.4 15.4 124.6 15.5 C 124.8 15.6 125 15.7 125.3 15.7 C 125.3 15.7 125.3 15.7 125.3 15.7 Z M 132 15.7 C 132.2 15.7 132.5 15.6 132.9 15.6 C 132.9 15.6 133.2 17.4 133.2 17.4 C 132.6 17.6 132.1 17.6 131.6 17.6 C 130.9 17.6 130.3 17.5 129.8 17.3 C 129.4 17 129.1 16.7 129 16.3 C 128.8 15.9 128.7 15.1 128.7 13.8 C 128.7 13.83 128.7 6.7 128.7 6.7 L 127.1 6.7 L 127.1 5 L 128.7 5 L 128.7 1.9 L 130.8 0.7 L 130.8 5 L 132.9 5 L 132.9 6.7 L 130.8 6.7 C 130.8 6.7 130.79 13.95 130.8 13.9 C 130.8 14.5 130.8 14.9 130.9 15.1 C 131 15.3 131.1 15.4 131.3 15.5 C 131.4 15.6 131.7 15.7 132 15.7 C 132 15.7 132 15.7 132 15.7 Z M 143.5 13.5 C 143.5 13.5 145.7 13.7 145.7 13.7 C 145.3 15 144.7 16 143.8 16.7 C 142.8 17.4 141.6 17.8 140.2 17.8 C 138.4 17.8 136.9 17.2 135.9 16.1 C 134.8 15 134.3 13.4 134.3 11.4 C 134.3 9.3 134.8 7.6 135.9 6.5 C 137 5.3 138.4 4.7 140.1 4.7 C 141.8 4.7 143.1 5.3 144.2 6.4 C 145.2 7.6 145.7 9.2 145.7 11.2 C 145.7 11.4 145.7 11.5 145.7 11.8 C 145.7 11.8 136.5 11.8 136.5 11.8 C 136.5 13.2 136.9 14.2 137.6 14.9 C 138.3 15.7 139.2 16 140.2 16 C 141 16 141.6 15.8 142.2 15.4 C 142.7 15 143.2 14.4 143.5 13.5 Z M 136.6 10.1 C 136.6 10.1 143.5 10.1 143.5 10.1 C 143.4 9 143.2 8.2 142.7 7.7 C 142.1 6.9 141.2 6.5 140.1 6.5 C 139.1 6.5 138.3 6.8 137.7 7.5 C 137 8.1 136.6 9 136.6 10.1 Z M 148.3 17.5 L 148.3 5 L 150.2 5 C 150.2 5 150.2 6.91 150.2 6.9 C 150.7 6 151.1 5.4 151.5 5.2 C 152 4.9 152.4 4.7 152.9 4.7 C 153.6 4.7 154.3 5 155.1 5.4 C 155.1 5.4 154.3 7.4 154.3 7.4 C 153.8 7.1 153.3 6.9 152.8 6.9 C 152.3 6.9 151.9 7.1 151.5 7.3 C 151.2 7.6 150.9 8 150.8 8.5 C 150.5 9.2 150.4 10.1 150.4 11 C 150.41 10.96 150.4 17.5 150.4 17.5 L 148.3 17.5 Z M 163.3 17.5 L 163.3 0.3 L 175.7 0.3 L 175.7 2.3 L 165.6 2.3 L 165.6 7.6 L 175.1 7.6 L 175.1 9.6 L 165.6 9.6 L 165.6 15.4 L 176.1 15.4 L 176.1 17.5 L 163.3 17.5 Z M 177.6 17.5 L 182.1 11 L 177.9 5 L 180.6 5 C 180.6 5 182.47 7.95 182.5 7.9 C 182.8 8.5 183.1 9 183.3 9.3 C 183.7 8.8 184 8.4 184.3 8 C 184.29 7.97 186.4 5 186.4 5 L 188.9 5 L 184.6 10.9 L 189.2 17.5 L 186.6 17.5 L 184.1 13.6 L 183.4 12.6 L 180.1 17.5 L 177.6 17.5 Z M 191 22.2 L 191 5 L 192.9 5 C 192.9 5 192.91 6.64 192.9 6.6 C 193.4 6 193.9 5.5 194.4 5.2 C 195 4.9 195.7 4.7 196.5 4.7 C 197.6 4.7 198.5 5 199.3 5.6 C 200.1 6.1 200.8 6.9 201.2 7.9 C 201.6 8.9 201.8 10 201.8 11.2 C 201.8 12.4 201.6 13.6 201.1 14.6 C 200.7 15.6 200 16.4 199.1 16.9 C 198.2 17.5 197.3 17.8 196.4 17.8 C 195.7 17.8 195 17.6 194.5 17.3 C 193.9 17 193.5 16.6 193.1 16.2 C 193.1 16.18 193.1 22.2 193.1 22.2 L 191 22.2 Z M 192.9 11.3 C 192.9 12.9 193.2 14.1 193.9 14.9 C 194.5 15.6 195.3 16 196.2 16 C 197.2 16 198 15.6 198.6 14.8 C 199.3 14 199.6 12.8 199.6 11.1 C 199.6 9.6 199.3 8.4 198.7 7.6 C 198 6.8 197.2 6.4 196.3 6.4 C 195.4 6.4 194.6 6.8 193.9 7.7 C 193.2 8.5 192.9 9.7 192.9 11.3 Z M 212.9 13.5 C 212.9 13.5 215 13.7 215 13.7 C 214.7 15 214.1 16 213.1 16.7 C 212.2 17.4 211 17.8 209.6 17.8 C 207.7 17.8 206.3 17.2 205.2 16.1 C 204.2 15 203.6 13.4 203.6 11.4 C 203.6 9.3 204.2 7.6 205.3 6.5 C 206.3 5.3 207.7 4.7 209.4 4.7 C 211.1 4.7 212.5 5.3 213.5 6.4 C 214.6 7.6 215.1 9.2 215.1 11.2 C 215.1 11.4 215.1 11.5 215.1 11.8 C 215.1 11.8 205.8 11.8 205.8 11.8 C 205.9 13.2 206.3 14.2 207 14.9 C 207.7 15.7 208.5 16 209.6 16 C 210.4 16 211 15.8 211.6 15.4 C 212.1 15 212.5 14.4 212.9 13.5 Z M 205.9 10.1 C 205.9 10.1 212.9 10.1 212.9 10.1 C 212.8 9 212.5 8.2 212.1 7.7 C 211.4 6.9 210.5 6.5 209.5 6.5 C 208.5 6.5 207.7 6.8 207 7.5 C 206.4 8.1 206 9 205.9 10.1 Z M 217.7 17.5 L 217.7 5 L 219.6 5 C 219.6 5 219.56 6.91 219.6 6.9 C 220 6 220.5 5.4 220.9 5.2 C 221.3 4.9 221.8 4.7 222.3 4.7 C 223 4.7 223.7 5 224.4 5.4 C 224.4 5.4 223.7 7.4 223.7 7.4 C 223.2 7.1 222.7 6.9 222.2 6.9 C 221.7 6.9 221.3 7.1 220.9 7.3 C 220.5 7.6 220.3 8 220.1 8.5 C 219.9 9.2 219.8 10.1 219.8 11 C 219.77 10.96 219.8 17.5 219.8 17.5 L 217.7 17.5 Z M 229.4 15.7 C 229.6 15.7 229.9 15.6 230.3 15.6 C 230.3 15.6 230.6 17.4 230.6 17.4 C 230 17.6 229.5 17.6 229 17.6 C 228.2 17.6 227.6 17.5 227.2 17.3 C 226.8 17 226.5 16.7 226.3 16.3 C 226.2 15.9 226.1 15.1 226.1 13.8 C 226.07 13.83 226.1 6.7 226.1 6.7 L 224.5 6.7 L 224.5 5 L 226.1 5 L 226.1 1.9 L 228.2 0.7 L 228.2 5 L 230.3 5 L 230.3 6.7 L 228.2 6.7 C 228.2 6.7 228.16 13.95 228.2 13.9 C 228.2 14.5 228.2 14.9 228.3 15.1 C 228.3 15.3 228.5 15.4 228.6 15.5 C 228.8 15.6 229 15.7 229.4 15.7 C 229.4 15.7 229.4 15.7 229.4 15.7 Z M 232.4 2.7 L 232.4 0.3 L 234.5 0.3 L 234.5 2.7 L 232.4 2.7 Z M 232.4 17.5 L 232.4 5 L 234.5 5 L 234.5 17.5 L 232.4 17.5 Z M 236.8 13.8 C 236.8 13.8 238.9 13.4 238.9 13.4 C 239 14.3 239.4 14.9 239.9 15.4 C 240.4 15.8 241.2 16 242.1 16 C 243.1 16 243.8 15.8 244.3 15.4 C 244.8 15 245 14.6 245 14 C 245 13.6 244.8 13.2 244.4 12.9 C 244.1 12.7 243.4 12.5 242.2 12.2 C 240.7 11.8 239.6 11.5 239 11.2 C 238.4 10.9 238 10.5 237.7 10 C 237.3 9.5 237.2 8.9 237.2 8.3 C 237.2 7.8 237.3 7.3 237.6 6.8 C 237.8 6.3 238.2 5.9 238.6 5.6 C 238.9 5.4 239.4 5.2 239.9 5 C 240.5 4.8 241.1 4.7 241.8 4.7 C 242.7 4.7 243.6 4.9 244.3 5.2 C 245.1 5.4 245.6 5.8 246 6.3 C 246.3 6.8 246.6 7.4 246.7 8.2 C 246.7 8.2 244.6 8.5 244.6 8.5 C 244.5 7.9 244.3 7.4 243.8 7 C 243.4 6.7 242.7 6.5 241.9 6.5 C 241 6.5 240.3 6.6 239.8 7 C 239.4 7.3 239.2 7.7 239.2 8.1 C 239.2 8.4 239.3 8.6 239.5 8.8 C 239.7 9.1 239.9 9.2 240.3 9.4 C 240.5 9.5 241.1 9.6 242.2 9.9 C 243.6 10.3 244.7 10.7 245.3 10.9 C 245.9 11.2 246.3 11.5 246.7 12 C 247 12.5 247.2 13.1 247.2 13.8 C 247.2 14.5 247 15.2 246.6 15.8 C 246.1 16.4 245.6 16.9 244.8 17.2 C 244 17.6 243.1 17.8 242.2 17.8 C 240.5 17.8 239.3 17.4 238.5 16.7 C 237.6 16.1 237.1 15.1 236.8 13.8 Z M 258.2 13.5 C 258.2 13.5 260.4 13.7 260.4 13.7 C 260 15 259.4 16 258.5 16.7 C 257.5 17.4 256.4 17.8 254.9 17.8 C 253.1 17.8 251.6 17.2 250.6 16.1 C 249.5 15 249 13.4 249 11.4 C 249 9.3 249.5 7.6 250.6 6.5 C 251.7 5.3 253.1 4.7 254.8 4.7 C 256.5 4.7 257.8 5.3 258.9 6.4 C 259.9 7.6 260.4 9.2 260.4 11.2 C 260.4 11.4 260.4 11.5 260.4 11.8 C 260.4 11.8 251.2 11.8 251.2 11.8 C 251.2 13.2 251.6 14.2 252.3 14.9 C 253 15.7 253.9 16 254.9 16 C 255.7 16 256.4 15.8 256.9 15.4 C 257.4 15 257.9 14.4 258.2 13.5 Z M 251.3 10.1 C 251.3 10.1 258.2 10.1 258.2 10.1 C 258.1 9 257.9 8.2 257.4 7.7 C 256.8 6.9 255.9 6.5 254.8 6.5 C 253.8 6.5 253 6.8 252.4 7.5 C 251.7 8.1 251.3 9 251.3 10.1 Z " stroke="none" fill="#000"/>  </g></svg>