<?xml version="1.0" standalone="no"?><!DOCTYPE svg PUBLIC "-//W3C//DTD SVG 1.1//EN" "http://www.w3.org/Graphics/SVG/1.1/DTD/svg11.dtd"><svg xmlns="http://www.w3.org/2000/svg" version="1.1" width="325.1px" height="204.8px" viewBox="0 -10 325.1 204.8" style="top:-10px">  <desc>Training Equality, Diversion and Inclusion 02</desc>  <defs/>  <g id="Polygon14649">    <path d="M 6.1 145.9 L 6.1 173.2 L 3.1 173.2 L 3.1 145.9 L 6.1 145.9 Z M 14.7 145.9 L 34 168.4 L 34 145.9 L 36.9 145.9 L 36.9 173.2 L 34.2 173.2 L 15.1 150.7 L 15.1 173.2 L 12.2 173.2 L 12.2 145.9 L 14.7 145.9 Z M 65.5 147.7 C 65.5 147.7 65.5 150.9 65.5 150.9 C 62.6 149.3 59.5 148.3 56.3 148.3 C 49.3 148.3 44.9 153.6 44.9 159.6 C 44.9 165.7 49.3 170.7 56.2 170.7 C 59.6 170.7 62.8 169.8 65.7 167.9 C 65.7 167.9 65.7 171.2 65.7 171.2 C 62.7 172.8 59.5 173.5 56.2 173.5 C 46.7 173.5 41.8 166.4 41.8 159.6 C 41.8 151.5 48 145.5 56.2 145.5 C 59.3 145.5 62.4 146.3 65.5 147.7 Z M 73.4 145.9 L 73.4 170.4 L 86.3 170.4 L 86.3 173.2 L 70.4 173.2 L 70.4 145.9 L 73.4 145.9 Z M 91.1 145.9 C 91.1 145.9 91.12 161.6 91.1 161.6 C 91.1 167.6 94 170.8 99.6 170.8 C 105.2 170.8 108 167.5 108 161.6 C 108 161.6 108 145.9 108 145.9 L 111 145.9 C 111 145.9 111 161.6 111 161.6 C 111 168.8 107.2 173.5 99.6 173.5 C 92.1 173.5 88.1 169.2 88.1 161.6 C 88.12 161.6 88.1 145.9 88.1 145.9 L 91.1 145.9 Z M 129.4 147.3 C 129.4 147.3 129.4 150.7 129.4 150.7 C 127.6 149.1 125.5 148.2 123.3 148.2 C 120.4 148.2 118.5 149.8 118.5 152.2 C 118.5 154 119 155.6 123.5 157.8 C 129.1 160.8 130.5 162.7 130.5 166.4 C 130.5 170.5 127.4 173.5 122.7 173.5 C 120.1 173.5 117.7 172.7 115.6 171.1 C 115.6 171.1 115.6 167.4 115.6 167.4 C 117.6 169.6 120 170.8 122.7 170.8 C 125.4 170.8 127.4 169.1 127.4 166.5 C 127.4 164.2 126.7 162.8 121.4 160 C 117.1 157.8 115.5 155.8 115.5 152.3 C 115.5 148.4 118.8 145.5 123.4 145.5 C 125.5 145.5 127.6 146.1 129.4 147.3 Z M 138.2 145.9 L 138.2 173.2 L 135.2 173.2 L 135.2 145.9 L 138.2 145.9 Z M 171.8 159.4 C 171.8 167 166.2 173.5 157.2 173.5 C 148.8 173.5 143.1 167.1 143.1 159.7 C 143.1 152.1 148.5 145.5 157.4 145.5 C 166.1 145.5 171.8 151.8 171.8 159.4 Z M 146.2 159.6 C 146.2 166 151.2 170.7 157.3 170.7 C 165.4 170.7 168.7 164.4 168.7 159.5 C 168.7 154 164.6 148.4 157.5 148.4 C 150.1 148.4 146.2 154 146.2 159.6 Z M 179.2 145.9 L 198.6 168.4 L 198.6 145.9 L 201.4 145.9 L 201.4 173.2 L 198.8 173.2 L 179.6 150.7 L 179.6 173.2 L 176.8 173.2 L 176.8 145.9 L 179.2 145.9 Z M 216.8 159.5 C 216.8 150.5 221 145.5 225.7 145.5 C 231 145.5 234.4 151.4 234.4 159.5 C 234.4 168.1 230.7 173.5 225.6 173.5 C 220.2 173.5 216.8 167.9 216.8 159.5 Z M 231.3 159.6 C 231.3 152.4 229 148.3 225.6 148.3 C 222.2 148.3 219.9 152.3 219.9 159.5 C 219.9 166.6 222 170.8 225.6 170.8 C 229.1 170.8 231.3 166.6 231.3 159.6 Z M 252.4 153.7 C 252.4 159.4 247.4 165.1 242.7 170.3 C 242.72 170.28 254.2 170.3 254.2 170.3 L 254.2 173.2 L 237.3 173.2 C 237.3 173.2 238.08 172.2 238.1 172.2 C 241.4 168.6 249.4 160.6 249.4 154 C 249.4 149.9 246.4 148.5 244 148.5 C 241.7 148.5 239.6 149.7 237.8 151.8 C 237.8 151.8 237.8 148 237.8 148 C 239.8 146.4 242 145.5 244.4 145.5 C 249.1 145.5 252.4 148.9 252.4 153.7 Z " stroke="none" fill="#010102"/>  </g>  <g id="Polygon14648">    <path d="M 3.1 97.9 C 3.1 97.9 13.12 97.88 13.1 97.9 C 22 97.9 27.8 103.4 27.8 111.2 C 27.8 119.7 21.8 125.2 13.1 125.2 C 13.12 125.16 3.1 125.2 3.1 125.2 L 3.1 97.9 Z M 13.1 122.4 C 20.2 122.4 24.7 118.2 24.7 111.5 C 24.7 104.9 20.4 100.6 12.6 100.6 C 12.64 100.56 6.1 100.6 6.1 100.6 L 6.1 122.4 C 6.1 122.4 13.08 122.44 13.1 122.4 Z M 35.8 97.9 L 35.8 125.2 L 32.8 125.2 L 32.8 97.9 L 35.8 97.9 Z M 38.9 97.9 L 41.9 97.9 L 50.8 119.1 L 50.8 119.1 L 59.7 97.9 L 62.7 97.9 L 51.2 125.4 L 50.5 125.4 L 38.9 97.9 Z M 80.7 97.9 L 80.7 100.6 L 68.8 100.6 L 68.8 110.1 L 80.3 110.1 L 80.3 112.8 L 68.8 112.8 L 68.8 122.4 L 81 122.4 L 81 125.2 L 65.8 125.2 L 65.8 97.9 L 80.7 97.9 Z M 85.9 97.9 C 85.9 97.9 93.04 97.88 93 97.9 C 98.5 97.9 101.4 101 101.4 105.2 C 101.4 108.6 99.5 110.9 96.2 111.9 C 98 112.8 98.8 113.6 101 117 C 101 117 106.3 125.2 106.3 125.2 L 102.7 125.2 C 102.7 125.2 97.92 117.64 97.9 117.6 C 95.4 113.6 93.7 112.8 91.4 112.8 C 91.4 112.76 88.9 112.8 88.9 112.8 L 88.9 125.2 L 85.9 125.2 L 85.9 97.9 Z M 91.7 110.1 C 95.4 110.1 98.3 109.2 98.3 105.2 C 98.3 101.9 96.1 100.5 92.6 100.5 C 92.64 100.52 88.9 100.5 88.9 100.5 L 88.9 110.1 C 88.9 110.1 91.68 110.12 91.7 110.1 Z M 122.6 99.3 C 122.6 99.3 122.6 102.7 122.6 102.7 C 120.7 101.1 118.6 100.2 116.4 100.2 C 113.5 100.2 111.6 101.8 111.6 104.2 C 111.6 106 112.1 107.6 116.6 109.8 C 122.2 112.8 123.6 114.7 123.6 118.4 C 123.6 122.5 120.5 125.5 115.8 125.5 C 113.2 125.5 110.8 124.7 108.7 123.1 C 108.7 123.1 108.7 119.4 108.7 119.4 C 110.8 121.6 113.2 122.8 115.8 122.8 C 118.6 122.8 120.6 121.1 120.6 118.5 C 120.6 116.2 119.8 114.8 114.5 112 C 110.2 109.8 108.6 107.8 108.6 104.3 C 108.6 100.4 111.9 97.5 116.5 97.5 C 118.6 97.5 120.7 98.1 122.6 99.3 Z M 131.3 97.9 L 131.3 125.2 L 128.3 125.2 L 128.3 97.9 L 131.3 97.9 Z M 165 111.4 C 165 119 159.4 125.5 150.4 125.5 C 141.9 125.5 136.2 119.1 136.2 111.7 C 136.2 104.1 141.6 97.5 150.5 97.5 C 159.2 97.5 165 103.8 165 111.4 Z M 139.3 111.6 C 139.3 118 144.3 122.7 150.4 122.7 C 158.5 122.7 161.8 116.4 161.8 111.5 C 161.8 106 157.8 100.4 150.6 100.4 C 143.2 100.4 139.3 106 139.3 111.6 Z M 172.4 97.9 L 191.7 120.4 L 191.7 97.9 L 194.6 97.9 L 194.6 125.2 L 191.9 125.2 L 172.8 102.7 L 172.8 125.2 L 169.9 125.2 L 169.9 97.9 L 172.4 97.9 Z M 222.7 97.7 L 234.9 125.2 L 231.8 125.2 L 228 116.6 L 215.6 116.6 L 211.9 125.2 L 208.8 125.2 L 220.6 97.7 L 222.7 97.7 Z M 216.7 113.9 L 226.8 113.9 L 221.6 102.3 L 216.7 113.9 Z M 240.5 97.9 L 259.8 120.4 L 259.8 97.9 L 262.7 97.9 L 262.7 125.2 L 260 125.2 L 240.9 102.7 L 240.9 125.2 L 238 125.2 L 238 97.9 L 240.5 97.9 Z M 268.8 97.9 C 268.8 97.9 278.84 97.88 278.8 97.9 C 287.8 97.9 293.5 103.4 293.5 111.2 C 293.5 119.7 287.5 125.2 278.8 125.2 C 278.84 125.16 268.8 125.2 268.8 125.2 L 268.8 97.9 Z M 278.8 122.4 C 286 122.4 290.4 118.2 290.4 111.5 C 290.4 104.9 286.1 100.6 278.4 100.6 C 278.36 100.56 271.8 100.6 271.8 100.6 L 271.8 122.4 C 271.8 122.4 278.8 122.44 278.8 122.4 Z " stroke="none" fill="#010102"/>  </g>  <g id="Polygon14647">    <path d="M 18 49.9 L 18 52.6 L 6.1 52.6 L 6.1 62.1 L 17.6 62.1 L 17.6 64.8 L 6.1 64.8 L 6.1 74.4 L 18.3 74.4 L 18.3 77.2 L 3.1 77.2 L 3.1 49.9 L 18 49.9 Z M 49.9 79.5 C 49.9 79.5 46.64 82.72 46.6 82.7 C 42.2 82.3 37 80 32 76.8 C 25.7 75 22 69.8 22 63.7 C 22 55.2 28.3 49.5 36.3 49.5 C 45.7 49.5 50.7 56.6 50.7 63.4 C 50.7 70.4 45.9 76.2 38.8 77.2 C 41.8 79 45.2 80.1 47.3 80.1 C 48.1 80.1 48.8 79.8 49.7 79.2 C 49.72 79.24 49.9 79.5 49.9 79.5 Z M 47.6 63.6 C 47.6 57.8 43.6 52.4 36.3 52.4 C 28.9 52.4 25 58 25 63.6 C 25 69.8 29.8 74.7 36.2 74.7 C 42.9 74.7 47.6 70 47.6 63.6 Z M 58.3 49.9 C 58.3 49.9 58.28 65.6 58.3 65.6 C 58.3 71.6 61.1 74.8 66.7 74.8 C 72.4 74.8 75.2 71.5 75.2 65.6 C 75.16 65.6 75.2 49.9 75.2 49.9 L 78.2 49.9 C 78.2 49.9 78.16 65.6 78.2 65.6 C 78.2 72.8 74.4 77.5 66.8 77.5 C 59.3 77.5 55.3 73.2 55.3 65.6 C 55.28 65.6 55.3 49.9 55.3 49.9 L 58.3 49.9 Z M 93.8 49.7 L 106 77.2 L 102.9 77.2 L 99.1 68.6 L 86.7 68.6 L 83 77.2 L 79.9 77.2 L 91.7 49.7 L 93.8 49.7 Z M 87.8 65.9 L 97.9 65.9 L 92.7 54.3 L 87.8 65.9 Z M 112.1 49.9 L 112.1 74.4 L 125 74.4 L 125 77.2 L 109.1 77.2 L 109.1 49.9 L 112.1 49.9 Z M 131.4 49.9 L 131.4 77.2 L 128.4 77.2 L 128.4 49.9 L 131.4 49.9 Z M 157.5 49.9 L 157.5 52.5 L 147.7 52.5 L 147.7 77.2 L 144.7 77.2 L 144.7 52.5 L 135.1 52.5 L 135.1 49.9 L 157.5 49.9 Z M 162.2 49.9 L 170.3 60 L 178.4 49.9 L 182 49.9 L 171.9 62.6 L 171.9 77.2 L 168.8 77.2 L 168.8 62.6 L 158.6 49.9 L 162.2 49.9 Z M 181.2 80.9 C 182.1 80.2 182.6 79 182.6 77.2 C 182.6 77.16 181.4 77.2 181.4 77.2 L 181.4 73.3 L 184.8 73.3 C 184.8 73.3 184.84 76.24 184.8 76.2 C 184.8 79.8 183.4 81.4 181.2 82.2 C 181.2 82.2 181.2 80.9 181.2 80.9 Z " stroke="none" fill="#010102"/>  </g>  <g id="Polygon14646">    <path d="M 17.3 8.7 L 17.3 10.7 L 9.9 10.7 L 9.9 29.2 L 7.7 29.2 L 7.7 10.7 L 0.4 10.7 L 0.4 8.7 L 17.3 8.7 Z M 20 8.7 C 20 8.7 25.38 8.7 25.4 8.7 C 29.5 8.7 31.6 11.1 31.6 14.2 C 31.6 16.7 30.2 18.5 27.7 19.2 C 29.1 19.9 29.7 20.5 31.3 23 C 31.35 23.04 35.3 29.2 35.3 29.2 L 32.6 29.2 C 32.6 29.2 29.04 23.52 29 23.5 C 27.1 20.5 25.9 19.9 24.1 19.9 C 24.15 19.86 22.3 19.9 22.3 19.9 L 22.3 29.2 L 20 29.2 L 20 8.7 Z M 24.4 17.9 C 27.2 17.9 29.3 17.2 29.3 14.2 C 29.3 11.7 27.7 10.7 25.1 10.7 C 25.08 10.68 22.3 10.7 22.3 10.7 L 22.3 17.9 C 22.3 17.9 24.36 17.88 24.4 17.9 Z M 45.7 8.6 L 54.9 29.2 L 52.6 29.2 L 49.7 22.7 L 40.4 22.7 L 37.6 29.2 L 35.3 29.2 L 44.2 8.6 L 45.7 8.6 Z M 41.2 20.7 L 48.8 20.7 L 44.9 12 L 41.2 20.7 Z M 59.5 8.7 L 59.5 29.2 L 57.2 29.2 L 57.2 8.7 L 59.5 8.7 Z M 65.9 8.7 L 80.4 25.6 L 80.4 8.7 L 82.6 8.7 L 82.6 29.2 L 80.6 29.2 L 66.2 12.3 L 66.2 29.2 L 64 29.2 L 64 8.7 L 65.9 8.7 Z M 89.4 8.7 L 89.4 29.2 L 87.1 29.2 L 87.1 8.7 L 89.4 8.7 Z M 95.8 8.7 L 110.3 25.6 L 110.3 8.7 L 112.5 8.7 L 112.5 29.2 L 110.5 29.2 L 96.1 12.3 L 96.1 29.2 L 94 29.2 L 94 8.7 L 95.8 8.7 Z M 134 12.4 C 131.7 11.1 129.2 10.4 126.9 10.4 C 122.2 10.4 118.5 14 118.5 18.8 C 118.5 23.9 122 27.4 127.1 27.4 C 128.8 27.4 130 27.1 132.1 26.4 C 132.15 26.37 132.1 21.4 132.1 21.4 L 128 21.4 L 128 19.4 L 134.4 19.4 C 134.4 19.4 134.4 27.75 134.4 27.7 C 132.1 28.9 129.8 29.4 127.1 29.4 C 119.8 29.4 116.2 24.3 116.2 19 C 116.2 13.2 120.5 8.4 127 8.4 C 129.4 8.4 131.3 8.9 134 10.1 C 134 10.1 134 12.4 134 12.4 Z " stroke="none" fill="#f28620"/>  </g></svg>