<?xml version="1.0" standalone="no"?><!DOCTYPE svg PUBLIC "-//W3C//DTD SVG 1.1//EN" "http://www.w3.org/Graphics/SVG/1.1/DTD/svg11.dtd"><svg xmlns="http://www.w3.org/2000/svg" version="1.1" width="1510.3px" height="162.3px" viewBox="0 -14 1510.3 162.3" style="top:-14px">  <desc>Advanced Problem Solving And Decision Making When Dealing With Customers In Arrears</desc>  <defs/>  <g id="Polygon18849">    <path d="M 0.1 74.8 L 4.6 74.8 L 16.9 106 L 17 106 L 29.1 74.8 L 33.1 74.8 L 45.5 105.8 L 45.5 105.8 L 57.5 74.8 L 62.1 74.8 L 45.8 116 L 44.9 116 L 31.1 81.2 L 17.4 116 L 16.4 116 L 0.1 74.8 Z M 71.3 74.8 L 71.3 93.1 L 96.2 93.1 L 96.2 74.8 L 100.7 74.8 L 100.7 115.7 L 96.2 115.7 L 96.2 97.2 L 71.3 97.2 L 71.3 115.7 L 66.8 115.7 L 66.8 74.8 L 71.3 74.8 Z M 132.2 74.8 L 132.2 78.8 L 114.4 78.8 L 114.4 93.1 L 131.6 93.1 L 131.6 97.1 L 114.4 97.1 L 114.4 111.7 L 132.7 111.7 L 132.7 115.7 L 109.9 115.7 L 109.9 74.8 L 132.2 74.8 Z M 143.7 74.8 L 172.7 108.7 L 172.7 74.8 L 177 74.8 L 177 115.7 L 173 115.7 L 144.3 82 L 144.3 115.7 L 140 115.7 L 140 74.8 L 143.7 74.8 Z M 202.9 74.8 C 202.9 74.8 217.92 74.82 217.9 74.8 C 231.3 74.8 239.9 83.2 239.9 94.9 C 239.9 107.6 230.9 115.7 217.9 115.7 C 217.92 115.74 202.9 115.7 202.9 115.7 L 202.9 74.8 Z M 217.9 111.7 C 228.6 111.7 235.3 105.3 235.3 95.2 C 235.3 85.3 228.8 78.8 217.2 78.8 C 217.2 78.84 207.4 78.8 207.4 78.8 L 207.4 111.7 C 207.4 111.7 217.86 111.66 217.9 111.7 Z M 269.8 74.8 L 269.8 78.8 L 251.9 78.8 L 251.9 93.1 L 269.2 93.1 L 269.2 97.1 L 251.9 97.1 L 251.9 111.7 L 270.3 111.7 L 270.3 115.7 L 247.4 115.7 L 247.4 74.8 L 269.8 74.8 Z M 295.3 74.6 L 313.6 115.7 L 308.9 115.7 L 303.2 102.9 L 284.6 102.9 L 279.1 115.7 L 274.4 115.7 L 292.1 74.6 L 295.3 74.6 Z M 286.3 98.9 L 301.4 98.9 L 293.6 81.5 L 286.3 98.9 Z M 322.7 74.8 L 322.7 111.6 L 342 111.6 L 342 115.7 L 318.2 115.7 L 318.2 74.8 L 322.7 74.8 Z M 351.7 74.8 L 351.7 115.7 L 347.2 115.7 L 347.2 74.8 L 351.7 74.8 Z M 364.6 74.8 L 393.6 108.7 L 393.6 74.8 L 397.9 74.8 L 397.9 115.7 L 394 115.7 L 365.2 82 L 365.2 115.7 L 360.9 115.7 L 360.9 74.8 L 364.6 74.8 Z M 440.9 82.3 C 436.4 79.7 431.4 78.3 426.8 78.3 C 417.3 78.3 410 85.5 410 95.1 C 410 105.2 416.9 112.3 427.1 112.3 C 430.6 112.3 433 111.7 437.2 110.2 C 437.22 110.16 437.2 100.2 437.2 100.2 L 428.9 100.2 L 428.9 96.2 L 441.7 96.2 C 441.7 96.2 441.72 112.92 441.7 112.9 C 437 115.2 432.5 116.3 427.1 116.3 C 412.5 116.3 405.3 106 405.3 95.5 C 405.3 83.9 413.9 74.3 427 74.3 C 431.6 74.3 435.5 75.2 440.9 77.6 C 440.9 77.6 440.9 82.3 440.9 82.3 Z M 462.4 74.8 L 467 74.8 L 479.3 106 L 479.3 106 L 491.5 74.8 L 495.5 74.8 L 507.8 105.8 L 507.9 105.8 L 519.9 74.8 L 524.5 74.8 L 508.2 116 L 507.2 116 L 493.4 81.2 L 479.8 116 L 478.8 116 L 462.4 74.8 Z M 533.7 74.8 L 533.7 115.7 L 529.2 115.7 L 529.2 74.8 L 533.7 74.8 Z M 572.8 74.8 L 572.8 78.8 L 558.1 78.8 L 558.1 115.7 L 553.6 115.7 L 553.6 78.8 L 539.2 78.8 L 539.2 74.8 L 572.8 74.8 Z M 582.8 74.8 L 582.8 93.1 L 607.6 93.1 L 607.6 74.8 L 612.1 74.8 L 612.1 115.7 L 607.6 115.7 L 607.6 97.2 L 582.8 97.2 L 582.8 115.7 L 578.3 115.7 L 578.3 74.8 L 582.8 74.8 Z M 671.8 77.5 C 671.8 77.5 671.8 82.4 671.8 82.4 C 667.4 79.9 662.7 78.5 657.9 78.5 C 647.5 78.5 640.9 86.3 640.9 95.3 C 640.9 104.5 647.4 112.1 657.8 112.1 C 662.9 112.1 667.7 110.6 672.1 107.9 C 672.1 107.9 672.1 112.9 672.1 112.9 C 667.5 115.2 662.8 116.3 657.7 116.3 C 643.6 116.3 636.2 105.7 636.2 95.5 C 636.2 83.3 645.5 74.3 657.8 74.3 C 662.5 74.3 667.1 75.4 671.8 77.5 Z M 683.1 74.8 C 683.1 74.8 683.09 98.4 683.1 98.4 C 683.1 107.5 687.4 112.3 695.8 112.3 C 704.3 112.3 708.4 107.3 708.4 98.4 C 708.41 98.4 708.4 74.8 708.4 74.8 L 712.9 74.8 C 712.9 74.8 712.91 98.4 712.9 98.4 C 712.9 109.1 707.2 116.3 695.9 116.3 C 684.6 116.3 678.6 109.9 678.6 98.4 C 678.59 98.4 678.6 74.8 678.6 74.8 L 683.1 74.8 Z M 740.6 76.9 C 740.6 76.9 740.6 82 740.6 82 C 737.8 79.6 734.7 78.4 731.3 78.4 C 727 78.4 724.2 80.8 724.2 84.3 C 724.2 87 724.9 89.3 731.6 92.8 C 740.1 97.1 742.1 100.1 742.1 105.7 C 742.1 111.7 737.5 116.3 730.4 116.3 C 726.5 116.3 722.9 115 719.8 112.7 C 719.8 112.7 719.8 107 719.8 107 C 722.9 110.4 726.5 112.3 730.4 112.3 C 734.6 112.3 737.6 109.7 737.6 105.7 C 737.6 102.2 736.4 100.2 728.5 96.1 C 722.1 92.8 719.6 89.6 719.6 84.4 C 719.6 78.6 724.6 74.3 731.5 74.3 C 734.6 74.3 737.8 75.2 740.6 76.9 Z M 779 74.8 L 779 78.8 L 764.4 78.8 L 764.4 115.7 L 759.9 115.7 L 759.9 78.8 L 745.4 78.8 L 745.4 74.8 L 779 74.8 Z M 823.3 95.1 C 823.3 106.6 814.9 116.3 801.4 116.3 C 788.6 116.3 780.1 106.6 780.1 95.5 C 780.1 84.1 788.3 74.3 801.5 74.3 C 814.6 74.3 823.3 83.8 823.3 95.1 Z M 784.7 95.3 C 784.7 105 792.2 112.1 801.4 112 C 813.6 112 818.6 102.6 818.6 95.2 C 818.6 86.9 812.5 78.5 801.8 78.5 C 790.6 78.5 784.7 87 784.7 95.3 Z M 830.6 74.8 L 834.9 74.8 L 849.4 92.8 L 863.8 74.8 L 868 74.8 L 868 115.7 L 863.5 115.7 L 863.5 82 L 863.4 82 L 849.7 99.1 L 848.9 99.1 L 835.3 82 L 835.1 82 L 835.1 115.7 L 830.6 115.7 L 830.6 74.8 Z M 899.6 74.8 L 899.6 78.8 L 881.8 78.8 L 881.8 93.1 L 899 93.1 L 899 97.1 L 881.8 97.1 L 881.8 111.7 L 900.1 111.7 L 900.1 115.7 L 877.3 115.7 L 877.3 74.8 L 899.6 74.8 Z M 907.4 74.8 C 907.4 74.8 918.11 74.82 918.1 74.8 C 926.3 74.8 930.6 79.6 930.6 85.8 C 930.6 90.9 927.8 94.4 922.9 95.9 C 925.5 97.3 926.7 98.3 930.1 103.5 C 930.05 103.5 938 115.7 938 115.7 L 932.6 115.7 C 932.6 115.7 925.43 104.46 925.4 104.5 C 921.7 98.5 919.1 97.1 915.7 97.1 C 915.65 97.14 911.9 97.1 911.9 97.1 L 911.9 115.7 L 907.4 115.7 L 907.4 74.8 Z M 916.1 93.2 C 921.7 93.2 926 91.8 926 85.9 C 926 80.8 922.7 78.8 917.5 78.8 C 917.51 78.78 911.9 78.8 911.9 78.8 L 911.9 93.2 C 911.9 93.2 916.07 93.18 916.1 93.2 Z M 962.4 76.9 C 962.4 76.9 962.4 82 962.4 82 C 959.6 79.6 956.5 78.4 953.2 78.4 C 948.8 78.4 946 80.8 946 84.3 C 946 87 946.7 89.3 953.5 92.8 C 961.9 97.1 964 100.1 964 105.7 C 964 111.7 959.3 116.3 952.3 116.3 C 948.4 116.3 944.8 115 941.6 112.7 C 941.6 112.7 941.6 107 941.6 107 C 944.7 110.4 948.3 112.3 952.3 112.3 C 956.4 112.3 959.4 109.7 959.4 105.7 C 959.4 102.2 958.3 100.2 950.3 96.1 C 943.9 92.8 941.5 89.6 941.5 84.4 C 941.5 78.6 946.4 74.3 953.3 74.3 C 956.5 74.3 959.6 75.2 962.4 76.9 Z M 992.2 74.8 L 992.2 115.7 L 987.7 115.7 L 987.7 74.8 L 992.2 74.8 Z M 1005.1 74.8 L 1034 108.7 L 1034 74.8 L 1038.4 74.8 L 1038.4 115.7 L 1034.4 115.7 L 1005.7 82 L 1005.7 115.7 L 1001.3 115.7 L 1001.3 74.8 L 1005.1 74.8 Z M 1080.6 74.6 L 1098.8 115.7 L 1094.2 115.7 L 1088.5 102.9 L 1069.9 102.9 L 1064.3 115.7 L 1059.7 115.7 L 1077.4 74.6 L 1080.6 74.6 Z M 1071.6 98.9 L 1086.7 98.9 L 1078.9 81.5 L 1071.6 98.9 Z M 1103.5 74.8 C 1103.5 74.8 1114.25 74.82 1114.3 74.8 C 1122.5 74.8 1126.7 79.6 1126.7 85.8 C 1126.7 90.9 1124 94.4 1119 95.9 C 1121.6 97.3 1122.8 98.3 1126.2 103.5 C 1126.19 103.5 1134.1 115.7 1134.1 115.7 L 1128.8 115.7 C 1128.8 115.7 1121.57 104.46 1121.6 104.5 C 1117.8 98.5 1115.3 97.1 1111.8 97.1 C 1111.79 97.14 1108 97.1 1108 97.1 L 1108 115.7 L 1103.5 115.7 L 1103.5 74.8 Z M 1112.2 93.2 C 1117.9 93.2 1122.1 91.8 1122.1 85.9 C 1122.1 80.8 1118.9 78.8 1113.7 78.8 C 1113.65 78.78 1108 78.8 1108 78.8 L 1108 93.2 C 1108 93.2 1112.21 93.18 1112.2 93.2 Z M 1138.6 74.8 C 1138.6 74.8 1149.35 74.82 1149.3 74.8 C 1157.6 74.8 1161.8 79.6 1161.8 85.8 C 1161.8 90.9 1159.1 94.4 1154.1 95.9 C 1156.7 97.3 1157.9 98.3 1161.3 103.5 C 1161.29 103.5 1169.2 115.7 1169.2 115.7 L 1163.9 115.7 C 1163.9 115.7 1156.67 104.46 1156.7 104.5 C 1152.9 98.5 1150.4 97.1 1146.9 97.1 C 1146.89 97.14 1143.1 97.1 1143.1 97.1 L 1143.1 115.7 L 1138.6 115.7 L 1138.6 74.8 Z M 1147.3 93.2 C 1152.9 93.2 1157.2 91.8 1157.2 85.9 C 1157.2 80.8 1154 78.8 1148.7 78.8 C 1148.75 78.78 1143.1 78.8 1143.1 78.8 L 1143.1 93.2 C 1143.1 93.2 1147.31 93.18 1147.3 93.2 Z M 1196.1 74.8 L 1196.1 78.8 L 1178.2 78.8 L 1178.2 93.1 L 1195.5 93.1 L 1195.5 97.1 L 1178.2 97.1 L 1178.2 111.7 L 1196.6 111.7 L 1196.6 115.7 L 1173.7 115.7 L 1173.7 74.8 L 1196.1 74.8 Z M 1221.6 74.6 L 1239.8 115.7 L 1235.2 115.7 L 1229.4 102.9 L 1210.8 102.9 L 1205.3 115.7 L 1200.7 115.7 L 1218.4 74.6 L 1221.6 74.6 Z M 1212.6 98.9 L 1227.6 98.9 L 1219.9 81.5 L 1212.6 98.9 Z M 1244.5 74.8 C 1244.5 74.8 1255.25 74.82 1255.2 74.8 C 1263.5 74.8 1267.7 79.6 1267.7 85.8 C 1267.7 90.9 1265 94.4 1260 95.9 C 1262.6 97.3 1263.8 98.3 1267.2 103.5 C 1267.19 103.5 1275.1 115.7 1275.1 115.7 L 1269.8 115.7 C 1269.8 115.7 1262.57 104.46 1262.6 104.5 C 1258.8 98.5 1256.3 97.1 1252.8 97.1 C 1252.79 97.14 1249 97.1 1249 97.1 L 1249 115.7 L 1244.5 115.7 L 1244.5 74.8 Z M 1253.2 93.2 C 1258.8 93.2 1263.1 91.8 1263.1 85.9 C 1263.1 80.8 1259.9 78.8 1254.6 78.8 C 1254.65 78.78 1249 78.8 1249 78.8 L 1249 93.2 C 1249 93.2 1253.21 93.18 1253.2 93.2 Z M 1299.5 76.9 C 1299.5 76.9 1299.5 82 1299.5 82 C 1296.7 79.6 1293.6 78.4 1290.3 78.4 C 1286 78.4 1283.1 80.8 1283.1 84.3 C 1283.1 87 1283.8 89.3 1290.6 92.8 C 1299 97.1 1301.1 100.1 1301.1 105.7 C 1301.1 111.7 1296.4 116.3 1289.4 116.3 C 1285.5 116.3 1281.9 115 1278.8 112.7 C 1278.8 112.7 1278.8 107 1278.8 107 C 1281.8 110.4 1285.4 112.3 1289.4 112.3 C 1293.5 112.3 1296.5 109.7 1296.5 105.7 C 1296.5 102.2 1295.4 100.2 1287.5 96.1 C 1281 92.8 1278.6 89.6 1278.6 84.4 C 1278.6 78.6 1283.6 74.3 1290.4 74.3 C 1293.6 74.3 1296.8 75.2 1299.5 76.9 Z " stroke="none" fill="#010102"/>  </g>  <g id="Polygon18848">    <path d="M 21 2.6 L 39.2 43.7 L 34.6 43.7 L 28.9 30.9 L 10.3 30.9 L 4.7 43.7 L 0.1 43.7 L 17.8 2.6 L 21 2.6 Z M 12 26.9 L 27.1 26.9 L 19.3 9.5 L 12 26.9 Z M 43.9 2.8 C 43.9 2.8 58.98 2.82 59 2.8 C 72.4 2.8 81 11.2 81 22.9 C 81 35.6 72 43.7 59 43.7 C 58.98 43.74 43.9 43.7 43.9 43.7 L 43.9 2.8 Z M 58.9 39.7 C 69.7 39.7 76.3 33.3 76.3 23.2 C 76.3 13.3 69.8 6.8 58.3 6.8 C 58.26 6.84 48.4 6.8 48.4 6.8 L 48.4 39.7 C 48.4 39.7 58.92 39.66 58.9 39.7 Z M 82.2 2.8 L 86.7 2.8 L 100 34.7 L 100.1 34.7 L 113.3 2.8 L 117.8 2.8 L 100.6 44.2 L 99.5 44.2 L 82.2 2.8 Z M 135.5 2.6 L 153.7 43.7 L 149.1 43.7 L 143.3 30.9 L 124.7 30.9 L 119.2 43.7 L 114.6 43.7 L 132.3 2.6 L 135.5 2.6 Z M 126.5 26.9 L 141.5 26.9 L 133.8 9.5 L 126.5 26.9 Z M 162.1 2.8 L 191.1 36.7 L 191.1 2.8 L 195.4 2.8 L 195.4 43.7 L 191.5 43.7 L 162.7 10 L 162.7 43.7 L 158.4 43.7 L 158.4 2.8 L 162.1 2.8 Z M 238.4 5.5 C 238.4 5.5 238.4 10.4 238.4 10.4 C 234.1 7.9 229.3 6.5 224.5 6.5 C 214.1 6.5 207.5 14.3 207.5 23.3 C 207.5 32.5 214 40.1 224.5 40.1 C 229.6 40.1 234.3 38.6 238.7 35.9 C 238.7 35.9 238.7 40.9 238.7 40.9 C 234.1 43.2 229.4 44.3 224.3 44.3 C 210.2 44.3 202.8 33.7 202.8 23.5 C 202.8 11.3 212.2 2.3 224.5 2.3 C 229.1 2.3 233.8 3.4 238.4 5.5 Z M 268.1 2.8 L 268.1 6.8 L 250.3 6.8 L 250.3 21.1 L 267.5 21.1 L 267.5 25.1 L 250.3 25.1 L 250.3 39.7 L 268.6 39.7 L 268.6 43.7 L 245.8 43.7 L 245.8 2.8 L 268.1 2.8 Z M 275.9 2.8 C 275.9 2.8 290.94 2.82 290.9 2.8 C 304.3 2.8 313 11.2 313 22.9 C 313 35.6 304 43.7 290.9 43.7 C 290.94 43.74 275.9 43.7 275.9 43.7 L 275.9 2.8 Z M 290.9 39.7 C 301.6 39.7 308.3 33.3 308.3 23.2 C 308.3 13.3 301.8 6.8 290.2 6.8 C 290.22 6.84 280.4 6.8 280.4 6.8 L 280.4 39.7 C 280.4 39.7 290.88 39.66 290.9 39.7 Z M 348.3 2.8 C 356.5 2.8 361.5 7 361.5 14.1 C 361.5 21.7 356.3 25.3 347.6 25.3 C 347.56 25.32 341.2 25.3 341.2 25.3 L 341.2 43.7 L 336.7 43.7 L 336.7 2.8 C 336.7 2.8 348.34 2.82 348.3 2.8 Z M 341.2 21.4 C 341.2 21.4 347.44 21.36 347.4 21.4 C 354.3 21.4 356.9 18.7 356.9 14 C 356.9 9.4 354.1 6.8 347.4 6.8 C 347.44 6.78 341.2 6.8 341.2 6.8 L 341.2 21.4 Z M 367.8 2.8 C 367.8 2.8 378.58 2.82 378.6 2.8 C 386.8 2.8 391.1 7.6 391.1 13.8 C 391.1 18.9 388.3 22.4 383.3 23.9 C 386 25.3 387.2 26.3 390.5 31.5 C 390.52 31.5 398.4 43.7 398.4 43.7 L 393.1 43.7 C 393.1 43.7 385.9 32.46 385.9 32.5 C 382.1 26.5 379.6 25.1 376.1 25.1 C 376.12 25.14 372.3 25.1 372.3 25.1 L 372.3 43.7 L 367.8 43.7 L 367.8 2.8 Z M 376.5 21.2 C 382.2 21.2 386.4 19.8 386.4 13.9 C 386.4 8.8 383.2 6.8 378 6.8 C 377.98 6.78 372.3 6.8 372.3 6.8 L 372.3 21.2 C 372.3 21.2 376.54 21.18 376.5 21.2 Z M 443.1 23.1 C 443.1 34.6 434.7 44.3 421.2 44.3 C 408.5 44.3 399.9 34.6 399.9 23.5 C 399.9 12.1 408.1 2.3 421.4 2.3 C 434.4 2.3 443.1 11.8 443.1 23.1 Z M 404.6 23.3 C 404.6 33 412.1 40.1 421.2 40 C 433.4 40 438.4 30.6 438.4 23.2 C 438.4 14.9 432.3 6.5 421.6 6.5 C 410.4 6.5 404.6 15 404.6 23.3 Z M 461 2.8 C 468.6 2.8 473.7 6.7 473.7 13.3 C 473.7 17.6 471.3 20.8 466.9 22.3 C 473.3 23.2 477.2 27.4 477.2 32.8 C 477.2 40.3 470.4 43.7 462.9 43.7 C 462.94 43.74 450.5 43.7 450.5 43.7 L 450.5 2.8 C 450.5 2.8 461.02 2.82 461 2.8 Z M 454.9 21 C 454.9 21 459.4 21 459.4 21 C 466.1 21 469 17.9 469 13.7 C 469 8.9 466.2 6.8 460.1 6.8 C 460.12 6.78 454.9 6.8 454.9 6.8 L 454.9 21 Z M 462.1 39.8 C 468.6 39.8 472.5 37.6 472.5 32.4 C 472.5 27.7 469.2 24.9 461.4 24.9 C 461.44 24.9 454.9 24.9 454.9 24.9 L 454.9 39.8 C 454.9 39.8 462.1 39.78 462.1 39.8 Z M 488.4 2.8 L 488.4 39.6 L 507.6 39.6 L 507.6 43.7 L 483.9 43.7 L 483.9 2.8 L 488.4 2.8 Z M 535.2 2.8 L 535.2 6.8 L 517.4 6.8 L 517.4 21.1 L 534.6 21.1 L 534.6 25.1 L 517.4 25.1 L 517.4 39.7 L 535.7 39.7 L 535.7 43.7 L 512.9 43.7 L 512.9 2.8 L 535.2 2.8 Z M 543 2.8 L 547.2 2.8 L 561.7 20.8 L 576.1 2.8 L 580.4 2.8 L 580.4 43.7 L 575.9 43.7 L 575.9 10 L 575.7 10 L 562.1 27.1 L 561.3 27.1 L 547.6 10 L 547.5 10 L 547.5 43.7 L 543 43.7 L 543 2.8 Z M 624.8 4.9 C 624.8 4.9 624.8 10 624.8 10 C 622 7.6 618.9 6.4 615.6 6.4 C 611.2 6.4 608.4 8.8 608.4 12.3 C 608.4 15 609.1 17.3 615.9 20.8 C 624.3 25.1 626.4 28.1 626.4 33.7 C 626.4 39.7 621.7 44.3 614.7 44.3 C 610.8 44.3 607.2 43 604 40.7 C 604 40.7 604 35 604 35 C 607.1 38.4 610.7 40.3 614.7 40.3 C 618.8 40.3 621.8 37.7 621.8 33.7 C 621.8 30.2 620.7 28.2 612.7 24.1 C 606.3 20.8 603.9 17.6 603.9 12.4 C 603.9 6.6 608.8 2.3 615.7 2.3 C 618.9 2.3 622 3.2 624.8 4.9 Z M 674.7 23.1 C 674.7 34.6 666.3 44.3 652.8 44.3 C 640.1 44.3 631.6 34.6 631.6 23.5 C 631.6 12.1 639.7 2.3 653 2.3 C 666.1 2.3 674.7 11.8 674.7 23.1 Z M 636.2 23.3 C 636.2 33 643.7 40.1 652.9 40 C 665.1 40 670 30.6 670 23.2 C 670 14.9 663.9 6.5 653.2 6.5 C 642.1 6.5 636.2 15 636.2 23.3 Z M 686.6 2.8 L 686.6 39.6 L 705.9 39.6 L 705.9 43.7 L 682.1 43.7 L 682.1 2.8 L 686.6 2.8 Z M 701.2 2.8 L 705.7 2.8 L 719.1 34.7 L 719.1 34.7 L 732.4 2.8 L 736.9 2.8 L 719.6 44.2 L 718.6 44.2 L 701.2 2.8 Z M 746.1 2.8 L 746.1 43.7 L 741.6 43.7 L 741.6 2.8 L 746.1 2.8 Z M 759 2.8 L 787.9 36.7 L 787.9 2.8 L 792.3 2.8 L 792.3 43.7 L 788.3 43.7 L 759.6 10 L 759.6 43.7 L 755.2 43.7 L 755.2 2.8 L 759 2.8 Z M 835.2 10.3 C 830.7 7.7 825.7 6.3 821.1 6.3 C 811.6 6.3 804.3 13.5 804.3 23.1 C 804.3 33.2 811.3 40.3 821.5 40.3 C 824.9 40.3 827.4 39.7 831.6 38.2 C 831.56 38.16 831.6 28.2 831.6 28.2 L 823.2 28.2 L 823.2 24.2 L 836.1 24.2 C 836.1 24.2 836.06 40.92 836.1 40.9 C 831.4 43.2 826.8 44.3 821.5 44.3 C 806.8 44.3 799.6 34 799.6 23.5 C 799.6 11.9 808.2 2.3 821.3 2.3 C 826 2.3 829.8 3.2 835.2 5.6 C 835.2 5.6 835.2 10.3 835.2 10.3 Z M 877.3 2.6 L 895.5 43.7 L 890.9 43.7 L 885.1 30.9 L 866.5 30.9 L 861 43.7 L 856.4 43.7 L 874.1 2.6 L 877.3 2.6 Z M 868.3 26.9 L 883.3 26.9 L 875.6 9.5 L 868.3 26.9 Z M 903.9 2.8 L 932.9 36.7 L 932.9 2.8 L 937.2 2.8 L 937.2 43.7 L 933.2 43.7 L 904.5 10 L 904.5 43.7 L 900.2 43.7 L 900.2 2.8 L 903.9 2.8 Z M 946.4 2.8 C 946.4 2.8 961.44 2.82 961.4 2.8 C 974.8 2.8 983.5 11.2 983.5 22.9 C 983.5 35.6 974.5 43.7 961.4 43.7 C 961.44 43.74 946.4 43.7 946.4 43.7 L 946.4 2.8 Z M 961.4 39.7 C 972.1 39.7 978.8 33.3 978.8 23.2 C 978.8 13.3 972.3 6.8 960.7 6.8 C 960.72 6.84 950.9 6.8 950.9 6.8 L 950.9 39.7 C 950.9 39.7 961.38 39.66 961.4 39.7 Z M 1007.2 2.8 C 1007.2 2.8 1022.26 2.82 1022.3 2.8 C 1035.6 2.8 1044.3 11.2 1044.3 22.9 C 1044.3 35.6 1035.3 43.7 1022.3 43.7 C 1022.26 43.74 1007.2 43.7 1007.2 43.7 L 1007.2 2.8 Z M 1022.2 39.7 C 1032.9 39.7 1039.6 33.3 1039.6 23.2 C 1039.6 13.3 1033.1 6.8 1021.5 6.8 C 1021.54 6.84 1011.7 6.8 1011.7 6.8 L 1011.7 39.7 C 1011.7 39.7 1022.2 39.66 1022.2 39.7 Z M 1074.2 2.8 L 1074.2 6.8 L 1056.3 6.8 L 1056.3 21.1 L 1073.6 21.1 L 1073.6 25.1 L 1056.3 25.1 L 1056.3 39.7 L 1074.6 39.7 L 1074.6 43.7 L 1051.8 43.7 L 1051.8 2.8 L 1074.2 2.8 Z M 1115.7 5.5 C 1115.7 5.5 1115.7 10.4 1115.7 10.4 C 1111.4 7.9 1106.6 6.5 1101.8 6.5 C 1091.4 6.5 1084.8 14.3 1084.8 23.3 C 1084.8 32.5 1091.3 40.1 1101.8 40.1 C 1106.9 40.1 1111.6 38.6 1116 35.9 C 1116 35.9 1116 40.9 1116 40.9 C 1111.4 43.2 1106.7 44.3 1101.6 44.3 C 1087.5 44.3 1080.1 33.7 1080.1 23.5 C 1080.1 11.3 1089.5 2.3 1101.8 2.3 C 1106.4 2.3 1111.1 3.4 1115.7 5.5 Z M 1127.6 2.8 L 1127.6 43.7 L 1123.1 43.7 L 1123.1 2.8 L 1127.6 2.8 Z M 1156.4 4.9 C 1156.4 4.9 1156.4 10 1156.4 10 C 1153.6 7.6 1150.5 6.4 1147.2 6.4 C 1142.9 6.4 1140 8.8 1140 12.3 C 1140 15 1140.7 17.3 1147.5 20.8 C 1155.9 25.1 1158 28.1 1158 33.7 C 1158 39.7 1153.3 44.3 1146.3 44.3 C 1142.4 44.3 1138.8 43 1135.7 40.7 C 1135.7 40.7 1135.7 35 1135.7 35 C 1138.7 38.4 1142.3 40.3 1146.3 40.3 C 1150.4 40.3 1153.4 37.7 1153.4 33.7 C 1153.4 30.2 1152.3 28.2 1144.4 24.1 C 1137.9 20.8 1135.5 17.6 1135.5 12.4 C 1135.5 6.6 1140.5 2.3 1147.3 2.3 C 1150.5 2.3 1153.7 3.2 1156.4 4.9 Z M 1169.5 2.8 L 1169.5 43.7 L 1165 43.7 L 1165 2.8 L 1169.5 2.8 Z M 1220 23.1 C 1220 34.6 1211.6 44.3 1198.1 44.3 C 1185.4 44.3 1176.9 34.6 1176.9 23.5 C 1176.9 12.1 1185 2.3 1198.3 2.3 C 1211.4 2.3 1220 11.8 1220 23.1 Z M 1181.5 23.3 C 1181.5 33 1189 40.1 1198.2 40 C 1210.4 40 1215.3 30.6 1215.3 23.2 C 1215.3 14.9 1209.2 6.5 1198.5 6.5 C 1187.4 6.5 1181.5 15 1181.5 23.3 Z M 1231.1 2.8 L 1260.1 36.7 L 1260.1 2.8 L 1264.4 2.8 L 1264.4 43.7 L 1260.5 43.7 L 1231.7 10 L 1231.7 43.7 L 1227.4 43.7 L 1227.4 2.8 L 1231.1 2.8 Z M 1289.8 2.8 L 1294.1 2.8 L 1308.6 20.8 L 1323 2.8 L 1327.2 2.8 L 1327.2 43.7 L 1322.7 43.7 L 1322.7 10 L 1322.6 10 L 1308.9 27.1 L 1308.1 27.1 L 1294.5 10 L 1294.3 10 L 1294.3 43.7 L 1289.8 43.7 L 1289.8 2.8 Z M 1352.8 2.6 L 1371.1 43.7 L 1366.5 43.7 L 1360.7 30.9 L 1342.1 30.9 L 1336.6 43.7 L 1332 43.7 L 1349.7 2.6 L 1352.8 2.6 Z M 1343.8 26.9 L 1358.9 26.9 L 1351.2 9.5 L 1343.8 26.9 Z M 1380.3 2.8 L 1380.3 22 L 1398.2 2.8 L 1403.8 2.8 L 1385.5 22.5 L 1407.4 43.7 L 1401.3 43.7 L 1380.3 23.4 L 1380.3 43.7 L 1375.8 43.7 L 1375.8 2.8 L 1380.3 2.8 Z M 1416.4 2.8 L 1416.4 43.7 L 1411.9 43.7 L 1411.9 2.8 L 1416.4 2.8 Z M 1429.3 2.8 L 1458.3 36.7 L 1458.3 2.8 L 1462.6 2.8 L 1462.6 43.7 L 1458.6 43.7 L 1429.9 10 L 1429.9 43.7 L 1425.6 43.7 L 1425.6 2.8 L 1429.3 2.8 Z M 1505.5 10.3 C 1501 7.7 1496.1 6.3 1491.4 6.3 C 1482 6.3 1474.6 13.5 1474.6 23.1 C 1474.6 33.2 1481.6 40.3 1491.8 40.3 C 1495.2 40.3 1497.7 39.7 1501.9 38.2 C 1501.88 38.16 1501.9 28.2 1501.9 28.2 L 1493.5 28.2 L 1493.5 24.2 L 1506.4 24.2 C 1506.4 24.2 1506.38 40.92 1506.4 40.9 C 1501.7 43.2 1497.1 44.3 1491.8 44.3 C 1477.2 44.3 1470 34 1470 23.5 C 1470 11.9 1478.5 2.3 1491.6 2.3 C 1496.3 2.3 1500.1 3.2 1505.5 5.6 C 1505.5 5.6 1505.5 10.3 1505.5 10.3 Z " stroke="none" fill="#010102"/>  </g></svg>