<?xml version="1.0" standalone="no"?><!DOCTYPE svg PUBLIC "-//W3C//DTD SVG 1.1//EN" "http://www.w3.org/Graphics/SVG/1.1/DTD/svg11.dtd"><svg xmlns="http://www.w3.org/2000/svg" version="1.1" width="850.1px" height="253.5px" viewBox="0 -1 850.1 253.5" style="top:-1px">  <desc>Case Studies</desc>  <defs/>  <g id="Polygon5830">    <path d="M 212 105.3 C 212 105.3 212 109.3 212 109.3 C 208.4 107.3 204.5 106.1 200.5 106.1 C 191.8 106.1 186.3 112.6 186.3 120.1 C 186.3 127.8 191.7 134.1 200.4 134.1 C 204.6 134.1 208.6 132.9 212.3 130.6 C 212.3 130.6 212.3 134.7 212.3 134.7 C 208.5 136.7 204.5 137.6 200.3 137.6 C 188.5 137.6 182.4 128.7 182.4 120.2 C 182.4 110.1 190.2 102.6 200.4 102.6 C 204.3 102.6 208.1 103.5 212 105.3 Z M 232.6 102.8 L 247.8 137.1 L 243.9 137.1 L 239.1 126.4 L 223.6 126.4 L 219 137.1 L 215.2 137.1 L 229.9 102.8 L 232.6 102.8 Z M 225.1 123.1 L 237.6 123.1 L 231.2 108.6 L 225.1 123.1 Z M 268.3 104.8 C 268.3 104.8 268.3 109 268.3 109 C 265.9 107 263.4 106 260.6 106 C 257 106 254.6 108 254.6 110.9 C 254.6 113.2 255.2 115.1 260.8 118 C 267.9 121.6 269.6 124.1 269.6 128.7 C 269.6 133.8 265.7 137.6 259.8 137.6 C 256.6 137.6 253.6 136.5 251 134.6 C 251 134.6 251 129.9 251 129.9 C 253.5 132.7 256.5 134.2 259.8 134.2 C 263.3 134.2 265.8 132.1 265.8 128.8 C 265.8 125.9 264.8 124.2 258.2 120.7 C 252.9 118 250.8 115.4 250.8 111 C 250.8 106.2 255 102.6 260.7 102.6 C 263.3 102.6 266 103.3 268.3 104.8 Z M 294.1 103 L 294.1 106.4 L 279.2 106.4 L 279.2 118.3 L 293.6 118.3 L 293.6 121.6 L 279.2 121.6 L 279.2 133.7 L 294.5 133.7 L 294.5 137.1 L 275.4 137.1 L 275.4 103 L 294.1 103 Z M 330.2 104.8 C 330.2 104.8 330.2 109 330.2 109 C 327.9 107 325.3 106 322.5 106 C 318.9 106 316.6 108 316.6 110.9 C 316.6 113.2 317.1 115.1 322.8 118 C 329.8 121.6 331.5 124.1 331.5 128.7 C 331.5 133.8 327.6 137.6 321.8 137.6 C 318.5 137.6 315.5 136.5 312.9 134.6 C 312.9 134.6 312.9 129.9 312.9 129.9 C 315.5 132.7 318.5 134.2 321.8 134.2 C 325.2 134.2 327.7 132.1 327.7 128.8 C 327.7 125.9 326.8 124.2 320.2 120.7 C 314.8 118 312.8 115.4 312.8 111 C 312.8 106.2 316.9 102.6 322.6 102.6 C 325.3 102.6 327.9 103.3 330.2 104.8 Z M 362.3 103 L 362.3 106.3 L 350.1 106.3 L 350.1 137.1 L 346.3 137.1 L 346.3 106.3 L 334.3 106.3 L 334.3 103 L 362.3 103 Z M 370.2 103 C 370.2 103 370.2 122.69 370.2 122.7 C 370.2 130.2 373.7 134.2 380.7 134.2 C 387.8 134.2 391.3 130.1 391.3 122.7 C 391.3 122.69 391.3 103 391.3 103 L 395 103 C 395 103 395.05 122.69 395 122.7 C 395 131.6 390.3 137.6 380.8 137.6 C 371.4 137.6 366.4 132.2 366.4 122.7 C 366.45 122.69 366.4 103 366.4 103 L 370.2 103 Z M 402.3 103 C 402.3 103 414.85 103.04 414.8 103 C 426 103 433.2 110 433.2 119.7 C 433.2 130.3 425.7 137.1 414.8 137.1 C 414.85 137.14 402.3 137.1 402.3 137.1 L 402.3 103 Z M 414.8 133.7 C 423.7 133.7 429.3 128.4 429.3 120 C 429.3 111.8 423.9 106.4 414.2 106.4 C 414.25 106.39 406 106.4 406 106.4 L 406 133.7 C 406 133.7 414.8 133.74 414.8 133.7 Z M 443.2 103 L 443.2 137.1 L 439.4 137.1 L 439.4 103 L 443.2 103 Z M 469.5 103 L 469.5 106.4 L 454.6 106.4 L 454.6 118.3 L 469 118.3 L 469 121.6 L 454.6 121.6 L 454.6 133.7 L 469.9 133.7 L 469.9 137.1 L 450.8 137.1 L 450.8 103 L 469.5 103 Z M 491.7 104.8 C 491.7 104.8 491.7 109 491.7 109 C 489.4 107 486.8 106 484 106 C 480.4 106 478.1 108 478.1 110.9 C 478.1 113.2 478.6 115.1 484.3 118 C 491.3 121.6 493 124.1 493 128.7 C 493 133.8 489.1 137.6 483.3 137.6 C 480 137.6 477 136.5 474.4 134.6 C 474.4 134.6 474.4 129.9 474.4 129.9 C 477 132.7 480 134.2 483.3 134.2 C 486.7 134.2 489.2 132.1 489.2 128.8 C 489.2 125.9 488.3 124.2 481.7 120.7 C 476.3 118 474.3 115.4 474.3 111 C 474.3 106.2 478.4 102.6 484.1 102.6 C 486.8 102.6 489.4 103.3 491.7 104.8 Z " stroke="none" fill="#010102"/>  </g></svg>