<?xml version="1.0" standalone="no"?><!DOCTYPE svg PUBLIC "-//W3C//DTD SVG 1.1//EN" "http://www.w3.org/Graphics/SVG/1.1/DTD/svg11.dtd"><svg xmlns="http://www.w3.org/2000/svg" version="1.1" width="702.1px" height="181.5px" viewBox="0 -1 702.1 181.5" style="top:-1px">  <desc>About</desc>  <defs/>  <g id="Polygon7281">    <path d="M 197.5 66.9 L 212.7 101.2 L 208.9 101.2 L 204.1 90.5 L 188.6 90.5 L 184 101.2 L 180.1 101.2 L 194.9 66.9 L 197.5 66.9 Z M 190 87.1 L 202.6 87.1 L 196.1 72.6 L 190 87.1 Z M 225.4 67.1 C 231.7 67.1 235.9 70.3 235.9 75.8 C 235.9 79.4 233.9 82 230.3 83.3 C 235.6 84 238.8 87.5 238.8 92 C 238.8 98.3 233.2 101.2 227 101.2 C 227 101.18 216.6 101.2 216.6 101.2 L 216.6 67.1 C 216.6 67.1 225.4 67.08 225.4 67.1 Z M 220.3 82.2 C 220.3 82.2 224.05 82.23 224 82.2 C 229.6 82.2 232 79.6 232 76.1 C 232 72.2 229.7 70.4 224.6 70.4 C 224.65 70.38 220.3 70.4 220.3 70.4 L 220.3 82.2 Z M 226.3 97.9 C 231.7 97.9 234.9 96 234.9 91.7 C 234.9 87.8 232.2 85.5 225.7 85.5 C 225.75 85.48 220.3 85.5 220.3 85.5 L 220.3 97.9 C 220.3 97.9 226.3 97.88 226.3 97.9 Z M 278.3 84 C 278.3 93.5 271.3 101.6 260 101.6 C 249.4 101.6 242.3 93.6 242.3 84.3 C 242.3 74.8 249.1 66.6 260.2 66.6 C 271.1 66.6 278.3 74.5 278.3 84 Z M 246.2 84.2 C 246.2 92.2 252.4 98.1 260.1 98.1 C 270.2 98.1 274.4 90.2 274.4 84.1 C 274.4 77.2 269.3 70.2 260.4 70.2 C 251.1 70.2 246.2 77.2 246.2 84.2 Z M 287.7 67.1 C 287.7 67.1 287.75 86.73 287.7 86.7 C 287.7 94.3 291.3 98.3 298.3 98.3 C 305.4 98.3 308.8 94.1 308.8 86.7 C 308.85 86.73 308.8 67.1 308.8 67.1 L 312.6 67.1 C 312.6 67.1 312.6 86.73 312.6 86.7 C 312.6 95.7 307.8 101.6 298.4 101.6 C 289 101.6 284 96.3 284 86.7 C 284 86.73 284 67.1 284 67.1 L 287.7 67.1 Z M 344.7 67.1 L 344.7 70.4 L 332.5 70.4 L 332.5 101.2 L 328.8 101.2 L 328.8 70.4 L 316.7 70.4 L 316.7 67.1 L 344.7 67.1 Z " stroke="none" fill="#000000"/>  </g></svg>