<?xml version="1.0" standalone="no"?><!DOCTYPE svg PUBLIC "-//W3C//DTD SVG 1.1//EN" "http://www.w3.org/Graphics/SVG/1.1/DTD/svg11.dtd"><svg xmlns="http://www.w3.org/2000/svg" version="1.1" width="1512px" height="162.3px" viewBox="0 -14 1512 162.3" style="top:-14px">  <desc>Advanced Problem Solving And Decision Making When Dealing With Customers In Arrears</desc>  <defs/>  <g id="Polygon15928">    <path d="M 0.1 74.8 L 4.6 74.8 L 16.9 106 L 17 106 L 29.1 74.8 L 33.1 74.8 L 45.5 105.8 L 45.5 105.8 L 57.5 74.8 L 62.1 74.8 L 45.8 116 L 44.9 116 L 31.1 81.2 L 17.4 116 L 16.4 116 L 0.1 74.8 Z M 71.3 74.8 L 71.3 93.1 L 96.2 93.1 L 96.2 74.8 L 100.7 74.8 L 100.7 115.7 L 96.2 115.7 L 96.2 97.2 L 71.3 97.2 L 71.3 115.7 L 66.8 115.7 L 66.8 74.8 L 71.3 74.8 Z M 132.2 74.8 L 132.2 78.8 L 114.4 78.8 L 114.4 93.1 L 131.6 93.1 L 131.6 97.1 L 114.4 97.1 L 114.4 111.7 L 132.7 111.7 L 132.7 115.7 L 109.9 115.7 L 109.9 74.8 L 132.2 74.8 Z M 143.7 74.8 L 172.7 108.7 L 172.7 74.8 L 177 74.8 L 177 115.7 L 173 115.7 L 144.3 82 L 144.3 115.7 L 140 115.7 L 140 74.8 L 143.7 74.8 Z M 202.9 74.8 C 202.9 74.8 217.92 74.82 217.9 74.8 C 231.3 74.8 239.9 83.2 239.9 94.9 C 239.9 107.6 230.9 115.7 217.9 115.7 C 217.92 115.74 202.9 115.7 202.9 115.7 L 202.9 74.8 Z M 217.9 111.7 C 228.6 111.7 235.3 105.3 235.3 95.2 C 235.3 85.3 228.8 78.8 217.2 78.8 C 217.2 78.84 207.4 78.8 207.4 78.8 L 207.4 111.7 C 207.4 111.7 217.86 111.66 217.9 111.7 Z M 269.8 74.8 L 269.8 78.8 L 251.9 78.8 L 251.9 93.1 L 269.2 93.1 L 269.2 97.1 L 251.9 97.1 L 251.9 111.7 L 270.3 111.7 L 270.3 115.7 L 247.4 115.7 L 247.4 74.8 L 269.8 74.8 Z M 295.3 74.6 L 313.6 115.7 L 308.9 115.7 L 303.2 102.9 L 284.6 102.9 L 279.1 115.7 L 274.4 115.7 L 292.1 74.6 L 295.3 74.6 Z M 286.3 98.9 L 301.4 98.9 L 293.6 81.5 L 286.3 98.9 Z M 322.7 74.8 L 322.7 111.6 L 342 111.6 L 342 115.7 L 318.2 115.7 L 318.2 74.8 L 322.7 74.8 Z M 351.7 74.8 L 351.7 115.7 L 347.2 115.7 L 347.2 74.8 L 351.7 74.8 Z M 364.6 74.8 L 393.6 108.7 L 393.6 74.8 L 397.9 74.8 L 397.9 115.7 L 394 115.7 L 365.2 82 L 365.2 115.7 L 360.9 115.7 L 360.9 74.8 L 364.6 74.8 Z M 440.9 82.3 C 436.4 79.7 431.4 78.3 426.8 78.3 C 417.3 78.3 410 85.5 410 95.1 C 410 105.2 416.9 112.3 427.1 112.3 C 430.6 112.3 433 111.7 437.2 110.2 C 437.22 110.16 437.2 100.2 437.2 100.2 L 428.9 100.2 L 428.9 96.2 L 441.7 96.2 C 441.7 96.2 441.72 112.92 441.7 112.9 C 437 115.2 432.5 116.3 427.1 116.3 C 412.5 116.3 405.3 106 405.3 95.5 C 405.3 83.9 413.9 74.3 427 74.3 C 431.6 74.3 435.5 75.2 440.9 77.6 C 440.9 77.6 440.9 82.3 440.9 82.3 Z M 462.4 74.8 L 467 74.8 L 479.3 106 L 479.3 106 L 491.5 74.8 L 495.5 74.8 L 507.8 105.8 L 507.9 105.8 L 519.9 74.8 L 524.5 74.8 L 508.2 116 L 507.2 116 L 493.4 81.2 L 479.8 116 L 478.8 116 L 462.4 74.8 Z M 533.7 74.8 L 533.7 115.7 L 529.2 115.7 L 529.2 74.8 L 533.7 74.8 Z M 572.8 74.8 L 572.8 78.8 L 558.1 78.8 L 558.1 115.7 L 553.6 115.7 L 553.6 78.8 L 539.2 78.8 L 539.2 74.8 L 572.8 74.8 Z M 582.8 74.8 L 582.8 93.1 L 607.6 93.1 L 607.6 74.8 L 612.1 74.8 L 612.1 115.7 L 607.6 115.7 L 607.6 97.2 L 582.8 97.2 L 582.8 115.7 L 578.3 115.7 L 578.3 74.8 L 582.8 74.8 Z M 671.8 77.5 C 671.8 77.5 671.8 82.4 671.8 82.4 C 667.4 79.9 662.7 78.5 657.9 78.5 C 647.5 78.5 640.9 86.3 640.9 95.3 C 640.9 104.5 647.4 112.1 657.8 112.1 C 662.9 112.1 667.7 110.6 672.1 107.9 C 672.1 107.9 672.1 112.9 672.1 112.9 C 667.5 115.2 662.8 116.3 657.7 116.3 C 643.6 116.3 636.2 105.7 636.2 95.5 C 636.2 83.3 645.5 74.3 657.8 74.3 C 662.5 74.3 667.1 75.4 671.8 77.5 Z M 683.1 74.8 C 683.1 74.8 683.09 98.4 683.1 98.4 C 683.1 107.5 687.4 112.3 695.8 112.3 C 704.3 112.3 708.4 107.3 708.4 98.4 C 708.41 98.4 708.4 74.8 708.4 74.8 L 712.9 74.8 C 712.9 74.8 712.91 98.4 712.9 98.4 C 712.9 109.1 707.2 116.3 695.9 116.3 C 684.6 116.3 678.6 109.9 678.6 98.4 C 678.59 98.4 678.6 74.8 678.6 74.8 L 683.1 74.8 Z M 740.6 76.9 C 740.6 76.9 740.6 82 740.6 82 C 737.8 79.6 734.7 78.4 731.3 78.4 C 727 78.4 724.2 80.8 724.2 84.3 C 724.2 87 724.9 89.3 731.6 92.8 C 740.1 97.1 742.1 100.1 742.1 105.7 C 742.1 111.7 737.5 116.3 730.4 116.3 C 726.5 116.3 722.9 115 719.8 112.7 C 719.8 112.7 719.8 107 719.8 107 C 722.9 110.4 726.5 112.3 730.4 112.3 C 734.6 112.3 737.6 109.7 737.6 105.7 C 737.6 102.2 736.4 100.2 728.5 96.1 C 722.1 92.8 719.6 89.6 719.6 84.4 C 719.6 78.6 724.6 74.3 731.5 74.3 C 734.6 74.3 737.8 75.2 740.6 76.9 Z M 779 74.8 L 779 78.8 L 764.4 78.8 L 764.4 115.7 L 759.9 115.7 L 759.9 78.8 L 745.4 78.8 L 745.4 74.8 L 779 74.8 Z M 823.3 95.1 C 823.3 106.6 814.9 116.3 801.4 116.3 C 788.6 116.3 780.1 106.6 780.1 95.5 C 780.1 84.1 788.3 74.3 801.5 74.3 C 814.6 74.3 823.3 83.8 823.3 95.1 Z M 784.7 95.3 C 784.7 105 792.2 112.1 801.4 112 C 813.6 112 818.6 102.6 818.6 95.2 C 818.6 86.9 812.5 78.5 801.8 78.5 C 790.6 78.5 784.7 87 784.7 95.3 Z M 830.6 74.8 L 834.9 74.8 L 849.4 92.8 L 863.8 74.8 L 868 74.8 L 868 115.7 L 863.5 115.7 L 863.5 82 L 863.4 82 L 849.7 99.1 L 848.9 99.1 L 835.3 82 L 835.1 82 L 835.1 115.7 L 830.6 115.7 L 830.6 74.8 Z M 899.6 74.8 L 899.6 78.8 L 881.8 78.8 L 881.8 93.1 L 899 93.1 L 899 97.1 L 881.8 97.1 L 881.8 111.7 L 900.1 111.7 L 900.1 115.7 L 877.3 115.7 L 877.3 74.8 L 899.6 74.8 Z M 907.4 74.8 C 907.4 74.8 918.11 74.82 918.1 74.8 C 926.3 74.8 930.6 79.6 930.6 85.8 C 930.6 90.9 927.8 94.4 922.9 95.9 C 925.5 97.3 926.7 98.3 930.1 103.5 C 930.05 103.5 938 115.7 938 115.7 L 932.6 115.7 C 932.6 115.7 925.43 104.46 925.4 104.5 C 921.7 98.5 919.1 97.1 915.7 97.1 C 915.65 97.14 911.9 97.1 911.9 97.1 L 911.9 115.7 L 907.4 115.7 L 907.4 74.8 Z M 916.1 93.2 C 921.7 93.2 926 91.8 926 85.9 C 926 80.8 922.7 78.8 917.5 78.8 C 917.51 78.78 911.9 78.8 911.9 78.8 L 911.9 93.2 C 911.9 93.2 916.07 93.18 916.1 93.2 Z M 962.4 76.9 C 962.4 76.9 962.4 82 962.4 82 C 959.6 79.6 956.5 78.4 953.2 78.4 C 948.8 78.4 946 80.8 946 84.3 C 946 87 946.7 89.3 953.5 92.8 C 961.9 97.1 964 100.1 964 105.7 C 964 111.7 959.3 116.3 952.3 116.3 C 948.4 116.3 944.8 115 941.6 112.7 C 941.6 112.7 941.6 107 941.6 107 C 944.7 110.4 948.3 112.3 952.3 112.3 C 956.4 112.3 959.4 109.7 959.4 105.7 C 959.4 102.2 958.3 100.2 950.3 96.1 C 943.9 92.8 941.5 89.6 941.5 84.4 C 941.5 78.6 946.4 74.3 953.3 74.3 C 956.5 74.3 959.6 75.2 962.4 76.9 Z M 992.2 74.8 L 992.2 115.7 L 987.7 115.7 L 987.7 74.8 L 992.2 74.8 Z M 1005.1 74.8 L 1034 108.7 L 1034 74.8 L 1038.4 74.8 L 1038.4 115.7 L 1034.4 115.7 L 1005.7 82 L 1005.7 115.7 L 1001.3 115.7 L 1001.3 74.8 L 1005.1 74.8 Z M 1080.6 74.6 L 1098.8 115.7 L 1094.2 115.7 L 1088.5 102.9 L 1069.9 102.9 L 1064.3 115.7 L 1059.7 115.7 L 1077.4 74.6 L 1080.6 74.6 Z M 1071.6 98.9 L 1086.7 98.9 L 1078.9 81.5 L 1071.6 98.9 Z M 1103.5 74.8 C 1103.5 74.8 1114.25 74.82 1114.3 74.8 C 1122.5 74.8 1126.7 79.6 1126.7 85.8 C 1126.7 90.9 1124 94.4 1119 95.9 C 1121.6 97.3 1122.8 98.3 1126.2 103.5 C 1126.19 103.5 1134.1 115.7 1134.1 115.7 L 1128.8 115.7 C 1128.8 115.7 1121.57 104.46 1121.6 104.5 C 1117.8 98.5 1115.3 97.1 1111.8 97.1 C 1111.79 97.14 1108 97.1 1108 97.1 L 1108 115.7 L 1103.5 115.7 L 1103.5 74.8 Z M 1112.2 93.2 C 1117.9 93.2 1122.1 91.8 1122.1 85.9 C 1122.1 80.8 1118.9 78.8 1113.7 78.8 C 1113.65 78.78 1108 78.8 1108 78.8 L 1108 93.2 C 1108 93.2 1112.21 93.18 1112.2 93.2 Z M 1138.6 74.8 C 1138.6 74.8 1149.35 74.82 1149.3 74.8 C 1157.6 74.8 1161.8 79.6 1161.8 85.8 C 1161.8 90.9 1159.1 94.4 1154.1 95.9 C 1156.7 97.3 1157.9 98.3 1161.3 103.5 C 1161.29 103.5 1169.2 115.7 1169.2 115.7 L 1163.9 115.7 C 1163.9 115.7 1156.67 104.46 1156.7 104.5 C 1152.9 98.5 1150.4 97.1 1146.9 97.1 C 1146.89 97.14 1143.1 97.1 1143.1 97.1 L 1143.1 115.7 L 1138.6 115.7 L 1138.6 74.8 Z M 1147.3 93.2 C 1152.9 93.2 1157.2 91.8 1157.2 85.9 C 1157.2 80.8 1154 78.8 1148.7 78.8 C 1148.75 78.78 1143.1 78.8 1143.1 78.8 L 1143.1 93.2 C 1143.1 93.2 1147.31 93.18 1147.3 93.2 Z M 1196.1 74.8 L 1196.1 78.8 L 1178.2 78.8 L 1178.2 93.1 L 1195.5 93.1 L 1195.5 97.1 L 1178.2 97.1 L 1178.2 111.7 L 1196.6 111.7 L 1196.6 115.7 L 1173.7 115.7 L 1173.7 74.8 L 1196.1 74.8 Z M 1221.6 74.6 L 1239.8 115.7 L 1235.2 115.7 L 1229.4 102.9 L 1210.8 102.9 L 1205.3 115.7 L 1200.7 115.7 L 1218.4 74.6 L 1221.6 74.6 Z M 1212.6 98.9 L 1227.6 98.9 L 1219.9 81.5 L 1212.6 98.9 Z M 1244.5 74.8 C 1244.5 74.8 1255.25 74.82 1255.2 74.8 C 1263.5 74.8 1267.7 79.6 1267.7 85.8 C 1267.7 90.9 1265 94.4 1260 95.9 C 1262.6 97.3 1263.8 98.3 1267.2 103.5 C 1267.19 103.5 1275.1 115.7 1275.1 115.7 L 1269.8 115.7 C 1269.8 115.7 1262.57 104.46 1262.6 104.5 C 1258.8 98.5 1256.3 97.1 1252.8 97.1 C 1252.79 97.14 1249 97.1 1249 97.1 L 1249 115.7 L 1244.5 115.7 L 1244.5 74.8 Z M 1253.2 93.2 C 1258.8 93.2 1263.1 91.8 1263.1 85.9 C 1263.1 80.8 1259.9 78.8 1254.6 78.8 C 1254.65 78.78 1249 78.8 1249 78.8 L 1249 93.2 C 1249 93.2 1253.21 93.18 1253.2 93.2 Z M 1299.5 76.9 C 1299.5 76.9 1299.5 82 1299.5 82 C 1296.7 79.6 1293.6 78.4 1290.3 78.4 C 1286 78.4 1283.1 80.8 1283.1 84.3 C 1283.1 87 1283.8 89.3 1290.6 92.8 C 1299 97.1 1301.1 100.1 1301.1 105.7 C 1301.1 111.7 1296.4 116.3 1289.4 116.3 C 1285.5 116.3 1281.9 115 1278.8 112.7 C 1278.8 112.7 1278.8 107 1278.8 107 C 1281.8 110.4 1285.4 112.3 1289.4 112.3 C 1293.5 112.3 1296.5 109.7 1296.5 105.7 C 1296.5 102.2 1295.4 100.2 1287.5 96.1 C 1281 92.8 1278.6 89.6 1278.6 84.4 C 1278.6 78.6 1283.6 74.3 1290.4 74.3 C 1293.6 74.3 1296.8 75.2 1299.5 76.9 Z " stroke="none" fill="#fff"/>  </g>  <g id="Polygon15927">    <path d="M 21 2.6 L 39.2 43.7 L 34.6 43.7 L 28.9 30.9 L 10.3 30.9 L 4.7 43.7 L 0.1 43.7 L 17.8 2.6 L 21 2.6 Z M 12 26.9 L 27.1 26.9 L 19.3 9.5 L 12 26.9 Z M 43.9 2.8 C 43.9 2.8 58.98 2.82 59 2.8 C 72.4 2.8 81 11.2 81 22.9 C 81 35.6 72 43.7 59 43.7 C 58.98 43.74 43.9 43.7 43.9 43.7 L 43.9 2.8 Z M 58.9 39.7 C 69.7 39.7 76.3 33.3 76.3 23.2 C 76.3 13.3 69.8 6.8 58.3 6.8 C 58.26 6.84 48.4 6.8 48.4 6.8 L 48.4 39.7 C 48.4 39.7 58.92 39.66 58.9 39.7 Z M 82.2 2.8 L 86.7 2.8 L 100 34.7 L 100.1 34.7 L 113.3 2.8 L 117.8 2.8 L 100.6 44.2 L 99.5 44.2 L 82.2 2.8 Z M 135.5 2.6 L 153.7 43.7 L 149.1 43.7 L 143.3 30.9 L 124.7 30.9 L 119.2 43.7 L 114.6 43.7 L 132.3 2.6 L 135.5 2.6 Z M 126.5 26.9 L 141.5 26.9 L 133.8 9.5 L 126.5 26.9 Z M 162.1 2.8 L 191.1 36.7 L 191.1 2.8 L 195.4 2.8 L 195.4 43.7 L 191.5 43.7 L 162.7 10 L 162.7 43.7 L 158.4 43.7 L 158.4 2.8 L 162.1 2.8 Z M 238.4 5.5 C 238.4 5.5 238.4 10.4 238.4 10.4 C 234.1 7.9 229.3 6.5 224.5 6.5 C 214.1 6.5 207.5 14.3 207.5 23.3 C 207.5 32.5 214 40.1 224.5 40.1 C 229.6 40.1 234.3 38.6 238.7 35.9 C 238.7 35.9 238.7 40.9 238.7 40.9 C 234.1 43.2 229.4 44.3 224.3 44.3 C 210.2 44.3 202.8 33.7 202.8 23.5 C 202.8 11.3 212.2 2.3 224.5 2.3 C 229.1 2.3 233.8 3.4 238.4 5.5 Z M 268.1 2.8 L 268.1 6.8 L 250.3 6.8 L 250.3 21.1 L 267.5 21.1 L 267.5 25.1 L 250.3 25.1 L 250.3 39.7 L 268.6 39.7 L 268.6 43.7 L 245.8 43.7 L 245.8 2.8 L 268.1 2.8 Z M 275.9 2.8 C 275.9 2.8 290.94 2.82 290.9 2.8 C 304.3 2.8 313 11.2 313 22.9 C 313 35.6 304 43.7 290.9 43.7 C 290.94 43.74 275.9 43.7 275.9 43.7 L 275.9 2.8 Z M 290.9 39.7 C 301.6 39.7 308.3 33.3 308.3 23.2 C 308.3 13.3 301.8 6.8 290.2 6.8 C 290.22 6.84 280.4 6.8 280.4 6.8 L 280.4 39.7 C 280.4 39.7 290.88 39.66 290.9 39.7 Z M 348.7 2.8 C 356.8 2.8 361.8 7 361.8 14.1 C 361.8 21.7 356.6 25.3 347.9 25.3 C 347.88 25.32 341.5 25.3 341.5 25.3 L 341.5 43.7 L 337 43.7 L 337 2.8 C 337 2.8 348.66 2.82 348.7 2.8 Z M 341.5 21.4 C 341.5 21.4 347.76 21.36 347.8 21.4 C 354.7 21.4 357.2 18.7 357.2 14 C 357.2 9.4 354.4 6.8 347.8 6.8 C 347.76 6.78 341.5 6.8 341.5 6.8 L 341.5 21.4 Z M 368.2 2.8 C 368.2 2.8 378.9 2.82 378.9 2.8 C 387.1 2.8 391.4 7.6 391.4 13.8 C 391.4 18.9 388.6 22.4 383.6 23.9 C 386.3 25.3 387.5 26.3 390.8 31.5 C 390.84 31.5 398.8 43.7 398.8 43.7 L 393.4 43.7 C 393.4 43.7 386.22 32.46 386.2 32.5 C 382.4 26.5 379.9 25.1 376.4 25.1 C 376.44 25.14 372.7 25.1 372.7 25.1 L 372.7 43.7 L 368.2 43.7 L 368.2 2.8 Z M 376.9 21.2 C 382.5 21.2 386.8 19.8 386.8 13.9 C 386.8 8.8 383.5 6.8 378.3 6.8 C 378.3 6.78 372.7 6.8 372.7 6.8 L 372.7 21.2 C 372.7 21.2 376.86 21.18 376.9 21.2 Z M 443.4 23.1 C 443.4 34.6 435 44.3 421.5 44.3 C 408.8 44.3 400.3 34.6 400.3 23.5 C 400.3 12.1 408.4 2.3 421.7 2.3 C 434.8 2.3 443.4 11.8 443.4 23.1 Z M 404.9 23.3 C 404.9 33 412.4 40.1 421.6 40 C 433.7 40 438.7 30.6 438.7 23.2 C 438.7 14.9 432.6 6.5 421.9 6.5 C 410.8 6.5 404.9 15 404.9 23.3 Z M 461.3 2.8 C 469 2.8 474 6.7 474 13.3 C 474 17.6 471.6 20.8 467.2 22.3 C 473.6 23.2 477.5 27.4 477.5 32.8 C 477.5 40.3 470.8 43.7 463.3 43.7 C 463.26 43.74 450.8 43.7 450.8 43.7 L 450.8 2.8 C 450.8 2.8 461.34 2.82 461.3 2.8 Z M 455.2 21 C 455.2 21 459.72 21 459.7 21 C 466.4 21 469.3 17.9 469.3 13.7 C 469.3 8.9 466.5 6.8 460.4 6.8 C 460.44 6.78 455.2 6.8 455.2 6.8 L 455.2 21 Z M 462.4 39.8 C 469 39.8 472.8 37.6 472.8 32.4 C 472.8 27.7 469.5 24.9 461.8 24.9 C 461.76 24.9 455.2 24.9 455.2 24.9 L 455.2 39.8 C 455.2 39.8 462.42 39.78 462.4 39.8 Z M 488.7 2.8 L 488.7 39.6 L 508 39.6 L 508 43.7 L 484.2 43.7 L 484.2 2.8 L 488.7 2.8 Z M 535.6 2.8 L 535.6 6.8 L 517.7 6.8 L 517.7 21.1 L 535 21.1 L 535 25.1 L 517.7 25.1 L 517.7 39.7 L 536 39.7 L 536 43.7 L 513.2 43.7 L 513.2 2.8 L 535.6 2.8 Z M 543.3 2.8 L 547.6 2.8 L 562 20.8 L 576.4 2.8 L 580.7 2.8 L 580.7 43.7 L 576.2 43.7 L 576.2 10 L 576.1 10 L 562.4 27.1 L 561.6 27.1 L 547.9 10 L 547.8 10 L 547.8 43.7 L 543.3 43.7 L 543.3 2.8 Z M 625.4 4.9 C 625.4 4.9 625.4 10 625.4 10 C 622.6 7.6 619.6 6.4 616.2 6.4 C 611.9 6.4 609.1 8.8 609.1 12.3 C 609.1 15 609.7 17.3 616.5 20.8 C 625 25.1 627 28.1 627 33.7 C 627 39.7 622.3 44.3 615.3 44.3 C 611.4 44.3 607.8 43 604.7 40.7 C 604.7 40.7 604.7 35 604.7 35 C 607.7 38.4 611.3 40.3 615.3 40.3 C 619.4 40.3 622.4 37.7 622.4 33.7 C 622.4 30.2 621.3 28.2 613.4 24.1 C 607 20.8 604.5 17.6 604.5 12.4 C 604.5 6.6 609.5 2.3 616.3 2.3 C 619.5 2.3 622.7 3.2 625.4 4.9 Z M 675.4 23.1 C 675.4 34.6 667 44.3 653.5 44.3 C 640.7 44.3 632.2 34.6 632.2 23.5 C 632.2 12.1 640.4 2.3 653.6 2.3 C 666.7 2.3 675.4 11.8 675.4 23.1 Z M 636.8 23.3 C 636.8 33 644.3 40.1 653.5 40 C 665.7 40 670.7 30.6 670.7 23.2 C 670.7 14.9 664.6 6.5 653.9 6.5 C 642.7 6.5 636.8 15 636.8 23.3 Z M 687.2 2.8 L 687.2 39.6 L 706.5 39.6 L 706.5 43.7 L 682.7 43.7 L 682.7 2.8 L 687.2 2.8 Z M 701.9 2.8 L 706.4 2.8 L 719.7 34.7 L 719.8 34.7 L 733 2.8 L 737.5 2.8 L 720.2 44.2 L 719.2 44.2 L 701.9 2.8 Z M 746.7 2.8 L 746.7 43.7 L 742.2 43.7 L 742.2 2.8 L 746.7 2.8 Z M 759.6 2.8 L 788.6 36.7 L 788.6 2.8 L 792.9 2.8 L 792.9 43.7 L 788.9 43.7 L 760.2 10 L 760.2 43.7 L 755.9 43.7 L 755.9 2.8 L 759.6 2.8 Z M 835.8 10.3 C 831.3 7.7 826.4 6.3 821.7 6.3 C 812.3 6.3 804.9 13.5 804.9 23.1 C 804.9 33.2 811.9 40.3 822.1 40.3 C 825.5 40.3 828 39.7 832.2 38.2 C 832.19 38.16 832.2 28.2 832.2 28.2 L 823.8 28.2 L 823.8 24.2 L 836.7 24.2 C 836.7 24.2 836.69 40.92 836.7 40.9 C 832 43.2 827.4 44.3 822.1 44.3 C 807.5 44.3 800.3 34 800.3 23.5 C 800.3 11.9 808.8 2.3 821.9 2.3 C 826.6 2.3 830.4 3.2 835.8 5.6 C 835.8 5.6 835.8 10.3 835.8 10.3 Z M 878.2 2.6 L 896.4 43.7 L 891.8 43.7 L 886.1 30.9 L 867.5 30.9 L 861.9 43.7 L 857.3 43.7 L 875 2.6 L 878.2 2.6 Z M 869.2 26.9 L 884.3 26.9 L 876.5 9.5 L 869.2 26.9 Z M 904.8 2.8 L 933.8 36.7 L 933.8 2.8 L 938.1 2.8 L 938.1 43.7 L 934.2 43.7 L 905.4 10 L 905.4 43.7 L 901.1 43.7 L 901.1 2.8 L 904.8 2.8 Z M 947.3 2.8 C 947.3 2.8 962.39 2.82 962.4 2.8 C 975.8 2.8 984.4 11.2 984.4 22.9 C 984.4 35.6 975.4 43.7 962.4 43.7 C 962.39 43.74 947.3 43.7 947.3 43.7 L 947.3 2.8 Z M 962.3 39.7 C 973.1 39.7 979.7 33.3 979.7 23.2 C 979.7 13.3 973.2 6.8 961.7 6.8 C 961.67 6.84 951.8 6.8 951.8 6.8 L 951.8 39.7 C 951.8 39.7 962.33 39.66 962.3 39.7 Z M 1008.5 2.8 C 1008.5 2.8 1023.52 2.82 1023.5 2.8 C 1036.9 2.8 1045.5 11.2 1045.5 22.9 C 1045.5 35.6 1036.5 43.7 1023.5 43.7 C 1023.52 43.74 1008.5 43.7 1008.5 43.7 L 1008.5 2.8 Z M 1023.5 39.7 C 1034.2 39.7 1040.9 33.3 1040.9 23.2 C 1040.9 13.3 1034.4 6.8 1022.8 6.8 C 1022.8 6.84 1013 6.8 1013 6.8 L 1013 39.7 C 1013 39.7 1023.46 39.66 1023.5 39.7 Z M 1075.4 2.8 L 1075.4 6.8 L 1057.5 6.8 L 1057.5 21.1 L 1074.8 21.1 L 1074.8 25.1 L 1057.5 25.1 L 1057.5 39.7 L 1075.9 39.7 L 1075.9 43.7 L 1053 43.7 L 1053 2.8 L 1075.4 2.8 Z M 1116.9 5.5 C 1116.9 5.5 1116.9 10.4 1116.9 10.4 C 1112.6 7.9 1107.9 6.5 1103.1 6.5 C 1092.6 6.5 1086 14.3 1086 23.3 C 1086 32.5 1092.6 40.1 1103 40.1 C 1108.1 40.1 1112.9 38.6 1117.2 35.9 C 1117.2 35.9 1117.2 40.9 1117.2 40.9 C 1112.7 43.2 1107.9 44.3 1102.9 44.3 C 1088.7 44.3 1081.4 33.7 1081.4 23.5 C 1081.4 11.3 1090.7 2.3 1103 2.3 C 1107.6 2.3 1112.3 3.4 1116.9 5.5 Z M 1128.8 2.8 L 1128.8 43.7 L 1124.3 43.7 L 1124.3 2.8 L 1128.8 2.8 Z M 1157.7 4.9 C 1157.7 4.9 1157.7 10 1157.7 10 C 1154.9 7.6 1151.8 6.4 1148.4 6.4 C 1144.1 6.4 1141.3 8.8 1141.3 12.3 C 1141.3 15 1142 17.3 1148.7 20.8 C 1157.2 25.1 1159.2 28.1 1159.2 33.7 C 1159.2 39.7 1154.6 44.3 1147.5 44.3 C 1143.6 44.3 1140 43 1136.9 40.7 C 1136.9 40.7 1136.9 35 1136.9 35 C 1140 38.4 1143.6 40.3 1147.5 40.3 C 1151.7 40.3 1154.7 37.7 1154.7 33.7 C 1154.7 30.2 1153.5 28.2 1145.6 24.1 C 1139.2 20.8 1136.7 17.6 1136.7 12.4 C 1136.7 6.6 1141.7 2.3 1148.6 2.3 C 1151.7 2.3 1154.9 3.2 1157.7 4.9 Z M 1170.8 2.8 L 1170.8 43.7 L 1166.3 43.7 L 1166.3 2.8 L 1170.8 2.8 Z M 1221.3 23.1 C 1221.3 34.6 1212.9 44.3 1199.4 44.3 C 1186.7 44.3 1178.1 34.6 1178.1 23.5 C 1178.1 12.1 1186.3 2.3 1199.6 2.3 C 1212.6 2.3 1221.3 11.8 1221.3 23.1 Z M 1182.8 23.3 C 1182.8 33 1190.3 40.1 1199.4 40 C 1211.6 40 1216.6 30.6 1216.6 23.2 C 1216.6 14.9 1210.5 6.5 1199.8 6.5 C 1188.6 6.5 1182.8 15 1182.8 23.3 Z M 1232.4 2.8 L 1261.4 36.7 L 1261.4 2.8 L 1265.7 2.8 L 1265.7 43.7 L 1261.7 43.7 L 1233 10 L 1233 43.7 L 1228.7 43.7 L 1228.7 2.8 L 1232.4 2.8 Z M 1291.4 2.8 L 1295.7 2.8 L 1310.1 20.8 L 1324.5 2.8 L 1328.8 2.8 L 1328.8 43.7 L 1324.3 43.7 L 1324.3 10 L 1324.2 10 L 1310.5 27.1 L 1309.7 27.1 L 1296 10 L 1295.9 10 L 1295.9 43.7 L 1291.4 43.7 L 1291.4 2.8 Z M 1354.4 2.6 L 1372.7 43.7 L 1368 43.7 L 1362.3 30.9 L 1343.7 30.9 L 1338.2 43.7 L 1333.5 43.7 L 1351.2 2.6 L 1354.4 2.6 Z M 1345.4 26.9 L 1360.5 26.9 L 1352.7 9.5 L 1345.4 26.9 Z M 1381.8 2.8 L 1381.8 22 L 1399.8 2.8 L 1405.4 2.8 L 1387.1 22.5 L 1409 43.7 L 1402.8 43.7 L 1381.8 23.4 L 1381.8 43.7 L 1377.3 43.7 L 1377.3 2.8 L 1381.8 2.8 Z M 1418 2.8 L 1418 43.7 L 1413.5 43.7 L 1413.5 2.8 L 1418 2.8 Z M 1430.9 2.8 L 1459.8 36.7 L 1459.8 2.8 L 1464.2 2.8 L 1464.2 43.7 L 1460.2 43.7 L 1431.5 10 L 1431.5 43.7 L 1427.1 43.7 L 1427.1 2.8 L 1430.9 2.8 Z M 1507.1 10.3 C 1502.6 7.7 1497.6 6.3 1493 6.3 C 1483.5 6.3 1476.2 13.5 1476.2 23.1 C 1476.2 33.2 1483.2 40.3 1493.4 40.3 C 1496.8 40.3 1499.3 39.7 1503.5 38.2 C 1503.46 38.16 1503.5 28.2 1503.5 28.2 L 1495.1 28.2 L 1495.1 24.2 L 1508 24.2 C 1508 24.2 1507.96 40.92 1508 40.9 C 1503.3 43.2 1498.7 44.3 1493.4 44.3 C 1478.7 44.3 1471.5 34 1471.5 23.5 C 1471.5 11.9 1480.1 2.3 1493.2 2.3 C 1497.9 2.3 1501.7 3.2 1507.1 5.6 C 1507.1 5.6 1507.1 10.3 1507.1 10.3 Z " stroke="none" fill="#fff"/>  </g></svg>