<?xml version="1.0" standalone="no"?><!DOCTYPE svg PUBLIC "-//W3C//DTD SVG 1.1//EN" "http://www.w3.org/Graphics/SVG/1.1/DTD/svg11.dtd"><svg xmlns="http://www.w3.org/2000/svg" version="1.1" width="268px" height="195.8px" viewBox="0 -8 268 195.8" style="top:-8px">  <desc>Resourcing Leadership and Management</desc>  <defs/>  <g id="Polygon17023">    <path d="M 3.1 138.6 L 5.9 138.6 L 15.6 150.5 L 25.2 138.6 L 28 138.6 L 28 165.9 L 25 165.9 L 25 143.3 L 24.9 143.3 L 15.8 154.7 L 15.3 154.7 L 6.2 143.3 L 6.1 143.3 L 6.1 165.9 L 3.1 165.9 L 3.1 138.6 Z M 45.1 138.4 L 57.2 165.9 L 54.2 165.9 L 50.3 157.3 L 37.9 157.3 L 34.2 165.9 L 31.2 165.9 L 43 138.4 L 45.1 138.4 Z M 39.1 154.6 L 49.1 154.6 L 44 143 L 39.1 154.6 Z M 62.8 138.6 L 82.2 161.1 L 82.2 138.6 L 85 138.6 L 85 165.9 L 82.4 165.9 L 63.2 143.4 L 63.2 165.9 L 60.4 165.9 L 60.4 138.6 L 62.8 138.6 Z M 102.1 138.4 L 114.2 165.9 L 111.2 165.9 L 107.3 157.3 L 94.9 157.3 L 91.2 165.9 L 88.2 165.9 L 100 138.4 L 102.1 138.4 Z M 96.1 154.6 L 106.1 154.6 L 101 143 L 96.1 154.6 Z M 138.7 143.6 C 135.7 141.8 132.4 140.9 129.3 140.9 C 123 140.9 118.1 145.7 118.1 152.1 C 118.1 158.8 122.7 163.5 129.5 163.5 C 131.8 163.5 133.4 163.2 136.2 162.1 C 136.24 162.15 136.2 155.5 136.2 155.5 L 130.7 155.5 L 130.7 152.9 L 139.2 152.9 C 139.2 152.9 139.24 163.99 139.2 164 C 136.1 165.5 133.1 166.2 129.5 166.2 C 119.8 166.2 115 159.4 115 152.4 C 115 144.6 120.7 138.2 129.4 138.2 C 132.5 138.2 135.1 138.9 138.7 140.5 C 138.7 140.5 138.7 143.6 138.7 143.6 Z M 159.9 138.6 L 159.9 141.3 L 148 141.3 L 148 150.8 L 159.5 150.8 L 159.5 153.5 L 148 153.5 L 148 163.1 L 160.2 163.1 L 160.2 165.9 L 145 165.9 L 145 138.6 L 159.9 138.6 Z M 165 138.6 L 167.9 138.6 L 177.5 150.5 L 187.1 138.6 L 190 138.6 L 190 165.9 L 187 165.9 L 187 143.3 L 186.9 143.3 L 177.8 154.7 L 177.2 154.7 L 168.1 143.3 L 168 143.3 L 168 165.9 L 165 165.9 L 165 138.6 Z M 211 138.6 L 211 141.3 L 199.1 141.3 L 199.1 150.8 L 210.6 150.8 L 210.6 153.5 L 199.1 153.5 L 199.1 163.1 L 211.4 163.1 L 211.4 165.9 L 196.1 165.9 L 196.1 138.6 L 211 138.6 Z M 218.7 138.6 L 238 161.1 L 238 138.6 L 240.9 138.6 L 240.9 165.9 L 238.2 165.9 L 219.1 143.4 L 219.1 165.9 L 216.2 165.9 L 216.2 138.6 L 218.7 138.6 Z M 266.9 138.6 L 266.9 141.2 L 257.2 141.2 L 257.2 165.9 L 254.2 165.9 L 254.2 141.2 L 244.5 141.2 L 244.5 138.6 L 266.9 138.6 Z " stroke="none" fill="#010102"/>  </g>  <g id="Polygon17022">    <path d="M 14 90.4 L 26.2 117.9 L 23.1 117.9 L 19.2 109.3 L 6.8 109.3 L 3.2 117.9 L 0.1 117.9 L 11.9 90.4 L 14 90.4 Z M 8 106.6 L 18 106.6 L 12.9 95 L 8 106.6 Z M 31.8 90.6 L 51.1 113.1 L 51.1 90.6 L 54 90.6 L 54 117.9 L 51.3 117.9 L 32.2 95.4 L 32.2 117.9 L 29.3 117.9 L 29.3 90.6 L 31.8 90.6 Z M 60.1 90.6 C 60.1 90.6 70.12 90.59 70.1 90.6 C 79 90.6 84.8 96.1 84.8 103.9 C 84.8 112.4 78.8 117.9 70.1 117.9 C 70.12 117.87 60.1 117.9 60.1 117.9 L 60.1 90.6 Z M 70.1 115.1 C 77.2 115.1 81.7 110.9 81.7 104.2 C 81.7 97.6 77.4 93.3 69.6 93.3 C 69.64 93.27 63.1 93.3 63.1 93.3 L 63.1 115.1 C 63.1 115.1 70.08 115.15 70.1 115.1 Z " stroke="none" fill="#010102"/>  </g>  <g id="Polygon17021">    <path d="M 6.1 42.6 L 6.1 67.1 L 18.9 67.1 L 18.9 69.9 L 3.1 69.9 L 3.1 42.6 L 6.1 42.6 Z M 37.3 42.6 L 37.3 45.3 L 25.4 45.3 L 25.4 54.8 L 36.9 54.8 L 36.9 57.5 L 25.4 57.5 L 25.4 67.1 L 37.6 67.1 L 37.6 69.9 L 22.4 69.9 L 22.4 42.6 L 37.3 42.6 Z M 54.3 42.4 L 66.5 69.9 L 63.4 69.9 L 59.6 61.3 L 47.2 61.3 L 43.5 69.9 L 40.4 69.9 L 52.2 42.4 L 54.3 42.4 Z M 48.3 58.6 L 58.4 58.6 L 53.2 47 L 48.3 58.6 Z M 69.6 42.6 C 69.6 42.6 79.64 42.59 79.6 42.6 C 88.6 42.6 94.3 48.1 94.3 55.9 C 94.3 64.4 88.3 69.9 79.6 69.9 C 79.64 69.87 69.6 69.9 69.6 69.9 L 69.6 42.6 Z M 79.6 67.1 C 86.8 67.1 91.2 62.9 91.2 56.2 C 91.2 49.6 86.9 45.3 79.2 45.3 C 79.16 45.27 72.6 45.3 72.6 45.3 L 72.6 67.1 C 72.6 67.1 79.6 67.15 79.6 67.1 Z M 114.2 42.6 L 114.2 45.3 L 102.3 45.3 L 102.3 54.8 L 113.8 54.8 L 113.8 57.5 L 102.3 57.5 L 102.3 67.1 L 114.6 67.1 L 114.6 69.9 L 99.3 69.9 L 99.3 42.6 L 114.2 42.6 Z M 119.4 42.6 C 119.4 42.6 126.56 42.59 126.6 42.6 C 132 42.6 134.9 45.7 134.9 49.9 C 134.9 53.3 133 55.6 129.7 56.6 C 131.5 57.5 132.3 58.3 134.5 61.7 C 134.52 61.71 139.8 69.9 139.8 69.9 L 136.2 69.9 C 136.2 69.9 131.44 62.35 131.4 62.3 C 128.9 58.3 127.2 57.5 124.9 57.5 C 124.92 57.47 122.4 57.5 122.4 57.5 L 122.4 69.9 L 119.4 69.9 L 119.4 42.6 Z M 125.2 54.8 C 129 54.8 131.8 53.9 131.8 49.9 C 131.8 46.6 129.6 45.2 126.2 45.2 C 126.16 45.23 122.4 45.2 122.4 45.2 L 122.4 54.8 C 122.4 54.8 125.2 54.83 125.2 54.8 Z M 156.1 44 C 156.1 44 156.1 47.4 156.1 47.4 C 154.2 45.8 152.2 44.9 149.9 44.9 C 147 44.9 145.2 46.5 145.2 48.9 C 145.2 50.7 145.6 52.3 150.1 54.5 C 155.8 57.5 157.1 59.4 157.1 63.1 C 157.1 67.2 154 70.2 149.3 70.2 C 146.7 70.2 144.3 69.4 142.2 67.8 C 142.2 67.8 142.2 64.1 142.2 64.1 C 144.3 66.3 146.7 67.5 149.3 67.5 C 152.1 67.5 154.1 65.8 154.1 63.2 C 154.1 60.9 153.3 59.5 148 56.7 C 143.8 54.5 142.1 52.5 142.1 49 C 142.1 45.1 145.4 42.2 150 42.2 C 152.1 42.2 154.2 42.8 156.1 44 Z M 164.8 42.6 L 164.8 54.7 L 181.4 54.7 L 181.4 42.6 L 184.4 42.6 L 184.4 69.9 L 181.4 69.9 L 181.4 57.5 L 164.8 57.5 L 164.8 69.9 L 161.8 69.9 L 161.8 42.6 L 164.8 42.6 Z M 193.5 42.6 L 193.5 69.9 L 190.5 69.9 L 190.5 42.6 L 193.5 42.6 Z M 207.4 42.6 C 212.8 42.6 216.1 45.3 216.1 50.1 C 216.1 55.2 212.7 57.6 206.8 57.6 C 206.84 57.59 202.6 57.6 202.6 57.6 L 202.6 69.9 L 199.6 69.9 L 199.6 42.6 C 199.6 42.6 207.36 42.59 207.4 42.6 Z M 202.6 54.9 C 202.6 54.9 206.76 54.95 206.8 54.9 C 211.4 54.9 213 53.1 213 50 C 213 46.9 211.2 45.2 206.8 45.2 C 206.76 45.23 202.6 45.2 202.6 45.2 L 202.6 54.9 Z " stroke="none" fill="#010102"/>  </g>  <g id="Polygon17020">    <path d="M 2.3 1.4 C 2.3 1.4 7.68 1.41 7.7 1.4 C 11.8 1.4 13.9 3.8 13.9 6.9 C 13.9 9.4 12.5 11.2 10.1 11.9 C 11.4 12.6 12 13.2 13.6 15.7 C 13.65 15.75 17.6 21.9 17.6 21.9 L 14.9 21.9 C 14.9 21.9 11.34 16.23 11.3 16.2 C 9.4 13.2 8.2 12.6 6.4 12.6 C 6.45 12.57 4.6 12.6 4.6 12.6 L 4.6 21.9 L 2.3 21.9 L 2.3 1.4 Z M 6.7 10.6 C 9.5 10.6 11.6 9.9 11.6 6.9 C 11.6 4.4 10 3.4 7.4 3.4 C 7.38 3.39 4.6 3.4 4.6 3.4 L 4.6 10.6 C 4.6 10.6 6.66 10.59 6.7 10.6 Z M 31 1.4 L 31 3.4 L 22.1 3.4 L 22.1 10.6 L 30.7 10.6 L 30.7 12.6 L 22.1 12.6 L 22.1 19.8 L 31.3 19.8 L 31.3 21.9 L 19.9 21.9 L 19.9 1.4 L 31 1.4 Z M 44.4 2.5 C 44.4 2.5 44.4 5 44.4 5 C 43 3.8 41.5 3.2 39.8 3.2 C 37.6 3.2 36.2 4.4 36.2 6.1 C 36.2 7.5 36.5 8.7 39.9 10.4 C 44.2 12.6 45.2 14 45.2 16.8 C 45.2 19.9 42.8 22.1 39.3 22.1 C 37.4 22.1 35.6 21.5 34 20.3 C 34 20.3 34 17.5 34 17.5 C 35.5 19.2 37.3 20.1 39.3 20.1 C 41.4 20.1 42.9 18.8 42.9 16.9 C 42.9 15.1 42.3 14.1 38.4 12 C 35.2 10.4 33.9 8.8 33.9 6.2 C 33.9 3.3 36.4 1.1 39.8 1.1 C 41.4 1.1 43 1.6 44.4 2.5 Z M 69.4 11.5 C 69.4 17.3 65.2 22.1 58.4 22.1 C 52 22.1 47.8 17.3 47.8 11.8 C 47.8 6.1 51.9 1.1 58.5 1.1 C 65 1.1 69.4 5.9 69.4 11.5 Z M 50.1 11.7 C 50.1 16.5 53.8 20 58.4 20 C 64.5 20 67 15.3 67 11.6 C 67 7.5 64 3.3 58.6 3.3 C 53 3.3 50.1 7.5 50.1 11.7 Z M 75 1.4 C 75 1.4 75.03 13.2 75 13.2 C 75 17.7 77.2 20.1 81.4 20.1 C 85.6 20.1 87.7 17.6 87.7 13.2 C 87.69 13.2 87.7 1.4 87.7 1.4 L 89.9 1.4 C 89.9 1.4 89.94 13.2 89.9 13.2 C 89.9 18.6 87.1 22.1 81.4 22.1 C 75.8 22.1 72.8 18.9 72.8 13.2 C 72.78 13.2 72.8 1.4 72.8 1.4 L 75 1.4 Z M 94.3 1.4 C 94.3 1.4 99.66 1.41 99.7 1.4 C 103.8 1.4 105.9 3.8 105.9 6.9 C 105.9 9.4 104.5 11.2 102 11.9 C 103.3 12.6 103.9 13.2 105.6 15.7 C 105.63 15.75 109.6 21.9 109.6 21.9 L 106.9 21.9 C 106.9 21.9 103.32 16.23 103.3 16.2 C 101.4 13.2 100.2 12.6 98.4 12.6 C 98.43 12.57 96.5 12.6 96.5 12.6 L 96.5 21.9 L 94.3 21.9 L 94.3 1.4 Z M 98.6 10.6 C 101.5 10.6 103.6 9.9 103.6 6.9 C 103.6 4.4 102 3.4 99.4 3.4 C 99.36 3.39 96.5 3.4 96.5 3.4 L 96.5 10.6 C 96.5 10.6 98.64 10.59 98.6 10.6 Z M 128.1 2.8 C 128.1 2.8 128.1 5.2 128.1 5.2 C 126 4 123.6 3.2 121.2 3.2 C 116 3.2 112.7 7.2 112.7 11.7 C 112.7 16.3 115.9 20 121.2 20 C 123.7 20 126.1 19.3 128.3 17.9 C 128.3 17.9 128.3 20.4 128.3 20.4 C 126 21.6 123.6 22.1 121.1 22.1 C 114 22.1 110.3 16.8 110.3 11.7 C 110.3 5.6 115 1.1 121.2 1.1 C 123.5 1.1 125.8 1.7 128.1 2.8 Z M 134.1 1.4 L 134.1 21.9 L 131.8 21.9 L 131.8 1.4 L 134.1 1.4 Z M 140.5 1.4 L 155 18.3 L 155 1.4 L 157.2 1.4 L 157.2 21.9 L 155.2 21.9 L 140.8 5 L 140.8 21.9 L 138.7 21.9 L 138.7 1.4 L 140.5 1.4 Z M 178.6 5.2 C 176.4 3.8 173.9 3.1 171.6 3.1 C 166.9 3.1 163.2 6.7 163.2 11.5 C 163.2 16.6 166.7 20.1 171.8 20.1 C 173.5 20.1 174.7 19.9 176.8 19.1 C 176.82 19.08 176.8 14.1 176.8 14.1 L 172.6 14.1 L 172.6 12.1 L 179.1 12.1 C 179.1 12.1 179.07 20.46 179.1 20.5 C 176.7 21.6 174.4 22.1 171.8 22.1 C 164.5 22.1 160.9 17 160.9 11.8 C 160.9 5.9 165.1 1.1 171.7 1.1 C 174 1.1 175.9 1.6 178.6 2.8 C 178.6 2.8 178.6 5.2 178.6 5.2 Z " stroke="none" fill="#f28620"/>  </g></svg>