<?xml version="1.0" standalone="no"?><!DOCTYPE svg PUBLIC "-//W3C//DTD SVG 1.1//EN" "http://www.w3.org/Graphics/SVG/1.1/DTD/svg11.dtd"><svg xmlns="http://www.w3.org/2000/svg" version="1.1" width="44px" height="20.5px" viewBox="0 -4 44 20.5" style="top:-4px">  <desc>71 100</desc>  <defs/>  <g id="Polygon60524">    <path d="M 0.6 1.3 L 0.6 0.3 L 6.1 0.3 C 6.1 0.3 6.13 1.08 6.1 1.1 C 5.6 1.7 5 2.4 4.5 3.4 C 4 4.4 3.6 5.4 3.3 6.4 C 3 7.1 2.9 7.9 2.9 8.7 C 2.9 8.7 1.8 8.7 1.8 8.7 C 1.8 8.1 1.9 7.2 2.2 6.3 C 2.4 5.3 2.8 4.4 3.3 3.5 C 3.7 2.6 4.2 1.9 4.8 1.3 C 4.78 1.27 0.6 1.3 0.6 1.3 Z M 11.1 8.7 L 10.1 8.7 C 10.1 8.7 10.09 2.02 10.1 2 C 9.8 2.3 9.5 2.5 9.1 2.7 C 8.7 3 8.3 3.2 8 3.3 C 8 3.3 8 2.3 8 2.3 C 8.6 2 9.1 1.7 9.5 1.3 C 10 0.9 10.3 0.5 10.5 0.1 C 10.46 0.11 11.1 0.1 11.1 0.1 L 11.1 8.7 Z M 17.1 6.2 L 17.1 5.1 L 20.3 5.1 L 20.3 6.2 L 17.1 6.2 Z M 28.5 8.7 L 27.4 8.7 C 27.4 8.7 27.43 2.02 27.4 2 C 27.2 2.3 26.8 2.5 26.4 2.7 C 26 3 25.6 3.2 25.3 3.3 C 25.3 3.3 25.3 2.3 25.3 2.3 C 25.9 2 26.4 1.7 26.9 1.3 C 27.3 0.9 27.6 0.5 27.8 0.1 C 27.8 0.11 28.5 0.1 28.5 0.1 L 28.5 8.7 Z M 32 8 C 31.5 7.3 31.2 6.1 31.2 4.5 C 31.2 3.5 31.3 2.7 31.5 2 C 31.7 1.4 32 1 32.4 0.6 C 32.8 0.3 33.4 0.1 34 0.1 C 34.4 0.1 34.8 0.2 35.2 0.4 C 35.5 0.6 35.8 0.8 36.1 1.2 C 36.3 1.5 36.5 2 36.6 2.5 C 36.7 3 36.8 3.6 36.8 4.5 C 36.8 5.5 36.7 6.3 36.5 6.9 C 36.3 7.6 36 8 35.5 8.4 C 35.1 8.7 34.6 8.9 34 8.9 C 33.2 8.9 32.5 8.6 32 8 C 32 8 32 8 32 8 Z M 32.8 1.6 C 32.4 2.1 32.3 3.1 32.3 4.5 C 32.3 5.9 32.4 6.8 32.8 7.3 C 33.1 7.8 33.5 8 34 8 C 34.5 8 34.9 7.8 35.2 7.3 C 35.5 6.8 35.7 5.9 35.7 4.5 C 35.7 3.1 35.5 2.1 35.2 1.7 C 34.9 1.2 34.5 1 34 1 C 33.5 1 33.1 1.2 32.8 1.6 C 32.8 1.6 32.8 1.6 32.8 1.6 Z M 38.7 8 C 38.1 7.3 37.9 6.1 37.9 4.5 C 37.9 3.5 38 2.7 38.2 2 C 38.4 1.4 38.7 1 39.1 0.6 C 39.5 0.3 40 0.1 40.7 0.1 C 41.1 0.1 41.5 0.2 41.9 0.4 C 42.2 0.6 42.5 0.8 42.7 1.2 C 43 1.5 43.1 2 43.3 2.5 C 43.4 3 43.5 3.6 43.5 4.5 C 43.5 5.5 43.4 6.3 43.1 6.9 C 42.9 7.6 42.6 8 42.2 8.4 C 41.8 8.7 41.3 8.9 40.7 8.9 C 39.8 8.9 39.2 8.6 38.7 8 C 38.7 8 38.7 8 38.7 8 Z M 39.5 1.6 C 39.1 2.1 38.9 3.1 38.9 4.5 C 38.9 5.9 39.1 6.8 39.4 7.3 C 39.8 7.8 40.2 8 40.7 8 C 41.1 8 41.5 7.8 41.9 7.3 C 42.2 6.8 42.4 5.9 42.4 4.5 C 42.4 3.1 42.2 2.1 41.9 1.7 C 41.5 1.2 41.1 1 40.6 1 C 40.2 1 39.8 1.2 39.5 1.6 C 39.5 1.6 39.5 1.6 39.5 1.6 Z " stroke="none" fill="#000"/>  </g></svg>