<?xml version="1.0" standalone="no"?><!DOCTYPE svg PUBLIC "-//W3C//DTD SVG 1.1//EN" "http://www.w3.org/Graphics/SVG/1.1/DTD/svg11.dtd"><svg xmlns="http://www.w3.org/2000/svg" version="1.1" width="232px" height="156.8px" viewBox="0 -10 232 156.8" style="top:-10px">  <desc>Training Sales Excellence</desc>  <defs/>  <g id="Polygon17773">    <path d="M 18 97.9 L 18 100.6 L 6.1 100.6 L 6.1 110.1 L 17.6 110.1 L 17.6 112.8 L 6.1 112.8 L 6.1 122.4 L 18.3 122.4 L 18.3 125.2 L 3.1 125.2 L 3.1 97.9 L 18 97.9 Z M 25.5 97.9 C 29.9 103 31 104.4 34.9 109 C 37.8 105.6 40.7 102.1 44.2 97.9 C 44.24 97.88 47.9 97.9 47.9 97.9 L 36.7 111.1 L 48.6 125.2 L 45 125.2 L 34.9 113.2 L 24.8 125.2 L 21.1 125.2 L 33 111.1 L 21.9 97.9 C 21.9 97.9 25.52 97.88 25.5 97.9 Z M 72.6 99.7 C 72.6 99.7 72.6 102.9 72.6 102.9 C 69.8 101.3 66.6 100.3 63.4 100.3 C 56.4 100.3 52 105.6 52 111.6 C 52 117.7 56.4 122.7 63.4 122.7 C 66.8 122.7 69.9 121.8 72.8 119.9 C 72.8 119.9 72.8 123.2 72.8 123.2 C 69.8 124.8 66.6 125.5 63.3 125.5 C 53.8 125.5 48.9 118.4 48.9 111.6 C 48.9 103.5 55.2 97.5 63.4 97.5 C 66.4 97.5 69.6 98.3 72.6 99.7 Z M 92.5 97.9 L 92.5 100.6 L 80.6 100.6 L 80.6 110.1 L 92.1 110.1 L 92.1 112.8 L 80.6 112.8 L 80.6 122.4 L 92.8 122.4 L 92.8 125.2 L 77.6 125.2 L 77.6 97.9 L 92.5 97.9 Z M 100.6 97.9 L 100.6 122.4 L 113.5 122.4 L 113.5 125.2 L 97.6 125.2 L 97.6 97.9 L 100.6 97.9 Z M 120 97.9 L 120 122.4 L 132.8 122.4 L 132.8 125.2 L 117 125.2 L 117 97.9 L 120 97.9 Z M 151.2 97.9 L 151.2 100.6 L 139.3 100.6 L 139.3 110.1 L 150.8 110.1 L 150.8 112.8 L 139.3 112.8 L 139.3 122.4 L 151.5 122.4 L 151.5 125.2 L 136.3 125.2 L 136.3 97.9 L 151.2 97.9 Z M 158.8 97.9 L 178.2 120.4 L 178.2 97.9 L 181 97.9 L 181 125.2 L 178.4 125.2 L 159.2 102.7 L 159.2 125.2 L 156.4 125.2 L 156.4 97.9 L 158.8 97.9 Z M 209.7 99.7 C 209.7 99.7 209.7 102.9 209.7 102.9 C 206.8 101.3 203.6 100.3 200.4 100.3 C 193.5 100.3 189.1 105.6 189.1 111.6 C 189.1 117.7 193.4 122.7 200.4 122.7 C 203.8 122.7 207 121.8 209.9 119.9 C 209.9 119.9 209.9 123.2 209.9 123.2 C 206.8 124.8 203.7 125.5 200.3 125.5 C 190.9 125.5 186 118.4 186 111.6 C 186 103.5 192.2 97.5 200.4 97.5 C 203.5 97.5 206.6 98.3 209.7 99.7 Z M 229.5 97.9 L 229.5 100.6 L 217.6 100.6 L 217.6 110.1 L 229.1 110.1 L 229.1 112.8 L 217.6 112.8 L 217.6 122.4 L 229.8 122.4 L 229.8 125.2 L 214.6 125.2 L 214.6 97.9 L 229.5 97.9 Z " stroke="none" fill="#010102"/>  </g>  <g id="Polygon17772">    <path d="M 15.7 51.3 C 15.7 51.3 15.7 54.7 15.7 54.7 C 13.8 53.1 11.8 52.2 9.6 52.2 C 6.7 52.2 4.8 53.8 4.8 56.2 C 4.8 58 5.2 59.6 9.8 61.8 C 15.4 64.8 16.8 66.7 16.8 70.4 C 16.8 74.5 13.6 77.5 9 77.5 C 6.4 77.5 4 76.7 1.9 75.1 C 1.9 75.1 1.9 71.4 1.9 71.4 C 3.9 73.6 6.3 74.8 9 74.8 C 11.7 74.8 13.7 73.1 13.7 70.5 C 13.7 68.2 13 66.8 7.7 64 C 3.4 61.8 1.8 59.8 1.8 56.3 C 1.8 52.4 5.1 49.5 9.6 49.5 C 11.8 49.5 13.9 50.1 15.7 51.3 Z M 32.4 49.7 L 44.5 77.2 L 41.4 77.2 L 37.6 68.6 L 25.2 68.6 L 21.5 77.2 L 18.4 77.2 L 30.2 49.7 L 32.4 49.7 Z M 26.4 65.9 L 36.4 65.9 L 31.2 54.3 L 26.4 65.9 Z M 50.6 49.9 L 50.6 74.4 L 63.5 74.4 L 63.5 77.2 L 47.6 77.2 L 47.6 49.9 L 50.6 49.9 Z M 81.9 49.9 L 81.9 52.6 L 70 52.6 L 70 62.1 L 81.5 62.1 L 81.5 64.8 L 70 64.8 L 70 74.4 L 82.2 74.4 L 82.2 77.2 L 67 77.2 L 67 49.9 L 81.9 49.9 Z M 99.7 51.3 C 99.7 51.3 99.7 54.7 99.7 54.7 C 97.8 53.1 95.8 52.2 93.5 52.2 C 90.6 52.2 88.8 53.8 88.8 56.2 C 88.8 58 89.2 59.6 93.7 61.8 C 99.4 64.8 100.7 66.7 100.7 70.4 C 100.7 74.5 97.6 77.5 92.9 77.5 C 90.3 77.5 87.9 76.7 85.8 75.1 C 85.8 75.1 85.8 71.4 85.8 71.4 C 87.9 73.6 90.3 74.8 92.9 74.8 C 95.7 74.8 97.7 73.1 97.7 70.5 C 97.7 68.2 96.9 66.8 91.6 64 C 87.4 61.8 85.7 59.8 85.7 56.3 C 85.7 52.4 89 49.5 93.6 49.5 C 95.7 49.5 97.8 50.1 99.7 51.3 Z " stroke="none" fill="#010102"/>  </g>  <g id="Polygon17771">    <path d="M 17.3 8.7 L 17.3 10.7 L 9.9 10.7 L 9.9 29.2 L 7.7 29.2 L 7.7 10.7 L 0.4 10.7 L 0.4 8.7 L 17.3 8.7 Z M 20 8.7 C 20 8.7 25.38 8.7 25.4 8.7 C 29.5 8.7 31.6 11.1 31.6 14.2 C 31.6 16.7 30.2 18.5 27.7 19.2 C 29.1 19.9 29.7 20.5 31.3 23 C 31.35 23.04 35.3 29.2 35.3 29.2 L 32.6 29.2 C 32.6 29.2 29.04 23.52 29 23.5 C 27.1 20.5 25.9 19.9 24.1 19.9 C 24.15 19.86 22.3 19.9 22.3 19.9 L 22.3 29.2 L 20 29.2 L 20 8.7 Z M 24.4 17.9 C 27.2 17.9 29.3 17.2 29.3 14.2 C 29.3 11.7 27.7 10.7 25.1 10.7 C 25.08 10.68 22.3 10.7 22.3 10.7 L 22.3 17.9 C 22.3 17.9 24.36 17.88 24.4 17.9 Z M 45.7 8.6 L 54.9 29.2 L 52.6 29.2 L 49.7 22.7 L 40.4 22.7 L 37.6 29.2 L 35.3 29.2 L 44.2 8.6 L 45.7 8.6 Z M 41.2 20.7 L 48.8 20.7 L 44.9 12 L 41.2 20.7 Z M 59.5 8.7 L 59.5 29.2 L 57.2 29.2 L 57.2 8.7 L 59.5 8.7 Z M 65.9 8.7 L 80.4 25.6 L 80.4 8.7 L 82.6 8.7 L 82.6 29.2 L 80.6 29.2 L 66.2 12.3 L 66.2 29.2 L 64 29.2 L 64 8.7 L 65.9 8.7 Z M 89.4 8.7 L 89.4 29.2 L 87.1 29.2 L 87.1 8.7 L 89.4 8.7 Z M 95.8 8.7 L 110.3 25.6 L 110.3 8.7 L 112.5 8.7 L 112.5 29.2 L 110.5 29.2 L 96.1 12.3 L 96.1 29.2 L 94 29.2 L 94 8.7 L 95.8 8.7 Z M 134 12.4 C 131.7 11.1 129.2 10.4 126.9 10.4 C 122.2 10.4 118.5 14 118.5 18.8 C 118.5 23.9 122 27.4 127.1 27.4 C 128.8 27.4 130 27.1 132.1 26.4 C 132.15 26.37 132.1 21.4 132.1 21.4 L 128 21.4 L 128 19.4 L 134.4 19.4 C 134.4 19.4 134.4 27.75 134.4 27.7 C 132.1 28.9 129.8 29.4 127.1 29.4 C 119.8 29.4 116.2 24.3 116.2 19 C 116.2 13.2 120.5 8.4 127 8.4 C 129.4 8.4 131.3 8.9 134 10.1 C 134 10.1 134 12.4 134 12.4 Z " stroke="none" fill="#f28620"/>  </g></svg>