<?xml version="1.0" standalone="no"?><!DOCTYPE svg PUBLIC "-//W3C//DTD SVG 1.1//EN" "http://www.w3.org/Graphics/SVG/1.1/DTD/svg11.dtd"><svg xmlns="http://www.w3.org/2000/svg" version="1.1" width="71.4px" height="28.5px" viewBox="0 -1 71.4 28.5" style="top:-1px">  <desc>Case Studies</desc>  <defs/>  <g id="Polygon51056">    <path d="M 7.1 17 C 7.1 17 8.2 17.3 8.2 17.3 C 8 18.2 7.5 18.9 6.9 19.4 C 6.3 19.9 5.5 20.1 4.6 20.1 C 3.7 20.1 3 20 2.4 19.6 C 1.8 19.2 1.4 18.7 1.1 17.9 C 0.7 17.2 0.6 16.5 0.6 15.6 C 0.6 14.7 0.8 14 1.1 13.3 C 1.5 12.6 1.9 12.1 2.6 11.8 C 3.2 11.4 3.9 11.3 4.7 11.3 C 5.5 11.3 6.2 11.5 6.8 11.9 C 7.4 12.4 7.8 13 8 13.8 C 8 13.8 6.9 14 6.9 14 C 6.7 13.4 6.4 12.9 6.1 12.7 C 5.7 12.4 5.2 12.2 4.6 12.2 C 4 12.2 3.4 12.4 3 12.7 C 2.5 13 2.2 13.5 2 14 C 1.9 14.5 1.8 15.1 1.8 15.6 C 1.8 16.4 1.9 17 2.1 17.5 C 2.3 18.1 2.6 18.5 3.1 18.8 C 3.5 19 4 19.2 4.5 19.2 C 5.2 19.2 5.7 19 6.2 18.6 C 6.6 18.3 6.9 17.7 7.1 17 Z M 13.7 20 C 13.6 19.8 13.5 19.5 13.5 19.2 C 13.1 19.6 12.8 19.8 12.4 19.9 C 12 20.1 11.6 20.1 11.2 20.1 C 10.5 20.1 10 20 9.7 19.6 C 9.3 19.3 9.1 18.9 9.1 18.4 C 9.1 18.1 9.2 17.8 9.3 17.5 C 9.4 17.3 9.6 17.1 9.9 16.9 C 10.1 16.8 10.3 16.7 10.6 16.6 C 10.8 16.5 11.1 16.5 11.5 16.4 C 12.4 16.3 13 16.2 13.4 16.1 C 13.4 15.9 13.4 15.8 13.4 15.8 C 13.4 15.3 13.3 15 13.1 14.9 C 12.9 14.6 12.5 14.5 11.9 14.5 C 11.4 14.5 11.1 14.6 10.8 14.8 C 10.6 14.9 10.4 15.3 10.3 15.7 C 10.3 15.7 9.3 15.6 9.3 15.6 C 9.4 15.1 9.5 14.8 9.7 14.5 C 10 14.2 10.3 14 10.7 13.9 C 11.1 13.7 11.6 13.6 12.1 13.6 C 12.6 13.6 13.1 13.7 13.4 13.8 C 13.7 13.9 14 14.1 14.1 14.3 C 14.3 14.5 14.4 14.7 14.4 15 C 14.5 15.2 14.5 15.5 14.5 16 C 14.5 16 14.5 17.4 14.5 17.4 C 14.5 18.4 14.5 19 14.6 19.3 C 14.6 19.5 14.7 19.8 14.8 20 C 14.83 20 13.7 20 13.7 20 C 13.7 20 13.73 20 13.7 20 Z M 13.4 16.9 C 13 17 12.5 17.2 11.7 17.3 C 11.3 17.3 11 17.4 10.8 17.5 C 10.6 17.6 10.5 17.7 10.4 17.8 C 10.3 18 10.2 18.1 10.2 18.3 C 10.2 18.6 10.3 18.8 10.5 19 C 10.8 19.2 11.1 19.3 11.5 19.3 C 11.9 19.3 12.2 19.2 12.6 19 C 12.9 18.9 13.1 18.6 13.3 18.3 C 13.4 18.1 13.4 17.7 13.4 17.3 C 13.4 17.3 13.4 16.9 13.4 16.9 Z M 15.7 18.1 C 15.7 18.1 16.8 18 16.8 18 C 16.8 18.4 17 18.7 17.2 18.9 C 17.5 19.2 17.9 19.3 18.4 19.3 C 18.8 19.3 19.2 19.2 19.4 19 C 19.7 18.8 19.8 18.5 19.8 18.3 C 19.8 18 19.7 17.9 19.5 17.7 C 19.3 17.6 19 17.5 18.4 17.4 C 17.6 17.2 17.1 17 16.8 16.9 C 16.5 16.7 16.3 16.5 16.1 16.3 C 16 16 15.9 15.7 15.9 15.4 C 15.9 15.2 15.9 14.9 16.1 14.7 C 16.2 14.4 16.4 14.2 16.6 14.1 C 16.8 13.9 17 13.8 17.3 13.8 C 17.5 13.7 17.9 13.6 18.2 13.6 C 18.7 13.6 19.1 13.7 19.5 13.8 C 19.8 14 20.1 14.2 20.3 14.4 C 20.5 14.7 20.6 15 20.6 15.4 C 20.6 15.4 19.6 15.5 19.6 15.5 C 19.6 15.2 19.4 15 19.2 14.8 C 19 14.6 18.7 14.5 18.3 14.5 C 17.8 14.5 17.4 14.6 17.2 14.7 C 17 14.9 16.9 15.1 16.9 15.3 C 16.9 15.4 16.9 15.6 17 15.7 C 17.1 15.8 17.3 15.9 17.4 16 C 17.5 16 17.9 16.1 18.4 16.2 C 19.1 16.4 19.6 16.6 19.9 16.7 C 20.2 16.8 20.5 17 20.6 17.3 C 20.8 17.5 20.9 17.8 20.9 18.2 C 20.9 18.5 20.8 18.9 20.6 19.2 C 20.4 19.5 20.1 19.7 19.7 19.9 C 19.3 20.1 18.9 20.1 18.4 20.1 C 17.6 20.1 16.9 20 16.5 19.6 C 16.1 19.3 15.8 18.8 15.7 18.1 Z M 26.4 18 C 26.4 18 27.5 18.1 27.5 18.1 C 27.3 18.8 27 19.3 26.5 19.6 C 26.1 20 25.5 20.1 24.7 20.1 C 23.8 20.1 23.1 19.9 22.6 19.3 C 22 18.7 21.8 18 21.8 16.9 C 21.8 15.9 22 15.1 22.6 14.5 C 23.1 13.9 23.8 13.6 24.7 13.6 C 25.5 13.6 26.2 13.9 26.7 14.5 C 27.3 15.1 27.5 15.8 27.5 16.9 C 27.5 16.9 27.5 17 27.5 17.2 C 27.5 17.2 22.9 17.2 22.9 17.2 C 22.9 17.8 23.1 18.4 23.4 18.7 C 23.8 19.1 24.2 19.3 24.8 19.3 C 25.1 19.3 25.5 19.2 25.7 19 C 26 18.8 26.2 18.4 26.4 18 Z M 22.9 16.3 C 22.9 16.3 26.4 16.3 26.4 16.3 C 26.4 15.8 26.2 15.4 26 15.1 C 25.7 14.7 25.2 14.5 24.7 14.5 C 24.2 14.5 23.8 14.7 23.5 15 C 23.1 15.3 23 15.7 22.9 16.3 Z M 31.9 17.2 C 31.9 17.2 33 17.1 33 17.1 C 33 17.6 33.1 17.9 33.3 18.2 C 33.5 18.5 33.8 18.7 34.2 18.9 C 34.6 19 35 19.1 35.5 19.1 C 35.9 19.1 36.3 19.1 36.6 18.9 C 37 18.8 37.2 18.6 37.4 18.4 C 37.5 18.2 37.6 17.9 37.6 17.7 C 37.6 17.4 37.6 17.2 37.4 17 C 37.2 16.8 37 16.6 36.6 16.5 C 36.4 16.4 35.9 16.2 35.1 16 C 34.3 15.8 33.8 15.7 33.4 15.5 C 33 15.3 32.7 15 32.5 14.7 C 32.3 14.4 32.2 14 32.2 13.6 C 32.2 13.2 32.3 12.8 32.6 12.4 C 32.8 12 33.2 11.8 33.7 11.6 C 34.1 11.4 34.7 11.3 35.2 11.3 C 35.9 11.3 36.4 11.4 36.9 11.6 C 37.4 11.8 37.8 12.1 38 12.5 C 38.3 12.9 38.4 13.3 38.5 13.8 C 38.5 13.8 37.4 13.9 37.4 13.9 C 37.3 13.4 37.1 13 36.8 12.7 C 36.4 12.4 35.9 12.3 35.3 12.3 C 34.6 12.3 34.1 12.4 33.8 12.6 C 33.5 12.9 33.3 13.2 33.3 13.6 C 33.3 13.9 33.4 14.1 33.6 14.3 C 33.9 14.5 34.4 14.7 35.4 14.9 C 36.3 15.1 36.9 15.3 37.3 15.5 C 37.8 15.7 38.1 16 38.4 16.4 C 38.6 16.7 38.7 17.1 38.7 17.6 C 38.7 18 38.6 18.5 38.3 18.9 C 38.1 19.3 37.7 19.6 37.2 19.8 C 36.7 20 36.2 20.1 35.5 20.1 C 34.8 20.1 34.1 20 33.6 19.8 C 33.1 19.6 32.7 19.2 32.4 18.8 C 32.1 18.3 31.9 17.8 31.9 17.2 Z M 42 19.1 C 42.1 19.1 42.3 19.1 42.4 19.1 C 42.4 19.1 42.6 20 42.6 20 C 42.3 20.1 42 20.1 41.8 20.1 C 41.4 20.1 41.1 20 40.9 19.9 C 40.7 19.8 40.6 19.6 40.5 19.4 C 40.4 19.2 40.3 18.8 40.3 18.2 C 40.34 18.18 40.3 14.6 40.3 14.6 L 39.6 14.6 L 39.6 13.8 L 40.3 13.8 L 40.3 12.2 L 41.4 11.6 L 41.4 13.8 L 42.4 13.8 L 42.4 14.6 L 41.4 14.6 C 41.4 14.6 41.38 18.24 41.4 18.2 C 41.4 18.5 41.4 18.7 41.4 18.8 C 41.5 18.9 41.5 19 41.6 19 C 41.7 19.1 41.8 19.1 42 19.1 C 42 19.1 42 19.1 42 19.1 Z M 47.6 20 C 47.6 20 47.55 19.09 47.6 19.1 C 47.1 19.8 46.4 20.1 45.6 20.1 C 45.2 20.1 44.9 20.1 44.6 19.9 C 44.2 19.8 44 19.6 43.8 19.4 C 43.7 19.2 43.6 18.9 43.5 18.6 C 43.5 18.4 43.5 18.1 43.5 17.6 C 43.45 17.63 43.5 13.8 43.5 13.8 L 44.5 13.8 C 44.5 13.8 44.51 17.23 44.5 17.2 C 44.5 17.8 44.5 18.2 44.6 18.3 C 44.6 18.6 44.8 18.8 45 19 C 45.2 19.2 45.5 19.2 45.8 19.2 C 46.1 19.2 46.4 19.2 46.7 19 C 47 18.8 47.2 18.6 47.3 18.3 C 47.4 18 47.4 17.6 47.4 17.1 C 47.44 17.11 47.4 13.8 47.4 13.8 L 48.5 13.8 L 48.5 20 L 47.6 20 Z M 54.2 20 C 54.2 20 54.19 19.21 54.2 19.2 C 53.8 19.8 53.2 20.1 52.4 20.1 C 52 20.1 51.5 20 51.1 19.7 C 50.7 19.5 50.3 19.1 50.1 18.6 C 49.9 18.1 49.8 17.5 49.8 16.9 C 49.8 16.3 49.9 15.7 50.1 15.2 C 50.3 14.7 50.6 14.3 51 14 C 51.4 13.8 51.9 13.6 52.4 13.6 C 52.8 13.6 53.1 13.7 53.4 13.9 C 53.7 14 53.9 14.2 54.1 14.5 C 54.12 14.49 54.1 11.4 54.1 11.4 L 55.2 11.4 L 55.2 20 L 54.2 20 Z M 50.9 16.9 C 50.9 17.7 51 18.3 51.4 18.7 C 51.7 19.1 52.1 19.3 52.5 19.3 C 53 19.3 53.4 19.1 53.7 18.7 C 54 18.3 54.2 17.8 54.2 17 C 54.2 16.1 54 15.5 53.7 15.1 C 53.4 14.7 53 14.5 52.5 14.5 C 52 14.5 51.6 14.7 51.3 15.1 C 51 15.5 50.9 16.1 50.9 16.9 Z M 56.8 12.6 L 56.8 11.4 L 57.9 11.4 L 57.9 12.6 L 56.8 12.6 Z M 56.8 20 L 56.8 13.8 L 57.9 13.8 L 57.9 20 L 56.8 20 Z M 63.8 18 C 63.8 18 64.8 18.1 64.8 18.1 C 64.7 18.8 64.3 19.3 63.9 19.6 C 63.4 20 62.8 20.1 62.1 20.1 C 61.2 20.1 60.5 19.9 59.9 19.3 C 59.4 18.7 59.1 18 59.1 16.9 C 59.1 15.9 59.4 15.1 59.9 14.5 C 60.5 13.9 61.2 13.6 62 13.6 C 62.9 13.6 63.6 13.9 64.1 14.5 C 64.6 15.1 64.9 15.8 64.9 16.9 C 64.9 16.9 64.9 17 64.9 17.2 C 64.9 17.2 60.2 17.2 60.2 17.2 C 60.3 17.8 60.5 18.4 60.8 18.7 C 61.2 19.1 61.6 19.3 62.1 19.3 C 62.5 19.3 62.8 19.2 63.1 19 C 63.4 18.8 63.6 18.4 63.8 18 Z M 60.3 16.3 C 60.3 16.3 63.8 16.3 63.8 16.3 C 63.7 15.8 63.6 15.4 63.4 15.1 C 63 14.7 62.6 14.5 62.1 14.5 C 61.6 14.5 61.2 14.7 60.8 15 C 60.5 15.3 60.3 15.7 60.3 16.3 Z M 65.7 18.1 C 65.7 18.1 66.8 18 66.8 18 C 66.8 18.4 67 18.7 67.3 18.9 C 67.5 19.2 67.9 19.3 68.4 19.3 C 68.9 19.3 69.2 19.2 69.5 19 C 69.7 18.8 69.8 18.5 69.8 18.3 C 69.8 18 69.7 17.9 69.5 17.7 C 69.4 17.6 69 17.5 68.4 17.4 C 67.7 17.2 67.1 17 66.8 16.9 C 66.5 16.7 66.3 16.5 66.1 16.3 C 66 16 65.9 15.7 65.9 15.4 C 65.9 15.2 66 14.9 66.1 14.7 C 66.2 14.4 66.4 14.2 66.6 14.1 C 66.8 13.9 67 13.8 67.3 13.8 C 67.6 13.7 67.9 13.6 68.2 13.6 C 68.7 13.6 69.1 13.7 69.5 13.8 C 69.9 14 70.1 14.2 70.3 14.4 C 70.5 14.7 70.6 15 70.7 15.4 C 70.7 15.4 69.6 15.5 69.6 15.5 C 69.6 15.2 69.5 15 69.2 14.8 C 69 14.6 68.7 14.5 68.3 14.5 C 67.8 14.5 67.5 14.6 67.2 14.7 C 67 14.9 66.9 15.1 66.9 15.3 C 66.9 15.4 67 15.6 67.1 15.7 C 67.2 15.8 67.3 15.9 67.5 16 C 67.6 16 67.9 16.1 68.4 16.2 C 69.1 16.4 69.7 16.6 70 16.7 C 70.3 16.8 70.5 17 70.7 17.3 C 70.8 17.5 70.9 17.8 70.9 18.2 C 70.9 18.5 70.8 18.9 70.6 19.2 C 70.4 19.5 70.1 19.7 69.7 19.9 C 69.3 20.1 68.9 20.1 68.4 20.1 C 67.6 20.1 67 20 66.6 19.6 C 66.1 19.3 65.9 18.8 65.7 18.1 Z " stroke="none" fill="#fff"/>  </g></svg>