<?xml version="1.0" standalone="no"?><!DOCTYPE svg PUBLIC "-//W3C//DTD SVG 1.1//EN" "http://www.w3.org/Graphics/SVG/1.1/DTD/svg11.dtd"><svg xmlns="http://www.w3.org/2000/svg" version="1.1" width="384px" height="75.5px" viewBox="0 -12 384 75.5" style="top:-12px">  <desc>Case Studies</desc>  <defs/>  <g id="Polygon16068">    <path d="M 32 4.6 C 32 4.6 32 8.6 32 8.6 C 28.4 6.6 24.5 5.4 20.5 5.4 C 11.8 5.4 6.3 11.9 6.3 19.4 C 6.3 27.1 11.7 33.4 20.4 33.4 C 24.6 33.4 28.6 32.2 32.3 29.9 C 32.3 29.9 32.3 34 32.3 34 C 28.5 36 24.5 36.9 20.3 36.9 C 8.5 36.9 2.4 28 2.4 19.5 C 2.4 9.4 10.2 1.9 20.4 1.9 C 24.3 1.9 28.1 2.8 32 4.6 Z M 52.6 2.1 L 67.8 36.4 L 63.9 36.4 L 59.1 25.7 L 43.6 25.7 L 39 36.4 L 35.2 36.4 L 49.9 2.1 L 52.6 2.1 Z M 45.1 22.4 L 57.6 22.4 L 51.2 7.9 L 45.1 22.4 Z M 88.3 4.1 C 88.3 4.1 88.3 8.3 88.3 8.3 C 85.9 6.3 83.4 5.3 80.6 5.3 C 77 5.3 74.6 7.3 74.6 10.2 C 74.6 12.5 75.2 14.4 80.8 17.3 C 87.9 20.9 89.6 23.4 89.6 28 C 89.6 33.1 85.7 36.9 79.8 36.9 C 76.6 36.9 73.6 35.8 71 33.9 C 71 33.9 71 29.2 71 29.2 C 73.5 32 76.5 33.5 79.8 33.5 C 83.3 33.5 85.8 31.4 85.8 28.1 C 85.8 25.2 84.8 23.5 78.2 20 C 72.9 17.3 70.8 14.7 70.8 10.3 C 70.8 5.5 75 1.9 80.7 1.9 C 83.3 1.9 86 2.6 88.3 4.1 Z M 114.1 2.3 L 114.1 5.7 L 99.2 5.7 L 99.2 17.6 L 113.6 17.6 L 113.6 20.9 L 99.2 20.9 L 99.2 33 L 114.5 33 L 114.5 36.4 L 95.4 36.4 L 95.4 2.3 L 114.1 2.3 Z M 150.2 4.1 C 150.2 4.1 150.2 8.3 150.2 8.3 C 147.9 6.3 145.3 5.3 142.5 5.3 C 138.9 5.3 136.6 7.3 136.6 10.2 C 136.6 12.5 137.1 14.4 142.8 17.3 C 149.8 20.9 151.5 23.4 151.5 28 C 151.5 33.1 147.6 36.9 141.8 36.9 C 138.5 36.9 135.5 35.8 132.9 33.9 C 132.9 33.9 132.9 29.2 132.9 29.2 C 135.5 32 138.5 33.5 141.8 33.5 C 145.2 33.5 147.7 31.4 147.7 28.1 C 147.7 25.2 146.8 23.5 140.2 20 C 134.8 17.3 132.8 14.7 132.8 10.3 C 132.8 5.5 136.9 1.9 142.6 1.9 C 145.3 1.9 147.9 2.6 150.2 4.1 Z M 182.3 2.3 L 182.3 5.6 L 170.1 5.6 L 170.1 36.4 L 166.3 36.4 L 166.3 5.6 L 154.3 5.6 L 154.3 2.3 L 182.3 2.3 Z M 190.2 2.3 C 190.2 2.3 190.2 22 190.2 22 C 190.2 29.5 193.7 33.5 200.7 33.5 C 207.8 33.5 211.3 29.4 211.3 22 C 211.3 22 211.3 2.3 211.3 2.3 L 215 2.3 C 215 2.3 215.05 22 215 22 C 215 30.9 210.3 36.9 200.8 36.9 C 191.4 36.9 186.4 31.5 186.4 22 C 186.45 22 186.4 2.3 186.4 2.3 L 190.2 2.3 Z M 222.3 2.3 C 222.3 2.3 234.85 2.35 234.8 2.3 C 246 2.3 253.2 9.3 253.2 19 C 253.2 29.6 245.7 36.4 234.8 36.4 C 234.85 36.45 222.3 36.4 222.3 36.4 L 222.3 2.3 Z M 234.8 33 C 243.7 33 249.3 27.7 249.3 19.3 C 249.3 11.1 243.9 5.7 234.2 5.7 C 234.25 5.7 226 5.7 226 5.7 L 226 33 C 226 33 234.8 33.05 234.8 33 Z M 263.2 2.3 L 263.2 36.4 L 259.4 36.4 L 259.4 2.3 L 263.2 2.3 Z M 289.5 2.3 L 289.5 5.7 L 274.6 5.7 L 274.6 17.6 L 289 17.6 L 289 20.9 L 274.6 20.9 L 274.6 33 L 289.9 33 L 289.9 36.4 L 270.8 36.4 L 270.8 2.3 L 289.5 2.3 Z M 311.7 4.1 C 311.7 4.1 311.7 8.3 311.7 8.3 C 309.4 6.3 306.8 5.3 304 5.3 C 300.4 5.3 298.1 7.3 298.1 10.2 C 298.1 12.5 298.6 14.4 304.3 17.3 C 311.3 20.9 313 23.4 313 28 C 313 33.1 309.1 36.9 303.3 36.9 C 300 36.9 297 35.8 294.4 33.9 C 294.4 33.9 294.4 29.2 294.4 29.2 C 297 32 300 33.5 303.3 33.5 C 306.7 33.5 309.2 31.4 309.2 28.1 C 309.2 25.2 308.3 23.5 301.7 20 C 296.3 17.3 294.3 14.7 294.3 10.3 C 294.3 5.5 298.4 1.9 304.1 1.9 C 306.8 1.9 309.4 2.6 311.7 4.1 Z " stroke="none" fill="#010102"/>  </g></svg>