<?xml version="1.0" standalone="no"?><!DOCTYPE svg PUBLIC "-//W3C//DTD SVG 1.1//EN" "http://www.w3.org/Graphics/SVG/1.1/DTD/svg11.dtd"><svg xmlns="http://www.w3.org/2000/svg" version="1.1" width="147px" height="98.4px" viewBox="0 -4 147 98.4" style="top:-4px">  <desc>Training Equality, Diversion and Inclusion 01</desc>  <defs/>  <g id="Polygon41933">    <path d="M 3 69.3 L 3 82.9 L 1.5 82.9 L 1.5 69.3 L 3 69.3 Z M 7.3 69.3 L 17 80.6 L 17 69.3 L 18.4 69.3 L 18.4 82.9 L 17.1 82.9 L 7.5 71.7 L 7.5 82.9 L 6.1 82.9 L 6.1 69.3 L 7.3 69.3 Z M 32.8 70.2 C 32.8 70.2 32.8 71.8 32.8 71.8 C 31.3 71 29.7 70.5 28.1 70.5 C 24.7 70.5 22.5 73.1 22.5 76.1 C 22.5 79.2 24.6 81.7 28.1 81.7 C 29.8 81.7 31.4 81.2 32.9 80.3 C 32.9 80.3 32.9 82 32.9 82 C 31.3 82.8 29.8 83.1 28.1 83.1 C 23.4 83.1 20.9 79.6 20.9 76.2 C 20.9 72.1 24 69.1 28.1 69.1 C 29.7 69.1 31.2 69.5 32.8 70.2 Z M 36.7 69.3 L 36.7 81.6 L 43.1 81.6 L 43.1 82.9 L 35.2 82.9 L 35.2 69.3 L 36.7 69.3 Z M 45.6 69.3 C 45.6 69.3 45.56 77.15 45.6 77.2 C 45.6 80.2 47 81.8 49.8 81.8 C 52.6 81.8 54 80.1 54 77.2 C 54 77.15 54 69.3 54 69.3 L 55.5 69.3 C 55.5 69.3 55.5 77.15 55.5 77.2 C 55.5 80.7 53.6 83.1 49.8 83.1 C 46.1 83.1 44.1 81 44.1 77.2 C 44.06 77.15 44.1 69.3 44.1 69.3 L 45.6 69.3 Z M 64.7 70 C 64.7 70 64.7 71.7 64.7 71.7 C 63.8 70.9 62.8 70.5 61.6 70.5 C 60.2 70.5 59.3 71.3 59.3 72.5 C 59.3 73.4 59.5 74.1 61.7 75.3 C 64.6 76.7 65.2 77.7 65.2 79.6 C 65.2 81.6 63.7 83.1 61.3 83.1 C 60 83.1 58.8 82.7 57.8 81.9 C 57.8 81.9 57.8 80 57.8 80 C 58.8 81.2 60 81.8 61.3 81.8 C 62.7 81.8 63.7 80.9 63.7 79.6 C 63.7 78.4 63.3 77.8 60.7 76.4 C 58.6 75.3 57.7 74.2 57.7 72.5 C 57.7 70.6 59.4 69.1 61.7 69.1 C 62.7 69.1 63.8 69.4 64.7 70 Z M 69.1 69.3 L 69.1 82.9 L 67.6 82.9 L 67.6 69.3 L 69.1 69.3 Z M 85.9 76.1 C 85.9 79.9 83.1 83.1 78.6 83.1 C 74.4 83.1 71.5 79.9 71.5 76.2 C 71.5 72.4 74.3 69.1 78.7 69.1 C 83 69.1 85.9 72.3 85.9 76.1 Z M 73.1 76.1 C 73.1 79.4 75.6 81.7 78.6 81.7 C 82.7 81.7 84.4 78.6 84.4 76.1 C 84.4 73.3 82.3 70.5 78.8 70.5 C 75 70.5 73.1 73.4 73.1 76.1 Z M 89.6 69.3 L 99.3 80.6 L 99.3 69.3 L 100.7 69.3 L 100.7 82.9 L 99.4 82.9 L 89.8 71.7 L 89.8 82.9 L 88.4 82.9 L 88.4 69.3 L 89.6 69.3 Z M 108.4 76.1 C 108.4 71.6 110.5 69.1 112.9 69.1 C 115.5 69.1 117.2 72 117.2 76.1 C 117.2 80.4 115.3 83.1 112.8 83.1 C 110.1 83.1 108.4 80.3 108.4 76.1 Z M 115.7 76.1 C 115.7 72.5 114.5 70.5 112.8 70.5 C 111.1 70.5 109.9 72.5 109.9 76.1 C 109.9 79.6 111 81.7 112.8 81.7 C 114.6 81.7 115.7 79.7 115.7 76.1 Z M 124.3 69.1 L 124.3 82.9 L 122.8 82.9 L 122.8 71.7 L 120.2 73.8 L 119.3 72.7 L 123.7 69.1 L 124.3 69.1 Z " stroke="none" fill="#000000"/>  </g>  <g id="Polygon41932">    <path d="M 1.5 45.3 C 1.5 45.3 6.56 45.29 6.6 45.3 C 11 45.3 13.9 48.1 13.9 52 C 13.9 56.2 10.9 58.9 6.6 58.9 C 6.56 58.93 1.5 58.9 1.5 58.9 L 1.5 45.3 Z M 6.5 57.6 C 10.1 57.6 12.3 55.5 12.3 52.1 C 12.3 48.8 10.2 46.6 6.3 46.6 C 6.32 46.63 3 46.6 3 46.6 L 3 57.6 C 3 57.6 6.54 57.57 6.5 57.6 Z M 17.9 45.3 L 17.9 58.9 L 16.4 58.9 L 16.4 45.3 L 17.9 45.3 Z M 19.5 45.3 L 21 45.3 L 25.4 55.9 L 25.4 55.9 L 29.8 45.3 L 31.3 45.3 L 25.6 59.1 L 25.2 59.1 L 19.5 45.3 Z M 40.4 45.3 L 40.4 46.6 L 34.4 46.6 L 34.4 51.4 L 40.2 51.4 L 40.2 52.7 L 34.4 52.7 L 34.4 57.6 L 40.5 57.6 L 40.5 58.9 L 32.9 58.9 L 32.9 45.3 L 40.4 45.3 Z M 42.9 45.3 C 42.9 45.3 46.52 45.29 46.5 45.3 C 49.3 45.3 50.7 46.9 50.7 49 C 50.7 50.7 49.8 51.8 48.1 52.3 C 49 52.8 49.4 53.1 50.5 54.9 C 50.5 54.85 53.1 58.9 53.1 58.9 L 51.4 58.9 C 51.4 58.9 48.96 55.17 49 55.2 C 47.7 53.2 46.9 52.7 45.7 52.7 C 45.7 52.73 44.4 52.7 44.4 52.7 L 44.4 58.9 L 42.9 58.9 L 42.9 45.3 Z M 45.8 51.4 C 47.7 51.4 49.1 51 49.1 49 C 49.1 47.3 48.1 46.6 46.3 46.6 C 46.32 46.61 44.4 46.6 44.4 46.6 L 44.4 51.4 C 44.4 51.4 45.84 51.41 45.8 51.4 Z M 61.3 46 C 61.3 46 61.3 47.7 61.3 47.7 C 60.3 46.9 59.3 46.5 58.2 46.5 C 56.8 46.5 55.8 47.3 55.8 48.5 C 55.8 49.4 56 50.1 58.3 51.3 C 61.1 52.7 61.8 53.7 61.8 55.6 C 61.8 57.6 60.2 59.1 57.9 59.1 C 56.6 59.1 55.4 58.7 54.4 57.9 C 54.4 57.9 54.4 56 54.4 56 C 55.4 57.2 56.6 57.8 57.9 57.8 C 59.3 57.8 60.3 56.9 60.3 55.6 C 60.3 54.4 59.9 53.8 57.3 52.4 C 55.1 51.3 54.3 50.2 54.3 48.5 C 54.3 46.6 56 45.1 58.2 45.1 C 59.3 45.1 60.4 45.4 61.3 46 Z M 65.6 45.3 L 65.6 58.9 L 64.1 58.9 L 64.1 45.3 L 65.6 45.3 Z M 82.5 52.1 C 82.5 55.9 79.7 59.1 75.2 59.1 C 70.9 59.1 68.1 55.9 68.1 52.2 C 68.1 48.4 70.8 45.1 75.2 45.1 C 79.6 45.1 82.5 48.3 82.5 52.1 Z M 69.6 52.1 C 69.6 55.4 72.1 57.7 75.2 57.7 C 79.3 57.7 80.9 54.6 80.9 52.1 C 80.9 49.3 78.9 46.5 75.3 46.5 C 71.6 46.5 69.6 49.4 69.6 52.1 Z M 86.2 45.3 L 95.8 56.6 L 95.8 45.3 L 97.3 45.3 L 97.3 58.9 L 96 58.9 L 86.4 47.7 L 86.4 58.9 L 84.9 58.9 L 84.9 45.3 L 86.2 45.3 Z M 110.5 45.2 L 116.5 58.9 L 115 58.9 L 113.1 54.7 L 106.9 54.7 L 105 58.9 L 103.5 58.9 L 109.4 45.2 L 110.5 45.2 Z M 107.5 53.3 L 112.5 53.3 L 109.9 47.5 L 107.5 53.3 Z M 119.3 45.3 L 129 56.6 L 129 45.3 L 130.4 45.3 L 130.4 58.9 L 129.1 58.9 L 119.5 47.7 L 119.5 58.9 L 118.1 58.9 L 118.1 45.3 L 119.3 45.3 Z M 133.5 45.3 C 133.5 45.3 138.51 45.29 138.5 45.3 C 143 45.3 145.9 48.1 145.9 52 C 145.9 56.2 142.9 58.9 138.5 58.9 C 138.51 58.93 133.5 58.9 133.5 58.9 L 133.5 45.3 Z M 138.5 57.6 C 142.1 57.6 144.3 55.5 144.3 52.1 C 144.3 48.8 142.1 46.6 138.3 46.6 C 138.27 46.63 135 46.6 135 46.6 L 135 57.6 C 135 57.6 138.49 57.57 138.5 57.6 Z " stroke="none" fill="#000000"/>  </g>  <g id="Polygon41931">    <path d="M 9 21.3 L 9 22.6 L 3 22.6 L 3 27.4 L 8.8 27.4 L 8.8 28.7 L 3 28.7 L 3 33.6 L 9.2 33.6 L 9.2 34.9 L 1.5 34.9 L 1.5 21.3 L 9 21.3 Z M 25 36.1 C 25 36.1 23.32 37.71 23.3 37.7 C 21.1 37.5 18.5 36.4 16 34.7 C 12.8 33.9 11 31.2 11 28.2 C 11 24 14.2 21.1 18.1 21.1 C 22.9 21.1 25.4 24.6 25.4 28.1 C 25.4 31.6 22.9 34.4 19.4 35 C 20.9 35.9 22.6 36.4 23.6 36.4 C 24 36.4 24.4 36.3 24.9 36 C 24.86 35.97 25 36.1 25 36.1 Z M 23.8 28.1 C 23.8 25.3 21.8 22.5 18.2 22.5 C 14.5 22.5 12.5 25.4 12.5 28.1 C 12.5 31.3 14.9 33.7 18.1 33.7 C 21.4 33.7 23.8 31.4 23.8 28.1 Z M 29.1 21.3 C 29.1 21.3 29.14 29.15 29.1 29.2 C 29.1 32.2 30.6 33.8 33.4 33.8 C 36.2 33.8 37.6 32.1 37.6 29.2 C 37.58 29.15 37.6 21.3 37.6 21.3 L 39.1 21.3 C 39.1 21.3 39.08 29.15 39.1 29.2 C 39.1 32.7 37.2 35.1 33.4 35.1 C 29.6 35.1 27.6 33 27.6 29.2 C 27.64 29.15 27.6 21.3 27.6 21.3 L 29.1 21.3 Z M 46.9 21.2 L 53 34.9 L 51.5 34.9 L 49.5 30.7 L 43.3 30.7 L 41.5 34.9 L 40 34.9 L 45.9 21.2 L 46.9 21.2 Z M 43.9 29.3 L 48.9 29.3 L 46.4 23.5 L 43.9 29.3 Z M 56.1 21.3 L 56.1 33.6 L 62.5 33.6 L 62.5 34.9 L 54.6 34.9 L 54.6 21.3 L 56.1 21.3 Z M 65.7 21.3 L 65.7 34.9 L 64.2 34.9 L 64.2 21.3 L 65.7 21.3 Z M 78.7 21.3 L 78.7 22.6 L 73.9 22.6 L 73.9 34.9 L 72.4 34.9 L 72.4 22.6 L 67.5 22.6 L 67.5 21.3 L 78.7 21.3 Z M 81.1 21.3 L 85.2 26.3 L 89.2 21.3 L 91 21.3 L 85.9 27.7 L 85.9 34.9 L 84.4 34.9 L 84.4 27.7 L 79.3 21.3 L 81.1 21.3 Z M 90.6 36.8 C 91 36.5 91.3 35.8 91.3 34.9 C 91.3 34.93 90.7 34.9 90.7 34.9 L 90.7 33 L 92.4 33 C 92.4 33 92.42 34.47 92.4 34.5 C 92.4 36.2 91.7 37.1 90.6 37.4 C 90.6 37.4 90.6 36.8 90.6 36.8 Z " stroke="none" fill="#000000"/>  </g>  <g id="Polygon41930">    <path d="M 8.6 0.7 L 8.6 1.7 L 5 1.7 L 5 10.9 L 3.8 10.9 L 3.8 1.7 L 0.2 1.7 L 0.2 0.7 L 8.6 0.7 Z M 10 0.7 C 10 0.7 12.69 0.7 12.7 0.7 C 14.7 0.7 15.8 1.9 15.8 3.4 C 15.8 4.7 15.1 5.6 13.9 6 C 14.5 6.3 14.8 6.6 15.7 7.9 C 15.67 7.87 17.7 10.9 17.7 10.9 L 16.3 10.9 C 16.3 10.9 14.52 8.11 14.5 8.1 C 13.6 6.6 12.9 6.3 12.1 6.3 C 12.07 6.28 11.1 6.3 11.1 6.3 L 11.1 10.9 L 10 10.9 L 10 0.7 Z M 12.2 5.3 C 13.6 5.3 14.7 4.9 14.7 3.5 C 14.7 2.2 13.8 1.7 12.5 1.7 C 12.54 1.69 11.1 1.7 11.1 1.7 L 11.1 5.3 C 11.1 5.3 12.18 5.29 12.2 5.3 Z M 22.9 0.6 L 27.4 10.9 L 26.3 10.9 L 24.8 7.7 L 20.2 7.7 L 18.8 10.9 L 17.7 10.9 L 22.1 0.6 L 22.9 0.6 Z M 20.6 6.7 L 24.4 6.7 L 22.5 2.4 L 20.6 6.7 Z M 29.7 0.7 L 29.7 10.9 L 28.6 10.9 L 28.6 0.7 L 29.7 0.7 Z M 33 0.7 L 40.2 9.2 L 40.2 0.7 L 41.3 0.7 L 41.3 10.9 L 40.3 10.9 L 33.1 2.5 L 33.1 10.9 L 32 10.9 L 32 0.7 L 33 0.7 Z M 44.7 0.7 L 44.7 10.9 L 43.6 10.9 L 43.6 0.7 L 44.7 0.7 Z M 47.9 0.7 L 55.2 9.2 L 55.2 0.7 L 56.2 0.7 L 56.2 10.9 L 55.3 10.9 L 48.1 2.5 L 48.1 10.9 L 47 10.9 L 47 0.7 L 47.9 0.7 Z M 67 2.6 C 65.9 1.9 64.6 1.6 63.5 1.6 C 61.1 1.6 59.3 3.4 59.3 5.8 C 59.3 8.3 61 10.1 63.6 10.1 C 64.4 10.1 65 9.9 66.1 9.5 C 66.07 9.54 66.1 7 66.1 7 L 64 7 L 64 6.1 L 67.2 6.1 C 67.2 6.1 67.2 10.23 67.2 10.2 C 66 10.8 64.9 11.1 63.6 11.1 C 59.9 11.1 58.1 8.5 58.1 5.9 C 58.1 3 60.2 0.6 63.5 0.6 C 64.7 0.6 65.6 0.8 67 1.4 C 67 1.4 67 2.6 67 2.6 Z " stroke="none" fill="#f28620"/>  </g></svg>