<?xml version="1.0" standalone="no"?><!DOCTYPE svg PUBLIC "-//W3C//DTD SVG 1.1//EN" "http://www.w3.org/Graphics/SVG/1.1/DTD/svg11.dtd"><svg xmlns="http://www.w3.org/2000/svg" version="1.1" width="714.1px" height="119.5px" viewBox="0 -1 714.1 119.5" style="top:-1px">  <desc>Case Studies</desc>  <defs/>  <g id="Polygon3927">    <path d="M 298.4 48.7 C 298.4 48.7 298.4 50.1 298.4 50.1 C 296.7 49.2 294.9 48.6 293 48.6 C 288.7 48.6 285.9 51.9 285.9 55.9 C 285.9 60 288.7 63.1 293 63.1 C 294.9 63.1 296.8 62.6 298.5 61.5 C 298.5 61.5 298.5 63 298.5 63 C 296.8 63.8 295 64.3 293 64.3 C 287.7 64.3 284.5 60.3 284.5 56 C 284.5 51.1 288.1 47.5 293 47.5 C 294.9 47.5 296.7 47.9 298.4 48.7 Z M 308 47.6 L 315.3 64 L 313.9 64 L 311.5 58.6 L 303.6 58.6 L 301.3 64 L 299.9 64 L 307.1 47.6 L 308 47.6 Z M 304.1 57.5 L 311 57.5 L 307.5 49.5 L 304.1 57.5 Z M 324.9 48.4 C 324.9 48.4 324.9 49.8 324.9 49.8 C 323.8 49 322.6 48.6 321.4 48.6 C 319.4 48.6 318.1 49.8 318.1 51.4 C 318.1 52.7 318.4 53.8 321.4 55.1 C 324.6 56.6 325.5 57.8 325.5 60 C 325.5 62.5 323.7 64.3 320.9 64.3 C 319.4 64.3 318 63.8 316.8 62.9 C 316.8 62.9 316.8 61.4 316.8 61.4 C 318.1 62.5 319.5 63.1 320.9 63.1 C 322.9 63.1 324.2 61.9 324.2 60 C 324.2 58.4 323.6 57.5 320.6 56.1 C 317.8 54.8 316.8 53.6 316.8 51.5 C 316.8 49.2 318.7 47.5 321.4 47.5 C 322.6 47.5 323.8 47.8 324.9 48.4 Z M 336.9 47.7 L 336.9 48.8 L 329.5 48.8 L 329.5 55.2 L 336.7 55.2 L 336.7 56.4 L 329.5 56.4 L 329.5 62.9 L 337.1 62.9 L 337.1 64 L 328.3 64 L 328.3 47.7 L 336.9 47.7 Z M 353.8 48.4 C 353.8 48.4 353.8 49.8 353.8 49.8 C 352.7 49 351.5 48.6 350.3 48.6 C 348.3 48.6 346.9 49.8 346.9 51.4 C 346.9 52.7 347.3 53.8 350.2 55.1 C 353.5 56.6 354.4 57.8 354.4 60 C 354.4 62.5 352.6 64.3 349.8 64.3 C 348.3 64.3 346.9 63.8 345.7 62.9 C 345.7 62.9 345.7 61.4 345.7 61.4 C 347 62.5 348.3 63.1 349.8 63.1 C 351.7 63.1 353.1 61.9 353.1 60 C 353.1 58.4 352.5 57.5 349.4 56.1 C 346.7 54.8 345.7 53.6 345.7 51.5 C 345.7 49.2 347.6 47.5 350.3 47.5 C 351.5 47.5 352.7 47.8 353.8 48.4 Z M 368.8 47.7 L 368.8 48.8 L 362.8 48.8 L 362.8 64 L 361.6 64 L 361.6 48.8 L 355.6 48.8 L 355.6 47.7 L 368.8 47.7 Z M 372 47.7 C 372 47.7 372.04 57.08 372 57.1 C 372 60.7 373.9 63.1 377.5 63.1 C 381.1 63.1 382.9 60.6 382.9 57.1 C 382.94 57.08 382.9 47.7 382.9 47.7 L 384.2 47.7 C 384.2 47.7 384.19 57.08 384.2 57.1 C 384.2 61.2 381.9 64.3 377.6 64.3 C 373 64.3 370.8 61.4 370.8 57.1 C 370.79 57.05 370.8 47.7 370.8 47.7 L 372 47.7 Z M 387.7 47.7 C 387.7 47.7 393.55 47.67 393.5 47.7 C 398.8 47.7 402.3 51 402.3 55.7 C 402.3 60.8 398.8 64 393.6 64 C 393.57 64.04 387.7 64 387.7 64 L 387.7 47.7 Z M 393.6 62.9 C 398.1 62.9 401 60.1 401 55.9 C 401 51.5 398.1 48.8 393.4 48.8 C 393.43 48.82 389 48.8 389 48.8 L 389 62.9 C 389 62.9 393.62 62.89 393.6 62.9 Z M 406.6 47.7 L 406.6 64 L 405.4 64 L 405.4 47.7 L 406.6 47.7 Z M 419 47.7 L 419 48.8 L 411.6 48.8 L 411.6 55.2 L 418.8 55.2 L 418.8 56.4 L 411.6 56.4 L 411.6 62.9 L 419.2 62.9 L 419.2 64 L 410.4 64 L 410.4 47.7 L 419 47.7 Z M 429.2 48.4 C 429.2 48.4 429.2 49.8 429.2 49.8 C 428.1 49 426.9 48.6 425.7 48.6 C 423.7 48.6 422.3 49.8 422.3 51.4 C 422.3 52.7 422.7 53.8 425.6 55.1 C 428.9 56.6 429.8 57.8 429.8 60 C 429.8 62.5 428 64.3 425.2 64.3 C 423.7 64.3 422.3 63.8 421.1 62.9 C 421.1 62.9 421.1 61.4 421.1 61.4 C 422.4 62.5 423.7 63.1 425.2 63.1 C 427.1 63.1 428.5 61.9 428.5 60 C 428.5 58.4 427.9 57.5 424.8 56.1 C 422.1 54.8 421.1 53.6 421.1 51.5 C 421.1 49.2 423 47.5 425.7 47.5 C 426.9 47.5 428.1 47.8 429.2 48.4 Z " stroke="none" fill="#000000"/>  </g></svg>