<?xml version="1.0" standalone="no"?><!DOCTYPE svg PUBLIC "-//W3C//DTD SVG 1.1//EN" "http://www.w3.org/Graphics/SVG/1.1/DTD/svg11.dtd"><svg xmlns="http://www.w3.org/2000/svg" version="1.1" width="171.2px" height="75.5px" viewBox="0 -12 171.2 75.5" style="top:-12px">  <desc>Survey</desc>  <defs/>  <g id="Polygon16150">    <path d="M 19.6 4.1 C 19.6 4.1 19.6 8.3 19.6 8.3 C 17.3 6.3 14.8 5.3 11.9 5.3 C 8.4 5.3 6 7.3 6 10.2 C 6 12.5 6.6 14.4 12.2 17.3 C 19.3 20.9 21 23.4 21 28 C 21 33.1 17.1 36.9 11.2 36.9 C 8 36.9 5 35.8 2.4 33.9 C 2.4 33.9 2.4 29.2 2.4 29.2 C 4.9 32 7.9 33.5 11.2 33.5 C 14.7 33.5 17.1 31.4 17.1 28.1 C 17.1 25.2 16.2 23.5 9.6 20 C 4.3 17.3 2.2 14.7 2.2 10.3 C 2.2 5.5 6.3 1.9 12.1 1.9 C 14.7 1.9 17.4 2.6 19.6 4.1 Z M 30.1 2.3 C 30.1 2.3 30.1 22 30.1 22 C 30.1 29.5 33.6 33.5 40.6 33.5 C 47.7 33.5 51.2 29.4 51.2 22 C 51.2 22 51.2 2.3 51.2 2.3 L 54.9 2.3 C 54.9 2.3 54.95 22 54.9 22 C 54.9 30.9 50.2 36.9 40.7 36.9 C 31.3 36.9 26.3 31.5 26.3 22 C 26.35 22 26.3 2.3 26.3 2.3 L 30.1 2.3 Z M 62.2 2.3 C 62.2 2.3 71.15 2.35 71.1 2.3 C 78 2.3 81.5 6.3 81.5 11.5 C 81.5 15.7 79.2 18.6 75.1 19.9 C 77.3 21 78.3 21.9 81.1 26.2 C 81.1 26.25 87.7 36.4 87.7 36.4 L 83.2 36.4 C 83.2 36.4 77.25 27.05 77.2 27 C 74.1 22 72 20.9 69.1 20.9 C 69.1 20.95 65.9 20.9 65.9 20.9 L 65.9 36.4 L 62.2 36.4 L 62.2 2.3 Z M 69.4 17.6 C 74.1 17.6 77.7 16.5 77.7 11.5 C 77.7 7.3 75 5.6 70.6 5.6 C 70.65 5.65 65.9 5.6 65.9 5.6 L 65.9 17.6 C 65.9 17.6 69.45 17.65 69.4 17.6 Z M 85.9 2.3 L 89.7 2.3 L 100.8 28.9 L 100.8 28.9 L 111.9 2.3 L 115.6 2.3 L 101.2 36.8 L 100.4 36.8 L 85.9 2.3 Z M 138.2 2.3 L 138.2 5.7 L 123.3 5.7 L 123.3 17.6 L 137.7 17.6 L 137.7 20.9 L 123.3 20.9 L 123.3 33 L 138.6 33 L 138.6 36.4 L 119.5 36.4 L 119.5 2.3 L 138.2 2.3 Z M 146.3 2.3 L 156.5 14.9 L 166.6 2.3 L 171.1 2.3 L 158.4 18.2 L 158.4 36.4 L 154.6 36.4 L 154.6 18.2 L 141.8 2.3 L 146.3 2.3 Z " stroke="none" fill="#010102"/>  </g></svg>