<?xml version="1.0" standalone="no"?><!DOCTYPE svg PUBLIC "-//W3C//DTD SVG 1.1//EN" "http://www.w3.org/Graphics/SVG/1.1/DTD/svg11.dtd"><svg xmlns="http://www.w3.org/2000/svg" version="1.1" width="714.1px" height="119.5px" viewBox="0 -1 714.1 119.5" style="top:-1px">  <desc>Client Feedback</desc>  <defs/>  <g id="Polygon4317">    <path d="M 276.4 48.7 C 276.4 48.7 276.4 50.1 276.4 50.1 C 274.8 49.2 272.9 48.6 271 48.6 C 266.7 48.6 263.9 51.9 263.9 55.9 C 263.9 60 266.7 63.1 271 63.1 C 273 63.1 274.8 62.6 276.5 61.5 C 276.5 61.5 276.5 63 276.5 63 C 274.8 63.8 273 64.3 271 64.3 C 265.7 64.3 262.6 60.3 262.6 56 C 262.6 51.1 266.1 47.5 271 47.5 C 272.9 47.5 274.7 47.9 276.4 48.7 Z M 280.5 47.7 L 280.5 62.9 L 288.6 62.9 L 288.6 64 L 279.3 64 L 279.3 47.7 L 280.5 47.7 Z M 292 47.7 L 292 64 L 290.7 64 L 290.7 47.7 L 292 47.7 Z M 304.3 47.7 L 304.3 48.8 L 297 48.8 L 297 55.2 L 304.1 55.2 L 304.1 56.4 L 297 56.4 L 297 62.9 L 304.5 62.9 L 304.5 64 L 295.7 64 L 295.7 47.7 L 304.3 47.7 Z M 308.4 47.7 L 320.6 62.1 L 320.6 47.7 L 321.8 47.7 L 321.8 64 L 320.7 64 L 308.5 49.7 L 308.5 64 L 307.3 64 L 307.3 47.7 L 308.4 47.7 Z M 337.1 47.7 L 337.1 48.8 L 331.2 48.8 L 331.2 64 L 329.9 64 L 329.9 48.8 L 324 48.8 L 324 47.7 L 337.1 47.7 Z M 354.1 47.7 L 354.1 48.8 L 347.3 48.8 L 347.3 54.8 L 353.7 54.8 L 353.7 56 L 347.3 56 L 347.3 64 L 346 64 L 346 47.7 L 354.1 47.7 Z M 365 47.7 L 365 48.8 L 357.7 48.8 L 357.7 55.2 L 364.8 55.2 L 364.8 56.4 L 357.7 56.4 L 357.7 62.9 L 365.2 62.9 L 365.2 64 L 356.4 64 L 356.4 47.7 L 365 47.7 Z M 376.6 47.7 L 376.6 48.8 L 369.2 48.8 L 369.2 55.2 L 376.4 55.2 L 376.4 56.4 L 369.2 56.4 L 369.2 62.9 L 376.8 62.9 L 376.8 64 L 368 64 L 368 47.7 L 376.6 47.7 Z M 379.6 47.7 C 379.6 47.7 385.42 47.67 385.4 47.7 C 390.7 47.7 394.2 51 394.2 55.7 C 394.2 60.8 390.7 64 385.4 64 C 385.45 64.04 379.6 64 379.6 64 L 379.6 47.7 Z M 385.5 62.9 C 389.9 62.9 392.9 60.1 392.9 55.9 C 392.9 51.5 390 48.8 385.3 48.8 C 385.3 48.82 380.8 48.8 380.8 48.8 L 380.8 62.9 C 380.8 62.9 385.49 62.89 385.5 62.9 Z M 401 47.7 C 403.8 47.7 406.1 49 406.1 51.8 C 406.1 53.7 405 55 403.2 55.5 C 405.8 55.8 407.4 57.4 407.4 59.7 C 407.4 62.5 405.1 64 402 64 C 402.01 64.04 397.3 64 397.3 64 L 397.3 47.7 C 397.3 47.7 401 47.67 401 47.7 Z M 398.5 55.2 C 398.5 55.2 400.47 55.16 400.5 55.2 C 403.3 55.2 404.7 53.9 404.7 51.9 C 404.7 49.8 403.4 48.8 400.7 48.8 C 400.66 48.8 398.5 48.8 398.5 48.8 L 398.5 55.2 Z M 401.8 62.9 C 404.3 62.9 406.1 62 406.1 59.6 C 406.1 57.5 404.6 56.3 401.4 56.3 C 401.38 56.29 398.5 56.3 398.5 56.3 L 398.5 62.9 C 398.5 62.9 401.79 62.91 401.8 62.9 Z M 416.9 47.6 L 424.2 64 L 422.8 64 L 420.4 58.6 L 412.5 58.6 L 410.2 64 L 408.8 64 L 416 47.6 L 416.9 47.6 Z M 413 57.5 L 419.9 57.5 L 416.4 49.5 L 413 57.5 Z M 438.5 48.7 C 438.5 48.7 438.5 50.1 438.5 50.1 C 436.9 49.2 435 48.6 433.1 48.6 C 428.8 48.6 426 51.9 426 55.9 C 426 60 428.8 63.1 433.1 63.1 C 435.1 63.1 436.9 62.6 438.6 61.5 C 438.6 61.5 438.6 63 438.6 63 C 436.9 63.8 435.1 64.3 433.1 64.3 C 427.8 64.3 424.7 60.3 424.7 56 C 424.7 51.1 428.2 47.5 433.1 47.5 C 435 47.5 436.8 47.9 438.5 48.7 Z M 442.6 47.7 L 442.6 55.6 L 450.1 47.7 L 451.7 47.7 L 444.1 55.7 L 452.8 64 L 451.1 64 L 442.6 55.9 L 442.6 64 L 441.4 64 L 441.4 47.7 L 442.6 47.7 Z " stroke="none" fill="#000000"/>  </g></svg>