<?xml version="1.0" standalone="no"?><!DOCTYPE svg PUBLIC "-//W3C//DTD SVG 1.1//EN" "http://www.w3.org/Graphics/SVG/1.1/DTD/svg11.dtd"><svg xmlns="http://www.w3.org/2000/svg" version="1.1" width="204px" height="54.1px" viewBox="0 -1 204 54.1" style="top:-1px">  <desc>Flexibility</desc>  <defs/>  <g id="Polygon10703">    <path d="M 54.5 32.2 L 54.5 15 L 66.1 15 L 66.1 17 L 56.8 17 L 56.8 22.4 L 64.8 22.4 L 64.8 24.4 L 56.8 24.4 L 56.8 32.2 L 54.5 32.2 Z M 68.7 32.2 L 68.7 15 L 70.8 15 L 70.8 32.2 L 68.7 32.2 Z M 82.6 28.2 C 82.6 28.2 84.8 28.5 84.8 28.5 C 84.5 29.7 83.8 30.7 82.9 31.4 C 82 32.1 80.8 32.5 79.3 32.5 C 77.5 32.5 76.1 31.9 75 30.8 C 73.9 29.7 73.4 28.1 73.4 26.1 C 73.4 24 73.9 22.4 75 21.2 C 76.1 20 77.5 19.5 79.2 19.5 C 80.9 19.5 82.2 20 83.3 21.2 C 84.4 22.3 84.9 23.9 84.9 26 C 84.9 26.1 84.9 26.3 84.9 26.5 C 84.9 26.5 75.6 26.5 75.6 26.5 C 75.7 27.9 76.1 28.9 76.7 29.7 C 77.4 30.4 78.3 30.7 79.3 30.7 C 80.1 30.7 80.8 30.5 81.3 30.1 C 81.9 29.7 82.3 29.1 82.6 28.2 Z M 75.7 24.8 C 75.7 24.8 82.7 24.8 82.7 24.8 C 82.6 23.7 82.3 22.9 81.9 22.4 C 81.2 21.6 80.3 21.2 79.2 21.2 C 78.3 21.2 77.5 21.5 76.8 22.2 C 76.1 22.8 75.8 23.7 75.7 24.8 Z M 86.1 32.2 L 90.6 25.7 L 86.4 19.8 L 89 19.8 C 89 19.8 90.94 22.67 90.9 22.7 C 91.3 23.2 91.6 23.7 91.8 24.1 C 92.2 23.5 92.5 23.1 92.8 22.7 C 92.76 22.69 94.9 19.8 94.9 19.8 L 97.4 19.8 L 93.1 25.6 L 97.7 32.2 L 95.1 32.2 L 92.6 28.3 L 91.9 27.3 L 88.6 32.2 L 86.1 32.2 Z M 99.5 17.4 L 99.5 15 L 101.6 15 L 101.6 17.4 L 99.5 17.4 Z M 99.5 32.2 L 99.5 19.8 L 101.6 19.8 L 101.6 32.2 L 99.5 32.2 Z M 106.7 32.2 L 104.8 32.2 L 104.8 15 L 106.9 15 C 106.9 15 106.89 21.15 106.9 21.1 C 107.8 20 108.9 19.5 110.3 19.5 C 111.1 19.5 111.8 19.6 112.5 19.9 C 113.2 20.2 113.7 20.7 114.2 21.2 C 114.6 21.8 114.9 22.5 115.2 23.3 C 115.4 24 115.6 24.9 115.6 25.8 C 115.6 27.9 115 29.6 114 30.7 C 112.9 31.9 111.7 32.5 110.2 32.5 C 108.7 32.5 107.6 31.9 106.7 30.6 C 106.74 30.64 106.7 32.2 106.7 32.2 Z M 106.7 25.9 C 106.7 27.4 106.9 28.5 107.3 29.1 C 108 30.2 108.9 30.7 110 30.7 C 110.9 30.7 111.7 30.3 112.4 29.5 C 113.1 28.7 113.4 27.5 113.4 26 C 113.4 24.3 113.1 23.1 112.4 22.4 C 111.8 21.6 111 21.2 110.1 21.2 C 109.2 21.2 108.4 21.6 107.7 22.4 C 107 23.2 106.7 24.4 106.7 25.9 Z M 118.2 17.4 L 118.2 15 L 120.3 15 L 120.3 17.4 L 118.2 17.4 Z M 118.2 32.2 L 118.2 19.8 L 120.3 19.8 L 120.3 32.2 L 118.2 32.2 Z M 123.4 32.2 L 123.4 15 L 125.5 15 L 125.5 32.2 L 123.4 32.2 Z M 128.8 17.4 L 128.8 15 L 130.9 15 L 130.9 17.4 L 128.8 17.4 Z M 128.8 32.2 L 128.8 19.8 L 130.9 19.8 L 130.9 32.2 L 128.8 32.2 Z M 137.8 30.4 C 138 30.4 138.4 30.4 138.7 30.3 C 138.7 30.3 139 32.2 139 32.2 C 138.5 32.3 137.9 32.4 137.5 32.4 C 136.7 32.4 136.1 32.2 135.7 32 C 135.2 31.8 135 31.4 134.8 31 C 134.6 30.6 134.5 29.8 134.5 28.6 C 134.52 28.55 134.5 21.4 134.5 21.4 L 133 21.4 L 133 19.8 L 134.5 19.8 L 134.5 16.7 L 136.6 15.4 L 136.6 19.8 L 138.7 19.8 L 138.7 21.4 L 136.6 21.4 C 136.6 21.4 136.62 28.67 136.6 28.7 C 136.6 29.3 136.7 29.7 136.7 29.8 C 136.8 30 136.9 30.1 137.1 30.2 C 137.3 30.3 137.5 30.4 137.8 30.4 C 137.8 30.4 137.8 30.4 137.8 30.4 Z M 142.1 37.2 C 141.7 37.2 141.2 37.2 140.7 37 C 140.7 37 140.5 35 140.5 35 C 140.9 35.1 141.3 35.2 141.7 35.2 C 142.2 35.2 142.5 35.1 142.8 35 C 143.1 34.8 143.3 34.6 143.5 34.3 C 143.6 34.1 143.8 33.6 144.1 32.7 C 144.2 32.6 144.2 32.4 144.3 32.2 C 144.33 32.22 139.6 19.8 139.6 19.8 L 141.9 19.8 C 141.9 19.8 144.47 26.96 144.5 27 C 144.8 27.9 145.1 28.8 145.4 29.8 C 145.6 28.9 145.9 27.9 146.2 27 C 146.24 27.01 148.9 19.8 148.9 19.8 L 151 19.8 C 151 19.8 146.28 32.41 146.3 32.4 C 145.8 33.8 145.4 34.7 145.1 35.2 C 144.7 35.9 144.3 36.4 143.8 36.8 C 143.3 37.1 142.7 37.2 142.1 37.2 C 142.1 37.2 142.1 37.2 142.1 37.2 Z " stroke="none" fill="#000"/>  </g></svg>