<?xml version="1.0" standalone="no"?><!DOCTYPE svg PUBLIC "-//W3C//DTD SVG 1.1//EN" "http://www.w3.org/Graphics/SVG/1.1/DTD/svg11.dtd"><svg xmlns="http://www.w3.org/2000/svg" version="1.1" width="1164.5px" height="90.3px" viewBox="0 -14 1164.5 90.3" style="top:-14px">  <desc>Understanding EDI In The Workplace</desc>  <defs/>  <g id="Polygon20148">    <path d="M 8.6 2.8 C 8.6 2.8 8.58 26.4 8.6 26.4 C 8.6 35.5 12.8 40.3 21.2 40.3 C 29.8 40.3 33.9 35.3 33.9 26.4 C 33.9 26.4 33.9 2.8 33.9 2.8 L 38.4 2.8 C 38.4 2.8 38.4 26.4 38.4 26.4 C 38.4 37.1 32.7 44.3 21.4 44.3 C 10.1 44.3 4.1 37.9 4.1 26.4 C 4.08 26.4 4.1 2.8 4.1 2.8 L 8.6 2.8 Z M 50.8 2.8 L 79.8 36.7 L 79.8 2.8 L 84.1 2.8 L 84.1 43.7 L 80.2 43.7 L 51.4 10 L 51.4 43.7 L 47.1 43.7 L 47.1 2.8 L 50.8 2.8 Z M 93.3 2.8 C 93.3 2.8 108.36 2.82 108.4 2.8 C 121.7 2.8 130.4 11.2 130.4 22.9 C 130.4 35.6 121.4 43.7 108.4 43.7 C 108.36 43.74 93.3 43.7 93.3 43.7 L 93.3 2.8 Z M 108.3 39.7 C 119 39.7 125.7 33.3 125.7 23.2 C 125.7 13.3 119.2 6.8 107.6 6.8 C 107.64 6.84 97.8 6.8 97.8 6.8 L 97.8 39.7 C 97.8 39.7 108.3 39.66 108.3 39.7 Z M 160.3 2.8 L 160.3 6.8 L 142.4 6.8 L 142.4 21.1 L 159.7 21.1 L 159.7 25.1 L 142.4 25.1 L 142.4 39.7 L 160.7 39.7 L 160.7 43.7 L 137.9 43.7 L 137.9 2.8 L 160.3 2.8 Z M 168 2.8 C 168 2.8 178.74 2.82 178.7 2.8 C 187 2.8 191.2 7.6 191.2 13.8 C 191.2 18.9 188.5 22.4 183.5 23.9 C 186.1 25.3 187.3 26.3 190.7 31.5 C 190.68 31.5 198.6 43.7 198.6 43.7 L 193.3 43.7 C 193.3 43.7 186.06 32.46 186.1 32.5 C 182.3 26.5 179.8 25.1 176.3 25.1 C 176.28 25.14 172.5 25.1 172.5 25.1 L 172.5 43.7 L 168 43.7 L 168 2.8 Z M 176.7 21.2 C 182.3 21.2 186.6 19.8 186.6 13.9 C 186.6 8.8 183.4 6.8 178.1 6.8 C 178.14 6.78 172.5 6.8 172.5 6.8 L 172.5 21.2 C 172.5 21.2 176.7 21.18 176.7 21.2 Z M 223 4.9 C 223 4.9 223 10 223 10 C 220.2 7.6 217.1 6.4 213.8 6.4 C 209.5 6.4 206.6 8.8 206.6 12.3 C 206.6 15 207.3 17.3 214.1 20.8 C 222.5 25.1 224.6 28.1 224.6 33.7 C 224.6 39.7 219.9 44.3 212.9 44.3 C 209 44.3 205.4 43 202.3 40.7 C 202.3 40.7 202.3 35 202.3 35 C 205.3 38.4 208.9 40.3 212.9 40.3 C 217 40.3 220 37.7 220 33.7 C 220 30.2 218.9 28.2 211 24.1 C 204.5 20.8 202.1 17.6 202.1 12.4 C 202.1 6.6 207.1 2.3 213.9 2.3 C 217.1 2.3 220.3 3.2 223 4.9 Z M 261.5 2.8 L 261.5 6.8 L 246.8 6.8 L 246.8 43.7 L 242.3 43.7 L 242.3 6.8 L 227.9 6.8 L 227.9 2.8 L 261.5 2.8 Z M 278.3 2.6 L 296.6 43.7 L 292 43.7 L 286.2 30.9 L 267.6 30.9 L 262.1 43.7 L 257.5 43.7 L 275.2 2.6 L 278.3 2.6 Z M 269.3 26.9 L 284.4 26.9 L 276.7 9.5 L 269.3 26.9 Z M 305 2.8 L 334 36.7 L 334 2.8 L 338.3 2.8 L 338.3 43.7 L 334.3 43.7 L 305.6 10 L 305.6 43.7 L 301.3 43.7 L 301.3 2.8 L 305 2.8 Z M 347.5 2.8 C 347.5 2.8 362.52 2.82 362.5 2.8 C 375.9 2.8 384.5 11.2 384.5 22.9 C 384.5 35.6 375.5 43.7 362.5 43.7 C 362.52 43.74 347.5 43.7 347.5 43.7 L 347.5 2.8 Z M 362.5 39.7 C 373.2 39.7 379.9 33.3 379.9 23.2 C 379.9 13.3 373.4 6.8 361.8 6.8 C 361.8 6.84 352 6.8 352 6.8 L 352 39.7 C 352 39.7 362.46 39.66 362.5 39.7 Z M 396.5 2.8 L 396.5 43.7 L 392 43.7 L 392 2.8 L 396.5 2.8 Z M 409.4 2.8 L 438.4 36.7 L 438.4 2.8 L 442.7 2.8 L 442.7 43.7 L 438.8 43.7 L 410 10 L 410 43.7 L 405.7 43.7 L 405.7 2.8 L 409.4 2.8 Z M 485.7 10.3 C 481.2 7.7 476.2 6.3 471.6 6.3 C 462.1 6.3 454.8 13.5 454.8 23.1 C 454.8 33.2 461.8 40.3 472 40.3 C 475.4 40.3 477.8 39.7 482 38.2 C 482.04 38.16 482 28.2 482 28.2 L 473.7 28.2 L 473.7 24.2 L 486.5 24.2 C 486.5 24.2 486.54 40.92 486.5 40.9 C 481.9 43.2 477.3 44.3 472 44.3 C 457.3 44.3 450.1 34 450.1 23.5 C 450.1 11.9 458.7 2.3 471.8 2.3 C 476.5 2.3 480.3 3.2 485.7 5.6 C 485.7 5.6 485.7 10.3 485.7 10.3 Z M 534.2 2.8 L 534.2 6.8 L 516.3 6.8 L 516.3 21.1 L 533.6 21.1 L 533.6 25.1 L 516.3 25.1 L 516.3 39.7 L 534.7 39.7 L 534.7 43.7 L 511.8 43.7 L 511.8 2.8 L 534.2 2.8 Z M 541.9 2.8 C 541.9 2.8 556.97 2.82 557 2.8 C 570.4 2.8 579 11.2 579 22.9 C 579 35.6 570 43.7 557 43.7 C 556.97 43.74 541.9 43.7 541.9 43.7 L 541.9 2.8 Z M 556.9 39.7 C 567.7 39.7 574.3 33.3 574.3 23.2 C 574.3 13.3 567.8 6.8 556.3 6.8 C 556.25 6.84 546.4 6.8 546.4 6.8 L 546.4 39.7 C 546.4 39.7 556.91 39.66 556.9 39.7 Z M 591 2.8 L 591 43.7 L 586.5 43.7 L 586.5 2.8 L 591 2.8 Z M 621.4 2.8 L 621.4 43.7 L 616.9 43.7 L 616.9 2.8 L 621.4 2.8 Z M 634.3 2.8 L 663.2 36.7 L 663.2 2.8 L 667.6 2.8 L 667.6 43.7 L 663.6 43.7 L 634.9 10 L 634.9 43.7 L 630.5 43.7 L 630.5 2.8 L 634.3 2.8 Z M 723.3 2.8 L 723.3 6.8 L 708.7 6.8 L 708.7 43.7 L 704.2 43.7 L 704.2 6.8 L 689.7 6.8 L 689.7 2.8 L 723.3 2.8 Z M 733.3 2.8 L 733.3 21.1 L 758.2 21.1 L 758.2 2.8 L 762.7 2.8 L 762.7 43.7 L 758.2 43.7 L 758.2 25.2 L 733.3 25.2 L 733.3 43.7 L 728.8 43.7 L 728.8 2.8 L 733.3 2.8 Z M 794.2 2.8 L 794.2 6.8 L 776.3 6.8 L 776.3 21.1 L 793.6 21.1 L 793.6 25.1 L 776.3 25.1 L 776.3 39.7 L 794.7 39.7 L 794.7 43.7 L 771.8 43.7 L 771.8 2.8 L 794.2 2.8 Z M 814.1 2.8 L 818.6 2.8 L 830.9 34 L 831 34 L 843.1 2.8 L 847.1 2.8 L 859.5 33.8 L 859.6 33.8 L 871.6 2.8 L 876.1 2.8 L 859.9 44 L 858.9 44 L 845.1 9.2 L 831.4 44 L 830.5 44 L 814.1 2.8 Z M 920.6 23.1 C 920.6 34.6 912.2 44.3 898.7 44.3 C 886 44.3 877.5 34.6 877.5 23.5 C 877.5 12.1 885.7 2.3 898.9 2.3 C 912 2.3 920.6 11.8 920.6 23.1 Z M 882.1 23.3 C 882.1 33 889.6 40.1 898.8 40 C 911 40 916 30.6 916 23.2 C 916 14.9 909.8 6.5 899.2 6.5 C 888 6.5 882.1 15 882.1 23.3 Z M 928 2.8 C 928 2.8 938.75 2.82 938.8 2.8 C 947 2.8 951.2 7.6 951.2 13.8 C 951.2 18.9 948.5 22.4 943.5 23.9 C 946.1 25.3 947.3 26.3 950.7 31.5 C 950.69 31.5 958.6 43.7 958.6 43.7 L 953.3 43.7 C 953.3 43.7 946.07 32.46 946.1 32.5 C 942.3 26.5 939.8 25.1 936.3 25.1 C 936.29 25.14 932.5 25.1 932.5 25.1 L 932.5 43.7 L 928 43.7 L 928 2.8 Z M 936.7 21.2 C 942.4 21.2 946.6 19.8 946.6 13.9 C 946.6 8.8 943.4 6.8 938.2 6.8 C 938.15 6.78 932.5 6.8 932.5 6.8 L 932.5 21.2 C 932.5 21.2 936.71 21.18 936.7 21.2 Z M 967.6 2.8 L 967.6 22 L 985.6 2.8 L 991.2 2.8 L 972.9 22.5 L 994.8 43.7 L 988.6 43.7 L 967.6 23.4 L 967.6 43.7 L 963.1 43.7 L 963.1 2.8 L 967.6 2.8 Z M 1010.9 2.8 C 1019 2.8 1024 7 1024 14.1 C 1024 21.7 1018.9 25.3 1010.1 25.3 C 1010.09 25.32 1003.7 25.3 1003.7 25.3 L 1003.7 43.7 L 999.2 43.7 L 999.2 2.8 C 999.2 2.8 1010.87 2.82 1010.9 2.8 Z M 1003.7 21.4 C 1003.7 21.4 1009.97 21.36 1010 21.4 C 1016.9 21.4 1019.4 18.7 1019.4 14 C 1019.4 9.4 1016.6 6.8 1010 6.8 C 1009.97 6.78 1003.7 6.8 1003.7 6.8 L 1003.7 21.4 Z M 1034.9 2.8 L 1034.9 39.6 L 1054.1 39.6 L 1054.1 43.7 L 1030.4 43.7 L 1030.4 2.8 L 1034.9 2.8 Z M 1076.7 2.6 L 1094.9 43.7 L 1090.3 43.7 L 1084.5 30.9 L 1065.9 30.9 L 1060.4 43.7 L 1055.8 43.7 L 1073.5 2.6 L 1076.7 2.6 Z M 1067.7 26.9 L 1082.8 26.9 L 1075 9.5 L 1067.7 26.9 Z M 1131.6 5.5 C 1131.6 5.5 1131.6 10.4 1131.6 10.4 C 1127.3 7.9 1122.5 6.5 1117.7 6.5 C 1107.3 6.5 1100.7 14.3 1100.7 23.3 C 1100.7 32.5 1107.2 40.1 1117.7 40.1 C 1122.8 40.1 1127.5 38.6 1131.9 35.9 C 1131.9 35.9 1131.9 40.9 1131.9 40.9 C 1127.3 43.2 1122.6 44.3 1117.6 44.3 C 1103.4 44.3 1096 33.7 1096 23.5 C 1096 11.3 1105.4 2.3 1117.7 2.3 C 1122.3 2.3 1127 3.4 1131.6 5.5 Z M 1161.3 2.8 L 1161.3 6.8 L 1143.5 6.8 L 1143.5 21.1 L 1160.7 21.1 L 1160.7 25.1 L 1143.5 25.1 L 1143.5 39.7 L 1161.8 39.7 L 1161.8 43.7 L 1139 43.7 L 1139 2.8 L 1161.3 2.8 Z " stroke="none" fill="#010102"/>  </g></svg>