<?xml version="1.0" standalone="no"?><!DOCTYPE svg PUBLIC "-//W3C//DTD SVG 1.1//EN" "http://www.w3.org/Graphics/SVG/1.1/DTD/svg11.dtd"><svg xmlns="http://www.w3.org/2000/svg" version="1.1" width="200px" height="20.5px" viewBox="0 -4 200 20.5" style="top:-4px">  <desc>Operations / Support Team</desc>  <defs/>  <g id="Polygon53210">    <path d="M 0.6 4.6 C 0.6 3.1 1 2 1.7 1.2 C 2.5 0.4 3.5 0 4.7 0 C 5.5 0 6.2 0.2 6.8 0.6 C 7.5 0.9 8 1.5 8.3 2.1 C 8.6 2.8 8.8 3.6 8.8 4.5 C 8.8 5.3 8.6 6.1 8.3 6.8 C 7.9 7.5 7.4 8 6.8 8.4 C 6.1 8.7 5.4 8.9 4.7 8.9 C 3.9 8.9 3.2 8.7 2.5 8.3 C 1.9 7.9 1.4 7.4 1.1 6.7 C 0.7 6 0.6 5.3 0.6 4.6 Z M 1.8 4.6 C 1.8 5.6 2 6.4 2.6 7 C 3.1 7.6 3.8 7.9 4.7 7.9 C 5.5 7.9 6.2 7.6 6.8 7 C 7.3 6.4 7.6 5.6 7.6 4.4 C 7.6 3.7 7.5 3.1 7.3 2.6 C 7 2.1 6.7 1.7 6.2 1.4 C 5.8 1.1 5.3 1 4.7 1 C 3.9 1 3.2 1.2 2.6 1.8 C 2 2.4 1.8 3.3 1.8 4.6 Z M 10.1 11.1 L 10.1 2.5 L 11.1 2.5 C 11.1 2.5 11.09 3.32 11.1 3.3 C 11.3 3 11.6 2.8 11.9 2.6 C 12.1 2.5 12.5 2.4 12.9 2.4 C 13.4 2.4 13.9 2.5 14.3 2.8 C 14.7 3.1 15 3.4 15.2 3.9 C 15.4 4.4 15.5 5 15.5 5.6 C 15.5 6.2 15.4 6.8 15.2 7.3 C 15 7.8 14.6 8.2 14.2 8.5 C 13.8 8.7 13.3 8.9 12.8 8.9 C 12.5 8.9 12.1 8.8 11.9 8.7 C 11.6 8.5 11.4 8.3 11.2 8.1 C 11.18 8.09 11.2 11.1 11.2 11.1 L 10.1 11.1 Z M 11.1 5.7 C 11.1 6.5 11.2 7.1 11.6 7.4 C 11.9 7.8 12.3 8 12.7 8 C 13.2 8 13.6 7.8 13.9 7.4 C 14.3 7 14.4 6.4 14.4 5.6 C 14.4 4.8 14.3 4.2 14 3.8 C 13.6 3.4 13.2 3.2 12.8 3.2 C 12.3 3.2 11.9 3.4 11.6 3.8 C 11.3 4.2 11.1 4.9 11.1 5.7 Z M 21.1 6.7 C 21.1 6.7 22.1 6.9 22.1 6.9 C 22 7.5 21.7 8 21.2 8.3 C 20.7 8.7 20.1 8.9 19.4 8.9 C 18.5 8.9 17.8 8.6 17.2 8 C 16.7 7.5 16.4 6.7 16.4 5.7 C 16.4 4.6 16.7 3.8 17.3 3.2 C 17.8 2.7 18.5 2.4 19.4 2.4 C 20.2 2.4 20.9 2.7 21.4 3.2 C 21.9 3.8 22.2 4.6 22.2 5.6 C 22.2 5.7 22.2 5.8 22.2 5.9 C 22.2 5.9 17.5 5.9 17.5 5.9 C 17.6 6.6 17.8 7.1 18.1 7.5 C 18.5 7.8 18.9 8 19.4 8 C 19.8 8 20.1 7.9 20.4 7.7 C 20.7 7.5 20.9 7.2 21.1 6.7 Z M 17.6 5 C 17.6 5 21.1 5 21.1 5 C 21 4.5 20.9 4.1 20.7 3.8 C 20.3 3.4 19.9 3.2 19.4 3.2 C 18.9 3.2 18.5 3.4 18.1 3.7 C 17.8 4.1 17.6 4.5 17.6 5 Z M 23.5 8.7 L 23.5 2.5 L 24.4 2.5 C 24.4 2.5 24.41 3.46 24.4 3.5 C 24.7 3 24.9 2.7 25.1 2.6 C 25.3 2.4 25.5 2.4 25.8 2.4 C 26.1 2.4 26.5 2.5 26.8 2.7 C 26.8 2.7 26.5 3.7 26.5 3.7 C 26.2 3.5 26 3.5 25.7 3.5 C 25.5 3.5 25.3 3.5 25.1 3.7 C 24.9 3.8 24.8 4 24.7 4.2 C 24.6 4.6 24.5 5 24.5 5.5 C 24.52 5.48 24.5 8.7 24.5 8.7 L 23.5 8.7 Z M 31.7 8.7 C 31.6 8.5 31.6 8.3 31.5 8 C 31.1 8.3 30.8 8.5 30.4 8.7 C 30 8.8 29.7 8.9 29.2 8.9 C 28.6 8.9 28 8.7 27.7 8.4 C 27.3 8 27.1 7.6 27.1 7.1 C 27.1 6.8 27.2 6.5 27.3 6.3 C 27.5 6 27.6 5.8 27.9 5.7 C 28.1 5.5 28.3 5.4 28.6 5.3 C 28.8 5.3 29.1 5.2 29.6 5.2 C 30.4 5 31 4.9 31.4 4.8 C 31.4 4.6 31.4 4.6 31.4 4.5 C 31.4 4.1 31.3 3.8 31.1 3.6 C 30.9 3.4 30.5 3.2 29.9 3.2 C 29.5 3.2 29.1 3.3 28.8 3.5 C 28.6 3.7 28.4 4 28.3 4.4 C 28.3 4.4 27.3 4.3 27.3 4.3 C 27.4 3.8 27.5 3.5 27.8 3.2 C 28 2.9 28.3 2.7 28.7 2.6 C 29.1 2.4 29.6 2.4 30.1 2.4 C 30.6 2.4 31.1 2.4 31.4 2.6 C 31.7 2.7 32 2.8 32.1 3 C 32.3 3.2 32.4 3.5 32.5 3.8 C 32.5 3.9 32.5 4.3 32.5 4.7 C 32.5 4.7 32.5 6.1 32.5 6.1 C 32.5 7.1 32.5 7.7 32.6 8 C 32.6 8.2 32.7 8.5 32.8 8.7 C 32.84 8.74 31.7 8.7 31.7 8.7 C 31.7 8.7 31.74 8.74 31.7 8.7 Z M 31.4 5.6 C 31.1 5.8 30.5 5.9 29.7 6 C 29.3 6.1 29 6.1 28.8 6.2 C 28.6 6.3 28.5 6.4 28.4 6.6 C 28.3 6.7 28.2 6.9 28.2 7.1 C 28.2 7.3 28.3 7.6 28.6 7.8 C 28.8 8 29.1 8.1 29.5 8.1 C 29.9 8.1 30.3 8 30.6 7.8 C 30.9 7.6 31.1 7.4 31.3 7.1 C 31.4 6.8 31.4 6.5 31.4 6 C 31.4 6 31.4 5.6 31.4 5.6 Z M 36 7.8 C 36.1 7.8 36.3 7.8 36.4 7.8 C 36.4 7.8 36.6 8.7 36.6 8.7 C 36.3 8.8 36 8.8 35.8 8.8 C 35.4 8.8 35.1 8.8 34.9 8.6 C 34.7 8.5 34.6 8.4 34.5 8.2 C 34.4 8 34.3 7.5 34.3 6.9 C 34.34 6.91 34.3 3.3 34.3 3.3 L 33.6 3.3 L 33.6 2.5 L 34.3 2.5 L 34.3 1 L 35.4 0.3 L 35.4 2.5 L 36.4 2.5 L 36.4 3.3 L 35.4 3.3 C 35.4 3.3 35.38 6.97 35.4 7 C 35.4 7.3 35.4 7.5 35.4 7.6 C 35.5 7.6 35.5 7.7 35.6 7.8 C 35.7 7.8 35.8 7.8 36 7.8 C 36 7.8 36 7.8 36 7.8 Z M 37.5 1.4 L 37.5 0.1 L 38.5 0.1 L 38.5 1.4 L 37.5 1.4 Z M 37.5 8.7 L 37.5 2.5 L 38.5 2.5 L 38.5 8.7 L 37.5 8.7 Z M 39.8 5.6 C 39.8 4.5 40.1 3.6 40.7 3.1 C 41.2 2.6 41.9 2.4 42.7 2.4 C 43.5 2.4 44.2 2.7 44.8 3.2 C 45.3 3.8 45.6 4.5 45.6 5.5 C 45.6 6.3 45.5 7 45.2 7.4 C 45 7.9 44.6 8.2 44.2 8.5 C 43.7 8.7 43.2 8.9 42.7 8.9 C 41.8 8.9 41.1 8.6 40.6 8 C 40 7.5 39.8 6.7 39.8 5.6 Z M 40.8 5.6 C 40.8 6.4 41 7 41.4 7.4 C 41.7 7.8 42.1 8 42.7 8 C 43.2 8 43.6 7.8 44 7.4 C 44.3 7 44.5 6.4 44.5 5.6 C 44.5 4.8 44.3 4.2 44 3.8 C 43.6 3.4 43.2 3.2 42.7 3.2 C 42.1 3.2 41.7 3.4 41.4 3.8 C 41 4.2 40.8 4.8 40.8 5.6 Z M 46.8 8.7 L 46.8 2.5 L 47.8 2.5 C 47.8 2.5 47.77 3.4 47.8 3.4 C 48.2 2.7 48.9 2.4 49.7 2.4 C 50.1 2.4 50.5 2.4 50.8 2.6 C 51.1 2.7 51.3 2.9 51.5 3.1 C 51.6 3.3 51.8 3.6 51.8 3.9 C 51.9 4.1 51.9 4.4 51.9 4.9 C 51.87 4.91 51.9 8.7 51.9 8.7 L 50.8 8.7 C 50.8 8.7 50.82 4.95 50.8 5 C 50.8 4.5 50.8 4.2 50.7 4 C 50.6 3.8 50.5 3.6 50.3 3.5 C 50 3.4 49.8 3.3 49.5 3.3 C 49.1 3.3 48.7 3.4 48.4 3.7 C 48 4 47.9 4.5 47.9 5.3 C 47.87 5.34 47.9 8.7 47.9 8.7 L 46.8 8.7 Z M 53.1 6.9 C 53.1 6.9 54.1 6.7 54.1 6.7 C 54.2 7.1 54.3 7.5 54.6 7.7 C 54.9 7.9 55.2 8 55.7 8 C 56.2 8 56.6 7.9 56.8 7.7 C 57 7.5 57.2 7.3 57.2 7 C 57.2 6.8 57 6.6 56.8 6.5 C 56.7 6.4 56.3 6.2 55.8 6.1 C 55 5.9 54.5 5.7 54.2 5.6 C 53.9 5.5 53.6 5.3 53.5 5 C 53.3 4.7 53.2 4.5 53.2 4.2 C 53.2 3.9 53.3 3.6 53.4 3.4 C 53.6 3.2 53.7 3 54 2.8 C 54.1 2.7 54.3 2.6 54.6 2.5 C 54.9 2.4 55.2 2.4 55.5 2.4 C 56 2.4 56.5 2.4 56.8 2.6 C 57.2 2.7 57.5 2.9 57.6 3.2 C 57.8 3.4 57.9 3.7 58 4.1 C 58 4.1 57 4.3 57 4.3 C 56.9 3.9 56.8 3.7 56.6 3.5 C 56.3 3.3 56 3.2 55.6 3.2 C 55.1 3.2 54.8 3.3 54.6 3.5 C 54.4 3.6 54.3 3.8 54.3 4 C 54.3 4.2 54.3 4.3 54.4 4.4 C 54.5 4.5 54.6 4.6 54.8 4.7 C 54.9 4.7 55.2 4.8 55.7 5 C 56.5 5.2 57 5.3 57.3 5.5 C 57.6 5.6 57.8 5.8 58 6 C 58.2 6.2 58.2 6.5 58.2 6.9 C 58.2 7.3 58.1 7.6 57.9 7.9 C 57.7 8.2 57.4 8.5 57 8.6 C 56.7 8.8 56.2 8.9 55.7 8.9 C 54.9 8.9 54.3 8.7 53.9 8.4 C 53.5 8 53.2 7.5 53.1 6.9 Z M 62 8.9 L 64.5 0 L 65.4 0 L 62.9 8.9 L 62 8.9 Z M 69.2 6 C 69.2 6 70.3 5.9 70.3 5.9 C 70.4 6.3 70.5 6.7 70.7 6.9 C 70.9 7.2 71.1 7.4 71.5 7.6 C 71.9 7.8 72.4 7.9 72.8 7.9 C 73.3 7.9 73.7 7.8 74 7.7 C 74.3 7.5 74.6 7.4 74.7 7.1 C 74.9 6.9 75 6.7 75 6.4 C 75 6.1 74.9 5.9 74.7 5.7 C 74.6 5.5 74.3 5.3 74 5.2 C 73.7 5.1 73.2 5 72.4 4.8 C 71.7 4.6 71.1 4.4 70.8 4.2 C 70.4 4 70.1 3.8 69.9 3.4 C 69.7 3.1 69.6 2.8 69.6 2.4 C 69.6 1.9 69.7 1.5 69.9 1.2 C 70.2 0.8 70.5 0.5 71 0.3 C 71.5 0.1 72 0 72.6 0 C 73.2 0 73.8 0.1 74.3 0.3 C 74.8 0.5 75.1 0.8 75.4 1.2 C 75.7 1.6 75.8 2.1 75.8 2.6 C 75.8 2.6 74.7 2.6 74.7 2.6 C 74.7 2.1 74.5 1.7 74.1 1.4 C 73.8 1.1 73.3 1 72.6 1 C 72 1 71.5 1.1 71.1 1.4 C 70.8 1.6 70.7 1.9 70.7 2.3 C 70.7 2.6 70.8 2.9 71 3.1 C 71.2 3.3 71.8 3.5 72.7 3.7 C 73.6 3.9 74.3 4.1 74.6 4.2 C 75.1 4.4 75.5 4.7 75.7 5.1 C 76 5.4 76.1 5.8 76.1 6.3 C 76.1 6.8 75.9 7.2 75.7 7.6 C 75.4 8 75 8.3 74.6 8.5 C 74.1 8.8 73.5 8.9 72.9 8.9 C 72.1 8.9 71.5 8.8 70.9 8.5 C 70.4 8.3 70 8 69.7 7.5 C 69.4 7.1 69.3 6.6 69.2 6 Z M 81.6 8.7 C 81.6 8.7 81.57 7.82 81.6 7.8 C 81.1 8.5 80.4 8.9 79.6 8.9 C 79.2 8.9 78.9 8.8 78.6 8.7 C 78.3 8.5 78 8.3 77.9 8.1 C 77.7 7.9 77.6 7.7 77.5 7.4 C 77.5 7.1 77.5 6.8 77.5 6.4 C 77.47 6.37 77.5 2.5 77.5 2.5 L 78.5 2.5 C 78.5 2.5 78.53 5.96 78.5 6 C 78.5 6.5 78.5 6.9 78.6 7.1 C 78.7 7.4 78.8 7.6 79 7.7 C 79.2 7.9 79.5 8 79.8 8 C 80.1 8 80.4 7.9 80.7 7.7 C 81 7.6 81.2 7.3 81.3 7.1 C 81.4 6.8 81.5 6.4 81.5 5.8 C 81.46 5.85 81.5 2.5 81.5 2.5 L 82.5 2.5 L 82.5 8.7 L 81.6 8.7 Z M 84.2 11.1 L 84.2 2.5 L 85.1 2.5 C 85.1 2.5 85.13 3.32 85.1 3.3 C 85.4 3 85.6 2.8 85.9 2.6 C 86.2 2.5 86.5 2.4 86.9 2.4 C 87.5 2.4 87.9 2.5 88.3 2.8 C 88.7 3.1 89.1 3.4 89.3 3.9 C 89.5 4.4 89.6 5 89.6 5.6 C 89.6 6.2 89.5 6.8 89.2 7.3 C 89 7.8 88.7 8.2 88.2 8.5 C 87.8 8.7 87.3 8.9 86.9 8.9 C 86.5 8.9 86.2 8.8 85.9 8.7 C 85.6 8.5 85.4 8.3 85.2 8.1 C 85.22 8.09 85.2 11.1 85.2 11.1 L 84.2 11.1 Z M 85.1 5.7 C 85.1 6.5 85.3 7.1 85.6 7.4 C 85.9 7.8 86.3 8 86.8 8 C 87.3 8 87.7 7.8 88 7.4 C 88.3 7 88.5 6.4 88.5 5.6 C 88.5 4.8 88.3 4.2 88 3.8 C 87.7 3.4 87.3 3.2 86.8 3.2 C 86.4 3.2 86 3.4 85.6 3.8 C 85.3 4.2 85.1 4.9 85.1 5.7 Z M 90.8 11.1 L 90.8 2.5 L 91.8 2.5 C 91.8 2.5 91.8 3.32 91.8 3.3 C 92 3 92.3 2.8 92.6 2.6 C 92.9 2.5 93.2 2.4 93.6 2.4 C 94.1 2.4 94.6 2.5 95 2.8 C 95.4 3.1 95.7 3.4 95.9 3.9 C 96.1 4.4 96.2 5 96.2 5.6 C 96.2 6.2 96.1 6.8 95.9 7.3 C 95.7 7.8 95.3 8.2 94.9 8.5 C 94.5 8.7 94 8.9 93.5 8.9 C 93.2 8.9 92.9 8.8 92.6 8.7 C 92.3 8.5 92.1 8.3 91.9 8.1 C 91.9 8.09 91.9 11.1 91.9 11.1 L 90.8 11.1 Z M 91.8 5.7 C 91.8 6.5 92 7.1 92.3 7.4 C 92.6 7.8 93 8 93.5 8 C 93.9 8 94.3 7.8 94.7 7.4 C 95 7 95.2 6.4 95.2 5.6 C 95.2 4.8 95 4.2 94.7 3.8 C 94.4 3.4 94 3.2 93.5 3.2 C 93.1 3.2 92.7 3.4 92.3 3.8 C 92 4.2 91.8 4.9 91.8 5.7 Z M 97.1 5.6 C 97.1 4.5 97.4 3.6 98.1 3.1 C 98.6 2.6 99.3 2.4 100 2.4 C 100.9 2.4 101.6 2.7 102.1 3.2 C 102.7 3.8 103 4.5 103 5.5 C 103 6.3 102.8 7 102.6 7.4 C 102.4 7.9 102 8.2 101.5 8.5 C 101.1 8.7 100.6 8.9 100 8.9 C 99.2 8.9 98.5 8.6 97.9 8 C 97.4 7.5 97.1 6.7 97.1 5.6 Z M 98.2 5.6 C 98.2 6.4 98.4 7 98.7 7.4 C 99.1 7.8 99.5 8 100 8 C 100.6 8 101 7.8 101.3 7.4 C 101.7 7 101.9 6.4 101.9 5.6 C 101.9 4.8 101.7 4.2 101.3 3.8 C 101 3.4 100.6 3.2 100 3.2 C 99.5 3.2 99.1 3.4 98.7 3.8 C 98.4 4.2 98.2 4.8 98.2 5.6 Z M 104.2 8.7 L 104.2 2.5 L 105.1 2.5 C 105.1 2.5 105.13 3.46 105.1 3.5 C 105.4 3 105.6 2.7 105.8 2.6 C 106 2.4 106.2 2.4 106.5 2.4 C 106.8 2.4 107.2 2.5 107.6 2.7 C 107.6 2.7 107.2 3.7 107.2 3.7 C 106.9 3.5 106.7 3.5 106.4 3.5 C 106.2 3.5 106 3.5 105.8 3.7 C 105.6 3.8 105.5 4 105.4 4.2 C 105.3 4.6 105.2 5 105.2 5.5 C 105.23 5.48 105.2 8.7 105.2 8.7 L 104.2 8.7 Z M 110 7.8 C 110.1 7.8 110.3 7.8 110.5 7.8 C 110.5 7.8 110.6 8.7 110.6 8.7 C 110.3 8.8 110.1 8.8 109.8 8.8 C 109.5 8.8 109.2 8.8 109 8.6 C 108.7 8.5 108.6 8.4 108.5 8.2 C 108.4 8 108.4 7.5 108.4 6.9 C 108.38 6.91 108.4 3.3 108.4 3.3 L 107.6 3.3 L 107.6 2.5 L 108.4 2.5 L 108.4 1 L 109.4 0.3 L 109.4 2.5 L 110.5 2.5 L 110.5 3.3 L 109.4 3.3 C 109.4 3.3 109.43 6.97 109.4 7 C 109.4 7.3 109.4 7.5 109.5 7.6 C 109.5 7.6 109.6 7.7 109.7 7.8 C 109.8 7.8 109.9 7.8 110 7.8 C 110 7.8 110 7.8 110 7.8 Z M 117 8.7 L 117 1.2 L 114.1 1.2 L 114.1 0.1 L 120.9 0.1 L 120.9 1.2 L 118.1 1.2 L 118.1 8.7 L 117 8.7 Z M 124.9 6.7 C 124.9 6.7 126 6.9 126 6.9 C 125.8 7.5 125.5 8 125 8.3 C 124.6 8.7 124 8.9 123.3 8.9 C 122.3 8.9 121.6 8.6 121.1 8 C 120.6 7.5 120.3 6.7 120.3 5.7 C 120.3 4.6 120.6 3.8 121.1 3.2 C 121.6 2.7 122.3 2.4 123.2 2.4 C 124 2.4 124.7 2.7 125.2 3.2 C 125.8 3.8 126 4.6 126 5.6 C 126 5.7 126 5.8 126 5.9 C 126 5.9 121.4 5.9 121.4 5.9 C 121.4 6.6 121.6 7.1 122 7.5 C 122.3 7.8 122.7 8 123.3 8 C 123.6 8 124 7.9 124.2 7.7 C 124.5 7.5 124.7 7.2 124.9 6.7 Z M 121.4 5 C 121.4 5 124.9 5 124.9 5 C 124.9 4.5 124.7 4.1 124.5 3.8 C 124.2 3.4 123.7 3.2 123.2 3.2 C 122.7 3.2 122.3 3.4 122 3.7 C 121.7 4.1 121.5 4.5 121.4 5 Z M 131.6 8.7 C 131.5 8.5 131.4 8.3 131.4 8 C 131 8.3 130.6 8.5 130.2 8.7 C 129.9 8.8 129.5 8.9 129.1 8.9 C 128.4 8.9 127.9 8.7 127.5 8.4 C 127.1 8 127 7.6 127 7.1 C 127 6.8 127 6.5 127.2 6.3 C 127.3 6 127.5 5.8 127.7 5.7 C 127.9 5.5 128.2 5.4 128.5 5.3 C 128.7 5.3 129 5.2 129.4 5.2 C 130.3 5 130.9 4.9 131.3 4.8 C 131.3 4.6 131.3 4.6 131.3 4.5 C 131.3 4.1 131.2 3.8 131 3.6 C 130.7 3.4 130.3 3.2 129.8 3.2 C 129.3 3.2 128.9 3.3 128.7 3.5 C 128.5 3.7 128.3 4 128.2 4.4 C 128.2 4.4 127.1 4.3 127.1 4.3 C 127.2 3.8 127.4 3.5 127.6 3.2 C 127.8 2.9 128.1 2.7 128.5 2.6 C 128.9 2.4 129.4 2.4 129.9 2.4 C 130.5 2.4 130.9 2.4 131.2 2.6 C 131.6 2.7 131.8 2.8 132 3 C 132.1 3.2 132.2 3.5 132.3 3.8 C 132.3 3.9 132.4 4.3 132.4 4.7 C 132.4 4.7 132.4 6.1 132.4 6.1 C 132.4 7.1 132.4 7.7 132.4 8 C 132.5 8.2 132.6 8.5 132.7 8.7 C 132.69 8.74 131.6 8.7 131.6 8.7 C 131.6 8.7 131.58 8.74 131.6 8.7 Z M 131.3 5.6 C 130.9 5.8 130.3 5.9 129.6 6 C 129.1 6.1 128.8 6.1 128.6 6.2 C 128.5 6.3 128.3 6.4 128.2 6.6 C 128.1 6.7 128.1 6.9 128.1 7.1 C 128.1 7.3 128.2 7.6 128.4 7.8 C 128.6 8 128.9 8.1 129.3 8.1 C 129.7 8.1 130.1 8 130.4 7.8 C 130.7 7.6 131 7.4 131.1 7.1 C 131.2 6.8 131.3 6.5 131.3 6 C 131.3 6 131.3 5.6 131.3 5.6 Z M 134 8.7 L 134 2.5 L 134.9 2.5 C 134.9 2.5 134.93 3.39 134.9 3.4 C 135.1 3.1 135.4 2.8 135.7 2.7 C 136 2.5 136.4 2.4 136.8 2.4 C 137.3 2.4 137.7 2.5 138 2.7 C 138.2 2.9 138.5 3.1 138.6 3.5 C 139.1 2.7 139.7 2.4 140.5 2.4 C 141.1 2.4 141.6 2.5 141.9 2.9 C 142.3 3.2 142.4 3.8 142.4 4.5 C 142.42 4.46 142.4 8.7 142.4 8.7 L 141.4 8.7 C 141.4 8.7 141.37 4.82 141.4 4.8 C 141.4 4.4 141.3 4.1 141.3 3.9 C 141.2 3.7 141.1 3.6 140.9 3.5 C 140.7 3.3 140.5 3.3 140.3 3.3 C 139.8 3.3 139.5 3.4 139.2 3.7 C 138.9 4 138.7 4.5 138.7 5.1 C 138.74 5.12 138.7 8.7 138.7 8.7 L 137.7 8.7 C 137.7 8.7 137.68 4.69 137.7 4.7 C 137.7 4.2 137.6 3.9 137.4 3.6 C 137.3 3.4 137 3.3 136.6 3.3 C 136.3 3.3 136 3.4 135.8 3.5 C 135.5 3.7 135.3 3.9 135.2 4.2 C 135.1 4.5 135 4.9 135 5.5 C 135.04 5.51 135 8.7 135 8.7 L 134 8.7 Z " stroke="none" fill="#000"/>  </g></svg>