<?xml version="1.0" standalone="no"?><!DOCTYPE svg PUBLIC "-//W3C//DTD SVG 1.1//EN" "http://www.w3.org/Graphics/SVG/1.1/DTD/svg11.dtd"><svg xmlns="http://www.w3.org/2000/svg" version="1.1" width="165.5px" height="75.5px" viewBox="0 -12 165.5 75.5" style="top:-12px">  <desc>About</desc>  <defs/>  <g id="Polygon15587">    <path d="M 17.5 2.1 L 32.7 36.4 L 28.9 36.4 L 24.1 25.7 L 8.6 25.7 L 4 36.4 L 0.1 36.4 L 14.9 2.1 L 17.5 2.1 Z M 10 22.4 L 22.6 22.4 L 16.1 7.9 L 10 22.4 Z M 45.4 2.3 C 51.7 2.3 55.9 5.6 55.9 11 C 55.9 14.7 53.9 17.3 50.3 18.5 C 55.6 19.3 58.8 22.8 58.8 27.3 C 58.8 33.6 53.2 36.4 47 36.4 C 47 36.45 36.6 36.4 36.6 36.4 L 36.6 2.3 C 36.6 2.3 45.4 2.35 45.4 2.3 Z M 40.3 17.5 C 40.3 17.5 44.05 17.5 44 17.5 C 49.6 17.5 52 14.9 52 11.4 C 52 7.4 49.7 5.6 44.6 5.6 C 44.65 5.65 40.3 5.6 40.3 5.6 L 40.3 17.5 Z M 46.3 33.1 C 51.7 33.1 54.9 31.3 54.9 27 C 54.9 23 52.2 20.7 45.7 20.7 C 45.75 20.75 40.3 20.7 40.3 20.7 L 40.3 33.1 C 40.3 33.1 46.3 33.15 46.3 33.1 Z M 98.3 19.2 C 98.3 28.8 91.3 36.9 80 36.9 C 69.4 36.9 62.3 28.8 62.3 19.6 C 62.3 10.1 69.1 1.9 80.2 1.9 C 91.1 1.9 98.3 9.8 98.3 19.2 Z M 66.2 19.4 C 66.2 27.5 72.4 33.4 80.1 33.3 C 90.2 33.3 94.4 25.5 94.4 19.3 C 94.4 12.4 89.3 5.4 80.4 5.4 C 71.1 5.4 66.2 12.5 66.2 19.4 Z M 107.7 2.3 C 107.7 2.3 107.75 22 107.7 22 C 107.7 29.5 111.3 33.5 118.3 33.5 C 125.4 33.5 128.8 29.4 128.8 22 C 128.85 22 128.8 2.3 128.8 2.3 L 132.6 2.3 C 132.6 2.3 132.6 22 132.6 22 C 132.6 30.9 127.8 36.9 118.4 36.9 C 109 36.9 104 31.5 104 22 C 104 22 104 2.3 104 2.3 L 107.7 2.3 Z M 164.7 2.3 L 164.7 5.6 L 152.5 5.6 L 152.5 36.4 L 148.8 36.4 L 148.8 5.6 L 136.7 5.6 L 136.7 2.3 L 164.7 2.3 Z " stroke="none" fill="#010102"/>  </g></svg>