<?xml version="1.0" standalone="no"?><!DOCTYPE svg PUBLIC "-//W3C//DTD SVG 1.1//EN" "http://www.w3.org/Graphics/SVG/1.1/DTD/svg11.dtd"><svg xmlns="http://www.w3.org/2000/svg" version="1.1" width="143.4px" height="98.4px" viewBox="0 -4 143.4 98.4" style="top:-4px">  <desc>EPA Delivering Excellence at Scale</desc>  <defs/>  <g id="Polygon46020">    <path d="M 7 69.2 L 13.1 82.9 L 11.5 82.9 L 9.6 78.7 L 3.4 78.7 L 1.6 82.9 L 0 82.9 L 5.9 69.2 L 7 69.2 Z M 4 77.3 L 9 77.3 L 6.4 71.5 L 4 77.3 Z M 22.9 69.3 L 22.9 70.6 L 18 70.6 L 18 82.9 L 16.5 82.9 L 16.5 70.6 L 11.7 70.6 L 11.7 69.3 L 22.9 69.3 Z M 36.6 70 C 36.6 70 36.6 71.7 36.6 71.7 C 35.7 70.9 34.7 70.5 33.6 70.5 C 32.1 70.5 31.2 71.3 31.2 72.5 C 31.2 73.4 31.4 74.1 33.7 75.3 C 36.5 76.7 37.2 77.7 37.2 79.6 C 37.2 81.6 35.6 83.1 33.3 83.1 C 32 83.1 30.8 82.7 29.7 81.9 C 29.7 81.9 29.7 80 29.7 80 C 30.7 81.2 31.9 81.8 33.3 81.8 C 34.6 81.8 35.6 80.9 35.6 79.6 C 35.6 78.4 35.3 77.8 32.6 76.4 C 30.5 75.3 29.7 74.2 29.7 72.5 C 29.7 70.6 31.3 69.1 33.6 69.1 C 34.7 69.1 35.7 69.4 36.6 70 Z M 50.8 70.2 C 50.8 70.2 50.8 71.8 50.8 71.8 C 49.3 71 47.7 70.5 46.1 70.5 C 42.7 70.5 40.5 73.1 40.5 76.1 C 40.5 79.2 42.6 81.7 46.1 81.7 C 47.8 81.7 49.4 81.2 50.9 80.3 C 50.9 80.3 50.9 82 50.9 82 C 49.3 82.8 47.8 83.1 46.1 83.1 C 41.4 83.1 38.9 79.6 38.9 76.2 C 38.9 72.1 42 69.1 46.1 69.1 C 47.7 69.1 49.2 69.5 50.8 70.2 Z M 59 69.2 L 65.1 82.9 L 63.5 82.9 L 61.6 78.7 L 55.4 78.7 L 53.6 82.9 L 52 82.9 L 57.9 69.2 L 59 69.2 Z M 56 77.3 L 61 77.3 L 58.4 71.5 L 56 77.3 Z M 68.1 69.3 L 68.1 81.6 L 74.6 81.6 L 74.6 82.9 L 66.6 82.9 L 66.6 69.3 L 68.1 69.3 Z M 83.8 69.3 L 83.8 70.6 L 77.8 70.6 L 77.8 75.4 L 83.6 75.4 L 83.6 76.7 L 77.8 76.7 L 77.8 81.6 L 83.9 81.6 L 83.9 82.9 L 76.3 82.9 L 76.3 69.3 L 83.8 69.3 Z " stroke="none" fill="#000000"/>  </g>  <g id="Polygon46019">    <path d="M 9 45.3 L 9 46.6 L 3 46.6 L 3 51.4 L 8.8 51.4 L 8.8 52.7 L 3 52.7 L 3 57.6 L 9.2 57.6 L 9.2 58.9 L 1.5 58.9 L 1.5 45.3 L 9 45.3 Z M 12.8 45.3 C 14.9 47.9 15.5 48.6 17.5 50.9 C 18.9 49.1 20.4 47.4 22.1 45.3 C 22.12 45.29 23.9 45.3 23.9 45.3 L 18.4 51.9 L 24.3 58.9 L 22.5 58.9 L 17.5 53 L 12.4 58.9 L 10.5 58.9 L 16.5 51.9 L 10.9 45.3 C 10.9 45.3 12.76 45.29 12.8 45.3 Z M 36.3 46.2 C 36.3 46.2 36.3 47.8 36.3 47.8 C 34.9 47 33.3 46.5 31.7 46.5 C 28.2 46.5 26 49.1 26 52.1 C 26 55.2 28.2 57.7 31.7 57.7 C 33.4 57.7 35 57.2 36.4 56.3 C 36.4 56.3 36.4 58 36.4 58 C 34.9 58.8 33.3 59.1 31.6 59.1 C 26.9 59.1 24.5 55.6 24.5 52.2 C 24.5 48.1 27.6 45.1 31.7 45.1 C 33.2 45.1 34.8 45.5 36.3 46.2 Z M 46.2 45.3 L 46.2 46.6 L 40.3 46.6 L 40.3 51.4 L 46 51.4 L 46 52.7 L 40.3 52.7 L 40.3 57.6 L 46.4 57.6 L 46.4 58.9 L 38.8 58.9 L 38.8 45.3 L 46.2 45.3 Z M 50.3 45.3 L 50.3 57.6 L 56.7 57.6 L 56.7 58.9 L 48.8 58.9 L 48.8 45.3 L 50.3 45.3 Z M 60 45.3 L 60 57.6 L 66.4 57.6 L 66.4 58.9 L 58.5 58.9 L 58.5 45.3 L 60 45.3 Z M 75.6 45.3 L 75.6 46.6 L 69.6 46.6 L 69.6 51.4 L 75.4 51.4 L 75.4 52.7 L 69.6 52.7 L 69.6 57.6 L 75.8 57.6 L 75.8 58.9 L 68.1 58.9 L 68.1 45.3 L 75.6 45.3 Z M 79.4 45.3 L 89.1 56.6 L 89.1 45.3 L 90.5 45.3 L 90.5 58.9 L 89.2 58.9 L 79.6 47.7 L 79.6 58.9 L 78.2 58.9 L 78.2 45.3 L 79.4 45.3 Z M 104.8 46.2 C 104.8 46.2 104.8 47.8 104.8 47.8 C 103.4 47 101.8 46.5 100.2 46.5 C 96.7 46.5 94.5 49.1 94.5 52.1 C 94.5 55.2 96.7 57.7 100.2 57.7 C 101.9 57.7 103.5 57.2 104.9 56.3 C 104.9 56.3 104.9 58 104.9 58 C 103.4 58.8 101.8 59.1 100.2 59.1 C 95.4 59.1 93 55.6 93 52.2 C 93 48.1 96.1 45.1 100.2 45.1 C 101.7 45.1 103.3 45.5 104.8 46.2 Z M 114.8 45.3 L 114.8 46.6 L 108.8 46.6 L 108.8 51.4 L 114.6 51.4 L 114.6 52.7 L 108.8 52.7 L 108.8 57.6 L 114.9 57.6 L 114.9 58.9 L 107.3 58.9 L 107.3 45.3 L 114.8 45.3 Z " stroke="none" fill="#000000"/>  </g>  <g id="Polygon46018">    <path d="M 1.5 21.3 C 1.5 21.3 6.56 21.29 6.6 21.3 C 11 21.3 13.9 24.1 13.9 28 C 13.9 32.2 10.9 34.9 6.6 34.9 C 6.56 34.93 1.5 34.9 1.5 34.9 L 1.5 21.3 Z M 6.5 33.6 C 10.1 33.6 12.3 31.5 12.3 28.1 C 12.3 24.8 10.2 22.6 6.3 22.6 C 6.32 22.63 3 22.6 3 22.6 L 3 33.6 C 3 33.6 6.54 33.57 6.5 33.6 Z M 23.9 21.3 L 23.9 22.6 L 17.9 22.6 L 17.9 27.4 L 23.7 27.4 L 23.7 28.7 L 17.9 28.7 L 17.9 33.6 L 24 33.6 L 24 34.9 L 16.4 34.9 L 16.4 21.3 L 23.9 21.3 Z M 27.9 21.3 L 27.9 33.6 L 34.4 33.6 L 34.4 34.9 L 26.4 34.9 L 26.4 21.3 L 27.9 21.3 Z M 37.6 21.3 L 37.6 34.9 L 36.1 34.9 L 36.1 21.3 L 37.6 21.3 Z M 39.2 21.3 L 40.7 21.3 L 45.1 31.9 L 45.1 31.9 L 49.5 21.3 L 51 21.3 L 45.3 35.1 L 44.9 35.1 L 39.2 21.3 Z M 60.1 21.3 L 60.1 22.6 L 54.1 22.6 L 54.1 27.4 L 59.9 27.4 L 59.9 28.7 L 54.1 28.7 L 54.1 33.6 L 60.2 33.6 L 60.2 34.9 L 52.6 34.9 L 52.6 21.3 L 60.1 21.3 Z M 62.6 21.3 C 62.6 21.3 66.22 21.29 66.2 21.3 C 69 21.3 70.4 22.9 70.4 25 C 70.4 26.7 69.5 27.8 67.8 28.3 C 68.7 28.8 69.1 29.1 70.2 30.9 C 70.2 30.85 72.8 34.9 72.8 34.9 L 71.1 34.9 C 71.1 34.9 68.66 31.17 68.7 31.2 C 67.4 29.2 66.6 28.7 65.4 28.7 C 65.4 28.73 64.1 28.7 64.1 28.7 L 64.1 34.9 L 62.6 34.9 L 62.6 21.3 Z M 65.5 27.4 C 67.4 27.4 68.8 27 68.8 25 C 68.8 23.3 67.8 22.6 66 22.6 C 66.02 22.61 64.1 22.6 64.1 22.6 L 64.1 27.4 C 64.1 27.4 65.54 27.41 65.5 27.4 Z M 75.8 21.3 L 75.8 34.9 L 74.3 34.9 L 74.3 21.3 L 75.8 21.3 Z M 80.1 21.3 L 89.8 32.6 L 89.8 21.3 L 91.2 21.3 L 91.2 34.9 L 89.9 34.9 L 80.3 23.7 L 80.3 34.9 L 78.9 34.9 L 78.9 21.3 L 80.1 21.3 Z M 105.6 23.8 C 104.1 22.9 102.4 22.5 100.9 22.5 C 97.7 22.5 95.3 24.9 95.3 28.1 C 95.3 31.4 97.6 33.8 101 33.8 C 102.1 33.8 102.9 33.6 104.3 33.1 C 104.34 33.07 104.3 29.8 104.3 29.8 L 101.6 29.8 L 101.6 28.4 L 105.8 28.4 C 105.8 28.4 105.84 33.99 105.8 34 C 104.3 34.8 102.8 35.1 101 35.1 C 96.1 35.1 93.7 31.7 93.7 28.2 C 93.7 24.3 96.6 21.1 100.9 21.1 C 102.5 21.1 103.8 21.4 105.6 22.2 C 105.6 22.2 105.6 23.8 105.6 23.8 Z " stroke="none" fill="#000000"/>  </g>  <g id="Polygon46017">    <path d="M 6.8 0.7 L 6.8 1.7 L 2.3 1.7 L 2.3 5.3 L 6.6 5.3 L 6.6 6.3 L 2.3 6.3 L 2.3 9.9 L 6.9 9.9 L 6.9 10.9 L 1.2 10.9 L 1.2 0.7 L 6.8 0.7 Z M 11.6 0.7 C 13.6 0.7 14.9 1.7 14.9 3.5 C 14.9 5.4 13.6 6.3 11.4 6.3 C 11.4 6.33 9.8 6.3 9.8 6.3 L 9.8 10.9 L 8.7 10.9 L 8.7 0.7 C 8.7 0.7 11.59 0.7 11.6 0.7 Z M 9.8 5.3 C 9.8 5.3 11.37 5.34 11.4 5.3 C 13.1 5.3 13.7 4.7 13.7 3.5 C 13.7 2.3 13 1.7 11.4 1.7 C 11.37 1.69 9.8 1.7 9.8 1.7 L 9.8 5.3 Z M 19.7 0.6 L 24.2 10.9 L 23.1 10.9 L 21.6 7.7 L 17 7.7 L 15.6 10.9 L 14.5 10.9 L 18.9 0.6 L 19.7 0.6 Z M 17.4 6.7 L 21.2 6.7 L 19.3 2.4 L 17.4 6.7 Z " stroke="none" fill="#f28620"/>  </g></svg>