<?xml version="1.0" standalone="no"?><!DOCTYPE svg PUBLIC "-//W3C//DTD SVG 1.1//EN" "http://www.w3.org/Graphics/SVG/1.1/DTD/svg11.dtd"><svg xmlns="http://www.w3.org/2000/svg" version="1.1" width="273px" height="75.5px" viewBox="0 -5 273 75.5" style="top:-5px">  <desc>Incisive No red tape, non bureaucratic, solution oriented, accountable and responsible for delivering against agreed ...</desc>  <defs/>  <g id="Polygon44355">    <path d="M 5.1 62.4 C 5 62.2 4.9 61.9 4.9 61.6 C 4.5 61.9 4.1 62.2 3.7 62.3 C 3.4 62.5 3 62.5 2.6 62.5 C 1.9 62.5 1.4 62.4 1 62 C 0.6 61.7 0.4 61.3 0.4 60.7 C 0.4 60.4 0.5 60.2 0.6 59.9 C 0.8 59.7 1 59.5 1.2 59.3 C 1.4 59.1 1.7 59 1.9 59 C 2.2 58.9 2.5 58.8 2.9 58.8 C 3.7 58.7 4.4 58.6 4.8 58.4 C 4.8 58.3 4.8 58.2 4.8 58.2 C 4.8 57.7 4.7 57.4 4.5 57.2 C 4.2 57 3.8 56.9 3.3 56.9 C 2.8 56.9 2.4 57 2.2 57.2 C 1.9 57.3 1.8 57.6 1.6 58.1 C 1.6 58.1 0.6 57.9 0.6 57.9 C 0.7 57.5 0.9 57.1 1.1 56.9 C 1.3 56.6 1.6 56.4 2 56.2 C 2.4 56.1 2.9 56 3.4 56 C 4 56 4.4 56.1 4.7 56.2 C 5 56.3 5.3 56.5 5.4 56.7 C 5.6 56.9 5.7 57.1 5.8 57.4 C 5.8 57.6 5.8 57.9 5.8 58.4 C 5.8 58.4 5.8 59.8 5.8 59.8 C 5.8 60.8 5.9 61.4 5.9 61.6 C 5.9 61.9 6 62.1 6.2 62.4 C 6.16 62.38 5.1 62.4 5.1 62.4 C 5.1 62.4 5.06 62.38 5.1 62.4 Z M 4.8 59.3 C 4.4 59.4 3.8 59.5 3 59.7 C 2.6 59.7 2.3 59.8 2.1 59.9 C 1.9 59.9 1.8 60.1 1.7 60.2 C 1.6 60.4 1.6 60.5 1.6 60.7 C 1.6 61 1.7 61.2 1.9 61.4 C 2.1 61.6 2.4 61.7 2.8 61.7 C 3.2 61.7 3.6 61.6 3.9 61.4 C 4.2 61.2 4.4 61 4.6 60.7 C 4.7 60.5 4.8 60.1 4.8 59.6 C 4.8 59.6 4.8 59.3 4.8 59.3 Z M 7.3 62.9 C 7.3 62.9 8.3 63 8.3 63 C 8.3 63.4 8.5 63.6 8.7 63.7 C 8.9 63.9 9.3 64 9.7 64 C 10.2 64 10.6 63.9 10.9 63.7 C 11.1 63.5 11.3 63.3 11.4 62.9 C 11.5 62.7 11.5 62.3 11.5 61.6 C 11 62.1 10.4 62.4 9.8 62.4 C 8.9 62.4 8.2 62.1 7.8 61.5 C 7.3 60.8 7.1 60.1 7.1 59.2 C 7.1 58.6 7.2 58.1 7.4 57.6 C 7.6 57.1 7.9 56.7 8.3 56.4 C 8.7 56.2 9.2 56 9.8 56 C 10.5 56 11.1 56.3 11.6 56.9 C 11.57 56.91 11.6 56.2 11.6 56.2 L 12.5 56.2 C 12.5 56.2 12.54 61.54 12.5 61.5 C 12.5 62.5 12.4 63.2 12.2 63.6 C 12.1 64 11.7 64.3 11.3 64.6 C 10.9 64.8 10.4 64.9 9.7 64.9 C 9 64.9 8.4 64.7 7.9 64.4 C 7.5 64.1 7.3 63.6 7.3 62.9 Z M 8.1 59.2 C 8.1 60 8.3 60.6 8.6 60.9 C 9 61.3 9.4 61.5 9.8 61.5 C 10.3 61.5 10.7 61.3 11.1 60.9 C 11.4 60.6 11.6 60 11.6 59.2 C 11.6 58.4 11.4 57.9 11.1 57.5 C 10.7 57.1 10.3 56.9 9.8 56.9 C 9.4 56.9 9 57.1 8.6 57.5 C 8.3 57.8 8.1 58.4 8.1 59.2 Z M 14.1 62.4 L 14.1 56.2 L 15.1 56.2 C 15.1 56.2 15.08 57.1 15.1 57.1 C 15.3 56.7 15.5 56.4 15.7 56.2 C 16 56.1 16.2 56 16.4 56 C 16.8 56 17.1 56.1 17.5 56.4 C 17.5 56.4 17.1 57.3 17.1 57.3 C 16.9 57.2 16.6 57.1 16.4 57.1 C 16.1 57.1 15.9 57.2 15.8 57.3 C 15.6 57.5 15.4 57.6 15.4 57.9 C 15.2 58.3 15.2 58.7 15.2 59.1 C 15.18 59.12 15.2 62.4 15.2 62.4 L 14.1 62.4 Z M 22.4 60.4 C 22.4 60.4 23.5 60.5 23.5 60.5 C 23.3 61.1 23 61.6 22.5 62 C 22.1 62.3 21.5 62.5 20.7 62.5 C 19.8 62.5 19.1 62.2 18.6 61.7 C 18 61.1 17.8 60.3 17.8 59.3 C 17.8 58.3 18.1 57.5 18.6 56.9 C 19.1 56.3 19.8 56 20.7 56 C 21.5 56 22.2 56.3 22.7 56.9 C 23.3 57.4 23.5 58.2 23.5 59.3 C 23.5 59.3 23.5 59.4 23.5 59.5 C 23.5 59.5 18.9 59.5 18.9 59.5 C 18.9 60.2 19.1 60.7 19.5 61.1 C 19.8 61.5 20.2 61.7 20.8 61.7 C 21.1 61.7 21.5 61.6 21.7 61.3 C 22 61.1 22.2 60.8 22.4 60.4 Z M 18.9 58.7 C 18.9 58.7 22.4 58.7 22.4 58.7 C 22.4 58.1 22.2 57.8 22 57.5 C 21.7 57.1 21.2 56.9 20.7 56.9 C 20.2 56.9 19.8 57 19.5 57.4 C 19.1 57.7 19 58.1 18.9 58.7 Z M 29.1 60.4 C 29.1 60.4 30.2 60.5 30.2 60.5 C 30 61.1 29.7 61.6 29.2 62 C 28.7 62.3 28.1 62.5 27.4 62.5 C 26.5 62.5 25.8 62.2 25.3 61.7 C 24.7 61.1 24.5 60.3 24.5 59.3 C 24.5 58.3 24.7 57.5 25.3 56.9 C 25.8 56.3 26.5 56 27.4 56 C 28.2 56 28.9 56.3 29.4 56.9 C 29.9 57.4 30.2 58.2 30.2 59.3 C 30.2 59.3 30.2 59.4 30.2 59.5 C 30.2 59.5 25.5 59.5 25.5 59.5 C 25.6 60.2 25.8 60.7 26.1 61.1 C 26.5 61.5 26.9 61.7 27.4 61.7 C 27.8 61.7 28.1 61.6 28.4 61.3 C 28.7 61.1 28.9 60.8 29.1 60.4 Z M 25.6 58.7 C 25.6 58.7 29.1 58.7 29.1 58.7 C 29 58.1 28.9 57.8 28.7 57.5 C 28.3 57.1 27.9 56.9 27.4 56.9 C 26.9 56.9 26.5 57 26.2 57.4 C 25.8 57.7 25.6 58.1 25.6 58.7 Z M 35.5 62.4 C 35.5 62.4 35.52 61.59 35.5 61.6 C 35.1 62.2 34.5 62.5 33.8 62.5 C 33.3 62.5 32.8 62.4 32.4 62.1 C 32 61.8 31.7 61.5 31.4 61 C 31.2 60.5 31.1 59.9 31.1 59.3 C 31.1 58.7 31.2 58.1 31.4 57.6 C 31.6 57.1 31.9 56.7 32.3 56.4 C 32.8 56.2 33.2 56 33.7 56 C 34.1 56 34.4 56.1 34.7 56.3 C 35 56.4 35.3 56.6 35.4 56.9 C 35.45 56.87 35.4 53.8 35.4 53.8 L 36.5 53.8 L 36.5 62.4 L 35.5 62.4 Z M 32.2 59.3 C 32.2 60.1 32.4 60.7 32.7 61.1 C 33 61.5 33.4 61.7 33.9 61.7 C 34.3 61.7 34.7 61.5 35.1 61.1 C 35.4 60.7 35.5 60.1 35.5 59.4 C 35.5 58.5 35.4 57.9 35 57.5 C 34.7 57.1 34.3 56.9 33.8 56.9 C 33.4 56.9 33 57.1 32.7 57.5 C 32.3 57.8 32.2 58.5 32.2 59.3 Z M 41.1 60.5 C 41.1 60.5 42.1 60.4 42.1 60.4 C 42.2 60.8 42.3 61.1 42.6 61.3 C 42.9 61.5 43.2 61.7 43.7 61.7 C 44.2 61.7 44.6 61.6 44.8 61.4 C 45 61.2 45.2 60.9 45.2 60.7 C 45.2 60.4 45 60.2 44.8 60.1 C 44.7 60 44.3 59.9 43.8 59.7 C 43 59.5 42.5 59.4 42.2 59.2 C 41.9 59.1 41.6 58.9 41.5 58.6 C 41.3 58.4 41.2 58.1 41.2 57.8 C 41.2 57.5 41.3 57.3 41.4 57 C 41.6 56.8 41.7 56.6 42 56.5 C 42.1 56.3 42.3 56.2 42.6 56.1 C 42.9 56.1 43.2 56 43.5 56 C 44 56 44.5 56.1 44.8 56.2 C 45.2 56.4 45.5 56.6 45.6 56.8 C 45.8 57 45.9 57.4 46 57.8 C 46 57.8 45 57.9 45 57.9 C 44.9 57.6 44.8 57.3 44.6 57.2 C 44.3 57 44 56.9 43.6 56.9 C 43.1 56.9 42.8 57 42.6 57.1 C 42.4 57.3 42.3 57.5 42.3 57.7 C 42.3 57.8 42.3 57.9 42.4 58.1 C 42.5 58.2 42.6 58.3 42.8 58.3 C 42.9 58.4 43.2 58.5 43.7 58.6 C 44.5 58.8 45 59 45.3 59.1 C 45.6 59.2 45.8 59.4 46 59.6 C 46.2 59.9 46.2 60.2 46.2 60.6 C 46.2 60.9 46.1 61.2 45.9 61.5 C 45.7 61.9 45.4 62.1 45 62.3 C 44.7 62.4 44.2 62.5 43.7 62.5 C 42.9 62.5 42.3 62.4 41.9 62 C 41.5 61.7 41.2 61.2 41.1 60.5 Z M 51.8 60.4 C 51.8 60.4 52.8 60.5 52.8 60.5 C 52.7 61.1 52.3 61.6 51.9 62 C 51.4 62.3 50.8 62.5 50.1 62.5 C 49.2 62.5 48.5 62.2 47.9 61.7 C 47.4 61.1 47.1 60.3 47.1 59.3 C 47.1 58.3 47.4 57.5 47.9 56.9 C 48.5 56.3 49.2 56 50 56 C 50.9 56 51.6 56.3 52.1 56.9 C 52.6 57.4 52.9 58.2 52.9 59.3 C 52.9 59.3 52.9 59.4 52.9 59.5 C 52.9 59.5 48.2 59.5 48.2 59.5 C 48.3 60.2 48.5 60.7 48.8 61.1 C 49.2 61.5 49.6 61.7 50.1 61.7 C 50.5 61.7 50.8 61.6 51.1 61.3 C 51.4 61.1 51.6 60.8 51.8 60.4 Z M 48.3 58.7 C 48.3 58.7 51.8 58.7 51.8 58.7 C 51.7 58.1 51.6 57.8 51.4 57.5 C 51 57.1 50.6 56.9 50.1 56.9 C 49.6 56.9 49.2 57 48.8 57.4 C 48.5 57.7 48.3 58.1 48.3 58.7 Z M 54.2 62.4 L 54.2 56.2 L 55.1 56.2 C 55.1 56.2 55.1 57.1 55.1 57.1 C 55.3 56.7 55.6 56.4 55.8 56.2 C 56 56.1 56.2 56 56.4 56 C 56.8 56 57.2 56.1 57.5 56.4 C 57.5 56.4 57.2 57.3 57.2 57.3 C 56.9 57.2 56.7 57.1 56.4 57.1 C 56.2 57.1 56 57.2 55.8 57.3 C 55.6 57.5 55.5 57.6 55.4 57.9 C 55.3 58.3 55.2 58.7 55.2 59.1 C 55.21 59.12 55.2 62.4 55.2 62.4 L 54.2 62.4 Z M 59.9 62.4 L 57.5 56.2 L 58.6 56.2 C 58.6 56.2 59.97 59.88 60 59.9 C 60.1 60.3 60.2 60.7 60.4 61.1 C 60.5 60.8 60.6 60.4 60.8 60 C 60.76 59.95 62.1 56.2 62.1 56.2 L 63.2 56.2 L 60.9 62.4 L 59.9 62.4 Z M 64.2 55 L 64.2 53.8 L 65.2 53.8 L 65.2 55 L 64.2 55 Z M 64.2 62.4 L 64.2 56.2 L 65.2 56.2 L 65.2 62.4 L 64.2 62.4 Z M 70.9 60.1 C 70.9 60.1 71.9 60.2 71.9 60.2 C 71.8 61 71.5 61.5 71.1 61.9 C 70.6 62.3 70 62.5 69.3 62.5 C 68.5 62.5 67.8 62.2 67.3 61.7 C 66.8 61.1 66.5 60.3 66.5 59.3 C 66.5 58.6 66.6 58 66.8 57.5 C 67.1 57 67.4 56.6 67.9 56.4 C 68.3 56.1 68.8 56 69.3 56 C 70 56 70.6 56.2 71 56.5 C 71.4 56.9 71.7 57.4 71.8 58 C 71.8 58 70.8 58.1 70.8 58.1 C 70.7 57.7 70.5 57.4 70.3 57.2 C 70 57 69.7 56.9 69.4 56.9 C 68.8 56.9 68.4 57.1 68.1 57.5 C 67.8 57.8 67.6 58.4 67.6 59.3 C 67.6 60.1 67.7 60.7 68.1 61.1 C 68.4 61.5 68.8 61.7 69.3 61.7 C 69.7 61.7 70.1 61.5 70.4 61.3 C 70.6 61 70.8 60.6 70.9 60.1 Z M 77.1 60.4 C 77.1 60.4 78.2 60.5 78.2 60.5 C 78 61.1 77.7 61.6 77.2 62 C 76.8 62.3 76.2 62.5 75.4 62.5 C 74.5 62.5 73.8 62.2 73.3 61.7 C 72.7 61.1 72.5 60.3 72.5 59.3 C 72.5 58.3 72.7 57.5 73.3 56.9 C 73.8 56.3 74.5 56 75.4 56 C 76.2 56 76.9 56.3 77.4 56.9 C 77.9 57.4 78.2 58.2 78.2 59.3 C 78.2 59.3 78.2 59.4 78.2 59.5 C 78.2 59.5 73.6 59.5 73.6 59.5 C 73.6 60.2 73.8 60.7 74.1 61.1 C 74.5 61.5 74.9 61.7 75.4 61.7 C 75.8 61.7 76.2 61.6 76.4 61.3 C 76.7 61.1 76.9 60.8 77.1 60.4 Z M 73.6 58.7 C 73.6 58.7 77.1 58.7 77.1 58.7 C 77.1 58.1 76.9 57.8 76.7 57.5 C 76.4 57.1 75.9 56.9 75.4 56.9 C 74.9 56.9 74.5 57 74.2 57.4 C 73.8 57.7 73.7 58.1 73.6 58.7 Z M 82.8 62.4 L 82.8 53.8 L 83.9 53.8 L 83.9 62.4 L 82.8 62.4 Z M 89.8 60.4 C 89.8 60.4 90.8 60.5 90.8 60.5 C 90.7 61.1 90.4 61.6 89.9 62 C 89.4 62.3 88.8 62.5 88.1 62.5 C 87.2 62.5 86.5 62.2 85.9 61.7 C 85.4 61.1 85.1 60.3 85.1 59.3 C 85.1 58.3 85.4 57.5 86 56.9 C 86.5 56.3 87.2 56 88.1 56 C 88.9 56 89.6 56.3 90.1 56.9 C 90.6 57.4 90.9 58.2 90.9 59.3 C 90.9 59.3 90.9 59.4 90.9 59.5 C 90.9 59.5 86.2 59.5 86.2 59.5 C 86.3 60.2 86.5 60.7 86.8 61.1 C 87.2 61.5 87.6 61.7 88.1 61.7 C 88.5 61.7 88.8 61.6 89.1 61.3 C 89.4 61.1 89.6 60.8 89.8 60.4 Z M 86.3 58.7 C 86.3 58.7 89.8 58.7 89.8 58.7 C 89.7 58.1 89.6 57.8 89.4 57.5 C 89 57.1 88.6 56.9 88.1 56.9 C 87.6 56.9 87.2 57 86.8 57.4 C 86.5 57.7 86.3 58.1 86.3 58.7 Z M 93.9 62.4 L 91.5 56.2 L 92.6 56.2 C 92.6 56.2 93.98 59.88 94 59.9 C 94.1 60.3 94.3 60.7 94.4 61.1 C 94.5 60.8 94.6 60.4 94.8 60 C 94.78 59.95 96.2 56.2 96.2 56.2 L 97.2 56.2 L 94.9 62.4 L 93.9 62.4 Z M 102.4 60.4 C 102.4 60.4 103.5 60.5 103.5 60.5 C 103.4 61.1 103 61.6 102.6 62 C 102.1 62.3 101.5 62.5 100.8 62.5 C 99.9 62.5 99.2 62.2 98.6 61.7 C 98.1 61.1 97.8 60.3 97.8 59.3 C 97.8 58.3 98.1 57.5 98.6 56.9 C 99.2 56.3 99.9 56 100.7 56 C 101.6 56 102.2 56.3 102.8 56.9 C 103.3 57.4 103.6 58.2 103.6 59.3 C 103.6 59.3 103.6 59.4 103.6 59.5 C 103.6 59.5 98.9 59.5 98.9 59.5 C 99 60.2 99.1 60.7 99.5 61.1 C 99.8 61.5 100.3 61.7 100.8 61.7 C 101.2 61.7 101.5 61.6 101.8 61.3 C 102.1 61.1 102.3 60.8 102.4 60.4 Z M 99 58.7 C 99 58.7 102.4 58.7 102.4 58.7 C 102.4 58.1 102.3 57.8 102 57.5 C 101.7 57.1 101.3 56.9 100.7 56.9 C 100.3 56.9 99.8 57 99.5 57.4 C 99.2 57.7 99 58.1 99 58.7 Z M 104.8 62.4 L 104.8 53.8 L 105.9 53.8 L 105.9 62.4 L 104.8 62.4 Z M 107.1 60.5 C 107.1 60.5 108.1 60.4 108.1 60.4 C 108.2 60.8 108.4 61.1 108.6 61.3 C 108.9 61.5 109.3 61.7 109.7 61.7 C 110.2 61.7 110.6 61.6 110.8 61.4 C 111.1 61.2 111.2 60.9 111.2 60.7 C 111.2 60.4 111.1 60.2 110.9 60.1 C 110.7 60 110.4 59.9 109.8 59.7 C 109 59.5 108.5 59.4 108.2 59.2 C 107.9 59.1 107.7 58.9 107.5 58.6 C 107.3 58.4 107.3 58.1 107.3 57.8 C 107.3 57.5 107.3 57.3 107.5 57 C 107.6 56.8 107.8 56.6 108 56.5 C 108.1 56.3 108.4 56.2 108.6 56.1 C 108.9 56.1 109.2 56 109.6 56 C 110 56 110.5 56.1 110.8 56.2 C 111.2 56.4 111.5 56.6 111.7 56.8 C 111.8 57 112 57.4 112 57.8 C 112 57.8 111 57.9 111 57.9 C 110.9 57.6 110.8 57.3 110.6 57.2 C 110.4 57 110 56.9 109.6 56.9 C 109.2 56.9 108.8 57 108.6 57.1 C 108.4 57.3 108.3 57.5 108.3 57.7 C 108.3 57.8 108.3 57.9 108.4 58.1 C 108.5 58.2 108.6 58.3 108.8 58.3 C 108.9 58.4 109.2 58.5 109.8 58.6 C 110.5 58.8 111 59 111.3 59.1 C 111.6 59.2 111.8 59.4 112 59.6 C 112.2 59.9 112.3 60.2 112.3 60.6 C 112.3 60.9 112.2 61.2 112 61.5 C 111.7 61.9 111.5 62.1 111.1 62.3 C 110.7 62.4 110.2 62.5 109.8 62.5 C 108.9 62.5 108.3 62.4 107.9 62 C 107.5 61.7 107.2 61.2 107.1 60.5 Z " stroke="none" fill="#ffffff"/>  </g>  <g id="Polygon44354">    <path d="M 5.1 48 C 5 47.8 4.9 47.5 4.9 47.2 C 4.5 47.5 4.1 47.8 3.7 47.9 C 3.4 48.1 3 48.1 2.6 48.1 C 1.9 48.1 1.4 48 1 47.6 C 0.6 47.3 0.4 46.9 0.4 46.3 C 0.4 46 0.5 45.8 0.6 45.5 C 0.8 45.3 1 45.1 1.2 44.9 C 1.4 44.7 1.7 44.6 1.9 44.6 C 2.2 44.5 2.5 44.4 2.9 44.4 C 3.7 44.3 4.4 44.2 4.8 44 C 4.8 43.9 4.8 43.8 4.8 43.8 C 4.8 43.3 4.7 43 4.5 42.8 C 4.2 42.6 3.8 42.5 3.3 42.5 C 2.8 42.5 2.4 42.6 2.2 42.8 C 1.9 42.9 1.8 43.2 1.6 43.7 C 1.6 43.7 0.6 43.5 0.6 43.5 C 0.7 43.1 0.9 42.7 1.1 42.5 C 1.3 42.2 1.6 42 2 41.8 C 2.4 41.7 2.9 41.6 3.4 41.6 C 4 41.6 4.4 41.7 4.7 41.8 C 5 41.9 5.3 42.1 5.4 42.3 C 5.6 42.5 5.7 42.7 5.8 43 C 5.8 43.2 5.8 43.5 5.8 44 C 5.8 44 5.8 45.4 5.8 45.4 C 5.8 46.4 5.9 47 5.9 47.2 C 5.9 47.5 6 47.7 6.2 48 C 6.16 47.98 5.1 48 5.1 48 C 5.1 48 5.06 47.98 5.1 48 Z M 4.8 44.9 C 4.4 45 3.8 45.1 3 45.3 C 2.6 45.3 2.3 45.4 2.1 45.5 C 1.9 45.5 1.8 45.7 1.7 45.8 C 1.6 46 1.6 46.1 1.6 46.3 C 1.6 46.6 1.7 46.8 1.9 47 C 2.1 47.2 2.4 47.3 2.8 47.3 C 3.2 47.3 3.6 47.2 3.9 47 C 4.2 46.8 4.4 46.6 4.6 46.3 C 4.7 46.1 4.8 45.7 4.8 45.2 C 4.8 45.2 4.8 44.9 4.8 44.9 Z M 11.5 45.7 C 11.5 45.7 12.6 45.8 12.6 45.8 C 12.4 46.6 12.2 47.1 11.7 47.5 C 11.2 47.9 10.7 48.1 10 48.1 C 9.1 48.1 8.4 47.8 7.9 47.3 C 7.4 46.7 7.1 45.9 7.1 44.9 C 7.1 44.2 7.3 43.6 7.5 43.1 C 7.7 42.6 8 42.2 8.5 42 C 8.9 41.7 9.4 41.6 10 41.6 C 10.7 41.6 11.2 41.8 11.6 42.1 C 12.1 42.5 12.3 43 12.5 43.6 C 12.5 43.6 11.4 43.7 11.4 43.7 C 11.3 43.3 11.2 43 10.9 42.8 C 10.7 42.6 10.4 42.5 10 42.5 C 9.5 42.5 9.1 42.7 8.7 43.1 C 8.4 43.4 8.2 44 8.2 44.9 C 8.2 45.7 8.4 46.3 8.7 46.7 C 9 47.1 9.4 47.3 10 47.3 C 10.4 47.3 10.7 47.1 11 46.9 C 11.3 46.6 11.5 46.2 11.5 45.7 Z M 17.5 45.7 C 17.5 45.7 18.6 45.8 18.6 45.8 C 18.4 46.6 18.2 47.1 17.7 47.5 C 17.2 47.9 16.7 48.1 16 48.1 C 15.1 48.1 14.4 47.8 13.9 47.3 C 13.4 46.7 13.1 45.9 13.1 44.9 C 13.1 44.2 13.3 43.6 13.5 43.1 C 13.7 42.6 14 42.2 14.5 42 C 14.9 41.7 15.4 41.6 16 41.6 C 16.7 41.6 17.2 41.8 17.6 42.1 C 18.1 42.5 18.3 43 18.5 43.6 C 18.5 43.6 17.4 43.7 17.4 43.7 C 17.3 43.3 17.2 43 16.9 42.8 C 16.7 42.6 16.4 42.5 16 42.5 C 15.5 42.5 15.1 42.7 14.7 43.1 C 14.4 43.4 14.2 44 14.2 44.9 C 14.2 45.7 14.4 46.3 14.7 46.7 C 15 47.1 15.4 47.3 16 47.3 C 16.4 47.3 16.7 47.1 17 46.9 C 17.3 46.6 17.5 46.2 17.5 45.7 Z M 19.1 44.9 C 19.1 43.7 19.4 42.9 20 42.3 C 20.6 41.8 21.2 41.6 22 41.6 C 22.8 41.6 23.5 41.9 24.1 42.5 C 24.6 43 24.9 43.8 24.9 44.8 C 24.9 45.6 24.8 46.2 24.5 46.7 C 24.3 47.1 24 47.5 23.5 47.7 C 23 48 22.5 48.1 22 48.1 C 21.1 48.1 20.4 47.8 19.9 47.3 C 19.3 46.7 19.1 45.9 19.1 44.9 Z M 20.2 44.9 C 20.2 45.7 20.3 46.3 20.7 46.7 C 21 47.1 21.5 47.3 22 47.3 C 22.5 47.3 22.9 47.1 23.3 46.7 C 23.6 46.3 23.8 45.6 23.8 44.8 C 23.8 44.1 23.6 43.5 23.3 43.1 C 22.9 42.7 22.5 42.5 22 42.5 C 21.5 42.5 21 42.7 20.7 43.1 C 20.3 43.5 20.2 44.1 20.2 44.9 Z M 30.2 48 C 30.2 48 30.22 47.07 30.2 47.1 C 29.7 47.8 29.1 48.1 28.2 48.1 C 27.9 48.1 27.5 48.1 27.2 47.9 C 26.9 47.8 26.7 47.6 26.5 47.4 C 26.4 47.2 26.2 46.9 26.2 46.6 C 26.1 46.4 26.1 46.1 26.1 45.6 C 26.12 45.61 26.1 41.8 26.1 41.8 L 27.2 41.8 C 27.2 41.8 27.17 45.21 27.2 45.2 C 27.2 45.8 27.2 46.1 27.2 46.3 C 27.3 46.6 27.4 46.8 27.7 47 C 27.9 47.1 28.1 47.2 28.5 47.2 C 28.8 47.2 29.1 47.1 29.3 47 C 29.6 46.8 29.8 46.6 29.9 46.3 C 30 46 30.1 45.6 30.1 45.1 C 30.11 45.09 30.1 41.8 30.1 41.8 L 31.2 41.8 L 31.2 48 L 30.2 48 Z M 32.8 48 L 32.8 41.8 L 33.8 41.8 C 33.8 41.8 33.76 42.64 33.8 42.6 C 34.2 42 34.9 41.6 35.7 41.6 C 36.1 41.6 36.5 41.7 36.8 41.8 C 37.1 42 37.3 42.1 37.5 42.3 C 37.6 42.6 37.7 42.8 37.8 43.1 C 37.8 43.3 37.9 43.7 37.9 44.2 C 37.87 44.15 37.9 48 37.9 48 L 36.8 48 C 36.8 48 36.81 44.19 36.8 44.2 C 36.8 43.8 36.8 43.4 36.7 43.2 C 36.6 43 36.5 42.8 36.3 42.7 C 36 42.6 35.8 42.5 35.5 42.5 C 35.1 42.5 34.7 42.7 34.4 43 C 34 43.2 33.9 43.8 33.9 44.6 C 33.87 44.58 33.9 48 33.9 48 L 32.8 48 Z M 41.3 47.1 C 41.4 47.1 41.6 47.1 41.8 47 C 41.8 47 41.9 48 41.9 48 C 41.6 48 41.4 48.1 41.1 48.1 C 40.8 48.1 40.5 48 40.3 47.9 C 40 47.8 39.9 47.6 39.8 47.4 C 39.7 47.2 39.7 46.8 39.7 46.2 C 39.68 46.16 39.7 42.6 39.7 42.6 L 38.9 42.6 L 38.9 41.8 L 39.7 41.8 L 39.7 40.2 L 40.7 39.6 L 40.7 41.8 L 41.8 41.8 L 41.8 42.6 L 40.7 42.6 C 40.7 42.6 40.73 46.22 40.7 46.2 C 40.7 46.5 40.7 46.7 40.8 46.8 C 40.8 46.9 40.9 47 41 47 C 41 47.1 41.2 47.1 41.3 47.1 C 41.3 47.1 41.3 47.1 41.3 47.1 Z M 47.1 48 C 47 47.8 46.9 47.5 46.9 47.2 C 46.5 47.5 46.1 47.8 45.8 47.9 C 45.4 48.1 45 48.1 44.6 48.1 C 43.9 48.1 43.4 48 43 47.6 C 42.6 47.3 42.5 46.9 42.5 46.3 C 42.5 46 42.5 45.8 42.7 45.5 C 42.8 45.3 43 45.1 43.2 44.9 C 43.4 44.7 43.7 44.6 44 44.6 C 44.2 44.5 44.5 44.4 44.9 44.4 C 45.8 44.3 46.4 44.2 46.8 44 C 46.8 43.9 46.8 43.8 46.8 43.8 C 46.8 43.3 46.7 43 46.5 42.8 C 46.2 42.6 45.8 42.5 45.3 42.5 C 44.8 42.5 44.4 42.6 44.2 42.8 C 44 42.9 43.8 43.2 43.7 43.7 C 43.7 43.7 42.6 43.5 42.6 43.5 C 42.7 43.1 42.9 42.7 43.1 42.5 C 43.3 42.2 43.6 42 44 41.8 C 44.4 41.7 44.9 41.6 45.5 41.6 C 46 41.6 46.4 41.7 46.7 41.8 C 47.1 41.9 47.3 42.1 47.5 42.3 C 47.6 42.5 47.7 42.7 47.8 43 C 47.8 43.2 47.9 43.5 47.9 44 C 47.9 44 47.9 45.4 47.9 45.4 C 47.9 46.4 47.9 47 47.9 47.2 C 48 47.5 48.1 47.7 48.2 48 C 48.19 47.98 47.1 48 47.1 48 C 47.1 48 47.09 47.98 47.1 48 Z M 46.8 44.9 C 46.4 45 45.8 45.1 45.1 45.3 C 44.6 45.3 44.3 45.4 44.2 45.5 C 44 45.5 43.8 45.7 43.7 45.8 C 43.6 46 43.6 46.1 43.6 46.3 C 43.6 46.6 43.7 46.8 43.9 47 C 44.1 47.2 44.4 47.3 44.8 47.3 C 45.2 47.3 45.6 47.2 45.9 47 C 46.2 46.8 46.5 46.6 46.6 46.3 C 46.7 46.1 46.8 45.7 46.8 45.2 C 46.8 45.2 46.8 44.9 46.8 44.9 Z M 50.5 48 L 49.5 48 L 49.5 39.4 L 50.5 39.4 C 50.5 39.4 50.54 42.45 50.5 42.5 C 51 41.9 51.6 41.6 52.2 41.6 C 52.6 41.6 53 41.7 53.3 41.8 C 53.7 42 54 42.2 54.2 42.5 C 54.4 42.8 54.6 43.1 54.7 43.5 C 54.8 43.9 54.9 44.3 54.9 44.8 C 54.9 45.8 54.6 46.7 54.1 47.2 C 53.6 47.8 52.9 48.1 52.2 48.1 C 51.5 48.1 50.9 47.8 50.5 47.2 C 50.47 47.2 50.5 48 50.5 48 Z M 50.5 44.8 C 50.5 45.6 50.6 46.1 50.8 46.4 C 51.1 47 51.5 47.3 52.1 47.3 C 52.6 47.3 53 47.1 53.3 46.7 C 53.6 46.3 53.8 45.7 53.8 44.9 C 53.8 44.1 53.6 43.5 53.3 43.1 C 53 42.7 52.6 42.5 52.2 42.5 C 51.7 42.5 51.3 42.7 51 43.1 C 50.6 43.5 50.5 44.1 50.5 44.8 Z M 56.1 48 L 56.1 39.4 L 57.2 39.4 L 57.2 48 L 56.1 48 Z M 63.1 46 C 63.1 46 64.2 46.1 64.2 46.1 C 64 46.7 63.7 47.2 63.2 47.6 C 62.8 47.9 62.2 48.1 61.4 48.1 C 60.5 48.1 59.8 47.8 59.3 47.3 C 58.7 46.7 58.5 45.9 58.5 44.9 C 58.5 43.9 58.8 43.1 59.3 42.5 C 59.8 41.9 60.5 41.6 61.4 41.6 C 62.2 41.6 62.9 41.9 63.4 42.5 C 64 43 64.2 43.8 64.2 44.9 C 64.2 44.9 64.2 45 64.2 45.1 C 64.2 45.1 59.6 45.1 59.6 45.1 C 59.6 45.8 59.8 46.3 60.2 46.7 C 60.5 47.1 60.9 47.3 61.5 47.3 C 61.8 47.3 62.2 47.2 62.4 46.9 C 62.7 46.7 62.9 46.4 63.1 46 Z M 59.6 44.3 C 59.6 44.3 63.1 44.3 63.1 44.3 C 63.1 43.7 62.9 43.4 62.7 43.1 C 62.4 42.7 61.9 42.5 61.4 42.5 C 60.9 42.5 60.5 42.6 60.2 43 C 59.8 43.3 59.7 43.7 59.6 44.3 Z M 73.1 48 C 73 47.8 72.9 47.5 72.9 47.2 C 72.5 47.5 72.1 47.8 71.8 47.9 C 71.4 48.1 71 48.1 70.6 48.1 C 69.9 48.1 69.4 48 69 47.6 C 68.7 47.3 68.5 46.9 68.5 46.3 C 68.5 46 68.6 45.8 68.7 45.5 C 68.8 45.3 69 45.1 69.2 44.9 C 69.5 44.7 69.7 44.6 70 44.6 C 70.2 44.5 70.5 44.4 70.9 44.4 C 71.8 44.3 72.4 44.2 72.8 44 C 72.8 43.9 72.8 43.8 72.8 43.8 C 72.8 43.3 72.7 43 72.5 42.8 C 72.3 42.6 71.9 42.5 71.3 42.5 C 70.8 42.5 70.5 42.6 70.2 42.8 C 70 42.9 69.8 43.2 69.7 43.7 C 69.7 43.7 68.7 43.5 68.7 43.5 C 68.8 43.1 68.9 42.7 69.1 42.5 C 69.3 42.2 69.7 42 70.1 41.8 C 70.5 41.7 70.9 41.6 71.5 41.6 C 72 41.6 72.4 41.7 72.8 41.8 C 73.1 41.9 73.3 42.1 73.5 42.3 C 73.7 42.5 73.8 42.7 73.8 43 C 73.9 43.2 73.9 43.5 73.9 44 C 73.9 44 73.9 45.4 73.9 45.4 C 73.9 46.4 73.9 47 73.9 47.2 C 74 47.5 74.1 47.7 74.2 48 C 74.21 47.98 73.1 48 73.1 48 C 73.1 48 73.11 47.98 73.1 48 Z M 72.8 44.9 C 72.4 45 71.9 45.1 71.1 45.3 C 70.7 45.3 70.4 45.4 70.2 45.5 C 70 45.5 69.9 45.7 69.8 45.8 C 69.7 46 69.6 46.1 69.6 46.3 C 69.6 46.6 69.7 46.8 69.9 47 C 70.1 47.2 70.5 47.3 70.9 47.3 C 71.3 47.3 71.6 47.2 71.9 47 C 72.3 46.8 72.5 46.6 72.6 46.3 C 72.8 46.1 72.8 45.7 72.8 45.2 C 72.8 45.2 72.8 44.9 72.8 44.9 Z M 75.5 48 L 75.5 41.8 L 76.5 41.8 C 76.5 41.8 76.46 42.64 76.5 42.6 C 76.9 42 77.6 41.6 78.4 41.6 C 78.8 41.6 79.2 41.7 79.5 41.8 C 79.8 42 80 42.1 80.2 42.3 C 80.3 42.6 80.5 42.8 80.5 43.1 C 80.6 43.3 80.6 43.7 80.6 44.2 C 80.57 44.15 80.6 48 80.6 48 L 79.5 48 C 79.5 48 79.52 44.19 79.5 44.2 C 79.5 43.8 79.5 43.4 79.4 43.2 C 79.3 43 79.2 42.8 79 42.7 C 78.7 42.6 78.5 42.5 78.2 42.5 C 77.8 42.5 77.4 42.7 77.1 43 C 76.7 43.2 76.6 43.8 76.6 44.6 C 76.57 44.58 76.6 48 76.6 48 L 75.5 48 Z M 86.2 48 C 86.2 48 86.23 47.19 86.2 47.2 C 85.8 47.8 85.3 48.1 84.5 48.1 C 84 48.1 83.5 48 83.1 47.7 C 82.7 47.4 82.4 47.1 82.2 46.6 C 81.9 46.1 81.8 45.5 81.8 44.9 C 81.8 44.3 81.9 43.7 82.1 43.2 C 82.3 42.7 82.6 42.3 83.1 42 C 83.5 41.8 83.9 41.6 84.4 41.6 C 84.8 41.6 85.1 41.7 85.4 41.9 C 85.7 42 86 42.2 86.2 42.5 C 86.16 42.47 86.2 39.4 86.2 39.4 L 87.2 39.4 L 87.2 48 L 86.2 48 Z M 82.9 44.9 C 82.9 45.7 83.1 46.3 83.4 46.7 C 83.7 47.1 84.1 47.3 84.6 47.3 C 85 47.3 85.4 47.1 85.8 46.7 C 86.1 46.3 86.2 45.7 86.2 45 C 86.2 44.1 86.1 43.5 85.8 43.1 C 85.4 42.7 85 42.5 84.5 42.5 C 84.1 42.5 83.7 42.7 83.4 43.1 C 83 43.4 82.9 44.1 82.9 44.9 Z M 92.2 48 L 92.2 41.8 L 93.1 41.8 C 93.1 41.8 93.13 42.7 93.1 42.7 C 93.4 42.3 93.6 42 93.8 41.8 C 94 41.7 94.2 41.6 94.5 41.6 C 94.8 41.6 95.2 41.7 95.6 42 C 95.6 42 95.2 42.9 95.2 42.9 C 94.9 42.8 94.7 42.7 94.4 42.7 C 94.2 42.7 94 42.8 93.8 42.9 C 93.6 43.1 93.5 43.2 93.4 43.5 C 93.3 43.9 93.2 44.3 93.2 44.7 C 93.24 44.72 93.2 48 93.2 48 L 92.2 48 Z M 100.5 46 C 100.5 46 101.5 46.1 101.5 46.1 C 101.4 46.7 101.1 47.2 100.6 47.6 C 100.1 47.9 99.5 48.1 98.8 48.1 C 97.9 48.1 97.2 47.8 96.6 47.3 C 96.1 46.7 95.8 45.9 95.8 44.9 C 95.8 43.9 96.1 43.1 96.7 42.5 C 97.2 41.9 97.9 41.6 98.7 41.6 C 99.6 41.6 100.3 41.9 100.8 42.5 C 101.3 43 101.6 43.8 101.6 44.9 C 101.6 44.9 101.6 45 101.6 45.1 C 101.6 45.1 96.9 45.1 96.9 45.1 C 97 45.8 97.2 46.3 97.5 46.7 C 97.9 47.1 98.3 47.3 98.8 47.3 C 99.2 47.3 99.5 47.2 99.8 46.9 C 100.1 46.7 100.3 46.4 100.5 46 Z M 97 44.3 C 97 44.3 100.5 44.3 100.5 44.3 C 100.4 43.7 100.3 43.4 100.1 43.1 C 99.7 42.7 99.3 42.5 98.8 42.5 C 98.3 42.5 97.9 42.6 97.5 43 C 97.2 43.3 97 43.7 97 44.3 Z M 102.4 46.1 C 102.4 46.1 103.5 46 103.5 46 C 103.5 46.4 103.7 46.7 104 46.9 C 104.2 47.1 104.6 47.3 105.1 47.3 C 105.6 47.3 105.9 47.2 106.2 47 C 106.4 46.8 106.5 46.5 106.5 46.3 C 106.5 46 106.4 45.8 106.2 45.7 C 106.1 45.6 105.7 45.5 105.1 45.3 C 104.4 45.1 103.8 45 103.5 44.8 C 103.2 44.7 103 44.5 102.9 44.2 C 102.7 44 102.6 43.7 102.6 43.4 C 102.6 43.1 102.7 42.9 102.8 42.6 C 102.9 42.4 103.1 42.2 103.3 42.1 C 103.5 41.9 103.7 41.8 104 41.7 C 104.3 41.7 104.6 41.6 104.9 41.6 C 105.4 41.6 105.8 41.7 106.2 41.8 C 106.6 42 106.8 42.2 107 42.4 C 107.2 42.6 107.3 43 107.4 43.4 C 107.4 43.4 106.3 43.5 106.3 43.5 C 106.3 43.2 106.2 42.9 105.9 42.8 C 105.7 42.6 105.4 42.5 105 42.5 C 104.5 42.5 104.2 42.6 104 42.7 C 103.7 42.9 103.6 43.1 103.6 43.3 C 103.6 43.4 103.7 43.5 103.8 43.7 C 103.9 43.8 104 43.9 104.2 43.9 C 104.3 44 104.6 44.1 105.1 44.2 C 105.9 44.4 106.4 44.6 106.7 44.7 C 107 44.8 107.2 45 107.4 45.2 C 107.5 45.5 107.6 45.8 107.6 46.2 C 107.6 46.5 107.5 46.8 107.3 47.1 C 107.1 47.5 106.8 47.7 106.4 47.9 C 106 48 105.6 48.1 105.1 48.1 C 104.3 48.1 103.7 48 103.3 47.6 C 102.8 47.3 102.6 46.8 102.4 46.1 Z M 108.9 50.4 L 108.9 41.8 L 109.8 41.8 C 109.8 41.8 109.83 42.57 109.8 42.6 C 110.1 42.2 110.3 42 110.6 41.9 C 110.9 41.7 111.2 41.6 111.6 41.6 C 112.2 41.6 112.6 41.8 113 42 C 113.4 42.3 113.8 42.7 114 43.2 C 114.2 43.7 114.3 44.2 114.3 44.8 C 114.3 45.5 114.2 46 113.9 46.5 C 113.7 47.1 113.4 47.4 112.9 47.7 C 112.5 48 112 48.1 111.6 48.1 C 111.2 48.1 110.9 48 110.6 47.9 C 110.3 47.7 110.1 47.6 109.9 47.3 C 109.92 47.34 109.9 50.4 109.9 50.4 L 108.9 50.4 Z M 109.8 44.9 C 109.8 45.7 110 46.3 110.3 46.7 C 110.6 47.1 111 47.3 111.5 47.3 C 112 47.3 112.4 47.1 112.7 46.7 C 113 46.3 113.2 45.6 113.2 44.8 C 113.2 44 113 43.4 112.7 43 C 112.4 42.6 112 42.4 111.5 42.4 C 111.1 42.4 110.7 42.7 110.3 43.1 C 110 43.5 109.8 44.1 109.8 44.9 Z M 115.1 44.9 C 115.1 43.7 115.5 42.9 116.1 42.3 C 116.6 41.8 117.3 41.6 118.1 41.6 C 118.9 41.6 119.6 41.9 120.2 42.5 C 120.7 43 121 43.8 121 44.8 C 121 45.6 120.9 46.2 120.6 46.7 C 120.4 47.1 120 47.5 119.6 47.7 C 119.1 48 118.6 48.1 118.1 48.1 C 117.2 48.1 116.5 47.8 116 47.3 C 115.4 46.7 115.1 45.9 115.1 44.9 Z M 116.2 44.9 C 116.2 45.7 116.4 46.3 116.8 46.7 C 117.1 47.1 117.5 47.3 118.1 47.3 C 118.6 47.3 119 47.1 119.4 46.7 C 119.7 46.3 119.9 45.6 119.9 44.8 C 119.9 44.1 119.7 43.5 119.4 43.1 C 119 42.7 118.6 42.5 118.1 42.5 C 117.5 42.5 117.1 42.7 116.8 43.1 C 116.4 43.5 116.2 44.1 116.2 44.9 Z M 122.2 48 L 122.2 41.8 L 123.2 41.8 C 123.2 41.8 123.16 42.64 123.2 42.6 C 123.6 42 124.3 41.6 125.1 41.6 C 125.5 41.6 125.9 41.7 126.2 41.8 C 126.5 42 126.7 42.1 126.9 42.3 C 127 42.6 127.2 42.8 127.2 43.1 C 127.3 43.3 127.3 43.7 127.3 44.2 C 127.27 44.15 127.3 48 127.3 48 L 126.2 48 C 126.2 48 126.22 44.19 126.2 44.2 C 126.2 43.8 126.2 43.4 126.1 43.2 C 126 43 125.9 42.8 125.7 42.7 C 125.4 42.6 125.2 42.5 124.9 42.5 C 124.5 42.5 124.1 42.7 123.8 43 C 123.4 43.2 123.3 43.8 123.3 44.6 C 123.27 44.58 123.3 48 123.3 48 L 122.2 48 Z M 128.5 46.1 C 128.5 46.1 129.5 46 129.5 46 C 129.6 46.4 129.7 46.7 130 46.9 C 130.3 47.1 130.6 47.3 131.1 47.3 C 131.6 47.3 132 47.2 132.2 47 C 132.4 46.8 132.6 46.5 132.6 46.3 C 132.6 46 132.4 45.8 132.2 45.7 C 132.1 45.6 131.7 45.5 131.2 45.3 C 130.4 45.1 129.9 45 129.6 44.8 C 129.3 44.7 129 44.5 128.9 44.2 C 128.7 44 128.6 43.7 128.6 43.4 C 128.6 43.1 128.7 42.9 128.8 42.6 C 129 42.4 129.1 42.2 129.4 42.1 C 129.5 41.9 129.7 41.8 130 41.7 C 130.3 41.7 130.6 41.6 130.9 41.6 C 131.4 41.6 131.9 41.7 132.2 41.8 C 132.6 42 132.9 42.2 133 42.4 C 133.2 42.6 133.3 43 133.4 43.4 C 133.4 43.4 132.4 43.5 132.4 43.5 C 132.3 43.2 132.2 42.9 132 42.8 C 131.7 42.6 131.4 42.5 131 42.5 C 130.5 42.5 130.2 42.6 130 42.7 C 129.8 42.9 129.7 43.1 129.7 43.3 C 129.7 43.4 129.7 43.5 129.8 43.7 C 129.9 43.8 130 43.9 130.2 43.9 C 130.3 44 130.6 44.1 131.1 44.2 C 131.9 44.4 132.4 44.6 132.7 44.7 C 133 44.8 133.2 45 133.4 45.2 C 133.6 45.5 133.6 45.8 133.6 46.2 C 133.6 46.5 133.5 46.8 133.3 47.1 C 133.1 47.5 132.8 47.7 132.4 47.9 C 132.1 48 131.6 48.1 131.1 48.1 C 130.3 48.1 129.7 48 129.3 47.6 C 128.9 47.3 128.6 46.8 128.5 46.1 Z M 134.9 40.6 L 134.9 39.4 L 135.9 39.4 L 135.9 40.6 L 134.9 40.6 Z M 134.9 48 L 134.9 41.8 L 135.9 41.8 L 135.9 48 L 134.9 48 Z M 138.5 48 L 137.5 48 L 137.5 39.4 L 138.6 39.4 C 138.6 39.4 138.6 42.45 138.6 42.5 C 139 41.9 139.6 41.6 140.3 41.6 C 140.7 41.6 141.1 41.7 141.4 41.8 C 141.7 42 142 42.2 142.2 42.5 C 142.5 42.8 142.6 43.1 142.8 43.5 C 142.9 43.9 142.9 44.3 142.9 44.8 C 142.9 45.8 142.7 46.7 142.2 47.2 C 141.6 47.8 141 48.1 140.3 48.1 C 139.5 48.1 138.9 47.8 138.5 47.2 C 138.53 47.2 138.5 48 138.5 48 Z M 138.5 44.8 C 138.5 45.6 138.6 46.1 138.8 46.4 C 139.2 47 139.6 47.3 140.2 47.3 C 140.6 47.3 141 47.1 141.4 46.7 C 141.7 46.3 141.9 45.7 141.9 44.9 C 141.9 44.1 141.7 43.5 141.4 43.1 C 141.1 42.7 140.7 42.5 140.2 42.5 C 139.8 42.5 139.4 42.7 139 43.1 C 138.7 43.5 138.5 44.1 138.5 44.8 Z M 144.2 48 L 144.2 39.4 L 145.3 39.4 L 145.3 48 L 144.2 48 Z M 151.2 46 C 151.2 46 152.2 46.1 152.2 46.1 C 152.1 46.7 151.8 47.2 151.3 47.6 C 150.8 47.9 150.2 48.1 149.5 48.1 C 148.6 48.1 147.9 47.8 147.3 47.3 C 146.8 46.7 146.5 45.9 146.5 44.9 C 146.5 43.9 146.8 43.1 147.4 42.5 C 147.9 41.9 148.6 41.6 149.4 41.6 C 150.3 41.6 151 41.9 151.5 42.5 C 152 43 152.3 43.8 152.3 44.9 C 152.3 44.9 152.3 45 152.3 45.1 C 152.3 45.1 147.6 45.1 147.6 45.1 C 147.7 45.8 147.9 46.3 148.2 46.7 C 148.6 47.1 149 47.3 149.5 47.3 C 149.9 47.3 150.2 47.2 150.5 46.9 C 150.8 46.7 151 46.4 151.2 46 Z M 147.7 44.3 C 147.7 44.3 151.2 44.3 151.2 44.3 C 151.1 43.7 151 43.4 150.8 43.1 C 150.4 42.7 150 42.5 149.5 42.5 C 149 42.5 148.6 42.6 148.2 43 C 147.9 43.3 147.7 43.7 147.7 44.3 Z M 157.2 48 L 157.2 42.6 L 156.2 42.6 L 156.2 41.8 L 157.2 41.8 C 157.2 41.8 157.15 41.1 157.2 41.1 C 157.2 40.7 157.2 40.4 157.3 40.2 C 157.4 39.9 157.5 39.7 157.8 39.5 C 158.1 39.3 158.4 39.2 158.9 39.2 C 159.2 39.2 159.5 39.3 159.9 39.3 C 159.9 39.3 159.7 40.3 159.7 40.3 C 159.5 40.2 159.3 40.2 159.1 40.2 C 158.8 40.2 158.5 40.3 158.4 40.4 C 158.3 40.6 158.2 40.8 158.2 41.2 C 158.2 41.18 158.2 41.8 158.2 41.8 L 159.4 41.8 L 159.4 42.6 L 158.2 42.6 L 158.2 48 L 157.2 48 Z M 159.8 44.9 C 159.8 43.7 160.2 42.9 160.8 42.3 C 161.3 41.8 162 41.6 162.8 41.6 C 163.6 41.6 164.3 41.9 164.9 42.5 C 165.4 43 165.7 43.8 165.7 44.8 C 165.7 45.6 165.6 46.2 165.3 46.7 C 165.1 47.1 164.7 47.5 164.3 47.7 C 163.8 48 163.3 48.1 162.8 48.1 C 161.9 48.1 161.2 47.8 160.6 47.3 C 160.1 46.7 159.8 45.9 159.8 44.9 Z M 160.9 44.9 C 160.9 45.7 161.1 46.3 161.4 46.7 C 161.8 47.1 162.2 47.3 162.8 47.3 C 163.3 47.3 163.7 47.1 164.1 46.7 C 164.4 46.3 164.6 45.6 164.6 44.8 C 164.6 44.1 164.4 43.5 164.1 43.1 C 163.7 42.7 163.3 42.5 162.8 42.5 C 162.2 42.5 161.8 42.7 161.4 43.1 C 161.1 43.5 160.9 44.1 160.9 44.9 Z M 166.9 48 L 166.9 41.8 L 167.8 41.8 C 167.8 41.8 167.85 42.7 167.8 42.7 C 168.1 42.3 168.3 42 168.5 41.8 C 168.7 41.7 168.9 41.6 169.2 41.6 C 169.6 41.6 169.9 41.7 170.3 42 C 170.3 42 169.9 42.9 169.9 42.9 C 169.7 42.8 169.4 42.7 169.1 42.7 C 168.9 42.7 168.7 42.8 168.5 42.9 C 168.3 43.1 168.2 43.2 168.1 43.5 C 168 43.9 168 44.3 168 44.7 C 167.95 44.72 168 48 168 48 L 166.9 48 Z M 178.3 48 C 178.3 48 178.28 47.19 178.3 47.2 C 177.9 47.8 177.3 48.1 176.5 48.1 C 176 48.1 175.6 48 175.2 47.7 C 174.8 47.4 174.4 47.1 174.2 46.6 C 174 46.1 173.9 45.5 173.9 44.9 C 173.9 44.3 174 43.7 174.2 43.2 C 174.4 42.7 174.7 42.3 175.1 42 C 175.5 41.8 176 41.6 176.5 41.6 C 176.9 41.6 177.2 41.7 177.5 41.9 C 177.8 42 178 42.2 178.2 42.5 C 178.21 42.47 178.2 39.4 178.2 39.4 L 179.3 39.4 L 179.3 48 L 178.3 48 Z M 174.9 44.9 C 174.9 45.7 175.1 46.3 175.4 46.7 C 175.8 47.1 176.2 47.3 176.6 47.3 C 177.1 47.3 177.5 47.1 177.8 46.7 C 178.1 46.3 178.3 45.7 178.3 45 C 178.3 44.1 178.1 43.5 177.8 43.1 C 177.5 42.7 177.1 42.5 176.6 42.5 C 176.1 42.5 175.7 42.7 175.4 43.1 C 175.1 43.4 174.9 44.1 174.9 44.9 Z M 185.2 46 C 185.2 46 186.3 46.1 186.3 46.1 C 186.1 46.7 185.8 47.2 185.3 47.6 C 184.8 47.9 184.2 48.1 183.5 48.1 C 182.6 48.1 181.9 47.8 181.4 47.3 C 180.8 46.7 180.6 45.9 180.6 44.9 C 180.6 43.9 180.8 43.1 181.4 42.5 C 181.9 41.9 182.6 41.6 183.5 41.6 C 184.3 41.6 185 41.9 185.5 42.5 C 186 43 186.3 43.8 186.3 44.9 C 186.3 44.9 186.3 45 186.3 45.1 C 186.3 45.1 181.7 45.1 181.7 45.1 C 181.7 45.8 181.9 46.3 182.2 46.7 C 182.6 47.1 183 47.3 183.5 47.3 C 183.9 47.3 184.2 47.2 184.5 46.9 C 184.8 46.7 185 46.4 185.2 46 Z M 181.7 44.3 C 181.7 44.3 185.2 44.3 185.2 44.3 C 185.1 43.7 185 43.4 184.8 43.1 C 184.5 42.7 184 42.5 183.5 42.5 C 183 42.5 182.6 42.6 182.3 43 C 181.9 43.3 181.7 43.7 181.7 44.3 Z M 187.6 48 L 187.6 39.4 L 188.6 39.4 L 188.6 48 L 187.6 48 Z M 190.3 40.6 L 190.3 39.4 L 191.3 39.4 L 191.3 40.6 L 190.3 40.6 Z M 190.3 48 L 190.3 41.8 L 191.3 41.8 L 191.3 48 L 190.3 48 Z M 194.6 48 L 192.3 41.8 L 193.4 41.8 C 193.4 41.8 194.73 45.48 194.7 45.5 C 194.9 45.9 195 46.3 195.1 46.7 C 195.2 46.4 195.4 46 195.5 45.6 C 195.52 45.55 196.9 41.8 196.9 41.8 L 198 41.8 L 195.6 48 L 194.6 48 Z M 203.2 46 C 203.2 46 204.3 46.1 204.3 46.1 C 204.1 46.7 203.8 47.2 203.3 47.6 C 202.8 47.9 202.3 48.1 201.5 48.1 C 200.6 48.1 199.9 47.8 199.4 47.3 C 198.8 46.7 198.6 45.9 198.6 44.9 C 198.6 43.9 198.8 43.1 199.4 42.5 C 199.9 41.9 200.6 41.6 201.5 41.6 C 202.3 41.6 203 41.9 203.5 42.5 C 204 43 204.3 43.8 204.3 44.9 C 204.3 44.9 204.3 45 204.3 45.1 C 204.3 45.1 199.7 45.1 199.7 45.1 C 199.7 45.8 199.9 46.3 200.2 46.7 C 200.6 47.1 201 47.3 201.5 47.3 C 201.9 47.3 202.3 47.2 202.5 46.9 C 202.8 46.7 203 46.4 203.2 46 Z M 199.7 44.3 C 199.7 44.3 203.2 44.3 203.2 44.3 C 203.1 43.7 203 43.4 202.8 43.1 C 202.5 42.7 202 42.5 201.5 42.5 C 201 42.5 200.6 42.6 200.3 43 C 199.9 43.3 199.8 43.7 199.7 44.3 Z M 205.6 48 L 205.6 41.8 L 206.5 41.8 C 206.5 41.8 206.53 42.7 206.5 42.7 C 206.8 42.3 207 42 207.2 41.8 C 207.4 41.7 207.6 41.6 207.9 41.6 C 208.2 41.6 208.6 41.7 209 42 C 209 42 208.6 42.9 208.6 42.9 C 208.3 42.8 208.1 42.7 207.8 42.7 C 207.6 42.7 207.4 42.8 207.2 42.9 C 207 43.1 206.9 43.2 206.8 43.5 C 206.7 43.9 206.6 44.3 206.6 44.7 C 206.64 44.72 206.6 48 206.6 48 L 205.6 48 Z M 209.6 40.6 L 209.6 39.4 L 210.7 39.4 L 210.7 40.6 L 209.6 40.6 Z M 209.6 48 L 209.6 41.8 L 210.7 41.8 L 210.7 48 L 209.6 48 Z M 212.3 48 L 212.3 41.8 L 213.2 41.8 C 213.2 41.8 213.21 42.64 213.2 42.6 C 213.7 42 214.3 41.6 215.2 41.6 C 215.6 41.6 215.9 41.7 216.2 41.8 C 216.5 42 216.8 42.1 216.9 42.3 C 217.1 42.6 217.2 42.8 217.3 43.1 C 217.3 43.3 217.3 43.7 217.3 44.2 C 217.31 44.15 217.3 48 217.3 48 L 216.3 48 C 216.3 48 216.26 44.19 216.3 44.2 C 216.3 43.8 216.2 43.4 216.1 43.2 C 216.1 43 215.9 42.8 215.7 42.7 C 215.5 42.6 215.2 42.5 215 42.5 C 214.5 42.5 214.1 42.7 213.8 43 C 213.5 43.2 213.3 43.8 213.3 44.6 C 213.31 44.58 213.3 48 213.3 48 L 212.3 48 Z M 218.7 48.5 C 218.7 48.5 219.8 48.6 219.8 48.6 C 219.8 49 219.9 49.2 220.1 49.3 C 220.4 49.5 220.7 49.6 221.2 49.6 C 221.7 49.6 222.1 49.5 222.3 49.3 C 222.6 49.1 222.8 48.9 222.9 48.5 C 222.9 48.3 222.9 47.9 222.9 47.2 C 222.5 47.7 221.9 48 221.2 48 C 220.4 48 219.7 47.7 219.2 47.1 C 218.8 46.4 218.5 45.7 218.5 44.8 C 218.5 44.2 218.6 43.7 218.8 43.2 C 219.1 42.7 219.4 42.3 219.8 42 C 220.2 41.8 220.7 41.6 221.2 41.6 C 222 41.6 222.6 41.9 223 42.5 C 223.04 42.51 223 41.8 223 41.8 L 224 41.8 C 224 41.8 224.01 47.14 224 47.1 C 224 48.1 223.9 48.8 223.7 49.2 C 223.5 49.6 223.2 49.9 222.8 50.2 C 222.3 50.4 221.8 50.5 221.2 50.5 C 220.5 50.5 219.9 50.3 219.4 50 C 218.9 49.7 218.7 49.2 218.7 48.5 Z M 219.6 44.8 C 219.6 45.6 219.8 46.2 220.1 46.5 C 220.4 46.9 220.8 47.1 221.3 47.1 C 221.8 47.1 222.2 46.9 222.5 46.5 C 222.9 46.2 223 45.6 223 44.8 C 223 44 222.9 43.5 222.5 43.1 C 222.2 42.7 221.8 42.5 221.3 42.5 C 220.8 42.5 220.4 42.7 220.1 43.1 C 219.8 43.4 219.6 44 219.6 44.8 Z M 233.2 48 C 233.1 47.8 233 47.5 233 47.2 C 232.6 47.5 232.2 47.8 231.9 47.9 C 231.5 48.1 231.1 48.1 230.7 48.1 C 230 48.1 229.5 48 229.1 47.6 C 228.8 47.3 228.6 46.9 228.6 46.3 C 228.6 46 228.6 45.8 228.8 45.5 C 228.9 45.3 229.1 45.1 229.3 44.9 C 229.6 44.7 229.8 44.6 230.1 44.6 C 230.3 44.5 230.6 44.4 231 44.4 C 231.9 44.3 232.5 44.2 232.9 44 C 232.9 43.9 232.9 43.8 232.9 43.8 C 232.9 43.3 232.8 43 232.6 42.8 C 232.3 42.6 231.9 42.5 231.4 42.5 C 230.9 42.5 230.6 42.6 230.3 42.8 C 230.1 42.9 229.9 43.2 229.8 43.7 C 229.8 43.7 228.8 43.5 228.8 43.5 C 228.9 43.1 229 42.7 229.2 42.5 C 229.4 42.2 229.7 42 230.2 41.8 C 230.6 41.7 231 41.6 231.6 41.6 C 232.1 41.6 232.5 41.7 232.9 41.8 C 233.2 41.9 233.4 42.1 233.6 42.3 C 233.8 42.5 233.9 42.7 233.9 43 C 234 43.2 234 43.5 234 44 C 234 44 234 45.4 234 45.4 C 234 46.4 234 47 234 47.2 C 234.1 47.5 234.2 47.7 234.3 48 C 234.31 47.98 233.2 48 233.2 48 C 233.2 48 233.21 47.98 233.2 48 Z M 232.9 44.9 C 232.5 45 232 45.1 231.2 45.3 C 230.8 45.3 230.4 45.4 230.3 45.5 C 230.1 45.5 229.9 45.7 229.9 45.8 C 229.8 46 229.7 46.1 229.7 46.3 C 229.7 46.6 229.8 46.8 230 47 C 230.2 47.2 230.5 47.3 231 47.3 C 231.4 47.3 231.7 47.2 232 47 C 232.4 46.8 232.6 46.6 232.7 46.3 C 232.9 46.1 232.9 45.7 232.9 45.2 C 232.9 45.2 232.9 44.9 232.9 44.9 Z M 235.4 48.5 C 235.4 48.5 236.4 48.6 236.4 48.6 C 236.5 49 236.6 49.2 236.8 49.3 C 237.1 49.5 237.4 49.6 237.9 49.6 C 238.4 49.6 238.7 49.5 239 49.3 C 239.3 49.1 239.4 48.9 239.5 48.5 C 239.6 48.3 239.6 47.9 239.6 47.2 C 239.2 47.7 238.6 48 237.9 48 C 237 48 236.4 47.7 235.9 47.1 C 235.4 46.4 235.2 45.7 235.2 44.8 C 235.2 44.2 235.3 43.7 235.5 43.2 C 235.7 42.7 236.1 42.3 236.5 42 C 236.9 41.8 237.4 41.6 237.9 41.6 C 238.6 41.6 239.2 41.9 239.7 42.5 C 239.72 42.51 239.7 41.8 239.7 41.8 L 240.7 41.8 C 240.7 41.8 240.69 47.14 240.7 47.1 C 240.7 48.1 240.6 48.8 240.4 49.2 C 240.2 49.6 239.9 49.9 239.5 50.2 C 239 50.4 238.5 50.5 237.9 50.5 C 237.1 50.5 236.5 50.3 236.1 50 C 235.6 49.7 235.4 49.2 235.4 48.5 Z M 236.3 44.8 C 236.3 45.6 236.5 46.2 236.8 46.5 C 237.1 46.9 237.5 47.1 238 47.1 C 238.5 47.1 238.9 46.9 239.2 46.5 C 239.5 46.2 239.7 45.6 239.7 44.8 C 239.7 44 239.5 43.5 239.2 43.1 C 238.9 42.7 238.5 42.5 238 42.5 C 237.5 42.5 237.1 42.7 236.8 43.1 C 236.5 43.4 236.3 44 236.3 44.8 Z M 246.6 48 C 246.4 47.8 246.4 47.5 246.3 47.2 C 246 47.5 245.6 47.8 245.2 47.9 C 244.9 48.1 244.5 48.1 244.1 48.1 C 243.4 48.1 242.8 48 242.5 47.6 C 242.1 47.3 241.9 46.9 241.9 46.3 C 241.9 46 242 45.8 242.1 45.5 C 242.3 45.3 242.5 45.1 242.7 44.9 C 242.9 44.7 243.2 44.6 243.4 44.6 C 243.6 44.5 244 44.4 244.4 44.4 C 245.2 44.3 245.9 44.2 246.3 44 C 246.3 43.9 246.3 43.8 246.3 43.8 C 246.3 43.3 246.2 43 246 42.8 C 245.7 42.6 245.3 42.5 244.8 42.5 C 244.3 42.5 243.9 42.6 243.7 42.8 C 243.4 42.9 243.3 43.2 243.1 43.7 C 243.1 43.7 242.1 43.5 242.1 43.5 C 242.2 43.1 242.4 42.7 242.6 42.5 C 242.8 42.2 243.1 42 243.5 41.8 C 243.9 41.7 244.4 41.6 244.9 41.6 C 245.4 41.6 245.9 41.7 246.2 41.8 C 246.5 41.9 246.8 42.1 246.9 42.3 C 247.1 42.5 247.2 42.7 247.3 43 C 247.3 43.2 247.3 43.5 247.3 44 C 247.3 44 247.3 45.4 247.3 45.4 C 247.3 46.4 247.3 47 247.4 47.2 C 247.4 47.5 247.5 47.7 247.7 48 C 247.66 47.98 246.6 48 246.6 48 C 246.6 48 246.56 47.98 246.6 48 Z M 246.3 44.9 C 245.9 45 245.3 45.1 244.5 45.3 C 244.1 45.3 243.8 45.4 243.6 45.5 C 243.4 45.5 243.3 45.7 243.2 45.8 C 243.1 46 243.1 46.1 243.1 46.3 C 243.1 46.6 243.2 46.8 243.4 47 C 243.6 47.2 243.9 47.3 244.3 47.3 C 244.7 47.3 245.1 47.2 245.4 47 C 245.7 46.8 245.9 46.6 246.1 46.3 C 246.2 46.1 246.3 45.7 246.3 45.2 C 246.3 45.2 246.3 44.9 246.3 44.9 Z M 249 40.6 L 249 39.4 L 250 39.4 L 250 40.6 L 249 40.6 Z M 249 48 L 249 41.8 L 250 41.8 L 250 48 L 249 48 Z M 251.6 48 L 251.6 41.8 L 252.6 41.8 C 252.6 41.8 252.57 42.64 252.6 42.6 C 253 42 253.7 41.6 254.6 41.6 C 254.9 41.6 255.3 41.7 255.6 41.8 C 255.9 42 256.1 42.1 256.3 42.3 C 256.5 42.6 256.6 42.8 256.6 43.1 C 256.7 43.3 256.7 43.7 256.7 44.2 C 256.68 44.15 256.7 48 256.7 48 L 255.6 48 C 255.6 48 255.63 44.19 255.6 44.2 C 255.6 43.8 255.6 43.4 255.5 43.2 C 255.4 43 255.3 42.8 255.1 42.7 C 254.9 42.6 254.6 42.5 254.3 42.5 C 253.9 42.5 253.5 42.7 253.2 43 C 252.8 43.2 252.7 43.8 252.7 44.6 C 252.68 44.58 252.7 48 252.7 48 L 251.6 48 Z M 257.9 46.1 C 257.9 46.1 258.9 46 258.9 46 C 259 46.4 259.1 46.7 259.4 46.9 C 259.7 47.1 260.1 47.3 260.5 47.3 C 261 47.3 261.4 47.2 261.6 47 C 261.8 46.8 262 46.5 262 46.3 C 262 46 261.9 45.8 261.7 45.7 C 261.5 45.6 261.1 45.5 260.6 45.3 C 259.8 45.1 259.3 45 259 44.8 C 258.7 44.7 258.4 44.5 258.3 44.2 C 258.1 44 258.1 43.7 258.1 43.4 C 258.1 43.1 258.1 42.9 258.2 42.6 C 258.4 42.4 258.5 42.2 258.8 42.1 C 258.9 41.9 259.1 41.8 259.4 41.7 C 259.7 41.7 260 41.6 260.3 41.6 C 260.8 41.6 261.3 41.7 261.6 41.8 C 262 42 262.3 42.2 262.4 42.4 C 262.6 42.6 262.7 43 262.8 43.4 C 262.8 43.4 261.8 43.5 261.8 43.5 C 261.7 43.2 261.6 42.9 261.4 42.8 C 261.1 42.6 260.8 42.5 260.4 42.5 C 259.9 42.5 259.6 42.6 259.4 42.7 C 259.2 42.9 259.1 43.1 259.1 43.3 C 259.1 43.4 259.1 43.5 259.2 43.7 C 259.3 43.8 259.4 43.9 259.6 43.9 C 259.7 44 260 44.1 260.5 44.2 C 261.3 44.4 261.8 44.6 262.1 44.7 C 262.4 44.8 262.6 45 262.8 45.2 C 263 45.5 263 45.8 263 46.2 C 263 46.5 262.9 46.8 262.7 47.1 C 262.5 47.5 262.2 47.7 261.8 47.9 C 261.5 48 261 48.1 260.5 48.1 C 259.7 48.1 259.1 48 258.7 47.6 C 258.3 47.3 258 46.8 257.9 46.1 Z M 266.1 47.1 C 266.3 47.1 266.4 47.1 266.6 47 C 266.6 47 266.8 48 266.8 48 C 266.5 48 266.2 48.1 266 48.1 C 265.6 48.1 265.3 48 265.1 47.9 C 264.9 47.8 264.7 47.6 264.6 47.4 C 264.5 47.2 264.5 46.8 264.5 46.2 C 264.49 46.16 264.5 42.6 264.5 42.6 L 263.7 42.6 L 263.7 41.8 L 264.5 41.8 L 264.5 40.2 L 265.5 39.6 L 265.5 41.8 L 266.6 41.8 L 266.6 42.6 L 265.5 42.6 C 265.5 42.6 265.54 46.22 265.5 46.2 C 265.5 46.5 265.6 46.7 265.6 46.8 C 265.6 46.9 265.7 47 265.8 47 C 265.9 47.1 266 47.1 266.1 47.1 C 266.1 47.1 266.1 47.1 266.1 47.1 Z " stroke="none" fill="#ffffff"/>  </g>  <g id="Polygon44353">    <path d="M 0.9 33.6 L 0.9 25 L 2.1 25 L 6.6 31.7 L 6.6 25 L 7.7 25 L 7.7 33.6 L 6.5 33.6 L 2 26.8 L 2 33.6 L 0.9 33.6 Z M 9.1 30.5 C 9.1 29.3 9.4 28.5 10 27.9 C 10.6 27.4 11.2 27.2 12 27.2 C 12.8 27.2 13.5 27.5 14.1 28.1 C 14.6 28.6 14.9 29.4 14.9 30.4 C 14.9 31.2 14.8 31.8 14.5 32.3 C 14.3 32.7 13.9 33.1 13.5 33.3 C 13 33.6 12.5 33.7 12 33.7 C 11.1 33.7 10.4 33.4 9.9 32.9 C 9.3 32.3 9.1 31.5 9.1 30.5 Z M 10.1 30.5 C 10.1 31.3 10.3 31.9 10.7 32.3 C 11 32.7 11.5 32.9 12 32.9 C 12.5 32.9 12.9 32.7 13.3 32.3 C 13.6 31.9 13.8 31.2 13.8 30.4 C 13.8 29.7 13.6 29.1 13.3 28.7 C 12.9 28.3 12.5 28.1 12 28.1 C 11.5 28.1 11 28.3 10.7 28.7 C 10.3 29.1 10.1 29.7 10.1 30.5 Z M 19.5 33.6 L 19.5 27.4 L 20.4 27.4 C 20.4 27.4 20.4 28.3 20.4 28.3 C 20.6 27.9 20.9 27.6 21.1 27.4 C 21.3 27.3 21.5 27.2 21.8 27.2 C 22.1 27.2 22.5 27.3 22.8 27.6 C 22.8 27.6 22.5 28.5 22.5 28.5 C 22.2 28.4 22 28.3 21.7 28.3 C 21.5 28.3 21.3 28.4 21.1 28.5 C 20.9 28.7 20.8 28.8 20.7 29.1 C 20.6 29.5 20.5 29.9 20.5 30.3 C 20.51 30.32 20.5 33.6 20.5 33.6 L 19.5 33.6 Z M 27.7 31.6 C 27.7 31.6 28.8 31.7 28.8 31.7 C 28.6 32.3 28.3 32.8 27.9 33.2 C 27.4 33.5 26.8 33.7 26.1 33.7 C 25.2 33.7 24.4 33.4 23.9 32.9 C 23.4 32.3 23.1 31.5 23.1 30.5 C 23.1 29.5 23.4 28.7 23.9 28.1 C 24.5 27.5 25.2 27.2 26 27.2 C 26.8 27.2 27.5 27.5 28.1 28.1 C 28.6 28.6 28.8 29.4 28.8 30.5 C 28.8 30.5 28.8 30.6 28.8 30.7 C 28.8 30.7 24.2 30.7 24.2 30.7 C 24.2 31.4 24.4 31.9 24.8 32.3 C 25.1 32.7 25.6 32.9 26.1 32.9 C 26.5 32.9 26.8 32.8 27.1 32.5 C 27.3 32.3 27.6 32 27.7 31.6 Z M 24.3 29.9 C 24.3 29.9 27.7 29.9 27.7 29.9 C 27.7 29.3 27.6 29 27.3 28.7 C 27 28.3 26.6 28.1 26 28.1 C 25.5 28.1 25.1 28.2 24.8 28.6 C 24.5 28.9 24.3 29.3 24.3 29.9 Z M 34.2 33.6 C 34.2 33.6 34.17 32.79 34.2 32.8 C 33.8 33.4 33.2 33.7 32.4 33.7 C 31.9 33.7 31.5 33.6 31.1 33.3 C 30.6 33 30.3 32.7 30.1 32.2 C 29.9 31.7 29.8 31.1 29.8 30.5 C 29.8 29.9 29.9 29.3 30.1 28.8 C 30.3 28.3 30.6 27.9 31 27.6 C 31.4 27.4 31.9 27.2 32.4 27.2 C 32.8 27.2 33.1 27.3 33.4 27.5 C 33.7 27.6 33.9 27.8 34.1 28.1 C 34.1 28.07 34.1 25 34.1 25 L 35.2 25 L 35.2 33.6 L 34.2 33.6 Z M 30.8 30.5 C 30.8 31.3 31 31.9 31.3 32.3 C 31.7 32.7 32.1 32.9 32.5 32.9 C 33 32.9 33.4 32.7 33.7 32.3 C 34 31.9 34.2 31.3 34.2 30.6 C 34.2 29.7 34 29.1 33.7 28.7 C 33.4 28.3 33 28.1 32.5 28.1 C 32 28.1 31.6 28.3 31.3 28.7 C 31 29 30.8 29.7 30.8 30.5 Z M 42 32.7 C 42.1 32.7 42.3 32.7 42.4 32.6 C 42.4 32.6 42.6 33.6 42.6 33.6 C 42.3 33.6 42 33.7 41.8 33.7 C 41.4 33.7 41.1 33.6 40.9 33.5 C 40.7 33.4 40.6 33.2 40.5 33 C 40.4 32.8 40.3 32.4 40.3 31.8 C 40.34 31.76 40.3 28.2 40.3 28.2 L 39.6 28.2 L 39.6 27.4 L 40.3 27.4 L 40.3 25.8 L 41.4 25.2 L 41.4 27.4 L 42.4 27.4 L 42.4 28.2 L 41.4 28.2 C 41.4 28.2 41.38 31.82 41.4 31.8 C 41.4 32.1 41.4 32.3 41.4 32.4 C 41.5 32.5 41.5 32.6 41.6 32.6 C 41.7 32.7 41.8 32.7 42 32.7 C 42 32.7 42 32.7 42 32.7 Z M 47.7 33.6 C 47.6 33.4 47.6 33.1 47.5 32.8 C 47.1 33.1 46.8 33.4 46.4 33.5 C 46 33.7 45.7 33.7 45.2 33.7 C 44.6 33.7 44 33.6 43.7 33.2 C 43.3 32.9 43.1 32.5 43.1 31.9 C 43.1 31.6 43.2 31.4 43.3 31.1 C 43.5 30.9 43.6 30.7 43.9 30.5 C 44.1 30.3 44.3 30.2 44.6 30.2 C 44.8 30.1 45.2 30 45.6 30 C 46.4 29.9 47 29.8 47.4 29.6 C 47.5 29.5 47.5 29.4 47.5 29.4 C 47.5 28.9 47.4 28.6 47.2 28.4 C 46.9 28.2 46.5 28.1 46 28.1 C 45.5 28.1 45.1 28.2 44.9 28.4 C 44.6 28.5 44.4 28.8 44.3 29.3 C 44.3 29.3 43.3 29.1 43.3 29.1 C 43.4 28.7 43.5 28.3 43.8 28.1 C 44 27.8 44.3 27.6 44.7 27.4 C 45.1 27.3 45.6 27.2 46.1 27.2 C 46.6 27.2 47.1 27.3 47.4 27.4 C 47.7 27.5 48 27.7 48.1 27.9 C 48.3 28.1 48.4 28.3 48.5 28.6 C 48.5 28.8 48.5 29.1 48.5 29.6 C 48.5 29.6 48.5 31 48.5 31 C 48.5 32 48.5 32.6 48.6 32.8 C 48.6 33.1 48.7 33.3 48.8 33.6 C 48.85 33.58 47.7 33.6 47.7 33.6 C 47.7 33.6 47.75 33.58 47.7 33.6 Z M 47.4 30.5 C 47.1 30.6 46.5 30.7 45.7 30.9 C 45.3 30.9 45 31 44.8 31.1 C 44.6 31.1 44.5 31.3 44.4 31.4 C 44.3 31.6 44.2 31.7 44.2 31.9 C 44.2 32.2 44.4 32.4 44.6 32.6 C 44.8 32.8 45.1 32.9 45.5 32.9 C 45.9 32.9 46.3 32.8 46.6 32.6 C 46.9 32.4 47.1 32.2 47.3 31.9 C 47.4 31.7 47.4 31.3 47.4 30.8 C 47.4 30.8 47.4 30.5 47.4 30.5 Z M 50.2 36 L 50.2 27.4 L 51.1 27.4 C 51.1 27.4 51.11 28.17 51.1 28.2 C 51.3 27.8 51.6 27.6 51.9 27.5 C 52.2 27.3 52.5 27.2 52.9 27.2 C 53.4 27.2 53.9 27.4 54.3 27.6 C 54.7 27.9 55 28.3 55.2 28.8 C 55.4 29.3 55.6 29.8 55.6 30.4 C 55.6 31.1 55.4 31.6 55.2 32.1 C 55 32.7 54.6 33 54.2 33.3 C 53.8 33.6 53.3 33.7 52.8 33.7 C 52.5 33.7 52.2 33.6 51.9 33.5 C 51.6 33.3 51.4 33.2 51.2 32.9 C 51.21 32.94 51.2 36 51.2 36 L 50.2 36 Z M 51.1 30.5 C 51.1 31.3 51.3 31.9 51.6 32.3 C 51.9 32.7 52.3 32.9 52.8 32.9 C 53.2 32.9 53.6 32.7 54 32.3 C 54.3 31.9 54.5 31.2 54.5 30.4 C 54.5 29.6 54.3 29 54 28.6 C 53.7 28.2 53.3 28 52.8 28 C 52.4 28 52 28.3 51.6 28.7 C 51.3 29.1 51.1 29.7 51.1 30.5 Z M 61.1 31.6 C 61.1 31.6 62.2 31.7 62.2 31.7 C 62 32.3 61.7 32.8 61.2 33.2 C 60.8 33.5 60.2 33.7 59.4 33.7 C 58.5 33.7 57.8 33.4 57.3 32.9 C 56.7 32.3 56.5 31.5 56.5 30.5 C 56.5 29.5 56.7 28.7 57.3 28.1 C 57.8 27.5 58.5 27.2 59.4 27.2 C 60.2 27.2 60.9 27.5 61.4 28.1 C 61.9 28.6 62.2 29.4 62.2 30.5 C 62.2 30.5 62.2 30.6 62.2 30.7 C 62.2 30.7 57.6 30.7 57.6 30.7 C 57.6 31.4 57.8 31.9 58.1 32.3 C 58.5 32.7 58.9 32.9 59.4 32.9 C 59.8 32.9 60.2 32.8 60.4 32.5 C 60.7 32.3 60.9 32 61.1 31.6 Z M 57.6 29.9 C 57.6 29.9 61.1 29.9 61.1 29.9 C 61 29.3 60.9 29 60.7 28.7 C 60.4 28.3 59.9 28.1 59.4 28.1 C 58.9 28.1 58.5 28.2 58.2 28.6 C 57.8 28.9 57.7 29.3 57.6 29.9 Z M 63.8 33.6 L 63.8 32.4 L 65 32.4 C 65 32.4 64.97 33.58 65 33.6 C 65 34 64.9 34.4 64.7 34.6 C 64.6 34.9 64.3 35.1 64 35.3 C 64 35.3 63.7 34.8 63.7 34.8 C 63.9 34.7 64.1 34.6 64.2 34.4 C 64.3 34.2 64.4 33.9 64.4 33.6 C 64.37 33.58 63.8 33.6 63.8 33.6 Z M 70.2 33.6 L 70.2 27.4 L 71.1 27.4 C 71.1 27.4 71.12 28.24 71.1 28.2 C 71.6 27.6 72.2 27.2 73.1 27.2 C 73.5 27.2 73.8 27.3 74.1 27.4 C 74.4 27.6 74.7 27.7 74.8 27.9 C 75 28.2 75.1 28.4 75.2 28.7 C 75.2 28.9 75.2 29.3 75.2 29.8 C 75.22 29.75 75.2 33.6 75.2 33.6 L 74.2 33.6 C 74.2 33.6 74.17 29.79 74.2 29.8 C 74.2 29.4 74.1 29 74 28.8 C 74 28.6 73.8 28.4 73.6 28.3 C 73.4 28.2 73.2 28.1 72.9 28.1 C 72.4 28.1 72 28.3 71.7 28.6 C 71.4 28.8 71.2 29.4 71.2 30.2 C 71.22 30.18 71.2 33.6 71.2 33.6 L 70.2 33.6 Z M 76.4 30.5 C 76.4 29.3 76.8 28.5 77.4 27.9 C 77.9 27.4 78.6 27.2 79.4 27.2 C 80.2 27.2 80.9 27.5 81.5 28.1 C 82 28.6 82.3 29.4 82.3 30.4 C 82.3 31.2 82.2 31.8 81.9 32.3 C 81.7 32.7 81.3 33.1 80.9 33.3 C 80.4 33.6 79.9 33.7 79.4 33.7 C 78.5 33.7 77.8 33.4 77.3 32.9 C 76.7 32.3 76.4 31.5 76.4 30.5 Z M 77.5 30.5 C 77.5 31.3 77.7 31.9 78.1 32.3 C 78.4 32.7 78.8 32.9 79.4 32.9 C 79.9 32.9 80.3 32.7 80.7 32.3 C 81 31.9 81.2 31.2 81.2 30.4 C 81.2 29.7 81 29.1 80.7 28.7 C 80.3 28.3 79.9 28.1 79.4 28.1 C 78.8 28.1 78.4 28.3 78.1 28.7 C 77.7 29.1 77.5 29.7 77.5 30.5 Z M 83.5 33.6 L 83.5 27.4 L 84.5 27.4 C 84.5 27.4 84.46 28.24 84.5 28.2 C 84.9 27.6 85.6 27.2 86.4 27.2 C 86.8 27.2 87.2 27.3 87.5 27.4 C 87.8 27.6 88 27.7 88.2 27.9 C 88.3 28.2 88.4 28.4 88.5 28.7 C 88.6 28.9 88.6 29.3 88.6 29.8 C 88.57 29.75 88.6 33.6 88.6 33.6 L 87.5 33.6 C 87.5 33.6 87.52 29.79 87.5 29.8 C 87.5 29.4 87.5 29 87.4 28.8 C 87.3 28.6 87.2 28.4 87 28.3 C 86.7 28.2 86.5 28.1 86.2 28.1 C 85.8 28.1 85.4 28.3 85.1 28.6 C 84.7 28.8 84.6 29.4 84.6 30.2 C 84.57 30.18 84.6 33.6 84.6 33.6 L 83.5 33.6 Z M 89.8 31 L 89.8 29.9 L 93 29.9 L 93 31 L 89.8 31 Z M 95.2 33.6 L 94.2 33.6 L 94.2 25 L 95.2 25 C 95.2 25 95.23 28.05 95.2 28.1 C 95.7 27.5 96.2 27.2 96.9 27.2 C 97.3 27.2 97.7 27.3 98 27.4 C 98.4 27.6 98.6 27.8 98.9 28.1 C 99.1 28.4 99.3 28.7 99.4 29.1 C 99.5 29.5 99.6 29.9 99.6 30.4 C 99.6 31.4 99.3 32.3 98.8 32.8 C 98.3 33.4 97.6 33.7 96.9 33.7 C 96.2 33.7 95.6 33.4 95.2 32.8 C 95.16 32.8 95.2 33.6 95.2 33.6 Z M 95.1 30.4 C 95.1 31.2 95.2 31.7 95.4 32 C 95.8 32.6 96.2 32.9 96.8 32.9 C 97.3 32.9 97.7 32.7 98 32.3 C 98.3 31.9 98.5 31.3 98.5 30.5 C 98.5 29.7 98.3 29.1 98 28.7 C 97.7 28.3 97.3 28.1 96.8 28.1 C 96.4 28.1 96 28.3 95.6 28.7 C 95.3 29.1 95.1 29.7 95.1 30.4 Z M 104.9 33.6 C 104.9 33.6 104.94 32.67 104.9 32.7 C 104.5 33.4 103.8 33.7 103 33.7 C 102.6 33.7 102.3 33.7 101.9 33.5 C 101.6 33.4 101.4 33.2 101.2 33 C 101.1 32.8 101 32.5 100.9 32.2 C 100.9 32 100.8 31.7 100.8 31.2 C 100.83 31.21 100.8 27.4 100.8 27.4 L 101.9 27.4 C 101.9 27.4 101.89 30.81 101.9 30.8 C 101.9 31.4 101.9 31.7 102 31.9 C 102 32.2 102.2 32.4 102.4 32.6 C 102.6 32.7 102.9 32.8 103.2 32.8 C 103.5 32.8 103.8 32.7 104.1 32.6 C 104.3 32.4 104.5 32.2 104.7 31.9 C 104.8 31.6 104.8 31.2 104.8 30.7 C 104.82 30.69 104.8 27.4 104.8 27.4 L 105.9 27.4 L 105.9 33.6 L 104.9 33.6 Z M 107.5 33.6 L 107.5 27.4 L 108.5 27.4 C 108.5 27.4 108.47 28.3 108.5 28.3 C 108.7 27.9 108.9 27.6 109.1 27.4 C 109.3 27.3 109.6 27.2 109.8 27.2 C 110.2 27.2 110.5 27.3 110.9 27.6 C 110.9 27.6 110.5 28.5 110.5 28.5 C 110.3 28.4 110 28.3 109.8 28.3 C 109.5 28.3 109.3 28.4 109.1 28.5 C 109 28.7 108.8 28.8 108.8 29.1 C 108.6 29.5 108.6 29.9 108.6 30.3 C 108.57 30.32 108.6 33.6 108.6 33.6 L 107.5 33.6 Z M 115.8 31.6 C 115.8 31.6 116.9 31.7 116.9 31.7 C 116.7 32.3 116.4 32.8 115.9 33.2 C 115.5 33.5 114.9 33.7 114.1 33.7 C 113.2 33.7 112.5 33.4 112 32.9 C 111.4 32.3 111.2 31.5 111.2 30.5 C 111.2 29.5 111.4 28.7 112 28.1 C 112.5 27.5 113.2 27.2 114.1 27.2 C 114.9 27.2 115.6 27.5 116.1 28.1 C 116.6 28.6 116.9 29.4 116.9 30.5 C 116.9 30.5 116.9 30.6 116.9 30.7 C 116.9 30.7 112.3 30.7 112.3 30.7 C 112.3 31.4 112.5 31.9 112.8 32.3 C 113.2 32.7 113.6 32.9 114.1 32.9 C 114.5 32.9 114.9 32.8 115.1 32.5 C 115.4 32.3 115.6 32 115.8 31.6 Z M 112.3 29.9 C 112.3 29.9 115.8 29.9 115.8 29.9 C 115.8 29.3 115.6 29 115.4 28.7 C 115.1 28.3 114.6 28.1 114.1 28.1 C 113.6 28.1 113.2 28.2 112.9 28.6 C 112.5 28.9 112.4 29.3 112.3 29.9 Z M 122.5 33.6 C 122.4 33.4 122.3 33.1 122.3 32.8 C 121.9 33.1 121.5 33.4 121.1 33.5 C 120.8 33.7 120.4 33.7 120 33.7 C 119.3 33.7 118.8 33.6 118.4 33.2 C 118 32.9 117.8 32.5 117.8 31.9 C 117.8 31.6 117.9 31.4 118.1 31.1 C 118.2 30.9 118.4 30.7 118.6 30.5 C 118.8 30.3 119.1 30.2 119.4 30.2 C 119.6 30.1 119.9 30 120.3 30 C 121.1 29.9 121.8 29.8 122.2 29.6 C 122.2 29.5 122.2 29.4 122.2 29.4 C 122.2 28.9 122.1 28.6 121.9 28.4 C 121.6 28.2 121.2 28.1 120.7 28.1 C 120.2 28.1 119.8 28.2 119.6 28.4 C 119.3 28.5 119.2 28.8 119.1 29.3 C 119.1 29.3 118 29.1 118 29.1 C 118.1 28.7 118.3 28.3 118.5 28.1 C 118.7 27.8 119 27.6 119.4 27.4 C 119.8 27.3 120.3 27.2 120.8 27.2 C 121.4 27.2 121.8 27.3 122.1 27.4 C 122.5 27.5 122.7 27.7 122.9 27.9 C 123 28.1 123.1 28.3 123.2 28.6 C 123.2 28.8 123.2 29.1 123.2 29.6 C 123.2 29.6 123.2 31 123.2 31 C 123.2 32 123.3 32.6 123.3 32.8 C 123.4 33.1 123.4 33.3 123.6 33.6 C 123.57 33.58 122.5 33.6 122.5 33.6 C 122.5 33.6 122.47 33.58 122.5 33.6 Z M 122.2 30.5 C 121.8 30.6 121.2 30.7 120.5 30.9 C 120 30.9 119.7 31 119.5 31.1 C 119.4 31.1 119.2 31.3 119.1 31.4 C 119 31.6 119 31.7 119 31.9 C 119 32.2 119.1 32.4 119.3 32.6 C 119.5 32.8 119.8 32.9 120.2 32.9 C 120.6 32.9 121 32.8 121.3 32.6 C 121.6 32.4 121.9 32.2 122 31.9 C 122.1 31.7 122.2 31.3 122.2 30.8 C 122.2 30.8 122.2 30.5 122.2 30.5 Z M 129 33.6 C 129 33.6 128.95 32.67 129 32.7 C 128.5 33.4 127.8 33.7 127 33.7 C 126.6 33.7 126.3 33.7 126 33.5 C 125.6 33.4 125.4 33.2 125.2 33 C 125.1 32.8 125 32.5 124.9 32.2 C 124.9 32 124.9 31.7 124.9 31.2 C 124.85 31.21 124.9 27.4 124.9 27.4 L 125.9 27.4 C 125.9 27.4 125.91 30.81 125.9 30.8 C 125.9 31.4 125.9 31.7 126 31.9 C 126 32.2 126.2 32.4 126.4 32.6 C 126.6 32.7 126.9 32.8 127.2 32.8 C 127.5 32.8 127.8 32.7 128.1 32.6 C 128.4 32.4 128.6 32.2 128.7 31.9 C 128.8 31.6 128.8 31.2 128.8 30.7 C 128.84 30.69 128.8 27.4 128.8 27.4 L 129.9 27.4 L 129.9 33.6 L 129 33.6 Z M 135.6 31.3 C 135.6 31.3 136.6 31.4 136.6 31.4 C 136.5 32.2 136.2 32.7 135.8 33.1 C 135.3 33.5 134.7 33.7 134.1 33.7 C 133.2 33.7 132.5 33.4 132 32.9 C 131.5 32.3 131.2 31.5 131.2 30.5 C 131.2 29.8 131.3 29.2 131.6 28.7 C 131.8 28.2 132.1 27.8 132.6 27.6 C 133 27.3 133.5 27.2 134.1 27.2 C 134.7 27.2 135.3 27.4 135.7 27.7 C 136.2 28.1 136.4 28.6 136.5 29.2 C 136.5 29.2 135.5 29.3 135.5 29.3 C 135.4 28.9 135.3 28.6 135 28.4 C 134.8 28.2 134.5 28.1 134.1 28.1 C 133.6 28.1 133.1 28.3 132.8 28.7 C 132.5 29 132.3 29.6 132.3 30.5 C 132.3 31.3 132.5 31.9 132.8 32.3 C 133.1 32.7 133.5 32.9 134 32.9 C 134.5 32.9 134.8 32.7 135.1 32.5 C 135.4 32.2 135.5 31.8 135.6 31.3 Z M 137.5 33.6 L 137.5 27.4 L 138.5 27.4 C 138.5 27.4 138.49 28.3 138.5 28.3 C 138.7 27.9 139 27.6 139.2 27.4 C 139.4 27.3 139.6 27.2 139.8 27.2 C 140.2 27.2 140.6 27.3 140.9 27.6 C 140.9 27.6 140.6 28.5 140.6 28.5 C 140.3 28.4 140 28.3 139.8 28.3 C 139.6 28.3 139.3 28.4 139.2 28.5 C 139 28.7 138.8 28.8 138.8 29.1 C 138.7 29.5 138.6 29.9 138.6 30.3 C 138.59 30.32 138.6 33.6 138.6 33.6 L 137.5 33.6 Z M 145.8 33.6 C 145.7 33.4 145.6 33.1 145.6 32.8 C 145.2 33.1 144.8 33.4 144.5 33.5 C 144.1 33.7 143.7 33.7 143.3 33.7 C 142.6 33.7 142.1 33.6 141.7 33.2 C 141.4 32.9 141.2 32.5 141.2 31.9 C 141.2 31.6 141.3 31.4 141.4 31.1 C 141.5 30.9 141.7 30.7 141.9 30.5 C 142.2 30.3 142.4 30.2 142.7 30.2 C 142.9 30.1 143.2 30 143.6 30 C 144.5 29.9 145.1 29.8 145.5 29.6 C 145.5 29.5 145.5 29.4 145.5 29.4 C 145.5 28.9 145.4 28.6 145.2 28.4 C 145 28.2 144.6 28.1 144 28.1 C 143.5 28.1 143.2 28.2 142.9 28.4 C 142.7 28.5 142.5 28.8 142.4 29.3 C 142.4 29.3 141.4 29.1 141.4 29.1 C 141.5 28.7 141.6 28.3 141.8 28.1 C 142 27.8 142.4 27.6 142.8 27.4 C 143.2 27.3 143.6 27.2 144.2 27.2 C 144.7 27.2 145.1 27.3 145.5 27.4 C 145.8 27.5 146 27.7 146.2 27.9 C 146.4 28.1 146.5 28.3 146.5 28.6 C 146.6 28.8 146.6 29.1 146.6 29.6 C 146.6 29.6 146.6 31 146.6 31 C 146.6 32 146.6 32.6 146.7 32.8 C 146.7 33.1 146.8 33.3 146.9 33.6 C 146.92 33.58 145.8 33.6 145.8 33.6 C 145.8 33.6 145.82 33.58 145.8 33.6 Z M 145.5 30.5 C 145.1 30.6 144.6 30.7 143.8 30.9 C 143.4 30.9 143.1 31 142.9 31.1 C 142.7 31.1 142.6 31.3 142.5 31.4 C 142.4 31.6 142.3 31.7 142.3 31.9 C 142.3 32.2 142.4 32.4 142.6 32.6 C 142.8 32.8 143.2 32.9 143.6 32.9 C 144 32.9 144.3 32.8 144.7 32.6 C 145 32.4 145.2 32.2 145.3 31.9 C 145.5 31.7 145.5 31.3 145.5 30.8 C 145.5 30.8 145.5 30.5 145.5 30.5 Z M 150.1 32.7 C 150.2 32.7 150.3 32.7 150.5 32.6 C 150.5 32.6 150.7 33.6 150.7 33.6 C 150.4 33.6 150.1 33.7 149.9 33.7 C 149.5 33.7 149.2 33.6 149 33.5 C 148.8 33.4 148.6 33.2 148.5 33 C 148.5 32.8 148.4 32.4 148.4 31.8 C 148.41 31.76 148.4 28.2 148.4 28.2 L 147.6 28.2 L 147.6 27.4 L 148.4 27.4 L 148.4 25.8 L 149.5 25.2 L 149.5 27.4 L 150.5 27.4 L 150.5 28.2 L 149.5 28.2 C 149.5 28.2 149.46 31.82 149.5 31.8 C 149.5 32.1 149.5 32.3 149.5 32.4 C 149.6 32.5 149.6 32.6 149.7 32.6 C 149.8 32.7 149.9 32.7 150.1 32.7 C 150.1 32.7 150.1 32.7 150.1 32.7 Z M 151.6 26.2 L 151.6 25 L 152.6 25 L 152.6 26.2 L 151.6 26.2 Z M 151.6 33.6 L 151.6 27.4 L 152.6 27.4 L 152.6 33.6 L 151.6 33.6 Z M 158.3 31.3 C 158.3 31.3 159.3 31.4 159.3 31.4 C 159.2 32.2 158.9 32.7 158.4 33.1 C 158 33.5 157.4 33.7 156.7 33.7 C 155.9 33.7 155.2 33.4 154.7 32.9 C 154.2 32.3 153.9 31.5 153.9 30.5 C 153.9 29.8 154 29.2 154.2 28.7 C 154.5 28.2 154.8 27.8 155.2 27.6 C 155.7 27.3 156.2 27.2 156.7 27.2 C 157.4 27.2 158 27.4 158.4 27.7 C 158.8 28.1 159.1 28.6 159.2 29.2 C 159.2 29.2 158.2 29.3 158.2 29.3 C 158.1 28.9 157.9 28.6 157.7 28.4 C 157.4 28.2 157.1 28.1 156.8 28.1 C 156.2 28.1 155.8 28.3 155.5 28.7 C 155.1 29 155 29.6 155 30.5 C 155 31.3 155.1 31.9 155.5 32.3 C 155.8 32.7 156.2 32.9 156.7 32.9 C 157.1 32.9 157.5 32.7 157.8 32.5 C 158 32.2 158.2 31.8 158.3 31.3 Z M 160.5 33.6 L 160.5 32.4 L 161.7 32.4 C 161.7 32.4 161.7 33.58 161.7 33.6 C 161.7 34 161.6 34.4 161.5 34.6 C 161.3 34.9 161.1 35.1 160.7 35.3 C 160.7 35.3 160.4 34.8 160.4 34.8 C 160.6 34.7 160.8 34.6 160.9 34.4 C 161 34.2 161.1 33.9 161.1 33.6 C 161.09 33.58 160.5 33.6 160.5 33.6 Z M 166.5 31.7 C 166.5 31.7 167.5 31.6 167.5 31.6 C 167.6 32 167.7 32.3 168 32.5 C 168.3 32.7 168.6 32.9 169.1 32.9 C 169.6 32.9 170 32.8 170.2 32.6 C 170.4 32.4 170.5 32.1 170.5 31.9 C 170.5 31.6 170.4 31.4 170.2 31.3 C 170.1 31.2 169.7 31.1 169.2 30.9 C 168.4 30.7 167.9 30.6 167.6 30.4 C 167.3 30.3 167 30.1 166.9 29.8 C 166.7 29.6 166.6 29.3 166.6 29 C 166.6 28.7 166.7 28.5 166.8 28.2 C 167 28 167.1 27.8 167.3 27.7 C 167.5 27.5 167.7 27.4 168 27.3 C 168.3 27.3 168.6 27.2 168.9 27.2 C 169.4 27.2 169.8 27.3 170.2 27.4 C 170.6 27.6 170.9 27.8 171 28 C 171.2 28.2 171.3 28.6 171.4 29 C 171.4 29 170.4 29.1 170.4 29.1 C 170.3 28.8 170.2 28.5 170 28.4 C 169.7 28.2 169.4 28.1 169 28.1 C 168.5 28.1 168.2 28.2 168 28.3 C 167.8 28.5 167.7 28.7 167.7 28.9 C 167.7 29 167.7 29.1 167.8 29.3 C 167.9 29.4 168 29.5 168.2 29.5 C 168.3 29.6 168.6 29.7 169.1 29.8 C 169.9 30 170.4 30.2 170.7 30.3 C 171 30.4 171.2 30.6 171.4 30.8 C 171.5 31.1 171.6 31.4 171.6 31.8 C 171.6 32.1 171.5 32.4 171.3 32.7 C 171.1 33.1 170.8 33.3 170.4 33.5 C 170.1 33.6 169.6 33.7 169.1 33.7 C 168.3 33.7 167.7 33.6 167.3 33.2 C 166.9 32.9 166.6 32.4 166.5 31.7 Z M 172.5 30.5 C 172.5 29.3 172.8 28.5 173.5 27.9 C 174 27.4 174.6 27.2 175.4 27.2 C 176.3 27.2 177 27.5 177.5 28.1 C 178.1 28.6 178.3 29.4 178.3 30.4 C 178.3 31.2 178.2 31.8 178 32.3 C 177.7 32.7 177.4 33.1 176.9 33.3 C 176.5 33.6 176 33.7 175.4 33.7 C 174.5 33.7 173.8 33.4 173.3 32.9 C 172.8 32.3 172.5 31.5 172.5 30.5 Z M 173.6 30.5 C 173.6 31.3 173.8 31.9 174.1 32.3 C 174.4 32.7 174.9 32.9 175.4 32.9 C 175.9 32.9 176.4 32.7 176.7 32.3 C 177.1 31.9 177.2 31.2 177.2 30.4 C 177.2 29.7 177.1 29.1 176.7 28.7 C 176.4 28.3 175.9 28.1 175.4 28.1 C 174.9 28.1 174.4 28.3 174.1 28.7 C 173.8 29.1 173.6 29.7 173.6 30.5 Z M 179.5 33.6 L 179.5 25 L 180.6 25 L 180.6 33.6 L 179.5 33.6 Z M 186.3 33.6 C 186.3 33.6 186.3 32.67 186.3 32.7 C 185.8 33.4 185.2 33.7 184.3 33.7 C 184 33.7 183.6 33.7 183.3 33.5 C 183 33.4 182.7 33.2 182.6 33 C 182.4 32.8 182.3 32.5 182.3 32.2 C 182.2 32 182.2 31.7 182.2 31.2 C 182.2 31.21 182.2 27.4 182.2 27.4 L 183.3 27.4 C 183.3 27.4 183.26 30.81 183.3 30.8 C 183.3 31.4 183.3 31.7 183.3 31.9 C 183.4 32.2 183.5 32.4 183.7 32.6 C 184 32.7 184.2 32.8 184.5 32.8 C 184.9 32.8 185.2 32.7 185.4 32.6 C 185.7 32.4 185.9 32.2 186 31.9 C 186.1 31.6 186.2 31.2 186.2 30.7 C 186.19 30.69 186.2 27.4 186.2 27.4 L 187.2 27.4 L 187.2 33.6 L 186.3 33.6 Z M 190.7 32.7 C 190.9 32.7 191 32.7 191.2 32.6 C 191.2 32.6 191.4 33.6 191.4 33.6 C 191.1 33.6 190.8 33.7 190.6 33.7 C 190.2 33.7 189.9 33.6 189.7 33.5 C 189.5 33.4 189.3 33.2 189.2 33 C 189.1 32.8 189.1 32.4 189.1 31.8 C 189.09 31.76 189.1 28.2 189.1 28.2 L 188.3 28.2 L 188.3 27.4 L 189.1 27.4 L 189.1 25.8 L 190.1 25.2 L 190.1 27.4 L 191.2 27.4 L 191.2 28.2 L 190.1 28.2 C 190.1 28.2 190.14 31.82 190.1 31.8 C 190.1 32.1 190.2 32.3 190.2 32.4 C 190.2 32.5 190.3 32.6 190.4 32.6 C 190.5 32.7 190.6 32.7 190.7 32.7 C 190.7 32.7 190.7 32.7 190.7 32.7 Z M 192.2 26.2 L 192.2 25 L 193.3 25 L 193.3 26.2 L 192.2 26.2 Z M 192.2 33.6 L 192.2 27.4 L 193.3 27.4 L 193.3 33.6 L 192.2 33.6 Z M 194.5 30.5 C 194.5 29.3 194.8 28.5 195.5 27.9 C 196 27.4 196.7 27.2 197.4 27.2 C 198.3 27.2 199 27.5 199.5 28.1 C 200.1 28.6 200.3 29.4 200.3 30.4 C 200.3 31.2 200.2 31.8 200 32.3 C 199.7 32.7 199.4 33.1 198.9 33.3 C 198.5 33.6 198 33.7 197.4 33.7 C 196.6 33.7 195.9 33.4 195.3 32.9 C 194.8 32.3 194.5 31.5 194.5 30.5 Z M 195.6 30.5 C 195.6 31.3 195.8 31.9 196.1 32.3 C 196.5 32.7 196.9 32.9 197.4 32.9 C 197.9 32.9 198.4 32.7 198.7 32.3 C 199.1 31.9 199.3 31.2 199.3 30.4 C 199.3 29.7 199.1 29.1 198.7 28.7 C 198.4 28.3 197.9 28.1 197.4 28.1 C 196.9 28.1 196.5 28.3 196.1 28.7 C 195.8 29.1 195.6 29.7 195.6 30.5 Z M 201.6 33.6 L 201.6 27.4 L 202.5 27.4 C 202.5 27.4 202.52 28.24 202.5 28.2 C 203 27.6 203.6 27.2 204.5 27.2 C 204.9 27.2 205.2 27.3 205.5 27.4 C 205.9 27.6 206.1 27.7 206.2 27.9 C 206.4 28.2 206.5 28.4 206.6 28.7 C 206.6 28.9 206.6 29.3 206.6 29.8 C 206.63 29.75 206.6 33.6 206.6 33.6 L 205.6 33.6 C 205.6 33.6 205.58 29.79 205.6 29.8 C 205.6 29.4 205.5 29 205.5 28.8 C 205.4 28.6 205.2 28.4 205 28.3 C 204.8 28.2 204.6 28.1 204.3 28.1 C 203.8 28.1 203.4 28.3 203.1 28.6 C 202.8 28.8 202.6 29.4 202.6 30.2 C 202.63 30.18 202.6 33.6 202.6 33.6 L 201.6 33.6 Z M 207.8 31 L 207.8 29.9 L 211.1 29.9 L 211.1 31 L 207.8 31 Z M 211.9 30.5 C 211.9 29.3 212.2 28.5 212.8 27.9 C 213.3 27.4 214 27.2 214.8 27.2 C 215.6 27.2 216.3 27.5 216.9 28.1 C 217.4 28.6 217.7 29.4 217.7 30.4 C 217.7 31.2 217.6 31.8 217.3 32.3 C 217.1 32.7 216.7 33.1 216.3 33.3 C 215.8 33.6 215.3 33.7 214.8 33.7 C 213.9 33.7 213.2 33.4 212.7 32.9 C 212.1 32.3 211.9 31.5 211.9 30.5 Z M 212.9 30.5 C 212.9 31.3 213.1 31.9 213.5 32.3 C 213.8 32.7 214.2 32.9 214.8 32.9 C 215.3 32.9 215.7 32.7 216.1 32.3 C 216.4 31.9 216.6 31.2 216.6 30.4 C 216.6 29.7 216.4 29.1 216.1 28.7 C 215.7 28.3 215.3 28.1 214.8 28.1 C 214.2 28.1 213.8 28.3 213.5 28.7 C 213.1 29.1 212.9 29.7 212.9 30.5 Z M 218.9 33.6 L 218.9 27.4 L 219.9 27.4 C 219.9 27.4 219.86 28.3 219.9 28.3 C 220.1 27.9 220.3 27.6 220.5 27.4 C 220.7 27.3 221 27.2 221.2 27.2 C 221.6 27.2 221.9 27.3 222.3 27.6 C 222.3 27.6 221.9 28.5 221.9 28.5 C 221.7 28.4 221.4 28.3 221.2 28.3 C 220.9 28.3 220.7 28.4 220.5 28.5 C 220.3 28.7 220.2 28.8 220.1 29.1 C 220 29.5 220 29.9 220 30.3 C 219.96 30.32 220 33.6 220 33.6 L 218.9 33.6 Z M 222.9 26.2 L 222.9 25 L 224 25 L 224 26.2 L 222.9 26.2 Z M 222.9 33.6 L 222.9 27.4 L 224 27.4 L 224 33.6 L 222.9 33.6 Z M 229.8 31.6 C 229.8 31.6 230.9 31.7 230.9 31.7 C 230.8 32.3 230.4 32.8 230 33.2 C 229.5 33.5 228.9 33.7 228.2 33.7 C 227.3 33.7 226.6 33.4 226 32.9 C 225.5 32.3 225.2 31.5 225.2 30.5 C 225.2 29.5 225.5 28.7 226 28.1 C 226.6 27.5 227.3 27.2 228.1 27.2 C 229 27.2 229.6 27.5 230.2 28.1 C 230.7 28.6 231 29.4 231 30.5 C 231 30.5 231 30.6 231 30.7 C 231 30.7 226.3 30.7 226.3 30.7 C 226.4 31.4 226.6 31.9 226.9 32.3 C 227.2 32.7 227.7 32.9 228.2 32.9 C 228.6 32.9 228.9 32.8 229.2 32.5 C 229.5 32.3 229.7 32 229.8 31.6 Z M 226.4 29.9 C 226.4 29.9 229.9 29.9 229.9 29.9 C 229.8 29.3 229.7 29 229.5 28.7 C 229.1 28.3 228.7 28.1 228.1 28.1 C 227.7 28.1 227.3 28.2 226.9 28.6 C 226.6 28.9 226.4 29.3 226.4 29.9 Z M 232.3 33.6 L 232.3 27.4 L 233.2 27.4 C 233.2 27.4 233.2 28.24 233.2 28.2 C 233.7 27.6 234.3 27.2 235.2 27.2 C 235.6 27.2 235.9 27.3 236.2 27.4 C 236.5 27.6 236.8 27.7 236.9 27.9 C 237.1 28.2 237.2 28.4 237.3 28.7 C 237.3 28.9 237.3 29.3 237.3 29.8 C 237.31 29.75 237.3 33.6 237.3 33.6 L 236.3 33.6 C 236.3 33.6 236.26 29.79 236.3 29.8 C 236.3 29.4 236.2 29 236.1 28.8 C 236.1 28.6 235.9 28.4 235.7 28.3 C 235.5 28.2 235.2 28.1 235 28.1 C 234.5 28.1 234.1 28.3 233.8 28.6 C 233.5 28.8 233.3 29.4 233.3 30.2 C 233.31 30.18 233.3 33.6 233.3 33.6 L 232.3 33.6 Z M 240.8 32.7 C 240.9 32.7 241 32.7 241.2 32.6 C 241.2 32.6 241.4 33.6 241.4 33.6 C 241.1 33.6 240.8 33.7 240.6 33.7 C 240.2 33.7 239.9 33.6 239.7 33.5 C 239.5 33.4 239.3 33.2 239.3 33 C 239.2 32.8 239.1 32.4 239.1 31.8 C 239.12 31.76 239.1 28.2 239.1 28.2 L 238.3 28.2 L 238.3 27.4 L 239.1 27.4 L 239.1 25.8 L 240.2 25.2 L 240.2 27.4 L 241.2 27.4 L 241.2 28.2 L 240.2 28.2 C 240.2 28.2 240.17 31.82 240.2 31.8 C 240.2 32.1 240.2 32.3 240.2 32.4 C 240.3 32.5 240.3 32.6 240.4 32.6 C 240.5 32.7 240.6 32.7 240.8 32.7 C 240.8 32.7 240.8 32.7 240.8 32.7 Z M 246.5 31.6 C 246.5 31.6 247.6 31.7 247.6 31.7 C 247.4 32.3 247.1 32.8 246.7 33.2 C 246.2 33.5 245.6 33.7 244.9 33.7 C 244 33.7 243.2 33.4 242.7 32.9 C 242.2 32.3 241.9 31.5 241.9 30.5 C 241.9 29.5 242.2 28.7 242.7 28.1 C 243.3 27.5 244 27.2 244.8 27.2 C 245.6 27.2 246.3 27.5 246.9 28.1 C 247.4 28.6 247.6 29.4 247.6 30.5 C 247.6 30.5 247.6 30.6 247.6 30.7 C 247.6 30.7 243 30.7 243 30.7 C 243 31.4 243.2 31.9 243.6 32.3 C 243.9 32.7 244.4 32.9 244.9 32.9 C 245.3 32.9 245.6 32.8 245.9 32.5 C 246.1 32.3 246.4 32 246.5 31.6 Z M 243.1 29.9 C 243.1 29.9 246.5 29.9 246.5 29.9 C 246.5 29.3 246.4 29 246.1 28.7 C 245.8 28.3 245.4 28.1 244.8 28.1 C 244.3 28.1 243.9 28.2 243.6 28.6 C 243.3 28.9 243.1 29.3 243.1 29.9 Z M 253 33.6 C 253 33.6 252.97 32.79 253 32.8 C 252.6 33.4 252 33.7 251.2 33.7 C 250.7 33.7 250.3 33.6 249.9 33.3 C 249.4 33 249.1 32.7 248.9 32.2 C 248.7 31.7 248.6 31.1 248.6 30.5 C 248.6 29.9 248.7 29.3 248.9 28.8 C 249.1 28.3 249.4 27.9 249.8 27.6 C 250.2 27.4 250.7 27.2 251.2 27.2 C 251.6 27.2 251.9 27.3 252.2 27.5 C 252.5 27.6 252.7 27.8 252.9 28.1 C 252.9 28.07 252.9 25 252.9 25 L 254 25 L 254 33.6 L 253 33.6 Z M 249.6 30.5 C 249.6 31.3 249.8 31.9 250.1 32.3 C 250.5 32.7 250.9 32.9 251.3 32.9 C 251.8 32.9 252.2 32.7 252.5 32.3 C 252.8 31.9 253 31.3 253 30.6 C 253 29.7 252.8 29.1 252.5 28.7 C 252.2 28.3 251.8 28.1 251.3 28.1 C 250.8 28.1 250.4 28.3 250.1 28.7 C 249.8 29 249.6 29.7 249.6 30.5 Z M 255.9 33.6 L 255.9 32.4 L 257.1 32.4 C 257.1 32.4 257.09 33.58 257.1 33.6 C 257.1 34 257 34.4 256.9 34.6 C 256.7 34.9 256.4 35.1 256.1 35.3 C 256.1 35.3 255.8 34.8 255.8 34.8 C 256 34.7 256.2 34.6 256.3 34.4 C 256.4 34.2 256.5 33.9 256.5 33.6 C 256.48 33.58 255.9 33.6 255.9 33.6 Z " stroke="none" fill="#ffffff"/>  </g>  <g id="Polygon44352">    <path d="M 3 0.9 L 3 14.6 L 1.5 14.6 L 1.5 0.9 L 3 0.9 Z M 7.3 0.9 L 17 12.2 L 17 0.9 L 18.4 0.9 L 18.4 14.6 L 17.1 14.6 L 7.5 3.3 L 7.5 14.6 L 6.1 14.6 L 6.1 0.9 L 7.3 0.9 Z M 32.8 1.8 C 32.8 1.8 32.8 3.5 32.8 3.5 C 31.3 2.6 29.7 2.2 28.1 2.2 C 24.7 2.2 22.5 4.8 22.5 7.8 C 22.5 10.8 24.6 13.4 28.1 13.4 C 29.8 13.4 31.4 12.9 32.9 12 C 32.9 12 32.9 13.6 32.9 13.6 C 31.3 14.4 29.8 14.8 28.1 14.8 C 23.4 14.8 20.9 11.2 20.9 7.8 C 20.9 3.8 24 0.8 28.1 0.8 C 29.7 0.8 31.2 1.1 32.8 1.8 Z M 36.7 0.9 L 36.7 14.6 L 35.2 14.6 L 35.2 0.9 L 36.7 0.9 Z M 46.3 1.6 C 46.3 1.6 46.3 3.3 46.3 3.3 C 45.4 2.5 44.4 2.1 43.3 2.1 C 41.8 2.1 40.9 2.9 40.9 4.1 C 40.9 5 41.1 5.8 43.4 6.9 C 46.2 8.4 46.9 9.4 46.9 11.2 C 46.9 13.2 45.3 14.8 43 14.8 C 41.7 14.8 40.5 14.3 39.4 13.6 C 39.4 13.6 39.4 11.7 39.4 11.7 C 40.4 12.8 41.6 13.4 43 13.4 C 44.3 13.4 45.3 12.6 45.3 11.2 C 45.3 10.1 45 9.4 42.3 8 C 40.2 6.9 39.4 5.9 39.4 4.1 C 39.4 2.2 41 0.8 43.3 0.8 C 44.4 0.8 45.4 1.1 46.3 1.6 Z M 50.7 0.9 L 50.7 14.6 L 49.2 14.6 L 49.2 0.9 L 50.7 0.9 Z M 52.3 0.9 L 53.8 0.9 L 58.2 11.6 L 58.2 11.6 L 62.6 0.9 L 64.1 0.9 L 58.4 14.7 L 58 14.7 L 52.3 0.9 Z M 73.2 0.9 L 73.2 2.3 L 67.2 2.3 L 67.2 7 L 73 7 L 73 8.4 L 67.2 8.4 L 67.2 13.2 L 73.3 13.2 L 73.3 14.6 L 65.7 14.6 L 65.7 0.9 L 73.2 0.9 Z " stroke="none" fill="#ffffff"/>  </g></svg>