<?xml version="1.0" encoding="UTF-8"?>
<svg xmlns="http://www.w3.org/2000/svg" version="1.1" viewBox="0 0 484.9 484.3">
  <defs>
    <style>
      .cls-1 {
        fill: #ff83a8;
      }

      .cls-2 {
        fill: #ffedfa;
      }

      .cls-3 {
        fill: #8a60ff;
      }

      .cls-4 {
        fill: #dac4fe;
      }

      .cls-5 {
        fill: #ffc3f4;
      }

      .cls-6 {
        fill: #92b9b7;
      }

      .cls-7 {
        fill: #ffb36b;
      }

      .cls-8 {
        fill: #040100;
      }
    </style>
  </defs>
  <!-- Generator: Adobe Illustrator 28.7.1, SVG Export Plug-In . SVG Version: 1.2.0 Build 142)  -->
  <g>
    <g id="Capa_1">
      <g>
        <path class="cls-3" d="M460.4,249.5c0,12.6,21.6,29.5,21.6,29.5h0c-.5,3.2-1,6.4-1.7,9.5-2,10.4-4.8,20.7-8.2,30.7-.1.3-.2.7-.3,1.1-6.1,17.7-14.2,34.7-24.2,50.5-.2.3-.4.7-.6,1-15.1,23.9-34.3,45.1-56.8,62.3-.3.3-.6.5-.9.7,0,0,0,0-.1.1-14.7,11.2-30.6,20.6-47.4,28.1-.3.2-.7.3-1,.5-28.3,12.5-58.8,19.6-89.7,20.7h0l-25.9-18.9-25.9,15c-19.4-3.7-38-9.8-55.6-18,0,0-.2,0-.2-.1-15.8-7.4-30.8-16.5-44.6-27-.4-.3-.9-.7-1.3-1,0,0,0,0,0,0-21.7-16.7-40.5-36.9-55.7-59.6-.2-.3-.4-.7-.7-1-8.4-12.6-15.6-25.9-21.5-39.8-.2-.5-.4-1-.7-1.6,0,0,4.4-31.6,2.9-36-5.1-14.5-19.1-22-19.1-22-.7-4.6-1.2-9.1-1.6-13.8-.8-8.8-1.1-17.7-.8-26.7,0-.4,0-.8,0-1.1.1-4.1.3-8.1.7-12.2,0-.6,0-1.3.2-2,4.3-44.4,20.5-85.3,45.5-119.4.2-.3.5-.6.7-.9,8.5-11.6,18.1-22.4,28.6-32.2.3-.3.6-.6.9-.8,15.4-14.5,32.7-26.9,51.4-36.9,18.1-9.7,37.3-16.8,57-21.4.4,0,.7-.2,1.1-.3,3.1-.7,6.3-1.4,9.5-2,.4,0,.8-.2,1.2-.2,13-2.4,26.3-3.7,39.5-4l23.8,14.4,45.3-6.1c6.3,1.7,12.6,3.6,18.8,5.8.3.1.7.3,1.1.4,20.4,7.3,39.9,17.2,57.7,29.9,4.1,2.9,8.2,6,12.2,9.2.2.1.3.3.5.4.1.1.3.2.4.3.2.1.3.3.5.4,11.8,8.4,22.4,18.3,31.8,29.2,3.9,4.5,7.6,9.2,11.2,14.1.3.5.7,1,1,1.4,2.8,4,5.5,8.1,8.1,12.2.4.6.8,1.3,1.1,1.9,15.7,26.2,26.3,56,31.4,86,0,.4.1.8.2,1.1,1.3,7.5,2.2,15,2.7,22.5,0,0-23.8,20.1-23.8,26.2Z"/>
        <g>
          <path class="cls-2" d="M481.3,199.6c-7,1.4-14.4,1.8-21.8,1-40.3-4.1-69.8-40.3-65.7-80.6,1.9-18.3,10.4-34.4,22.9-46.1-.3-.3-.5-.6-.8-.8-12.7,11.9-21.3,28.2-23.3,46.8-4.2,41,25.7,77.7,66.7,81.9,7.6.8,15,.4,22.1-1l-.2-1.1Z"/>
          <path class="cls-2" d="M421.4,320.8c-38.2,15.3-56.8,58.9-41.6,97.1,2.5,6.1,5.7,11.8,9.5,16.9.3-.2.6-.5.9-.7-3.7-5-6.9-10.5-9.3-16.6-15.1-37.6,3.2-80.5,40.9-95.6,16.6-6.7,34.3-6.8,50.1-1.6.1-.4.2-.7.3-1.1-16.1-5.3-34-5.2-50.8,1.6Z"/>
          <path class="cls-2" d="M196.9,4c-.4,0-.8.1-1.2.2.2,4.3,0,8.7-.6,13.1-5.6,40.2-42.7,68.3-82.9,62.8-13.5-1.9-25.6-7.3-35.6-15.3-.3.3-.6.5-.9.8,10.2,8.1,22.5,13.7,36.3,15.6,40.8,5.6,78.5-23,84.2-63.8.6-4.5.8-9,.7-13.5Z"/>
          <path class="cls-2" d="M140.7,408.4c-17.8-37.1-62.5-52.9-99.6-35.1,0,0-.1,0-.2,0,.2.3.4.7.7,1,0,0,0,0,0,0,36.6-17.5,80.6-2,98.1,34.5,8,16.6,8.3,37,3.8,53.5.3,0,.7.2,1.1.3,4.7-16.8,4.3-37.5-3.8-54.3Z"/>
        </g>
        <g>
          <circle class="cls-7" cx="97.1" cy="117.4" r="30.1"/>
          <path class="cls-5" d="M484.9,241.8c0,12.6-1,25.1-2.8,37.2h0c-3.2,1.2-6.7,1.8-10.3,1.8-16.6,0-30.1-13.5-30.1-30.1s13.5-30.1,30.1-30.1,8.6,1,12.4,2.7c.5,6.2.7,12.4.7,18.5Z"/>
          <path class="cls-5" d="M40.7,303c0,13.8-9.3,25.5-22,29-1.8-4.3-3.5-8.7-5.1-13.1-5.1-14.5-8.9-29.5-11.2-44.9,2.6-.7,5.3-1.1,8.1-1.1,16.6,0,30.1,13.5,30.1,30.1Z"/>
          <path class="cls-6" d="M256.2,467.1c0,6.3-2,12.2-5.3,17.1h0c-2.8.1-5.7.2-8.5.2-14.8,0-29.3-1.4-43.4-4.1-1.9-4-3-8.5-3-13.2,0-16.6,13.5-30.1,30.1-30.1,16.6,0,30.1,13.5,30.1,30.1Z"/>
          <path class="cls-6" d="M305.6,9.6c0,20.5-15.8,37-35.2,37s-35.2-16.6-35.2-37,.4-6.5,1.2-9.5c.5,0,.9,0,1.4,0,21.6-.3,43.3,2.2,64.3,7.4,1.1.3,2.3.6,3.4.9,0,.4,0,.9,0,1.3Z"/>
        </g>
        <g>
          <g>
            <circle class="cls-8" cx="319.7" cy="117.5" r="84.5"/>
            <circle class="cls-1" cx="328.5" cy="119.1" r="84.5" transform="translate(12 267.2) rotate(-45)"/>
          </g>
          <g>
            <path class="cls-2" d="M376.4,101.9c0-27-23.3-48.4-50.9-45.4-21,2.3-37.9,19.3-40.2,40.3-2.1,19.1,7.6,36,22.6,44.7,7.8,4.5,12.4,12.8,12.4,21.8h23.1v-1.5c0-8.6,4.3-16.7,11.5-21.2,12.9-8.1,21.4-22.4,21.4-38.7Z"/>
            <path class="cls-7" d="M327.5,168.4c-.3,0-.6-.3-.6-.6l-.5-9.4c-.2-4.4-.4-9-1.2-13.4-.9-4.9-2.5-9.7-4.1-14.3-.6-1.9-1.3-3.8-1.9-5.7-1.8-5.8-3.8-13.4-2.7-20.9.3-2.2,1.6-7.5,5.9-8.9,2.6-.8,5.8.2,8,2.5.9.9,1.6,2,2.1,3.1.6-1.4,1.3-2.6,2.4-3.8,2.1-2.2,5.8-3.7,8.9-2.2,1.5.7,2.8,2.2,3.8,4.1,1.5,3.1,1.9,7.1,1.3,11.4-.5,3.4-1.6,6.7-2.7,9.9l-.3,1c-3.7,11.3-8.6,28.2-7.6,45.4,0,.3-.2.6-.6.7-.3,0-.6-.2-.7-.6-1.1-17.4,3.8-34.5,7.6-45.9l.3-1c1.1-3.1,2.1-6.4,2.6-9.7.6-4.1.2-7.7-1.2-10.7-.6-1.2-1.6-2.8-3.2-3.6-2.5-1.2-5.7,0-7.4,1.9-1.2,1.3-2,2.9-2.6,4.6.4,1,.6,2,.8,2.8,1.2,4.8,1.4,9.8.8,14.8-.2,1.4-.5,2.9-1.3,4.1-.5.7-.9.8-1.3.8-.7,0-1-.7-1.1-.9-1-1.8-1.3-4-1.3-5.8-.1-4,.3-8.3,1.3-12.8.2-1,.5-2,.8-3-.5-1.4-1.3-2.8-2.4-4-1.5-1.7-4.2-3-6.8-2.2-3.7,1.2-4.7,5.9-5,7.9-1.1,7.3.8,14.7,2.6,20.4.6,1.9,1.2,3.8,1.9,5.7,1.6,4.7,3.3,9.5,4.2,14.5.8,4.5,1.1,9.1,1.3,13.6l.5,9.4c0,.3-.2.6-.6.6,0,0,0,0,0,0ZM332.5,104.7c-.1.4-.2.8-.3,1.2-1,4.4-1.4,8.5-1.3,12.5,0,1.7.3,3.7,1.2,5.3,0,.1.1.2.2.2,0,0,0,0,.2-.2.7-1,.9-2.3,1.1-3.6.6-4.8.4-9.6-.8-14.3,0-.3-.2-.6-.3-1Z"/>
            <g>
              <polygon class="cls-7" points="317.6 163 346.3 163 346.3 180.5 317.1 180.5 317.6 163"/>
              <path class="cls-7" d="M321.1,179.3s.9,9.3,10.5,9.5c9.6.2,11.3-9.8,11.3-9.8l-21.8.3Z"/>
            </g>
          </g>
        </g>
        <g>
          <g>
            <path class="cls-5" d="M288.3,173.2c.2,2.4.1,5.3-.3,8.8-1,7.1-3.2,12.1-5.5,15.4,0,.1-.2.2-.3.3-2.5,3.5-4.9,5.1-5.7,5.5,0,0-.2.1-.2.1h0s0,0,0,0c1,.9,9.4,8.7,7.6,19.5-.3,2-1,3.9-1.8,5.7-3.3,7.2-9.6,11.8-11,12.8,0,0,0,0,0,0,0,0-.1,0-.2.1h0s9.1,15-3.1,21.5c-3,1.6-32.3,2.2-67.3,2.4-26.3,0-55.9,0-79.9-.3-27.7-.3-17.6-136.6.3-137.7,12.9-.7,24.5-1.5,25.5-2.7,20.7-24,27.9-87.5,41.2-87.3,30.9.5,19.6,75.7,18.3,83.8,0,.5-.1.7-.1.7,0,0,64.5-6.2,79,5.3,1.2.9,2,2,2.5,3.1,0,0,0,0,0,.1,2.4,6.6,2.1,12.9.9,18.2,0,.2,0,.3-.1.5-1.5,6-4.1,10.4-4.8,11.5-.1.2-.2.3-.2.3h0c.3.2,4.5,3,5.2,12.2,0,0,0,0,0,0Z"/>
            <path class="cls-8" d="M120.5,265.1c-27.6-.3-48.1-.6-48.1-.6l9.6-135.3s20.8-.7,38.8-1.7l-.4,137.6Z"/>
            <path class="cls-2" d="M105.3,249.7c-.4,5.1-4.8,8.9-9.9,8.5-5.1-.4-8.9-4.8-8.5-9.9s4.8-8.9,9.9-8.5c5.1.4,8.9,4.8,8.5,9.9Z"/>
            <path class="cls-8" d="M283,161.7s0,0,0,0l-57.6-1.3c-.4,0-.8-.4-.8-.8,0-.4.4-.8.8-.8l57.1,1.2c1.7-3,12.2-22.8,1.3-32.7-12-10.8-84.7-4.9-85.5-4.8-.5,0-.8-.3-.8-.7,0-.4.3-.8.7-.8,3-.3,74.2-6,86.6,5.2,12.7,11.5-.6,34.1-1.2,35-.1.2-.4.4-.7.4Z"/>
            <path class="cls-8" d="M276.3,204.1s0,0,0,0l-52.6-.8c-.4,0-.8-.4-.8-.8,0-.4.4-.8.8-.8s0,0,0,0l52.3.8c1.3-.9,8.9-6.4,11.4-18.3,2.7-12.9-4.9-22.7-5-22.8-.3-.3-.2-.8.1-1.1.3-.3.8-.2,1.1.1.3.4,8.2,10.5,5.3,24.1-2.9,13.6-11.9,19.2-12.3,19.4-.1,0-.3.1-.4.1Z"/>
            <path class="cls-8" d="M270.9,242.4s0,0,0,0l-41.4-.5c-.4,0-.8-.4-.8-.8,0-.4.4-.8.8-.8s0,0,0,0l41.1.5s0,0,0,0c0,0,0,0,0,0,1.6-1.1,6.9-5.4,10.4-12.5.9-1.8,1.6-3.6,2.1-5.5,3.1-11.3-6.9-18.4-7.3-18.7,0,0-.2-.1-.2-.2-.3-.3-.3-.8,0-1.1.3-.3.8-.3,1.1,0,.6.4,11.3,8.1,7.9,20.4-.5,2-1.3,3.9-2.2,5.8-3.6,7.4-9.2,11.9-10.9,13.1,0,0,0,0,0,0,0,0,0,0-.1,0,0,0,0,0,0,0-.1.1-.3.2-.5.2Z"/>
          </g>
          <g>
            <path class="cls-4" d="M211,295.2s-9.6-8.1-7.7-19.6c1.9-11.5,13-18.6,13-18.6,0,0-9.1-14.9,3.1-21.5,5.3-2.9,91.2-2.6,147.3-2.1,27.6.3,17.6,136.6-.4,137.6-12.9.8-24.5,1.5-25.5,2.7-20.7,24-27.9,87.5-41.2,87.3-32.7-.5-18.2-84.5-18.2-84.5,0,0-75.7,7.3-81.5-8.5-5.8-15.8,4.3-30.4,4.3-30.4,0,0-7.2-4.2-4.9-21,2.3-16.8,11.7-21.4,11.7-21.4Z"/>
            <path class="cls-8" d="M366.8,233.4c27.6.3,48.1.6,48.1.6l-9.6,135.3s-20.8.7-38.8,1.7l.4-137.6Z"/>
            <path class="cls-2" d="M382,248.9c.4-5.1,4.8-8.9,9.9-8.5s8.9,4.8,8.5,9.9c-.4,5.1-4.8,8.9-9.9,8.5-5.1-.4-8.9-4.8-8.5-9.9Z"/>
            <path class="cls-8" d="M247.9,379.2c-19.3,0-39.4-1.4-45.5-7-12.7-11.5.6-34.1,1.2-35,.1-.2.4-.4.7-.4l57.6,1.3c.4,0,.8.4.8.8,0,.4-.5.7-.8.8l-57.1-1.2c-1.7,3-12.2,22.8-1.3,32.7,12,10.8,84.7,4.9,85.5,4.8.5,0,.8.3.8.7,0,.4-.3.8-.7.8-1.5.1-20.9,1.7-41.2,1.7Z"/>
            <path class="cls-8" d="M204.2,338.4c-.2,0-.5-.1-.6-.3-.3-.4-8.2-10.5-5.3-24.1,2.9-13.6,11.9-19.2,12.3-19.4.1,0,.4-.1.4-.1l52.6.8c.4,0,.8.4.8.8,0,.4-.4.8-.8.8s0,0,0,0l-52.3-.8c-1.3.9-8.9,6.4-11.4,18.3-2.7,12.9,4.9,22.7,5,22.8.3.3.2.8-.1,1.1-.1.1-.3.2-.5.2Z"/>
            <path class="cls-8" d="M211,296c-.2,0-.3,0-.4-.1-.1,0-11.4-7.9-8-20.5,3.4-12.3,13-18.8,13.4-19.1.1,0,.3-.2.4-.1l41.4.5c.4,0,.8.4.8.8,0,.4-.4.7-.8.8l-41.1-.5c-1.4,1-9.6,7.3-12.5,18.1-3.2,11.5,6.9,18.5,7.4,18.7.4.2.4.7.2,1.1-.2.2-.4.3-.6.3Z"/>
          </g>
        </g>
        <g>
          <rect class="cls-8" x="72" y="298.3" width="100.6" height="100.6"/>
          <rect class="cls-2" x="85.4" y="284.8" width="100.6" height="100.6"/>
          <path class="cls-8" d="M133.8,358.9c-.6,0-1.2-.3-1.7-.7l-23-23.8c-.9-.9-.9-2.4,0-3.3.9-.9,2.4-.9,3.3,0l20.9,21.6,28.2-47.7c.7-1.1,2.1-1.5,3.2-.8,1.1.7,1.5,2.1.8,3.2l-29.7,50.3c-.4.6-1,1-1.7,1.1,0,0-.2,0-.3,0Z"/>
        </g>
      </g>
    </g>
  </g>
</svg>