<?xml version="1.0" encoding="UTF-8"?>
<svg id="Layer_2" xmlns="http://www.w3.org/2000/svg" xmlns:xlink="http://www.w3.org/1999/xlink" version="1.1" viewBox="0 0 220.1 190.1">
  <!-- Generator: Adobe Illustrator 29.2.0, SVG Export Plug-In . SVG Version: 2.1.0 Build 108)  -->
  <defs>
    <style>
      .st0 {
        fill: none;
      }

      .st1 {
        fill: #5eba45;
      }

      .st2 {
        fill: #faa31c;
      }

      .st3 {
        fill: #dbe021;
      }

      .st4 {
        fill: #fff;
      }

      .st5 {
        fill: #fce800;
      }

      .st6 {
        fill: #2f3334;
      }

      .st7 {
        fill: #ed1c26;
      }

      .st8 {
        clip-path: url(#clippath);
      }

      .st9 {
        fill: #f27321;
      }
    </style>
    <clipPath id="clippath">
      <rect class="st0" width="220.1" height="190.1"/>
    </clipPath>
  </defs>
  <g id="Capa_1">
    <g class="st8">
      <g>
        <path class="st6" d="M144.9,103.3c-1.3-18.1-16.2-32.5-34.5-32.5s-34.6,15.7-34.6,34.9,15.5,34.9,34.6,34.9,17.5-3.6,23.7-9.6c17.2,2.9,51.4,5.3,56.7,5.8.3-.5,2.1-6,2.2-6.5-3.6-2.4-30.5-17.7-48.1-27.1"/>
        <path class="st3" d="M210.7,107.7c1.1-18.7-8.9-49.4-28.3-69.3l-25.1,26.1c10,10.2,16.1,24.9,18.6,43.9l34.9-.7h0Z"/>
        <path class="st5" d="M154.5,63.6l25.3-25.6c-20.3-19.7-51.2-29.9-69.8-28.7l.2,35.5c19,2.5,33.8,8.6,44.3,18.8"/>
        <path class="st2" d="M111.9,8.4c-28.9-.2-59,14.4-71.9,28.5l25,26.4c15.8-11.8,31.2-17.8,46.1-17.6l.9-37.3h0Z"/>
        <path class="st9" d="M63.4,64.5l-25.1-26.1c-19.4,19.8-29.5,50.6-28.3,69.3l34.9.7c2.5-19,8.6-33.7,18.6-43.9"/>
        <path class="st7" d="M39.1,178.4l24.9-24.4c-11.7-14.8-17.9-29.3-18.1-43.5H9.7c.5,27.5,15.3,55.9,29.4,67.9"/>
        <path class="st1" d="M175.4,112.4c0,1.8-.2,3.7-.4,5.5,6.4,3.4,11.6,6.4,12.8,7.5,1.6,1.4,1.7,4.1.4,8-1.3,3.9-3.1,6-5.3,6.1h-.3c-2.2,0-7.6-.9-14.1-2-2.6,5.1-5.9,10.2-10,15.4l25.2,25.6c13-11.2,27.5-42.4,28-67.9h-36.4v1.9h0Z"/>
        <path d="M208.8,105.9l-32.2.6c-2.3-17.6-7.9-31.4-17.2-40.8l23.2-24.2c18,18.5,27.2,47.1,26.2,64.4M113.5,44.2l-.2-32.8c17.2-1.1,45.9,8.2,64.7,26.5l-23.5,23.7c-9.6-9.4-23.4-15.1-41-17.4M107.2,44.8h0c-13.4-.2-27.3,5.2-41.7,15.8l-22.6-23.6c11.7-12.7,39-25.8,65.1-25.6l-.8,33.4ZM44.1,106.5l-32.2-.6c-1.1-17.3,8.2-46,26.2-64.4l23.2,24.2c-9.3,9.5-14.9,23.2-17.2,40.8M61.8,152.7l-23,22.7c-13-11.2-26.6-37.6-27.1-63.3h33.3c.2,13.2,5.9,26.7,16.7,40.5M97.6.7C48.7,6.1,8.4,45,1.2,94c-5.3,36.5,7.2,70.1,30,93.7,2.7,2.8,7.2,2.7,9.9,0l30.3-29.7c2.7-2.7,2.8-7.1.2-9.9-11.5-12-17.7-29.1-14.1-47.8,4-20.9,20.5-38,41.3-42.3,34.7-7.2,65.3,19.2,65.3,52.8s0,.6,0,.9c3.7,2,7.6,4,11.1,5.9.2-1.8.4-3.7.4-5.5h33.3c-.4,25.6-14.1,52.1-27.1,63.3l-23-22.7c4.1-5.2,7.4-10.3,9.9-15.4-3.4-.6-7.1-1.3-10.7-2.1-2.4,4.8-5.6,9.1-9.2,12.9-2.6,2.7-2.6,7.1.1,9.8l29.5,30c2.7,2.8,7.2,2.9,9.9.1,19.6-20,31.7-47.3,31.7-77.5,0-65.2-56.1-117.2-122.5-109.9"/>
        <path d="M187.8,125.2h0c-3.3-3-33.8-18.8-40.1-22.1-5.3-48.1-73.3-45.6-75,2.9,0,34.8,42.9,51,65.6,25.1,6.7,1.4,38.3,8.2,44.7,8.2,2.2-.1,4-2.2,5.3-6.1,1.3-3.9,1.1-6.6-.4-8h0ZM109.9,137.9c-17.6,0-31.8-14.4-31.8-32.1,1.7-42.6,62-42.6,63.6,0,0,17.7-14.3,32.1-31.8,32.1M182.7,131.4c-.3.9-.6,1.6-.9,2.1-5.2-.4-24.9-4.3-38.8-7.3l2.1-6.1c.5-1.2.9-2.4,1.2-3.6l2.2-6.4c15.1,7.9,31,16.4,34.7,18.9,0,.5-.2,1.3-.5,2.3h0Z"/>
        <g>
          <path class="st4" d="M108.6,112.1c0,.7-.2,1.5-.5,2.5-.3.9-.9,1.9-1.7,2.8s-2.1,1.7-3.7,2.4c-1.6.6-3.7,1-6.1,1s-4.6-.3-6.2-1c-1.6-.6-2.8-1.4-3.7-2.4s-1.4-1.9-1.7-2.8c-.3-.9-.4-1.7-.4-2.5,0-1.5.4-3,1.3-4.4.9-1.4,2.1-2.4,3.6-3.2-1.2-.8-2.2-1.7-2.9-2.7-.7-1-1-2.3-1-3.9s.2-1.8.6-2.8c.4-1,1-1.9,1.8-2.9.8-.9,2-1.6,3.4-2.2,1.4-.6,3.1-.8,5.1-.8s3.8.3,5.2.8c1.4.6,2.5,1.3,3.4,2.2.9.9,1.5,1.8,1.8,2.8.3,1,.5,1.9.5,2.9,0,1.6-.3,2.9-1,3.9-.7,1-1.6,1.9-2.9,2.7,1,.5,1.9,1.2,2.6,1.9s1.3,1.6,1.7,2.6.6,2,.6,3ZM100.7,111.2c0-.9-.2-1.8-.6-2.4-.4-.7-.9-1.2-1.6-1.5-.6-.3-1.3-.5-1.9-.5-1,0-2,.4-2.8,1.2-.8.8-1.3,1.9-1.3,3.3s.4,2.6,1.3,3.4c.8.8,1.8,1.2,2.9,1.2s2-.4,2.8-1.3,1.2-1.9,1.2-3.3ZM99.8,98.5c0-1-.2-1.9-.7-2.8-.5-.9-1.3-1.3-2.4-1.3s-2,.4-2.5,1.3c-.5.8-.8,1.8-.8,2.8s.3,2.2,1,2.9c.6.8,1.4,1.1,2.2,1.1s1.6-.4,2.2-1.1c.6-.8,1-1.7,1-2.9Z"/>
          <path class="st4" d="M133.6,110.7c0,1.8-.4,3.4-1.2,4.9-.8,1.5-2,2.8-3.7,3.7s-3.6,1.4-6,1.4-3.7-.2-5.4-.7c-1.7-.5-3.3-1.2-4.8-2.2v-6.6c.9.7,2.3,1.4,4,2.1,1.7.7,3.2,1.1,4.5,1.1s2.6-.4,3.2-1.2c.6-.8.9-1.6.9-2.4s-.2-1.3-.5-2c-.4-.6-1-1.1-1.8-1.5-.9-.4-2-.6-3.5-.6s-3.1.3-4.6.9v-17.9h17.8v6.5h-11v5.3c.2,0,.5,0,.7,0,.3,0,.4,0,.6,0,.1,0,.3,0,.7,0,2.1,0,3.9.4,5.4,1.3s2.8,2,3.6,3.5c.8,1.4,1.2,3,1.2,4.7Z"/>
        </g>
      </g>
    </g>
  </g>
</svg>