<?xml version="1.0" encoding="UTF-8"?>
<svg id="Layer_2" xmlns="http://www.w3.org/2000/svg" xmlns:xlink="http://www.w3.org/1999/xlink" viewBox="0 0 220.14 190.14">
  <defs>
    <style>
      .cls-1 {
        fill: none;
      }

      .cls-2 {
        fill: #5eba45;
      }

      .cls-3 {
        fill: #faa31c;
      }

      .cls-4 {
        fill: #dbe021;
      }

      .cls-5 {
        fill: #fff;
      }

      .cls-6 {
        fill: #fce800;
      }

      .cls-7 {
        fill: #2f3334;
      }

      .cls-8 {
        fill: #ed1c26;
      }

      .cls-9 {
        clip-path: url(#clippath);
      }

      .cls-10 {
        fill: #f27321;
      }
    </style>
    <clipPath id="clippath">
      <rect class="cls-1" width="220.14" height="190.14"/>
    </clipPath>
  </defs>
  <g id="Capa_1">
    <g class="cls-9">
      <path class="cls-7" d="M144.88,103.35c-1.27-18.13-16.21-32.46-34.5-32.46s-34.62,15.65-34.62,34.95,15.5,34.95,34.62,34.95c9.2,0,17.54-3.65,23.74-9.55,17.23,2.87,51.44,5.34,56.69,5.75.26-.47,2.11-5.97,2.17-6.52-3.56-2.38-30.54-17.69-48.1-27.12"/>
      <path class="cls-4" d="M210.73,107.73c1.15-18.66-8.9-49.42-28.32-69.26l-25.15,26.06c10.03,10.17,16.14,24.92,18.6,43.89l34.87-.69Z"/>
      <path class="cls-6" d="M154.53,63.56l25.34-25.65c-20.29-19.72-51.22-29.88-69.8-28.66l.21,35.49c18.98,2.46,33.84,8.64,44.25,18.82"/>
      <path class="cls-3" d="M111.92,8.37c-28.87-.22-58.99,14.35-71.95,28.55l24.96,26.39c15.84-11.75,31.22-17.78,46.08-17.62l.91-37.33h0Z"/>
      <path class="cls-10" d="M63.38,64.53l-25.15-26.06c-19.42,19.84-29.47,50.6-28.32,69.26l34.87.69c2.47-18.97,8.56-33.72,18.6-43.89"/>
      <path class="cls-8" d="M39.08,178.37l24.91-24.42c-11.74-14.84-17.94-29.35-18.15-43.53H9.73c.48,27.54,15.29,55.92,29.35,67.95"/>
      <path class="cls-5" d="M96.97,99.81c0,.95.3,1.72.89,2.3.59.57,1.38.87,2.36.87.87,0,1.59-.29,2.15-.87.56-.58.84-1.32.84-2.24s-.29-1.72-.88-2.32c-.58-.6-1.33-.89-2.24-.89s-1.67.29-2.26.88c-.58.57-.87,1.33-.87,2.26M96.56,111.66c0,1.21.36,2.21,1.1,2.97.73.76,1.58,1.15,2.51,1.15s1.73-.4,2.45-1.18c.72-.78,1.08-1.77,1.08-2.97s-.36-2.21-1.08-2.98c-.74-.78-1.58-1.16-2.53-1.16s-1.77.38-2.48,1.12c-.71.75-1.05,1.77-1.05,3.05M93.55,105.22c-1.19-.63-2.07-1.35-2.62-2.14-.75-1.07-1.12-2.32-1.12-3.72,0-2.3,1.08-4.19,3.23-5.65,1.67-1.13,3.9-1.68,6.66-1.68,3.67,0,6.36.7,8.11,2.1,1.75,1.4,2.62,3.17,2.62,5.3,0,1.24-.35,2.4-1.04,3.47-.52.8-1.35,1.57-2.46,2.32,1.48.71,2.59,1.66,3.31,2.84.74,1.18,1.1,2.48,1.1,3.91s-.32,2.67-.94,3.86c-.63,1.19-1.39,2.12-2.32,2.77-.92.65-2.05,1.12-3.42,1.43-1.36.31-2.82.46-4.36.46-2.9,0-5.12-.35-6.65-1.03-1.53-.68-2.69-1.7-3.49-3.05-.8-1.34-1.19-2.83-1.19-4.49s.38-2.98,1.12-4.1c.75-1.12,1.9-1.99,3.46-2.6"/>
      <path class="cls-5" d="M131.68,92.02v27.96h-7.73v-18.32c-1.24.96-2.46,1.72-3.63,2.31-1.17.59-2.63,1.15-4.4,1.68v-6.27c2.6-.84,4.62-1.84,6.06-3.02,1.44-1.17,2.56-2.62,3.38-4.35h6.32Z"/>
      <path class="cls-2" d="M175.45,112.37c-.03,1.83-.19,3.67-.44,5.51,6.37,3.44,11.62,6.42,12.8,7.48,1.58,1.42,1.73,4.1.45,7.95-1.29,3.94-3.08,5.98-5.3,6.08h-.27c-2.16,0-7.63-.85-14.05-2.02-2.61,5.09-5.92,10.21-10.01,15.38l25.24,25.63c13.04-11.16,27.53-42.4,27.98-67.95h-36.39v1.95Z"/>
      <path d="M208.79,105.86l-32.24.64c-2.27-17.64-7.92-31.36-17.19-40.82l23.25-24.24c17.96,18.46,27.24,47.07,26.18,64.42M113.47,44.19l-.19-32.77c17.23-1.13,45.92,8.25,64.74,26.47l-23.5,23.69c-9.65-9.41-23.44-15.1-41.04-17.38M107.21,44.78h0c-13.44-.15-27.35,5.24-41.68,15.78l-22.58-23.64c11.73-12.73,38.96-25.78,65.08-25.58l-.82,33.44ZM44.14,106.5l-32.24-.64c-1.06-17.35,8.22-45.96,26.18-64.42l23.25,24.24c-9.28,9.46-14.91,23.18-17.19,40.83M61.84,152.72l-22.96,22.74c-12.96-11.21-26.61-37.64-27.06-63.28h33.29c.19,13.2,5.9,26.72,16.73,40.54M97.62.69C48.71,6.09,8.36,45.05,1.22,93.97c-5.33,36.52,7.22,70.15,30.04,93.69,2.68,2.76,7.17,2.67,9.92-.03l30.29-29.69c2.74-2.69,2.83-7.09.17-9.86-11.51-11.97-17.69-29.11-14.1-47.82,4-20.88,20.55-37.95,41.26-42.26,34.72-7.22,65.26,19.22,65.26,52.84,0,.3-.02.6-.03.9,3.71,1.96,7.57,4.03,11.1,5.95.25-1.85.41-3.69.44-5.53h33.29c-.45,25.65-14.1,52.08-27.06,63.28l-22.96-22.74c4.07-5.19,7.36-10.33,9.95-15.43-3.41-.62-7.1-1.33-10.7-2.05-2.44,4.76-5.56,9.13-9.25,12.95-2.65,2.74-2.58,7.1.1,9.82l29.54,30c2.71,2.76,7.21,2.9,9.91.15,19.58-19.96,31.73-47.29,31.73-77.53C220.14,45.41,163.98-6.63,97.62.69"/>
      <path d="M187.83,125.17h0c-3.04-2.78-33.56-18.66-39.65-21.82l-.49-.25c-1.48-19.55-17.67-34.97-37.43-34.97-20.75,0-37.56,16.96-37.56,37.88s16.81,37.88,37.56,37.88c11.17,0,21.2-4.92,28.08-12.74l.26.06c6.38,1.37,38.1,8.12,44.13,8.12h.27c2.21-.1,3.98-2.17,5.27-6.13,1.27-3.89,1.12-6.58-.45-8.02h0ZM109.95,137.9c-17.58,0-31.82-14.38-31.82-32.12s14.24-32.12,31.82-32.12,31.82,14.38,31.82,32.12-14.25,32.12-31.82,32.12M182.69,131.36c-.3.93-.62,1.62-.86,2.05-5.25-.41-24.92-4.34-38.76-7.27l2.06-6.06c.46-1.17.87-2.37,1.22-3.59l2.16-6.36c15.13,7.89,31.02,16.43,34.72,18.9-.06.51-.21,1.31-.54,2.31h0Z"/>
    </g>
  </g>
</svg>