<?xml version="1.0" encoding="UTF-8"?>
<svg id="Layer_1" xmlns="http://www.w3.org/2000/svg" version="1.1" viewBox="0 0 500 530.8">
  <!-- Generator: Adobe Illustrator 30.1.0, SVG Export Plug-In . SVG Version: 2.1.1 Build 136)  -->
  <defs>
    <style>
      .st0 {
        fill: #253885;
      }
    </style>
  </defs>
  <path class="st0" d="M471.2,389.3c-9.7-5.2-21-6-31.3-2.3l-101.3,36.3c.5-1.5.8-3.1,1.1-4.7,1.8-11.3-1.3-22.6-8.6-31.1-7.3-8.6-17.9-13.5-29.1-13.5h-56.1c-12.9,0-25.3-4.5-36-13-24.4-19.5-73.9-45.2-138.7-9.3v-12c0-9.3-7.5-16.8-16.8-16.8H16.8c-9.3,0-16.8,7.5-16.8,16.8v161.9c0,9.3,7.5,16.8,16.8,16.8h37.8c9.3,0,16.8-7.5,16.8-16.8v-7.2c12.6,0,43.3,1.8,87.8,19.2,28.8,11.3,58.8,17,88.8,17s33.2-1.8,49.4-5.3c44.8-9.8,111.8-29.7,176.1-69.1,8.7-5.3,14.9-14.1,17.3-24.2,4-16.8-3.9-34.4-19.5-42.8h0ZM56.8,501.8c0,1.2-1,2.2-2.2,2.2H16.8c-1.2,0-2.2-1-2.2-2.2v-161.8c0-1.2,1-2.2,2.2-2.2h37.8c1.2,0,2.2,1,2.2,2.2v161.8ZM476.5,428.9c-1.5,6.3-5.3,11.8-10.8,15.1-62.7,38.3-127.9,57.8-171.6,67.3-42.8,9.3-87.6,5.5-129.8-11-45.1-17.7-77.2-20.3-92-20.3h-1.1v-111.3c61-37.8,107.3-13.9,129.6,3.9,13.1,10.4,29.1,16.2,45.1,16.2h56.1c6.9,0,13.5,3,18,8.3,4.6,5.3,6.4,12.3,5.3,19.3-1.1,6.6-5.3,12.3-11,15.8-.4.2-.9.4-1.3.8-3.8,2-8.1,3.2-12.7,3.2h-68.5c-4,0-7.3,3.3-7.3,7.3s3.3,7.3,7.3,7.3h68.5c7.3,0,14.1-1.8,20-5.2l124.4-44.6c6.3-2.3,13.4-1.8,19.7,1.6,9.6,4.9,14.5,15.8,12,26.3h0Z"/>
  <path class="st0" d="M155.8,320.5h50c4,0,7.3-3.3,7.3-7.3v-100c0-4-3.3-7.3-7.3-7.3h-50c-4,0-7.3,3.3-7.3,7.3v100c0,4.1,3.3,7.3,7.3,7.3ZM163.1,220.5h35.4v85.4h-35.4v-85.4Z"/>
  <path class="st0" d="M289.3,320.5c4,0,7.3-3.3,7.3-7.3v-58.3c0-4-3.3-7.3-7.3-7.3h-50c-4,0-7.3,3.3-7.3,7.3v58.3c0,4,3.3,7.3,7.3,7.3h50ZM246.5,262.2h35.4v43.7h-35.4v-43.7Z"/>
  <path class="st0" d="M372.6,320.5c4,0,7.3-3.3,7.3-7.3v-141.7c0-4-3.3-7.3-7.3-7.3h-50c-4,0-7.3,3.3-7.3,7.3v141.7c0,4,3.3,7.3,7.3,7.3h50ZM329.9,178.8h35.4v127.1h-35.4v-127.1Z"/>
  <path class="st0" d="M456,320.5c4,0,7.3-3.3,7.3-7.3v-183.3c0-4-3.3-7.3-7.3-7.3h-50c-4,0-7.3,3.3-7.3,7.3v183.3c0,4,3.3,7.3,7.3,7.3h50ZM413.4,137.1h35.4v168.8h-35.4v-168.8Z"/>
  <path class="st0" d="M497.9,2.1c-2.8-2.8-7.5-2.8-10.3,0l-41.3,41.3c-4.4-2.8-9.6-4.5-15.2-4.5-13.7,0-25,9.8-27.6,22.7h-24.2c-2.5-12.9-13.9-22.7-27.5-22.7s-28.2,12.6-28.2,28.2,1.2,8.7,3.1,12.5l-50,49.9c-3.8-1.9-8-3.1-12.5-3.1s-11,1.8-15.4,4.7l-43.6-43.6c2.3-4.1,3.8-8.8,3.8-13.8,0-15.5-12.6-28.2-28.2-28.2s-28.2,12.6-28.2,28.2,12.6,28.2,28.2,28.2,10-1.5,14.2-4l44.2,44.2c-1.9,3.8-3.1,8-3.1,12.5,0,15.5,12.6,28.2,28.2,28.2s28.2-12.6,28.2-28.2-1.8-11-4.7-15.4l48.6-48.6c4.4,2.9,9.8,4.7,15.4,4.7,12.3,0,22.7-8,26.5-19h26.3c3.8,11,14.2,19,26.5,19s28.2-12.6,28.2-28.2-1.3-8.9-3.3-12.8l41.9-41.9c2.8-2.9,2.8-7.5,0-10.3h0ZM180.8,87.3c-7.5,0-13.6-6.1-13.6-13.6s6.1-13.6,13.6-13.6,13.6,6.1,13.6,13.6-6.2,13.6-13.6,13.6ZM264.3,168.1c-7.5,0-13.6-6.1-13.6-13.6s6.1-13.6,13.6-13.6,13.6,6.1,13.6,13.6-6.2,13.6-13.6,13.6ZM351.8,80.6c-7.5,0-13.6-6.1-13.6-13.6s6.1-13.6,13.6-13.6,13.6,6.1,13.6,13.6-6.2,13.6-13.6,13.6ZM431,80.6c-7.5,0-13.6-6.1-13.6-13.6s6.1-13.6,13.6-13.6,13.6,6.1,13.6,13.6-6.1,13.6-13.6,13.6Z"/>
</svg>