<?xml version="1.0" encoding="UTF-8"?>
<svg id="Layer_1" xmlns="http://www.w3.org/2000/svg" version="1.1" viewBox="0 0 500 575.2">
  <!-- Generator: Adobe Illustrator 30.1.0, SVG Export Plug-In . SVG Version: 2.1.1 Build 136)  -->
  <defs>
    <style>
      .st0, .st1 {
        fill: none;
      }

      .st2 {
        fill: #253885;
      }

      .st1 {
        stroke: #253885;
        stroke-linecap: round;
        stroke-linejoin: round;
      }
    </style>
  </defs>
  <path class="st0" d="M225.9,551.1c0,4.5,3.7,8.2,8.2,8.2h31.9c4.5,0,8.2-3.7,8.2-8.2h0v-3.7h-48.2v3.7Z"/>
  <path class="st0" d="M218.3,144.7c-8.7,4.2-14,13.5-13.1,23.1.9,9.6,7.7,17.8,17,20.4,4.3,1.2,6.7,5.6,5.6,9.8-1,3.5-4.2,5.8-7.7,5.8s-1.4,0-2.1-.3c-15.7-4.4-27.2-18.2-28.6-34.4-.1-1.3-.1-2.7-.1-4-7.4,3.5-12.9,8.9-16,15.6-4.3,9.4-3.6,20.5,2.2,31.3,2.1,3.9.6,8.7-3.3,10.8-1.2.6-2.5.9-3.7.9-2.9,0-5.6-1.5-7.1-4.3-2.1-4-3.7-8.1-4.8-12.2-4.6,4-8.1,9.5-10.1,16.1-2.3,7.7-2.4,15.9-.3,23.3,2.4-2.1,5.1-3.9,8-5.3,4-1.9,8.8-.3,10.7,3.7s.3,8.8-3.7,10.7c-2.2,1.1-4.2,2.5-6,4.3-5.5,5.7-7.2,13.8-4.7,21.2,1.3,3.8,3.6,7,6.6,9.4,1.1-3.5,2.5-6.9,4.3-10.3,2.1-3.9,6.9-5.4,10.8-3.3,3.9,2.1,5.4,6.9,3.3,10.8-5.7,10.8-6.5,21.9-2.2,31.3,3.1,6.7,8.7,12.1,16,15.6,0-1.3,0-2.7.1-4,1.4-16.2,12.9-30,28.6-34.4,4.3-1.2,8.7,1.3,9.8,5.6,1.2,4.3-1.3,8.7-5.6,9.8-9.3,2.6-16.1,10.8-17,20.4-.9,9.6,4.4,18.9,13.1,23.1h0c7.7,3.7,16.9,2.8,23.7-2.1v-15.7c-3.6,2.4-7.8,4.2-12.6,5-.5,0-.9.1-1.4.1-3.8,0-7.2-2.8-7.9-6.6-.7-4.3,2.2-8.5,6.5-9.2,9.9-1.7,15.2-11.7,15.2-20.2v-159.8c-6.8-4.9-16-5.8-23.7-2.1ZM212.5,275.1c-1.5,1.2-3.3,1.8-5.1,1.8s-4.6-1-6.2-2.9c-2.8-3.4-2.3-8.5,1.1-11.2,3.8-3.1,6-7.8,6-12.7s-2.2-9.6-6-12.7c-3.4-2.8-3.9-7.8-1.1-11.2,2.8-3.4,7.8-3.9,11.2-1.1,7.6,6.2,11.9,15.3,11.9,25.1h0c0,9.8-4.3,18.9-11.9,25.1Z"/>
  <path class="st0" d="M343.7,207.3c-1.1,4.1-2.7,8.2-4.8,12.2-1.4,2.7-4.2,4.3-7.1,4.3s-2.5-.3-3.7-.9c-3.9-2.1-5.4-6.9-3.3-10.8,5.7-10.8,6.5-21.9,2.2-31.3-3.1-6.7-8.7-12.1-16-15.6,0,1.3,0,2.7-.1,4-1.4,16.2-12.9,30-28.6,34.4-4.2,1.2-8.7-1.3-9.8-5.6-1.2-4.3,1.3-8.7,5.6-9.8,9.3-2.6,16.1-10.8,17-20.4s-4.4-18.9-13.1-23.1c-7.7-3.7-16.9-2.8-23.7,2.1v15.7c3.6-2.4,7.8-4.2,12.6-5,4.4-.7,8.5,2.2,9.2,6.5.7,4.3-2.2,8.5-6.5,9.2-9.9,1.7-15.2,11.7-15.2,20.2v159.8c6.8,4.9,16,5.8,23.7,2.1,8.7-4.2,14-13.5,13.1-23.1-.9-9.6-7.7-17.8-17-20.4-4.3-1.2-6.7-5.6-5.6-9.8,1.2-4.3,5.6-6.7,9.8-5.6,15.7,4.4,27.2,18.2,28.6,34.4.1,1.3.1,2.7.1,4,7.3-3.5,12.8-8.8,16-15.4,4.4-9.4,3.7-20.5-2.1-31.4h0c-2.1-3.9-.6-8.7,3.3-10.8,3.9-2.1,8.7-.6,10.8,3.3,1.8,3.4,3.2,6.8,4.3,10.3,3-2.4,5.3-5.7,6.6-9.4,2.6-7.4.8-15.6-4.7-21.2-1.7-1.8-3.7-3.2-6-4.3-4-1.9-5.6-6.7-3.7-10.7,1.9-4,6.7-5.6,10.7-3.7,2.9,1.4,5.6,3.2,8,5.3,2.1-7.4,2.1-15.5-.2-23.2-2-6.6-5.5-12.2-10.2-16.3ZM297.6,262.7c3.4,2.8,3.9,7.8,1.1,11.2-1.6,1.9-3.9,2.9-6.2,2.9s-3.6-.6-5.1-1.8c-7.6-6.2-11.9-15.3-11.9-25.1s4.3-18.9,11.9-25.1c3.4-2.8,8.4-2.3,11.2,1.1,2.8,3.4,2.3,8.4-1.1,11.2-3.8,3.1-6,7.8-6,12.7h0c0,5,2.2,9.6,6,12.7Z"/>
  <path class="st0" d="M481.2,215.7l-33.3-6.6c-2.6-.5-4.8-2.3-5.8-4.8l-24-57.9c-1-2.5-.7-5.3.7-7.5l18.9-28.2c1-1.4.8-3.2-.4-4.4l-43.6-43.6c-1.2-1.2-3-1.4-4.4-.4l-28.2,18.9c-2.2,1.5-5,1.8-7.5.7l-57.9-24c-2.5-1-4.3-3.2-4.8-5.8l-6.6-33.3c-.3-1.7-1.7-2.8-3.4-2.8h-61.7c-1.7,0-3.1,1.1-3.4,2.8l-6.6,33.3c-.5,2.6-2.3,4.8-4.8,5.8l-57.9,24c-2.5,1-5.3.7-7.5-.7l-28.2-18.9c-1.4-1-3.2-.8-4.4.4l-43.6,43.6c-1.2,1.2-1.4,3-.4,4.4l18.9,28.2c1.5,2.2,1.8,5,.7,7.5l-24,57.9c-1,2.5-3.2,4.3-5.8,4.8l-33.3,6.6c-1.7.3-2.8,1.7-2.8,3.4v61.7c0,1.7,1.1,3.1,2.8,3.4l33.3,6.6c2.6.5,4.8,2.3,5.8,4.8l24,57.9c1,2.5.7,5.3-.7,7.5l-18.9,28.2c-1,1.4-.8,3.2.4,4.4l43.6,43.6c1.2,1.2,3,1.4,4.4.4l28.2-18.9c2.2-1.5,5-1.8,7.5-.7l19.1,7.9v-6.6c-2.8-20.2-12.1-37.8-27.6-52.4-33.2-31.2-51.4-73.5-51.4-119,0-90.1,73.3-163.5,163.5-163.5s163.5,73.3,163.5,163.5-18.3,87.8-51.4,119c-15.5,14.6-24.8,32.2-27.6,52.4v6.6l19.1-7.9c2.5-1,5.3-.7,7.5.7l28.2,18.9c1.4,1,3.2.8,4.4-.4l43.6-43.6c1.2-1.2,1.4-3,.4-4.4l-18.9-28.2c-1.5-2.2-1.8-5-.7-7.5l24-57.9c1-2.5,3.2-4.3,5.8-4.8l33.3-6.6c1.7-.3,2.8-1.7,2.8-3.4h0s0-61.7,0-61.7c0-1.7-1.1-3.1-2.8-3.4Z"/>
  <path class="st0" d="M351.1,355.3c29.9-28.2,46.4-66.3,46.4-107.4,0-81.3-66.2-147.5-147.5-147.5S102.5,166.6,102.5,247.9s16.5,79.2,46.4,107.4c18.4,17.3,29.3,38.3,32.5,62.4,0,.3,0,.7,0,1.1v14.4c0,7.3,5.9,13.2,13.2,13.2h110.6c7.3,0,13.2-5.9,13.2-13.2v-14.4h0c0-.4,0-.7,0-1.1,3.2-24.1,14.1-45.1,32.5-62.4ZM341.3,326.2c-6.4,13.6-18.9,23.2-35.4,27.3-3.9,6.9-9.8,12.7-17.2,16.2-5.4,2.6-11.2,3.8-17,3.8s-15.2-2.2-21.7-6.5c-6.5,4.3-14.1,6.5-21.7,6.5s-11.6-1.3-17-3.8c-7.4-3.6-13.3-9.3-17.2-16.3-16.6-4.1-29.2-13.8-35.6-27.5-2.6-5.6-3.9-11.7-4.1-17.9-9.1-4.2-16-11.8-19.3-21.4-2.8-8-2.7-16.5,0-24.2-7.1-12.8-8.8-29-4.3-43.6,4-13.2,12.4-23.6,23.7-29.5.5-5.3,1.8-10.4,4-15.2,6.3-13.7,18.9-23.4,35.5-27.5,3.9-6.9,9.8-12.7,17.2-16.3,12.5-6,27.3-4.8,38.6,2.6,11.4-7.5,26.1-8.7,38.6-2.6,7.4,3.6,13.3,9.3,17.2,16.3,16.6,4.1,29.2,13.8,35.6,27.5,2.2,4.8,3.5,9.9,4,15.2,11.4,6,19.8,16.4,23.8,29.7,4.4,14.6,2.7,30.7-4.4,43.4,2.7,7.7,2.8,16.2,0,24.2h0c-3.3,9.4-10.3,17.2-19.3,21.4-.2,6.4-1.6,12.5-4.3,18.2Z"/>
  <line class="st1" x1="299.6" y1="531.4" x2="299.6" y2="531.4"/>
  <path class="st2" d="M484.3,200l-29.1-5.7-20.7-50,16.5-24.6c5.2-7.8,4.3-18-2.4-24.6l-43.6-43.6c-6.7-6.7-16.8-7.7-24.6-2.4l-24.6,16.5-50-20.7-5.7-29.1c-1.8-9.2-9.7-15.7-19.1-15.7h-61.7c-9.4,0-17.3,6.5-19.1,15.7l-5.7,29.1-50,20.7-24.6-16.5c-7.8-5.3-18-4.3-24.6,2.4l-43.6,43.6c-6.7,6.7-7.7,16.8-2.4,24.6l16.5,24.6-20.7,50-29.1,5.7c-9.2,1.8-15.7,9.7-15.7,19.1v61.7c0,9.4,6.5,17.3,15.7,19.1l29.1,5.7,20.7,50-16.5,24.6c-5.2,7.8-4.3,18,2.4,24.6l43.6,43.6c6.7,6.7,16.8,7.7,24.6,2.4l24.6-16.5,23.4,9.7c4.3,10.7,14.8,18.2,27,18.2h110.6c12.2,0,22.7-7.6,27-18.2l23.4-9.7,24.6,16.5c3.4,2.3,7.1,3.4,10.9,3.4s9.9-2,13.7-5.8l43.6-43.6c6.7-6.7,7.7-16.8,2.4-24.6l-16.5-24.6,20.7-50,29.1-5.7c9.2-1.8,15.7-9.7,15.7-19.1v-61.7c0-9.4-6.5-17.3-15.7-19.1ZM318.5,417.7c0,.3,0,.7,0,1.1h0v14.4c0,7.3-5.9,13.2-13.2,13.2h-110.6c-7.3,0-13.2-5.9-13.2-13.2v-14.4c0-.4,0-.7,0-1.1-3.2-24.1-14.1-45.1-32.5-62.4-29.9-28.2-46.4-66.3-46.4-107.4,0-81.3,66.2-147.5,147.5-147.5s147.5,66.2,147.5,147.5-16.5,79.2-46.4,107.4c-18.4,17.3-29.3,38.3-32.5,62.4ZM484,280.9h0c0,1.7-1.1,3.1-2.8,3.4l-33.3,6.6c-2.6.5-4.8,2.3-5.8,4.8l-24,57.9c-1,2.5-.7,5.3.7,7.5l18.9,28.2c1,1.4.8,3.2-.4,4.4l-43.6,43.6c-1.2,1.2-3,1.4-4.4.4l-28.2-18.9c-2.2-1.5-5-1.8-7.5-.7l-19.1,7.9v-6.6c2.8-20.2,12.1-37.8,27.6-52.4,33.2-31.2,51.4-73.5,51.4-119,0-90.1-73.3-163.5-163.5-163.5S86.5,157.8,86.5,247.9s18.3,87.8,51.4,119c15.5,14.6,24.8,32.2,27.6,52.4v6.6l-19.1-7.9c-2.5-1-5.3-.7-7.5.7l-28.2,18.9c-1.4,1-3.2.8-4.4-.4l-43.6-43.6c-1.2-1.2-1.4-3-.4-4.4l18.9-28.2c1.5-2.2,1.8-5,.7-7.5l-24-57.9c-1-2.5-3.2-4.3-5.8-4.8l-33.3-6.6c-1.7-.3-2.8-1.7-2.8-3.4v-61.7c0-1.7,1.1-3.1,2.8-3.4l33.3-6.6c2.6-.5,4.8-2.3,5.8-4.8l24-57.9c1-2.5.7-5.3-.7-7.5l-18.9-28.2c-1-1.4-.8-3.2.4-4.4l43.6-43.6c1.2-1.2,3-1.4,4.4-.4l28.2,18.9c2.2,1.5,5,1.8,7.5.7l57.9-24c2.5-1,4.3-3.2,4.8-5.8l6.6-33.3c.3-1.7,1.7-2.8,3.4-2.8h61.7c1.7,0,3.1,1.1,3.4,2.8l6.6,33.3c.5,2.6,2.3,4.8,4.8,5.8l57.9,24c2.5,1,5.3.7,7.5-.7l28.2-18.9c1.4-1,3.2-.8,4.4.4l43.6,43.6c1.2,1.2,1.4,3,.4,4.4l-18.9,28.2c-1.5,2.2-1.8,5-.7,7.5l24,57.9c1,2.5,3.2,4.3,5.8,4.8l33.3,6.6c1.7.3,2.8,1.7,2.8,3.4v61.7Z"/>
  <g>
    <path class="st2" d="M364.9,286.6h0c2.8-8,2.7-16.5,0-24.2,7.1-12.8,8.7-28.8,4.4-43.4-4-13.3-12.4-23.7-23.8-29.7-.5-5.3-1.8-10.4-4-15.2-6.3-13.7-18.9-23.4-35.6-27.5-3.9-6.9-9.8-12.7-17.2-16.3-12.5-6-27.3-4.8-38.6,2.6-11.4-7.5-26.1-8.7-38.6-2.6-7.4,3.6-13.3,9.3-17.2,16.3-16.6,4.1-29.2,13.8-35.5,27.5-2.2,4.8-3.5,9.9-4,15.2-11.3,5.9-19.7,16.3-23.7,29.5-4.5,14.7-2.8,30.8,4.3,43.6-2.7,7.7-2.8,16.2,0,24.2,3.3,9.5,10.2,17.2,19.3,21.4.2,6.2,1.5,12.3,4.1,17.9,6.3,13.7,18.9,23.4,35.6,27.5,3.9,6.9,9.8,12.7,17.2,16.3,5.4,2.6,11.2,3.8,17,3.8s15.2-2.2,21.7-6.5c6.5,4.3,14.1,6.5,21.7,6.5s11.6-1.3,17-3.8c7.4-3.6,13.3-9.3,17.2-16.2,16.5-4.1,29.1-13.7,35.4-27.3,2.7-5.7,4.1-11.9,4.3-18.2,9-4.2,16-11.9,19.3-21.4ZM242,306.6c0,8.5-5.3,18.5-15.2,20.2-4.3.7-7.3,4.9-6.5,9.2.7,3.9,4,6.6,7.9,6.6s.9,0,1.4-.1c4.8-.8,8.9-2.6,12.6-5v15.7c-6.8,4.9-16,5.8-23.7,2.1h0c-8.7-4.2-14-13.5-13.1-23.1.9-9.6,7.7-17.8,17-20.4,4.3-1.2,6.7-5.6,5.6-9.8-1.2-4.3-5.6-6.7-9.8-5.6-15.7,4.4-27.2,18.2-28.6,34.4-.1,1.3-.1,2.7-.1,4-7.4-3.5-12.9-8.9-16-15.6-4.3-9.3-3.5-20.4,2.2-31.3,2.1-3.9.6-8.7-3.3-10.8-3.9-2.1-8.7-.6-10.8,3.3-1.8,3.4-3.2,6.8-4.3,10.3-3-2.4-5.3-5.7-6.6-9.4-2.6-7.4-.8-15.6,4.7-21.2,1.7-1.8,3.7-3.2,6-4.3,4-1.9,5.6-6.7,3.7-10.7s-6.7-5.6-10.7-3.7c-2.9,1.4-5.6,3.2-8,5.3-2.1-7.4-2.1-15.6.3-23.3,2-6.6,5.5-12.1,10.1-16.1,1.1,4.1,2.7,8.2,4.8,12.2,1.4,2.7,4.2,4.3,7.1,4.3s2.5-.3,3.7-.9c3.9-2.1,5.4-6.9,3.3-10.8-5.7-10.8-6.5-21.9-2.2-31.3,3.1-6.7,8.7-12,16-15.6,0,1.3,0,2.7.1,4,1.4,16.2,12.9,30,28.6,34.4.7.2,1.4.3,2.1.3,3.5,0,6.7-2.3,7.7-5.8,1.2-4.3-1.3-8.7-5.6-9.8-9.3-2.6-16.1-10.8-17-20.4-.9-9.6,4.4-18.9,13.1-23.1,7.7-3.7,16.9-2.8,23.7,2.1v159.8ZM354.1,246.7c-2.4-2.1-5.1-3.9-8-5.3-4-1.9-8.8-.3-10.7,3.7-1.9,4-.3,8.8,3.7,10.7,2.2,1.1,4.2,2.5,6,4.3,5.5,5.7,7.2,13.8,4.7,21.2-1.3,3.7-3.6,7-6.6,9.4-1.1-3.5-2.5-6.9-4.3-10.3-2.1-3.9-6.9-5.4-10.8-3.3-3.9,2.1-5.4,6.9-3.3,10.8h0c5.8,10.9,6.5,22,2.1,31.4-3.1,6.7-8.6,11.9-16,15.4,0-1.3,0-2.7-.1-4-1.4-16.2-12.9-30-28.6-34.4-4.3-1.2-8.7,1.3-9.8,5.6-1.2,4.3,1.3,8.7,5.6,9.8,9.3,2.6,16.1,10.8,17,20.4.9,9.6-4.4,18.9-13.1,23.1-7.7,3.7-16.9,2.8-23.7-2.1v-159.8c0-8.5,5.3-18.5,15.2-20.2,4.3-.7,7.3-4.9,6.5-9.2-.7-4.3-4.9-7.3-9.2-6.5-4.8.8-8.9,2.6-12.6,5v-15.7c6.8-4.9,16-5.8,23.7-2.1,8.7,4.2,14,13.5,13.1,23.1s-7.7,17.8-17,20.4c-4.3,1.2-6.7,5.6-5.6,9.8,1.2,4.3,5.6,6.7,9.8,5.6,15.7-4.4,27.2-18.2,28.6-34.4.1-1.3.1-2.7.1-4,7.4,3.5,12.9,8.9,16,15.6,4.3,9.4,3.5,20.5-2.2,31.3-2.1,3.9-.6,8.7,3.3,10.8,1.2.6,2.5.9,3.7.9,2.9,0,5.6-1.5,7.1-4.3,2.1-4,3.7-8.1,4.8-12.2,4.7,4.1,8.2,9.6,10.2,16.3,2.3,7.6,2.3,15.8.2,23.2Z"/>
    <path class="st2" d="M297.6,237.3c3.4-2.8,3.9-7.8,1.1-11.2-2.8-3.4-7.8-3.9-11.2-1.1-7.6,6.2-11.9,15.3-11.9,25.1s4.3,18.9,11.9,25.1c1.5,1.2,3.3,1.8,5.1,1.8s4.6-1,6.2-2.9c2.8-3.4,2.3-8.4-1.1-11.2-3.8-3.1-6-7.8-6-12.7h0c0-5,2.2-9.6,6-12.7Z"/>
    <path class="st2" d="M212.5,224.9c-3.4-2.8-8.4-2.3-11.2,1.1-2.8,3.4-2.3,8.4,1.1,11.2,3.8,3.1,6,7.8,6,12.7s-2.2,9.6-6,12.7c-3.4,2.8-3.9,7.8-1.1,11.2,1.6,1.9,3.9,2.9,6.2,2.9s3.6-.6,5.1-1.8c7.6-6.2,11.9-15.3,11.9-25.1h0c0-9.8-4.3-18.9-11.9-25.1Z"/>
  </g>
  <g>
    <path class="st2" d="M312.1,474.6h-124.3c-4.4,0-8,3.6-8,8s3.6,8,8,8h124.3c4.4,0,8-3.6,8-8s-3.6-8-8-8Z"/>
    <path class="st2" d="M299.6,531.4h-99.2c-4.4,0-8,3.6-8,8s3.6,8,8,8h9.5v3.7c0,13.3,10.8,24.1,24.1,24.1h31.9c13.3,0,24.1-10.8,24.1-24.1v-3.7h9.5c4.4,0,8-3.6,8-8s-3.6-8-8-8ZM274.1,551.1h0c0,4.5-3.7,8.2-8.2,8.2h-31.9c-4.5,0-8.2-3.7-8.2-8.2v-3.7h48.2v3.7Z"/>
    <path class="st2" d="M312.1,503h-124.3c-4.4,0-8,3.6-8,8s3.6,8,8,8h124.3c4.4,0,8-3.6,8-8s-3.6-8-8-8Z"/>
  </g>
</svg>