<?xml version="1.0" encoding="UTF-8"?>
<svg xmlns="http://www.w3.org/2000/svg" version="1.1" viewBox="0 0 492.3 492.3">
  <defs>
    <style>
      .cls-1 {
        fill: #f7ede5;
      }

      .cls-2 {
        fill: #f8bdff;
      }

      .cls-3 {
        fill: #412945;
      }

      .cls-4 {
        fill: #b5e1e8;
      }

      .cls-5 {
        fill: #e36352;
      }

      .cls-6 {
        fill: #ffc063;
      }

      .cls-7 {
        fill: #6e72ff;
      }
    </style>
  </defs>
  <!-- Generator: Adobe Illustrator 28.7.1, SVG Export Plug-In . SVG Version: 1.2.0 Build 142)  -->
  <g>
    <g id="Capa_1">
      <g>
        <path class="cls-7" d="M492.3,246.2c0,135.9-110.2,246.2-246.2,246.2s-70.9-7.9-102-22.1c-85-38.8-61.9-83.4-61.9-182.9S0,240.7.1,237.9C4.5,105.8,113,0,246.2,0s28.5,1.2,42.2,3.6c41.2,7.1,49.7,73.3,81.2,98.2,27.5,21.8,79.5.5,95.7,32,17.3,33.7,27.1,71.9,27.1,112.3Z"/>
        <g>
          <path class="cls-2" d="M465.3,133.8c-7.1,11.8-17,21.7-29.1,28.1-25.3,13.3-59.5,9.2-79-11.7-8.8-9.4-15.3-22.1-27.3-26.6-14.6-5.5-30.6,3.5-46.2,3.1-16.4-.5-31.4-12-38-27-6.7-15-5.7-32.7.5-47.9,6.2-15.2,17.1-28.1,29.7-38.7,4-3.4,8.2-6.6,12.6-9.5,77.3,13.4,142.2,62.7,176.9,130.2Z"/>
          <path class="cls-2" d="M207.5,401.2c-1.4,25.4-16.7,49.9-39.4,61.5-7.5,3.8-15.6,6.2-23.9,7.6C59.1,431.5,0,345.7,0,246.2s0-5.5.1-8.2c8.4-2.6,17.7-4.2,24.9-5.3,13.7-2,28.2-.6,40,6.6,11.8,7.2,20.1,20.9,18.4,34.6-1,7.7-4.9,14.7-6.7,22.2s-1,16.7,5.4,21.1c6.3,4.4,14.9,2.1,22.4.6,25-5.1,52.2.9,72.2,16.6,20,15.8,32.2,41.4,30.8,66.8Z"/>
          <g>
            <g>
              <polygon class="cls-1" points="416.6 237.4 416.6 406.5 73.7 406.5 73.7 237.4 247.4 215.2 416.6 237.4"/>
              <rect class="cls-5" x="73.7" y="193.1" width="342.9" height="44.3"/>
            </g>
            <g>
              <path class="cls-3" d="M397.9,252.7s0,0,0,0c0,0,0-.1,0-.2,0,0,0,0,0-.1,0,0,0-.1,0-.2,0,0,0-.1,0-.1,0,0,0,0,0-.1,0,0,0-.1,0-.2,0,0,0,0,0,0,0,0,0-.1-.1-.2,0,0,0,0,0,0,0,0,0,0,0,0,0,0,0,0-.1-.1,0,0,0,0-.1,0,0,0,0,0-.1,0,0,0-.1,0-.2,0,0,0,0,0-.1,0,0,0-.1,0-.2,0,0,0,0,0-.1,0h-134.6s0,0-.1,0c0,0-.1,0-.2,0,0,0-.1,0-.2,0,0,0,0,0-.1,0,0,0-.1,0-.2,0,0,0,0,0-.1,0,0,0,0,0-.1.1,0,0,0,0,0,0,0,0,0,0,0,0,0,0,0,0-.1.1,0,0,0,0,0,.1,0,0,0,0,0,.1,0,0,0,0,0,.1,0,0,0,0,0,.1,0,0,0,.1,0,.2,0,0,0,0,0,.1,0,0,0,.1,0,.2,0,0,0,0,0,0v142.9c0,.9.7,1.6,1.6,1.6h134.6c.2,0,.4,0,.5-.1,0,0,0,0,0,0,.2,0,.3-.2.5-.3,0,0,0,0,0,0,0,0,0,0,0,0,0,0,0,0,.1-.1,0,0,0,0,0-.1,0,0,0,0,0-.1,0,0,0,0,0-.1,0,0,0,0,0-.1,0,0,0-.1,0-.2,0,0,0,0,0-.1,0,0,0-.1,0-.2s0,0,0,0v-142.8h0ZM263.3,256.7l63.3,67.2-63.3,66.9v-134.1ZM265.4,254.3h127.2l-63.7,67.3-63.4-67.3ZM328.8,326.3l63.8,67.6h-127.8l64.1-67.6ZM331,324l63.7-67.2v134.8l-63.7-67.5Z"/>
              <g>
                <path class="cls-3" d="M227.6,309.4H95.7c-.9,0-1.6-.7-1.6-1.6s.7-1.6,1.6-1.6h131.9c.9,0,1.6.7,1.6,1.6s-.7,1.6-1.6,1.6Z"/>
                <path class="cls-3" d="M227.6,327.5H95.7c-.9,0-1.6-.7-1.6-1.6s.7-1.6,1.6-1.6h131.9c.9,0,1.6.7,1.6,1.6,0,.9-.7,1.6-1.6,1.6Z"/>
                <path class="cls-3" d="M227.6,345.5H95.7c-.9,0-1.6-.7-1.6-1.6s.7-1.6,1.6-1.6h131.9c.9,0,1.6.7,1.6,1.6s-.7,1.6-1.6,1.6Z"/>
                <path class="cls-3" d="M227.6,363.6H95.7c-.9,0-1.6-.7-1.6-1.6s.7-1.6,1.6-1.6h131.9c.9,0,1.6.7,1.6,1.6s-.7,1.6-1.6,1.6Z"/>
                <path class="cls-3" d="M227.6,381.6H95.7c-.9,0-1.6-.7-1.6-1.6s.7-1.6,1.6-1.6h131.9c.9,0,1.6.7,1.6,1.6,0,.9-.7,1.6-1.6,1.6Z"/>
                <path class="cls-3" d="M229.8,289.1H93.5c-.9,0-1.6-.7-1.6-1.6v-21.3c0-.9.7-1.6,1.6-1.6h136.3c.9,0,1.6.7,1.6,1.6v21.3c0,.9-.7,1.6-1.6,1.6ZM95.1,285.9h133.1v-18.1H95.1v18.1Z"/>
              </g>
            </g>
            <g>
              <path class="cls-3" d="M386.3,228.9c-7.8,0-14.2-6.4-14.2-14.2s6.4-14.2,14.2-14.2,14.2,6.4,14.2,14.2-6.4,14.2-14.2,14.2ZM386.3,203.7c-6.1,0-11,4.9-11,11s4.9,11,11,11,11-4.9,11-11-4.9-11-11-11Z"/>
              <path class="cls-3" d="M350.1,228.9c-7.8,0-14.2-6.4-14.2-14.2s6.4-14.2,14.2-14.2,14.2,6.4,14.2,14.2c0,7.8-6.4,14.2-14.2,14.2ZM350.1,203.7c-6.1,0-11,4.9-11,11s4.9,11,11,11,11-4.9,11-11-4.9-11-11-11Z"/>
            </g>
          </g>
          <g>
            <path class="cls-6" d="M277.2,123c0,36.2-25.1,67.2-60.8,80v23.2c0,7.3-5.9,13.2-13.2,13.2h-35.3c-7.3,0-13.2-5.9-13.2-13.2v-19.8c-41.6-9.9-72.2-43.5-72.2-83.4s43.6-86.4,97.3-86.4c53.8,0,97.4,38.7,97.4,86.4Z"/>
            <g>
              <path class="cls-3" d="M219.5,150.4c-2.4-.7-4.8.5-6.3,1.4-4.5,2.7-8.4,6.6-11.7,11.7-2.6-.8-5.1-2.1-7.2-3.7,5.3-9.4,7.7-20.5,6.6-31-.3-2.8-.9-6.3-3-9.2-1.9-2.7-5.6-4.9-9.4-4-4.2,1-6.8,5.3-7.6,12-1.3,12.5,1.4,23.5,7.6,30.9.5.7,1.1,1.3,1.8,1.9-.3.4-.5.9-.8,1.3-4.8,7.2-10.9,11.7-17.2,12.7-1,.2-2.1.3-3.1.3h0c-.2-.5-.3-1-.5-1.6-2-6.3-4.9-14.4-10.6-20.7-3.6-4.1-9.4-7-14-4.2-3.7,2.2-4.5,7-3.5,10.6,1.1,3.7,3.8,6.5,6.2,8.7,4,3.7,11.3,9.2,19.9,10,2.1,7.2,3.6,14.7,5,21.8,2.7,13.5,5,27.6,1.4,40h3.2c3.4-12.8,1.1-27-1.6-40.6-1.4-6.8-2.9-14-4.8-21.1.9,0,1.9-.1,2.8-.3,7.1-1.2,13.9-6.2,19.2-14,.2-.3.4-.7.7-1,2.1,1.6,4.6,2.9,7.1,3.8-2.2,4-4.2,8.6-5.8,13.9-6.5,20.6-6.5,41.6-.4,59.3h3.2c-6.3-17.3-6.3-38,.1-58.4,1.7-5.4,3.7-10,5.9-14,5.4,1.2,11.1.6,15.9-2.8,1.9-1.3,4.2-3.4,4.8-6.5.6-2.9-.8-6.6-4.1-7.5ZM149.1,165.4c-2.2-2-4.5-4.4-5.4-7.3-.7-2.4-.2-5.7,2.1-7.1.7-.4,1.5-.6,2.4-.6,2.7,0,5.7,2,7.7,4.3,5.2,5.8,8,13.5,9.9,19.5,0,.1,0,.3.1.4-7.2-1.2-13.4-5.9-16.9-9.1ZM192,157.7c-.4-.4-.7-.8-1-1.2-7.7-9.2-7.6-21.9-6.9-28.6.3-2.5,1.3-8.3,5.3-9.3.4,0,.7-.1,1.1-.1,2.1,0,4,1.4,5.1,2.9,1.7,2.3,2.2,5.4,2.4,7.7,1,9.6-1.1,19.8-5.9,28.6ZM220.7,157.3c-.4,2.1-2.2,3.6-3.5,4.6-3.7,2.5-8.1,3.2-12.4,2.5,2.9-4.3,6.3-7.5,10.1-9.9,1.7-1,2.9-1.4,3.9-1.1,1.5.4,2.3,2.4,2,3.9Z"/>
              <path class="cls-4" d="M225.1,230.3v19.7h-10.7v32.9c0,9-7.3,16.3-16.3,16.3h-24.9c-9,0-16.3-7.3-16.3-16.3v-19.2l10.4-8.4-10.4-5.3h-10.7v-19.7h78.9Z"/>
              <polygon class="cls-3" points="214.4 250 156.9 263.7 156.9 250 214.4 250"/>
            </g>
            <g>
              <g>
                <path class="cls-1" d="M236.7,80.7c1.6,1.5,3,3.1,4.2,4.9.6.8,1.1,1.7,1.6,2.5.5.9,1,1.8,1.4,2.8.4,1.4,1.1,2.8,2.1,3.9.6.7,1.5,1.3,2.3,1.7,1.3.6,2.9.8,4.3.6,4.2-.5,7.9-5.1,6.2-9.4-3.1-7.7-7.7-18.5-16.7-20.1-6.6-.2-10.2,8.5-5.4,13Z"/>
                <path class="cls-1" d="M249.1,113.2c2.5,9.3,1.6,19.4-1.2,28.5,0,0,0,.2,0,.3-2.7,9.5,12.1,13.6,14.7,4.1,3.8-11.9,4.1-24.8,1.3-36.9-2.5-9.5-17.3-5.5-14.7,4.1Z"/>
              </g>
              <g>
                <path class="cls-1" d="M94.8,148.2c2.8,10.6,8.3,20.4,15.9,28.4,2.2,2.4,5.8-1.2,3.6-3.6-6.9-7.4-11.9-16.4-14.5-26.1-.8-3.2-5.8-1.8-4.9,1.4h0Z"/>
                <path class="cls-1" d="M125.2,183.2v-.3c0-.4,0-.7-.2-1-.1-.3-.3-.6-.5-.8-.2-.2-.5-.4-.8-.5-.3-.2-.6-.2-1-.2-.2,0-.4,0-.7,0-.4.1-.8.3-1.1.7-.1.2-.3.3-.4.5-.2.4-.3.8-.3,1.3v.3c0,.4,0,.7.2,1,.1.3.3.6.5.8.2.2.5.4.8.5.3.2.6.2,1,.2.2,0,.5,0,.7,0,.4-.1.8-.3,1.1-.7.1-.2.3-.3.4-.5.2-.4.3-.8.3-1.3h0Z"/>
              </g>
            </g>
          </g>
          <path class="cls-3" d="M34.7,250.5c-10.9,0-19.7-8.8-19.7-19.7s8.8-19.7,19.7-19.7,19.7,8.8,19.7,19.7c0,10.9-8.8,19.7-19.7,19.7ZM34.7,214.3c-9.1,0-16.5,7.4-16.5,16.5s7.4,16.5,16.5,16.5,16.5-7.4,16.5-16.5-7.4-16.5-16.5-16.5Z"/>
          <g>
            <path class="cls-3" d="M394.4,143.4c-11.3,0-20.5-9.2-20.5-20.5s9.2-20.5,20.5-20.5,20.5,9.2,20.5,20.5-9.2,20.5-20.5,20.5ZM394.4,105.7c-9.5,0-17.2,7.7-17.2,17.2s7.7,17.2,17.2,17.2,17.2-7.7,17.2-17.2-7.7-17.2-17.2-17.2Z"/>
            <path class="cls-3" d="M278.3,462.4c-11.3,0-20.5-9.2-20.5-20.5s9.2-20.5,20.5-20.5,20.5,9.2,20.5,20.5c0,11.3-9.2,20.5-20.5,20.5ZM278.3,424.7c-9.5,0-17.2,7.7-17.2,17.2s7.7,17.2,17.2,17.2,17.2-7.7,17.2-17.2c0-9.5-7.7-17.2-17.2-17.2Z"/>
            <g>
              <circle class="cls-1" cx="452.9" cy="247.7" r="14.7"/>
              <circle class="cls-1" cx="146.3" cy="441.2" r="15.1"/>
              <circle class="cls-1" cx="54.9" cy="169.6" r="14"/>
            </g>
          </g>
        </g>
      </g>
    </g>
  </g>
</svg>