<?xml version="1.0" encoding="UTF-8"?>
<svg id="Layer_1" xmlns="http://www.w3.org/2000/svg" viewBox="0 0 797.32 300.86">
  <defs>
    <style>
      .cls-1 {
        fill: #fff;
      }
    </style>
  </defs>
  <g>
    <path class="cls-1" d="M121.41,107.77s.22.22,0,0h.44-.44Z"/>
    <path class="cls-1" d="M124.06,182.41c-.22-1.77-.22-3.31.22-4.86l-.44-3.09c-4.42.22-8.83,0-12.81-.88l2.21,8.39c5.52.22,10.38,4.64,11.26,10.38v.66l3.53-3.09c-1.99-1.99-3.53-4.64-3.97-7.51h0Z"/>
    <path class="cls-1" d="M87.18,22.76c-.44,2.21-1.99,4.86.44,5.74,1.77.66,3.09-2.43,2.65-5.96-.44-2.43-2.21-4.42-5.3-4.64-.22,0,2.87,2.43,2.21,4.86Z"/>
    <path class="cls-1" d="M77.24,40.65c5.52,8.17,15.9,12.81,26.28,10.82l-1.32-7.29c1.77.22,3.31.22,5.08,0l-13.25-16.56-5.74,10.38c-1.77-.44-3.53-.66-5.52-.22-2.21.44-3.97,1.55-5.52,2.87h0Z"/>
    <path class="cls-1" d="M99.32,28.94c1.55-.44,2.43-1.99,1.99-3.53-.44-1.55-1.99-2.43-3.53-1.99-1.55.44-2.43,1.99-1.99,3.53.44,1.55,1.99,2.43,3.53,1.99Z"/>
    <path class="cls-1" d="M101.75,18.35c-1.32.22-2.65.66-3.75,1.32l-1.1,2.43c.22-.22.66-.22.88-.22,1.77-.44,3.31.44,4.42,1.77l13.47.88c-2.65-4.86-8.17-7.29-13.91-6.18Z"/>
    <path class="cls-1" d="M118.31,26.29l-15.46-1.1c.44,2.21-.88,4.64-3.09,5.08-.22,0-.44.22-.88.22l6.18,7.95,3.75-3.31c.44-.44,1.32-.44,1.77,0,.44.44.44,1.32-.22,1.77l-3.75,3.53,1.55,1.99,5.52-5.08c.44-.44,1.32-.44,1.77,0s.44,1.32-.22,1.77l-5.52,5.08,1.55,1.77,10.82-9.94-3.75-9.72h0ZM106.83,29.83l10.82.66,1.55,4.42-12.37-5.08h0Z"/>
    <path class="cls-1" d="M83.21,70.01l12.81,6.85,1.32-.44-22.3-14.13c-1.99,1.1-4.42,1.99-6.85,1.99-.66,0-1.32,0-1.99-.22l15.46,7.51c0-.22,1.55-1.55,1.55-1.55Z"/>
    <polygon class="cls-1" points="96.68 87.24 99.55 86.58 105.51 77.3 102.64 75.54 95.35 78.18 81.66 71.34 76.36 76.86 78.35 85.91 96.68 87.24"/>
    <path class="cls-1" d="M89.39,12.38s-5.3-5.3-11.7.22c0,0,7.07-1.99,8.83,2.21,1.55,3.75,4.64,6.4,10.82,3.97,0,0-5.74.44-7.95-6.4h0Z"/>
    <path class="cls-1" d="M107.94,73.33l-3.97-20.09c-8.61,1.77-16.34,0-22.3-5.52.44,2.87.66,6.62-1.99,10.6l26.72,17.66,1.55-2.65h0Z"/>
    <path class="cls-1" d="M130.02,188.37l16.34-14.13-19.43,2.87c-.66,1.55-.88,3.31-.44,5.08.22,2.43,1.55,4.64,3.53,6.18Z"/>
    <path class="cls-1" d="M39.71,265.21c1.55-2.65,2.65-5.96,2.21-9.27-.44-4.86-3.31-8.83-7.07-11.04q-.22-.22-.44-.44c0-.44.22-.66.66-.66q.22,0,.44.22c4.2,2.43,7.29,6.85,7.95,12.14v2.43c1.32-3.75,4.2-13.91-3.31-24.51l3.53-.22s-1.1-8.83-7.07-12.59c-2.87,2.87-6.62,4.86-10.82,5.52h-.22c-.66,0-.88-.44-.88-1.1,0-.44.44-.88.88-.88,9.49-1.55,16.34-10.16,15.46-19.87-.44-5.3-3.09-9.72-7.07-12.81,0,0-1.77,2.43-6.85,3.75,0,0-1.32.22-1.32-.66s1.1-1.1,1.1-1.1c5.52-1.32,9.49-5.52,8.61-16.34,0,0-3.75,9.94-13.25,10.38h-1.1c-10.16.88-17.44,9.94-16.56,19.87.22,2.87,1.1,5.52,2.65,7.73,1.1,1.99,2.87,4.42,2.21,9.05,0,0,.22-5.74-4.42-6.4-1.1,2.65-1.55,5.3-1.32,8.39.66,7.29,5.96,13.03,12.81,14.79,0,0,13.69,3.31,11.04,12.59-1.77,6.18,1.99,8.39,1.99,8.39-4.86,5.52-11.26,3.31-13.47.88-2.21-2.43-1.77-5.96-1.77-5.96,0,0,1.77,3.53,6.62,2.87,3.53-.44,6.62-6.4,2.43-11.04-5.3-5.52-20.76,1.99-13.25,15.9,5.52,11.7,23.41,8.83,29.59,0h0Z"/>
    <path class="cls-1" d="M110.81,181.96h-.44c-.66,0-1.1.66-.88,1.32,0,.66.66,1.1,1.32.88h.44c.88-.22,1.77-.22,2.87,0l-.66-2.43c-1.1,0-1.77.22-2.65.22h0Z"/>
    <path class="cls-1" d="M111.47,192.34l-3.09-6.18-1.1,6.62-6.62.88,5.96,3.09-1.1,6.62,4.86-4.64,5.96,3.09-3.09-6.18,3.09-2.87c.88,3.09,1.55,5.74,1.55,5.74l4.64-3.97v-2.43c-.66-4.42-4.2-7.73-8.39-8.39,0,0,1.1,3.75,1.99,7.51l-4.64,1.1h0Z"/>
    <path class="cls-1" d="M62.01,82.6l13.91,1.77-1.77-7.95-4.86-1.32c-.88,3.31-3.75,6.18-7.51,6.85-.22.44.22.66.22.66h0Z"/>
    <path class="cls-1" d="M28,32.26l28.71,18.33v.22c0,.88,0,1.55.22,2.43l-5.3,13.69c1.32-2.21,3.53-3.75,6.18-4.2,1.99-.44,3.97-.22,5.74.44-.22,0-.44-.44-.44-.88s.44-.88.88-.88h.22c1.32.44,2.65.88,4.2.88,6.4,0,11.7-5.3,11.7-11.7s-5.3-11.7-11.7-11.7c-4.2,0-7.73,2.21-9.94,5.3l-26.94-17.66-3.53,5.74h0Z"/>
    <path class="cls-1" d="M73.49,4.88s10.82-7.95,17,4.42c4.86,9.72,8.39,7.95,8.39,7.95-3.97-3.75-1.77-10.16-7.51-14.35-9.94-7.51-17.89,1.99-17.89,1.99h0Z"/>
    <path class="cls-1" d="M91.82.68s1.99,1.1,3.31,3.09c0,0,.88-.66,2.87-.66-1.32-1.77-3.97-2.87-6.18-2.43Z"/>
    <polygon class="cls-1" points="191.4 140.23 190.52 155.69 198.03 151.49 197.36 162.09 206.86 152.6 207.3 146.41 198.69 140.89 191.4 140.23"/>
    <path class="cls-1" d="M43.24,16.36c-5.52,5.96.44,17.44,7.07,18.11,5.96.44,6.18-3.53,6.18-3.53-1.99.44-2.65-.88-1.77-2.21,1.32-1.55,1.77-4.2,1.77-4.2,0,0-.66,1.99-3.97.88-3.53-1.32-4.42,1.99-4.42,1.99-3.75-1.99-3.75-6.18-2.87-7.95.88-1.77,3.09-1.77,3.09-1.77,0,0-1.55,1.55-.44,4.42.88,1.99,4.64,2.87,6.4-.44,2.21-3.97-4.64-11.92-11.04-5.3Z"/>
    <path class="cls-1" d="M110.37,91.65c-3.31.66-6.62,0-9.27-1.77,0,0-.88-.44-.66-1.32l-3.31.66-15.46-1.1-8.39,29.37,18.55-.66c-1.1-7.51,3.97-14.35,11.48-15.46,3.75-.44,7.29.44,9.94,2.43l-.22-1.99c3.09,1.32,5.96,3.53,8.17,5.96h.44l-.22.22c3.09,3.31,5.08,7.73,5.74,12.37,1.32,8.61-2.21,16.78-8.39,21.86l4.2,28.26c1.1,0,2.43-.22,3.53-.44,20.54-3.09,35.33-20.54,35.99-40.41l6.62,6.18,9.05-7.95-61.83-39.52c-1.55,1.77-3.53,2.87-5.96,3.31h0Z"/>
    <path class="cls-1" d="M198.91,137.14l8.61,5.74,2.65-38.64,4.2-3.53.88-11.7-3.53.44c.88-4.2,1.32-9.49,1.1-13.91l-35.33,31.8s-2.43,2.21-5.96,2.87c-4.86.66-9.05-1.32-11.48-5.3l-3.31-5.52,17-17.44c-.66-1.77-1.32-4.2-1.55-5.96-1.1-7.95,1.1-14.35,5.74-20.09,0,0,.88-1.32,1.77-.66.88.88,0,1.99,0,1.99-3.97,5.08-6.18,11.7-5.08,18.77.44,2.21.88,4.42,1.77,6.4l-16.78,17,2.43,4.2c1.77,3.31,5.3,5.3,9.27,4.64,1.55-.22,2.87-.88,3.97-1.55l49.68-45.27c-3.31-1.1-6.85-1.32-10.6-.88-1.77.22-3.31.66-4.86,1.1-7.95-21.86-30.03-36.21-54.54-32.68-17.44,2.43-35.99,14.79-41.51,38.2h0c3.75,1.77,6.85,5.3,7.73,9.72.66,2.87.22,5.74-.88,8.39l60.72,39.97,19.65-17.22-1.77,29.15h0ZM193.83,73.33c1.32-.22,2.43.66,2.65,1.99s-.66,2.43-1.99,2.65c-1.32.22-2.43-.66-2.65-1.99s.66-2.43,1.99-2.65Z"/>
    <polygon class="cls-1" points="181.24 125.66 178.37 128.09 198.69 140.89 198.91 137.14 181.24 125.66"/>
    <polygon class="cls-1" points="207.3 146.41 252.79 175.34 253.67 173.79 207.52 142.88 207.3 146.41"/>
    <path class="cls-1" d="M4.16,180.42s2.21-3.09,5.74-4.86c0,0-.66-1.77-.22-5.3-2.87,1.99-5.52,6.62-5.52,10.16h0Z"/>
    <path class="cls-1" d="M50.97,73.33l-7.29,3.53,8.17-.22c.44.44,1.1.88,1.77,1.1.22-.44.22-.88.22-1.1.22-1.99-.44-3.75-1.99-4.86-.44.22-.66.88-.88,1.55h0Z"/>
    <path class="cls-1" d="M110.37,122.57c-5.52,1.1-11.04-2.43-12.14-7.95-.22-1.55-.22-2.87,0-4.2-1.77,1.32-2.87,3.53-2.65,5.74l8.61,31.8c.88,0,1.99-.22,2.87-.22,4.64-.66,8.83-2.65,12.14-5.52l-3.31-22.74c-1.32,1.55-3.31,2.65-5.52,3.09Z"/>
    <path class="cls-1" d="M114.34,107.77c-1.99-2.43-5.52-3.53-8.61-2.43-3.75,1.32-5.96,5.08-5.3,8.83h0c.44-.44.88-.66,1.55-.88,1.99-.66,3.97.44,4.64,2.21.66,1.77-.22,3.53-1.77,4.42,1.77.88,3.97,1.1,6.18.44,3.53-1.1,5.52-4.64,5.3-8.17l5.52-4.2-.22-.22h-7.29Z"/>
    <path class="cls-1" d="M118.98,84.37c.88-2.21,1.1-4.42.66-6.85-.66-3.31-2.65-5.96-5.08-7.51,0,0-1.1-.66-1.77.22l-4.64,7.07,10.82,7.07h0Z"/>
    <path class="cls-1" d="M115.44,47.49c-3.53,0-6.4,1.99-7.95,4.86l-1.99.66,3.75,18.55,2.43-3.75c1.55-7.07,4.42-13.47,8.39-18.99-1.55-.88-3.09-1.32-4.64-1.32h0Z"/>
    <path class="cls-1" d="M2.83,208.24s-4.2-17.66,16.78-23.18c17-4.42,15.24-10.6,15.24-10.6-9.05,5.3-15.9-2.87-25.17,3.97-16.56,11.7-6.85,29.81-6.85,29.81h0Z"/>
    <path class="cls-1" d="M99.32,7.75c.88-.44,1.77-.66,2.65-.88.66-.22,1.55,0,1.55,0-1.32-2.21-3.75-3.53-6.18-3.09-.66,0-1.1.22-1.77.44,1.55,1.99,2.43,5.08,2.87,8.39.44,2.43,1.99,4.42,1.99,4.42,1.99-.66,3.31-2.43,3.97-4.42,0,1.55-.44,2.87-1.32,3.97,2.87-.44,5.52,0,7.95,1.32.22-.88.22-1.99,0-2.87-.66-4.42-4.64-7.73-8.83-7.07-.66,0-1.55.44-2.21.88h-.22c-.22,0-.44-.22-.66-.44,0-.44.22-.66.22-.66h0Z"/>
    <path class="cls-1" d="M58.48,80.39c4.2.44,7.95-2.43,8.61-6.62.44-4.2-2.43-7.95-6.62-8.61-3.31-.44-6.4,1.32-7.73,4.2,0,0,3.97,2.21,3.53,7.29,0,.88-.44,1.77-.66,2.43.66.66,1.77,1.1,2.87,1.32Z"/>
    <path class="cls-1" d="M19.83,161.43c-3.97,1.32-7.07,4.86-7.51,9.49,0,1.1,0,2.21.22,3.09,3.75-1.77,9.05-1.99,14.13-1.32,4.42.66,7.51-1.55,7.51-1.55-.22-3.75-2.65-7.29-5.74-9.05,3.75.66,5.52,3.09,7.07,4.86-.22,2.21,0,4.64.22,6.85,1.77,11.26,9.05,20.31,18.99,24.51-3.97,7.29-9.05,13.69-15.01,19.43l41.73,50.34-1.1,8.17,4.86,12.14-2.21,2.65,1.77,5.96,18.99.44-3.75-7.51c-3.31-4.42-6.85-6.18-8.39-11.92l12.59,6.62v-9.05c-2.21-5.74-3.31-9.94-4.2-16.34-.44-3.31-.66-6.62-.88-9.94l-24.51-28.7,24.51-22.96c-1.99-1.99-3.31-4.86-3.97-7.73-1.1-7.73,4.2-15.01,11.92-16.12,1.32-.22,2.65-.22,3.75,0l-6.85-25.39c-10.82.22-20.54-6.85-23.85-17.22l4.42-3.31-2.43-3.31c-.44.88-1.55,1.32-2.65,1.55-2.21.22-4.2-.66-5.08-2.43h0c-1.1-1.77-3.09-2.87-5.3-2.65-2.87.44-4.64,3.09-4.42,5.74,0,.66.22,1.1.44,1.77h0l5.96,9.27c-2.87-.44-5.74-.44-8.61,0-9.94,1.55-18.11,7.29-22.74,15.46-1.32-.66-2.65-.88-4.2-1.1-7.29-.66-13.91,4.64-14.57,12.14-.22,1.55,0,3.09.44,4.64v.44c0,.44-.44.88-.88.88-.66,0-.66-.66-.66-.66-.44-1.55-.44-3.31-.44-4.86s.44-3.09.44-3.31h0ZM90.27,251.96l-.88,5.74,3.53,10.82-1.55,1.55-22.3-36.87,21.2,18.77h0ZM62.89,211.77l-3.31,6.4-1.32-2.21,4.64-4.2Z"/>
    <path class="cls-1" d="M69.74,7.08s-5.3-1.99-7.95,3.97c0,0-5.3-2.65-7.29,3.31,0,0,.66,2.21,3.31.88,3.31-1.55.88,2.43,1.55,4.64.88,3.09,3.75,2.21,3.75,2.21,0,0,0,3.09-4.42,2.43,0,0,.44,5.52,4.86,4.42,0,0-3.53.88-4.64,3.97s-3.75,3.09-5.08,3.31c0,0,7.95,1.99,13.69-5.74l.66,1.99s4.2-1.55,5.3-5.74c-1.99-1.32-3.75-3.53-4.86-5.96v-.22c0-.44,0-.88.44-.88s.88.22.88.44c1.99,4.64,6.85,7.29,11.48,6.4,1.32-.22,2.43-.66,3.53-1.32,0,0-.44-1.32-2.21-2.21,0,0,1.1-1.77,2.43-2.43,0,0-.66-2.21-3.09-2.65,0,0,0-3.31-1.99-4.42-1.99-1.1-4.2.66-3.97,2.65,0,0,3.09.44,2.21,3.09-.66,2.21-4.42,1.1-4.42-2.21-.22-4.42,2.43-6.85,8.17-7.95,3.31-.66,6.18,1.55,6.18,1.55,0,0-2.87-6.18-9.27-5.74-6.18.44-6.85,8.83-12.14,5.96,0-.22,3.09-.88,2.87-3.75h0Z"/>
  </g>
  <g>
    <path class="cls-1" d="M348.75,283.39v-41.73c10.93,7.67,22.11,13.88,33.54,18.63,11.42,4.76,21.04,7.13,28.85,7.13s15.04-1.98,20.86-5.96c5.82-3.97,8.73-8.73,8.73-14.27s-1.88-10.39-5.64-14.16c-3.76-3.76-11.89-9.19-24.38-16.29-24.98-13.91-41.34-25.79-49.08-35.66-7.74-9.87-11.6-20.62-11.6-32.26,0-15.04,5.85-27.32,17.57-36.83,11.71-9.51,26.79-14.26,45.24-14.26s38.82,5.39,58.98,16.18v38.33c-23-13.91-41.81-20.86-56.42-20.86-7.53,0-13.59,1.6-18.2,4.79-4.62,3.2-6.92,7.43-6.92,12.69,0,4.55,2.09,8.88,6.27,13,4.18,4.12,11.53,9.09,22.03,14.91l13.84,7.87c32.66,18.45,48.99,38.89,48.99,61.3,0,16.04-6.28,29.2-18.84,39.49-12.56,10.29-28.71,15.43-48.44,15.43-11.64,0-22.01-1.25-31.09-3.73-9.09-2.48-20.51-7.06-34.28-13.73Z"/>
    <path class="cls-1" d="M755.77,101.56h41.55l-86.53,199.29h-12.37l-57.91-136.48-57.21,136.48h-12.58l-87.24-199.29h41.61l51.32,118.81,50.03-118.81h28.74l49.41,118.81,51.17-118.81Z"/>
    <path class="cls-1" d="M277.68,0v105.61c-15.33-5.54-29.52-8.3-42.58-8.3-6.58,0-11.63.53-17.58,1.56l-.25,3.33-4.19,3.53-2.24,32.64c8.91-4.93,18.17-7.41,30.22-7.41s24.56,3.05,36.62,9.16v124.13h-30.02c-17.32,0-29.31-1.14-35.98-3.41-6.67-2.27-12.99-6.67-18.95-13.2-9.93-10.93-14.91-26.47-14.91-46.63,0-15.86,3.15-29.3,9.41-40.34l1.29-22.62-10.13-6.38-9.36,8.21-4.2-3.92c-2.36,13.71-10.9,25.41-22.81,31.96-.34,1.35-.65,2.7-.94,4.08l15.03-2.22-16.92,14.63c-.37,3.87-.56,7.84-.56,11.92,0,30.8,8.62,55.36,25.87,73.67,17.25,18.31,40.35,27.47,69.3,27.47h82.83V0h-38.96Z"/>
  </g>
</svg>